<svg xmlns="http://www.w3.org/2000/svg" viewBox="0 0 480 480">
  <path d="M195.35 299.34l-17.64-5.86a14.2 14.2 0 01-9.7-13.48 16 16 0 1132 0h16a32 32 0 00-24-30.86V232h-16v17.14A32 32 0 00152 280a30.18 30.18 0 0020.64 28.66l17.64 5.86A14.2 14.2 0 01200 328a16 16 0 11-32 0h-16a32 32 0 0024 30.86V376h16v-17.14A32 32 0 00216 328c.01-13-8.3-24.55-20.65-28.66z"/>
  <path d="M472 176H310.27A184.22 184.22 0 00248 126.51V92l28.8-21.6A8 8 0 00280 64V8a8 8 0 00-8-8h-32a8 8 0 00-5.65 2.34L224 12.7 213.66 2.34A8 8 0 00208 0h-48a8 8 0 00-5.65 2.34L144 12.7 133.66 2.34A8 8 0 00128 0H96a8 8 0 00-8 8v56a8 8 0 003.2 6.4L120 92v34.6C59.44 155.9 0 234.6 0 335.55 0 427.36 67.06 480 184 480a308.9 308.9 0 0056.6-5.02A8 8 0 00248 480h224a8 8 0 008-8V184a8 8 0 00-8-8zM104 60V16h20.69l13.65 13.66a8 8 0 0011.32 0L163.3 16h41.38l13.65 13.66a8 8 0 0011.32 0L243.3 16h20.7v44l-26.67 20H130.66L104 60zm128 36v24h-96V96h96zm8 275.78a88 88 0 110-135.56v135.56zM240 184v32.46c-48.35-31.01-112.68-16.96-143.69 31.39-31 48.34-16.95 112.68 31.4 143.69a104 104 0 00112.3 0v67.28a291.33 291.33 0 01-56 5.18c-50.52 0-168-12.51-168-128.44C16 259.02 61.86 163.79 138.66 136h90.72a157.6 157.6 0 0159.46 40H248a8 8 0 00-8 8zm224 280H256V256h208v208zm0-224H256v-48h208v48z"/>
  <path d="M312 272h-32a8 8 0 00-8 8v32a8 8 0 008 8h32a8 8 0 008-8v-32a8 8 0 00-8-8zm-8 32h-16v-16h16v16zM376 272h-32a8 8 0 00-8 8v32a8 8 0 008 8h32a8 8 0 008-8v-32a8 8 0 00-8-8zm-8 32h-16v-16h16v16zM440 272h-32a8 8 0 00-8 8v32a8 8 0 008 8h32a8 8 0 008-8v-32a8 8 0 00-8-8zm-8 32h-16v-16h16v16zM312 336h-32a8 8 0 00-8 8v32a8 8 0 008 8h32a8 8 0 008-8v-32a8 8 0 00-8-8zm-8 32h-16v-16h16v16zM376 336h-32a8 8 0 00-8 8v32a8 8 0 008 8h32a8 8 0 008-8v-32a8 8 0 00-8-8zm-8 32h-16v-16h16v16zM312 400h-32a8 8 0 00-8 8v32a8 8 0 008 8h32a8 8 0 008-8v-32a8 8 0 00-8-8zm-8 32h-16v-16h16v16zM376 400h-32a8 8 0 00-8 8v32a8 8 0 008 8h32a8 8 0 008-8v-32a8 8 0 00-8-8zm-8 32h-16v-16h16v16zM440 336h-32a8 8 0 00-8 8v96a8 8 0 008 8h32a8 8 0 008-8v-96a8 8 0 00-8-8zm-8 96h-16v-80h16v80zM432 208h16v16h-16zM400 208h16v16h-16zM368 208h16v16h-16z"/>
</svg>
