<?xml version="1.0" encoding="iso-8859-1"?>
<!-- Generator: Adobe Illustrator 19.0.0, SVG Export Plug-In . SVG Version: 6.00 Build 0)  -->
<svg version="1.1" id="Capa_1" xmlns="http://www.w3.org/2000/svg" xmlns:xlink="http://www.w3.org/1999/xlink" x="0px" y="0px"
	 viewBox="0 0 498.608 498.608" style="enable-background:new 0 0 498.608 498.608;" xml:space="preserve">
<g>
	<g>
		<polygon points="384,301.992 346.344,339.648 357.656,350.96 376,332.616 376,401.304 392,401.304 392,332.616 410.344,350.96
			421.656,339.648 		" fill="#FFFFFF"/>
	</g>
</g>
<g>
	<g>
		<polygon points="205.656,75.648 194.344,86.96 212.688,105.304 96,105.304 96,121.304 212.688,121.304 194.344,139.648
			205.656,150.96 243.312,113.304 		" fill="#FFFFFF"/>
	</g>
</g>
<g>
	<g>
		<path d="M32,337.304v112h144v-112H32z M160,433.304H48v-80h112V433.304z" fill="#FFFFFF"/>
	</g>
</g>
<g>
	<g>
		<rect x="200" y="337.304" width="80" height="16" fill="#FFFFFF"/>
	</g>
</g>
<g>
	<g>
		<rect x="200" y="369.304" width="80" height="16" fill="#FFFFFF"/>
	</g>
</g>
<g>
	<g>
		<rect x="200" y="401.304" width="80" height="16" fill="#FFFFFF"/>
	</g>
</g>
<g>
	<g>
		<rect x="200" y="433.304" width="80" height="16" fill="#FFFFFF"/>
	</g>
</g>
<g>
	<g>
		<path d="M487.736,251.248c-5.784-20.256-22.208-35.408-42.856-39.528L400,202.744v-2.096c14.8-8.592,25.824-22.928,30.048-39.952
			C444.808,157.848,456,144.88,456,129.304V74.288c0-22.064-14.28-41.336-35.088-47.904c-11.648-15.76-30.032-25.08-49.752-25.08
			c-50.272,0-91.16,40.888-91.16,91.16v36.84c0,15.576,11.192,28.544,25.952,31.392c4.224,17.024,15.248,31.36,30.048,39.952v2.096
			l-44.864,8.976c-17.08,3.416-31.168,14.432-38.84,29.584H0v256h320v-208h178.608L487.736,251.248z M432,143.08v-27.552
			c4.76,2.776,8,7.88,8,13.776S436.76,140.304,432,143.08z M304,143.08c-4.76-2.776-8-7.88-8-13.776s3.24-11,8-13.776V143.08z
			 M296,101.752v-9.296c0-41.432,33.712-75.152,75.16-75.152c15.376,0,29.656,7.64,38.184,20.44l1.712,2.568l3,0.752
			C429.336,44.88,440,58.544,440,74.288v27.464c-4.728-2.752-10.144-4.448-16-4.448c-18.92,0-37.672-6.248-52.808-17.6l-11.944-8.96
			L347.312,82.68C337.88,92.112,325.344,97.304,312,97.304C306.144,97.304,300.728,99,296,101.752z M320,145.304v-32.536
			c14.584-1.752,28.08-8.232,38.624-18.776l2.128-2.128l0.848,0.632c15.744,11.808,34.808,18.936,54.4,20.48v32.328
			c0,26.472-21.528,48-48,48C341.528,193.304,320,171.776,320,145.304z M304,481.304H16v-160h288V481.304z M304,305.304H16v-48
			h230.536l-9.144,32H304V305.304z M438.24,273.304l-6.488-25.936l-15.52,3.872l5.52,22.064H314.248l5.512-22.064l-15.52-3.872
			l-6.488,25.936H258.6l5.056-17.664c4.136-14.472,15.864-25.28,30.616-28.232L352,215.864v-8.672
			c5.128,1.336,10.464,2.112,16,2.112s10.872-0.776,16-2.104v8.672l57.736,11.536c14.752,2.952,26.48,13.768,30.616,28.232
			l5.04,17.664H438.24z" fill="#FFFFFF"/>
	</g>
</g>
<g>
	<g>
		<rect x="32" y="273.304" width="16" height="16" fill="#FFFFFF"/>
	</g>
</g>
<g>
	<g>
		<rect x="64" y="273.304" width="16" height="16" fill="#FFFFFF"/>
	</g>
</g>
<g>
	<g>
		<rect x="96" y="273.304" width="16" height="16" fill="#FFFFFF"/>
	</g>
</g>
<g>
	<g>
		<rect y="105.304" width="16" height="16" fill="#FFFFFF"/>
	</g>
</g>
<g>
	<g>
		<rect x="32" y="105.304" width="16" height="16" fill="#FFFFFF"/>
	</g>
</g>
<g>
	<g>
		<rect x="64" y="105.304" width="16" height="16" fill="#FFFFFF"/>
	</g>
</g>
<g>
	<g>
		<rect x="376" y="481.304" width="16" height="16" fill="#FFFFFF"/>
	</g>
</g>
<g>
	<g>
		<rect x="376" y="449.304" width="16" height="16" fill="#FFFFFF"/>
	</g>
</g>
<g>
	<g>
		<rect x="376" y="417.304" width="16" height="16" fill="#FFFFFF"/>
	</g>
</g>
<g>
</g>
<g>
</g>
<g>
</g>
<g>
</g>
<g>
</g>
<g>
</g>
<g>
</g>
<g>
</g>
<g>
</g>
<g>
</g>
<g>
</g>
<g>
</g>
<g>
</g>
<g>
</g>
<g>
</g>
</svg>
