<?xml version="1.0" encoding="UTF-8"?>
<svg width="15px" height="15px" viewBox="0 0 15 15" version="1.1" xmlns="http://www.w3.org/2000/svg" xmlns:xlink="http://www.w3.org/1999/xlink">
    <!-- Generator: Sketch 63.1 (92452) - https://sketch.com -->
    <title>clock-icon</title>
    <desc>Created with Sketch.</desc>
    <g id="Page-1" stroke="none" stroke-width="1" fill="none" fill-rule="evenodd">
        <g id="06-neighbourhood-tenant-portal-summary" transform="translate(-1058.000000, -649.000000)" fill="#4C8AFF" fill-rule="nonzero">
            <g id="Group-9" transform="translate(814.000000, 0.000000)">
                <g id="summary">
                    <g id="announcement-details" transform="translate(20.000000, 533.500000)">
                        <g id="1-copy-9" transform="translate(224.000000, 115.500000)">
                            <g id="Group-8-Copy-4">
                                <g id="time-icon">
                                    <path d="M7.5,0 C11.6421356,0 15,3.35786438 15,7.5 C15,11.6421356 11.6421356,15 7.5,15 C3.35786438,15 0,11.6421356 0,7.5 C0,3.35786438 3.35786438,0 7.5,0 Z M7.5,1.38461538 C4.12256634,1.38461538 1.38461538,4.12256634 1.38461538,7.5 C1.38461538,10.8774337 4.12256634,13.6153846 7.5,13.6153846 C10.8774337,13.6153846 13.6153846,10.8774337 13.6153846,7.5 C13.6153846,4.12256634 10.8774337,1.38461538 7.5,1.38461538 Z M7.33041798,3.43916954 C7.67453386,3.43916954 7.96001039,3.69023447 8.01366453,4.01918133 L8.02272567,4.13147723 L8.02272567,7.69615385 L10.9066183,7.69628158 C11.2507342,7.69628158 11.5362107,7.94734652 11.5898649,8.27629337 L11.598926,8.38858928 C11.598926,8.73270516 11.3478611,9.01818168 11.0189142,9.07183583 L10.9066183,9.08089697 L6.63811029,9.08089697 L6.63811029,4.13147723 C6.63811029,3.74912625 6.948067,3.43916954 7.33041798,3.43916954 Z" id="clock-icon"></path>
                                </g>
                            </g>
                        </g>
                    </g>
                </g>
            </g>
        </g>
    </g>
</svg>
