<?xml version="1.0" encoding="UTF-8"?>
<svg width="14px" height="17px" viewBox="0 0 14 17" version="1.1" xmlns="http://www.w3.org/2000/svg" xmlns:xlink="http://www.w3.org/1999/xlink">
    <!-- Generator: Sketch 63.1 (92452) - https://sketch.com -->
    <title>place-icon</title>
    <desc>Created with Sketch.</desc>
    <g id="Page-1" stroke="none" stroke-width="1" fill="none" fill-rule="evenodd">
        <g id="06-neighbourhood-tenant-portal-summary" transform="translate(-1059.000000, -603.000000)" fill="#4C8AFF" fill-rule="nonzero">
            <g id="Group-9" transform="translate(814.000000, 0.000000)">
                <g id="summary">
                    <g id="announcement-details" transform="translate(20.000000, 533.500000)">
                        <g id="1-copy-11" transform="translate(225.000000, 57.500000)">
                            <g id="Group-8-Copy-2" transform="translate(0.000000, 12.000000)">
                                <path d="M6.533348,0 C10.1431217,0 13.0666667,2.95212121 13.0666667,6.59035704 C13.0666667,8.84053023 12.016448,11.1196163 10.28102,13.3333909 C9.68391617,14.0950781 9.04555102,14.7952 8.40679674,15.4195691 C8.2574036,15.5655978 8.11490771,15.7006325 7.98082325,15.8241188 L7.58254846,16.1786384 C7.56621039,16.1925214 7.55204897,16.2044088 7.54014443,16.2142705 C6.97299008,16.6841321 6.09367659,16.6841321 5.52653933,16.2142847 L5.3606121,16.0716323 L5.28047226,16.0006175 C5.09253054,15.8329187 4.88395963,15.6386121 4.65986993,15.4195691 C4.02111564,14.7952 3.38275049,14.0950781 2.78564668,13.3333909 C1.05021865,11.1196163 0,8.84053023 0,6.59035704 C0,2.95212579 2.92356979,0 6.533348,0 Z M6.533348,1.4 C3.699831,1.4 1.4,3.72229462 1.4,6.59035704 C1.4,8.4672336 2.32719286,10.4793406 3.88745068,12.4696618 C4.44383691,13.1794082 5.04135396,13.8347302 5.63848186,14.4184104 L5.92278118,14.6911519 C6.14134482,14.8966727 6.31201246,15.0469927 6.41967248,15.1361784 C6.46874103,15.1768294 6.59792563,15.1768294 6.64701128,15.1361642 L6.80546896,15.0001857 C6.96111098,14.863047 7.17372221,14.6671424 7.4281848,14.4184104 C8.02531271,13.8347302 8.62282976,13.1794082 9.17921599,12.4696618 C10.7394738,10.4793406 11.6666667,8.4672336 11.6666667,6.59035704 C11.6666667,3.72228789 9.36685831,1.4 6.533348,1.4 Z M6.53333333,3.5 C8.20651693,3.5 9.56666667,4.86013615 9.56666667,6.53331001 C9.56666667,8.20650237 8.20654508,9.56666667 6.53333333,9.56666667 C4.86011703,9.56666667 3.5,8.20654446 3.5,6.53335666 C3.5,4.86017824 4.86015429,3.5 6.53333333,3.5 Z M6.53333333,4.9 C5.63335846,4.9 4.9,5.63337137 4.9,6.53335666 C4.9,7.433347 5.63331687,8.16666667 6.53333333,8.16666667 C7.43333659,8.16666667 8.16666667,7.43331356 8.16666667,6.53331001 C8.16666667,5.63333793 7.43332141,4.9 6.53333333,4.9 Z" id="place-icon"></path>
                            </g>
                        </g>
                    </g>
                </g>
            </g>
        </g>
    </g>
</svg>