<svg xmlns="http://www.w3.org/2000/svg" xmlns:xlink="http://www.w3.org/1999/xlink" viewBox="0 0 192 192"><defs><style>.cls-1,.cls-4{fill:none;}.cls-1{clip-rule:evenodd;}.cls-2{clip-path:url(#clip-path);}.cls-3{fill:#334056;}</style><clipPath id="clip-path"><path class="cls-1" d="M525.15-1179.47v-45c0-27.66-14.78-50.82-40.54-57v-6.12a13.5,13.5,0,0,0-13.52-13.52,13.5,13.5,0,0,0-13.52,13.52v6.12c-25.86,6.13-40.54,29.2-40.54,57v45l-18,18v9H543.17v-9Zm-54.06,54.06a18.07,18.07,0,0,0,18-18h-36A18,18,0,0,0,471.09-1125.41Z"/></clipPath></defs><g id="trim_area" data-name="trim area"><rect class="cls-3" x="72.1" y="104.29" width="48.31" height="12" rx="6"/><path class="cls-3" d="M20,58.64h0l152,.08v-.09Z"/><path class="cls-3" d="M178.17,48l-10.7-18A12.73,12.73,0,0,0,156,22.72H36.39A12.63,12.63,0,0,0,25,29.79L13.4,48.31,8,57.94V78.07a11.31,11.31,0,0,0,11.3,11.3H26v78a16.44,16.44,0,0,0,16.42,16.41H149.61A16.43,16.43,0,0,0,166,167.33v-78h6.72A11.31,11.31,0,0,0,184,78.07V57.94ZM35.77,35.1a.71.71,0,0,1,.62-.38H156a.67.67,0,0,1,.62.39l7.7,11.53,0,.09L27.6,46.65h0ZM154,167.33a4.42,4.42,0,0,1-4.41,4.41H42.42A4.42,4.42,0,0,1,38,167.33v-78H154Zm18-90H20V58.64H172Z"/><rect class="cls-4" width="192" height="192"/></g></svg>