<?xml version="1.0"?>
<svg xmlns="http://www.w3.org/2000/svg" xmlns:xlink="http://www.w3.org/1999/xlink" version="1.1" id="Capa_1" x="0px" y="0px" viewBox="0 0 508 508" style="enable-background:new 0 0 508 508;" xml:space="preserve" width="512px" height="512px" class=""><g><g>
	<g>
		<path d="M466.8,200.75l9.9-12.2c6.1,3.8,14.2,2.5,18.6-3.4c4.7-6.2,3.5-15.1-2.7-19.8l-18.6-14.2c-6.2-4.7-15.1-3.5-19.8,2.7    c-4,5.3-3.7,12.4,0.3,17.3l-10.7,13.2l-54.5-129c-2.2-5.2-7.3-8.6-13-8.6H131.8c-5.7,0-10.8,3.4-13,8.6l-54.6,129.1l-10.7-13.3    c4-4.9,4.3-12.1,0.2-17.3c-4.7-6.2-13.6-7.4-19.8-2.7l-18.7,14.2c-6.2,4.7-7.4,13.6-2.7,19.8c4.4,5.8,12.5,7.2,18.6,3.4l9.9,12.2    c-24.1,10.8-41,35.1-41,63.2v125.4c0,7.8,6.3,14.1,14.1,14.1h10.8v43.7c0,7.8,6.3,14.1,14.1,14.1h72.3c7.8,0,14.1-6.3,14.1-14.1    v-43.7h257.1v43.7c0,7.8,6.3,14.1,14.1,14.1H469c7.8,0,14.1-6.3,14.1-14.1v-43.7h10.8c7.8,0,14.1-6.3,14.1-14.1v-125.4    C508,235.85,491.1,211.55,466.8,200.75z M141.1,74.95H367l50.6,119.8H90.5L141.1,74.95z M97.3,433.15h-0.1h-44v-29.6h44.1V433.15z     M454.8,433.15h-44.1v-29.6h44.1V433.15z M479.7,375.25H28.2v-111.3c0-22.6,18.4-40.9,41-40.9h369.6c22.6,0,40.9,18.4,40.9,40.9    V375.25z" data-original="#000000" class="active-path" data-old_color="#000000" fill="#73a9e7"/>
	</g>
</g><g>
	<g>
		<path d="M122.3,253.55c-25.3,0-45.9,20.6-45.9,45.9s20.6,45.9,45.9,45.9c25.3,0,45.9-20.6,45.9-45.9    C168.1,274.15,147.6,253.55,122.3,253.55z M122.3,317.05c-9.7,0-17.6-7.9-17.6-17.6s7.9-17.6,17.6-17.6c9.7,0,17.6,7.9,17.6,17.6    S132,317.05,122.3,317.05z" data-original="#000000" class="active-path" data-old_color="#000000" fill="#73a9e7"/>
	</g>
</g><g>
	<g>
		<path d="M385.8,253.55c-25.3,0-45.9,20.6-45.9,45.9s20.6,45.9,45.9,45.9s45.9-20.6,45.9-45.9    C431.6,274.15,411.1,253.55,385.8,253.55z M385.8,317.05c-9.7,0-17.6-7.9-17.6-17.6s7.9-17.6,17.6-17.6s17.6,7.9,17.6,17.6    S395.5,317.05,385.8,317.05z" data-original="#000000" class="active-path" data-old_color="#000000" fill="#73a9e7"/>
	</g>
</g><g>
	<g>
		<path d="M302.3,310.35h-96.5c-7.8,0-14.1,6.3-14.1,14.1s6.3,14.1,14.1,14.1h96.5c7.8,0,14.1-6.3,14.1-14.1    C316.4,316.65,310.1,310.35,302.3,310.35z" data-original="#000000" class="active-path" data-old_color="#000000" fill="#73a9e7"/>
	</g>
</g><g>
	<g>
		<path d="M302.3,253.95h-96.5c-7.8,0-14.1,6.3-14.1,14.1c0,7.8,6.3,14.1,14.1,14.1h96.5c7.8,0,14.1-6.3,14.1-14.1    S310.1,253.95,302.3,253.95z" data-original="#000000" class="active-path" data-old_color="#000000" fill="#73a9e7"/>
	</g>
</g></g> </svg>
