<?xml version="1.0" encoding="UTF-8"?>
<svg width="87px" height="54px" viewBox="0 0 87 54" version="1.1" xmlns="http://www.w3.org/2000/svg" xmlns:xlink="http://www.w3.org/1999/xlink">
    <!-- Generator: Sketch 63.1 (92452) - https://sketch.com -->
    <title>Group 26 Copy</title>
    <desc>Created with Sketch.</desc>
    <g id="Page-1" stroke="none" stroke-width="1" fill="none" fill-rule="evenodd">
        <g id="Artboard" transform="translate(-180.000000, -179.000000)">
            <g id="Group-26-Copy" transform="translate(180.000000, 178.000000)">
                <g id="Group-24">
                    <g id="weather">
                        <path d="M63.0354008,20.2602005 C70.9750009,19.8012005 77.783401,25.8656006 78.242401,33.8052007 C78.701401,41.7448008 72.6370009,48.5532009 64.6974008,49.012201 C64.1438008,49.044201 63.5890008,49.044201 63.0354008,49.012201 L21.2354002,49.012201 C15.0278001,49.009601 9.9974,43.9752009 9.99999899,37.7676008 C10.0026,31.5636007 15.0314001,26.5348006 21.2354002,26.5322006 L22.0354002,26.5322006 C20.7100002,16.9644005 27.3916003,8.13360034 36.9594004,6.80820032 C46.5272005,5.48280031 55.3580007,12.1644004 56.6834007,21.7322005 C58.6592007,20.7594005 60.8330008,20.2556005 63.0354008,20.2602005 L63.0354008,20.2602005 Z" id="Path" fill="#FFFFFF" fill-rule="nonzero"></path>
                        <path d="M70.3975558,21.8402005 C72.7850613,23.3621811 74.3407721,24.5601134 75.0646882,25.4339974 C77.4710312,28.3388436 78.0393616,31.669973 78.2432122,35.0250909 C78.6869709,42.3287879 72.8239419,48.5918857 65.1479797,49.0141232 C64.6127623,49.0435602 64.0763846,49.0435602 63.5411672,49.0141232 L23.1291541,49.0141232 C17.1276802,49.0117314 12.2643168,44.3805495 12.2665764,38.6701321 C12.2693441,32.9630264 17.3412532,28.6049192 23.3392468,28.6025275 L24.1126824,28.6025275 C22.8312929,19.8010372 28.7356316,11.7181058 37.9857287,10.4988605 C47.2358258,9.27961515 55.3620112,13.0387103 56.6434007,21.8402005 C58.5535934,20.9453146 63.4461325,20.6524433 65.5754008,20.6566749 L70.3975558,21.8402005 Z" id="Path-Copy-2" fill="#DBDBF3" fill-rule="nonzero"></path>
                        <path d="M3.37972903,52.786311 C1.87353751,53.1335046 0.834694936,52.8978349 0.263201306,52.079302 C-0.308292324,51.260769 0.0508846831,50.4178557 1.34073233,49.550562 C1.25046823,48.5490684 1.60704095,47.8074307 2.41045049,47.3256488 C3.21386002,46.8438669 4.11086285,46.8438669 5.10145897,47.3256488 C5.67016037,46.3346137 6.66419307,45.8992408 8.08355708,46.0195301 C9.50292109,46.1398195 10.28308,46.7089607 10.4240337,47.7269539 C11.6443979,47.6665424 12.4353766,47.9847816 12.79697,48.6816717 C13.1585633,49.3785617 12.967967,50.0424844 12.225181,50.6734396 C12.6216772,51.8025309 12.3599865,52.6470408 11.4401089,53.2069693 C10.5202313,53.7668978 9.49505453,53.7058822 8.36457859,53.0239224 C7.82057765,53.6746408 6.98852095,54 5.86840847,54 C4.74829599,54 3.91873617,53.595437 3.37972903,52.786311 Z" id="Path-16" fill="#DBDBF3"></path>
                        <path d="M71.7315532,17.7709095 C70.457651,18.2227895 69.605325,17.9520337 69.1745751,16.9586422 C68.7438251,15.9652506 69.1102058,15.1052843 70.2737173,14.3787431 C70.3350509,13.5903934 70.684811,13.0218358 71.3229976,12.6730703 C71.9611842,12.3243048 72.5533352,12.4096598 73.0994507,12.9291354 C73.8880572,12.0608943 74.736789,11.8011565 75.6456462,12.149922 C76.5545034,12.4986875 77.0679974,13.1397459 77.1861281,14.0730972 C78.7236227,14.6861188 79.2836959,15.6479671 78.8663476,16.9586422 C78.4489993,18.2693172 77.4719772,18.5980645 75.9352812,17.9448841 C75.2536894,18.7445786 74.4977837,19.0896942 73.6675642,18.9802308 C72.8373447,18.8707674 72.1920077,18.4676603 71.7315532,17.7709095 Z" id="Path-17" fill="#DBDBF3"></path>
                        <g id="Group-5" transform="translate(50.500000, 5.000000) rotate(4.000000) translate(-50.500000, -5.000000) translate(42.000000, 1.000000)" stroke="#BCBCE2" stroke-linecap="round" stroke-linejoin="round">
                            <path d="M13.064348,7.31954876 C9.85279589,4.47418712 5.628137,2.74669197 1,2.74669197" id="Shape" transform="translate(7.032174, 5.033120) rotate(3.000000) translate(-7.032174, -5.033120) "></path>
                            <path d="M16.5047364,4.9250467 C16.1637354,4.63499001 15.813791,4.35513189 15.4553746,4.08594394 M14.0521883,3.11446564 C12.7135746,2.26226319 11.2768082,1.55052286 9.76264417,1" id="Shape" transform="translate(13.133690, 2.962523) rotate(3.000000) translate(-13.133690, -2.962523) "></path>
                        </g>
                        <g id="Group-33" transform="translate(30.000000, 26.000000)" fill="#FFFFFF" fill-rule="nonzero">
                            <path d="M5.5759074,1.17239556e-14 C8.55349848,1.17239556e-14 10.1848438,1.86909973 10.1848438,2.97759121 C10.1848438,3.70629309 9.78910099,4.14989543 9.01305421,4.14989543 C7.50830529,4.14989543 7.95139318,2.09090097 5.5759074,2.09090097 C3.94404745,2.09090097 2.59780161,3.5004451 2.59780161,5.97165013 C2.59780161,8.04659784 3.42170814,9.85188469 5.67059748,9.85188469 C7.71415328,9.85188469 7.66629365,7.66629378 8.91784942,7.66629378 C9.55134663,7.66629378 10.1848438,8.03064459 10.1848438,8.66414181 C10.1848438,10.3114403 8.18914754,11.9427857 5.67059748,11.9427857 C2.10685409,11.9427857 3.90798519e-15,9.89922973 3.90798519e-15,5.97113554 C3.90798519e-15,2.75578997 1.9010061,1.17239556e-14 5.5759074,1.17239556e-14 Z" id="Path"></path>
                            <path d="M17.0596519,1.17239556e-14 C20.7973368,1.17239556e-14 22.8249395,2.48664369 22.8249395,5.82910043 C22.8249395,9.044446 20.9558397,11.9427857 17.0596519,11.9427857 C12.9725402,11.9427857 11.2938499,9.28168577 11.2938499,5.82910043 C11.2938499,2.48664369 13.3214525,1.17239556e-14 17.0596519,1.17239556e-14 L17.0596519,1.17239556e-14 Z M17.0596519,9.85188469 C19.4196992,9.85188469 20.2271379,8.01469147 20.2271379,5.82910043 C20.2271379,3.6429948 19.1819448,2.09090097 17.0596519,2.09090097 C14.9368446,2.09090097 13.8916515,3.6429948 13.8916515,5.82910043 C13.8916515,8.01469147 14.6198387,9.85188469 17.0596519,9.85188469 L17.0596519,9.85188469 Z" id="Shape"></path>
                            <path d="M28.576847,14.1597685 C29.1815253,14.1597685 29.4336892,14.4726574 29.4336892,15.006833 C29.4336892,15.5410085 29.1815253,15.8538974 28.576847,15.8538974 L24.4640042,15.8538974 C23.9298286,15.8538974 23.6071618,15.4504354 23.6071618,15.0171253 C23.6071618,14.3918621 23.7584602,14.0691954 25.6131505,12.7790431 L26.5708583,12.1136395 C27.0648934,11.7709027 27.2460397,11.4888908 27.2460397,11.0751365 C27.2460397,10.5811013 26.9135952,10.2589491 26.3691272,10.2589491 C25.2199809,10.2589491 25.8148816,11.6597447 24.6755129,11.6597447 C23.9498988,11.6597447 23.6879571,11.2567973 23.6879571,10.6819667 C23.6879571,9.71448113 24.6353726,8.6862705 26.4298523,8.6862705 C28.576847,8.6862705 29.3230459,9.85548707 29.3230459,10.9742708 C29.3230459,11.8213354 28.8995136,12.4260138 28.002531,12.9905519 L26.1776886,14.1396983 L26.1776886,14.1597685 L28.576847,14.1597685 Z" id="Path"></path>
                        </g>
                        <path d="M63.0354008,20.2602005 C70.9750009,19.8012005 77.783401,25.8656006 78.242401,33.8052007 C78.701401,41.7448008 72.6370009,48.5532009 64.6974008,49.012201 C64.1438008,49.044201 63.5890008,49.044201 63.0354008,49.012201 L21.2354002,49.012201 C15.0278001,49.009601 9.9974,43.9752009 9.99999899,37.7676008 C10.0026,31.5636007 15.0314001,26.5348006 21.2354002,26.5322006 L22.0354002,26.5322006 C20.7100002,16.9644005 27.3916003,8.13360034 36.9594004,6.80820032 C46.5272005,5.48280031 55.3580007,12.1644004 56.6834007,21.7322005 C58.6592007,20.7594005 60.8330008,20.2556005 63.0354008,20.2602005 L63.0354008,20.2602005 Z" id="Path-Copy" stroke="#7176C4" fill-rule="nonzero"></path>
                    </g>
                    <line x1="27.706894" y1="49" x2="85.874" y2="49" id="Stroke-3-Copy" stroke="#7176C4" stroke-linecap="round" stroke-linejoin="round"></line>
                    <line x1="53.7954701" y1="54.5" x2="78.0484701" y2="54.5" id="Stroke-7-Copy" stroke="#7176C4" stroke-linecap="round" stroke-linejoin="round"></line>
                    <line x1="35" y1="54.5" x2="44.5455656" y2="54.5" id="Stroke-7-Copy-5" stroke="#7176C4" stroke-linecap="round" stroke-linejoin="round"></line>
                </g>
                <rect id="Rectangle-Copy-27" fill="#DBDBF3" transform="translate(3.500000, 20.500000) rotate(108.000000) translate(-3.500000, -20.500000) " x="2" y="19" width="3" height="3"></rect>
                <rect id="Rectangle-Copy-41" fill="#DBDBF3" transform="translate(82.000000, 42.000000) rotate(172.000000) translate(-82.000000, -42.000000) " x="81" y="41" width="2" height="2"></rect>
            </g>
        </g>
    </g>
</svg>