<?xml version="1.0" encoding="UTF-8"?>
<svg width="108px" height="73px" viewBox="0 0 108 73" version="1.1" xmlns="http://www.w3.org/2000/svg" xmlns:xlink="http://www.w3.org/1999/xlink">
    <!-- Generator: Sketch 63.1 (92452) - https://sketch.com -->
    <title>Group 40</title>
    <desc>Created with Sketch.</desc>
    <g id="Page-1" stroke="none" stroke-width="1" fill="none" fill-rule="evenodd">
        <g id="Artboard" transform="translate(-432.000000, -161.000000)">
            <g id="Group-40" transform="translate(432.000000, 160.000000)">
                <g id="Group-3">
                    <polygon id="Rectangle" fill="#DBDBF3" points="45.5454748 17.7800099 91.7000018 17.7800099 91.7000018 23.1575391 41.3166545 23.1575391"></polygon>
                    <g id="Group-20-Copy" transform="translate(0.000000, 22.100000)" stroke="#7176C4" stroke-linecap="round">
                        <g id="Group-36-Copy-2" transform="translate(0.000000, 0.003999)">
                            <g id="Group-35" transform="translate(0.000000, 0.353540)">
                                <g id="Group-2" transform="translate(0.549890, 44.767651)" stroke-linejoin="round">
                                    <line x1="0" y1="0.550000012" x2="94.0092917" y2="0.550000012" id="Stroke-11"></line>
                                    <line x1="101.365913" y1="0.550000012" x2="96.6686671" y2="0.550000012" id="Stroke-11"></line>
                                </g>
                                <line x1="91.2519718" y1="0.703190167" x2="41.3166545" y2="0.703190167" id="Stroke-17"></line>
                                <line x1="29.8485405" y1="50.7500013" x2="61.8706412" y2="50.7500013" id="Stroke-13" stroke-linejoin="round"></line>
                                <line x1="71.4519714" y1="50.7500013" x2="81.2331716" y2="50.7500013" id="Stroke-15" stroke-linejoin="round"></line>
                            </g>
                        </g>
                    </g>
                    <path d="M91.2519718,31.92 L91.2519718,50.0600026 L72.5932792,31.5 L71.649,29 C74.639,32.92 79.36,35.45 84.67,35.45 C87.2233333,35.45 89.4173239,34.2733333 91.2519718,31.92 Z" id="Fill-1" fill="#BCBCE2"></path>
                    <path d="M46.5558349,15.5879989 C55.630519,15.5879989 56.0724032,15.5879989 74.2217715,15.5879989 L91.2519718,15.5879989 L91.2519718,37.0588994 L91.2519718,48.5605938 L91.2519718,58.6906277 L91.2519718,67.7753001" id="Path" stroke="#7176C4" stroke-linecap="round" stroke-linejoin="round"></path>
                    <path d="M107.7608,54.3804001 C107.7608,55.6949001 106.6949,56.7608001 105.3804,56.7608001 C104.0659,56.7608001 103,55.6949001 103,54.3804001 C103,53.0659 104.0659,52 105.3804,52 C106.6949,52 107.7608,53.0659 107.7608,54.3804001" id="Fill-3-Copy" fill-opacity="0.5" fill="#DBDBF3"></path>
                    <polygon id="Fill-37-Copy" fill="#DBDBF3" transform="translate(54.750000, 3.750000) rotate(-96.000000) translate(-54.750000, -3.750000) " points="54.7495742 6.50000012 52 3.75000006 54.7495742 1 57.5000001 3.75000006"></polygon>
                    <rect id="Rectangle-Copy-27" fill="#DBDBF3" transform="translate(9.475000, 27.475000) rotate(28.000000) translate(-9.475000, -27.475000) " x="7" y="25" width="4.95000011" height="4.95000011"></rect>
                </g>
                <g id="Group-37" transform="translate(18.000000, 9.500000)">
                    <g id="wifi-(1)" fill="#7176C4" fill-rule="nonzero">
                        <circle id="Oval" cx="13.0618524" cy="19.9000383" r="1.69035074"></circle>
                        <path d="M25.9510842,5.62753618 C22.5842128,2.0151542 18.0250295,0.0256113749 13.1128703,0.0256113749 C8.2011208,0.0256113749 3.64193751,2.0151542 0.275014944,5.62753618 C-0.110692362,6.041416 -0.0878982387,6.68969112 0.32598158,7.07544965 C0.739912621,7.46115696 1.38813652,7.43841406 1.77389505,7.02448302 C4.74891236,3.83248614 8.77584005,2.07457259 13.1132288,2.07452137 C17.4502591,2.07457259 21.4771868,3.83248614 24.4522041,7.02448302 C24.6539705,7.24095036 24.9275512,7.35046748 25.201849,7.35046748 C25.4519697,7.35046748 25.7027051,7.25939055 25.9001175,7.07544965 C26.3139974,6.6896399 26.3368427,6.041416 25.9510842,5.62753618 Z" id="Path"></path>
                        <path d="M22.1893879,9.85822798 C19.7006281,7.35066949 16.4772317,5.96975538 13.1129215,5.96985782 C9.74784295,5.96985782 6.52439531,7.35087438 4.03640391,9.85833043 C3.63789091,10.259968 3.64040083,10.9086017 4.04203841,11.3071147 C4.44367599,11.7056277 5.09230967,11.7031178 5.49082266,11.3014802 C7.59121152,9.18464882 10.298129,8.01881904 13.1129215,8.01876781 C15.9269969,8.01866537 18.6339144,9.18454638 20.7350716,11.3015826 C20.9353525,11.503349 21.1987399,11.6043617 21.4622297,11.6043617 C21.723056,11.6043617 21.9840871,11.5052955 22.1839583,11.3070122 C22.5854934,10.908448 22.5879521,10.2598143 22.1893879,9.85822798 Z" id="Path"></path>
                        <path d="M18.0893653,14.1012132 C16.7565494,12.780742 14.8460945,11.9605121 13.1033941,11.9605121 C13.1031892,11.9605121 13.1028306,11.9605121 13.1026257,11.9605121 L13.0288137,11.9605121 C13.0285064,11.9605121 13.0283527,11.9605121 13.0280454,11.9605121 C11.2852938,11.9605121 9.37468522,12.7807932 8.0419205,14.1012132 C7.6400268,14.4994189 7.63700466,15.1480526 8.03521032,15.5499975 C8.23554249,15.7521737 8.49923721,15.8534647 8.76298314,15.8534647 C9.02355327,15.8534647 9.28422585,15.7546324 9.48394335,15.5567589 C10.4327423,14.616719 11.8237986,14.0094221 13.0281479,14.0094221 C13.0283015,14.0094221 13.0285064,14.0094221 13.0286601,14.0094221 L13.1027794,14.0094221 C13.1029843,14.0094221 13.1030355,14.0094221 13.1032404,14.0094221 C14.307436,14.0094221 15.6985947,14.6167702 16.6472912,15.5567589 C17.0491849,15.9549133 17.6979211,15.9520449 18.0960755,15.5499975 C18.4943324,15.1481038 18.4913102,14.4994189 18.0893653,14.1012132 Z" id="Path"></path>
                    </g>
                    <g id="Group-36-Copy" transform="translate(0.000000, 22.000000)">
                        <g id="Group-30">
                            <g id="Group-28" transform="translate(0.040000, 0.000003)">
                                <rect id="Rectangle" fill="#FFFFFF" x="0.779999996" y="0.619999896" width="24.1799999" height="35.8799998" rx="2.60000014"></rect>
                                <path d="M5.45999881,2.05619077 L22.3599997,2.05619077 C23.7959402,2.05619077 24.9599999,3.22025048 24.9599999,4.65619091 L24.9599999,33.8999996 C24.9599999,35.33594 23.7959402,36.4999997 22.3599997,36.4999997 L5.45999881,36.4999997 C4.02405838,36.4999997 2.85999867,35.33594 2.85999867,33.8999996 L2.85999867,4.65619091 C2.85999867,3.22025048 4.02405838,2.05619077 5.45999881,2.05619077 Z" id="Rectangle-Copy-5" fill="#DBDBF3"></path>
                                <polygon id="Path-24" fill="#BCBCE2" points="8.63967472 20.0364013 24.5344056 28.0012121 24.5344056 10.1243112 16.9723861 6.08643675"></polygon>
                                <rect id="Rectangle-Copy-4" stroke="#7176C4" x="1.28" y="1.1199999" width="23.1799999" height="34.8799998" rx="2.60000014"></rect>
                                <circle id="Oval-Copy-7" fill="#FFFFFF" cx="12.8699999" cy="13.0999998" r="8.18999996"></circle>
                                <path d="M13.4769566,20.4496391 C17.2109379,20.4496391 20.5080251,18.1694557 20.5080251,14.3554702 C20.5080251,10.5414846 17.2109379,7.25000161 13.4769566,7.25000161 C9.74297518,7.25000161 6.7159852,10.3418478 6.7159852,14.1558334 C6.7159852,17.9698189 9.74297518,20.4496391 13.4769566,20.4496391 Z" id="Oval-Copy-8" fill="#DBDBF3"></path>
                                <circle id="Oval" stroke="#7176C4" stroke-width="1.55999999" cx="12.8699999" cy="13.0999998" r="7.40999997"></circle>
                            </g>
                        </g>
                        <g id="Group-34" transform="translate(4.572386, 23.949881)">
                            <g id="Group-32" transform="translate(2.900000, 2.900000) rotate(-180.000000) translate(-2.900000, -2.900000) translate(0.900000, 0.900000)">
                                <circle id="Oval-Copy-9" fill="#FFFFFF" cx="1.55999999" cy="1.55999999" r="1.55999999"></circle>
                                <circle id="Oval-Copy-10" fill="#7176C4" cx="1.43000008" cy="1.43000008" r="1.43000008"></circle>
                            </g>
                            <g id="Group-32-Copy" transform="translate(8.100001, 2.900000) rotate(-180.000000) translate(-8.100001, -2.900000) translate(6.100001, 0.900000)">
                                <circle id="Oval-Copy-9" fill="#FFFFFF" cx="1.55999999" cy="1.55999999" r="1.55999999"></circle>
                                <circle id="Oval-Copy-10" fill="#7176C4" cx="1.43000008" cy="1.43000008" r="1.43000008"></circle>
                            </g>
                            <g id="Group-32-Copy-2" transform="translate(13.300001, 2.900000) rotate(-180.000000) translate(-13.300001, -2.900000) translate(11.300001, 0.900000)">
                                <circle id="Oval-Copy-9" fill="#FFFFFF" cx="1.55999999" cy="1.55999999" r="1.55999999"></circle>
                                <circle id="Oval-Copy-10" fill="#7176C4" cx="1.43000008" cy="1.43000008" r="1.43000008"></circle>
                            </g>
                        </g>
                        <polygon id="Path-23" fill="#7176C4" transform="translate(17.179632, 5.154579) rotate(30.000000) translate(-17.179632, -5.154579) " points="15.9726058 6.456386 17.2551018 3.85277166 18.3866586 6.456386"></polygon>
                    </g>
                </g>
                <g id="Group-39" transform="translate(47.000000, 38.000000)" stroke="#DBDBF3" stroke-linecap="round" stroke-linejoin="round" stroke-width="1.10000002">
                    <path d="M27.4043969,0.550000012 L-2.48689958e-14,0.550000012 L27.4043969,0.550000012 Z" id="Stroke-4"></path>
                    <path d="M34,15.55 L0,15.55 L34,15.55 Z" id="Stroke-4-Copy-4"></path>
                    <path d="M22.5331705,3.85000008 L1.0658141e-14,3.85000008 L22.5331705,3.85000008 Z" id="Stroke-4-Copy"></path>
                    <path d="M22.5331705,7.15000015 L1.0658141e-14,7.15000015 L22.5331705,7.15000015 Z" id="Stroke-4-Copy-5"></path>
                </g>
                <g id="Group-38" transform="translate(69.000000, 4.000000)">
                    <g id="Group-29">
                        <path d="M32.74,16.37 C32.74,17.68 32.59,18.94 32.3,20.16 C31.07,25.34 27.38,29.559 22.54,31.53 C20.639,32.309 18.55,32.74 16.37,32.74 C7.33,32.74 0,25.41 0,16.37 C0,7.33 7.33,0 16.37,0 C25.41,0 32.74,7.33 32.74,16.37 Z" id="Stroke-19" fill="#FFFFFF"></path>
                        <path d="M17.302,32.7426 C8.776,32.7426 1.864,25.8306 1.864,17.3046 C1.864,8.7786 8.776,1.8666 17.302,1.8666 C25.829,1.8666 32.74,8.7786 32.74,17.3046 C32.74,25.8306 25.829,32.7426 17.302,32.7426 Z" id="Fill-13" fill="#DBDBF3"></path>
                        <path d="M32.74,16.37 C32.74,17.68 32.59,18.94 32.3,20.16 C31.07,25.34 27.38,29.559 22.54,31.53 C20.639,32.309 18.55,32.74 16.37,32.74 C7.33,32.74 0,25.41 0,16.37 C0,7.33 7.33,0 16.37,0 C25.41,0 32.74,7.33 32.74,16.37 Z" id="Stroke-19-Copy" stroke="#7176C4"></path>
                    </g>
                    <g id="Group-27" transform="translate(8.416200, 8.499900)" stroke="#7176C4">
                        <line x1="2.30274013" y1="15.8513255" x2="2.30274013" y2="0" id="Path-18" stroke-linecap="round"></line>
                        <circle id="Oval" fill="#FFFFFF" cx="2.2399999" cy="4.79999979" r="1.7399999"></circle>
                        <line x1="7.4227399" y1="15.8513255" x2="7.4227399" y2="0" id="Path-18-Copy" stroke-linecap="round"></line>
                        <circle id="Oval-Copy" fill="#FFFFFF" cx="7.35999967" cy="11.5199995" r="1.7399999"></circle>
                        <line x1="12.8627397" y1="15.8513255" x2="12.8627397" y2="0" id="Path-18-Copy-2" stroke-linecap="round"></line>
                        <circle id="Oval-Copy-2" fill="#FFFFFF" cx="12.7999994" cy="4.79999979" r="1.7399999"></circle>
                    </g>
                </g>
            </g>
        </g>
    </g>
</svg>