<svg viewBox="0 0 512 512" xmlns="http://www.w3.org/2000/svg">
  <g fill="none" fill-rule="evenodd">
    <path d="M47 321.2a17.3 17.3 0 11-34.5 0 17.3 17.3 0 0134.5 0M488 269.2a13.2 13.2 0 11-26.6 0 13.2 13.2 0 0126.5 0" fill-opacity=".5" fill="#DBDBF3"/>
    <path d="M333.7 429.4H400M129.5 429.4h148.4" stroke="#7176C4" stroke-linecap="round" stroke-linejoin="round" stroke-width="6.1"/>
    <path d="M357.4 233.7v99c0 19.9-16.2 36.2-36.2 36.2H112V233.7h245.4z" fill="#DDDDF0"/>
    <path d="M91.4 346.8c-6 0-11-5-11-11v-110c0-6 5-11 11-11H316c6 0 11 5 11 11v110c0 6-5 11-11 11H91.4z" fill="#E5E5F6"/>
    <path d="M229.3 215.8a111 111 0 00107.1 114.7l-.8-25.6c-46.8-1.6-81.8-42.3-80.1-89.1h-26.2z" fill-opacity=".5" fill="#BCBCE2"/>
    <path d="M321.2 344.4H81c-6.4 0-11.7-5.3-11.7-11.8V215c0-6.5 5.3-11.8 11.7-11.8h240.3c6.5 0 11.7 5.3 11.7 11.8v117.7c0 6.5-5.2 11.8-11.7 11.8z" stroke="#7176C4" stroke-width="6.1" stroke-linecap="round" stroke-linejoin="round"/>
    <path d="M407 119.6l-284.5 1.1v-20c0-5 4.1-9.2 9.2-9.2l275.3-1v29.1z" fill="#DBDBF3"/>
    <path d="M201 183.3l-86.7-.5V92.5c0-6 5.5-10.8 12.3-10.8h268.8c6.7 0 12.2 4.8 12.2 10.8v290.9" stroke="#7176C4" stroke-width="6.1" stroke-linecap="round" stroke-linejoin="round"/>
    <path d="M140.4 102.9a2.2 2.2 0 11-4.3 0 2.2 2.2 0 014.3 0zM158.7 102.9a2.2 2.2 0 11-4.3 0 2.2 2.2 0 014.3 0zM177 102.9a2.2 2.2 0 11-4.2 0 2.2 2.2 0 014.3 0z" stroke="#7176C4" stroke-width="6.1" stroke-linecap="round" stroke-linejoin="round"/>
    <path stroke="#7176C4" stroke-width="6.1" d="M407 120.7H115"/>
    <path stroke="#7176C4" stroke-width="6.1" stroke-linecap="round" stroke-linejoin="round" d="M114.3 344.4l.7 42.1"/>
    <path fill="#DBDBF3" d="M40 118.5L20.4 98.8 40.1 79l19.7 19.8z"/>
    <path stroke="#7176C4" stroke-width="6.1" stroke-linecap="round" stroke-linejoin="round" d="M2 388.8h507.2"/>
    <g>
      <path d="M334.5 149a78.5 78.5 0 1078.6 78.5h-78.6v-78.6z" fill="#FFF"/>
      <path d="M337.3 156a73.7 73.7 0 1073.7 73.6h-73.7V156z" fill="#BCBCE2"/>
      <path d="M334.5 149a78.5 78.5 0 1078.6 78.5h-78.6v-78.6zM364.3 283.4a63.5 63.5 0 0031-37.8M334.5 290.8c5.2 0 10.1-.6 14.9-1.8" stroke="#7176C4" stroke-width="5.5" stroke-linecap="round" stroke-linejoin="round"/>
      <path d="M349.4 140.3v72.4h72.4c0-40-32.4-72.4-72.4-72.4z" stroke="#7176C4" stroke-width="5.5" fill="#FFF" stroke-linecap="round" stroke-linejoin="round"/>
      <path stroke="#DBDBF3" stroke-width="5.5" stroke-linecap="round" stroke-linejoin="round" d="M361.3 176.5v-20.6V179.8M361.3 191.3v5.7"/>
    </g>
  </g>
</svg>
