<?xml version="1.0" encoding="UTF-8"?>
<svg width="88px" height="62px" viewBox="0 0 88 62" version="1.1" xmlns="http://www.w3.org/2000/svg" xmlns:xlink="http://www.w3.org/1999/xlink">
    <!-- Generator: Sketch 63.1 (92452) - https://sketch.com -->
    <title>Group 19</title>
    <desc>Created with Sketch.</desc>
    <g id="Page-1" stroke="none" stroke-width="1" fill="none" fill-rule="evenodd">
        <g id="Artboard" transform="translate(-600.000000, -65.000000)">
            <g id="Group-19" transform="translate(601.000000, 65.706259)">
                <g id="Group-18">
                    <polygon id="Rectangle" fill="#DBDBF3" points="19 0 53 7.50383338 53 55.7584093 19 55.7584093"></polygon>
                    <polygon id="Rectangle" fill="#FFFFFF" points="20 1 52.5 8.13119873 21.5 4.49492191 21.5 55 20 55"></polygon>
                    <path d="M19.5,0.622382942 L19.5,55.2584093 L52.5,55.2584093 L52.5,7.90551534 L19.5,0.622382942 Z" id="Rectangle-Copy-32" stroke="#7176C4"></path>
                    <polygon id="Rectangle" fill="#DBDBF3" points="38 20.3672992 67 15.8786461 67 55.7584093 38 55.7584093"></polygon>
                    <polygon id="Rectangle" fill="#FFFFFF" points="39 21 66.4702729 16.5631307 40.4376043 22.8889385 40.4376043 54.9508067 39 55"></polygon>
                    <path d="M66.5,16.4619905 L38.5,20.7958625 L38.5,55.2584093 L66.5,55.2584093 L66.5,16.4619905 Z" id="Rectangle-Copy-36" stroke="#7176C4"></path>
                    <path d="M10.7608001,20.6741414 C10.7608001,21.9886415 9.69490008,23.0545415 8.38040005,23.0545415 C7.06590002,23.0545415 6,21.9886415 6,20.6741414 C6,19.3596414 7.06590002,18.2937414 8.38040005,18.2937414 C9.69490008,18.2937414 10.7608001,19.3596414 10.7608001,20.6741414" id="Fill-3-Copy" fill-opacity="0.5" fill="#DBDBF3"></path>
                    <polygon id="Fill-37-Copy" fill="#DBDBF3" transform="translate(72.750000, 47.043741) rotate(-69.000000) translate(-72.750000, -47.043741) " points="72.7495742 49.7937415 70 47.0437414 72.7495742 44.2937414 75.5000001 47.0437414"></polygon>
                    <rect id="Rectangle-Copy-27" fill="#DBDBF3" transform="translate(60.475000, 5.768741) rotate(28.000000) translate(-60.475000, -5.768741) " x="58" y="3.29374138" width="4.95000011" height="4.95000011"></rect>
                    <rect id="Rectangle" fill="#BCBCE2" x="23" y="10.2937414" width="4" height="7"></rect>
                    <rect id="Rectangle-Copy-22" fill="#BCBCE2" x="23" y="21.2937414" width="4" height="7"></rect>
                    <rect id="Rectangle-Copy-24" fill="#BCBCE2" x="23" y="31.2937414" width="4" height="7"></rect>
                    <rect id="Rectangle-Copy-26" fill="#BCBCE2" x="23" y="41.2937414" width="4" height="7"></rect>
                    <rect id="Rectangle-Copy-23" fill="#BCBCE2" x="30" y="21.2937414" width="4" height="7"></rect>
                    <rect id="Rectangle-Copy-31" fill="#BCBCE2" x="42" y="23.2937414" width="4" height="7"></rect>
                    <rect id="Rectangle-Copy-35" fill="#BCBCE2" x="42" y="33.2937414" width="4" height="7"></rect>
                    <rect id="Rectangle-Copy-39" fill="#BCBCE2" x="42" y="43.2937414" width="4" height="7"></rect>
                    <rect id="Rectangle-Copy-33" fill="#BCBCE2" x="51" y="23.2937414" width="4" height="7"></rect>
                    <rect id="Rectangle-Copy-37" fill="#BCBCE2" x="51" y="33.2937414" width="4" height="7"></rect>
                    <rect id="Rectangle-Copy-34" fill="#BCBCE2" x="60" y="23.2937414" width="4" height="7"></rect>
                    <rect id="Rectangle-Copy-38" fill="#BCBCE2" x="60" y="33.2937414" width="4" height="7"></rect>
                    <rect id="Rectangle-Copy-42" fill="#BCBCE2" x="60" y="43.2937414" width="4" height="7"></rect>
                    <rect id="Rectangle-Copy-25" fill="#BCBCE2" x="30" y="31.2937414" width="4" height="7"></rect>
                    <rect id="Rectangle-Copy-30" fill="#BCBCE2" x="30" y="41.2937414" width="4" height="7"></rect>
                    <rect id="Rectangle-Copy-19" fill="#BCBCE2" x="30" y="10.2937414" width="4" height="7"></rect>
                    <rect id="Rectangle-Copy-20" fill="#BCBCE2" x="37" y="10.2937414" width="4" height="7"></rect>
                    <rect id="Rectangle-Copy-21" fill="#BCBCE2" x="44" y="10.2937414" width="4" height="7"></rect>
                    <line x1="43" y1="60.2937414" x2="67.253" y2="60.2937414" id="Stroke-7-Copy" stroke="#7176C4" stroke-linecap="round" stroke-linejoin="round"></line>
                    <line x1="0" y1="55.2937414" x2="85.874" y2="55.2937414" id="Stroke-3-Copy" stroke="#7176C4" stroke-linecap="round" stroke-linejoin="round"></line>
                    <polygon id="Rectangle" fill="#FFFFFF" points="49.51746 45.789599 55.51746 45.789599 55.51746 54.789599 49.51746 54.789599"></polygon>
                    <path d="M56.01746,45.289599 L49.01746,45.289599 L49.01746,55.289599 L56.01746,55.289599 L56.01746,45.289599 Z" id="Rectangle-Copy-40" stroke="#7176C4"></path>
                    <line x1="23" y1="60.2937414" x2="33.86" y2="60.2937414" id="Stroke-5" stroke="#7176C4" stroke-linecap="round" stroke-linejoin="round"></line>
                </g>
                <g id="Group-31" transform="translate(11.000000, 37.293741)">
                    <path d="M9.29394659,18.0070004 C4.05237298,18.0070004 0,14.2493432 0,9.2844888 C0,4.319052 3.08549772,0.168177863 9.01560562,0.168177863 C14.9457135,0.168177863 18.2689785,6.87159052 18.0070004,9.69355068 C17.2116163,14.4672837 14.536135,18.0070004 9.29394659,18.0070004 Z" id="Fill-57" fill="#FFFFFF"></path>
                    <path d="M9.29394659,18.0070004 C4.05237298,18.0070004 1.02520002,14.9829344 1.02520002,10.01808 C1.02520002,5.05264322 4.58599212,1.02718002 10.5161,1.02718002 C16.4462079,1.02718002 18.2689785,6.87159052 18.0070004,9.69355068 C17.2116163,14.4672837 14.536135,18.0070004 9.29394659,18.0070004 Z" id="Fill-57-Copy" fill="#DBDBF3"></path>
                    <path d="M18.0070004,10.623918 C17.3310504,13.473468 14.5166855,16.5735653 11.8546854,17.6570653 L8,14.3484002 L9.5,3 L18.0070004,10.623918 Z" id="Fill-59" fill="#BCBCE2"></path>
                    <path d="M18.0070004,9.0035002 C18.0070004,9.72455021 17.9245004,10.4170002 17.7650004,11.0880002 C17.0885004,13.9375503 15.0590003,16.2580004 12.3970003,17.3415004 C11.3514502,17.7705004 10.2025002,18.0070004 9.0035002,18.0070004 C4.03150009,18.0070004 1.13686838e-13,13.9755003 1.13686838e-13,9.0035002 C1.13686838e-13,4.03150009 4.03150009,0 9.0035002,0 C13.9755003,0 18.0070004,4.03150009 18.0070004,9.0035002 Z" id="Stroke-63" stroke="#7176C4"></path>
                </g>
                <g id="charging" transform="translate(16.000000, 40.293741)" fill="#FFFFFF" fill-rule="nonzero">
                    <polygon id="Path" points="7.56560016 4.53936009 4.53936009 4.53936009 4.53936009 -7.10542736e-15 -5.77315973e-15 6.80904014 3.02624006 6.80904014 3.02624006 11.3484002"></polygon>
                </g>
            </g>
        </g>
    </g>
</svg>