<?xml version="1.0" encoding="UTF-8"?>
<svg width="88px" height="61px" viewBox="0 0 88 61" version="1.1" xmlns="http://www.w3.org/2000/svg" xmlns:xlink="http://www.w3.org/1999/xlink">
    <!-- Generator: Sketch 63.1 (92452) - https://sketch.com -->
    <title>Group 23</title>
    <desc>Created with Sketch.</desc>
    <g id="Page-1" stroke="none" stroke-width="1" fill="none" fill-rule="evenodd">
        <g id="Artboard" transform="translate(-705.000000, -146.000000)">
            <g id="Group-23" transform="translate(706.000000, 146.000000)">
                <g id="Group-19-Copy-2">
                    <g id="Group-18">
                        <polygon id="Rectangle" fill="#DBDBF3" points="19 0 53 7.50383338 53 55.7584093 19 55.7584093"></polygon>
                        <polygon id="Rectangle" fill="#FFFFFF" points="20 1 52.5 8.13119873 21.5 4.49492191 21.5 55 20 55"></polygon>
                        <path d="M19.5,0.622382942 L19.5,55.2584093 L52.5,55.2584093 L52.5,7.90551534 L19.5,0.622382942 Z" id="Rectangle-Copy-32" stroke="#7176C4"></path>
                        <polygon id="Rectangle" fill="#DBDBF3" points="38 20.3672992 67 15.8786461 67 55.7584093 38 55.7584093"></polygon>
                        <polygon id="Rectangle" fill="#FFFFFF" points="39 21 66.4702729 16.5631307 40.4376043 22.8889385 40.4376043 54.9508067 39 55"></polygon>
                        <path d="M66.5,16.4619905 L38.5,20.7958625 L38.5,55.2584093 L66.5,55.2584093 L66.5,16.4619905 Z" id="Rectangle-Copy-36" stroke="#7176C4"></path>
                        <path d="M15,16.5 C15,17.3283272 14.3283272,18 13.5,18 C12.6716728,18 12,17.3283272 12,16.5 C12,15.6716728 12.6716728,15 13.5,15 C14.3283272,15 15,15.6716728 15,16.5" id="Fill-3-Copy" fill-opacity="0.5" fill="#DBDBF3"></path>
                        <polygon id="Fill-37-Copy" fill="#DBDBF3" transform="translate(60.750000, 6.750000) rotate(-69.000000) translate(-60.750000, -6.750000) " points="60.7495742 9.50000012 58 6.75000006 60.7495742 4 63.5000001 6.75000006"></polygon>
                        <rect id="Rectangle" fill="#BCBCE2" x="23" y="10.2937414" width="4" height="7"></rect>
                        <rect id="Rectangle-Copy-22" fill="#BCBCE2" x="23" y="21.2937414" width="4" height="7"></rect>
                        <rect id="Rectangle-Copy-24" fill="#BCBCE2" x="23" y="31.2937414" width="4" height="7"></rect>
                        <rect id="Rectangle-Copy-26" fill="#BCBCE2" x="23" y="41.2937414" width="4" height="7"></rect>
                        <rect id="Rectangle-Copy-23" fill="#BCBCE2" x="30" y="21.2937414" width="4" height="7"></rect>
                        <rect id="Rectangle-Copy-31" fill="#BCBCE2" x="42" y="23.2937414" width="4" height="7"></rect>
                        <rect id="Rectangle-Copy-35" fill="#BCBCE2" x="42" y="33.2937414" width="4" height="7"></rect>
                        <rect id="Rectangle-Copy-39" fill="#BCBCE2" x="42" y="43.2937414" width="4" height="7"></rect>
                        <rect id="Rectangle-Copy-33" fill="#BCBCE2" x="51" y="23.2937414" width="4" height="7"></rect>
                        <rect id="Rectangle-Copy-37" fill="#BCBCE2" x="51" y="33.2937414" width="4" height="7"></rect>
                        <rect id="Rectangle-Copy-34" fill="#BCBCE2" x="60" y="23.2937414" width="4" height="7"></rect>
                        <rect id="Rectangle-Copy-38" fill="#BCBCE2" x="60" y="33.2937414" width="4" height="7"></rect>
                        <rect id="Rectangle-Copy-42" fill="#BCBCE2" x="60" y="43.2937414" width="4" height="7"></rect>
                        <rect id="Rectangle-Copy-25" fill="#BCBCE2" x="30" y="31.2937414" width="4" height="7"></rect>
                        <rect id="Rectangle-Copy-30" fill="#BCBCE2" x="30" y="41.2937414" width="4" height="7"></rect>
                        <rect id="Rectangle-Copy-19" fill="#BCBCE2" x="30" y="10.2937414" width="4" height="7"></rect>
                        <rect id="Rectangle-Copy-20" fill="#BCBCE2" x="37" y="10.2937414" width="4" height="7"></rect>
                        <rect id="Rectangle-Copy-21" fill="#BCBCE2" x="44" y="10.2937414" width="4" height="7"></rect>
                        <line x1="43" y1="60.2937414" x2="67.253" y2="60.2937414" id="Stroke-7-Copy" stroke="#7176C4" stroke-linecap="round" stroke-linejoin="round"></line>
                        <line x1="0" y1="55.2937414" x2="85.874" y2="55.2937414" id="Stroke-3-Copy" stroke="#7176C4" stroke-linecap="round" stroke-linejoin="round"></line>
                        <polygon id="Rectangle" fill="#FFFFFF" points="49.51746 45.789599 55.51746 45.789599 55.51746 54.789599 49.51746 54.789599"></polygon>
                        <path d="M56.01746,45.289599 L49.01746,45.289599 L49.01746,55.289599 L56.01746,55.289599 L56.01746,45.289599 Z" id="Rectangle-Copy-40" stroke="#7176C4"></path>
                        <line x1="23" y1="60.2937414" x2="33.86" y2="60.2937414" id="Stroke-5" stroke="#7176C4" stroke-linecap="round" stroke-linejoin="round"></line>
                    </g>
                </g>
                <g id="Group-22" transform="translate(2.000000, 41.000000)">
                    <g id="Group-7">
                        <rect id="Rectangle" fill="#E5E5F6" x="0" y="3.49999994" width="17.4999997" height="3.49999994"></rect>
                        <g id="Group-9" transform="translate(10.500000, 0.000000)" fill="#BCBCE2" opacity="0.75999999">
                            <rect id="Rectangle" x="2.09999996" y="0" width="4.19999993" height="3.49999994"></rect>
                            <rect id="Rectangle-Copy-14" x="0" y="0" width="1.39999998" height="3.49999994"></rect>
                        </g>
                        <polygon id="Path-12-Copy" fill="#FFFFFF" points="0 3.49999994 1.39999998 3.49999994 1.39999998 6.80502266 0 6.86882668"></polygon>
                        <rect id="Rectangle-Copy-15" stroke="#7176C4" stroke-width="0.770000004" stroke-linecap="round" stroke-linejoin="round" x="0" y="3.49999994" width="17.4999997" height="3.49999994"></rect>
                        <rect id="Rectangle-Copy-10" fill="#E5E5F6" x="0.699999988" y="0" width="17.4999997" height="3.49999994"></rect>
                        <g id="Group-9" transform="translate(10.500000, 0.000000)" fill="#BCBCE2" opacity="0.75999999">
                            <rect id="Rectangle" x="2.09999996" y="0" width="4.19999993" height="3.49999994"></rect>
                            <rect id="Rectangle-Copy-14" x="0" y="0" width="1.39999998" height="3.49999994"></rect>
                        </g>
                        <g id="Group-9" transform="translate(8.400000, 3.500000)" fill="#BCBCE2" opacity="0.75999999">
                            <polygon id="Rectangle" points="2.09999996 0 6.29999989 0 6.29999989 3.1165683 2.09999996 3.1165683"></polygon>
                            <polygon id="Rectangle-Copy-14" points="0 0 1.39999998 0 1.39999998 3.1165683 0 3.1165683"></polygon>
                        </g>
                        <polygon id="Path-12" fill="#FFFFFF" points="0.87585 0.131173196 2.27584998 0.131173196 2.27584998 3.43619592 0.87585 3.49999994"></polygon>
                        <rect id="Rectangle-Copy-13" stroke="#7176C4" stroke-width="0.770000004" stroke-linecap="round" stroke-linejoin="round" x="0.699999988" y="0" width="17.4999997" height="3.49999994"></rect>
                    </g>
                    <g id="Group-7-Copy" transform="translate(0.000000, 7.000000)">
                        <rect id="Rectangle" fill="#E5E5F6" x="0" y="3.49999994" width="17.4999997" height="3.49999994"></rect>
                        <g id="Group-9" transform="translate(10.500000, 0.000000)" fill="#BCBCE2" opacity="0.75999999">
                            <rect id="Rectangle" x="2.09999996" y="0" width="4.19999993" height="3.49999994"></rect>
                            <rect id="Rectangle-Copy-14" x="0" y="0" width="1.39999998" height="3.49999994"></rect>
                        </g>
                        <polygon id="Path-12-Copy" fill="#FFFFFF" points="0 3.49999994 1.39999998 3.49999994 1.39999998 6.80502266 0 6.86882668"></polygon>
                        <polygon id="Rectangle-Copy-15" stroke="#7176C4" stroke-width="0.770000004" stroke-linecap="round" stroke-linejoin="round" points="0 3.49999994 17.4999997 3.49999994 17.4999997 7.29374138 0 7.29374138"></polygon>
                        <rect id="Rectangle-Copy-10" fill="#E5E5F6" x="0.699999988" y="0" width="17.4999997" height="3.49999994"></rect>
                        <g id="Group-9" transform="translate(10.500000, 0.000000)" fill="#BCBCE2" opacity="0.75999999">
                            <rect id="Rectangle" x="2.09999996" y="0" width="4.19999993" height="3.49999994"></rect>
                            <rect id="Rectangle-Copy-14" x="0" y="0" width="1.39999998" height="3.49999994"></rect>
                        </g>
                        <g id="Group-9" transform="translate(8.400000, 3.500000)" fill="#BCBCE2" opacity="0.75999999">
                            <polygon id="Rectangle" points="2.09999996 0 6.29999989 0 6.29999989 3.36882674 2.09999996 3.36882674"></polygon>
                            <polygon id="Rectangle-Copy-14" points="0 0 1.39999998 0 1.39999998 3.36882674 0 3.36882674"></polygon>
                        </g>
                        <polygon id="Path-12" fill="#FFFFFF" points="0.87585 0.131173196 2.27584998 0.131173196 2.27584998 3.43619592 0.87585 3.49999994"></polygon>
                        <rect id="Rectangle-Copy-13" stroke="#7176C4" stroke-width="0.770000004" stroke-linecap="round" stroke-linejoin="round" x="0.699999988" y="0" width="17.4999997" height="3.49999994"></rect>
                    </g>
                </g>
                <g id="Group-21-Copy" transform="translate(60.000000, 37.000000)">
                    <g id="Group-31">
                        <path d="M9.29394659,18.0070004 C4.05237298,18.0070004 0,14.2493432 0,9.2844888 C0,4.319052 3.08549772,0.168177863 9.01560562,0.168177863 C14.9457135,0.168177863 18.2689785,6.87159052 18.0070004,9.69355068 C17.2116163,14.4672837 14.536135,18.0070004 9.29394659,18.0070004 Z" id="Fill-57" fill="#FFFFFF"></path>
                        <path d="M9.29394659,18.0070004 C4.05237298,18.0070004 1.02520002,14.9829344 1.02520002,10.01808 C1.02520002,5.05264322 4.58599212,1.02718002 10.5161,1.02718002 C16.4462079,1.02718002 18.2689785,6.87159052 18.0070004,9.69355068 C17.2116163,14.4672837 14.536135,18.0070004 9.29394659,18.0070004 Z" id="Fill-57-Copy" fill="#DBDBF3"></path>
                        <path d="M18.0863786,9.15066955 C17.4104286,12.0002196 16.2117045,15.6006065 13.5497044,16.6841065 L9.12080002,14.1375999 L9.30480003,12.5722334 C10.5552454,11.9035966 11.1804681,11.2534544 11.1804681,10.6218069 C11.1804681,10.0682571 9.75923009,9.10432247 6.91675416,7.73000318 L8.55760002,5.3513126 L9.12080002,4 L18.0863786,9.15066955 Z" id="Fill-59" fill="#BCBCE2"></path>
                        <path d="M18.0070004,9.0035002 C18.0070004,9.72455021 17.9245004,10.4170002 17.7650004,11.0880002 C17.0885004,13.9375503 15.0590003,16.2580004 12.3970003,17.3415004 C11.3514502,17.7705004 10.2025002,18.0070004 9.0035002,18.0070004 C4.03150009,18.0070004 1.13686838e-13,13.9755003 1.13686838e-13,9.0035002 C1.13686838e-13,4.03150009 4.03150009,0 9.0035002,0 C13.9755003,0 18.0070004,4.03150009 18.0070004,9.0035002 Z" id="Stroke-63" stroke="#7176C4"></path>
                    </g>
                    <g id="charging" transform="translate(5.000000, 3.000000)" fill="#FAFAFA" fill-rule="nonzero">
                        <g id="coin">
                            <g id="Group" transform="translate(0.500000, 0.942400)">
                                <g id="Group-20" transform="translate(0.804800, 0.057600)">
                                    <path d="M2.81599998,2.25279999 C2.50493759,2.25279999 2.25279999,2.00066239 2.25279999,1.68959999 L2.25279999,0.563199997 C2.25279999,0.252137599 2.50493759,0 2.81599998,0 C3.12706238,0 3.37919998,0.252137599 3.37919998,0.563199997 L3.37919998,1.68959999 C3.37919998,2.00066239 3.12706238,2.25279999 2.81599998,2.25279999 Z" id="Path"></path>
                                    <path d="M2.81599998,10.1375999 C2.50493759,10.1375999 2.25279999,9.88546235 2.25279999,9.57439995 L2.25279999,8.44799995 C2.25279999,8.13693756 2.50493759,7.88479996 2.81599998,7.88479996 C3.12706238,7.88479996 3.37919998,8.13693756 3.37919998,8.44799995 L3.37919998,9.57439995 C3.37919998,9.88546235 3.12706238,10.1375999 2.81599998,10.1375999 Z" id="Path"></path>
                                    <path d="M2.81599998,9.01119995 C2.06296639,9.02510395 1.33020799,8.76670075 0.752435196,8.28354556 C0.519763197,8.07702716 0.498607997,7.72097916 0.705126396,7.48830716 C0.911644795,7.25563516 1.26769279,7.23447996 1.50036479,7.44099836 C1.87175999,7.74143036 2.33851199,7.89887996 2.81599998,7.88479996 C3.73176318,7.88479996 4.50559998,7.36890876 4.50559998,6.75839996 C4.50559998,6.14789117 3.73176318,5.63199997 2.81599998,5.63199997 C1.42295999,5.76480957 0,4.77854077 0,3.37919998 C0,1.97985919 1.42295999,0.993590395 2.81599998,1.12639999 C3.56903358,1.11249599 4.30179198,1.37089919 4.87956477,1.85405439 C5.11223677,2.06057279 5.13339197,2.41662079 4.92687357,2.64929279 C4.72035517,2.88196478 4.36430718,2.90311998 4.13163518,2.69660159 C3.76023998,2.39616959 3.29348798,2.23871999 2.81599998,2.25279999 C1.90023679,2.25279999 1.12639999,2.76869118 1.12639999,3.37919998 C1.12639999,3.98970878 1.90023679,4.50559998 2.81599998,4.50559998 C4.20903998,4.37279038 5.63199997,5.35905917 5.63199997,6.75839996 C5.63199997,8.15774076 4.20903998,9.14400955 2.81599998,9.01119995 Z" id="Path"></path>
                                </g>
                            </g>
                        </g>
                    </g>
                </g>
            </g>
        </g>
    </g>
</svg>