<?xml version="1.0" encoding="UTF-8"?>
<svg width="88px" height="72px" viewBox="0 0 88 72" version="1.1" xmlns="http://www.w3.org/2000/svg" xmlns:xlink="http://www.w3.org/1999/xlink">
    <!-- Generator: Sketch 63.1 (92452) - https://sketch.com -->
    <title>Group 15</title>
    <desc>Created with Sketch.</desc>
    <g id="Page-1" stroke="none" stroke-width="1" fill="none" fill-rule="evenodd">
        <g id="Artboard" transform="translate(-175.000000, -169.000000)">
            <g id="Group-15" transform="translate(175.000000, 168.000000)">
                <g id="Group-14">
                    <rect id="Rectangle-Copy-29" fill="#DBDBF3" transform="translate(84.475000, 44.475000) rotate(28.000000) translate(-84.475000, -44.475000) " x="82" y="42" width="4.95000011" height="4.95000011"></rect>
                    <g id="Group-35-Copy">
                        <path d="M76.1041,33.71 L76.1041,56.564 L52.2841,30.85 L52.9331,30.79 C55.9231,34.71 60.6441,37.24 65.9541,37.24 C69.7841,37.24 73.3031,35.92 76.1041,33.71" id="Fill-1" fill="#BCBCE2"></path>
                        <line x1="0.5001" y1="65.833" x2="86.3741" y2="65.833" id="Stroke-3" stroke="#7176C4" stroke-linecap="round" stroke-linejoin="round"></line>
                        <line x1="54.688" y1="72.4678" x2="65.548" y2="72.4678" id="Stroke-5" stroke="#7176C4" stroke-linecap="round" stroke-linejoin="round"></line>
                        <line x1="21.3257" y1="72.4678" x2="45.5787" y2="72.4678" id="Stroke-7" stroke="#7176C4" stroke-linecap="round" stroke-linejoin="round"></line>
                        <path d="M76.1031,33.7119 L76.1031,65.8329 L8.39441324,65.8329 C8.39441324,57.3199798 8.39441324,41.3374396 8.39441324,37.8302131 M8.39441324,29.3767391 C8.39441324,25.6658998 8.39441324,22.2545786 8.39441324,14.8329 C8.39441324,13.7289 9.29041324,12.8329 10.3944132,12.8329 L51.7921,12.8329 M8.41577404,32.2408 L8.41577404,34.8470344" id="Shape" stroke="#7176C4" stroke-linecap="round" stroke-linejoin="round"></path>
                        <circle id="Oval" fill="#DBDBF3" cx="23.8252906" cy="7.85689063" r="1.49019063"></circle>
                        <path d="M82.3238,21.8047 C82.3238,30.3307 75.4128,37.2427 66.8858,37.2427 C58.3598,37.2427 51.4478,30.3307 51.4478,21.8047 C51.4478,13.2787 58.3598,6.3667 66.8858,6.3667 C75.4128,6.3667 82.3238,13.2787 82.3238,21.8047" id="Fill-13" fill="#DBDBF3"></path>
                        <path d="M81.8834,24.6602 C80.6544,29.8402 76.9634,34.0592 72.1234,36.0302 L61.4634,25.3702 L72.0334,14.8002 L81.8834,24.6602 Z" id="Fill-15" fill="#BCBCE2"></path>
                        <polygon id="Fill-17" fill="#FFFFFF" points="71.3287 14.167 63.7067 21.789 60.5787 18.661 57.6837 21.556 63.7067 27.577 66.5997 24.684 74.2227 17.062"></polygon>
                        <path d="M82.3238,20.8701 C82.3238,22.1801 82.1738,23.4401 81.8838,24.6601 C80.6538,29.8401 76.9638,34.0591 72.1238,36.0301 C70.2228,36.8091 68.1338,37.2401 65.9538,37.2401 C56.9138,37.2401 49.5838,29.9101 49.5838,20.8701 C49.5838,11.8301 56.9138,4.5001 65.9538,4.5001 C74.9938,4.5001 82.3238,11.8301 82.3238,20.8701 Z" id="Stroke-19" stroke="#7176C4"></path>
                        <polygon id="Fill-33" fill="#DBDBF3" transform="translate(45.548400, 4.739800) rotate(-45.000000) translate(-45.548400, -4.739800) " points="48.3983998 3.18499992 47.1031999 1.8898 45.548 3.44419991 43.9936001 1.8898 42.6984002 3.18499992 44.2528001 4.73939983 42.6984002 6.29459974 43.9936001 7.58979966 45.548 6.03539975 47.1031999 7.58979966 48.3983998 6.29459974 46.8439999 4.73939983"></polygon>
                    </g>
                    <g id="Group-4" transform="translate(13.000000, 32.000000)">
                        <polygon id="Fill-3" fill="#DBDBF3" points="19.7999998 33.3869887 21.6325998 33.3869887 21.6325998 6.90409988 19.7999998 6.90409988"></polygon>
                        <polygon id="Fill-5" fill="#DBDBF3" points="10 33.3869887 11.8326 33.3869887 11.8326 13.9488998 10 13.9488998"></polygon>
                        <polygon id="Fill-5-Copy" fill="#DBDBF3" points="0 33.3869887 1.83259997 33.3869887 1.83259997 23.9996994 0 23.9996994"></polygon>
                        <polygon id="Fill-6" fill="#DBDBF3" points="29.5999997 33.3869887 31.4325996 33.3869887 31.4325996 1.0658141e-14 29.5999997 1.0658141e-14"></polygon>
                        <polygon id="Fill-8" fill="#BCBCE2" points="32.5070996 33.3869887 37.7325995 33.3869887 37.7325995 1.31809998 32.5070996 1.31809998"></polygon>
                        <polygon id="Stroke-19" stroke="#7176C4" stroke-width="0.699999988" stroke-linecap="round" stroke-linejoin="round" points="31.4325996 33.9996994 37.7325995 33.9996994 37.7325995 0.240799996 31.4325996 0.240799996"></polygon>
                        <polygon id="Fill-20" fill="#DBDBF3" points="22.7070998 33.3869887 27.9325997 33.3869887 27.9325997 8.31809986 22.7070998 8.31809986"></polygon>
                        <polygon id="Stroke-21" stroke="#7176C4" stroke-width="0.699999988" stroke-linecap="round" stroke-linejoin="round" points="21.6325998 33.9996994 27.9325997 33.9996994 27.9325997 7.24079988 21.6325998 7.24079988"></polygon>
                        <polygon id="Fill-23" fill="#DBDBF3" points="12.9071 33.3869887 18.1325999 33.3869887 18.1325999 15.3180997 12.9071 15.3180997"></polygon>
                        <polygon id="Fill-23-Copy" fill="#DBDBF3" points="2.90709995 33.3869887 8.13259986 33.3869887 8.13259986 24.9996994 2.90709995 24.9996994"></polygon>
                        <polygon id="Stroke-24" stroke="#7176C4" stroke-width="0.699999988" stroke-linecap="round" stroke-linejoin="round" points="11.8326 33.9996994 18.1325999 33.9996994 18.1325999 14.2407998 11.8326 14.2407998"></polygon>
                        <polygon id="Stroke-24-Copy" stroke="#7176C4" stroke-width="0.699999988" stroke-linecap="round" stroke-linejoin="round" points="1.83259997 33.9996994 8.13259986 33.9996994 8.13259986 23.9996994 1.83259997 23.9996994"></polygon>
                    </g>
                </g>
                <g id="Group-16" transform="translate(29.491105, 37.345088) rotate(16.000000) translate(-29.491105, -37.345088) translate(20.991105, 25.345088)">
                    <g id="Group-15-Copy" transform="translate(7.017400, 0.000000)" fill="#DBDBF3" fill-rule="nonzero">
                        <path d="M7.97477281,7.3386515 C7.57526277,7.3386515 7.20976898,7.07207023 7.10150804,6.66785581 L5.85418509,2.01287626 L1.19920554,3.2601992 C0.716403932,3.38962984 0.220514505,3.10314544 0.0912044918,2.62052476 C-0.0381055217,2.13790409 0.248258258,1.64183372 0.730878934,1.51252371 L6.25972639,0.031067617 C6.742528,-0.098302709 7.23841742,0.188181696 7.36772744,0.670742059 L8.84918353,6.19958951 C8.97849354,6.68221019 8.69212976,7.17828055 8.20950909,7.30759056 C8.13104252,7.32857932 8.05227438,7.3386515 7.97477281,7.3386515 L7.97477281,7.3386515 Z" id="Path"></path>
                    </g>
                    <line x1="12.9499998" y1="1.96250823" x2="8.8817842e-16" y2="23.9488998" id="Path-20" stroke="#DBDBF3" stroke-width="2" stroke-linecap="round" stroke-linejoin="round"></line>
                </g>
            </g>
        </g>
    </g>
</svg>