<?xml version="1.0" encoding="UTF-8"?>
<svg width="95px" height="75px" viewBox="0 0 95 75" version="1.1" xmlns="http://www.w3.org/2000/svg" xmlns:xlink="http://www.w3.org/1999/xlink">
    <!-- Generator: Sketch 63.1 (92452) - https://sketch.com -->
    <title>Group 17</title>
    <desc>Created with Sketch.</desc>
    <defs>
        <polygon id="path-1" points="0.6879 0.0004 11.5479 0.0004 11.5479 1 0.6879 1"></polygon>
        <path d="M13.0999998,3 C16.3644448,3 19.2274169,4.71890992 20.83319,7.30100366 L13.0999998,7.30108626 L10.5225163,12.0040215 L13.2368286,16.7034454 L20.9510746,16.7040362 C19.3700955,19.3942052 16.4459306,21.1999996 13.0999998,21.1999996 C8.07420869,21.1999996 4,17.1257909 4,12.0999998 C4,7.07420869 8.07420869,3 13.0999998,3 Z" id="path-3"></path>
    </defs>
    <g id="Page-1" stroke="none" stroke-width="1" fill="none" fill-rule="evenodd">
        <g id="Artboard" transform="translate(-296.000000, -161.000000)">
            <g id="Group-17" transform="translate(296.000000, 160.000000)">
                <g id="Group-65" transform="translate(38.000000, 9.000000)">
                    <path d="M43,59.1191458 L41,59.1191458 L41,7 C42.3333333,7 43,7 43,7 L43,59.1191458 Z" id="Fill-55" fill-opacity="0.4" fill="#AAAAE2"></path>
                    <g id="Group-5" transform="translate(43.000000, 64.817300)">
                        <mask id="mask-2" fill="white">
                            <use xlink:href="#path-1"></use>
                        </mask>
                        <g id="Clip-4"></g>
                    </g>
                    <path d="M4.6444,58.6829 L1.4684,58.6829 L1.4684,8.5269 C1.4684,7.7309 2.1134,7.0859 2.9084,7.0859 L4.6444,7.0859 L4.6444,58.6829 Z" id="Fill-9" fill="#DBDBF3"></path>
                    <path d="M-3.90798505e-14,59.1191458 L-3.90798505e-14,7.03878861 C-3.90798505e-14,5.64578861 1.13,4.51678861 2.522,4.51678861 L41.1478305,4.838 C42.5398305,4.838 43.6688305,5.967 43.6688305,7.36 L43.6688305,15.618 L43.6688305,43.972 L43.6879,59.1191458" id="Path" stroke="#7176C4" stroke-linecap="round" stroke-linejoin="round"></path>
                    <polyline id="Path" stroke="#7176C4" stroke-linecap="round" stroke-linejoin="round" points="3.675 58.3037379 3.406 7.0866 40.503 7.0866 40.562 19.3346 40.685 40.0306 40.685 59.1191458"></polyline>
                    <path d="M25.1684,2.4817 L25.1684,2.4817 C25.1684,1.3867 24.2814,0.5007 23.1864,0.5007 L19.7224,0.5007 C18.6284,0.5007 17.7414,1.3867 17.7414,2.4817 C17.7414,3.4157 17.0904,4.2217 16.1784,4.4187 L11.7054,5.3867 L11.7054,9.3967 L19.0474,9.3967 L23.8614,9.3967 L31.2044,9.3967 L31.2044,5.3867 L26.7304,4.4187 C25.8194,4.2217 25.1684,3.4157 25.1684,2.4817" id="Fill-19" fill="#FFFFFF"></path>
                    <path d="M25.1684,2.4817 L25.1684,2.4817 C25.1684,1.3867 24.2814,0.5007 23.1864,0.5007 L19.7224,0.5007 C18.6284,0.5007 17.7414,1.3867 17.7414,2.4817 C17.7414,3.4157 17.0904,4.2217 16.1784,4.4187 L11.7054,5.3867 L11.7054,9.3967 L19.0474,9.3967 L23.8614,9.3967 L31.2044,9.3967 L31.2044,5.3867 L26.7304,4.4187 C25.8194,4.2217 25.1684,3.4157 25.1684,2.4817 Z" id="Stroke-21" stroke="#7176C4" stroke-linecap="round" stroke-linejoin="round"></path>
                    <polygon id="Fill-23" fill="#AAAAE2" points="16.5 16.8753 35.729 16.8753 35.729 15.0513 16.5 15.0513"></polygon>
                    <polygon id="Fill-25" fill="#DBDBF3" points="16.499 20.1573 26.114 20.1573 26.114 18.3343 16.499 18.3343"></polygon>
                    <polyline id="Stroke-27" stroke="#DBDBF3" stroke-linecap="round" stroke-linejoin="round" points="13.9506 18.2815 13.9506 20.5595 7.5566 20.5595 7.5566 14.1655 13.6606 14.1655"></polyline>
                    <polyline id="Stroke-29" stroke="#7176C4" stroke-linecap="round" stroke-linejoin="round" points="9.3046 17.4427 10.6236 19.0417 14.4996 15.2447"></polyline>
                    <polygon id="Fill-31" fill="#AAAAE2" opacity="0.400000006" points="16.581 29.3623 35.81 29.3623 35.81 27.5383 16.581 27.5383"></polygon>
                    <polygon id="Fill-33" fill="#DBDBF3" opacity="0.300000012" points="16.58 32.6453 26.195 32.6453 26.195 30.8213 16.58 30.8213"></polygon>
                    <polyline id="Stroke-35" stroke="#DBDBF3" stroke-linecap="round" stroke-linejoin="round" points="14.0316 30.7688 14.0316 33.0468 7.6376 33.0468 7.6376 26.6528 13.7416 26.6528"></polyline>
                    <polyline id="Stroke-37" stroke="#7176C4" opacity="0.5" stroke-linecap="round" stroke-linejoin="round" points="9.3856 29.93 10.7046 31.529 14.5816 27.732"></polyline>
                    <polygon id="Fill-41" fill="#DBDBF3" points="15.758 46.5883 24.339 46.5883 24.339 44.9613 15.758 44.9613"></polygon>
                    <polyline id="Stroke-43" stroke="#DBDBF3" stroke-linecap="round" stroke-linejoin="round" points="13.4828 44.9143 13.4828 46.9473 7.7748 46.9473 7.7748 41.2393 13.2238 41.2393"></polyline>
                    <path d="M24.8104,3.6282 L24.8104,3.6282 C24.8104,2.7152 24.0704,1.9752 23.1574,1.9752 L20.7044,1.9752 C19.7914,1.9752 19.0514,2.7152 19.0514,3.6282 C19.0514,4.4062 18.5084,5.0792 17.7484,5.2442 L14.0164,6.0522 L14.0164,8.8502 L30.6474,8.8502 L30.6474,6.0522 L26.1144,5.2442 C25.3534,5.0792 24.8104,4.4062 24.8104,3.6282" id="Fill-45" fill="#DBDBF3"></path>
                </g>
                <g id="Group-49">
                    <g id="Group-48" transform="translate(0.000000, 0.119146)">
                        <path d="M80.9813913,4.37099568 C80.9813913,6.29838725 79.4186414,7.86113718 77.4912498,7.86113718 C75.5627499,7.86113718 74,6.29838725 74,4.37099568 C74,2.4436041 75.5627499,0.880854172 77.4912498,0.880854172 C79.4186414,0.880854172 80.9813913,2.4436041 80.9813913,4.37099568" id="Fill-16" fill="#DBDBF3" opacity="0.5"></path>
                        <path d="M28.1119165,31.9357041 C28.1119165,33.0706374 27.1908915,33.9916623 26.0559582,33.9916623 C24.921025,33.9916623 24,33.0706374 24,31.9357041 C24,30.8007708 24.921025,29.8808542 26.0559582,29.8808542 C27.1908915,29.8808542 28.1119165,30.8007708 28.1119165,31.9357041" id="Fill-18" fill="#DBDBF3" opacity="0.6"></path>
                        <rect id="Rectangle" fill="#FFFFFF" x="25" y="51" width="32" height="17"></rect>
                        <g id="gear" transform="translate(10.000000, 15.880854)">
                            <path d="M60.3671515,44.871787 L55.6156225,43.838846 C55.2024462,42.5738468 54.6906922,41.3399775 54.0864925,40.1513878 L56.7169547,36.0597148 C57.1867306,35.3286378 57.0834365,34.3688044 56.4693319,33.7546997 L49.0670593,26.3524271 C48.4529545,25.7383224 47.4931211,25.6350283 46.7620441,26.1048042 L42.6703712,28.7352665 C41.4817814,28.1310667 40.2479121,27.6193127 38.982913,27.2061364 L37.949972,22.4546074 C37.7655519,21.6056148 37.0137217,21 36.1449192,21 L25.6768397,21 C24.8080372,21 24.0562071,21.6056148 23.871787,22.4546074 L22.838846,27.2061364 C21.5738468,27.6193127 20.3399775,28.1310667 19.1513878,28.7352665 L15.0597148,26.1048042 C14.3286378,25.6350283 13.3688044,25.7383224 12.7546997,26.3524271 L5.35242707,33.7546997 C4.73832244,34.3688044 4.6350283,35.3286378 5.10480424,36.0597148 L7.73526647,40.1513878 C7.13106672,41.3399775 6.61931272,42.5738468 6.20613641,43.838846 L1.45460743,44.871787 C0.605614765,45.0566787 0,45.8080372 0,46.6768397 C0,49.226499 0,51.1387434 0,52.413573 C0,52.9477892 6.75157057,52.2504388 16.1327472,52.413573 C25.2079889,52.5713872 36.5973898,52.3385168 45.6890117,52.413573 C54.9444222,52.4899813 61.8217589,52.8682428 61.8217589,52.333201 C61.8217589,51.0762319 61.8217589,49.1907781 61.8217589,46.6768397 C61.8217589,45.8080372 61.2161442,45.0566787 60.3671515,44.871787 Z M16.2359558,52.7255243 C16.1679604,52.463684 16.1327472,52.1921357 16.1327472,51.9108795 C16.1327472,43.7624366 22.7624366,37.1327472 30.9108795,37.1327472 C39.0593224,37.1327472 45.6890117,43.7624366 45.6890117,51.9108795 C45.6890117,52.1754929 45.6578426,52.4315132 45.5975289,52.6789404" id="Shape" fill="#FFFFFF" fill-rule="nonzero"></path>
                            <g id="Group-13" transform="translate(66.323317, 35.563084) rotate(-345.000000) translate(-66.323317, -35.563084) translate(37.823317, 7.063084)">
                                <g id="Group-8" transform="translate(28.283543, 28.419477) rotate(-315.000000) translate(-28.283543, -28.419477) translate(12.783543, 3.919477)">
                                    <polygon id="Rectangle-Copy" fill="#DDDDF3" transform="translate(19.932070, 32.465936) rotate(-112.000000) translate(-19.932070, -32.465936) " points="4.61555946 27.5560376 34.7291542 29.1342243 34.9888667 33.2550293 35.2485796 37.3758344 12.6141447 36.1896139"></polygon>
                                    <polygon id="Path-2" fill="#FFFFFF" points="18.8280816 35.9901817 13.3488651 20.3136428 11.9004382 20.3078303 17.653918 38.0238928"></polygon>
                                    <path d="M5.8194741,28.1198183 L12.8429944,35.7009212 L34.7142671,36.8471461 L34.4898568,33.2864793 L34.258162,29.6102268 L5.8194741,28.1198183 Z" id="Rectangle-Copy-3" stroke="#7176C4" transform="translate(19.932070, 32.465936) rotate(-112.000000) translate(-19.932070, -32.465936) "></path>
                                    <g id="Oval" transform="translate(0.481324, 0.146282)">
                                        <mask id="mask-4" fill="white">
                                            <use xlink:href="#path-3"></use>
                                        </mask>
                                        <use id="Mask" fill="#FFFFFF" transform="translate(12.475537, 12.100000) rotate(-112.000000) translate(-12.475537, -12.100000) " xlink:href="#path-3"></use>
                                        <path d="M13.2174643,19.5612758 C17.6357423,19.5612758 20.6511663,16.0140799 20.6511663,11.5958019 C20.6511663,7.1775239 17.0694443,3.5958019 12.6511663,3.5958019 C8.23288829,3.5958019 4.97725961,7.16926424 4.97725961,11.5875422 C4.97725961,16.0058202 8.79918635,19.5612758 13.2174643,19.5612758 Z" fill="#DDDDF3" mask="url(#mask-4)"></path>
                                    </g>
                                    <path d="M13.5813237,3.64628232 C11.2064993,3.64628232 9.05649937,4.60887009 7.50020551,6.16516395 C5.94391165,7.72145781 4.98132389,9.87145776 4.98132389,12.2462821 C4.98132389,14.6211065 5.94391165,16.7711064 7.50020551,18.3274003 C9.05649937,19.8836942 11.2064993,20.8462819 13.5813237,20.8462819 C16.4200438,20.8462819 18.9374422,19.4708674 20.5037349,17.3502474 L13.4295231,17.3497056 L10.4301466,12.156736 L13.2851828,6.94737174 L20.3553654,6.94729623 C18.7810716,4.93776416 16.3320561,3.64628232 13.5813237,3.64628232 Z" id="Combined-Shape-Copy-2" stroke="#7176C4" transform="translate(12.956861, 12.246282) rotate(-112.000000) translate(-12.956861, -12.246282) "></path>
                                </g>
                            </g>
                            <path d="M60.3980051,44.9291357 L55.4437553,43.7080313 C55.0427544,42.5077915 54.2943875,41.2295206 53.7079922,40.1017785 L56.7169547,36.0597148 C57.1728873,35.366064 57.5278882,35.0781686 56.93188,34.4955018 L49.747737,27.4721752 C49.1517286,26.8895086 48.2201795,26.7915024 47.5106459,27.237229 L43.0432566,29.9706011 C41.8896922,29.3973323 40.0485835,28.4704437 38.8208613,28.0784192 L37.9897512,24.3801414 C37.8107656,23.5746114 37.0810904,23 36.2378896,23 L26.9201966,23 C26.0769958,23 25.3473206,23.5746114 25.168335,24.3801414 L24.2262231,28.7501039 C22.9985009,29.1421284 20.7686519,30.0758869 19.6150874,30.6491557 L15.9425516,28.3272796 C15.2330179,27.8815529 14.3014688,27.9795591 13.7054605,28.5622258 L7.39324757,34.5813797 C6.79723932,35.1640464 6.69698905,36.0747429 7.15292167,36.7683937 L9.61801384,40.5833737 C9.03161861,41.7111158 8.11850418,43.59897 7.71750332,44.7992098 L3.41174316,45.6497138 C2.58776855,45.8251403 2,46.5380343 2,47.3623601 L2,52.4697288 C25.6792938,52.6460415 40.4601775,52.7579358 46.3426514,52.8054116 C52.3310998,52.8537428 57.4908024,52.6573805 61.8217589,52.2163248 L62,47.3623601 C62,46.5380343 61.2219797,45.1045623 60.3980051,44.9291357 Z M16.1327472,52.2163248 C16.1327472,44.3776542 23.0049151,37.1327472 31,37.1327472 C38.9950849,37.1327472 46,44.3776542 46,52.2163248" id="Shape-Copy-2" fill="#BCBCE2" fill-rule="nonzero"></path>
                            <path d="M60.3671515,44.871787 L55.6156225,43.838846 C55.2024462,42.5738468 54.6906922,41.3399775 54.0864925,40.1513878 L56.7169547,36.0597148 C57.1867306,35.3286378 57.0834365,34.3688044 56.4693319,33.7546997 L49.0670593,26.3524271 C48.4529545,25.7383224 47.4931211,25.6350283 46.7620441,26.1048042 L42.6703712,28.7352665 C41.4817814,28.1310667 40.2479121,27.6193127 38.982913,27.2061364 L37.949972,22.4546074 C37.7655519,21.6056148 37.0137217,21 36.1449192,21 L25.6768397,21 C24.8080372,21 24.0562071,21.6056148 23.871787,22.4546074 L22.838846,27.2061364 C21.5738468,27.6193127 20.3399775,28.1310667 19.1513878,28.7352665 L15.0597148,26.1048042 C14.3286378,25.6350283 13.3688044,25.7383224 12.7546997,26.3524271 L5.35242707,33.7546997 C4.73832244,34.3688044 4.6350283,35.3286378 5.10480424,36.0597148 L7.73526647,40.1513878 C7.13106672,41.3399775 6.61931272,42.5738468 6.20613641,43.838846 L1.45460743,44.871787 C0.605614765,45.0566787 0,45.8080372 0,46.6768397 L0,52.3037379 C4.50104705,52.2682051 9.87862945,52.3048169 16.1327472,52.413573 C25.2079889,52.5713872 36.5973898,52.3385168 45.6890117,52.413573 C51.8592854,52.4645119 57.2368678,52.4377212 61.8217589,52.333201 L61.8217589,46.6768397 C61.8217589,45.8080372 61.2161442,45.0566787 60.3671515,44.871787 Z M16.2359558,52.7255243 C16.1679604,52.463684 16.1327472,52.1921357 16.1327472,51.9108795 C16.1327472,43.7624366 22.7624366,37.1327472 30.9108795,37.1327472 C39.0593224,37.1327472 45.6890117,43.7624366 45.6890117,51.9108795" id="Shape-Copy" stroke="#7176C4" fill-rule="nonzero"></path>
                        </g>
                        <line x1="0.554055808" y1="68.184592" x2="92.4060682" y2="68.184592" id="Stroke-28" stroke="#7176C4" stroke-linecap="round" stroke-linejoin="round"></line>
                        <line x1="50.7802843" y1="35.6282994" x2="50.7802843" y2="29.3994663" id="Fill-38" fill="#7176C4" opacity="0.100000001"></line>
                        <line x1="38.8435349" y1="34.1769369" x2="38.8435349" y2="28.1808539" id="Fill-40" fill="#7176C4"></line>
                        <polygon id="Fill-44" fill="#DBDBF3" points="7.72067483 19.3233122 4 15.6026373 7.72067483 11.8808542 11.4413497 15.6026373"></polygon>
                        <line x1="60.6124197" y1="74.5869425" x2="72.6489191" y2="74.5869425" id="Stroke-30" stroke="#7176C4" stroke-linecap="round" stroke-linejoin="round"></line>
                        <line x1="23.6358722" y1="74.5869425" x2="50.5162793" y2="74.5869425" id="Stroke-32" stroke="#7176C4" stroke-linecap="round" stroke-linejoin="round"></line>
                    </g>
                </g>
            </g>
        </g>
    </g>
</svg>