<svg viewBox="0 0 512 512" xmlns="http://www.w3.org/2000/svg">
  <g transform="translate(1 42)" fill="none" fill-rule="evenodd">
    <path d="M448.5 195.5v135.3l-141-152.2 3.8-.4a96.7 96.7 0 00137.2 17.3" fill="#BCBCE2"/>
    <path stroke="#7176C4" stroke-width="5.9" stroke-linecap="round" stroke-linejoin="round" d="M.9 385.7h508.4M321.7 425H386M124.2 425h143.6"/>
    <path d="M409.3 385.7H112.5v-66.3a6 6 0 016-6h284.9a6 6 0 015.9 6v66.3z" fill="#DBDBF3"/>
    <path stroke="#7176C4" stroke-width="5.9" stroke-linecap="round" stroke-linejoin="round" d="M160.8 351.2H183"/>
    <path stroke="#BCBCE2" stroke-width="5.9" stroke-linecap="round" stroke-linejoin="round" d="M204.5 351.2h40.6M263.4 351.2H304M322.7 351.2h40.5"/>
    <path d="M448.5 195.5v190.2H61.7v-302C61.7 77.3 67 72 73.6 72h231" stroke="#7176C4" stroke-width="5.9" stroke-linecap="round" stroke-linejoin="round"/>
    <circle fill="#DBDBF3" cx="139" cy="42.5" r="8.8"/>
    <path d="M485.3 125a91.4 91.4 0 11-182.7 0 91.4 91.4 0 01182.7 0" fill="#DBDBF3"/>
    <path d="M482.7 142a97 97 0 01-57.7 67.3l-63.1-63.1 62.5-62.6 58.3 58.4z" fill="#BCBCE2"/>
    <path fill="#FFF" d="M420.3 79.8L375 125l-18.5-18.6-17.1 17.2 35.6 35.6 17.2-17.1 45-45.1z"/>
    <path d="M485.3 119.5a96.6 96.6 0 01-96.9 97 97 97 0 1197-97z" stroke="#7176C4" stroke-width="5.9"/>
    <path d="M152.5 146.4H108a10.7 10.7 0 010-21.4h44.6a10.7 10.7 0 110 21.4" fill="#BCBCE2"/>
    <path d="M264.4 146.4h-62.2a10.7 10.7 0 010-21.4h62.2a10.7 10.7 0 110 21.4M152.5 208.1H108a10.7 10.7 0 010-21.3h44.6a10.7 10.7 0 110 21.3" fill="#DBDBF3"/>
    <path d="M286.8 208.1h-84.6a10.7 10.7 0 010-21.3h84.6a10.7 10.7 0 110 21.3M152.5 267.3H108a10.7 10.7 0 010-21.3h44.6a10.7 10.7 0 110 21.3" fill="#BCBCE2"/>
    <path d="M292.7 267.3H208a10.7 10.7 0 010-21.3h84.6a10.7 10.7 0 110 21.3" fill="#DBDBF3"/>
    <path fill="#BCBCE2" d="M507.8 235.8l-9.6-9.6-11.5 11.5-11.5-11.5-9.6 9.6 11.5 11.5-11.5 11.5 9.6 9.6 11.5-11.5 11.5 11.5 9.6-9.6-11.5-11.5z"/>
    <path fill="#DBDBF3" d="M273 5.6h-10.8v13h-13v10.8h13v13h10.9v-13h13V18.6h-13z"/>
  </g>
</svg>
