<?xml version="1.0" encoding="UTF-8"?>
<svg width="101px" height="74px" viewBox="0 0 101 74" version="1.1" xmlns="http://www.w3.org/2000/svg" xmlns:xlink="http://www.w3.org/1999/xlink">
    <!-- Generator: Sketch 63.1 (92452) - https://sketch.com -->
    <title>Group 26</title>
    <desc>Created with Sketch.</desc>
    <g id="Page-1" stroke="none" stroke-width="1" fill="none" fill-rule="evenodd">
        <g id="Artboard" transform="translate(-202.000000, -251.000000)">
            <g id="Group-26" transform="translate(203.000000, 251.000000)">
                <g id="Group-24">
                    <g id="weather" transform="translate(18.000000, 0.000000)" fill-rule="nonzero">
                        <path d="M44.2114007,7.21220011 C44.4502007,7.98000012 44.0212007,8.79600013 43.2534006,9.03480013 C42.4856006,9.27360014 41.6696006,8.84460013 41.4308006,8.07680012 C41.4168006,8.03180012 41.4050006,7.98620012 41.3954006,7.94020012 L39.7954006,1.89220003 C39.5566006,1.12440002 39.9856006,0.308400005 40.7534006,0.069600001 C41.5212006,-0.169200003 42.3372006,0.259800004 42.5760006,1.02760002 C42.5900006,1.07260002 42.6018006,1.11820002 42.6114006,1.16420002 L44.2114007,7.21220011 Z" id="Path" fill="#DBDBF3"></path>
                        <path d="M33.4514005,12.4762002 C34.0192005,13.0484002 34.0156005,13.9724002 33.4434005,14.5402002 C32.8712005,15.1080002 31.9472005,15.1044002 31.3794005,14.5322002 L26.9794004,10.0842002 C26.3612004,9.57000014 26.2770004,8.65180013 26.7912004,8.03380012 C27.3054004,7.41560011 28.2236004,7.33140011 28.8416004,7.84560012 C28.9186004,7.90980012 28.9890004,7.98160012 29.0512004,8.06020012 L33.4514005,12.4762002 Z" id="Path" fill="#DBDBF3"></path>
                        <path d="M70.5474011,37.4202006 C69.772001,37.1992006 69.322401,36.3916005 69.543401,35.6162005 C69.764401,34.8408005 70.5720011,34.3912005 71.3474011,34.6122005 L77.3794012,36.2602005 C78.1548012,36.4812005 78.6044012,37.2888006 78.3834012,38.0642006 C78.1624012,38.8396006 77.3548012,39.2892006 76.5794011,39.0682006 L76.5794011,39.0682006 L70.5474011,37.4202006 Z" id="Path" fill="#DBDBF3"></path>
                        <path d="M71.3474011,25.4682004 C70.5600011,25.6316004 69.789401,25.1256004 69.626001,24.3382004 C69.473801,23.6042004 69.903601,22.8746003 70.6194011,22.6522003 L76.6674011,21.0522003 C77.4548012,20.8888003 78.2254012,21.3948003 78.3888012,22.1822003 C78.5410012,22.9162003 78.1112012,23.6458004 77.3954012,23.8682004 L71.3474011,25.4682004 Z" id="Path" fill="#DBDBF3"></path>
                        <path d="M66.099401,14.7162002 C65.527201,15.2862002 64.601401,15.2844002 64.031401,14.7122002 C63.4614009,14.1400002 63.4632009,13.2142002 64.035401,12.6442002 L68.483401,8.24420012 C69.055601,7.67640011 69.979601,7.68000011 70.5474011,8.25220012 C71.1152011,8.82440013 71.1116011,9.74840015 70.5394011,10.3162002 L66.099401,14.7162002 Z" id="Path" fill="#DBDBF3"></path>
                        <path d="M56.1554008,8.06020012 C55.9344008,8.83560013 55.1268008,9.28520014 54.3514008,9.06420014 C53.5760008,8.84320013 53.1264008,8.03560012 53.3474008,7.26020011 L53.3474008,7.26020011 L54.9954008,1.22820002 C55.2164008,0.452800007 56.0240008,0.00320000005 56.7994008,0.224200003 C57.5748009,0.445200007 58.0244009,1.25280002 57.8034009,2.02820003 L56.1554008,8.06020012 Z" id="Path" fill="#DBDBF3"></path>
                        <path d="M54.5554008,15.2602002 C62.3780009,18.3788003 66.191201,27.2482004 63.0728009,35.0708005 C62.6532009,36.1236005 62.1174009,37.1262006 61.4754009,38.0602006 C57.1402009,34.9336005 51.4300008,34.4654005 46.6434007,36.8442005 C45.6962007,30.4054005 41.2566006,25.0228004 35.1154005,22.8682003 C38.5358006,15.5740002 47.0532007,12.2156002 54.5314008,15.2122002 L54.5554008,15.2602002 Z" id="Path" fill="#BCBCE2"></path>
                        <path d="M54.5554008,15.2602002 C62.3780009,18.3788003 66.191201,27.2482004 63.0728009,35.0708005 C62.6532009,36.1236005 62.1174009,37.1262006 61.4754009,38.0602006 C57.1402009,34.9336005 51.4300008,34.4654005 46.6434007,36.8442005 C45.6962007,30.4054005 41.2566006,25.0228004 35.1154005,22.8682003 C38.5358006,15.5740002 47.0532007,12.2156002 54.5314008,15.2122002 L54.5554008,15.2602002 Z" id="Path-Copy-3" fill="#FFFFFF"></path>
                        <path d="M55.1582558,17.3883988 C62.6992895,20.2540644 66.118121,28.125109 63.1119646,35.3132562 C62.7074676,36.2806687 62.1909532,37.2019527 61.5720613,38.0602006 C57.3929023,35.1871838 51.8882349,34.7569572 47.2739236,36.9428244 C46.360817,31.026244 42.535908,26.4798509 36.6157541,24.5 C39.9130404,17.7973969 47.9260896,14.5907314 55.1351196,17.3442918 L55.1582558,17.3883988 Z" id="Path-Copy-5" fill="#BCBCE2"></path>
                        <path d="M54.5554008,15.2602002 C62.3780009,18.3788003 66.191201,27.2482004 63.0728009,35.0708005 C62.6532009,36.1236005 62.1174009,37.1262006 61.4754009,38.0602006 C57.1402009,34.9336005 51.4300008,34.4654005 46.6434007,36.8442005 C45.6962007,30.4054005 41.2566006,25.0228004 35.1154005,22.8682003 C38.5358006,15.5740002 47.0532007,12.2156002 54.5314008,15.2122002 L54.5554008,15.2602002 Z" id="Path-Copy-4" stroke="#7176C4"></path>
                        <path d="M53.0354008,35.2602005 C60.9750009,34.8012005 67.783401,40.8656006 68.242401,48.8052007 C68.701401,56.7448008 62.6370009,63.5532009 54.6974008,64.012201 C54.1438008,64.044201 53.5890008,64.044201 53.0354008,64.012201 L11.2354002,64.012201 C5.02780007,64.009601 -0.00260000004,58.9752009 -1.00741795e-06,52.7676008 C0.00260000004,46.5636007 5.03140007,41.5348006 11.2354002,41.5322006 L12.0354002,41.5322006 C10.7100002,31.9644005 17.3916003,23.1336003 26.9594004,21.8082003 C36.5272005,20.4828003 45.3580007,27.1644004 46.6834007,36.7322005 C48.6592007,35.7594005 50.8330008,35.2556005 53.0354008,35.2602005 L53.0354008,35.2602005 Z" id="Path" fill="#FFFFFF"></path>
                        <path d="M60.3975558,36.8402005 C62.7850613,38.3621811 64.3407721,39.5601134 65.0646882,40.4339974 C67.4710312,43.3388436 68.0393616,46.669973 68.2432122,50.0250909 C68.6869709,57.3287879 62.8239419,63.5918857 55.1479797,64.0141232 C54.6127623,64.0435602 54.0763846,64.0435602 53.5411672,64.0141232 L13.1291541,64.0141232 C7.12768018,64.0117314 2.26431678,59.3805495 2.26657643,53.6701321 C2.26934411,47.9630264 7.34125324,43.6049192 13.3392468,43.6025275 L14.1126824,43.6025275 C12.8312929,34.8010372 18.7356316,26.7181058 27.9857287,25.4988605 C37.2358258,24.2796152 45.3620112,28.0387103 46.6434007,36.8402005 C48.5535934,35.9453146 53.4461325,35.6524433 55.5754008,35.6566749 L60.3975558,36.8402005 Z" id="Path-Copy-2" fill="#DBDBF3"></path>
                        <path d="M53.0354008,35.2602005 C60.9750009,34.8012005 67.783401,40.8656006 68.242401,48.8052007 C68.701401,56.7448008 62.6370009,63.5532009 54.6974008,64.012201 C54.1438008,64.044201 53.5890008,64.044201 53.0354008,64.012201 L11.2354002,64.012201 C5.02780007,64.009601 -0.00260000004,58.9752009 -1.00741795e-06,52.7676008 C0.00260000004,46.5636007 5.03140007,41.5348006 11.2354002,41.5322006 L12.0354002,41.5322006 C10.7100002,31.9644005 17.3916003,23.1336003 26.9594004,21.8082003 C36.5272005,20.4828003 45.3580007,27.1644004 46.6834007,36.7322005 C48.6592007,35.7594005 50.8330008,35.2556005 53.0354008,35.2602005 L53.0354008,35.2602005 Z" id="Path-Copy" stroke="#7176C4"></path>
                    </g>
                    <line x1="35.706894" y1="64" x2="93.874" y2="64" id="Stroke-3-Copy" stroke="#7176C4" stroke-linecap="round" stroke-linejoin="round"></line>
                    <g id="Group-12" transform="translate(0.000000, 60.000000)" stroke="#7176C4" stroke-linecap="round" stroke-linejoin="round">
                        <path d="M4.25443479,4.00451113 C3.96507605,2.88019133 3.29636068,2.31803143 2.24828866,2.31803143 C0.676180639,2.31803143 -5.32907052e-15,3.12328311 -5.32907052e-15,4.50544003 C-5.32907052e-15,4.50544003 -5.32907052e-15,4.50544003 -5.32907052e-15,4.50544003 C-5.19416717e-15,5.60700944 0.892998446,6.50000789 1.99456785,6.5 L25.706894,6.5 L25.706894,6.5" id="Stroke-7-Copy-2"></path>
                        <g id="Group-11" transform="translate(6.453894, 8.100000)">
                            <path d="M4.5171667,2.13808365 C4.17646897,1.04080202 3.4820841,0.492161212 2.43401208,0.492161212 C0.86190406,0.492161212 -8.8817842e-16,1.30519554 -8.8817842e-16,2.68735246 C-8.8817842e-16,2.67992877 3.14570801e-05,2.67248843 9.43712402e-05,2.66503144 C-0.0092322325,3.76956582 0.87861541,4.67252236 1.98314986,4.68184124 C1.98877418,4.6818887 1.99439867,4.68191242 2.00002319,4.68191242 L8.59651017,4.68191242 L8.59651017,4.68191242" id="Stroke-7-Copy-3" transform="translate(4.298255, 2.587037) scale(1, -1) translate(-4.298255, -2.587037) "></path>
                            <line x1="11.2195283" y1="0.5" x2="14.690587" y2="0.5" id="Path-22"></line>
                        </g>
                        <path d="M11.9710607,1.64592244 C11.630363,0.548640812 10.9359781,1.33226763e-15 9.88790612,1.33226763e-15 C8.3157981,1.33226763e-15 7.45389404,0.813034324 7.45389404,2.19519124 C7.45389404,2.19519124 7.45389404,2.19519124 7.45389404,2.19519124 C7.45389404,3.29677149 8.34690127,4.18977872 9.44848152,4.18975121 L14.413574,4.18975121 L14.413574,4.18975121" id="Stroke-7-Copy-4"></path>
                        <line x1="18.2716487" y1="4.18975121" x2="23.6303672" y2="4.18975121" id="Path-21"></line>
                    </g>
                    <line x1="61.7954701" y1="69.5" x2="86.0484701" y2="69.5" id="Stroke-7-Copy" stroke="#7176C4" stroke-linecap="round" stroke-linejoin="round"></line>
                    <line x1="43" y1="69.5" x2="52.5455656" y2="69.5" id="Stroke-7-Copy-5" stroke="#7176C4" stroke-linecap="round" stroke-linejoin="round"></line>
                </g>
                <polygon id="Fill-33" fill="#DBDBF3" transform="translate(96.548400, 53.739800) rotate(1.000000) translate(-96.548400, -53.739800) " points="99.3983998 52.1849999 98.1031999 50.8898 96.548 52.4441999 94.9936001 50.8898 93.6984002 52.1849999 95.2528001 53.7393998 93.6984002 55.2945997 94.9936001 56.5897997 96.548 55.0353998 98.1031999 56.5897997 99.3983998 55.2945997 97.8439999 53.7393998"></polygon>
                <rect id="Rectangle-Copy-27" fill="#DBDBF3" transform="translate(11.500000, 35.500000) rotate(108.000000) translate(-11.500000, -35.500000) " x="10" y="34" width="3" height="3"></rect>
                <g id="Group-25" transform="translate(28.000000, 23.500000) scale(-1, -1) rotate(101.000000) translate(-28.000000, -23.500000) translate(20.000000, 20.000000)" stroke="#BCBCE2" stroke-linecap="round" stroke-linejoin="round">
                    <path d="M13.064348,6.35001346 C9.85279589,3.50465181 5.628137,1.77715667 1,1.77715667" id="Shape" transform="translate(7.032174, 4.063585) rotate(3.000000) translate(-7.032174, -4.063585) "></path>
                    <path d="M15.6876029,4.9250467 C15.3466019,4.63499001 14.9966575,4.35513189 14.6382411,4.08594394 M13.2350548,3.11446564 C11.8964411,2.26226319 10.4596747,1.55052286 8.94551067,1" id="Shape" transform="translate(12.316557, 2.962523) rotate(3.000000) translate(-12.316557, -2.962523) "></path>
                </g>
            </g>
        </g>
    </g>
</svg>