<?xml version="1.0" encoding="UTF-8"?>
<svg width="50px" height="50px" viewBox="0 0 50 50" version="1.1" xmlns="http://www.w3.org/2000/svg" xmlns:xlink="http://www.w3.org/1999/xlink">
    <!-- Generator: Sketch 63.1 (92452) - https://sketch.com -->
    <title>default-file-icon</title>
    <desc>Created with Sketch.</desc>
    <g id="default-file-icon" stroke="none" stroke-width="1" fill="none" fill-rule="evenodd">
        <g id="pdf" transform="translate(3.000000, 0.000000)" fill-rule="nonzero">
            <path d="M3.17064516,0 L29.6593548,0 L43.6995161,13.9856452 L43.6995161,46.7641935 C43.6995161,48.4866129 42.3029032,49.8817742 40.5819355,49.8817742 L3.17064516,49.8817742 C1.44967742,49.8817742 0.0530645161,48.4866129 0.0530645161,46.7641935 L0.0530645161,3.11758065 C0.0530645161,1.39516129 1.44983871,0 3.17064516,0 Z" id="Path" fill="#C2CCD9"></path>
            <path d="M43.6545161,14.0291935 L32.7880645,14.0291935 C31.0670968,14.0291935 29.6704839,12.6325806 29.6704839,10.9116129 L29.6704839,0.0311290323 L43.6545161,14.0291935 Z" id="Path" fill="#9AA8BB"></path>
            <path d="M32.994466,20.6 C33.4915222,20.6 33.894466,21.0029437 33.894466,21.5 C33.894466,21.9588212 33.5511293,22.3374518 33.10736,22.3929877 L32.994466,22.4 L11,22.4 C10.5029437,22.4 10.1,21.9970563 10.1,21.5 C10.1,21.0411788 10.4433367,20.6625482 10.8871059,20.6070123 L11,20.6 L32.994466,20.6 Z" id="Path-2" fill="#FFFFFF"></path>
            <path d="M27.994466,28.6 C28.4915222,28.6 28.894466,29.0029437 28.894466,29.5 C28.894466,29.9588212 28.5511293,30.3374518 28.10736,30.3929877 L27.994466,30.4 L11,30.4 C10.5029437,30.4 10.1,29.9970563 10.1,29.5 C10.1,29.0411788 10.4433367,28.6625482 10.8871059,28.6070123 L11,28.6 L27.994466,28.6 Z" id="Path-2-Copy" fill="#FFFFFF"></path>
            <path d="M20.994466,36.6 C21.4915222,36.6 21.894466,37.0029437 21.894466,37.5 C21.894466,37.9588212 21.5511293,38.3374518 21.10736,38.3929877 L20.994466,38.4 L11,38.4 C10.5029437,38.4 10.1,37.9970563 10.1,37.5 C10.1,37.0411788 10.4433367,36.6625482 10.8871059,36.6070123 L11,36.6 L20.994466,36.6 Z" id="Path-2-Copy-2" fill="#FFFFFF"></path>
        </g>
    </g>
</svg>