<?xml version="1.0" encoding="UTF-8"?>
<svg width="50px" height="50px" viewBox="0 0 50 50" version="1.1" xmlns="http://www.w3.org/2000/svg" xmlns:xlink="http://www.w3.org/1999/xlink">
    <!-- Generator: Sketch 63.1 (92452) - https://sketch.com -->
    <title>doc-icon</title>
    <desc>Created with Sketch.</desc>
    <g id="doc-icon" stroke="none" stroke-width="1" fill="none" fill-rule="evenodd">
        <g id="pdf" transform="translate(3.000000, 0.000000)" fill-rule="nonzero">
            <path d="M3.17064516,0 L29.6593548,0 L43.6995161,13.9856452 L43.6995161,46.7641935 C43.6995161,48.4866129 42.3029032,49.8817742 40.5819355,49.8817742 L3.17064516,49.8817742 C1.44967742,49.8817742 0.0530645161,48.4866129 0.0530645161,46.7641935 L0.0530645161,3.11758065 C0.0530645161,1.39516129 1.44983871,0 3.17064516,0 Z" id="Path" fill="#F3B630"></path>
            <path d="M43.6545161,14.0291935 L32.7880645,14.0291935 C31.0670968,14.0291935 29.6704839,12.6325806 29.6704839,10.9116129 L29.6704839,0.0311290323 L43.6545161,14.0291935 Z" id="Path" fill="#C99015"></path>
            <path d="M12.9970703,31 C15.5283203,31 17.0166016,29.4296875 17.0166016,26.7519531 C17.0166016,24.0742188 15.5224609,22.5449219 12.9970703,22.5449219 L10.6650391,22.5449219 C10.1962891,22.5449219 9.90917969,22.8378906 9.90917969,23.3300781 L9.90917969,30.2148438 C9.90917969,30.7070312 10.1962891,31 10.6650391,31 L12.9970703,31 Z M12.8388672,29.7226562 L11.4208984,29.7226562 L11.4208984,23.8222656 L12.8388672,23.8222656 C14.5263672,23.8222656 15.4755859,24.8652344 15.4755859,26.7578125 C15.4755859,28.6855469 14.5380859,29.7226562 12.8388672,29.7226562 Z M21.9384766,31.140625 C24.3994141,31.140625 25.9462891,29.4648438 25.9462891,26.7753906 C25.9462891,24.0859375 24.3994141,22.4042969 21.9384766,22.4042969 C19.4716797,22.4042969 17.9248047,24.0859375 17.9248047,26.7753906 C17.9248047,29.4648438 19.4716797,31.140625 21.9384766,31.140625 Z M21.9384766,29.8515625 C20.4267578,29.8515625 19.4716797,28.65625 19.4716797,26.7753906 C19.4716797,24.8886719 20.4267578,23.6933594 21.9384766,23.6933594 C23.4443359,23.6933594 24.4052734,24.8886719 24.4052734,26.7753906 C24.4052734,28.65625 23.4443359,29.8515625 21.9384766,29.8515625 Z M30.8095703,31.140625 C32.3916016,31.140625 33.5927734,30.4492188 34.1318359,29.3007812 C34.2255859,29.1015625 34.2724609,28.9257812 34.2724609,28.7324219 C34.2724609,28.3339844 33.9853516,28.0585938 33.5693359,28.0585938 C33.2412109,28.0585938 33.0478516,28.1992188 32.8955078,28.5449219 C32.5087891,29.4355469 31.7646484,29.8574219 30.7978516,29.8574219 C29.3330078,29.8574219 28.4072266,28.6679688 28.4072266,26.7695312 C28.4072266,24.8828125 29.3388672,23.6875 30.7919922,23.6875 C31.7119141,23.6875 32.4794922,24.1621094 32.8720703,25.0703125 C33.0361328,25.4394531 33.2646484,25.6035156 33.6103516,25.6035156 C34.0146484,25.6035156 34.2783203,25.3457031 34.2783203,24.9414062 C34.2783203,24.765625 34.2314453,24.5664062 34.1376953,24.3730469 C33.5810547,23.1367188 32.3447266,22.4042969 30.7802734,22.4042969 C28.3896484,22.4042969 26.8603516,24.0742188 26.8603516,26.7695312 C26.8603516,29.4824219 28.3662109,31.140625 30.8095703,31.140625 Z" id="DOC" fill="#FFFFFF"></path>
        </g>
    </g>
</svg>