<?xml version="1.0" encoding="UTF-8"?>
<svg width="50px" height="50px" viewBox="0 0 50 50" version="1.1" xmlns="http://www.w3.org/2000/svg" xmlns:xlink="http://www.w3.org/1999/xlink">
    <!-- Generator: Sketch 63.1 (92452) - https://sketch.com -->
    <title>pdf-icon</title>
    <desc>Created with Sketch.</desc>
    <g id="pdf-icon" stroke="none" stroke-width="1" fill="none" fill-rule="evenodd">
        <g id="pdf" transform="translate(3.000000, 0.000000)" fill-rule="nonzero">
            <path d="M3.17064516,0 L29.6593548,0 L43.6995161,13.9856452 L43.6995161,46.7641935 C43.6995161,48.4866129 42.3029032,49.8817742 40.5819355,49.8817742 L3.17064516,49.8817742 C1.44967742,49.8817742 0.0530645161,48.4866129 0.0530645161,46.7641935 L0.0530645161,3.11758065 C0.0530645161,1.39516129 1.44983871,0 3.17064516,0 Z" id="Path" fill="#E2574C"></path>
            <path d="M43.6545161,14.0291935 L32.7880645,14.0291935 C31.0670968,14.0291935 29.6704839,12.6325806 29.6704839,10.9116129 L29.6704839,0.0311290323 L43.6545161,14.0291935 Z" id="Path" fill="#B53629"></path>
            <path d="M12.4873047,31.0996094 C12.9619141,31.0996094 13.2431641,30.8125 13.2431641,30.3144531 L13.2431641,28.2050781 L14.9541016,28.2050781 C16.6650391,28.2050781 17.8662109,27.0625 17.8662109,25.375 C17.8662109,23.6875 16.7001953,22.5449219 15.0185547,22.5449219 L12.4873047,22.5449219 C12.0185547,22.5449219 11.7314453,22.8378906 11.7314453,23.3300781 L11.7314453,30.3144531 C11.7314453,30.8125 12.0185547,31.0996094 12.4873047,31.0996094 Z M14.6142578,26.9863281 L13.2431641,26.9863281 L13.2431641,23.78125 L14.6201172,23.78125 C15.7041016,23.78125 16.3310547,24.3613281 16.3310547,25.375 C16.3310547,26.4003906 15.6982422,26.9863281 14.6142578,26.9863281 Z M22.0556641,31 C24.5869141,31 26.0751953,29.4296875 26.0751953,26.7519531 C26.0751953,24.0742188 24.5810547,22.5449219 22.0556641,22.5449219 L19.7236328,22.5449219 C19.2548828,22.5449219 18.9677734,22.8378906 18.9677734,23.3300781 L18.9677734,30.2148438 C18.9677734,30.7070312 19.2548828,31 19.7236328,31 L22.0556641,31 Z M21.8974609,29.7226562 L20.4794922,29.7226562 L20.4794922,23.8222656 L21.8974609,23.8222656 C23.5849609,23.8222656 24.5341797,24.8652344 24.5341797,26.7578125 C24.5341797,28.6855469 23.5966797,29.7226562 21.8974609,29.7226562 Z M28.0263672,31.0996094 C28.5009766,31.0996094 28.7822266,30.8125 28.7822266,30.3144531 L28.7822266,27.5488281 L31.7646484,27.5488281 C32.1630859,27.5488281 32.4267578,27.3144531 32.4267578,26.9335938 C32.4267578,26.5527344 32.1630859,26.3183594 31.7646484,26.3183594 L28.7822266,26.3183594 L28.7822266,23.8222656 L32.0693359,23.8222656 C32.4794922,23.8222656 32.7607422,23.5761719 32.7607422,23.1835938 C32.7607422,22.7910156 32.4853516,22.5449219 32.0693359,22.5449219 L28.0263672,22.5449219 C27.5576172,22.5449219 27.2705078,22.8378906 27.2705078,23.3300781 L27.2705078,30.3144531 C27.2705078,30.8125 27.5576172,31.0996094 28.0263672,31.0996094 Z" id="PDF" fill="#FFFFFF"></path>
        </g>
    </g>
</svg>