<?xml version="1.0" encoding="UTF-8"?>
<svg width="50px" height="50px" viewBox="0 0 50 50" version="1.1" xmlns="http://www.w3.org/2000/svg" xmlns:xlink="http://www.w3.org/1999/xlink">
    <!-- Generator: Sketch 63.1 (92452) - https://sketch.com -->
    <title>zip-icon</title>
    <desc>Created with Sketch.</desc>
    <g id="zip-icon" stroke="none" stroke-width="1" fill="none" fill-rule="evenodd">
        <g id="pdf" transform="translate(3.000000, 0.000000)" fill-rule="nonzero">
            <path d="M3.17064516,0 L29.6593548,0 L43.6995161,13.9856452 L43.6995161,46.7641935 C43.6995161,48.4866129 42.3029032,49.8817742 40.5819355,49.8817742 L3.17064516,49.8817742 C1.44967742,49.8817742 0.0530645161,48.4866129 0.0530645161,46.7641935 L0.0530645161,3.11758065 C0.0530645161,1.39516129 1.44983871,0 3.17064516,0 Z" id="Path" fill="#70B0DF"></path>
            <path d="M43.6545161,14.0291935 L32.7880645,14.0291935 C31.0670968,14.0291935 29.6704839,12.6325806 29.6704839,10.9116129 L29.6704839,0.0311290323 L43.6545161,14.0291935 Z" id="Path" fill="#418BC2"></path>
            <path d="M19.5039062,31 C19.9140625,31 20.1953125,30.7539062 20.1953125,30.3613281 C20.1953125,29.96875 19.9199219,29.7226562 19.5039062,29.7226562 L15.5195312,29.7226562 L15.5195312,29.6816406 L19.7441406,23.875 C19.8964844,23.6582031 19.984375,23.5117188 19.984375,23.2773438 C19.984375,22.8320312 19.6796875,22.5449219 19.1992188,22.5449219 L14.3886719,22.5449219 C13.9726562,22.5449219 13.6972656,22.7910156 13.6972656,23.1835938 C13.6972656,23.5761719 13.9726562,23.8222656 14.3886719,23.8222656 L18.15625,23.8222656 L18.15625,23.8632812 L13.9023438,29.6757812 C13.7382812,29.9042969 13.6679688,30.0742188 13.6679688,30.2910156 C13.6679688,30.71875 13.9785156,31 14.4414062,31 L19.5039062,31 Z M22.1347656,31.0996094 C22.609375,31.0996094 22.890625,30.8125 22.890625,30.3144531 L22.890625,23.2304688 C22.890625,22.7324219 22.609375,22.4453125 22.1347656,22.4453125 C21.6660156,22.4453125 21.3789062,22.7324219 21.3789062,23.2304688 L21.3789062,30.3144531 C21.3789062,30.8125 21.6660156,31.0996094 22.1347656,31.0996094 Z M25.1347656,31.0996094 C25.609375,31.0996094 25.890625,30.8125 25.890625,30.3144531 L25.890625,28.2050781 L27.6015625,28.2050781 C29.3125,28.2050781 30.5136719,27.0625 30.5136719,25.375 C30.5136719,23.6875 29.3476562,22.5449219 27.6660156,22.5449219 L25.1347656,22.5449219 C24.6660156,22.5449219 24.3789062,22.8378906 24.3789062,23.3300781 L24.3789062,30.3144531 C24.3789062,30.8125 24.6660156,31.0996094 25.1347656,31.0996094 Z M27.2617188,26.9863281 L25.890625,26.9863281 L25.890625,23.78125 L27.2675781,23.78125 C28.3515625,23.78125 28.9785156,24.3613281 28.9785156,25.375 C28.9785156,26.4003906 28.3457031,26.9863281 27.2617188,26.9863281 Z" id="ZIP" fill="#FFFFFF"></path>
        </g>
    </g>
</svg>