<?xml version="1.0" encoding="UTF-8"?>
<svg width="19px" height="19px" viewBox="0 0 50 50" version="1.1" xmlns="http://www.w3.org/2000/svg" xmlns:xlink="http://www.w3.org/1999/xlink">
    <g id="about-icon-50x50-FINAL" stroke="none" stroke-width="1" fill="none" fill-rule="evenodd">
        <g id="about" fill="#353F54">
            <path d="M25,0 C38.8071187,0 50,11.1928813 50,25 C50,38.8071187 38.8071187,50 25,50 C11.1928813,50 0,38.8071187 0,25 C0,11.1928813 11.1928813,0 25,0 Z M25,2.89550781 C12.7920261,2.89550781 2.89550781,12.7920261 2.89550781,25 C2.89550781,37.2079739 12.7920261,47.1044922 25,47.1044922 C37.2079739,47.1044922 47.1044922,37.2079739 47.1044922,25 C47.1044922,12.7920261 37.2079739,2.89550781 25,2.89550781 Z" id="Oval" fill-rule="nonzero"></path>
            <g id="Group-Copy-2" transform="translate(16.359375, 11.184827)">
                <path d="M8.75870906,4.58689942 C9.99408285,4.58689942 10.9955512,3.58543109 10.9955512,2.35005731 C10.9955512,1.11468353 9.99408285,0.113215207 8.75870906,0.113215207 C7.52333528,0.113215207 6.52186696,1.11468353 6.52186696,2.35005731 C6.52186696,3.58543109 7.52333528,4.58689942 8.75870906,4.58689942 Z" id="Oval"></path>
                <path d="M10.6765008,8.63248088 L10.6765008,24.4020676 L10.6765008,24.4020676 L7.55150082,24.4020676 L7.55150082,7.63248088 L9.67650082,7.63248088 C10.2287856,7.63248088 10.6765008,8.08019613 10.6765008,8.63248088 Z" id="Path-4" fill-rule="nonzero"></path>
                <path d="M15.3650391,21.3621554 C16.227984,21.3621554 16.9275391,22.0617105 16.9275391,22.9246554 C16.9275391,23.7396589 16.3035532,24.4089228 15.5072584,24.48077 L15.3650391,24.4871554 L2,24.4871554 C1.13705508,24.4871554 0.4375,23.7876003 0.4375,22.9246554 C0.4375,22.1096519 1.06148586,21.440388 1.85778065,21.3685408 L2,21.3621554 L15.3650391,21.3621554 Z" id="Path" fill-rule="nonzero"></path>
                <path d="M8.63605805,7.6274928 C9.49900297,7.6274928 10.1985581,8.32704788 10.1985581,9.1899928 C10.1985581,10.0049963 9.57457219,10.6742602 8.7782774,10.7461074 L8.63605805,10.7524928 L4.05078125,10.7524928 C3.18783633,10.7524928 2.48828125,10.0529377 2.48828125,9.1899928 C2.48828125,8.37498927 3.11226711,7.70572544 3.9085619,7.63387823 L4.05078125,7.6274928 L8.63605805,7.6274928 Z" id="Path-Copy" fill-rule="nonzero"></path>
            </g>
        </g>
    </g>
</svg>
