<?xml version="1.0" encoding="UTF-8"?>
<svg width="16px" height="16px" viewBox="0 0 16 16" version="1.1" xmlns="http://www.w3.org/2000/svg" xmlns:xlink="http://www.w3.org/1999/xlink">
    <!-- Generator: Sketch 54.1 (76490) - https://sketchapp.com -->
    <title>active-inactive</title>
    <desc>Created with Sketch.</desc>
    <g id="Page-1" stroke="none" stroke-width="1" fill="none" fill-rule="evenodd">
        <g id="SVG" transform="translate(-415.000000, -181.000000)" fill="#e5e9ed" fill-rule="nonzero">
            <path d="M423,196.5 C418.857864,196.5 415.5,193.142136 415.5,189 C415.5,184.857864 418.857864,181.5 423,181.5 C427.142136,181.5 430.5,184.857864 430.5,189 C430.5,193.142136 427.142136,196.5 423,196.5 Z M423,195.5 C426.589851,195.5 429.5,192.589851 429.5,189 C429.5,185.410149 426.589851,182.5 423,182.5 C419.410149,182.5 416.5,185.410149 416.5,189 C416.5,192.589851 419.410149,195.5 423,195.5 Z M420.310588,189.035049 L421.860784,190.585244 L425.895833,186.550196 C426.091095,186.354933 426.407677,186.354933 426.602939,186.550196 C426.798202,186.745458 426.798202,187.06204 426.602939,187.257302 L422.214337,191.645905 C422.019075,191.841167 421.702493,191.841167 421.50723,191.645905 L419.603481,189.742156 C419.408219,189.546893 419.408219,189.230311 419.603481,189.035049 C419.798744,188.839787 420.115326,188.839787 420.310588,189.035049 Z" id="active-inactive"></path>
        </g>
    </g>
</svg>