<?xml version="1.0" encoding="UTF-8"?>
<svg width="19px" height="20px" viewBox="0 0 50 50" version="1.1" xmlns="http://www.w3.org/2000/svg" xmlns:xlink="http://www.w3.org/1999/xlink">
    <g id="report-issue-50x50-FINAL" stroke="none" stroke-width="1" fill="none" fill-rule="evenodd">
        <g id="report-issue-icon" fill="#353F54" fill-rule="nonzero">
            <path d="M44.6289062,-1.97082117e-13 C47.5952794,-1.97082117e-13 50,2.40472058 50,5.37109375 L50,33.3984375 C50,36.3648107 47.5952794,38.7695313 44.6289062,38.7695312 L12.7322336,38.7695312 L2.17732959,49.5661451 C1.68719071,50.0675083 0.883419484,50.0766074 0.382056307,49.5864685 C0.137730241,49.3476123 0,49.0203535 0,48.6786702 L0,5.37109375 C0,2.40472058 2.40472058,-1.97082117e-13 5.37109375,-1.97082117e-13 L44.6289062,-1.97082117e-13 Z M44.6289062,2.63183594 L5.37109375,2.63183594 C3.91427493,2.63183594 2.72307386,3.76908075 2.63683513,5.2042258 L2.63183594,5.37109375 L2.631,45.336 L11.6245982,36.1376953 L44.6289063,36.1376953 C46.0857251,36.1376953 47.2769261,35.0004505 47.3631649,33.5653054 L47.3681641,33.3984375 L47.3681641,5.37109375 C47.3681641,3.91427493 46.2309193,2.72307386 44.7957742,2.63683513 L44.6289062,2.63183594 Z M25.420222,26.3157895 C26.5102577,26.3157895 27.3939062,27.199438 27.3939062,28.2894737 C27.3939062,29.3795094 26.5102577,30.2631579 25.420222,30.2631579 C24.3301863,30.2631579 23.4465378,29.3795094 23.4465378,28.2894737 C23.4465378,27.199438 24.3301863,26.3157895 25.420222,26.3157895 Z M25.3257631,8.69140625 C26.5003606,8.69140625 27.4525599,9.64360561 27.4525599,10.818203 C27.4525599,10.8729088 27.4504492,10.9275941 27.4462325,10.9821371 L26.5476448,22.6052729 C26.5009174,23.2096865 25.9968422,23.6762957 25.390625,23.6762957 C24.7830218,23.6762957 24.27644,23.2113949 24.224398,22.6060245 L23.2249864,10.9805294 C23.1252449,9.82030247 23.9849382,8.79889621 25.1451652,8.69915471 C25.2052261,8.69399145 25.2654807,8.69140625 25.3257631,8.69140625 Z" id="Combined-Shape"></path>
        </g>
    </g>
</svg>
