<?xml version="1.0" encoding="UTF-8"?>
<svg width="29px" height="28px" viewBox="0 0 29 28" version="1.1" xmlns="http://www.w3.org/2000/svg" xmlns:xlink="http://www.w3.org/1999/xlink">
    <!-- Generator: Sketch 52.6 (67491) - http://www.bohemiancoding.com/sketch -->
    <title>tool</title>
    <desc>Created with Sketch.</desc>
    <g id="Page-1" stroke="none" stroke-width="1" fill="none" fill-rule="evenodd">
        <g id="tool" fill="#8C8C8C" fill-rule="nonzero">
            <path d="M28.9381098,21.4916057 C28.694624,20.6940436 28.2568185,19.96925 27.6637916,19.382214 C26.7192929,18.4340204 25.4340106,17.9025418 24.0945973,17.9061905 C23.410065,17.9065347 22.7326352,18.0451873 22.1031303,18.3137493 L17.1382541,13.356954 L23.7305064,6.82499945 L25.291684,6.78093905 C25.4805564,6.77522496 25.6532926,6.67333528 25.749556,6.51106908 L27.9837503,2.76042738 C28.1135956,2.54398066 28.0794621,2.26708857 27.9010023,2.08850624 L25.9702172,0.160863663 C25.7913437,-0.0173055866 25.5140002,-0.0513835536 25.2972006,0.07825041 L21.5404444,2.30880825 C21.3779135,2.40491501 21.2758578,2.57737017 21.2701346,2.76593493 L21.2260023,4.3190641 L14.6502996,10.8730489 L10.1377788,6.36787278 C10.6115798,3.6251816 8.76864532,1.01832039 6.02148282,0.54529067 C4.7486127,0.32609017 3.43995412,0.602431505 2.36498947,1.31744921 C2.11260827,1.48783904 2.04634096,1.83020214 2.21700858,2.08217256 C2.26500238,2.15301343 2.3288562,2.21173768 2.40360518,2.25373276 L4.90810936,3.64714296 C5.45976226,3.96107332 5.57009283,4.89735686 5.12325399,5.69044411 C4.67641513,6.48353133 3.82135312,6.89109005 3.26418369,6.58266724 L0.94172498,5.32694579 C0.674793931,5.18030726 0.33932001,5.27751552 0.192511381,5.54401211 C0.141897227,5.63578168 0.118589891,5.74008089 0.12534764,5.84465551 C0.299876828,8.62238847 2.69687764,10.7328817 5.47913905,10.5586366 C6.05396138,10.522631 6.61837126,10.3886598 7.14788909,10.1625749 L11.2521867,14.2601922 L9.47586434,16.0336235 L9.07315773,15.6370798 C8.62735322,15.2111396 7.92468534,15.2111396 7.47888083,15.6370798 L6.92722792,16.1878348 C6.50693737,16.5963574 6.48032012,17.2617383 6.8665461,17.7024112 L0.340492272,24.2068281 C-0.0997267443,24.6273983 -0.115104069,25.324723 0.306151879,25.7642256 C0.31732285,25.7759291 0.328769648,25.7873572 0.340492272,25.7985101 L2.20507908,27.6600619 C2.62633504,28.0995645 3.32479657,28.1149167 3.76501558,27.6943464 C3.7767382,27.6831938 3.788185,27.6717655 3.79935597,27.6600619 L10.3309263,21.1446301 C10.7723176,21.5302275 11.4387833,21.5036536 11.8479718,21.084047 L12.3996247,20.5332919 C12.8398437,20.1127217 12.8552211,19.4153971 12.4339651,18.9758944 C12.4227941,18.9641909 12.4113473,18.9527628 12.3996247,18.9416099 L11.9969181,18.5395589 L13.7622074,16.7385898 L19.1132406,22.0809136 C18.6509554,24.8256013 20.504785,27.424683 23.2539471,27.8862157 C24.8822887,28.1595968 26.5415916,27.6205453 27.6969597,26.4428933 C27.8995542,26.2157069 27.8794189,25.8676298 27.6518621,25.6652961 C27.5931111,25.6130433 27.5238097,25.5739396 27.4487158,25.5506702 L24.3429101,24.7190302 C24.0385356,24.62134 23.7976012,24.3869249 23.6919596,24.0856619 C23.5306011,23.6703237 23.5112244,23.2134036 23.6367943,22.78588 C23.8684885,21.9211946 24.602187,21.3043491 25.2200382,21.4695755 L28.2927448,22.2957081 C28.3421178,22.3028678 28.3923182,22.3028678 28.4416912,22.2957081 C28.7463414,22.2994256 28.9963092,22.0558543 28.9999638,21.7516997 C29.0009982,21.6612383 28.9798286,21.5718782 28.9381098,21.4916057 Z M22.1472626,4.93040216 C22.24656,4.83057782 22.3037941,4.69653783 22.307242,4.55588874 L22.3513742,3.08537284 L25.479246,1.22932841 L26.8032131,2.55114047 L24.9827585,5.6684139 L23.4822627,5.7234894 C23.3413842,5.72693162 23.2071258,5.78407246 23.1071387,5.88320836 L16.3769732,12.5969121 L15.4281302,11.6496135 L22.1472626,4.93040216 Z M3.01593989,26.8779899 L1.12377044,24.9999153 L7.68292345,18.4679607 L8.63176644,19.4152593 L9.5364772,20.3515428 L3.01593989,26.8779899 Z M11.0866219,20.2689297 L10.3584401,19.5364254 L10.077097,19.2555403 L7.76015485,16.9258465 L8.31180776,16.3750915 L11.6217252,19.7236821 L11.0866219,20.2689297 Z M11.1914359,17.7574866 L10.2425929,16.810188 L12.0189152,15.0367568 L12.9677583,15.9840555 L11.1914359,17.7574866 Z M25.4902793,20.4066184 C25.3265762,20.3626957 25.1577704,20.3404589 24.9882751,20.3405277 C23.7856027,20.4374607 22.7929034,21.3183933 22.5554857,22.4994874 C22.3672341,23.1627341 22.4040569,23.8695594 22.6602997,24.5097432 C22.8967519,25.1258316 23.4095824,25.595006 24.0449486,25.7764798 L26.0970973,26.3272349 C24.2257528,27.4405174 21.8047551,26.8284908 20.6896577,24.9602609 C20.1659323,24.0828393 20.004229,23.0366112 20.2385436,22.0423607 C20.2805381,21.8574447 20.2242695,21.6639231 20.0895972,21.5301587 L7.65534081,9.10512524 C7.47881188,8.93955452 7.214777,8.90829917 7.00439038,9.02801955 C6.4347398,9.32811219 5.80040792,9.48507738 5.15635316,9.48514621 C3.49663644,9.48659194 2.01413823,8.44917601 1.44924565,6.89109005 L2.70701428,7.59054894 C3.00021778,7.75446739 3.33086474,7.83983443 3.66689031,7.8383887 C4.68827567,7.77966443 5.60181288,7.18422941 6.06658044,6.27424442 C6.81682839,4.93590972 6.52445236,3.34422771 5.42114654,2.72738207 L3.8158366,1.81863629 C5.86729583,1.08702708 8.12431474,2.15432146 8.85711665,4.20237288 C9.11142864,4.91325992 9.15576775,5.68211393 8.98482429,6.41744073 C8.94282973,6.60235673 8.99909833,6.79587828 9.13377058,6.9296429 L21.5956096,19.3656913 C21.7659324,19.5359436 22.027278,19.5761487 22.2410435,19.4648271 C22.810763,19.1649412 23.4450259,19.0080449 24.0890809,19.0077007 C25.4860039,19.0065991 26.7790094,19.7442666 27.4872626,20.9463582 L25.4902793,20.4066184 Z" id="Shape"></path>
        </g>
    </g>
</svg>