<?xml version="1.0" encoding="UTF-8"?>
<svg width="50px" height="50px" viewBox="0 0 50 50" version="1.1" xmlns="http://www.w3.org/2000/svg" xmlns:xlink="http://www.w3.org/1999/xlink">
    <!-- Generator: Sketch 63.1 (92452) - https://sketch.com -->
    <title>Artboard</title>
    <desc>Created with Sketch.</desc>
    <g id="Artboard" stroke="none" stroke-width="1" fill="none" fill-rule="evenodd">
        <g id="Group">
            <rect id="Rectangle" fill="#FFD233" x="0" y="0" width="50" height="50" rx="5"></rect>
            <g id="idea1" transform="translate(16.000000, 16.000000)" fill="#000000" fill-rule="nonzero">
                <path d="M8.86153793,0 C5.81524906,0 3.33686881,2.47838025 3.33686881,5.52466912 C3.33686881,7.27788418 4.16344627,8.91386666 5.56144797,9.95557333 L5.56144797,10.4169315 C5.22097325,10.7161652 5.00543839,11.1544014 5.00543839,11.6422619 C5.00543839,12.0718442 5.17256581,12.4630251 5.4448915,12.7546867 C5.17256581,13.0463484 5.00543839,13.437394 5.00543839,13.8669763 C5.00543839,14.5987672 5.48964812,15.2195454 6.15464205,15.4256151 C6.36855432,16.7269371 7.5005855,17.7230759 8.86153793,17.7230759 C10.2224904,17.7230759 11.3546568,16.7269371 11.568569,15.4256151 C12.2334277,15.2194102 12.7177727,14.5987672 12.7177727,13.8668411 C12.7177727,13.437394 12.5506453,13.0462132 12.2783196,12.7545515 C12.5506453,12.4628899 12.7177727,12.0718442 12.7177727,11.6422619 C12.7177727,11.1544014 12.5022378,10.7161652 12.1616279,10.4167963 L12.1616279,9.95557333 C13.5596296,8.91386666 14.3862071,7.27788418 14.3862071,5.52466912 C14.3862071,2.47838025 11.9078268,0 8.86153793,0 Z M11.0862523,11.0492031 C11.4132055,11.0492031 11.6793112,11.3153088 11.6793112,11.6422619 C11.6793112,11.9693502 11.4132055,12.235456 11.0862523,12.235456 L6.63695874,12.235456 C6.30987041,12.235456 6.04376466,11.9693502 6.04376466,11.6422619 C6.04376466,11.3153088 6.30987041,11.0492031 6.63695874,11.0492031 L11.0862523,11.0492031 Z M8.86153793,16.6846144 C8.10216298,16.6846144 7.45718106,16.1856661 7.23691362,15.4984967 L10.4861622,15.4984967 C10.26603,16.1858013 9.62091289,16.6846144 8.86153793,16.6846144 Z M11.0862523,14.4600352 L6.63695874,14.4600352 C6.30987041,14.4600352 6.04376466,14.1939294 6.04376466,13.8669763 C6.04376466,13.539888 6.30987041,13.2739175 6.63695874,13.2739175 L11.0862523,13.2739175 C11.4132055,13.2739175 11.6793112,13.539888 11.6793112,13.8669763 C11.6793112,14.1939294 11.4132055,14.4600352 11.0862523,14.4600352 Z M11.3535751,9.25542312 C11.2095696,9.35183236 11.1231664,9.51368634 11.1231664,9.68689846 L11.1231664,10.0116881 C11.1108617,10.0114177 11.098557,10.0107416 11.0862523,10.0107416 L10.4930583,10.0107416 L10.4930583,7.96437752 L11.2386412,7.21879465 C11.4414657,7.01597014 11.4414657,6.68725922 11.2386412,6.48443471 C11.0359519,6.2816102 10.7071057,6.2816102 10.5044165,6.48443471 L9.60671518,7.38213599 C9.50935942,7.47949175 9.45459677,7.6114629 9.45459677,7.74924835 L9.45459677,10.0107416 L8.26847909,10.0107416 L8.26847909,7.74924835 C8.26847909,7.6115981 8.21371645,7.47949175 8.11636069,7.38213599 L7.21865941,6.48443471 C7.01597014,6.28174541 6.68725922,6.28174541 6.48443471,6.48443471 C6.2816102,6.68725922 6.2816102,7.01597014 6.48443471,7.21879465 L7.23001762,7.96437752 L7.23001762,10.0108768 L6.63695874,10.0108768 C6.62451884,10.0108768 6.61221414,10.0114177 6.59990945,10.0116881 L6.59990945,9.68689846 C6.59990945,9.51368634 6.51350623,9.35183236 6.3695008,9.25542312 C5.12091316,8.41951573 4.37533029,7.0248944 4.37533029,5.52466912 C4.37533029,3.05088625 6.38789023,1.03846148 8.86153793,1.03846148 C11.3351856,1.03846148 13.3477456,3.05088625 13.3477456,5.52466912 C13.3477456,7.0248944 12.6021627,8.41951573 11.3535751,9.25542312 Z" id="Shape"></path>
                <path d="M2.15075106,5.52466912 C2.15075106,5.23787528 1.9183142,5.00543839 1.63152032,5.00543839 L0.519230738,5.00543839 C0.232436894,5.00543839 0,5.23787528 0,5.52466912 C0,5.81132776 0.232436894,6.04389986 0.519230738,6.04389986 L1.63152032,6.04389986 C1.9183142,6.04389986 2.15075106,5.81132776 2.15075106,5.52466912 Z" id="Path"></path>
                <path d="M17.2038451,5.00543839 L16.0915555,5.00543839 C15.8048969,5.00543839 15.5723248,5.23787528 15.5723248,5.52466912 C15.5723248,5.81132776 15.8048969,6.04389986 16.0915555,6.04389986 L17.2038451,6.04389986 C17.490639,6.04389986 17.7230759,5.81132776 17.7230759,5.52466912 C17.7230759,5.23787528 17.490639,5.00543839 17.2038451,5.00543839 Z" id="Path"></path>
                <path d="M2.34045959,8.68994841 L1.37717839,9.2460932 C1.1289212,9.38955772 1.04387013,9.70704569 1.18719945,9.95543809 C1.28333827,10.1220246 1.45790257,10.2150535 1.63733463,10.2150535 C1.72536047,10.2150535 1.81473846,10.1927428 1.89640913,10.1454171 L2.85969033,9.58940749 C3.10808273,9.44594293 3.19313383,9.128455 3.04980451,8.88006256 C2.9064752,8.63167016 2.58885199,8.54661909 2.34045959,8.68994841 Z" id="Path"></path>
                <path d="M15.1234066,2.4290263 C15.2114324,2.4290263 15.3006752,2.4065804 15.382481,2.35938987 L16.3458975,1.80310988 C16.5941547,1.65978056 16.6793409,1.3422926 16.5358764,1.09390016 C16.3924119,0.845507753 16.0749239,0.760456685 15.8266667,0.903921212 L14.8632503,1.46006604 C14.6149931,1.60339532 14.5298068,1.92101852 14.6732714,2.16927572 C14.7694102,2.33586225 14.9439745,2.4290263 15.1234066,2.4290263 Z" id="Path"></path>
                <path d="M16.3457623,9.2460932 L15.382481,8.69008362 C15.1340886,8.5467543 14.8164655,8.63180537 14.6731361,8.88019777 C14.5298068,9.128455 14.6149931,9.44607817 14.8632503,9.58940749 L15.8266667,10.1454171 C15.9083374,10.1926076 15.9975802,10.2150535 16.0857412,10.2150535 C16.2651733,10.2150535 16.4397376,10.1218894 16.5358764,9.95530288 C16.6793409,9.70704569 16.5941547,9.38942252 16.3457623,9.2460932 Z" id="Path"></path>
                <path d="M2.85982557,1.45993079 L1.89654434,0.903921212 C1.64815194,0.760456685 1.33066397,0.845642996 1.18733466,1.0940354 C1.04387013,1.3424278 1.12905644,1.65991577 1.3773136,1.80324508 L2.34059483,2.35938987 C2.42240071,2.4065804 2.51164349,2.4290263 2.5996693,2.4290263 C2.7792366,2.4290263 2.95366569,2.33586225 3.04993972,2.16927572 C3.19326904,1.92088332 3.10808273,1.60339532 2.85982557,1.45993079 Z" id="Path"></path>
            </g>
        </g>
    </g>
</svg>