<?xml version="1.0" encoding="UTF-8"?>
<svg width="50px" height="50px" viewBox="0 0 50 50" version="1.1" xmlns="http://www.w3.org/2000/svg" xmlns:xlink="http://www.w3.org/1999/xlink">
    <!-- Generator: Sketch 63.1 (92452) - https://sketch.com -->
    <title>Artboard Copy</title>
    <desc>Created with Sketch.</desc>
    <g id="Page-1" stroke="none" stroke-width="1" fill="none" fill-rule="evenodd">
        <g id="Artboard" transform="translate(-130.000000, -40.000000)" fill-rule="nonzero">
            <g id="Artboard-Copy" transform="translate(130.000000, 40.000000)">
                <rect id="Rectangle" fill="#f05958" x="0" y="0" width="50" height="50" rx="5"></rect>
                <g id="edit-tools-(1)" transform="translate(17.000000, 17.000000)" fill="#000000">
                    <path d="M10.4201959,4.65445339 C10.2546099,4.65445339 10.1201959,4.7885159 10.1201959,4.9543362 C10.1201959,5.12003935 10.2546099,5.25433622 10.4201959,5.25433622 C10.5861334,5.25433622 10.7201959,5.12003935 10.7201959,4.9543362 C10.7201959,4.7885159 10.5861334,4.65445339 10.4201959,4.65445339 Z" id="Path"></path>
                    <path d="M4.9693362,10.1051959 C4.80339869,10.1051959 4.66933619,10.2396099 4.66933619,10.4051959 C4.66933619,10.5711334 4.80339869,10.7051959 4.9693362,10.7051959 C5.13492214,10.7051959 5.26933622,10.5711334 5.26933622,10.4051959 C5.26933622,10.2396099 5.13492214,10.1051959 4.9693362,10.1051959 Z" id="Path"></path>
                    <path d="M15.0017586,1.84558603 C14.9005086,1.82203135 14.7941024,1.85261728 14.7209774,1.92644543 L13.4772664,3.18000017 L12.8810163,3.18000017 L12.2246491,2.49996107 L12.2246491,1.89539074 L13.4505476,0.651210966 C13.5230867,0.577617212 13.5526179,0.471796886 13.5285945,0.37113284 C13.5046882,0.270585945 13.4306257,0.18949219 13.332657,0.156445329 C13.0246882,0.0526171829 12.7024226,-2.84614371e-05 12.3746491,-2.84614371e-05 C11.3975397,-2.84614371e-05 10.5098443,0.455625025 9.93914118,1.25003914 C9.40500051,1.99371104 9.24035207,2.9050783 9.47625052,3.77730489 L7.26644572,5.98710969 L3.58488302,2.29710949 L3.58488302,1.57289073 C3.58488302,1.46753915 3.52957051,1.36980475 3.43921894,1.31566414 L1.31800789,0.0427734323 C1.19988289,-0.0281250015 1.0488282,-0.00949218052 0.951562552,0.0878906448 L0.103125006,0.936210981 C0.00585936032,1.03359381 -0.0127734307,1.18464849 0.0580078232,1.3027735 L1.33066414,3.42398455 C1.38480476,3.51433612 1.48242194,3.56953145 1.58777352,3.56964863 L2.31175795,3.56988302 L5.99367219,7.25988322 L3.79230489,9.46125052 C2.9200783,9.22546925 2.00824229,9.39035208 1.26421882,9.92484429 C0.470273456,10.4951959 0.0150000008,11.3826569 0.0150000008,12.3597663 C0.0150000008,12.6874226 0.0676171837,13.0098054 0.171445329,13.317657 C0.204609371,13.4162117 0.286523446,13.4906257 0.387773451,13.5140632 C0.489140667,13.5376179 0.595429713,13.507032 0.668671897,13.4332039 L1.91226574,12.1797663 L2.511797,12.1797663 L3.19488299,12.8628523 L3.19488299,13.4623836 L1.94144543,14.7059774 C1.86761728,14.7792196 1.83703135,14.8855086 1.86058603,14.9868758 C1.88402353,15.0881258 1.95843761,15.1700399 2.05699229,15.203204 C2.36484388,15.3070321 2.68722672,15.3596493 3.01488298,15.3596493 C3.9919924,15.3596493 4.8793362,14.9042586 5.44980498,14.1103133 C5.98429719,13.3662898 6.14918002,12.454571 5.91339875,11.5823444 L7.68140667,9.81433647 L8.08640669,10.2542584 L7.90054729,10.4400006 C7.78335979,10.5571881 7.78335979,10.747149 7.90054729,10.8643365 C8.0177348,10.9814068 8.20757859,10.9814068 8.32488327,10.8643365 L8.49316453,10.6960553 L12.2930866,14.8236336 C12.2958991,14.8266805 12.2988288,14.8296102 12.3017585,14.8325399 C13.0048835,15.5356649 14.1440633,15.5358993 14.8475399,14.8324227 C15.5490243,14.1305867 15.5490243,12.9885945 14.8475399,12.2867585 C14.844493,12.2837116 14.841329,12.2807819 14.8381649,12.2778522 L10.7041412,8.48519578 L10.8705475,8.31878952 C10.987735,8.2017192 10.987735,8.01175826 10.8705475,7.89457075 C10.7533599,7.77738324 10.5635162,7.77738324 10.4462115,7.89457075 L10.2616412,8.07925826 L9.82089897,7.67472699 L11.5974616,5.89816439 C11.8500006,5.9656644 12.1106257,5.99988315 12.3746491,5.99988315 C14.0288679,5.99988315 15.3745321,4.65410182 15.3745321,3.00000016 C15.3745321,2.67222672 15.3219149,2.34996106 15.2180868,2.04199229 C15.1849227,1.94343761 15.1030086,1.86902353 15.0017586,1.84558603 Z M2.64855482,3.05800799 C2.59230482,3.0016408 2.51601578,2.97292984 2.43632827,2.97292984 L1.7578126,2.97269548 L0.693046898,1.194961 L1.21019539,0.677812537 L2.98488298,1.7428126 L2.98488298,2.42132827 C2.98488298,2.50078139 3.01640641,2.57695328 3.07253924,2.63320328 L6.84222694,6.41144567 L6.41789099,6.83566444 L2.64855482,3.05800799 Z M10.2794537,8.90988331 L14.4275399,12.7153132 C14.8908992,13.1835945 14.889493,13.9417976 14.4232039,14.4083211 C13.9558601,14.8756649 13.1992976,14.8770711 12.7300788,14.4124226 L8.91773485,10.2713677 L10.2794537,8.90988331 Z M9.83695368,8.5038286 L8.51097704,9.82957086 L8.10597701,9.38964894 L9.39621144,8.0992973 L9.83695368,8.5038286 Z M12.3746491,5.39988312 C12.1122663,5.39988312 11.8542194,5.35781279 11.6078913,5.27484404 C11.4999616,5.23863311 11.3806647,5.26652372 11.3000397,5.34703154 C9.79605522,6.85101601 6.55535193,10.0916021 5.36203154,11.2850397 C5.28140654,11.3656647 5.25339872,11.4849616 5.28984404,11.5930085 C5.53921905,12.3335163 5.41992216,13.1233601 4.96242213,13.7602742 C4.50621118,14.3953133 3.79628928,14.7596492 3.01488298,14.7596492 C2.92710952,14.7596492 2.83980484,14.7548446 2.75332047,14.7455867 L3.70617206,13.8001179 C3.76289085,13.7438679 3.79488303,13.6672273 3.79488303,13.5871882 L3.79488303,12.7385163 C3.79488303,12.658946 3.76324239,12.5826569 3.70699238,12.5264069 L2.84812516,11.6675397 C2.79187515,11.6112897 2.71558608,11.5796491 2.63601578,11.5796491 L1.78734385,11.5796491 C1.70730477,11.5796491 1.63066416,11.6116413 1.57429695,11.66836 L0.628945354,12.6212116 C0.619570354,12.5347273 0.614882854,12.4474225 0.614882854,12.3596491 C0.614882854,11.5781256 0.979101623,10.8683209 1.61425791,10.4121099 C2.2510548,9.9546099 3.04101581,9.83519586 3.78164085,10.0846881 C3.88957053,10.1211334 4.0088674,10.0931256 4.0894924,10.0125005 C4.10601586,9.9960943 10.0232818,4.07871115 10.0275005,4.0744924 C10.1081256,3.9938674 10.1360162,3.87468771 10.0996881,3.76664085 C9.85019586,3.02613299 9.96925836,2.23652355 10.4264068,1.60007823 C10.8829693,0.964453193 11.5930085,0.600000033 12.3745319,0.600000033 C12.4650007,0.600000033 12.5548835,0.605039103 12.643946,0.614882854 L11.7108991,1.56187509 C11.6555866,1.61800791 11.6246491,1.69359384 11.6246491,1.77234385 L11.6246491,2.62101578 C11.6246491,2.69882829 11.6547663,2.77347672 11.7087897,2.82937515 L12.5376569,3.68824238 C12.5941413,3.74683613 12.672071,3.77988303 12.7535163,3.77988303 L13.6021882,3.77988303 C13.6821101,3.77988303 13.7587508,3.74800802 13.8151179,3.69117206 L14.7604696,2.73843765 C14.7698446,2.82492201 14.7745321,2.91222673 14.7745321,3.00000016 C14.7745321,4.32328149 13.6979304,5.39988312 12.3746491,5.39988312 L12.3746491,5.39988312 Z" id="Shape" stroke="#000000" stroke-width="0.1"></path>
                    <path d="M9.35964894,5.59066438 L5.60554717,9.34476615 C5.48847687,9.46183645 5.48847687,9.65179739 5.60554717,9.76898489 C5.72273467,9.8861724 5.91269564,9.8861724 6.02988315,9.76898489 L9.78398489,6.01488315 C9.9011724,5.89781282 9.9011724,5.70785188 9.78398489,5.59066438 C9.66679739,5.47347687 9.47683645,5.47347687 9.35964894,5.59066438 L9.35964894,5.59066438 Z" id="Path"></path>
                    <path d="M13.1506648,13.5600007 C13.2678523,13.6768367 13.4578132,13.6768367 13.5750007,13.5592976 C13.6919539,13.4419929 13.6916023,13.252032 13.5742976,13.1350789 L10.8701959,10.439649 C10.7528912,10.3226959 10.5628131,10.3230474 10.4459771,10.4403521 C10.3289068,10.557774 10.3292584,10.7476178 10.4465631,10.8645709 L13.1506648,13.5600007 Z" id="Path"></path>
                </g>
            </g>
        </g>
    </g>
</svg>
