<?xml version="1.0" encoding="UTF-8"?>
<svg width="50px" height="50px" viewBox="0 0 50 50" version="1.1" xmlns="http://www.w3.org/2000/svg" xmlns:xlink="http://www.w3.org/1999/xlink">
    <!-- Generator: Sketch 63.1 (92452) - https://sketch.com -->
    <title>Artboard Copy</title>
    <desc>Created with Sketch.</desc>
    <g id="Artboard-Copy" stroke="none" stroke-width="1" fill="none" fill-rule="evenodd">
        <rect id="Rectangle-Copy" fill="#007CFF" x="0" y="0" width="50" height="50" rx="5"></rect>
        <g id="celsius" transform="translate(19.000000, 15.000000)" fill="#FFFFFF" fill-rule="nonzero">
            <path d="M5.097363,12.4492668 L5.097363,5.03320282 C5.097363,4.72250949 4.84555636,4.47070286 4.53486303,4.47070286 C4.22431617,4.47070286 3.97236306,4.72250949 3.97236306,5.03320282 L3.97236306,12.4492668 C2.98359357,12.700634 2.24999987,13.5982902 2.24999987,14.6644034 C2.24999987,15.924462 3.27495097,16.9495595 4.53486303,16.9495595 C5.79477505,16.9495595 6.81987263,15.924462 6.81987263,14.6644034 C6.81987263,13.5982902 6.08613245,12.700634 5.097363,12.4492668 Z M4.53486303,15.8245596 C3.89531227,15.8245596 3.3749998,15.3041007 3.3749998,14.6644034 C3.3749998,14.0245597 3.89531227,13.5041008 4.53486303,13.5041008 C5.17456023,13.5041008 5.6948727,14.0245597 5.6948727,14.6644034 C5.6948727,15.3041007 5.17456023,15.8245596 4.53486303,15.8245596 Z" id="Shape"></path>
            <path d="M7.32656206,11.0897454 L7.32656206,2.79199202 C7.32656206,1.25244135 6.07426723,0 4.53486303,0 C2.99560527,0 1.74331043,1.25244135 1.74331043,2.79199202 L1.74331043,11.0897454 C0.646435499,11.9471184 0,13.2618156 0,14.6642569 C0,17.165331 2.03437488,19.1999989 4.53486303,19.1999989 C7.03549762,19.1999989 9.0698725,17.165331 9.0698725,14.6642569 C9.0698725,13.2618156 8.423437,11.9471184 7.32656206,11.0897454 Z M4.53486303,18.0749989 C2.65458967,18.0749989 1.12499993,16.5449697 1.12499993,14.6642569 C1.12499993,13.5329582 1.68457021,12.4773918 2.62192368,11.8406243 C2.77602523,11.735888 2.86831037,11.5615716 2.86831037,11.3752435 L2.86831037,2.79199202 C2.86831037,1.87280261 3.61596657,1.12499993 4.53486303,1.12499993 C5.45390592,1.12499993 6.20156213,1.87280261 6.20156213,2.79199202 L6.20156213,11.3752435 C6.20156213,11.5615716 6.2938473,11.735888 6.44794882,11.8406243 C7.38530228,12.4773918 7.94487256,13.5329582 7.94487256,14.6642569 C7.94487256,16.5449697 6.41513632,18.0749989 4.53486303,18.0749989 Z" id="Shape"></path>
            <path d="M10.7573724,8.98081 L9.01406196,8.98081 C8.70336863,8.98081 8.451562,9.23261664 8.451562,9.54330997 C8.451562,9.85400334 8.70336863,10.1058099 9.01406196,10.1058099 L10.7573724,10.1058099 C11.0679193,10.1058099 11.3198724,9.85400334 11.3198724,9.54330997 C11.3198724,9.23261664 11.0679193,8.98081 10.7573724,8.98081 L10.7573724,8.98081 Z" id="Path"></path>
            <path d="M10.7573724,6.73037067 L9.01406196,6.73037067 C8.70336863,6.73037067 8.451562,6.98217731 8.451562,7.29287064 C8.451562,7.60356401 8.70336863,7.85537061 9.01406196,7.85537061 L10.7573724,7.85537061 C11.0679193,7.85537061 11.3198724,7.60356401 11.3198724,7.29287064 C11.3198724,6.98217731 11.0679193,6.73037067 10.7573724,6.73037067 Z" id="Path"></path>
            <path d="M10.7573724,4.47993138 L9.01406196,4.47993138 C8.70336863,4.47993138 8.451562,4.73173802 8.451562,5.04243135 C8.451562,5.35312468 8.70336863,5.60493132 9.01406196,5.60493132 L10.7573724,5.60493132 C11.0679193,5.60493132 11.3198724,5.35312468 11.3198724,5.04243135 C11.3198724,4.73173802 11.0679193,4.47993138 10.7573724,4.47993138 Z" id="Path"></path>
            <path d="M9.01406196,3.35449199 L10.7573724,3.35449199 C11.0679193,3.35449199 11.3198724,3.10268535 11.3198724,2.79199202 C11.3198724,2.48144516 11.0679193,2.22949205 10.7573724,2.22949205 L9.01406196,2.22949205 C8.70336863,2.22949205 8.451562,2.48144516 8.451562,2.79199202 C8.451562,3.10268535 8.70336863,3.35449199 9.01406196,3.35449199 L9.01406196,3.35449199 Z" id="Path"></path>
        </g>
    </g>
</svg>