<svg
  xmlns="http://www.w3.org/2000/svg"
  xmlns:xlink="http://www.w3.org/1999/xlink"
  version="1.1"
  id="S1NZ3tnYwf"
  x="0px"
  y="0px"
  viewBox="0 0 511.997 511.997"
  style="enable-background: new 0 0 511.997 511.997"
  xmlns:svgjs="http://svgjs.com/svgjs"
>
  <style type="text/css">
    #SkS-nKntwf {
      fill: #2f2d30;
    }
    #HJ8-nthYwM {
      fill: #fff;
    }
    #BJwbht2twM {
      fill: #f4f4f4;
    }
    #Bku-2K3KPM {
      fill: #61C584;
    }
    #BkF-3F2Kvf {
      fill: #f4f4f4;
    }
    #BycZ2FnYwG {
      fill: #ffcd00;
    }
    #r1j-hY3FDf {
      opacity: 0.23;
      fill: #ffffff;
      enable-background: new;
    }
  </style>
  <circle cx="255.998" cy="255.998" r="255.998" id="HJ8-nthYwM" />
  <circle cx="255.998" cy="255.998" r="220.336" id="BJwbht2twM" />
  <g
    id="fan-icon-svg"
    data-animator-group="true"
    data-animator-type="1"
  >
    <path
      d="M336.74,273.105l-11.29-61.699c43.944-17.033,91.301-17.036,132.978,0.351  c-11.871-54.446-45.146-100.896-90.583-130.067c-41.466,17.101-75.288,50.692-94.472,93.286l-62.139,10.795  c-16.283-43.523-16.008-90.934,1.175-132.139C157.448,65.444,110.589,99.06,81.339,144.994  c17.164,41.124,50.568,74.669,92.873,93.762l11.167,61.874c-43.442,16.129-90.716,15.781-131.804-1.392  c11.653,54.937,45.077,101.828,90.83,131.203c41.374-17.062,75.134-50.545,94.341-93.005l62.447-12.062  c16.639,43.743,16.51,91.509-0.747,132.991c54.447-11.873,100.897-45.154,130.066-90.595  C413.344,326.157,379.556,292.249,336.74,273.105z"
      id="Bku-2K3KPM"
    />
  </g>
  <circle cx="255.998" cy="255.998" r="85.239" id="BkF-3F2Kvf" />
  <circle cx="255.998" cy="255.998" r="32.593" id="BycZ2FnYwG" />
  <g
    id="r1j-hY3FDf_r189qhFPM"
    data-animator-group="true"
    data-animator-type="1"
  >
    <path
      d="M340.836,256.376c0-24.309-10.194-46.224-26.519-61.752  l-137.735,29.804c-3.995,9.869-6.214,20.646-6.214,31.948c0,24.309,10.194,46.224,26.519,61.752l137.735-29.804  C338.616,278.453,340.836,267.676,340.836,256.376z"
      id="r1j-hY3FDf"
    />
  </g>
  <g id="SkhWnFnKvM"></g>
  <g id="By6b2F3Fvf"></g>
  <g id="SyRZhFhFDG"></g>
  <g id="BJkgbnFhKPf"></g>
  <g id="SJxxZ2KnFwG"></g>
  <g id="S1be-3FnFvf"></g>
  <g id="rkMe-3KntDf"></g>
  <g id="BJQgb2YnYPM"></g>
  <g id="SyVeW2F3KwG"></g>
  <g id="SyrgWhFhYDf"></g>
  <g id="Sy8lZhFnKwG"></g>
  <g id="ByDeZhFhYDz"></g>
  <g id="r1OlZnthKwf"></g>
  <g id="HJFeW2tntvM"></g>
  <g id="B15lZnYnKvz"></g>
</svg>
