<svg xmlns="http://www.w3.org/2000/svg" viewBox="0 0 192 192" style="width:175;height:175;fill:#fff" class="bulb-svg"><g data-name="trim area"><path class="cls-3" d="M107.13 183.77H84.87a14.66 14.66 0 0 1-14.64-14.63v-30.29a3.12 3.12 0 0 0-1.5-2.58c-19.33-12.36-27.81-35.75-21.08-58.19C52 63.64 67.45 48.7 82.13 44.77a51.1 51.1 0 0 1 44.69 8.6 50.66 50.66 0 0 1-3.57 82.91 3.13 3.13 0 0 0-1.49 2.61v30.25a14.65 14.65 0 0 1-14.63 14.63ZM95.93 54.94a41.58 41.58 0 0 0-10.7 1.42C74.49 59.23 62.3 71 59.14 81.52c-5.14 17.26 1.28 35.2 16.06 44.65a15 15 0 0 1 7 12.68v30.29a2.64 2.64 0 0 0 2.64 2.63h22.26a2.63 2.63 0 0 0 2.63-2.63v-30.25a15.09 15.09 0 0 1 7-12.72 38.63 38.63 0 0 0-20.8-71.23Z"/><path class="cls-3" d="M76.23 143.58h39.53v12H76.23zM96.25 38a6 6 0 0 1-6-6V11.88a6 6 0 1 1 12 0V32a6 6 0 0 1-6 6ZM50.92 56.57a6 6 0 0 1-4.24-1.76L32.45 40.59a6 6 0 1 1 8.49-8.49l14.22 14.23a6 6 0 0 1-4.24 10.24ZM32 101.75H11.88a6 6 0 1 1 0-12H32a6 6 0 0 1 0 12ZM180.11 102.25H160a6 6 0 0 1 0-12h20.11a6 6 0 0 1 0 12ZM141.43 56.92a6 6 0 0 1-4.24-10.24l14.22-14.23a6 6 0 0 1 8.49 8.49l-14.23 14.22a6 6 0 0 1-4.24 1.76Z"/></g></svg>