<svg xmlns="http://www.w3.org/2000/svg" viewBox="0 0 192 192" style="width:35px;height:35px;fill:#fff"><g data-name="trim area"><path class="cls-3" d="M70.77 187.61c-1.28 0-2.55-.05-3.84-.15a49.69 49.69 0 0 1-19.11-93.65V29.1a22.88 22.88 0 0 1 45.76 0v64.73a49.68 49.68 0 0 1-22.83 93.78Zm-.06-169.39A10.89 10.89 0 0 0 59.83 29.1v64.72a11.86 11.86 0 0 1-6.4 10.6 37.69 37.69 0 1 0 34.58 0 11.88 11.88 0 0 1-6.42-10.6V29.1a10.89 10.89 0 0 0-10.88-10.88Z"/><path class="cls-3" d="M70.71 161.81a21.47 21.47 0 1 1 21.47-21.46 21.49 21.49 0 0 1-21.47 21.46Zm0-30.93a9.47 9.47 0 1 0 9.47 9.47 9.47 9.47 0 0 0-9.47-9.47Z"/><path class="cls-3" d="M70.71 130.88a6 6 0 0 1-6-6V78a6 6 0 0 1 12 0v46.89a6 6 0 0 1-6 5.99ZM152.66 38h-42.43a6 6 0 1 1 0-12h42.43a6 6 0 0 1 0 12ZM139.66 62.72h-29.43a6 6 0 1 1 0-12h29.43a6 6 0 0 1 0 12ZM128.66 87.45h-18.43a6 6 0 0 1 0-12h18.43a6 6 0 0 1 0 12Z"/></g></svg>