<svg viewBox="0 0 512 512" xmlns="http://www.w3.org/2000/svg">
  <g fill="#000" fill-rule="evenodd">
    <path d="M256 0C114.833 0 0 114.833 0 256s114.833 256 256 256 256-114.853 256-256S397.167 0 256 0zm0 472.341c-119.275 0-216.341-97.046-216.341-216.341S136.725 39.659 256 39.659 472.341 136.705 472.341 256 375.295 472.341 256 472.341z" fill-rule="nonzero"/>
    <path d="M355.166 234.166h-79.332v-79.332c0-10.948-8.866-19.834-19.834-19.834s-19.834 8.886-19.834 19.834v79.332h-79.332C145.866 234.166 137 243.052 137 254s8.866 19.834 19.834 19.834h79.332v79.332c0 10.948 8.866 19.834 19.834 19.834s19.834-8.886 19.834-19.834v-79.332h79.332c10.968 0 19.834-8.886 19.834-19.834s-8.866-19.834-19.834-19.834z"/>
  </g>
</svg>
