<svg width="17" height="16" xmlns="http://www.w3.org/2000/svg"><g fill-rule="nonzero"><path d="M12.413 8.3V7.146a3.919 3.919 0 0 0-2.966-3.8V2.172a.95.95 0 0 0-1.902 0v1.172a3.919 3.919 0 0 0-2.966 3.8V8.3c0 1.233-.49 2.417-1.363 3.289a1.34 1.34 0 0 0 .948 2.289h2.364a1.968 1.968 0 0 0 3.936 0h2.363a1.34 1.34 0 0 0 .948-2.29A4.652 4.652 0 0 1 12.413 8.3zm-3.917 6.405a.828.828 0 0 1-.827-.827h1.654a.828.828 0 0 1-.827.827zm4.516-2.092a.2.2 0 0 1-.185.124H4.164a.2.2 0 0 1-.141-.341A5.754 5.754 0 0 0 5.719 8.3V7.146A2.78 2.78 0 0 1 8.496 4.37a2.78 2.78 0 0 1 2.776 2.776V8.3c0 1.547.603 3.002 1.697 4.096a.199.199 0 0 1 .043.217z"/><path d="M3.276 8.293a.57.57 0 0 0 .356-.724 3.546 3.546 0 0 1 2.211-4.495.57.57 0 1 0-.368-1.08 4.689 4.689 0 0 0-2.923 5.943.57.57 0 0 0 .724.356z"/><path d="M4.947 1.119a.57.57 0 1 0-.368-1.08A6.765 6.765 0 0 0 .361 8.614a.57.57 0 0 0 1.08-.368A5.623 5.623 0 0 1 4.947 1.12zM11.516 1.994a.57.57 0 1 0-.368 1.08A3.546 3.546 0 0 1 13.36 7.57a.57.57 0 1 0 1.08.368 4.689 4.689 0 0 0-2.923-5.943z"/><path d="M16.297 3.453A6.713 6.713 0 0 0 12.412.039a.57.57 0 1 0-.367 1.08 5.58 5.58 0 0 1 3.228 2.837 5.58 5.58 0 0 1 .277 4.29.57.57 0 0 0 1.08.368 6.713 6.713 0 0 0-.333-5.161z"/></g></svg>
