<?xml version="1.0" encoding="UTF-8"?>
<svg width="100px" height="100px" viewBox="0 0 100 100" version="1.1" xmlns="http://www.w3.org/2000/svg" xmlns:xlink="http://www.w3.org/1999/xlink">
    <g id="Artboard" stroke="none" stroke-width="1"  fill-rule="evenodd">
        <g id="one-box" transform="translate(0.000000, 13.000000)" fill-rule="nonzero">
            <path d="M97.2576797,0.123039216 L2.74232026,0.123039216 C1.22761438,0.123039216 0,1.35098039 0,2.86535948 L0,17.2797386 C0,18.794281 1.22761438,20.0220588 2.74232026,20.0220588 L6.34003268,20.0220588 L6.34003268,67.069281 C6.34003268,68.5838235 7.56764706,69.8116013 9.08235294,69.8116013 L90.9173203,69.8116013 C92.4320261,69.8116013 93.6596405,68.5836601 93.6596405,67.069281 L93.6596405,20.0220588 L97.2573529,20.0220588 C98.7720588,20.0220588 99.9996732,18.7941176 99.9996732,17.2797386 L99.9996732,2.86535948 C100,1.35098039 98.7723856,0.123039216 97.2576797,0.123039216 Z M94.5153595,14.5374183 L5.48480392,14.5374183 L5.48480392,5.60784314 L94.5153595,5.60784314 L94.5153595,14.5374183 Z M88.1751634,64.3269608 L11.8248366,64.3269608 L11.8248366,20.0220588 L88.1751634,20.0220588 L88.1751634,64.3269608 Z" id="Shape"></path>
            <path d="M30.5334967,47.7944444 L69.4665033,47.7944444 C72.9964052,47.7944444 75.8683007,44.9227124 75.8683007,41.3928105 L75.8683007,33.5055556 C75.8683007,29.9756536 72.9965686,27.1037582 69.4665033,27.1037582 L30.5334967,27.1037582 C27.0035948,27.1037582 24.1316993,29.9754902 24.1316993,33.5055556 L24.1316993,41.3928105 C24.1318627,44.9228758 27.0035948,47.7944444 30.5334967,47.7944444 Z M29.6166667,33.505719 C29.6166667,33.0001634 30.028268,32.5885621 30.5338235,32.5885621 L69.4665033,32.5885621 C69.9720588,32.5885621 70.3836601,33 70.3836601,33.505719 L70.3836601,41.3929739 C70.3836601,41.8985294 69.9720588,42.3098039 69.4665033,42.3098039 L30.5334967,42.3098039 C30.0279412,42.3098039 29.6163399,41.898366 29.6163399,41.3929739 L29.6163399,33.505719 L29.6166667,33.505719 Z" id="Shape"></path>
        </g>
    </g>
</svg>