<svg width="12" height="14" xmlns="http://www.w3.org/2000/svg"><path d="M11.99 3.795a3.93 3.93 0 0 0-1.268-2.745A3.921 3.921 0 0 0 7.885.003a3.928 3.928 0 0 0-2.745 1.27L.7 6.066a.382.382 0 0 0 .018.537l.308.29a.382.382 0 0 0 .542-.018l4.444-4.796c.507-.55 1.25-.865 2.038-.865.709 0 1.373.252 1.868.71.542.5.858 1.181.887 1.92a2.736 2.736 0 0 1-.726 1.979l-6.036 6.444a1.649 1.649 0 0 1-1.212.515c-.422 0-.817-.15-1.112-.423a1.643 1.643 0 0 1-.1-2.318l5.628-6.003c.492-.51 1.263.232.771.742-.835.866-2.98 3.182-4.03 4.32a.382.382 0 0 0 .018.537l.309.29a.382.382 0 0 0 .542-.019L8.9 5.548a1.714 1.714 0 0 0-1.933-2.736 1.65 1.65 0 0 0-.577.408L.753 9.232a2.835 2.835 0 0 0 .162 4c.503.466 1.183.72 1.912.72.811 0 1.57-.318 2.083-.874l6.037-6.444a3.935 3.935 0 0 0 1.044-2.839z" fill="#324056" fill-rule="nonzero"/></svg>