<svg xmlns="http://www.w3.org/2000/svg" width="11" height="16" viewBox="0 0 11 16">
    <path fill="#489EDC" fill-rule="evenodd" stroke="#489EDC" stroke-width=".2" d="M5.5 15C3.018 15 1 13.038 1 10.625v-6.27c0-.242.202-.437.45-.437s.45.195.45.436v6.271c0 1.93 1.614 3.502 3.6 3.502 1.985 0 3.6-1.57 3.6-3.502V4.208c0-1.287-1.076-2.335-2.4-2.335-1.324 0-2.4 1.048-2.4 2.335v5.833c0 .644.538 1.169 1.2 1.169.662 0 1.2-.524 1.2-1.169V4.354c0-.24.202-.436.45-.436s.45.195.45.436v5.688c0 1.126-.942 2.042-2.1 2.042-1.158 0-2.1-.917-2.1-2.042V4.208C3.4 2.438 4.88 1 6.7 1 8.52 1 10 2.439 10 4.208v6.417C10 13.038 7.982 15 5.5 15"/>
</svg>
