<?xml version="1.0" encoding="UTF-8"?>
<svg width="8px" height="13px" viewBox="0 0 8 13" version="1.1" xmlns="http://www.w3.org/2000/svg" xmlns:xlink="http://www.w3.org/1999/xlink">
    <!-- Generator: Sketch 55.2 (78181) - https://sketchapp.com -->
    <title>icon</title>
    <desc>Created with Sketch.</desc>
    <g id="Page-1" stroke="none" stroke-width="1" fill="none" fill-rule="evenodd">
        <g id="Attendance_Summary_page_with_Location1.0" transform="translate(-1101.000000, -388.000000)" fill="#000000" fill-rule="nonzero">
            <g id="Group-14" transform="translate(560.000000, 121.000000)">
                <g id="Group-13-Copy-3" transform="translate(360.000000, 262.000000)">
                    <g id="icon" transform="translate(181.000000, 5.000000)">
                        <path d="M6.82070588,0 L1.38729412,0 C0.867294118,0 0.447529412,0.421647059 0.447529412,0.940705882 L0.447529412,11.9741176 C0.447529412,12.4927059 0.867294118,12.9138824 1.38729412,12.9138824 L6.82070588,12.9138824 C7.33976471,12.9138824 7.76047059,12.4927059 7.76047059,11.9741176 L7.76047059,0.940705882 C7.76047059,0.421647059 7.33976471,0 6.82070588,0 Z M2.76329412,0.571294118 L5.44564706,0.571294118 C5.51341176,0.571294118 5.56847059,0.672470588 5.56847059,0.797647059 C5.56847059,0.922823529 5.51341176,1.02447059 5.44564706,1.02447059 L2.76329412,1.02447059 C2.69505882,1.02447059 2.64094118,0.922823529 2.64094118,0.797647059 C2.64094118,0.672470588 2.69505882,0.571294118 2.76329412,0.571294118 Z M4.10447059,11.9854118 C3.77364706,11.9854118 3.50447059,11.7162353 3.50447059,11.3849412 C3.50447059,11.0536471 3.77364706,10.7854118 4.10447059,10.7854118 C4.43435294,10.7854118 4.70352941,11.0536471 4.70352941,11.3849412 C4.70352941,11.7162353 4.43435294,11.9854118 4.10447059,11.9854118 Z M7.05647059,9.92941176 L1.152,9.92941176 L1.152,1.58729412 L7.05647059,1.58729412 L7.05647059,9.92941176 Z" id="Shape"></path>
                    </g>
                </g>
            </g>
        </g>
    </g>
</svg>