<svg xmlns="http://www.w3.org/2000/svg" width="17" height="17" viewBox="0 0 17 17">
    <g fill="none" fill-rule="evenodd">
        <g fill="#CCC" fill-rule="nonzero">
            <g>
                <g>
                    <g>
                        <path d="M11.333.708c.392 0 .709.317.709.709v.707l1.416.001c1.174 0 2.125.951 2.125 2.125v9.917c0 1.173-.951 2.125-2.125 2.125H3.542c-1.174 0-2.125-.952-2.125-2.125V4.25c0-1.174.951-2.125 2.125-2.125h1.416v-.708c0-.359.267-.655.613-.702l.096-.007c.39 0 .708.317.708.709v.707h4.25v-.707c0-.359.266-.655.612-.702zm2.833 7.083H2.833v6.376c0 .39.317.708.709.708h9.916c.392 0 .709-.317.709-.708l-.001-6.376zm-9.208-4.25H3.542c-.392 0-.709.318-.709.709v2.124h11.333V4.25c0-.391-.316-.708-.708-.708h-1.416v.708c0 .359-.267.655-.613.702l-.096.006c-.39 0-.708-.317-.708-.708v-.709h-4.25v.709c0 .359-.266.655-.612.702l-.096.006c-.392 0-.709-.317-.709-.708v-.709z" transform="translate(-1264 -75) translate(1087 66) translate(177 9)"/>
                    </g>
                </g>
            </g>
        </g>
    </g>
</svg>
