<svg width="15" height="17" xmlns="http://www.w3.org/2000/svg"><path d="M14.638 2.645a1.106 1.106 0 0 0-.81-.342h-1.151V1.44c0-.396-.141-.735-.423-1.017A1.386 1.386 0 0 0 11.237 0h-.576c-.396 0-.734.141-1.016.423-.282.282-.423.62-.423 1.017v.863H5.767V1.44c0-.396-.141-.735-.423-1.017A1.386 1.386 0 0 0 4.327 0h-.575c-.396 0-.735.141-1.017.423-.282.282-.423.62-.423 1.017v.863H1.16c-.312 0-.581.114-.81.342a1.107 1.107 0 0 0-.341.81v11.516c0 .312.114.582.342.81.228.228.497.342.81.342h12.667c.312 0 .582-.114.81-.342.228-.228.342-.498.342-.81V3.455c0-.312-.114-.582-.342-.81zM10.374 1.44a.28.28 0 0 1 .08-.207.28.28 0 0 1 .207-.081h.576a.28.28 0 0 1 .207.08.28.28 0 0 1 .08.208v2.59a.28.28 0 0 1-.08.208.28.28 0 0 1-.207.08h-.576a.28.28 0 0 1-.207-.08.28.28 0 0 1-.08-.207V1.44zm-6.91 0a.28.28 0 0 1 .08-.207.28.28 0 0 1 .208-.081h.575a.28.28 0 0 1 .207.08.28.28 0 0 1 .081.208v2.59a.28.28 0 0 1-.08.208.28.28 0 0 1-.208.08h-.575a.28.28 0 0 1-.207-.08.28.28 0 0 1-.081-.207V1.44zM13.828 14.97H1.16V5.758h12.668v9.213z" fill="#324056" fill-rule="nonzero"/></svg>