<svg id="trim_area" xmlns="http://www.w3.org/2000/svg" viewBox="0 0 192 192">
  <defs>
    <clipPath id="clippath">
      <path d="M37.79-5157.41v-45.05c0-27.66-14.78-50.82-40.55-56.94v-6.13c0-7.48-6.04-13.52-13.52-13.52s-13.52 6.04-13.52 13.52v6.13c-25.86 6.13-40.55 29.19-40.55 56.94v45.05l-18.02 18.02v9.01H55.81v-9.01l-18.02-18.02Zm-54.06 54.06c9.91 0 18.02-8.11 18.02-18.02h-36.04c0 9.91 8.02 18.02 18.02 18.02Z" clip-rule="evenodd" fill="none"/>
    </clipPath>
    <style>
      .cls-3{fill:#334056}
    </style>
  </defs>
  <path fill="none" d="M0 0h192v192H0z"/>
  <path class="cls-3" d="M151.17 129.55c-.12.2-.18.42-.18.65s.05.44.17.65"/>
  <path class="cls-3" d="m152.79 130.67-.53-.59a6.643 6.643 0 0 0 3.14-4.12c.48-1.75.24-3.58-.67-5.17l-4.02-6.94a6.81 6.81 0 0 0-4.12-3.18 6.77 6.77 0 0 0-5.24.72l-.09-.04-.03-.11c0-1.82-.71-3.53-2-4.8a6.7 6.7 0 0 0-4.81-2.01h-8.02c-1.79 0-3.55.73-4.82 2.01a6.76 6.76 0 0 0-1.99 4.83c0 .02-.02.06-.04.09s-.06.05-.17.03a6.691 6.691 0 0 0-5.24-.84 6.86 6.86 0 0 0-4.12 3.17l-4.01 6.96a6.732 6.732 0 0 0-.67 5.17 6.656 6.656 0 0 0 3.21 4.14v.15s-.02.03-.07.06a6.757 6.757 0 0 0-3.15 4.13c-.47 1.75-.23 3.58.68 5.16l4.01 6.96c.92 1.58 2.39 2.7 4.13 3.17 1.76.48 3.66.23 5.24-.72l.12.06s.02.05.02.08c0 1.83.71 3.53 1.99 4.81 1.29 1.3 3 2.01 4.82 2.01h8.01c1.78 0 3.47-.69 4.77-1.95 1.29-1.27 2.01-2.96 2.04-4.8 0 0 0-.05.04-.07 0-.02.03-.03.06-.03.02 0 .06 0 .16.05 1.55.93 3.43 1.18 5.17.69a6.831 6.831 0 0 0 4.14-3.18l4-6.94c.92-1.58 1.15-3.42.68-5.18a6.746 6.746 0 0 0-2.61-3.77Zm-16.86 15.28c-.53.94-.81 2-.81 3.07 0 .23-.08.42-.21.55-.16.16-.36.23-.57.23h-7.99c-.23 0-.43-.08-.59-.24a.79.79 0 0 1-.22-.56c0-1.08-.29-2.15-.83-3.07-.51-.91-1.29-1.68-2.24-2.23-.92-.54-1.99-.83-3.09-.84-1.09 0-2.17.29-3.16.86-.15.09-.35.12-.48.09-.25-.08-.42-.2-.52-.38l-4-6.93c-.11-.2-.15-.43-.1-.59.06-.22.21-.41.4-.52a6.173 6.173 0 0 0 2.71-3.22c.49-1.35.49-2.85 0-4.21-.5-1.36-1.47-2.5-2.74-3.23a.746.746 0 0 1-.33-.43c-.05-.2-.02-.44.09-.62l3.99-6.91c.11-.19.31-.34.49-.39.19-.05.41-.02.59.09 1.87 1.11 4.29 1.11 6.15 0 .96-.56 1.74-1.34 2.25-2.25.55-.93.83-2 .83-3.09 0-.21.08-.41.22-.55.15-.15.35-.23.56-.23h7.99a.802.802 0 0 1 .8.83 6.166 6.166 0 0 0 3.09 5.28c1.89 1.1 4.25 1.1 6.19-.02.15-.09.35-.12.51-.07.22.05.38.19.51.4l4.13 6.92c.11.19.14.41.09.6-.05.2-.2.37-.37.48a6.19 6.19 0 0 0-2.71 3.21c-.5 1.36-.5 2.86 0 4.23.49 1.34 1.45 2.48 2.75 3.23.15.09.27.25.31.44.05.2.02.42-.07.59l-4.16 6.98a.765.765 0 0 1-1.05.25c-1.84-1.08-4.31-1.09-6.13-.02-.94.53-1.73 1.32-2.29 2.27Z"/>
  <path class="cls-3" d="M130.34 120.37c-5.42 0-9.83 4.41-9.83 9.83s4.41 9.84 9.83 9.84 9.83-4.41 9.83-9.84-4.42-9.83-9.83-9.83Zm0 14.49c-2.57 0-4.65-2.08-4.65-4.66s2.08-4.65 4.65-4.65 4.66 2.09 4.66 4.65-2.09 4.66-4.66 4.66ZM91.52 152.67c0-2.29-1.86-4.15-4.15-4.15H49.62c-2.73 0-4.96-2.48-4.96-5.53V49.02c0-3.05 2.22-5.53 4.96-5.53h74.02c2.73 0 4.96 2.48 4.96 5.53v34.54c0 2.29 1.86 4.15 4.15 4.15s4.15-1.86 4.15-4.15V49.02c0-7.64-5.94-13.84-13.26-13.84H49.62c-7.32 0-13.26 6.19-13.26 13.84v93.97c0 7.64 5.94 13.84 13.26 13.84h37.75c2.29 0 4.15-1.86 4.15-4.15Z"/>
  <path class="cls-3" d="M106.75 72.56H62.43c-2.29 0-4.15-1.86-4.15-4.15s1.86-4.15 4.15-4.15h44.32c2.29 0 4.15 1.86 4.15 4.15s-1.86 4.15-4.15 4.15ZM98.45 117.53H62.43c-2.29 0-4.15-1.86-4.15-4.15s1.86-4.15 4.15-4.15h36.02c2.29 0 4.15 1.86 4.15 4.15s-1.86 4.15-4.15 4.15ZM118.51 90.55c0 2.29-1.86 4.15-4.15 4.15H62.43c-2.3 0-4.15-1.86-4.15-4.15s1.85-4.15 4.15-4.15h51.93c2.29 0 4.15 1.85 4.15 4.15Z"/>
</svg>
