<?xml version="1.0" encoding="UTF-8"?>
<svg width="377px" height="377px" viewBox="0 0 377 377" version="1.1" xmlns="http://www.w3.org/2000/svg" xmlns:xlink="http://www.w3.org/1999/xlink">
    <title>Shape</title>
    <g id="Page-1" stroke="none" stroke-width="1" fill="none" fill-rule="evenodd">
        <path d="M363.829,65.625 L311.329,65.625 L311.329,13.125 C311.329,5.875 305.454,5.68434189e-14 298.204,5.68434189e-14 L13.824,5.68434189e-14 C6.574,5.68434189e-14 0.699,5.875 0.699,13.125 L0.699,297.855 C0.89041,304.9644 6.7107,310.632 13.824,310.628 L66.324,310.628 L66.324,363.128 C66.324,370.378 72.199,376.253 79.449,376.253 L363.829,376.253 C371.079,376.253 376.954,370.378 376.954,363.128 L376.954,78.398 C376.76259,71.2886 370.9423,65.621 363.829,65.625 Z M26.949,284.375 L26.949,26.255 L285.069,26.255 L285.069,65.63 L79.089,65.63 C71.8624,65.676875 66.015,71.5245 65.964,78.755 L65.964,284.375 L26.949,284.375 Z M350.699,349.648 L92.579,349.648 L92.579,91.878 L350.699,91.878 L350.699,349.648 Z" id="Shape" fill="#000000" fill-rule="nonzero"></path>
    </g>
</svg>