<svg width="23" height="16" viewBox="0 0 18 15" xmlns="http://www.w3.org/2000/svg">
    <path d="m12.048 9.409-.9-.879c.354-.946.17-1.731-.553-2.357-.722-.626-1.506-.786-2.352-.48l-.9-.878c.232-.147.491-.253.777-.32.287-.067.58-.1.88-.1.968 0 1.79.33 2.465.989a3.237 3.237 0 0 1 1.012 2.407c0 .293-.037.582-.112.869-.075.286-.18.536-.317.749zm2.638 2.577-.818-.8a9.504 9.504 0 0 0 1.749-1.607c.498-.593.863-1.189 1.094-1.788a8.028 8.028 0 0 0-3.068-3.506 8.172 8.172 0 0 0-4.438-1.288c-.573 0-1.16.053-1.76.16-.6.106-1.07.233-1.41.38l-.942-.94c.477-.213 1.088-.4 1.83-.559.744-.16 1.47-.24 2.18-.24a9.39 9.39 0 0 1 5.348 1.628C16.067 4.512 17.25 5.966 18 7.791a9.774 9.774 0 0 1-3.314 4.195zm1.187 4.514-3.437-3.296a8.097 8.097 0 0 1-1.616.43c-.6.1-1.206.15-1.82.15-1.99 0-3.798-.543-5.42-1.629C1.957 11.07.764 9.615 0 7.791a9 9 0 0 1 1.135-2.028 11.458 11.458 0 0 1 1.77-1.887L.327 1.359 1.187.5 16.67 15.621l-.797.879zM3.743 4.715c-.504.36-.992.832-1.462 1.418s-.808 1.139-1.013 1.658a8.06 8.06 0 0 0 3.14 3.506c1.398.858 2.983 1.288 4.756 1.288.45 0 .893-.027 1.33-.08.436-.053.763-.133.981-.24l-1.31-1.278c-.15.066-.333.116-.551.15a4.08 4.08 0 0 1-.614.05c-.955 0-1.773-.327-2.455-.98-.681-.652-1.022-1.457-1.022-2.416 0-.2.017-.4.05-.6.035-.2.086-.379.154-.539L3.743 4.715z" fill-rule="nonzero"/>
</svg>
