<svg viewBox="0 0 101 69" xmlns="http://www.w3.org/2000/svg">
  <g fill="none" fill-rule="evenodd">
    <g transform="translate(31.626 13.734)" fill-rule="nonzero">
      <rect fill="#BCBCE2" x="11" width="29" height="1.72" rx=".86"/>
      <rect fill="#DBDBF3" x="11" y="4" width="29" height="1.72" rx=".86"/>
      <path fill="#DBDBF3" d="m4.25 0-1.5 1.5L1.25 0 0 1.25l1.5 1.51L0 4.26l1.25 1.25 1.5-1.5 1.5 1.5 1.26-1.25L4 2.76l1.51-1.51z"/>
    </g>
    <path d="M95.85 37.136a2.585 2.585 0 1 1-5.17 0 2.585 2.585 0 0 1 5.17 0" fill-opacity=".5" fill="#DBDBF3"/>
    <path d="M65.732 68.402h12.974M25.879 68.402H54.85" stroke="#7176C4" stroke-linecap="round" stroke-linejoin="round" stroke-width="1.2"/>
    <path d="m80.05 7.928-55.543.214V4.251c0-.998.809-1.807 1.806-1.807L80.05 2.23v5.698Z" fill="#DBDBF3"/>
    <path d="M23.08 49.481 23 3.12C23 1.949 24.07 1 25.39 1h52.474c1.319 0 2.389.95 2.389 2.119V59.91" stroke="#7176C4" stroke-width="1.2" stroke-linecap="round" stroke-linejoin="round"/>
    <path d="M28.004 4.661a.42.42 0 1 1-.84-.001.42.42 0 0 1 .84.001ZM31.588 4.661a.42.42 0 1 1-.84-.001.42.42 0 0 1 .84.001ZM35.172 4.661a.42.42 0 1 1-.84-.001.42.42 0 0 1 .84.001Z" stroke="#7176C4" stroke-width="1.2" stroke-linecap="round" stroke-linejoin="round"/>
    <path stroke="#7176C4" stroke-width="1.2" d="M80.049 8.142H23.042"/>
    <path stroke="#7176C4" stroke-width="1.2" stroke-linecap="round" stroke-linejoin="round" d="m23 48 .043 12.034"/>
    <path fill="#DBDBF3" d="M8.424 7.713 4.568 3.857 8.424 0l3.858 3.857z"/>
    <path stroke="#7176C4" stroke-width="1.2" stroke-linecap="round" stroke-linejoin="round" d="M1 60.476h99"/>
    <path d="M10.786 34.283a3.371 3.371 0 1 1-6.743 0 3.371 3.371 0 0 1 6.743 0" fill-opacity=".5" fill="#DBDBF3"/>
    <path d="M64.568 39.429c0 7.107-5.763 12.871-12.873 12.871-7.11 0-12.873-5.764-12.873-12.871 0-7.109 5.764-12.872 12.873-12.872 7.11 0 12.873 5.763 12.873 12.872" fill="#DBDBF3"/>
    <path d="M65.25 41.808a13.671 13.671 0 0 1-8.138 9.48l-11.379-6.986 6.67-12.506 12.848 10.012Z" fill="#BCBCE2"/>
    <path d="M46.368 44.302c-.532 0-1.023-.3-1.282-.784a1.583 1.583 0 0 1 .03-1.546l5.623-9.451a1.46 1.46 0 0 1 1.251-.725c.51 0 .983.274 1.251.725l5.616 9.45c.278.471.29 1.061.033 1.544a1.463 1.463 0 0 1-1.277.787H46.368Z" fill="#FFF" fill-rule="nonzero"/>
    <g fill="#BCBCE2" fill-rule="nonzero">
      <path d="M52.548 40.799h-.99l-.172-5.69h1.333zM52.548 41.672h-.983l-.103 1.086h1.182z"/>
    </g>
    <path d="M65.14 38.648c0 1.094-.124 2.143-.366 3.16a13.673 13.673 0 0 1-13.283 10.489c-7.538 0-13.65-6.111-13.65-13.649C37.84 31.111 43.953 25 51.49 25s13.65 6.111 13.65 13.648Z" stroke="#7176C4" stroke-width=".84"/>
  </g>
</svg>