<?xml version="1.0" encoding="UTF-8"?>
<svg width="25px" height="23px" viewBox="0 0 25 23" version="1.1" xmlns="http://www.w3.org/2000/svg" xmlns:xlink="http://www.w3.org/1999/xlink">
    <!-- Generator: Sketch 63.1 (92452) - https://sketch.com -->
    <title>Combined Shape</title>
    <desc>Created with Sketch.</desc>
    <g id="Page-1" stroke="none" stroke-width="1" fill="none" fill-rule="evenodd">
        <g id="smart_control_dialog_3" transform="translate(-1133.000000, -461.000000)" fill="#808BA9" fill-rule="nonzero">
            <g id="Group-4" transform="translate(438.000000, 198.000000)">
                <g id="setup" transform="translate(416.000000, 145.000000)">
                    <g id="temperature-box" transform="translate(96.000000, 102.000000)">
                        <g id="Group-2" transform="translate(25.000000, 16.000000)">
                            <path d="M176.057,4.432 C177.113,4.432 178.025,4.56800012 178.793,4.84 C179.561,5.11199988 180.213,5.49599988 180.749,5.992 C181.285,6.48800012 181.717,7.07999988 182.045,7.768 C182.373,8.45600012 182.625,9.21599988 182.801,10.048 L182.801,10.048 L180.641,10.408 C180.497,9.784 180.309,9.22 180.077,8.716 C179.845,8.212 179.549,7.78400012 179.189,7.432 C178.829,7.07999988 178.397,6.81200012 177.893,6.628 C177.389,6.44399988 176.777,6.352 176.057,6.352 C175.209,6.352 174.453,6.52400012 173.789,6.868 C173.125,7.21199988 172.565,7.69199988 172.109,8.308 C171.653,8.92400012 171.305,9.66800012 171.065,10.54 C170.825,11.4119999 170.705,12.376 170.705,13.432 C170.705,14.488 170.825,15.4520001 171.065,16.324 C171.305,17.1959999 171.653,17.944 172.109,18.568 C172.565,19.192 173.125,19.672 173.789,20.008 C174.453,20.344 175.217,20.512 176.081,20.512 C176.865,20.512 177.533,20.4119999 178.085,20.212 C178.637,20.0120001 179.093,19.7279999 179.453,19.36 C179.813,18.9920001 180.097,18.5519999 180.305,18.04 C180.513,17.5280001 180.665,16.9679999 180.761,16.36 L180.761,16.36 L183.041,16.36 C182.945,17.224 182.729,18.028 182.393,18.772 C182.057,19.516 181.601,20.1599999 181.025,20.704 C180.449,21.2480001 179.749,21.6719999 178.925,21.976 C178.101,22.2800001 177.145,22.432 176.057,22.432 C174.873,22.432 173.809,22.2320001 172.865,21.832 C171.921,21.432 171.121,20.848 170.465,20.08 C169.809,19.312 169.301,18.3719999 168.941,17.26 C168.581,16.1480001 168.401,14.8799999 168.401,13.456 C168.401,12.016 168.593,10.7360001 168.977,9.616 C169.361,8.49599988 169.897,7.552 170.585,6.784 C171.273,6.016 172.085,5.432 173.021,5.032 C173.957,4.63199988 174.969,4.432 176.057,4.432 Z M161,0 C162.656854,0 164,1.34314575 164,3 C164,4.65685425 162.656854,6 161,6 C159.343146,6 158,4.65685425 158,3 C158,1.34314575 159.343146,0 161,0 Z M161,1.4 C160.116344,1.4 159.4,2.1163444 159.4,3 C159.4,3.8836556 160.116344,4.6 161,4.6 C161.883656,4.6 162.6,3.8836556 162.6,3 C162.6,2.1163444 161.883656,1.4 161,1.4 Z" id="Combined-Shape"></path>
                        </g>
                    </g>
                </g>
            </g>
        </g>
    </g>
</svg>