<?xml version="1.0" encoding="UTF-8"?>
<svg width="18px" height="16px" viewBox="0 0 18 16" version="1.1" xmlns="http://www.w3.org/2000/svg" xmlns:xlink="http://www.w3.org/1999/xlink">
    <!-- Generator: Sketch 63.1 (92452) - https://sketch.com -->
    <title>CaseDepartment</title>
    <desc>Created with Sketch.</desc>
    <g id="Symbols" stroke="none" stroke-width="1" fill="none" fill-rule="evenodd">
        <g id="List/Temp" transform="translate(-55.000000, -29.000000)" fill="#CCCCCC">
            <g id="List">
                <g id="Case" transform="translate(55.000000, 29.000000)">
                    <path d="M16.3352754,2.69473684 L12.633929,2.69473684 L12.633929,1.43157895 C12.633929,0.733956105 12.0815459,0.168421053 11.4001469,0.168421053 L6.46501836,0.168421053 C5.7836193,0.168421053 5.23123623,0.733956105 5.23123623,1.43157895 L5.23123623,2.69473684 L1.52988984,2.69473684 C0.848490786,2.69473684 0.296107711,3.26027189 0.296107711,3.95789474 L0.296107711,14.4842105 C0.296107711,15.1818334 0.848490786,15.7473684 1.52988984,15.7473684 L16.3352754,15.7473684 C17.0166745,15.7473684 17.5690575,15.1818334 17.5690575,14.4842105 L17.5690575,3.95789474 C17.5690575,3.26027189 17.0166745,2.69473684 16.3352754,2.69473684 L16.3352754,2.69473684 Z M6.46501836,1.43157895 L11.4001469,1.43157895 L11.4001469,2.69473684 L6.46501836,2.69473684 L6.46501836,1.43157895 Z M16.3352754,3.95789474 L16.3352754,7.12 C16.2398773,7.11880468 16.1455243,7.14043142 16.0597307,7.18315789 C14.4078629,7.96713612 12.6790082,8.56843409 10.9025214,8.97684211 C10.7193982,8.49096601 10.2637836,8.16995947 9.75510404,8.16842105 L8.1100612,8.16842105 C7.58847778,8.16992184 7.12416576,8.5070616 6.950306,9.01052632 C5.14614326,8.61998532 3.39503863,8.00636216 1.7355202,7.18315789 C1.66483268,7.14729656 1.58800994,7.12584606 1.50932681,7.12 L1.50932681,3.95789474 L16.3352754,3.95789474 Z M9.75510404,9.43157895 L9.75510404,10.6947368 L8.1100612,10.6947368 L8.1100612,9.43157895 L9.75510404,9.43157895 Z M1.52988984,14.4842105 L1.52988984,8.50105263 C3.23824613,9.31064978 5.03228153,9.91536457 6.87627907,10.3031579 L6.87627907,10.6947368 C6.87627907,11.3923597 7.42866214,11.9578947 8.1100612,11.9578947 L9.75510404,11.9578947 C10.4365031,11.9578947 10.9888862,11.3923597 10.9888862,10.6947368 L10.9888862,10.24 C12.8417523,9.87003742 14.6392143,9.25284298 16.3352754,8.40421053 L16.3352754,14.4842105 L1.52988984,14.4842105 Z" id="shape"></path>
                </g>
            </g>
        </g>
    </g>
</svg>
