<svg xmlns="http://www.w3.org/2000/svg" width="25" height="20" viewBox="0 0 25 20">
    <defs>
        <filter id="bvgpdh7t7a" color-interpolation-filters="auto">
            <feColorMatrix in="SourceGraphic" values="0 0 0 0 0.196078 0 0 0 0 0.250980 0 0 0 0 0.337255 0 0 0 1.000000 0"/>
        </filter>
    </defs>
    <g fill="none" fill-rule="evenodd">
        <g filter="url(#bvgpdh7t7a)" transform="translate(-880.000000, -152.000000)">
            <g fill="#000" fill-rule="nonzero">
                <path d="M14.605 0c1.65 0 3.003 1.267 3.097 2.86l.006.177v5.374h6.73V20l-2.694.005-.012-7.874-4.024.019v1.168c0 .854-.673 1.558-1.527 1.63l-.144.005h-3.102v1.075h1.67c.873 0 1.591.659 1.665 1.495l.006.14v.786c.148.164.238.38.238.616 0 .517-.427.935-.954.935-.527 0-.955-.418-.955-.935 0-.197.063-.38.17-.53l.069-.086v-.785c0-.108-.074-.198-.175-.226l-.064-.008h-1.67v1.019c.148.164.238.38.238.616 0 .517-.427.935-.954.935-.527 0-.955-.418-.955-.935 0-.197.063-.38.17-.53l.069-.086v-1.02h-1.67c-.11 0-.203.074-.23.173l-.01.062v.785c.149.164.24.38.24.616 0 .517-.428.935-.955.935-.528 0-.955-.418-.955-.935 0-.197.063-.38.17-.53l.069-.086v-.785c0-.855.672-1.558 1.526-1.63l.144-.006h1.67v-1.075H8.4c-.872 0-1.59-.658-1.664-1.494l-.006-.141-.034-1.285-3.974.01.004 7.971L0 20V8.411h6.73V3.037c0-1.615 1.294-2.94 2.92-3.032L9.832 0h4.773zM1.843 12.15H.89v6.448h.954V12.15zm21.57 0h-.955v6.448h.955V12.15zm-7.137 0H8.162v1.168c0 .129.107.233.238.233h7.637c.132 0 .239-.104.239-.233V12.15zm6.73-2.604H1.432v.935h21.574v-.935zm-8.4-8.144H9.831c-.872 0-1.59.658-1.664 1.494l-.006.141v5.374h8.114V3.037c0-.901-.75-1.635-1.67-1.635z" transform="translate(880.000000, 152.000000)"/>
                <path d="M9.503 3.988H14.934000000000001V5.317H9.503zM9.503 6.646H14.934000000000001V7.975H9.503z" transform="translate(880.000000, 152.000000)"/>
            </g>
        </g>
    </g>
</svg>
