<?xml version="1.0" encoding="UTF-8"?>
<svg width="68px" height="58px" viewBox="0 0 68 58" version="1.1" xmlns="http://www.w3.org/2000/svg" xmlns:xlink="http://www.w3.org/1999/xlink">
    <title>noun_Desk_2978054</title>
    <g id="Page-1" stroke="none" stroke-width="1" fill="none" fill-rule="evenodd">
        <g id="noun_Desk_2978054" transform="translate(0.729981, 0.929993)" fill="#000000" fill-rule="nonzero">
            <path d="M58.8099975,0 L7.7300415,0 C3.4700317,0 0,3.4699707 0,7.7399902 L0,56.1399536 L6,56.1399536 L6,7.7399902 C6,6.7799682 6.7800293,6 7.7300415,6 L58.8099975,6 C59.7600097,6 60.540039,6.7799683 60.540039,7.7399902 L60.540039,56.1399536 L66.540039,56.1399536 L66.540039,7.7399902 C66.540039,3.4699707 63.0700073,0 58.8099975,0 Z" id="Path"></path>
            <path d="M23.4500122,8 L23.4500122,43.5899658 L58.5400391,43.5899658 L58.5400391,40.2000122 L27.8600464,40.2000122 C27.3000488,40.2000122 26.8600464,39.75 26.8600464,39.2000122 L26.8600464,8 L23.4500122,8 Z" id="Path"></path>
            <path d="M58.5400391,8 L28.8600464,8 L28.8600464,38.2000122 L58.5400391,38.2000122 L58.5400391,8 L58.5400391,8 Z M43.7000122,27.4099731 C41.3300171,27.4099731 39.4000244,25.4799804 39.4000244,23.0999755 C39.4000244,20.7299804 41.3300171,18.7999877 43.7000122,18.7999877 C46.0700073,18.7999877 48,20.7299804 48,23.0999755 C48,25.4799804 46.0700073,27.4099731 43.7000122,27.4099731 Z" id="Shape"></path>
            <ellipse id="Oval" cx="43.7000122" cy="23.102478" rx="2.2999892" ry="2.3049927"></ellipse>
        </g>
    </g>
</svg>