<svg id="Layer_1" data-name="Layer 1" xmlns="http://www.w3.org/2000/svg" viewBox="0 0 272.79 256.69"><defs><style>.cls-1{fill:#b7685c;}.cls-2{fill:#ebebeb;}.cls-3{fill:#a6a6a6;}.cls-4{fill:#263238;}.cls-5{fill:#37474f;}.cls-6{fill:#ffc727;}.cls-7{fill:#455a64;}.cls-8{opacity:0.1;}.cls-9{fill:#c7c7c7;}.cls-10{fill:#fff;opacity:0.2;}</style></defs><g id="Layer_2" data-name="Layer 2"><g id="Character_1" data-name="Character 1"><path class="cls-1" d="M172.25,253.89c2.1.26,59.41-13.11,61.27-14.92.23-.19-2.48-11.2-2.48-11.2-.9-4.53-15.83-41.49-15.83-41.49l-37.47,9.24,15.88,34.26s-7.14,4.84-13.28,9.45h0a81.17,81.17,0,0,0-7.76,6.21C170.74,247.64,170.15,253.64,172.25,253.89Z"/><path class="cls-2" d="M172.25,253.89c2.1.26,59.41-13.11,61.27-14.92.23-.19-2.49-11.2-2.49-11.2-.3-1.49-2.1-6.49-4.41-12.53L190.8,223.6l2.86,6.18s-7.14,4.84-13.28,9.45h0a81.29,81.29,0,0,0-7.77,6.21C170.74,247.64,170.15,253.64,172.25,253.89Z"/><path class="cls-3" d="M172.08,254.05c2.17.23,59.95-12.72,61.83-14.61.73-.71-4.39-19.32-4.42-19.43l-37,8.17.16.63s-18.59,14.25-20.44,16.54S169.91,253.83,172.08,254.05Z"/><path class="cls-4" d="M172.23,251.67c9.69-2.42,49-11.28,58.74-12.94.08,0,.09,0,0,.06-9.55,2.61-48.92,11.15-58.72,13C172.06,251.87,172,251.72,172.23,251.67Z"/><path class="cls-4" d="M189.7,228.63c3.67-1.58,8.49-2,12,0,.14.08,0,.28-.11.26a55.41,55.41,0,0,0-11.8.19.25.25,0,0,1-.19-.3A.25.25,0,0,1,189.7,228.63Z"/><path class="cls-4" d="M187.31,230.91c3.67-1.57,8.49-2,12,0,.14.08,0,.27-.11.26a55.42,55.42,0,0,0-11.8.18.25.25,0,0,1-.18-.3A.23.23,0,0,1,187.31,230.91Z"/><path class="cls-4" d="M184.91,233.2c3.68-1.58,8.5-2,12,0,.13.08,0,.28-.11.26a55.41,55.41,0,0,0-11.8.19.25.25,0,0,1-.19-.3A.25.25,0,0,1,184.91,233.2Z"/><path class="cls-4" d="M182.8,221.4c1-2.41,4-2.11,5.95-1.12a21,21,0,0,1,7.88,7.44.11.11,0,0,1,0,.15h0c0,.29-.14.66-.5.61-3.42-.46-7.15-.53-10.33-2C183.92,225.59,181.8,223.68,182.8,221.4Zm8.22,5.33c1.68.27,3.36.45,5,.78-1.49-1.49-3.06-2.91-4.69-4.25a22.93,22.93,0,0,0-2.52-1.73c-1.38-.78-6.39-2-4.77,2.07,1,2.23,5,2.81,7,3.13Z"/><path class="cls-4" d="M206.18,224.54c-2.85,2.05-6.5,2.8-9.79,3.87-.34.12-.59-.21-.59-.51a.1.1,0,0,1-.1-.1.06.06,0,0,1,0,0,20.92,20.92,0,0,1,6.38-8.76c1.69-1.31,4.6-2.16,6.06,0S207.8,223.34,206.18,224.54Zm1.12-3.12c.85-4.27-3.85-2.19-5.06-1.17a21.17,21.17,0,0,0-2.17,2.17,59.62,59.62,0,0,0-3.83,5c1.58-.63,3.2-1.12,4.8-1.69C203,225.08,206.8,223.78,207.3,221.42Z"/><path class="cls-4" d="M190.69,228.49l40-8.94s-33-76.49-30.05-80.36c1.46-1.93,38.49-2.5,50.27-12.48,15.29-13,5-32.77,5-32.77l-41.36-1.22s.5,8.64-1.11,9.94c-1.07.87-50.34,5-55.76,21.61C151.06,144.64,190.69,228.49,190.69,228.49Z"/><path class="cls-5" d="M189.55,221.26c1-.44,11.38-3.37,13.69-4,4.65-1.19,9.31-2.36,14-3.46,2.44-.57,7.67-1.81,8-1.79a.13.13,0,0,1,.09.16.14.14,0,0,1-.09.09c-4.56,1.42-9.16,2.67-13.77,3.92s-20.45,5.13-21.82,5.28A.11.11,0,1,1,189.55,221.26Z"/><path class="cls-5" d="M193.54,135.77a6.29,6.29,0,0,1,3.12-1l17.91-3c5.59-.91,11.23-1.77,16.77-2.77,4.6-.88,9.28-2.08,13.26-4.58a19.22,19.22,0,0,0,8.14-10.63,34.46,34.46,0,0,0,1-13.63c-.11-1.11-.31-2.22-.52-3.32a.07.07,0,1,1,.13,0c1.52,8.46,1.65,18.3-4.7,25-3.1,3.29-7.35,5.22-11.69,6.47a134.2,134.2,0,0,1-15,2.92l-17.91,3c-2.87.48-5.79.85-8.64,1.45a2.9,2.9,0,0,0-1.56.68,2.24,2.24,0,0,0-.25,2.07c.29,1.41.67,2.8,1.07,4.18,3.27,11.09,25.26,64.14,25.91,65.39.07.13-.13.23-.21.11-5.47-9.76-21.41-50.73-25-61.25a66.51,66.51,0,0,1-2.34-8.19C192.8,137.64,192.67,136.51,193.54,135.77Z"/><path class="cls-1" d="M94.19,254.5c2,.68,59.37-.13,61.55-1.53.85-.81,1.52-8.14,2-17.27l9.87-39.12-36.9-.31L119.9,235.13s-8,3.32-14.9,6.61h0a81,81,0,0,0-8.84,4.54C94,248.08,92.18,253.84,94.19,254.5Z"/><path class="cls-3" d="M93,254.54c2.07.69,61.29.4,63.53-1,.87-.53,1.33-9.15,1.59-19.58v-.33l-38.2-.24V234S97.32,244.23,95,246.08,90.94,253.87,93,254.54Z"/><path class="cls-4" d="M93.67,252.25c10-.3,50.26-.54,60.15-.07.08,0,.08.06,0,.06-9.88.51-50.17.42-60.15.17C93.46,252.4,93.46,252.25,93.67,252.25Z"/><path class="cls-4" d="M115.67,233.48c3.93-.75,8.74-.17,11.75,2.61.12.11,0,.27-.16.23A54.94,54.94,0,0,0,115.69,234a.26.26,0,0,1-.27-.25A.26.26,0,0,1,115.67,233.48Z"/><path class="cls-4" d="M112.8,235.2c3.92-.75,8.73-.17,11.74,2.61.12.11,0,.27-.16.23a54.89,54.89,0,0,0-11.56-2.34.24.24,0,0,1-.26-.24A.25.25,0,0,1,112.8,235.2Z"/><path class="cls-4" d="M110,236.92c3.93-.75,8.73-.17,11.75,2.61.11.11,0,.27-.17.23A54.89,54.89,0,0,0,110,237.42a.24.24,0,0,1-.26-.24A.25.25,0,0,1,110,236.92Z"/><path class="cls-4" d="M110.53,225c1.53-2.13,4.41-1.19,6,.18a20.86,20.86,0,0,1,6.1,9c0,.08,0,.12-.1.14a.49.49,0,0,1-.45.51l-.16,0c-3.25-1.18-6.87-2.05-9.66-4.19C110.68,229.28,109.08,227,110.53,225Zm6.88,7c1.59.62,3.19,1.16,4.75,1.84a60.08,60.08,0,0,0-3.67-5.15,22.09,22.09,0,0,0-2.09-2.24c-1.18-1.06-5.82-3.29-5.1,1,.39,2.3,4.22,3.73,6.11,4.47Z"/><path class="cls-4" d="M132.65,233c-3.23,1.4-7,1.34-10.39,1.69a.47.47,0,0,1-.49-.44.37.37,0,0,1,0-.18.11.11,0,0,1-.07-.14v0a20.83,20.83,0,0,1,8.11-7.19c1.94-.92,5-1.13,5.92,1.31S134.54,232.2,132.65,233Zm1.76-2.8c1.75-4-3.29-3-4.69-2.23a21.71,21.71,0,0,0-2.58,1.65c-1.72,1.24-3.24,2.7-4.83,4.1,1.68-.28,3.37-.41,5.06-.62,2-.25,6.08-.69,7-2.89Z"/><path class="cls-4" d="M116.32,233.76h43.06s18.42-73.16,21.7-77.32c4.35-5.55,65.2-5.43,78.25-23.54,11.72-16.27,1.83-39.29,1.83-39.29l-46.08-1.37a93.69,93.69,0,0,0,4.27,14.49S163.8,117,148.28,134C137.8,145.45,116.32,233.76,116.32,233.76Z"/><path class="cls-5" d="M211.31,103.58a23.3,23.3,0,0,1,3.9,1.25c1.33.5,2.63,1.08,3.9,1.7a75.73,75.73,0,0,1,7.29,4.12c.08,0,0,.14-.07.11-2.49-1.3-5.07-2.46-7.65-3.57l-3.72-1.6a39.44,39.44,0,0,1-3.76-1.67.19.19,0,0,1,0-.27A.17.17,0,0,1,211.31,103.58Z"/><path class="cls-5" d="M214.07,92.22c.53,2.1,1,4.22,1.59,6.3a29.69,29.69,0,0,0,.91,2.85c.36.92.77,1.68,1.68,1.85s1.34-.69,1.25-1.55A27.86,27.86,0,0,0,219,98.8c-.22-1.09-.44-2.18-.64-3.28-.09-.54-.2-1.09-.29-1.64,0-.14-.13-1.19-.2-1.49a.06.06,0,0,1-.06,0h0s-.06,0-.06,0a.15.15,0,0,1,0-.16.09.09,0,0,1,.1,0c.2.1.21.38.28.58.17.53.34,1.06.49,1.6.3,1,.58,2,.83,3s.51,2,.76,3a4.73,4.73,0,0,1,.2,2.33,1.77,1.77,0,0,1-1.65,1.34,2.12,2.12,0,0,1,.11.21c.09.2.16.43.24.64s.15.43.21.65a1.91,1.91,0,0,1,.06.33v.36a.18.18,0,0,1-.16.2.17.17,0,0,1-.17-.08,3,3,0,0,0-.2-.29,2.75,2.75,0,0,1-.15-.36q-.1-.31-.18-.63c-.06-.21-.12-.43-.16-.64a1.25,1.25,0,0,1,0-.39,2.4,2.4,0,0,1-1.21-.46,4,4,0,0,1-1.32-1.82c-.32-.87-.56-1.78-.81-2.68a39,39,0,0,1-1.34-6.77.21.21,0,0,1,.42-.08Z"/><path class="cls-5" d="M120.8,226.05a33.1,33.1,0,0,1,3.45-.21c1.21-.06,2.42-.11,3.64-.14,2.38-.07,4.77-.12,7.15-.13,4.81,0,9.61,0,14.42.06,2.5.05,7.88.11,8.17.21a.13.13,0,0,1,.09.16.14.14,0,0,1-.09.09c-4.77.25-9.54.33-14.31.41s-9.55.17-14.31.08c-1.33,0-2.64-.07-4-.1a38.86,38.86,0,0,1-4.18-.19C120.68,226.28,120.62,226.07,120.8,226.05Z"/><path class="cls-5" d="M176.06,157.05a12.51,12.51,0,0,1,1.8-3.71,6.6,6.6,0,0,1,3.52-1.81c11.48-3.15,23.33-4.56,35-6.76a144.25,144.25,0,0,0,17-4.15,65.83,65.83,0,0,0,16.12-7.25,18.11,18.11,0,0,0,5.92-6.26,26.87,26.87,0,0,0,2.79-7.82,48.15,48.15,0,0,0,0-18.91,45.61,45.61,0,0,0-1.18-4.6.07.07,0,0,1,.14,0h0a46,46,0,0,1,2.63,18.75c-.42,5.54-1.76,11.36-5.34,15.76a22.31,22.31,0,0,1-6.62,5.2,71.5,71.5,0,0,1-8.12,3.82,107.25,107.25,0,0,1-16.73,5c-11.64,2.57-23.53,3.88-35.17,6.47-1.43.32-2.87.66-4.29,1a15,15,0,0,0-4.23,1.36c-1.38.86-1.84,2.58-2.38,4-.6,1.58-19.32,64.93-19.74,66.52-.07.26-.46.14-.4-.12C158.38,217.1,174.8,160.16,176.06,157.05Z"/><path class="cls-5" d="M179.46,158.73c.44-1.38.82-2.87,2.1-3.71s19.72-3.31,21.79-3.63c.1,0,.14.14,0,.15-1.78.3-18.8,3.35-20.32,3.86a3.35,3.35,0,0,0-1.66,1.07,7.53,7.53,0,0,0-1,2.31c-.52,1.65-1,3.29-1.57,4.94-1,3.31-2.1,6.62-3.09,9.95-1.14,3.77-2.43,7.72-3.4,11.53-.08.29-.49.15-.44-.13C173.23,177.91,178.91,160.45,179.46,158.73Z"/><path class="cls-5" d="M219.13,106.85A155.93,155.93,0,0,0,194,112a176.86,176.86,0,0,0-24.26,8.77c-4.41,2-8.68,4.2-12.91,6.52-.09,0,0,.17.08.13a196.64,196.64,0,0,1,23.59-10.29A190.52,190.52,0,0,1,205.05,110c4.7-1,9.43-1.82,14.16-2.6C219.53,107.35,219.44,106.82,219.13,106.85Z"/><path class="cls-1" d="M218.38,53.62c-5.87,8.88-27.75,37-38.37,37.12-7,.09-33.06-9.73-37-12-3-1.75,6.16-25.26,9.6-23.75s24.48,8.78,27.3,8.55,27.4-19.08,36-23.26C230.74,33.1,221.55,48.84,218.38,53.62Z"/><path class="cls-1" d="M146.45,80.19c-2.9-1-18.61-6.06-21.85-8.42s-12-9.85-10.48-12.51,4.31-.68,4.31-.68-3.22-3.75-1.41-6.28,6,.69,6,.69-3-4.09-1-6.49,5.65,1.55,5.65,1.55-2.94-3.61-.47-4.89c3-1.55,7.65,5.72,11.41,8.06.86.53,18.11,9.56,18.11,9.56Z"/><path class="cls-4" d="M127.32,47.72c3.45,5.34,5.88,7.08,11.56,9.71.11,0,.06.23-.06.18-5.8-2.07-9.16-3.81-11.77-9.74C126.93,47.58,127.16,47.47,127.32,47.72Z"/><path class="cls-4" d="M122.8,52.56c4,5.24,6.64,7.14,12.39,10.34.08,0,0,.19-.08.15-5.89-2.66-9.21-4.48-12.58-10.24C122.37,52.55,122.57,52.32,122.8,52.56Z"/><path class="cls-4" d="M118.73,58.74c4.3,4.78,7.08,7,13.06,9.38a.13.13,0,0,1,0,.17.13.13,0,0,1-.12,0c-6.32-1.83-9.82-4.58-13.11-9.46C118.37,58.55,118.46,58.44,118.73,58.74Z"/><path class="cls-1" d="M161.64,59.8s-3.94-6.92-6.34-9.58-15-9.28-16.58-6.64c-2,3.41,4.48,8.66,8,10.82,0,0-4.74,7.87-.88,12.65S161.64,59.8,161.64,59.8Z"/><path class="cls-4" d="M138.47,44.7c.38,4.45,5.19,7,8.46,9.33a.36.36,0,0,1,.1.5l-.1.1c-1.77,3.44-3.26,8.8-1.35,12.4a.08.08,0,0,1,0,.12.08.08,0,0,1-.12,0c-2.58-3.58-1.54-9,.63-12.61-3.39-2.35-8.1-5.1-7.65-9.82C138.43,44.68,138.47,44.67,138.47,44.7Z"/><path class="cls-6" d="M161.07,55.27,154.2,85.81s20.92,6.74,30.79,5.07c12-2,34.4-34.31,37.63-39.69,5.3-8.84,5.18-14.74-.28-14.19-2.14.19-5.11,1.35-8.9,3.71-4,2.46-27.11,18.82-34,21.49C175.58,63.65,161.07,55.27,161.07,55.27Z"/><path class="cls-4" d="M160,85.46c1.09-4.26,4.93-21.85,5.5-25.71,0-.26-.12-.35-.2-.08-3.58,12.68-4.61,21.51-5.46,25.74a.08.08,0,0,0,0,.1.08.08,0,0,0,.11-.05Z"/><path class="cls-4" d="M183.5,91.05a10.48,10.48,0,0,0,1.48-.17c12-2,34.41-34.31,37.64-39.7,5-8.36,5.23-14.11.54-14.24C214.62,48.55,196,74,183.5,91.05Z"/><path class="cls-6" d="M206.18,102.55c1.3,1.27,57.13,7.08,57.4,6.7.74-1-9.69-53.39-32-71.44-3.94-3.19-10.51-1.85-13.49.06-1.49,1-5.6,8.48-6.78,15.17S205.35,101.74,206.18,102.55Z"/><path class="cls-1" d="M242.8,48.24c16.63,18.76,35.28,50.36,27.08,57-7.49,6-32.67.25-49.63-6.6-3.23-1.31.75-27,4.42-26.33,6.73,1.23,19,5.55,19.47,5.67.93.27-5-13.76-10.53-27.35C227.49,35.45,233.28,37.5,242.8,48.24Z"/><path class="cls-1" d="M229.5,73.4s-10.24-2.36-17-3.53c-3.75-.66-10.29-1.21-13.26-.43C194.8,70.61,177,78.33,178.73,82.7c1.61,4,16.07-4.62,16.07-4.62s-15.41,7.37-12.6,11.78,17.93-7.47,17.93-7.47-15.67,7.92-12,12c2.73,3.1,17-6.89,17-6.89s-13.42,6.9-10.74,10.2c3,3.65,16.73-4.74,16.73-4.74,8.22,7.24,15.1,7.33,20,6.8C232.34,99.65,229.5,73.4,229.5,73.4Z"/><path class="cls-4" d="M200,75.19c-1.84.8-3.71,1.6-5.48,2.56s-3.49,2-5.16,3.1a33.87,33.87,0,0,0-6.07,5c3.49-3.13,9.75-6.67,11.49-7.63s3.48-2,5.24-3Z"/><path class="cls-4" d="M203.6,81.5c-2.3,1.12-4.64,2.15-6.89,3.38s-5.34,3-7.5,4.4c-.17.11-.09.39.08.29,2.22-1.28,5.45-3,7.68-4.25s4.4-2.6,6.67-3.77C203.67,81.53,203.64,81.48,203.6,81.5Z"/><path class="cls-4" d="M207.65,86.36a57.89,57.89,0,0,0-10.15,6c-.16.11,0,.17.16.06,3.34-2,5.94-3.68,10-5.9C207.8,86.45,207.73,86.33,207.65,86.36Z"/><path class="cls-6" d="M234.59,40c12.11,7.42,43.21,51.37,37.51,63.46s-44.77-1.22-44.77-1.22l2.82-30.52s10.9,3.46,11.25,2.94S235.8,59.14,233.32,53,228.15,36,234.59,40Z"/><path class="cls-4" d="M232.28,100.38c.72-4.34,3-22.19,3.27-26.09,0-.27-.15-.34-.2-.06-2.48,12.94-2.75,21.82-3.24,26.11C232.1,100.45,232.26,100.49,232.28,100.38Z"/><path class="cls-4" d="M229.94,71.32a25.2,25.2,0,0,1,3.52.89l3.1.91c2.25.69,4.47,1.42,6.7,2.18s4.43,1.52,6.63,2.33,4.35,1.74,6.54,2.55a.09.09,0,0,1,0,.13.08.08,0,0,1-.07,0c-2.23-.78-4.5-1.4-6.74-2.11L243,76.12c-2.2-.7-4.4-1.39-6.59-2.1l-3.22-1c-1-.34-2.06-.71-3.09-1.12a15.88,15.88,0,0,1-.15,1.68C229.75,73.42,229.68,71.28,229.94,71.32Z"/><path class="cls-4" d="M234.47,60c.63.81,1.25,1.62,1.84,2.46.11.15.21.31.31.47l-.48-1.29a45.72,45.72,0,0,1-1.62-4.56c0-.07.08-.1.12,0a45,45,0,0,1,2,4.62c.65,1.51,1.3,3,1.91,4.54s1.25,3,1.83,4.58a33.65,33.65,0,0,1,1.56,4.6.08.08,0,0,1-.15,0,34,34,0,0,1-2.11-4.59c-.64-1.52-1.23-3-1.84-4.58-.25-.64-.49-1.28-.74-1.93l-.3-.47c-.3-.4-.57-.82-.84-1.24-.55-.86-1.07-1.74-1.57-2.62A.08.08,0,0,1,234.47,60Z"/><path class="cls-4" d="M227.26,101.52c0-.22.14-.27.18,0a1.92,1.92,0,0,1,0,.49c1.33.36,6.19,1.84,7.38,2.19,2.49.74,5,1.41,7.54,2s5.1,1.07,7.67,1.45a92.14,92.14,0,0,0,15,.4c.1,0,.09.14,0,.17a58.71,58.71,0,0,1-15.1.07c-2.56-.3-5.13-.73-7.66-1.26s-5.14-1.2-7.66-2c-1.27-.38-2.52-.8-3.76-1.24a18.43,18.43,0,0,1-3.51-1.42.25.25,0,0,1-.12-.24A4.09,4.09,0,0,0,227.26,101.52Z"/><path class="cls-1" d="M219.8,46.75c3.22.7,8.65-4.29,10.75-8.29.15-.27-1.17-11.13-1.21-13.31,0-.45-13.62,3.55-13.62,3.55A34.44,34.44,0,0,1,217.2,37C217.2,37.36,216.71,46.06,219.8,46.75Z"/><path class="cls-4" d="M215.73,28.7h0c0,.06.1.33.22.76.2.73.51,1.91.76,3.26A24.62,24.62,0,0,1,217.2,37v.3h0V38a9.84,9.84,0,0,0,1.33,0c7.44-.29,9.79-9.47,10.43-13l-.24.05c-.36.06-.83.17-1.4.3l-.44.11-3.11.81-1.12.31-2.38.67-1,.27-1,.27-.44.13-.21.06-1.13.33-.54.16-.23.07h0Z"/><path class="cls-1" d="M231.59,11.65c.86,5-3.44,18.55-7.26,21.21-5.53,3.86-13.71,3.25-16.77-3.19-3-6.24,2.95-23.82,7.14-26.14C220.8.1,230.33,4.27,231.59,11.65Z"/><path class="cls-4" d="M229.39,22.77c-2.59-.27-1.92-4.77-1.92-4.77s-5.05-1.4-4.8-8.11c0,0-7.74,1.71-11.13-2.6s8-12.61,18.79-2.21c0,0,5.52,1.64,5.83,6.35S232.51,23.09,229.39,22.77Z"/><path class="cls-4" d="M222.94,9.18a.07.07,0,0,1,.1,0s0,0,0,.06c-1.36,4.3,1,8.65,5.73,8.9a.13.13,0,0,1,.09.16.14.14,0,0,1-.09.09C224.05,18.61,220.29,13.45,222.94,9.18Z"/><path class="cls-4" d="M219.8.05h0A15.75,15.75,0,0,0,215,.68c-2.31.77-5.48,3.11-4.26,5.93,1.67,3.88,7.26,3.54,10.71,3.07a.18.18,0,0,1,.22.13.18.18,0,0,1-.13.22c-3.54,1.1-10.6.7-11.5-3.91C209.06,1,216.3-.28,219.8.05Z"/><path class="cls-1" d="M227.06,22.56s3.79-4,5.66-2.6-1.44,7.56-4,8.09a2.46,2.46,0,0,1-3.05-1.68.3.3,0,0,0,0-.1Z"/><path class="cls-4" d="M231.73,21.7v.06A6.23,6.23,0,0,0,228,25.13a1.34,1.34,0,0,1,1.9-.22,1.1,1.1,0,0,1,.16.15s0,.1-.06.08a1.51,1.51,0,0,0-1.72.28,7.75,7.75,0,0,0-1,1.21c-.1.14-.36,0-.28-.14h0C227.3,24.31,229.4,21.57,231.73,21.7Z"/><path class="cls-2" d="M217.13,38.19l3.27,8.13L230.5,36l2.87,3.3s-9.89,16.35-10,15.61l-3.35-7-4.84,4.88.39-12.24Z"/><path class="cls-4" d="M215.08,46.75c.13-2,.21-4.06.44-6.07a.07.07,0,0,1,.13,0c.41,2-.14,9.67-.13,11.52h0c.2-.21,4.49-4.29,4.53-4.23.73,1.12,3.19,6.22,3.35,6.68C225,52,231,42.57,232.8,40.12a.07.07,0,0,1,.1,0,.08.08,0,0,1,0,.08c-1.38,2.74-9.31,15.46-9.43,15.42A78.31,78.31,0,0,1,220,48.2c-.72.89-5,5.5-5.06,5.19A64,64,0,0,1,215.08,46.75Z"/><rect class="cls-4" x="9.46" y="99.44" width="70.28" height="157.25"/><rect class="cls-5" x="186.89" y="99.44" width="70.28" height="157.25"/><rect class="cls-7" x="0.01" y="99.44" width="186.88" height="21.84"/><g class="cls-8"><polygon points="186.48 110.36 163.17 110.18 139.86 110.11 93.24 109.99 46.63 110.11 23.32 110.18 0.01 110.36 23.32 110.55 46.63 110.61 93.24 110.74 139.86 110.61 163.17 110.55 186.48 110.36"/></g><rect class="cls-7" x="177.43" y="99.44" width="9.45" height="157.25"/><rect class="cls-7" x="0.01" y="99.44" width="9.45" height="157.25"/><rect class="cls-9" x="144.48" y="95.69" width="54.16" height="2.43"/><rect class="cls-3" x="144.48" y="95.69" width="27.26" height="2.43"/><polygon class="cls-9" points="168.81 98.11 116.03 98.11 109.13 62.27 161.91 62.27 168.81 98.11"/><path class="cls-2" d="M142.18,80.19a2.9,2.9,0,0,1-2.57,3.19,2.17,2.17,0,0,1-.36,0,3.58,3.58,0,0,1-3.5-3.21A2.9,2.9,0,0,1,138.34,77h.35A3.58,3.58,0,0,1,142.18,80.19Z"/></g></g><polygon class="cls-10" points="0.01 256.69 272.79 256.69 272.79 0.06 0.01 256.69"/></svg>