<svg viewBox="0 0 25 25" fill="none" xmlns="http://www.w3.org/2000/svg">
  <path d="M17.3354.00098l6.5877 6.60572v15.5865c.0001.3686-.0726.7335-.2139 1.0741a2.80696 2.80696 0 01-.6099.9106 2.81445 2.81445 0 01-.913.6084A2.82071 2.82071 0 0121.1092 25H4.737c-.36961 0-.7356-.0726-1.07706-.2137a2.814 2.814 0 01-.91302-.6084 2.80636 2.80636 0 01-.60991-.9106 2.79923 2.79923 0 01-.21391-1.0741V2.80773a2.79864 2.79864 0 01.21363-1.07433 2.80537 2.80537 0 01.60985-.91092 2.81442 2.81442 0 01.91314-.60872A2.82092 2.82092 0 014.737 0h12.5984v.00098zm-1.9706 1.52935L4.737 1.53326c-.70715 0-1.27913.57034-1.27913 1.27544v19.3855c0 .7051.57198 1.2755 1.27913 1.2755h16.3722c.7062 0 1.2791-.5704 1.2791-1.2755l-.001-14.12357h-7.0225v-6.5403z" fill="#DAE0E8"/>
</svg>
