<svg xmlns="http://www.w3.org/2000/svg" width="15" height="14" viewBox="0 0 15 14">
    <path fill="#615E88" d="M14.494 7.985c.245 0 .45.176.492.41l.008.09v5.026H0V8.485c0-.277.224-.5.5-.5.245 0 .45.176.492.41l.008.09-.001 4.025h12.994V8.485c0-.246.178-.45.41-.492l.09-.008zM7.493 0c.245 0 .45.177.492.41l.008.09-.001 8.275 3.67-3.27c.207-.184.523-.165.706.04.164.184.168.454.022.64l-.062.067-4.81 4.286-4.854-4.285c-.207-.183-.226-.499-.044-.706.163-.184.43-.22.633-.097l.073.054L6.992 8.74V.5c0-.276.224-.5.5-.5z"/>
</svg>
