<svg viewBox="0 0 512 512">
  <path d="M149.93 402.148c30.336 0 54.93 24.591 54.93 54.926S180.265 512 149.93 512C119.593 512 95 487.409 95 457.074s24.593-54.926 54.93-54.926zm212.14 0c30.337 0 54.93 24.591 54.93 54.926S392.407 512 362.07 512c-30.336 0-54.93-24.591-54.93-54.926s24.594-54.926 54.93-54.926zM149.93 201c30.336 0 54.93 24.591 54.93 54.926s-24.594 54.926-54.93 54.926c-30.337 0-54.93-24.591-54.93-54.926S119.593 201 149.93 201zm212.14 0c30.337 0 54.93 24.591 54.93 54.926s-24.593 54.926-54.93 54.926c-30.336 0-54.93-24.591-54.93-54.926S331.735 201 362.07 201zM149.93 0c30.336 0 54.93 24.591 54.93 54.926s-24.594 54.926-54.93 54.926c-30.337 0-54.93-24.591-54.93-54.926S119.593 0 149.93 0zm212.14 0C392.407 0 417 24.591 417 54.926s-24.593 54.926-54.93 54.926c-30.336 0-54.93-24.591-54.93-54.926S331.735 0 362.07 0z" fill-rule="evenodd"/>
</svg>
