<svg xmlns="http://www.w3.org/2000/svg" width="20" height="20" viewBox="0 0 20 20" fill="none">
  <path fill-rule="evenodd" clip-rule="evenodd" d="M1.59012 9.04002C2.51012 7.92002 5.82012 4.27002 10.0001 4.27002C14.1801 4.27002 17.4901 7.92002 18.4101 9.04002C18.8701 9.60002 18.8701 10.39 18.4101 10.95C17.4901 12.07 14.1801 15.72 10.0001 15.72C5.82012 15.72 2.51012 12.07 1.59012 10.95C1.13012 10.39 1.13012 9.60002 1.59012 9.04002ZM17.4401 9.83002C16.7801 9.03002 13.7001 5.52002 10.0001 5.52002C6.30012 5.52002 3.22012 9.03002 2.56012 9.83002C2.48012 9.92002 2.48012 10.05 2.56012 10.15C3.22012 10.95 6.30012 14.46 10.0001 14.46C13.7001 14.46 16.7801 10.95 17.4401 10.15C17.5201 10.06 17.5201 9.93002 17.4401 9.83002Z" fill="#283648"/>
  <path fill-rule="evenodd" clip-rule="evenodd" d="M6.37988 9.99012C6.37988 8.00012 7.99988 6.37012 9.99988 6.37012C11.9899 6.37012 13.6199 8.00012 13.6199 9.99012C13.6199 11.9801 11.9899 13.6101 9.99988 13.6101C8.00988 13.6101 6.37988 11.9801 6.37988 9.99012ZM12.3799 10.0001C12.3799 8.68012 11.3099 7.62012 9.99988 7.62012C8.67988 7.62012 7.61988 8.69012 7.61988 10.0001C7.61988 11.3101 8.67988 12.3701 9.99988 12.3701C11.3199 12.3701 12.3799 11.3201 12.3799 10.0001Z" fill="#283648"/>
</svg>
