<svg xmlns="http://www.w3.org/2000/svg" width="16" height="16" viewBox="0 0 16 16" fill="none">
  <path fill-rule="evenodd" clip-rule="evenodd" d="M2.2 0.991943H13.8C14.464 0.991943 15 1.52794 15 2.19194V3.14394C15 3.42394 14.896 3.69594 14.72 3.91194L10.368 9.15994V13.1199C10.368 13.6479 10.016 14.1279 9.504 14.2719L7.136 14.9599C7.024 14.9919 6.912 15.0079 6.8 15.0079C6.488 15.0079 6.176 14.8799 5.952 14.6559C5.728 14.4319 5.608 14.1279 5.608 13.8079L5.632 9.15994L1.28 3.91194C1.096 3.69594 1 3.42394 1 3.14394V2.19194C1 1.52794 1.536 0.991943 2.2 0.991943ZM14 2.19194C14 2.07994 13.912 1.99194 13.8 1.99194H2.2C2.088 1.99194 2 2.07994 2 2.19194V3.14394C2 3.19194 2.048 3.27194 2.048 3.27194L6.576 8.74394C6.608 8.77594 6.624 8.81594 6.624 8.86394C6.624 9.07725 6.6197 9.82794 6.61474 10.6939C6.60798 11.874 6.6 13.2681 6.6 13.8079C6.6 13.9279 6.696 14.0079 6.8 14.0079C6.816 14.0079 6.856 13.9999 6.856 13.9999L9.224 13.3119C9.312 13.2879 9.368 13.2079 9.368 13.1199V8.87194C9.368 8.82394 9.416 8.74394 9.416 8.74394L13.952 3.27194C13.984 3.23194 14 3.19194 14 3.14394V2.19194Z" fill="#283648"/>
  <path opacity="0.01" d="M0 0H16V16H0V0Z" fill="#1D384E"/>
</svg>
