<svg xmlns="http://www.w3.org/2000/svg" width="16" height="16" viewBox="0 0 16 16" fill="none">
  <path opacity="0.01" d="M0 0H16V16H0V0Z" fill="#283648"/>
  <path fill-rule="evenodd" clip-rule="evenodd" d="M1 8C1 4.144 4.144 1 8 1C11.856 1 15 4.144 15 8C15 11.856 11.856 15 8 15C4.144 15 1 11.856 1 8ZM2 8C2 11.312 4.688 14 8 14C11.312 14 14 11.312 14 8C14 4.688 11.312 2 8 2C4.688 2 2 4.688 2 8Z" fill="#1D384E"/>
  <path d="M7.6 6.608H8.4C8.51046 6.608 8.6 6.69754 8.6 6.808V11.4C8.6 11.5105 8.51046 11.6 8.4 11.6H7.6C7.48954 11.6 7.4 11.5105 7.4 11.4V6.808C7.4 6.69754 7.48954 6.608 7.6 6.608Z" fill="#1D384E"/>
  <path d="M7.6 4.4H8.4C8.51046 4.4 8.6 4.48954 8.6 4.6V5.4C8.6 5.51046 8.51046 5.6 8.4 5.6H7.6C7.48954 5.6 7.4 5.51046 7.4 5.4V4.6C7.4 4.48954 7.48954 4.4 7.6 4.4Z" fill="#1D384E"/>
</svg>
