<svg xmlns="http://www.w3.org/2000/svg" width="18" height="18" viewBox="0 0 18 18" fill="none">
  <path fill-rule="evenodd" clip-rule="evenodd" d="M1.75 0.25H16.25C17.08 0.25 17.75 0.92 17.75 1.75V16.25C17.75 17.08 17.08 17.75 16.25 17.75H1.75C0.92 17.75 0.25 17.08 0.25 16.25V1.75C0.25 0.92 0.92 0.25 1.75 0.25ZM16.25 16.5C16.39 16.5 16.5 16.39 16.5 16.25V1.75C16.5 1.61 16.39 1.5 16.25 1.5H1.75C1.61 1.5 1.5 1.61 1.5 1.75V16.25C1.5 16.39 1.61 16.5 1.75 16.5H16.25Z" fill="#283648"/>
  <path d="M13.5798 4.17992H4.6998C4.5598 4.17992 4.4498 4.28992 4.4498 4.42992V5.18992C4.4498 5.32992 4.5598 5.43992 4.6998 5.43992H11.6898L4.2498 12.8799C4.1498 12.9799 4.1498 13.1299 4.2498 13.2299L4.7798 13.7599C4.8798 13.8599 5.0298 13.8599 5.1298 13.7599L12.5698 6.31992V13.3099C12.5698 13.4499 12.6798 13.5599 12.8198 13.5599H13.5798C13.7198 13.5599 13.8298 13.4499 13.8298 13.3099V4.41992C13.8298 4.27992 13.7198 4.16992 13.5798 4.16992V4.17992Z" fill="#283648"/>
</svg>
