<svg xmlns="http://www.w3.org/2000/svg" width="16" height="16" viewBox="0 0 16 16" fill="none">
  <path opacity="0.01" d="M0 0H16V16H0V0Z" fill="#283648"/>
  <path d="M1.19219 13.992H14.7922C14.9026 13.992 14.9922 14.0815 14.9922 14.192V14.792C14.9922 14.9025 14.9026 14.992 14.7922 14.992H1.19219C1.08173 14.992 0.992188 14.9025 0.992188 14.792V14.192C0.992188 14.0815 1.08173 13.992 1.19219 13.992Z" fill="#283648"/>
  <path fill-rule="evenodd" clip-rule="evenodd" d="M4.47219 12.984C4.36019 13.016 4.25619 13.032 4.14419 13.032C3.77619 13.032 3.42419 12.856 3.20019 12.56C2.97619 12.256 2.90419 11.88 3.00819 11.52L3.54419 9.648C3.60019 9.456 3.70419 9.28 3.84819 9.136L11.3282 1.656C11.7442 1.24 12.3122 1 12.8882 1C13.2642 1 13.6242 1.096 13.9442 1.288C14.5202 1.632 14.8962 2.208 14.9762 2.864C15.0562 3.52 14.8322 4.168 14.3682 4.632L6.85619 12.144C6.71219 12.288 6.53619 12.392 6.34419 12.448L4.47219 12.984ZM4.50419 9.928L3.96819 11.8L3.97619 11.792C3.94419 11.912 4.03219 12.024 4.15219 12.024H4.20019L6.07219 11.488C6.10419 11.48 6.15219 11.44 6.15219 11.44L13.6642 3.928C14.1682 3.424 14.0962 2.552 13.4322 2.152C13.2642 2.048 13.0722 2 12.8882 2C12.5762 2 12.2642 2.128 12.0322 2.36L4.55219 9.848C4.52819 9.872 4.50419 9.928 4.50419 9.928Z" fill="#283648"/>
</svg>
