<svg xmlns="http://www.w3.org/2000/svg" width="16" height="16" viewBox="0 0 16 16" fill="none">
  <path opacity="0.01" d="M0 0H16V16H0V0Z" fill="#283648"/>
  <path fill-rule="evenodd" clip-rule="evenodd" d="M13.832 3H10.8V2.04C10.8 1.464 10.336 1 9.75999 1H6.23999C5.66399 1 5.19999 1.464 5.19999 2.04V3H2.16799C2.02399 3 1.90399 3.12 1.90399 3.264V3.728C1.90399 3.872 2.02399 3.992 2.16799 3.992H2.79999V13.792C2.79999 14.456 3.33599 14.992 3.99999 14.992H12C12.664 14.992 13.2 14.456 13.2 13.792V4H13.832C13.976 4 14.096 3.88 14.096 3.736V3.272C14.096 3.128 13.976 3.008 13.832 3.008V3ZM6.19999 2.04C6.19999 2.04 6.21599 2 6.23999 2H9.75999C9.75999 2 9.79999 2.016 9.79999 2.04V3H6.19999V2.04ZM12 14C12.112 14 12.2 13.912 12.2 13.8V4H3.79999V13.8C3.79999 13.912 3.88799 14 3.99999 14H12Z" fill="#1D384E"/>
  <path d="M5.92799 5.952H6.46399C6.59212 5.952 6.69599 6.05587 6.69599 6.184V11.816C6.69599 11.9441 6.59212 12.048 6.46399 12.048H5.92799C5.79986 12.048 5.69599 11.9441 5.69599 11.816V6.184C5.69599 6.05587 5.79986 5.952 5.92799 5.952Z" fill="#1D384E"/>
  <path d="M9.52799 5.952H10.064C10.1921 5.952 10.296 6.05587 10.296 6.184V11.816C10.296 11.9441 10.1921 12.048 10.064 12.048H9.52799C9.39986 12.048 9.29599 11.9441 9.29599 11.816V6.184C9.29599 6.05587 9.39986 5.952 9.52799 5.952Z" fill="#1D384E"/>
</svg>
