<svg xmlns="http://www.w3.org/2000/svg" width="18" height="16" viewBox="0 0 18 16" fill="none">
  <path d="M17.5002 11.6699H16.7402C16.6002 11.6699 16.4902 11.7799 16.4902 11.9199V14.2999H1.50023V11.9199C1.50023 11.7799 1.39023 11.6699 1.25023 11.6699H0.490234C0.350234 11.6699 0.240234 11.7799 0.240234 11.9199V15.2999C0.240234 15.4399 0.350234 15.5499 0.490234 15.5499H17.5002C17.6402 15.5499 17.7502 15.4399 17.7502 15.2999V11.9199C17.7502 11.7799 17.6402 11.6699 17.5002 11.6699Z" fill="#283648"/>
  <path d="M8.82008 13.12C8.92008 13.22 9.07008 13.22 9.17008 13.12L15.4501 6.83996C15.5501 6.73996 15.5501 6.58996 15.4501 6.48996L14.9201 5.95996C14.8201 5.85996 14.6701 5.85996 14.5701 5.95996L9.62008 10.91V0.709961C9.62008 0.569961 9.51008 0.459961 9.37008 0.459961H8.61008C8.47008 0.459961 8.36008 0.569961 8.36008 0.709961V10.9L3.41008 5.94996C3.31008 5.84996 3.16008 5.84996 3.06008 5.94996L2.53008 6.47996C2.43008 6.57996 2.43008 6.72996 2.53008 6.82996L8.81008 13.11L8.82008 13.12Z" fill="#283648"/>
</svg>
