<svg viewBox="0 0 512 512" xmlns="http://www.w3.org/2000/svg">
  <g fill="#000" fill-rule="nonzero">
    <path d="M493.73 471H17.835C7.83 471 0 479.341 0 489s8.265 18 17.835 18h476.33C504.17 507 512 498.659 512 489s-8.265-18-18.27-18zM.437 314.75L0 399.703c0 4.792 1.746 9.584 5.239 13.07 3.493 3.484 7.858 5.227 12.66 5.227l84.696-.436c4.802 0 9.168-1.742 12.66-5.228l292.506-291.888c6.985-6.97 6.985-18.297 0-25.703L323.94 10.228c-6.986-6.97-18.336-6.97-25.758 0L239.68 69.04 5.675 302.116C2.62 305.601.437 309.958.437 314.75zM311.278 48.565l58.938 58.814-33.18 33.11-58.938-58.814 33.18-33.11zM36.672 322.592L252.34 107.379l58.938 58.813L95.61 380.969l-59.374.436.436-58.813z"/>
  </g>
</svg>
