<svg width="210" height="100" viewBox="0 0 190 153" xmlns="http://www.w3.org/2000/svg"><g transform="translate(0 -5)" fill="none" fill-rule="evenodd"><path d="M88.822 49.907c0 22.526-18.283 40.785-40.809 40.785-8.201 0-15.856-2.425-22.264-6.627V71.711a30.984 30.984 0 0022.264 9.382c17.212 0 31.187-13.977 31.187-31.186h9.622z" fill="#DBDBF3"/><path d="M0 157.358h189.993V14.195H0z"/><path fill="#DBDBF3" d="M124.482 141.754h5.725V57.099h-5.725zM93.864 141.754h5.725V79.109h-5.725zM155.1 141.754h5.725V35.529H155.1zM47.198 141.754H78.38V133.9H47.198z"/><path fill="#BCBCE2" d="M164.182 141.754h16.326V39.647h-16.326z"/><path d="M88.87 141.754H36.245V103.98c0-2.307 1.87-4.18 4.177-4.18h44.27a4.179 4.179 0 014.176 4.18v37.774z" stroke="#DBDBF3" stroke-width="2.187" stroke-linecap="round" stroke-linejoin="round"/><path stroke="#7176C4" stroke-width="2.187" stroke-linecap="round" stroke-linejoin="round" d="M1.094 141.754H188.9M119.603 156.264h23.75M46.639 156.264h53.042M45.473 49.9h85.547"/><path fill="#BCBCE2" d="M102.41 8.295l18.784-3.311-6.641 19.288z"/><path fill="#DBDBF3" d="M8.037 109.178l8.69 4.62-4.621 8.689-8.69-4.62z"/><rect fill-opacity=".5" fill="#DBDBF3" transform="rotate(28 165.349 19.604)" x="160.428" y="14.684" width="9.841" height="9.841" rx="4.921"/><path stroke="#7176C4" stroke-width="2.187" stroke-linecap="round" stroke-linejoin="round" d="M25.742 141.754v-70.03"/><path d="M48.764 20.788c-16.356 0-29.616 13.26-29.616 29.616 0 16.357 13.26 29.619 29.616 29.619 16.357 0 29.617-13.262 29.617-29.619H48.764V20.788z" fill="#BCBCE2"/><path d="M48.012 18.718c-17.22 0-31.18 13.962-31.18 31.182 0 17.223 13.96 31.183 31.18 31.183 17.222 0 31.182-13.96 31.182-31.183H48.012V18.718zM59.825 72.107c5.87-3.13 10.353-8.518 12.288-15.002M48.012 75.049c2.036 0 4.013-.241 5.907-.698M160.825 141.754h19.683V36.28h-19.683z" stroke="#7176C4" stroke-width="2.187" stroke-linecap="round" stroke-linejoin="round"/><path fill="#DBDBF3" d="M133.564 141.754h16.326V61.517h-16.326z"/><path stroke="#7176C4" stroke-width="2.187" stroke-linecap="round" stroke-linejoin="round" d="M130.207 141.754h19.683V58.15h-19.683zM140.048 49.9h8.722"/><path fill="#DBDBF3" d="M102.946 141.754h16.326V83.387h-16.326z"/><path stroke="#7176C4" stroke-width="2.187" stroke-linecap="round" stroke-linejoin="round" d="M99.59 141.754h19.682V80.02H99.59z"/><path d="M53.92 15.288v28.733h28.732c0-15.869-12.864-28.733-28.733-28.733" fill="#FFF"/><path d="M53.92 15.288v28.733h28.732c0-15.869-12.864-28.733-28.733-28.733zM47.199 109.28h8.192" stroke="#7176C4" stroke-width="2.187" stroke-linecap="round" stroke-linejoin="round"/><path stroke="#DBDBF3" stroke-width="2.187" stroke-linecap="round" stroke-linejoin="round" d="M63.356 109.28h14.99"/><path stroke="#7176C4" stroke-width="2.187" stroke-linecap="round" stroke-linejoin="round" d="M47.199 118.028h8.192"/><path stroke="#DBDBF3" stroke-width="2.187" stroke-linecap="round" stroke-linejoin="round" d="M63.356 118.028h14.99"/><path stroke="#7176C4" stroke-width="2.187" stroke-linecap="round" stroke-linejoin="round" d="M47.199 126.776h8.192"/><path stroke="#DBDBF3" stroke-width="2.187" stroke-linecap="round" stroke-linejoin="round" d="M63.356 126.776h14.99M58.647 29.655v-8.157 9.454M58.647 35.529v2.285"/></g></svg>