<?xml version="1.0" encoding="UTF-8"?>
<svg width="16px" height="24px" viewBox="0 0 16 24" version="1.1" xmlns="http://www.w3.org/2000/svg" xmlns:xlink="http://www.w3.org/1999/xlink">
    <!-- Generator: Sketch 61.1 (89650) - https://sketch.com -->
    <title>energy</title>
    <desc>Created with Sketch.</desc>
    <g id="Page-1" stroke="none" stroke-width="1" fill="none" fill-rule="evenodd">
        <g id="Supplier_Summary1.1" transform="translate(-708.000000, -244.000000)" fill="#F3B82D" fill-rule="nonzero">
            <g id="energy" transform="translate(708.000000, 244.000000)">
                <path d="M15.8718525,10.1495668 C15.7449954,9.83668203 15.4409585,9.63185253 15.1031889,9.63185253 L11.5282949,9.63185253 L14.4860461,1.10123502 C14.6125714,0.736479263 14.4705622,0.332682028 14.1437419,0.12718894 C13.8168111,-0.0784147465 13.391447,-0.031078341 13.1176037,0.241105991 L0.341640553,12.9378802 C0.103410138,13.1746728 0.0314101382,13.5317972 0.15959447,13.84247 C0.287557604,14.1531429 0.590488479,14.3557604 0.926488479,14.3557604 L4.46565899,14.3557604 L1.24534562,22.869788 C1.10776037,23.2332166 1.24114286,23.6434286 1.56597235,23.8566636 C1.70510599,23.9480184 1.86326267,23.9927005 2.02086636,23.9927005 C2.23089401,23.9927005 2.43948387,23.9130691 2.59885714,23.758341 L15.6809585,11.0564793 C15.9232811,10.821235 15.9988203,10.4625622 15.8718525,10.1495668 Z M4.11384332,19.9752995 L6.44206452,13.8196866 C6.53839631,13.5647558 6.5036682,13.2788571 6.34871889,13.0546728 C6.19388018,12.8305991 5.93872811,12.6967742 5.66621198,12.6967742 L2.93784332,12.6967742 L11.7440737,3.94506912 L9.57909677,10.1897143 C9.49117051,10.443318 9.53131797,10.7237972 9.68693088,10.9424516 C9.84254378,11.1612166 10.0943779,11.2909493 10.3626912,11.2909493 L13.0579908,11.2909493 L4.11384332,19.9752995 Z" id="Shape"></path>
            </g>
        </g>
    </g>
</svg>