<svg xmlns="http://www.w3.org/2000/svg" width="11.8" height="11" viewBox="0 0 612 612"><path d="M122.4 267.261V40.8c0-11.261-9.139-20.4-20.4-20.4s-20.4 9.14-20.4 20.4v226.46C35.047 276.706 0 317.854 0 367.201s35.047 90.494 81.6 99.939v104.061c0 11.26 9.139 20.398 20.4 20.398s20.4-9.139 20.4-20.398v-104.06c46.553-9.445 81.6-50.592 81.6-99.939s-35.047-90.496-81.6-99.941zM102 428.4c-33.803 0-61.2-27.396-61.2-61.199S68.197 306 102 306s61.2 27.398 61.2 61.201S135.803 428.4 102 428.4zM326.4 63.261V40.8c0-11.261-9.14-20.4-20.4-20.4s-20.4 9.139-20.4 20.4v22.46c-46.553 9.445-81.6 50.592-81.6 99.94s35.047 90.494 81.6 99.939V571.2c0 11.26 9.139 20.398 20.4 20.398s20.4-9.139 20.4-20.398V263.14c46.553-9.445 81.6-50.592 81.6-99.939s-35.047-90.495-81.6-99.94zM306 224.4c-33.803 0-61.2-27.397-61.2-61.2S272.197 102 306 102s61.2 27.397 61.2 61.2-27.397 61.2-61.2 61.2zm224.4 124.461V40.8c0-11.261-9.14-20.4-20.4-20.4s-20.4 9.139-20.4 20.4v308.061c-46.553 9.445-81.6 50.592-81.6 99.939s35.047 90.494 81.6 99.939V571.2c0 11.26 9.14 20.398 20.4 20.398s20.4-9.139 20.4-20.398v-22.46c46.553-9.445 81.6-50.592 81.6-99.939s-35.047-90.494-81.6-99.94zM510 510c-33.803 0-61.2-27.396-61.2-61.199S476.197 387.6 510 387.6s61.2 27.398 61.2 61.201S543.803 510 510 510z"/></svg>