<svg viewBox="0 0 931 495" xmlns="http://www.w3.org/2000/svg" xmlns:xlink="http://www.w3.org/1999/xlink">
  <defs>
    <path d="M32.389 28.6c2.308-2.474 3.462-4.912 3.462-7.313 0-6.807-5.518-12.324-12.324-12.324S11.203 14.48 11.203 21.287c0 1.902.72 3.828 2.161 5.776C15.36 29.76 30.336 30.8 32.39 28.599Z" id="a"/>
    <mask id="b" maskContentUnits="userSpaceOnUse" maskUnits="objectBoundingBox" x="0" y="0" width="24.648" height="20.829" fill="#fff">
      <use xlink:href="#a"/>
    </mask>
  </defs>
  <g fill="none" fill-rule="evenodd">
    <path d="M81.396 473.72c-8.845-1.31-16.405-4.744-20.442-7.887-4.038-3.143-5.4-10.597-9.438-14.304-4.04-3.707-12.177-3.707-18.858-11.588-6.68-7.88 0-13.445-5.877-23.748-5.877-10.304-12.884-7.575-17.817-18.19-4.933-10.616 4.253-13.361-1.577-24.114-5.83-10.754-10.895-26.054-4.176-30.32 6.72-4.268 16.73 1.195 23.57 14.658 6.84 13.464 14.047 11.203 16.417 9.885 2.37-1.318 4.602-9.885-1.966-18.01-6.569-8.127-14.451-13.171-14.451-27.374 0-14.204 5.702-16.34 6.785-24.53 1.083-8.189-3.39-18.746-1.545-31.489 1.845-12.742 19.07-28.624 33.997 1.023s22.115 19.576 27.992 38.957c5.877 19.381-4.856 29.863 0 47.74 4.856 17.878 13.362 12.292 17.204 42.586 2.561 20.196 3.299 46.041 2.212 77.535-15.457.321-26.133.045-32.03-.83Z" fill="#D6D7F5"/>
    <path stroke="#D2D4F5" stroke-width=".764" stroke-linecap="round" stroke-linejoin="round" d="M53.336 475.325h-5.31l92.964.15h4.771M31.122 475.325h-.435l7.612.15h.39"/>
    <path d="M91.766 474.044c-19.684-19.544-34.976-37.49-45.875-53.84-10.9-16.35-23.864-41-38.893-73.952" stroke="#FFF" stroke-width=".764" stroke-linecap="round" stroke-linejoin="round"/>
    <path d="M63.291 443.873c-6.678-1.04-11.698-1.727-15.062-2.061-3.364-.334-7.68-.575-12.946-.72M41.7 414.096c-4.167-.799-7.849-1.761-11.044-2.888-3.196-1.126-7.603-3.01-13.222-5.651M30.087 393.405c-1.312-6.004-1.968-11.742-1.968-17.213s.235-9.039.706-10.703M13.258 362.869l-5.805-2.052-5.806-2.052M100.348 473.074c-11.522-33.853-20.73-63.841-27.626-89.965-6.894-26.123-17.067-69.571-30.516-130.343" stroke="#FFF" stroke-width=".764" stroke-linecap="round" stroke-linejoin="round"/>
    <path d="M59.906 330.619c-7.486-3.856-13.171-6.572-17.054-8.149-3.883-1.576-8.86-3.188-14.931-4.836M50.495 290.003c-3.774-5.415-6.705-9.282-8.795-11.6-2.089-2.317-5.222-5.179-9.398-8.583M56.422 313.44c2.632-8.907 4.743-15.476 6.332-19.71 1.59-4.232 2.617-6.596 3.08-7.091M61.836 296.35l13.752-5.322M82.043 415.792l-17.711-6.854-8.736-3.38M73.759 385.964l18.28-27.199M84.599 369.423l1.035-22.214M63.682 346.252l21.952-24.312M63.291 407.887l-12.796-23.925" stroke="#FFF" stroke-width=".764" stroke-linecap="round" stroke-linejoin="round"/>
    <g>
      <path d="M796.225 416.105c18.954.952 37.275-6.369 41.135-30.354 3.86-23.986-2.12-25.142 4.396-40.108 6.516-14.967 16.967-20.251 17.736-35.503.769-15.252-5.276-16.234-8.2-30.287-2.922-14.054 12.934-38.79-7.518-44.533-20.452-5.744-24.08 21.91-34.293 29.546-6.809 5.09-13.307 7.16-19.495 6.206l-3.366 99.6v18.863c-6.233 17.079-3.031 25.936 9.605 26.57Z" fill="#FFEAEF"/>
      <path d="M790.858 414.916c10.377-20.433 18.308-41.382 23.792-62.846 8.226-32.196 17.175-65.32 19.734-81.783 1.706-10.975 3.706-22.446 5.998-34.412M798.496 399.217c15.781-10.562 25.62-16.526 29.52-17.89M819.352 335.223c13.293-12.932 26.286-19.398 38.98-19.398" stroke="#FFF" stroke-width="1.092" stroke-linecap="round" stroke-linejoin="round"/>
      <path d="M828.015 301.162c-5.905-17.521-13.084-28.473-21.536-32.855M834.066 273.284c4.862-2.988 8.452-5.126 10.771-6.413 2.32-1.286 5.085-2.674 8.296-4.163M810.292 367.593c-3.08-6.73-5.641-11.634-7.681-14.713-2.04-3.078-5.275-6.917-9.703-11.515" stroke="#FFF" stroke-width="1.092" stroke-linecap="round" stroke-linejoin="round"/>
      <path stroke="#D2D4F5" stroke-width=".764" stroke-linecap="round" stroke-linejoin="round" d="M796.027 428.07h-4.493l78.656.15h4.036M878.445 428.2h-.217l3.805.021h.196M885.049 428.21h-.153l2.668.015h-.705"/>
      <path d="M798.107 429.677c5.995 6.202 13.4 7.033 22.216 2.495 13.224-6.807 16.38-.988 29.542-6.807 13.162-5.819 6.956-12.11 20.136-19.643 13.18-7.533 18.502-2.962 27.022-7.73 8.52-4.767 8.227-10.58 15.235-19.105 7.008-8.526 24.43-14.062 15.569-24.258-8.862-10.196-13.261-2.577-25.347 1.055-12.086 3.63-16.508-.784-27.23 5.13-10.723 5.916-5.99 11.806-16.919 17.13-10.93 5.324-15.93-.427-27.583 5.072-11.653 5.5-8.51 11.616-19.741 16.269-11.23 4.653-16.352.229-20.952.97-3.066.494-5.97 2.544-8.71 6.152l13.024 21.112 3.738 2.158Z" fill="#D6D7F5"/>
      <path d="M793.077 419.644c27.946-7.198 49.698-14.593 65.254-22.186 15.556-7.593 38.482-22.005 68.778-43.235M815.816 413.75l24.958 7.155M843.024 404.262l11.194-18.948M873.244 390.015h22.03" stroke="#FFF" stroke-width=".764" stroke-linecap="round" stroke-linejoin="round"/>
    </g>
    <g transform="translate(104)">
      <rect stroke="#F6F2FF" stroke-width=".655" fill="#F6F2FF" x=".328" y=".328" width="639.54" height="476.29" rx="13.104"/>
      <rect fill="#FFF" opacity=".7" x="89.627" y="13.264" width="462.541" height="20.806" rx="9.828"/>
      <g transform="translate(19.206 16.005)">
        <circle fill="#ED6A5E" cx="6.402" cy="6.402" r="6.402"/>
        <circle fill="#F5C450" cx="27.208" cy="6.862" r="6.402"/>
        <circle fill="#61C755" cx="48.015" cy="6.862" r="6.402"/>
      </g>
      <path d="M4 45.274h632v417.328c0 6.075-4.925 11-11 11H15c-6.075 0-11-4.925-11-11V45.274Z" fill="#FFF"/>
    </g>
    <path stroke="#FFF" stroke-width=".764" stroke-linecap="round" stroke-linejoin="round" d="m841.95 387.922 10.159-18.885"/>
    <g>
      <path d="M666.532 476.489h-64.416v-32.693h68.544v28.565c0 1.14-.462 2.172-1.21 2.919a4.115 4.115 0 0 1-2.918 1.209Z" stroke="#233750" stroke-width=".917" fill="#FFC64D"/>
      <path d="M666.637 444.457h3.361v27.778a4.755 4.755 0 0 1-1.245 2.216c-.624.64-1.33 1.05-2.116 1.232v-31.226Z" fill="#FEFCFF"/>
      <path d="M57.778 56.29h67.22v3.361h-17.277l1.337 1.12c-1.454.003-2.489-.06-3.106-.188-.616-.128-1.315-.438-2.097-.932H76.076l1.613 1.12c-1.472.001-2.508-.061-3.106-.188-.599-.126-1.336-.436-2.21-.932h-11.86V87.66h-2.76l.025-31.37Z" fill="#B18D25" style="mix-blend-mode:multiply" opacity=".3" transform="translate(545 388.167)"/>
      <path d="M574.77 443.337h28.008v33.61h-23.423a4.586 4.586 0 0 1-4.586-4.586v-29.024Z" fill="#E2A602"/>
      <path d="M575.89 444.457h3.36v31.37a3.361 3.361 0 0 1-3.36-3.361v-28.009Z" fill="#FEFCFF"/>
      <path fill="#B48317" opacity=".7" d="M575.889 444.457h25.768v3.36h-25.768z"/>
      <path d="M602.319 476.489h-22.964a4.115 4.115 0 0 1-2.918-1.21 4.115 4.115 0 0 1-1.21-2.918v-28.565h27.092v32.693Z" stroke="#233750" stroke-width=".917"/>
      <path d="m557.649 398.53 15.688 34.444a17.961 17.961 0 0 1-6.97 1.4c-10.21 0-18.486-8.527-18.486-19.046 0-7.27 3.954-13.59 9.768-16.799Z" fill="#E2A602"/>
      <path d="m571.585 432.917-13.908-28.092c-.769-.945-1.626-1.136-2.573-.572-.946.563-1.198 1.392-.756 2.485l12.629 27.118h-1.046l-11.583-22.277c-1.097-.912-2.224-.514-3.382 1.192s-1.845 3.983-2.061 6.829l-.71-4.125 1.723-8.177 4.43-5.928 2.936-1.726 15.244 33.204-.943.07Z" fill="#FEFCFF"/>
      <path d="m557.44 399.177 15.282 33.55a17.506 17.506 0 0 1-6.355 1.189c-4.977 0-9.482-2.08-12.743-5.44-3.266-3.364-5.284-8.013-5.284-13.148 0-3.488.932-6.753 2.554-9.543a18.392 18.392 0 0 1 6.545-6.608Z" stroke="#233750" stroke-width=".917"/>
      <path fill="#EBAF3C" d="M557.655 398.529h69.468l15.41 34.388h-69.462z"/>
      <path d="m626.9 399.177 15.283 33.55a17.506 17.506 0 0 1-6.355 1.189c-4.977 0-9.481-2.08-12.742-5.44-3.266-3.364-5.285-8.013-5.285-13.148 0-3.488.932-6.753 2.554-9.543a18.392 18.392 0 0 1 6.546-6.608Z" stroke="#233750" stroke-width=".917" fill="#D1980A"/>
      <path stroke="#233750" stroke-width=".917" fill="#FEFCFF" fill-rule="nonzero" d="M664.161 439.636H658.7v-28.01h5.462z"/>
      <path fill="#A08BE1" fill-rule="nonzero" d="M663.673 439.112h-2.644v-26.109h2.644z"/>
      <path d="M672.616 401.035c-1.083 0-2.082.71-2.396 1.842h-1.87c-.76 0-1.394-.5-1.609-1.178a.946.946 0 0 0-.901-.664h-5.583c-3.521 0-6.96 1.063-9.867 3.05l-6.308 4.31c-.392.269-.129.882.335.782l7.864-1.69a3.872 3.872 0 0 1 4.672 3.461l.146 1.73a.952.952 0 0 0 .948.873h6.668a.952.952 0 0 0 .95-.903l.091-1.755a3.576 3.576 0 0 1 3.561-3.246h.903a2.484 2.484 0 0 0 2.396 1.842h2.722c.505 0 .914-.41.914-.914v-6.625a.914.914 0 0 0-.914-.914h-2.722Z" fill="#D8D5E2" fill-rule="nonzero"/>
      <path d="M672.616 401.035c-1.083 0-2.082.71-2.396 1.842h-1.87c-.76 0-1.394-.5-1.609-1.178a.946.946 0 0 0-.901-.664h-5.583c-3.521 0-6.96 1.063-9.867 3.05l-6.308 4.31c-.392.269-.129.882.335.782l7.864-1.69a3.872 3.872 0 0 1 4.672 3.461l.146 1.73a.952.952 0 0 0 .948.873h6.668a.952.952 0 0 0 .95-.903l.091-1.755a3.576 3.576 0 0 1 3.561-3.246h.903a2.484 2.484 0 0 0 2.396 1.842h2.722c.505 0 .914-.41.914-.914v-6.625a.914.914 0 0 0-.914-.914h-2.722Z" fill="#D8D5E2" fill-rule="nonzero"/>
      <path d="M644.495 408.759c6.332-2.954 10.545-4.511 12.637-4.672 2.093-.16 6.34-.16 12.741 0v-1.104l-1.888-.283-1.435-.99-.457-.458h-7.996l-5.808 1.448-5.324 3.808-2.47 2.25ZM674.069 401.366v8.085h2.138v-8.085" fill="#FEFCFF"/>
      <path d="M672.616 401.035c-1.083 0-2.082.71-2.396 1.842h-1.87c-.76 0-1.394-.5-1.609-1.178a.946.946 0 0 0-.901-.664h-5.583c-3.521 0-6.96 1.063-9.867 3.05l-6.308 4.31c-.392.269-.129.882.335.782l7.864-1.69a3.872 3.872 0 0 1 4.672 3.461l.146 1.73a.952.952 0 0 0 .948.873h6.668a.952.952 0 0 0 .95-.903l.091-1.755a3.576 3.576 0 0 1 3.561-3.246h.903a2.484 2.484 0 0 0 2.396 1.842h2.722c.505 0 .914-.41.914-.914v-6.625a.914.914 0 0 0-.914-.914h-2.722Z" stroke="#233750" stroke-width=".917"/>
      <path stroke="#4A5D87" stroke-width="1.009" d="m670.056 403.274.012 4.493"/>
      <g transform="translate(587.093 413.088)">
        <path d="M0 23.31v-5.108l4.957-1.167 1.445-3.507-2.765-4.094 4.748-4.989 2.705-.209 3.318 2.286L16.34 5.24 17.393 0h9.637l.731 5.061 2.52.816 5.072-2.181 5.212 4.923-2.692 4.215 1.59 3.448 5.168 1.14.174 5.888H29.117c.536-5.887-1.702-8.83-6.714-8.83-5.013 0-7.314 2.943-6.904 8.83H0Z" fill="#A47516"/>
        <path d="M3.389 23.31V19.29l4.955-1.01 1.636-4.814-2.683-3.88 3.527-3.91 3.853 2.579 4.94-1.897.663-4.703h5.542l.55 4.353 4.615 1.815 4.246-2.58 3.956 3.613-2.825 4.042 2.011 4.626 5.218.756v5.031H31.959c.222-6.942-2.6-10.413-8.468-10.413s-8.806 3.471-8.814 10.413H3.389Z" fill="#FEFCFF"/>
        <use stroke="#CDCDCD" mask="url(#b)" stroke-width="1.835" stroke-dasharray="10.0900806427002,4.586400604248047" xlink:href="#a"/>
      </g>
      <path stroke="#233750" stroke-width=".917" fill="#FFC64D" d="M604.357 432.592h68.544v11.406h-68.544z"/>
      <path fill="#FEFCFF" d="M667.757 433.254h4.481v10.083h-4.481z"/>
      <path d="M628.536 447.808a2.286 2.286 0 0 1-1.622.672h-4.58a2.286 2.286 0 0 1-1.62-.672 2.286 2.286 0 0 1-.673-1.621v-9.113h9.166v9.113c0 .633-.256 1.206-.671 1.621ZM659.905 447.808a2.286 2.286 0 0 1-1.621.672h-4.58a2.286 2.286 0 0 1-1.621-.672 2.286 2.286 0 0 1-.672-1.621v-9.113h9.166v9.113c0 .633-.257 1.206-.672 1.621Z" stroke="#233750" stroke-width=".917" fill="#E2A602"/>
      <path fill="#FEFCFF" d="M572.528 432.134h32.49v12.324h-32.49z"/>
      <path d="M577.927 434.374h25.971v8.963H577.01v-8.046c0-.506.41-.917.917-.917Z" fill="#E2A602"/>
      <path stroke="#233750" stroke-width=".917" d="M572.987 432.592h31.573v11.406h-31.573z"/>
      <g transform="rotate(1 -25696.122 37282.36)">
        <path d="M2.05 13.714C.27 14.425-.35 15.92.189 18.195c.54 2.277 1.73 3.193 3.574 2.748l26.144-4.999 5.048 4.999 9.506-1.673 2.868-6.778-9.459 1.756c-1.738-.472-2.77-1.37-3.095-2.697-.326-1.326.145-2.71 1.414-4.151l10.114-2.12L40.675 0l-9.25 1.885-3.103 6.344L2.05 13.714Z" stroke="#233750" stroke-width=".917" fill="#D8D5E2" stroke-linejoin="round"/>
        <path d="m23.979 12.92.844 3.485-21.49 4.062c-.645.12-1.19-.022-1.635-.426-.444-.405-.784-1.118-1.02-2.14l.651-.546 22.65-5.057v.621Z" fill="#A08BE1"/>
        <path d="m.678 17.9 29.342-6.337 3.644-7.377 8.47-2.07L40.516.61l-8.715 1.772-3.106 6.287-20.314 4.304-6.164 1.274c-.69.251-1.183.726-1.477 1.425-.295.698-.315 1.442-.063 2.23Z" fill="#FEFCFF"/>
        <circle fill="#233750" cx="4.454" cy="16.849" r="1.12"/>
      </g>
      <path stroke="#233750" stroke-width=".917" d="M658.699 430.102h4.973M669.838 463.324l1.895 7.879M622.689 439.393v5.737M654.058 439.393v5.737M557.655 399.087h69.455"/>
      <path fill="#D8D5E2" d="M606.317 488.907h-26.872l-.246 4.092h7.457l3.272-2.499h16.389v-1.386z"/>
      <path d="M589.708 490.47h16.556v-2.712h-16.556v2.712Z" stroke="#233750" stroke-width=".917"/>
      <path d="M634.304 483.67h-17.786v10.889h17.786a5.445 5.445 0 1 0 0-10.89Z" fill="#A08BE1"/>
      <path fill="#A08BE1" d="m616.686 494.141-6.55-2.465v-4.73l6.55-2.858"/>
      <path d="M638.854 489.972c-.71-1.426-2.175-2.207-4.391-2.342-2.217-.135-10.326-.135-24.326 0v-1.104l6.549-2.857h17.777l2.8.842 1.591 2.37.453 1.814-.453 1.277Z" fill="#FEFCFF"/>
      <path d="M616.976 494.1h17.328a4.97 4.97 0 0 0 3.526-1.46 4.97 4.97 0 0 0 1.46-3.526 4.97 4.97 0 0 0-1.46-3.526 4.97 4.97 0 0 0-3.526-1.46h-17.328v9.972ZM616.686 494.141l-6.55-2.465v-4.73l6.626-2.76" stroke="#233750" stroke-width=".917"/>
      <path d="M606.312 483.95v9.971h3.85v-9.972h-3.85Z" stroke="#233750" stroke-width=".917" fill="#A08BE1"/>
      <path fill="#FEFCFF" d="M609.457 487.856v-3.078h-2.532v3.078"/>
      <path stroke="#233750" stroke-width=".917" d="m589.656 487.52-2.955-1.71h-7.502V493l7.502.135 2.955-2.375zM634.463 489.114H620.65M634.463 492.162H620.65"/>
      <path stroke="#233750" stroke-width=".917" stroke-linecap="round" stroke-linejoin="round" d="m555.723 405.245 2.762 5.987"/>
      <path stroke="#233750" stroke-width=".917" stroke-linecap="round" d="m560.205 415.328 6.03 13.084M625.184 406.366l6.011 12.662"/>
      <path d="M559.993 403.744h61.162c.81-1.068 1.547-1.883 2.21-2.447.664-.564 1.537-1.117 2.62-1.659h-67.827l1.835 4.106Z" fill="#FEFCFF"/>
      <path d="M559.993 403.744h61.162c-.987 1.478-1.662 2.612-2.027 3.402-.365.79-.784 2.025-1.256 3.706H563.22l-3.227-7.108Z" fill="#FFC64D"/>
      <path stroke="#233750" stroke-width=".917" opacity=".5" d="M596.062 494.14h46.471M647.002 494.14h5.155M784.48 476.489h-6.373l111.558.18h5.725M676.024 476.579h8.009M686.729 476.579h3.673"/>
      <path fill="#FEFCFF" d="M620.693 438.882h7.866v-1.155h-7.866M652.063 438.882h7.866v-1.155h-7.866"/>
      <path stroke="#233750" stroke-width=".917" opacity=".5" d="M570.818 494.14h5.156M765.651 476.579h8.009M758.431 476.579h3.673M744.986 476.579h3.674M899.594 476.579h3.673M545.566 476.579h3.673"/>
      <path stroke="#4A5D87" stroke-width=".917" opacity=".5" d="M577.334 476.489h-22.479"/>
      <g transform="translate(689.404 188)">
        <path d="M79.207 23.075c-1.665-1.072-2.324-1.798-1.976-2.178.565-.618 7.852-1.016 15.83 3.394 7.234 4 10.282 10.917 10.069 11.786-.142.579-.671.579-1.587 0L79.207 23.075Z" fill="#ED6E2D"/>
        <path d="M81.865 18.562c-2.3 1.57-3.463 6.602-4.734 7.875-1.27 1.274-6.036 8.78-4.804 14.16.658 2.875 1.749 4.76 3.633 6.428 1.642 1.454 3.894 2.67 4.147 2.823.182.11 1.092 2.325.392 5.197-.462 1.893-1.97 5.789-4.526 11.688-1.348 1.427-1.166 1.925.547 1.495 2.569-.645 20.991-9.947 21.732-15.53.74-5.584-.42-13.127 1.443-15.567 1.862-2.44 4.324-1.306 5.639-7.428 1.315-6.121-3.21-15.896-8.823-16.24-5.614-.342-12.346 3.53-14.646 5.1Z" fill="#FFD5B5"/>
        <path d="M79.143 22.681c.11 1.056.954 1.73 2.534 2.02 2.37.437 7.717-1.14 9.571.452 1.855 1.592.86 2.414 3.148 3.363 2.288.95 3.197 4.138 1.783 5.655-1.413 1.517-1.677.248-5.27 3.337-1.125.967-5.069 4.627-7.125 4.06-1.007-.279-1.499-2.73-5.876-5.54-2.314-1.485-3.812-2.218-4.724-1.857-.09.035 1.774-4.455 1.151-3.664-.622.79-4.77 7.812-1.404 13.392 3.365 5.58 5.63 5.206 7.46 5.206s3.154-.095 5.804-2.308c2.65-2.213 4.687-4.533 5.383-5.734.696-1.2 4.14-5.764 6.234-6.092 2.094-.329.905 3.895.905 4.76 0 .866-.742 4.838.215 3.826s1.14-2.454 1.14-3.826c0-1.37.492-3.326 1.47-4.043.98-.717 1.61-1.052 1.945-1.903.336-.85-2.06-7.289-3.415-7.96-.904-.448-7.145-2.961-18.723-7.54-1.798 1.335-2.698 2.196-2.698 2.583s.164.991.492 1.813Z" fill="#692C1F"/>
        <path d="M39.173 143.21c10.665 2.024 18.513 2.699 23.544 2.024 5.031-.675 9.45-22.251 13.256-64.73L51.98 94.56l-6.896 15.768-5.91 14.519-1.908 14.284 1.907 4.078Z" fill="#6195E5"/>
        <path d="M79 57.871c-1.747 6.303-3.12 10.122-4.087 11.475-.134.187-.36.502-.661.926-2.929 4.106-13.126 18.403-18.751 25.75-2.782 3.633-11.833 15.45-15.099 33.43-1.241 6.833-1.248 11.949-.007 16.848.576 2.274.293 10.295-.888 24.071H33.76c-1.91-18.169.46-35.663 7.106-52.483 9.89-25.026 30.68-49.622 31.152-50.05.128-.115.288-.407.368-.71.047-.18.077-.375 0-.532-.482-.253-.758-.26-1.12-.212-1.762.23-3.068.218-3.92-.012a4.79 4.79 0 0 1-.69-.25c.156-.169.315-.338.475-.508 1.872-1.982 3.687-3.65 5.443-5.008a23.236 23.236 0 0 1 6.661-3.595c-.077.282-.155.569-.236.86Z" stroke="#233750" stroke-width=".917" fill="#FFBA31"/>
        <path d="M70.154 63.189c-12.001 7.404-19.071 11.689-21.21 12.854-3.208 1.747-6.728 2.682-7.4 2.682-.303 0-1.871 5.8-5.922 14.786-1.28 2.84-3.826 7.677-7.636 14.51 1.596.97 2.816 1.548 3.66 1.737 4.68 1.047 6.012.333 6.012.333l.692-1.648 7.825-1.265 27.801-25.043 1.997-18.11-5.82-.836Z" fill="#4377C7"/>
        <path d="M30.853 107.112c2.865.726 4.936 1.09 6.214 1.09 1.278 0 1.842-.364 1.693-1.09l7.064-1.299 5.633-5.855.523 1.322-.664 1.375-4.858 4.457-7.476 1.313-1.324 1.666-6.012-.333-3.087-1.557 2.294-1.09Z" fill="#FFF"/>
        <path d="M70.154 63.189c-12.001 7.404-19.071 11.689-21.21 12.854-3.208 1.747-6.728 2.682-7.4 2.682-.303 0-1.871 5.8-5.922 14.786-1.28 2.84-3.826 7.677-7.636 14.51 1.596.97 2.816 1.548 3.66 1.737 4.68 1.047 6.012.333 6.012.333l.692-1.648 7.825-1.265 27.801-25.043 1.997-18.11-5.82-.836Z" stroke="#233750" stroke-width=".917"/>
        <path d="M28.209 108.421c-5.097-.796-8.51-2.479-10.572-4.953-2.09-2.507-2.652-5.836-1.619-10.009 1.525-5.302 3.336-10.088 5.437-14.375 2.094-4.27 6.004-11.163 11.733-20.675.779-1.41 1.29-2.4 1.533-2.973.869-2.049 1.105-3.272 1.105-3.603 0-.502.34-3.262 1.026-8.281l11.625-3.44c3.198 1.252 5.096 2.84 5.782 4.695.66 1.788.517 4.803-.497 9.058-2.78.652-4.328 1.28-4.901 2.364-.647 1.223-3.404 6.93-5.504 13.87-.569 1.88-.898 4.277-1.158 6.155-.154 1.11-.285 2.045-.422 2.602-4.215 17.109-8.781 26.91-13.568 29.565Z" stroke="#233750" stroke-width=".917" fill="#FFD5B5"/>
        <path d="M37.266 57.898c-4.115 5.148-14.038 26.264-15.399 30.504-1.305 4.068-5.529 11.572 2.424 18.71-2.773-.911-4.874-2.224-6.302-3.938-2.006-2.407-2.515-5.609-1.526-9.605 1.513-5.258 3.314-10.019 5.404-14.283 2.09-4.264 5.995-11.144 11.714-20.64.795-1.439 1.315-2.449 1.562-3.031.912-2.15 1.142-3.435 1.142-3.782 0-.488.327-3.13.981-7.925l1.463-.434c1.581 6.417 1.094 11.225-1.463 14.424Z" fill="#FFF"/>
        <path d="M135.654 282.336c-9.377-8.349-20.825-20.748-34.343-37.2-13.436-16.353-33.588-46.885-60.45-91.598-.163-.27-.325-.54-.48-.805l.928.113c19.85 2.407 35.18 3.332 45.99 2.77 10.809-.562 25.713-3.078 44.714-7.545.203-.048.405-.095.606-.14l-.044.619c-1.969 27.766-1.97 49.875-.002 66.327 1.215 10.15 6.132 32.289 14.746 66.417l-11.665 1.042Z" stroke="#233750" stroke-width=".917" fill="#E2A602"/>
        <path d="m93.602 222.351-.009.01c-1.59 1.678.57 6.622 6.48 14.831 6.699 9.302 19.18 24.14 37.444 44.516l-1.706.153c-9.336-8.335-20.718-20.674-34.146-37.017-4.101-4.991-8.864-11.305-14.289-18.94l6.226-3.553Z" fill="#FFF"/>
        <path d="M89.941 162.737c4.71 21.827 10.006 39.488 15.887 52.982 5.881 13.495 17.759 35.24 35.633 65.236" stroke="#934F09" stroke-width="1.284" opacity=".5" stroke-dasharray="5.503680610656738,3.669120597839355"/>
        <path d="M147.796 280.684c.77 2.559 1.567 5.17 2.392 7.837H114.18c-.008-1.33.552-2.19 1.68-2.579.785-.27 5.286-.576 11.145-1.555 1.585-.265 4.23-1.01 7.932-2.235l.874-.29-.165-.148Z" fill="#692C1F"/>
        <path d="M103.233 208.15c-9.314 13.413-25.96 38.05-49.941 73.91l-13.618-.557c-2.593-33.373-3.548-58.707-2.866-76.002a1787.638 1787.638 0 0 1 2.835-52.23c19.01 1.883 35.596 2.57 50.27 1.636 14.667-.934 28.695-3.211 42.085-6.832l.75-.202c-.06.252-.123.504-.185.756-4.48 17.966-14.253 37.808-29.33 59.521Z" stroke="#233750" stroke-width=".917" fill="#FFC64D"/>
        <path d="m39.055 282.113 14.686.431c-1.324 2.052-2.66 4.127-4.008 6.224H18.445c-1.371-1.046-1.139-2.009.697-2.888 1.28-.612 8.215-.705 14.644-1.924 1.501-.285 3.258-.9 5.27-1.843Z" fill="#692C1F"/>
        <path d="M40.1 153.302c.993.124 1.98.243 2.962.357-1.749 12.96-3.002 31.036-3.759 54.23-.808 24.76.192 49.197 3 73.314l-2.247-.118.044-.023c-2.568-33.15-3.513-58.33-2.834-75.543a1787.18 1787.18 0 0 1 2.834-52.217Z" fill="#FFF"/>
        <path d="M81.813 155.464c-2.719 16.805-6.254 32.784-10.606 47.935-4.352 15.152-12.813 40.937-25.383 77.357" stroke="#D38F18" stroke-width="1.284" stroke-dasharray="5.503680610656738,3.669120597839355"/>
        <path d="M131.142 86.01c5.766 14.511 6.256 35.371 1.427 62.588-6.911 6.594-15.808 12.002-26.833 16.471-10.985 4.453-24.757 8.566-41.317 12.336-6.397-31.352-6.079-57.24.382-78.025 3.225-10.377 5.827-18.137 7.806-23.28.998-2.591 1.84-4.523 2.523-5.796.358-.668.679-1.162.955-1.484.36-.419.68-.567.938-.583 8.45-2.965 14.292-5.846 17.513-8.662 3.528-3.085 5.135-6.315 4.733-9.723l2.551 2.46c13.774 7.929 23.547 19.162 29.322 33.698Z" stroke="#233750" stroke-width=".917" fill="#FFBA31"/>
        <path d="m69.718 175.693-.961.23c-1.457.347-2.937.692-4.44 1.034-3.516-18.643-4.8-35.435-3.849-50.375 3.436 26.033 6.519 42.403 9.25 49.11Z" fill="#FFF"/>
        <path d="M46.06 144.189c-.592-.8-.07-4.633 1.565-11.499 1.108-4.65 6.366-20.083 7.246-22.361 1.257-3.254-1.434 3.985-4.266 14.204-1.389 5.011-2.903 11.563-4.544 19.656Z" fill="#194A94" opacity=".3"/>
        <g transform="rotate(-113 100.76 72.358)">
          <path d="M154.205 37.287H21.087l-.265-21.613H153.94l.265 21.613Z" stroke="#233750" stroke-width=".917" fill="#64529A"/>
          <rect fill="#AF9BF0" x="43.286" y="19.969" width="89.627" height="13.444" rx="4.586"/>
          <circle stroke="#233750" stroke-width=".917" fill="#64529A" cx="20.205" cy="27.253" r="19.708"/>
          <circle stroke="#233750" stroke-width=".917" fill="#A993F0" cx="20.205" cy="27.253" r="8.504"/>
          <path d="M166.777 1.693c8.356 0 15.717 4.364 20.03 10.99l-20.03.66-6.814 12.737 7.176 12.729h20.394c-4.18 7.287-11.91 12.179-20.756 12.179-13.286 0-24.057-11.035-24.057-24.648 0-13.612 10.77-24.647 24.057-24.647Z" fill="#64529A"/>
          <path d="M184.328 12.14c-7.947-6.414-16.061-8.824-24.341-7.23-8.28 1.596-13.266 5.28-14.957 11.054l.685-2.302 4.293-5.323 6.203-4.552 8.384-2.025 7.058.477 5.58 1.912 4.672 2.802 3.682 3.72 1.116 1.958-2.375-.49ZM187.4 38.992l-1.184 1.457c-2.413.507-5.486.613-9.218.32s-7.018-.946-9.859-1.96l20.26.183Z" fill="#FFF"/>
          <path d="M159.324 26.35c2.372 5.23 3.864 8.35 4.475 9.355.61 1.006 1.61 1.922 2.997 2.748l-7.472-12.103Z" fill="#FFF" opacity=".5"/>
          <g stroke="#233750" stroke-width=".917">
            <path d="M166.777 1.693c8.356 0 15.717 4.364 20.03 10.99l-20.03.66-6.814 12.737 7.176 12.729h20.394c-4.18 7.287-11.91 12.179-20.756 12.179-13.286 0-24.057-11.035-24.057-24.648 0-13.612 10.77-24.647 24.057-24.647Z"/>
          </g>
        </g>
        <path d="M89.941 93.884c4.41-6.116 9.406-11.262 14.986-15.439s11.37-6.584 17.373-7.222a73.592 73.592 0 0 1 9.588 18.384c2.344 6.613 2.738 13.52 1.18 20.722l3.583 2.635c-1.174 2.83-2.165 4.878-2.973 6.14-.808 1.264-2.225 2.982-4.25 5.154-1.009-1.815-4.15-3.533-9.426-5.153-5.276-1.62-14.22-3.615-26.83-5.984v-1.742a46.218 46.218 0 0 0-.72-6.92c-.402-2.18-1.239-5.704-2.51-10.575Z" stroke="#233750" stroke-width=".917" fill="#6195E5"/>
        <path d="M114.295 135.806c-5.847 2.436-13.606 3.335-23.275 2.674-7.995-.394-15.754-1.787-23.277-4.178-7.654-2.432-12.37-5.488-14.236-9.09-1.142-1.954-1.54-4.177-1.179-6.671.395-2.726 1.368-5.372 2.925-7.938l2.736 6.449c.007.044.173.932.787 1.583.285.303.674.552 1.202.613l.596.074c2.478.317 8.718 1.113 16.973-.294 5.98-1.019 11.098-3.108 15.351-6.274 15.11 2.925 24.499 5.049 28.533 6.288 4.159 1.277 6.935 2.943 8.37 4.95-4.489 5.626-9.648 9.373-15.506 11.814Z" stroke="#233750" stroke-width=".917" fill="#FFD5B5"/>
        <path d="m55.189 111.546.91 1.438c.006.113.002.211-.01.297-.594 4.008-1.579 6.423.105 9.707 2.194 4.28 9.07 9.334 24.616 13.96a90.232 90.232 0 0 1-12.928-3.083c-7.486-2.379-12.142-5.334-13.969-8.867-1.1-1.871-1.476-4.002-1.13-6.392.345-2.39 1.147-4.743 2.406-7.06Z" fill="#FFF"/>
        <path d="M77.099 68.064c2.912.424 4.443 1.87 4.593 4.335.15 2.466.308 5.786.475 9.959 5.51-4.69 10.116-9.815 13.82-15.375 3.704-5.56 5.556-10.327 5.556-14.302l-2.336-3.576c.114 2.924-1.3 5.73-4.24 8.415-2.941 2.685-8.897 6.2-17.868 10.544Z" stroke="#233750" stroke-width=".917" fill="#6195E5"/>
        <path d="M81.677 20.607c2.489-6.456 5.777-9.683 9.865-9.683 6.131 0 14.248 4.015 15.365 10.814.745 4.533-.51 9.383-3.767 14.55-.178-1.428-.807-2.852-1.887-4.273a78.465 78.465 0 0 0-3.468-4.238c-.338-.825-.6-1.42-.786-1.782-.611-1.194-2.188-2.148-2.708-2.464-4.375-2.652-8.58-3.627-12.614-2.924Z" fill="#FFC64D"/>
        <path d="m83.1 17.586 2.736-.766c2.456-3.931 5.124-5.896 8.003-5.896 2.879 0 4.505.545 4.878 1.636-2.024.494-3.65 1.223-4.878 2.188-1.228.965-1.838 2.176-1.828 3.634 1.954 1.426 3.424 2.985 4.412 4.677.989 1.692 1.443 2.92 1.362 3.686-9.79-5.294-14.684-8.081-14.684-8.363v-.796Z" fill="#E7AE34"/>
        <path d="M75.947 20.284c-.781-2.215.208-3.27 2.966-3.168 4.138.154 8.008 1.64 11.578 3.406 3.57 1.766 5.224 3.082 6.354 4.203.752.748 1.066 1.762.94 3.041-1.015-.842-2.32-1.782-3.914-2.819-1.594-1.037-4.002-2.512-7.225-4.425l-8.76-.619-1.94.381Z" fill="#F4BF57"/>
        <path d="M86.518 19.424c7.484 2.97 11.24 5.75 11.267 8.34a23.103 23.103 0 0 0-4.725-3.473c-7.977-4.41-15.264-4.012-15.829-3.394-.099.108.005.271.069.435.074.19.396.522.968.999l-.292-.081c-.896-.772-1.45-1.348-1.661-1.728-.33-.595-.532-1.165-.183-1.848.655-1.284 3.044-2.163 10.386.75Z" fill="#F1A83B"/>
        <path d="M79.604 56.118a142.294 142.294 0 0 1-1.602 5.537 209.72 209.72 0 0 1-2.029 6.228c-.506-2.327-1.229-3.682-2.169-4.066-.94-.385-3.81-.275-8.611.329 4.49-2.547 7.499-4.261 9.027-5.143a111.714 111.714 0 0 1 5.384-2.885Z" stroke="#233750" stroke-width=".917" fill="#90B8F6"/>
        <path d="M98.917 38.208c-1.39 2.484-3.158 3.726-5.308 3.726-3.223 0 1.287.705 3.062-.428 1.184-.756 1.932-1.855 2.246-3.298Z" fill="#BA7642"/>
        <path d="M60.43 155.744a394.59 394.59 0 0 1-8.823-.736c-2.44-.235-6.294-.652-11.559-1.25-.301-2.92-.3-4.714-.405-5.858-.108-1.175-.095-2.755.042-4.74.012-.179.025-.354.039-.526l.513.109c4.215.89 7.564 1.469 10.047 1.734 2.582.275 5.724.418 9.426.431l.72 10.836Z" stroke="#233750" stroke-width=".917" fill="#692C1F"/>
        <circle fill="#FFEFD6" cx="43.422" cy="148.414" r="1.12"/>
        <circle fill="#FFEFD6" cx="50.817" cy="149.31" r="1.12"/>
        <circle fill="#FFEFD6" cx="57.315" cy="149.982" r="1.12"/>
        <path d="M98.746 106c7.728.167 14.834.846 21.318 2.037 6.484 1.191 12.013 2.834 16.587 4.927-2.486-2.367-6.584-4.19-12.292-5.47-5.708-1.279-14.246-1.777-25.613-1.494ZM42.016 81.432l-3.598 26.438c.469.012.954-1.458 1.454-4.409.5-2.95 1.216-10.294 2.144-22.029Z" fill="#233750"/>
        <path d="M36.59 169.913h-2.415c-.512-6.57-.71-11.651-.594-15.242.116-3.59.642-8.67 1.579-15.24-.187 8.577-.187 14.863 0 18.857.187 3.995.664 7.87 1.43 11.625Z" fill="#FFF"/>
      </g>
    </g>
  </g>
</svg>
