<?xml version="1.0" encoding="UTF-8"?>
<svg width="50px" height="50px" viewBox="0 0 50 50" version="1.1" xmlns="http://www.w3.org/2000/svg" xmlns:xlink="http://www.w3.org/1999/xlink">
    <!-- Generator: Sketch 63.1 (92452) - https://sketch.com -->
    <title>visible</title>
    <desc>Created with Sketch.</desc>
    <g id="visible" stroke="none" stroke-width="1" fill="none" fill-rule="evenodd">
        <g id="hidden-icon" transform="translate(0.000000, 8.000000)" fill="#c0c2db" fill-rule="nonzero">
            <path d="M24.9563164,0.945419103 C35.4060296,0.945419103 43.6497796,5.89830821 49.5071717,15.6406872 L49.5071717,15.6406872 L50,16.4603899 L49.5791392,17.3189739 C44.5740697,27.5296481 36.2949284,32.7192982 24.9988756,32.7192982 C13.7064473,32.7192982 5.42802625,27.5739937 0.421226901,17.4461897 L0.421226901,17.4461897 L2.48505216e-10,16.5941277 L0.483035054,15.7752593 C6.28157283,5.94524931 14.5003025,0.945419103 24.9563164,0.945419103 Z M24.9563164,4.46898262 C16.2109181,4.46898262 9.36215761,8.39356921 4.25095261,16.3902943 L4.25095261,16.3902943 L4.03102307,16.7397926 L4.18487455,17.0278599 C8.52413646,25.0018285 15.1772028,29.0113877 24.3545008,29.1895216 L24.3545008,29.1895216 L24.9988756,29.1957347 C34.5063852,29.1957347 41.368425,25.153487 45.81005,16.9214176 L45.81005,16.9214176 L45.963191,16.6288003 L45.7298811,16.2646959 C40.6962739,8.54662441 34.0322573,4.6608749 25.5926207,4.4759175 L25.5926207,4.4759175 Z M24.9988756,7.99254614 C29.8825738,7.99254614 33.8415934,11.9364289 33.8415934,16.8014549 C33.8415934,21.6664809 29.8825738,25.6103637 24.9988756,25.6103637 C20.1151774,25.6103637 16.1561578,21.6664809 16.1561578,16.8014549 C16.1561578,11.9364289 20.1151774,7.99254614 24.9988756,7.99254614 Z M24.9988756,11.5161097 C22.0686567,11.5161097 19.6932449,13.8824393 19.6932449,16.8014549 C19.6932449,19.7204705 22.0686567,22.0868002 24.9988756,22.0868002 C27.9290945,22.0868002 30.3045063,19.7204705 30.3045063,16.8014549 C30.3045063,13.8824393 27.9290945,11.5161097 24.9988756,11.5161097 Z" id="Combined-Shape"></path>
        </g>
    </g>
</svg>
