<?xml version="1.0" encoding="UTF-8"?>
<svg width="18px" height="19px" viewBox="0 0 18 19" version="1.1" xmlns="http://www.w3.org/2000/svg" xmlns:xlink="http://www.w3.org/1999/xlink">
    <!-- Generator: Sketch 63.1 (92452) - https://sketch.com -->
    <title>ShapeFilter</title>
    <desc>Created with Sketch.</desc>
    <g id="Page-1" stroke="none" stroke-width="1" fill="none" fill-rule="evenodd">
        <g id="Employee-List_View" transform="translate(-350.000000, -146.000000)" fill="#FD4B92" fill-rule="nonzero">
            <g id="Filter" transform="translate(342.000000, 138.000000)">
                <path d="M11.6,16.2606176 L11.6,9.6 C11.6,9.26879412 11.3312059,9 11,9 C10.6687941,9 10.4,9.26882353 10.4,9.6 L10.4,16.2605882 C9.03079412,16.5384118 8,17.7486471 8,19.2000294 C8,20.6514118 9.03079412,21.8616176 10.4,22.1394118 L10.4,25.2000294 C10.4,25.5312059 10.6687941,25.7999706 11,25.7999706 C11.3312059,25.7999706 11.6,25.5311765 11.6,25.2000294 L11.6,22.1394412 C12.9692059,21.8616471 14,20.6514412 14,19.2000588 C14,17.7486765 12.9692059,16.5384118 11.6,16.2606176 Z M11,21 C10.0057941,21 9.2,20.1942353 9.2,19.2000294 C9.2,18.2058235 10.0057941,17.4 11,17.4 C11.9942059,17.4 12.8,18.2058235 12.8,19.2000294 C12.8,20.1942353 11.9942059,21 11,21 Z M17.6,10.2606176 L17.6,9.6 C17.6,9.26879412 17.3311765,9 17,9 C16.6688235,9 16.4,9.26879412 16.4,9.6 L16.4,10.2605882 C15.0307941,10.5383824 14,11.7485882 14,13.2 C14,14.6514118 15.0307941,15.8615882 16.4,16.1393824 L16.4,25.2 C16.4,25.5311765 16.6687941,25.7999412 17,25.7999412 C17.3312059,25.7999412 17.6,25.5311471 17.6,25.2 L17.6,16.1394118 C18.9692059,15.8616176 20,14.6514118 20,13.2000294 C20,11.7486471 18.9692059,10.5384118 17.6,10.2606176 Z M17,15 C16.0057941,15 15.2,14.1942059 15.2,13.2 C15.2,12.2057941 16.0057941,11.4 17,11.4 C17.9942059,11.4 18.8,12.2057941 18.8,13.2 C18.8,14.1942059 17.9942059,15 17,15 Z M23.6,18.6606176 L23.6,9.6 C23.6,9.26879412 23.3311765,9 23,9 C22.6688235,9 22.4,9.26879412 22.4,9.6 L22.4,18.6606176 C21.0307941,18.9384118 20,20.1486176 20,21.6 C20,23.0513824 21.0307941,24.2615882 22.4,24.5393824 L22.4,25.2 C22.4,25.5311765 22.6688235,25.7999412 23,25.7999412 C23.3311765,25.7999412 23.6,25.5311471 23.6,25.2 L23.6,24.5394118 C24.9692059,24.2616176 26,23.0514118 26,21.6000294 C26,20.1486471 24.9692059,18.9384412 23.6,18.6606176 Z M23,23.4 C22.0057941,23.4 21.2,22.5942353 21.2,21.6000294 C21.2,20.6058235 22.0057941,19.8 23,19.8 C23.9942059,19.8 24.8,20.6058235 24.8,21.6000294 C24.8,22.5942353 23.9942059,23.4 23,23.4 Z" id="Shape" transform="translate(17.000000, 17.399985) scale(-1, 1) rotate(90.000000) translate(-17.000000, -17.399985) "></path>
            </g>
        </g>
    </g>
</svg>