<?xml version="1.0" encoding="UTF-8"?>
<svg width="167px" height="87px" viewBox="0 0 167 87" version="1.1" xmlns="http://www.w3.org/2000/svg" xmlns:xlink="http://www.w3.org/1999/xlink">
    <!-- Generator: Sketch 63.1 (92452) - https://sketch.com -->
    <title>NoSearchResultEmpty state</title>
    <desc>Created with Sketch.</desc>
    <g id="NoSearchResult" stroke="none" stroke-width="1" fill="none" fill-rule="evenodd">
        <path d="M160,0 C163.865993,0 167,3.13400675 167,7 C167,10.8659932 163.865993,14 160,14 L120,14 C123.865993,14 127,17.1340068 127,21 C127,24.8659932 123.865993,28 120,28 L142,28 C145.865993,28 149,31.1340068 149,35 C149,38.8659932 145.865993,42 142,42 L131.826087,42 C126.951574,42 123,45.1340068 123,49 C123,51.5773288 125,53.9106622 129,56 C132.865993,56 136,59.1340068 136,63 C136,66.8659932 132.865993,70 129,70 L46,70 C42.1340068,70 39,66.8659932 39,63 C39,59.1340068 42.1340068,56 46,56 L7,56 C3.13400675,56 0,52.8659932 0,49 C0,45.1340068 3.13400675,42 7,42 L47,42 C50.8659932,42 54,38.8659932 54,35 C54,31.1340068 50.8659932,28 47,28 L22,28 C18.1340068,28 15,24.8659932 15,21 C15,17.1340068 18.1340068,14 22,14 L62,14 C58.1340068,14 55,10.8659932 55,7 C55,3.13400675 58.1340068,0 62,0 L160,0 Z M160,28 C163.865993,28 167,31.1340068 167,35 C167,38.8659932 163.865993,42 160,42 C156.134007,42 153,38.8659932 153,35 C153,31.1340068 156.134007,28 160,28 Z" id="Background" fill="#FFF1F7"></path>
        <g id="Search" transform="translate(40.000000, 1.000000)" stroke-width="2.5">
            <circle id="Oval" stroke="#39B2C2" fill="#F2FEFF" cx="33.5" cy="33.5" r="33.5"></circle>
            <path d="M28.1320801,59.4938965 C29.890814,59.818529 31.6801207,59.9872302 33.5,60 C48.1355459,60 60,48.1355459 60,33.5 C60,18.8644541 48.1355459,7 33.5,7 C29.7403616,7 26.1635859,7.78292845 22.9238202,9.19463803 C17.293841,11.6478697 12.681584,15.9999304 9.89598776,21.4418818 C8.04450607,25.0589434 7,29.157493 7,33.5 C7,37.4400034 7.85985082,41.1791779 9.40213862,44.5401097 C10.5032232,46.9395777 11.9521427,49.1462571 13.6843385,51.0955896" id="Oval" stroke="#39B2C2" fill="#FFFFFF"></path>
            <path d="M16.7974263,54.0747242 C18.9455459,55.8207047 21.3723828,57.2370261 24.0008698,58.2466213" id="Oval" stroke="#39B2C2" fill="#F2FEFF"></path>
            <path d="M34,15 C32.2773142,15 30.6081757,15.2292632 29.0214315,15.6589426 C20.9428274,17.8465728 15,25.2292755 15,34" id="Oval" stroke="#39B2C2" fill="#F2FEFF"></path>
            <line x1="61" y1="60" x2="67" y2="66" id="Path-4" stroke="#39B2C2" fill="#F2FEFF"></line>
            <path d="M65.1464087,64.1464087 C67.5272785,61.7655388 71.3874312,61.7655388 73.7683011,64.1464087 L84.8535913,75.2316989 C87.2344612,77.6125688 87.2344612,81.4727215 84.8535913,83.8535913 C82.4727215,86.2344612 78.6125688,86.2344612 76.2316989,83.8535913 L65.1464087,72.7683011 C62.7655388,70.3874312 62.7655388,66.5272785 65.1464087,64.1464087 Z" id="Rectangle" stroke="#39B2C2" fill="#F2FEFF"></path>
            <line x1="71" y1="67" x2="82" y2="78" id="Line" stroke="#A9E6EB" stroke-linecap="round"></line>
        </g>
        <path d="M133.857143,26.9701053 L116.330835,26.9701053 M141,26.9701053 L138.733478,26.9701053 M127.403858,34.5149474 L119.061224,34.5149474" id="Line-8" stroke="#FFA6CA" stroke-width="2.5" stroke-linecap="round" stroke-linejoin="round"></path>
        <path d="M32.3497633,47.9730141 L15.267816,47.9730141 M9.47541581,47.9730141 L5.27728542,47.9730141 M37,56.513493 L28.8688843,56.513493" id="Line-8" stroke="#FFA6CA" stroke-width="2.5" stroke-linecap="round" stroke-linejoin="round"></path>
    </g>
</svg>