<?xml version="1.0" encoding="UTF-8"?>
<svg width="512px" height="512px" viewBox="0 0 512 512" version="1.1" xmlns="http://www.w3.org/2000/svg" xmlns:xlink="http://www.w3.org/1999/xlink">
    <!-- Generator: Sketch 55.2 (78181) - https://sketchapp.com -->
    <title>Artboard</title>
    <desc>Created with Sketch.</desc>
    <g id="Artboard" stroke="none" stroke-width="1" fill-rule="evenodd">
        <g id="folder-open" transform="translate(0.000000, 40.000000)" fill-rule="nonzero">
            <path d="M43.1907898,431.963424 C19.35145,431.963432 0.0201857238,412.646054 0,388.803658 L0,43.1597663 C0.0201857238,19.3173703 19.35145,0 43.1907898,0 L170.733448,0 C186.824852,0 201.563114,8.92456185 209.005388,23.1709423 L216.959662,38.3500127 C219.446515,43.1049022 224.365364,46.0858522 229.72307,46.0858522 L417.535349,46.0858522 C428.993426,46.0810005 439.983871,50.6298888 448.087671,58.7313003 C456.19147,66.8327118 460.744425,77.822643 460.744424,89.2821946 L460.726139,115.196342 L468.808412,115.196342 C481.750677,115.196215 494.010904,121.000682 502.214534,131.012098 C510.418164,141.023514 513.700486,154.186616 511.15806,166.878334 L465.078132,397.271019 C461.042348,417.462793 443.317085,432 422.728484,432 L43.1907898,432 L43.1907898,431.963424 Z M468.808412,143.999998 L95.5975652,143.999998 C88.7338461,143.999998 82.8241068,148.844433 81.4810158,155.576327 L35.4010877,385.969012 C34.551272,390.19991 35.6445003,394.588917 38.3795374,397.926658 C41.1145745,401.264399 45.2027704,403.196344 49.5176371,403.196344 L422.728484,403.196344 C429.592203,403.196344 435.501942,398.351909 436.845033,391.620015 L482.924961,161.22733 C483.774777,156.996433 482.681549,152.607426 479.946511,149.269685 C477.211474,145.931943 473.123279,143.999998 468.808412,143.999998 L468.808412,143.999998 Z M170.751734,28.7853689 L43.1725041,28.7853689 C39.3526471,28.7853689 35.6895082,30.3042444 32.9901769,33.0073531 C30.2908456,35.7104617 28.7768157,39.3759974 28.7816694,43.1963424 L28.7633837,272.217424 L53.2296313,149.925324 C57.2654154,129.73355 74.9906787,115.197884 95.5792795,115.196342 L431.907898,115.196342 L431.907898,89.2639065 C431.907898,81.3150462 425.464902,74.8712217 417.517063,74.8712217 L229.72307,74.8712217 C213.648453,74.8722461 198.903165,65.9450214 191.45113,51.7002794 L183.496857,36.521209 C181.016183,31.7653179 176.096882,28.7853689 170.733448,28.7853689 L170.751734,28.7853689 Z" id="Shape"></path>
        </g>
    </g>
</svg>
