<svg xmlns="http://www.w3.org/2000/svg" width="33" height="28" viewBox="0 0 33 28">
    <path fill="#8CA1AD" fill-rule="nonzero" d="M2.923 27.78a2.756 2.756 0 0 1-2.756-2.756V2.976A2.756 2.756 0 0 1 2.923.221h8.137c1.026 0 1.966.569 2.442 1.477l.507.97a.919.919 0 0 0 .814.492h11.984a2.756 2.756 0 0 1 2.756 2.756V7.57h.514a2.756 2.756 0 0 1 2.703 3.296l-2.94 14.698a2.756 2.756 0 0 1-2.702 2.215H2.923zM30.077 9.406H6.266a.919.919 0 0 0-.9.738l-2.94 14.698a.919.919 0 0 0 .9 1.1h23.812c.438 0 .815-.31.9-.74l2.94-14.697a.919.919 0 0 0-.9-1.1zM11.06 2.057H2.923a.919.919 0 0 0-.92.92v14.605l1.56-7.797A2.756 2.756 0 0 1 6.267 7.57h21.459V5.916a.919.919 0 0 0-.918-.919H14.823a2.756 2.756 0 0 1-2.441-1.477l-.508-.97a.919.919 0 0 0-.814-.492z"/>
</svg>
