<?xml version="1.0" standalone="no"?><svg xmlns:xlink="http://www.w3.org/1999/xlink" xmlns="http://www.w3.org/2000/svg" viewBox="0 0 1000 600.001898740186" preserveAspectRatio="xMaxYMax slice"><g transform="scale(0.9493700929433322)"><rect x="0" y="0" width="1053.3333333333335" height="632" fill="#ffffff"/><rect x="0" y="0" width="70.22" height="70.22" fill="#d4d4d4"/><polygon points="70.22,0 70.22,70.22 0,70.22" fill="#cdcdcd"/><rect x="70.22" y="0" width="70.22" height="70.22" fill="#e6e6e6"/><polygon points="70.22,0 140.44,70.22 70.22,70.22" fill="#a19e9c"/><rect x="140.44" y="0" width="70.22" height="70.22" fill="#fefefe"/><polygon points="140.44,0 210.66,0 210.66,70.22" fill="#94918f"/><rect x="210.67" y="0" width="70.22" height="70.22" fill="#7d7876"/><rect x="210.67" y="0" width="70.22" height="70.22" fill="#f6f5f5"/><rect x="280.89" y="0" width="70.22" height="70.22" fill="#ececec"/><polygon points="351.11,0 351.11,70.22 280.89,70.22" fill="#afafaf"/><rect x="351.11" y="0" width="70.22" height="70.22" fill="#fdfdfd"/><polygon points="351.11,0 421.33000000000004,70.22 351.11,70.22" fill="#b5b5b5"/><rect x="421.33" y="0" width="70.22" height="70.22" fill="#afafaf"/><path d="M 421.33 0 A 70.22 70.22 0 0 0 491.54999999999995 70.22 L 491.54999999999995 0" fill="#eeeeee"/><rect x="491.56" y="0" width="70.22" height="70.22" fill="#d7d6d5"/><path d="M 491.56 0 A 70.22 70.22 0 0 1 561.78 70.22 L 491.56 70.22" fill="#aeabaa"/><rect x="561.78" y="0" width="70.22" height="70.22" fill="#a7a4a3"/><path d="M 561.78 70.22 A 70.22 70.22 0 0 0 632 0 L 561.78 0" fill="#b5b3b1"/><rect x="632" y="0" width="70.22" height="70.22" fill="#eaeaea"/><path d="M 632 70.22 A 70.22 70.22 0 0 1  702.22 0 L 702.22 70.22" fill="#fdfdfd"/><rect x="702.22" y="0" width="70.22" height="70.22" fill="#efefef"/><path d="M 702.22 70.22 A 70.22 70.22 0 0 0 772.44 0 L 702.22 0" fill="#f1f1f1"/><rect x="772.44" y="0" width="70.22" height="70.22" fill="#edecec"/><polygon points="772.44,0 842.6600000000001,70.22 772.44,70.22" fill="#c6c6c6"/><rect x="842.67" y="0" width="70.22" height="70.22" fill="#d6d4d4"/><polygon points="842.67,0 912.89,0 912.89,70.22" fill="#c4c2c1"/><rect x="912.89" y="0" width="70.22" height="70.22" fill="#c6c3c3"/><polygon points="983.11,0 983.11,70.22 912.89,70.22" fill="#c1bfbe"/><rect x="983.11" y="0" width="70.22" height="70.22" fill="#b1b1b1"/><rect x="983.11" y="0" width="70.22" height="70.22" fill="#b3b3b3"/><rect x="0" y="70.22" width="70.22" height="70.22" fill="#979492"/><polygon points="0,70.22 70.22,70.22 70.22,140.44" fill="#e2e2e2"/><rect x="70.22" y="70.22" width="70.22" height="70.22" fill="#94908e"/><polygon points="70.22,70.22 140.44,140.44 70.22,140.44" fill="#fefefe"/><rect x="140.44" y="70.22" width="70.22" height="70.22" fill="#bebebe"/><rect x="140.44" y="70.22" width="70.22" height="70.22" fill="#e4e4e4"/><rect x="210.67" y="70.22" width="70.22" height="70.22" fill="#e5e4e4"/><polygon points="210.67,70.22 280.89,70.22 210.67,140.44" fill="#d5d3d3"/><rect x="280.89" y="70.22" width="70.22" height="70.22" fill="#c0c0c0"/><polygon points="280.89,70.22 351.11,70.22 280.89,140.44" fill="#cecccb"/><rect x="351.11" y="70.22" width="70.22" height="70.22" fill="#9d9998"/><path d="M 351.11 140.44 A 70.22 70.22 0 0 1  421.33000000000004 70.22 L 421.33000000000004 140.44" fill="#e5e4e4"/><rect x="421.33" y="70.22" width="70.22" height="70.22" fill="#bab7b6"/><polygon points="421.33,70.22 491.54999999999995,140.44 421.33,140.44" fill="#fbfbfb"/><rect x="491.56" y="70.22" width="70.22" height="70.22" fill="#d2d0cf"/><path d="M 491.56 70.22 A 70.22 70.22 0 0 1  561.78 140.44 L 491.56 70.22 A 70.22 70.22 0 0 0 561.78 140.44" fill="#e7e6e5"/><rect x="561.78" y="70.22" width="70.22" height="70.22" fill="#94908f"/><path d="M 561.78 70.22 A 70.22 70.22 0 0 1 632 140.44 L 561.78 140.44" fill="#95918f"/><rect x="632" y="70.22" width="70.22" height="70.22" fill="#777270"/><path d="M 632 70.22 A 70.22 70.22 0 0 1  702.22 140.44 L 632 70.22 A 70.22 70.22 0 0 0 702.22 140.44" fill="#928e8d"/><rect x="702.22" y="70.22" width="70.22" height="70.22" fill="#9a9695"/><path d="M 702.22 140.44 A 70.22 70.22 0 0 1  772.44 70.22 L 772.44 140.44" fill="#c4c4c4"/><rect x="772.44" y="70.22" width="70.22" height="70.22" fill="#faf9f9"/><rect x="772.44" y="70.22" width="70.22" height="70.22" fill="#d9d9d9"/><rect x="842.67" y="70.22" width="70.22" height="70.22" fill="#7a7573"/><path d="M 842.67 70.22 A 70.22 70.22 0 0 0 912.89 140.44 L 912.89 70.22" fill="#86817f"/><rect x="912.89" y="70.22" width="70.22" height="70.22" fill="#cacaca"/><path d="M 912.89 140.44 A 70.22 70.22 0 0 1  983.11 70.22 L 983.11 140.44" fill="#bbb9b8"/><rect x="983.11" y="70.22" width="70.22" height="70.22" fill="#b3b0af"/><rect x="983.11" y="70.22" width="70.22" height="70.22" fill="#dbdad9"/><rect x="0" y="140.44" width="70.22" height="70.22" fill="#f9f9f9"/><path d="M 0 210.66 A 70.22 70.22 0 0 1  70.22 140.44 L 70.22 210.66" fill="#d4d4d4"/><rect x="70.22" y="140.44" width="70.22" height="70.22" fill="#8d8987"/><rect x="70.22" y="140.44" width="70.22" height="70.22" fill="#ededed"/><rect x="140.44" y="140.44" width="70.22" height="70.22" fill="#94908f"/><rect x="140.44" y="140.44" width="70.22" height="70.22" fill="#acacac"/><rect x="210.67" y="140.44" width="70.22" height="70.22" fill="#8a8684"/><rect x="210.67" y="140.44" width="70.22" height="70.22" fill="#ededed"/><rect x="280.89" y="140.44" width="70.22" height="70.22" fill="#c9c9c9"/><rect x="280.89" y="140.44" width="70.22" height="70.22" fill="#d0d0d0"/><rect x="351.11" y="140.44" width="70.22" height="70.22" fill="#cbcbcb"/><polygon points="351.11,140.44 421.33000000000004,140.44 421.33000000000004,210.66" fill="#aeaeae"/><rect x="421.33" y="140.44" width="70.22" height="70.22" fill="#8e8a88"/><path d="M 421.33 210.66 A 70.22 70.22 0 0 1  491.54999999999995 140.44 L 421.33 210.66 A 70.22 70.22 0 0 0 491.54999999999995 140.44" fill="#c4c2c1"/><rect x="491.56" y="140.44" width="70.22" height="70.22" fill="#938f8e"/><polygon points="491.56,140.44 561.78,210.66 491.56,210.66" fill="#c3c1c0"/><rect x="561.78" y="140.44" width="70.22" height="70.22" fill="#b6b6b6"/><rect x="561.78" y="140.44" width="70.22" height="70.22" fill="#f7f7f7"/><rect x="632" y="140.44" width="70.22" height="70.22" fill="#b9b9b9"/><polygon points="632,140.44 702.22,140.44 702.22,210.66" fill="#aeaeae"/><rect x="702.22" y="140.44" width="70.22" height="70.22" fill="#e3e2e1"/><rect x="702.22" y="140.44" width="70.22" height="70.22" fill="#8d8987"/><rect x="772.44" y="140.44" width="70.22" height="70.22" fill="#f4f3f3"/><rect x="772.44" y="140.44" width="70.22" height="70.22" fill="#dcdada"/><rect x="842.67" y="140.44" width="70.22" height="70.22" fill="#ecebeb"/><rect x="842.67" y="140.44" width="70.22" height="70.22" fill="#f1f1f1"/><rect x="912.89" y="140.44" width="70.22" height="70.22" fill="#f0f0ef"/><rect x="912.89" y="140.44" width="70.22" height="70.22" fill="#f0f0ef"/><rect x="983.11" y="140.44" width="70.22" height="70.22" fill="#c4c4c4"/><rect x="983.11" y="140.44" width="70.22" height="70.22" fill="#d9d9d9"/><rect x="0" y="210.67" width="70.22" height="70.22" fill="#cfcfcf"/><polygon points="0,210.67 70.22,210.67 70.22,280.89" fill="#a29e9d"/><rect x="70.22" y="210.67" width="70.22" height="70.22" fill="#c3c1c0"/><rect x="70.22" y="210.67" width="70.22" height="70.22" fill="#e5e5e5"/><rect x="140.44" y="210.67" width="70.22" height="70.22" fill="#e1e0e0"/><polygon points="140.44,210.67 210.66,210.67 140.44,280.89" fill="#cccccc"/><rect x="210.67" y="210.67" width="70.22" height="70.22" fill="#c7c7c7"/><path d="M 210.67 210.67 A 70.22 70.22 0 0 1 280.89 280.89 L 210.67 280.89" fill="#888482"/><rect x="280.89" y="210.67" width="70.22" height="70.22" fill="#e6e6e6"/><path d="M 280.89 210.67 A 70.22 70.22 0 0 1 351.11 280.89 L 280.89 280.89" fill="#8d8987"/><rect x="351.11" y="210.67" width="70.22" height="70.22" fill="#d5d5d5"/><path d="M 351.11 280.89 A 70.22 70.22 0 0 0 421.33000000000004 210.67 L 351.11 210.67" fill="#fcfcfc"/><rect x="421.33" y="210.67" width="70.22" height="70.22" fill="#f0f0f0"/><path d="M 421.33 210.67 A 70.22 70.22 0 0 1  491.54999999999995 280.89 L 421.33 210.67 A 70.22 70.22 0 0 0 491.54999999999995 280.89" fill="#cbc9c8"/><rect x="491.56" y="210.67" width="70.22" height="70.22" fill="#f2f2f2"/><polygon points="491.56,210.67 561.78,280.89 491.56,280.89" fill="#f3f3f3"/><rect x="561.78" y="210.67" width="70.22" height="70.22" fill="#e2e0e0"/><rect x="561.78" y="210.67" width="70.22" height="70.22" fill="#ebeaea"/><rect x="632" y="210.67" width="70.22" height="70.22" fill="#9f9b9a"/><rect x="632" y="210.67" width="70.22" height="70.22" fill="#dedddc"/><rect x="702.22" y="210.67" width="70.22" height="70.22" fill="#c5c5c5"/><polygon points="772.44,210.67 772.44,280.89 702.22,280.89" fill="#e3e3e3"/><rect x="772.44" y="210.67" width="70.22" height="70.22" fill="#8b8785"/><path d="M 772.44 280.89 A 70.22 70.22 0 0 1  842.6600000000001 210.67 L 772.44 280.89 A 70.22 70.22 0 0 0 842.6600000000001 210.67" fill="#aca9a8"/><rect x="842.67" y="210.67" width="70.22" height="70.22" fill="#c0bebd"/><path d="M 842.67 210.67 A 70.22 70.22 0 0 1  912.89 280.89 L 842.67 210.67 A 70.22 70.22 0 0 0 912.89 280.89" fill="#d7d7d7"/><rect x="912.89" y="210.67" width="70.22" height="70.22" fill="#7b7674"/><path d="M 912.89 280.89 A 70.22 70.22 0 0 1  983.11 210.67 L 983.11 280.89" fill="#cbcbcb"/><rect x="983.11" y="210.67" width="70.22" height="70.22" fill="#fcfcfc"/><rect x="983.11" y="210.67" width="70.22" height="70.22" fill="#e0e0e0"/><rect x="0" y="280.89" width="70.22" height="70.22" fill="#f6f6f6"/><path d="M 0 280.89 A 70.22 70.22 0 0 0 70.22 351.11 L 70.22 280.89" fill="#bebcbb"/><rect x="70.22" y="280.89" width="70.22" height="70.22" fill="#fafafa"/><path d="M 70.22 351.11 A 70.22 70.22 0 0 1  140.44 280.89 L 70.22 351.11 A 70.22 70.22 0 0 0 140.44 280.89" fill="#b2b2b2"/><rect x="140.44" y="280.89" width="70.22" height="70.22" fill="#b1b1b1"/><rect x="140.44" y="280.89" width="70.22" height="70.22" fill="#eaeaea"/><rect x="210.67" y="280.89" width="70.22" height="70.22" fill="#9f9c9a"/><path d="M 210.67 351.11 A 70.22 70.22 0 0 1  280.89 280.89 L 280.89 351.11" fill="#8d8887"/><rect x="280.89" y="280.89" width="70.22" height="70.22" fill="#777371"/><polygon points="280.89,280.89 351.11,280.89 351.11,351.11" fill="#cdcdcd"/><rect x="351.11" y="280.89" width="70.22" height="70.22" fill="#acacac"/><rect x="351.11" y="280.89" width="70.22" height="70.22" fill="#f8f8f8"/><rect x="421.33" y="280.89" width="70.22" height="70.22" fill="#807b7a"/><polygon points="421.33,280.89 491.54999999999995,280.89 491.54999999999995,351.11" fill="#d0d0d0"/><rect x="491.56" y="280.89" width="70.22" height="70.22" fill="#f3f3f3"/><rect x="491.56" y="280.89" width="70.22" height="70.22" fill="#7d7977"/><rect x="561.78" y="280.89" width="70.22" height="70.22" fill="#f8f7f7"/><path d="M 561.78 280.89 A 70.22 70.22 0 0 1 632 351.11 L 561.78 351.11" fill="#aeaeae"/><rect x="632" y="280.89" width="70.22" height="70.22" fill="#f0efef"/><polygon points="632,280.89 702.22,351.11 632,351.11" fill="#827e7c"/><rect x="702.22" y="280.89" width="70.22" height="70.22" fill="#898583"/><polygon points="702.22,280.89 772.44,280.89 702.22,351.11" fill="#cac8c7"/><rect x="772.44" y="280.89" width="70.22" height="70.22" fill="#d9d9d9"/><polygon points="772.44,280.89 842.6600000000001,280.89 842.6600000000001,351.11" fill="#e1e1e1"/><rect x="842.67" y="280.89" width="70.22" height="70.22" fill="#d6d5d4"/><polygon points="842.67,280.89 912.89,280.89 912.89,351.11" fill="#8a8684"/><rect x="912.89" y="280.89" width="70.22" height="70.22" fill="#d1d1d1"/><polygon points="983.11,280.89 983.11,351.11 912.89,351.11" fill="#d7d7d7"/><rect x="983.11" y="280.89" width="70.22" height="70.22" fill="#e1e1e1"/><path d="M 983.11 280.89 A 70.22 70.22 0 0 1 1053.33 351.11 L 983.11 351.11" fill="#b8b8b8"/><rect x="0" y="351.11" width="70.22" height="70.22" fill="#a5a2a1"/><path d="M 0 421.33000000000004 A 70.22 70.22 0 0 1  70.22 351.11 L 70.22 421.33000000000004" fill="#e2e2e2"/><rect x="70.22" y="351.11" width="70.22" height="70.22" fill="#b4b4b4"/><path d="M 70.22 421.33000000000004 A 70.22 70.22 0 0 1  140.44 351.11 L 140.44 421.33000000000004" fill="#afafaf"/><rect x="140.44" y="351.11" width="70.22" height="70.22" fill="#d5d5d5"/><polygon points="140.44,351.11 210.66,421.33000000000004 140.44,421.33000000000004" fill="#e0dfdf"/><rect x="210.67" y="351.11" width="70.22" height="70.22" fill="#d8d8d8"/><rect x="210.67" y="351.11" width="70.22" height="70.22" fill="#cfcfcf"/><rect x="280.89" y="351.11" width="70.22" height="70.22" fill="#fefdfd"/><rect x="280.89" y="351.11" width="70.22" height="70.22" fill="#bdbbba"/><rect x="351.11" y="351.11" width="70.22" height="70.22" fill="#847f7e"/><rect x="351.11" y="351.11" width="70.22" height="70.22" fill="#e1e0df"/><rect x="421.33" y="351.11" width="70.22" height="70.22" fill="#bfbfbf"/><path d="M 421.33 351.11 A 70.22 70.22 0 0 1  491.54999999999995 421.33000000000004 L 421.33 351.11 A 70.22 70.22 0 0 0 491.54999999999995 421.33000000000004" fill="#cecece"/><rect x="491.56" y="351.11" width="70.22" height="70.22" fill="#c0c0c0"/><polygon points="491.56,351.11 561.78,351.11 491.56,421.33000000000004" fill="#fafafa"/><rect x="561.78" y="351.11" width="70.22" height="70.22" fill="#d2d2d2"/><polygon points="632,351.11 632,421.33000000000004 561.78,421.33000000000004" fill="#c3c3c3"/><rect x="632" y="351.11" width="70.22" height="70.22" fill="#b1aead"/><rect x="632" y="351.11" width="70.22" height="70.22" fill="#b6b6b6"/><rect x="702.22" y="351.11" width="70.22" height="70.22" fill="#797472"/><path d="M 702.22 351.11 A 70.22 70.22 0 0 1  772.44 421.33000000000004 L 702.22 351.11 A 70.22 70.22 0 0 0 772.44 421.33000000000004" fill="#fafafa"/><rect x="772.44" y="351.11" width="70.22" height="70.22" fill="#bfbfbf"/><rect x="772.44" y="351.11" width="70.22" height="70.22" fill="#afafaf"/><rect x="842.67" y="351.11" width="70.22" height="70.22" fill="#d1d1d1"/><rect x="842.67" y="351.11" width="70.22" height="70.22" fill="#f5f5f5"/><rect x="912.89" y="351.11" width="70.22" height="70.22" fill="#c9c7c6"/><path d="M 912.89 351.11 A 70.22 70.22 0 0 1  983.11 421.33000000000004 L 912.89 351.11 A 70.22 70.22 0 0 0 983.11 421.33000000000004" fill="#c8c6c5"/><rect x="983.11" y="351.11" width="70.22" height="70.22" fill="#f8f8f8"/><polygon points="983.11,351.11 1053.33,351.11 1053.33,421.33000000000004" fill="#f2f2f2"/><rect x="0" y="421.33" width="70.22" height="70.22" fill="#d0d0d0"/><polygon points="0,421.33 70.22,491.54999999999995 0,491.54999999999995" fill="#cecece"/><rect x="70.22" y="421.33" width="70.22" height="70.22" fill="#dbdbdb"/><polygon points="70.22,421.33 140.44,491.54999999999995 70.22,491.54999999999995" fill="#908b8a"/><rect x="140.44" y="421.33" width="70.22" height="70.22" fill="#868280"/><rect x="140.44" y="421.33" width="70.22" height="70.22" fill="#f4f3f3"/><rect x="210.67" y="421.33" width="70.22" height="70.22" fill="#dadada"/><polygon points="210.67,421.33 280.89,491.54999999999995 210.67,491.54999999999995" fill="#f8f8f8"/><rect x="280.89" y="421.33" width="70.22" height="70.22" fill="#dad8d8"/><path d="M 280.89 421.33 A 70.22 70.22 0 0 1 351.11 491.54999999999995 L 280.89 491.54999999999995" fill="#eaeaea"/><rect x="351.11" y="421.33" width="70.22" height="70.22" fill="#efefef"/><rect x="351.11" y="421.33" width="70.22" height="70.22" fill="#eeeded"/><rect x="421.33" y="421.33" width="70.22" height="70.22" fill="#bababa"/><path d="M 421.33 491.54999999999995 A 70.22 70.22 0 0 0 491.54999999999995 421.33 L 421.33 421.33" fill="#cdcdcd"/><rect x="491.56" y="421.33" width="70.22" height="70.22" fill="#cecece"/><rect x="491.56" y="421.33" width="70.22" height="70.22" fill="#d7d5d4"/><rect x="561.78" y="421.33" width="70.22" height="70.22" fill="#bfbfbf"/><rect x="561.78" y="421.33" width="70.22" height="70.22" fill="#e7e7e7"/><rect x="632" y="421.33" width="70.22" height="70.22" fill="#e5e5e5"/><rect x="632" y="421.33" width="70.22" height="70.22" fill="#b1b1b1"/><rect x="702.22" y="421.33" width="70.22" height="70.22" fill="#e3e3e3"/><polygon points="702.22,421.33 772.44,421.33 702.22,491.54999999999995" fill="#c9c9c9"/><rect x="772.44" y="421.33" width="70.22" height="70.22" fill="#f6f6f6"/><polygon points="772.44,421.33 842.6600000000001,421.33 772.44,491.54999999999995" fill="#f2f1f1"/><rect x="842.67" y="421.33" width="70.22" height="70.22" fill="#f6f6f6"/><rect x="842.67" y="421.33" width="70.22" height="70.22" fill="#e9e9e9"/><rect x="912.89" y="421.33" width="70.22" height="70.22" fill="#e4e4e4"/><rect x="912.89" y="421.33" width="70.22" height="70.22" fill="#777270"/><rect x="983.11" y="421.33" width="70.22" height="70.22" fill="#aeaeae"/><polygon points="983.11,421.33 1053.33,421.33 1053.33,491.54999999999995" fill="#b7b7b7"/><rect x="0" y="491.56" width="70.22" height="70.22" fill="#e7e6e6"/><rect x="0" y="491.56" width="70.22" height="70.22" fill="#d2d2d2"/><rect x="70.22" y="491.56" width="70.22" height="70.22" fill="#cac8c7"/><polygon points="70.22,491.56 140.44,561.78 70.22,561.78" fill="#fefefe"/><rect x="140.44" y="491.56" width="70.22" height="70.22" fill="#7a7573"/><rect x="140.44" y="491.56" width="70.22" height="70.22" fill="#f8f8f8"/><rect x="210.67" y="491.56" width="70.22" height="70.22" fill="#f9f9f9"/><polygon points="210.67,491.56 280.89,491.56 280.89,561.78" fill="#d9d7d7"/><rect x="280.89" y="491.56" width="70.22" height="70.22" fill="#eaeaea"/><rect x="280.89" y="491.56" width="70.22" height="70.22" fill="#bbbbbb"/><rect x="351.11" y="491.56" width="70.22" height="70.22" fill="#e7e6e6"/><polygon points="421.33000000000004,491.56 421.33000000000004,561.78 351.11,561.78" fill="#d2d2d2"/><rect x="421.33" y="491.56" width="70.22" height="70.22" fill="#fbfbfb"/><path d="M 421.33 561.78 A 70.22 70.22 0 0 1  491.54999999999995 491.56 L 491.54999999999995 561.78" fill="#a6a3a1"/><rect x="491.56" y="491.56" width="70.22" height="70.22" fill="#cdcbcb"/><path d="M 491.56 561.78 A 70.22 70.22 0 0 0 561.78 491.56 L 491.56 491.56" fill="#777270"/><rect x="561.78" y="491.56" width="70.22" height="70.22" fill="#b6b6b6"/><path d="M 561.78 561.78 A 70.22 70.22 0 0 1  632 491.56 L 561.78 561.78 A 70.22 70.22 0 0 0 632 491.56" fill="#787371"/><rect x="632" y="491.56" width="70.22" height="70.22" fill="#aca9a8"/><path d="M 632 561.78 A 70.22 70.22 0 0 1  702.22 491.56 L 702.22 561.78" fill="#d1d1d1"/><rect x="702.22" y="491.56" width="70.22" height="70.22" fill="#f7f7f7"/><rect x="702.22" y="491.56" width="70.22" height="70.22" fill="#dddddd"/><rect x="772.44" y="491.56" width="70.22" height="70.22" fill="#9a9795"/><rect x="772.44" y="491.56" width="70.22" height="70.22" fill="#dddddd"/><rect x="842.67" y="491.56" width="70.22" height="70.22" fill="#eaeaea"/><polygon points="912.89,491.56 912.89,561.78 842.67,561.78" fill="#7c7775"/><rect x="912.89" y="491.56" width="70.22" height="70.22" fill="#e0dfde"/><rect x="912.89" y="491.56" width="70.22" height="70.22" fill="#8f8b8a"/><rect x="983.11" y="491.56" width="70.22" height="70.22" fill="#7d7876"/><path d="M 983.11 491.56 A 70.22 70.22 0 0 0 1053.33 561.78 L 1053.33 491.56" fill="#c9c9c9"/><rect x="0" y="561.78" width="70.22" height="70.22" fill="#c9c9c9"/><path d="M 0 632 A 70.22 70.22 0 0 0 70.22 561.78 L 0 561.78" fill="#aeabaa"/><rect x="70.22" y="561.78" width="70.22" height="70.22" fill="#c8c8c8"/><rect x="70.22" y="561.78" width="70.22" height="70.22" fill="#b4b4b4"/><rect x="140.44" y="561.78" width="70.22" height="70.22" fill="#cdcdcd"/><polygon points="140.44,561.78 210.66,561.78 140.44,632" fill="#bababa"/><rect x="210.67" y="561.78" width="70.22" height="70.22" fill="#b5b2b1"/><rect x="210.67" y="561.78" width="70.22" height="70.22" fill="#fcfcfc"/><rect x="280.89" y="561.78" width="70.22" height="70.22" fill="#cacaca"/><path d="M 280.89 561.78 A 70.22 70.22 0 0 0 351.11 632 L 351.11 561.78" fill="#e3e2e1"/><rect x="351.11" y="561.78" width="70.22" height="70.22" fill="#cbc9c8"/><rect x="351.11" y="561.78" width="70.22" height="70.22" fill="#c3c1c0"/><rect x="421.33" y="561.78" width="70.22" height="70.22" fill="#b1b1b1"/><polygon points="421.33,561.78 491.54999999999995,632 421.33,632" fill="#adaaa8"/><rect x="491.56" y="561.78" width="70.22" height="70.22" fill="#969291"/><rect x="491.56" y="561.78" width="70.22" height="70.22" fill="#f9f9f9"/><rect x="561.78" y="561.78" width="70.22" height="70.22" fill="#f5f4f4"/><path d="M 561.78 632 A 70.22 70.22 0 0 0 632 561.78 L 561.78 561.78" fill="#fefefe"/><rect x="632" y="561.78" width="70.22" height="70.22" fill="#797573"/><rect x="632" y="561.78" width="70.22" height="70.22" fill="#c5c5c5"/><rect x="702.22" y="561.78" width="70.22" height="70.22" fill="#c4c4c4"/><rect x="702.22" y="561.78" width="70.22" height="70.22" fill="#d2d0d0"/><rect x="772.44" y="561.78" width="70.22" height="70.22" fill="#e2e2e2"/><polygon points="772.44,561.78 842.6600000000001,561.78 842.6600000000001,632" fill="#dfdfdf"/><rect x="842.67" y="561.78" width="70.22" height="70.22" fill="#f9f9f9"/><rect x="842.67" y="561.78" width="70.22" height="70.22" fill="#afafaf"/><rect x="912.89" y="561.78" width="70.22" height="70.22" fill="#cecccb"/><rect x="912.89" y="561.78" width="70.22" height="70.22" fill="#b8b8b8"/><rect x="983.11" y="561.78" width="70.22" height="70.22" fill="#8c8886"/><rect x="983.11" y="561.78" width="70.22" height="70.22" fill="#b9b9b9"/></g></svg>