<?xml version="1.0" encoding="UTF-8"?>
<svg width="26px" height="20px" viewBox="0 0 26 20" version="1.1" xmlns="http://www.w3.org/2000/svg" xmlns:xlink="http://www.w3.org/1999/xlink">
    <!-- Generator: Sketch 61.1 (89650) - https://sketch.com -->
    <title>pipe</title>
    <desc>Created with Sketch.</desc>
    <g id="Page-1" stroke="none" stroke-width="1" fill="none" fill-rule="evenodd">
        <g id="Supplier_Summary1.1" transform="translate(-1264.000000, -248.000000)" fill="#D85D5D" fill-rule="nonzero">
            <g id="pipe" transform="translate(1264.000000, 248.000000)">
                <path d="M21.2684063,7.16279687 L21.2684063,8.17933594 L17.5153164,8.17933594 L17.5153164,6.14635938 L15.2864766,6.14635938 L15.2864766,1.573 L20.5054688,1.573 L20.5054688,0.0495117187 L5.49458203,0.0495117187 L5.49458203,1.573 L10.7135234,1.573 L10.7135234,6.14635938 L8.48468359,6.14635938 L8.48468359,8.17933594 L4.73159375,8.17933594 L4.73159375,7.16279687 L0,7.16279687 L0,17.9257812 L4.73159375,17.9257812 L4.73159375,16.909293 L8.81526953,16.909293 L10.3398242,19.4504883 L15.660125,19.4504883 L17.1846797,16.909293 L21.2683555,16.909293 L21.2683555,17.9257812 L26,17.9257812 L26,7.16279687 L21.2684063,7.16279687 Z M3.20810547,16.402293 L1.52348828,16.402293 L1.52348828,8.68633594 L3.20810547,8.68633594 L3.20810547,16.402293 Z M8.48468359,15.3858047 L4.73159375,15.3858047 L4.73159375,9.702875 L8.48463281,9.702875 L8.48463281,15.3858047 L8.48468359,15.3858047 Z M12.2370117,1.573 L13.7629375,1.573 L13.7629375,6.14635937 L12.2370117,6.14635937 L12.2370117,1.573 Z M15.9918281,15.9363242 L14.7975039,17.927 L11.2024961,17.927 L10.0082227,15.9363242 L10.0082227,7.66989844 L15.9918281,7.66989844 L15.9918281,15.9363242 L15.9918281,15.9363242 Z M21.2683555,15.3858047 L17.5153164,15.3858047 L17.5153164,9.702875 L21.2683555,9.702875 L21.2683555,15.3858047 Z M24.4765117,16.402293 L22.7918945,16.402293 L22.7918945,8.68633594 L24.4765117,8.68633594 L24.4765117,16.402293 Z" id="Shape"></path>
            </g>
        </g>
    </g>
</svg>