<svg width="16" height="16" viewBox="0 0 16 16" xmlns="http://www.w3.org/2000/svg">
    <g fill="#324056" fill-rule="nonzero">
        <path d="M13.486 1.676h-.474v-.343a.67.67 0 0 0-1.341 0v.344H4.347v-.344a.67.67 0 0 0-1.341 0v.344h-.492c-1.012 0-1.833.82-1.833 1.833v10c0 1.013.82 1.833 1.833 1.833h10.972a1.833 1.833 0 0 0 1.833-1.833v-10a1.833 1.833 0 0 0-1.833-1.834zm-10.972 1h.492V3a.67.67 0 0 0 1.34 0v-.324h7.325V3a.67.67 0 0 0 1.34 0v-.324h.475c.46 0 .833.373.833.833v.834H1.681v-.834c0-.46.373-.833.833-.833zm10.972 11.666H2.514a.833.833 0 0 1-.833-.833V5.342h12.638v8.167c0 .46-.373.833-.833.833z"/>
        <path d="M7.327 11.287 5.743 9.767a.62.62 0 0 1 .858-.894l.729.699L9.402 7.5a.62.62 0 1 1 .858.893l-2.933 2.894z"/>
    </g>
</svg>
