<svg width="16" height="16" viewBox="0 0 16 16" xmlns="http://www.w3.org/2000/svg">
    <g fill="#334056" fill-rule="nonzero">
        <path d="M8 8.397a.5.5 0 0 1-.218-.05L.968 4.976a.5.5 0 0 1 0-.899L7.779.722a.5.5 0 0 1 .442 0l6.814 3.355a.5.5 0 0 1 .004.896l-6.812 3.37A.511.511 0 0 1 8 8.397zM2.323 4.523 8 7.338l5.695-2.806L8 1.728 2.323 4.522z"/>
        <path d="M8 11.676a.5.5 0 0 1-.218-.05L.968 8.255a.5.5 0 0 1 .437-.9L8 10.619l6.59-3.259a.5.5 0 1 1 .45.891l-6.813 3.373a.5.5 0 0 1-.227.053z"/>
        <path d="M8 15.333a.5.5 0 0 1-.218-.05L.968 11.908a.5.5 0 1 1 .437-.899L8 14.272l6.59-3.26a.5.5 0 1 1 .45.893l-6.813 3.37a.5.5 0 0 1-.227.058z"/>
    </g>
</svg>
