<svg width="16" height="16" viewBox="0 0 16 16" xmlns="http://www.w3.org/2000/svg">
    <g fill="none" fill-rule="evenodd">
        <path d="M14.82 6.667a.5.5 0 0 0 .5-.5V2.346c0-.92-.745-1.667-1.666-1.667H2.344c-.92 0-1.666.746-1.666 1.667l-.011 11.32c0 .921.746 1.667 1.666 1.667h11.321c.92 0 1.667-.746 1.667-1.666v-2.834a.5.5 0 0 0-1 0v2.834a.667.667 0 0 1-.667.666h-6.32V9.98H9.5a.5.5 0 0 0 0-1H7.333V5h4.5a.5.5 0 1 0 0-1h-5a.5.5 0 0 0-.5.5v9.833H2.358a.7.7 0 0 1-.464-.166.662.662 0 0 1-.227-.5l.005-6.334h2.153a.5.5 0 1 0 0-1h-2.15V2.345c0-.368.298-.667.666-.667h11.313c.368 0 .667.299.667.667v3.822a.5.5 0 0 0 .5.5z" fill="#324056" fill-rule="nonzero"/>
        <path d="M0 0h16v16H0z"/>
    </g>
</svg>
