<?xml version="1.0" encoding="UTF-8"?>
<svg viewBox="0 0 50 50" width="22" height="22" version="1.1" xmlns="http://www.w3.org/2000/svg"
  xmlns:xlink="http://www.w3.org/1999/xlink">
  <g id="iOS-logo" stroke="none" stroke-width="1" fill="none" fill-rule="evenodd">
    <g id="apple-logo" transform="translate(5.000000, 0.000000)" fill="#353f54" fill-rule="nonzero">
      <path
        d="M20.8275208,14.4658527 C22.8078245,14.4658527 26.5752636,11.7582552 30.4613992,12.1623236 C32.0865391,12.2081039 36.7134344,12.7976779 39.6978331,17.1086883 C39.4566448,17.2521273 34.1863493,20.3209472 34.244228,26.6271054 C34.3097899,34.1877418 40.919789,36.6851898 41,36.7120344 C40.9603111,36.8877512 39.9649175,40.3179998 37.4860377,43.8014792 C35.4162199,46.8685569 33.2460805,49.864981 29.8016374,49.9203667 C26.454762,49.9968889 25.3300034,47.9692569 21.4912631,47.9692569 C17.6165597,47.9692569 16.4176996,49.8650039 13.2077336,49.9968889 C9.92743842,50.1172429 7.42048705,46.7233756 5.27543385,43.6850683 C0.988081387,37.4802825 -2.3502777,26.1989892 2.12531366,18.5228818 C4.29445791,14.7583931 8.25013595,12.3343266 12.4766475,12.2693584 C15.7599049,12.2024416 18.8088936,14.4658527 20.8275208,14.4658527 Z M30.3132371,-7.81597009e-14 C30.6555202,3.10527222 29.4222479,6.16426545 27.6208713,8.41366555 C25.7401383,10.6276574 22.7316516,12.319492 19.8017482,12.1024387 C19.4182289,9.11587696 20.9032672,5.93814919 22.5646289,4.00026456 C24.4422939,1.79921637 27.7046001,0.115432342 30.3132371,-7.81597009e-14 Z"
        id="Combined-Shape"></path>
    </g>
  </g>
</svg>
