<?xml version="1.0" encoding="UTF-8"?>
<svg width="512px" height="512px" viewBox="0 0 512 512" version="1.1" xmlns="http://www.w3.org/2000/svg" xmlns:xlink="http://www.w3.org/1999/xlink">
    <!-- Generator: Sketch 55.2 (78181) - https://sketchapp.com -->
    <title>Artboard</title>
    <desc>Created with Sketch.</desc>
    <g id="Artboard" stroke="none" stroke-width="1" fill="none" fill-rule="evenodd">
        <g id="arrow-pointing-to-right-(6)" transform="translate(256.000000, 256.000000) scale(-1, 1) translate(-256.000000, -256.000000) translate(0.000000, 79.000000)" fill="#000000" fill-rule="nonzero">
            <path d="M504.712089,160.969129 L352.444431,8.71106452 C343.154201,-0.578580645 328.087316,-0.578580645 318.797086,8.71106452 C309.504952,18.0026129 309.504952,33.0647419 318.797086,42.3562903 L430.449249,154.001419 L23.7918216,154.001419 C10.653026,154.001419 0,164.653774 0,177.791742 C0,190.927806 10.653026,201.582065 23.7918216,201.582065 L430.449249,201.582065 L318.800892,313.227194 C309.508758,322.518742 309.508758,337.580871 318.800892,346.872419 C323.445056,351.514387 329.535762,353.840129 335.624565,353.840129 C341.713368,353.840129 347.802171,351.514387 352.448238,346.872419 L504.712089,194.614355 C514.004223,185.322806 514.004223,170.260677 504.712089,160.969129 Z" id="Path"></path>
        </g>
    </g>
</svg>