<svg width="16" height="13" xmlns="http://www.w3.org/2000/svg">
<g fill="#000" fill-rule="nonzero"><path d="M1.15 2.288C.543 2.288 0 1.816 0 1.256S.543.194 1.15.194c.607 0 1.118.502 1.118 1.062s-.51 1.032-1.118 1.032zM1.15 7.36C.543 7.36 0 6.89 0 6.328c0-.56.543-1.032 1.15-1.032.607 0 1.118.472 1.118 1.032S1.758 7.36 1.15 7.36zM5.24 10.457h9.68c.574 0 1.053.413 1.053.943 0 .531-.479.974-1.054.974H5.24c-.575 0-1.054-.443-1.054-.974 0-.53.48-.943 1.054-.943zM1.15 12.462C.543 12.462 0 11.961 0 11.4c0-.56.543-1.032 1.15-1.032.607 0 1.118.472 1.118 1.032s-.51 1.062-1.118 1.062zM14.92 7.301H5.24c-.576 0-1.055-.442-1.055-.973 0-.53.48-.973 1.054-.973h9.68c.575 0 1.054.442 1.054.973 0 .531-.479.973-1.054.973zM14.92 2.23H5.24c-.576 0-1.055-.443-1.055-.974 0-.53.48-.973 1.054-.973h9.68c.575 0 1.054.442 1.054.973 0 .53-.479.973-1.054.973z"/></g>
</svg>