<?xml version="1.0" encoding="UTF-8"?>
<svg width="11px" height="14px" viewBox="0 0 11 14" version="1.1" xmlns="http://www.w3.org/2000/svg" xmlns:xlink="http://www.w3.org/1999/xlink">
    <!-- Generator: Sketch 63.1 (92452) - https://sketch.com -->
    <title>ic_lock</title>
    <desc>Created with Sketch.</desc>
    <g id="Page-1" stroke="none" stroke-width="1" fill="none" fill-rule="evenodd">
        <g id="Employee-List_Global-Search_Filter-collapse-Copy-2" transform="translate(-189.000000, -355.000000)">
            <g id="Filter-full" transform="translate(178.000000, 178.000000)">
                <g id="Group-4" transform="translate(8.000000, 25.000000)">
                    <g id="Filter-2">
                        <g id="Icons" transform="translate(0.000000, 51.000000)">
                            <g id="ic_lock" transform="translate(1.000000, 101.000000)">
                                <g id="Icon-24px">
                                    <polygon id="Shape" points="0 0 14.5 0 14.5 14.5 0 14.5"></polygon>
                                    <path d="M10.875,4.83333333 L10.2708333,4.83333333 L10.2708333,3.625 C10.2708333,1.9575 8.9175,0.604166667 7.25,0.604166667 C5.5825,0.604166667 4.22916667,1.9575 4.22916667,3.625 L4.22916667,4.83333333 L3.625,4.83333333 C2.96041667,4.83333333 2.41666667,5.37708333 2.41666667,6.04166667 L2.41666667,12.0833333 C2.41666667,12.7479167 2.96041667,13.2916667 3.625,13.2916667 L10.875,13.2916667 C11.5395833,13.2916667 12.0833333,12.7479167 12.0833333,12.0833333 L12.0833333,6.04166667 C12.0833333,5.37708333 11.5395833,4.83333333 10.875,4.83333333 L10.875,4.83333333 Z M7.25,10.2708333 C6.58541667,10.2708333 6.04166667,9.72708333 6.04166667,9.0625 C6.04166667,8.39791667 6.58541667,7.85416667 7.25,7.85416667 C7.91458333,7.85416667 8.45833333,8.39791667 8.45833333,9.0625 C8.45833333,9.72708333 7.91458333,10.2708333 7.25,10.2708333 L7.25,10.2708333 Z M9.12291667,4.83333333 L5.37708333,4.83333333 L5.37708333,3.625 C5.37708333,2.591875 6.216875,1.75208333 7.25,1.75208333 C8.283125,1.75208333 9.12291667,2.591875 9.12291667,3.625 L9.12291667,4.83333333 L9.12291667,4.83333333 Z" id="shape" fill="#000000"></path>
                                </g>
                            </g>
                        </g>
                    </g>
                </g>
            </g>
        </g>
    </g>
</svg>
