<?xml version="1.0" encoding="UTF-8"?>
<svg width="80px" height="50px" viewBox="0 0 80 50" version="1.1" xmlns="http://www.w3.org/2000/svg" xmlns:xlink="http://www.w3.org/1999/xlink">
    <!-- Generator: Sketch 63 (92445) - https://sketch.com -->
    <title>251382</title>
    <desc>Created with Sketch.</desc>
    <g id="Page-1" stroke="none" stroke-width="1">
        <g id="Desktop" transform="translate(-403.000000, -155.000000)">
            <g id="251382" transform="translate(403.000000, 155.000000)">
                <path d="M18.2686869,0 L3.82191919,0 C1.83636364,0 0.0962626263,1.48271484 0.0962626263,3.40292969 L0.0962626263,17.3700195 C0.0962626263,19.2902344 1.83636364,20.9301758 3.82191919,20.9301758 L18.2686869,20.9301758 C20.2542424,20.9301758 21.7453535,19.2901367 21.7453535,17.3700195 L21.7453535,3.40292969 C21.7453535,1.48271484 20.2542424,0 18.2686869,0 Z M19.339899,17.3700195 C19.339899,18.0070312 18.9281818,18.6046875 18.2686869,18.6046875 L3.82191919,18.6046875 C3.16242424,18.6046875 2.50171717,18.0071289 2.50171717,17.3700195 L2.50171717,3.40292969 C2.50171717,2.76582031 3.16242424,2.32558594 3.82191919,2.32558594 L18.2686869,2.32558594 C18.9281818,2.32558594 19.339899,2.76591797 19.339899,3.40292969 L19.339899,17.3700195 Z" id="Shape"></path>
                <path d="M18.2686869,29.0697266 L3.82191919,29.0697266 C1.83636364,29.0697266 0.0962626263,30.5524414 0.0962626263,32.4726562 L0.0962626263,46.4397461 C0.0962626263,48.3599609 1.83636364,50 3.82191919,50 L18.2686869,50 C20.2542424,50 21.7453535,48.3599609 21.7453535,46.4398437 L21.7453535,32.4727539 C21.7453535,30.5525391 20.2542424,29.0697266 18.2686869,29.0697266 Z M19.339899,46.4398437 C19.339899,47.0768555 18.9281818,47.6745117 18.2686869,47.6745117 L3.82191919,47.6745117 C3.16242424,47.6745117 2.50171717,47.0769531 2.50171717,46.4398437 L2.50171717,32.4727539 C2.50171717,31.8356445 3.16242424,31.3954102 3.82191919,31.3954102 L18.2686869,31.3954102 C18.9281818,31.3954102 19.339899,31.8357422 19.339899,32.4727539 L19.339899,46.4398437 Z" id="Shape"></path>
                <path d="M47.1341414,0 L32.6873737,0 C30.7018182,0 28.9617172,1.48271484 28.9617172,3.40292969 L28.9617172,17.3700195 C28.9617172,19.2902344 30.7018182,20.9301758 32.6873737,20.9301758 L47.1341414,20.9301758 C49.119697,20.9301758 50.6108081,19.2901367 50.6108081,17.3700195 L50.6108081,3.40292969 C50.6108081,1.48271484 49.119697,0 47.1341414,0 Z M48.2053535,17.3700195 C48.2053535,18.0070312 47.7937374,18.6046875 47.1341414,18.6046875 L32.6873737,18.6046875 C32.0278788,18.6046875 31.3671717,18.0071289 31.3671717,17.3700195 L31.3671717,3.40292969 C31.3671717,2.76582031 32.0278788,2.32558594 32.6873737,2.32558594 L47.1341414,2.32558594 C47.7936364,2.32558594 48.2053535,2.76591797 48.2053535,3.40292969 L48.2053535,17.3700195 L48.2053535,17.3700195 Z" id="Shape"></path>
                <path d="M47.1341414,29.0697266 L32.6873737,29.0697266 C30.7018182,29.0697266 28.9617172,30.5524414 28.9617172,32.4726562 L28.9617172,46.4397461 C28.9617172,48.3599609 30.7018182,49.9999023 32.6873737,49.9999023 L47.1341414,49.9999023 C49.119697,49.9999023 50.6108081,48.3598633 50.6108081,46.4397461 L50.6108081,32.4727539 C50.6108081,30.5525391 49.119697,29.0697266 47.1341414,29.0697266 Z M48.2053535,46.4398438 C48.2053535,47.0768555 47.7937374,47.6745117 47.1341414,47.6745117 L32.6873737,47.6745117 C32.0278788,47.6745117 31.3671717,47.0769531 31.3671717,46.4398438 L31.3671717,32.4727539 C31.3671717,31.8356445 32.0278788,31.3954102 32.6873737,31.3954102 L47.1341414,31.3954102 C47.7936364,31.3954102 48.2053535,31.8357422 48.2053535,32.4727539 L48.2053535,46.4398438 L48.2053535,46.4398438 Z" id="Shape"></path>
                <path d="M76.4270707,0 L61.980303,0 C59.9947475,0 58.2546465,1.48271484 58.2546465,3.40292969 L58.2546465,17.3700195 C58.2546465,19.2902344 59.9947475,20.9301758 61.980303,20.9301758 L76.4270707,20.9301758 C78.4126263,20.9301758 79.9037374,19.2901367 79.9037374,17.3700195 L79.9037374,3.40292969 C79.9037374,1.48271484 78.4126263,0 76.4270707,0 Z M77.4982828,17.3700195 C77.4982828,18.0070312 77.0866667,18.6046875 76.4270707,18.6046875 L61.980303,18.6046875 C61.3208081,18.6046875 60.660101,18.0071289 60.660101,17.3700195 L60.660101,3.40292969 C60.660101,2.76582031 61.3208081,2.32558594 61.980303,2.32558594 L76.4270707,2.32558594 C77.0865657,2.32558594 77.4982828,2.76591797 77.4982828,3.40292969 L77.4982828,17.3700195 L77.4982828,17.3700195 Z" id="Shape"></path>
                <path d="M76.4270707,29.0697266 L61.980303,29.0697266 C59.9947475,29.0697266 58.2546465,30.5524414 58.2546465,32.4726562 L58.2546465,46.4397461 C58.2546465,48.3599609 59.9947475,49.9999023 61.980303,49.9999023 L76.4270707,49.9999023 C78.4126263,49.9999023 79.9037374,48.3598633 79.9037374,46.4397461 L79.9037374,32.4727539 C79.9037374,30.5525391 78.4126263,29.0697266 76.4270707,29.0697266 Z M77.4982828,46.4398438 C77.4982828,47.0768555 77.0866667,47.6745117 76.4270707,47.6745117 L61.980303,47.6745117 C61.3208081,47.6745117 60.660101,47.0769531 60.660101,46.4398438 L60.660101,32.4727539 C60.660101,31.8356445 61.3208081,31.3954102 61.980303,31.3954102 L76.4270707,31.3954102 C77.0865657,31.3954102 77.4982828,31.8357422 77.4982828,32.4727539 L77.4982828,46.4398438 L77.4982828,46.4398438 Z" id="Shape"></path>
            </g>
        </g>
    </g>
</svg>
