<?xml version="1.0" encoding="UTF-8"?>
<svg width="13px" height="11px" viewBox="0 0 13 11" version="1.1" xmlns="http://www.w3.org/2000/svg" xmlns:xlink="http://www.w3.org/1999/xlink">
    <!-- Generator: Sketch 52.5 (67469) - http://www.bohemiancoding.com/sketch -->
    <title>Group 5</title>
    <desc>Created with Sketch.</desc>
    <g id="Page-1" stroke="none" stroke-width="1" fill="none" fill-rule="evenodd">
        <g id="Artboard" transform="translate(-249.000000, -214.000000)" stroke="#000000">
            <g id="Group-5" transform="translate(250.000000, 211.000000)">
                <g id="Group-4-Copy" transform="translate(0.000000, 4.000000)" stroke-linecap="round" stroke-width="1.2">
                    <path d="M11,4.54075865 L11,7.875 C11,8.49632034 10.5895944,9 10.0833333,9 L0.916666667,9 C0.410405646,9 0,8.49632034 0,7.875 L0,1.125 C0,0.503679656 0.410405646,0 0.916666667,0 L5.58531932,0" id="Path"></path>
                </g>
                <g id="arrow-pointing-to-right-(11)-copy" transform="translate(7.364580, 6.054179) rotate(128.000000) translate(-7.364580, -6.054179) translate(2.614580, 2.887513)" fill="#000000" stroke-width="0.2">
                    <path d="M9.20120107,2.5824474 L6.89278023,0.274026558 C6.7519377,0.133184031 6.52351946,0.133184031 6.38267693,0.274026558 C6.24180555,0.41489794 6.24180555,0.643258472 6.38267693,0.784129855 L8.07535537,2.4768083 L0.990147849,2.15292803 C0.790959985,2.15292803 0.629457092,2.31443092 0.629457092,2.51361878 C0.629457092,2.71277779 0.790959985,2.87430954 0.990147849,2.87430954 L8.07535537,3.19818981 L6.38273464,4.89086825 C6.24186326,5.03173963 6.24186326,5.26010016 6.38273464,5.40097155 C6.45314148,5.47134953 6.54547831,5.50661066 6.63778629,5.50661066 C6.73009427,5.50661066 6.82240224,5.47134953 6.89283794,5.40097155 L9.20120107,3.0925507 C9.34207245,2.95167932 9.34207245,2.72331879 9.20120107,2.5824474 Z" id="Path"></path>
                </g>
            </g>
        </g>
    </g>
</svg>