<svg id="Layer_1" data-name="Layer 1" xmlns="http://www.w3.org/2000/svg" viewBox="0 0 366.78 219.54">
  <defs>
    <style>
      .cls-1{fill:#fff}.cls-2{fill:#f1f8fe}.cls-3{fill:#d1e7fd}.cls-4{fill:#5da7f8}
    </style>
  </defs>
  <path class="cls-2" d="M318.3 116.89a71.671 71.671 0 0 0 6.75-30.45c0-39.97-32.65-72.37-72.92-72.37-19.56 0-37.33 7.65-50.42 20.09C183.6 18.2 159.77 8.5 133.65 8.5c-23.08 0-44.37 7.57-61.51 20.34-34.9 5.4-61.61 35.35-61.61 71.5 0 26.11 13.93 48.99 34.82 61.72 11.27 18.89 28.52 33.85 49.17 42.31h225.52c8.78-11.95 13.97-26.67 13.97-42.6 0-16.96-5.88-32.55-15.72-44.89Z"/>
  <rect class="cls-1" x="79.7" y="52.74" width="200.82" height="119.27" rx="15.27" ry="15.27"/>
  <path class="cls-4" d="M265.25 173.36H94.97c-9.17 0-16.63-7.46-16.63-16.63V68.01c0-9.17 7.46-16.63 16.63-16.63h170.28c9.17 0 16.63 7.46 16.63 16.63v88.72c0 9.17-7.46 16.63-16.63 16.63ZM94.97 54.1c-7.67 0-13.92 6.24-13.92 13.91v88.72c0 7.67 6.24 13.91 13.92 13.91h170.28c7.67 0 13.91-6.24 13.91-13.91V68.01c0-7.67-6.24-13.91-13.91-13.91H94.97Z"/>
  <path class="cls-4" d="M280.52 153.52H79.7c-.75 0-1.36-.61-1.36-1.36s.61-1.36 1.36-1.36h200.82c.75 0 1.36.61 1.36 1.36s-.61 1.36-1.36 1.36Z"/>
  <path class="cls-2" d="M162.16 73.86h118.36v78.3H155.66v-71.8a6.5 6.5 0 0 1 6.5-6.5Z"/>
  <path class="cls-4" d="M280.52 153.52H155.66c-.75 0-1.36-.61-1.36-1.36v-71.8c0-4.33 3.53-7.86 7.86-7.86h118.36c.75 0 1.36.61 1.36 1.36v78.31c0 .75-.61 1.36-1.36 1.36Zm-123.5-2.72h122.14V75.21h-117c-2.84 0-5.14 2.31-5.14 5.14v70.45Z"/>
  <path class="cls-1" d="m89.65 37.57 31.08 53.68c4.46 7.7-1.1 17.35-10 17.35H46.96c-9.02 0-14.56-9.87-9.87-17.57l32.69-53.68c4.56-7.49 15.47-7.37 19.87.22Z"/>
  <path class="cls-4" d="M110.74 109.95H46.97c-4.73 0-8.94-2.46-11.26-6.59-2.32-4.13-2.23-9 .23-13.04l32.69-53.68c2.39-3.93 6.58-6.24 11.17-6.2 4.6.05 8.73 2.46 11.03 6.44l31.08 53.68c2.34 4.04 2.35 8.87.01 12.92-2.33 4.05-6.52 6.46-11.19 6.46ZM79.65 33.16c-3.59 0-6.83 1.82-8.7 4.89L38.26 91.73c-1.94 3.19-2.01 7.04-.18 10.3 1.83 3.26 5.15 5.2 8.89 5.2h63.77c3.69 0 6.99-1.91 8.83-5.1 1.84-3.2 1.84-7.01-.01-10.2L88.48 38.25c-1.82-3.14-5.08-5.05-8.71-5.09h-.12ZM329.41 205.02H51.07c-.75 0-1.36-.61-1.36-1.36s.61-1.36 1.36-1.36h278.34c.75 0 1.36.61 1.36 1.36s-.61 1.36-1.36 1.36ZM101.47 136.24h-5.84c-2.36 0-4.29-1.92-4.29-4.29v-5.84c0-2.36 1.92-4.29 4.29-4.29h5.84c2.36 0 4.29 1.92 4.29 4.29v5.84c0 2.36-1.92 4.29-4.29 4.29Zm-5.84-11.69c-.86 0-1.57.7-1.57 1.57v5.84c0 .87.7 1.57 1.57 1.57h5.84c.86 0 1.57-.7 1.57-1.57v-5.84c0-.87-.7-1.57-1.57-1.57h-5.84ZM105.71 142.38H91.53c-.75 0-1.36-.61-1.36-1.36s.61-1.36 1.36-1.36h14.18c.75 0 1.36.61 1.36 1.36s-.61 1.36-1.36 1.36Z"/>
  <path class="cls-3" d="M31.49 147.38c-.42 0-.84-.19-1.1-.56-4.45-6.14-2.16-11.17-.14-15.61 1.96-4.31 3.66-8.03.14-12.89-.44-.61-.3-1.46.3-1.9.61-.44 1.46-.3 1.9.3 4.45 6.14 2.16 11.17.14 15.61-1.96 4.31-3.66 8.03-.14 12.89.44.61.3 1.46-.3 1.9-.24.17-.52.26-.8.26ZM48.77 147.38c-.42 0-.84-.19-1.1-.56-4.45-6.14-2.16-11.17-.14-15.61 1.96-4.31 3.66-8.03.14-12.89-.44-.61-.3-1.46.3-1.9.61-.44 1.46-.3 1.9.3 4.45 6.14 2.16 11.17.14 15.61-1.96 4.31-3.66 8.03-.14 12.89.44.61.3 1.46-.3 1.9-.24.17-.52.26-.8.26ZM66.05 147.38c-.42 0-.84-.19-1.1-.56-4.45-6.14-2.16-11.17-.14-15.61 1.96-4.31 3.66-8.03.14-12.89-.44-.61-.3-1.46.3-1.9.61-.44 1.46-.3 1.9.3 4.45 6.14 2.16 11.17.14 15.61-1.96 4.31-3.66 8.03-.14 12.89.44.61.3 1.46-.3 1.9-.24.17-.52.26-.8.26Z"/>
  <path class="cls-4" d="M122.74 136.24h-5.84c-2.36 0-4.29-1.92-4.29-4.29v-5.84c0-2.36 1.92-4.29 4.29-4.29h5.84c2.36 0 4.29 1.92 4.29 4.29v5.84c0 2.36-1.92 4.29-4.29 4.29Zm-5.84-11.69c-.86 0-1.57.7-1.57 1.57v5.84c0 .87.7 1.57 1.57 1.57h5.84c.86 0 1.57-.7 1.57-1.57v-5.84c0-.87-.7-1.57-1.57-1.57h-5.84ZM126.98 142.38H112.8c-.75 0-1.36-.61-1.36-1.36s.61-1.36 1.36-1.36h14.18c.75 0 1.36.61 1.36 1.36s-.61 1.36-1.36 1.36Z"/>
  <path class="cls-1" d="M189.83 103.5h-25.14c-.75 0-1.36-.61-1.36-1.36s.61-1.36 1.36-1.36h25.14c.75 0 1.36.61 1.36 1.36s-.61 1.36-1.36 1.36ZM189.83 113.18h-25.14c-.75 0-1.36-.61-1.36-1.36s.61-1.36 1.36-1.36h25.14c.75 0 1.36.61 1.36 1.36s-.61 1.36-1.36 1.36ZM182.56 122.87h-17.87c-.75 0-1.36-.61-1.36-1.36s.61-1.36 1.36-1.36h17.87c.75 0 1.36.61 1.36 1.36s-.61 1.36-1.36 1.36Z"/>
  <path class="cls-4" d="M222.2 90.05h-66.54c-.75 0-1.36-.61-1.36-1.36s.61-1.36 1.36-1.36h66.54c.75 0 1.36.61 1.36 1.36s-.61 1.36-1.36 1.36Z"/>
  <path class="cls-4" d="M197.79 153.52c-.75 0-1.36-.61-1.36-1.36V88.69c0-.75.61-1.36 1.36-1.36s1.36.61 1.36 1.36v63.47c0 .75-.61 1.36-1.36 1.36Z"/>
  <circle class="cls-1" cx="164.69" cy="81.53" r="3.14"/>
  <path class="cls-4" d="M164.69 86.03c-2.48 0-4.5-2.02-4.5-4.5s2.02-4.5 4.5-4.5 4.5 2.02 4.5 4.5-2.02 4.5-4.5 4.5Zm0-6.28c-.98 0-1.78.8-1.78 1.78s.8 1.78 1.78 1.78 1.78-.8 1.78-1.78-.8-1.78-1.78-1.78Z"/>
  <circle class="cls-2" cx="79.03" cy="91.17" r="6.49"/>
  <path class="cls-4" d="M79.03 99.02c-4.33 0-7.85-3.52-7.85-7.85s3.52-7.85 7.85-7.85 7.85 3.52 7.85 7.85-3.52 7.85-7.85 7.85Zm0-12.99c-2.83 0-5.14 2.3-5.14 5.14s2.3 5.14 5.14 5.14 5.14-2.3 5.14-5.14-2.3-5.14-5.14-5.14Z"/>
  <circle class="cls-1" cx="176.97" cy="81.53" r="3.14"/>
  <path class="cls-4" d="M176.97 86.03c-2.48 0-4.5-2.02-4.5-4.5s2.02-4.5 4.5-4.5 4.5 2.02 4.5 4.5-2.02 4.5-4.5 4.5Zm0-6.28c-.98 0-1.78.8-1.78 1.78s.8 1.78 1.78 1.78 1.78-.8 1.78-1.78-.8-1.78-1.78-1.78Z"/>
  <circle class="cls-1" cx="189.53" cy="81.53" r="3.14"/>
  <path class="cls-4" d="M189.53 86.03c-2.48 0-4.5-2.02-4.5-4.5s2.02-4.5 4.5-4.5 4.5 2.02 4.5 4.5-2.02 4.5-4.5 4.5Zm0-6.28c-.98 0-1.78.8-1.78 1.78s.8 1.78 1.78 1.78 1.78-.8 1.78-1.78-.8-1.78-1.78-1.78Z"/>
  <path class="cls-2" d="M79.03 52.74a6.49 6.49 0 0 0-6.49 6.49v12.66a6.49 6.49 0 1 0 12.98 0V59.23a6.49 6.49 0 0 0-6.49-6.49Z"/>
  <path class="cls-4" d="M79.03 79.75c-4.33 0-7.85-3.52-7.85-7.85V59.24c0-4.33 3.52-7.85 7.85-7.85s7.85 3.52 7.85 7.85V71.9c0 4.33-3.52 7.85-7.85 7.85Zm0-25.65c-2.83 0-5.14 2.3-5.14 5.14V71.9c0 2.83 2.3 5.14 5.14 5.14s5.14-2.3 5.14-5.14V59.24c0-2.83-2.3-5.14-5.14-5.14Z"/>
  <path class="cls-2" d="M160.13 172.01c-1.45 12.27-7.02 23.27-15.29 31.58v.08h69.87v-.08c-8.27-8.31-13.85-19.31-15.29-31.58h-39.28Z"/>
  <path class="cls-4" d="M214.7 205.02h-69.87c-.75 0-1.36-.61-1.36-1.36v-.08c0-.36.14-.7.4-.96 8.25-8.29 13.54-19.22 14.91-30.78.08-.68.66-1.2 1.35-1.2h39.28c.69 0 1.27.52 1.35 1.2 1.37 11.56 6.66 22.49 14.91 30.78.25.25.4.6.4.96v.08c0 .75-.61 1.36-1.36 1.36Zm-69.87-1.44Zm3.07-1.28h63.73c-7.2-8.1-11.91-18.23-13.42-28.94h-36.89c-1.51 10.71-6.22 20.84-13.42 28.94Z"/>
  <path class="cls-1" d="M295.07 195.64c-2.39 0-4.64-.93-6.33-2.62-1.69-1.69-2.62-3.94-2.62-6.33s.93-4.64 2.62-6.33l22.69-22.69c2.34-2.34 6.16-2.34 8.5 0 1.14 1.14 1.76 2.64 1.76 4.25s-.63 3.11-1.76 4.25l-14.1 14.1a1.358 1.358 0 0 1-1.92-1.92l14.1-14.1c.62-.62.96-1.45.96-2.33a3.275 3.275 0 0 0-3.29-3.29c-.88 0-1.71.34-2.33.96l-22.69 22.69c-1.18 1.18-1.83 2.75-1.83 4.41s.65 3.23 1.83 4.41 2.74 1.83 4.41 1.83h.04c1.68-.01 3.25-.68 4.43-1.89l26.83-27.53c3.17-3.25 3.13-8.51-.08-11.72-3.24-3.23-8.51-3.25-11.76-.03l-23.4 23.17c-.53.53-1.39.52-1.92 0-.53-.53-.52-1.39 0-1.92l23.4-23.17c4.31-4.27 11.31-4.25 15.6.04 4.26 4.26 4.3 11.22.1 15.53l-26.83 27.53a8.917 8.917 0 0 1-6.36 2.71h-.06Z"/>
  <path class="cls-4" d="M129.68 87.09c-.47 0-.91-.24-1.16-.65l-13.92-22.8a1.35 1.35 0 0 1 .04-1.47c.3-.44.83-.66 1.36-.57l25.98 4.6c.53.09.96.5 1.09 1.02.13.53-.08 1.08-.51 1.4l-4.93 3.68 5.75 3.86c.61.41.78 1.24.39 1.86l-3.29 5.15c-.2.32-.52.53-.89.6-.37.07-.75-.01-1.05-.23l-5.83-4.2-1.7 6.72c-.13.53-.57.93-1.11 1.01-.07.01-.14.02-.2.02Zm-11.19-22.3 10.67 17.47 1.4-5.53c.11-.44.43-.79.85-.94.42-.15.89-.09 1.26.17l6.29 4.53 1.8-2.82-6.24-4.19c-.37-.25-.59-.65-.6-1.09-.01-.44.19-.86.55-1.12l3.95-2.94-19.92-3.53Z"/>
  <path class="cls-1" d="M79.78 161.99h-.16v-7.53H19.99v19.38c0 16.47 13.35 29.82 29.82 29.82 10.12 0 19.06-5.05 24.45-12.75 1.71.68 3.57 1.06 5.53 1.06 8.28 0 14.99-6.71 14.99-14.99s-6.71-14.99-14.99-14.99Zm0 22.27c-.67 0-1.31-.1-1.93-.27 1.15-3.17 1.77-6.58 1.77-10.14v-4.14h.16a7.28 7.28 0 0 1 0 14.56Z"/>
  <path class="cls-4" d="M49.81 205.02c-17.19 0-31.18-13.99-31.18-31.18v-19.38c0-.75.61-1.36 1.36-1.36h59.63c.75 0 1.36.61 1.36 1.36v6.21c8.46.62 15.15 7.69 15.15 16.3s-7.33 16.35-16.35 16.35c-1.72 0-3.4-.27-5.03-.79a31.22 31.22 0 0 1-24.95 12.49Zm-28.46-49.2v18.02c0 15.69 12.77 28.46 28.46 28.46 9.28 0 18-4.55 23.33-12.17.36-.52 1.03-.72 1.62-.48 1.6.64 3.3.96 5.03.96 7.52 0 13.63-6.11 13.63-13.63s-6.11-13.63-13.63-13.63h-.15c-.36.03-.71-.14-.97-.39s-.4-.6-.4-.96v-6.17H21.35Zm58.43 29.79c-.76 0-1.53-.11-2.29-.32a1.363 1.363 0 0 1-.92-1.78c1.12-3.1 1.69-6.36 1.69-9.68v-4.14c0-.74.59-1.34 1.33-1.36h.19c4.76 0 8.64 3.88 8.64 8.64s-3.88 8.64-8.64 8.64Zm-.13-2.72c3.33.08 6.06-2.61 6.06-5.92 0-2.85-2.03-5.24-4.72-5.8v2.67c0 3.09-.45 6.12-1.34 9.05Z"/>
  <path class="cls-1" d="M271.75 33.45H222.2v98.33h74.98v-72.9h-25.43V33.45z"/>
  <path class="cls-4" d="M297.18 133.13H222.2c-.75 0-1.36-.61-1.36-1.36V33.45c0-.75.61-1.36 1.36-1.36h49.55c.75 0 1.36.61 1.36 1.36v24.07h24.07c.75 0 1.36.61 1.36 1.36v72.9c0 .75-.61 1.36-1.36 1.36Zm-73.62-2.72h72.26V60.24h-24.07c-.75 0-1.36-.61-1.36-1.36V34.81h-46.83v95.61Z"/>
  <path class="cls-1" d="M271.75 58.88h25.43l-25.43-25.43v25.43z"/>
  <path class="cls-4" d="M297.18 60.24h-25.43c-.75 0-1.36-.61-1.36-1.36V33.45c0-.55.33-1.04.84-1.26.51-.21 1.09-.09 1.48.29l25.43 25.43c.39.39.51.97.29 1.48-.21.51-.71.84-1.26.84Zm-24.07-2.72h20.79l-20.79-20.79v20.79Z"/>
  <path class="cls-2" d="M261.83 57.83h-24.72c-.75 0-1.36-.61-1.36-1.36s.61-1.36 1.36-1.36h24.72c.75 0 1.36.61 1.36 1.36s-.61 1.36-1.36 1.36ZM282.27 70.88h-45.16c-.75 0-1.36-.61-1.36-1.36s.61-1.36 1.36-1.36h45.16c.75 0 1.36.61 1.36 1.36s-.61 1.36-1.36 1.36ZM282.27 83.93h-45.16c-.75 0-1.36-.61-1.36-1.36s.61-1.36 1.36-1.36h45.16c.75 0 1.36.61 1.36 1.36s-.61 1.36-1.36 1.36ZM282.27 96.99h-45.16c-.75 0-1.36-.61-1.36-1.36s.61-1.36 1.36-1.36h45.16c.75 0 1.36.61 1.36 1.36s-.61 1.36-1.36 1.36ZM268.76 110.04h-31.64c-.75 0-1.36-.61-1.36-1.36s.61-1.36 1.36-1.36h31.64c.75 0 1.36.61 1.36 1.36s-.61 1.36-1.36 1.36Z"/>
  <path class="cls-4" d="M316.7 140.48c-.75 0-1.36-.61-1.36-1.36v-15.13c0-.75.61-1.36 1.36-1.36s1.36.61 1.36 1.36v15.13c0 .75-.61 1.36-1.36 1.36ZM316.7 197.7c-.75 0-1.36-.61-1.36-1.36v-15.13c0-.75.61-1.36 1.36-1.36s1.36.61 1.36 1.36v15.13c0 .75-.61 1.36-1.36 1.36ZM352.87 161.53h-15.13c-.75 0-1.36-.61-1.36-1.36s.61-1.36 1.36-1.36h15.13c.75 0 1.36.61 1.36 1.36s-.61 1.36-1.36 1.36ZM331.58 146.64c-.35 0-.7-.13-.96-.4-.53-.53-.53-1.39 0-1.92l10.7-10.7a1.358 1.358 0 0 1 1.92 1.92l-10.7 10.7c-.27.27-.61.4-.96.4ZM342.27 187.1c-.35 0-.7-.13-.96-.4l-10.7-10.7a1.358 1.358 0 0 1 1.92-1.92l10.7 10.7c.53.53.53 1.39 0 1.92-.27.27-.61.4-.96.4ZM293.46 193.68c-2.39 0-4.64-.93-6.33-2.62-1.69-1.69-2.62-3.94-2.62-6.33s.93-4.64 2.62-6.33l22.69-22.69c2.34-2.34 6.16-2.34 8.5 0 1.14 1.14 1.76 2.64 1.76 4.25s-.63 3.11-1.76 4.25l-14.1 14.1a1.358 1.358 0 0 1-1.92-1.92l14.1-14.1c.62-.62.96-1.45.96-2.33a3.275 3.275 0 0 0-3.29-3.29c-.88 0-1.71.34-2.33.96l-22.69 22.69c-1.18 1.18-1.83 2.75-1.83 4.41s.65 3.23 1.83 4.41 2.74 1.83 4.41 1.83h.04c1.68-.01 3.25-.68 4.43-1.89l26.83-27.53c3.17-3.25 3.13-8.51-.08-11.72-3.24-3.23-8.51-3.25-11.76-.03l-23.4 23.17c-.53.53-1.39.52-1.92 0-.53-.53-.52-1.39 0-1.92l23.4-23.17c4.31-4.27 11.31-4.25 15.6.04 4.26 4.26 4.3 11.22.1 15.53l-26.83 27.53a8.917 8.917 0 0 1-6.36 2.71h-.06Z"/>
</svg>
