<?xml version="1.0" encoding="UTF-8"?>
<svg width="50px" height="50px" viewBox="0 0 50 50" version="1.1" xmlns="http://www.w3.org/2000/svg" xmlns:xlink="http://www.w3.org/1999/xlink">
    <!-- Generator: Sketch 63.1 (92452) - https://sketch.com -->
    <title>not-visible</title>
    <desc>Created with Sketch.</desc>
    <g id="not-visible" stroke="none" stroke-width="1" fill="none" fill-rule="evenodd">
        <g id="hidden-icon" transform="translate(0.000000, 4.000000)" fill="#c0c2db" fill-rule="nonzero">
            <path d="M11.641302,8.28267806 L14.2522872,10.884516 C10.5025442,12.7822569 7.26690104,15.8044545 4.52156865,19.9731733 L4.25095261,20.3902943 L4.03102307,20.7397926 L4.18487455,21.0278599 C8.45058965,28.8666765 14.9523398,32.8743316 23.8900329,33.1771613 L24.3545008,33.1895216 L24.9988756,33.1957347 C28.6624868,33.1957347 31.9332831,32.5955179 34.8241414,31.3866406 L37.4930245,34.0462174 C33.8609108,35.8242453 29.6900548,36.7192982 24.9988756,36.7192982 C13.8725124,36.7192982 5.67216104,31.7242134 0.64423688,21.8897714 L0.421226901,21.4461897 L2.47943888e-10,20.5941277 L0.483035054,19.7752593 C3.53911536,14.5944187 7.26746353,10.7552794 11.641302,8.28267806 Z M24.9563164,4.9454191 C35.2452648,4.9454191 43.3956036,9.74708391 49.2351368,19.1944404 L49.5071717,19.6406872 L50,20.4603899 L49.5791392,21.3189739 C47.3176594,25.932543 44.3877534,29.5210326 40.8131433,32.0688877 L38.2681721,29.539617 C41.1808444,27.5910185 43.6138833,24.8584019 45.5859507,21.3295303 L45.81005,20.9214176 L45.963191,20.6288003 L45.7298811,20.2646959 C40.7861598,12.6844471 34.269738,8.80087371 26.0430463,8.48936698 L25.5926207,8.4759175 L24.9563164,8.46898262 C22.4949956,8.46898262 20.1839065,8.77984715 18.0195028,9.40486556 L15.2181993,6.61861073 C18.2091524,5.50526853 21.4574759,4.9454191 24.9563164,4.9454191 Z M18.361641,14.9806184 L20.8707032,17.48106 C20.1342821,18.3885115 19.6932449,19.5436753 19.6932449,20.8014549 C19.6932449,23.7204705 22.0686567,26.0868002 24.9988756,26.0868002 C26.2605495,26.0868002 27.4193658,25.6480985 28.3299941,24.9154699 L30.8390686,27.4159308 C29.2813522,28.7818745 27.2372373,29.6103637 24.9988756,29.6103637 C20.1151774,29.6103637 16.1561578,25.6664809 16.1561578,20.8014549 C16.1561578,18.5702272 16.9888895,16.5327507 18.361641,14.9806184 Z M24.9988756,11.9925461 C29.8825738,11.9925461 33.8415934,15.9364289 33.8415934,20.8014549 C33.8415934,22.0760145 33.5698634,23.2873508 33.0809653,24.3811106 L30.2495111,21.5652629 C30.2857487,21.315873 30.3045063,21.0608461 30.3045063,20.8014549 C30.3045063,17.8824393 27.9290945,15.5161097 24.9988756,15.5161097 C24.735017,15.5161097 24.4756571,15.5352971 24.2221252,15.5723478 L21.3905208,12.7569188 C22.492389,12.2657029 23.7136103,11.9925461 24.9988756,11.9925461 Z" id="Combined-Shape"></path>
            <path d="M43.8587029,0.521526062 C44.5463639,1.21532534 44.5431274,2.33469094 43.8514659,3.02450207 L4.00885395,42.7605236 C3.31996133,43.4475732 2.20453975,43.4460792 1.51749012,42.7571866 C1.51620302,42.755896 1.51491794,42.7546035 1.51363486,42.7533089 C0.825973886,42.0595097 0.829210403,40.9401441 1.52087192,40.2503329 L41.3634839,0.514311425 C42.0523765,-0.172738209 43.1677981,-0.171244174 43.8548477,0.517648445 C43.8561348,0.518938989 43.8574199,0.52023153 43.8587029,0.521526062 Z" id="Path-29" transform="translate(22.686169, 21.637418) scale(-1, 1) translate(-22.686169, -21.637418) "></path>
        </g>
    </g>
</svg>
