<svg xmlns="http://www.w3.org/2000/svg" viewBox="0 0 469.333 469.333"><path d="M421.334 244.784c2.946-4.234 5.004-9.221 5.299-15.263 1.416-30.344-34.015-87.125-88.173-141.292C284.864 34.635 230.019 0 198.462 0c-10.477.146-16.726 4.292-20.101 7.677-.044.044-28.481 35.217-28.481 35.217C96.76 45.255 21.408 82.81 21.408 138.667c0 14.875 5.312 28.104 15.81 39.313 2.916 3.122 6.358 6.026 10.074 8.802.165.137 8.948 5.865 9.107 5.947 27.712 16.048 64.966 20.605 82.323 20.605 29.287 0 50.575-.792 78.445-11.365 5.437-2.042 11.748.885 13.727 6.198a10.551 10.551 0 0 1-.229 8.156 10.6 10.6 0 0 1-5.957 5.604c-31.182 11.823-55.303 12.74-85.986 12.74s-74.383-8.24-105.045-31.365c-4.562-3.458-11.081-2.677-14.706 1.823L6.807 220.281c-2.875 2.885-6.395 8.125-6.77 16.656-1.208 25.75 27.35 71.698 72.696 117.052 44.201 44.208 89.506 72.76 115.397 72.76h.646c9.165-.177 14.685-3.833 16.831-6.083l209.986-169.49c.062-.042 5.219-5.102 5.741-6.392zM52.719 163.306c-6.708-7.204-9.981-15.264-9.981-24.639 0-35.254 46.674-63.228 87.842-71.853l-77.861 96.492zm236.374-25.702c-36.473-36.469-57.22-66.969-67.551-86.656 20.58 10.74 51.679 32.375 86.756 67.448 36.286 36.302 56.99 66.896 67.28 86.625-20.476-10.74-51.45-32.365-86.485-67.417zM424.771 324.604c-3.958-5.771-13.583-5.771-17.542 0-7.438 10.771-44.563 65.802-44.563 91.396 0 29.406 23.917 53.333 53.333 53.333 29.417 0 53.333-23.927 53.333-53.333.001-25.594-37.124-80.625-44.561-91.396z"/></svg>