<?xml version="1.0" encoding="UTF-8"?>
<svg width="9px" height="12px" viewBox="0 0 9 12" version="1.1" xmlns="http://www.w3.org/2000/svg" xmlns:xlink="http://www.w3.org/1999/xlink">
    <!-- Generator: Sketch 63.1 (92452) - https://sketch.com -->
    <title>ic_local_parking</title>
    <desc>Created with Sketch.</desc>
    <g id="Page-1" stroke="none" stroke-width="1" fill="none" fill-rule="evenodd">
        <g id="Employee-List_Global-Search_Filter-collapse-Copy-2" transform="translate(-190.000000, -390.000000)">
            <g id="Filter-full" transform="translate(178.000000, 178.000000)">
                <g id="Group-4" transform="translate(8.000000, 25.000000)">
                    <g id="Filter-2">
                        <g id="Icons" transform="translate(0.000000, 51.000000)">
                            <g id="ic_local_parking" transform="translate(1.000000, 135.000000)">
                                <g id="Icon-24px">
                                    <polygon id="Shape" points="0 0 14 0 14 14 0 14"></polygon>
                                    <path d="M7.58333333,1.75 L3.5,1.75 L3.5,12.25 L5.83333333,12.25 L5.83333333,8.75 L7.58333333,8.75 C9.51416667,8.75 11.0833333,7.18083333 11.0833333,5.25 C11.0833333,3.31916667 9.51416667,1.75 7.58333333,1.75 L7.58333333,1.75 Z M7.7,6.41666667 L5.83333333,6.41666667 L5.83333333,4.08333333 L7.7,4.08333333 C8.34166667,4.08333333 8.86666667,4.60833333 8.86666667,5.25 C8.86666667,5.89166667 8.34166667,6.41666667 7.7,6.41666667 L7.7,6.41666667 Z" id="shape" fill="#000000"></path>
                                </g>
                            </g>
                        </g>
                    </g>
                </g>
            </g>
        </g>
    </g>
</svg>
