<?xml version="1.0" encoding="UTF-8"?>
<svg width="415px" height="415px" viewBox="0 0 415 415" version="1.1" xmlns="http://www.w3.org/2000/svg" xmlns:xlink="http://www.w3.org/1999/xlink">
    <title>Group 3</title>
    <g id="Page-1" stroke="none" stroke-width="1" fill="none" fill-rule="evenodd">
        <g id="Group-3" transform="translate(0.289844, 0.000000)" fill="#000000" fill-rule="nonzero">
            <path d="M405.958706,165.656506 L359.063706,165.656506 C355.446506,152.457506 350.153506,139.945506 343.422706,128.359506 L375.879706,95.879506 C379.157006,92.598306 379.157006,87.277906 375.8758,84.000506 L328.9848,37.141506 C327.3989,35.555606 325.0629,34.700106 323.016,34.684506 C320.7777,34.688412 318.6293,35.598566 317.0629,37.192306 L284.6369,70.141306 C273.4419,63.785806 261.3989,58.766306 248.7109,55.297306 L248.7109,8.402306 C248.7109,3.761706 244.9492,0 240.3125,0 L174.0395,0 C169.3989,0 165.6411,3.7578 165.6411,8.3984 L165.6411,55.2934 C152.6251,58.8559 140.2971,64.0473 128.8481,70.6414 L95.0201,37.0864 C91.7428,33.8325 86.4459,33.8403 83.1761,37.098118 L36.1491,83.977118 C34.571,85.551318 33.6843,87.684118 33.6803,89.914618 C33.6763,92.145118 34.55921,94.281818 36.1334,95.859918 L70.0514,129.886918 C63.7389,141.042918 58.7504,153.031918 55.2934,165.652918 L8.3984,165.652918 C3.7578,165.652918 -2.84217094e-14,169.410718 -2.84217094e-14,174.051318 L-2.84217094e-14,240.317318 C-2.84217094e-14,244.954018 3.7578,248.715718 8.3984,248.715718 L55.2934,248.715718 C58.7387,261.281718 63.6918,273.219718 69.9654,284.332718 L36.0124,318.262718 C32.7312,321.540018 32.7312,326.860418 36.0124,330.141718 L82.8604,377.032718 C84.501,378.673318 86.6534,379.489718 88.8018,379.489718 C90.9307,379.489718 93.0635,378.685028 94.7002,377.071718 L128.6692,343.606718 C140.1652,350.255118 152.5602,355.477718 165.6422,359.063718 L165.6422,405.954718 C165.6422,410.591418 169.4,414.353118 174.0406,414.353118 L240.3106,414.353118 C244.9473,414.353118 248.709,410.591418 248.709,405.954718 L248.712906,359.067718 C261.462906,355.579418 273.564906,350.520818 284.814906,344.114718 L317.388906,377.005718 C318.963106,378.595518 321.107706,379.486218 323.342006,379.494018 L323.353725,379.494018 C325.584225,379.494018 327.728725,378.603398 329.306825,377.025218 L376.017825,330.134218 C379.295125,326.845118 379.283425,321.532618 375.994387,318.255218 L343.502387,285.868218 C350.189887,274.321218 355.459387,261.868218 359.053387,248.716218 L405.951387,248.716218 C410.588087,248.716218 414.353705,244.954518 414.353705,240.317818 L414.353705,174.055818 C414.361506,169.419118 410.599793,165.657418 405.959193,165.657418 L405.958706,165.656506 Z M344.118706,239.293506 C331.954706,291.160506 291.040706,332.047506 239.158706,344.163506 C238.658706,344.237725 238.186046,344.343196 237.721206,344.499446 C227.877406,346.683046 217.662206,347.870546 207.174206,347.870546 C129.596206,347.870546 66.494206,284.757546 66.494206,207.180546 C66.494206,129.610546 129.607206,66.500546 207.174206,66.500546 C217.639206,66.500546 227.826206,67.680246 237.643206,69.867746 C238.147116,70.035716 238.666606,70.152906 239.201806,70.227116 C291.064806,82.356116 331.955806,123.227116 344.111806,175.067116 C344.189931,175.696026 344.318836,176.297616 344.525866,176.875716 C346.682066,186.641316 347.853966,196.777716 347.853966,207.184716 C347.853966,217.606716 346.678166,227.746716 344.521966,237.532716 C344.322746,238.099126 344.193846,238.681116 344.115716,239.294416 L344.118706,239.293506 Z M323.098706,55.013506 L358.059706,89.947506 L334.028706,113.994506 C324.255306,100.728506 312.446706,89.064506 299.083706,79.420506 L323.098706,55.013506 Z M182.438706,16.802506 L231.907706,16.802506 L231.907706,51.657506 C223.849106,50.380206 215.587706,49.696606 207.173706,49.696606 C198.755706,49.696606 190.497706,50.380196 182.439706,51.657506 L182.438706,16.802506 Z M53.958706,89.950506 L89.122706,54.899506 L114.438706,80.008506 C100.946706,89.871806 89.094706,101.824506 79.325706,115.395506 L53.958706,89.950506 Z M16.794706,231.910506 L16.794706,182.445506 L51.649706,182.445506 C50.372406,190.504106 49.688806,198.757506 49.688806,207.175506 C49.688806,215.593506 50.372396,223.851506 51.649706,231.909506 L16.794706,231.910506 Z M88.845706,359.250506 L53.829706,324.199506 L79.224706,298.820506 C88.966906,312.382506 100.794706,324.343506 114.259706,334.218506 L88.845706,359.250506 Z M231.905706,397.543506 L182.436706,397.543506 L182.436706,362.695506 C190.495306,363.976706 198.756706,364.656406 207.170706,364.656406 C215.588706,364.656406 223.846706,363.980626 231.904706,362.695506 L231.905706,397.543506 Z M358.185706,324.219506 L323.369706,359.164506 L299.248706,334.809506 C312.588706,325.161106 324.365706,313.489506 334.115706,300.223506 L358.185706,324.219506 Z M397.552706,231.907506 L362.693706,231.907506 C363.971006,223.848906 364.654606,215.587506 364.654606,207.173506 C364.654606,198.763306 363.971016,190.501506 362.693706,182.443506 L397.552706,182.443506 L397.552706,231.907506 Z" id="Shape"></path>
            <path d="M207.178706,100.096506 C148.108706,100.096506 100.058706,148.151506 100.058706,207.216506 C100.058706,234.083506 110.070706,258.603506 126.460706,277.427506 C126.484144,277.45485 126.48805,277.490006 126.515394,277.51735 C126.648204,277.6736 126.812274,277.81032 126.945084,277.96657 C129.222384,280.54077 131.616984,283.00177 134.124784,285.35327 C134.499784,285.70483 134.890404,286.04858 135.273184,286.40017 C137.652084,288.56817 140.120884,290.61897 142.695084,292.56427 C143.159924,292.91583 143.624774,293.2713 144.093484,293.61897 C146.648184,295.49007 149.284884,297.23617 152.007584,298.87677 C152.495864,299.17365 152.972424,299.47443 153.468484,299.7674 C156.234084,301.3729 159.073984,302.8533 161.991884,304.2205 C162.456724,304.43144 162.905944,304.67363 163.374684,304.88066 C166.347384,306.22046 169.394184,307.41186 172.495784,308.48226 C172.933284,308.62679 173.351254,308.81429 173.788784,308.95882 C176.902084,309.98222 180.077884,310.84162 183.308284,311.57992 C183.761414,311.68539 184.198914,311.83383 184.652084,311.93148 C187.816184,312.60726 191.042684,313.11898 194.300484,313.50568 C194.820014,313.572086 195.323884,313.68537 195.847384,313.74787 C199.577884,314.13849 203.351284,314.35725 207.183384,314.35725 C211.015384,314.35725 214.788884,314.1385 218.519384,313.74787 C219.027194,313.68537 219.531084,313.57599 220.038884,313.51349 C223.308384,313.12287 226.538884,312.61115 229.714684,311.93539 C230.144374,311.83383 230.570154,311.70101 231.007684,311.59945 C234.253784,310.85336 237.452984,309.98615 240.581884,308.95105 C240.992044,308.82214 241.382664,308.65027 241.784984,308.51355 C244.933384,307.43935 248.011584,306.22835 251.015484,304.88075 C251.441264,304.68934 251.851424,304.47059 252.269384,304.27528 C255.238184,302.89248 258.136584,301.38468 260.949084,299.74008 C261.386584,299.48617 261.804554,299.21274 262.238184,298.95492 C265.027284,297.26742 267.730384,295.47832 270.351484,293.55262 C270.749924,293.25965 271.148364,292.96278 271.538984,292.662 C274.210884,290.6503 276.769484,288.5253 279.226484,286.2714 C279.523364,286.00187 279.816324,285.74406 280.101484,285.47452 C282.745984,283.00972 285.265584,280.42372 287.644484,277.70892 C287.706984,277.642514 287.769484,277.59173 287.824174,277.52533 C287.835892,277.513611 287.835892,277.497986 287.847611,277.486268 C304.273611,258.658268 314.300611,234.115268 314.300611,207.224268 C314.304517,148.154268 266.249611,100.104268 207.180611,100.104268 L207.178706,100.096506 Z M207.178706,116.896906 C256.983706,116.896906 297.502706,157.413506 297.502706,207.213506 C297.502706,226.803506 291.170706,244.897506 280.541706,259.713506 C276.655006,256.807306 272.369806,254.510406 267.729706,253.104106 L234.291706,240.213106 C233.596396,239.951386 232.897206,239.209206 232.897206,238.158406 L232.897206,231.302906 C243.319206,223.564606 249.647206,211.868906 250.303206,198.962906 C250.494616,198.255876 250.600086,197.513706 250.600086,196.744106 L250.600086,178.662106 C250.600086,177.923826 250.494616,177.201206 250.303206,176.517606 C249.182106,153.630606 230.205206,135.345606 207.037206,135.345606 C183.166206,135.345606 163.744206,154.779606 163.744206,178.661606 L163.744206,196.743606 C163.744206,210.458606 170.420006,223.352606 181.451206,231.470606 L181.451206,238.158106 C181.451206,239.212806 180.751986,239.951106 180.041006,240.224506 L146.658006,253.103506 C142.009606,254.509706 137.720506,256.806606 133.822006,259.713506 C123.193006,244.896906 116.861006,226.794906 116.861006,207.212906 C116.8571,157.411906 157.373006,116.896906 207.177006,116.896906 L207.178706,116.896906 Z M240.690706,291.027506 C238.116506,292.070506 235.487606,292.988406 232.823506,293.781406 C232.483666,293.882966 232.136006,293.949376 231.792306,294.050936 C229.405606,294.726716 227.011106,295.340036 224.569606,295.824336 C223.624296,296.007926 222.655506,296.109496 221.702406,296.261836 C219.815706,296.574336 217.940706,296.898556 216.030506,297.089956 C213.112506,297.375116 210.167206,297.539176 207.175006,297.539176 C204.182806,297.539176 201.233606,297.375116 198.319506,297.089956 C196.409306,296.898546 194.526506,296.570426 192.639806,296.261836 C191.694496,296.109496 190.717906,296.007926 189.784306,295.824336 C187.358506,295.343866 184.975706,294.730536 182.604606,294.058736 C182.245226,293.953266 181.878046,293.886856 181.522606,293.777486 C178.889806,292.988426 176.303806,292.074386 173.757006,291.054786 C173.682787,291.027442 173.604666,291.004005 173.526536,290.968848 C162.952536,286.683648 153.194536,280.402848 144.807536,272.370848 C146.940336,270.933348 149.264536,269.839648 151.717736,269.116948 C151.940396,269.050542 152.166956,268.976328 152.385706,268.894288 L186.053706,255.906288 C193.346706,253.117188 198.241706,245.984388 198.241706,238.152288 L198.241706,226.918288 C198.241706,223.906588 196.624506,221.117488 194.007306,219.621388 C185.698706,214.879188 180.534306,206.109388 180.534306,196.734388 L180.534306,178.652388 C180.534306,164.031388 192.417306,152.136388 207.026306,152.136388 C221.655306,152.136388 233.549306,164.031388 233.549306,178.652388 C233.549306,179.324268 233.635244,179.972688 233.791496,180.601588 L233.791496,194.730588 C233.635246,195.375118 233.549306,196.039188 233.549306,196.734488 C233.549306,206.140688 228.572706,214.664488 220.244306,219.546488 C217.670106,221.054288 216.088106,224.011288 216.088106,226.987888 L216.088106,238.143888 C216.088106,245.971988 220.994306,253.112888 228.264106,255.885888 L261.983106,268.881888 C262.201856,268.967825 262.420606,269.038138 262.639356,269.104548 C265.084656,269.823298 267.404956,270.917048 269.526056,272.350648 C261.143256,280.393648 251.378056,286.682648 240.803056,290.959648 C240.7679,290.99871 240.728838,291.010429 240.689776,291.026054 L240.690706,291.027506 Z" id="Shape"></path>
        </g>
    </g>
</svg>