<svg xmlns="http://www.w3.org/2000/svg" width="16" height="15" viewBox="0 0 16 15">
    <path fill="#615E88" d="M10.505 0c.829 0 1.5.672 1.5 1.5v2.219h1.51c.78 0 1.42.595 1.493 1.356l.007.145v4.532c0 .78-.595 1.42-1.355 1.493l-.145.007h-1.51V15h-9v-3.748H1.5c-.78 0-1.42-.595-1.493-1.355L0 9.752V5.22c0-.78.595-1.42 1.356-1.494L1.5 3.72l1.505-.001V1.5c0-.828.672-1.5 1.5-1.5h6zm.5 9h-7v5h7V9zm-1.51 3.037c.276 0 .5.223.5.5 0 .245-.177.45-.41.491l-.09.009H5.51c-.276 0-.5-.224-.5-.5 0-.246.177-.45.41-.492l.09-.008h3.983zm-2.469-1.884c.276 0 .5.224.5.5 0 .246-.177.45-.41.492l-.09.008H5.511c-.276 0-.5-.223-.5-.5 0-.245.177-.45.41-.492l.09-.008h1.515zM3.005 4.72H1.5c-.245 0-.45.177-.492.41L1 5.22v4.533c0 .246.177.45.41.492l.09.008h1.505V8h9v2.252h1.51c.246 0 .45-.177.492-.41l.008-.09V5.22c0-.246-.177-.45-.41-.492l-.09-.008-1.51-.001v.002h-9v-.002zM10.505 1h-6c-.245 0-.45.177-.492.41l-.008.09-.001 2.219h7l.001-2.219c0-.245-.176-.45-.41-.492L10.505 1z"/>
</svg>
