<svg xmlns="http://www.w3.org/2000/svg" viewBox="0 0 496 496">
  <path d="M402.5 432L384 376.4a56 56 0 00-43.1-37.4l-53.5-9.7v-4.1a80.5 80.5 0 0023.9-21.2h16.1a24 24 0 0024-24v-96a104.1 104.1 0 00-208 0v56a32 32 0 0025.5 31.3 80.1 80.1 0 0038.5 53.9v4.1L154 339a56 56 0 00-43.1 37.4l-3.2 9.6-27.3-27.2a8 8 0 010-11.3l31.6-31.6-59.3-59.3L17 292.3a55.6 55.6 0 000 79.2l108.1 108a55.6 55.6 0 0079 .3l39-35.7-12.2-12.1h171.6zm-67-152a8 8 0 01-8 8h-6.8c2.3-5.3 4-10.9 5.2-16.7 3.4-.7 6.6-2 9.5-3.7V280zm-8-26.2v-27.6c4.7 2.8 8 7.9 8 13.8s-3.3 11-8 13.8zm-160 0a16 16 0 010-27.6v27.6zm0-53.8v9.1c-3 .8-5.6 1.9-8 3.3V184a88.1 88.1 0 01176 0v28.4a31.4 31.4 0 00-8-3.3V200h-8a88 88 0 01-62.7-26l-9.4-9.3-9.3 9.4a88 88 0 01-62.7 25.9h-8zm16 56v-40.3c24-1.8 46.4-11.7 64-28.4 17.5 16.7 39.9 26.6 64 28.4V256c0 11.7-3.3 22.6-8.7 32h-55.4v16h42.2a64 64 0 01-106.2-48zm88 76.3v.4l-24 24-24-24v-.4a79.9 79.9 0 0048 0zM126 381.5a40 40 0 0130.8-26.7l56-10.2 34.6 34.7 34.7-34.7 56 10.2a40 40 0 0130.7 26.7l11.5 34.5H215l-31.2-31.2-34.6 31.4c-3 3-8.3 3-11.3 0l-17.5-17.5 5.7-17.2zM52.7 279.2l36.7 36.7-8.7 8.7L44 287.9l8.7-8.7zM193 468.3a39.8 39.8 0 01-56.6 0L28.3 360.2a39.7 39.7 0 010-56.6l4.4-4.4 36.7 36.7-.3.3a24 24 0 000 34l57.3 57.3a23.9 23.9 0 0033.7.3l.6-.6 36.9 36.9-4.6 4.2zm16.4-15l-36.8-36.8 10.6-9.6 36.7 36.7-10.5 9.7zM471.4 0h-112a24 24 0 00-24 24v64a24 24 0 0024 24h21.4l-8.3 48.2 77.2-48.2h21.7a24 24 0 0024-24V24a24 24 0 00-24-24zm8 88a8 8 0 01-8 8h-26.3l-50.8 31.8 5.5-31.8h-40.4a8 8 0 01-8-8V24a8 8 0 018-8h112a8 8 0 018 8v64z"/>
  <path d="M367.4 32h96v16h-96zM367.4 64h64v16h-64zM447.4 64h16v16h-16zM247.4 24a223.9 223.9 0 00-218 173.2l-15.1-25.3L.6 180l28 46.9 47-28.1-8.3-13.8-21.7 13A207.9 207.9 0 01309.1 49.3l4.7-15.3c-21.4-6.6-43.7-10-66.4-10zM491.5 177.1l-46.8-28-28.1 46.8 13.7 8.2 14-23.3A208.5 208.5 0 01409 379l12.5 10a224.5 224.5 0 0038.3-212.2l23.5 14 8.2-13.7z"/>
</svg>
