<svg xmlns="http://www.w3.org/2000/svg" width="18" height="18" viewBox="0 0 18 18">
    <path fill="#FFF" fill-rule="nonzero" d="M13.125 1.65H15.7a1.3 1.3 0 0 1 1.3 1.3v5.173a.5.5 0 0 1-1 0V6.375H1v9.375a.3.3 0 0 0 .3.3h6.76a.5.5 0 1 1 0 1H1.3a1.3 1.3 0 0 1-1.3-1.3V2.95a1.3 1.3 0 0 1 1.3-1.3H4v-.3c0-.276.252-.5.563-.5.31 0 .562.224.562.5v.3H8v-.3c0-.276.252-.5.563-.5.31 0 .562.224.562.5v.3H12v-.3c0-.276.252-.5.563-.5.31 0 .562.224.562.5v.3zm0 1v.3c0 .276-.252.5-.563.5-.31 0-.562-.224-.562-.5v-.3H9.125v.3c0 .276-.252.5-.563.5-.31 0-.562-.224-.562-.5v-.3H5.125v.3c0 .276-.252.5-.563.5-.31 0-.562-.224-.562-.5v-.3H1.3a.3.3 0 0 0-.3.3v2.3h15v-2.3a.3.3 0 0 0-.3-.3h-2.575zm-.188 10.664v-1.62c0-.276.252-.5.563-.5.31 0 .563.224.563.5v2.182a.477.477 0 0 1-.19.374.477.477 0 0 1-.373.189h-1.455c-.276 0-.5-.252-.5-.563 0-.31.224-.562.5-.562h.893zm.563 4.636a4.5 4.5 0 1 1 0-9 4.5 4.5 0 0 1 0 9zm0-1a3.5 3.5 0 1 0 0-7 3.5 3.5 0 0 0 0 7z"/>
</svg>
