<svg width="50" height="50" viewBox="0 0 50 50" xmlns="http://www.w3.org/2000/svg"><g fill="#6B7E91" fill-rule="evenodd"><path d="M31.402 22.695c7.147 1.828 10.693 5.61 10.64 11.348H8v-.125c.43-6.552 4.093-10.223 10.991-11.014 4.227 2.22 8.364 2.15 12.41-.209zM24.378 0c5.157 0 7.735 2.793 7.735 8.38-.47 7.883-3.07 11.705-7.8 11.468-4.732-.238-7.332-4.06-7.802-11.468C16.599 2.793 19.22 0 24.378 0z"/><path d="M40.817 40.426c.677 0 1.226.476 1.226 1.063 0 .546-.473.996-1.083 1.057l-.143.007H9.225C8.55 42.553 8 42.077 8 41.49c0-.545.473-.995 1.082-1.056l.143-.007h31.592zM29.136 47.872c.665 0 1.204.477 1.204 1.064 0 .546-.465.995-1.064 1.057l-.14.007H9.205C8.539 50 8 49.524 8 48.936c0-.545.465-.995 1.064-1.057l.14-.007h19.932z" fill-rule="nonzero"/></g></svg>
