<svg width="150" height="150" viewBox="0 0 18 18" xmlns="http://www.w3.org/2000/svg">
    <g transform="translate(.111 .111)" fill="#5f6368" fill-rule="nonzero">
        <circle cx="5.38" cy="9.454" r="1"/>
        <path fill="none" d="M0 0h17.778v17.778H0z"/>
        <path d="M15.556 15.556V3.164c0-.9-.707-1.63-1.575-1.63h-1.236A2.045 2.045 0 0 0 10.925.37H4.26c-1.123 0-2.037.95-2.037 2.115v13.07h-.926a.926.926 0 0 0 0 1.852h15.185a.926.926 0 0 0 0-1.852h-.925zm-2.593-.066V3.437h.74V15.49h-.74zm-1.852 0H4.074V2.478a.2.2 0 0 1 .185-.204h6.658a.2.2 0 0 1 .194.211V15.49z"/>
    </g>
</svg>
