<svg width="18" height="18" xmlns="http://www.w3.org/2000/svg"><path d="M13 1.2h2.7A1.3 1.3 0 0 1 17 2.5v5.173a.5.5 0 0 1-1 0V5.8H1v9.5a.3.3 0 0 0 .3.3h6.76a.5.5 0 0 1 0 1H1.3A1.3 1.3 0 0 1 0 15.3V2.5a1.3 1.3 0 0 1 1.3-1.3H4V.9a.5.5 0 0 1 1 0v.3h3V.9a.5.5 0 0 1 1 0v.3h3V.9a.5.5 0 0 1 1 0v.3zm0 1v.3a.5.5 0 0 1-1 0v-.3H9v.3a.5.5 0 0 1-1 0v-.3H5v.3a.5.5 0 0 1-1 0v-.3H1.3a.3.3 0 0 0-.3.3v2.3h15V2.5a.3.3 0 0 0-.3-.3H13zm0 10.664v-1.682a.5.5 0 0 1 1 0v2.182a.5.5 0 0 1-.5.5h-1.455a.5.5 0 1 1 0-1H13zm.5 4.636a4.5 4.5 0 1 1 0-9 4.5 4.5 0 0 1 0 9zm0-1a3.5 3.5 0 1 0 0-7 3.5 3.5 0 0 0 0 7z" fill-rule="nonzero"/></svg>