<svg width="16" height="15" xmlns="http://www.w3.org/2000/svg"><g fill-rule="nonzero"><path d="M.609 14.628h14.6a.549.549 0 0 0 .556-.555V1.691a.549.549 0 0 0-.555-.554h-2.747V.663a.549.549 0 0 0-.555-.555.549.549 0 0 0-.555.555v.474H4.56V.663a.549.549 0 0 0-.555-.555.549.549 0 0 0-.554.555v.474H.609a.549.549 0 0 0-.555.554v12.396c0 .297.257.54.555.54zm.555-12.382H3.45v.298c0 .311.243.555.554.555a.549.549 0 0 0 .555-.555v-.298h6.793v.298c0 .311.244.555.555.555a.549.549 0 0 0 .555-.555v-.298h2.206v1.435H1.164V2.246zm0 2.544h13.491v8.742H1.164V4.79z"/><path d="M11.908 7.334H3.924a.549.549 0 0 0-.555.555c0 .311.244.555.555.555h7.984a.549.549 0 0 0 .555-.555.549.549 0 0 0-.555-.555zM7.916 10.014H3.924a.549.549 0 0 0-.555.554c0 .312.244.555.555.555h3.992a.549.549 0 0 0 .555-.555.549.549 0 0 0-.555-.554z"/></g></svg>