<svg width="512px" height="512px" viewBox="0 0 512 512" version="1.1" xmlns="http://www.w3.org/2000/svg" xmlns:xlink="http://www.w3.org/1999/xlink">
    <g id="Artboard-Copy" stroke="none" stroke-width="1" fill="none" fill-rule="evenodd">
        <g id="Group-17-Copy-2" transform="translate(15.500000, 65.500000)">
            <path d="M373.079247,134.660001 C373.207325,134.660001 181.409448,134.660001 181.409448,134.660001 C181.409448,134.660001 181.409448,280.554039 181.409448,364.925004 C181.409448,375.498678 185.141935,376.174864 373.079247,371.723158 C373.571773,371.711492 372.951088,134.660001 373.079247,134.660001 Z" id="Oval-Copy-7" fill="#EDEDF9"></path>
            <path d="M-14.3988382,113.061991 C14.3307619,168.086856 54.1754734,188.7611 105.135296,175.084724 C181.575031,154.570161 156.728063,79.6652953 112.595108,78.1710959 C68.4621525,76.6768965 49.864161,144.666578 118.880999,187.110503 C157.418327,210.810161 205.391508,177.599001 212.055285,134.832546 C217.325725,101.008182 208.414095,74.6660479 194.250528,63.9342468" id="Path-15" stroke="#7176C4" stroke-width="5.35500006" opacity="0.3" stroke-linecap="round" stroke-dasharray="17.85000085830688" transform="translate(99.594214, 129.470976) scale(1, -1) rotate(109.000000) translate(-99.594214, -129.470976) "></path>
            <path d="M53.896072,248.900003 C55.1283574,248.900003 56.127322,249.898967 56.127322,251.131253 L56.1270005,259.509003 L64.5058936,259.509824 C65.7381789,259.509824 66.7371436,260.508789 66.7371436,261.741074 C66.7371436,262.97336 65.7381789,263.972324 64.5058936,263.972324 L56.1270005,263.972003 L56.127322,272.343411 C56.127322,273.575696 55.1283574,274.574661 53.896072,274.574661 C52.6637867,274.574661 51.664822,273.575696 51.664822,272.343411 L51.6640005,263.972003 L43.2862505,263.972324 C42.0539651,263.972324 41.0550005,262.97336 41.0550005,261.741074 C41.0550005,260.508789 42.0539651,259.509824 43.2862505,259.509824 L51.6640005,259.509003 L51.664822,251.131253 C51.664822,249.898967 52.6637867,248.900003 53.896072,248.900003 Z" id="Combined-Shape" fill="#BCBCE2"></path>
            <polygon id="Path-2-Copy" stroke="#BCBCE2" stroke-width="5.35500006" opacity="0.5" stroke-linejoin="round" points="301.665003 81.7147036 330.961513 81.7147036 316.313258 56.1200006"></polygon>
            <path d="M468.562505,261.395003 C474.970389,261.395003 480.165005,256.200387 480.165005,249.792503 C480.165005,243.384619 474.970389,238.190003 468.562505,238.190003 C462.154621,238.190003 456.960005,243.384619 456.960005,249.792503 C456.960005,256.200387 462.154621,261.395003 468.562505,261.395003 Z" id="Oval-Copy-3" stroke="#BCBCE2" stroke-width="6.06900007" stroke-linecap="round" stroke-linejoin="round" stroke-dasharray="24.98999977111816"></path>
            <g id="Group-16" transform="translate(162.435002, 102.530001)">
                <path d="M210.749548,217.770002 L210.749548,266.399767 C210.749548,270.34308 207.552861,273.539767 203.609548,273.539767 C203.534425,273.539767 203.459308,273.538582 203.384223,273.536211 L166.005002,272.356005 L166.005002,272.356005 L210.749548,217.770002 Z" id="Path-14" fill="#BCBCE2"></path>
                <path d="M162.821335,273.105003 L14.2800002,273.105003 C6.39337384,273.105003 0,266.711629 0,258.825003 L0,26.7750003 C0,18.888374 6.39337384,12.4950001 14.2800002,12.4950001 L196.350002,12.4950001 C204.236628,12.4950001 210.630002,18.888374 210.630002,26.7750003 L210.630002,235.193138" id="Rectangle" stroke="#7176C4" stroke-width="4.71609533" stroke-linecap="round" stroke-linejoin="round"></path>
                <circle id="Oval" fill="#FFFFFF" cx="126.735001" cy="198.135002" r="42.8400005"></circle>
                <g id="Group-12" stroke-linecap="round" stroke-linejoin="round" transform="translate(33.915000, 74.970001)">
                    <g id="Group-9">
                        <circle id="Oval" fill="#DBDBF3" opacity="0.300000012" cx="10.7100001" cy="10.7100001" r="10.7100001"></circle>
                        <line x1="36.5925004" y1="9.81750011" x2="142.800002" y2="9.81750011" id="Path-8-Copy-6" stroke="#DBDBF3" stroke-width="8.9250001" stroke-linecap="round"></line>
                    </g>
                    <g id="Group-10" transform="translate(0.000000, 44.625000)">
                        <circle id="Oval" fill="#EDEDF9" opacity="0.300000012" cx="10.7100001" cy="10.7100001" r="10.7100001"></circle>
                        <line x1="36.5925004" y1="9.81750011" x2="142.800002" y2="9.81750011" id="Path-8-Copy-5" stroke="#DBDBF3" stroke-width="8.9250001" stroke-linecap="round"></line>
                    </g>
                    <g id="Group-11" transform="translate(0.000000, 80.325001)">
                        <line x1="36.5925004" y1="20.5275002" x2="51.7650006" y2="20.5275002" id="Path-8-Copy-4" stroke="#DBDBF3" stroke-width="8.9250001" stroke-linecap="round"></line>
                        <g id="Group-13" transform="translate(51.765001, 0.000000)">
                            <line x1="87.465001" y1="83.8950009" x2="132.445163" y2="121.24974" id="Path-9" stroke="#7176C4" stroke-width="9" stroke-linecap="round"></line>
                            <circle id="Oval" stroke="#7176C4" stroke-width="4.71" fill="#EDEDF9" cx="53.5500006" cy="53.5500006" r="51.1950006"></circle>
                            <path d="M79.2800401,73.6531102 C82.8601074,68.4713325 84.9569239,62.1862514 84.9569239,55.4114326 C84.9569239,46.2494418 81.1221059,37.9831207 74.9700008,32.1300004" id="Oval" stroke="#BCBCE2" stroke-width="7.14000008" stroke-linecap="round"></path>
                        </g>
                        <circle id="Oval" fill="#EDEDF9" opacity="0.300000012" cx="10.7100001" cy="19.6350002" r="10.7100001"></circle>
                    </g>
                </g>
                <path d="M49.9800006,0 L160.650002,0 C168.536628,-1.44874975e-15 174.930002,6.39337384 174.930002,14.2800002 L174.930002,30.3450003 C174.930002,31.3308286 174.13083,32.1300004 173.145002,32.1300004 L37.4850004,32.1300004 C36.4991721,32.1300004 35.7000004,31.3308286 35.7000004,30.3450003 L35.7000004,14.2800002 C35.7000004,6.39337384 42.0933742,1.44874975e-15 49.9800006,0 Z" id="Rectangle" stroke="#7176C4" stroke-width="4.71609533" fill="#EDEDF9" stroke-linecap="round" stroke-linejoin="round"></path>
            </g>
        </g>
    </g>
</svg>
