<svg width="18" height="18" xmlns="http://www.w3.org/2000/svg"><path d="M16.62 7.211c.507.085.876.522.87 1.037v1.494c0 .514-.37.95-.877 1.036l-1.193.199c-.12.397-.284.784-.479 1.157l.703.986c.298.42.248.99-.114 1.353l-1.057 1.057a1.042 1.042 0 0 1-.742.31c-.22 0-.433-.068-.61-.196l-.984-.703c-.369.195-.756.355-1.157.48l-.202 1.192a1.048 1.048 0 0 1-1.036.876H8.244c-.515 0-.951-.369-1.036-.876l-.199-1.193a6.714 6.714 0 0 1-1.122-.461l-.997.71a1.042 1.042 0 0 1-1.349-.114l-1.057-1.057a1.046 1.046 0 0 1-.114-1.353l.7-.972a6.567 6.567 0 0 1-.487-1.154l-1.206-.205A1.048 1.048 0 0 1 .5 9.777V8.283c0-.514.37-.951.877-1.036l1.178-.199c.12-.401.277-.788.472-1.16l-.71-.998a1.05 1.05 0 0 1 .114-1.352L3.49 2.48c.196-.198.462-.308.743-.308.22 0 .433.067.61.195l.976.703c.37-.2.756-.362 1.153-.487l.206-1.206A1.048 1.048 0 0 1 8.216.5H9.71c.514 0 .951.37 1.036.877l.199 1.178c.415.124.816.291 1.2.493l.986-.702a1.042 1.042 0 0 1 1.349.114l1.057 1.057c.366.362.412.933.114 1.352l-.703.983c.195.37.355.756.48 1.157l1.192.202zm-.082 2.53h.004V8.249a.092.092 0 0 0-.078-.093l-1.49-.252a.471.471 0 0 1-.384-.351 5.681 5.681 0 0 0-.618-1.487.48.48 0 0 1 .022-.522l.876-1.231a.096.096 0 0 0-.01-.12l-1.058-1.059a.095.095 0 0 0-.068-.028.106.106 0 0 0-.053.018l-1.224.88a.48.48 0 0 1-.522.021 5.76 5.76 0 0 0-1.522-.624.48.48 0 0 1-.355-.387l-.249-1.48a.092.092 0 0 0-.092-.078H8.223a.092.092 0 0 0-.093.078l-.255 1.501a.486.486 0 0 1-.351.383 5.628 5.628 0 0 0-1.484.625.486.486 0 0 1-.525-.021L4.29 3.148a.087.087 0 0 0-.053-.018.09.09 0 0 0-.067.028L3.112 4.216a.097.097 0 0 0-.01.12l.883 1.243c.11.152.12.355.025.518a5.676 5.676 0 0 0-.607 1.49.48.48 0 0 1-.387.355l-1.48.249a.092.092 0 0 0-.078.092v1.494c0 .046.032.085.078.093l1.502.255c.184.032.333.17.383.351.135.522.348 1.023.625 1.484a.486.486 0 0 1-.022.525l-.873 1.225a.096.096 0 0 0 .01.12l1.058 1.058a.095.095 0 0 0 .068.028.106.106 0 0 0 .053-.017l1.242-.884a.467.467 0 0 1 .277-.089c.082 0 .167.021.241.064a5.9 5.9 0 0 0 1.456.596c.18.046.319.195.35.384l.25 1.49a.092.092 0 0 0 .092.078h1.494a.092.092 0 0 0 .092-.078l.252-1.49a.471.471 0 0 1 .351-.384 5.681 5.681 0 0 0 1.487-.617.48.48 0 0 1 .522.021l1.232.877c.014.01.032.017.053.017a.09.09 0 0 0 .067-.028l1.058-1.058a.097.097 0 0 0 .01-.12l-.876-1.235a.48.48 0 0 1-.021-.522c.277-.465.482-.965.617-1.487a.476.476 0 0 1 .384-.352l1.49-.248a.092.092 0 0 0 .078-.092zM8.996 5.328a3.668 3.668 0 0 1 3.667 3.666 3.669 3.669 0 0 1-3.667 3.666A3.669 3.669 0 0 1 5.33 8.993a3.669 3.669 0 0 1 3.666-3.666zm0 6.374a2.71 2.71 0 0 0 2.708-2.708 2.71 2.71 0 0 0-2.708-2.708A2.71 2.71 0 0 0 6.29 8.993 2.71 2.71 0 0 0 8.996 11.7z" fill-rule="nonzero" id="white icon-black" /></svg>