<?xml version="1.0" encoding="UTF-8"?>
<svg width="24px" height="24px" viewBox="0 0 24 24" version="1.1" xmlns="http://www.w3.org/2000/svg" xmlns:xlink="http://www.w3.org/1999/xlink">
    <!-- Generator: Sketch 61.1 (89650) - https://sketch.com -->
    <title>water (1)</title>
    <desc>Created with Sketch.</desc>
    <g id="Page-1" stroke="none" stroke-width="1" fill="none" fill-rule="evenodd">
        <g id="Supplier_Summary1.1" transform="translate(-1080.000000, -244.000000)" fill="#7C7E8D" fill-rule="nonzero">
            <g id="water-(1)" transform="translate(1080.000000, 244.000000)">
                <path d="M24,21.65625 C24,22.1740723 23.5803223,22.59375 23.0625,22.59375 C20.6548462,22.59375 20.5129395,24 17.5310669,24 C14.5321655,24 14.4215698,22.59375 11.9998169,22.59375 C9.59216306,22.59375 9.45043945,24 6.46856691,24 C3.46984866,24 3.35925291,22.59375 0.9375,22.59375 C0.419677734,22.59375 -1.33226763e-15,22.1740723 -1.33226763e-15,21.65625 C-1.33226763e-15,21.1384277 0.419677734,20.71875 0.9375,20.71875 C3.93640134,20.71875 4.04681395,22.125 6.46856691,22.125 C8.90185547,22.125 8.99102784,20.71875 11.9998169,20.71875 C14.9987182,20.71875 15.1091309,22.125 17.5310669,22.125 C19.9643555,22.125 20.0537109,20.71875 23.0625,20.71875 C23.5803223,20.71875 24,21.1384277 24,21.65625 Z M14.8125,17.1165161 L14.8125,12.09375 C14.8125,10.871521 14.0286255,9.82946775 12.9375,9.44256591 L12.9375,12 C12.9375,12.5178223 12.5178223,12.9375 12,12.9375 C11.4821777,12.9375 11.0625,12.5178223 11.0625,12 L11.0625,11.15625 L0.9375,11.15625 C0.419677734,11.15625 -1.33226763e-15,10.7365723 -1.33226763e-15,10.21875 L-1.33226763e-15,2.71875 C-1.33226763e-15,2.20092773 0.419677734,1.78125 0.9375,1.78125 L11.0625,1.78125 L11.0625,0.9375 C11.0625,0.419677734 11.4821777,0 12,0 C12.5178223,0 12.9375,0.419677734 12.9375,0.9375 L12.9375,3.70861819 C17.1503906,4.17645262 20.4375,7.75817869 20.4375,12.09375 L20.4375,17.0289917 C21.065918,16.7457276 21.8439331,16.5 23.0625,16.5 C23.5803223,16.5 24,16.9196777 24,17.4375 C24,17.9553223 23.5803223,18.375 23.0625,18.375 C20.6548462,18.375 20.5129395,19.78125 17.5310669,19.78125 C14.5321655,19.78125 14.4215698,18.375 11.9998169,18.375 C9.59216306,18.375 9.45043945,19.78125 6.46856691,19.78125 C3.46984866,19.78125 3.35925291,18.375 0.9375,18.375 C0.419677734,18.375 -1.33226763e-15,17.9553223 -1.33226763e-15,17.4375 C-1.33226763e-15,16.9196777 0.419677734,16.5 0.9375,16.5 C3.93640134,16.5 4.04681395,17.90625 6.46856691,17.90625 C8.90185547,17.90625 8.99102784,16.5 11.9998169,16.5 C13.3425293,16.5 14.1503906,16.7984619 14.8125,17.1165161 Z M11.0623169,3.65625 L1.875,3.65625 L1.875,9.28125 L11.0619507,9.28125 L11.0623169,3.65625 Z M16.6875,12.09375 L16.6875,17.8474732 C16.9299316,17.8851929 17.2053223,17.90625 17.5310669,17.90625 C17.9441528,17.90625 18.276123,17.8723755 18.5625,17.8135987 L18.5625,12.09375 C18.5625,8.79345703 16.1134643,6.05493164 12.9375,5.59844972 L12.9375,7.50054933 C15.0745239,7.93597411 16.6875,9.83001708 16.6875,12.09375 Z" id="Shape"></path>
            </g>
        </g>
    </g>
</svg>