<svg viewBox="0 0 512 512" xmlns="http://www.w3.org/2000/svg">
  <path d="M182.857 182.857H36.57v292.572h146.286v-73.143H91.428c-10.099 0-18.286-8.186-18.286-18.285 0-10.1 8.187-18.287 18.286-18.287h91.429v-73.143H91.428c-10.099 0-18.286-8.186-18.286-18.285 0-10.1 8.187-18.286 18.286-18.286h91.429v-73.143zm0 0v-36.571 36.57zM201.143 512H18.285C8.187 512 0 503.814 0 493.715V164.572c0-10.1 8.186-18.286 18.285-18.286h164.572V18.285C182.857 8.187 191.043 0 201.143 0h292.572C503.813 0 512 8.186 512 18.285v475.43c0 10.098-8.186 18.285-18.285 18.285H201.143zm18.286-347.428V384h256V36.57h-256v128zm0 310.857h256v-54.857h-256v54.857zm54.857-347.43c0-10.098 8.186-18.285 18.285-18.285 10.1 0 18.286 8.186 18.286 18.285v182.858c0 10.1-8.187 18.286-18.286 18.286-10.098 0-18.285-8.186-18.285-18.286V128zm109.715 0c0-10.098 8.185-18.285 18.285-18.285 10.099 0 18.286 8.186 18.286 18.285v182.858c0 10.1-8.187 18.286-18.286 18.286-10.099 0-18.285-8.186-18.285-18.286V128z" fill-rule="nonzero"/>
</svg>