<?xml version="1.0" encoding="UTF-8"?>
<svg width="53px" height="53px" viewBox="0 0 53 53" version="1.1" xmlns="http://www.w3.org/2000/svg" xmlns:xlink="http://www.w3.org/1999/xlink">
    <title>space-management</title>
    <g id="Design" stroke="none" stroke-width="1" fill="none" fill-rule="evenodd">
        <g id="Workplace-Analytics_V2-Copy" transform="translate(-140.000000, -238.000000)" fill="#FFFFFF" fill-rule="nonzero">
            <g id="Group-3-Copy" transform="translate(100.000000, 198.000000)">
                <g id="space-management" transform="translate(40.000000, 40.000000)">
                    <path d="M52.0862069,50.5909091 C52.590849,50.5909091 53,51.2965463 53,51.7954545 C53,52.2943628 52.590849,53 52.0862069,53 L0.913793103,53 C0.409150984,53 0,52.2943628 0,51.7954545 C0,51.2965463 0.409150984,50.5909091 0.913793103,50.5909091 L2.74137931,50.5909091 L2.74137931,0.903409091 C2.74137931,0.404501541 3.15053005,0 3.65517241,0 L32.8965517,0 C33.4011938,0 33.8103448,0.404501541 33.8103448,0.903409091 L33.8103448,50.5909091 L48.4310345,50.5909091 L48.4310345,40.0631818 L38.9885057,40.0631818 C38.4838634,40.0631818 38.0747126,39.3575439 38.0747126,38.8586364 C38.0747126,38.3597286 38.4838634,37.6540909 38.9885057,37.6540909 L48.4310345,37.6540909 L48.4310345,26.8131818 L38.9885057,26.8131818 C38.4838634,26.8131818 38.0747126,26.0954987 38.0747126,25.5965909 C38.0747126,25.0976834 38.4838634,24.3920455 38.9885057,24.3920455 L48.4310345,24.3920455 L48.4310345,15.0568182 L36.5517241,15.0568182 C36.047082,15.0568182 35.637931,14.3511805 35.637931,13.8522727 C35.637931,13.3533652 36.047082,12.6477273 36.5517241,12.6477273 L37.7701149,12.6477273 L40.2068966,12.6477273 L42.0344828,12.6477273 L44.4712644,12.6477273 L49.3448276,12.6477273 C49.8494697,12.6477273 50.2586207,13.0522286 50.2586207,13.5511364 L50.2586207,50.5909091 L52.0862069,50.5909091 Z M5.19034483,7.22727273 L5.19034483,44.8693182 L31.3857471,44.8693182 L31.3857471,7.22727273 L5.19034483,7.22727273 Z M31.3857471,2.40909091 L5.19034483,2.40909091 L5.19034483,4.81818182 L31.3857471,4.81818182 L31.3857471,2.40909091 Z M5.19034483,44.8693182 L5.19034483,50.6029545 L31.3857471,50.6029545 L31.3857471,44.8693182 L5.19034483,44.8693182 Z M14.6206897,13.8522727 C15.293546,13.8522727 15.8390805,14.1564327 15.8390805,14.5315802 L15.8390805,42.3831925 C15.8390805,42.75834 15.293546,43.0625 14.6206897,43.0625 C13.9478333,43.0625 13.4022989,42.75834 13.4022989,42.3831925 L13.4022989,14.5315802 C13.4022989,14.1564327 13.9478333,13.8522727 14.6206897,13.8522727 Z M21.9310345,13.8522727 C22.6038908,13.8522727 23.1494253,14.1564327 23.1494253,14.5315802 L23.1494253,42.3831925 C23.1494253,42.75834 22.6038908,43.0625 21.9310345,43.0625 C21.2581782,43.0625 20.7126437,42.75834 20.7126437,42.3831925 L20.7126437,14.5315802 C20.7126437,14.1564327 21.2581782,13.8522727 21.9310345,13.8522727 Z"></path>
                </g>
            </g>
        </g>
    </g>
</svg>