<?xml version="1.0" encoding="UTF-8"?>
<svg width="24px" height="24px" viewBox="0 0 24 24" version="1.1" xmlns="http://www.w3.org/2000/svg" xmlns:xlink="http://www.w3.org/1999/xlink">
    <!-- Generator: Sketch 52.6 (67491) - http://www.bohemiancoding.com/sketch -->
    <title>statistics</title>
    <desc>Created with Sketch.</desc>
    <g id="Page-1" stroke="none" stroke-width="1" fill="none" fill-rule="evenodd">
        <g id="Artboard" transform="translate(-137.000000, -90.000000)" fill="#000000" fill-rule="nonzero">
            <g id="statistics" transform="translate(137.000000, 90.000000)">
                <path d="M23.2121116,22.2976514 L19.433498,22.2976514 L19.433498,11.3907523 C19.433498,10.9346422 19.11251,10.5650642 18.7163665,10.5650642 L14.9340239,10.5650642 L14.9340239,6.22855046 C14.9340239,5.77244037 14.6130359,5.40286239 14.2168924,5.40286239 L9.71703586,5.40286239 C9.32089243,5.40286239 8.99990438,5.77244037 8.99990438,6.22855046 L8.99990438,12.181211 L5.21660558,12.181211 C4.82046215,12.181211 4.4994741,12.550789 4.4994741,13.0068991 L4.4994741,22.2976514 L1.43426295,22.2976514 L1.43426295,0.904513761 C1.43426295,0.44840367 1.11317928,0.0788256881 0.717131474,0.0788256881 C0.320988048,0.0788256881 0,0.44840367 0,0.904513761 L0,23.1232294 C0,23.5793394 0.320988048,23.9489174 0.717131474,23.9489174 L5.20360159,23.9489174 C5.208,23.9490275 5.21220717,23.9496881 5.21660558,23.9496881 L9.71646215,23.9496881 C9.71665339,23.9496881 9.71665339,23.9496881 9.71684462,23.9496881 C9.71703586,23.9496881 9.71703586,23.9496881 9.71722709,23.9496881 L14.2170837,23.9496881 L18.7165578,23.9496881 C18.7209562,23.9496881 18.7251633,23.9490275 18.7295618,23.9489174 L23.2123028,23.9489174 C23.6084462,23.9489174 23.9294343,23.5793394 23.9294343,23.1232294 C23.929243,22.6672294 23.6081594,22.2976514 23.2121116,22.2976514 Z M17.9992351,12.2163303 L17.9992351,22.2975413 L14.9340239,22.2975413 L14.9340239,12.2163303 L17.9992351,12.2163303 Z M13.4998566,7.05423853 L13.4998566,11.3907523 L13.4998566,22.2976514 L10.4342629,22.2976514 L10.4342629,7.05423853 L13.4998566,7.05423853 Z M5.93373705,13.8325872 L8.99933068,13.8325872 L8.99933068,22.2976514 L5.93373705,22.2976514 L5.93373705,13.8325872 Z" id="Shape"></path>
            </g>
        </g>
    </g>
</svg>