<?xml version="1.0" encoding="UTF-8"?>
<svg width="512px" height="472px" viewBox="0 0 512 472" version="1.1" xmlns="http://www.w3.org/2000/svg" xmlns:xlink="http://www.w3.org/1999/xlink">
    <title>tabs</title>
    <g id="Page-1" stroke="none" stroke-width="1" fill="none" fill-rule="evenodd">
        <g id="tabs" transform="translate(0.000000, 0.000000)" fill="#000000" fill-rule="nonzero">
            <path d="M465,81.433594 L465,60 C465,26.914062 438.085938,0 405,0 L60,0 C26.914062,0 0,26.914062 0,60 L0,412 C0,445.085938 26.914062,472 60,472 L452,472 C485.085938,472 512,445.085938 512,412 L512,140 C512,111.382812 491.851562,87.390625 465,81.433594 Z M425,60 L425,80 L335,80 L335,60 C335,52.988281 333.78125,46.261719 331.558594,40 L405,40 C416.027344,40 425,48.972656 425,60 Z M275,40 C286.027344,40 295,48.972656 295,60 L295,80 L204,80 L204,60 C204,52.988281 202.78125,46.261719 200.558594,40 L275,40 Z M472,412 C472,423.027344 463.027344,432 452,432 L60,432 C48.972656,432 40,423.027344 40,412 L40,60 C40,48.972656 48.972656,40 60,40 L144,40 C155.027344,40 164,48.972656 164,60 L164,120 L452,120 C463.027344,120 472,128.972656 472,140 L472,412 Z" id="Shape"></path>
        </g>
    </g>
</svg>