<svg width="16" height="16" viewBox="0 0 16 16" xmlns="http://www.w3.org/2000/svg" xmlns:xlink="http://www.w3.org/1999/xlink">
    <defs>
        <path d="M1.333 8.333A3.665 3.665 0 0 1 5 4.667h7A2.666 2.666 0 1 1 12 10H6.333a1.667 1.667 0 0 1 0-3.333h5V8h-5.06c-.366 0-.366.667 0 .667H12c.733 0 1.333-.6 1.333-1.334C13.333 6.6 12.733 6 12 6H5a2.336 2.336 0 0 0-2.333 2.333A2.336 2.336 0 0 0 5 10.667h6.333V12H5a3.665 3.665 0 0 1-3.667-3.667z" id="v2c3z8bbra"/>
    </defs>
    <g fill="none" fill-rule="evenodd">
        <mask id="1g89zup8ob" fill="#fff">
            <use xlink:href="#v2c3z8bbra"/>
        </mask>
        <g mask="url(#1g89zup8ob)" fill="#FFF">
            <path d="M-8.667-8.667h33.333v33.333H-8.667z"/>
        </g>
    </g>
</svg>
