<svg xmlns="http://www.w3.org/2000/svg" viewBox="0 0 192 192">
  <path fill="none" d="M0 0h192v192H0z"/>
  <path class="cls-2" d="M79 131.63H62a42 42 0 0 1 0-84h17a6 6 0 0 1 0 12H62a30 30 0 0 0 0 60h17a6 6 0 1 1 0 12ZM130 131.63h-17a6 6 0 1 1 0-12h17a30 30 0 1 0 0-60h-17a6 6 0 0 1 0-12h17a42 42 0 1 1 0 84Z"/>
  <path class="cls-2" d="M124 95.63H68a6 6 0 0 1 0-12h56a6 6 0 0 1 0 12Z"/>
  <path class="cls-2" d="M147.54 147.17a6 6 0 0 1-4.24-1.76L39.77 41.89a6 6 0 1 1 8.49-8.49l103.52 103.52a6 6 0 0 1-4.24 10.25Z"/>
</svg>
