<?xml version="1.0" encoding="UTF-8"?>
<svg width="22px" height="23px" viewBox="0 0 22 23" version="1.1" xmlns="http://www.w3.org/2000/svg" xmlns:xlink="http://www.w3.org/1999/xlink">
    <title>noun_User_2103333</title>
    <g id="Page-1" stroke="none" stroke-width="1" fill="none" fill-rule="evenodd">
        <g id="noun_User_2103333" fill="#000000" fill-rule="nonzero">
            <g id="Group">
                <path d="M11,10.8 C14,10.8 16.4,8.4 16.4,5.4 C16.4,2.4 14,-1.77635684e-15 11,-1.77635684e-15 C8,-1.77635684e-15 5.6,2.4 5.6,5.4 C5.6,8.4 8,10.8 11,10.8 Z M11,2 C12.9,2 14.4,3.5 14.4,5.4 C14.4,7.3 12.9,8.8 11,8.8 C9.1,8.8 7.6,7.3 7.6,5.4 C7.6,3.5 9.1,2 11,2 Z" id="Shape"></path>
                <path d="M13.2,12.4 L8.8,12.4 C3.9,12.4 0,16.4 0,21.2 C0,21.8 0.4,22.2 1,22.2 C1.6,22.2 2,21.8 2,21.2 C2,17.4 5.1,14.4 8.8,14.4 L13.2,14.4 C17,14.4 20,17.5 20,21.2 C20,21.8 20.4,22.2 21,22.2 C21.6,22.2 22,21.8 22,21.2 C22,16.4 18,12.4 13.2,12.4 Z" id="Path"></path>
            </g>
        </g>
    </g>
</svg>