<?xml version="1.0" encoding="UTF-8"?>
<svg width="60px" height="50px" viewBox="0 0 60 50" version="1.1" xmlns="http://www.w3.org/2000/svg" xmlns:xlink="http://www.w3.org/1999/xlink">
    <!-- Generator: Sketch 63.1 (92452) - https://sketch.com -->
    <title>user-check</title>
    <desc>Created with Sketch.</desc>
    <defs>
        <path d="M30,35 C36.9035594,35 42.5,40.5964406 42.5,47.5 L42.5,47.5 L42.5,52.5 C42.5,53.8807119 41.3807119,55 40,55 C38.6192881,55 37.5,53.8807119 37.5,52.5 L37.5,52.5 L37.5,47.5 C37.5,43.3578644 34.1421356,40 30,40 L30,40 L12.5,40 C8.35786438,40 5,43.3578644 5,47.5 L5,47.5 L5,52.5 C5,53.8807119 3.88071187,55 2.5,55 C1.11928813,55 0,53.8807119 0,52.5 L0,52.5 L0,47.5 C0,40.5964406 5.59644063,35 12.5,35 L12.5,35 Z M55.732233,20.732233 C56.7085438,19.7559223 58.2914562,19.7559223 59.267767,20.732233 C60.2440777,21.7085438 60.2440777,23.2914562 59.267767,24.267767 L59.267767,24.267767 L49.267767,34.267767 C48.2914562,35.2440777 46.7085438,35.2440777 45.732233,34.267767 L45.732233,34.267767 L40.732233,29.267767 C39.7559223,28.2914562 39.7559223,26.7085438 40.732233,25.732233 C41.7085438,24.7559223 43.2914562,24.7559223 44.267767,25.732233 L44.267767,25.732233 L47.5,28.9644661 Z M21.25,5 C28.1535594,5 33.75,10.5964406 33.75,17.5 C33.75,24.4035594 28.1535594,30 21.25,30 C14.3464406,30 8.75,24.4035594 8.75,17.5 C8.75,10.5964406 14.3464406,5 21.25,5 Z M21.25,10 C17.1078644,10 13.75,13.3578644 13.75,17.5 C13.75,21.6421356 17.1078644,25 21.25,25 C25.3921356,25 28.75,21.6421356 28.75,17.5 C28.75,13.3578644 25.3921356,10 21.25,10 Z" id="path-1"></path>
    </defs>
    <g id="Page-1" stroke="none" stroke-width="1" fill="none" fill-rule="evenodd">
        <g id="Employee-List_Properties-panel_Room-3-Copy-3" transform="translate(-1101.000000, -79.000000)">
            <g id="View" transform="translate(1087.000000, 66.000000)">
                <g id="Group-5">
                    <g id="Group-6" transform="translate(14.000000, 8.000000)">
                        <g id="user-check">
                            <mask id="mask-2" fill="white">
                                <use xlink:href="#path-1"></use>
                            </mask>
                            <use id="Combined-Shape" fill="#000000" fill-rule="nonzero" xlink:href="#path-1"></use>
                            <g id="COLOR/-black" mask="url(#mask-2)" fill="#000000" fill-rule="evenodd">
                                <rect id="Rectangle" x="0" y="0" width="60" height="60" style= "fill: rgb(204, 204, 204)"></rect>
                            </g>
                        </g>
                    </g>
                </g>
            </g>
        </g>
    </g>
</svg>
