<?xml version="1.0" encoding="UTF-8"?>
<svg width="448px" height="407px" viewBox="0 0 448 407" version="1.1" xmlns="http://www.w3.org/2000/svg" xmlns:xlink="http://www.w3.org/1999/xlink">
    <title>Group</title>
    <g id="Page-1" stroke="none" stroke-width="1" fill="none" fill-rule="evenodd">
        <g id="Group" transform="translate(0.454615, 0.000000)" fill="#000000" fill-rule="nonzero">
            <path d="M330.846,215.26 C320.9905,215.26 312.924,207.1975 312.924,197.338 C312.924,187.4825 320.9865,179.416 330.846,179.416 C360.076,179.416 383.709,155.674 383.6,126.553 C383.48672,97.432 359.858,73.69 330.737,73.799 C326.2565,73.799 321.7761,74.35759 317.522,75.4787 C307.8892,77.9435 298.147,72.2326 295.682,62.5997 C293.2172,52.9669 298.9281,43.2247 308.561,40.7597 C355.936,28.4397 404.432,56.7757 416.751,104.2637 C429.071,151.6387 400.735,200.1347 353.247,212.4537 C345.8525,214.2506 338.349,215.26 330.845,215.26 L330.846,215.26 Z" id="Path"></path>
            <path d="M163.736,215.26 C104.263,215.26 56.106,167.1 56.106,107.63 C56.106,48.16 104.266,0 163.736,0 C223.209,0 271.366,48.16 271.366,107.63 C271.25272,167.103 223.093,215.26 163.736,215.26 Z M163.736,35.83 C124.088,35.83 91.943,67.975 91.943,107.623 C91.943,147.271 124.088,179.416 163.736,179.416 C203.384,179.416 235.529,147.271 235.529,107.623 C235.529,67.975 203.384,35.83 163.736,35.83 Z" id="Shape"></path>
            <path d="M309.566,406.33 C299.7105,406.33 291.644,398.2675 291.644,388.408 L291.644,359.064 C291.644,317.4 257.82,283.689 216.269,283.689 L111.219,283.689 C69.555,283.689 35.844,317.513 35.844,359.064 L35.844,388.408 C35.844,398.2635 27.7815,406.33 17.922,406.33 C8.0665,406.33 5.68434189e-14,398.2675 5.68434189e-14,388.408 L5.68434189e-14,359.064 C0.11328,297.689 49.84,247.854 111.21,247.854 L216.26,247.854 C277.635,247.96728 327.470001,297.694 327.470001,359.064 L327.470001,388.408 C327.473906,398.2674 319.4114,406.33 309.556,406.33 L309.566,406.33 Z" id="Path"></path>
            <path d="M428.956,406.33 C419.1005,406.33 411.034,398.2675 411.034,388.408 L411.034,359.064 C411.034,317.4 377.21,283.689 335.659,283.689 C325.8035,283.689 317.737,275.6265 317.737,265.767 C317.737,255.9115 325.7995,247.845 335.659,247.845 C397.034,247.95828 446.869001,297.685 446.869001,359.055 L446.869001,388.399 C446.872906,398.2623 438.8065,406.325 428.951,406.325 L428.956,406.33 Z" id="Path"></path>
        </g>
    </g>
</svg>