<svg id="icons" enable-background="new 0 0 64 64" height="512" viewBox="0 0 64 64" width="512" xmlns="http://www.w3.org/2000/svg"><g><g><path d="m48 7v-5h-32v5c2.21 0 4 1.79 4 4s-1.79 4-4 4v5h32v-5c-2.21 0-4-1.79-4-4s1.79-4 4-4z" fill="#d7e9ff"/></g><g><path d="m62 47v4h-18v-4c0-1.66 1.34-3 3-3h3l3 1.99 3-1.99h3c1.66 0 3 1.34 3 3z" fill="#94c1ff"/></g><g><path d="m56 41.32v2.68l-3 1.99-3-1.99v-2.68-.01c.91.44 1.93.681 3 .681s2.09-.24 3-.681z" fill="#d7e9ff"/></g><g><path d="m54 32c2.39 0 4.54 1.05 6 2.71v.29c0 2.79-1.63 5.2-4 6.31-.91.44-1.93.681-3 .681s-2.09-.24-3-.681c-2.37-1.109-4-3.52-4-6.31v-3c1.66 0 3-1.35 3-3 0 1.65 1.34 3 3 3z" fill="#d7e9ff"/></g><g><path d="m56.997 32.593v2.407c0 2.79-1.63 5.2-4 6.31-.473.229-.976.4-1.499.516.485.106.987.165 1.502.165 1.07 0 2.09-.24 3-.681 2.37-1.109 4-3.52 4-6.31v-.29c-.812-.923-1.842-1.647-3.003-2.117z" fill="#94c1ff"/></g><g><path d="m49 29c0 1.65-1.34 3-3 3v-4.99-.01c.01-1.66 1.34-2.99 3-2.99z" fill="#5c9eff"/></g><g><path d="m62 30v10c0-2.03-.75-3.88-2-5.29-1.46-1.66-3.61-2.71-6-2.71h-2c-1.66 0-3-1.35-3-3v-4.99-.01c1.37-1.1 3.11-2 5-2 4.42 0 8 3.58 8 8z" fill="#94c1ff"/></g><g><path d="m54 22c-.477 0-.943.058-1.398.161 3.65.743 6.396 3.969 6.396 7.839v3.765c.359.288.699.6 1.003.945 1.25 1.41 2 3.26 2 5.29v-10c-.001-4.42-3.581-8-8.001-8z" fill="#5c9eff"/></g><g><path d="m37.5 13.99v3h-11v-3h1 3 3 3z" fill="#fff"/></g><g><path d="m37.5 6.99v2h-1-3-3-3-1v-2l5.5-1.99z" fill="#fff"/></g><g><path d="m18 30.5v1.37c-1.72-2.24-2.76-2.65-4-2.39l1.99-4.07c1.25 1.34 2.01 3.12 2.01 5.09z" fill="#5c9eff"/></g><g><path d="m8 44c0 1.1 1.34 2 3 2s3-.9 3-2h3c1.66 0 3 1.34 3 3v4h-18v-4c0-1.66 1.34-3 3-3z" fill="#94c1ff"/></g><g><g><path d="m17 44h-3c1.659.002 2.997 1.341 2.997 3v4h3.003v-4c0-1.66-1.34-3-3-3z" fill="#5c9eff"/></g></g><g><g><path d="m59 44h-3c1.659.002 2.997 1.341 2.997 3v4h3.003v-4c0-1.66-1.34-3-3-3z" fill="#5c9eff"/></g></g><g><path d="m18 31.87v3.13c0 2.79-1.63 5.2-4 6.31-.91.44-1.92.681-3 .681-1.07 0-2.09-.24-3-.681-2.37-1.11-4-3.52-4-6.31v-3.86c5.81.67 8.13-1.27 10-1.659 1.24-.261 2.28.149 4 2.389z" fill="#d7e9ff"/></g><g><path d="m14.997 29.449v5.551c0 2.79-1.63 5.2-4 6.31-.473.229-.974.4-1.497.516.484.106.986.165 1.5.165 1.08 0 2.09-.24 3-.681 2.37-1.109 4-3.52 4-6.31v-3.13c-1.246-1.624-2.136-2.278-3.003-2.421z" fill="#94c1ff"/></g><g><path d="m4 31.14c-.32-.04-.65-.08-1-.14v-.5c0-4.14 3.36-7.5 7.5-7.5 2.17 0 4.13.93 5.49 2.41l-1.99 4.07c-1.87.39-4.19 2.33-10 1.66z" fill="#94c1ff"/></g><g><path d="m14 41.32v2.68c0 1.1-1.34 2-3 2s-3-.9-3-2v-2.68-.01c.91.44 1.93.681 3 .681 1.08 0 2.09-.24 3-.681z" fill="#d7e9ff"/></g><g><path d="m32 50c1.43 0 2.8-.34 4-.94v3.94l-2 .99-2-.99-2 .99-2-.99v-3.94c1.2.6 2.57.94 4 .94z" fill="#94c1ff"/></g><g><path d="m41 38.03v2.97c0 3.53-2.04 6.59-5 8.06-1.2.6-2.57.94-4 .94s-2.8-.34-4-.94c-2.95-1.46-4.98-4.5-5-8.01v-.05-2.97l3-2.03s3.01 1 6.5 1 5.5-1 5.5-1z" fill="#d7e9ff"/></g><g><path d="m38 36-.003.001v4.999c0 3.53-2.04 6.59-5 8.06-.771.386-1.616.649-2.499.8.491.082.99.14 1.502.14 1.43 0 2.8-.34 4-.94 2.96-1.47 5-4.529 5-8.06v-2.97z" fill="#94c1ff"/></g><g><path d="m23 35c0-4.28 3.36-7.78 7.59-7.99h.41 6v3.99c2.21 0 4 1.79 4 4v3.03l-3-2.03s-2.01 1-5.5 1-6.5-1-6.5-1l-3 2.03z" fill="#94c1ff"/></g><g><path d="m37 34c.552 0 1 .448 1 1v1l3 2.03v-3.03c0-2.21-1.79-4-4-4v-3.99h-3v3.99c0 1.657 1.343 3 3 3z" fill="#5c9eff"/></g><g><path d="m34 53.99 2-.99h3c2.76 0 5 2.24 5 5v4h-24v-4c0-2.76 2.24-5 5-5h3l2 .99 2-.99z" fill="#94c1ff"/></g><g><g><path d="m39 53h-3c2.758.002 4.997 2.241 4.997 5v4h3.003v-4c0-2.76-2.24-5-5-5z" fill="#5c9eff"/></g></g></g><g><g><path d="m4.001 36c-.553 0-1-.447-1-1v-3.867c0-.553.447-1 1-1s1 .447 1 1v3.867c0 .553-.447 1-1 1z" fill="#116fff"/></g><g><path d="m18.001 36c-.553 0-1-.447-1-1v-4.5c0-.553.447-1 1-1s1 .447 1 1v4.5c0 .553-.447 1-1 1z" fill="#116fff"/></g><g><path d="m18.001 31.5c-.553 0-1-.447-1-1 0-3.584-2.916-6.5-6.501-6.5-3.584 0-6.499 2.916-6.499 6.5 0 .553-.447 1-1 1s-1-.447-1-1c0-4.687 3.813-8.5 8.499-8.5 4.688 0 8.501 3.813 8.501 8.5 0 .553-.447 1-1 1z" fill="#116fff"/></g><g><path d="m18.002 32.871c-.301 0-.598-.135-.795-.392-1.931-2.523-2.457-2.313-4.414-1.538-1.878.743-4.716 1.87-9.948 1.042-.545-.086-.918-.597-.831-1.143.086-.545.6-.92 1.144-.831 4.692.742 7.123-.223 8.899-.927 2.408-.954 4.024-1.362 6.738 2.181.336.438.253 1.066-.186 1.402-.181.139-.395.206-.607.206z" fill="#116fff"/></g><g><path d="m14 30.477c-.147 0-.298-.033-.439-.103-.496-.243-.7-.843-.457-1.338l2-4.072c.243-.496.841-.701 1.338-.457.496.243.7.843.457 1.338l-2 4.072c-.174.354-.53.56-.899.56z" fill="#116fff"/></g><g><path d="m2.001 47.996c-.553 0-1-.447-1-1 0-2.206 1.794-4 4-4 .553 0 1 .447 1 1s-.447 1-1 1c-1.103 0-2 .897-2 2 0 .553-.447 1-1 1z" fill="#116fff"/></g><g><path d="m8.001 45.002h-3c-.553 0-1-.447-1-1s.447-1 1-1h3c.553 0 1 .447 1 1s-.447 1-1 1z" fill="#116fff"/></g><g><path d="m2.001 52c-.553 0-1-.447-1-1v-4.004c0-.553.447-1 1-1s1 .447 1 1v4.004c0 .553-.447 1-1 1z" fill="#116fff"/></g><g><path d="m20.001 47.996c-.553 0-1-.447-1-1 0-1.103-.897-2-2-2-.553 0-1-.447-1-1s.447-1 1-1c2.206 0 4 1.794 4 4 0 .553-.447 1-1 1z" fill="#116fff"/></g><g><path d="m17.001 45.002h-3c-.553 0-1-.447-1-1s.447-1 1-1h3c.553 0 1 .447 1 1s-.447 1-1 1z" fill="#116fff"/></g><g><path d="m20.001 52c-.553 0-1-.447-1-1v-4.004c0-.553.447-1 1-1s1 .447 1 1v4.004c0 .553-.447 1-1 1z" fill="#116fff"/></g><g><path d="m8.001 45.002c-.553 0-1-.447-1-1v-2.684c0-.553.447-1 1-1s1 .447 1 1v2.684c0 .553-.447 1-1 1z" fill="#116fff"/></g><g><path d="m14.001 44.996c-.553 0-1-.447-1-1v-2.678c0-.553.447-1 1-1s1 .447 1 1v2.678c0 .553-.447 1-1 1z" fill="#116fff"/></g><g><path d="m11.001 42.992c-4.411 0-8-3.587-8-7.996 0-.553.447-1 1-1s1 .447 1 1c0 3.307 2.691 5.996 6 5.996s6-2.689 6-5.996c0-.553.447-1 1-1s1 .447 1 1c0 4.409-3.589 7.996-8 7.996z" fill="#116fff"/></g><g><path d="m45.999 36c-.553 0-1-.447-1-1v-8.004c0-.553.447-1 1-1s1 .447 1 1v8.004c0 .553-.447 1-1 1z" fill="#116fff"/></g><g><path d="m59.999 36c-.553 0-1-.447-1-1v-.293c0-.553.447-1 1-1s1 .447 1 1v.293c0 .553-.447 1-1 1z" fill="#116fff"/></g><g><path d="m43.999 47.996c-.553 0-1-.447-1-1 0-2.206 1.794-4 4-4 .553 0 1 .447 1 1s-.447 1-1 1c-1.103 0-2 .897-2 2 0 .553-.447 1-1 1z" fill="#116fff"/></g><g><path d="m49.999 45.002h-3c-.553 0-1-.447-1-1s.447-1 1-1h3c.553 0 1 .447 1 1s-.447 1-1 1z" fill="#116fff"/></g><g><path d="m43.999 52c-.553 0-1-.447-1-1v-4.004c0-.553.447-1 1-1s1 .447 1 1v4.004c0 .553-.447 1-1 1z" fill="#116fff"/></g><g><path d="m61.999 47.996c-.553 0-1-.447-1-1 0-1.103-.897-2-2-2-.553 0-1-.447-1-1s.447-1 1-1c2.206 0 4 1.794 4 4 0 .553-.447 1-1 1z" fill="#116fff"/></g><g><path d="m58.999 45.002h-3c-.553 0-1-.447-1-1s.447-1 1-1h3c.553 0 1 .447 1 1s-.447 1-1 1z" fill="#116fff"/></g><g><path d="m61.999 52c-.553 0-1-.447-1-1v-4.004c0-.553.447-1 1-1s1 .447 1 1v4.004c0 .553-.447 1-1 1z" fill="#116fff"/></g><g><path d="m49.999 45.002c-.553 0-1-.447-1-1v-2.684c0-.553.447-1 1-1s1 .447 1 1v2.684c0 .553-.447 1-1 1z" fill="#116fff"/></g><g><path d="m55.999 44.996c-.553 0-1-.447-1-1v-2.678c0-.553.447-1 1-1s1 .447 1 1v2.678c0 .553-.447 1-1 1z" fill="#116fff"/></g><g><path d="m52.999 42.992c-4.411 0-8-3.587-8-7.996 0-.553.447-1 1-1s1 .447 1 1c0 3.307 2.691 5.996 6 5.996s6-2.689 6-5.996c0-.553.447-1 1-1s1 .447 1 1c0 4.409-3.589 7.996-8 7.996z" fill="#116fff"/></g><g><path d="m20 59c-.553 0-1-.447-1-1 0-3.309 2.691-6 6-6 .553 0 1 .447 1 1s-.447 1-1 1c-2.206 0-4 1.794-4 4 0 .553-.447 1-1 1z" fill="#116fff"/></g><g><path d="m28 54h-3c-.553 0-1-.447-1-1s.447-1 1-1h3c.553 0 1 .447 1 1s-.447 1-1 1z" fill="#116fff"/></g><g><path d="m20 63c-.553 0-1-.447-1-1v-4c0-.553.447-1 1-1s1 .447 1 1v4c0 .553-.447 1-1 1z" fill="#116fff"/></g><g><path d="m44 59c-.553 0-1-.447-1-1 0-2.206-1.794-4-4-4-.553 0-1-.447-1-1s.447-1 1-1c3.309 0 6 2.691 6 6 0 .553-.447 1-1 1z" fill="#116fff"/></g><g><path d="m39 54h-3c-.553 0-1-.447-1-1s.447-1 1-1h3c.553 0 1 .447 1 1s-.447 1-1 1z" fill="#116fff"/></g><g><path d="m44 63c-.553 0-1-.447-1-1v-4c0-.553.447-1 1-1s1 .447 1 1v4c0 .553-.447 1-1 1z" fill="#116fff"/></g><g><path d="m28 54c-.553 0-1-.447-1-1v-3.936c0-.553.447-1 1-1s1 .447 1 1v3.936c0 .553-.447 1-1 1z" fill="#116fff"/></g><g><path d="m36 54c-.553 0-1-.447-1-1v-3.936c0-.553.447-1 1-1s1 .447 1 1v3.936c0 .553-.447 1-1 1z" fill="#116fff"/></g><g><path d="m31.999 51c-5.514 0-9.999-4.485-9.999-9.998 0-.553.447-1 1-1s1 .447 1 1c0 4.41 3.588 7.998 7.999 7.998 4.412 0 8.001-3.588 8.001-7.998 0-.553.447-1 1-1s1 .447 1 1c0 5.513-4.486 9.998-10.001 9.998z" fill="#116fff"/></g><g><path d="m23 42.051c-.553 0-1-.447-1-1v-6.051c0-.553.447-1 1-1s1 .447 1 1v6.051c0 .553-.447 1-1 1z" fill="#116fff"/></g><g><path d="m41 42.002c-.553 0-1-.447-1-1v-6.002c0-.553.447-1 1-1s1 .447 1 1v6.002c0 .553-.447 1-1 1z" fill="#116fff"/></g><g><path d="m41 36c-.553 0-1-.447-1-1 0-1.654-1.346-3-3-3-.553 0-1-.447-1-1s.447-1 1-1c2.757 0 5 2.243 5 5 0 .553-.447 1-1 1z" fill="#116fff"/></g><g><path d="m37 32c-.553 0-1-.447-1-1v-4c0-.553.447-1 1-1s1 .447 1 1v4c0 .553-.447 1-1 1z" fill="#116fff"/></g><g><path d="m37 28.014h-6c-.553 0-1-.447-1-1s.447-1 1-1h6c.553 0 1 .447 1 1s-.447 1-1 1z" fill="#116fff"/></g><g><path d="m23 36c-.553 0-1-.447-1-1 0-4.963 4.037-9 9-9 .553 0 1 .447 1 1s-.447 1-1 1c-3.859 0-7 3.141-7 7 0 .553-.447 1-1 1z" fill="#116fff"/></g><g><g><path d="m40.999 39.025c-.192 0-.387-.056-.559-.171l-3-2.025c-.458-.31-.578-.931-.27-1.389.31-.458.929-.576 1.389-.27l3 2.025c.458.31.578.931.27 1.389-.193.287-.509.441-.83.441z" fill="#116fff"/></g><g><path d="m32.5 38c-3.612 0-6.687-1.008-6.815-1.051-.523-.175-.807-.74-.634-1.264.174-.523.739-.807 1.264-.635.029.011 2.908.95 6.185.95 3.178 0 5.04-.888 5.059-.897.493-.24 1.094-.037 1.337.457s.043 1.09-.449 1.336c-.092.044-2.261 1.104-5.947 1.104z" fill="#116fff"/></g><g><path d="m23.001 39.025c-.321 0-.637-.154-.83-.44-.309-.458-.188-1.079.27-1.389l3-2.025c.459-.307 1.079-.188 1.389.27.309.458.188 1.079-.27 1.389l-3 2.025c-.172.115-.367.17-.559.17z" fill="#116fff"/></g></g><g><path d="m61.999 30.996c-.553 0-1-.447-1-1 0-3.859-3.141-7-7-7-1.782 0-3.362.968-4.374 1.78-.432.346-1.06.276-1.406-.154-.346-.431-.276-1.061.154-1.406 1.81-1.452 3.755-2.22 5.626-2.22 4.963 0 9 4.037 9 9 0 .553-.447 1-1 1z" fill="#116fff"/></g><g><path d="m61.999 40.996c-.553 0-1-.447-1-1 0-3.859-3.141-7-7-7-.553 0-1-.447-1-1s.447-1 1-1c4.963 0 9 4.037 9 9 0 .553-.447 1-1 1z" fill="#116fff"/></g><g><path d="m45.999 32.996c-.553 0-1-.447-1-1s.447-1 1-1c1.103 0 2-.897 2-2 0-.553.447-1 1-1s1 .447 1 1c0 2.206-1.794 4-4 4z" fill="#116fff"/></g><g><path d="m45.999 28.01c-.553 0-1-.447-1-1 0-2.206 1.794-4 4-4 .553 0 1 .447 1 1s-.447 1-1 1c-1.103 0-2 .897-2 2 0 .553-.447 1-1 1z" fill="#116fff"/></g><g><path d="m51.999 32.996c-2.206 0-4-1.794-4-4 0-.553.447-1 1-1s1 .447 1 1c0 1.103.897 2 2 2 .553 0 1 .447 1 1s-.447 1-1 1z" fill="#116fff"/></g><g><path d="m48.999 29.996c-.553 0-1-.447-1-1v-5c0-.553.447-1 1-1s1 .447 1 1v5c0 .553-.447 1-1 1z" fill="#116fff"/></g><g><path d="m61.999 40.996c-.553 0-1-.447-1-1v-10c0-.553.447-1 1-1s1 .447 1 1v10c0 .553-.447 1-1 1z" fill="#116fff"/></g><g><path d="m53.999 32.996h-2c-.553 0-1-.447-1-1s.447-1 1-1h2c.553 0 1 .447 1 1s-.447 1-1 1z" fill="#116fff"/></g><g><path d="m3.001 31.996c-.553 0-1-.447-1-1v-.496c0-.553.447-1 1-1s1 .447 1 1v.496c0 .553-.447 1-1 1z" fill="#116fff"/></g><g><path d="m29.999 54.994c-.149 0-.301-.033-.444-.104l-2-.994c-.494-.246-.696-.846-.45-1.341.245-.494.843-.698 1.341-.45l2 .994c.494.246.696.846.45 1.341-.175.351-.529.554-.897.554z" fill="#116fff"/></g><g><path d="m30.001 54.994c-.367 0-.721-.203-.896-.554-.247-.494-.046-1.095.448-1.341l2-.998c.497-.249 1.095-.045 1.341.448.247.494.046 1.095-.448 1.341l-2 .998c-.143.073-.296.106-.445.106z" fill="#116fff"/></g><g><path d="m34.001 54.994c-.368 0-.722-.203-.896-.555-.246-.495-.044-1.095.45-1.341l2-.994c.498-.248 1.096-.044 1.341.45.246.495.044 1.095-.45 1.341l-2 .994c-.144.072-.296.105-.445.105z" fill="#116fff"/></g><g><path d="m33.999 54.994c-.149 0-.302-.033-.445-.105l-2-.998c-.494-.246-.695-.847-.448-1.341.246-.493.846-.697 1.341-.448l2 .998c.494.246.695.847.448 1.341-.175.35-.529.553-.896.553z" fill="#116fff"/></g><g><path d="m53 46.994c-.189 0-.382-.054-.552-.167l-3.002-1.992c-.46-.305-.586-.926-.28-1.386.305-.46.924-.589 1.386-.28l3.002 1.992c.46.305.586.926.28 1.386-.192.29-.51.447-.834.447z" fill="#116fff"/></g><g><path d="m52.998 46.994c-.324 0-.642-.157-.834-.447-.306-.46-.18-1.081.28-1.386l3.002-1.992c.46-.309 1.081-.18 1.386.28.306.46.18 1.081-.28 1.386l-3.002 1.992c-.17.113-.362.167-.552.167z" fill="#116fff"/></g><g><path d="m11 46.998c-2.242 0-3.999-1.317-3.999-3 0-.553.447-1 1-1s1 .447 1 1c0 .408.778 1 1.999 1s2-.592 2-1c0-.553.447-1 1-1s1 .447 1 1c0 1.683-1.757 3-4 3z" fill="#116fff"/></g><g><g><g><path d="m37.499 9.986h-10.998c-.553 0-1-.447-1-1v-1.998c0-.421.264-.797.66-.94l5.499-1.988c.219-.08.461-.08.68 0l5.499 1.988c.396.144.66.52.66.94v1.998c0 .553-.447 1-1 1zm-9.998-2h8.998v-.296l-4.499-1.627-4.499 1.627z" fill="#116fff"/></g><g><path d="m37.498 17.986h-10.997c-.553 0-1-.447-1-1v-3c0-.553.447-1 1-1h10.997c.553 0 1 .447 1 1v3c0 .553-.447 1-1 1zm-9.997-2h8.997v-1h-8.997z" fill="#116fff"/></g><g><path d="m27.496 14.986c-.553 0-1-.447-1-1v-5c0-.553.447-1 1-1s1 .447 1 1v5c0 .553-.447 1-1 1z" fill="#116fff"/></g><g><path d="m33.499 14.986c-.553 0-1-.447-1-1v-5c0-.553.447-1 1-1s1 .447 1 1v5c0 .553-.447 1-1 1z" fill="#116fff"/></g><g><path d="m30.498 14.986c-.553 0-1-.447-1-1v-5c0-.553.447-1 1-1s1 .447 1 1v5c0 .553-.447 1-1 1z" fill="#116fff"/></g><g><path d="m36.499 14.986c-.553 0-1-.447-1-1v-5c0-.553.447-1 1-1s1 .447 1 1v5c0 .553-.447 1-1 1z" fill="#116fff"/></g></g><g><g><path d="m48 3h-32c-.553 0-1-.447-1-1s.447-1 1-1h32c.553 0 1 .447 1 1s-.447 1-1 1z" fill="#116fff"/></g><g><path d="m48 21h-32c-.553 0-1-.447-1-1s.447-1 1-1h32c.553 0 1 .447 1 1s-.447 1-1 1z" fill="#116fff"/></g><g><path d="m48 16c-2.757 0-5-2.243-5-5s2.243-5 5-5c.553 0 1 .447 1 1s-.447 1-1 1c-1.654 0-3 1.346-3 3s1.346 3 3 3c.553 0 1 .447 1 1s-.447 1-1 1z" fill="#116fff"/></g><g><path d="m48 21c-.553 0-1-.447-1-1v-5c0-.553.447-1 1-1s1 .447 1 1v5c0 .553-.447 1-1 1z" fill="#116fff"/></g><g><path d="m48 8c-.553 0-1-.447-1-1v-5c0-.553.447-1 1-1s1 .447 1 1v5c0 .553-.447 1-1 1z" fill="#116fff"/></g><g><path d="m16.002 16c-.553 0-1-.447-1-1s.447-1 1-1c1.654 0 3-1.346 3-3s-1.346-3-3-3c-.553 0-1-.447-1-1s.447-1 1-1c2.757 0 5 2.243 5 5s-2.243 5-5 5z" fill="#116fff"/></g><g><path d="m16.002 21c-.553 0-1-.447-1-1v-5c0-.553.447-1 1-1s1 .447 1 1v5c0 .553-.447 1-1 1z" fill="#116fff"/></g><g><path d="m16.002 8c-.553 0-1-.447-1-1v-5c0-.553.447-1 1-1s1 .447 1 1v5c0 .553-.447 1-1 1z" fill="#116fff"/></g></g></g></g></svg>