<?xml version="1.0" encoding="UTF-8"?>
<svg width="21px" height="19px" viewBox="0 0 21 19" version="1.1" xmlns="http://www.w3.org/2000/svg" xmlns:xlink="http://www.w3.org/1999/xlink">
    <!-- Generator: Sketch 63.1 (92452) - https://sketch.com -->
    <title>web-view</title>
    <desc>Created with Sketch.</desc>
    <g id="Page-1" stroke="none" stroke-width="1" fill="none" fill-rule="evenodd">
        <g id="01-roles-default" transform="translate(-1342.000000, -86.000000)" fill="#808080">
            <g id="Group-4" transform="translate(290.000000, 0.000000)">
                <g id="Group-8" transform="translate(0.000000, 23.000000)">
                    <g id="Group-13" transform="translate(990.000000, 50.000000)">
                        <g id="Group-15" transform="translate(11.000000, 11.063361)">
                            <path d="M69.7471348,16.0207251 L53.1978652,16.0207251 C52.8033023,16.0186403 52.4833132,15.6913297 52.4792455,15.2875771 L52.4792455,14.0228099 L70.4657545,14.0228099 L70.4657545,15.2875771 C70.4616868,15.6913297 70.1416977,16.0186403 69.7471348,16.0207251 M63.5324302,19.9130114 L59.4125698,19.9130114 C59.7488296,19.5030044 59.9237389,18.9567918 59.9237389,18.4008502 L59.9237389,17.0450475 L63.0212611,17.0450475 L63.0212611,18.4008502 C63.0212611,18.9567918 63.1954924,19.5030044 63.5324302,19.9130114 M53.1978652,2.96165629 L69.7471348,2.96165629 C70.1383079,2.96165629 70.4657545,3.31050966 70.4657545,3.71287241 L70.4657545,12.9984874 L52.4792455,12.9984874 L52.4792455,3.71287241 C52.4792455,3.31050966 52.8060141,2.96165629 53.1978652,2.96165629 M71.4643647,13.4140538 L71.4643647,3.71287241 C71.4643647,2.74622891 70.6901536,1.93663891 69.7471348,1.93663891 L53.1978652,1.93663891 C52.2548464,1.93663891 51.4799574,2.74622891 51.4799574,3.71287241 L51.4799574,13.4140538 C51.4799574,13.4425458 51.4725,13.4717327 51.4725,13.5016146 C51.4725,13.5314965 51.4799574,13.5606834 51.4799574,13.5891754 L51.4799574,15.2875771 C51.484703,16.2576952 52.2514566,17.0422678 53.1978652,17.0450475 L58.9244508,17.0450475 L58.9244508,18.4008502 C58.9278405,18.8059926 58.7522532,19.1909822 58.4478568,19.4481052 L57.9027905,19.9130114 L56.2899638,19.9130114 C56.0147189,19.9130114 55.7909977,20.1423373 55.7909977,20.4251726 C55.7909977,20.707313 56.0147189,20.9366389 56.2899638,20.9366389 L66.8706221,20.9366389 C67.1465449,20.9366389 67.3702662,20.707313 67.3702662,20.4251726 C67.3702662,20.1423373 67.1465449,19.9130114 66.8706221,19.9130114 L65.0422095,19.9130114 L64.4971432,19.4481052 C64.1927468,19.1909822 64.0171595,18.8059926 64.0205492,18.4008502 L64.0205492,17.0450475 L69.7471348,17.0450475 C70.6935434,17.0422678 71.4596191,16.2576952 71.4643647,15.2875771 L71.4643647,13.5891754 C71.4643647,13.5606834 71.4725,13.5314965 71.4725,13.5016146 C71.4725,13.4717327 71.4643647,13.4425458 71.4643647,13.4140538" id="web-view"></path>
                        </g>
                    </g>
                </g>
            </g>
        </g>
    </g>
</svg>