<?xml version="1.0" encoding="UTF-8"?>
<svg width="102px" height="78px" viewBox="0 0 102 78" version="1.1" xmlns="http://www.w3.org/2000/svg" xmlns:xlink="http://www.w3.org/1999/xlink">
    <!-- Generator: Sketch 52 (66869) - http://www.bohemiancoding.com/sketch -->
    <title>Work duration empty</title>
    <desc>Created with Sketch.</desc>
    <g id="Empty-state-illustrations" stroke="none" stroke-width="1" fill="none" fill-rule="evenodd">
        <g id="Desktop-HD-Copy-4" transform="translate(-498.000000, -655.000000)">
            <g id="Group-24" transform="translate(403.000000, 652.000000)">
                <g id="Work-duration-empty" transform="translate(92.000000, 2.000000)">
                    <path d="M-3.48799272,25.2009743 C2.93875691,37.3752244 11.851933,41.9494006 23.2515355,38.9235027 C40.3509394,34.3846559 34.7927263,17.8119561 24.9202793,17.4813645 C15.0478323,17.1507729 10.8875017,32.1934885 26.3264196,41.584206 C34.9471368,46.8277548 45.6786341,39.4797863 47.1693067,30.0177091 C48.3482927,22.5340693 46.3547803,16.7058727 43.1864209,14.3314619" id="Path-15" stroke="#B3AFC9" stroke-width="1.20000002" stroke-linecap="round" stroke-dasharray="4.000000059604645" transform="translate(22.012007, 28.831462) scale(1, -1) rotate(109.000000) translate(-22.012007, -28.831462) "></path>
                    <rect id="Rectangle" fill="#C1BDDA" opacity="0.200000003" x="29" y="16" width="76" height="25" rx="12.5"></rect>
                    <rect id="Rectangle-Copy-25" fill="#C1BDDA" opacity="0.200000003" x="5" y="49" width="64" height="25" rx="12"></rect>
                    <g id="Group-19-Copy-2" transform="translate(28.000000, 12.000000)">
                        <g id="Group-17-Copy-3" transform="translate(18.164531, 0.000000)" stroke="#B3AFC9" stroke-width="2.09999984">
                            <path d="M7.8354692,11.9456333 C12.6563709,11.9456333 14.6066075,10.9290937 14.6066075,7.87113976 C14.6066075,4.10243562 11.5735624,1.04999992 7.8354692,1.04999992 C4.09737597,1.04999992 1.06433091,4.10243562 1.06433091,7.87113976 C1.06433091,10.9290937 3.01456752,11.9456333 7.8354692,11.9456333 Z" id="Oval" fill="#D9D7E4"></path>
                            <path d="M8.04685132,9.01113545 C10.1344301,9.01113545 10.8017294,8.64211942 10.8017294,7.41623554 C10.8017294,5.73764556 9.55239382,4.40371171 8.04685132,4.40371171 C6.54130881,4.40371171 5.29197319,5.73764556 5.29197319,7.41623554 C5.29197319,8.64211942 5.95927257,9.01113545 8.04685132,9.01113545 Z" id="Oval-Copy-10" fill="#FFFFFF"></path>
                        </g>
                        <rect id="Rectangle" stroke="#B3AFC9" stroke-width="2.09999984" fill="#D9D7E4" x="22.7077097" y="8.35884001" width="7.21514416" height="11.0719106" rx="3.60757208"></rect>
                        <g id="Group-18" transform="translate(0.000000, 10.305489)" stroke="#B3AFC9" stroke-width="2.09999984">
                            <g id="Group-15" transform="translate(45.735799, 9.854221) rotate(45.000000) translate(-45.735799, -9.854221) translate(38.735799, 3.854221)" fill="#D9D7E4">
                                <rect id="Rectangle" x="4.54317892" y="5.36498133" width="4.88635816" height="4.90412009"></rect>
                                <rect id="Rectangle" x="1.04999992" y="1.04999992" width="11.8727162" height="4.37041231" rx="2.18520615"></rect>
                            </g>
                            <ellipse id="Oval" fill="#D9D7E4" cx="26.3152818" cy="29.8175846" rx="25.2652819" ry="25.0627348"></ellipse>
                            <ellipse id="Oval-Copy-6" fill="#FFFFFF" cx="26.3152818" cy="29.8175846" rx="19.6761955" ry="19.5166673"></ellipse>
                        </g>
                        <rect id="Rectangle-Copy-8" fill="#B3AFC9" x="25.1508888" y="23.7159566" width="2.328786" height="3.92846452" rx="1.14344998"></rect>
                        <rect id="Rectangle-Copy-9" fill="#B3AFC9" x="25.1508888" y="52.6017251" width="2.328786" height="3.92846452" rx="1.14344998"></rect>
                        <path d="M40.9746528,38.2591481 L40.9986144,38.2591481 C41.6301243,38.2591481 42.1420643,38.7710881 42.1420643,39.4025981 L42.1420643,41.0746343 C42.1420643,41.7061443 41.6301243,42.2180843 40.9986144,42.2180843 L40.9746528,42.2180843 C40.3431428,42.2180843 39.8312029,41.7061443 39.8312029,41.0746343 L39.8312029,39.4025981 C39.8312029,38.7710881 40.3431428,38.2591481 40.9746528,38.2591481 Z" id="Rectangle-Copy-10" fill="#B3AFC9" transform="translate(40.986634, 40.238616) rotate(90.000000) translate(-40.986634, -40.238616) "></path>
                        <path d="M11.6319492,38.2591481 L11.6559108,38.2591481 C12.2874207,38.2591481 12.7993607,38.7710881 12.7993607,39.4025981 L12.7993607,41.0746343 C12.7993607,41.7061443 12.2874207,42.2180843 11.6559108,42.2180843 L11.6319492,42.2180843 C11.0004393,42.2180843 10.4884993,41.7061443 10.4884993,41.0746343 L10.4884993,39.4025981 C10.4884993,38.7710881 11.0004393,38.2591481 11.6319492,38.2591481 Z" id="Rectangle-Copy-11" fill="#B3AFC9" transform="translate(11.643930, 40.238616) rotate(90.000000) translate(-11.643930, -40.238616) "></path>
                        <path d="M16.0509699,47.9724819 L16.0838425,47.9723549 C16.7153478,47.9699152 17.2292617,48.4798735 17.2317014,49.1113788 C17.2317128,49.1143238 17.2317128,49.1172688 17.2317014,49.1202138 L17.2253008,50.776963 C17.2228744,51.4050208 16.7143347,51.9135606 16.0862769,51.915987 L16.0534043,51.916114 C15.421899,51.9185537 14.9079851,51.4085953 14.9055454,50.77709 C14.905534,50.774145 14.905534,50.7712 14.9055454,50.768255 L14.911946,49.1115058 C14.9143723,48.4834481 15.4229121,47.9749083 16.0509699,47.9724819 Z" id="Rectangle-Copy-12" fill="#B3AFC9" transform="translate(16.068623, 49.944234) rotate(45.000000) translate(-16.068623, -49.944234) "></path>
                        <path d="M37.0124783,47.9723549 L37.0453509,47.9724819 C37.6734087,47.9749083 38.1819484,48.4834481 38.1843748,49.1115058 L38.1907754,50.768255 C38.1932151,51.3997603 37.6832567,51.9136742 37.0517515,51.916114 C37.0488065,51.9161253 37.0458615,51.9161253 37.0429165,51.916114 L37.0100439,51.915987 C36.3819861,51.9135606 35.8734463,51.4050208 35.8710199,50.776963 L35.8646194,49.1202138 C35.8621797,48.4887085 36.372138,47.9747946 37.0036433,47.9723549 C37.0065883,47.9723435 37.0095333,47.9723435 37.0124783,47.9723549 Z" id="Rectangle-Copy-15" fill="#B3AFC9" transform="translate(37.027697, 49.944234) rotate(-45.000000) translate(-37.027697, -49.944234) "></path>
                        <path d="M37.0100439,28.0990731 L37.0429165,28.0989461 C37.6744217,28.0965064 38.1883357,28.6064648 38.1907754,29.2379701 C38.1907868,29.2409151 38.1907868,29.2438601 38.1907754,29.2468051 L38.1843748,30.9035543 C38.1819484,31.531612 37.6734087,32.0401518 37.0453509,32.0425782 L37.0124783,32.0427052 C36.380973,32.0451449 35.8670591,31.5351866 35.8646194,30.9036813 C35.864608,30.9007363 35.864608,30.8977913 35.8646194,30.8948463 L35.8710199,29.2380971 C35.8734463,28.6100393 36.3819861,28.1014995 37.0100439,28.0990731 Z" id="Rectangle-Copy-13" fill="#B3AFC9" transform="translate(37.027697, 30.070826) rotate(45.000000) translate(-37.027697, -30.070826) "></path>
                        <path d="M16.0534043,28.0989461 L16.0862769,28.0990731 C16.7143347,28.1014995 17.2228744,28.6100393 17.2253008,29.2380971 L17.2317014,30.8948463 C17.2341411,31.5263516 16.7241827,32.0402655 16.0926775,32.0427052 C16.0897325,32.0427166 16.0867875,32.0427166 16.0838425,32.0427052 L16.0509699,32.0425782 C15.4229121,32.0401518 14.9143723,31.531612 14.911946,30.9035543 L14.9055454,29.2468051 C14.9031057,28.6152998 15.413064,28.1013859 16.0445693,28.0989461 C16.0475143,28.0989348 16.0504593,28.0989348 16.0534043,28.0989461 Z" id="Rectangle-Copy-14" fill="#B3AFC9" transform="translate(16.068623, 30.070826) rotate(-45.000000) translate(-16.068623, -30.070826) "></path>
                        <path d="M27.49115,29.2499019 L27.5067043,29.249856 C28.1445904,29.2479728 28.6632258,29.7635551 28.6651089,30.4014411 C28.6651157,30.4037199 28.6651157,30.4059988 28.6651089,30.4082776 L28.6197847,45.6851255 C28.6179001,46.3203434 28.1034175,46.8348184 27.4681996,46.8366937 L27.4526453,46.8367396 C26.8147592,46.8386228 26.2961238,46.3230405 26.2942406,45.6851545 C26.2942339,45.6828756 26.2942339,45.6805968 26.2942407,45.678318 L26.3395649,30.4014701 C26.3414495,29.7662522 26.8559321,29.2517771 27.49115,29.2499019 Z" id="Rectangle" fill="#B3AFC9" transform="translate(27.479675, 38.043298) rotate(25.000000) translate(-27.479675, -38.043298) "></path>
                        <ellipse id="Oval" fill="#B3AFC9" cx="26.3152818" cy="40.1230731" rx="3.9589362" ry="3.92846452"></ellipse>
                        <ellipse id="Oval-Copy-9" fill="#FFFFFF" cx="26.3152818" cy="40.1230731" rx="1.8630288" ry="1.84868918"></ellipse>
                    </g>
                </g>
            </g>
        </g>
    </g>
</svg>