<?xml version="1.0" encoding="iso-8859-1"?>
<!-- Generator: Adobe Illustrator 19.0.0, SVG Export Plug-In . SVG Version: 6.00 Build 0)  -->
<svg version="1.1" id="Layer_1" xmlns="http://www.w3.org/2000/svg" xmlns:xlink="http://www.w3.org/1999/xlink" x="0px" y="0px"
	 viewBox="0 0 512 512" style="enable-background:new 0 0 512 512;" xml:space="preserve">
<path style="fill:#73C9C9;" d="M406.588,165.647l-1.598,0.01c-1.235,0.005-2.451,0.01-3.686-0.015
	c-5.441-0.142-9.774-4.593-9.774-10.034c0-66.426-56.294-120.471-125.49-120.471c-54.961,0-103.049,33.765-119.647,84.015
	c-1.47,4.47-5.892,7.324-10.51,6.843c-3.422-0.333-6.892-0.505-10.392-0.505c-58.128,0-105.412,47.289-105.412,105.412
	S67.363,336.314,125.49,336.314l1.627-0.01l24.472,0.008l79.998-204.439c1.765-4.495,6.471-7.108,11.216-6.206
	c4.745,0.892,8.176,5.034,8.176,9.863v150.833h100.392c3.441,0,6.647,1.765,8.48,4.671c1.843,2.912,2.069,6.559,0.588,9.672
	l-16.887,35.605c26.181-0.018,67.985-0.125,67.985-0.125c44.863-2.324,80.382-39.755,80.382-85.206
	C491.922,203.927,453.637,165.647,406.588,165.647z"/>
<path style="fill:#E4AD40;" d="M335.5,306.441h-94.559c-5.549,0-10.039-4.495-10.039-10.039V188.735l-65.608,167.657h95.725
	c5.549,0,10.039,4.495,10.039,10.039v75.877L335.5,306.441z"/>
<path style="fill:#314E55;" d="M411.245,145.672c-5.294-72.882-68.402-130.613-145.206-130.613
	c-60.931,0-114.628,36.029-136.049,90.431c-1.49-0.054-2.99-0.078-4.5-0.078C56.294,105.412,0,161.706,0,230.902
	s56.294,125.49,125.49,125.49h18.243l-2.497,6.382c-1.206,3.088-0.814,6.573,1.059,9.319c1.872,2.74,4.98,4.377,8.294,4.377H250.98
	v110.431c0,4.696,3.255,8.765,7.833,9.794c0.735,0.167,1.48,0.245,2.206,0.245c3.814,0,7.382-2.177,9.069-5.735l64.182-135.321
	c0.823,0.218,1.622,0.507,2.514,0.507c24.951,0,74.814-0.128,75.304-0.142C468.108,353.368,512,307.127,512,250.98
	C512,194.417,467.216,148.118,411.245,145.672z M261.02,356.392h-95.725l65.608-167.657v107.667c0,5.544,4.49,10.039,10.039,10.039
	H335.5l-64.441,135.868v-75.877C271.059,360.887,266.569,356.392,261.02,356.392z M411.539,336.186c0,0-41.804,0.107-67.985,0.125
	l16.887-35.605c1.48-3.113,1.255-6.76-0.588-9.672c-1.833-2.907-5.039-4.671-8.48-4.671H250.98V135.529
	c0-4.828-3.431-8.971-8.176-9.863c-4.745-0.902-9.451,1.711-11.216,6.206L151.59,336.312l-24.472-0.008l-1.627,0.01
	c-58.128,0-105.412-47.289-105.412-105.412S67.363,125.49,125.49,125.49c3.5,0,6.97,0.172,10.392,0.505
	c4.618,0.48,9.039-2.373,10.51-6.843c16.598-50.25,64.686-84.015,119.647-84.015c69.196,0,125.49,54.044,125.49,120.471
	c0,5.441,4.333,9.892,9.774,10.034c1.235,0.025,2.451,0.02,3.686,0.015l1.598-0.01c47.049,0,85.333,38.28,85.333,85.333
	C491.922,296.431,456.402,333.863,411.539,336.186z"/>
<g>
</g>
<g>
</g>
<g>
</g>
<g>
</g>
<g>
</g>
<g>
</g>
<g>
</g>
<g>
</g>
<g>
</g>
<g>
</g>
<g>
</g>
<g>
</g>
<g>
</g>
<g>
</g>
<g>
</g>
</svg>
