<?xml version="1.0" encoding="iso-8859-1"?>
<!-- Generator: Adobe Illustrator 19.0.0, SVG Export Plug-In . SVG Version: 6.00 Build 0)  -->
<svg version="1.1" id="Layer_1" xmlns="http://www.w3.org/2000/svg" xmlns:xlink="http://www.w3.org/1999/xlink" x="0px" y="0px"
	 viewBox="0 0 512 512" style="enable-background:new 0 0 512 512;" xml:space="preserve">
<path style="fill:#81A4E3;" d="M405.771,149.771c-1.511,0-3.003,0.039-4.495,0.112c-2.701,0.2-5.402-0.848-7.381-2.735
	c-1.979-1.887-3.101-4.5-3.101-7.235c0-66.193-55.989-119.944-124.809-119.944c-54.662,0-102.49,33.581-118.998,83.559
	c-1.463,4.446-5.87,7.274-10.453,6.806c-3.403-0.331-6.855-0.502-10.336-0.502c-57.812,0-104.84,47.033-104.84,104.84
	s47.028,104.84,104.84,104.84c1.541,0,3.062-0.029,4.583-0.098c0.644-0.019,1.287,0.005,1.901,0.098h276.472
	c0.351-0.058,0.702-0.098,1.053-0.112c45.107-2.326,80.434-39.554,80.434-84.758C490.641,187.843,452.565,149.771,405.771,149.771z"
	/>
<g>
	<path style="fill:#314E55;" d="M410.403,129.904C405.137,57.417,342.372,0,265.985,0c-60.601,0-114.005,35.834-135.311,89.94
		c-1.482-0.053-2.974-0.078-4.476-0.078c-68.82,0-124.809,55.989-124.809,124.809s55.989,124.809,124.809,124.809
		c1.306,0,2.613-0.019,3.91-0.058c0.361,0.039,0.722,0.058,1.082,0.058h279.572c0.722,0,1.433-0.083,2.126-0.239
		c54.936-3.681,97.722-49.314,97.722-104.601C510.611,178.384,466.069,132.337,410.403,129.904z M410.207,319.399
		c-0.351,0.015-0.702,0.054-1.053,0.112H132.683c-0.614-0.093-1.258-0.117-1.901-0.098c-1.521,0.068-3.042,0.098-4.583,0.098
		c-57.812,0-104.84-47.033-104.84-104.84s47.028-104.84,104.84-104.84c3.481,0,6.933,0.171,10.336,0.502
		c4.583,0.468,8.99-2.36,10.453-6.806c16.508-49.977,64.335-83.559,118.998-83.559c68.82,0,124.809,53.751,124.809,119.944
		c0,2.735,1.121,5.348,3.101,7.235c1.979,1.887,4.68,2.935,7.381,2.735c1.492-0.073,2.984-0.112,4.495-0.112
		c46.794,0,84.87,38.072,84.87,84.87C490.641,279.845,455.314,317.073,410.207,319.399z"/>
	<path style="fill:#314E55;" d="M148.372,363.594c-4.768-2.76-10.892-1.121-13.641,3.656l-23.041,39.91
		c-2.76,4.778-1.121,10.882,3.656,13.641c1.57,0.907,3.286,1.336,4.983,1.336c3.452,0,6.806-1.789,8.659-4.992l23.041-39.91
		C154.788,372.457,153.15,366.354,148.372,363.594z"/>
	<path style="fill:#314E55;" d="M148.372,453.457c-4.768-2.764-10.892-1.126-13.641,3.656l-23.041,39.91
		c-2.76,4.778-1.121,10.882,3.656,13.641c1.57,0.907,3.286,1.336,4.983,1.336c3.452,0,6.806-1.789,8.659-4.992l23.041-39.91
		C154.788,462.32,153.15,456.216,148.372,453.457z"/>
	<path style="fill:#314E55;" d="M208.28,363.594c-4.778-2.76-10.882-1.121-13.641,3.656l-23.041,39.91
		c-2.76,4.778-1.121,10.882,3.656,13.641c1.57,0.907,3.286,1.336,4.983,1.336c3.452,0,6.806-1.789,8.659-4.992l23.041-39.91
		C214.696,372.457,213.058,366.354,208.28,363.594z"/>
	<path style="fill:#314E55;" d="M208.28,453.457c-4.778-2.764-10.882-1.126-13.641,3.656l-23.041,39.91
		c-2.76,4.778-1.121,10.882,3.656,13.641c1.57,0.907,3.286,1.336,4.983,1.336c3.452,0,6.806-1.789,8.659-4.992l23.041-39.91
		C214.696,462.32,213.058,456.216,208.28,453.457z"/>
	<path style="fill:#314E55;" d="M268.188,363.594c-4.768-2.76-10.882-1.121-13.641,3.656l-23.041,39.91
		c-2.76,4.778-1.121,10.882,3.656,13.641c1.57,0.907,3.286,1.336,4.983,1.336c3.452,0,6.806-1.789,8.659-4.992l23.041-39.91
		C274.604,372.457,272.966,366.354,268.188,363.594z"/>
	<path style="fill:#314E55;" d="M268.188,453.457c-4.768-2.764-10.882-1.126-13.641,3.656l-23.041,39.91
		c-2.76,4.778-1.121,10.882,3.656,13.641c1.57,0.907,3.286,1.336,4.983,1.336c3.452,0,6.806-1.789,8.659-4.992l23.041-39.91
		C274.604,462.32,272.966,456.216,268.188,453.457z"/>
	<path style="fill:#314E55;" d="M328.097,363.594c-4.778-2.76-10.882-1.121-13.641,3.656l-23.041,39.91
		c-2.76,4.778-1.121,10.882,3.656,13.641c1.57,0.907,3.286,1.336,4.983,1.336c3.452,0,6.806-1.789,8.659-4.992l23.041-39.91
		C334.513,372.457,332.875,366.354,328.097,363.594z"/>
	<path style="fill:#314E55;" d="M328.097,453.457c-4.778-2.764-10.882-1.126-13.641,3.656l-23.041,39.91
		c-2.76,4.778-1.121,10.882,3.656,13.641c1.57,0.907,3.286,1.336,4.983,1.336c3.452,0,6.806-1.789,8.659-4.992l23.041-39.91
		C334.513,462.32,332.875,456.216,328.097,453.457z"/>
	<path style="fill:#314E55;" d="M388.005,363.594c-4.768-2.76-10.882-1.121-13.641,3.656l-23.041,39.91
		c-2.76,4.778-1.121,10.882,3.656,13.641c1.57,0.907,3.286,1.336,4.983,1.336c3.452,0,6.806-1.789,8.659-4.992l23.041-39.91
		C394.421,372.457,392.783,366.354,388.005,363.594z"/>
	<path style="fill:#314E55;" d="M388.005,453.457c-4.768-2.764-10.882-1.126-13.641,3.656l-23.041,39.91
		c-2.76,4.778-1.121,10.882,3.656,13.641c1.57,0.907,3.286,1.336,4.983,1.336c3.452,0,6.806-1.789,8.659-4.992l23.041-39.91
		C394.421,462.32,392.783,456.216,388.005,453.457z"/>
</g>
<g>
</g>
<g>
</g>
<g>
</g>
<g>
</g>
<g>
</g>
<g>
</g>
<g>
</g>
<g>
</g>
<g>
</g>
<g>
</g>
<g>
</g>
<g>
</g>
<g>
</g>
<g>
</g>
<g>
</g>
</svg>
