<?xml version="1.0" encoding="UTF-8"?>
<svg fill="green" width="17px" height="17px" viewBox="0 0 17 17" version="1.1" xmlns="http://www.w3.org/2000/svg" xmlns:xlink="http://www.w3.org/1999/xlink">
    <!-- Generator: Sketch 51.2 (57519) - http://www.bohemiancoding.com/sketch -->
    <title>clock-circular-outline (2)</title>
    <desc>Created with Sketch.</desc>
    <defs></defs>
    <g id="Page-1" stroke="none" stroke-width="1" fill="none" fill-rule="evenodd">
        <g id="FAHU-Card-Design-Copy" transform="translate(-67.000000, -298.000000)" fill="#333333" fill-rule="nonzero">
            <g id="Group-6" transform="translate(28.000000, 70.000000)">
                <g id="Group-5">
                    <g id="clock-circular-outline-(2)" transform="translate(39.000000, 228.000000)">
                        <path d="M8.5,0 C3.8131021,0 0,3.8131021 0,8.5 C0,13.1868979 3.8131021,17 8.5,17 C13.1868979,17 17,13.1868979 17,8.5 C17,3.8131021 13.1868979,0 8.5,0 Z M8.5,15.1913442 C4.8104261,15.1913442 1.80848086,12.1897489 1.80848086,8.5 C1.80848086,4.81025113 4.8104261,1.80865583 8.5,1.80865583 C12.1895739,1.80865583 15.1915191,4.81025113 15.1915191,8.5 C15.1915191,12.1897489 12.1895739,15.1913442 8.5,15.1913442 Z" id="Shape"></path>
                        <path d="M13.0587757,8.22916667 L8.94494857,8.22916667 L8.94494857,3.85416667 C8.94494857,3.486 8.60746852,3.1875 8.19122428,3.1875 C7.77498005,3.1875 7.4375,3.486 7.4375,3.85416667 L7.4375,8.89583333 C7.4375,9.264 7.77498005,9.5625 8.19122428,9.5625 L13.0587757,9.5625 C13.47502,9.5625 13.8125,9.264 13.8125,8.89583333 C13.8125,8.52766667 13.47502,8.22916667 13.0587757,8.22916667 Z" id="Shape"></path>
                    </g>
                </g>
            </g>
        </g>
    </g>
</svg>