<?xml version="1.0" encoding="UTF-8"?>
<svg width="17px" height="19px" viewBox="0 0 17 19" version="1.1" xmlns="http://www.w3.org/2000/svg" xmlns:xlink="http://www.w3.org/1999/xlink">
    <!-- Generator: Sketch 51.2 (57519) - http://www.bohemiancoding.com/sketch -->
    <title>notification</title>
    <desc>Created with Sketch.</desc>
    <defs></defs>
    <g id="Page-1" stroke="none" stroke-width="1" fill="none" fill-rule="evenodd">
        <g id="FAHU-Card-Design" transform="translate(-144.000000, -163.000000)">
            <g id="Group-6" transform="translate(28.000000, 70.000000)">
                <g id="Group-5">
                    <g id="Group-8" transform="translate(28.000000, 92.000000)">
                        <g id="notification" transform="translate(88.000000, 1.000000)">
                            <path d="M7.5,18.245614 C8.53390351,18.245614 9.37135965,17.4082018 9.37135965,16.3742544 L5.62868421,16.3742544 C5.62864035,17.4082018 6.46609649,18.245614 7.5,18.245614 Z" id="Shape" fill="#C2C0C0" fill-rule="nonzero"></path>
                            <path d="M13.1140351,12.6315789 L13.1140351,7.95320175 C13.1140351,5.07600877 11.5842105,2.67600877 8.90350877,2.03973684 L8.90350877,1.40350877 C8.90350877,0.626885965 8.27662281,0 7.5,0 C6.72337719,0 6.09649123,0.626885965 6.09649123,1.40350877 L6.09649123,2.0397807 C3.41578947,2.67605263 1.88596491,5.07605263 1.88596491,7.95324561 L1.88596491,12.6315789 L0.0146052632,14.5029386 L0.0146052632,15.4385965 L14.9853509,15.4385965 L14.9853509,14.5029386 L13.1140351,12.6315789 Z" id="Shape" fill="#C2C0C0" fill-rule="nonzero"></path>
                            <circle id="Oval-2" fill="#E41F1F" cx="13" cy="4" r="4"></circle>
                        </g>
                    </g>
                </g>
            </g>
        </g>
    </g>
</svg>