<?xml version="1.0" encoding="UTF-8"?>
<svg width="20px" height="20px" viewBox="0 0 20 20" version="1.1" xmlns="http://www.w3.org/2000/svg" xmlns:xlink="http://www.w3.org/1999/xlink">
    <!-- Generator: Sketch 52.5 (67469) - http://www.bohemiancoding.com/sketch -->
    <title>Group 2</title>
    <desc>Created with Sketch.</desc>
    <g id="Page-1" stroke="none" stroke-width="1" fill="none" fill-rule="evenodd">
        <g id="Card_Template-1.1" transform="translate(-106.000000, -188.000000)" fill="#324056" fill-rule="nonzero">
            <g id="Group-4" transform="translate(90.000000, 136.000000)">
                <g id="Group-6">
                    <g id="Group-2" transform="translate(16.000000, 52.000000)">
                        <g id="icon-copy">
                            <path d="M10.005605,1.13420972 C14.8912101,1.13420972 18.8657323,5.11056761 18.8657323,9.99898094 C18.8657323,14.8863752 14.8891718,18.8627331 10.0015286,18.8637522 C5.1128662,18.8627331 1.13528661,14.8863752 1.13528661,9.99898094 C1.13528661,5.11056761 5.11184709,1.13420972 10.0025477,1.13420972 L10.005605,1.13420972 Z M10.0045859,0 L10.0025477,0 C10.0025477,0 10.0015286,0 10.0005095,0 C4.47898085,0 0,4.47773362 0,10 C0,15.5202283 4.47999996,19.9989809 10.0005095,20 C15.5199999,19.9989809 19.9999998,15.5202283 19.9999998,10 C20.0010189,4.47569551 15.5220381,0 10.0045859,0 Z" id="Shape"></path>
                            <path d="M11.7609672,8.43804891 C12.7106646,4.97800539 10.7020222,2.76638729 8.00436248,3.019691 C6.73233047,3.14208565 5.45705349,4.7438591 6.24017524,6.20195188 C6.97462228,7.56851475 8.51166096,7.4418629 8.982183,9 C9.4213369,8.40824848 10.2942364,7.74306017 11.7609672,8.43804891 Z" id="Shape"></path>
                            <path d="M7.29175599,10 C4.0961616,10.815311 3.2400761,13.3102571 4.66753977,15.2340141 C5.34101988,16.1398105 7.2004533,16.3933581 8.00941483,15.1557819 C8.76732539,13.9973805 7.9691631,12.8936473 9,11.8483525 C8.33044689,11.7786034 7.40171193,11.4157193 7.29175599,10 Z" id="Shape"></path>
                            <path d="M11,11.4326145 C13.2638198,13.8614137 15.8630202,13.2829827 16.8548705,10.9621302 C17.3207829,9.86738839 16.6404937,8.05877314 15.164628,8.00174473 C13.7830882,7.94573468 13.2037942,9.25942481 11.7889069,8.8989238 C12.0537814,9.53743831 12.1862187,10.5680231 11,11.4326145 Z" id="Shape"></path>
                            <circle id="Oval" cx="10.5" cy="10.5" r="1.5"></circle>
                        </g>
                    </g>
                </g>
            </g>
        </g>
    </g>
</svg>