<svg id="Layer_1" data-name="Layer 1" xmlns="http://www.w3.org/2000/svg" viewBox="0 0 50 50"><defs><style>.cls-1{fill:#fff;}</style></defs><path d="M25,38.63h22.8a3,3,0,0,1,1.5.43,1.55,1.55,0,0,1,.63,1.84,1.92,1.92,0,0,1-1.78,1.22H45.65A1.46,1.46,0,0,0,44,43.36a1.52,1.52,0,0,0,.1.79c.32,1.13.64,2.24.95,3.36a1.71,1.71,0,0,1-1,2.2l-.24.07a1.85,1.85,0,0,1-2.35-1.15l0-.08c-.44-1.42-.82-2.87-1.22-4.3a2.6,2.6,0,0,0-2.86-2.09H12.41a2.54,2.54,0,0,0-2.76,2.1c-.39,1.41-.76,2.82-1.23,4.22A1.9,1.9,0,0,1,6.18,50H6.12a1.73,1.73,0,0,1-1.38-2,1.11,1.11,0,0,1,.07-.26c.29-1.14.61-2.27.92-3.41a1.48,1.48,0,0,0-.82-1.92,1.51,1.51,0,0,0-.73-.09H2a1.79,1.79,0,0,1-.42-3.56H2Z"/><path d="M22.29,5.23A1.36,1.36,0,0,1,20.83,4a1.33,1.33,0,0,1,.07-.56,1.85,1.85,0,0,1,.65-.79,2.31,2.31,0,0,1,.73-.28c1-.26,1.1-.47,1.14-1.26a1,1,0,0,1,.3-.58,1.82,1.82,0,0,1,2.51,0,1.31,1.31,0,0,1,.32.74,1,1,0,0,0,.83,1,6.41,6.41,0,0,1,.88.27,1.42,1.42,0,0,1,.89,1.6A1.41,1.41,0,0,1,27.77,5.2Z"/><path d="M48.05,15.82c0-2.33-.11-4.65-.18-7a2.1,2.1,0,0,0-1.09-1.67,3.88,3.88,0,0,0-2.15-.58H5.29A3,3,0,0,0,2,9.2v.16c0,4.19-.16,8.38-.25,12.56s-.17,8.32-.24,12.49a2.46,2.46,0,0,0,2,2.41A5.43,5.43,0,0,0,4.91,37H45.07a5.59,5.59,0,0,0,1.41-.15,2.53,2.53,0,0,0,2-2.52Q48.25,25.07,48.05,15.82Z"/><rect class="cls-1" x="13.83" y="18.23" width="5.58" height="13.89" rx="1.3"/><rect class="cls-1" x="22.21" y="11.46" width="5.58" height="20.59" rx="1.58"/><rect class="cls-1" x="30.59" y="19.99" width="5.58" height="12.06" rx="1.21"/></svg>