<svg id="Layer_1" data-name="Layer 1" xmlns="http://www.w3.org/2000/svg" viewBox="0 0 50 50"><defs><style>.cls-1{fill-rule:evenodd;}</style></defs><path class="cls-1" d="M41.58,15.82H8.4V9.44a2,2,0,0,1,1.89-2H39.7a2,2,0,0,1,1.89,2v6.38ZM39.74,4.42H10.24V1.81A1.75,1.75,0,0,1,11.92,0H38.06a1.75,1.75,0,0,1,1.68,1.81V4.42Z"/><path class="cls-1" d="M30.25,35.53H19.76a7.12,7.12,0,0,1-6.83-7.37c0-1.24.39-2.59,2.09-2.59s2.13,1.44,2.13,2.69A2.64,2.64,0,0,0,19.68,31h10.6a2.64,2.64,0,0,0,2.53-2.73c0-1.25.51-2.7,2.17-2.7s2.09,1.36,2.09,2.6a7.12,7.12,0,0,1-6.82,7.37M49.49,17.62,45.88,10.2a.87.87,0,0,0-1-.47.94.94,0,0,0-.66.91l-.05,7.25a.92.92,0,0,1-.88.94H6.73a.91.91,0,0,1-.88-.94l0-7.25a1,1,0,0,0-.67-.92.87.87,0,0,0-1,.48L.5,17.62A5.2,5.2,0,0,0,0,20.2L2,47.48A2.61,2.61,0,0,0,4.46,50H45.55a2.62,2.62,0,0,0,2.52-2.52L50,20.2a5.1,5.1,0,0,0-.5-2.58"/></svg>