<svg id="Layer_1" data-name="Layer 1" xmlns="http://www.w3.org/2000/svg" viewBox="0 0 50 50"><path d="M34.37.73A.73.73,0,0,0,33.64,0a.73.73,0,0,0-.72.73V4.84h1.45Z"/><path d="M7.22.73a.72.72,0,1,0-1.44,0V4.84H7.22Z"/><path d="M20.85.73a.73.73,0,1,0-1.45,0V4.84h1.45Z"/><path d="M34.18,32.82s0,.06,0,.09,0,.06,0,.09v8.84h4.6V27.55h-4.6Z"/><path d="M31.07,35.33a.67.67,0,0,1-.26.54,1,1,0,0,1-.65.23H28.57v5.74h4.08V33.67H31.07Z"/><path d="M40.82,31.63h3.57V41.84H40.82Z"/><path d="M36.22,22.45A13.78,13.78,0,1,0,50,36.22,13.78,13.78,0,0,0,36.22,22.45Zm9.13,19.91a.8.8,0,0,1-.84.75H27.93a.82.82,0,0,1-.58-.21.78.78,0,0,1-.25-.54V35.1a.81.81,0,0,1,.83-.77h1.38V32.66a.72.72,0,0,1,.25-.54.78.78,0,0,1,.57-.2h2.2V26.56a.79.79,0,0,1,.8-.79H39.5a.84.84,0,0,1,.85.79v3.27h4.16a.84.84,0,0,1,.84.79Z"/><path d="M37.44,4.84H34.37V6.91a.73.73,0,0,1-.73.73.73.73,0,0,1-.72-.73V4.84H20.85V6.91a.73.73,0,1,1-1.45,0V4.84H7.22V6.91a.72.72,0,1,1-1.44,0V4.84H2.72A2.74,2.74,0,0,0,0,7.6V38.48a2.73,2.73,0,0,0,2.72,2.74H22.31A14.77,14.77,0,0,1,36.22,21.43a15,15,0,0,1,3.93.54V7.6A2.75,2.75,0,0,0,37.44,4.84ZM9.06,30.47h-2a.73.73,0,0,1,0-1.46h2a.73.73,0,1,1,0,1.46Zm0-7.92h-2a.73.73,0,0,1,0-1.46h2a.73.73,0,0,1,0,1.46Zm8,7.92h-2a.73.73,0,0,1,0-1.46h2a.73.73,0,0,1,0,1.46Zm0-7.92h-2a.73.73,0,0,1,0-1.46h2a.73.73,0,0,1,0,1.46Zm0-7.92h-2a.73.73,0,0,1,0-1.46h2a.73.73,0,0,1,0,1.46Zm8,7.92H23a.73.73,0,0,1,0-1.46h2a.73.73,0,0,1,0,1.46Zm0-7.92H23a.73.73,0,0,1,0-1.46h2a.73.73,0,0,1,0,1.46Zm8,0H31a.73.73,0,0,1,0-1.46h2a.73.73,0,0,1,0,1.46Z"/></svg>