<svg id="Layer_1" data-name="Layer 1" xmlns="http://www.w3.org/2000/svg" viewBox="0 0 50 50"><defs><style>.cls-1{fill-rule:evenodd;}</style></defs><path id="Combined-Shape" class="cls-1" d="M32.5,23Q45.09,26.39,45,37v4.27a2,2,0,0,1-2,2H40V35.8l0-.2A4,4,0,0,0,36,32H32v-.22l0-.21A4,4,0,0,0,28,28H21.78l-.21,0A4,4,0,0,0,18,32H13.8A4,4,0,0,0,10,36h0v7.27H7a2,2,0,0,1-2-2V36.85q.75-12.13,12.91-13.59A13.62,13.62,0,0,0,32.5,23ZM22.09,8.63a8.61,8.61,0,0,1,4.32,1.18l.34.17.52.26a10.18,10.18,0,0,0,6.58,1.23Q32.56,23.38,24.5,23q-7.2-.34-9-9.32C16.81,10.25,19,8.63,22.09,8.63ZM24.58,0Q34,0,34,9.71c0,.19,0,.39,0,.59a8.09,8.09,0,0,1-5.67-.93L28,9.21l-.6-.31a10.51,10.51,0,0,0-5.27-1.39,7.28,7.28,0,0,0-6.91,4.09q-.12-.91-.18-1.89Q15.17,0,24.58,0Z"/><g id="Group"><path id="Combined-Shape-2" data-name="Combined-Shape" class="cls-1" d="M12,40.5H23V41a1,1,0,0,0,1,1h2a1,1,0,0,0,1-1h0v-.5H38V48a2,2,0,0,1-2,2H14a2,2,0,0,1-2-2Zm18-8.65V34h6a2,2,0,0,1,2,2v3.5H27V39a1,1,0,0,0-1-1H24a1,1,0,0,0-1,1h0v.5H12V36a2,2,0,0,1,2-2h6V32a2,2,0,0,1,1.85-2H28A2,2,0,0,1,30,31.85ZM28,32H22v2h6Z"/></g></svg>