<svg id="Layer_1" data-name="Layer 1" xmlns="http://www.w3.org/2000/svg" viewBox="0 0 50 50"><path d="M45.74,49.92H4.31C4.3,43,6.41,35.78,11,32.24a14.49,14.49,0,0,1,6.32-2.77,1.1,1.1,0,0,1,.79.28c4.81,3.59,9.57,3.52,14.29-.37a.83.83,0,0,1,.71-.24,19.23,19.23,0,0,1,8.54,6.24A22.9,22.9,0,0,1,45.74,49.92Z"/><path d="M32.84,17A21.9,21.9,0,0,1,31.16,25c-2.48,5.42-9.23,4.49-11.6.85a14.18,14.18,0,0,1-2-5.25,14.85,14.85,0,0,1-.09-6.12A6.61,6.61,0,0,1,23.71,9a10.71,10.71,0,0,1,4.84.49c2.54.94,3.68,2.95,4.09,5.48C32.76,15.68,32.79,16.4,32.84,17Z"/><path d="M44.85,6a16.27,16.27,0,0,1-1.16,5.69,4.45,4.45,0,0,1-3.9,2.95A5,5,0,0,1,35,12.2a11.88,11.88,0,0,1-1.42-4.65,9.23,9.23,0,0,1,.21-3.7A4.59,4.59,0,0,1,37.86.26a10,10,0,0,1,2.78,0,4.67,4.67,0,0,1,4.08,4.38C44.78,5.13,44.81,5.6,44.85,6Z"/><path d="M30.85,28.1c2.54-3.19,3.31-6.88,3.81-10.62.6.19,2.59,1.74,4.56,1.67,2.26-.09,4.49-1.81,4.6-1.78,2.64.72,3.37,1.12,4.66,2.69C50,21.94,49.92,25,50,27.41A5,5,0,0,1,50,28s0,.08-.07.14Z"/><path d="M5.26,6a16,16,0,0,0,1.16,5.69,4.45,4.45,0,0,0,3.89,2.95,5,5,0,0,0,4.85-2.46,11.7,11.7,0,0,0,1.41-4.65,9.23,9.23,0,0,0-.2-3.7A4.59,4.59,0,0,0,12.24.26a9.88,9.88,0,0,0-2.77,0A4.67,4.67,0,0,0,5.39,4.66C5.33,5.13,5.3,5.6,5.26,6Z"/><path d="M19.26,28.1c-2.55-3.19-3.31-6.88-3.81-10.62-.6.19-2.59,1.74-4.56,1.67-2.26-.09-4.49-1.81-4.6-1.78-2.64.72-3.37,1.12-4.67,2.69C.07,21.94.18,25,.07,27.41a5,5,0,0,0,0,.55s0,.08.07.14Z"/></svg>