<svg id="Layer_1" data-name="Layer 1" xmlns="http://www.w3.org/2000/svg" viewBox="0 0 50 50"><path d="M24.9,0H13.18a4.4,4.4,0,0,0,0,8.79H24.9A4.4,4.4,0,1,0,24.9,0Z"/><path d="M33.69,2.93H32.08a7.77,7.77,0,0,1,.15,1.46,7.34,7.34,0,0,1-7.33,7.33H13.18A7.34,7.34,0,0,1,5.86,4.39,7,7,0,0,1,6,2.93H4.39A4.4,4.4,0,0,0,0,7.32V45.61A4.4,4.4,0,0,0,4.39,50h29.3a4.4,4.4,0,0,0,4.4-4.39V7.32A4.4,4.4,0,0,0,33.69,2.93Zm-20.33,34a4.4,4.4,0,0,1-1.64,1v1.73a1.47,1.47,0,0,1-2.93,0V37.92a4.3,4.3,0,0,1-1.64-1,1.46,1.46,0,1,1,2.07-2.06,1.5,1.5,0,0,0,2.07,0,1.47,1.47,0,0,0,0-2.08,1.48,1.48,0,0,0-1-.43,4.39,4.39,0,0,1-3.1-7.5,4.09,4.09,0,0,1,1.64-1V22.07a1.47,1.47,0,0,1,2.93,0v1.78a4.21,4.21,0,0,1,1.64,1,1.46,1.46,0,1,1-2.07,2.07,1.5,1.5,0,0,0-2.07,0,1.46,1.46,0,0,0-.43,1,1.47,1.47,0,0,0,1.46,1.46,4.4,4.4,0,0,1,3.11,7.51Zm17.4,4.21H19a1.47,1.47,0,0,1,0-2.93H30.76a1.47,1.47,0,1,1,0,2.93Zm0-5.86H19a1.47,1.47,0,0,1,0-2.93H30.76a1.47,1.47,0,1,1,0,2.93Zm0-5.86H19a1.47,1.47,0,0,1,0-2.93H30.76a1.47,1.47,0,1,1,0,2.93Zm0-5.85H19a1.47,1.47,0,0,1,0-2.93H30.76a1.47,1.47,0,1,1,0,2.93Zm0-5.86H7.32a1.47,1.47,0,0,1,0-2.93H30.76a1.47,1.47,0,1,1,0,2.93Z"/><path d="M41.62,41.11,44.22,49A1.46,1.46,0,0,0,47,49l2.6-7.89Z"/><rect x="41.21" y="8.79" width="8.79" height="29.39"/><path d="M45.61,0a4.4,4.4,0,0,0-4.4,4.39V5.86H50V4.39A4.4,4.4,0,0,0,45.61,0Z"/></svg>