<svg id="Layer_1" data-name="Layer 1" xmlns="http://www.w3.org/2000/svg" viewBox="0 0 52 50"><g id="Page-1"><g id="Group"><g id="desk"><path id="Combined-Shape" d="M31.86,0a7.61,7.61,0,0,1,7.6,7.15l0,.44V21H52V50H42.62V30.37H39.48v2.92a4.1,4.1,0,0,1-3.75,4.08h-8v2.69h4.1A4.11,4.11,0,0,1,36,43.81v2.31a2.34,2.34,0,1,1-3.72.26l.21-.26v-2A.58.58,0,0,0,32,43.6l-.15,0h-4.1v2.55a2.34,2.34,0,1,1-3.72.26l.2-.26V43.57h-4.1a.58.58,0,0,0-.56.43l0,.16v2a2.29,2.29,0,0,1,.59,1.54,2.35,2.35,0,1,1-4.3-1.28l.2-.26v-2a4.09,4.09,0,0,1,3.75-4.07l.35,0h4.1V37.38H16.62a4.09,4.09,0,0,1-4.08-3.73l0-.36V30.37H9.38V50H0V21H12.52V7.59A7.62,7.62,0,0,1,19.69,0H31.86Zm.81,16.61H19.33v3.33H32.67Zm0-6.64H19.33v3.32H32.67Z"/></g></g></g></svg>