<svg id="Layer_1" data-name="Layer 1" xmlns="http://www.w3.org/2000/svg" viewBox="0 0 50 50"><g id="Page-1"><g id="Group"><g id="Icon_Parking-Stalls_fill-Copy" data-name="Icon/Parking-Stalls/fill-Copy"><path id="Combined-Shape" d="M47.92,0A2.08,2.08,0,0,1,50,2.08h0V7.47h0V47.92A2.08,2.08,0,0,1,47.92,50H2.08A2.08,2.08,0,0,1,0,47.92H0V2.08A2.08,2.08,0,0,1,2.08,0H47.92ZM24.15,13.16a46.88,46.88,0,0,0-7.48.49h0V37.13h5.42v-8.5a15.27,15.27,0,0,0,1.92.1c3.27,0,6.09-.77,8-2.51a7.48,7.48,0,0,0,2.25-5.64,6.87,6.87,0,0,0-2.62-5.52C30,13.79,27.57,13.16,24.15,13.16Zm.26,4.06c2.76,0,4.33,1.31,4.32,3.5,0,2.43-1.81,3.88-4.76,3.88a9.81,9.81,0,0,1-1.88-.14h0v-7A10,10,0,0,1,24.41,17.22Z"/></g></g></g></svg>