<svg id="Layer_1" data-name="Layer 1" xmlns="http://www.w3.org/2000/svg" viewBox="0 0 50 50"><path d="M27.13,18.08c0-.54-.5-.82-1.21-1v2.19C26.72,19.06,27.13,18.58,27.13,18.08Z"/><path d="M24.37,12.11c-.74.1-1.14.51-1.14,1.06s.45.74,1.14.94Z"/><path d="M46.18.59c-.43-.2-.7.14-1,.37L43.67,2.3a1.77,1.77,0,0,1-2.52.05c-.83-.67-1.64-1.36-2.47-2-.54-.43-.78-.42-1.3,0L35,2.34a1.88,1.88,0,0,1-2.51,0q-1.23-1-2.43-2c-.53-.44-.77-.46-1.3,0-.83.67-1.64,1.36-2.47,2a1.8,1.8,0,0,1-2.5,0C22.87,1.65,22,.94,21.18.24a.76.76,0,0,0-1.1,0c-.79.66-1.6,1.31-2.39,2a1.9,1.9,0,0,1-2.81,0C14.1,1.55,13.31.91,12.53.26a.79.79,0,0,0-1.14,0C10.54,1,9.68,1.69,8.8,2.39a1.79,1.79,0,0,1-2.52-.13c-.56-.51-1.13-1-1.72-1.51s-.87-.23-1,.35a4.38,4.38,0,0,0-.07,1V45.63a15,15,0,0,0,.09,1.78A2.89,2.89,0,0,0,6.32,50H43.76a2.9,2.9,0,0,0,2.75-2.85q0-5.47,0-11V1.53C46.52,1.18,46.59.78,46.18.59ZM11.52,43.11a1,1,0,0,1,.86-.93,3.54,3.54,0,0,1,.56,0H26.26a1.26,1.26,0,0,1,.91.25,1,1,0,0,1,.36.94,1,1,0,0,1-.67.77,2.13,2.13,0,0,1-.75.07H13a2.76,2.76,0,0,1-.7-.06A1,1,0,0,1,11.52,43.11Zm25.1-6a5.19,5.19,0,0,1-.56,0H13.12c-.17,0-.34,0-.5,0a1.09,1.09,0,0,1-1.1-1,1.07,1.07,0,0,1,1.1-1H36a4.82,4.82,0,0,1,.66,0,1,1,0,0,1,0,2ZM21.77,17.82a4.76,4.76,0,0,0,2.6,1.4V16.64c-1.68-.43-3.51-1.05-3.51-3.27,0-1.65,1.3-3.06,3.51-3.29V8.56h1.55v1.56a5.72,5.72,0,0,1,3.32,1.45L28,13.27a4.57,4.57,0,0,0-2-1.06v2.3c1.69.43,3.57,1.08,3.57,3.31,0,1.81-1.18,3.2-3.57,3.45v1.48H24.37V21.28a6,6,0,0,1-3.86-1.7ZM12.58,28c.59,0,1.19,0,1.78,0H35.92a4.8,4.8,0,0,1,.66,0,1.09,1.09,0,0,1,0,2.16,3.46,3.46,0,0,1-.56,0H13.08c-.16,0-.33,0-.5,0a1.1,1.1,0,1,1,0-2.19Z"/></svg>