<svg id="Layer_1" data-name="Layer 1" xmlns="http://www.w3.org/2000/svg" viewBox="0 0 50 50"><g id="ser-req-icon-50x50"><path id="Combined-Shape-Copy-2" d="M34.16,18.65H36a14.69,14.69,0,0,1,.93,4.94v5.9h.54a6.59,6.59,0,0,1,.23,13.18h-1a7.63,7.63,0,0,1-7.42,6.58h-4.6a1.58,1.58,0,0,1-1.33.74H21.48a1.56,1.56,0,1,1,0-3.12h1.86a1.56,1.56,0,0,1,1.37.81h4.44a6.06,6.06,0,0,0,6-5H34a1,1,0,0,1-1-.87v-18a10.87,10.87,0,0,0-.63-3.66ZM22,9a15.39,15.39,0,0,1,3.13.32v4A11.12,11.12,0,0,0,22,12.89,11,11,0,0,0,11,23.65V41.81a1,1,0,0,1-.86.86H6.36a6.59,6.59,0,0,1,0-13.17h.77V23.83A14.84,14.84,0,0,1,22,9ZM13.53,30.57a1.22,1.22,0,0,1,1.22,1.22v8.59a1.23,1.23,0,0,1-2.45,0V31.79A1.22,1.22,0,0,1,13.53,30.57Zm17,0a1.22,1.22,0,0,1,1.22,1.22v8.59a1.22,1.22,0,0,1-2.44,0V31.79A1.21,1.21,0,0,1,30.52,30.57ZM47.07,0A2.93,2.93,0,0,1,50,2.93V13.49a2.93,2.93,0,0,1-2.93,2.93h-14l-4.65,3.82a.68.68,0,0,1-1-.09.72.72,0,0,1-.16-.44V2.93A2.93,2.93,0,0,1,30.27,0ZM34,6.64A1.57,1.57,0,1,0,35.55,8.2,1.56,1.56,0,0,0,34,6.64Zm5.08,0A1.57,1.57,0,1,0,40.62,8.2,1.56,1.56,0,0,0,39.06,6.64Zm5.08,0A1.57,1.57,0,1,0,45.7,8.2,1.56,1.56,0,0,0,44.14,6.64Z"/></g></svg>