<svg width="20" height="20" xmlns="http://www.w3.org/2000/svg"><path d="M10.877 13.217a3.193 3.193 0 01-3.835-3.834 3.162 3.162 0 012.376-2.376 3.194 3.194 0 013.834 3.834 3.161 3.161 0 01-2.375 2.376m8.848-2.371V9.38a.864.864 0 00-.863-.865h-.238a1.287 1.287 0 01-1.215-.88 7.74 7.74 0 00-.383-.92 1.29 1.29 0 01.232-1.49l.17-.17a.864.864 0 000-1.22l-1.037-1.038a.865.865 0 00-1.222 0l-.182.182a1.29 1.29 0 01-1.485.235 7.576 7.576 0 00-.906-.374 1.289 1.289 0 01-.886-1.217v-.26A.864.864 0 0010.846.5H9.379a.864.864 0 00-.864.863v.286c0 .552-.356 1.033-.878 1.213-.304.106-.599.231-.885.372a1.29 1.29 0 01-1.491-.232l-.205-.205a.865.865 0 00-1.222 0L2.797 3.834a.864.864 0 000 1.222l.216.217c.394.392.48.987.236 1.486-.137.282-.26.573-.362.874-.18.525-.663.882-1.216.882h-.308A.864.864 0 00.5 9.38v1.466c0 .477.387.863.863.863h.308c.553 0 1.036.36 1.216.883.102.3.225.592.362.875a1.289 1.289 0 01-.236 1.486l-.216.217a.864.864 0 000 1.222l1.037 1.036a.864.864 0 001.222 0l.205-.204c.393-.395.992-.48 1.49-.233.287.141.582.266.886.371.522.18.878.663.878 1.215v.284c0 .478.387.865.864.865h1.467a.864.864 0 00.864-.865v-.259c0-.555.36-1.038.886-1.216a7.58 7.58 0 00.906-.375 1.29 1.29 0 011.485.235l.182.182a.864.864 0 001.222 0l1.037-1.036a.864.864 0 000-1.222l-.17-.17a1.29 1.29 0 01-.232-1.49 7.74 7.74 0 00.383-.92c.18-.523.662-.88 1.215-.88h.238a.863.863 0 00.863-.864" fill-rule="evenodd"/></svg>