<svg id="Layer_1" data-name="Layer 1" xmlns="http://www.w3.org/2000/svg" viewBox="0 0 50 50"><defs><style>.cls-1{fill-rule:evenodd;}.cls-2{fill:none;stroke:#000;stroke-linecap:round;stroke-width:2.5px;}</style></defs><path id="Combined-Shape" class="cls-1" d="M13.48,23.26a13.64,13.64,0,0,0,13.16.56V43.27H2.51a2,2,0,0,1-2-2V36.85Q1.27,24.72,13.48,23.26Zm4.2-14.63A8.73,8.73,0,0,1,22,9.81l.34.17.51.26a10.29,10.29,0,0,0,6.62,1.23Q28.21,23.38,20.1,23q-7.23-.34-9-9.32C12.37,10.25,14.55,8.63,17.68,8.63ZM20.18,0q9.48,0,9.47,9.71c0,.19,0,.39,0,.59a8.17,8.17,0,0,1-5.7-.93l-.33-.16L23,8.9a10.62,10.62,0,0,0-5.3-1.39,7.34,7.34,0,0,0-6.95,4.09q-.11-.91-.18-1.89Q10.72,0,20.18,0Z"/><path id="Shape" class="cls-2" d="M30.23,22V43.27M33,46.53H49.5"/><path id="Combined-Shape-2" data-name="Combined-Shape" class="cls-1" d="M30.16,43a3.5,3.5,0,1,1-3.52,3.5A3.51,3.51,0,0,1,30.16,43Zm0,2a1.5,1.5,0,1,0,1.5,1.5A1.5,1.5,0,0,0,30.16,45Z"/><path id="Path-55" class="cls-1" d="M34.68,34H47.75a1,1,0,0,1,1,1v7a1,1,0,0,1-1,1H34.68a1,1,0,0,1-1-1V35A1,1,0,0,1,34.68,34Z"/><path id="Path-55-Copy" class="cls-1" d="M34.68,22H47.75a1,1,0,0,1,1,1v7a1,1,0,0,1-1,1H34.68a1,1,0,0,1-1-1V23A1,1,0,0,1,34.68,22Z"/></svg>