<svg id="Layer_1" data-name="Layer 1" xmlns="http://www.w3.org/2000/svg" viewBox="0 0 50 50"><defs><style>.cls-1{fill-rule:evenodd;}</style></defs><g id="Page-1"><g id="teant-icon-50x50-copy"><path id="tenant" class="cls-1" d="M34.37,32.61q15.75,4,15.63,17.2L14.05,50H0v-.19Q.95,34.75,16.14,32.93,25.46,38,34.37,32.61ZM21.72,11a10.32,10.32,0,0,1,5.4,1.54l.34.18.63.33a12.25,12.25,0,0,0,8.11,1.57Q34.61,29.79,24.69,29.29q-8.85-.43-11.07-11.87C15.23,13.06,17.89,11,21.72,11ZM24.79,0q11.6,0,11.59,12.37c0,.25,0,.5-.05.75-2.62.55-4.52.07-7-1.21L29,11.73l-.74-.38a12.57,12.57,0,0,0-6.49-1.78,9,9,0,0,0-8.51,5.21c-.09-.77-.16-1.58-.21-2.41Q13.2,0,24.79,0Z"/></g></g></svg>