<?xml version="1.0" encoding="UTF-8"?>
<svg width="63px" height="44px" viewBox="0 0 63 44" version="1.1" xmlns="http://www.w3.org/2000/svg" xmlns:xlink="http://www.w3.org/1999/xlink">
    <!-- Generator: Sketch 51.2 (57519) - http://www.bohemiancoding.com/sketch -->
    <title>co2</title>
    <desc>Created with Sketch.</desc>
    <defs></defs>
    <g id="Page-1" stroke="none" stroke-width="1" fill="none" fill-rule="evenodd">
        <g id="co2" fill="#FFFFFF" fill-rule="nonzero">
            <path d="M47.2988496,12.8597009 C46.4936309,9.52027306 44.6615859,6.48731322 42.0337969,4.18880303 C38.9455664,1.48756554 34.9747207,0 30.8525273,0 C21.5287734,0 13.9433027,7.5210328 13.9433027,16.7655822 C13.9433027,16.9090561 13.9451484,17.05253 13.9488398,17.1962479 C13.8057363,17.1916118 13.6628789,17.1894158 13.5200215,17.1894158 C6.06510352,17.1894158 0,23.2028748 0,30.5947079 C0,37.986419 6.06510352,44 13.5201445,44 L47.2965117,44 C55.9554434,44 63,37.0152862 63,28.4299115 C63,19.8449027 55.957043,12.8605549 47.2988496,12.8597009 Z M47.2965117,40.3398299 L13.5201445,40.3398299 C8.10054492,40.3398299 3.69140625,35.9681465 3.69140625,30.5947079 C3.69140625,25.2212693 8.10054492,20.8494639 13.5201445,20.8494639 C14.2181895,20.8494639 14.9222637,20.9247389 15.6125566,21.0730928 L18.2802129,21.6463784 L17.8230937,18.9782033 C17.6982012,18.2487557 17.634832,17.5043019 17.634832,16.7657042 C17.634832,9.53930531 23.5643379,3.66017008 30.8526504,3.66017008 C37.4499316,3.66017008 43.0817871,8.5412102 43.9527129,15.0140052 L44.1909316,16.7842485 L45.9816328,16.5912419 C46.4202949,16.5439053 46.8626484,16.519993 47.2965117,16.519993 C53.920002,16.519993 59.3085937,21.8628092 59.3085937,28.4300335 C59.3085937,34.9972577 53.920002,40.3398299 47.2965117,40.3398299 Z" id="Shape"></path>
            <path d="M27.3075705,29.5943683 C27.1601743,29.9196552 26.9661667,30.1935868 26.7250517,30.4161632 C26.4839368,30.6390738 26.2192682,30.8196526 25.9314179,30.9578995 C25.6431957,31.0963692 25.341833,31.1988569 25.0272059,31.2648054 C24.7123309,31.3310882 24.4074971,31.3640625 24.1129526,31.3640625 C23.53688,31.3640625 23.0179561,31.2589013 22.5558088,31.0481332 C22.0936615,30.8376993 21.6984561,30.5516251 21.3703167,30.1904676 C21.0419293,29.8293101 20.7907731,29.4141238 20.616848,28.9445744 C20.442551,28.4751365 20.3556505,27.9876518 20.3556505,27.4821204 C20.3556505,27.0126824 20.4291627,26.5494828 20.5766828,26.0918533 C20.7239551,25.6345579 20.9515577,25.2251643 21.2598625,24.8641182 C21.5677954,24.5029607 21.9561826,24.2081973 22.425148,23.9793825 C22.8938656,23.7509019 23.4429134,23.6362717 24.0726635,23.6362717 C24.367208,23.6362717 24.6685707,23.6633418 24.9768755,23.717482 C25.2848084,23.7716222 25.5861711,23.8680943 25.8809635,24.0063412 C26.175508,24.1448109 26.4466229,24.3253897 26.6946799,24.5479661 C26.9423651,24.7707653 27.146662,25.0507125 27.3074466,25.3875849 L29.8390914,23.7986923 C29.3568615,22.9680969 28.6234754,22.2941292 27.6390571,21.7764553 C26.6545148,21.2590041 25.4923284,21 24.1529938,21 C23.0278734,21 22.0232485,21.1868171 21.1391191,21.559783 C20.2551136,21.9329717 19.5047441,22.4205678 18.8887543,23.0222371 C18.2725166,23.6242406 17.8037991,24.3073429 17.4822299,25.0715443 C17.1607846,25.8360798 17,26.6035117 17,27.3736171 C17,28.1924043 17.1708259,28.9986032 17.5123537,29.7931052 C17.8538816,30.5874958 18.3361115,31.2978911 18.9590434,31.9236227 C19.5818513,32.5496885 20.3252787,33.0521007 21.1893255,33.431305 C22.0532484,33.8103979 23.0007247,34 24.0324983,34 C24.6217113,34 25.2245606,33.9337172 25.8407983,33.8013745 C26.4567881,33.6690318 27.0394309,33.4764218 27.5888506,33.2235447 C28.1378985,32.970779 28.6235994,32.6578575 29.0455815,32.2846688 C29.4674397,31.911703 29.7855379,31.4902782 30,31.0207289 L27.3075705,29.5943683 Z" id="Shape"></path>
            <path d="M43.5396621,25.1347484 C43.2325809,24.3522909 42.7966687,23.6541616 42.2322663,23.0402488 C41.6675231,22.4263361 40.9862185,21.9329557 40.1883526,21.5597734 C39.3902595,21.1868139 38.5063926,21 37.536752,21 C36.5913099,21 35.7198263,21.1777907 34.9220739,21.5327038 C34.1239808,21.8878397 33.4333604,22.3631736 32.8505536,22.9590399 C32.267406,23.5549062 31.8130893,24.2441238 31.4879445,25.0263584 C31.1625724,25.8089272 31,26.6214621 31,27.4638514 C31,28.2944327 31.1565512,29.100952 31.4695401,29.8832981 C31.7825289,30.6658669 32.2212813,31.3609885 32.7861381,31.968663 C33.3506541,32.5766716 34.0318451,33.0672671 34.8300518,33.4402266 C35.6278041,33.8135203 36.5117846,34 37.4815388,34 C38.4266401,34 39.2981237,33.8194243 40.0963305,33.458273 C40.8941964,33.0972331 41.5815222,32.6186685 42.1586486,32.0229136 C42.7355478,31.4270474 43.1866834,30.738164 43.5120555,29.9555952 C43.8372004,29.1732491 44,28.3608257 44,27.5181021 C44,26.7118056 43.8464026,25.9173172 43.5396621,25.1347484 Z M40.7131059,28.8812758 C40.5717781,29.3448016 40.3601272,29.7600922 40.0778124,30.1270362 C39.7952704,30.4943144 39.4393379,30.7923033 39.0097877,31.02078 C38.5800103,31.2495908 38.0767288,31.3638849 37.4999432,31.3638849 C36.9475832,31.3638849 36.4564577,31.2556063 36.0269075,31.0388264 C35.5970165,30.8221579 35.2380166,30.5333036 34.9496806,30.1721523 C34.6611174,29.811001 34.4433317,29.3989409 34.2959827,28.9353036 C34.1486337,28.472112 34.0750159,27.9936589 34.0750159,27.4999443 C34.0750159,27.0187062 34.1455662,26.5460458 34.2867804,26.0826314 C34.4277674,25.6193284 34.6427129,25.2069341 34.9312762,24.8457827 C35.2196122,24.4846314 35.5757719,24.1929922 35.9991873,23.9700854 C36.4227163,23.7474014 36.9227032,23.6360037 37.4999432,23.6360037 C38.0524168,23.6360037 38.5403613,23.7414974 38.9638903,23.9519276 C39.3874193,24.1626921 39.7464192,24.4456422 40.0411172,24.8005553 C40.3357016,25.1556911 40.5567819,25.5650777 40.7040173,26.0282693 C40.8513663,26.4917951 40.9249841,26.9702482 40.9249841,27.4636287 C40.9248704,27.9454237 40.8540929,28.4179727 40.7131059,28.8812758 Z" id="Shape"></path>
            <path d="M47.8152237,35.5129378 C47.8633987,35.4443438 47.9342877,35.366921 48.0281021,35.2806692 C48.1217051,35.1946891 48.2235487,35.1085731 48.3333157,35.0224572 C48.4430828,34.936477 48.5542232,34.8521269 48.6666315,34.7694067 C48.7790397,34.6868223 48.8754952,34.6145609 48.9557868,34.5524868 C49.0734774,34.463111 49.188738,34.365042 49.3011463,34.2581441 C49.4136601,34.1515179 49.5152924,34.0275055 49.6063599,33.8863786 C49.6973219,33.7453875 49.7710633,33.5852444 49.8272674,33.406221 C49.8834716,33.2273334 49.9115736,33.0241324 49.9115736,32.7968895 C49.9115736,32.2462364 49.7576462,31.8091368 49.4496857,31.4853191 C49.1417252,31.161773 48.6986424,31 48.1203317,31 C47.8846337,31 47.6585495,31.0275734 47.4416565,31.0825844 C47.2247636,31.1377312 47.0253024,31.2116225 46.8432729,31.3046657 C46.6611378,31.3975732 46.4978078,31.5025694 46.353283,31.6196545 C46.2086525,31.7367396 46.0934974,31.8570846 46.0078179,31.9810971 L46.827109,33.19976 C46.9824098,32.9725171 47.142993,32.7884681 47.3090698,32.6472053 C47.4749353,32.5062142 47.6704876,32.435447 47.8954096,32.435447 C48.0934974,32.435447 48.2460515,32.4941254 48.353283,32.6110746 C48.4603032,32.7282956 48.5139718,32.8831413 48.5139718,33.0757476 C48.5139718,33.1721866 48.4925255,33.2565368 48.4497385,33.3287981 C48.4068459,33.4010595 48.3359569,33.4820139 48.2368602,33.5715256 C48.1377635,33.6611731 48.0039089,33.7644036 47.8352966,33.8813529 C47.6665786,33.9985738 47.4564471,34.1464922 47.2047964,34.3255156 C46.9690983,34.4977475 46.7736517,34.6732393 46.6184565,34.8521269 C46.46305,35.0311503 46.3399715,35.2256582 46.2489039,35.4355149 C46.1578364,35.6456433 46.0936031,35.8779118 46.0562041,36.1325923 C46.0186995,36.3872728 46,36.6764539 46,37 L50,37 L50,35.5129378 L47.8152237,35.5129378 Z" id="Shape"></path>
        </g>
    </g>
</svg>