<?xml version="1.0" encoding="UTF-8"?>
<svg width="22px" height="22px" viewBox="0 0 22 22" version="1.1" xmlns="http://www.w3.org/2000/svg" xmlns:xlink="http://www.w3.org/1999/xlink">
    <!-- Generator: Sketch 63.1 (92452) - https://sketch.com -->
    <title>failed</title>
    <desc>Created with Sketch.</desc>
    <g id="Page-1" stroke="none" stroke-width="1" fill="none" fill-rule="evenodd">
        <g id="BIM_Integration_UI_05" transform="translate(-1321.000000, -577.000000)">
            <g id="box-1-copy-2" transform="translate(442.000000, 503.000000)">
                <g id="tabular-column-copy" transform="translate(1.000000, 0.000000)">
                    <g id="ro-1" transform="translate(40.000000, 74.000000)">
                        <g id="failed" transform="translate(838.000000, 0.000000)">
                            <path d="M11,0 C4.9,0 0,4.9 0,11 C0,17.1 4.9,22 11,22 C17.1,22 22,17.1 22,11 C22,4.9 17.1,0 11,0 Z" id="Shape" fill="#EC7C7C" fill-rule="nonzero"></path>
                            <g id="Group-2" transform="translate(9.000000, 5.000000)" fill="#FFFFFF">
                                <path d="M3.52621019,2.14110741 L2.71884548,8.00451063 C2.67304128,8.33715892 2.38876812,8.58497119 2.05298112,8.58497119 C1.71650366,8.58497119 1.43096363,8.33813411 1.38229809,8.00519455 L0.524850781,2.13906941 C0.404284899,1.31423208 0.975209717,0.547831339 1.80004705,0.427265456 C1.87233503,0.416699174 1.94529477,0.411395119 2.0183509,0.411395119 C2.85897619,0.411395119 3.54043763,1.09285656 3.54043763,1.93348185 C3.54043763,2.00293391 3.53568404,2.07230454 3.52621019,2.14110741 Z" id="Path" fill-rule="nonzero"></path>
                                <path d="M2.06912495,12.1778051 C2.66368987,12.1778051 3.14567997,11.695815 3.14567997,11.1012501 C3.14567997,10.5066852 2.66368987,10.0246951 2.06912495,10.0246951 C1.47456003,10.0246951 0.992569923,10.5066852 0.992569923,11.1012501 C0.992569923,11.695815 1.47456003,12.1778051 2.06912495,12.1778051 Z" id="Oval"></path>
                            </g>
                        </g>
                    </g>
                </g>
            </g>
        </g>
    </g>
</svg>