<svg viewBox="0 0 11 18" xmlns="http://www.w3.org/2000/svg">
  <g fill="none" fill-rule="evenodd">
    <path d="M5.5.7A5.5 5.5 0 001.7 10c.5.6 1 1.2 1.2 2v1.1c0 .4.4.7.8.7h3.6c.4 0 .7-.3.7-.7v-.4-.7a6 6 0 011.4-2l.4-.6A5.5 5.5 0 005.5.6zm3.2 8l-.4.4a7 7 0 00-1.6 2.6v.8H4.3l-.1-.8c-.3-1-1-1.9-1.6-2.5l-.4-.5a4.1 4.1 0 116.4 0z" fill="#606266" fill-rule="nonzero"/>
    <path d="M5.5 5v2.5" stroke="#606266" stroke-width="2" stroke-linecap="round"/>
    <path d="M7.3 14H3.7a.7.7 0 000 1.5h3.6a.7.7 0 100-1.4zM6.4 15.7H4.6a.7.7 0 000 1.4h1.8a.7.7 0 000-1.4z" fill="#606266" fill-rule="nonzero"/>
  </g>
</svg>
