<svg xmlns="http://www.w3.org/2000/svg" width="21" height="20" viewBox="0 0 21 20">
    <path fill="#606266" fill-rule="evenodd" d="M15.53 7.267c-.86 0-1.56-.7-1.56-1.57 0-.861.7-1.571 1.56-1.571.87 0 1.57.71 1.57 1.57 0 .87-.7 1.57-1.57 1.57m-4.896-1.802c-.871 0-1.57-.7-1.57-1.57 0-.87.699-1.57 1.57-1.57.87 0 1.569.7 1.569 1.57 0 .87-.7 1.57-1.57 1.57M6.038 7.267c-.87 0-1.57-.7-1.57-1.57 0-.861.7-1.571 1.57-1.571.86 0 1.56.71 1.56 1.57 0 .87-.7 1.57-1.56 1.57m-2.042 4.532a1.564 1.564 0 1 1 0-3.13 1.565 1.565 0 0 1 0 3.13M12.21.095C6.88-.675 1 3.295.53 9.075c-.47 5.75 4.66 10.33 8.95 10.64 3.29.24 6.23-1.99 6.18-2.57-.13-1.72-3.02-.02-4.18-1.44-.49-.59-.45-1.31-.08-2.02 1.11-2.18 7.5.79 8.87-1.42 1.49-2.4-.14-11.02-8.06-12.17"/>
</svg>
