<svg xmlns="http://www.w3.org/2000/svg" viewBox="0 0 512 512">
  <path d="M418.133 256c0 89.543-72.59 162.133-162.133 162.133S93.867 345.543 93.867 256 166.457 93.867 256 93.867 418.133 166.457 418.133 256zm0 0" fill="#ebba16"/>
  <g fill="#ed8a19">
    <path d="M256 512c-4.71 0-8.535-3.824-8.535-8.535v-51.2c0-4.71 3.824-8.53 8.535-8.53s8.535 3.82 8.535 8.53v51.2c0 4.71-3.824 8.535-8.535 8.535zm0 0M256 68.266c-4.71 0-8.535-3.82-8.535-8.532V8.535C247.465 3.825 251.289 0 256 0s8.535 3.824 8.535 8.535v51.2c0 4.71-3.824 8.53-8.535 8.53zm0 0M59.734 264.535H8.535C3.825 264.535 0 260.711 0 256s3.824-8.535 8.535-8.535h51.2c4.71 0 8.53 3.824 8.53 8.535s-3.82 8.535-8.53 8.535zm0 0M503.465 264.535h-51.2c-4.71 0-8.53-3.824-8.53-8.535s3.82-8.535 8.53-8.535h51.2c4.71 0 8.535 3.824 8.535 8.535s-3.824 8.535-8.535 8.535zm0 0"/>
  </g>
  <path d="M324.266 247.465h-51.2l25.602-110.93-110.934 128h51.2l-25.602 110.93zm0 0" fill="#dc691d"/>
  <path d="M430.984 439.52a8.523 8.523 0 01-6.03-2.5l-36.2-36.2a8.525 8.525 0 010-12.066 8.525 8.525 0 0112.066 0l36.2 36.2a8.525 8.525 0 010 12.066 8.532 8.532 0 01-6.036 2.5zm0 0M117.223 125.746a8.516 8.516 0 01-6.035-2.5l-36.208-36.2a8.525 8.525 0 010-12.066c3.329-3.335 8.73-3.335 12.067 0l36.207 36.2a8.518 8.518 0 010 12.066 8.488 8.488 0 01-6.031 2.5zm0 0M81.016 439.52a8.532 8.532 0 01-6.036-2.5 8.525 8.525 0 010-12.067l36.207-36.2c3.34-3.335 8.739-3.335 12.067 0a8.518 8.518 0 010 12.067l-36.207 36.2a8.523 8.523 0 01-6.031 2.5zm0 0M394.785 125.746a8.507 8.507 0 01-6.031-2.5 8.525 8.525 0 010-12.066l36.2-36.2a8.525 8.525 0 0112.066 0 8.525 8.525 0 010 12.067l-36.2 36.2a8.496 8.496 0 01-6.035 2.5zm0 0" fill="#ed8a19"/>
</svg>
