<svg xmlns="http://www.w3.org/2000/svg" viewBox="0 0 512 512">
  <path fill="#606266" d="M256 426.668c-94.105 0-170.668-76.563-170.668-170.668S161.895 85.332 256 85.332 426.668 161.895 426.668 256 350.105 426.668 256 426.668zm0-324.27c-84.691 0-153.602 68.91-153.602 153.602S171.308 409.602 256 409.602 409.602 340.692 409.602 256 340.692 102.398 256 102.398zm0 0M256 512c-4.71 0-8.535-3.824-8.535-8.535v-51.2c0-4.71 3.824-8.53 8.535-8.53s8.535 3.82 8.535 8.53v51.2c0 4.71-3.824 8.535-8.535 8.535zm0 0M256 68.266c-4.71 0-8.535-3.82-8.535-8.532V8.535C247.465 3.825 251.289 0 256 0s8.535 3.824 8.535 8.535v51.2c0 4.71-3.824 8.53-8.535 8.53zm0 0M59.734 264.535H8.535C3.825 264.535 0 260.711 0 256s3.824-8.535 8.535-8.535h51.2c4.71 0 8.53 3.824 8.53 8.535s-3.82 8.535-8.53 8.535zm0 0M503.465 264.535h-51.2c-4.71 0-8.53-3.824-8.53-8.535s3.82-8.535 8.53-8.535h51.2c4.71 0 8.535 3.824 8.535 8.535s-3.824 8.535-8.535 8.535zm0 0"/>
  <path fill="#606266" d="M213.332 384a8.491 8.491 0 01-3.863-.922 8.541 8.541 0 01-4.446-9.531l23.184-100.48h-40.473a8.543 8.543 0 01-7.765-4.985 8.514 8.514 0 011.312-9.129l110.934-128a8.533 8.533 0 0110.316-2.023 8.519 8.519 0 014.446 9.53l-23.184 100.474h40.473a8.543 8.543 0 017.765 4.984 8.514 8.514 0 01-1.312 9.129l-110.934 128a8.503 8.503 0 01-6.453 2.953zm-6.91-128h32.512a8.521 8.521 0 016.671 3.219 8.544 8.544 0 011.641 7.234l-17.879 77.485L305.578 256h-32.512a8.548 8.548 0 01-6.68-3.219 8.57 8.57 0 01-1.64-7.234l17.887-77.484zm0 0M430.984 439.52a8.523 8.523 0 01-6.03-2.5l-36.2-36.2a8.525 8.525 0 010-12.066 8.525 8.525 0 0112.066 0l36.2 36.2a8.525 8.525 0 010 12.066 8.532 8.532 0 01-6.036 2.5zm0 0M117.223 125.746a8.516 8.516 0 01-6.035-2.5l-36.208-36.2a8.525 8.525 0 010-12.066c3.329-3.335 8.73-3.335 12.067 0l36.207 36.2a8.518 8.518 0 010 12.066 8.488 8.488 0 01-6.031 2.5zm0 0M81.016 439.52a8.532 8.532 0 01-6.036-2.5 8.525 8.525 0 010-12.067l36.207-36.2c3.34-3.335 8.739-3.335 12.067 0a8.518 8.518 0 010 12.067l-36.207 36.2a8.523 8.523 0 01-6.031 2.5zm0 0M394.785 125.746a8.507 8.507 0 01-6.031-2.5 8.525 8.525 0 010-12.066l36.2-36.2a8.525 8.525 0 0112.066 0 8.525 8.525 0 010 12.067l-36.2 36.2a8.496 8.496 0 01-6.035 2.5zm0 0"/>
</svg>
