<svg viewBox="0 0 20 20" xmlns="http://www.w3.org/2000/svg" fill="#333">
  <g fill-rule="nonzero" fill="#606266">
    <path d="M10 1.1A8.9 8.9 0 1110 19 8.9 8.9 0 0110 1zM10 0a10 10 0 100 20 10 10 0 000-20z"/>
    <path d="M16.4 10.8L12 9.5V9l.5-.2c1.7-.6 2.7-1.4 2.9-2.1.2-.5 0-1-.5-1.5l-1.2-1c-.2-.1-.3 0-.4 0L10.7 8a1.6 1.6 0 00-.3 0c0-1.4-.2-3-.9-3.8-.3-.3-.6-.5-1-.5a2 2 0 00-.8.2l-1.2.8-.2.1a.3.3 0 000 .4L9 9v.2c-1-.3-2-.6-3-.6-.7 0-1.3.2-1.6.6-.3.3-.4.7-.3 1.3 0 .5.4 1.5.4 1.5a.3.3 0 00.4.2l4.5-1.5.2.2-.5.7C8.1 13 7.7 14.2 8 15c.2.5.6.8 1.3 1h1.6l.3-.3V11l.2-.2.4.6c1.1 1.4 2.1 2.1 2.9 2.1.4 0 1-.2 1.3-1 .3-.4.6-1.4.6-1.4 0-.2 0-.3-.2-.4zm-5.9-.4a.8.8 0 110-1.6.8.8 0 010 1.6z"/>
  </g>
</svg>
