<svg xmlns="http://www.w3.org/2000/svg" 
  xmlns:xlink="http://www.w3.org/1999/xlink" width="62px" height="80px" viewBox="0 0 62 80" version="1.1">
  <title>Group 2 Copy</title>
  <desc>Created with Sketch.</desc>
  <g id="Page-1" stroke="none" stroke-width="1" fill="none" fill-rule="evenodd">
    <g id="Group-2-Copy" transform="translate(0.200000, 0.200000)">
      <g id="Group">
        <path d="M30.7526226,55.4684967 C17.1645388,55.4684967 6.14942237,44.4533803 6.14942237,30.8652965 C6.14942237,17.2772127 17.1645388,6.2684967 30.7526226,6.2684967 C44.3407064,6.2684967 55.3558228,17.2772127 55.3558228,30.8652965 C55.3558228,44.4533803 44.3407064,55.4684967 30.7526226,55.4684967" id="Path" fill="#FFFFFF"/>
        <path d="M30.7526226,53.0684967 C18.4902055,53.0684967 8.54973459,43.1280258 8.54973459,30.8656087 C8.54973459,18.6031916 18.4902055,8.6684967 30.7526226,8.6684967 C43.0150396,8.6684967 52.9555106,18.6031916 52.9555106,30.8656087 C52.9555106,43.1280258 43.0150396,53.0684967 30.7526226,53.0684967 M30.7526226,0 C13.7687878,0 -2.84217094e-14,13.7687878 -2.84217094e-14,30.7526226 C-2.84217094e-14,54.2033366 24.8890244,79.6 30.8519433,79.6 C36.8148621,79.6 61.5052452,54.2033366 61.5052452,30.7526226 C61.5052452,13.7687878 47.7364573,0 30.7526226,0" id="Fill-1" fill="#FF5E5E"/>
        <path d="M30.7526226,53.0684967 C18.4902055,53.0684967 8.54973459,43.1280258 8.54973459,30.8656087 C8.54973459,18.6031916 18.4902055,8.6684967 30.7526226,8.6684967 C43.0150396,8.6684967 52.9555106,18.6031916 52.9555106,30.8656087 C52.9555106,43.1280258 43.0150396,53.0684967 30.7526226,53.0684967" id="Path" fill="#FFFFFF"/>
        <path d="M29.724641,2.1193783 C38.1787772,2.1193783 45.7455395,5.9161022 50.8109907,11.8980598 C45.9002953,7.41174931 39.3624732,4.67517793 32.1850571,4.67517793 C16.9337201,4.67517793 4.5702952,17.031419 4.5702952,32.282756 C4.5702952,39.0818397 7.0274003,45.3069802 11.1020923,50.1186593 C5.57644711,45.068923 2.10987904,37.802809 2.10987904,29.7269564 C2.10987904,14.4756193 14.4733039,2.1193783 29.724641,2.1193783 Z" id="Combined-Shape" fill="#FF5E5E"/>
        <path d="M35.8098164,15.4051386 C42.2018576,15.4051386 47.922767,18.2766474 51.7515365,22.8005079 C48.0397747,19.4068702 43.0965477,17.3369571 37.6695387,17.3369571 C26.1417121,17.3369571 16.7967335,26.6765057 16.7967335,38.2043323 C16.7967335,43.3410644 18.6522178,48.044383 21.7295199,51.6806217 C17.5551836,47.8645317 14.9370113,42.3743058 14.9370113,36.2725138 C14.9370113,24.7446872 24.2819898,15.4051386 35.8098164,15.4051386 Z" id="Combined-Shape" fill="#F1F3F4" transform="translate(33.344274, 33.542880) rotate(-180.000000) translate(-33.344274, -33.542880) "/>
      </g>
      <text id="75" font-family="ProximaNova-Semibold, Proxima Nova" font-size="25" font-weight="500" fill="#000" style="font-family: sans-serif;font-weight: 700;">
        <tspan x="25" y="40">0</tspan>
      </text>
    </g>
  </g>
</svg>