<svg xmlns="http://www.w3.org/2000/svg" viewBox="0 0 64 64">
  <path d="M61 48h-3v-1a1 1 0 00-1-1h-4a1 1 0 00-1 1v1h-7a1 1 0 00-1 1h-6v-2a1 1 0 00-1-1h-1v-2.424a20 20 0 10-8 0V46h-1a1 1 0 00-1 1v2h-6a1 1 0 00-1-1h-7v-1a1 1 0 00-1-1H7a1 1 0 00-1 1v1H3a1 1 0 00-1 1v8a1 1 0 001 1h3v1a1 1 0 001 1h4a1 1 0 001-1v-1h7a1 1 0 001-1h6v2a1 1 0 001 1h10a1 1 0 001-1v-2h6a1 1 0 001 1h7v1a1 1 0 001 1h4a1 1 0 001-1v-1h3a1 1 0 001-1v-8a1 1 0 00-1-1zM6 56H4v-6h2zm4 2H8V48h2zm8-2h-6v-6h6zm-4-32a18 18 0 1120.843 17.753 1 1 0 00-.843.987V46h-4v-3.26a1 1 0 00-.843-.987A17.9 17.9 0 0114 24zm30 31h-7a1 1 0 00-1 1v2h-8v-2a1 1 0 00-1-1h-7v-4h7a1 1 0 001-1v-2h8v2a1 1 0 001 1h7zm8 1h-6v-6h6zm4 2h-2V48h2zm4-2h-2v-6h2z"/>
  <path fill="#ed8a19" d="M48 24a16 16 0 10-16 16 16.019 16.019 0 0016-16zm-24.707 7.293l-1.861 1.861a14.059 14.059 0 01-1.609-2.271L22.6 28.8l-1.2-1.6-2.448 1.836a13.864 13.864 0 01-.9-4.036H21v-2h-2.949a13.825 13.825 0 01.706-3.5l2.8 1.4.894-1.79-2.909-1.454a14.067 14.067 0 011.894-2.8l1.861 1.861 1.414-1.414-1.861-1.861a13.942 13.942 0 012.435-1.708l1.887 2.831 1.664-1.11-1.7-2.553A13.827 13.827 0 0131 10.051V13h2v-2.949a13.827 13.827 0 013.87.841l-1.7 2.553 1.664 1.11 1.887-2.831a13.942 13.942 0 012.435 1.708l-1.861 1.861 1.414 1.414 1.861-1.861a14.067 14.067 0 011.894 2.805l-2.909 1.454.894 1.79 2.8-1.4a13.825 13.825 0 01.706 3.5H43v2h2.949a13.9 13.9 0 01-1.132 4.613L41.6 27.2l-1.2 1.6 3.464 2.6a14.109 14.109 0 01-1.772 2.28l-2.385-2.385-1.414 1.414 2.313 2.313a13.921 13.921 0 01-17.76-.452l1.861-1.861zM14 52h2v2h-2zM29 52h2v2h-2zM33 52h2v2h-2zM48 52h2v2h-2z"/>
  <path fill="#ed8a19" d="M29 31h2v2h-2zM33 31h2v2h-2zM26 31a1 1 0 00.707-.293l4-4 .006-.009A2.957 2.957 0 0032 27a3 3 0 003-3 2.957 2.957 0 00-.3-1.287l.009-.006 4-4a1 1 0 00-1.414-1.414l-4 4-.006.009A2.957 2.957 0 0032 21a3 3 0 00-3 3 2.957 2.957 0 00.3 1.287l-.009.006-4 4A1 1 0 0026 31zm6-8a1 1 0 11-1 1 1 1 0 011-1z"/>
</svg>
