<svg viewBox="0 0 12 21" xmlns="http://www.w3.org/2000/svg">
  <path d="M12 2.7v.9H8.5v-1H12zm-1.5 2h-2v.8h2v-.9zm-2 2.7H12v-.9H8.5v1zm2 1h-2v1h2v-1zm-2 3H12v-1H8.5v1zm.6 5a4.5 4.5 0 11-6.8-3.9V2.3a2.3 2.3 0 014.5 0v10.2c1.4.8 2.3 2.3 2.3 4zm-1 0c0-1.4-.7-2.6-1.9-3.2L6 13V2.3a1.4 1.4 0 00-2.8 0V13h-.3c-1.2.7-2 2-2 3.3a3.6 3.6 0 007.3 0zm-.7 0a2.9 2.9 0 11-3.6-2.8H4V8H5v5.5h.2c1.3.4 2.1 1.5 2.1 2.8zm-2.7-2c0-.2-.4-.4-.7-.3-1 .2-1.8 1.2-1.8 2.3a.6.6 0 001.1 0c0-.6.4-1.1 1-1.2.3-.1.5-.4.4-.7z" fill="#606266" fill-rule="nonzero"/>
</svg>
