<svg viewBox="0 0 22 22" xmlns="http://www.w3.org/2000/svg">
  <g transform="translate(1 1)" fill="none" fill-rule="evenodd">
    <circle stroke="#606266" stroke-width="1.3" cx="10" cy="10" r="10"/>
    <path d="M19.3 9.1h-4.8l-1-1.7a.7.7 0 00-.7-.3c-.2 0-.5.2-.5.4l-.5 2.4-.4 2.3-.3-2.2-.8-5c0-.3-.3-.5-.6-.5-.2 0-.5.1-.6.4L7 10l-.5 1.6-.3-1.6L6 8c0-.3-.3-.5-.5-.5-.3 0-.6.1-.7.3l-1 2h-3c-.4 0-.7.3-.7.6s.3.6.6.6H4c.3 0 .5-.2.6-.4l.2-.3.2-.4v.4l.8 4c0 .2.3.4.6.4s.5-.2.6-.4l1.5-4.1 1-2.5.3 2.4.9 6c0 .3.3.5.6.5s.6-.1.7-.4L13 9.9l.1-.6.3.6.6.3h5.2c.4 0 .7-.3.7-.6s-.3-.5-.7-.5z" fill="#606266"/>
  </g>
</svg>
