<svg width="24" height="24" viewBox="0 0 24 24" xmlns="http://www.w3.org/2000/svg">
    <g fill="none" fill-rule="evenodd">
        <path d="M0 0h24v24H0z"/>
        <path d="M20.434 5.564 18.4 3.53a2.266 2.266 0 0 0-3.201 0L4.169 14.56l-.01.01a.439.439 0 0 0-.125.215l-1.09 4.636c-.11.45.025.925.355 1.25l.007.008a1.32 1.32 0 0 0 1.23.342l4.625-1.088a.479.479 0 0 0 .229-.125L20.424 8.774a2.266 2.266 0 0 0 0-3.203l.01-.007zm-2.119 1.601-1 1-1.511-1.519 1-1 1.511 1.519zM5.991 17.973l.466-1.982L13.945 8.5l1.515 1.516-7.488 7.485-1.98.471z" fill="#334056" fill-rule="nonzero"/>
    </g>
</svg>
