<svg width="24" height="24" viewBox="0 0 24 24" xmlns="http://www.w3.org/2000/svg" xmlns:xlink="http://www.w3.org/1999/xlink">
    <defs>
        <path d="M13 3a9 9 0 0 0-9 9H1l3.89 3.89.07.14L9 12H6c0-3.87 3.13-7 7-7s7 3.13 7 7-3.13 7-7 7c-1.93 0-3.68-.79-4.94-2.06l-1.42 1.42A8.954 8.954 0 0 0 13 21a9 9 0 0 0 0-18zm-1 5v5l4.28 2.54.72-1.21-3.5-2.08V8H12z" id="mqe60penza"/>
    </defs>
    <g fill="none" fill-rule="evenodd">
        <mask id="j6b7p8lsjb" fill="#fff">
            <use xlink:href="#mqe60penza"/>
        </mask>
        <g mask="url(#j6b7p8lsjb)" fill="#000">
            <path d="M-13-13h50v50h-50z"/>
        </g>
    </g>
</svg>
