<?xml version="1.0" encoding="UTF-8"?>
<svg id="Layer_1" data-name="Layer 1" xmlns="http://www.w3.org/2000/svg" viewBox="0 0 383.71 251.88">
  <defs>
    <style>
      .cls-1 {
        fill: #fff;
      }

      .cls-2 {
        fill: #a8d9ff;
      }

      .cls-3 {
        fill: #d3ecff;
      }

      .cls-4 {
        fill: #3da9ff;
      }
    </style>
  </defs>
  <g>
    <path class="cls-3" d="m190.57,121.25c33.61-10.53,48.93-23.93,55.87-33.31,4.8-6.49,6.3-11.85,6.77-14.87-18.84-8.42-39.71-13.11-61.68-13.11s-42.37,4.59-61.04,12.83c.97,6.31,6.75,24.55,40.67,40.12,2.16.99,3.11,3.55,2.12,5.71-.73,1.58-2.29,2.51-3.92,2.51-.6,0-1.21-.13-1.8-.39-33.97-15.6-42.86-34.28-45.13-44.12-48.82,25.1-82.22,75.98-82.22,134.65,0,7,.5,13.89,1.42,20.64h54.94v-13.52c0-3.81,3.09-6.9,6.9-6.9h18.22v-30.83c-.16-3.36-.02-37.83,68.88-59.42Z"/>
    <path class="cls-3" d="m261.21,76.94c-2.85,11.87-15.26,35.99-68.07,52.53-33.61,10.53-48.93,23.93-55.87,33.31-7.29,9.87-6.99,17.17-6.98,17.48v.28s0,30.95,0,30.95h123.1v-31.29c.02-.18.75-22.91-39.79-41.91-2.16-1.01-3.08-3.58-2.07-5.73,1.01-2.16,3.57-3.09,5.73-2.07,44.77,20.98,44.88,47.28,44.75,50.16v30.84h17.57c3.81,0,6.9,3.09,6.9,6.9v13.52h54.94c.92-6.75,1.42-13.63,1.42-20.64,0-58.44-33.13-109.13-81.63-134.34Zm-29.63,89.51c5.36,5.55,11.76,14.46,11.76,25.44v4.12c0,5.22-4.25,9.47-9.47,9.47h-84.68c-5.22,0-9.47-4.25-9.47-9.47v-4.12c0-10.98,6.39-19.89,11.76-25.44,6.14-6.35,14.22-11.53,21.14-13.55,5.95-2.17,9.79-5.38,11.97-7.69,1.8-1.91,4.33-3.01,6.94-3.01s5.14,1.1,6.95,3.01c2.18,2.31,6.02,5.51,11.97,7.69,6.91,2.02,15,7.2,21.14,13.55Z"/>
  </g>
  <path class="cls-1" d="m207.92,161.15l-.28-.09c-6.03-2.18-11.37-5.61-15.44-9.93-.24-.25-.5-.31-.68-.31s-.44.05-.67.3h0c-4.07,4.32-9.41,7.75-15.44,9.93l-.28.09c-16.36,4.68-26.8,21.34-26.8,30.75v4.12c0,.47.38.85.85.85h84.68c.47,0,.86-.38.86-.85v-4.12c0-9.41-10.44-26.06-26.8-30.75Z"/>
  <path class="cls-2" d="m231.59,166.45c-6.14-6.35-14.22-11.53-21.14-13.55-5.95-2.17-9.79-5.38-11.97-7.69-1.8-1.91-4.34-3.01-6.95-3.01s-5.14,1.1-6.94,3.01c-2.18,2.31-6.02,5.51-11.97,7.69-6.91,2.02-15,7.2-21.14,13.55-5.36,5.55-11.76,14.46-11.76,25.44v4.12c0,5.22,4.25,9.47,9.47,9.47h84.68c5.22,0,9.47-4.25,9.47-9.47v-4.12c0-10.98-6.39-19.89-11.76-25.44Zm3.14,29.56c0,.47-.38.85-.86.85h-84.68c-.47,0-.85-.38-.85-.85v-4.12c0-9.41,10.44-26.06,26.8-30.75l.28-.09c6.03-2.18,11.37-5.61,15.44-9.93h0c.24-.25.5-.31.67-.31s.44.05.68.31c4.07,4.32,9.41,7.75,15.44,9.93l.28.09c16.36,4.68,26.8,21.34,26.8,30.75v4.12Z"/>
  <path class="cls-4" d="m366.32,231.92h-79.83v-13.52c0-3.81-3.09-6.9-6.9-6.9h-17.57v-30.84c.13-2.88.02-29.18-44.75-50.16-2.16-1.01-4.72-.08-5.73,2.07-1.01,2.15-.08,4.72,2.07,5.73,40.54,19,39.81,41.73,39.8,41.91v31.29h-123.11v-31.24c-.03-.31-.33-7.61,6.97-17.48,6.94-9.39,22.26-22.78,55.87-33.31,52.81-16.54,65.22-40.66,68.07-52.53.87-3.62.85-6.1.81-6.88v-30.62h17.57c3.81,0,6.9-3.09,6.9-6.9v-14.31c0-3.81-3.09-6.9-6.9-6.9H103.47c-3.81,0-6.9,3.09-6.9,6.9v14.31c0,3.81,3.09,6.9,6.9,6.9h18.22v30.62c-.03.75-.05,3.12.75,6.57,2.27,9.83,11.16,28.52,45.13,44.12.58.27,1.19.39,1.8.39,1.63,0,3.19-.93,3.92-2.51.99-2.16.04-4.72-2.12-5.71-33.92-15.57-39.7-33.81-40.67-40.12-.22-1.43-.19-2.25-.19-2.28v-31.07h123.11v31.02c.02.1.05,1.05-.2,2.61-.47,3.01-1.97,8.38-6.77,14.87-6.94,9.39-22.26,22.78-55.87,33.31-68.9,21.58-69.04,56.06-68.88,59.42v30.83h-18.22c-3.81,0-6.9,3.09-6.9,6.9v13.52H17.39c-2.38,0-4.31,1.93-4.31,4.31s1.93,4.31,4.31,4.31h348.93c2.38,0,4.31-1.93,4.31-4.31s-1.93-4.31-4.31-4.31Z"/>
</svg>