<?xml version="1.0" encoding="UTF-8"?>
<svg id="Layer_1" data-name="Layer 1" xmlns="http://www.w3.org/2000/svg" viewBox="0 0 426.08 408.43">
  <defs>
    <style>
      .cls-1 {
        fill: #fff;
      }

      .cls-2 {
        fill: #eff8ff;
      }

      .cls-3 {
        fill: #a8d9ff;
      }

      .cls-4 {
        fill: #d3ecff;
      }

      .cls-5 {
        fill: #3da9ff;
      }
    </style>
  </defs>
  <path class="cls-4" d="m144.02,154.29c11.07-9.78,17.67-25.33,24.06-40.38,8.96-21.12,17.39-41.09,37.48-38.64,5.16.62,9.38,3.35,12.19,7.87,10.46,16.8.07,57.54-4.63,73.5,19.11-3.1,63.59-5.93,76.59.57,11.05,5.53,20.25,26.25,17.27,38.89-.68,2.9-1.97,5.25-3.77,6.99,2.64,2.55,4.86,5.83,6.39,8.85,4.8,9.49,5.06,19.35.86,26.98,2.94,5.28,4.3,15.04,3.15,24.63-1.84,15.29-9.47,26.79-21.48,32.38-16.51,7.68-41.77,15.22-75.09,22.4l-1.08.23c-4.17.9-17.59,10.35-30.41,20.09,4.59,14.59,6.69,24.4,6.82,25.04l.46,2.18-.08.07c9.62,1.64,19.5,2.5,29.59,2.5,96.75,0,175.18-78.43,175.18-175.18,0-50.3-21.21-95.64-55.16-127.59l-10.83,10.55c-.84.82-1.22,2-1.03,3.15l3.3,19.28c.75,4.35-1.01,8.66-4.58,11.25-3.57,2.59-8.21,2.93-12.12.88l-17.31-9.1c-1.04-.55-2.28-.55-3.32,0l-17.31,9.1c-1.7.89-3.54,1.33-5.36,1.33-2.38,0-4.74-.74-6.75-2.21-3.57-2.59-5.32-6.91-4.58-11.25l3.31-19.28c.2-1.16-.18-2.34-1.03-3.16l-14.01-13.65c-3.16-3.08-4.28-7.6-2.91-11.79,1.36-4.2,4.92-7.2,9.29-7.83l19.35-2.81c1.16-.17,2.17-.9,2.69-1.95l4.47-9.06c-19.08-7.13-39.74-11.04-61.31-11.04-96.75,0-175.18,78.43-175.18,175.18,0,20.92,3.68,40.99,10.4,59.59l46.18-31.93c3.52-11.81,15.01-44.34,40.26-66.64Z"/>
  <path class="cls-1" d="m103.05,231.08c1.65,10.56,5.14,22.91,9.65,35.46-4.87-15.04-7.98-28.23-9.54-35.53l-.11.07Z"/>
  <path class="cls-3" d="m102.75,229.1c.09.65.19,1.31.3,1.98l.11-.07c-.15-.69-.28-1.33-.4-1.91Z"/>
  <g>
    <path class="cls-1" d="m163.94,351.36c-6.37-6-13.8-13.98-21.98-24.53-.15-.19-.3-.4-.45-.59-12.97-16.99-22.41-39.93-28.81-59.7-4.51-12.55-8-24.9-9.65-35.46l-42.51,29.4-28.76,19.89c23.73,51.85,68,92.33,122.39,111.04l27.61-26.01c-1.19-.73-2.56-1.62-4.11-2.71-3.67-2.58-8.31-6.23-13.73-11.33Z"/>
    <path class="cls-1" d="m172.72,348.64c3.78,3.34,7.03,5.84,9.66,7.67-.9-3.39-2.09-7.61-3.58-12.46-2.11,1.64-4.15,3.25-6.08,4.78Z"/>
    <path class="cls-1" d="m303.13,242.17c-1.66-1.33-1.94-3.7-.67-5.42,5.94-8.06,1.55-18.28.06-21.22-3.17-6.28-7.19-8.99-8.54-8.99-2.19,0-3.97-1.78-3.97-3.97s1.78-3.97,3.97-3.97c2.99,0,4.57-1.29,5.29-4.32,2.13-9.01-5.33-26.09-13.09-29.97-11.58-5.8-62.57-2.33-76.28,1-.32.56-.77,1.06-1.36,1.43-.32.2-6.25,4.09-5.21,12.89,1.62,13.71,3.38,22.02,14.26,22.51,4.5.2,11.47.03,19-.29.1,0,.19-.02.29-.03.09,0,.18,0,.27,0,16.87-.74,36.22-2.24,36.51-2.26,2.18-.18,4.1,1.46,4.27,3.65.17,2.19-1.46,4.1-3.65,4.27-1.17.09-20.46,1.6-37.34,2.31-5.91.56-9.5,1.76-10.94,3.66-2.08,2.75-.87,9.06.65,17.06.48,2.49.99,5.17,1.47,8.06.08.48.31,1.12,1.38,1.82,3.45,2.25,10.81,2.69,19.45,2.13,1.73-.4,3.62-.69,5.68-.85.54-.04,1.05.04,1.53.19,10.18-1.17,21.09-3.32,29.13-5.35,2.12-.54,4.28.75,4.82,2.88.54,2.13-.75,4.28-2.88,4.82-3.02.76-20.64,5.08-36.96,6.18-2.87.75-4.89,1.94-5.99,3.57-3.02,4.5-.17,13.46,2.35,21.36l.35,1.09c.2.64.62,1.47,2.06,2.2,6.81,3.44,24.91-.57,34.72-3.91,2.07-.71,4.33.4,5.04,2.48.71,2.07-.4,4.33-2.48,5.04-2.17.74-17.01,5.64-29.43,5.64-4.32,0-8.34-.59-11.43-2.15-3.01-1.52-5.11-3.9-6.06-6.88l-.34-1.08c-2.95-9.27-6.26-19.72-1.89-27.34-4.9-.43-9.13-1.45-12.04-3.35-2.7-1.76-4.38-4.24-4.87-7.16-.33-1.95-.67-3.8-1-5.56-7.76,16.7-20.93,31.47-27.22,38.52-.85.95-1.72,1.93-2.17,2.47-.62,1.39-2.02,2.36-3.63,2.36-.05,0-.11,0-.16,0-1.54-.06-2.93-1.02-3.53-2.44-1.06-2.49.02-3.69,3.57-7.67,7.86-8.81,31.37-35.18,31.28-57.48-.06,0-.12,0-.18,0-18.4-.83-20.44-18.05-21.78-29.44-1.42-12.01,5.73-18.35,8.18-20.15,3.82-10.98,16.95-57.79,7.39-73.15-1.57-2.52-3.6-3.85-6.41-4.19-13.45-1.63-19.86,11.8-29.22,33.86-6.41,15.12-13.69,32.26-26.11,43.23-21.6,19.08-32.68,46.93-36.92,59.87-.51,1.57-.93,2.93-1.25,4.02-.32,1.08-.55,1.92-.68,2.44.04.33.09.68.14,1.01.09.42.18.87.29,1.35,1.61,7.46,5.04,21.92,10.45,38.12,6.2,18.56,15.01,39.39,26.7,54.6.08.1.15.2.23.3,6.86,8.86,13.14,15.79,18.62,21.2,2.35-1.88,5.62-4.47,9.37-7.37,1.09-.84,2.22-1.71,3.38-2.6,1.09-.83,2.21-1.68,3.34-2.53,11.87-8.94,25.69-18.62,31.35-19.85l1.08-.23c32.74-7.05,57.44-14.4,73.41-21.83,11.21-5.22,15.21-15.77,16.59-23.71,1.99-11.44-.71-21.33-2.25-22.86Z"/>
  </g>
  <path class="cls-3" d="m310.47,238.94c4.2-7.63,3.94-17.49-.86-26.98-1.53-3.03-3.75-6.3-6.39-8.85,1.8-1.74,3.09-4.09,3.77-6.99,2.99-12.65-6.21-33.37-17.27-38.89-13-6.5-57.48-3.67-76.59-.57,4.69-15.96,15.09-56.7,4.63-73.5-2.82-4.53-7.03-7.25-12.19-7.87-20.09-2.46-28.52,17.52-37.48,38.64-6.38,15.05-12.98,30.6-24.06,40.38-25.26,22.31-36.75,54.83-40.26,66.64,0,.01,0,.02-.01.04.42-.26.88-.46,1.4-.55,1-.19,1.97.04,2.77.53.76.47,1.36,1.19,1.67,2.07.07.19.13.39.17.59.02.09.28,1.52.8,3.97-.04-.34-.1-.68-.14-1.01.14-.52.37-1.36.68-2.44.32-1.09.74-2.44,1.25-4.02,4.24-12.94,15.32-40.8,36.92-59.87,12.42-10.97,19.69-28.11,26.11-43.23,9.36-22.05,15.77-35.48,29.22-33.86,2.8.34,4.84,1.67,6.41,4.19,9.56,15.36-3.56,62.17-7.39,73.15-2.45,1.8-9.6,8.14-8.18,20.15,1.35,11.39,3.38,28.61,21.78,29.44.06,0,.12,0,.18,0,.09,22.3-23.42,48.67-31.28,57.48-3.55,3.98-4.62,5.18-3.57,7.67.6,1.41,2,2.38,3.53,2.44.05,0,.11,0,.16,0,1.61,0,3-.96,3.63-2.36.45-.54,1.32-1.52,2.17-2.47,6.29-7.05,19.46-21.82,27.22-38.52.33,1.76.67,3.61,1,5.56.49,2.92,2.17,5.39,4.87,7.16,2.91,1.9,7.14,2.93,12.04,3.35-4.38,7.62-1.07,18.07,1.89,27.34l.34,1.08c.95,2.98,3.04,5.36,6.06,6.88,3.1,1.56,7.12,2.15,11.43,2.15,12.42,0,27.26-4.9,29.43-5.64,2.07-.71,3.18-2.96,2.48-5.04-.71-2.08-2.97-3.18-5.04-2.48-9.81,3.34-27.91,7.35-34.72,3.91-1.44-.73-1.86-1.56-2.06-2.2l-.35-1.09c-2.52-7.9-5.38-16.86-2.35-21.36,1.1-1.63,3.12-2.82,5.99-3.57,16.31-1.1,33.94-5.42,36.96-6.18,2.13-.54,3.41-2.7,2.88-4.82-.54-2.13-2.7-3.41-4.82-2.88-8.04,2.03-18.95,4.18-29.13,5.35-.48-.16-1-.23-1.53-.19-2.06.16-3.95.45-5.68.85-8.64.57-16,.13-19.45-2.13-1.07-.7-1.3-1.34-1.38-1.82-.48-2.89-1-5.57-1.47-8.06-1.53-8-2.74-14.31-.65-17.06,1.44-1.91,5.03-3.11,10.94-3.66,16.88-.72,36.17-2.22,37.34-2.31,2.19-.17,3.82-2.08,3.65-4.27-.17-2.19-2.09-3.82-4.27-3.65-.28.02-19.64,1.53-36.51,2.26-.09,0-.18-.01-.27,0-.1,0-.19.02-.29.03-7.52.32-14.5.48-19,.29-10.88-.49-12.64-8.81-14.26-22.51-1.04-8.79,4.89-12.69,5.21-12.89.59-.36,1.04-.86,1.36-1.43,13.71-3.34,64.7-6.8,76.28-1,7.75,3.88,15.22,20.96,13.09,29.97-.71,3.03-2.3,4.32-5.29,4.32-2.19,0-3.97,1.78-3.97,3.97s1.78,3.97,3.97,3.97c1.35,0,5.37,2.72,8.54,8.99,1.49,2.94,5.87,13.16-.06,21.22-1.26,1.72-.99,4.09.67,5.42,1.54,1.52,4.24,11.42,2.25,22.86-1.38,7.94-5.38,18.49-16.59,23.71-15.98,7.43-40.67,14.78-73.41,21.83l-1.08.23c-5.66,1.22-19.48,10.91-31.35,19.85-1.14.85-2.25,1.7-3.34,2.53-1.16.89-2.29,1.76-3.38,2.6-3.75,2.9-7.02,5.49-9.37,7.37.99.98,1.96,1.9,2.9,2.78,1.02.96,2.01,1.86,2.97,2.7,1.92-1.53,3.96-3.14,6.08-4.78,1.11-.87,2.25-1.74,3.39-2.62,1.11-.86,2.24-1.72,3.37-2.57,12.83-9.74,26.24-19.19,30.41-20.09l1.08-.23c33.31-7.18,58.58-14.71,75.09-22.4,12.01-5.59,19.64-17.09,21.48-32.38,1.15-9.59-.2-19.35-3.15-24.63Z"/>
  <path class="cls-5" d="m102.46,226.74s0-.05,0-.07l-.17.12c.12.62.28,1.41.47,2.32-.11-.8-.21-1.59-.3-2.36Z"/>
  <path class="cls-5" d="m148.23,321.97c-.08-.1-.15-.2-.23-.3,6.6,9.7,14.78,17.83,18.77,21.56.02-.02.05-.04.08-.06-5.48-5.4-11.76-12.34-18.62-21.2Z"/>
  <path class="cls-5" d="m110.57,227.59c.06.42.11.84.17,1.26.04.03.08.06.12.09-.1-.48-.2-.93-.29-1.35Z"/>
  <path class="cls-5" d="m192.38,363.7c-.14-.65-2.23-10.45-6.82-25.04-1.13.86-2.25,1.72-3.37,2.57-1.15.88-2.28,1.76-3.39,2.62,1.49,4.85,2.68,9.07,3.58,12.46-2.63-1.83-5.88-4.33-9.66-7.67-.96-.85-1.95-1.75-2.97-2.7-.94-.88-1.9-1.8-2.9-2.78-.02.02-.05.04-.08.06-4-3.73-12.18-11.87-18.77-21.56-11.69-15.21-20.5-36.04-26.7-54.6-5.41-16.2-8.84-30.66-10.45-38.12-.04-.03-.08-.06-.12-.09-.06-.43-.11-.84-.17-1.26-.52-2.46-.78-3.88-.8-3.97-.04-.21-.1-.4-.17-.59-.31-.88-.91-1.6-1.67-2.07-.8-.49-1.77-.71-2.77-.53-.51.09-.98.29-1.4.55,0-.01,0-.02.01-.04l-46.18,31.93-29.02,20.07c.51,1.25,1.04,2.5,1.58,3.73.54,1.24,1.08,2.47,1.64,3.69l28.76-19.89,42.62-29.47c-.1-.67-.31-1.26-.4-1.91-.19-.91-.35-1.69-.47-2.32l.17-.12s0,.05,0,.07c.09.77.19,1.56.3,2.36.12.58.25,1.22.4,1.91,1.56,7.3,4.67,20.49,9.54,35.53,6.4,19.76,15.84,42.71,28.81,59.7.15.2.3.4.45.59,8.18,10.55,15.61,18.53,21.98,24.53,5.41,5.1,10.05,8.75,13.73,11.33,1.55,1.09,2.92,1.98,4.11,2.71l-27.61,26.01c1.42.49,2.85.96,4.28,1.42,1.45.46,2.9.91,4.36,1.34l29.95-28.22.08-.07-.46-2.18Z"/>
  <path class="cls-2" d="m340.91,53.26c-.16-.49-.84-2.13-2.88-2.43l-17.32-2.52-2.04-.3c-3.75-.54-6.99-2.9-8.66-6.29l-.09-.19-8.57-17.35c-.88-1.79-2.53-1.99-3.2-1.99-.52,0-2.29.14-3.2,1.99l-3.91,7.91-4.75,9.62c-1.68,3.4-4.92,5.75-8.66,6.29l-19.35,2.81c-1.98.29-2.67,1.79-2.88,2.43-.16.49-.57,2.22.9,3.66l14.01,13.65c2.71,2.64,3.95,6.45,3.31,10.19l-3.31,19.28c-.34,1.97.88,3.1,1.42,3.49.42.31,1.93,1.23,3.76.27l17.31-9.1c1.67-.88,3.51-1.32,5.35-1.32s3.68.44,5.35,1.32l17.31,9.1c1.82.96,3.33.03,3.75-.27.42-.31,1.77-1.46,1.42-3.49l-3.3-19.28c-.64-3.73.59-7.54,3.31-10.18l10.46-10.19,3.55-3.46c1.43-1.4,1.11-3.02.9-3.65Z"/>
  <path class="cls-5" d="m348.46,50.8c-1.36-4.2-4.92-7.2-9.29-7.83l-19.35-2.81c-1.16-.17-2.16-.9-2.68-1.95l-8.66-17.54c-1.95-3.96-5.91-6.41-10.32-6.41h0c-4.41,0-8.36,2.46-10.32,6.41l-4.18,8.47-4.47,9.06c-.52,1.05-1.52,1.78-2.69,1.95l-19.35,2.81c-4.37.63-7.92,3.63-9.29,7.83-1.36,4.19-.25,8.72,2.91,11.79l14.01,13.65c.84.82,1.22,2,1.03,3.16l-3.31,19.28c-.75,4.35,1.01,8.66,4.58,11.25,2.02,1.47,4.38,2.21,6.75,2.21,1.83,0,3.67-.44,5.36-1.33l17.31-9.1c1.04-.55,2.28-.55,3.32,0l17.31,9.1c3.91,2.05,8.55,1.72,12.12-.88,3.57-2.59,5.32-6.91,4.58-11.25l-3.3-19.28c-.2-1.16.18-2.33,1.03-3.15l10.83-10.55,3.18-3.1c3.16-3.08,4.27-7.6,2.91-11.79Zm-22.46,19.76c-2.71,2.64-3.95,6.45-3.31,10.18l3.3,19.28c.35,2.03-1,3.18-1.42,3.49-.42.31-1.93,1.23-3.75.27l-17.31-9.1c-1.68-.88-3.52-1.32-5.35-1.32s-3.68.44-5.35,1.32l-17.31,9.1c-1.82.96-3.34.03-3.76-.27-.54-.39-1.76-1.52-1.42-3.49l3.31-19.28c.64-3.73-.59-7.54-3.31-10.19l-14.01-13.65c-1.47-1.44-1.06-3.16-.9-3.66.21-.63.9-2.14,2.88-2.43l19.35-2.81c3.75-.54,6.99-2.9,8.66-6.29l4.75-9.62,3.91-7.91c.91-1.85,2.68-1.99,3.2-1.99.67,0,2.31.19,3.2,1.99l8.57,17.35.09.19c1.68,3.4,4.91,5.75,8.66,6.29l2.04.3,17.32,2.52c2.04.3,2.72,1.93,2.88,2.43.2.63.53,2.26-.9,3.65l-3.55,3.46-10.46,10.19Z"/>
</svg>