<svg width="50" height="50" viewBox="0 0 50 50" xmlns="http://www.w3.org/2000/svg"><path d="M33.97 12.5a6.23 6.23 0 016.165 5.223L43.431 37.5h2.402A4.17 4.17 0 0150 41.667v4.166A4.17 4.17 0 0145.833 50H4.167A4.17 4.17 0 010 45.833v-4.166A4.17 4.17 0 014.167 37.5h2.402l3.297-19.777A6.228 6.228 0 0116.03 12.5zm11.863 29.167H4.165l.002 4.166h41.666v-4.166zM43.29 3.766a2.084 2.084 0 012.947 2.945l-2.947 2.946c-.408.408-.94.61-1.473.61a2.083 2.083 0 01-1.474-3.556zm-39.555-.03a2.085 2.085 0 012.947 0L9.628 6.68a2.083 2.083 0 01-2.947 2.946L3.734 6.681a2.083 2.083 0 010-2.946zM25 0c1.15 0 2.083.933 2.083 2.083V6.25a2.084 2.084 0 01-4.166 0V2.083C22.917.933 23.85 0 25 0z" fill="#FFF" fill-rule="nonzero"/></svg>
