<svg width="50" height="50" viewBox="0 0 50 50" xmlns="http://www.w3.org/2000/svg"><path d="M34.372 32.607c10.496 2.802 15.706 8.6 15.627 17.393H0v-.19c.63-10.044 6.012-15.671 16.143-16.883 6.209 3.403 12.285 3.297 18.229-.32zM21.725 11.003c1.944 0 3.176.392 5.397 1.541l.34.178.632.33c2.843 1.453 5.166 2.044 8.105 1.565-1.055 10.11-4.891 15.003-11.509 14.676-5.902-.292-9.592-4.25-11.07-11.874 1.607-4.356 4.275-6.416 8.105-6.416zM24.789 0c7.73 0 11.594 4.123 11.594 12.368-.015.253-.032.502-.05.749-2.625.549-4.526.078-7.048-1.21l-.333-.173-.742-.389c-2.507-1.29-4.069-1.78-6.485-1.78-4.003 0-6.668 1.78-8.51 5.217a45.958 45.958 0 01-.218-2.414C13.129 4.123 17.06 0 24.789 0z" fill="#FFF" fill-rule="evenodd"/></svg>
