<svg width="50" height="50" viewBox="0 0 50 50" xmlns="http://www.w3.org/2000/svg"><path d="M39.986 29.98l7.995 8.12a7.025 7.025 0 01-.02 9.878 6.84 6.84 0 01-9.745-.036L27.142 36.62l6.437-6.467a17.19 17.19 0 006.407-.172zM36.33 0c1.227 0 2.415.164 3.544.47l.42.122-7.542 7.652 1.954 6.83 7.008 1.388 7.37-7.345a13.36 13.36 0 01.706 4.299c0 7.41-6.026 13.416-13.46 13.416-1.526 0-2.993-.254-4.36-.72l-21.353 21.38a5.727 5.727 0 01-8.101.003 5.777 5.777 0 01-.21-7.95l.176-.187 21.145-21.494a13.355 13.355 0 01-.757-4.448C22.87 6.006 28.896 0 36.33 0zm-.981 37.061l-1.625 1.476 7.626 7.77 1.543-1.506-7.544-7.74zM7 40.998a2 2 0 100 4 2 2 0 000-4zm32.16-7.604l-1.626 1.475 7.627 7.77 1.542-1.506-7.544-7.74zM2.7.297l5.295 3.396 2.028 3.608 9.293 9.587-3.147 3.129-9.663-9.783-3.563-2.063L0 2.847 2.7.297z" fill="#FFF" fill-rule="evenodd"/></svg>
