<svg xmlns="http://www.w3.org/2000/svg" width="500" height="840" viewBox="0 0 500 840">
  <g fill="none" fill-rule="evenodd">
    <g transform="translate(32.129 220.789)">
      <polygon fill="#607A8E" points="161.748 0 466.86 0 309.204 150.538 .997 150.538" opacity=".6"/>
      <polygon fill="#3C576B" points="162.073 0 162.073 150.538 309.204 150.538 467.294 0"/>
    </g>
    <polygon fill="#8098AA" points="82.157 757.706 367.671 757.706 285.514 839.799 0 839.799"/>
    <polygon fill="#3C576B" points="15.361 761.219 42.47 761.219 42.47 824.444 27.114 839.799 15.361 824.444"/>
    <polygon fill="#3C576B" points="273.795 761.219 300.904 761.219 300.904 824.444 285.548 839.799 273.795 824.444"/>
    <polygon fill="#3C576B" points="340.562 694.48 367.671 694.48 367.671 757.706 352.315 773.061 340.562 757.706"/>
    <polygon fill="#BACCDA" points="82.157 694.48 367.671 694.48 285.514 776.573 0 776.573"/>
    <polygon fill="#6A889F" points="352.309 709.835 352.309 773.061 325.201 773.061 325.201 736.813"/>
    <rect width="284.137" height="323.154" x="83.333" y="371.326" fill="#8098AA" opacity=".3"/>
    <polygon fill="#99B3C6" points="32.14 371.326 83.333 371.326 83.333 694.497 32.144 745.106" opacity=".8"/>
    <rect width="27.108" height="63.226" y="776.573" fill="#6A889F"/>
    <rect width="27.108" height="63.226" x="258.434" y="776.573" fill="#6A889F"/>
    <polygon fill="#91ACBF" points="325.305 386.38 367.671 371.326 367.671 694.471 325.324 736.712" opacity=".7"/>
    <path fill="#415F76" d="M34.1285141,371.326165 L325.301205,371.326165 L325.301205,371.326165 L325.301205,494.767025 L32.1285141,494.767025 L32.1285141,373.326165 C32.1285141,372.221595 33.0239446,371.326165 34.1285141,371.326165 Z"/>
    <polygon fill="#BACCDA" points="33.133 371.326 325.301 371.326 325.301 386.38 32.129 386.38"/>
    <polygon fill="#A7BBCB" points="325.301 371.326 367.47 371.326 325.301 386.38"/>
    <polygon fill="#BACCDA" points="33.133 371.326 32.135 386.38 17.068 386.38"/>
    <polygon fill="#BACCDA" points="322.289 371.326 341.365 371.326 325.301 386.38 307.229 386.38"/>
    <polygon fill="#415F76" points="17.068 386.38 32.129 386.38 32.129 479.723 17.068 494.767" opacity=".7"/>
    <polygon fill="#6A889F" points="32.129 479.713 325.301 479.713 325.301 494.767 17.068 494.767"/>
    <polygon fill="#4D6B82" points="193.775 0 498.996 0 498.996 220.789 201.804 220.789 193.775 212.211" transform="matrix(1 0 0 -1 0 220.789)"/>
    <rect width="274.096" height="3.011" x="201.807" y="188.674" fill="#3C576B"/>
    <rect width="274.096" height="3.011" x="201.807" y="139.498" fill="#3C576B"/>
    <rect width="274.096" height="3.011" x="201.807" y="90.323" fill="#3C576B"/>
    <rect width="274.096" height="3.011" x="201.807" y="41.147" fill="#3C576B"/>
    <polygon fill="#7591A6" points="201.807 0 201.807 213.875 183.735 230.331 183.735 18.065"/>
    <polygon fill="#7591A6" points="498.996 0 498.996 220.795 499.422 220.789 498.996 221.195 475.904 243.193 475.904 18.065"/>
    <polygon fill="#385163" points="359.434 -139.562 359.434 157.627 341.369 157.627 341.369 -116.646" opacity=".7" transform="scale(-1 1) rotate(-90 0 359.434)"/>
    <polygon fill="#3D586B" points="201.803 -.004 201.803 18.068 183.739 18.068" transform="rotate(90 183.739 0)"/>
    <polygon fill="#243745" points="201.807 213.763 475.904 213.763 475.904 220.789 193.775 220.789" opacity=".5"/>
  </g>
</svg>
