<?xml version="1.0" encoding="UTF-8"?>
<svg width="69px" height="39px" viewBox="0 0 69 39" version="1.1" xmlns="http://www.w3.org/2000/svg" xmlns:xlink="http://www.w3.org/1999/xlink">
    <!-- Generator: Sketch 55.2 (78181) - https://sketchapp.com -->
    <title>Group 5</title>
    <desc>Created with Sketch.</desc>
    <g id="AHU-Illustration" stroke="none" stroke-width="1" fill="none" fill-rule="evenodd">
        <g id="Artboard" transform="translate(-968.000000, -467.000000)">
            <g id="Group-5" transform="translate(968.000000, 437.500000)">
                <g id="Group-3-Copy">
                    <g id="Rectangle" transform="translate(0.000000, 29.500000)">
                        <g id="Mask" transform="translate(0.000000, 0.685148)"></g>
                    </g>
                    <polygon id="Rectangle" points="0 0 68.3295934 0 68.3295934 94 0 94"></polygon>
                </g>
                <path d="M16.8407311,47.1605574 C16.2884464,47.1605574 15.8407311,46.7128421 15.8407311,46.1605574 C15.8407311,45.6082726 16.2884464,45.1605574 16.8407311,45.1605574 L59.7525344,45.1605574 C63.2939481,45.1605574 66.1647967,42.2896561 66.1647967,38.7482951 L66.1647967,38.5972131 C66.1647967,35.0558978 63.2939939,32.1851475 59.7525344,32.1851475 C56.2111997,32.1851475 53.3402721,35.0559698 53.3402721,38.5972131 L53.3402721,40.6258033 C53.3402721,41.178088 52.8925569,41.6258033 52.3402721,41.6258033 C51.7879874,41.6258033 51.3402721,41.178088 51.3402721,40.6258033 L51.3402721,38.5972131 C51.3402721,33.9513839 55.1066466,30.1851475 59.7525344,30.1851475 C64.3985551,30.1851475 68.1647967,33.9513201 68.1647967,38.5972131 L68.1647967,38.7482951 C68.1647967,43.3942174 64.3985258,47.1605574 59.7525344,47.1605574 L16.8407311,47.1605574 Z M21.8697148,56.9228525 C21.31743,56.9228525 20.8697148,56.4751372 20.8697148,55.9228525 C20.8697148,55.3705677 21.31743,54.9228525 21.8697148,54.9228525 L53.8320098,54.9228525 C57.4334749,54.9228525 60.3529934,57.842371 60.3529934,61.4438361 L60.3529934,61.5563607 C60.3529934,65.1576649 57.433439,68.0771475 53.8320098,68.0771475 C50.2305807,68.0771475 47.3110262,65.1576649 47.3110262,61.5563607 L47.3110262,60.0453443 C47.3110262,59.4930595 47.7587415,59.0453443 48.3110262,59.0453443 C48.863311,59.0453443 49.3110262,59.4930595 49.3110262,60.0453443 L49.3110262,61.5563607 C49.3110262,64.0530844 51.3351392,66.0771475 53.8320098,66.0771475 C56.3288805,66.0771475 58.3529934,64.0530844 58.3529934,61.5563607 L58.3529934,61.4438361 C58.3529934,58.9469405 56.3289054,56.9228525 53.8320098,56.9228525 L21.8697148,56.9228525 Z M9.24746557,49.9567016 C9.79975032,49.9567016 10.2474656,50.4044169 10.2474656,50.9567016 C10.2474656,51.5089864 9.79975032,51.9567016 9.24746557,51.9567016 L1.83520328,51.9567016 C1.28291853,51.9567016 0.835203279,51.5089864 0.835203279,50.9567016 C0.835203279,50.4044169 1.28291853,49.9567016 1.83520328,49.9567016 L9.24746557,49.9567016 Z M54.8111115,49.9567016 C55.3633962,49.9567016 55.8111115,50.4044169 55.8111115,50.9567016 C55.8111115,51.5089864 55.3633962,51.9567016 54.8111115,51.9567016 L13.5167508,51.9567016 C12.9644661,51.9567016 12.5167508,51.5089864 12.5167508,50.9567016 C12.5167508,50.4044169 12.9644661,49.9567016 13.5167508,49.9567016 L54.8111115,49.9567016 Z" id="Combined-Shape" fill="#ACACBC" fill-rule="nonzero"></path>
            </g>
        </g>
    </g>
</svg>