<?xml version="1.0" encoding="UTF-8"?>
<svg width="97px" height="102px" viewBox="0 0 97 102" version="1.1" xmlns="http://www.w3.org/2000/svg" xmlns:xlink="http://www.w3.org/1999/xlink">
    <!-- Generator: Sketch 52 (66869) - http://www.bohemiancoding.com/sketch -->
    <title>Break 6</title>
    <desc>Created with Sketch.</desc>
    <defs>
        <linearGradient x1="73.8528983%" y1="0%" x2="73.8528983%" y2="100%" id="linearGradient-1">
            <stop stop-color="#424951" offset="0%"></stop>
            <stop stop-color="#909CAC" offset="100%"></stop>
        </linearGradient>
        <linearGradient x1="73.8528983%" y1="0%" x2="73.8528983%" y2="100%" id="linearGradient-2">
            <stop stop-color="#282828" offset="0%"></stop>
            <stop stop-color="#C6D0E1" offset="100%"></stop>
        </linearGradient>
    </defs>
    <g id="AHU-Illustration" stroke="none" stroke-width="1" fill="none" fill-rule="evenodd">
        <g id="Types-of-Ducts" transform="translate(-419.000000, -1653.000000)">
            <g id="Break-6" transform="translate(467.000000, 1704.000000) scale(-1, 1) translate(-467.000000, -1704.000000) translate(419.000000, 1653.000000)">
                <g id="Group-2-Copy-7" transform="translate(47.500000, 25.000000) rotate(-90.000000) translate(-47.500000, -25.000000) translate(22.500000, -22.500000)">
                    <polygon id="Path-2" fill="#5B6777" points="49.0605918 0 49.0605918 72.2625973 24 72.2625973 24 0"></polygon>
                    <path d="M24.1517387,0.300860627 L1.66148178,23.3008606 C1.27535777,23.6957362 1.28245228,24.3288614 1.67732782,24.7149854 C1.86417913,24.8976956 2.11513136,25 2.37646719,25 L49.0893011,25 L49.0893011,0 L24.8667241,-2.22044605e-16 C24.5976226,-1.72611467e-16 24.3398781,0.108457002 24.1517387,0.300860627 Z" id="Path" fill="url(#linearGradient-1)"></path>
                    <path d="M48.9824677,95 L49,71 L24,71 L1.70710678,93.2928932 C1.31658249,93.6834175 1.31658249,94.3165825 1.70710678,94.7071068 C1.89464316,94.8946432 2.14899707,95 2.41421356,95 L48.9824677,95 Z" id="Path-3" fill="#848E9C"></path>
                </g>
                <g id="Group-5" transform="translate(0.000000, 26.000000)">
                    <g id="Group-23-Copy-7" transform="translate(47.500000, 50.000000) rotate(-90.000000) translate(-47.500000, -50.000000) translate(21.500000, 2.500000)">
                        <g id="Group-Copy-6">
                            <polygon id="Path-2-Copy" fill="#5B6777" points="51 0 51 71 0 71 0 0"></polygon>
                            <path d="M0,0 L0,25 L24.1915082,25 C24.710117,25 25.2084483,24.7985516 25.5813682,24.4381548 L49.8008868,1.03195504 L50.2413509,0 L0,0 Z" id="Path-4" fill="url(#linearGradient-2)" opacity="0.5"></path>
                            <path d="M0,71 L0,95 L24.7089097,95 C25.2174653,95 25.7069213,94.8062673 26.0777121,94.4582113 L51.0681923,71 L0,71 Z" id="Path-4-Copy" fill="#848E9C"></path>
                        </g>
                        <path d="M25.1988158,24.8718091 L50.0487394,0.576114157 C50.2856813,0.344456732 50.6655562,0.348740685 50.8972136,0.585682633 C51.0068213,0.697790635 51.0681923,0.848348892 51.0681923,1.0051355 L51.0681923,70.5651101 C51.0681923,70.8424892 50.9529822,71.1074071 50.7500953,71.2965527 L25.7800382,94.5754243" id="Path-19" stroke="#000000" stroke-linecap="round"></path>
                    </g>
                    <path d="M2.35329971,25 L70.7930766,25 C71.070939,25 71.3362736,25.1156106 71.5254662,25.3191142 L93.8377172,49.3191142 C94.2137601,49.7236018 94.190701,50.3563467 93.7862135,50.7323896 C93.6011999,50.9043924 93.3579439,51 93.1053276,51 L25.0687379,51 L1.63341819,26.694097 C1.25007902,26.2965174 1.26162316,25.6634577 1.65920274,25.2801185 C1.84558286,25.1004141 2.09439583,25 2.35329971,25 Z" id="Rectangle" fill="#000000" opacity="0.5"></path>
                    <path d="M26,-1.54597456e-13 L70.5871185,5.10702591e-15 C70.8515467,5.05845124e-15 71.1052109,0.104733218 71.2926147,0.291286326 L93.7267088,22.6235332 L25,22.5857864 L25,1 C25,0.44771525 25.4477153,-1.67870997e-13 26,-1.79745108e-13 Z" id="Rectangle-Copy-2" fill="#000000" opacity="0.5"></path>
                </g>
            </g>
        </g>
    </g>
</svg>