<?xml version="1.0" encoding="UTF-8"?>
<svg width="102px" height="96px" viewBox="0 0 102 96" version="1.1" xmlns="http://www.w3.org/2000/svg" xmlns:xlink="http://www.w3.org/1999/xlink">
    <!-- Generator: Sketch 52 (66869) - http://www.bohemiancoding.com/sketch -->
    <title>Break 4</title>
    <desc>Created with Sketch.</desc>
    <defs>
        <linearGradient x1="73.8528983%" y1="0%" x2="73.8528983%" y2="100%" id="linearGradient-1">
            <stop stop-color="#424951" offset="0%"></stop>
            <stop stop-color="#909CAC" offset="100%"></stop>
        </linearGradient>
        <linearGradient x1="73.8528983%" y1="0%" x2="73.8528983%" y2="100%" id="linearGradient-2">
            <stop stop-color="#282828" offset="0%"></stop>
            <stop stop-color="#C6D0E1" offset="100%"></stop>
        </linearGradient>
    </defs>
    <g id="AHU-Illustration" stroke="none" stroke-width="1" fill="none" fill-rule="evenodd">
        <g id="Types-of-Ducts" transform="translate(-103.000000, -1654.000000)">
            <g id="Break-4" transform="translate(103.000000, 1653.000000)">
                <g id="Group-2" transform="translate(52.000000, 2.000000)">
                    <g id="Group-2-Copy-5" transform="translate(1.000000, 0.000000)">
                        <polygon id="Path-2" fill="#5B6777" points="48.0605918 0 48.0605918 72.2625973 23 72.2625973 23 0"></polygon>
                        <path d="M47.9824677,94 L47.9824677,72 L22.8651008,72 L1.78826649,92.2793925 C1.39028599,92.6623155 1.3780794,93.2953628 1.76100232,93.6933433 C1.94952503,93.8892792 2.20970592,94 2.48160977,94 L47.9824677,94 Z" id="Path-3" fill="#848E9C"></path>
                    </g>
                    <path d="M1.3764668,23.8775878 L23.3662808,23.1382037 C23.3774785,23.1378272 23.3886817,23.1376389 23.3998857,23.1376389 L24.4036799,23.1376389 L24.4036799,71.5794569 C24.4036799,71.8484112 24.2953411,72.1060276 24.1031224,72.2941457 L2.4816086,93.4544099 L1.3764668,23.8775878 Z" id="Rectangle-Copy" fill="#000000" opacity="0.5"></path>
                    <path d="M24.1517387,0.300860627 L1.66148178,23.3008606 C1.27535777,23.6957362 1.28245228,24.3288614 1.67732782,24.7149854 C1.86417913,24.8976956 2.11513136,25 2.37646719,25 L49.0893011,25 L49.0893011,0 L24.8667241,-2.22044605e-16 C24.5976226,-1.72611467e-16 24.3398781,0.108457002 24.1517387,0.300860627 Z" id="Path" fill="url(#linearGradient-1)"></path>
                </g>
                <g id="Group-9">
                    <g id="Group-23-Copy-5" transform="translate(0.000000, 2.000000)">
                        <g id="Group-Copy-6">
                            <polygon id="Path-2-Copy" fill="#5B6777" points="51 0 51 72.26 0 72.26 0 0"></polygon>
                            <path d="M0,0 L0,25 L24.1915082,25 C24.710117,25 25.2084483,24.7985516 25.5813682,24.4381548 L49.8008868,1.03195504 L50.2413509,0 L0,0 Z" id="Path-4" fill="url(#linearGradient-2)" opacity="0.5"></path>
                            <path d="M0,72 L0,94 L26.5754601,94 C27.0809691,94 27.567726,93.8085761 27.9378178,93.4642341 L51.0010684,72.0056458 L0,72 Z" id="Path-4-Copy" fill="#848E9C"></path>
                        </g>
                        <path d="M25.1988158,24.8718091 L50.0487394,0.576114157 C50.2856813,0.344456732 50.6655562,0.348740685 50.8972136,0.585682633 C51.0068213,0.697790635 51.0681923,0.848348892 51.0681923,1.0051355 L51.0681923,71.5916626 C51.0681923,71.8757801 50.9473366,72.1464851 50.7358099,72.336167 L27.1499382,93.48627" id="Path-19" stroke="#000000" stroke-linecap="round"></path>
                    </g>
                    <path d="M25,27 L50.2999447,2.19725453 C50.694325,1.81062468 51.3274588,1.81690765 51.7140887,2.21128793 C51.8973488,2.39822174 52,2.64956365 52,2.9113432 L52,72.8595799 C52,73.1410566 51.8813726,73.4094995 51.6732425,73.5990016 L26.6754728,96.3594374 L25,27 Z" id="Rectangle" fill="#000000" opacity="0.5"></path>
                </g>
            </g>
        </g>
    </g>
</svg>