<?xml version="1.0" encoding="UTF-8"?>
<svg width="620px" height="370px" viewBox="0 0 620 370" version="1.1" xmlns="http://www.w3.org/2000/svg" xmlns:xlink="http://www.w3.org/1999/xlink">
    <!-- Generator: Sketch 63.1 (92452) - https://sketch.com -->
    <title>bush-chiller</title>
    <desc>Created with Sketch.</desc>
    <defs>
        <path d="M39.3805903,8.08248266e-13 L7.54037544,8.08248266e-13 C2.51345848,0.372345041 0,4.70747846 0,13.0054002 C0,21.303322 2.51345848,25.6384555 7.54037544,26.0108005 L39.3805903,26.0108005 L39.3805903,8.08248266e-13 Z" id="path-1"></path>
        <path d="M39.3805903,8.08248266e-13 L7.54037544,8.08248266e-13 C2.51345848,0.372345041 0,4.70747846 0,13.0054002 C0,21.303322 2.51345848,25.6384555 7.54037544,26.0108005 L39.3805903,26.0108005 L39.3805903,8.08248266e-13 Z" id="path-3"></path>
        <path d="M39.3805903,8.08248266e-13 L7.54037544,8.08248266e-13 C2.51345848,0.372345041 0,4.70747846 0,13.0054002 C0,21.303322 2.51345848,25.6384555 7.54037544,26.0108005 L39.3805903,26.0108005 L39.3805903,8.08248266e-13 Z" id="path-5"></path>
        <path d="M39.3805903,8.08248266e-13 L7.54037544,8.08248266e-13 C2.51345848,0.372345041 0,4.70747846 0,13.0054002 C0,21.303322 2.51345848,25.6384555 7.54037544,26.0108005 L39.3805903,26.0108005 L39.3805903,8.08248266e-13 Z" id="path-7"></path>
        <linearGradient x1="49.2867281%" y1="0%" x2="49.2867281%" y2="58.597148%" id="linearGradient-9">
            <stop stop-color="#89B9CD" offset="0%"></stop>
            <stop stop-color="#B4D3E3" offset="100%"></stop>
        </linearGradient>
    </defs>
    <g id="Page-1" stroke="none" stroke-width="1" fill="none" fill-rule="evenodd">
        <g id="bush-chiller-updated-copy" transform="translate(-61.000000, -41.000000)">
            <g id="bush-chiller" transform="translate(61.000000, 41.000000)">
                <g id="in-pipe" transform="translate(0.000000, 198.273307)">
                    <g id="Group-2" stroke="#02627E" stroke-width="1.5">
                        <path d="M13.3866221,0.75 L10.0975872,0.75 C8.8854572,0.75 7.73391395,1.1894285 6.68157249,1.96646077 C5.52192957,2.82272275 4.48475264,4.08259728 3.61162285,5.63905337 C1.83699845,8.80252913 0.75,13.1748903 0.75,18.0001315 C0.75,22.8253726 1.83699845,27.1977338 3.61162285,30.3612096 C4.48475264,31.9176657 5.52192957,33.1775402 6.68157249,34.0338022 C7.73391395,34.8108345 8.8854572,35.250263 10.0975872,35.250263 L13.3866221,35.250263 L13.3866221,0.75 Z" id="Path" fill="#388CA8"></path>
                        <ellipse id="Oval" fill="#1E6B84" cx="14.1366221" cy="18.0001315" rx="9.34758724" ry="17.2501315"></ellipse>
                    </g>
                    <path d="M49.4781775,5.00003652 L17.6379627,5.00003652 C12.6110457,5.37238156 10.0975872,9.70751498 10.0975872,18.0054368 C10.0975872,26.3033586 12.6110457,30.638492 17.6379627,31.010837 L49.4781775,31.010837 L49.4781775,5.00003652 Z" id="Path-65" fill="#B4D3E3"></path>
                    <g id="Path" transform="translate(10.097587, 5.000037)">
                        <mask id="mask-2" fill="white">
                            <use xlink:href="#path-1"></use>
                        </mask>
                        <use id="Mask" fill="#1E6B84" xlink:href="#path-1"></use>
                        <path d="M0.41163102,4.00002922 C0.13721034,5.50614268 9.43481895e-13,7.22858577 9.43481895e-13,9.16735849 L42.7022442,9.16735849 L42.7022442,4.00002922 L0.41163102,4.00002922 Z" fill="#195F76" mask="url(#mask-2)"></path>
                    </g>
                    <path d="M49.4781775,5.00003652 L17.6379627,5.00003652 C12.6110457,5.37238156 10.0975872,9.70751498 10.0975872,18.0054368 C10.0975872,26.3033586 12.6110457,30.638492 17.6379627,31.010837 L49.4781775,31.010837 L49.4781775,5.00003652 Z" id="Path-65-Copy" stroke="#02627E" stroke-width="1.5"></path>
                </g>
                <g id="in-pipe-copy-2" transform="translate(0.000000, 246.273658)">
                    <g id="Group-2" stroke="#02627E" stroke-width="1.5">
                        <path d="M13.3866221,0.75 L10.0975872,0.75 C8.8854572,0.75 7.73391395,1.1894285 6.68157249,1.96646077 C5.52192957,2.82272275 4.48475264,4.08259728 3.61162285,5.63905337 C1.83699845,8.80252913 0.75,13.1748903 0.75,18.0001315 C0.75,22.8253726 1.83699845,27.1977338 3.61162285,30.3612096 C4.48475264,31.9176657 5.52192957,33.1775402 6.68157249,34.0338022 C7.73391395,34.8108345 8.8854572,35.250263 10.0975872,35.250263 L13.3866221,35.250263 L13.3866221,0.75 Z" id="Path" fill="#388CA8"></path>
                        <ellipse id="Oval" fill="#1E6B84" cx="14.1366221" cy="18.0001315" rx="9.34758724" ry="17.2501315"></ellipse>
                    </g>
                    <path d="M49.4781775,5.00003652 L17.6379627,5.00003652 C12.6110457,5.37238156 10.0975872,9.70751498 10.0975872,18.0054368 C10.0975872,26.3033586 12.6110457,30.638492 17.6379627,31.010837 L49.4781775,31.010837 L49.4781775,5.00003652 Z" id="Path-65" fill="#B4D3E3"></path>
                    <g id="Path" transform="translate(10.097587, 5.000037)">
                        <mask id="mask-4" fill="white">
                            <use xlink:href="#path-3"></use>
                        </mask>
                        <use id="Mask" fill="#1E6B84" xlink:href="#path-3"></use>
                        <path d="M0.41163102,4.00002922 C0.13721034,5.50614268 9.43481895e-13,7.22858577 9.43481895e-13,9.16735849 L42.7022442,9.16735849 L42.7022442,4.00002922 L0.41163102,4.00002922 Z" fill="#195F76" mask="url(#mask-4)"></path>
                    </g>
                    <path d="M49.4781775,5.00003652 L17.6379627,5.00003652 C12.6110457,5.37238156 10.0975872,9.70751498 10.0975872,18.0054368 C10.0975872,26.3033586 12.6110457,30.638492 17.6379627,31.010837 L49.4781775,31.010837 L49.4781775,5.00003652 Z" id="Path-65-Copy" stroke="#02627E" stroke-width="1.5"></path>
                </g>
                <g id="Group-7" transform="translate(37.466935, 193.240838)">
                    <path d="M138.887324,0.13618237 L518.743943,0.13618237 C534.192612,-1.6363126 542.129253,13.8937538 542.553865,46.7263816 C542.978477,79.5590094 537.367298,98.2243396 525.720329,102.722372 L138.887324,102.722372 L19.1873962,102.722372 C6.85428711,102.722372 0.465137165,85.6019766 0.0199463553,51.361186 C-0.425244455,17.1203953 6.5818607,0.0453941234 21.0412618,0.13618237 L138.887324,0.13618237 Z" id="cylinder-back" fill="#1E6B84"></path>
                    <path d="M0.439835564,32.9461866 L1.26782781,32.0390174 C2.97305542,30.1707269 5.385777,29.1062718 7.91526521,29.1062718 L104.550836,29.1062718 L104.550836,29.1062718 L531.651812,29.1062718 C535.723851,29.1062718 539.569031,30.9814636 542.076335,34.1900351 L542.076335,34.1900351 L542.076335,34.1900351 L542.076335,44.5345783 L0,44.5345783 L0.439835564,32.9461866 Z" id="Path-5" fill="#195F76"></path>
                    <path d="M138.887324,0.13618237 L518.743943,0.13618237 C534.192612,-1.6363126 542.129253,13.8937538 542.553865,46.7263816 C542.978477,79.5590094 537.367298,98.2243396 525.720329,102.722372 L138.887324,102.722372 L19.1873962,102.722372 C6.85428711,102.722372 0.465137165,85.6019766 0.0199463553,51.361186 C-0.425244455,17.1203953 6.5818607,0.0453941234 21.0412618,0.13618237 L138.887324,0.13618237 Z" id="cylinder-back-copy" stroke="#02627E" stroke-width="1.5"></path>
                </g>
                <g id="outlets" transform="translate(580.619410, 271.687357) scale(-1, 1) translate(-580.619410, -271.687357) translate(541.238819, 227.187032)">
                    <g id="in-pipe" transform="translate(0.000000, 3.000022)">
                        <g id="Group-2" stroke="#02627E" stroke-width="1.5">
                            <path d="M13.3866221,0.75 L10.0975872,0.75 C8.8854572,0.75 7.73391395,1.1894285 6.68157249,1.96646077 C5.52192957,2.82272275 4.48475264,4.08259728 3.61162285,5.63905337 C1.83699845,8.80252913 0.75,13.1748903 0.75,18.0001315 C0.75,22.8253726 1.83699845,27.1977338 3.61162285,30.3612096 C4.48475264,31.9176657 5.52192957,33.1775402 6.68157249,34.0338022 C7.73391395,34.8108345 8.8854572,35.250263 10.0975872,35.250263 L13.3866221,35.250263 L13.3866221,0.75 Z" id="Path" fill="#A5C9DC"></path>
                            <ellipse id="Oval" fill="#89B9CD" cx="14.1366221" cy="18.0001315" rx="9.34758724" ry="17.2501315"></ellipse>
                        </g>
                        <path d="M49.4781775,5.00003652 L17.6379627,5.00003652 C12.6110457,5.37238156 10.0975872,9.70751498 10.0975872,18.0054368 C10.0975872,26.3033586 12.6110457,30.638492 17.6379627,31.010837 L49.4781775,31.010837 L49.4781775,5.00003652 Z" id="Path-65" fill="#B4D3E3"></path>
                        <g id="Path" transform="translate(10.097587, 5.000037)">
                            <mask id="mask-6" fill="white">
                                <use xlink:href="#path-5"></use>
                            </mask>
                            <use id="Mask" fill="#A5C9DC" xlink:href="#path-5"></use>
                            <path d="M0.41163102,4.00002922 C0.13721034,5.50614268 9.43481895e-13,7.22858577 9.43481895e-13,9.16735849 L42.7022442,9.16735849 L42.7022442,4.00002922 L0.41163102,4.00002922 Z" fill="#8FBCD4" mask="url(#mask-6)"></path>
                        </g>
                        <path d="M49.4781775,5.00003652 L17.6379627,5.00003652 C12.6110457,5.37238156 10.0975872,9.70751498 10.0975872,18.0054368 C10.0975872,26.3033586 12.6110457,30.638492 17.6379627,31.010837 L49.4781775,31.010837 L49.4781775,5.00003652 Z" id="Path-65-Copy" stroke="#02627E" stroke-width="1.5"></path>
                    </g>
                    <g id="in-pipe-copy-2" transform="translate(0.000000, 51.000373)">
                        <g id="Group-2" stroke="#02627E" stroke-width="1.5">
                            <path d="M13.3866221,0.75 L10.0975872,0.75 C8.8854572,0.75 7.73391395,1.1894285 6.68157249,1.96646077 C5.52192957,2.82272275 4.48475264,4.08259728 3.61162285,5.63905337 C1.83699845,8.80252913 0.75,13.1748903 0.75,18.0001315 C0.75,22.8253726 1.83699845,27.1977338 3.61162285,30.3612096 C4.48475264,31.9176657 5.52192957,33.1775402 6.68157249,34.0338022 C7.73391395,34.8108345 8.8854572,35.250263 10.0975872,35.250263 L13.3866221,35.250263 L13.3866221,0.75 Z" id="Path" fill="#A5C9DC"></path>
                            <ellipse id="Oval" fill="#89B9CD" cx="14.1366221" cy="18.0001315" rx="9.34758724" ry="17.2501315"></ellipse>
                        </g>
                        <path d="M49.4781775,5.00003652 L17.6379627,5.00003652 C12.6110457,5.37238156 10.0975872,9.70751498 10.0975872,18.0054368 C10.0975872,26.3033586 12.6110457,30.638492 17.6379627,31.010837 L49.4781775,31.010837 L49.4781775,5.00003652 Z" id="Path-65" fill="#B4D3E3"></path>
                        <g id="Path" transform="translate(10.097587, 5.000037)">
                            <mask id="mask-8" fill="white">
                                <use xlink:href="#path-7"></use>
                            </mask>
                            <use id="Mask" fill="#A5C9DC" xlink:href="#path-7"></use>
                            <path d="M0.41163102,4.00002922 C0.13721034,5.50614268 9.43481895e-13,7.22858577 9.43481895e-13,9.16735849 L42.7022442,9.16735849 L42.7022442,4.00002922 L0.41163102,4.00002922 Z" fill="#8FBCD4" mask="url(#mask-8)"></path>
                        </g>
                        <path d="M49.4781775,5.00003652 L17.6379627,5.00003652 C12.6110457,5.37238156 10.0975872,9.70751498 10.0975872,18.0054368 C10.0975872,26.3033586 12.6110457,30.638492 17.6379627,31.010837 L49.4781775,31.010837 L49.4781775,5.00003652 Z" id="Path-65-Copy" stroke="#02627E" stroke-width="1.5"></path>
                    </g>
                    <g id="Group-2-Copy" transform="translate(33.322038, 0.000000)">
                        <path d="M15.1463809,0 C6.7812657,0 0,19.9234742 0,44.5003251 C0,69.0771759 6.7812657,89.0006501 15.1463809,89.0006501 L38.3708315,89.0006501 L38.3708315,0 L15.1463809,0 Z" id="Path" fill="#89B9CD"></path>
                        <path d="M30.0093377,0 C21.0252845,0 11.107346,19.9234742 11.107346,44.5003251 C11.107346,69.0771759 21.0252845,89.0006501 30.0093377,89.0006501 L45.4391426,89.0006501 L45.4391426,0 L30.0093377,0 Z" id="Path-Copy-2" fill="#A5C9DC"></path>
                        <path d="M37.6208315,0.75 L24.0040316,0.75 C22.0265882,0.75 20.0278011,2.01837529 18.1175363,4.18318719 C16.0323353,6.54624591 14.0699407,9.98533038 12.3936993,14.223639 C9.26978084,22.1223404 7.15425411,32.7778022 7.15425411,44.5003251 C7.15425411,56.2228479 9.26978084,66.8783097 12.3936993,74.7770111 C14.0699407,79.0153197 16.0323353,82.4544042 18.1175363,84.8174629 C20.0278011,86.9822748 22.0265882,88.2506501 24.0040316,88.2506501 L37.6208315,88.2506501 L37.6208315,0.75 Z" id="Path-Copy-3" stroke="#02627E" stroke-width="1.5"></path>
                        <path d="M37.6208315,0.75 L15.1463809,0.75 C13.2840683,0.75 11.5394337,1.89178949 9.93356883,3.84607329 C8.12574156,6.04613853 6.50793953,9.27490267 5.14627265,13.2755032 C2.42636712,21.266632 0.75,32.3070257 0.75,44.5003251 C0.75,56.6936245 2.42636712,67.7340182 5.14627265,75.7251469 C6.50793953,79.7257474 8.12574156,82.9545116 9.93356883,85.1545768 C11.5394337,87.1088606 13.2840683,88.2506501 15.1463809,88.2506501 L37.6208315,88.2506501 L37.6208315,0.75 Z" id="Path-Copy" stroke="#02627E" stroke-width="1.5"></path>
                    </g>
                </g>
                <g id="Group-3-Copy" transform="translate(532.150991, 282.502064) scale(-1, 1) translate(-532.150991, -282.502064) translate(488.731366, 196.001432)">
                    <g id="stand" transform="translate(0.000000, 159.895284)" fill="#89B9CD" stroke="#02627E" stroke-width="1.5">
                        <polygon id="Path-61" points="0.231489398 10.2980807 0.231489398 12.9827272 43.9245045 12.9827272 56.8210017 2.58203044 56.8210017 -6.17662762e-13 30.2927617 -6.17288511e-13"></polygon>
                        <path d="M14.6768498,-9.09501345e-13 L0.264077846,9.85809442 C0.218492557,9.88927399 0.206814417,9.95150421 0.237993991,9.9970895 C0.256513036,10.0241648 0.287133324,10.040436 0.31993558,10.0406321 L43.379505,10.2980807 L43.379505,10.2980807 L55.7925337,0.356102853 C55.8787469,0.28705202 55.8926598,0.161185632 55.8236089,0.0749724062 C55.7856525,0.0275819533 55.728223,-9.0379485e-13 55.6675061,-9.09501345e-13 L14.6768498,-9.09501345e-13 L14.6768498,-9.09501345e-13 Z" id="Path-62"></path>
                    </g>
                    <g id="stand-copy" transform="translate(29.283003, 132.186338)" fill="#89B9CD" stroke="#02627E" stroke-width="1.5">
                        <polygon id="Path-61" points="0.231489398 10.2980807 0.231489398 12.9827272 43.9245045 12.9827272 56.8210017 2.58203044 56.8210017 -6.17662762e-13 30.2927617 -6.17288511e-13"></polygon>
                        <path d="M14.6768498,-9.09501345e-13 L0.264077846,9.85809442 C0.218492557,9.88927399 0.206814417,9.95150421 0.237993991,9.9970895 C0.256513036,10.0241648 0.287133324,10.040436 0.31993558,10.0406321 L43.379505,10.2980807 L43.379505,10.2980807 L55.7925337,0.356102853 C55.8787469,0.28705202 55.8926598,0.161185632 55.8236089,0.0749724062 C55.7856525,0.0275819533 55.728223,-9.12648879e-13 55.6675061,-9.09501345e-13 L14.6768498,-9.09501345e-13 L14.6768498,-9.09501345e-13 Z" id="Path-62"></path>
                    </g>
                    <g id="Group" transform="translate(19.185416, 0.000000)">
                        <path d="M3.95736925,165.001205 L1.18089086,165.001205 L0.100340082,34.2361145 C0.0394362861,26.8657156 4.36547854,20.1643755 11.107346,17.1854976 L11.107346,17.1854976 L11.107346,17.1854976 L11.107346,159.441892 L3.95736925,165.001205 Z" id="Path-58" stroke="#02627E" stroke-width="1.5" fill="#89B9CD"></path>
                        <path d="M35.0592243,15.6402106 L10.2021211,3.64635785 C7.71507644,2.44632872 4.72611256,3.48966097 3.52608343,5.97670565 C3.19909769,6.65437933 3.02927617,7.39711368 3.02927617,8.14955059 L3.02927617,135.438122 L3.02927617,135.438122 L45.208547,164.974664 C45.2990257,165.038022 45.4237357,165.016037 45.4870945,164.925559 C45.5103869,164.892296 45.5230025,164.852732 45.5232641,164.812126 L46.3674295,33.7818293 C46.4171877,26.0584165 42.015372,18.996636 35.0592243,15.6402106 Z" id="Path-60-Copy" stroke="#02627E" stroke-width="1.5" fill="#89B9CD" transform="translate(24.739089, 82.689351) scale(-1, 1) translate(-24.739089, -82.689351) "></path>
                        <ellipse id="Oval" fill="#74A8BD" cx="12.6219841" cy="34.500252" rx="1.51463809" ry="4.50003287"></ellipse>
                        <ellipse id="Oval-Copy" fill="#74A8BD" cx="39.8854696" cy="18.6855086" rx="1.51463809" ry="4.50003287"></ellipse>
                        <ellipse id="Oval-Copy-3" fill="#74A8BD" cx="12.6219841" cy="143.501048" rx="1.51463809" ry="4.50003287"></ellipse>
                        <ellipse id="Oval-Copy-2" fill="#74A8BD" cx="39.8854696" cy="127.686305" rx="1.51463809" ry="4.50003287"></ellipse>
                    </g>
                </g>
                <g id="outlets-copy" transform="translate(28.227642, 227.187032)">
                    <g id="Group-2-Copy" transform="translate(0.053745, 0.000000)">
                        <path d="M15.1463809,0 C6.7812657,0 0,19.9234742 0,44.5003251 C0,69.0771759 6.7812657,89.0006501 15.1463809,89.0006501 L38.3708315,89.0006501 L38.3708315,0 L15.1463809,0 Z" id="Path" fill="#89B9CD"></path>
                        <path d="M30.0093377,0 C21.0252845,0 11.107346,19.9234742 11.107346,44.5003251 C11.107346,69.0771759 21.0252845,89.0006501 30.0093377,89.0006501 L45.4391426,89.0006501 L45.4391426,0 L30.0093377,0 Z" id="Path-Copy-2" fill="#A5C9DC"></path>
                        <path d="M37.6208315,0.75 L24.0040316,0.75 C22.0265882,0.75 20.0278011,2.01837529 18.1175363,4.18318719 C16.0323353,6.54624591 14.0699407,9.98533038 12.3936993,14.223639 C9.26978084,22.1223404 7.15425411,32.7778022 7.15425411,44.5003251 C7.15425411,56.2228479 9.26978084,66.8783097 12.3936993,74.7770111 C14.0699407,79.0153197 16.0323353,82.4544042 18.1175363,84.8174629 C20.0278011,86.9822748 22.0265882,88.2506501 24.0040316,88.2506501 L37.6208315,88.2506501 L37.6208315,0.75 Z" id="Path-Copy-3" stroke="#02627E" stroke-width="1.5"></path>
                        <path d="M37.6208315,0.75 L15.1463809,0.75 C13.2840683,0.75 11.5394337,1.89178949 9.93356883,3.84607329 C8.12574156,6.04613853 6.50793953,9.27490267 5.14627265,13.2755032 C2.42636712,21.266632 0.75,32.3070257 0.75,44.5003251 C0.75,56.6936245 2.42636712,67.7340182 5.14627265,75.7251469 C6.50793953,79.7257474 8.12574156,82.9545116 9.93356883,85.1545768 C11.5394337,87.1088606 13.2840683,88.2506501 15.1463809,88.2506501 L37.6208315,88.2506501 L37.6208315,0.75 Z" id="Path-Copy" stroke="#02627E" stroke-width="1.5"></path>
                    </g>
                </g>
                <g id="Group-3-Copy-2" transform="translate(39.388733, 196.001432)">
                    <g id="stand" transform="translate(0.000000, 159.895284)" fill="#89B9CD" stroke="#02627E" stroke-width="1.5">
                        <polygon id="Path-61" points="0.231489398 10.2980807 0.231489398 12.9827272 43.9245045 12.9827272 56.8210017 2.58203044 56.8210017 -6.17662762e-13 30.2927617 -6.17288511e-13"></polygon>
                        <path d="M14.6768498,-9.09501345e-13 L0.264077846,9.85809442 C0.218492557,9.88927399 0.206814417,9.95150421 0.237993991,9.9970895 C0.256513036,10.0241648 0.287133324,10.040436 0.31993558,10.0406321 L43.379505,10.2980807 L43.379505,10.2980807 L55.7925337,0.356102853 C55.8787469,0.28705202 55.8926598,0.161185632 55.8236089,0.0749724062 C55.7856525,0.0275819533 55.728223,-9.12315812e-13 55.6675061,-9.09501345e-13 L14.6768498,-9.09501345e-13 L14.6768498,-9.09501345e-13 Z" id="Path-62"></path>
                    </g>
                    <g id="stand-copy" transform="translate(29.283003, 132.186338)" fill="#89B9CD" stroke="#02627E" stroke-width="1.5">
                        <polygon id="Path-61" points="0.231489398 10.2980807 0.231489398 12.9827272 43.9245045 12.9827272 56.8210017 2.58203044 56.8210017 -6.17662762e-13 30.2927617 -6.17288511e-13"></polygon>
                        <path d="M14.6768498,-9.09501345e-13 L0.264077846,9.85809442 C0.218492557,9.88927399 0.206814417,9.95150421 0.237993991,9.9970895 C0.256513036,10.0241648 0.287133324,10.040436 0.31993558,10.0406321 L43.379505,10.2980807 L43.379505,10.2980807 L55.7925337,0.356102853 C55.8787469,0.28705202 55.8926598,0.161185632 55.8236089,0.0749724062 C55.7856525,0.0275819533 55.728223,-9.04072406e-13 55.6675061,-9.09501345e-13 L14.6768498,-9.09501345e-13 L14.6768498,-9.09501345e-13 Z" id="Path-62"></path>
                    </g>
                    <g id="Group" transform="translate(19.185416, 0.000000)">
                        <path d="M3.95736925,165.001205 L1.18089086,165.001205 L0.100340082,34.2361145 C0.0394362861,26.8657156 4.36547854,20.1643755 11.107346,17.1854976 L11.107346,17.1854976 L11.107346,17.1854976 L11.107346,159.441892 L3.95736925,165.001205 Z" id="Path-58" stroke="#02627E" stroke-width="1.5" fill="#89B9CD"></path>
                        <path d="M35.0592243,15.6402106 L10.2021211,3.64635785 C7.71507644,2.44632872 4.72611256,3.48966097 3.52608343,5.97670565 C3.19909769,6.65437933 3.02927617,7.39711368 3.02927617,8.14955059 L3.02927617,135.438122 L3.02927617,135.438122 L45.208547,164.974664 C45.2990257,165.038022 45.4237357,165.016037 45.4870945,164.925559 C45.5103869,164.892296 45.5230025,164.852732 45.5232641,164.812126 L46.3674295,33.7818293 C46.4171877,26.0584165 42.015372,18.996636 35.0592243,15.6402106 Z" id="Path-60-Copy" stroke="#02627E" stroke-width="1.5" fill="#89B9CD" transform="translate(24.739089, 82.689351) scale(-1, 1) translate(-24.739089, -82.689351) "></path>
                        <ellipse id="Oval" fill="#74A8BD" cx="12.6219841" cy="34.500252" rx="1.51463809" ry="4.50003287"></ellipse>
                        <ellipse id="Oval-Copy" fill="#74A8BD" cx="39.8854696" cy="18.6855086" rx="1.51463809" ry="4.50003287"></ellipse>
                        <ellipse id="Oval-Copy-3" fill="#74A8BD" cx="12.6219841" cy="143.501048" rx="1.51463809" ry="4.50003287"></ellipse>
                        <ellipse id="Oval-Copy-2" fill="#74A8BD" cx="39.8854696" cy="127.686305" rx="1.51463809" ry="4.50003287"></ellipse>
                    </g>
                </g>
                <g id="Group-3" transform="translate(78.769324, 226.187024)">
                    <path d="M78.3995191,0.11799104 L433.628687,0.11799104 C449.077357,-1.41773289 457.013997,12.0378171 457.438609,40.4846409 C457.863221,68.9314648 452.252042,85.1034678 440.605073,89.0006501 L78.3995191,89.0006501 L19.1873962,89.0006501 C6.85428711,89.0006501 0.465137165,74.1672084 0.0199463553,44.5003251 C-0.425244455,14.8334417 6.5818607,0.0393303466 21.0412618,0.11799104 L78.3995191,0.11799104 Z" id="cylinder-front" fill="#B4D3E3"></path>
                    <path d="M0.0199463553,44.5003251 C-0.425244455,14.8334417 6.5818607,0.0393303466 21.0412618,0.11799104 L78.3995191,0.11799104 L433.628687,0.11799104 C449.077357,-1.41773289 457.013997,12.0378171 457.438609,40.4846409 L0.0199463553,44.5003251 Z" id="Path" fill="#A5C9DC"></path>
                    <path d="M2.54563902,70.2633014 L454.391426,70.2633014 C453.914188,72.7668505 453.1004,75.3175964 451.950061,77.9155392 L5.76289589,79.5853576 L2.54563902,70.2633014 Z" id="Path-64" fill="#A5C9DC"></path>
                    <path d="M78.3995191,0.11799104 L433.628687,0.11799104 C449.077357,-1.41773289 457.013997,12.0378171 457.438609,40.4846409 C457.863221,68.9314648 452.252042,85.1034678 440.605073,89.0006501 L78.3995191,89.0006501 L19.1873962,89.0006501 C6.85428711,89.0006501 0.465137165,74.1672084 0.0199463553,44.5003251 C-0.425244455,14.8334417 6.5818607,0.0393303466 21.0412618,0.11799104 L78.3995191,0.11799104 Z" id="cylinder-front-copy" stroke="#02627E" stroke-width="1.5"></path>
                </g>
                <g id="Group-5" transform="translate(125.218225, 191.001395)">
                    <polygon id="Path-63" fill="#89B9CD" points="27.3991311 0 337.123768 1.6653467e-15 337.123768 17.0001242 364.5229 50.0003652 8.75167461e-13 50.0003652 27.3991311 17.0001242"></polygon>
                    <path d="M364.782658,49.9700406 L0.75,49.9700406 L0.75,53.2503945 L364.782658,53.2503945 L364.782658,49.9700406 Z" id="Rectangle" stroke="#02627E" stroke-width="1.5" fill="#89B9CD"></path>
                    <polygon id="Path-63-Copy-2" fill="#89B9CD" points="27.2634856 0 337.259414 0 337.259414 17.0001242 27.2634856 17.0001242"></polygon>
                    <path d="M27.3991311,0 L337.123768,0 L337.123768,17.0001242 L364.536897,48.8436727 C364.789122,49.1366607 364.756076,49.5786426 364.463088,49.8308669 C364.33606,49.9402214 364.17401,50.0003652 364.006396,50.0003652 L1.49101425,50.0003652 C1.10441492,50.0003652 0.791014248,49.6869646 0.791014248,49.3003652 C0.791014248,49.137045 0.848121269,48.9788655 0.952449022,48.8532103 L27.3991311,17.0001242 L27.3991311,17.0001242 L27.3991311,0 Z" id="Path-63-Copy" stroke="#02627E" stroke-width="1.5"></path>
                </g>
                <g id="tomb" transform="translate(178.735437, 0.134740)">
                    <path d="M64.5301556,6.00837727 L101.327599,6.00837727 C102.81376,6.00837727 104.2229,6.66949418 105.17284,7.81242332 L125.346799,32.0849043 C126.093029,32.9827387 126.501558,34.1133964 126.501558,35.2808582 L126.501558,180.118234 L126.501558,180.118234 L120.927117,180.118234 L120.927117,37.0781129 C120.927117,36.3768095 120.681423,35.6976681 120.232724,35.1586916 L101.740559,12.9459266 C101.170584,12.261273 100.325808,11.865348 99.4349529,11.865348 L64.5301556,11.865348 L64.5301556,11.865348 L64.5301556,6.00837727 Z" id="Path-2" fill="#89B9CD"></path>
                    <polygon id="Path-3" fill="#1E6B84" points="64.5301556 6.00837727 79.6765365 6.00837727 79.6765365 11.9520471 64.5301556 11.9520471"></polygon>
                    <path d="M1.3553318,189.366645 L1.3553318,44.3666765 C12.8632509,26.1223083 28.9041994,17.0001242 49.4781775,17.0001242 C70.0521556,17.0001242 85.5647477,26.1223083 96.0159541,44.3666765 L96.0159541,189.052014 C64.9907697,201.718774 33.4372289,202.158264 1.3553318,190.370485 L1.35220788,189.787337 L1.3553318,189.366645 Z" id="Path-Copy-5" fill="#B4D3E3"></path>
                    <path d="M86.1014732,192.376146 C77.6586193,194.981296 69.8541643,196.914603 64.8919967,197.631862 L64.8919967,51.0308465 C65.6851142,41.454397 60.5471745,30.1108229 49.4781775,17.0001242 C70.4448337,25.8196003 82.2852842,35.7784482 84.999529,46.8766682 L86.1014732,185.68658 L86.1014732,192.376146 Z" id="Path" fill="#A5C9DC"></path>
                    <path d="M11.107346,17.0001242 C32.0740022,25.8196003 43.9144527,35.7784482 46.6286974,46.8766682 L47.7306417,185.68658 L47.7306417,192.376146 C45.3994584,193.095463 43.1169457,193.763558 40.9294964,194.368978 L40.9294964,47.6987615 C39.1282398,36.0692362 29.187523,26.2134576 11.107346,18.1314254 L11.1187369,17.549393 L11.107346,17.0001242 Z" id="Path" fill="#A5C9DC" transform="translate(29.418994, 105.684551) scale(-1, 1) translate(-29.418994, -105.684551) "></path>
                    <path d="M1.35220788,180.361925 L1.3553318,44.3666765 C12.8632509,26.1223083 28.9041994,17.0001242 49.4781775,17.0001242 C70.0521556,17.0001242 85.5647477,26.1223083 96.0159541,44.3666765 L96.0159541,189.052014 C64.9907697,201.718774 33.4372289,202.158264 1.3553318,190.370485 L1.35220788,172.126849 L1.35220788,180.361925 Z" id="Path-Copy-7" stroke="#02627E" stroke-width="1.5"></path>
                    <path d="M1.3553318,44.3666765 C31.5171475,53.2522365 63.0706882,53.2522365 96.0159541,44.3666765" id="Path-67" stroke="#02627E" stroke-width="1.5"></path>
                    <path d="M1.33506168,86.4550398 C0.462257119,86.9907072 0,87.5498774 0,88.1249392 C0,92.0650015 21.7000502,95.2590531 48.4684188,95.2590531 C75.2367873,95.2590531 96.9368375,92.0650015 96.9368375,88.1249392 C96.9368375,87.7573266 96.747936,87.396208 96.3836413,87.0435719" id="Path" stroke="#02627E" stroke-width="1.5"></path>
                    <path d="M1.33506168,126.455332 C0.462257119,126.990999 0,127.55017 0,128.125231 C0,132.065294 21.7000502,135.259345 48.4684188,135.259345 C75.2367873,135.259345 96.9368375,132.065294 96.9368375,128.125231 C96.9368375,127.757619 96.747936,127.3965 96.3836413,127.043864" id="Path-Copy-4" stroke="#02627E" stroke-width="1.5"></path>
                    <path d="M62.9720196,4.61528956 L56.2867298,4.61528956 L56.2867298,13.1153626 L62.9720196,13.1153626 C63.6141294,13.1153626 64.2220762,12.914882 64.7246838,12.5636588 C65.2272913,12.2124356 65.6245596,11.7104698 65.8453126,11.1074995 C66.3753629,9.65970623 66.3753629,8.07094592 65.8453126,6.62315265 C65.6245596,6.02018234 65.2272913,5.51821656 64.7246838,5.16699337 C64.2220762,4.81577017 63.6141294,4.61528956 62.9720196,4.61528956 Z" id="Rectangle" stroke="#02627E" stroke-width="1.5" fill="#89B9CD"></path>
                    <path d="M40.390349,17.9092176 L40.390349,4.8585677 C40.390349,2.64941257 42.1986865,0.858538484 44.4293839,0.858538484 L52.5074537,0.858538484 C54.738151,0.858538484 56.5464886,2.64941257 56.5464886,4.8585677 L56.5464886,20.8654137 C50.6813665,24.1163893 45.2959867,24.1163893 40.390349,20.8654137 L40.3875523,18.8130255 L40.390349,17.9092176 Z" id="Path" fill="#B4D3E3"></path>
                    <path d="M53.3088371,21.7143975 C51.6659701,22.4191394 50.3890835,22.8606157 49.4781775,23.0388265 L49.4781775,0.865267641 L53.3088371,0.865267641 L53.3088371,21.7143975 Z" id="Path" fill="#89B9CD"></path>
                    <path d="M40.390349,17.9092176 L40.390349,4.8585677 C40.390349,2.64941257 42.1986865,0.858538484 44.4293839,0.858538484 L52.5074537,0.858538484 C54.738151,0.858538484 56.5464886,2.64941257 56.5464886,4.8585677 L56.5464886,20.8654137 C50.6813665,24.1163893 45.2959867,24.1163893 40.390349,20.8654137 L40.3875523,18.8130255 L40.390349,17.9092176 Z" id="Path-Copy-6" stroke="#02627E" stroke-width="1.5"></path>
                </g>
                <g id="tomb-copy-2" transform="translate(320.101659, 0.134740)">
                    <path d="M64.5301556,6.00837727 L101.327599,6.00837727 C102.81376,6.00837727 104.2229,6.66949418 105.17284,7.81242332 L125.346799,32.0849043 C126.093029,32.9827387 126.501558,34.1133964 126.501558,35.2808582 L126.501558,180.118234 L126.501558,180.118234 L120.927117,180.118234 L120.927117,37.0781129 C120.927117,36.3768095 120.681423,35.6976681 120.232724,35.1586916 L101.740559,12.9459266 C101.170584,12.261273 100.325808,11.865348 99.4349529,11.865348 L64.5301556,11.865348 L64.5301556,11.865348 L64.5301556,6.00837727 Z" id="Path-2" fill="#89B9CD"></path>
                    <polygon id="Path-3" fill="#1E6B84" points="64.5301556 6.00837727 79.6765365 6.00837727 79.6765365 11.9520471 64.5301556 11.9520471"></polygon>
                    <path d="M1.3553318,189.366645 L1.3553318,44.3666765 C12.8632509,26.1223083 28.9041994,17.0001242 49.4781775,17.0001242 C70.0521556,17.0001242 85.5647477,26.1223083 96.0159541,44.3666765 L96.0159541,189.052014 C64.9907697,201.718774 33.4372289,202.158264 1.3553318,190.370485 L1.35220788,189.787337 L1.3553318,189.366645 Z" id="Path-Copy-5" fill="#B4D3E3"></path>
                    <path d="M86.1014732,192.376146 C77.6586193,194.981296 69.8541643,196.914603 64.8919967,197.631862 L64.8919967,51.0308465 C65.6851142,41.454397 60.5471745,30.1108229 49.4781775,17.0001242 C70.4448337,25.8196003 82.2852842,35.7784482 84.999529,46.8766682 L86.1014732,185.68658 L86.1014732,192.376146 Z" id="Path" fill="#A5C9DC"></path>
                    <path d="M11.107346,17.0001242 C32.0740022,25.8196003 43.9144527,35.7784482 46.6286974,46.8766682 L47.7306417,185.68658 L47.7306417,192.376146 C45.3994584,193.095463 43.1169457,193.763558 40.9294964,194.368978 L40.9294964,47.6987615 C39.1282398,36.0692362 29.187523,26.2134576 11.107346,18.1314254 L11.1187369,17.549393 L11.107346,17.0001242 Z" id="Path" fill="#A5C9DC" transform="translate(29.418994, 105.684551) scale(-1, 1) translate(-29.418994, -105.684551) "></path>
                    <path d="M1.35220788,180.361925 L1.3553318,44.3666765 C12.8632509,26.1223083 28.9041994,17.0001242 49.4781775,17.0001242 C70.0521556,17.0001242 85.5647477,26.1223083 96.0159541,44.3666765 L96.0159541,189.052014 C64.9907697,201.718774 33.4372289,202.158264 1.3553318,190.370485 L1.35220788,172.126849 L1.35220788,180.361925 Z" id="Path-Copy-7" stroke="#02627E" stroke-width="1.5"></path>
                    <path d="M1.3553318,44.3666765 C31.5171475,53.2522365 63.0706882,53.2522365 96.0159541,44.3666765" id="Path-67" stroke="#02627E" stroke-width="1.5"></path>
                    <path d="M1.33506168,86.4550398 C0.462257119,86.9907072 0,87.5498774 0,88.1249392 C0,92.0650015 21.7000502,95.2590531 48.4684188,95.2590531 C75.2367873,95.2590531 96.9368375,92.0650015 96.9368375,88.1249392 C96.9368375,87.7573266 96.747936,87.396208 96.3836413,87.0435719" id="Path" stroke="#02627E" stroke-width="1.5"></path>
                    <path d="M1.33506168,126.455332 C0.462257119,126.990999 0,127.55017 0,128.125231 C0,132.065294 21.7000502,135.259345 48.4684188,135.259345 C75.2367873,135.259345 96.9368375,132.065294 96.9368375,128.125231 C96.9368375,127.757619 96.747936,127.3965 96.3836413,127.043864" id="Path-Copy-4" stroke="#02627E" stroke-width="1.5"></path>
                    <path d="M62.9720196,4.61528956 L56.2867298,4.61528956 L56.2867298,13.1153626 L62.9720196,13.1153626 C63.6141294,13.1153626 64.2220762,12.914882 64.7246838,12.5636588 C65.2272913,12.2124356 65.6245596,11.7104698 65.8453126,11.1074995 C66.3753629,9.65970623 66.3753629,8.07094592 65.8453126,6.62315265 C65.6245596,6.02018234 65.2272913,5.51821656 64.7246838,5.16699337 C64.2220762,4.81577017 63.6141294,4.61528956 62.9720196,4.61528956 Z" id="Rectangle" stroke="#02627E" stroke-width="1.5" fill="#89B9CD"></path>
                    <path d="M40.390349,17.9092176 L40.390349,4.8585677 C40.390349,2.64941257 42.1986865,0.858538484 44.4293839,0.858538484 L52.5074537,0.858538484 C54.738151,0.858538484 56.5464886,2.64941257 56.5464886,4.8585677 L56.5464886,20.8654137 C50.6813665,24.1163893 45.2959867,24.1163893 40.390349,20.8654137 L40.3875523,18.8130255 L40.390349,17.9092176 Z" id="Path" fill="#B4D3E3"></path>
                    <path d="M53.3088371,21.7143975 C51.6659701,22.4191394 50.3890835,22.8606157 49.4781775,23.0388265 L49.4781775,0.865267641 L53.3088371,0.865267641 L53.3088371,21.7143975 Z" id="Path" fill="#89B9CD"></path>
                    <path d="M40.390349,17.9092176 L40.390349,4.8585677 C40.390349,2.64941257 42.1986865,0.858538484 44.4293839,0.858538484 L52.5074537,0.858538484 C54.738151,0.858538484 56.5464886,2.64941257 56.5464886,4.8585677 L56.5464886,20.8654137 C50.6813665,24.1163893 45.2959867,24.1163893 40.390349,20.8654137 L40.3875523,18.8130255 L40.390349,17.9092176 Z" id="Path-Copy-6" stroke="#02627E" stroke-width="1.5"></path>
                </g>
                <polygon id="Path-51" stroke="#02627E" stroke-width="1.5" fill="url(#linearGradient-9)" points="151.471952 121.606636 178.059734 107.000782 434.570061 107.000782 463.487398 121.797027 463.487398 134.000979 151.471952 134.000979"></polygon>
                <polygon id="Path-50" fill="#BBDBEC" points="151.471952 228.001665 463.487398 228.001665 463.487398 122.000891 151.471952 122.000891"></polygon>
                <polygon id="Path-50-Copy" stroke="#02627E" stroke-width="1.5" points="151.471952 228.001665 463.487398 228.001665 463.487398 122.000891 151.471952 122.000891"></polygon>
                <path d="M182.71592,169.001234 L222.213615,169.001234 C225.527323,169.001234 228.213615,171.687526 228.213615,175.001234 L228.213615,199.001497 C228.213615,202.315206 225.527323,205.001497 222.213615,205.001497 L182.71592,205.001497 C179.402211,205.001497 176.71592,202.315206 176.71592,199.001497 L176.71592,175.001234 C176.71592,171.687526 179.402211,169.001234 182.71592,169.001234 Z" id="Rectangle" fill="#A5C9DC"></path>
                <rect id="Rectangle-Copy-6" fill="#B4D3E3" x="178.735437" y="171.001249" width="47.45866" height="32.0002337" rx="5"></rect>
                <rect id="Rectangle-Copy" stroke="#02627E" stroke-width="1.5" x="179.485437" y="171.751249" width="45.95866" height="30.5002337"></rect>
                <rect id="Rectangle" fill="#1D6B84" x="204.989164" y="157.001147" width="7.06831107" height="7.00005113"></rect>
                <rect id="Rectangle-Copy-7" fill="#A5C9DC" x="180.754955" y="157.001147" width="7.06831107" height="7.00005113"></rect>
                <rect id="Rectangle-Copy-2" fill="#1D6B84" x="217.106269" y="157.001147" width="7.06831107" height="7.00005113"></rect>
                <rect id="Rectangle-Copy-4" fill="#1D6B84" x="204.989164" y="145.001059" width="7.06831107" height="7.00005113"></rect>
                <rect id="Rectangle-Copy-3" fill="#1D6B84" x="217.106269" y="145.001059" width="7.06831107" height="7.00005113"></rect>
                <rect id="Rectangle-Copy-5" fill="#1D6B84" x="217.106269" y="133.000972" width="7.06831107" height="7.00005113"></rect>
                <g id="Group-6" transform="translate(250.428307, 122.000891)" stroke="#02627E" stroke-width="1.5">
                    <line x1="0.504879362" y1="-9.16617631e-13" x2="0.504879362" y2="105.18614" id="Path-4"></line>
                    <line x1="112.827342" y1="-9.16617631e-13" x2="112.827342" y2="105.18614" id="Path-4-Copy"></line>
                </g>
            </g>
        </g>
    </g>
</svg>