<?xml version="1.0" encoding="UTF-8"?>
<svg width="20px" height="40px" viewBox="0 0 20 40" version="1.1" xmlns="http://www.w3.org/2000/svg" xmlns:xlink="http://www.w3.org/1999/xlink">
    <!-- Generator: Sketch 52 (66869) - http://www.bohemiancoding.com/sketch -->
    <title>Bypass valve 1</title>
    <desc>Created with Sketch.</desc>
    <defs>
        <linearGradient x1="50%" y1="0%" x2="50%" y2="129.331989%" id="linearGradient-1">
            <stop stop-color="#282828" offset="0%"></stop>
            <stop stop-color="#C6D0E1" offset="100%"></stop>
        </linearGradient>
    </defs>
    <g id="Chillers" stroke="none" stroke-width="1" fill="none" fill-rule="evenodd">
        <g id="Desktop-HD-Copy-5" transform="translate(-960.000000, -560.000000)">
            <g id="Bypass-valve-1" transform="translate(960.000000, 560.000000)">
                <path d="M8,9 L8,6 L2,6 C0.8954305,6 1.3527075e-16,5.1045695 0,4 L0,2 C-1.3527075e-16,0.8954305 0.8954305,2.02906125e-16 2,0 L18,0 C19.1045695,-2.02906125e-16 20,0.8954305 20,2 L20,4 C20,5.1045695 19.1045695,6 18,6 L12,6 L12,9 L14,9 C14.5522847,9 15,9.44771525 15,10 L15,20 C15,20.5522847 14.5522847,21 14,21 L12,21 L12,26 L8,26 L8,21 L6,21 C5.44771525,21 5,20.5522847 5,20 L5,10 C5,9.44771525 5.44771525,9 6,9 L8,9 Z" id="Combined-Shape" fill="#0B4B8C"></path>
                <path d="M9,11.6964869 L11,11.6964869 C11.5522847,11.6964869 12,12.1442021 12,12.6964869 L12,17 C12,17.5522847 11.5522847,18 11,18 L9,18 C8.44771525,18 8,17.5522847 8,17 L8,12.6964869 C8,12.1442021 8.44771525,11.6964869 9,11.6964869 Z" id="Rectangle" fill="#FFFFFF"></path>
                <path d="M15,39 L5,39 L5,40 L0,40 L0,25 L5,25 L5,26 L15,26 L15,25 L20,25 L20,40 L15,40 L15,39 Z" id="Combined-Shape" fill="url(#linearGradient-1)"></path>
            </g>
        </g>
    </g>
</svg>