<?xml version="1.0" encoding="UTF-8"?>
<svg width="76px" height="111px" viewBox="0 0 76 111" version="1.1" xmlns="http://www.w3.org/2000/svg" xmlns:xlink="http://www.w3.org/1999/xlink">
    <!-- Generator: Sketch 52 (66869) - http://www.bohemiancoding.com/sketch -->
    <title>Damper 2</title>
    <desc>Created with Sketch.</desc>
    <defs>
        <linearGradient x1="100%" y1="15.1876786%" x2="0%" y2="15.1876786%" id="linearGradient-1">
            <stop stop-color="#424951" offset="0%"></stop>
            <stop stop-color="#909CAC" offset="100%"></stop>
        </linearGradient>
    </defs>
    <g id="AHU-Illustration" stroke="none" stroke-width="1" fill="none" fill-rule="evenodd">
        <g id="Components" transform="translate(-952.000000, -621.000000)">
            <g id="Damper-2" transform="translate(990.000000, 676.000000) rotate(-90.000000) translate(-990.000000, -676.000000) translate(934.000000, 638.000000)">
                <polygon id="Path-8-Copy-2" fill="#848E9C" points="23.5 75.5 0.539912025 75.5 0.539912025 0.5 23.5 0.5"></polygon>
                <polygon id="Path-9-Copy" fill="#5B6777" points="23.5076509 0.5 71.5 0.5 71.5 32.5481821 71.5 75.5 23.5076509 75.5"></polygon>
                <g id="Group-24" transform="translate(7.000000, 24.000000)">
                    <path d="M0.280285092,2.43638047 L0.280285092,1.02825769 C0.280285092,0.475972942 0.728000342,0.0282576921 1.28028509,0.0282576921 L78.0342862,0.0282576921 C78.5865709,0.0282576921 79.0342862,0.475972942 79.0342862,1.02825769 L79.0342862,2.43638047 C79.0342862,2.98866522 78.5865709,3.43638047 78.0342862,3.43638047 L1.28028509,3.43638047 C0.728000342,3.43638047 0.280285092,2.98866522 0.280285092,2.43638047 Z" id="Path-20" stroke="#97A2A9" fill="#B1C2CD"></path>
                    <polygon id="Path-21" stroke="#B2C0CA" fill="#AFC0CB" points="0.887607606 3.43638047 26.0719565 30.0704697 93.4512699 30.0704697 70 3.43638047"></polygon>
                </g>
                <path d="M48.0719565,27.8532465 L71.6586303,53.8705677 C71.8481874,54.0796589 72.117272,54.1989157 72.3994972,54.1989157 L73.2710972,54.1989157 C73.5920659,54.1989157 73.8522624,53.9387192 73.8522624,53.6177506 C73.8522624,53.473059 73.7982883,53.3335708 73.7008956,53.2265648 L50.3087763,27.5254925 C50.1192694,27.31728 49.8507714,27.1985985 49.5692304,27.1985985 L48.3620928,27.1985985" id="Path-25-Copy-4" stroke="#C1C1C1" fill="#EEF5FF"></path>
                <path d="M61.0719565,27.8532465 L84.6586303,53.8705677 C84.8481874,54.0796589 85.117272,54.1989157 85.3994972,54.1989157 L86.2710972,54.1989157 C86.5920659,54.1989157 86.8522624,53.9387192 86.8522624,53.6177506 C86.8522624,53.473059 86.7982883,53.3335708 86.7008956,53.2265648 L63.3087763,27.5254925 C63.1192694,27.31728 62.8507714,27.1985985 62.5692304,27.1985985 L61.3620928,27.1985985" id="Path-25-Copy-6" stroke="#C1C1C1" fill="#EEF5FF"></path>
                <polygon id="Path-8-Copy-3" fill="url(#linearGradient-1)" points="100.5 75.5 70.5401216 75.5 70.5401216 0.5 100.5 0.5"></polygon>
                <g id="Group-25" transform="translate(77.000000, 15.000000)">
                    <polygon id="Path-22" fill="#BF4600" points="0.815519237 0.977876561 24.2946026 0.977876561 24.2946026 21.7915768 0.815519237 21.7915768"></polygon>
                    <path d="M0.280285092,11.4363805 L0.280285092,10.0282577 C0.280285092,9.47597294 0.728000342,9.02825769 1.28028509,9.02825769 L8.03428619,9.02825769 C8.58657094,9.02825769 9.03428619,9.47597294 9.03428619,10.0282577 L9.03428619,11.4363805 C9.03428619,11.9886652 8.58657094,12.4363805 8.03428619,12.4363805 L1.28028509,12.4363805 C0.728000342,12.4363805 0.280285092,11.9886652 0.280285092,11.4363805 Z" id="Path-20-Copy" stroke="#B4C2CC" fill="#B1C2CD"></path>
                    <circle id="Oval-Copy-4" fill="#E8ECEF" cx="12" cy="11" r="4"></circle>
                    <polygon id="Path-23" fill="#EB793C" points="24.2300118 0.96614953 33.1576236 10.0428871 32.8641924 30.207925 24.2300118 21.7452047"></polygon>
                    <polygon id="Path-24" fill="#A53C00" points="0.885760542 21.6388559 9.14685411 30.121448 32.7320552 30.121448 24.2309984 21.6388559"></polygon>
                </g>
                <path d="M23.0719565,27.8532465 L46.6586303,53.8705677 C46.8481874,54.0796589 47.117272,54.1989157 47.3994972,54.1989157 L48.2710972,54.1989157 C48.5920659,54.1989157 48.8522624,53.9387192 48.8522624,53.6177506 C48.8522624,53.473059 48.7982883,53.3335708 48.7008956,53.2265648 L25.3087763,27.5254925 C25.1192694,27.31728 24.8507714,27.1985985 24.5692304,27.1985985 L23.3620928,27.1985985" id="Path-25" stroke="#C1C1C1" fill="#EEF5FF"></path>
                <path d="M36.0719565,27.8532465 L59.6586303,53.8705677 C59.8481874,54.0796589 60.117272,54.1989157 60.3994972,54.1989157 L61.2710972,54.1989157 C61.5920659,54.1989157 61.8522624,53.9387192 61.8522624,53.6177506 C61.8522624,53.473059 61.7982883,53.3335708 61.7008956,53.2265648 L38.3087763,27.5254925 C38.1192694,27.31728 37.8507714,27.1985985 37.5692304,27.1985985 L36.3620928,27.1985985" id="Path-25-Copy-2" stroke="#C1C1C1" fill="#EEF5FF"></path>
            </g>
        </g>
    </g>
</svg>