<?xml version="1.0" encoding="UTF-8"?>
<svg width="110px" height="75px" viewBox="0 0 110 75" version="1.1" xmlns="http://www.w3.org/2000/svg" xmlns:xlink="http://www.w3.org/1999/xlink">
    <!-- Generator: Sketch 52 (66869) - http://www.bohemiancoding.com/sketch -->
    <title>Damper 1</title>
    <desc>Created with Sketch.</desc>
    <defs>
        <linearGradient x1="100%" y1="15.1876786%" x2="0%" y2="15.1876786%" id="linearGradient-1">
            <stop stop-color="#424951" offset="0%"></stop>
            <stop stop-color="#909CAC" offset="100%"></stop>
        </linearGradient>
    </defs>
    <g id="AHU-Illustration" stroke="none" stroke-width="1" fill="none" fill-rule="evenodd">
        <g id="Components" transform="translate(-785.000000, -637.000000)">
            <g id="Damper-1" transform="translate(785.000000, 637.000000)">
                <polygon id="Path-8-Copy-2" fill="#848E9C" points="22.960088 75 0 75 0 0 22.960088 0"></polygon>
                <polygon id="Path-9-Copy" fill="#5B6777" points="23 0 74.9923491 0 74.9923491 32.0481821 74.9923491 75 23 75"></polygon>
                <g id="Group-24" transform="translate(6.000000, 18.000000)">
                    <path d="M0.280285092,2.43638047 L0.280285092,1.02825769 C0.280285092,0.475972942 0.728000342,0.0282576921 1.28028509,0.0282576921 L78.0342862,0.0282576921 C78.5865709,0.0282576921 79.0342862,0.475972942 79.0342862,1.02825769 L79.0342862,2.43638047 C79.0342862,2.98866522 78.5865709,3.43638047 78.0342862,3.43638047 L1.28028509,3.43638047 C0.728000342,3.43638047 0.280285092,2.98866522 0.280285092,2.43638047 Z" id="Path-20" stroke="#97A2A9" fill="#B1C2CD"></path>
                    <polygon id="Path-21" stroke="#B2C0CA" fill="#AFC0CB" points="0.887607606 3.43638047 26.0719565 30.0704697 93.4512699 30.0704697 70 3.43638047"></polygon>
                </g>
                <path d="M46.0719565,21.8532465 L69.6586303,47.8705677 C69.8481874,48.0796589 70.117272,48.1989157 70.3994972,48.1989157 L71.2710972,48.1989157 C71.5920659,48.1989157 71.8522624,47.9387192 71.8522624,47.6177506 C71.8522624,47.473059 71.7982883,47.3335708 71.7008956,47.2265648 L48.3087763,21.5254925 C48.1192694,21.31728 47.8507714,21.1985985 47.5692304,21.1985985 L46.3620928,21.1985985" id="Path-25-Copy-4" stroke="#C1C1C1" fill="#EEF5FF"></path>
                <path d="M58.0719565,21.8532465 L81.6586303,47.8705677 C81.8481874,48.0796589 82.117272,48.1989157 82.3994972,48.1989157 L83.2710972,48.1989157 C83.5920659,48.1989157 83.8522624,47.9387192 83.8522624,47.6177506 C83.8522624,47.473059 83.7982883,47.3335708 83.7008956,47.2265648 L60.3087763,21.5254925 C60.1192694,21.31728 59.8507714,21.1985985 59.5692304,21.1985985 L58.3620928,21.1985985" id="Path-25-Copy-6" stroke="#C1C1C1" fill="#EEF5FF"></path>
                <polygon id="Path-8-Copy-3" fill="url(#linearGradient-1)" points="99.9598784 75 70 75 70 0 99.9598784 0"></polygon>
                <g id="Group-25" transform="translate(76.000000, 9.000000)">
                    <polygon id="Path-22" fill="#BF4600" points="0.815519237 0.977876561 24.2946026 0.977876561 24.2946026 21.7915768 0.815519237 21.7915768"></polygon>
                    <path d="M0.280285092,11.4363805 L0.280285092,10.0282577 C0.280285092,9.47597294 0.728000342,9.02825769 1.28028509,9.02825769 L8.03428619,9.02825769 C8.58657094,9.02825769 9.03428619,9.47597294 9.03428619,10.0282577 L9.03428619,11.4363805 C9.03428619,11.9886652 8.58657094,12.4363805 8.03428619,12.4363805 L1.28028509,12.4363805 C0.728000342,12.4363805 0.280285092,11.9886652 0.280285092,11.4363805 Z" id="Path-20-Copy" stroke="#B4C2CC" fill="#B1C2CD"></path>
                    <circle id="Oval-Copy-4" fill="#E8ECEF" cx="12" cy="11" r="4"></circle>
                    <polygon id="Path-23" fill="#EB793C" points="24.2300118 0.96614953 33.1576236 10.0428871 32.8641924 30.207925 24.2300118 21.7452047"></polygon>
                    <polygon id="Path-24" fill="#A53C00" points="0.885760542 21.6388559 9.14685411 30.121448 32.7320552 30.121448 24.2309984 21.6388559"></polygon>
                </g>
                <path d="M22.0719565,21.8532465 L45.6586303,47.8705677 C45.8481874,48.0796589 46.117272,48.1989157 46.3994972,48.1989157 L47.2710972,48.1989157 C47.5920659,48.1989157 47.8522624,47.9387192 47.8522624,47.6177506 C47.8522624,47.473059 47.7982883,47.3335708 47.7008956,47.2265648 L24.3087763,21.5254925 C24.1192694,21.31728 23.8507714,21.1985985 23.5692304,21.1985985 L22.3620928,21.1985985" id="Path-25" stroke="#C1C1C1" fill="#EEF5FF"></path>
                <path d="M34.0719565,21.8532465 L57.6586303,47.8705677 C57.8481874,48.0796589 58.117272,48.1989157 58.3994972,48.1989157 L59.2710972,48.1989157 C59.5920659,48.1989157 59.8522624,47.9387192 59.8522624,47.6177506 C59.8522624,47.473059 59.7982883,47.3335708 59.7008956,47.2265648 L36.3087763,21.5254925 C36.1192694,21.31728 35.8507714,21.1985985 35.5692304,21.1985985 L34.3620928,21.1985985" id="Path-25-Copy-2" stroke="#C1C1C1" fill="#EEF5FF"></path>
            </g>
        </g>
    </g>
</svg>