<?xml version="1.0" encoding="UTF-8"?>
<svg width="100px" height="101px" viewBox="0 0 100 101" version="1.1" xmlns="http://www.w3.org/2000/svg" xmlns:xlink="http://www.w3.org/1999/xlink">
    <!-- Generator: Sketch 52 (66869) - http://www.bohemiancoding.com/sketch -->
    <title>L shaped duct 3</title>
    <desc>Created with Sketch.</desc>
    <defs>
        <linearGradient x1="73.8528983%" y1="0%" x2="73.8528983%" y2="100%" id="linearGradient-1">
            <stop stop-color="#282828" offset="0%"></stop>
            <stop stop-color="#C6D0E1" offset="100%"></stop>
        </linearGradient>
        <linearGradient x1="0%" y1="25.2779199%" x2="100%" y2="25.2779199%" id="linearGradient-2">
            <stop stop-color="#424951" offset="0%"></stop>
            <stop stop-color="#909CAC" offset="100%"></stop>
        </linearGradient>
    </defs>
    <g id="AHU-Illustration" stroke="none" stroke-width="1" fill="none" fill-rule="evenodd">
        <g id="Types-of-Ducts" transform="translate(-105.000000, -604.000000)">
            <g id="L-shaped-duct-3" transform="translate(155.000000, 654.500000) scale(-1, 1) translate(-155.000000, -654.500000) translate(105.000000, 604.000000)">
                <g id="Group-Copy-4" transform="translate(0.000000, 78.000000)" fill="#848E9C">
                    <polygon id="Path-4-Copy" points="-3.55271368e-13 -5.5067062e-14 0 22.935481 100 22.935481 77 0.147737631"></polygon>
                </g>
                <polygon id="Path-8-Copy" fill="#848E9C" points="100 100.935481 77 79.5 77 0.977886673 100 0.977886673"></polygon>
                <polygon id="Path-9" fill="#5B6777" points="2.99194006e-29 1 77 1 77 78.1477376 0 78"></polygon>
                <polygon id="Path-4" fill="url(#linearGradient-1)" opacity="0.5" points="0 1 0 31 30 31"></polygon>
                <polygon id="Path-8" fill="url(#linearGradient-2)" points="29.960088 32.2938705 -4.54747351e-13 1 29.960088 1"></polygon>
            </g>
        </g>
    </g>
</svg>