<?xml version="1.0" encoding="UTF-8"?>
<svg width="251px" height="140px" viewBox="0 0 251 140" version="1.1" xmlns="http://www.w3.org/2000/svg" xmlns:xlink="http://www.w3.org/1999/xlink">
    <!-- Generator: Sketch 63.1 (92452) - https://sketch.com -->
    <title>pump-1-default</title>
    <desc>Created with Sketch.</desc>
    <g id="Page-1" stroke="none" stroke-width="1" fill="none" fill-rule="evenodd">
        <g id="pump-1-default" transform="translate(-4.000000, -55.000000)">
            <g transform="translate(5.000000, 55.000000)" id="Group-61">
                <g transform="translate(0.000000, 0.251122)">
                    <path d="M43.0041495,30.1460484 L43.0041495,108.951178 C43.0041495,109.258517 42.7597616,109.161258 42.4580953,109.161258 L14.3458521,109.161258 C6.65145253,109.161258 0.408105966,91.7304883 0.408105966,69.8277469 C0.408105966,47.9055538 6.65145253,30.1460484 14.3458521,30.1460484 L43.0041495,30.1460484 Z" id="Fill-4" fill="#BFD2E0" fill-rule="nonzero"></path>
                    <path d="M43.0041495,30.1460484 L43.0041495,108.951178 C43.0041495,109.258517 42.7597616,109.161258 42.4580953,109.161258 L14.3458521,109.161258 C6.65145253,109.161258 0.408105966,91.7304883 0.408105966,69.8277469 C0.408105966,47.9055538 6.65145253,30.1460484 14.3458521,30.1460484 L43.0041495,30.1460484 Z" id="Stroke-5" stroke="#386079" stroke-width="1.5"></path>
                    <path d="M29.0583843,69.8265798 C29.0583843,47.9121674 35.3055495,30.1487717 43.0114047,30.1487717 C50.71726,30.1487717 56.9644252,47.9121674 56.9644252,69.8265798 C56.9644252,91.7390471 50.71726,109.504388 43.0114047,109.504388 C35.3055495,109.504388 29.0583843,91.7390471 29.0583843,69.8265798" id="Fill-6" fill="#9BB7C9" fill-rule="nonzero"></path>
                    <path d="M29.0583843,69.8265798 C29.0583843,47.9121674 35.3055495,30.1487717 43.0114047,30.1487717 C50.71726,30.1487717 56.9644252,47.9121674 56.9644252,69.8265798 C56.9644252,91.7390471 50.71726,109.175869 43.0114047,109.175869 C35.3055495,109.175869 29.0583843,91.7390471 29.0583843,69.8265798 Z" id="Stroke-7" stroke="#386079" stroke-width="1.5"></path>
                    <path d="M104.941202,39.2687543 L104.941202,100.082902 C104.941202,100.250188 104.812458,100.386351 104.654287,100.386351 L45.2775135,100.386351 C39.5759896,100.386351 34.9412024,86.711726 34.9412024,69.8275524 C34.9412024,52.9433788 39.5759896,39.2687543 45.2775135,39.2687543 L104.941202,39.2687543 Z" id="Fill-8" fill="#D7E6F0" fill-rule="nonzero"></path>
                    <path d="M104.941202,39.2687543 L104.941202,100.082902 C104.941202,100.250188 104.807553,100.386351 104.643355,100.386351 L46.0041495,100.386351 C40.0853805,100.386351 35.2739941,86.711726 35.2739941,69.8275524 C35.2739941,52.9433788 40.0853805,39.2687543 46.0041495,39.2687543 L104.941202,39.2687543 Z" id="Stroke-9" stroke="#386079" stroke-width="1.5"></path>
                    <path d="M94.1873721,70.1267214 C94.1873721,53.0830428 98.9987584,39.26642 104.932802,39.26642 C110.868754,39.26642 115.68014,53.0830428 115.68014,70.1267214 C115.68014,87.1684547 110.868754,100.987023 104.932802,100.987023 C98.9987584,100.987023 94.1873721,87.1684547 94.1873721,70.1267214" id="Fill-10" fill="#BFD2E0" fill-rule="nonzero"></path>
                    <path d="M94.1873721,70.1267214 C94.1873721,53.0830428 98.9987584,39.26642 104.932802,39.26642 C110.868754,39.26642 115.68014,53.0830428 115.68014,70.1267214 C115.68014,87.1684547 110.868754,100.386351 104.932802,100.386351 C98.9987584,100.386351 94.1873721,87.1684547 94.1873721,70.1267214 Z" id="Stroke-11" stroke="#386079" stroke-width="1.5"></path>
                    <path d="M99.7252516,69.8265798 C99.7252516,56.8113717 103.978362,46.2607084 109.225252,46.2607084 C114.472141,46.2607084 118.725252,56.8113717 118.725252,69.8265798 C118.725252,82.8417879 114.472141,93.3924512 109.225252,93.3924512 C103.978362,93.3924512 99.7252516,82.8417879 99.7252516,69.8265798" id="Fill-12" fill="#9BB7C9" fill-rule="nonzero"></path>
                    <path d="M150.272909,51.3094266 L150.272909,88.3476236 L112.216324,88.3476236 C108.607784,88.3476236 105.705678,80.059206 105.705678,69.8275524 C105.705678,59.5958988 108.607784,51.3094266 112.216324,51.3094266 L150.272909,51.3094266 Z" id="Fill-14" fill="#BFD2E0" fill-rule="nonzero"></path>
                    <g id="Group" transform="translate(182.721591, 0.517224)">
                        <polygon id="Fill-15" fill="#BFD2E0" fill-rule="nonzero" points="3.47141866 27.4923083 31.2427679 27.4923083 31.2427679 1.72413793 3.47141866 1.778603"></polygon>
                        <polyline id="Path" stroke="#386079" stroke-width="1.5" points="3.47141866 2.5469496 3.47141866 29.2606548 31.2427679 29.2606548 31.2427679 2.49248453"></polyline>
                        <polygon id="Rectangle" fill="#386079" fill-rule="nonzero" points="0 0.0986737412 34.7141866 0.0986737412 34.7141866 3.44391614 32.9678278 3.5469496 1.73570933 3.5469496 0 3.44391614"></polygon>
                    </g>
                    <polygon id="Fill-16" fill="#9BB7C9" fill-rule="nonzero" points="210.095422 12.419116 210.095422 28.1614683 206.612895 28.1303453 206.612895 16.2608491"></polygon>
                    <polygon id="Fill-18" fill="#BFD2E0" fill-rule="nonzero" points="206.655042 16.28672 190.456314 16.2322549 190.41216 28.1328741 206.612895 27.5707167"></polygon>
                    <path d="M191.434309,16.2608491 L206.613086,16.2608491 L210.095614,12.419116 L204.291402,14.4965697 C201.29765,15.5703097 197.964047,14.7572239 195.772193,12.419116 L191.434309,16.2608491 Z" id="Fill-19" fill="#D7E6F0" fill-rule="nonzero"></path>
                    <path d="M156.787564,69.8265798 C156.787564,80.0562883 153.870184,88.3524866 150.2731,88.3524866 C146.674107,88.3524866 143.758636,80.0562883 143.758636,69.8265798 C143.758636,59.5949262 146.674107,51.3006731 150.2731,51.3006731 C153.870184,51.3006731 156.787564,59.5949262 156.787564,69.8265798" id="Fill-20" fill="#6C91A8" fill-rule="nonzero"></path>
                    <path d="M156.787564,69.8265798 C156.787564,80.0562883 153.870184,88.3524866 150.2731,88.3524866 C146.674107,88.3524866 143.758636,80.0562883 143.758636,69.8265798 C143.758636,59.5949262 146.674107,51.3006731 150.2731,51.3006731 C153.870184,51.3006731 156.787564,59.5949262 156.787564,69.8265798 Z" id="Stroke-21" stroke="#386079" stroke-width="1.5"></path>
                    <path d="M171.549848,60.413264 L171.549848,79.2231671 L151.273291,79.2231671 C149.440382,79.2231671 147.968327,75.0215755 147.968327,69.8279414 C147.968327,64.6343074 149.440382,60.413264 151.273291,60.413264 L171.549848,60.413264 Z" id="Fill-22" fill="#9BB7C9" fill-rule="nonzero"></path>
                    <path d="M219.34456,23.1297619 L219.34456,116.523398 C219.34451,117.075663 218.896825,117.52337 218.34456,117.523448 L180.744641,117.525343 L180.744641,117.525343 C171.484631,117.525343 163.98116,96.1653072 163.98116,69.8275524 C163.98116,43.4897976 171.484631,22.1317071 180.744641,22.1317071 L218.34456,22.1298123 C218.896845,22.1297341 219.344583,22.5774268 219.344611,23.1297115 C219.344611,23.1297283 219.344611,23.1297451 219.34456,23.1297619 Z" id="Fill-24" fill="#BFD2E0" fill-rule="nonzero"></path>
                    <path d="M216.34456,22.1297619 L216.34456,117.523398 L180.744641,117.525343 C171.484631,117.525343 163.98116,96.1653072 163.98116,69.8275524 C163.98116,43.4897976 171.484631,22.1317071 180.744641,22.1317071 L216.34456,22.1297619 Z" id="Stroke-25" stroke="#386079" stroke-width="1.5" stroke-linecap="round" stroke-linejoin="round"></path>
                    <path d="M216.071921,22.1287893 C223.528463,22.1287893 229.571152,43.4849347 229.571152,69.8265798 C229.571152,96.168225 223.528463,117.522425 216.071921,117.522425 C208.616914,117.522425 202.571152,96.168225 202.571152,69.8265798 C202.571152,43.4849347 208.616914,22.1287893 216.071921,22.1287893 Z" id="Fill-26" fill="#9BB7C9" fill-rule="nonzero"></path>
                    <path d="M202.571152,69.8265798 C202.571152,43.4849347 208.616914,22.1287893 216.071921,22.1287893 C223.528463,22.1287893 229.571152,43.4849347 229.571152,69.8265798 C229.571152,96.168225 223.528463,117.522425 216.071921,117.522425 C208.616914,117.522425 202.571152,96.168225 202.571152,69.8265798 Z" id="Stroke-27" stroke="#386079" stroke-width="1.5"></path>
                    <path d="M249.067357,59.7104611 L248.992312,79.7488776 L222.875559,79.7488776 C219.473575,79.7488776 213.034814,79.2479578 213.034814,69.7296693 C213.034814,60.2113807 219.473575,59.7123311 222.875559,59.7123311 L249.067357,59.7104611 Z" id="Fill-28" fill="#BFD2E0" fill-rule="nonzero"></path>
                    <path d="M248.486714,59.7470076 L248.423707,79.7488776 L221.907896,79.7488776 C219.051611,79.7488776 213.05289,79.2671657 213.05289,69.7488771 C213.05289,60.2305884 219.051611,59.7488776 221.907896,59.7488776 L248.486714,59.7470076 Z" id="Stroke-29" stroke="#386079" stroke-width="1.5"></path>
                    <rect id="Rectangle" fill="#386079" x="244" y="60" width="4" height="20"></rect>
                    <line x1="150.272909" y1="51.3008678" x2="112.214988" y2="51.3086484" id="Stroke-33" stroke="#386079" stroke-width="1.5"></line>
                    <line x1="112.21556" y1="88.3505414" x2="150.2731" y2="88.3408153" id="Stroke-34" stroke="#386079" stroke-width="1.5"></line>
                    <path d="M112.350737,51.305536 C112.350737,51.305536 105.706442,51.9046519 105.706442,69.8275524 C105.706442,87.4353334 112.388923,88.3495688 112.388923,88.3495688" id="Stroke-35" stroke="#386079" stroke-width="1.5"></path>
                    <polygon id="Fill-36" fill="#386079" fill-rule="nonzero" points="39.7926123 43.6236262 92.7926123 44.3044397 39.7926123 44.9852531"></polygon>
                    <polygon id="Fill-37" fill="#386079" fill-rule="nonzero" points="37.7926123 49.7972426 90.7926123 50.478056 37.7926123 51.1588695"></polygon>
                    <polygon id="Fill-38" fill="#386079" fill-rule="nonzero" points="36.7926123 55.9710534 89.7926123 56.6518669 36.7926123 57.3326803"></polygon>
                    <polygon id="Fill-39" fill="#386079" fill-rule="nonzero" points="35.7926123 62.91963 88.7926123 63.6004436 35.7926123 64.2812571"></polygon>
                    <polygon id="Fill-40" fill="#386079" fill-rule="nonzero" points="35.7926123 68.9794534 87.7926123 69.6602669 35.7926123 70.3410803"></polygon>
                    <polygon id="Fill-41" fill="#386079" fill-rule="nonzero" points="35.7926123 75.8037329 88.7926123 76.4845464 35.7926123 77.1653598"></polygon>
                    <polygon id="Fill-42" fill="#386079" fill-rule="nonzero" points="35.7926123 82.0076941 89.7926123 82.6885076 35.7926123 83.3673759"></polygon>
                    <polygon id="Fill-43" fill="#386079" fill-rule="nonzero" points="37.7926123 88.2099047 90.7926123 88.8926633 37.7926123 89.5715316"></polygon>
                    <polygon id="Fill-44" fill="#386079" fill-rule="nonzero" points="39.7926123 94.4140605 92.7926123 95.094874 39.7926123 95.7756874"></polygon>
                    <path d="M109.107484,63.6698688 L135.792612,64.1561641 L109.107484,64.6424595 C108.935771,64.6444047 108.795166,64.4304347 108.792612,64.1619997 C108.790189,63.8935647 108.928306,63.671814 109.100018,63.6698688 L109.107484,63.6698688 Z" id="Fill-45" fill="#386079" fill-rule="nonzero"></path>
                    <path d="M109.106902,69.7610095 L134.792612,70.2473048 L109.106902,70.7336002 C108.935507,70.7374905 108.795161,70.5215753 108.792612,70.2531403 C108.790193,69.9847053 108.928055,69.7648998 109.09945,69.7610095 L109.106902,69.7610095 Z" id="Fill-46" fill="#386079" fill-rule="nonzero"></path>
                    <path d="M109.107484,75.8519557 L135.792612,76.338251 L109.107484,76.8245464 C108.935771,76.8284367 108.795166,76.6144667 108.792612,76.3440866 C108.790189,76.0756516 108.928306,75.855846 109.100018,75.8519557 L109.107484,75.8519557 Z" id="Fill-47" fill="#386079" fill-rule="nonzero"></path>
                    <polygon id="Fill-48" fill="#386079" fill-rule="nonzero" points="45.5303183 82.4843519 59.9434752 82.4843519 59.9434752 79.4362528 45.5303183 79.4362528"></polygon>
                    <polygon id="Fill-49" fill="#386079" fill-rule="nonzero" points="46.2825747 94.7312133 60.6957317 94.7312133 60.6957317 91.6831141 46.2825747 91.6831141"></polygon>
                    <polygon id="Fill-50" fill="#FFD2BC" fill-rule="nonzero" points="59.9444298 79.4348912 61.6093222 82.4829902 59.9444298 82.4829902"></polygon>
                    <polygon id="Fill-51" fill="#FFD2BC" fill-rule="nonzero" points="60.6957317 91.6815581 62.5744634 94.7296572 60.6957317 94.7296572"></polygon>
                    <polygon id="Fill-52" fill="#BFD2E0" fill-rule="nonzero" points="6.58806443 138.206404 229.343797 138.206404 226.006376 128.896767 9.38706931 128.896767"></polygon>
                    <polygon id="Stroke-53" stroke="#386079" stroke-width="1.5" points="6.58806443 138.206404 229.343797 138.206404 226.006376 128.896767 9.38706931 128.896767"></polygon>
                    <polygon id="Fill-54" stroke="#386079" stroke-width="1.5" fill="#9BB7C9" fill-rule="nonzero" points="192.493397 75.2473048 178.234891 75.2473048 173.030193 128.89735 197.136767 128.89735"></polygon>
                    <polyline id="Stroke-56" stroke="#386079" stroke-width="1.5" stroke-linecap="square" stroke-linejoin="round" points="190.412924 21.5551553 190.412924 16.2322549 194.901641 12.2640851"></polyline>
                    <polygon id="Fill-57" fill="#9BB7C9" fill-rule="nonzero" points="92.293175 121.826227 50.6842295 121.826227 56.9657617 100.387323 86.1739317 100.387323"></polygon>
                    <polygon id="Stroke-58" stroke="#386079" stroke-width="1.5" points="92.293175 121.826227 50.6842295 121.826227 56.9657617 100.387323 86.1739317 100.387323"></polygon>
                    <polygon id="Fill-59" fill="#9BB7C9" fill-rule="nonzero" points="43.7260483 128.896378 99.0569914 128.896378 99.0569914 121.825644 43.7260483 121.825644"></polygon>
                    <polygon id="Stroke-60" stroke="#386079" stroke-width="1.5" points="43.7260483 128.896378 99.0569914 128.896378 99.0569914 121.825644 43.7260483 121.825644"></polygon>
                </g>
            </g>
        </g>
    </g>
</svg>