<?xml version="1.0" encoding="UTF-8"?>
<svg width="178px" height="191px" viewBox="0 0 178 191" version="1.1" xmlns="http://www.w3.org/2000/svg" xmlns:xlink="http://www.w3.org/1999/xlink">
    <!-- Generator: Sketch 63.1 (92452) - https://sketch.com -->
    <title>Group 3</title>
    <desc>Created with Sketch.</desc>
    <defs>
        <path d="M38.4460047,0.812362115 L8.12629524,0.812362115 C3.3394349,1.09866245 0.946004722,4.43199578 0.946004722,10.8123621 C0.946004722,17.1927284 3.3394349,20.5260618 8.12629524,20.8123621 L38.4460047,20.8123621 L38.4460047,0.812362115 Z" id="path-1"></path>
        <path d="M38.4460047,0.812362115 L8.12629524,0.812362115 C3.3394349,1.09866245 0.946004722,4.43199578 0.946004722,10.8123621 C0.946004722,17.1927284 3.3394349,20.5260618 8.12629524,20.8123621 L38.4460047,20.8123621 L38.4460047,0.812362115 Z" id="path-3"></path>
        <linearGradient x1="49.2867281%" y1="0%" x2="49.2867281%" y2="58.597148%" id="linearGradient-5">
            <stop stop-color="#89B9CD" offset="0%"></stop>
            <stop stop-color="#B4D3E3" offset="100%"></stop>
        </linearGradient>
        <path d="M25.1499725,0.804680247 L8.28563436,0.804680247 L8.28563436,0.804680247 C3.40491401,1.08827326 0.964553834,4.39008589 0.964553834,10.7101181 C0.964553834,17.0301504 3.40491401,20.3319275 8.28563436,20.6154495 L24.3080189,20.7783328 C26.2258966,20.7978299 27.8876816,19.453256 28.268881,17.5735427 L29.6209376,10.9064847 L29.6209376,10.9064847 L28.0923609,3.21957317 C27.8132091,1.81577366 26.5812582,0.804680247 25.1499725,0.804680247 Z" id="path-6"></path>
        <path d="M25.1499725,0.804680247 L8.28563436,0.804680247 L8.28563436,0.804680247 C3.40491401,1.08827326 0.964553834,4.39008589 0.964553834,10.7101181 C0.964553834,17.0301504 3.40491401,20.3319275 8.28563436,20.6154495 L24.3080189,20.7783328 C26.2258966,20.7978299 27.8876816,19.453256 28.268881,17.5735427 L29.6209376,10.9064847 L29.6209376,10.9064847 L28.0923609,3.21957317 C27.8132091,1.81577366 26.5812582,0.804680247 25.1499725,0.804680247 Z" id="path-8"></path>
    </defs>
    <g id="Page-1" stroke="none" stroke-width="1" fill="none" fill-rule="evenodd">
        <g id="heat-exchanger-1" transform="translate(-42.000000, -30.000000)">
            <g id="Group-3" transform="translate(41.000000, 30.000000)">
                <g id="Group-16-Copy-2" transform="translate(90.147059, 95.000000) scale(-1, 1) translate(-90.147059, -95.000000) translate(0.647059, 0.000000)">
                    <g id="Group-4" transform="translate(0.647059, 30.000000)">
                        <g id="in-pipe-copy-2" transform="translate(0.000000, 106.000000)">
                            <g id="Group-2" transform="translate(0.000000, 0.000263)" stroke="#02627E" stroke-width="1.5">
                                <path d="M12.7115385,0.749737032 L9.61538462,0.749737032 C7.18771258,0.749737032 5.02614093,2.33550193 3.4476903,4.7978849 C1.77404823,7.40876654 0.75,11.018045 0.75,14.999737 C0.75,18.9814291 1.77404823,22.5907075 3.4476903,25.2015892 C5.02614093,27.6639721 7.18771258,29.249737 9.61538462,29.249737 L12.7115385,29.249737 L12.7115385,0.749737032 Z" id="Path" fill="#A5C9DC"></path>
                                <ellipse id="Oval" fill="#89B9CD" cx="13.4615385" cy="14.999737" rx="8.86538462" ry="14.25"></ellipse>
                            </g>
                            <path d="M47.1914999,5.01083702 L16.8228087,5.01083702 C12.0282151,5.29713735 9.63091835,8.63047069 9.63091835,15.010837 C9.63091835,21.3912034 12.0282151,24.7245367 16.8228087,25.010837 L47.1914999,25.010837 L47.1914999,5.01083702 Z" id="Path-65" fill="#B4D3E3"></path>
                            <g id="Path" transform="translate(8.669380, 4.000234)">
                                <mask id="mask-2" fill="white">
                                    <use xlink:href="#path-1"></use>
                                </mask>
                                <use id="Mask" fill="#A5C9DC" xlink:href="#path-1"></use>
                                <path d="M1.33529481,4.81236212 C1.07576809,5.97823592 0.946004722,7.31156925 0.946004722,8.81236212 L41.3306201,8.81236212 L41.3306201,4.81236212 L1.33529481,4.81236212 Z" fill="#8FBCD4" mask="url(#mask-2)"></path>
                            </g>
                            <path d="M42.2433608,5.01083702 L16.8228087,5.01083702 L16.8228087,5.01083702 C12.0282151,5.29713735 9.63091835,8.63047069 9.63091835,15.010837 C9.63091835,21.3912034 12.0282151,24.7245367 16.8228087,25.010837 L41.7518204,25.010837 C44.9599242,25.010837 47.7675799,22.8549005 48.59575,19.7555354 L48.7226408,19.2806557 C49.5579772,16.1544714 49.5140673,12.858358 48.59575,9.75553538 C47.7629177,6.94155079 45.178002,5.01083702 42.2433608,5.01083702 Z" id="Path-65-Copy" stroke="#02627E" stroke-width="1.5"></path>
                        </g>
                        <g id="in-pipe-copy-3" transform="translate(153.000000, 121.000000) scale(-1, 1) translate(-153.000000, -121.000000) translate(128.000000, 106.000000)">
                            <g id="Group-2" transform="translate(0.000000, 0.000263)" stroke="#02627E" stroke-width="1.5">
                                <path d="M12.7115385,0.749737032 L9.61538462,0.749737032 C7.18771258,0.749737032 5.02614093,2.33550193 3.4476903,4.7978849 C1.77404823,7.40876654 0.75,11.018045 0.75,14.999737 C0.75,18.9814291 1.77404823,22.5907075 3.4476903,25.2015892 C5.02614093,27.6639721 7.18771258,29.249737 9.61538462,29.249737 L12.7115385,29.249737 L12.7115385,0.749737032 Z" id="Path" fill="#A5C9DC"></path>
                                <ellipse id="Oval" fill="#89B9CD" cx="13.4615385" cy="14.999737" rx="8.86538462" ry="14.25"></ellipse>
                            </g>
                            <path d="M47.1914999,5.01083702 L16.8228087,5.01083702 C12.0282151,5.29713735 9.63091835,8.63047069 9.63091835,15.010837 C9.63091835,21.3912034 12.0282151,24.7245367 16.8228087,25.010837 L47.1914999,25.010837 L47.1914999,5.01083702 Z" id="Path-65" fill="#B4D3E3"></path>
                            <g id="Path" transform="translate(8.669380, 4.000234)">
                                <mask id="mask-4" fill="white">
                                    <use xlink:href="#path-3"></use>
                                </mask>
                                <use id="Mask" fill="#A5C9DC" xlink:href="#path-3"></use>
                                <path d="M1.33529481,4.81236212 C1.07576809,5.97823592 0.946004722,7.31156925 0.946004722,8.81236212 L41.3306201,8.81236212 L41.3306201,4.81236212 L1.33529481,4.81236212 Z" fill="#8FBCD4" mask="url(#mask-4)"></path>
                            </g>
                            <path d="M42.2433608,5.01083702 L16.8228087,5.01083702 L16.8228087,5.01083702 C12.0282151,5.29713735 9.63091835,8.63047069 9.63091835,15.010837 C9.63091835,21.3912034 12.0282151,24.7245367 16.8228087,25.010837 L41.7518204,25.010837 C44.9599242,25.010837 47.7675799,22.8549005 48.59575,19.7555354 L48.7226408,19.2806557 C49.5579772,16.1544714 49.5140673,12.858358 48.59575,9.75553538 C47.7629177,6.94155079 45.178002,5.01083702 42.2433608,5.01083702 Z" id="Path-65-Copy" stroke="#02627E" stroke-width="1.5"></path>
                        </g>
                        <g id="Group" transform="translate(28.352941, 0.000000)" stroke="#02627E" stroke-width="1.25">
                            <path d="M2.49544939,18.066021 L14.7204979,3.5566087 C16.6205512,1.30151272 19.4190561,-3.01102045e-15 22.3678967,0 L95.826799,0 C98.5453314,3.05332737e-15 101.146701,1.10679688 103.031863,3.06551681 L117.185736,17.7716676 C117.367317,17.9603346 117.467652,18.2126981 117.465185,18.4745398 L117.298774,36.1320421 L117.298774,36.1320421 L12.1906694,30.2618444 L2.49544939,18.066021 Z" id="Path-51" fill="url(#linearGradient-5)"></path>
                            <path d="M10,159.938804 L109.786819,159.938804 C115.309667,159.938804 119.786819,155.461652 119.786819,149.938804 L119.786819,24.4842587 C119.786819,18.9614112 115.309667,14.4842587 109.786819,14.4842587 L10,14.4842587 C4.4771525,14.4842587 -6.76353751e-16,18.9614112 0,24.4842587 L0,149.938804 C6.76353751e-16,155.461652 4.4771525,159.938804 10,159.938804 Z" id="Path-50" fill="#B4D3E3"></path>
                        </g>
                    </g>
                    <g id="Group-6" transform="translate(93.647059, 0.000000)">
                        <path d="M18.4523091,43 C26.460438,43 32.9523091,40.7614237 32.9523091,38 C32.9523091,35.2385763 26.460438,33 18.4523091,33 C10.4441803,33 3.95230914,35.2385763 3.95230914,38 C3.95230914,40.7614237 10.4441803,43 18.4523091,43 Z" id="Oval" fill="#7BA8C1"></path>
                        <g id="in-pipe-copy-2" transform="translate(18.000000, 20.500000) scale(-1, 1) rotate(-270.000000) translate(-18.000000, -20.500000) translate(-2.000000, 3.000000)">
                            <path d="M29.1168235,7.96345348 L18.1526677,7.96345348 C13.2640625,8.2470465 10.8197599,11.5488591 10.8197599,17.8688914 C10.8197599,24.1889236 13.2640625,27.4907362 18.1526677,27.7743293 L29.1168235,27.7743293 L29.1168235,7.96345348 Z" id="Path-65" fill="#B4D3E3"></path>
                            <g id="Path" transform="translate(9.839368, 6.962407)">
                                <mask id="mask-7" fill="white">
                                    <use xlink:href="#path-6"></use>
                                </mask>
                                <use id="Mask" fill="#A5C9DC" xlink:href="#path-6"></use>
                                <path d="M1.36147706,4.7668554 C1.09686158,5.92170446 0.964553834,7.24242951 0.964553834,8.72903055 L53.2881201,8.72903055 L51.944946,4.7668554 L1.36147706,4.7668554 Z" fill="#8FBCD4" mask="url(#mask-7)"></path>
                            </g>
                            <path d="M35.0308124,7.96345348 L18.1526677,7.96345348 L18.1526677,7.96345348 C13.2640625,8.2470465 10.8197599,11.5488591 10.8197599,17.8688914 C10.8197599,24.1889236 13.2640625,27.4907007 18.1526677,27.7742228 L34.8713036,27.9422083 C36.1384136,27.9549344 37.2768752,27.1701456 37.7157585,25.9814021 C38.7050873,23.3017415 39.1997517,20.4746075 39.1997517,17.5 C39.1997517,14.6107483 38.7330686,12.0470137 37.7997024,9.80879611 C37.3336925,8.69128557 36.2415952,7.96345348 35.0308124,7.96345348 Z" id="Path" stroke="#02627E" stroke-width="1.5"></path>
                            <g id="Group-2" stroke="#02627E">
                                <ellipse id="Oval" stroke-width="1.5" fill="#89B9CD" cx="13" cy="17.5" rx="5.25" ry="16.75"></ellipse>
                                <polyline id="Path-2" stroke-width="1.5" fill="#89B9CD" points="13 34.2401383 6.62377919 34.2401383 6.62377919 0.762630884 13 0.762630884"></polyline>
                                <ellipse id="Oval-Copy" stroke-width="1.5" fill="#89B9CD" cx="6" cy="17.5" rx="5.25" ry="16.75"></ellipse>
                                <path d="M6,9.2905717 C5.7601216,9.2905717 5.56013403,9.50921725 5.36429935,9.80123982 C5.07604079,10.231082 4.82090782,10.8628147 4.60387567,11.6441304 C4.15880351,13.2463902 3.88571429,15.460122 3.88571429,17.9048574 C3.88571429,20.3495928 4.15880351,22.5633246 4.60387567,24.1655844 C4.82090782,24.9469001 5.07604079,25.5786328 5.36429935,26.008475 C5.56013403,26.3004976 5.7601216,26.5191431 6,26.5191431 C6.2398784,26.5191431 6.43986597,26.3004976 6.63570065,26.008475 C6.92395921,25.5786328 7.17909218,24.9469001 7.39612433,24.1655844 C7.84119649,22.5633246 8.11428571,20.3495928 8.11428571,17.9048574 C8.11428571,15.460122 7.84119649,13.2463902 7.39612433,11.6441304 C7.17909218,10.8628147 6.92395921,10.231082 6.63570065,9.80123982 C6.43986597,9.50921725 6.2398784,9.2905717 6,9.2905717 Z" id="Oval-Copy-2" stroke-width="0.771428571" fill="#02627E"></path>
                            </g>
                        </g>
                    </g>
                    <g id="Group-5" transform="translate(45.647059, 0.000000)">
                        <path d="M18.6886889,43 C26.6968177,43 33.1886889,40.7614237 33.1886889,38 C33.1886889,35.2385763 26.6968177,33 18.6886889,33 C10.68056,33 4.18868886,35.2385763 4.18868886,38 C4.18868886,40.7614237 10.68056,43 18.6886889,43 Z" id="Oval-Copy-3" fill="#7BA8C1"></path>
                        <g id="in-pipe-copy-5" transform="translate(18.000000, 20.500000) scale(-1, 1) rotate(-270.000000) translate(-18.000000, -20.500000) translate(-2.000000, 3.000000)">
                            <path d="M29.1168235,7.96345348 L18.1526677,7.96345348 C13.2640625,8.2470465 10.8197599,11.5488591 10.8197599,17.8688914 C10.8197599,24.1889236 13.2640625,27.4907362 18.1526677,27.7743293 L29.1168235,27.7743293 L29.1168235,7.96345348 Z" id="Path-65" fill="#B4D3E3"></path>
                            <g id="Path" transform="translate(9.839368, 6.962407)">
                                <mask id="mask-9" fill="white">
                                    <use xlink:href="#path-8"></use>
                                </mask>
                                <use id="Mask" fill="#A5C9DC" xlink:href="#path-8"></use>
                                <path d="M1.36147706,4.7668554 C1.09686158,5.92170446 0.964553834,7.24242951 0.964553834,8.72903055 L53.2881201,8.72903055 L51.944946,4.7668554 L1.36147706,4.7668554 Z" fill="#8FBCD4" mask="url(#mask-9)"></path>
                            </g>
                            <path d="M35.0308124,7.96345348 L18.1526677,7.96345348 L18.1526677,7.96345348 C13.2640625,8.2470465 10.8197599,11.5488591 10.8197599,17.8688914 C10.8197599,24.1889236 13.2640625,27.4907007 18.1526677,27.7742228 L34.8713036,27.9422083 C36.1384136,27.9549344 37.2768752,27.1701456 37.7157585,25.9814021 C38.7050873,23.3017415 39.1997517,20.4746075 39.1997517,17.5 C39.1997517,14.6107483 38.7330686,12.0470137 37.7997024,9.80879611 C37.3336925,8.69128557 36.2415952,7.96345348 35.0308124,7.96345348 Z" id="Path" stroke="#02627E" stroke-width="1.5"></path>
                            <g id="Group-2" stroke="#02627E">
                                <ellipse id="Oval" stroke-width="1.5" fill="#89B9CD" cx="13" cy="17.5" rx="5.25" ry="16.75"></ellipse>
                                <polyline id="Path-2" stroke-width="1.5" fill="#89B9CD" points="13 34.2401383 6.62377919 34.2401383 6.62377919 0.762630884 13 0.762630884"></polyline>
                                <ellipse id="Oval-Copy" stroke-width="1.5" fill="#89B9CD" cx="6" cy="17.5" rx="5.25" ry="16.75"></ellipse>
                                <path d="M6,9.2905717 C5.7601216,9.2905717 5.56013403,9.50921725 5.36429935,9.80123982 C5.07604079,10.231082 4.82090782,10.8628147 4.60387567,11.6441304 C4.15880351,13.2463902 3.88571429,15.460122 3.88571429,17.9048574 C3.88571429,20.3495928 4.15880351,22.5633246 4.60387567,24.1655844 C4.82090782,24.9469001 5.07604079,25.5786328 5.36429935,26.008475 C5.56013403,26.3004976 5.7601216,26.5191431 6,26.5191431 C6.2398784,26.5191431 6.43986597,26.3004976 6.63570065,26.008475 C6.92395921,25.5786328 7.17909218,24.9469001 7.39612433,24.1655844 C7.84119649,22.5633246 8.11428571,20.3495928 8.11428571,17.9048574 C8.11428571,15.460122 7.84119649,13.2463902 7.39612433,11.6441304 C7.17909218,10.8628147 6.92395921,10.231082 6.63570065,9.80123982 C6.43986597,9.50921725 6.2398784,9.2905717 6,9.2905717 Z" id="Oval-Copy-2" stroke-width="0.771428571" fill="#02627E"></path>
                            </g>
                        </g>
                    </g>
                </g>
            </g>
        </g>
    </g>
</svg>