<?xml version="1.0" encoding="UTF-8"?>
<svg width="50px" height="50px" viewBox="0 0 50 50" version="1.1" xmlns="http://www.w3.org/2000/svg" xmlns:xlink="http://www.w3.org/1999/xlink">
    <!-- Generator: Sketch 63.1 (92452) - https://sketch.com -->
    <title>polynomial</title>
    <desc>Created with Sketch.</desc>
    <g id="polynomial" stroke="none" stroke-width="1" fill="none" fill-rule="evenodd">
        <path d="M45,3 C47.7614237,3 50,5.23857625 50,8 L50,42 C50,44.7614237 47.7614237,47 45,47 L5,47 C2.23857625,47 0,44.7614237 0,42 L0,8 C0,5.23857625 2.23857625,3 5,3 L45,3 Z M45,6 L5,6 C3.9456382,6 3.08183488,6.81587779 3.00548574,7.85073766 L3,8 L3,42 C3,43.0543618 3.81587779,43.9181651 4.85073766,43.9945143 L5,44 L45,44 C46.0543618,44 46.9181651,43.1841222 46.9945143,42.1492623 L47,42 L47,8 C47,6.9456382 46.1841222,6.08183488 45.1492623,6.00548574 L45,6 Z" id="Rectangle" fill="#324056" fill-rule="nonzero"></path>
        <path d="M40.6885071,15.2719984 C41.0905713,14.5476808 42.0036841,14.2864429 42.7280016,14.6885071 C43.4097123,15.0669205 43.6812209,15.8980274 43.3756007,16.5983635 L43.3114929,16.7280016 L37.3524847,27.4631378 C36.6748275,28.6839355 35.6608014,29.6844169 34.431002,30.3455975 C30.9591093,32.212201 26.6492324,30.976856 24.6815225,27.5958357 L24.5591355,27.3771211 C24.1817261,26.6751376 23.6375926,26.0766552 22.9746006,25.6343203 C20.8057867,24.1873314 17.8970221,24.7127172 16.3646708,26.7879867 L16.2292168,26.9809055 L10.2477798,35.9461599 C9.78800634,36.6352896 8.85663622,36.8212196 8.16750645,36.3614461 C7.51891373,35.9287181 7.31606198,35.0782437 7.67775747,34.4051532 L7.75222017,34.2811728 L13.7336572,25.3159184 C16.1440412,21.7031233 21.0267926,20.7283766 24.6395877,23.1387606 C25.6221856,23.7943301 26.4433068,24.6620353 27.0433424,25.6763133 L27.2014623,25.9565194 C28.3232042,28.0429654 30.9239543,28.8250126 33.0104003,27.7032707 C33.6536495,27.3574388 34.196578,26.853854 34.5893468,26.2416898 L34.729499,26.0071345 L40.6885071,15.2719984 Z" id="Path-62" fill="#324056" fill-rule="nonzero"></path>
    </g>
</svg>