<?xml version="1.0" encoding="UTF-8"?>
<svg width="62px" height="53px" viewBox="0 0 62 53" version="1.1" xmlns="http://www.w3.org/2000/svg" xmlns:xlink="http://www.w3.org/1999/xlink">
    <title>Group</title>
    <g id="Page-2" stroke="none" stroke-width="1" fill="none" fill-rule="evenodd">
        <g id="Artboard" transform="translate(-6186.000000, -1137.000000)" fill="#D7E0FD" fill-rule="nonzero">
            <g id="Group" transform="translate(6186.000000, 1137.000000)">
                <path d="M21.8075129,12.2939389 L17.9212615,12.2939389 C17.4841576,12.2939389 17.1265271,12.6562358 17.1265271,13.099043 L17.1265271,19.65259 C17.1265271,20.0953972 17.4841576,20.4576941 17.9212615,20.4576941 L21.8075129,20.4576941 C22.2446169,20.4576941 22.6022474,20.0953972 22.6022474,19.65259 L22.6022474,13.099043 C22.6022474,12.6562358 22.2525642,12.2939389 21.8075129,12.2939389 Z M21.0127785,18.8474859 L18.715996,18.8474859 L18.715996,13.904147 L21.0127785,13.904147 L21.0127785,18.8474859 Z" id="Shape"></path>
                <path d="M30.1601719,9.87862677 L26.2739205,9.87862677 C25.8368165,9.87862677 25.479186,10.2409236 25.479186,10.6837308 L25.479186,19.65259 C25.479186,20.0953972 25.8368165,20.4576941 26.2739205,20.4576941 L30.1601719,20.4576941 C30.5972758,20.4576941 30.9549063,20.0953972 30.9549063,19.65259 L30.9549063,10.6837308 C30.9549063,10.2328726 30.5972758,9.87862677 30.1601719,9.87862677 Z M29.3654374,18.8474859 L27.0686549,18.8474859 L27.0686549,11.4888349 L29.3654374,11.4888349 L29.3654374,18.8474859 Z" id="Shape"></path>
                <path d="M38.4969361,7.40695731 L34.6106847,7.40695731 C34.1735808,7.40695731 33.8159503,7.76925414 33.8159503,8.21206137 L33.8159503,19.65259 C33.8159503,20.0953972 34.1735808,20.4576941 34.6106847,20.4576941 L38.4969361,20.4576941 C38.93404,20.4576941 39.2916705,20.0953972 39.2916705,19.65259 L39.2916705,8.21206137 C39.2916705,7.76925414 38.9419874,7.40695731 38.4969361,7.40695731 Z M37.7022017,18.8474859 L35.4054191,18.8474859 L35.4054191,9.01716543 L37.7022017,9.01716543 L37.7022017,18.8474859 Z" id="Shape"></path>
                <path d="M18.2709447,38.1699833 L8.63876332,38.1699833 C7.35924088,38.1699833 6.31019142,37.115297 6.31019142,35.8110284 L6.31019142,24.9904299 C6.31019142,23.7022634 5.27703666,22.6475771 3.99751421,22.6475771 L2.31267721,22.6475771 C1.04110211,22.6475771 0,23.6942124 0,24.9904299 L0,36.5758773 C0,39.2810269 1.47820605,41.6399818 3.65577841,42.879842 L1.15236493,49.3045724 C0.61989286,50.6571472 1.27952244,52.1948959 2.62262364,52.7343157 C2.93257007,52.8631323 3.25841119,52.9194896 3.57630496,52.9194896 C4.61740707,52.9194896 5.60287778,52.2834574 6.00819234,51.2448732 L8.85334162,43.8862221 C8.86128896,43.862069 8.86128896,43.8379158 8.86923631,43.8137627 L11.4759653,43.8137627 L11.4759653,50.1982379 C11.4759653,51.6554762 12.6442249,52.8389792 14.0826942,52.8389792 C15.5211635,52.8389792 16.6894232,51.6554762 16.6894232,50.1982379 L16.6894232,43.8137627 L18.2709447,43.8137627 C19.4074149,43.8137627 20.3373048,42.871791 20.3373048,41.7204922 L20.3373048,40.2632538 C20.3452016,39.111955 19.4153623,38.1699833 18.2709447,38.1699833 Z M4.53793363,50.6571472 C4.33130268,51.1885159 3.73525185,51.4461492 3.21867447,51.2368221 C2.69414974,51.0274951 2.43983472,50.423667 2.64646567,49.9003494 L5.1419318,43.5158742 C5.7856667,43.7090992 6.46119097,43.8137627 7.16850461,43.8137627 L7.19234665,43.8137627 L4.53793363,50.6571472 Z M15.1079016,50.1982379 C15.1079016,50.7698618 14.6469557,51.2287711 14.0906416,51.2287711 C13.5343274,51.2287711 13.0733815,50.7618107 13.0733815,50.1982379 L13.0733815,43.8137627 L15.1079016,43.8137627 L15.1079016,50.1982379 Z M18.7557327,41.7204922 C18.7557327,41.9861765 18.5411544,42.2035546 18.278892,42.2035546 L15.9026361,42.2035546 L12.278647,42.2035546 L7.16055727,42.2035546 C4.10082969,42.2035546 1.60536356,39.6835789 1.60536356,36.5758773 L1.60536356,24.9904299 C1.60536356,24.5878779 1.93120468,24.2577852 2.3285719,24.2577852 L4.0134089,24.2577852 C4.41077612,24.2577852 4.73661724,24.5878779 4.73661724,24.9904299 L4.73661724,35.8110284 C4.73661724,38.0009114 6.49298034,39.7801914 8.65465801,39.7801914 L18.2868394,39.7801914 C18.5491017,39.7801914 18.76368,39.9975695 18.76368,40.2632538 L18.76368,41.7204922 L18.7557327,41.7204922 Z" id="Shape"></path>
                <path d="M60.4951853,30.0947896 C60.304449,29.6922376 59.8355557,29.5151147 59.4381885,29.7083397 C59.3905044,29.7324928 59.3507677,29.772748 59.311031,29.8049521 C59.0169792,30.0303813 58.8898217,30.4248823 59.056716,30.7791281 C60.2329229,33.3152058 60.6541322,36.125019 60.2726596,38.902628 C59.1918208,46.8006988 51.9835795,52.3398147 44.17134,51.2448732 C40.3963514,50.7135045 37.0425721,48.7248975 34.7457896,45.6494 C32.5284805,42.686617 31.5509571,39.0475467 31.9483243,35.3682212 C31.964219,35.2233024 31.964219,35.0783837 31.9880611,34.941516 C32.0436925,34.538964 32.1231659,34.1525141 32.2105867,33.7580131 C32.4887438,32.5020507 32.9258477,31.3265988 33.4901091,30.2316573 C33.7762135,29.6680845 34.1020547,29.1367158 34.4517378,28.6214492 C35.5007873,27.1078536 36.8279938,25.8196871 38.3538839,24.813307 C39.3790913,24.1370196 40.4917195,23.5975999 41.6599791,23.2030989 L42.1368198,23.2030989 L42.1368198,23.0501291 C42.6613445,22.8971593 43.1858693,22.7602917 43.7262887,22.6717302 C45.1329686,22.430199 46.6032273,22.3899438 48.0893807,22.5992708 C50.4894787,22.9374146 52.7306298,23.8713353 54.6459398,25.3205226 L52.7465245,25.6667173 C52.3173679,25.7472277 52.0233162,26.1658818 52.1027896,26.600638 C52.1743157,26.987088 52.5081042,27.2688744 52.8816294,27.2688744 C52.9293135,27.2688744 52.9769975,27.2688744 53.0246816,27.2527723 L56.6407233,26.600638 C56.7281441,26.5845359 56.8076175,26.5442807 56.8870909,26.5040255 C56.9983538,26.4396172 57.1016692,26.3591068 57.1731953,26.2463922 C57.2924055,26.0612183 57.3321422,25.8277381 57.2765108,25.61036 L56.2671981,21.6170439 C56.1559353,21.1822877 55.7267787,20.9246544 55.2976221,21.037369 C54.8684655,21.1500835 54.6141505,21.5848397 54.7254133,22.0195959 L55.1545699,23.7264165 C53.1200497,22.3013823 50.7914778,21.3674616 48.303959,21.0212669 C46.7462795,20.8038888 45.2044947,20.8280419 43.7262887,21.0615221 L43.7262887,5.36199301 L45.8720717,5.36199301 C46.3091756,5.36199301 46.6668061,4.99969619 46.6668061,4.55688896 L46.6668061,0.805104056 C46.6668061,0.362296825 46.3091756,-3.66118937e-13 45.8720717,-3.66118937e-13 L10.2679689,-3.66118937e-13 C9.83086498,-3.66118937e-13 9.47323448,0.362296825 9.47323448,0.805104056 L9.47323448,4.55688896 C9.47323448,4.99969619 9.83086498,5.36199301 10.2679689,5.36199301 L12.7475404,5.36199301 L12.7475404,24.0323561 C12.7475404,24.4751633 13.1051709,24.8374601 13.5422748,24.8374601 L35.7312603,24.8374601 C34.4914745,25.9243506 33.4106357,27.204466 32.5523225,28.6456023 L9.0281832,28.6456023 C8.59107926,28.6456023 8.23344876,29.0078991 8.23344876,29.4507064 L8.23344876,34.5872702 C8.23344876,35.0300775 8.59107926,35.3923743 9.0281832,35.3923743 L25.6063435,35.3923743 L25.6063435,51.2529242 L21.7757236,51.2529242 C21.3386196,51.2529242 20.9809891,51.615221 20.9809891,52.0580283 C20.9809891,52.5008355 21.3386196,52.8631323 21.7757236,52.8631323 L26.401078,52.8631323 L30.048909,52.8631323 L34.7060528,52.8631323 C35.1431568,52.8631323 35.5007873,52.5008355 35.5007873,52.0580283 C35.5007873,51.615221 35.1431568,51.2529242 34.7060528,51.2529242 L30.8436435,51.2529242 L30.8436435,41.1891235 C32.4807964,47.1871487 37.503518,51.9453137 43.964709,52.8470302 C44.6958647,52.9516938 45.4270204,53 46.1502287,53 C53.9386262,53 60.7574476,47.1629956 61.8541812,39.1280571 C62.2674431,36.0284065 61.7985498,32.9126538 60.4951853,30.0947896 Z M11.054756,3.72763178 L11.054756,1.58605499 L45.0693899,1.58605499 L45.0693899,3.72763178 L42.9236069,3.72763178 L13.5343274,3.72763178 L11.054756,3.72763178 Z M14.3290619,23.2030989 L14.3290619,5.33783989 L42.1288725,5.33783989 L42.1288725,21.3674616 C40.618877,21.7700137 39.188355,22.3899438 37.8770432,23.2030989 L14.3290619,23.2030989 Z M9.81497029,33.7580131 L9.81497029,30.2316573 L31.7019567,30.2316573 C31.201274,31.3346499 30.8277488,32.5262039 30.5893284,33.7580131 L30.0409617,33.7580131 L26.3931306,33.7580131 L9.81497029,33.7580131 Z M27.1878651,51.2287711 L27.1878651,35.3682212 L29.2462273,35.3682212 L29.2462273,51.2287711 L27.1878651,51.2287711 Z" id="Shape"></path>
                <path d="M46.1263867,25.6425642 C45.6892827,25.6425642 45.3316522,26.004861 45.3316522,26.4476682 L45.3316522,28.6214492 L45.3316522,30.2316573 L45.3316522,33.7580131 L45.3316522,35.3682212 L45.3316522,36.922072 C45.3316522,37.2038584 45.4747044,37.4695428 45.7210721,37.6144615 L51.6815804,41.2293787 C51.8087379,41.3098891 51.9517901,41.3420933 52.0868949,41.3420933 C52.3571047,41.3420933 52.619367,41.2052256 52.7703666,40.9475923 C52.9928922,40.5691934 52.873682,40.0700289 52.5001569,39.8445997 L51.5544229,39.2729758 L46.9211211,36.4631627 L46.9211211,35.3682212 L46.9211211,28.6214492 L47.0482786,28.6214492 L46.9211211,28.3316117 L46.9211211,26.4557193 C46.9211211,26.004861 46.5634906,25.6425642 46.1263867,25.6425642 Z" id="Path"></path>
            </g>
        </g>
    </g>
</svg>