<?xml version="1.0" encoding="UTF-8"?>
<svg width="1202px" height="148px" viewBox="0 0 1202 148" version="1.1" xmlns="http://www.w3.org/2000/svg" xmlns:xlink="http://www.w3.org/1999/xlink">
    <title>Group</title>
    <g id="Page-2" stroke="none" stroke-width="1" fill="none" fill-rule="evenodd">
        <g id="Artboard" transform="translate(-2188.000000, -844.000000)">
            <g id="Group" transform="translate(2188.430000, 844.000000)">
                <g transform="translate(0.000000, 49.746137)">
                    <path d="M1200.43,97.95 L1,97.95 C0.45,97.95 0,97.5 0,96.95 C0,96.4 0.45,95.95 1,95.95 L1200.43,95.95 C1200.98,95.95 1201.43,96.4 1201.43,96.95 C1201.43,97.5 1200.98,97.95 1200.43,97.95 Z" id="Path" fill="#D7E0FD" fill-rule="nonzero"></path>
                    <g transform="translate(533.930000, 0.000000)" fill="#D7E0FD" fill-rule="nonzero" id="Path">
                        <path d="M28.6,0 C12.83,0 0,12.83 0,28.6 C0,29.01 0.01,29.42 0.03,29.82 L1.03,29.82 C1.01,29.41 1,29.01 1,28.6 C1,13.36 13.36,1 28.6,1 C43.84,1 56.2,13.36 56.2,28.6 C56.2,29.01 56.19,29.42 56.17,29.82 L57.17,29.82 C57.19,29.41 57.2,29.01 57.2,28.6 C57.2,12.83 44.37,0 28.6,0 Z"></path>
                        <path d="M28.59,1 C13.35,1 0.99,13.36 0.99,28.6 C0.99,29.01 1,29.42 1.02,29.82 L2.02,29.82 C2,29.41 1.99,29.01 1.99,28.6 C1.99,13.93 13.92,2 28.59,2 C43.26,2 55.19,13.93 55.19,28.6 C55.19,29.01 55.18,29.42 55.16,29.82 L56.16,29.82 C56.18,29.41 56.1900061,29.01 56.1900061,28.6 C56.2,13.36 43.84,1 28.59,1 Z"></path>
                    </g>
                    <g transform="translate(511.370039, 28.630000)">
                        <path d="M104.609961,33.58 L24.0199614,33.58 L24.0199614,56.8 C24.0199614,62.61 28.7399614,67.33 34.5499614,67.33 L125.629961,67.33 L125.629961,4.37 L105.419961,33.16 C105.239961,33.42 104.929961,33.58 104.609961,33.58 Z" id="Path"></path>
                        <path d="M126.629961,-2.84217094e-14 L23.0199614,-2.84217094e-14 C22.5199614,-2.84217094e-14 22.1299614,0.37 22.0499614,0.84 L0.17996144,32.01 C-0.0300385604,32.32 -0.0600385604,32.71 0.10996144,33.05 C0.27996144,33.38 0.61996144,33.59 0.99996144,33.59 L22.0199614,33.59 L22.0199614,56.81 C22.0199614,63.72 27.6399614,69.34 34.5499614,69.34 L126.629961,69.34 C127.179961,69.34 127.629961,68.89 127.629961,68.34 L127.629961,1 C127.629961,0.44 127.179961,-2.84217094e-14 126.629961,-2.84217094e-14 Z M22.0199614,4.36 L23.5399614,2.19 L24.0199614,2.19 L124.709961,2.19 L104.089961,31.57 L24.0199614,31.57 L22.0199614,31.57 L2.91996144,31.57 L22.0199614,4.36 Z M125.629961,67.32 L34.5499614,67.32 C28.7399614,67.32 24.0199614,62.6 24.0199614,56.79 L24.0199614,33.57 L104.609961,33.57 C104.939961,33.57 105.239961,33.41 105.429961,33.14 L125.639961,4.35 L125.639961,67.32 L125.629961,67.32 Z" id="Shape" fill="#D7E0FD" fill-rule="nonzero"></path>
                    </g>
                    <path d="M668.44,97.95 L638,97.95 C637.45,97.95 637,97.5 637,96.95 L637,29.63 C637,29.19 637.29,28.8 637.71,28.67 C638.13,28.54 638.59,28.71 638.83,29.08 L659.42,60.41 L675.43,60.41 C675.98,60.41 676.43,60.86 676.43,61.41 L676.43,89.96 C676.43,94.37 672.84,97.95 668.44,97.95 Z M639,95.95 L668.44,95.95 C671.74,95.95 674.43,93.26 674.43,89.96 L674.43,62.41 L658.88,62.41 C658.54,62.41 658.23,62.24 658.04,61.96 L638.99,32.97 L638.99,95.95 L639,95.95 Z" id="Shape" fill="#D7E0FD" fill-rule="nonzero"></path>
                    <path d="M696.31,62.41 L658.88,62.41 C658.54,62.41 658.23,62.24 658.04,61.96 L637.16,30.18 C636.96,29.87 636.94,29.48 637.12,29.16 C637.29,28.84 637.63,28.63 638,28.63 L675.43,28.63 C675.77,28.63 676.08,28.8 676.27,29.08 L697.15,60.86 C697.35,61.17 697.37,61.56 697.19,61.88 C697.02,62.21 696.68,62.41 696.31,62.41 Z M659.42,60.41 L694.46,60.41 L674.89,30.63 L639.85,30.63 L659.42,60.41 Z" id="Shape" fill="#D7E0FD" fill-rule="nonzero"></path>
                </g>
                <path d="M879.22,79.1261367 C836.14,79.1261367 801.1,44.0761367 801.1,1.00613669 C801.1,0.456136693 801.55,0.00613669323 802.1,0.00613669323 C802.65,0.00613669323 803.1,0.456136693 803.1,1.00613669 C803.1,42.9761367 837.25,77.1261367 879.22,77.1261367 C921.19,77.1261367 955.34,42.9761367 955.34,1.00613669 C955.34,0.456136693 955.79,0.00613669323 956.34,0.00613669323 C956.89,0.00613669323 957.340002,0.456136693 957.340002,1.00613669 C957.35,44.0761367 922.3,79.1261367 879.22,79.1261367 Z" id="Path" fill="#D7E0FD" fill-rule="nonzero"></path>
                <path d="M93.48,146.176137 C92.93,146.176137 92.48,145.726137 92.48,145.176137 C92.48,95.2861367 51.89,54.6961367 2,54.6961367 C1.45,54.6961367 1,54.2461367 1,53.6961367 C1,53.1461367 1.45,52.6961367 2,52.6961367 C52.99,52.6961367 94.48,94.1861367 94.48,145.176137 C94.48,145.736137 94.03,146.176137 93.48,146.176137 Z" id="Path" fill="#D7E0FD" fill-rule="nonzero"></path>
                <path d="M1135.33,147.696137 L1021.7,147.696137 C1017.42,147.696137 1013.75,145.246137 1012.11,141.286137 C1010.47,137.326137 1011.34,133.006137 1014.36,129.976137 L1127.99,16.3461367 C1131.01,13.3261367 1135.35,12.4561367 1139.3,14.0961367 C1143.25,15.7361367 1145.71,19.4061367 1145.71,23.6861367 L1145.71,137.316137 C1145.71,143.046137 1141.05,147.696137 1135.33,147.696137 Z M1015.78,131.396137 C1013.34,133.836137 1012.64,137.336137 1013.96,140.526137 C1015.28,143.716137 1018.25,145.696137 1021.7,145.696137 L1135.33,145.696137 C1139.95,145.696137 1143.71,141.936137 1143.71,137.316137 L1143.71,23.6861367 C1143.71,20.2361367 1141.73,17.2661367 1138.54,15.9461367 C1135.35,14.6261367 1131.85,15.3261367 1129.41,17.7661367 L1015.78,131.396137 Z" id="Shape" fill="#D7E0FD" fill-rule="nonzero"></path>
                <path d="M331.8,147.696137 L292.96,147.696137 L281.43,102.826137 L342.39,102.826137 L331.8,147.696137 Z M294.52,145.696137 L330.22,145.696137 L339.87,104.826137 L284.02,104.826137 L294.52,145.696137 Z" id="Shape" fill="#D7E0FD" fill-rule="nonzero"></path>
                <path d="M311.93,104.826137 C311.38,104.826137 310.93,104.376137 310.93,103.826137 L310.93,41.2961367 C310.93,40.7461367 311.38,40.2961367 311.93,40.2961367 C312.48,40.2961367 312.93,40.7461367 312.93,41.2961367 L312.93,103.826137 C312.93,104.376137 312.48,104.826137 311.93,104.826137 Z" id="Path" fill="#D7E0FD" fill-rule="nonzero"></path>
                <path d="M313.41,85.6361367 L313.18,85.6261367 C312.63,85.6161367 299.57,85.1461367 292.72,73.8561367 C288.82,67.4361367 291.3,61.8561367 293.7,56.4561367 C295.66,52.0561367 297.5,47.8961367 296.22,43.1861367 C292.79,30.6361367 292.11,9.49613669 304.29,2.73613669 C308.96,0.136136693 312.96,-0.603863307 316.51,0.486136693 C321.85,2.11613669 325.59,7.65613669 329.58,15.4661367 C333.81,23.7561367 332.51,27.5861367 330.72,32.8861367 C329.81,35.5661367 328.78,38.6161367 328.16,42.9561367 C327.24,49.3361367 329.16,53.4061367 330.85,56.9961367 C332.59,60.6861367 334.23,64.1761367 332.35,69.0961367 C328.76,78.5061367 314.24,85.2561367 313.62,85.5361367 L313.41,85.6361367 Z M313.23,2.00613669 C310.87,2.00613669 308.24,2.82613669 305.26,4.48613669 C298.91,8.01613669 296.87,15.8161367 296.28,21.7361367 C295.63,28.1961367 296.33,36.0261367 298.15,42.6661367 C299.62,48.0661367 297.54,52.7461367 295.53,57.2761367 C293.24,62.4261367 291.08,67.2961367 294.43,72.8261367 C300.23,82.3961367 311.28,83.5061367 313,83.6161367 C314.81,82.7461367 327.4,76.4361367 330.47,68.3861367 C332.04,64.2661367 330.71,61.4361367 329.03,57.8561367 C327.22,54.0061367 325.17,49.6561367 326.17,42.6761367 C326.82,38.1561367 327.93,34.8761367 328.82,32.2461367 C330.58,27.0561367 331.64,23.9161367 327.79,16.3761367 C324.04,9.01613669 320.58,3.81613669 315.92,2.39613669 C315.06,2.13613669 314.17,2.00613669 313.23,2.00613669 Z" id="Shape" fill="#D7E0FD" fill-rule="nonzero"></path>
            </g>
        </g>
    </g>
</svg>