<?xml version="1.0" encoding="UTF-8"?>
<svg width="1202px" height="148px" viewBox="0 0 1202 148" version="1.1" xmlns="http://www.w3.org/2000/svg" xmlns:xlink="http://www.w3.org/1999/xlink">
    <title>Group</title>
    <g id="Page-2" stroke="none" stroke-width="1" fill="none" fill-rule="evenodd">
        <g id="Artboard" transform="translate(-815.000000, -844.000000)" fill="#D7E0FD" fill-rule="nonzero">
            <g id="Group" transform="translate(815.000000, 844.000000)">
                <g transform="translate(0.000000, 78.376137)">
                    <path d="M1200.43,69.32 L1,69.32 C0.45,69.32 0,68.87 0,68.32 C0,67.77 0.45,67.32 1,67.32 L1200.43,67.32 C1200.98,67.32 1201.43,67.77 1201.43,68.32 C1201.43,68.87 1200.99,69.32 1200.43,69.32 Z" id="Path"></path>
                    <path d="M697.15,32.23 L676.27,0.45 C676.09,0.17 675.77,0 675.43,0 L638,0 L534.39,0 C533.89,0 533.5,0.37 533.42,0.84 L511.55,32.01 C511.34,32.32 511.31,32.71 511.48,33.05 C511.65,33.39 511.99,33.59 512.37,33.59 L533.39,33.59 L533.39,56.81 C533.39,63.72 539.01,69.34 545.92,69.34 L638,69.34 L668.44,69.34 C672.85,69.34 676.43,65.76 676.43,61.35 L676.43,33.8 L696.31,33.8 C696.68,33.8 697.02,33.6 697.19,33.27 C697.36,32.94 697.35,32.54 697.15,32.23 Z M533.39,4.36 L534.91,2.19 L535.39,2.19 L636.08,2.19 L615.46,31.57 L535.39,31.57 L533.39,31.57 L514.29,31.57 L533.39,4.36 Z M535.39,56.79 L535.39,33.57 L615.98,33.57 C616.31,33.57 616.61,33.41 616.8,33.14 L637.01,4.35 L637.01,67.3100159 L545.93,67.3100159 C540.12,67.32 535.39,62.6 535.39,56.79 Z M674.43,61.33 C674.43,64.63 671.74,67.32 668.44,67.32 L639,67.32 L639,4.34 L658.05,33.33 C658.24,33.61 658.55,33.78 658.89,33.78 L674.44,33.78 L674.44,61.33 L674.43,61.33 Z M675.43,31.78 L659.42,31.78 L639.86,2 L674.9,2 L694.47,31.78 L675.43,31.78 L675.43,31.78 Z" id="Shape"></path>
                </g>
                <path d="M879.23,79.1261367 C836.15,79.1261367 801.11,44.0761367 801.11,1.00613669 C801.11,0.456136693 801.56,0.00613669323 802.11,0.00613669323 C802.66,0.00613669323 803.11,0.456136693 803.11,1.00613669 C803.11,42.9761367 837.26,77.1261367 879.23,77.1261367 C921.2,77.1261367 955.35,42.9761367 955.35,1.00613669 C955.35,0.456136693 955.8,0.00613669323 956.35,0.00613669323 C956.9,0.00613669323 957.35,0.456136693 957.35,1.00613669 C957.35,44.0761367 922.31,79.1261367 879.23,79.1261367 Z" id="Path"></path>
                <path d="M93.48,146.176137 C92.93,146.176137 92.48,145.726137 92.48,145.176137 C92.48,95.2861367 51.89,54.6961367 2,54.6961367 C1.45,54.6961367 1,54.2461367 1,53.6961367 C1,53.1461367 1.45,52.6961367 2,52.6961367 C52.99,52.6961367 94.48,94.1861367 94.48,145.176137 C94.48,145.736137 94.03,146.176137 93.48,146.176137 Z" id="Path"></path>
                <path d="M1135.34,147.696137 L1021.71,147.696137 C1017.43,147.696137 1013.76,145.246137 1012.12,141.286137 C1010.48,137.326137 1011.35,133.006137 1014.37,129.976137 L1128,16.3461367 C1131.02,13.3261367 1135.36,12.4561367 1139.31,14.0961367 C1143.26,15.7361367 1145.72,19.4061367 1145.72,23.6861367 L1145.72,137.316137 C1145.71,143.046137 1141.06,147.696137 1135.34,147.696137 Z M1135.28,15.2861367 C1133.12,15.2861367 1131.03,16.1361367 1129.41,17.7561367 L1015.78,131.386137 C1013.34,133.826137 1012.64,137.326137 1013.96,140.516137 C1015.28,143.706137 1018.25,145.686137 1021.7,145.686137 L1135.33,145.686137 C1139.95,145.686137 1143.71,141.926137 1143.71,137.306137 L1143.71,23.6861367 C1143.71,20.2361367 1141.73,17.2661367 1138.54,15.9461367 C1137.47,15.5061367 1136.37,15.2861367 1135.28,15.2861367 Z" id="Shape"></path>
                <path d="M331.81,147.696137 L292.97,147.696137 L281.44,102.826137 L342.4,102.826137 L331.81,147.696137 Z M294.52,145.696137 L330.22,145.696137 L339.87,104.826137 L284.02,104.826137 L294.52,145.696137 Z" id="Shape"></path>
                <path d="M311.94,104.826137 C311.39,104.826137 310.94,104.376137 310.94,103.826137 L310.94,41.2961367 C310.94,40.7461367 311.39,40.2961367 311.94,40.2961367 C312.49,40.2961367 312.94,40.7461367 312.94,41.2961367 L312.94,103.826137 C312.94,104.376137 312.49,104.826137 311.94,104.826137 Z" id="Path"></path>
                <path d="M313.41,85.6361367 L313.18,85.6261367 C312.63,85.6161367 299.57,85.1461367 292.72,73.8561367 C288.82,67.4361367 291.3,61.8561367 293.7,56.4561367 C295.66,52.0561367 297.5,47.8961367 296.22,43.1861367 C292.79,30.6361367 292.11,9.50613669 304.29,2.73613669 C308.96,0.136136693 312.96,-0.603863307 316.51,0.486136693 C321.85,2.11613669 325.59,7.65613669 329.58,15.4661367 C333.81,23.7561367 332.51,27.5861367 330.72,32.8861367 C329.81,35.5661367 328.78,38.6161367 328.16,42.9561367 C327.24,49.3361367 329.16,53.4061367 330.85,56.9961367 C332.59,60.6861367 334.23,64.1761367 332.35,69.0961367 C328.76,78.5061367 314.24,85.2561367 313.62,85.5361367 L313.41,85.6361367 Z M313.23,2.00613669 C310.87,2.00613669 308.24,2.82613669 305.26,4.48613669 C298.91,8.01613669 296.87,15.8161367 296.28,21.7361367 C295.63,28.1961367 296.33,36.0261367 298.15,42.6661367 C299.62,48.0661367 297.54,52.7461367 295.53,57.2761367 C293.24,62.4261367 291.08,67.2961367 294.43,72.8261367 C300.23,82.3961367 311.28,83.5061367 313,83.6161367 C314.81,82.7461367 327.4,76.4361367 330.47,68.3861367 C332.04,64.2661367 330.71,61.4361367 329.03,57.8561367 C327.22,54.0061367 325.17,49.6561367 326.17,42.6761367 C326.82,38.1561367 327.93,34.8761367 328.82,32.2461367 C330.58,27.0561367 331.64,23.9161367 327.79,16.3761367 C324.04,9.01613669 320.58,3.81613669 315.92,2.39613669 C315.07,2.13613669 314.17,2.00613669 313.23,2.00613669 Z" id="Shape"></path>
                <g transform="translate(687.055332, 6.082985)" id="Shape">
                    <path d="M5.68466777,20.6431514 C5.47466777,20.6431514 5.25466777,20.5731514 5.07466777,20.4331514 C0.834667766,17.1831514 -0.985332234,13.0631514 0.524667766,10.1831514 C2.17466777,7.03315138 7.19466777,6.35315138 12.7346678,8.54315138 C13.1946678,8.72315138 13.4546678,9.21315138 13.3446678,9.69315138 C13.1946678,10.3631514 13.0746678,11.0231514 12.9946678,11.6631514 C12.9946678,11.6631514 12.9946678,11.6631514 12.9946678,11.6631514 C12.7946678,13.2831514 12.8046678,14.8731514 13.0246678,16.3931514 C13.0946678,16.8831514 12.7946678,17.3531514 12.3246678,17.4931514 C9.97466777,18.2031514 7.88466777,19.2131514 6.29466777,20.4331514 C6.11466777,20.5731514 5.89466777,20.6431514 5.68466777,20.6431514 Z M6.61466777,9.28315138 C4.53466777,9.28315138 2.92466777,9.90315138 2.29466777,11.1231514 C1.32466777,12.9631514 2.72466777,15.8931514 5.71466777,18.3931514 C7.19466777,17.3731514 8.97466777,16.5031514 10.9446678,15.8431514 C10.8046678,14.4131514 10.8246678,12.9331514 11.0046678,11.4331514 C11.0546678,11.0031514 11.1246678,10.5631514 11.2046678,10.1231514 C9.57466777,9.55315138 7.99466777,9.28315138 6.61466777,9.28315138 Z"></path>
                    <path d="M11.3646678,31.8731514 C9.76466777,31.8731514 8.24466777,31.6831514 6.87466777,31.3131514 C3.78466777,30.4731514 1.77466777,28.7731514 1.23466777,26.5331514 C0.614667766,23.9831514 2.01466777,21.1831514 5.07466777,18.8531514 C6.85466777,17.4931514 9.16466777,16.3631514 11.7446678,15.5931514 C12.0246678,15.5131514 12.3246678,15.5531514 12.5746678,15.7131514 C12.8246678,15.8731514 12.9846678,16.1231514 13.0246678,16.4131514 C13.5246678,19.9331514 15.0746678,22.3631514 16.9646678,22.5931514 C19.1546678,22.8631514 21.5446678,20.2031514 22.7646678,16.1231514 C22.8446678,15.8631514 23.0346678,15.6331514 23.2746678,15.5131514 C23.5246678,15.3931514 23.8146678,15.3731514 24.0646678,15.4731514 C26.5346678,16.3931514 28.1546678,17.9631514 28.6246678,19.8931514 C29.1646678,22.1331514 28.1646678,24.5631514 25.8046678,26.7331514 C23.5946678,28.7531514 20.4246678,30.3431514 16.8646678,31.2031514 C15.0046678,31.6431514 13.1346678,31.8731514 11.3646678,31.8731514 Z M11.2546678,17.8531514 C9.34466777,18.5331514 7.64466777,19.4131514 6.29466777,20.4431514 C3.93466777,22.2431514 2.77466777,24.3431514 3.18466777,26.0631514 C3.55466777,27.5631514 5.04466777,28.7431514 7.40466777,29.3931514 C9.97466777,30.0931514 13.1646678,30.0431514 16.4046678,29.2531514 C19.6446678,28.4631514 22.5046678,27.0431514 24.4646678,25.2431514 C26.2646678,23.5931514 27.0546678,21.8531514 26.6946678,20.3531514 C26.3946678,19.1131514 25.3746678,18.2931514 24.3246678,17.7531514 C22.6846678,22.2231514 19.7146678,24.9231514 16.7246678,24.5631514 C14.1246678,24.2431514 12.0846678,21.7131514 11.2546678,17.8531514 Z"></path>
                    <path d="M17.2646678,24.5931514 C17.0846678,24.5931514 16.9046678,24.5831514 16.7246678,24.5631514 C13.8646678,24.2131514 11.6846678,21.2031514 11.0446678,16.6831514 C10.8046678,14.9931514 10.7946678,13.2231514 11.0046678,11.4231514 C11.0946678,10.7131514 11.2146678,9.98315138 11.3846678,9.25315138 C12.7146678,3.39315138 16.1346678,-0.396848616 19.6946678,0.0331513837 L19.6946678,0.0331513837 C23.7346678,0.523151384 26.2446678,6.29315138 25.4146678,13.1631514 C25.2646678,14.3731514 25.0246678,15.5531514 24.6846678,16.6731514 C23.2346678,21.5031514 20.3046678,24.5931514 17.2646678,24.5931514 Z M19.1546678,2.00315138 C16.8146678,2.00315138 14.3546678,5.22315138 13.3446678,9.69315138 C13.1946678,10.3631514 13.0746678,11.0231514 12.9946678,11.6631514 C12.7946678,13.2831514 12.8046678,14.8731514 13.0246678,16.3931514 C13.5246678,19.9131514 15.0746678,22.3431514 16.9646678,22.5631514 C19.1546678,22.8331514 21.5446678,20.1731514 22.7646678,16.0931514 C23.0646678,15.0831514 23.2946678,14.0131514 23.4246678,12.9131514 C24.0946678,7.34315138 22.2746678,2.34315138 19.4546678,2.00315138 L19.4546678,2.00315138 C19.3546678,2.01315138 19.2546678,2.00315138 19.1546678,2.00315138 Z"></path>
                </g>
                <g transform="translate(537.301213, 36.310280)">
                    <path d="M139.418787,4.87585641 C139.038787,4.87585641 138.678787,4.65585641 138.508787,4.29585641 C138.278787,3.79585641 138.498787,3.19585641 138.998787,2.96585641 C142.208787,1.47585641 144.088787,0.185856411 144.108787,0.175856411 C144.558787,-0.134143589 145.188787,-0.0241435886 145.498787,0.425856411 C145.808787,0.875856411 145.698787,1.50585641 145.248787,1.81585641 C145.168787,1.87585641 143.218787,3.21585641 139.838787,4.77585641 C139.698787,4.84585641 139.558787,4.87585641 139.418787,4.87585641 Z" id="Path"></path>
                    <path d="M19.5087867,30.6158564 C19.0887867,30.6158564 18.6887867,30.3458564 18.5587867,29.9258564 C18.3887867,29.3958564 18.6787867,28.8358564 19.2087867,28.6658564 C22.6487867,27.5558564 26.3787867,25.7858564 30.5987867,23.2358564 C31.0687867,22.9458564 31.6887867,23.1058564 31.9687867,23.5758564 C32.2487867,24.0458564 32.0987867,24.6658564 31.6287867,24.9458564 C27.2687867,27.5758564 23.4087867,29.4158564 19.8187867,30.5658564 C19.7087867,30.6058564 19.6087867,30.6158564 19.5087867,30.6158564 Z M41.8287867,17.9558564 C41.5087867,17.9558564 41.1987867,17.8058564 41.0087867,17.5258564 C40.6887867,17.0758564 40.7987867,16.4458564 41.2587867,16.1358564 L42.1787867,15.4958564 C45.3587867,13.2658564 48.6387867,10.9658564 51.9487867,8.85585641 C52.4187867,8.55585641 53.0287867,8.69585641 53.3287867,9.16585641 C53.6287867,9.63585641 53.4887867,10.2458564 53.0187867,10.5458564 C49.7487867,12.6258564 46.4887867,14.9158564 43.3287867,17.1358564 L42.4087867,17.7758564 C42.2187867,17.8958564 42.0187867,17.9558564 41.8287867,17.9558564 Z M118.438787,9.60585641 C117.978787,9.60585641 117.518787,9.59585641 117.048787,9.58585641 C116.158787,9.55585641 115.218787,9.49585641 114.248787,9.38585641 C113.698787,9.32585641 113.298787,8.83585641 113.358787,8.28585641 C113.418787,7.73585641 113.908787,7.34585641 114.458787,7.39585641 C115.378787,7.49585641 116.268787,7.55585641 117.108787,7.58585641 C120.418787,7.68585641 123.688787,7.41585641 126.988787,6.80585641 C127.528787,6.70585641 128.048787,7.06585641 128.158787,7.60585641 C128.258787,8.14585641 127.898787,8.67585641 127.358787,8.77585641 C124.388787,9.32585641 121.388787,9.60585641 118.438787,9.60585641 Z M101.758787,6.78585641 C101.678787,6.78585641 101.588787,6.77585641 101.508787,6.75585641 L99.9087867,6.33585641 C96.3887867,5.41585641 92.7587867,4.46585641 89.0587867,3.74585641 C88.5187867,3.63585641 88.1687867,3.11585641 88.2687867,2.57585641 C88.3787867,2.03585641 88.8987867,1.68585641 89.4387867,1.78585641 C93.1987867,2.52585641 96.8687867,3.48585641 100.408787,4.40585641 L102.008787,4.82585641 C102.538787,4.96585641 102.868787,5.50585641 102.728787,6.04585641 C102.608787,6.48585641 102.208787,6.78585641 101.758787,6.78585641 Z M63.8387867,4.69585641 C63.4287867,4.69585641 63.0487867,4.44585641 62.8987867,4.03585641 C62.7087867,3.51585641 62.9787867,2.94585641 63.4987867,2.75585641 C67.5587867,1.27585641 71.7987867,0.525856411 76.4387867,0.445856411 C77.0287867,0.435856411 77.4487867,0.875856411 77.4587867,1.42585641 C77.4687867,1.97585641 77.0287867,2.43585641 76.4787867,2.44585641 C72.0587867,2.51585641 68.0387867,3.23585641 64.1887867,4.63585641 C64.0687867,4.67585641 63.9487867,4.69585641 63.8387867,4.69585641 Z" id="Shape"></path>
                    <path d="M6.78878674,31.8858564 C6.73878674,31.8858564 6.68878674,31.8858564 6.64878674,31.8758564 C4.63878674,31.5858564 2.60878674,31.0558564 0.63878674,30.2858564 C0.11878674,30.0858564 -0.13121326,29.5058564 0.0687867402,28.9958564 C0.26878674,28.4758564 0.84878674,28.2258564 1.35878674,28.4258564 C3.18878674,29.1358564 5.06878674,29.6358564 6.92878674,29.9058564 C7.47878674,29.9858564 7.85878674,30.4958564 7.77878674,31.0358564 C7.69878674,31.5258564 7.27878674,31.8858564 6.78878674,31.8858564 Z" id="Path"></path>
                </g>
            </g>
        </g>
    </g>
</svg>