<?xml version="1.0" encoding="UTF-8"?>
<svg width="216px" height="112px" viewBox="0 0 216 112" version="1.1" xmlns="http://www.w3.org/2000/svg" xmlns:xlink="http://www.w3.org/1999/xlink">
    <title>Group</title>
    <g id="Page-2" stroke="none" stroke-width="1" fill="none" fill-rule="evenodd">
        <g id="Artboard" transform="translate(-5340.000000, -881.000000)" fill="#D7E0FD" fill-rule="nonzero">
            <g id="Group" transform="translate(5340.750002, 881.000000)">
                <path d="M213.7,111.142225 L1,111.142225 C0.45,111.142225 -2.27373675e-13,110.692225 -2.27373675e-13,110.142225 C-2.27373675e-13,109.592225 0.45,109.142225 1,109.142225 L213.7,109.142225 C214.25,109.142225 214.7,109.592225 214.7,110.142225 C214.7,110.692225 214.25,111.142225 213.7,111.142225 Z" id="Path"></path>
                <path d="M199.73,74.2222247 L178.94,42.5922247 C178.75,42.3122247 178.44,42.1422247 178.1,42.1422247 L168.33,42.1422247 L154.19,26.7222247 L154.19,21.6822247 C154.19,18.1522247 151.32,15.2822247 147.79,15.2822247 L143.7,15.2822247 L131.76,2.2622247 C129.79,0.112224702 126.88,-0.567775298 124.17,0.492224702 C121.45,1.5522247 119.77,4.0122247 119.77,6.9322247 L119.77,15.2822247 L103.65,15.2822247 C103.17,15.2822247 102.7,15.3422247 102.24,15.4422247 L95.77,8.9722247 C90.7,3.9022247 82.45,3.9022247 77.39,8.9722247 L71.4,14.9622247 C70.08,14.7722247 68.72,14.6722247 67.35,14.6722247 C51.99,14.6722247 39.43,26.9022247 38.9,42.1422247 L37.73,42.1422247 C37.23,42.1422247 36.84,42.5122247 36.76,42.9822247 L14.99,74.0022247 C14.78,74.3122247 14.75,74.7022247 14.92,75.0422247 C15.09,75.3722247 15.43,75.5822247 15.81,75.5822247 L36.73,75.5822247 L36.73,98.6322247 C36.73,105.542225 42.35,111.162225 49.26,111.162225 L140.86,111.162225 L171.16,111.162225 C175.55,111.162225 179.12,107.592225 179.12,103.202225 L179.12,75.7822247 L198.91,75.7822247 C199.28,75.7822247 199.62,75.5822247 199.79,75.2522247 C199.96,74.9222247 199.93,74.5222247 199.73,74.2222247 Z M177.11,103.182225 C177.11,106.462225 174.44,109.142225 171.15,109.142225 L141.85,109.142225 L141.85,46.4722247 L160.8,75.3122247 C160.99,75.5922247 161.3,75.7622247 161.64,75.7622247 L177.11,75.7622247 L177.11,103.182225 Z M36.73,46.5022247 L37.73,45.0822247 L38.25,44.3422247 L38.73,44.3422247 L138.93,44.3422247 L118.41,73.5722247 L38.72,73.5722247 L37.72,73.5722247 L36.72,73.5722247 L17.72,73.5722247 L36.73,46.5022247 Z M38.73,75.5622247 L118.94,75.5622247 C119.27,75.5622247 119.57,75.4022247 119.76,75.1322247 L139.86,46.4922247 L139.86,109.132225 L49.26,109.132225 C43.45,109.132225 38.73,104.412225 38.73,98.6022247 L38.73,75.5622247 Z M178.11,73.7622247 L162.18,73.7622247 L142.71,44.1322247 L177.57,44.1322247 L197.04,73.7622247 L178.11,73.7622247 Z M165.63,42.1322247 L154.2,42.1322247 L154.2,29.6722247 L165.63,42.1322247 Z M121.77,6.9222247 C121.77,4.4522247 123.39,2.9422247 124.9,2.3522247 C125.44,2.1422247 126.07,2.0122247 126.73,2.0122247 C127.92,2.0122247 129.22,2.4422247 130.29,3.6122247 L140.99,15.2822247 L121.77,15.2822247 L121.77,6.9222247 Z M101.72,17.7422247 C102.05,17.5822247 102.39,17.4422247 102.76,17.3722247 C103.05,17.3122247 103.34,17.2822247 103.65,17.2822247 L104.08,17.2822247 L119.76,17.2822247 L120.76,17.2822247 L121.76,17.2822247 L142.82,17.2822247 L144.18,17.2822247 L145.54,17.2822247 L147.79,17.2822247 C150.22,17.2822247 152.19,19.2522247 152.19,21.6822247 L152.19,24.5422247 L152.19,26.0222247 L152.19,27.5022247 L152.19,42.1422247 L140.85,42.1422247 L99.25,42.1422247 L99.25,21.6822247 C99.25,19.9422247 100.27,18.4522247 101.72,17.7422247 Z M78.81,10.3722247 C80.95,8.2322247 83.77,7.1522247 86.59,7.1522247 C89.41,7.1522247 92.22,8.2222247 94.37,10.3722247 L100.26,16.2622247 C98.46,17.3922247 97.26,19.3922247 97.26,21.6722247 L97.26,42.1322247 L95.78,42.1322247 C95.32,29.0922247 86.08,18.2522247 73.78,15.4022247 L78.81,10.3722247 Z M67.35,16.6622247 C68.11,16.6622247 68.85,16.7022247 69.59,16.7622247 C70.02,16.8022247 70.44,16.8422247 70.86,16.9022247 C71.27,16.9522247 71.68,17.0222247 72.08,17.0922247 C84.1,19.2722247 93.3,29.6022247 93.77,42.1322247 L40.9,42.1322247 C41.43,28.0022247 53.09,16.6622247 67.35,16.6622247 Z" id="Shape"></path>
            </g>
        </g>
    </g>
</svg>