<?xml version="1.0" encoding="utf-8"?>
<!-- Generator: Adobe Illustrator 21.0.0, SVG Export Plug-In . SVG Version: 6.00 Build 0)  -->
<svg version="1.1" id="Layer_1" xmlns="http://www.w3.org/2000/svg" xmlns:xlink="http://www.w3.org/1999/xlink" x="0px" y="0px"
	 viewBox="0 0 512 512" style="enable-background:new 0 0 512 512;" xml:space="preserve">
<style type="text/css">
	.st0{fill:#00BBE8;}
</style>
<g id="Page-1">
	<g id="Settings-Copy-5" transform="translate(-21.000000, -16.000000)">
		<g id="Group-3" transform="translate(21.000000, 13.000000)">
			<path id="Shape" class="st0" d="M61.6,410L94,442.4l41.2-41.4l-32.4-32.4L61.6,410z M233,500h46v-67.9h-46V500z M72,225h-69v46
				h69V225z M325,128.7V18H187v110.7c-41.2,23.9-69,68.3-69,119.4c0,76.1,61.9,138,138,138s138-61.9,138-138
				C394,197,366.2,152.6,325,128.7z M440,225v46h69v-46H440z M376.5,401.3l41.2,41.4l32.4-32.4l-41.4-41.2L376.5,401.3z"/>
		</g>
	</g>
</g>
</svg>
