<?xml version="1.0" encoding="utf-8"?>
<!-- Generator: Adobe Illustrator 21.0.0, SVG Export Plug-In . SVG Version: 6.00 Build 0)  -->
<svg version="1.1" id="Layer_1" xmlns="http://www.w3.org/2000/svg" xmlns:xlink="http://www.w3.org/1999/xlink" x="0px" y="0px"
	 viewBox="0 0 144 83" style="enable-background:new 0 0 144 83;" xml:space="preserve">
<style type="text/css">
	.st0{fill:#FFFFFF;}
</style>
<title>Page 1</title>
<desc>Created with Sketch.</desc>
<g>
	<path class="st0" d="M144,45.4h-15.1V7.2h-26.4v20.3h-3.1v-5H85.8v5h-4.5V85h21.2v0.1h26.4v0H144V45.4z M102.3,83.4H82.9V29.1h4.5
		v-5h10.4v5h4.5V83.4z M127.3,83.5h-23.2V8.8h23.2V83.5z M142.4,83.4H129V47h13.4V83.4z"/>
	<path class="st0" d="M94,36.6h4.8v-4.7H94V36.6z M95.6,33.5h1.6V35h-1.6V33.5z"/>
	<path class="st0" d="M85.8,43.6h4.8v-4.7h-4.8V43.6z M87.4,40.5H89V42h-1.6V40.5z"/>
	<path class="st0" d="M85.8,36.6h4.8v-4.7h-4.8V36.6z M87.4,33.5H89V35h-1.6V33.5z"/>
	<path class="st0" d="M85.8,50.5h4.8v-4.7h-4.8V50.5z M87.4,47.4H89v1.5h-1.6V47.4z"/>
	<path class="st0" d="M113.7,40.4h-5.9v5.7h5.9V40.4z M112.1,44.5h-2.7V42h2.7V44.5z"/>
	<path class="st0" d="M113.7,65.9h-5.9v5.7h5.9V65.9z M112.1,70h-2.7v-2.5h2.7V70z"/>
	<path class="st0" d="M113.7,48.9h-5.9v5.7h5.9V48.9z M112.1,53h-2.7v-2.5h2.7V53z"/>
	<path class="st0" d="M113.7,74.4h-5.9v5.7h5.9V74.4z M112.1,78.5h-2.7V76h2.7V78.5z"/>
	<path class="st0" d="M123.7,74.4h-5.9v5.7h5.9V74.4z M122.1,78.5h-2.7V76h2.7V78.5z"/>
	<path class="st0" d="M123.7,57.4h-5.9v5.7h5.9V57.4z M122.1,61.5h-2.7V59h2.7V61.5z"/>
	<path class="st0" d="M123.7,31.9h-5.9v5.7h5.9V31.9z M122.1,36h-2.7v-2.5h2.7V36z"/>
	<path class="st0" d="M123.7,48.9h-5.9v5.7h5.9V48.9z M122.1,53h-2.7v-2.5h2.7V53z"/>
	<path class="st0" d="M123.7,65.9h-5.9v5.7h5.9V65.9z M122.1,70h-2.7v-2.5h2.7V70z"/>
	<path class="st0" d="M113.7,31.9h-5.9v5.7h5.9V31.9z M112.1,36h-2.7v-2.5h2.7V36z"/>
	<path class="st0" d="M56.7,16.5c-0.5-1.9-2.4-3.2-4.3-3c-0.9-2.4-3.2-3.9-5.8-3.9c-1.6,0-3.1,0.6-4.3,1.7c-0.9-0.6-2-1-3.1-1
		c-1.6,0-3,0.7-4.1,1.9c-0.2-0.1-0.4-0.2-0.6-0.3c-0.3-3.3-3-5.9-6.4-5.9c-2.2,0-4.3,1.2-5.5,3.1c-0.3-0.1-0.6-0.1-0.9-0.1
		c-0.7,0-1.3,0.1-1.9,0.4c-0.4-5-4.7-9-9.8-9c-5.4,0-9.9,4.4-9.9,9.9S4.6,20,10.1,20c2.4,0,4.7-0.9,6.5-2.5H57L56.7,16.5z
		 M10.1,18.4c-4.6,0-8.3-3.7-8.3-8.3s3.7-8.3,8.3-8.3s8.3,3.7,8.3,8.3c0,0.1,0,0.1,0,0.2c0,0,0,0,0,0c-0.1,0.1-0.3,0.3-0.4,0.5
		c0,0-0.1,0.1-0.1,0.1c-0.1,0.2-0.3,0.4-0.4,0.6c-0.2,0-0.5,0-0.7,0l-0.2,0c0,0-0.1,0-0.1,0c-1,0-1.9,0.3-2.6,0.9
		c-0.5,0.4-1,0.8-1.4,1.3c-0.6,0.9-0.9,1.9-1,3l0,0.8h2.3C12.6,18.1,11.4,18.4,10.1,18.4z M18.3,15.9h-5.1c0.2-0.9,0.8-1.7,1.6-2.2
		c0.4-0.4,1-0.6,1.6-0.6l0.2,0l0.2,0c0.3,0,0.7,0,1,0.1l0.7,0.2l0,0l0,0l0.2-0.7c0.1-0.3,0.2-0.5,0.4-0.7c0,0,0-0.1,0.1-0.1
		c0.1-0.2,0.3-0.4,0.5-0.6c0.6-0.5,1.4-0.8,2.2-0.8c0.4,0,0.7,0.1,1.1,0.2l0.7,0.2l0.3-0.6c0.8-1.7,2.5-2.7,4.3-2.7
		c2.6,0,4.8,2.2,4.8,4.9l0,0.6l0.6,0.1c0.4,0.1,0.9,0.3,1.2,0.7l0.7,0.7l0.5-0.9c0.7-1.1,1.9-1.8,3.2-1.8c1,0,1.9,0.4,2.6,1.1
		l0.6,0.6l0.6-0.7c0.9-1.1,2.2-1.7,3.6-1.7c2.1,0,3.9,1.4,4.5,3.5l0.2,0.8l0.8-0.2c0.9-0.3,1.9,0,2.5,0.7H18.3z"/>
</g>
</svg>
