<?xml version="1.0" encoding="UTF-8"?>
<svg width="131px" height="131px" viewBox="0 0 131 131" version="1.1" xmlns="http://www.w3.org/2000/svg" xmlns:xlink="http://www.w3.org/1999/xlink">
    <!-- Generator: Sketch 44.1 (41455) - http://www.bohemiancoding.com/sketch -->
    <title>Group 4</title>
    <desc>Created with Sketch.</desc>
    <defs>
        <circle id="path-1" cx="65.5" cy="65.5" r="65.5"></circle>
        <linearGradient x1="50%" y1="100%" x2="50%" y2="3.061617e-15%" id="linearGradient-3">
            <stop stop-color="#E3E3E3" offset="0%"></stop>
            <stop stop-color="#E6E6E6" stop-opacity="0.789656929" offset="100%"></stop>
        </linearGradient>
    </defs>
    <g id="Page-1" stroke="none" stroke-width="1" fill="none" fill-rule="evenodd">
        <g id="Work-Order---List-Screen-Copy-14" transform="translate(-755.000000, -258.000000)">
            <g id="Group-4" transform="translate(755.000000, 258.000000)">
                <mask id="mask-2" fill="white">
                    <use xlink:href="#path-1"></use>
                </mask>
                <use id="Oval-2" fill="#F0F0F0" xlink:href="#path-1"></use>
                <path d="M85.8547556,36.3413366 C85.8590851,36.5783763 85.7476007,36.7252183 85.5753229,36.7953921 C85.3839233,36.8735034 85.1761077,36.9202258 84.9711784,36.9552226 C83.3479795,37.2314081 83.3476187,37.2294237 83.0593467,38.8630855 C82.9866473,39.2751089 82.9695097,39.8067344 82.4393273,39.8226093 C81.9008467,39.8386645 81.8620617,39.3055957 81.7828681,38.8969999 C81.4814272,37.3419905 81.4832311,37.3445161 79.9487869,37.0522753 C79.5396498,36.9743445 79.0080243,36.9330339 79.0000869,36.4088045 C78.9921494,35.8710455 79.5299085,35.8474137 79.9367004,35.762267 C81.4871998,35.4371943 81.4848547,35.4373747 81.7844916,33.9186249 C81.8647676,33.5114722 81.8963368,32.9940979 82.4474451,33.0000509 C82.9402857,33.005102 83.033009,33.4845933 83.0510485,33.8684749 C83.1091359,35.1000351 83.7179707,35.7270899 84.9567467,35.7788634 C85.3447775,35.795099 85.7382201,35.9000892 85.8547556,36.3413366" id="Fill-1" fill="#50CA7C" mask="url(#mask-2)"></path>
                <path d="M97.8547556,43.3413366 C97.8590851,43.5783763 97.7476007,43.7252183 97.5753229,43.7953921 C97.3839233,43.8735034 97.1761077,43.9202258 96.9711784,43.9552226 C95.3479795,44.2314081 95.3476187,44.2294237 95.0593467,45.8630855 C94.9866473,46.2751089 94.9695097,46.8067344 94.4393273,46.8226093 C93.9008467,46.8386645 93.8620617,46.3055957 93.7828681,45.8969999 C93.4814272,44.3419905 93.4832311,44.3445161 91.9487869,44.0522753 C91.5396498,43.9743445 91.0080243,43.9330339 91.0000869,43.4088045 C90.9921494,42.8710455 91.5299085,42.8474137 91.9367004,42.762267 C93.4871998,42.4371943 93.4848547,42.4373747 93.7844916,40.9186249 C93.8647676,40.5114722 93.8963368,39.9940979 94.4474451,40.0000509 C94.9402857,40.005102 95.033009,40.4845933 95.0510485,40.8684749 C95.1091359,42.1000351 95.7179707,42.7270899 96.9567467,42.7788634 C97.3447775,42.795099 97.7382201,42.9000892 97.8547556,43.3413366" id="Fill-1" fill="#0E99E3" mask="url(#mask-2)"></path>
                <g id="Group-2" mask="url(#mask-2)">
                    <g transform="translate(58.011851, 64.123067) rotate(-30.000000) translate(-58.011851, -64.123067) translate(24.511851, 22.123067)">
                        <rect id="Rectangle-3" fill="url(#linearGradient-3)" x="2.3625546e-13" y="8.65788279" width="60.6051795" height="75.3235803" rx="5"></rect>
                        <polygon id="Rectangle-6" fill="#F8F8F8" points="7.79209451 12.1210359 53.6788733 12.1210359 53.6788733 75.3235803 7.84335867 75.5052363"></polygon>
                        <polygon id="Path-2" fill="#BEBEBE" opacity="0.449999988" points="7.58796279 51.3543332 22.3128818 75.4818613 26.5961378 54.9663646"></polygon>
                        <path d="M7.79209451,12.1210359 L53.6788733,12.1210359 L53.6788733,75.3235803 L22.2747207,75.4524994 C21.5806862,73.4844589 21.3317112,71.6030711 21.5277956,69.808336 C21.72388,68.0136008 22.3743325,66.2203174 23.479153,64.4284858 C19.3298262,62.4694614 16.3783956,60.7654522 14.6248613,59.3164581 C12.871327,57.867464 10.5865838,55.2446772 7.77063157,51.4480979 L7.79209451,12.1210359 Z" id="Rectangle-6" fill="#FFFFFF"></path>
                        <path d="M24.4405916,5.77448849 L34.0102503,5.77448849 L34.0102503,5.77448845 C37.5889877,5.77448845 40.894911,7.68691716 42.679002,10.7892357 C43.4106278,12.0614444 44.7553424,13.2758229 46.7131458,14.4323713 C40.8575002,14.4323713 21.9742494,14.4323713 12.9474029,14.4323713 C14.0989256,13.5814068 14.873185,12.6994697 15.2701812,11.7865602 L15.2701811,11.7865602 C16.857776,8.13581826 20.4595899,5.77448849 24.4405916,5.77448849 Z" id="Rectangle-3-Copy-2" fill="#E1E1E1"></path>
                        <circle id="Oval-3" fill="#E1E1E1" cx="28.5710132" cy="4.32894139" r="4.32894139"></circle>
                        <g id="Page-1" stroke-width="1" fill="none" transform="translate(43.232051, 36.866025)">
                            <polygon id="Fill-11" fill="#BEBEBE" points="19.0274897 5.73820193 16.7787697 3.48948184 2.86753703 17.4001559 5.11625712 19.648876"></polygon>
                            <path d="M15.4081955,3.03994777 L9.037939,9.41020426" id="Stroke-12" stroke="#BEBEBE" stroke-linecap="round" stroke-linejoin="round"></path>
                            <polygon id="Fill-13" fill="#BEBEBE" points="0.542463227 21.9743408 3.91554336 20.8499808 1.66682327 18.6012607"></polygon>
                            <polygon id="Fill-14" fill="#BEBEBE" points="17.9795393 2.28871223 20.2282594 4.53687377 22.1558135 2.60931962 19.9070934 0.361158075"></polygon>
                        </g>
                    </g>
                </g>
            </g>
        </g>
    </g>
</svg>