<svg xmlns="http://www.w3.org/2000/svg" width="22" height="23" viewBox="0 0 22 23">
    <g fill="none" fill-rule="evenodd" stroke="#2B405A">
        <path fill-rule="nonzero" d="M19.036 10.772c-.084-.173-.084-.371 0-.544l.777-1.602c.433-.892.09-1.956-.78-2.421l-1.564-.836c-.169-.09-.285-.25-.318-.44l-.305-1.757c-.17-.978-1.069-1.635-2.044-1.496l-1.753.25c-.19.027-.376-.034-.514-.168L11.263.518c-.708-.69-1.818-.69-2.526 0l-1.272 1.24c-.138.134-.325.195-.514.168l-1.753-.25c-.976-.139-1.873.518-2.044 1.496L2.85 4.93c-.033.19-.149.35-.318.44l-1.563.836c-.87.465-1.214 1.529-.781 2.42l.777 1.603c.084.173.084.371 0 .544l-.777 1.602c-.433.892-.09 1.956.78 2.421l1.564.836c.169.09.285.25.318.44l.305 1.757c.155.89.913 1.514 1.784 1.514.086 0 .173-.006.26-.018l1.753-.25c.19-.027.376.034.514.168l1.272 1.24c.354.345.808.518 1.263.518.454 0 .91-.173 1.263-.518l1.272-1.24c.138-.134.325-.195.514-.168l1.753.25c.976.139 1.873-.518 2.044-1.496l.305-1.757c.033-.19.15-.35.318-.44l1.563-.836c.871-.465 1.214-1.529.781-2.42l-.777-1.603z" transform="translate(1 1)"/>
        <path stroke-linecap="round" d="M13.668 6.166L6.381 14.869" transform="translate(1 1)"/>
        <path d="M6.457 6.048c-.414 0-.79.168-1.06.44-.272.27-.44.646-.44 1.06 0 .414.168.789.44 1.06.27.272.646.44 1.06.44.414 0 .79-.168 1.06-.44.272-.271.44-.646.44-1.06 0-.414-.168-.79-.44-1.06-.27-.272-.646-.44-1.06-.44zM13.457 12.048c-.414 0-.79.168-1.06.44-.272.27-.44.646-.44 1.06 0 .414.168.789.44 1.06.27.272.646.44 1.06.44.414 0 .79-.168 1.06-.44.272-.271.44-.646.44-1.06 0-.414-.168-.79-.44-1.06-.27-.272-.646-.44-1.06-.44z" transform="translate(1 1)"/>
    </g>
</svg>
