<svg viewBox="0 0 60 50" xmlns="http://www.w3.org/2000/svg">
  <path d="M35.86 0c4.117 0 7.482 3.274 7.613 7.348l.004.245v13.435H60V50l-6.612.013-.03-19.685-9.881.046v2.92a4.1 4.1 0 01-3.898 4.084l-.204.005h-7.617v2.687h4.101a4.101 4.101 0 014.097 3.885l.005.204v1.963c.364.411.586.95.586 1.542A2.34 2.34 0 0138.203 50a2.34 2.34 0 01-2.344-2.336c0-.526.176-1.01.47-1.4l.116-.142v-1.963a.586.586 0 00-.49-.577l-.096-.007h-4.101v2.547c.363.411.586.95.586 1.542A2.34 2.34 0 0130 50a2.34 2.34 0 01-2.344-2.336c0-.526.176-1.01.47-1.4l.116-.142v-2.547h-4.101a.586.586 0 00-.579.49l-.007.094v1.963c.363.411.586.95.586 1.542A2.34 2.34 0 0121.797 50a2.34 2.34 0 01-2.344-2.336c0-.526.176-1.01.47-1.4l.116-.142v-1.963a4.1 4.1 0 013.897-4.084l.205-.005h4.101v-2.687h-7.617a4.101 4.101 0 01-4.097-3.885l-.005-.204-.082-3.211-9.758.024.011 19.929L0 50V21.028h16.523V7.593c0-4.104 3.285-7.46 7.371-7.59L24.141 0h11.718zM4.525 30.374H2.182v16.121h2.344V30.374zm52.958 0H55.14v16.121h2.343V30.374zm-17.523 0H20.039v2.92c0 .322.263.585.586.585h18.75a.586.586 0 00.586-.585v-2.92zm16.523-6.508H3.516v2.336h52.968v-2.336zM35.86 3.505H24.141a4.101 4.101 0 00-4.097 3.885l-.005.203v13.435h19.922V7.593a4.1 4.1 0 00-4.102-4.088z"/>
  <path d="M23.333 9.969h13.333v3.323H23.333zm0 6.646h13.333v3.323H23.333z"/>
</svg>
