<svg viewBox="0 0 62 50" xmlns="http://www.w3.org/2000/svg">
  <g fill-rule="evenodd">
    <path d="M56.364 0C59.464 0 62 2.5 62 5.556v38.888C62 47.5 59.464 50 56.364 50H5.636C2.536 50 0 47.5 0 44.444V5.556C0 2.5 2.536 0 5.636 0zm-1.137 3.846H6.773a2.905 2.905 0 00-2.898 2.908v36.492a2.895 2.895 0 002.898 2.908h48.454a2.905 2.905 0 002.898-2.908V6.754a2.895 2.895 0 00-2.898-2.908z"/>
    <path d="M27.311 19.53l-7.786-.058-.15 3.605H31V3.847l-3.81.062.111 11.679zm3.693 15.2l-7.673-.048-.081-3.913h11.625l-.016 15.511-3.957.015.084-7.605zM3.875 19.23v3.847H15.5V19.23h-4.65zM46.5 23.077v3.846h11.625v-3.846h-4.65zm-3.875-7.692H46.5v19.231h-3.875z"/>
  </g>
</svg>
