<svg viewBox="0 0 62 50" xmlns="http://www.w3.org/2000/svg">
  <g fill-rule="evenodd">
    <path d="M57.65 0A4.35 4.35 0 0162 4.35v41.3a4.35 4.35 0 01-4.14 4.345l-.21.005H4.35A4.35 4.35 0 010 45.65V4.35A4.35 4.35 0 014.35 0h53.3zM24.225 3.846H6.775a2.9 2.9 0 00-2.895 2.73l-.005.17v36.508a2.9 2.9 0 002.73 2.895l.17.005h17.45a2.9 2.9 0 002.895-2.73l.005-.17V6.746a2.9 2.9 0 00-2.9-2.9zm31 0h-17.45a2.9 2.9 0 00-2.9 2.9v36.508a2.9 2.9 0 002.9 2.9h17.45a2.9 2.9 0 002.9-2.9V6.746a2.9 2.9 0 00-2.9-2.9z"/>
    <path d="M7.75 11.538v3.847h15.5v-3.847h-6.2zm31 0v3.847h15.5v-3.847h-6.2zm-31 7.692v3.847h15.5V19.23h-6.2zm31 0v3.847h15.5V19.23h-6.2z"/>
    <ellipse cx="21.313" cy="28.846" rx="1.938" ry="1.923"/>
    <ellipse cx="52.313" cy="28.846" rx="1.938" ry="1.923"/>
  </g>
</svg>
