<?xml version="1.0" encoding="UTF-8"?>
<svg width="18px" height="17px" viewBox="0 0 18 17" version="1.1" xmlns="http://www.w3.org/2000/svg" xmlns:xlink="http://www.w3.org/1999/xlink">
    <!-- Generator: Sketch 59 (86127) - https://sketch.com -->
    <title>folder (1)</title>
    <desc>Created with Sketch.</desc>
    <g id="Page-1" stroke="none" stroke-width="1" fill="none" fill-rule="evenodd">
        <g id="Vendor_Portal_Home1.0" transform="translate(-30.000000, -443.000000)" fill="#324056" fill-rule="nonzero">
            <g id="Group-6" transform="translate(29.000000, 126.000000)">
                <g id="folder-(1)" transform="translate(1.000000, 317.000000)">
                    <path d="M16.9145729,2.78027638 L16.9145729,0.489120603 C16.9145729,0.239336683 16.7120503,0.0368592965 16.4623116,0.0368592965 L0.452261307,0.0368592965 C0.202522613,0.0368592965 0,0.239336683 0,0.489120603 L0,13.385804 C0,13.6355879 0.202522613,13.8380653 0.452261307,13.8380653 L2.26130653,13.8380653 L2.26130653,14.8877638 C2.26130653,15.5860101 2.82939196,16.1540955 3.52763819,16.1540955 L16.7336683,16.1540955 C17.4319146,16.1540955 18,15.5860101 18,14.8877638 L18,4.03349246 C18,3.39666332 17.5274322,2.86837688 16.9145729,2.78027638 Z M0.904522613,12.9335427 L0.904522613,0.94138191 L16.0100503,0.94138191 L16.0100503,2.7671608 L11.6683417,2.7671608 C10.9700955,2.7671608 10.4020101,3.33524623 10.4020101,4.03349246 C10.4020101,4.23298492 10.2396935,4.39530151 10.040201,4.39530151 L3.52763819,4.39530151 C2.82939196,4.39530151 2.26130653,4.96338693 2.26130653,5.66163317 L2.26130653,12.9335427 L0.904522613,12.9335427 Z M17.0954774,14.8877638 C17.0954774,15.0872563 16.9331608,15.2495729 16.7336683,15.2495729 L3.52763819,15.2495729 C3.32814573,15.2495729 3.16582915,15.0872563 3.16582915,14.8877638 L3.16582915,5.66163317 C3.16582915,5.4621407 3.32814573,5.29982412 3.52763819,5.29982412 L10.040201,5.29982412 C10.7384472,5.29982412 11.3065327,4.73173869 11.3065327,4.03349246 C11.3065327,3.834 11.4688492,3.67168342 11.6683417,3.67168342 L16.7336683,3.67168342 C16.9331608,3.67168342 17.0954774,3.834 17.0954774,4.03349246 L17.0954774,14.8877638 Z" id="Shape"></path>
                    <path d="M8.95477387,6.65660804 L4.79396985,6.65660804 C4.54423116,6.65660804 4.34170854,6.85908543 4.34170854,7.10886935 C4.34170854,7.35865327 4.54423116,7.56113065 4.79396985,7.56113065 L8.95477387,7.56113065 C9.20451256,7.56113065 9.40703518,7.35865327 9.40703518,7.10886935 C9.40703518,6.85908543 9.20451256,6.65660804 8.95477387,6.65660804 Z" id="Path"></path>
                    <path d="M8.95477387,8.19429648 L4.79396985,8.19429648 C4.54423116,8.19429648 4.34170854,8.39677387 4.34170854,8.64655779 C4.34170854,8.89634171 4.54423116,9.0988191 4.79396985,9.0988191 L8.95477387,9.0988191 C9.20451256,9.0988191 9.40703518,8.89634171 9.40703518,8.64655779 C9.40703518,8.39677387 9.20451256,8.19429648 8.95477387,8.19429648 Z" id="Path"></path>
                </g>
            </g>
        </g>
    </g>
</svg>