<?xml version="1.0" encoding="UTF-8"?>
<svg width="18px" height="21px" viewBox="0 0 18 21" version="1.1" xmlns="http://www.w3.org/2000/svg" xmlns:xlink="http://www.w3.org/1999/xlink">
    <!-- Generator: Sketch 59 (86127) - https://sketch.com -->
    <title>architect</title>
    <desc>Created with Sketch.</desc>
    <g id="Page-1" stroke="none" stroke-width="1" fill="none" fill-rule="evenodd">
        <g id="Vendor_Portal_Home1.0" transform="translate(-30.000000, -372.000000)" fill="#324056" fill-rule="nonzero">
            <g id="Group-6" transform="translate(29.000000, 126.000000)">
                <g id="architect" transform="translate(1.000000, 246.000000)">
                    <path d="M2.4,15.68 L2.64953124,15.68 C3.43484376,18.4471875 5.98453124,20.48 9,20.48 C12.0154688,20.48 14.5651562,18.4471875 15.3504688,15.68 L15.6,15.68 C16.9234375,15.68 18,14.6034375 18,13.28 C18,12.8210938 17.8703125,12.391875 17.6459375,12.026875 C17.8545312,11.9329688 18,11.7235938 18,11.48 L18,9.08 C18,8.74859376 17.7314062,8.48 17.4,8.48 L16.7721875,8.48 C16.5629688,6.13546876 15.1471875,4.12171876 13.2,3.12125 L13.2,3 C13.2,2.0075 12.3925,1.2 11.4,1.2 L10.8,1.2 C10.8,0.53828124 10.2617188,0 9.6,0 L8.4,0 C7.73828124,0 7.2,0.53828124 7.2,1.2 L6.6,1.2 C5.6075,1.2 4.8,2.0075 4.8,3 L4.8,3.12125 C2.85359376,4.12125 1.43718752,6.13453124 1.22781248,8.48 L0.6,8.48 C0.26859376,8.48 -5.68434189e-14,8.74859376 -5.68434189e-14,9.08 L-5.68434189e-14,11.48 C-5.68434189e-14,11.7235938 0.14546876,11.9329688 0.35406248,12.026875 C0.12968752,12.391875 -5.68434189e-14,12.8210938 -5.68434189e-14,13.28 C-5.68434189e-14,14.6034375 1.07656248,15.68 2.4,15.68 Z M2.4,14.48 C1.73828124,14.48 1.2,13.9417188 1.2,13.28 C1.2,12.6182812 1.73828124,12.08 2.4,12.08 L2.4,13.88 C2.4,14.0823438 2.40968752,14.2823438 2.4275,14.48 L2.4,14.48 Z M9,19.28 C6.0225,19.28 3.6,16.8575 3.6,13.88 L3.6,12.08 L14.4,12.08 L14.4,13.88 C14.4,16.8575 11.9775,19.28 9,19.28 Z M15.6,14.48 L15.5725,14.48 C15.5903125,14.2823438 15.6,14.0823438 15.6,13.88 L15.6,12.08 C16.2617188,12.08 16.8,12.6182812 16.8,13.28 C16.8,13.9417188 16.2617188,14.48 15.6,14.48 Z M4.8,4.51546876 L4.8,5.4 C4.8,5.73140624 5.06859376,6 5.4,6 C5.73140624,6 6,5.73140624 6,5.4 C6,4.5975 6,3.88390624 6,3 C6,2.66921876 6.26921876,2.4 6.6,2.4 L7.2,2.4 L7.2,4.2 C7.2,4.53140624 7.46859376,4.8 7.8,4.8 C8.13140624,4.8 8.4,4.53140624 8.4,4.2 L8.4,1.2 L9.6,1.2 L9.6,4.2 C9.6,4.53140624 9.86859376,4.8 10.2,4.8 C10.5314062,4.8 10.8,4.53140624 10.8,4.2 L10.8,2.4 L11.4,2.4 C11.7307812,2.4 12,2.66921876 12,3 L12,5.4 C12,5.73140624 12.2685938,6 12.6,6 C12.9314062,6 13.2,5.73140624 13.2,5.4 L13.2,4.51546876 C14.5035938,5.40640624 15.3878125,6.875625 15.5665625,8.48 L2.43343752,8.48 C2.61218752,6.875625 3.49640624,5.40640624 4.8,4.51546876 Z M1.2,9.68 L16.8,9.68 L16.8,10.88 C16.0198438,10.88 1.57671876,10.88 1.2,10.88 L1.2,9.68 Z" id="Shape"></path>
                </g>
            </g>
        </g>
    </g>
</svg>