<svg viewBox="0 0 20 20" xmlns="http://www.w3.org/2000/svg">
  <g fill="#606266" fill-rule="nonzero">
    <path d="M10 1.1A8.9 8.9 0 1110 19 8.9 8.9 0 0110 1zM10 0a10 10 0 100 20 10 10 0 000-20z"/>
    <path d="M11.8 8.4C12.8 5 10.7 2.8 8 3c-1.3.1-2.5 1.7-1.8 3.2C7 7.6 8.5 7.4 9 9c.4-.6 1.3-1.3 2.8-.6zM7.3 10c-3.2.8-4 3.3-2.6 5.2.6 1 2.5 1.2 3.3 0 .8-1.2 0-2.3 1-3.4-.7 0-1.6-.4-1.7-1.8zM11 11.4c2.3 2.5 4.9 1.9 5.9-.4.4-1.1-.3-3-1.7-3s-2 1.3-3.4.9c.3.6.4 1.7-.8 2.5z"/>
    <circle cx="10.5" cy="10.5" r="1.5"/>
  </g>
</svg>
