<?xml version="1.0" encoding="UTF-8"?>
<svg width="14px" height="14px" viewBox="0 0 14 14" version="1.1" xmlns="http://www.w3.org/2000/svg" xmlns:xlink="http://www.w3.org/1999/xlink">
    <!-- Generator: Sketch 63.1 (92452) - https://sketch.com -->
    <title>list-icon</title>
    <desc>Created with Sketch.</desc>
    <g id="Page-1" stroke="none" stroke-width="1" fill="none" fill-rule="evenodd">
        <g id="12-views-manager-02" transform="translate(-181.000000, -258.000000)" stroke="#353F54">
            <g id="Group-5" transform="translate(75.000000, 183.000000)">
                <g id="sub-1" transform="translate(0.000000, 55.000000)">
                    <g id="Group-6-Copy" transform="translate(59.000000, 12.000000)">
                        <g id="list-icon" transform="translate(47.000000, 8.000000)">
                            <path d="M12.5157201,0.5 L1.47368421,0.5 C1.20480874,0.5 0.961387688,0.608983317 0.785185503,0.785185503 C0.608983317,0.961387688 0.5,1.20480874 0.5,1.47368421 L0.5,12.5120651 C0.5,12.7809406 0.608983317,13.0243617 0.785185503,13.2005639 C0.961387688,13.376766 1.20480874,13.4857494 1.47368421,13.4857494 L12.5157201,13.4857494 C12.7845956,13.4857494 13.0280167,13.376766 13.2042188,13.2005639 C13.380421,13.0243617 13.4894043,12.7809406 13.4894043,12.5120651 L13.4894043,1.47368421 C13.4894043,1.20480874 13.380421,0.961387688 13.2042188,0.785185503 C13.0280167,0.608983317 12.7845956,0.5 12.5157201,0.5 Z" id="Rectangle"></path>
                            <line x1="2.97057623" y1="4.01412418" x2="10.9508972" y2="4.01412418" id="Path-7" stroke-linecap="round"></line>
                            <line x1="2.97057623" y1="7.51412418" x2="8.59995747" y2="7.51412418" id="Path-7-Copy" stroke-linecap="round"></line>
                            <line x1="2.953125" y1="11.0141242" x2="6.13346789" y2="11.0141242" id="Path-7-Copy-2" stroke-linecap="round"></line>
                        </g>
                    </g>
                </g>
            </g>
        </g>
    </g>
</svg>