<svg id="Layer_1" data-name="Layer 1" xmlns="http://www.w3.org/2000/svg" viewBox="0 0 50 50"><path d="M48.17,0H1.83A1.83,1.83,0,0,0,0,1.83V48.17A1.83,1.83,0,0,0,1.83,50H48.17A1.83,1.83,0,0,0,50,48.17V1.83A1.83,1.83,0,0,0,48.17,0ZM12.7,13.23A4.75,4.75,0,1,1,7.94,18,4.75,4.75,0,0,1,12.7,13.23Zm7,16.48a7.07,7.07,0,0,1-14.13,0V27.53A2.64,2.64,0,0,1,8.2,24.89h8.87a2.65,2.65,0,0,1,2.63,2.64Zm14.25,5H24.19a2.27,2.27,0,0,1,0-4.53H34a2.27,2.27,0,0,1,0,4.53Zm8.22-6.88h-18a2.26,2.26,0,0,1,0-4.52h18a2.26,2.26,0,0,1,0,4.52Zm2.26-9.14a2.27,2.27,0,0,1-2.26,2.27h-18a2.27,2.27,0,0,1-2.26-2.27h0a2.27,2.27,0,0,1,2.26-2.26h18a2.27,2.27,0,0,1,2.26,2.26Z"/></svg>