<svg version="1.1" xmlns="http://www.w3.org/2000/svg" x="0" y="0" viewBox="0 0 375.468 375.468" xml:space="preserve">
  <path d="M375.467 149.363c0-46.592-67.584-124.331-81.152-139.435-6.654-7.069-17.779-7.406-24.849-.751-.258.243-.509.493-.751.751a571.747 571.747 0 00-63.147 86.101c-11.093-13.568-19.627-23.211-22.443-26.368-6.654-7.069-17.779-7.406-24.849-.751-.258.243-.509.493-.751.751a842.043 842.043 0 00-64.683 83.285 520.086 520.086 0 00-19.541-30.379c-5.361-7.753-15.992-9.691-23.744-4.33a17.07 17.07 0 00-4.33 4.33C34.987 138.098 0 190.834 0 217.628c-.142 30.88 23.277 56.778 54.016 59.733 14.241 64.424 78.011 105.106 142.436 90.866 54.655-12.081 93.595-60.491 93.681-116.466a69.42 69.42 0 00-.683-8.533c48.754-4.09 86.189-44.941 86.017-93.865zM59.734 243.23c-14.138 0-25.6-11.462-25.6-25.6 0-8.533 11.691-31.317 25.6-54.016 13.909 22.699 25.6 45.483 25.6 54.016 0 14.138-11.462 25.6-25.6 25.6zm110.933 93.866c-39.838-.219-74.29-27.816-83.2-66.645a59.733 59.733 0 0032-52.821 78.491 78.491 0 00-7.168-27.733 25.605 25.605 0 014.437-10.411 764.323 764.323 0 0153.931-72.277C208.043 151.412 256 219.252 256 251.764c.001 47.127-38.204 85.332-85.333 85.332zm110.934-128h-2.048a438.327 438.327 0 00-50.517-83.371 12.227 12.227 0 011.365-2.987 432.89 432.89 0 0151.2-75.093c27.989 34.133 59.733 80.384 59.733 101.717 0 32.991-26.744 59.734-59.733 59.734z"/>
  <path d="M325.724 129.757a8.594 8.594 0 00-.432-.959c-1.365-2.987-2.901-6.059-4.523-9.131a8.533 8.533 0 00-14.934 8.192c1.451 2.645 2.816 5.376 3.925 7.936 1.667 4.408 6.592 6.63 11 4.962s6.631-6.592 4.964-11zM309.846 101.917c-7.083-10.411-14.592-19.968-19.627-26.197a8.534 8.534 0 10-13.227 10.752c4.864 5.973 12.032 15.104 18.688 25.003a8.544 8.544 0 0011.861 2.304 8.544 8.544 0 002.305-11.862zM195.969 306.589a8.546 8.546 0 00-10.624-5.76 51.19 51.19 0 01-14.677 2.133c-4.713 0-8.533 3.82-8.533 8.533s3.82 8.533 8.533 8.533a68.256 68.256 0 0019.541-2.816 8.544 8.544 0 005.76-10.623zM236.459 232.307a8.546 8.546 0 00-16.384 4.864 51.2 51.2 0 01-12.459 50.432 8.535 8.535 0 005.717 14.507 8.533 8.533 0 006.059-2.56 68.266 68.266 0 0017.067-67.243z"/>
</svg>
