<?xml version="1.0" encoding="UTF-8"?>
<svg width="22px" height="22px" viewBox="0 0 22 22" version="1.1" xmlns="http://www.w3.org/2000/svg" xmlns:xlink="http://www.w3.org/1999/xlink">
    <!-- Generator: Sketch 63.1 (92452) - https://sketch.com -->
    <title>default-view</title>
    <desc>Created with Sketch.</desc>
    <g id="Page-1" stroke="none" stroke-width="1" fill="none" fill-rule="evenodd">
        <g id="01-roles-default" transform="translate(-1291.000000, -85.000000)" fill="#808080" fill-rule="nonzero">
            <g id="Group-4" transform="translate(290.000000, 0.000000)">
                <g id="Group-8" transform="translate(0.000000, 23.000000)">
                    <g id="Group-13" transform="translate(990.000000, 50.000000)">
                        <g id="Group-15" transform="translate(11.000000, 11.063361)">
                            <path d="M16.4241319,9.48663891 C16.8335387,9.48663891 17.1726854,9.79166596 17.2224393,10.1874804 L17.228722,10.2882014 L17.228722,11.0449763 C17.228722,11.4833603 17.6784882,11.7699181 18.0753489,11.6133399 L18.1593974,11.5728985 L18.820483,11.1944496 C19.1722944,10.9931781 19.6138565,11.0860121 19.856286,11.3971347 L19.917249,11.4873414 L21.3413239,13.9331542 C21.5464723,14.2854528 21.4519387,14.7279695 21.1374443,14.9696226 L21.0462794,15.0303292 L20.3852592,15.4087408 C20.0032482,15.6273744 19.9760757,16.1473301 20.3034578,16.4090124 L20.3853013,16.4645612 L21.0464225,16.8430305 C21.4001197,17.0456822 21.5412238,17.4757284 21.3899067,17.8420183 L21.3413283,17.940116 L19.9171995,20.3858629 C19.7132633,20.7362703 19.2839338,20.8750084 18.9182981,20.7264596 L18.8203756,20.6787667 L18.1594077,20.3003851 C17.7724524,20.0788799 17.2970026,20.3217369 17.235329,20.7368245 L17.2286296,20.8283015 L17.2286296,21.5850764 C17.2286296,21.9945343 16.9209757,22.3310581 16.5248007,22.3804082 L16.4240395,22.3866389 L13.5758681,22.3866389 C13.1664613,22.3866389 12.8273146,22.0816119 12.7775607,21.6857974 L12.771278,21.5850764 L12.771278,20.8283015 C12.771278,20.3898623 12.3214846,20.1032948 11.9246457,20.2599257 L11.8406025,20.3003793 L11.1796757,20.6787373 C10.8278362,20.8802149 10.3861849,20.7873212 10.1437217,20.4761546 L10.082751,20.3859364 L8.65867615,17.9401237 C8.45349908,17.5877759 8.54809417,17.1452219 8.8626175,16.903645 L8.95378937,16.8429621 L9.61474084,16.4645371 C9.99675185,16.2459035 10.0239243,15.7259477 9.69654218,15.4642654 L9.61469873,15.4087167 L8.95373626,15.0303382 C8.59990743,14.8278022 8.45876468,14.3976088 8.61008505,14.0312786 L8.65866533,13.9331727 L10.0828011,11.4872555 C10.2868554,11.1369754 10.716117,10.998283 11.0817122,11.1468221 L11.1796244,11.1945111 L11.8405764,11.5728836 C12.2275426,11.7943742 12.7029164,11.5516001 12.7645797,11.1364655 L12.771278,11.0449763 L12.771278,10.2882014 C12.771278,9.87875583 13.0789987,9.54222162 13.4751224,9.49286988 L13.5758681,9.48663891 L16.4241319,9.48663891 Z M18.1835161,1.46413891 C19.5455838,1.46413891 20.6596767,2.52584468 20.7433613,3.86682245 L20.7484074,4.02903022 L20.7484074,7.3943641 C20.7484074,7.65531864 20.536862,7.8668641 20.2759074,7.8668641 C20.0439478,7.8668641 19.8510275,7.69971707 19.81102,7.47929657 L19.8034074,7.3943641 L19.8034074,4.02903022 C19.8034074,3.18409125 19.1565023,2.49024506 18.3309592,2.41575888 L18.1835161,2.40913891 L2.5648913,2.40913891 C1.71995233,2.40913891 1.02610615,3.05604404 0.951619966,3.88158709 L0.945,4.02903022 L0.945,6.50313891 L15.2093175,6.50338584 C15.4702721,6.50338584 15.6818175,6.71493129 15.6818175,6.97588584 C15.6818175,7.20784543 15.5146705,7.40076575 15.29425,7.44077323 L15.2093175,7.44838584 L0.945,7.44813891 L0.945,19.5882976 C0.945,20.4332366 1.59190513,21.1270827 2.41744818,21.2015689 L2.5648913,21.2081889 L7.89918816,21.2081889 C8.1601427,21.2081889 8.37168816,21.4197343 8.37168816,21.6806889 C8.37168816,21.9126485 8.20454113,22.1055688 7.98412063,22.1455763 L7.89918816,22.1531889 L2.5648913,22.1531889 C1.20282366,22.1531889 0.0887306789,21.0914831 0.0050461119,19.7505054 L-1.24167343e-12,19.5882976 L-1.24167343e-12,4.02903022 C-1.24167343e-12,2.66696257 1.06170576,1.55286959 2.40268354,1.46918503 L2.5648913,1.46413891 L18.1835161,1.46413891 Z M16.328,10.386 L13.671,10.386 L13.671278,11.0449763 C13.671278,12.1190046 12.5930254,12.8193002 11.6308903,12.4649276 L11.5113146,12.4150887 L11.3934669,12.3539681 L10.813,12.021 L9.487,14.299 L10.0618316,14.6276455 C10.9905303,15.159285 11.0698068,16.4231624 10.2989246,17.0794082 L10.1885347,17.1650041 L10.0618579,17.2456173 L9.486,17.574 L10.812,19.851 L11.393426,19.5193331 C12.3274156,18.9845262 13.4780084,19.5605661 13.6494961,20.5678811 L13.665746,20.6959926 L13.671278,20.8283015 L13.671,21.486 L16.328,21.486 L16.3286296,20.8283015 C16.3286296,19.7543648 17.4069524,19.0539401 18.3691062,19.4083399 L18.4886839,19.4581831 L18.6065331,19.5193097 L19.187,19.851 L20.512,17.574 L19.9381684,17.2456323 C19.0094697,16.7139929 18.9301932,15.4501154 19.7010934,14.7938593 L19.8114859,14.7082619 L19.9381656,14.6276471 L20.512,14.299 L19.186,12.021 L18.6065144,12.3539789 C17.6724654,12.8886305 16.5219737,12.3126163 16.3505019,11.3053768 L16.3342534,11.1772751 L16.328722,11.0449763 L16.328,10.386 Z M15.000034,13.660552 C16.2554583,13.660552 17.276087,14.6811905 17.276087,15.9366389 C17.276087,17.1920873 16.2554583,18.2127259 15.000034,18.2127259 C13.7445548,18.2127259 12.723913,17.1921004 12.723913,15.9366389 C12.723913,14.6811774 13.7445548,13.660552 15.000034,13.660552 Z M15.000034,14.560552 C14.2416078,14.560552 13.623913,15.1782369 13.623913,15.9366389 C13.623913,16.6950409 14.2416078,17.3127259 15.000034,17.3127259 C15.7584001,17.3127259 16.376087,16.695033 16.376087,15.9366389 C16.376087,15.1782448 15.7584001,14.560552 15.000034,14.560552 Z M3.27987625,3.6802026 C3.74211457,3.6802026 4.11683277,4.0549208 4.11683277,4.51715912 C4.11683277,4.97939745 3.74211457,5.35411564 3.27987625,5.35411564 C2.81763793,5.35411564 2.44291973,4.97939745 2.44291973,4.51715912 C2.44291973,4.0549208 2.81763793,3.6802026 3.27987625,3.6802026 Z M5.79074582,3.6802026 C6.25298414,3.6802026 6.62770234,4.0549208 6.62770234,4.51715912 C6.62770234,4.97939745 6.25298414,5.35411564 5.79074582,5.35411564 C5.32850749,5.35411564 4.95378929,4.97939745 4.95378929,4.51715912 C4.95378929,4.0549208 5.32850749,3.6802026 5.79074582,3.6802026 Z M8.30161538,3.6802026 C8.7638537,3.6802026 9.1385719,4.0549208 9.1385719,4.51715912 C9.1385719,4.97939745 8.7638537,5.35411564 8.30161538,5.35411564 C7.83937706,5.35411564 7.46465886,4.97939745 7.46465886,4.51715912 C7.46465886,4.0549208 7.83937706,3.6802026 8.30161538,3.6802026 Z" id="default-view"></path>
                        </g>
                    </g>
                </g>
            </g>
        </g>
    </g>
</svg>