<svg xmlns="http://www.w3.org/2000/svg" viewBox="0 0 480 480">
  <path fill="#ed8a19" d="M240 0C107.453 0 0 107.453 0 240s107.453 240 240 240 240-107.453 240-240C479.852 107.516 372.484.148 240 0zm0 464C116.29 464 16 363.71 16 240S116.29 16 240 16s224 100.29 224 224c-.14 123.652-100.348 223.86-224 224zm0 0"/>
  <path fill="#ed8a19" d="M320 208h-56v-88a7.993 7.993 0 00-5.68-7.656 7.998 7.998 0 00-8.976 3.215l-96 144A8.002 8.002 0 00160 272h56v88a7.993 7.993 0 005.68 7.656 7.998 7.998 0 008.976-3.215l96-144A8.002 8.002 0 00320 208zm-88 125.602V264a8 8 0 00-8-8h-49.047L248 146.398V216a8 8 0 008 8h49.047zm0 0"/>
</svg>