<svg xmlns="http://www.w3.org/2000/svg" width="18" height="15" viewBox="0 0 18 15">
    <path fill="#FFF" fill-rule="nonzero" d="M15.429 4.186H2.57v8.357c0 .355.288.643.643.643h11.572a.643.643 0 0 0 .643-.643V4.186zM1.929 2.9h14.785v-.643a.643.643 0 0 0-.643-.643H1.93a.643.643 0 0 0-.643.643V2.9h.643zm14.785 1.286v8.357a1.929 1.929 0 0 1-1.928 1.928H3.214a1.929 1.929 0 0 1-1.928-1.928V4.186H.643A.643.643 0 0 1 0 3.543V2.257C0 1.192.863.33 1.929.33H16.07C17.137.329 18 1.192 18 2.257v1.286a.643.643 0 0 1-.643.643h-.643zM6.43 8.043v1.286h5.142V8.043H6.43zm-.643-1.286h6.428c.355 0 .643.288.643.643v2.571a.643.643 0 0 1-.643.643H5.786a.643.643 0 0 1-.643-.643V7.4c0-.355.288-.643.643-.643z"/>
</svg>
