<svg xmlns="http://www.w3.org/2000/svg" width="16" height="16" viewBox="0 0 16 16">
    <path fill="none" stroke-width="1.2" d="M6.228.71C7.997.608 8.908.643 9.456.703h0l.316.775c0 .376.1.717.27 1.008.18.31.439.562.744.737.59.338 1.349.386 2.023 0h0l.774-.443 1.767 3.036-.766.439c-.327.187-.574.443-.743.733-.181.31-.272.661-.272 1.012 0 .35.091.701.272 1.012.169.29.416.546.743.733h0l.766.439-1.768 3.036-.773-.443c-.675-.386-1.433-.338-2.022 0-.306.174-.566.427-.746.737-.17.291-.27.632-.27 1.008h0v.878H6.229v-.878c0-.376-.1-.717-.27-1.008-.18-.31-.439-.562-.744-.737-.59-.338-1.349-.386-2.023 0h0l-.774.443L.65 10.184l.766-.439c.327-.187.574-.443.743-.733.181-.31.272-.661.272-1.012 0-.35-.091-.701-.272-1.012-.169-.29-.416-.546-.743-.733h0L.65 5.816 2.417 2.78l.774.443c.675.386 1.433.338 2.023 0 .305-.174.565-.427.745-.737.17-.291.27-.632.27-1.008h0zM8 5.114c-.796 0-1.517.324-2.04.846-.522.523-.846 1.244-.846 2.04s.324 1.517.846 2.04c.523.522 1.244.846 2.04.846s1.517-.324 2.04-.846c.522-.523.846-1.244.846-2.04s-.324-1.517-.846-2.04c-.523-.522-1.244-.846-2.04-.846z"/>
</svg>
