<?xml version="1.0" encoding="UTF-8"?>
<svg width="50px" height="50px" viewBox="0 0 50 50" version="1.1" xmlns="http://www.w3.org/2000/svg" xmlns:xlink="http://www.w3.org/1999/xlink">
    <!-- Generator: Sketch 63.1 (92452) - https://sketch.com -->
    <title>room</title>
    <desc>Created with Sketch.</desc>
    <g id="room" stroke="none" stroke-width="1" fill="none" fill-rule="evenodd">
        <g id="Group" fill="#000000" fill-rule="nonzero">
            <path d="M24.1986483,0.131446814 C24.6789582,-0.0434242262 25.2055398,-0.0438265057 25.6861168,0.130310469 L25.6861168,0.130310469 L48.5652229,8.42054998 C49.4264566,8.73261783 50,9.55003254 50,10.4653959 L50,10.4653959 L50,38.451952 C50,39.3338854 49.4670249,40.1285296 48.6506335,40.4638023 L48.6506335,40.4638023 L25.8275806,49.836694 C25.297379,50.0544353 24.702621,50.0544353 24.1724194,49.836694 L24.1724194,49.836694 L1.34936645,40.4638023 C0.532975121,40.1285296 -9.91207116e-13,39.3338854 -9.91207116e-13,38.451952 L-9.91207116e-13,38.451952 L-9.91207116e-13,10.4641563 C-9.91207116e-13,9.55001197 0.572039723,8.73341276 1.4316485,8.42044675 L1.4316485,8.42044675 Z M24.999662,31.5428005 L4.087,39.236 L25,47.8248437 L45.912,39.236 L24.999662,31.5428005 Z M23.911,2.551 L2.17694706,10.4641563 L2.176,37.621 L23.911,29.625 L23.911,2.551 Z M26.088,2.59 L26.088,29.626 L30.385,31.207 L30.385429,13.5197733 C30.385429,12.6187941 31.1164183,11.8884061 32.0181393,11.8884061 C32.168666,11.8884061 32.3182251,11.909204 32.4626072,11.9500178 L32.6051076,11.9974745 L40.9538357,15.2112851 C41.7379462,15.5131254 42.2729937,16.2360271 42.3408485,17.0624561 L42.3481584,17.2410169 L42.348,35.607 L47.823,37.621 L47.8230529,10.4653959 L26.088,2.59 Z M32.5623761,14.3112118 L32.562,32.007 L40.171,34.806 L40.1712113,17.2410169 L32.5623761,14.3112118 Z M17.4195486,12.013153 C18.25743,11.6801772 19.2068195,12.0889254 19.5400694,12.9261176 C19.6164363,13.1179669 19.6556612,13.3225569 19.6556612,13.5290235 L19.6556612,13.5290235 L19.6556612,22.749591 C19.6556612,23.6273524 19.1276509,24.4190966 18.3168924,24.7570564 L18.3168924,24.7570564 L9.8470061,28.2876779 C9.01480213,28.6345771 8.0587186,28.2417149 7.71153377,27.4101955 C7.62844392,27.2111925 7.58566205,26.9977052 7.58566205,26.7820788 L7.58566205,26.7820788 L7.58566205,17.396921 C7.58566205,16.5059353 8.12948499,15.7050427 8.95807277,15.3757602 L8.95807277,15.3757602 Z M17.4783099,14.3297007 L9.76260911,17.396921 L9.76212106,25.9656996 L17.4787141,22.749591 L17.4783099,14.3297007 Z" id="Combined-Shape"></path>
        </g>
    </g>
</svg>