<?xml version="1.0" encoding="iso-8859-1"?>
<!-- Generator: Adobe Illustrator 19.0.0, SVG Export Plug-In . SVG Version: 6.00 Build 0)  -->
<svg version="1.1" id="Layer_1" xmlns="http://www.w3.org/2000/svg" xmlns:xlink="http://www.w3.org/1999/xlink" x="0px" y="0px"
	 viewBox="0 0 512.002 512.002" style="enable-background:new 0 0 512.002 512.002;" xml:space="preserve">
<g>
	<g>
		<path d="M508.875,472.46c-11.573-11.573-18.208-27.594-18.208-43.958v-44.5c0-18.841-8.335-35.631-21.333-47.354V85.334
			c0-23.531-19.135-42.667-42.667-42.667h-64v-32c0-5.896-4.771-10.667-10.667-10.667s-10.667,4.771-10.667,10.667v32h-192v-32
			c0-5.896-4.771-10.667-10.667-10.667C132.771,0.001,128,4.772,128,10.668v32H42.667C19.135,42.668,0,61.803,0,85.334v341.333
			c0,23.531,19.135,42.667,42.667,42.667h304.348c-0.888,1.016-1.599,2.168-2.556,3.125c-3.052,3.052-3.969,7.635-2.313,11.625
			c1.646,3.99,5.542,6.583,9.854,6.583h53.333c0,11.76,9.573,21.333,21.333,21.333c11.76,0,21.333-9.573,21.333-21.333h53.333
			c4.313,0,8.208-2.594,9.854-6.583C512.844,480.095,511.927,475.512,508.875,472.46z M21.333,85.334
			c0-11.76,9.573-21.333,21.333-21.333H128v21.333c-11.771,0-21.333,9.573-21.333,21.333c0,11.76,9.563,21.333,21.333,21.333
			c11.771,0,21.333-9.573,21.333-21.333V64.001h192v21.333c-11.771,0-21.333,9.573-21.333,21.333
			c0,11.76,9.563,21.333,21.333,21.333c11.771,0,21.333-9.573,21.333-21.333V64.001h64c11.76,0,21.333,9.573,21.333,21.333v64
			H21.333V85.334z M362.667,428.501c0,6.678-1.366,13.215-3.461,19.5H42.667c-11.76,0-21.333-9.573-21.333-21.333v-256H448v153.264
			c-6.706-2.391-13.816-3.931-21.333-3.931c-35.292,0-64,28.708-64,64V428.501z M373.292,469.335
			C380.219,456.939,384,442.814,384,428.501v-44.5c0-23.531,19.135-42.667,42.667-42.667s42.667,19.135,42.667,42.667v44.5
			c0,14.313,3.781,28.438,10.708,40.833H373.292z"/>
	</g>
</g>
<g>
</g>
<g>
</g>
<g>
</g>
<g>
</g>
<g>
</g>
<g>
</g>
<g>
</g>
<g>
</g>
<g>
</g>
<g>
</g>
<g>
</g>
<g>
</g>
<g>
</g>
<g>
</g>
<g>
</g>
</svg>
