<?xml version="1.0" encoding="UTF-8"?>
<svg width="48px" height="48px" viewBox="0 0 48 48" version="1.1" xmlns="http://www.w3.org/2000/svg" xmlns:xlink="http://www.w3.org/1999/xlink">
    <!-- Generator: Sketch 52.6 (67491) - http://www.bohemiancoding.com/sketch -->
    <title>engineer</title>
    <desc>Created with Sketch.</desc>
    <g id="Page-1" stroke="none" stroke-width="1" fill="none" fill-rule="evenodd">
        <g id="engineer" fill="#FFFFFF" fill-rule="nonzero">
            <path d="M45.6000286,39.8400019 C40.8253436,37.3080225 37.1629568,35.888246 33.9025985,35.3439157 L34.2400051,34.8800292 C34.4000349,34.7199994 34.4800022,34.4800022 34.4000349,34.2400051 L33.650306,31.2411846 C35.6331894,28.4380408 36.8000064,24.933587 36.8000064,21.6000286 L36.8000064,18.4000032 L37.5999651,18.4000032 L39.1999778,18.4000032 C39.679972,18.4000032 39.9999365,18.0800388 39.9999365,17.6000445 C39.9999365,17.1200502 39.679972,16.8000858 39.1999778,16.8000858 L38.4000191,16.8000858 L38.4000191,16.0001271 C38.4000191,9.68013884 34.2400051,4.32013916 27.9999841,2.56009658 L27.9999841,2.39997141 C27.9999841,1.11992311 26.9600283,0 25.6000127,0 L22.3999873,0 C21.119939,0 20.0000159,1.03995584 20.0000159,2.39997141 L20.0000159,2.56000127 C13.7599949,4.32004384 9.59998094,9.68004353 9.59998094,16.0000318 L9.59998094,16.7999905 L8.80002224,16.7999905 C8.32002796,16.7999905 8.00006354,17.1199549 8.00006354,17.5999492 C8.00006354,18.0799434 8.32002796,18.3999079 8.80002224,18.3999079 L10.4000349,18.3999079 L11.1999936,18.3999079 L11.1999936,21.5999333 C11.1999936,24.9334917 12.3668106,28.4379455 14.349694,31.2411846 L13.5999651,34.2400051 C13.5999651,34.4000349 13.5999651,34.7199994 13.7599949,34.8800292 L14.0974015,35.3439157 C10.8371386,35.8883413 7.17465638,37.3080225 2.39997141,39.8400019 C0.880021286,40.5600886 0,42.0800388 0,43.7600187 L0,47.2000413 C0,47.6800356 0.319964417,48 0.799958698,48 L20.0000159,48 L20.3199803,48 L27.6800197,48 L27.9999841,48 L47.2000413,48 C47.6800356,48 48,47.6800356 48,47.2000413 L48,43.7600187 C48.0000953,42.160006 47.0400114,40.6400559 45.6000286,39.8400019 Z M23.5202917,39.0995183 L24.004575,38.0099046 L25.2002716,40.6405325 L25.9823116,42.4000032 L22.0801182,42.4000032 L23.5202917,39.0995183 Z M21.4720238,44.0000159 L26.5219715,44.0000159 L26.9790908,46.3999873 L20.9920295,46.3999873 L21.4720238,44.0000159 Z M32.3999952,32.8000222 L32.7199597,34.2400051 L31.9027494,35.3621204 C31.8506134,35.4047251 31.8023852,35.4563846 31.7599711,35.5199581 L28.4324174,40.1273694 L27.3765444,41.5771695 L25.2198107,36.7245188 C27.7978261,36.4100825 30.0991489,35.1159279 31.9578401,33.2560931 C31.9784276,33.2356962 31.9991104,33.2154899 32.0196026,33.1949024 C32.0245589,33.1898508 32.0295151,33.1847992 32.0344714,33.1797477 C32.1577106,33.0561272 32.2796154,32.9297427 32.3999952,32.8000222 Z M31.3577519,5.85114554 C31.4465832,5.91023935 31.5346521,5.9702863 31.6217678,6.03147699 C32.6415174,6.79140439 33.5828247,7.68162413 34.3200677,8.63999237 L30.640048,9.3599838 L31.3577519,5.85114554 Z M17.3600473,9.3599838 L13.6800276,8.63999237 C14.4172706,7.68152881 15.3586732,6.79130908 16.3784228,6.03138168 C16.4654432,5.9702863 16.5535121,5.91023935 16.6423434,5.85114554 L17.3600473,9.3599838 Z M11.1999936,16.0000318 C11.1999936,13.8712247 11.7359364,11.8628928 12.7059328,10.1078065 L18.2400686,11.200089 C18.3200359,11.200089 18.3200359,11.200089 18.4000985,11.200089 C18.6400956,11.200089 18.8001255,11.1201217 19.0401226,11.0400591 C19.2801198,10.8800292 19.3600871,10.5600648 19.2801198,10.3200677 L18.1818326,4.97493676 C18.7602848,4.69662395 19.3673308,4.45757993 20.0001112,4.26104534 L20.0001112,6.40005083 C20.0001112,6.88004511 20.3200756,7.20000953 20.8000699,7.20000953 C21.2800642,7.20000953 21.6000286,6.88004511 21.6000286,6.40005083 L21.6000286,3.20002542 L21.6000286,2.39997141 C21.6000286,1.9999444 21.919993,1.60001271 22.3999873,1.60001271 L25.6000127,1.60001271 C26.0000397,1.60001271 26.3999714,1.91997712 26.3999714,2.39997141 L26.3999714,3.1999301 L26.3999714,6.39995552 C26.3999714,6.8799498 26.7199358,7.19991422 27.1999301,7.19991422 C27.6799244,7.19991422 27.9998888,6.8799498 27.9998888,6.39995552 L27.9998888,4.26104534 C28.6537333,4.46406119 29.2804137,4.71225522 29.8761174,5.0024821 L28.7999428,10.2401004 C28.7999428,10.4800975 28.8799101,10.800062 29.03994,10.9600918 C29.1999698,11.1201217 29.3599044,11.200089 29.5999015,11.200089 C29.6798688,11.200089 29.6798688,11.200089 29.7599314,11.200089 L35.2582296,10.0425174 C36.2510057,11.8130443 36.799911,13.8449184 36.799911,16.0000318 L36.799911,16.7999905 L35.9999523,16.7999905 L12.0000477,16.7999905 L11.1999936,16.7999905 L11.200089,16.0000318 L11.1999936,16.0000318 Z M12.799911,18.4000032 L35.1999936,18.4000032 L35.1999936,21.6000286 C35.1999936,25.0883746 34.0033439,28.1882265 32.2067013,30.5444494 L32.1599981,30.5599854 C32.0800308,30.6399527 31.9999682,30.7200153 31.920001,30.7999825 C31.5174958,31.3366878 31.0926875,31.8260227 30.6488167,32.2672248 C28.7651537,34.0221205 26.5183497,35.0850466 24.3534191,35.1903671 C24.2444768,35.1435686 24.1222861,35.1200264 24,35.1200264 C23.8770467,35.1200264 23.7661982,35.1441405 23.6667871,35.1914155 C22.3415607,35.1306061 20.9852623,34.7105634 19.6995906,33.9920017 C18.3971438,33.2437024 17.1719003,32.1649543 16.0799037,30.7999825 C15.9999365,30.7200153 15.9198739,30.6399527 15.8399066,30.5599854 L15.7932034,30.5444494 C13.9965608,28.1881312 12.799911,25.0882793 12.799911,21.6000286 L12.799911,18.4000032 Z M22.7801893,36.7247094 L20.6234556,41.5773601 L19.5675826,40.12756 L16.2400289,35.5201487 C16.2145804,35.4947002 16.1863679,35.4694424 16.1572023,35.4445658 L15.2800403,34.2401004 L15.6000048,32.8001176 C15.7084705,32.9168755 15.8184613,33.0306787 15.9295004,33.1426711 C17.80754,35.0633154 20.1498473,36.4038872 22.7801893,36.7247094 Z M1.60001271,43.7600187 C1.60001271,42.7200629 2.15997427,41.759979 3.12005814,41.2799847 C8.21937785,38.5709146 11.8902475,37.2112802 15.1602324,36.8051532 L19.9342502,43.3693324 L19.3281573,46.399892 L1.60001271,46.399892 L1.60001271,43.7600187 Z M46.4000826,46.4000826 L28.6720333,46.4000826 L28.0659404,43.369523 L32.8916177,36.7342407 C36.150165,37.2259584 39.8867051,38.5845443 44.8800372,41.2001128 C45.8400257,41.7600743 46.4000826,42.7201582 46.4000826,43.7601141 L46.4000826,46.4000826 Z" id="Shape"></path>
        </g>
    </g>
</svg>