<svg viewBox="0 0 50 50" xmlns="http://www.w3.org/2000/svg">
  <path d="M25.24584 50c3.51202 0 6.4621-.39683 8.85028-1.19048 2.38817-.79365 4.31978-1.86741 5.79482-3.22128 1.47505-1.35388 2.52865-2.96452 3.16082-4.83194C43.68392 38.8889 44 36.90476 44 34.80392c0-1.02708-.10536-2.05415-.31608-3.08123-.21072-1.02708-.58534-2.03081-1.12385-3.0112-.5385-.9804-1.28773-1.90243-2.24769-2.76611-.95995-.86368-2.18915-1.69235-3.68761-2.486 2.34134-1.21381 3.93346-2.6844 4.77634-4.41176.84288-1.72736 1.26432-3.57143 1.26432-5.53221 0-1.9141-.26925-3.68815-.80776-5.32213-.5385-1.63399-1.51017-3.0579-2.91497-4.27171-1.4048-1.21382-3.313-2.17087-5.72459-2.87115C30.80653.35014 27.75108 0 24.05176 0H6v50h19.24584zm0-30.18207H16.1146V8.19328h7.58595c3.18423 0 5.44363.43184 6.7782 1.29552 1.33456.86367 2.00184 2.3226 2.00184 4.37675 0 1.9141-.5151 3.38468-1.54528 4.41176-1.0302 1.02708-2.92668 1.54062-5.68947 1.54062zm-.3512 21.9888H16.1146V28.22128h9.83364c2.9501 0 5.01048.56022 6.18115 1.68067 1.17067 1.12045 1.756 2.75444 1.756 4.90196 0 1.07376-.14047 2.03081-.42143 2.87115-.28097.84034-.77265 1.57563-1.47505 2.20588s-1.62723 1.10878-2.7745 1.43558c-1.14725.3268-2.58718.4902-4.31977.4902z" fill="#6B7E91" fill-rule="nonzero"/>
</svg>
