<svg xmlns="http://www.w3.org/2000/svg" xmlns:xlink="http://www.w3.org/1999/xlink" viewBox="0 0 192 192"><defs><style>.cls-1,.cls-4{fill:none;}.cls-1{clip-rule:evenodd;}.cls-2{clip-path:url(#clip-path);}.cls-3{fill:#334056;}</style><clipPath id="clip-path"><path class="cls-1" d="M525.15-1411v-45c0-27.66-14.78-50.82-40.54-57v-6.12a13.5,13.5,0,0,0-13.52-13.52,13.5,13.5,0,0,0-13.52,13.52v6.12c-25.86,6.13-40.54,29.2-40.54,57v45l-18,18v9H543.17v-9Zm-54.06,54.06a18.07,18.07,0,0,0,18-18h-36A18,18,0,0,0,471.09-1356.91Z"/></clipPath></defs><g id="trim_area" data-name="trim area"><path class="cls-3" d="M167.47,65.43h-45a16.8,16.8,0,0,0-4.73.68v-42A16.31,16.31,0,0,0,101.47,7.78H24.22A16.3,16.3,0,0,0,7.94,24.06V167.55A16.12,16.12,0,0,0,24,183.65h144.1a16.07,16.07,0,0,0,16.06-16.06V82.16A16.74,16.74,0,0,0,167.47,65.43ZM52.58,171.65V135.4H73.1v36.25Zm53.17,0H85.1V135A11.63,11.63,0,0,0,73.49,123.4H52.19A11.63,11.63,0,0,0,40.58,135v36.64H24a4.11,4.11,0,0,1-4.1-4.1V24.06a4.28,4.28,0,0,1,4.28-4.28h77.25a4.28,4.28,0,0,1,4.28,4.28Zm66.45-4.06a4.06,4.06,0,0,1-4.06,4.06H117.75V82.16a4.73,4.73,0,0,1,4.73-4.73h45a4.73,4.73,0,0,1,4.73,4.73Z"/><path class="cls-3" d="M47.57,52.7H36.75a6,6,0,0,1,0-12H47.57a6,6,0,1,1,0,12Z"/><path class="cls-3" d="M87.58,52.7H76.76a6,6,0,0,1,0-12H87.58a6,6,0,0,1,0,12Z"/><path class="cls-3" d="M48.25,80.05H37.43a6,6,0,1,1,0-12H48.25a6,6,0,0,1,0,12Z"/><path class="cls-3" d="M88.25,80.05H77.43a6,6,0,0,1,0-12H88.25a6,6,0,0,1,0,12Z"/><path class="cls-3" d="M47.57,107.41H36.75a6,6,0,0,1,0-12H47.57a6,6,0,0,1,0,12Z"/><path class="cls-3" d="M87.58,107.41H76.76a6,6,0,0,1,0-12H87.58a6,6,0,1,1,0,12Z"/><path class="cls-3" d="M149,102.36H138.2a6,6,0,0,1,0-12H149a6,6,0,0,1,0,12Z"/><path class="cls-3" d="M149.7,129.72H138.88a6,6,0,0,1,0-12H149.7a6,6,0,0,1,0,12Z"/><path class="cls-3" d="M149,157.08H138.2a6,6,0,0,1,0-12H149a6,6,0,0,1,0,12Z"/><rect class="cls-4" width="192" height="192"/></g></svg>