<svg width="18" height="16" viewBox="0 0 18 16" xmlns="http://www.w3.org/2000/svg">
    <g fill-rule="nonzero" fill="none">
        <circle fill="#2F98A5" cx="5.282" cy="8.508" r="1"/>
        <path fill="none" d="M0 0h17.455v16H0z"/>
        <path d="M15.273 14V2.848c0-.81-.694-1.468-1.546-1.468h-1.213C12.184.748 11.49.342 10.727.333H4.182c-1.103 0-2 .855-2 1.904V14h-.91c-.501 0-.908.373-.908.833 0 .46.407.834.909.834h14.909c.502 0 .909-.373.909-.834 0-.46-.407-.833-.91-.833h-.908zm-2.546-.06V3.094h.728v10.848h-.728zm-1.818 0H4V2.23c-.002-.096.078-.177.183-.183h6.536a.205.205 0 0 1 .14.058.172.172 0 0 1 .051.132V13.94z" fill="#2F98A5"/>
    </g>
</svg>
