<svg xmlns="http://www.w3.org/2000/svg" viewBox="0 0 192 192"><defs><style>.cls-1{fill:#334056;}.cls-2{fill:none;}</style></defs><g id="trim_area" data-name="trim area"><path class="cls-1" d="M169.12,98.8l-.1-.06a4.83,4.83,0,0,1-1.65-1.59l-.05-.09a4.83,4.83,0,0,1-.63-2.47,4.67,4.67,0,0,1,2.57-4.14A18.7,18.7,0,0,0,176,65L162.38,41.45A18.88,18.88,0,0,0,151,32.73a18.59,18.59,0,0,0-14.27,2A4.53,4.53,0,0,1,132,34.6,4.74,4.74,0,0,1,130.33,33l-.07-.13a5.17,5.17,0,0,1-.59-2.41,18.35,18.35,0,0,0-5.47-13.18A18.54,18.54,0,0,0,111,11.79H83.82A18.71,18.71,0,0,0,65.13,30.55,4.87,4.87,0,0,1,61,35.38a4.84,4.84,0,0,1-3.31-.72,18.62,18.62,0,0,0-14.31-2.32,19,19,0,0,0-11.24,8.74L18.56,64.59a18.77,18.77,0,0,0,7,25.59,4.53,4.53,0,0,1,1.71,1.68,4.77,4.77,0,0,1,.64,2.41,4.53,4.53,0,0,1-.63,2.33l-.1.17a4.61,4.61,0,0,1-1.84,1.7,18.71,18.71,0,0,0-6.71,25.45l13.6,23.57a18.66,18.66,0,0,0,25.64,6.73A4.85,4.85,0,0,1,64.25,156a5,5,0,0,1,.64,2.47,18.69,18.69,0,0,0,18.68,18.66h27.15a18.63,18.63,0,0,0,13.11-5.35,18.82,18.82,0,0,0,5.58-13.11,4.76,4.76,0,0,1,1.18-3.08,5,5,0,0,1,2.93-1.61,4.8,4.8,0,0,1,3.48.79,18.32,18.32,0,0,0,14.07,1.85,18.9,18.9,0,0,0,11.32-8.74L176,124.35a18.78,18.78,0,0,0-6.83-25.55Zm-3.06,19.25L152,141.66a7,7,0,0,1-9.63,2.49,16.44,16.44,0,0,0-16.33-.05,16.89,16.89,0,0,0-6.14,6.11,16.29,16.29,0,0,0-2.15,8.18h0a7,7,0,0,1-2,5,7,7,0,0,1-5,2.07H83.62a7.07,7.07,0,0,1-7.08-7.12,16.3,16.3,0,0,0-8.17-14.15,16.43,16.43,0,0,0-16.7,0,6.9,6.9,0,0,1-5.11.73,7.23,7.23,0,0,1-4.37-3.3l-13.6-23.53a7,7,0,0,1,2.69-9.71A16.41,16.41,0,0,0,31.19,80a7,7,0,0,1-2.47-9.65L42.25,46.88a7,7,0,0,1,9.68-2.53,16.26,16.26,0,0,0,16.34,0,16.09,16.09,0,0,0,6.06-6,16.33,16.33,0,0,0,2.21-8.25,7,7,0,0,1,7-7.08h27.1a7.18,7.18,0,0,1,5.06,2.14,7.09,7.09,0,0,1,2,5A16.51,16.51,0,0,0,142.53,44.3a6.78,6.78,0,0,1,5.19-.73,7,7,0,0,1,4.33,3.33l14,23.49a6.9,6.9,0,0,1,.73,5.38,7.08,7.08,0,0,1-3.25,4.28,16.35,16.35,0,0,0-7.27,8.62,16.37,16.37,0,0,0,7.28,19.85,7,7,0,0,1,3.24,4.24A7.26,7.26,0,0,1,166.06,118.05Z"/><path class="cls-1" d="M97.34,60a34.29,34.29,0,1,0,34.27,34.28A34.33,34.33,0,0,0,97.34,60Zm0,56.12a21.83,21.83,0,1,1,21.84-21.84A21.85,21.85,0,0,1,97.34,116.07Z"/><rect class="cls-2" width="192" height="192"/></g></svg>