<svg xmlns="http://www.w3.org/2000/svg" width="22" height="23" viewBox="0 0 22 23">
    <path fill="#324056" stroke="#2F4058" stroke-width=".2" d="M16.83 19.469c.144.205.095.488-.11.632-1.67 1.174-3.66 1.814-5.745 1.814-1.971 0-3.859-.572-5.472-1.629-.21-.137-.269-.418-.131-.628.137-.21.418-.268.628-.13 1.467.96 3.182 1.48 4.975 1.48 1.897 0 3.705-.582 5.224-1.65.204-.143.487-.094.631.11zM4.887 12.547l2.999.803c.207.056.33.269.274.476l-.803 2.999c-.056.207-.269.33-.476.274-.207-.056-.33-.268-.274-.475l.52-1.942-4.985 2.879c-.186.107-.448 0-.586-.24-.138-.238-.1-.52.086-.626l4.985-2.879-1.941-.52c-.207-.055-.33-.268-.275-.475.056-.207.269-.33.476-.274zm12.952.267c.049.182-.04.367-.2.448l-.074.028-1.94.52 4.862 2.807c.185.107.224.388.086.627-.121.21-.337.318-.514.27l-.072-.03-4.862-2.808.519 1.94c.055.208-.067.42-.275.476-.18.049-.366-.04-.447-.2l-.028-.074-.739-2.754c-.02-.037-.035-.08-.044-.125l-.007-.07-.013-.05c-.049-.181.04-.367.2-.448l.074-.027.051-.014c.042-.023.086-.038.129-.047l.065-.006 2.754-.737c.207-.056.42.067.475.274zm-2.693-9.99c3.522 1.619 5.829 5.145 5.829 9.091 0 .25-.203.453-.454.453-.25 0-.453-.203-.453-.453 0-3.588-2.097-6.795-5.301-8.267-.228-.105-.327-.374-.223-.601.105-.228.374-.328.602-.223zm-7.723.215c.104.228.004.497-.224.601-3.213 1.469-5.317 4.68-5.317 8.275 0 .25-.203.453-.454.453-.25 0-.453-.203-.453-.453 0-3.953 2.314-7.485 5.847-9.1.228-.104.497-.004.601.224zm3.8-2c.276 0 .5.174.5.388v5.649l1.421-1.42c.152-.152.397-.152.549 0 .152.15.152.397 0 .548L11.498 8.4c-.152.151-.398.151-.55 0L8.754 6.204c-.151-.151-.151-.397 0-.549.152-.151.398-.151.55 0l1.42 1.42V1.428c0-.214.224-.388.5-.388z"/>
</svg>
