<svg id="Layer_1" data-name="Layer 1" xmlns="http://www.w3.org/2000/svg" viewBox="0 0 56 50"><g id="Page-1"><g id="deliveries_Fill" data-name="deliveries/Fill"><path id="Combined-Shape" d="M27.81,0a6.63,6.63,0,0,1,6.62,6.4v4.15h6.89A6.13,6.13,0,0,1,45,12l.13.12,9.25,9.21A6.17,6.17,0,0,1,56,25V39.52a4.56,4.56,0,0,1-4.4,4.54H49.7a7.09,7.09,0,0,1-14,.19l0-.19H23.13a7.09,7.09,0,0,1-14,.19l0-.19H4.56A4.56,4.56,0,0,1,0,39.68V6.59A6.62,6.62,0,0,1,6.43,0H27.81ZM16.13,38.12A4.81,4.81,0,1,0,21,42.93,4.83,4.83,0,0,0,16.13,38.12Zm26.58,0a4.81,4.81,0,1,0,4.83,4.81A4.83,4.83,0,0,0,42.71,38.12ZM26.31,29H16.65v3h9.66ZM40.76,15.87h-1a2.46,2.46,0,0,0-2.33,2.33v9.23a2.46,2.46,0,0,0,2.33,2.32h8.56a2.47,2.47,0,0,0,2.34-2.33v-1.8A3,3,0,0,0,50,23.93l-.1-.11-7.17-7.15-.11-.1A3,3,0,0,0,40.76,15.87Zm-14.45,2.4H11.72v2.95H26.31Zm0-10.74H7.93v3H26.31Z"/></g></g></svg>