<svg viewBox="0 0 512 512" xmlns="http://www.w3.org/2000/svg">
  <g fill="none" fill-rule="evenodd">
    <path d="M421.2 142.4v259.5H101.6V142.4c0-6 5-11 11-11h297.6c6.1 0 11 5 11 11" fill="#DBDBF3"/>
    <path fill="#BCBCE2" d="M101.6 194.7L377.3 405l-275.7-3.2z"/>
    <path d="M257.7 199.5a14.6 14.6 0 002.4 21.4l52 38.8a25.7 25.7 0 017 33.1l102.1 75.7v13.7l-109-80.8L218.5 402h-13.8l-.6-.6 20.3-21.9-41.4-30.7a37.8 37.8 0 01-6.5-55L198 268l8.4 7-21.5 25.7c-4.9 5.8-7 13-6.2 20.6 1 7.5 4.8 14 10.8 18.5l42.5 31.5 75.4-81c2.8-3 4.2-7 3.8-11.3-.3-4.3-2.4-8-5.8-10.5l-52-38.8a26 26 0 01-10.2-17.8 26 26 0 012.8-14.6l-90.9-66h18.6l78.8 57.2 46.5-54.1 8.4 7.2-26 30.2 139.7 101.5v13.5l-147-106.6-16.5 19.3z" fill="#FFF"/>
    <path fill="#FFF" d="M391.8 402h-27.5L101.6 205v-20.6z"/>
    <path d="M442.7 234.3V375L319.2 218l3.7-.3c17 22.2 32.3 36.5 62.4 36.5 21.7 0 41.6-7.4 57.4-20" fill-opacity=".3" fill="#7176C4"/>
    <path stroke="#7176C4" stroke-width="5.9" stroke-linecap="round" stroke-linejoin="round" d="M1.9 405.1h508.4M322.7 444.3H387M125.2 444.3h143.6M442.7 228.4v176.7H83.5V124.6c0-6 4.9-11 11-11H309"/>
    <path d="M388.5 302.2c-11.3-13-22.2-25-32.4-37.5a329.6 329.6 0 01-46.3-71.5c-13.4-29.5-13.7-58.4 3.8-86.2a85.1 85.1 0 0170.3-41.4 88.3 88.3 0 0192 72.1c4 20.3-1 39.1-9.3 57.3a349.8 349.8 0 01-53.1 79c-7.8 9.3-16 18.2-25 28.2" fill="#FFF"/>
    <path d="M477 161.6c0 5.3-1.1 11.2-3 17.6-6.8 22.8-24.6 50.8-42.3 74.2-20.6 27.4-41 48.8-44 48.8-6.2 0-82.2-93.3-82.2-140.6a85.7 85.7 0 01171.4 0" fill="#DBDBF3"/>
    <path d="M152.9 191.9a10.4 10.4 0 110-20.8 10.4 10.4 0 010 20.8m0-34.2a23.7 23.7 0 00-23.8 23.8c0 13 21 38.8 22.8 38.8.8 0 6.5-5.9 12.1-13.5a73.2 73.2 0 0011.7-20.5c.6-1.8.8-3.4.8-4.8a23.7 23.7 0 00-23.6-23.8" fill="#BCBCE2"/>
    <path d="M474 179.2c-6.8 22.8-24.6 50.8-42.3 74.2l-69.5-70.8 58.2-58.2 53.6 54.8z" fill-opacity=".6" fill="#BCBCE2"/>
    <path d="M388.5 302.2c-11.3-13-22.2-25-32.4-37.5a329.6 329.6 0 01-46.3-71.5c-13.4-29.5-13.7-58.4 3.8-86.2a85.1 85.1 0 0170.3-41.4 88.3 88.3 0 0192 72.1c4 20.3-1 39.1-9.3 57.3a349.8 349.8 0 01-53.1 79c-7.8 9.3-16 18.2-25 28.2zm0 0c-11.3-13-22.2-25-32.4-37.5a329.6 329.6 0 01-46.3-71.5c-13.4-29.5-13.7-58.4 3.8-86.2a85.1 85.1 0 0170.3-41.4 88.3 88.3 0 0192 72.1c4 20.3-1 39.1-9.3 57.3a349.8 349.8 0 01-53.1 79c-7.8 9.3-16 18.2-25 28.2z" stroke="#7176C4" stroke-width="5.9" stroke-linecap="round" stroke-linejoin="round"/>
    <path d="M431 152.3a41 41 0 11-81.8 0 41 41 0 0181.8 0" fill="#FFF"/>
    <path d="M56.5 347.2a16 16 0 11-32 0 16 16 0 0132 0M307.5 73.6a6 6 0 11-12 0 6 6 0 0112 0" fill-opacity=".4" fill="#DBDBF3"/>
    <path d="M485 365a10 10 0 11-19.8 0 10 10 0 0119.9 0M42.7 103.2L27.3 87.8l15.4-15.4L58 87.8z" fill-opacity=".8" fill="#DBDBF3"/>
  </g>
</svg>
