<svg id="Layer_1" data-name="Layer 1" xmlns="http://www.w3.org/2000/svg" viewBox="0 0 50 50"><path d="M42.58,0a4.39,4.39,0,0,0-3.52,7l-7.15,7.76a4.14,4.14,0,0,0-1.05-.13,4.29,4.29,0,0,0-2.43.74l-5.1-3.82a4.24,4.24,0,0,0,.21-1.32A4.4,4.4,0,1,0,15,11.57L9.86,15.39a4.32,4.32,0,0,0-2.44-.74,4.39,4.39,0,1,0,4.2,3.08l5.09-3.82a4.36,4.36,0,0,0,4.86,0l5.1,3.82A4.18,4.18,0,0,0,26.46,19a4.4,4.4,0,1,0,8.79,0,4.34,4.34,0,0,0-.87-2.62l7.15-7.76a4.08,4.08,0,0,0,1,.13,4.4,4.4,0,0,0,0-8.79ZM7.42,20.51A1.47,1.47,0,1,1,8.89,19,1.46,1.46,0,0,1,7.42,20.51Zm11.72-8.79a1.47,1.47,0,1,1,1.47-1.47A1.46,1.46,0,0,1,19.14,11.72Zm11.72,8.79A1.47,1.47,0,1,1,32.32,19,1.47,1.47,0,0,1,30.86,20.51ZM42.58,5.86A1.47,1.47,0,1,1,44,4.39,1.47,1.47,0,0,1,42.58,5.86Z"/><path d="M48.54,47.07H47.07V19a1.46,1.46,0,0,0-1.46-1.46h-6A1.46,1.46,0,0,0,38.18,19v28H35.25V30.76a1.46,1.46,0,0,0-1.46-1.46H27.93a1.46,1.46,0,0,0-1.47,1.46V47.07H23.54V24.9a1.46,1.46,0,0,0-1.47-1.46H16.21a1.46,1.46,0,0,0-1.46,1.46V47.07H11.82V33.69a1.46,1.46,0,0,0-1.47-1.46h-6a1.46,1.46,0,0,0-1.46,1.46V47.07H1.46a1.47,1.47,0,0,0,0,2.93H48.54a1.47,1.47,0,0,0,0-2.93Zm-39.65,0h-3V35.16h3Zm11.72,0H17.68V26.37h2.93Zm11.71,0H29.39V32.23h2.93Zm11.82,0h-3V20.51h3Z"/></svg>