<svg viewBox="0 0 512 512" xmlns="http://www.w3.org/2000/svg">
  <path d="M309.582 257.554l185.1-188.733c14.782-15.057 14.782-39.478 0-54.534-14.767-15.072-38.702-15.072-53.484 0l-185.1 188.733L70.98 14.286c-14.75-15.073-38.718-15.073-53.484 0-14.767 15.057-14.767 39.478 0 54.534l185.116 188.734L17.088 446.721c-14.782 15.072-14.782 39.478 0 54.534 7.383 7.544 17.066 11.308 26.75 11.308 9.667 0 19.35-3.764 26.735-11.308L256.097 312.09l185.101 188.735c7.4 7.528 17.067 11.308 26.75 11.308 9.668 0 19.351-3.78 26.735-11.308 14.782-15.057 14.782-39.462 0-54.534l-185.1-188.736z" fill="#000" fill-rule="nonzero"/>
</svg>
