<svg id="Layer_1" data-name="Layer 1" xmlns="http://www.w3.org/2000/svg" viewBox="0 0 56 50"><path d="M54,30.28H51.56a.43.43,0,0,0,.2-.42,23.23,23.23,0,0,0-.1-6.45A25,25,0,0,0,44.81,9.72a25.19,25.19,0,0,0-9.12-5.85c-.6-.2-.7-.1-.7.49v12.8a1.44,1.44,0,0,1-.29,1.09,1.37,1.37,0,0,1-1.59.5,1.41,1.41,0,0,1-1-1.49V9.13c0-2.78,0-5.46-.1-8.34,0-.59-.2-.79-.8-.79H23.69c-.7,0-.9.2-.9.89V16.57a2.74,2.74,0,0,1-.1.89,1.38,1.38,0,0,1-1.39,1.19,1.26,1.26,0,0,1-1.48-1,3.37,3.37,0,0,1-.1-1V4.36c0-.39.1-.89-.6-.59a25.56,25.56,0,0,0-7.54,4.56A24.3,24.3,0,0,0,4,20a22.83,22.83,0,0,0-.89,9.32c.06.58.09.82.29.92H1.86A1.89,1.89,0,0,0,0,32.17v3A1.89,1.89,0,0,0,1.86,37h26l6-9.75a4.6,4.6,0,0,1,8.11,0q2.61,4.17,5.17,8.35c.28.45.57.9.85,1.36H54a1.89,1.89,0,0,0,1.89-1.89v-3A1.89,1.89,0,0,0,54,30.28Zm-48.34,0a1.2,1.2,0,0,0,.53-.52.72.72,0,0,1,.49-.1H21.8a.65.65,0,0,1,.69.4,1.39,1.39,0,0,0,.15.22Z"/><path d="M51.28,47.42c-.4-.79-.89-1.49-1.39-2.28C46.42,39.58,43.05,34,39.58,28.47c-.9-1.38-2.19-1.38-3.08,0l-8.63,14c-1,1.59-2,3.27-3.08,4.86-.49.89-.59,1.39-.09,2a2,2,0,0,0,1.58.69H49.69C51.38,50,52.07,48.81,51.28,47.42Zm-11.41-14-.39,9H37.1l-.5-9ZM38.29,47A1.59,1.59,0,1,1,40,45.44,1.72,1.72,0,0,1,38.29,47Z"/></svg>