<?xml version="1.0" encoding="UTF-8"?>
<svg id="Layer_1" data-name="Layer 1" xmlns="http://www.w3.org/2000/svg" viewBox="0 0 2000 95">
  <defs>
    <style>
      .cls-1 {
        fill: none;
      }

      .cls-2 {
        fill: #f9dac0;
      }

      .cls-3 {
        fill: #e9913b;
      }

      .cls-4 {
        fill: #fcf1e6;
      }

      .cls-5 {
        fill: #efa969;
      }
    </style>
  </defs>
  <rect class="cls-4" width="2000" height="95"/>
  <g>
    <path class="cls-2" d="M1302.45,2.76c1.24,0,2.24-1,2.24-2.24,0-.18-.03-.36-.07-.53h-4.34c-.04,.17-.07,.34-.07,.53,0,1.24,1,2.24,2.24,2.24Z"/>
    <path class="cls-2" d="M1310.29,13c3.71-3.39,4.29-8.93,1.59-13h-3.48c.15,.62,.23,1.25,.23,1.89,0,4.45-3.62,8.06-8.06,8.06-.43,0-.86-.03-1.27-.1-1.26-.2-2.45-.7-3.5-1.48,0,0-.14-.1-.15-.1-.33-.26-.79-.28-1.15-.05l-2.21,1.41c-.21,.14-.37,.35-.43,.59l-.26,1.01-1.63-.69c-.26-.11-.56-.11-.81,.02-.26,.12-.45,.35-.53,.62l-.68,2.25-1.63-.58c-.49-.17-1.04,.06-1.25,.54l-1.05,2.42-2.97-.45,1.1-5.17,6.12-3.66c.16-.09,.29-.23,.37-.4l.91-1.76,2.07,.06c.3,0,.59-.12,.79-.34,.2-.23,.28-.53,.23-.83-.09-.5-.13-.95-.13-1.38,0-.65,.09-1.28,.23-1.89h-2.05c-.12,.61-.18,1.24-.18,1.89,0,.17,0,.34,.02,.52l-1.54-.05c-.4,0-.74,.2-.92,.54l-1.07,2.06-6.25,3.74c-.24,.14-.41,.38-.46,.65l-1.41,6.63c-.06,.27,0,.55,.16,.78,.16,.23,.4,.38,.67,.42l4.78,.72s.1,.01,.15,.01c.39,0,.76-.23,.92-.6l.99-2.27,1.74,.62c.26,.09,.54,.07,.79-.05,.24-.12,.43-.34,.51-.6l.66-2.19,1.67,.7c.27,.11,.57,.1,.83-.02,.26-.13,.45-.36,.53-.64l.46-1.75,1.03-.65c.38,.68,.83,1.32,1.35,1.89,.12,.13,.24,.26,.37,.39l-1.01,.9c-.26,.23-.38,.58-.32,.93l.44,2.39-2.11,7.01c-.08,.27-.05,.55,.09,.79l3.43,5.85c.14,.23,.36,.4,.62,.46,.08,.02,.16,.03,.24,.03,.18,0,.36-.05,.52-.15l4.23-2.57c.41-.25,.59-.77,.41-1.22l-.96-2.44,1.86-.82c.26-.11,.46-.33,.55-.6,.09-.27,.06-.56-.08-.81l-1.08-1.93,1.84-.68c.29-.11,.51-.34,.6-.63s.05-.61-.11-.86l-.95-1.45,.39-1.45c1.97-.3,3.77-1.16,5.24-2.5Zm-6.11,.59c-.42,.04-.77,.33-.88,.74l-.68,2.54c-.07,.28-.03,.57,.13,.81l.51,.78-1.76,.65c-.27,.1-.49,.32-.59,.59-.1,.27-.08,.58,.07,.83l1.11,1.98-1.73,.76c-.49,.22-.72,.78-.53,1.28l1,2.56-2.64,1.61-2.69-4.6,2.06-6.83c.05-.15,.05-.31,.03-.47l-.38-2.07,1.44-1.28c.22-.2,.34-.48,.33-.78s-.15-.57-.39-.76c-.1-.08-.2-.16-.3-.24,.18,.04,.37,.06,.55,.1,.13,.02,.27,.05,.4,.07,.44,.06,.89,.1,1.34,.1,5.55,0,10.06-4.51,10.06-10.06,0-.04,0-.08,0-.11,.67,1.26,1,2.69,.93,4.15-.1,2.15-1.03,4.14-2.62,5.59-1.32,1.21-2.97,1.92-4.77,2.07Z"/>
    <path class="cls-2" d="M860.3,2.76c1.24,0,2.24-1,2.24-2.24,0-.18-.03-.36-.07-.53h-4.34c-.04,.17-.07,.34-.07,.53,0,1.24,1,2.24,2.24,2.24Z"/>
    <path class="cls-2" d="M866.25,0c.15,.62,.23,1.25,.23,1.89,0,4.45-3.62,8.06-8.06,8.06-.43,0-.86-.03-1.27-.1-1.26-.2-2.45-.7-3.5-1.48,0,0-.14-.1-.15-.1-.33-.26-.79-.28-1.15-.05l-2.21,1.41c-.21,.14-.37,.35-.43,.59l-.26,1.01-1.63-.69c-.26-.11-.56-.11-.81,.02-.26,.12-.45,.35-.53,.62l-.68,2.25-1.63-.58c-.49-.17-1.04,.06-1.25,.54l-1.05,2.42-2.97-.45,1.1-5.17,6.12-3.66c.16-.09,.29-.23,.37-.4l.91-1.76,2.07,.06c.3,0,.59-.12,.79-.34,.2-.23,.28-.53,.23-.83-.09-.5-.13-.95-.13-1.38,0-.65,.09-1.28,.23-1.89h-2.05c-.12,.61-.18,1.24-.18,1.89,0,.17,0,.34,.02,.52l-1.54-.05c-.4,0-.74,.2-.92,.54l-1.07,2.06-6.25,3.74c-.24,.14-.41,.38-.46,.65l-1.41,6.63c-.06,.27,0,.55,.16,.78,.16,.23,.4,.38,.67,.42l4.78,.72s.1,.01,.15,.01c.39,0,.76-.23,.92-.6l.99-2.27,1.74,.62c.26,.09,.54,.07,.79-.05,.24-.12,.43-.34,.51-.6l.66-2.19,1.67,.7c.27,.11,.57,.1,.83-.02,.26-.13,.45-.36,.53-.64l.46-1.75,1.03-.65c.38,.68,.83,1.32,1.35,1.89,.12,.13,.24,.26,.37,.39l-1.01,.9c-.26,.23-.38,.58-.32,.93l.44,2.39-2.11,7.01c-.08,.27-.05,.55,.09,.79l3.43,5.85c.14,.23,.36,.4,.62,.46,.08,.02,.16,.03,.24,.03,.18,0,.36-.05,.52-.15l4.23-2.57c.41-.25,.59-.77,.41-1.22l-.96-2.44,1.86-.82c.26-.11,.46-.33,.55-.6,.09-.27,.06-.56-.08-.81l-1.08-1.93,1.84-.68c.29-.11,.51-.34,.6-.63s.05-.61-.11-.86l-.95-1.45,.39-1.45c1.97-.3,3.77-1.16,5.24-2.5,3.71-3.39,4.29-8.93,1.59-13h-3.48Zm.54,11.52c-1.32,1.21-2.97,1.92-4.77,2.07-.42,.04-.77,.33-.88,.74l-.68,2.54c-.07,.28-.03,.57,.13,.81l.51,.78-1.76,.65c-.27,.1-.49,.32-.59,.59-.1,.27-.08,.58,.07,.83l1.11,1.98-1.73,.76c-.49,.22-.72,.78-.53,1.28l1,2.56-2.64,1.61-2.69-4.6,2.06-6.83c.05-.15,.05-.31,.03-.47l-.38-2.07,1.44-1.28c.22-.2,.34-.48,.33-.78s-.15-.57-.39-.76c-.1-.08-.2-.16-.3-.24,.18,.04,.37,.06,.55,.1,.13,.02,.27,.05,.4,.07,.44,.06,.89,.1,1.34,.1,5.55,0,10.06-4.51,10.06-10.06,0-.04,0-.08,0-.11,.67,1.26,1,2.69,.93,4.15-.1,2.15-1.03,4.14-2.62,5.59Z"/>
    <path class="cls-2" d="M884.67,75.44c.11-.46,.17-.94,.17-1.44,0-3.48-2.83-6.3-6.3-6.3s-6.3,2.83-6.3,6.3c0,.24,.02,.47,.04,.7-1.14-1.63-3.03-2.7-5.16-2.7-2.31,0-4.32,1.25-5.42,3.1,.06-.36,.1-.73,.1-1.1,0-3.48-2.83-6.3-6.3-6.3s-6.3,2.83-6.3,6.3c0,.48,.06,.94,.16,1.39-2.75,1.08-4.71,3.75-4.71,6.88v6.73h2v-6.73c0-2.29,1.44-4.24,3.46-5.02,1.11,1.83,3.11,3.06,5.39,3.06s4.29-1.23,5.39-3.06c0,0,.01,0,.02,0-.06,.34-.09,.69-.09,1.05,0,.46,.05,.9,.15,1.33-2.74,1.02-4.69,3.65-4.69,6.73v2.62h2v-2.62c0-2.25,1.44-4.14,3.43-4.86,.62,1.05,1.55,1.91,2.65,2.45,.32,.16,.65,.29,1,.39,.32,.09,.66,.16,1,.21,.25,.03,.51,.05,.77,.05,.19,0,.39-.01,.57-.03,.34-.03,.68-.09,1-.18,.35-.09,.68-.2,1-.35,1.19-.54,2.18-1.43,2.85-2.54,2,.72,3.43,2.62,3.43,4.86v2.62h2v-2.62c0-3.09-1.96-5.72-4.69-6.73,.09-.43,.15-.88,.15-1.33,0-.24-.02-.47-.04-.7,1.14,1.63,3.03,2.7,5.16,2.7,2.27,0,4.26-1.21,5.37-3.02,2.04,.83,3.48,2.83,3.48,5.17v6.54h2v-6.54c0-3.17-1.96-5.88-4.72-7.01Zm-24.98-.53c-.08,.35-.2,.67-.36,.98-.18,.36-.4,.69-.67,.98-.79,.87-1.91,1.43-3.18,1.43s-2.39-.56-3.18-1.43c-.27-.29-.49-.62-.67-.98-.15-.31-.28-.64-.36-.98-.06-.3-.1-.6-.1-.92,0-2.38,1.93-4.3,4.3-4.3s4.3,1.93,4.3,4.3c0,.31-.04,.62-.1,.92Zm11.71,3.52c0,.26-.03,.52-.09,.77-.07,.35-.2,.67-.35,.98-.18,.36-.4,.69-.67,.99-.17,.18-.35,.35-.55,.5-.32,.25-.67,.46-1.05,.61-.32,.13-.66,.2-1.01,.25-.19,.03-.38,.06-.57,.06-.26,0-.52-.03-.77-.08-.35-.06-.69-.17-1-.31-.4-.18-.75-.42-1.07-.71-.12-.1-.23-.21-.33-.33-.27-.3-.49-.63-.67-.99-.15-.31-.28-.64-.35-.98-.05-.22-.06-.44-.08-.67,0-.08-.02-.15-.02-.23,0-.35,.05-.69,.14-1.02,.08-.34,.21-.66,.37-.97,.72-1.37,2.14-2.32,3.8-2.32s3.05,.93,3.78,2.28c.16,.3,.29,.62,.38,.96,.09,.34,.15,.69,.15,1.06,0,.04-.01,.09-.01,.13Zm11.33-3.5c-.08,.34-.2,.66-.35,.97-.18,.35-.4,.68-.66,.97-.79,.87-1.91,1.43-3.18,1.43s-2.39-.56-3.18-1.43c-.26-.29-.48-.62-.66-.97-.15-.31-.28-.63-.35-.97-.07-.3-.11-.62-.11-.94,0-2.38,1.93-4.3,4.3-4.3s4.3,1.93,4.3,4.3c0,.32-.04,.64-.11,.94Z"/>
    <path class="cls-2" d="M629.84,42.56h-3.89V7.78c0-.55-.45-1-1-1h-25.32c-.55,0-1,.45-1,1V42.56h-3.89c-.55,0-1,.45-1,1s.45,1,1,1h35.11c.55,0,1-.45,1-1s-.45-1-1-1Zm-13.56,0h-7.99v-7.99h7.99v7.99Zm7.66,0h-5.66v-8.99c0-.55-.45-1-1-1h-9.99c-.55,0-1,.45-1,1v8.99h-5.66V8.78h23.32V42.56Z"/>
    <path class="cls-2" d="M604.18,19.06h5.79c.55,0,1-.45,1-1v-5.79c0-.55-.45-1-1-1h-5.79c-.55,0-1,.45-1,1v5.79c0,.55,.45,1,1,1Zm1-5.79h3.79v3.79h-3.79v-3.79Z"/>
    <path class="cls-2" d="M614.61,19.06h5.79c.55,0,1-.45,1-1v-5.79c0-.55-.45-1-1-1h-5.79c-.55,0-1,.45-1,1v5.79c0,.55,.45,1,1,1Zm1-5.79h3.79v3.79h-3.79v-3.79Z"/>
    <path class="cls-2" d="M604.18,29.56h5.79c.55,0,1-.45,1-1v-5.79c0-.55-.45-1-1-1h-5.79c-.55,0-1,.45-1,1v5.79c0,.55,.45,1,1,1Zm1-5.79h3.79v3.79h-3.79v-3.79Z"/>
    <path class="cls-2" d="M614.61,29.56h5.79c.55,0,1-.45,1-1v-5.79c0-.55-.45-1-1-1h-5.79c-.55,0-1,.45-1,1v5.79c0,.55,.45,1,1,1Zm1-5.79h3.79v3.79h-3.79v-3.79Z"/>
    <path class="cls-2" d="M211.56,2.76c1.24,0,2.24-1,2.24-2.24,0-.18-.03-.36-.07-.53h-4.34c-.04,.17-.07,.34-.07,.53,0,1.24,1,2.24,2.24,2.24Z"/>
    <path class="cls-2" d="M217.5,0c.15,.62,.23,1.25,.23,1.89,0,4.45-3.62,8.06-8.06,8.06-.43,0-.86-.03-1.27-.1-1.26-.2-2.45-.7-3.5-1.48,0,0-.14-.1-.15-.1-.33-.26-.79-.28-1.15-.05l-2.21,1.41c-.21,.14-.37,.35-.43,.59l-.26,1.01-1.63-.69c-.26-.11-.56-.11-.81,.02-.26,.12-.45,.35-.53,.62l-.68,2.25-1.63-.58c-.49-.17-1.04,.06-1.25,.54l-1.05,2.42-2.97-.45,1.1-5.17,6.12-3.66c.16-.09,.29-.23,.37-.4l.91-1.76,2.07,.06c.3,0,.59-.12,.79-.34,.2-.23,.28-.53,.23-.83-.09-.5-.13-.95-.13-1.38,0-.65,.09-1.28,.23-1.89h-2.05c-.12,.61-.18,1.24-.18,1.89,0,.17,0,.34,.02,.52l-1.54-.05c-.4,0-.74,.2-.92,.54l-1.07,2.06-6.25,3.74c-.24,.14-.41,.38-.46,.65l-1.41,6.63c-.06,.27,0,.55,.16,.78,.16,.23,.4,.38,.67,.42l4.78,.72s.1,.01,.15,.01c.39,0,.76-.23,.92-.6l.99-2.27,1.74,.62c.26,.09,.54,.07,.79-.05,.24-.12,.43-.34,.51-.6l.66-2.19,1.67,.7c.27,.11,.57,.1,.83-.02,.26-.13,.45-.36,.53-.64l.46-1.75,1.03-.65c.38,.68,.83,1.32,1.35,1.89,.12,.13,.24,.26,.37,.39l-1.01,.9c-.26,.23-.38,.58-.32,.93l.44,2.39-2.11,7.01c-.08,.27-.05,.55,.09,.79l3.43,5.85c.14,.23,.36,.4,.62,.46,.08,.02,.16,.03,.24,.03,.18,0,.36-.05,.52-.15l4.23-2.57c.41-.25,.59-.77,.41-1.22l-.96-2.44,1.86-.82c.26-.11,.46-.33,.55-.6,.09-.27,.06-.56-.08-.81l-1.08-1.93,1.84-.68c.29-.11,.51-.34,.6-.63s.05-.61-.11-.86l-.95-1.45,.39-1.45c1.97-.3,3.77-1.16,5.24-2.5,3.71-3.39,4.29-8.93,1.59-13h-3.48Zm.54,11.52c-1.32,1.21-2.97,1.92-4.77,2.07-.42,.04-.77,.33-.88,.74l-.68,2.54c-.07,.28-.03,.57,.13,.81l.51,.78-1.76,.65c-.27,.1-.49,.32-.59,.59-.1,.27-.08,.58,.07,.83l1.11,1.98-1.73,.76c-.49,.22-.72,.78-.53,1.28l1,2.56-2.64,1.61-2.69-4.6,2.06-6.83c.05-.15,.05-.31,.03-.47l-.38-2.07,1.44-1.28c.22-.2,.34-.48,.33-.78s-.15-.57-.39-.76c-.1-.08-.2-.16-.3-.24,.18,.04,.37,.06,.55,.1,.13,.02,.27,.05,.4,.07,.44,.06,.89,.1,1.34,.1,5.55,0,10.06-4.51,10.06-10.06,0-.04,0-.08,0-.11,.67,1.26,1,2.69,.93,4.15-.1,2.15-1.03,4.14-2.62,5.59Z"/>
    <path class="cls-2" d="M438.15,61.76c.11-.46,.17-.94,.17-1.44,0-3.48-2.83-6.3-6.3-6.3s-6.3,2.83-6.3,6.3c0,.24,.02,.47,.04,.7-1.14-1.63-3.03-2.7-5.16-2.7-2.31,0-4.32,1.25-5.42,3.1,.06-.36,.1-.73,.1-1.1,0-3.48-2.83-6.3-6.3-6.3s-6.3,2.83-6.3,6.3c0,.48,.06,.94,.16,1.39-2.75,1.08-4.71,3.75-4.71,6.88v6.73h2v-6.73c0-2.29,1.44-4.24,3.46-5.02,1.11,1.83,3.11,3.06,5.39,3.06s4.29-1.23,5.39-3.06c0,0,.01,0,.02,0-.06,.34-.09,.69-.09,1.05,0,.46,.05,.9,.15,1.33-2.74,1.02-4.69,3.65-4.69,6.73v2.62h2v-2.62c0-2.25,1.44-4.14,3.43-4.86,.62,1.05,1.55,1.91,2.65,2.45,.32,.16,.65,.29,1,.39,.32,.09,.66,.16,1,.21,.25,.03,.51,.05,.77,.05,.19,0,.39-.01,.57-.03,.34-.03,.68-.09,1-.18,.35-.09,.68-.2,1-.35,1.19-.54,2.18-1.43,2.85-2.54,2,.72,3.43,2.62,3.43,4.86v2.62h2v-2.62c0-3.09-1.96-5.72-4.69-6.73,.09-.43,.15-.88,.15-1.33,0-.24-.02-.47-.04-.7,1.14,1.63,3.03,2.7,5.16,2.7,2.27,0,4.26-1.21,5.37-3.02,2.04,.83,3.48,2.83,3.48,5.17v6.54h2v-6.54c0-3.17-1.96-5.88-4.72-7.01Zm-24.98-.53c-.08,.35-.2,.67-.36,.98-.18,.36-.4,.69-.67,.98-.79,.87-1.91,1.43-3.18,1.43s-2.39-.56-3.18-1.43c-.27-.29-.49-.62-.67-.98-.15-.31-.28-.64-.36-.98-.06-.3-.1-.6-.1-.92,0-2.38,1.93-4.3,4.3-4.3s4.3,1.93,4.3,4.3c0,.31-.04,.62-.1,.92Zm11.71,3.52c0,.26-.03,.52-.09,.77-.07,.35-.2,.67-.35,.98-.18,.36-.4,.69-.67,.99-.17,.18-.35,.35-.55,.5-.32,.25-.67,.46-1.05,.61-.32,.13-.66,.2-1.01,.25-.19,.03-.38,.06-.57,.06-.26,0-.52-.03-.77-.08-.35-.06-.69-.17-1-.31-.4-.18-.75-.42-1.07-.71-.12-.1-.23-.21-.33-.33-.27-.3-.49-.63-.67-.99-.15-.31-.28-.64-.35-.98-.05-.22-.06-.44-.08-.67,0-.08-.02-.15-.02-.23,0-.35,.05-.69,.13-1.02,.08-.34,.21-.66,.37-.97,.72-1.37,2.14-2.32,3.8-2.32s3.05,.93,3.78,2.28c.16,.3,.29,.62,.38,.96,.09,.34,.15,.69,.15,1.06,0,.04-.01,.09-.01,.13Zm11.33-3.5c-.08,.34-.2,.66-.35,.97-.18,.35-.4,.68-.66,.97-.79,.87-1.91,1.43-3.18,1.43s-2.39-.56-3.18-1.43c-.26-.29-.48-.62-.66-.97-.15-.31-.28-.63-.35-.97-.07-.3-.11-.62-.11-.94,0-2.38,1.93-4.3,4.3-4.3s4.3,1.93,4.3,4.3c0,.32-.04,.64-.11,.94Z"/>
  </g>
  <g>
    <path class="cls-1" d="M1562.7,94.94l-1560.27,.06H1562.27c.14-.02,.29-.04,.43-.06Z"/>
    <path class="cls-1" d="M270.98,69.94c64.18,.91,107.86,3.1,156.78,4.85,83.1-4.9,159.72-12.07,233.27-14.05,51.12-1.37,109.73,2.51,183.54,4.46,148.05-17.08,258.91-49.3,347.91-62.39,6.65-.98,13.15-1.92,19.51-2.82H0V95H2.43s123.94-27.1,268.55-25.06Z"/>
    <path class="cls-5" d="M661.03,60.75c-73.55,1.97-150.17,9.14-233.27,14.05,61.31,2.2,130.84,3.7,259.24,1.11,56.85-1.15,109.19-5.12,157.57-10.7-73.81-1.95-132.42-5.83-183.54-4.46Z"/>
    <path class="cls-5" d="M844.57,65.21c90.93,2.41,204.95,1.89,356.53-14.98C1350.53,33.6,1455.43,14.22,1520.03,0h-308.04c-6.37,.9-12.86,1.84-19.51,2.82-89,13.08-199.86,45.31-347.91,62.39Z"/>
    <path class="cls-5" d="M427.76,74.79c-48.92-1.75-92.6-3.95-156.78-4.85C126.37,67.9,2.43,95,2.43,95c0,0,157.77-14.39,294.03-15.47,45.72-.36,89.34-2.26,131.3-4.74Z"/>
    <path class="cls-3" d="M1600,0h-79.97c-64.6,14.22-169.5,33.6-318.93,50.23-151.58,16.87-265.6,17.38-356.53,14.98-48.38,5.58-100.71,9.55-157.57,10.7-128.4,2.59-197.93,1.09-259.24-1.11-41.97,2.48-85.58,4.38-131.3,4.74C160.2,80.61,2.43,95,2.43,95l1560.27-.06c9.88-1.39,19.82-2.79,29.77-4.18,2.51-.35,5.02-.7,7.53-1.05,63.13-8.83,125.89-17.46,174.67-23.86,101.52-13.31,181.91,5.18,225.33,19.54V0h-400Z"/>
    <path class="cls-5" d="M1562.7,94.94c-.14,.02-.29,.04-.43,.06h30.2v-.06h-29.77Z"/>
    <path class="cls-5" d="M1592.47,90.76c-9.95,1.39-19.89,2.79-29.77,4.18h29.77v-4.18Z"/>
    <path class="cls-5" d="M1774.67,65.85c-48.78,6.39-111.54,15.03-174.67,23.86v5.23h-7.53v.06h407.53v-9.61c-43.42-14.36-123.81-32.85-225.33-19.54Z"/>
    <path class="cls-5" d="M1600,94.94v-5.23c-2.51,.35-5.02,.7-7.53,1.05v4.18h7.53Z"/>
  </g>
</svg>