<?xml version="1.0" encoding="UTF-8"?>
<svg width="512px" height="512px" viewBox="0 0 512 512" version="1.1" xmlns="http://www.w3.org/2000/svg" xmlns:xlink="http://www.w3.org/1999/xlink">
    <!-- Generator: Sketch 61.1 (89650) - https://sketch.com -->
    <title>Metrics-Icon</title>
    <desc>Created with Sketch.</desc>
    <g id="Metrics-Icon" stroke="none" stroke-width="1" fill="none" fill-rule="evenodd">
        <path d="M47.6666667,506 C24.6548021,506 6,487.345198 6,464.333333 L6,464.333333 L6,308.083333 C6,285.071469 24.6548021,266.416667 47.6666667,266.416667 L47.6666667,266.416667 L151.833333,266.416667 C155.430243,266.416667 158.920701,266.872437 162.250108,267.729377 L162.25,47.6666667 C162.25,24.6548021 180.904802,6 203.916667,6 L203.916667,6 L308.083333,6 C331.095198,6 349.75,24.6548021 349.75,47.6666667 L349.75,47.6666667 L349.748892,137.521301 C353.0786,136.664195 356.569397,136.208333 360.166667,136.208333 L360.166667,136.208333 L464.333333,136.208333 C487.345198,136.208333 506,154.863135 506,177.875 L506,177.875 L506,464.333333 C506,487.345198 487.345198,506 464.333333,506 L464.333333,506 Z M151.833333,297.666667 L47.6666667,297.666667 C41.9137005,297.666667 37.25,302.330367 37.25,308.083333 L37.25,308.083333 L37.25,464.333333 C37.25,470.086299 41.9137005,474.75 47.6666667,474.75 L47.6666667,474.75 L162.25,474.75 L162.25,308.083333 C162.25,303.049488 158.679354,298.849612 153.932655,297.878296 L153.932655,297.878296 L151.833333,297.666667 Z M318.5,47.6666667 C318.5,42.6328213 314.929354,38.4329449 310.182655,37.4616296 L310.182655,37.4616296 L308.083333,37.25 L203.916667,37.25 C198.163701,37.25 193.5,41.9137005 193.5,47.6666667 L193.5,47.6666667 L193.5,474.75 L318.5,474.75 Z M464.333333,167.458333 L360.166667,167.458333 C354.413701,167.458333 349.75,172.122034 349.75,177.875 L349.75,177.875 L349.75,474.75 L464.333333,474.75 C469.367179,474.75 473.567055,471.179354 474.53837,466.432655 L474.53837,466.432655 L474.75,464.333333 L474.75,177.875 C474.75,172.122034 470.086299,167.458333 464.333333,167.458333 L464.333333,167.458333 Z" id="Combined-Shape" fill="#324056" fill-rule="nonzero"></path>
    </g>
</svg>