<?xml version="1.0"?>
<svg xmlns="http://www.w3.org/2000/svg" xmlns:xlink="http://www.w3.org/1999/xlink" version="1.1" id="Capa_1" x="0px" y="0px" width="512px" height="512px" viewBox="0 0 73.17 73.169" style="enable-background:new 0 0 73.17 73.169;" xml:space="preserve" class=""><g><g>
	<g id="List">
		<g>
			<path d="M27.119,16.217h41.959c2.26,0,4.092-1.783,4.092-3.979c0-2.196-1.832-3.971-4.092-3.971H27.119     c-2.26,0-4.092,1.774-4.092,3.971C23.027,14.435,24.859,16.217,27.119,16.217z M69.078,32.614H27.119     c-2.26,0-4.092,1.775-4.092,3.972c0,2.197,1.832,3.979,4.092,3.979h41.959c2.26,0,4.092-1.782,4.092-3.979     C73.17,34.389,71.338,32.614,69.078,32.614z M69.078,56.962H27.119c-2.26,0-4.092,1.781-4.092,3.971     c0,2.195,1.832,3.979,4.092,3.979h41.959c2.26,0,4.092-1.781,4.092-3.979C73.17,58.744,71.338,56.962,69.078,56.962z      M6.652,5.777C2.979,5.777,0,8.673,0,12.238s2.979,6.461,6.652,6.461c3.675,0,6.653-2.896,6.653-6.461S10.327,5.777,6.652,5.777z      M6.652,30.125C2.979,30.125,0,33.02,0,36.586c0,3.572,2.979,6.46,6.652,6.46c3.675,0,6.653-2.889,6.653-6.46     C13.306,33.02,10.327,30.125,6.652,30.125z M6.652,54.479C2.979,54.479,0,57.368,0,60.932c0,3.571,2.979,6.461,6.652,6.461     c3.675,0,6.653-2.89,6.653-6.461C13.306,57.368,10.327,54.479,6.652,54.479z" data-original="#000000" class="active-path" data-old_color="#6c6a91" fill="#6c6a91"/>
		</g>
	</g>
</g></g> </svg>
