<svg viewBox="0 0 14 12" xmlns="http://www.w3.org/2000/svg">
  <g fill="#606266" stroke="#606266" stroke-width=".2" fill-rule="evenodd">
    <path d="M1.2 6c.7.6 1.5 1.3 3 1.3 1.6 0 2.4-.7 3.1-1.3.7-.6 1.3-1 2.5-1s1.8.4 2.4 1a.5.5 0 10.6-.7c-.7-.6-1.5-1.3-3-1.3-1.6 0-2.4.7-3.1 1.3-.7.6-1.3 1-2.5 1s-1.8-.4-2.4-1a.5.5 0 10-.6.7zM1.2 2.5a4.3 4.3 0 006.1 0c.7-.6 1.3-1 2.5-1s1.8.4 2.4 1a.5.5 0 10.6-.7 4.3 4.3 0 00-6.1 0c-.7.6-1.3 1-2.5 1s-1.8-.4-2.4-1a.5.5 0 10-.6.7zM12.8 9c-.7-.7-1.5-1.4-3-1.4-1.6 0-2.4.7-3.1 1.3C6 9.5 5.4 10 4.2 10s-1.8-.5-2.4-1h0a.5.5 0 00-.6.6 4.3 4.3 0 006.1 0c.7-.5 1.3-1 2.5-1s1.8.5 2.4 1a.5.5 0 10.6-.7z"/>
  </g>
</svg>
