<?xml version="1.0" encoding="UTF-8"?>
<svg width="20px" height="17px" viewBox="0 0 20 17" version="1.1" xmlns="http://www.w3.org/2000/svg" xmlns:xlink="http://www.w3.org/1999/xlink">
    <!-- Generator: Sketch 63.1 (92452) - https://sketch.com -->
    <title>chart-custom-icon@2x</title>
    <desc>Created with Sketch.</desc>
    <g id="Page-1" stroke="none" stroke-width="1" fill="none" fill-rule="evenodd">
        <g id="scatter-analytics-category-1" transform="translate(-1385.000000, -136.000000)" stroke-width="1.2">
            <g id="graph-1" transform="translate(371.000000, 115.000000)">
                <g id="Group-4" transform="translate(23.000000, 15.000000)">
                    <g id="Group-22" transform="translate(776.000000, 0.000000)">
                        <g id="Group-5-Copy" transform="translate(210.000000, 0.000000)">
                            <g id="chart-custom-icon" transform="translate(6.000000, 7.000000)">
                                <line x1="-9.11191638e-12" y1="14.8098518" x2="17.8146598" y2="14.8098518" id="Path-3" stroke="#324056" stroke-linecap="round"></line>
                                <path d="M6.81465978,1.6 L3.41465978,2 L3.41465978,14.7757288 L7.21465978,14.7757288 L6.81465978,1.6 Z" id="Rectangle" stroke="#334056"></path>
                                <polyline id="Path" stroke="#334056" points="14.8146598 10.2865264 14.8146598 14.8098518 11.2018886 14.8098518 11.2018886 9.29941967"></polyline>
                                <path d="M17.6964675,4.86456298 L17.2558154,4.61230469 C16.7805046,4.34020997 16.7800736,3.65997314 17.2558154,3.38769531 L17.6964675,3.13543702 C17.8094931,3.07067872 17.8482148,2.92736816 17.7829604,2.81530762 L16.83357,1.18475342 C16.7683771,1.07275391 16.6237092,1.03424072 16.5106221,1.09893798 L16.06997,1.35119628 C15.5947207,1.62322998 15.0004744,1.28363037 15.0004744,0.738891594 L15.0004744,0.234375 C15.0004744,0.104919437 14.8946514,0 14.764081,0 L12.8652385,0 C12.7347297,0 12.6288451,0.104919438 12.6288451,0.234375 L12.6288451,0.738891594 C12.6288451,1.28308106 12.0351529,1.62353516 11.5593496,1.35119628 L11.1186975,1.09893798 C11.0057334,1.03424072 10.8610656,1.07263184 10.7957496,1.18475342 L9.84635914,2.81530762 C9.7811047,2.92736816 9.81982643,3.07073975 9.93285204,3.13543702 L10.3735042,3.38769531 C10.848815,3.65979003 10.8492459,4.34002686 10.3735042,4.61230469 L9.9329136,4.86456298 C9.81982643,4.92932128 9.7811047,5.07263184 9.84635914,5.18469238 L10.7957496,6.81524658 C10.8609425,6.92724609 11.0056103,6.96582031 11.1186975,6.90106202 L11.5593496,6.64880372 C12.0345373,6.37670898 12.6288451,6.71630859 12.6288451,7.26110841 L12.6288451,7.765625 C12.6288451,7.89508056 12.7346681,8 12.8652385,8 L14.7640195,8 C14.8945899,8 15.0004129,7.89508056 15.0004129,7.765625 L15.0004129,7.26110841 C15.0004129,6.71704102 15.5941051,6.37640381 16.06997,6.64880372 L16.5106221,6.90106202 C16.6235861,6.96575928 16.768254,6.92736816 16.8335084,6.81524658 L17.7829604,5.18469237 C17.8482148,5.07263184 17.8094931,4.92932128 17.6964675,4.86456298 Z M13.814681,5.14285714 C13.1844779,5.14285714 12.6718026,4.63018708 12.6718026,4 C12.6718026,3.36981292 13.1844779,2.85714286 13.814681,2.85714286 C14.4448417,2.85714286 14.9575169,3.36981292 14.9575169,4 C14.9575169,4.63018708 14.4448417,5.14285714 13.814681,5.14285714 Z" id="Shape-Copy" stroke="#324056" fill-rule="nonzero"></path>
                            </g>
                        </g>
                    </g>
                </g>
            </g>
        </g>
    </g>
</svg>