<svg xmlns="http://www.w3.org/2000/svg" viewBox="0 0 226.7 226.7">
  <g fill="#fff">
    <path d="M174.2 106.7c-24 0-43.5 19.5-43.5 43.5 0 20 16.2 36.3 36.3 36.3a7.5 7.5 0 100-15 21.3 21.3 0 01-21.3-21.3 28.6 28.6 0 0128.5-28.5 37.6 37.6 0 0137.5 37.5 48.8 48.8 0 01-48.8 48.8H7.5a7.5 7.5 0 000 15h155.4a63.9 63.9 0 0063.8-63.8c0-29-23.6-52.5-52.5-52.5z"/>
    <path d="M7.5 158.7h69.9A42.7 42.7 0 00120 116c0-19.7-16-35.7-35.7-35.7a30 30 0 00-30 30C54.4 124.5 66 136 80 136a7.5 7.5 0 000-15c-5.8 0-10.5-4.8-10.5-10.5a15 15 0 0115-15c11.4 0 20.7 9.2 20.7 20.6a27.7 27.7 0 01-27.7 27.7H7.5a7.5 7.5 0 000 15zM2.3 54a6 6 0 008.2 2.1l13.2-7.6v15.2a6 6 0 0012 0V48.5l13.1 7.6A6 6 0 0057 54a6 6 0 00-2.2-8.2l-13.1-7.6 13.1-7.6a6 6 0 10-6-10.4l-13.1 7.6V12.5a6 6 0 00-12 0v15.2l-13.2-7.6a6 6 0 00-6 10.4l13.2 7.6-13.2 7.6A6 6 0 002.3 54zM117.3 70.3a6 6 0 008.2 2.2l24.2-14v28a6 6 0 0012 0v-28l24.3 14a6 6 0 008.2-2.2 6 6 0 00-2.2-8.2l-24.3-14 24.3-14a6 6 0 10-6-10.4l-24.3 14v-28a6 6 0 10-12 0v28l-24.2-14a6 6 0 00-6 10.4l24.2 14-24.2 14a6 6 0 00-2.2 8.2z"/>
  </g>
</svg>
