<?xml version="1.0" encoding="UTF-8"?>
<svg width="512px" height="512px" viewBox="0 0 512 512" version="1.1" xmlns="http://www.w3.org/2000/svg" xmlns:xlink="http://www.w3.org/1999/xlink">
    <!-- Generator: Sketch 55.2 (78181) - https://sketchapp.com -->
    <title>Artboard</title>
    <desc>Created with Sketch.</desc>
    <g id="Artboard" stroke="none" stroke-width="1" fill-rule="evenodd">
        <g id="photo-camera-(1)" transform="translate(0.000000, 48.000000)" fill-rule="nonzero">
            <path d="M0,127.299975 L0,353.448328 C0,387.966809 28.0032653,416 62.484898,416 L449.515102,416 C483.996735,416 512,387.966809 512,353.448328 L512,127.299975 C512,94.4551169 485.355102,67.781745 452.545306,67.781745 L369.371429,67.781745 L367.386122,59.099824 C359.340408,24.2675383 328.724898,0 292.989388,0 L218.906122,0 C183.275102,0 152.659592,24.2675383 144.509388,59.099824 L142.524082,67.781745 L59.4546939,67.781745 C26.644898,67.781745 0,94.5597184 0,127.299975 Z M152.764082,93.4091023 C158.72,93.4091023 163.84,89.3296455 165.198367,83.4719638 L169.482449,64.8529042 C174.915918,41.7359819 195.186939,25.6273573 218.906122,25.6273573 L292.989388,25.6273573 C316.708571,25.6273573 336.979592,41.7359819 342.413061,64.8529042 L346.697143,83.4719638 C348.05551,89.225044 353.17551,93.4091023 359.131429,93.4091023 L452.440816,93.4091023 C471.14449,93.4091023 486.29551,108.576314 486.29551,127.299975 L486.29551,353.448328 C486.29551,373.845612 469.786122,390.372643 449.410612,390.372643 L62.484898,390.372643 C42.1093878,390.372643 25.6,373.845612 25.6,353.448328 L25.6,127.299975 C25.6,108.576314 40.7510204,93.4091023 59.4546939,93.4091023 L152.764082,93.4091023 Z" id="Shape"></path>
            <circle id="Oval" cx="87" cy="148" r="17"></circle>
            <path d="M256.5,350 C315.734694,350 364,301.734694 364,242.5 C364,183.265306 315.734694,135 256.5,135 C197.265306,135 149,183.160836 149,242.5 C149,301.839164 197.265306,350 256.5,350 Z M256.5,160.595238 C301.631195,160.595238 338.404762,197.368805 338.404762,242.5 C338.404762,287.631195 301.631195,324.404762 256.5,324.404762 C211.368805,324.404762 174.595238,287.631195 174.595238,242.5 C174.595238,197.368805 211.368805,160.595238 256.5,160.595238 Z" id="Shape"></path>
        </g>
    </g>
</svg>
