<svg xmlns="http://www.w3.org/2000/svg" width="190" height="200" viewBox="0 0 190 200">
  <g fill="none" fill-rule="evenodd">
    <polygon fill="#243745" points="46.378 154.589 190 154.589 143.622 200 0 200"/>
    <g transform="translate(34.817)">
      <path fill="#DBE7F0" d="M5.96858639,60.8695652 L115.39267,60.8695652 L115.39267,176.811594 C115.39267,184.815721 90.8972546,191.304348 60.6806283,191.304348 C30.4640019,191.304348 5.96858639,184.815721 5.96858639,176.811594 L5.96858639,176.811594 L5.96858639,60.8695652 Z"/>
      <path fill="#C4D3E0" d="M115.39267,60.8695652 L115.39267,176.811594 C115.39267,182.230116 104.166839,186.95411 87.5397227,189.440703 L87.539267,60.8695652 L115.39267,60.8695652 Z"/>
      <g transform="translate(16.489 98.55)">
        <polygon fill="#FFF" points="6.037 0 62.956 0 56.965 5.797 0 5.797"/>
        <polygon fill="#3C576B" points="62.956 0 62.956 36.232 56.96 42.029 56.96 5.797"/>
        <rect width="56.96" height="36.232" y="5.797" fill="#BACCDA"/>
      </g>
      <ellipse cx="60.681" cy="59.42" fill="#3C576B" rx="54.712" ry="14.493"/>
      <path fill="#DBE7F0" d="M100.40307,10.1449275 L100.403447,63.0903458 C90.4349021,66.184855 76.3101368,68.115942 60.6471859,68.115942 C45.0187271,68.115942 30.9216867,66.1933506 20.9568419,63.1107725 L20.9581869,10.1449275 L100.40307,10.1449275 Z"/>
      <path fill="#6A889F" d="M100.40307,10.1449275 L100.403447,63.0903458 C93.5778127,65.2092095 84.8035859,66.7826171 74.9212111,67.5641318 L74.9204039,10.1449275 L100.40307,10.1449275 Z" opacity=".2"/>
      <ellipse cx="60.681" cy="9.42" fill="#3C576B" rx="39.722" ry="9.42"/>
      <g transform="translate(.183 73)">
        <rect width="6" height="20" fill="#BACCDA" transform="matrix(-1 0 0 1 6 0)"/>
        <rect width="4" height="20" x="2" fill="#3C576B" transform="matrix(-1 0 0 1 8 0)"/>
      </g>
      <g transform="matrix(-1 0 0 1 121.183 135)">
        <rect width="6" height="20" fill="#BACCDA" transform="matrix(-1 0 0 1 6 0)"/>
        <rect width="4" height="20" x="2" fill="#3C576B" transform="matrix(-1 0 0 1 8 0)"/>
      </g>
    </g>
  </g>
</svg>
