<svg viewBox="0 0 20 20" xmlns="http://www.w3.org/2000/svg">
  <g fill-rule="nonzero" fill="none">
    <path d="M10 2.33a7.68 7.68 0 10.02 15.35A7.68 7.68 0 0010 2.33zm3.92 2.87a.48.48 0 01.69-.03c1 .94 1.67 2.14 1.95 3.46a.48.48 0 01-.25.53c-.47.24-1.03.36-1.56.36-.7 0-1.35-.2-1.73-.58-.82-.81-.48-2.21.9-3.74zm-7.84 9.68c-.09.1-.21.15-.34.16h-.02a.48.48 0 01-.33-.13 6.67 6.67 0 01-1.95-3.47.48.48 0 01.25-.53c1.08-.55 2.62-.45 3.3.23.8.8.47 2.2-.91 3.74zm.9-5.94c-.38.38-1.04.58-1.73.58-.53 0-1.1-.12-1.56-.36a.48.48 0 01-.25-.53 6.67 6.67 0 011.95-3.46c.1-.09.23-.14.35-.13.13 0 .25.06.34.16 1.38 1.53 1.72 2.93.9 3.74zm5.06 7.45a6.72 6.72 0 01-4.08 0 .48.48 0 01-.34-.49c.12-1.72 1.15-3.03 2.38-3.03s2.26 1.3 2.38 3.03a.48.48 0 01-.34.49zM8.08 10a1.92 1.92 0 113.84 0 1.92 1.92 0 01-3.84 0zm4.3-5.86c-.12 1.72-1.15 3.02-2.38 3.02s-2.26-1.3-2.38-3.02a.48.48 0 01.34-.5 6.72 6.72 0 014.08 0c.21.08.35.28.34.5zm4.18 7.22a6.67 6.67 0 01-1.95 3.47.48.48 0 01-.33.13h-.02a.48.48 0 01-.34-.16c-1.38-1.53-1.72-2.93-.9-3.74.67-.68 2.21-.78 3.3-.22.18.1.28.31.24.52z" fill="#324056"/>
    <path d="M10 .55a9.46 9.46 0 000 18.9 9.46 9.46 0 000-18.9z" stroke="#324056" stroke-width="1.1"/>
  </g>
</svg>
