<svg xmlns="http://www.w3.org/2000/svg" width="20" height="21" viewBox="0 0 20 21">
    <path fill="#324056" d="M10 .7c5.52 0 10 1.518 10 3.673V8.6l-.001.02v4.196l.001.011-.001.02v4.196l.001.011c0 2.156-4.48 3.673-10 3.673S0 19.21 0 17.054V4.374l.005-.127C.176 2.16 4.59.7 10 .7zm0 15.8c-4.071 0-7.577-.825-9.137-2.123l.002 2.677c0 1.424 4.087 2.808 9.135 2.808 4.998 0 9.053-1.356 9.134-2.765l.001-.043.002-2.677C17.577 15.675 14.07 16.5 10 16.5zm-6.481.04c.474 0 .86.386.86.86 0 .475-.386.86-.86.86-.475 0-.86-.385-.86-.86 0-.474.385-.86.86-.86zm0 .433c-.236 0-.428.191-.428.427s.192.428.428.428.427-.192.427-.428-.191-.427-.427-.427zm6.481-4.7c-4.071 0-7.577-.825-9.137-2.123l.002 2.677c0 1.424 4.087 2.809 9.135 2.809 4.998 0 9.053-1.357 9.134-2.766l.001-.043.002-2.677c-1.56 1.298-5.066 2.123-9.137 2.123zm-6.481.04c.474 0 .86.385.86.86 0 .474-.386.859-.86.859-.475 0-.86-.385-.86-.86 0-.474.385-.86.86-.86zm0 .432c-.236 0-.428.191-.428.427s.192.428.428.428.427-.192.427-.428-.191-.427-.427-.427zm15.618-6.822C17.577 7.22 14.07 8.046 10 8.046c-4.071 0-7.577-.825-9.137-2.123L.865 8.6c0 1.424 4.087 2.809 9.135 2.809 4.998 0 9.053-1.357 9.134-2.766l.001-.043zM3.519 8.085c.474 0 .86.385.86.86 0 .474-.386.86-.86.86-.475 0-.86-.386-.86-.86 0-.475.385-.86.86-.86zm0 .432c-.236 0-.428.191-.428.427s.192.428.428.428.427-.192.427-.428-.191-.427-.427-.427zM10 1.565C4.952 1.565.865 2.949.865 4.373S4.952 7.182 10 7.182s9.135-1.385 9.135-2.809c0-1.424-4.087-2.808-9.135-2.808z"/>
</svg>
