<svg id="Layer_1" data-name="Layer 1" xmlns="http://www.w3.org/2000/svg" viewBox="0 0 50 50"><path d="M16.87,25.51c-.11.82-.22,1.61-.33,2.4-.53,3.57-1,7.15-1.62,10.71a2.89,2.89,0,0,0,.49,2.17c1.59,2.43,3.11,4.9,4.69,7.34A3.14,3.14,0,0,1,20.4,50H1.86A1.73,1.73,0,0,1,.08,48.2,24,24,0,0,1,3.27,33.59a16.29,16.29,0,0,1,8.6-7.27,14.8,14.8,0,0,1,4.71-.86A1.35,1.35,0,0,1,16.87,25.51Z"/><path d="M30.31,11.1c-.14.91-.26,1.82-.43,2.72a16,16,0,0,1-2.55,6.61,7.66,7.66,0,0,1-7.11,3.2c-4.32-.26-7-2.58-8.52-6.35a23,23,0,0,1-1.45-5.89.55.55,0,0,1,.06-.38,7.72,7.72,0,0,1,4.93-3.75,8.53,8.53,0,0,1,4.53.5c2.21.77,4.4,1.62,6.62,2.35,1.18.39,2.42.6,3.63.89Z"/><path d="M27.44,50H21.62a3.4,3.4,0,0,1,.31-1.94c1.57-2.6,3.09-5.22,4.64-7.83a1.66,1.66,0,0,0,.22-1.17c-.41-2.78-.78-5.55-1.17-8.33-.22-1.63-.45-3.26-.67-4.89,0-.13,0-.26,0-.39,3.11-.88,9.86,2.92,11.75,6.65H29.31c-1.32,0-1.87.54-1.87,1.83,0,5,0,10.09,0,15.14Z"/><path d="M30.19,8.73a47.75,47.75,0,0,1-7.44-2.35,21.43,21.43,0,0,0-5-1.46,10.19,10.19,0,0,0-7.26,1.72l-.35.23c.07-.3.1-.51.16-.72A7.67,7.67,0,0,1,16.53.38a17.35,17.35,0,0,1,7,0,7.52,7.52,0,0,1,6.39,6.15c.13.6.21,1.2.3,1.81A3,3,0,0,1,30.19,8.73Z"/><path d="M19.31,25.36h3.15c.14,1,.28,2,.41,3,.46,3.37.9,6.76,1.4,10.13a3.25,3.25,0,0,1-.46,2.42c-1,1.54-1.89,3.15-2.86,4.79l-.23-.35c-1.07-1.85-2.15-3.7-3.21-5.56a1.16,1.16,0,0,1-.12-.69c.52-3.78,1.06-7.57,1.59-11.35Z"/><path d="M50,35.73c0-1.17-.49-1.66-1.69-1.66H31.21c-1.14,0-1.65.49-1.65,1.59V48.33c0,1.19.49,1.67,1.73,1.67h17c1.28,0,1.76-.47,1.76-1.74Zm-15.67,9a2.67,2.67,0,1,1,2.77-2.64A2.71,2.71,0,0,1,34.33,44.71Zm11.6,1.34c-1,0-2,0-3,0h-3a1.29,1.29,0,0,1-1.4-1.3,1.32,1.32,0,0,1,1.37-1.35q3,0,6.09,0a1.34,1.34,0,0,1,1.39,1.34A1.36,1.36,0,0,1,45.93,46.05Zm-.06-5.36c-2,0-3.92,0-5.88,0a1.35,1.35,0,0,1-1.49-1.34A1.33,1.33,0,0,1,40,38h2.89c1,0,2,0,3,0a1.4,1.4,0,0,1,1.48,1.32A1.37,1.37,0,0,1,45.87,40.69Z"/></svg>