<svg width="100" height="100" xmlns="http://www.w3.org/2000/svg"><g fill-rule="nonzero"><path d="M97.258 13.123H2.742A2.742 2.742 0 0 0 0 15.865V30.28a2.742 2.742 0 0 0 2.742 2.742H6.34V80.07a2.742 2.742 0 0 0 2.742 2.743h81.835a2.742 2.742 0 0 0 2.743-2.743V33.022h3.597A2.742 2.742 0 0 0 100 30.28V15.865a2.742 2.742 0 0 0-2.742-2.742zm-2.743 14.414H5.485v-8.93h89.03v8.93zm-6.34 49.79h-76.35V33.022h76.35v44.305z"/><path d="M30.533 60.794h38.934a6.409 6.409 0 0 0 6.401-6.401v-7.887a6.409 6.409 0 0 0-6.401-6.402H30.533a6.409 6.409 0 0 0-6.401 6.402v7.887a6.409 6.409 0 0 0 6.401 6.401zm-.916-14.288c0-.506.411-.917.917-.917h38.933c.505 0 .917.411.917.917v7.887a.918.918 0 0 1-.917.917H30.533a.918.918 0 0 1-.917-.917v-7.887z"/></g></svg>