<?xml version="1.0" encoding="UTF-8"?>
<svg width="49px" height="55px" viewBox="0 0 49 55" version="1.1" xmlns="http://www.w3.org/2000/svg" xmlns:xlink="http://www.w3.org/1999/xlink">
    <!-- Generator: Sketch 52.4 (67378) - http://www.bohemiancoding.com/sketch -->
    <title>Shape</title>
    <desc>Created with Sketch.</desc>
    <g id="Page-1" stroke="none" stroke-width="1" fill="none" fill-rule="evenodd">
        <g id="bell-fill" fill="#39B2C2" fill-rule="nonzero">
            <path d="M48.376,45.291 C43.716,40.66 41.354,35.179 41.354,29 L41.354,20.006 C41.397,13.149 36.786,8.601 32.824,6.79 C31.707,6.28 30.53,5.902 29.33,5.612 L29.33,5 C29.33,2.243 27.087,0 24.33,0 C21.573,0 19.33,2.243 19.33,5 L19.33,5.706 C18.251,5.989 17.191,6.335 16.184,6.799 C11.805,8.817 7.369,13.681 7.329,20 L7.329,29 C7.329,35.388 5.073,40.869 0.624,45.291 C0.359,45.555 0.263,45.944 0.375,46.301 C0.487,46.657 0.79,46.922 1.159,46.986 L10.65,48.625 C12.44,48.934 14.065,49.181 15.594,49.383 C17.339,52.804 20.766,55 24.512,55 C28.259,55 31.687,52.802 33.431,49.379 C34.953,49.178 36.57,48.932 38.35,48.624 L47.84,46.985 C48.209,46.922 48.511,46.657 48.624,46.3 C48.737,45.944 48.641,45.555 48.376,45.291 Z M21.329,5 C21.329,3.346 22.675,2 24.329,2 C25.983,2 27.329,3.346 27.329,5 L27.329,5.193 C25.336,4.911 23.305,4.927 21.329,5.243 L21.329,5 Z M13.329,21 C13.327,21 13.325,21 13.323,21 C12.771,20.996 12.326,20.546 12.329,19.994 C12.359,15.312 16.081,12.351 18.277,11.34 C22.126,9.565 26.871,9.568 30.746,11.338 C31.248,11.567 31.469,12.16 31.24,12.663 C31.01,13.165 30.417,13.387 29.914,13.156 C26.561,11.623 22.445,11.619 19.115,13.156 C17.348,13.97 14.353,16.329 14.33,20.006 C14.326,20.557 13.879,21 13.329,21 Z M30.935,49.678 C29.416,51.739 27.047,53 24.512,53 C21.978,53 19.61,51.74 18.091,49.68 L18.092,49.68 C18.488,49.721 18.872,49.753 19.256,49.786 C19.439,49.802 19.627,49.821 19.808,49.836 C19.948,49.847 20.083,49.854 20.222,49.864 C23.128,50.076 25.804,50.076 28.708,49.869 C28.875,49.857 29.038,49.848 29.207,49.835 C29.425,49.818 29.651,49.795 29.872,49.776 C30.211,49.746 30.548,49.718 30.897,49.682 C30.909,49.68 30.922,49.679 30.935,49.678 Z" id="Shape"></path>
        </g>
    </g>
</svg>