<?xml version="1.0" encoding="UTF-8"?>
<svg width="12px" height="12px" viewBox="0 0 12 12" version="1.1" xmlns="http://www.w3.org/2000/svg" xmlns:xlink="http://www.w3.org/1999/xlink">
    <title>F5E29849-5EE5-47E5-8BBD-B7BFBF34F4AE</title>
    <g id="Final-Screens" stroke="none" stroke-width="1" fill="none" fill-rule="evenodd">
        <g id="RFQ/Comparison/Vendor/Award-to-one-vendor" transform="translate(-1244.000000, -161.000000)">
            <g id="Header-&amp;-Info" transform="translate(75.000000, 42.000000)">
                <g id="Popup/Tab" transform="translate(0.000000, 96.000000)">
                    <g id="Switch" transform="translate(959.000000, 10.000000)">
                        <g id="Group-27" transform="translate(83.000000, 0.000000)">
                            <g id="Module" transform="translate(127.000000, 13.000000)">
                                <rect id="Rectangle" x="0" y="0" width="12" height="12"></rect>
                                <path d="M10.6875,2.859375 L6.5,0.440625 C6.24128518,0.291996572 5.92308982,0.291996572 5.664375,0.440625 L1.476875,2.860625 C1.22010526,3.01094705 1.06236776,3.28621445 1.06249992,3.58375 L1.06249992,8.4225 C1.06282888,8.72138074 1.22241143,8.99743472 1.48125,9.146875 L5.66875,11.566875 L5.66875,11.566875 C5.92797661,11.7160943 6.24702339,11.7160943 6.50625,11.566875 L10.69375,9.146875 L10.69375,9.146875 C10.9529663,8.99781301 11.1126874,8.72151931 11.1125002,8.4225 L11.1125002,3.58375 C11.1114074,3.28343254 10.9491242,3.00683526 10.6875,2.859375 Z M5.76875,10.900625 L1.7875,8.6025 C1.72343178,8.56507309 1.68378269,8.49669622 1.683125,8.4225 L1.683125,3.815625 L5.76875,6.175 L5.76875,10.900625 Z M6.08125,5.62625 L2.01375,3.27375 L5.978125,0.98 C6.04287112,0.942469361 6.12275388,0.942469361 6.1875,0.98 L10.15125,3.269375 L6.08125,5.62625 Z M10.485,8.4225 C10.485,8.49686892 10.4451592,8.56553955 10.380625,8.6025 L6.395,10.90125 L6.395,6.16625 L10.4825,3.809375 L10.485,8.4225 Z" id="Shape" fill="#324056" fill-rule="nonzero"></path>
                            </g>
                        </g>
                    </g>
                </g>
            </g>
        </g>
    </g>
</svg>
