<svg xmlns="http://www.w3.org/2000/svg" xmlns:xlink="http://www.w3.org/1999/xlink" width="14" height="18" viewBox="0 0 14 18">
  <defs>
    <path id="room2-a" d="M11.6666667,0 C12.9553311,0 14,1.04466892 14,2.33333333 L14,14.7777778 C14,16.0664422 12.9553311,17.1111111 11.6666667,17.1111111 L2.33333333,17.1111111 C1.04466892,17.1111111 0,16.0664422 0,14.7777778 L0,2.33333333 C0,1.04466892 1.04466892,0 2.33333333,0 L11.6666667,0 Z M9.91666667,7 C9.16494576,7 8.55555556,7.6093902 8.55555556,8.36111111 C8.55555556,9.11283202 9.16494576,9.72222222 9.91666667,9.72222222 C10.6683876,9.72222222 11.2777778,9.11283202 11.2777778,8.36111111 C11.2777778,7.6093902 10.6683876,7 9.91666667,7 Z"/>
  </defs>
  <g fill="none" fill-rule="evenodd">
    <path fill="#000" fill-rule="nonzero" d="M11.6666667,0 C12.9553311,0 14,1.04466892 14,2.33333333 L14,14.7777778 C14,16.0664422 12.9553311,17.1111111 11.6666667,17.1111111 L2.33333333,17.1111111 C1.04466892,17.1111111 0,16.0664422 0,14.7777778 L0,2.33333333 C0,1.04466892 1.04466892,0 2.33333333,0 L11.6666667,0 Z M9.91666667,7 C9.16494576,7 8.55555556,7.6093902 8.55555556,8.36111111 C8.55555556,9.11283202 9.16494576,9.72222222 9.91666667,9.72222222 C10.6683876,9.72222222 11.2777778,9.11283202 11.2777778,8.36111111 C11.2777778,7.6093902 10.6683876,7 9.91666667,7 Z"/>
    <mask id="room2-b" fill="#fff">
      <use xlink:href="#room2-a"/>
    </mask>
    <g mask="url(#room2-b)">
      <rect width="24.889" height="24.889" fill="#39b3c2" fill-rule="nonzero" transform="translate(-2.333 -.778)"/>
    </g>
  </g>
</svg>
