<svg xmlns="http://www.w3.org/2000/svg" xmlns:xlink="http://www.w3.org/1999/xlink" version="1.1" style="" xml:space="preserve" width="23.349206302651957" height="35"><rect id="backgroundrect" width="100%" height="100%" x="0" y="0" fill="none" stroke="none" class="" style=""/> <g class="currentLayer" style=""><title>Layer 1</title><g id="svg_1" class="" transform="rotate(13.237655639648438 13.102809906005879,18.105129241943356) "><g stroke-width="0" id="svg_2">
	<path d="M6.692285029063569,35.416606133359274 c-0.08608052563625351,0 -0.17216105127250675,-0.023030326440742804 -0.24933669494638871,-0.07118464536229592 c-0.20679114779283847,-0.1277136284441188 -0.2978188300748534,-0.3925623825126605 -0.2156960297552092,-0.6312403110803565 l5.167799832162646,-15.031475334664735 l-6.246279980938687,-1.8853462690807987 c-0.16127730665183096,-0.04815431892155319 -0.2889139481124824,-0.18005527944580688 -0.3383855145700994,-0.3496422286912764 c-0.04848213512846451,-0.16958694924546977 -0.01385203860813273,-0.3548763937914457 0.09498540759862452,-0.4909646863958329 L17.5750402184101,1.0323287573304563 c0.1503935620311553,-0.18947677662611034 0.4056668449524588,-0.23867792856769734 0.6114685614161435,-0.1245731293840178 c0.20580171646368617,0.11619846522374759 0.3077131433663768,0.3705788890919529 0.24241067564232274,0.6071631516195812 l-3.65298046723042,13.40679048757234 l6.2799206461298684,1.8958145992811364 c0.16226673798098337,0.04815431892155319 0.2899033794416343,0.18110211246584051 0.3383855145700994,0.35173589473134426 c0.04947156645761686,0.17063378226550327 0.011873175949828077,0.3569700598315128 -0.0979537015860817,0.4920115194158678 l-14.228022513210568,17.573185907306694 C6.971304663884528,35.35274931913722 6.832784277803201,35.416606133359274 6.692285029063569,35.416606133359274 zM6.154034386004698,17.012234808145774 l6.0226685005502585,1.8162552897585726 c0.13258379810641321,0.03977965476128288 0.24241067564232274,0.1360882926043892 0.3057342807080723,0.26484875406854147 c0.06233417373659743,0.1298072944841862 0.07123905569896838,0.2805512493690486 0.023746351899656144,0.416639541973437 l-4.418800315994327,12.853015819974484 l11.955298750147657,-14.765579747576158 l-6.014753049917041,-1.8141616237185048 c-0.12664721013149918,-0.03768598872121537 -0.2335057936799513,-0.1277136284441188 -0.2978188300748534,-0.24914625876803526 s-0.07915450633218712,-0.26484875406854147 -0.04254554715355065,-0.3988433806328641 l3.1463916267044243,-11.545521377952317 L6.154034386004698,17.012234808145774 z" data-original="#000000" class="active-path" data-old_color="#e9672f" fill="#e9672f" stroke-width="0" id="svg_3"/>
</g></g></g></svg>