<?xml version="1.0" encoding="UTF-8"?>
<svg width="500px" height="500px" viewBox="0 0 500 500" version="1.1" xmlns="http://www.w3.org/2000/svg" xmlns:xlink="http://www.w3.org/1999/xlink">
    <!-- Generator: Sketch 60.1 (88133) - https://sketch.com -->
    <title>work request</title>
    <desc>Created with Sketch.</desc>
    <g id="work-request" stroke="none" stroke-width="1" fill="none" fill-rule="evenodd">
        <g id="tools" transform="translate(75.000000, 75.000000)" fill-rule="nonzero">
            <path d="M339.399604,288.822969 C353.263204,302.694893 353.263204,325.178506 339.399604,339.050429 C325.538779,352.91403 303.03852,352.91403 289.174919,339.050429 L194.196635,235.882162 L236.064874,194.022247 L339.399604,288.822969 Z" id="Path" stroke="#428DFF" stroke-width="14" fill="#C8D9FC"></path>
            <polygon id="Path" fill="#B9CFFD" points="215.154337 174.831827 239.607763 198.402474 197.739525 240.262389 174.978473 215.010466"></polygon>
            <path d="M346.468736,43.5257511 L314.940629,75.300779 L294.848536,75.300779 L275.225313,54.9673141 L275.225313,34.8752202 L306.290098,3.3498873 C299.884044,1.19141641 293.017441,0.017851527 285.87895,0.017851527 C242.115807,0.017851527 211.375625,43.0568803 225.289164,84.3563704 L164.94075,144.713108 L164.893585,144.663169 L70.6810312,50.2369878 L70.6810312,30.1532179 L20.4618942,0.017851527 L0.375349414,20.1043963 L30.5051673,70.3235326 L50.5889372,70.3318559 L144.80704,164.755262 L144.848656,164.796878 L84.7083199,224.939989 C43.4865126,211.054193 0.369801,241.677851 0.369801,285.527001 C0.369801,292.665492 1.54059167,299.532094 3.69906257,305.938148 L35.2271696,274.163121 L55.3192636,274.163121 L75.6527284,294.496587 L75.6527284,314.58868 L43.8777006,346.116787 C50.2837553,348.275259 57.1503567,349.448823 64.288849,349.448823 C108.132449,349.448823 138.76443,306.329337 124.878635,265.10753 C154.006899,235.979265 236.461611,153.524553 265.459479,124.526686 C271.873856,126.687931 278.740458,127.858722 285.87895,127.858722 C321.182994,127.858722 349.797998,99.2437181 349.797998,63.9396737 C349.797998,56.8011822 348.627208,49.9318058 346.468736,43.5257511 L346.468736,43.5257511 Z" id="Path" fill="#E9EEF0"></path>
            <path d="M314.940629,75.300779 L294.848536,75.300779 L275.225313,54.9673141 L275.225313,34.8752202 L306.290098,3.3498873 C299.884044,1.19141641 293.017441,0.017851527 285.87895,0.017851527 C242.115807,0.017851527 211.375625,43.0568803 225.289164,84.3563704 L164.94075,144.713108 L164.893585,144.663169 L70.6810312,50.2369878 L70.6810312,30.1532179 L20.4618942,0.017851527 L0.375349414,20.1043963 L30.5051673,70.3235326 L50.5889372,70.3318559 L144.80704,164.755262 L144.848656,164.796878 L84.7083199,224.939989 C43.4865126,211.054193 0.369801,241.677851 0.369801,285.527001 C0.369801,292.665492 1.54059167,299.532094 3.69906257,305.938148 L35.2271696,274.163121 L55.3192636,274.163121 L75.6527284,294.496587 L75.6527284,314.58868 L43.8777006,346.116787 C50.2837553,348.275259 57.1503567,349.448823 64.288849,349.448823 C108.132449,349.448823 138.76443,306.329337 124.878635,265.10753 C154.006899,235.979265 236.461611,153.524553 265.459479,124.526686 C271.873856,126.687931 278.740458,127.858722 285.87895,127.858722 C321.182994,127.858722 349.797998,99.2437181 349.797998,63.9396737 C349.797998,56.8011822 348.627208,49.9318058 346.468736,43.5257511 L314.940629,75.300779 Z" id="Path" stroke="#428DFF" stroke-width="14" fill="#E8EDFC" stroke-linejoin="round"></path>
            <path d="M239.607763,103.108436 C235.687557,103.108436 232.505339,106.282332 232.505339,110.208086 C232.505339,114.131066 235.687557,117.310511 239.607763,117.310511 C243.536292,117.310511 246.710188,114.131066 246.710188,110.208086 C246.710188,106.282332 243.536292,103.108436 239.607763,103.108436 Z" id="Path" fill="#428DFF"></path>
            <path d="M110.560036,232.153389 C106.631507,232.153389 103.457611,235.335608 103.457611,239.255814 C103.457611,243.184342 106.631507,246.358238 110.560036,246.358238 C114.480241,246.358238 117.66246,243.184342 117.66246,239.255814 C117.66246,235.335608 114.480241,232.153389 110.560036,232.153389 Z" id="Path" fill="#428DFF"></path>
            <path d="M214.499582,125.272995 L125.62217,214.150407 C122.85056,216.922017 122.85056,221.419294 125.62217,224.193679 C128.396554,226.968064 132.893832,226.968064 135.668217,224.193679 L224.545629,135.316268 C227.320013,132.544657 227.320013,128.04738 224.545629,125.272995 C221.771244,122.498611 217.273967,122.498611 214.499582,125.272995 L214.499582,125.272995 Z" id="Path" fill="#428DFF"></path>
            <path d="M304.250925,313.945023 C307.02531,316.711084 311.522587,316.711084 314.296972,313.928376 C317.065808,311.151217 317.057485,306.65394 314.280325,303.885104 L250.2614,240.071483 C247.484241,237.302647 242.984189,237.31097 240.218128,240.088129 C237.446517,242.868062 237.454841,247.362565 240.232,250.131402 L304.250925,313.945023 Z" id="Path" fill="#428DFF"></path>
        </g>
    </g>
</svg>