<?xml version="1.0" encoding="UTF-8"?>
<svg width="1202px" height="191px" viewBox="0 0 1202 191" version="1.1" xmlns="http://www.w3.org/2000/svg" xmlns:xlink="http://www.w3.org/1999/xlink">
    <title>Group</title>
    <g id="Page-2" stroke="none" stroke-width="1" fill="none" fill-rule="evenodd">
        <g id="Artboard" transform="translate(-830.000000, -1762.000000)" fill="#D7E0FD" fill-rule="nonzero">
            <g id="Group" transform="translate(830.000000, 1762.000000)">
                <path d="M1200.43,190.66 L1,190.66 C0.45,190.66 0,190.21 0,189.66 C0,189.11 0.45,188.66 1,188.66 L1200.43,188.66 C1200.98,188.66 1201.43,189.11 1201.43,189.66 C1201.43,190.21 1200.98,190.66 1200.43,190.66 Z" id="Path"></path>
                <path d="M882.06,64.99 C846.78,64.99 818.07,36.28 818.07,1 C818.07,0.45 818.52,-2.27373675e-13 819.07,-2.27373675e-13 C819.62,-2.27373675e-13 820.07,0.45 820.07,1 C820.07,35.18 847.88,62.99 882.06,62.99 C916.24,62.99 944.05,35.18 944.05,1 C944.05,0.45 944.5,-2.27373675e-13 945.05,-2.27373675e-13 C945.6,-2.27373675e-13 946.05,0.45 946.05,1 C946.05,36.28 917.34,64.99 882.06,64.99 Z" id="Path"></path>
                <path d="M93.48,189.14 C92.93,189.14 92.48,188.69 92.48,188.14 C92.48,138.25 51.89,97.66 2,97.66 C1.45,97.66 1,97.21 1,96.66 C1,96.11 1.45,95.66 2,95.66 C52.99,95.66 94.48,137.15 94.48,188.14 C94.48,188.7 94.03,189.14 93.48,189.14 Z" id="Path"></path>
                <path d="M1116.46,190.66 L1020.26,190.66 C1016.58,190.66 1013.41,188.55 1012,185.14 C1010.59,181.74 1011.33,178 1013.94,175.4 L1110.14,79.2 C1112.74,76.6 1116.48,75.85 1119.88,77.26 C1123.28,78.67 1125.4,81.83 1125.4,85.52 L1125.4,181.72 C1125.4,186.65 1121.39,190.66 1116.46,190.66 Z M1116.42,78.56 C1114.63,78.56 1112.9,79.27 1111.56,80.61 L1015.36,176.81 C1013.34,178.83 1012.76,181.73 1013.86,184.37 C1014.95,187.01 1017.41,188.65 1020.27,188.65 L1116.47,188.65 C1120.3,188.65 1123.41,185.54 1123.41,181.71 L1123.41,85.51 C1123.41,82.65 1121.77,80.19 1119.13,79.1 C1118.23,78.74 1117.32,78.56 1116.42,78.56 Z" id="Shape"></path>
                <path d="M306.09,155.84 L306.09,143.14 L306.27,143.14 L306.48,143.04 C306.96,142.82 318.15,137.62 320.94,130.33 C322.41,126.47 321.13,123.76 319.78,120.88 C318.44,118.03 317.05,115.08 317.74,110.26 C318.21,106.96 319,104.64 319.69,102.59 C321.08,98.48 322.08,95.51 318.8,89.07 C315.72,83.03 312.82,78.75 308.66,77.48 C305.88,76.63 302.76,77.2 299.12,79.23 C289.68,84.48 290.19,100.79 292.83,110.47 C293.79,113.99 292.39,117.14 290.91,120.47 C289.05,124.66 287.13,128.98 290.17,134.01 C294.14,140.55 300.79,142.4 304.08,142.93 L304.08,155.83 L281.43,155.83 L290.37,190.65 L320.47,190.65 L328.69,155.83 L306.09,155.83 L306.09,155.84 Z M291.89,132.98 C289.39,128.85 290.94,125.35 292.74,121.29 C294.3,117.78 295.91,114.16 294.76,109.95 C292.28,100.88 291.66,85.68 300.09,80.99 C302.34,79.74 304.32,79.12 306.08,79.12 C306.78,79.12 307.44,79.22 308.07,79.41 C311.56,80.47 314.17,84.41 317.02,89.99 C319.92,95.68 319.12,98.04 317.79,101.96 C317.11,103.98 316.25,106.5 315.75,109.98 C314.97,115.39 316.63,118.91 317.96,121.73 C319.23,124.42 320.23,126.55 319.06,129.61 C316.85,135.39 308.12,139.99 306.08,141 L306.08,108.95 C306.08,108.4 305.63,107.95 305.08,107.95 C304.53,107.95 304.08,108.4 304.08,108.95 L304.08,140.87 C301.06,140.34 295.28,138.58 291.89,132.98 Z M318.91,188.66 L291.94,188.66 L284.02,157.84 L326.18,157.84 L318.91,188.66 Z" id="Shape"></path>
                <g transform="translate(482.377337, 19.842494)">
                    <path d="M95.7326629,151.677506 C93.1926629,143.917506 92.6726629,139.227506 92.6726629,139.177506 C92.6126629,138.627506 92.1226629,138.227506 91.5726629,138.287506 C91.0226629,138.347506 90.6226629,138.837506 90.6826629,139.387506 C90.7026629,139.587506 91.2226629,144.317506 93.8326629,152.297506 C94.5326629,154.447506 95.3126629,156.617506 96.1026629,158.667506 C95.3126629,159.397506 93.3926629,161.237506 91.4826629,163.477506 C89.0826629,166.297506 87.2926629,168.807506 87.2126629,168.907506 C86.8926629,169.357506 86.9926629,169.977506 87.4426629,170.307506 C87.6226629,170.437506 87.8226629,170.497506 88.0226629,170.497506 C88.3326629,170.497506 88.6426629,170.347506 88.8326629,170.077506 C88.8526629,170.057506 90.6526629,167.537506 92.9926629,164.777506 C94.4426629,163.077506 95.9326629,161.577506 96.8726629,160.687506 C98.7526629,165.427506 100.502663,169.227506 101.102663,170.077506 C101.292663,170.357506 101.602663,170.497506 101.922663,170.497506 C102.122663,170.497506 102.322663,170.437506 102.502663,170.317506 C102.952663,169.997506 103.062663,169.377506 102.742663,168.927506 C101.982663,167.847506 98.3126629,159.557506 95.7326629,151.677506 Z" id="Path"></path>
                    <path d="M108.442663,36.5975055 C108.742663,36.5975055 109.032663,36.4675055 109.232663,36.2175055 C109.602663,35.7475055 110.902663,34.4775055 111.952663,34.7375055 C113.332663,35.0875055 113.732663,35.8775055 113.732663,35.8875055 C113.942663,36.3975055 114.532663,36.6375055 115.042663,36.4175055 C115.552663,36.2075055 115.792663,35.6175055 115.572663,35.1075055 C115.502663,34.9375055 114.782663,33.3875055 112.432663,32.7975055 C109.892663,32.1475055 107.732663,34.8675055 107.642663,34.9875055 C107.302663,35.4175055 107.382663,36.0475055 107.812663,36.3875055 C108.012663,36.5275055 108.222663,36.5975055 108.442663,36.5975055 Z" id="Path"></path>
                    <path d="M10.3726629,14.8375055 C7.98266288,13.9375055 6.11266288,13.9475055 6.02266288,13.9575055 C5.47266288,13.9675055 5.03266288,14.4175055 5.04266288,14.9675055 C5.05266288,15.5175055 5.50266288,15.9775055 6.05266288,15.9575055 C6.06266288,15.9675055 7.65266288,15.9475055 9.66266288,16.7175055 C11.7226629,17.4975055 13.3026629,18.6775055 13.3126629,18.6875055 C13.4926629,18.8275055 13.7026629,18.8875055 13.9126629,18.8875055 C14.2126629,18.8875055 14.5126629,18.7475055 14.7126629,18.4875055 C15.0426629,18.0475055 14.9626629,17.4175055 14.5226629,17.0875055 C14.4526629,17.0375055 12.7126629,15.7275055 10.3726629,14.8375055 Z" id="Path"></path>
                    <path d="M9.43266288,19.5275055 C7.04266288,18.6275055 5.17266288,18.6474693 5.08266288,18.6474693 C4.53266288,18.6575055 4.09266288,19.1075055 4.10266288,19.6575055 C4.11266288,20.2075055 4.55266288,20.6775055 5.11266288,20.6475055 C5.13266288,20.6575055 6.71266288,20.6375055 8.72266288,21.4075055 C10.7826629,22.1875055 12.3626629,23.3675055 12.3726629,23.3775055 C12.5526629,23.5175055 12.7626629,23.5775055 12.9726629,23.5775055 C13.2726629,23.5775055 13.5726629,23.4375055 13.7726629,23.1775055 C14.1026629,22.7375055 14.0226629,22.1075055 13.5826629,21.7775055 C13.5126629,21.7275055 11.7726629,20.4175055 9.43266288,19.5275055 Z" id="Path"></path>
                    <path d="M192.802663,22.0575055 C193.172663,21.5075055 193.432663,20.6275055 193.182663,19.2175055 C192.882663,17.5175055 191.932663,16.5175055 191.232663,16.0075055 C191.312663,15.5675055 191.352663,15.0075055 191.242663,14.3875055 C190.962663,12.8975055 190.132663,10.9175055 186.202663,11.0375055 C183.312663,11.1175055 180.282663,12.0375055 178.072663,12.7075055 C177.582663,12.8575055 177.122663,12.9975055 176.712663,13.1075055 C176.282663,13.2275055 175.912663,13.3175055 175.592663,13.3775055 C175.862663,12.9175055 176.132663,12.4675055 176.352663,12.1675055 C177.042663,11.2175055 177.562663,8.65750554 176.802663,6.96750554 C176.352663,5.96750554 175.492663,5.36750554 174.392663,5.26750554 C171.202663,4.97750554 168.632663,9.70750554 166.362663,13.8875055 L166.012663,14.5375055 C163.862663,18.4875055 160.182663,29.0575055 160.042663,29.4775055 L154.602663,43.7075055 C152.212663,49.9475055 145.462663,58.1375055 140.102663,59.7775055 C140.042663,59.7475055 139.992663,59.7075055 139.932663,59.6775055 C139.912663,59.6675055 138.162663,59.0075055 134.702663,57.1875055 C130.612663,55.0275055 125.872663,52.3375055 119.802663,48.7275055 C115.692663,46.2775055 112.172663,45.0475055 109.942663,44.4475055 C110.212663,44.3775055 110.562663,44.2875055 110.952663,44.1675055 C111.032663,44.1475055 111.092663,44.1275055 111.112663,44.1175055 C111.112663,44.1175055 111.112663,44.1175055 111.122663,44.1175055 C111.882663,43.8775055 112.782663,43.5575055 113.672663,43.1275055 C115.852663,41.8575055 117.422663,39.5675055 117.862663,37.0075055 C118.162663,35.2975055 117.892663,33.6675055 117.142663,32.3975055 C117.962663,31.4375055 119.352663,29.2375055 119.242663,25.4575055 C119.142663,21.9775055 117.082663,20.4175055 115.322663,19.8675055 C115.762663,18.4175055 115.932663,15.8075055 114.022663,11.7975055 C111.022663,5.51750554 100.952663,-1.84249446 91.3526629,0.417505541 C89.0726629,0.957505541 87.4326629,2.19750554 86.4726629,4.09750554 C84.2526629,8.53750554 86.5926629,15.2575055 87.3526629,17.1775055 C81.7926629,24.8975055 80.7926629,32.1775055 84.3026629,39.4275055 C85.1226629,41.1275055 86.2026629,42.5775055 87.4926629,43.7775055 C84.7926629,44.0775055 80.5226629,44.7075055 77.6726629,45.8675055 C75.0326629,46.9475055 72.1226629,48.6975055 69.3126629,50.3875055 C66.8326629,51.8775055 64.2626629,53.4275055 61.8826629,54.5175055 C56.8926629,56.7975055 53.5326629,57.5975055 53.4926629,57.6075055 C53.3426629,57.6375055 53.2226629,57.7175055 53.1026629,57.8075055 C47.8226629,55.8775055 41.3626629,47.9475055 39.0426629,41.8775055 L33.6126629,27.6775055 C33.4526629,27.2275055 29.7826629,16.6675055 27.6326629,12.7075055 L27.2826629,12.0575055 C25.0226629,7.87750554 22.4526629,3.14750554 19.2626629,3.43750554 C18.1626629,3.53750554 17.3026629,4.14750554 16.8526629,5.13750554 C16.0826629,6.82750554 16.6126629,9.38750554 17.3026629,10.3375055 C17.5226629,10.6375055 17.8026629,11.0975055 18.0626629,11.5475055 C17.7426629,11.4875055 17.3726629,11.3975055 16.9426629,11.2775055 C16.5226629,11.1575055 16.0726629,11.0175055 15.5726629,10.8675055 C13.3626629,10.1975055 10.3426629,9.28750554 7.45266288,9.19750554 C3.52266288,9.08750554 2.70266288,11.0575055 2.41266288,12.5475055 C2.29266288,13.1675055 2.33266288,13.7375055 2.42266288,14.1675055 C1.72266288,14.6875055 0.772662883,15.6775055 0.472662883,17.3775055 C0.222662883,18.7875055 0.482662883,19.6775055 0.852662883,20.2175055 C0.432662883,20.9275055 -0.0273371168,22.0875055 0.00126973748,23.7375055 C0.0626628832,26.9375055 4.57266288,29.0175055 8.78266288,30.7075055 C12.5726629,32.2375055 14.0226629,34.1575055 15.1126629,36.7575055 C15.4426629,38.1375055 20.0526629,57.1975055 22.3526629,65.1175055 C23.6426629,69.5675055 26.7626629,75.1175055 30.4826629,79.6075055 C33.6326629,83.4075055 38.6226629,88.2175055 44.5326629,89.5475055 C48.2926629,90.3775055 50.4726629,90.7575055 51.6326629,90.9175055 C51.6526629,91.0775055 51.7026629,91.2375055 51.8026629,91.3775055 C51.9826629,91.6175055 52.2526629,91.7775055 52.5526629,91.7875055 C52.5926629,91.7875055 52.8326629,91.8075055 53.2526629,91.8075055 C54.5826629,91.8075055 57.7226629,91.6775055 61.9826629,90.6575055 C64.5426629,90.0475055 67.3626629,88.8675055 69.6926629,87.7475055 L62.4626629,128.237506 C62.4126629,128.527506 62.4926629,128.827506 62.6826629,129.057506 C62.8726629,129.287506 63.1526629,129.417506 63.4526629,129.417506 C63.4526629,129.417506 63.4526629,129.417506 63.4526629,129.417506 L64.3026629,129.417506 C62.0926629,132.027506 57.5226629,137.637506 51.8826629,145.607506 C43.9226629,156.837506 37.9126629,169.257506 37.8526629,169.377506 C37.6126629,169.877506 37.8226629,170.477506 38.3226629,170.707506 C38.4626629,170.777506 38.6126629,170.807506 38.7526629,170.807506 C39.1226629,170.807506 39.4826629,170.597506 39.6526629,170.237506 C39.7126629,170.117506 45.6526629,157.847506 53.5126629,146.747506 C60.3926629,137.037506 65.6726629,130.857506 66.9326629,129.397506 L133.902663,129.327506 C134.042663,132.577506 134.672663,143.157506 137.412663,151.697506 C140.592663,161.597506 143.992663,169.987506 144.022663,170.077506 C144.182663,170.467506 144.552663,170.697506 144.952663,170.697506 C145.082663,170.697506 145.202663,170.677506 145.332663,170.627506 C145.842663,170.417506 146.092663,169.837506 145.882663,169.327506 C145.852663,169.247506 142.472663,160.917506 139.322663,151.097506 C136.712663,142.967506 136.052663,132.587506 135.912663,129.337506 L138.002663,129.337506 C138.302663,129.337506 138.582663,129.207506 138.772663,128.977506 C138.962663,128.747506 139.042663,128.447506 138.982663,128.147506 L131.842663,90.9275055 C136.942663,92.8075055 141.462663,93.2375055 141.722663,93.2675055 C141.752663,93.2675055 141.782663,93.2675055 141.812663,93.2675055 C142.082663,93.2675055 142.352663,93.1575055 142.542663,92.9575055 C142.622663,92.8675055 142.672663,92.7575055 142.722663,92.6575055 C143.722663,92.4975055 145.602663,92.1475055 149.112663,91.3675055 C155.012663,90.0475055 160.012663,85.2375055 163.162663,81.4275055 C166.882663,76.9375055 169.992663,71.3875055 171.292663,66.9375055 C173.602663,59.0275055 178.202663,39.9575055 178.532663,38.5775055 C179.622663,35.9775055 181.072663,34.0575055 184.862663,32.5275055 C189.072663,30.8275055 193.582663,28.7575055 193.642663,25.5575055 C193.682663,23.9275055 193.232663,22.7675055 192.802663,22.0575055 Z M88.2726629,4.99750554 C88.9526629,3.62750554 90.1126629,2.76750554 91.8226629,2.36750554 C100.322663,0.357505541 109.582663,7.12750554 112.222663,12.6575055 C114.642663,17.7275055 113.142663,19.9075055 113.092663,19.9875055 C112.862663,20.2775055 112.812663,20.6775055 112.962663,21.0175055 C113.112663,21.3675055 113.462663,21.5975055 113.842663,21.6075055 C114.182663,21.6175055 117.152663,21.8375055 117.252663,25.5075055 C117.332663,28.3675055 116.422663,30.0675055 115.822663,30.8675055 C115.722663,30.7875055 115.622663,30.7175055 115.512663,30.6475055 C110.742663,27.5775055 107.282663,31.1875055 106.142663,32.3775055 C105.092663,33.4775055 105.092663,33.4775055 103.752663,32.6675055 C103.092663,32.2675055 103.082663,31.9075055 103.692663,29.6875055 C103.792663,29.3275055 103.892663,28.9475055 104.002663,28.5375055 C104.532663,26.4475055 104.212663,23.7875055 102.312663,22.5575055 C100.792663,21.5775055 99.2426629,20.9475055 95.8426629,19.5575055 L95.2926629,19.3275055 C94.9726629,19.1975055 94.6626629,19.0675055 94.3526629,18.9375055 C94.2826629,18.9075055 94.2126629,18.8775055 94.1426629,18.8475055 C93.8526629,18.7275055 93.5726629,18.5975055 93.3026629,18.4875055 C93.2426629,18.4575055 93.1926629,18.4375055 93.1326629,18.4075055 C92.8926629,18.3075055 92.6626629,18.1975055 92.4426629,18.0975055 C92.3926629,18.0775055 92.3326629,18.0475055 92.2826629,18.0275055 C92.0326629,17.9175055 91.8026629,17.8075055 91.5826629,17.7075055 C91.5226629,17.6775055 91.4626629,17.6475055 91.4026629,17.6275055 C91.1926629,17.5275055 91.0026629,17.4375055 90.8226629,17.3475055 C90.7926629,17.3275055 90.7526629,17.3175055 90.7226629,17.2975055 C90.5426629,17.2175055 90.3826629,17.1375055 90.2226629,17.0575055 C90.1826629,17.0375055 90.1426629,17.0175055 90.1026629,16.9975055 C89.9426629,16.9175055 89.8026629,16.8475055 89.6726629,16.7875055 C89.6426629,16.7775055 89.6226629,16.7675055 89.6026629,16.7475055 C89.4826629,16.6875055 89.3826629,16.6375055 89.2926629,16.5975055 C89.2826629,16.5975055 89.2826629,16.5875055 89.2726629,16.5875055 C88.6926629,15.0975055 86.3926629,8.76750554 88.2726629,4.99750554 Z M86.1126629,38.5675055 C82.9926629,32.1175055 83.8626629,25.5775055 88.8026629,18.5875055 C88.8526629,18.6075055 88.9126629,18.6375055 88.9626629,18.6675055 C89.0326629,18.7075055 89.1126629,18.7375055 89.1926629,18.7775055 C89.2426629,18.8075055 89.3026629,18.8275055 89.3526629,18.8575055 C89.4626629,18.9075055 89.5726629,18.9575055 89.6826629,19.0175055 C89.7326629,19.0475055 89.7826629,19.0675055 89.8426629,19.0975055 C90.0226629,19.1775055 90.2026629,19.2675055 90.4026629,19.3675055 C90.4126629,19.3675055 90.4126629,19.3775055 90.4226629,19.3775055 C90.6126629,19.4675055 90.8226629,19.5575055 91.0326629,19.6575055 C91.0826629,19.6775055 91.1426629,19.7075055 91.1926629,19.7275055 C91.3826629,19.8175055 91.5826629,19.9075055 91.7826629,19.9975055 C91.8226629,20.0175055 91.8626629,20.0375055 91.9026629,20.0575055 C92.1426629,20.1675055 92.3926629,20.2775055 92.6526629,20.3875055 C92.7126629,20.4075055 92.7626629,20.4375055 92.8226629,20.4575055 C93.0326629,20.5475055 93.2426629,20.6375055 93.4626629,20.7275055 C93.5426629,20.7575055 93.6126629,20.7875055 93.6926629,20.8275055 C93.9726629,20.9475055 94.2526629,21.0575055 94.5426629,21.1775055 L95.0926629,21.4075055 C98.3726629,22.7475055 99.8726629,23.3575055 101.232663,24.2375055 C102.302663,24.9275055 102.412663,26.6975055 102.072663,28.0475055 C101.972663,28.4475055 101.872663,28.8175055 101.772663,29.1675055 C101.212663,31.2175055 100.682663,33.1475055 102.722663,34.3875055 C102.962663,34.5375055 103.192663,34.6675055 103.402663,34.7775055 C103.472663,34.8175055 103.532663,34.8375055 103.592663,34.8675055 C103.732663,34.9375055 103.882663,35.0175055 104.012663,35.0675055 C104.082663,35.0975055 104.152663,35.1175055 104.222663,35.1375055 C104.342663,35.1775055 104.452663,35.2175055 104.572663,35.2475055 C104.642663,35.2675055 104.722663,35.2675055 104.792663,35.2775055 C104.872663,35.2875055 104.962663,35.3075055 105.042663,35.3075055 C105.072663,35.3075055 105.102663,35.2975055 105.132663,35.2975055 C105.162663,35.2975055 105.182663,35.2975055 105.212663,35.2875055 C105.372663,35.2775055 105.522663,35.2375055 105.682663,35.1875055 C105.702663,35.1775055 105.732663,35.1675055 105.762663,35.1575055 C105.922663,35.0975055 106.092663,35.0175055 106.262663,34.9075055 C106.282663,34.8975055 106.312663,34.8775055 106.332663,34.8575055 C106.512663,34.7375055 106.692663,34.6075055 106.892663,34.4375055 C106.912663,34.4275055 106.932663,34.4075055 106.942663,34.3875055 C107.152663,34.2075055 107.362663,33.9975055 107.602663,33.7575055 C109.402663,31.8775055 111.472663,30.4075055 114.442663,32.3175055 C114.612663,32.4275055 114.762663,32.5675055 114.922663,32.7275055 C114.992663,32.7975055 115.062663,32.8675055 115.132663,32.9475055 C115.882663,33.8375055 116.162663,35.1875055 115.912663,36.6475055 C115.572663,38.6075055 114.332663,40.4175055 112.752663,41.3475055 C111.942663,41.7375055 111.102663,42.0275055 110.402663,42.2375055 C110.062663,42.3175055 108.162663,42.5375055 106.212663,38.8775055 C105.952663,38.3875055 105.352663,38.2075055 104.862663,38.4675055 C104.372663,38.7275055 104.192663,39.3275055 104.452663,39.8175055 C105.492663,41.7775055 106.612663,42.8975055 107.622663,43.5175055 C106.502663,44.2575055 104.112663,45.4475055 100.042663,45.7375055 C93.5326629,46.2175055 88.5826629,43.6675055 86.1126629,38.5675055 Z M24.2926629,64.5675055 C21.9226629,56.4475055 17.1026629,36.4275055 17.0526629,36.2275055 C17.0426629,36.1775055 17.0226629,36.1275055 17.0026629,36.0775055 C15.7526629,33.0475055 14.0026629,30.6675055 9.54266288,28.8675055 C7.49266288,28.0475055 2.06266288,25.8575055 2.01266288,23.7075055 C1.97266288,21.7575055 2.86266288,20.8575055 2.88266288,20.8375055 C3.15266288,20.5875055 3.26266288,20.2175055 3.17266288,19.8575055 C3.09266288,19.5375055 2.85266288,19.2775055 2.55266288,19.1575055 C2.46266288,19.0775055 2.27266288,18.6875055 2.44266288,17.7375055 C2.73266288,16.1075055 3.93266288,15.5775055 3.96266288,15.5575055 C4.21266288,15.4575055 4.41266288,15.2475055 4.51266288,14.9975055 C4.61266288,14.7475055 4.61266288,14.4575055 4.50266288,14.2075055 C4.50266288,14.1975055 4.24266288,13.6175055 4.37266288,12.9175055 C4.52266288,12.1175055 4.71266288,11.1075055 7.39266288,11.1975055 C10.0226629,11.2775055 12.7826629,12.1075055 14.9926629,12.7775055 C15.4926629,12.9275055 15.9726629,13.0775055 16.3926629,13.1975055 C18.7926629,13.8775055 19.8526629,13.7075055 20.0426629,13.6675055 C20.3526629,13.6075055 20.6026629,13.3975055 20.7426629,13.1175055 C20.8726629,12.8375055 20.8626629,12.5075055 20.7226629,12.2275055 C20.6726629,12.1375055 19.6026629,10.1075055 18.9226629,9.16750554 C18.6726629,8.81750554 18.2126629,6.99750554 18.6726629,5.96750554 C18.8326629,5.61750554 19.0526629,5.46750554 19.4426629,5.42750554 C21.3126629,5.26750554 23.8526629,9.91750554 25.5226629,13.0075055 L25.8826629,13.6575055 C27.9526629,17.4675055 31.6926629,28.2175055 31.7426629,28.3575055 L37.1826629,42.5875055 C39.7826629,49.3775055 46.7626629,57.8975055 52.8826629,59.8275055 C53.2326629,62.4275055 54.0626629,69.1675055 54.1326629,74.3575055 C54.2026629,79.2575055 52.7526629,85.9475055 52.0426629,88.9575055 C50.9926629,88.8075055 48.8426629,88.4575055 44.9726629,87.5975055 C35.7126629,85.5275055 26.6826629,72.7875055 24.2926629,64.5675055 Z M126.852663,86.2875055 C126.392663,85.9875055 125.772663,86.1275055 125.472663,86.5875055 C125.172663,87.0475055 125.312663,87.6675055 125.772663,87.9675055 C127.142663,88.8475055 128.582663,89.5875055 130.012663,90.1975055 C129.852663,90.4175055 129.772663,90.6875055 129.822663,90.9775055 L136.792663,127.337506 L134.872663,127.337506 C134.862663,127.337506 134.862663,127.337506 134.852663,127.337506 C134.852663,127.337506 134.842663,127.337506 134.842663,127.337506 L64.6626629,127.407506 L71.7726629,87.5975055 C71.8226629,87.3075055 71.7426629,87.0375055 71.5726629,86.8175055 C73.3826629,85.8775055 74.6326629,85.1375055 74.7526629,85.0675055 C75.2226629,84.7875055 75.3826629,84.1675055 75.0926629,83.6975055 C74.8126629,83.2275055 74.1926629,83.0675055 73.7226629,83.3575055 C73.6526629,83.3975055 66.8626629,87.4475055 61.5326629,88.7175055 C58.0726629,89.5375055 55.3726629,89.7475055 53.9126629,89.7975055 C54.6126629,86.9175055 56.2126629,79.7275055 56.1426629,74.3375055 C56.0726629,68.8775055 55.1726629,61.7775055 54.8426629,59.3175055 C56.1926629,58.9275055 59.0026629,58.0375055 62.7226629,56.3375055 C65.2126629,55.2075055 67.8226629,53.6275055 70.3526629,52.1075055 C73.2226629,50.3775055 75.9426629,48.7475055 78.4326629,47.7275055 C82.0326629,46.2575055 88.4826629,45.6775055 89.8726629,45.5675055 C92.3226629,47.0275055 95.2726629,47.7975055 98.5926629,47.7975055 C99.1126629,47.7975055 99.6426629,47.7775055 100.172663,47.7375055 C103.522663,47.4975055 105.882663,46.6875055 107.442663,45.9175055 C108.582663,46.1075055 113.102663,47.0375055 118.782663,50.4275055 C124.882663,54.0675055 129.642663,56.7675055 133.772663,58.9475055 C136.112663,60.1775055 137.692663,60.8975055 138.532663,61.2575055 C138.402663,63.2475055 138.172663,69.0475055 139.042663,77.3475055 C139.782663,84.4775055 140.372663,89.0375055 140.652663,91.1175055 C138.042663,90.7275055 131.882663,89.5175055 126.852663,86.2875055 Z M184.122663,30.6975055 C179.662663,32.4875055 177.912663,34.8775055 176.662663,37.9075055 C176.642663,37.9575055 176.622663,38.0075055 176.612663,38.0575055 C176.562663,38.2575055 171.742663,58.2775055 169.372663,66.3975055 C166.972663,74.6175055 157.942663,87.3575055 148.682663,89.4275055 C145.372663,90.1575055 143.562663,90.4975055 142.602663,90.6575055 C142.312663,88.5175055 141.742663,84.0375055 141.032663,77.1475055 C140.242663,69.4975055 140.402663,63.9375055 140.512663,61.7475055 C146.702663,59.9775055 153.832663,51.3075055 156.472663,44.4275055 L161.932663,30.1675055 C161.972663,30.0575055 165.712663,19.3175055 167.782663,15.4975055 L168.142663,14.8475055 C169.812663,11.7575055 172.352663,7.12750554 174.222663,7.26750554 C174.612663,7.30750554 174.832663,7.45750554 174.992663,7.80750554 C175.462663,8.83750554 175.002663,10.6575055 174.742663,11.0075055 C174.062663,11.9475055 172.982663,13.9875055 172.942663,14.0675055 C172.792663,14.3475055 172.792663,14.6775055 172.922663,14.9575055 C173.052663,15.2375055 173.312663,15.4475055 173.622663,15.5075055 C173.812663,15.5475055 174.872663,15.7175055 177.272663,15.0375055 C177.702663,14.9175055 178.172663,14.7775055 178.672663,14.6175055 C180.892663,13.9475055 183.652663,13.1075055 186.272663,13.0275055 C188.942663,12.9475055 189.132663,13.9475055 189.292663,14.7475055 C189.422663,15.4375055 189.172663,16.0275055 189.172663,16.0275055 C189.052663,16.2775055 189.052663,16.5575055 189.152663,16.8075055 C189.252663,17.0575055 189.452663,17.2675055 189.702663,17.3775055 C189.752663,17.3975055 190.952663,17.9375055 191.242663,19.5575055 C191.412663,20.5075055 191.222663,20.8975055 191.132663,20.9775055 C190.832663,21.0875055 190.602663,21.3475055 190.522663,21.6675055 C190.432663,22.0175055 190.532663,22.3875055 190.792663,22.6475055 C190.832663,22.6875055 191.712663,23.5775055 191.672663,25.5275055 C191.612663,27.6875055 186.172663,29.8675055 184.122663,30.6975055 Z" id="Shape"></path>
                    <path d="M180.352663,20.5175055 C180.372663,20.5075055 181.942663,19.3275055 184.002663,18.5475055 C186.002663,17.7875055 187.582663,17.7775055 187.612663,17.7875055 C188.162663,17.7575055 188.622663,17.3575055 188.622663,16.7975055 C188.622663,16.2375055 188.192663,15.7874701 187.632663,15.7874701 C187.552663,15.7874701 185.672663,15.7675055 183.292663,16.6775055 C180.942663,17.5675055 179.212663,18.8775055 179.132663,18.9275055 C178.692663,19.2575055 178.612663,19.8875055 178.942663,20.3275055 C179.142663,20.5875055 179.442663,20.7275055 179.742663,20.7275055 C179.962663,20.7175055 180.172663,20.6475055 180.352663,20.5175055 Z" id="Path"></path>
                    <path d="M188.582663,20.4674693 C188.502663,20.4674693 186.622663,20.4475055 184.232663,21.3475055 C181.882663,22.2375055 180.152663,23.5475055 180.072663,23.5975055 C179.632663,23.9275055 179.552663,24.5575055 179.882663,24.9975055 C180.082663,25.2575055 180.372663,25.3875055 180.682663,25.3875055 C180.892663,25.3875055 181.102663,25.3175055 181.292663,25.1875055 C181.312663,25.1775055 182.862663,23.9975055 184.942663,23.2175055 C186.952663,22.4575055 188.552663,22.4475055 188.552663,22.4575055 C189.092663,22.4575055 189.562663,22.0275055 189.562663,21.4675055 C189.582663,20.9375055 189.142663,20.4775055 188.582663,20.4674693 Z" id="Path"></path>
                </g>
            </g>
        </g>
    </g>
</svg>