<?xml version="1.0" encoding="UTF-8"?>
<svg width="50px" height="50px" viewBox="0 0 50 50" version="1.1" xmlns="http://www.w3.org/2000/svg" xmlns:xlink="http://www.w3.org/1999/xlink">
    <!-- Generator: Sketch 63.1 (92452) - https://sketch.com -->
    <title>diamond</title>
    <desc>Created with Sketch.</desc>
    <g id="diamond" stroke="none" stroke-width="1" fill="none" fill-rule="evenodd">
        <path d="M22.7307054,1.74993811 C22.5130954,1.92122751 22.3165841,2.11773881 22.1452947,2.33534876 L4.7497967,24.434985 C3.70314402,25.7646763 3.75770242,27.6527448 4.87939115,28.9197789 L22.2748892,48.569338 C23.5561874,50.0166633 25.7681739,50.1512549 27.2154993,48.8699567 C27.3217045,48.7759346 27.4220959,48.6755432 27.516118,48.569338 L44.9116161,28.9197789 C46.0333048,27.6527448 46.0878632,25.7646763 45.0412105,24.434985 L27.6457125,2.33534876 C26.4913545,0.868826156 24.4001691,0.573923159 22.8901951,1.63144848 L22.7307054,1.74993811 Z M25.2883906,4.19089007 L42.6838886,26.2905263 C42.8334104,26.4804822 42.8256164,26.7502063 42.6653751,26.9312111 L25.2698771,46.5807702 C25.2564454,46.5959424 25.2421037,46.610284 25.2269316,46.6237157 C25.0201708,46.8067584 24.7041727,46.787531 24.5211301,46.5807702 L7.12563207,26.9312111 C6.96539082,26.7502063 6.95759677,26.4804822 7.10711858,26.2905263 L24.5026166,4.19089007 C24.5270865,4.15980294 24.5551596,4.1317299 24.5862467,4.10725998 C24.8032322,3.93646212 25.1175927,3.97390459 25.2883906,4.19089007 Z" id="Path" fill="#324056" fill-rule="nonzero"></path>
    </g>
</svg>