<svg width="16" height="16" viewBox="0 0 16 16" xmlns="http://www.w3.org/2000/svg">
    <defs>
        <clipPath id="4mrpyj88ta">
            <path d="M1440 0v1024H0V0h1440z"/>
        </clipPath>
        <clipPath id="5w7fov3b4b">
            <path d="M6.667 0a6.67 6.67 0 0 1 6.666 6.667 6.67 6.67 0 0 1-6.666 6.666A6.67 6.67 0 0 1 0 6.667 6.67 6.67 0 0 1 6.667 0zm3.726 3.053-5.06 5.06L2.94 5.727l-.94.94L5.333 10l6-6-.94-.947z"/>
        </clipPath>
        <clipPath id="p1epre6uec">
            <path d="M33.333 0v33.333H0V0h33.333z"/>
        </clipPath>
    </defs>
    <g clip-path="url(#4mrpyj88ta)" transform="translate(-791 -345)">
        <g clip-path="url(#5w7fov3b4b)" transform="translate(792.333 346.333)">
            <g clip-path="url(#p1epre6uec)" transform="translate(-10 -10)">
                <path fill="#313F55" d="M10 10h13.333v13.333H10V10z"/>
            </g>
        </g>
    </g>
</svg>
