<svg xmlns="http://www.w3.org/2000/svg" width="620" height="290" viewBox="0 0 620 290">
  <g fill="none" fill-rule="evenodd">
    <rect width="620" height="4.932" y="15.782" fill="#99B3C6" rx="2.466"/>
    <g transform="translate(58.282)">
      <path fill="#F88030" d="M37.115596,-2.10262646e-14 L37.115596,36.4334737 L5.86035726,36.4334737 C2.62377132,36.4334737 3.56998781e-14,28.2775628 3.56998781e-14,18.2167369 C3.56998781e-14,8.1559109 2.62377132,-2.10262646e-14 5.86035726,-2.10262646e-14 L5.86035726,-2.10262646e-14 L37.115596,-2.10262646e-14 Z"/>
      <path fill="#FFCE48" d="M37.1150946,1.59711985 L37.1150946,14.3811199 L0.130130494,14.3811632 C0.52429429,8.66377727 1.78156862,3.94172331 3.45740395,1.5968696 L37.1150946,1.59711985 Z"/>
      <path stroke="#BD5B18" stroke-linecap="round" stroke-width="1.62" d="M19.4559601,35.635489 C17.5580331,32.3225624 16.6090696,26.8764747 16.6090696,19.2972256 C16.6090696,11.7179765 17.4339357,5.55217635 19.0836677,0.79982504"/>
      <ellipse cx="37.116" cy="18.217" fill="#E27023" rx="5.86" ry="18.217"/>
      <path fill="#99B3C6" d="M40.4356567,15.7823129 L45.3192875,15.7823129 L45.3192875,20.7142857 L40.4356567,20.7142857 C38.2651541,20.7142857 37.1799028,19.8922902 37.1799028,18.2482993 C37.1799028,16.6043084 38.2651541,15.7823129 40.4356567,15.7823129 Z"/>
    </g>
    <g transform="translate(159.773)">
      <path fill="#F88030" d="M37.115596,-2.10262646e-14 L37.115596,36.4334737 L5.86035726,36.4334737 C2.62377132,36.4334737 3.56998781e-14,28.2775628 3.56998781e-14,18.2167369 C3.56998781e-14,8.1559109 2.62377132,-2.10262646e-14 5.86035726,-2.10262646e-14 L5.86035726,-2.10262646e-14 L37.115596,-2.10262646e-14 Z"/>
      <path fill="#FFCE48" d="M37.1150946,1.59711985 L37.1150946,14.3811199 L0.130130494,14.3811632 C0.52429429,8.66377727 1.78156862,3.94172331 3.45740395,1.5968696 L37.1150946,1.59711985 Z"/>
      <path stroke="#BD5B18" stroke-linecap="round" stroke-width="1.62" d="M19.4559601,35.635489 C17.5580331,32.3225624 16.6090696,26.8764747 16.6090696,19.2972256 C16.6090696,11.7179765 17.4339357,5.55217635 19.0836677,0.79982504"/>
      <ellipse cx="37.116" cy="18.217" fill="#E27023" rx="5.86" ry="18.217"/>
      <path fill="#99B3C6" d="M40.4356567,15.7823129 L45.3192875,15.7823129 L45.3192875,20.7142857 L40.4356567,20.7142857 C38.2651541,20.7142857 37.1799028,19.8922902 37.1799028,18.2482993 C37.1799028,16.6043084 38.2651541,15.7823129 40.4356567,15.7823129 Z"/>
    </g>
    <g transform="translate(361.75)">
      <path fill="#F88030" d="M37.115596,-2.10262646e-14 L37.115596,36.4334737 L5.86035726,36.4334737 C2.62377132,36.4334737 3.56998781e-14,28.2775628 3.56998781e-14,18.2167369 C3.56998781e-14,8.1559109 2.62377132,-2.10262646e-14 5.86035726,-2.10262646e-14 L5.86035726,-2.10262646e-14 L37.115596,-2.10262646e-14 Z"/>
      <path fill="#FFCE48" d="M37.1150946,1.59711985 L37.1150946,14.3811199 L0.130130494,14.3811632 C0.52429429,8.66377727 1.78156862,3.94172331 3.45740395,1.5968696 L37.1150946,1.59711985 Z"/>
      <path stroke="#BD5B18" stroke-linecap="round" stroke-width="1.62" d="M19.4559601,35.635489 C17.5580331,32.3225624 16.6090696,26.8764747 16.6090696,19.2972256 C16.6090696,11.7179765 17.4339357,5.55217635 19.0836677,0.79982504"/>
      <ellipse cx="37.116" cy="18.217" fill="#E27023" rx="5.86" ry="18.217"/>
      <path fill="#99B3C6" d="M40.4356567,15.7823129 L45.3192875,15.7823129 L45.3192875,20.7142857 L40.4356567,20.7142857 C38.2651541,20.7142857 37.1799028,19.8922902 37.1799028,18.2482993 C37.1799028,16.6043084 38.2651541,15.7823129 40.4356567,15.7823129 Z"/>
    </g>
    <g transform="translate(261.264)">
      <path fill="#F88030" d="M37.115596,-2.10262646e-14 L37.115596,36.4334737 L5.86035726,36.4334737 C2.62377132,36.4334737 3.56998781e-14,28.2775628 3.56998781e-14,18.2167369 C3.56998781e-14,8.1559109 2.62377132,-2.10262646e-14 5.86035726,-2.10262646e-14 L5.86035726,-2.10262646e-14 L37.115596,-2.10262646e-14 Z"/>
      <path fill="#FFCE48" d="M37.1150946,1.59711985 L37.1150946,14.3811199 L0.130130494,14.3811632 C0.52429429,8.66377727 1.78156862,3.94172331 3.45740395,1.5968696 L37.1150946,1.59711985 Z"/>
      <path stroke="#BD5B18" stroke-linecap="round" stroke-width="1.62" d="M19.4559601,35.635489 C17.5580331,32.3225624 16.6090696,26.8764747 16.6090696,19.2972256 C16.6090696,11.7179765 17.4339357,5.55217635 19.0836677,0.79982504"/>
      <ellipse cx="37.116" cy="18.217" fill="#E27023" rx="5.86" ry="18.217"/>
      <path fill="#99B3C6" d="M40.4356567,15.7823129 L45.3192875,15.7823129 L45.3192875,20.7142857 L40.4356567,20.7142857 C38.2651541,20.7142857 37.1799028,19.8922902 37.1799028,18.2482993 C37.1799028,16.6043084 38.2651541,15.7823129 40.4356567,15.7823129 Z"/>
    </g>
    <g transform="translate(463.241)">
      <path fill="#F88030" d="M37.115596,-2.10262646e-14 L37.115596,36.4334737 L5.86035726,36.4334737 C2.62377132,36.4334737 3.56998781e-14,28.2775628 3.56998781e-14,18.2167369 C3.56998781e-14,8.1559109 2.62377132,-2.10262646e-14 5.86035726,-2.10262646e-14 L5.86035726,-2.10262646e-14 L37.115596,-2.10262646e-14 Z"/>
      <path fill="#FFCE48" d="M37.1150946,1.59711985 L37.1150946,14.3811199 L0.130130494,14.3811632 C0.52429429,8.66377727 1.78156862,3.94172331 3.45740395,1.5968696 L37.1150946,1.59711985 Z"/>
      <path stroke="#BD5B18" stroke-linecap="round" stroke-width="1.62" d="M19.4559601,35.635489 C17.5580331,32.3225624 16.6090696,26.8764747 16.6090696,19.2972256 C16.6090696,11.7179765 17.4339357,5.55217635 19.0836677,0.79982504"/>
      <ellipse cx="37.116" cy="18.217" fill="#E27023" rx="5.86" ry="18.217"/>
      <path fill="#99B3C6" d="M40.4356567,15.7823129 L45.3192875,15.7823129 L45.3192875,20.7142857 L40.4356567,20.7142857 C38.2651541,20.7142857 37.1799028,19.8922902 37.1799028,18.2482993 C37.1799028,16.6043084 38.2651541,15.7823129 40.4356567,15.7823129 Z"/>
    </g>
    <g transform="translate(0 253)">
      <rect width="514" height="4.932" y="15.782" fill="#99B3C6" rx="2.466"/>
      <g transform="translate(58.282)">
        <path fill="#F88030" d="M37.115596,-2.10262646e-14 L37.115596,36.4334737 L5.86035726,36.4334737 C2.62377132,36.4334737 3.56998781e-14,28.2775628 3.56998781e-14,18.2167369 C3.56998781e-14,8.1559109 2.62377132,-2.10262646e-14 5.86035726,-2.10262646e-14 L5.86035726,-2.10262646e-14 L37.115596,-2.10262646e-14 Z"/>
        <path fill="#FFCE48" d="M37.1150946,1.59711985 L37.1150946,14.3811199 L0.130130494,14.3811632 C0.52429429,8.66377727 1.78156862,3.94172331 3.45740395,1.5968696 L37.1150946,1.59711985 Z"/>
        <path stroke="#BD5B18" stroke-linecap="round" stroke-width="1.62" d="M19.4559601,35.635489 C17.5580331,32.3225624 16.6090696,26.8764747 16.6090696,19.2972256 C16.6090696,11.7179765 17.4339357,5.55217635 19.0836677,0.79982504"/>
        <ellipse cx="37.116" cy="18.217" fill="#E27023" rx="5.86" ry="18.217"/>
        <path fill="#99B3C6" d="M40.4356567,15.7823129 L45.3192875,15.7823129 L45.3192875,20.7142857 L40.4356567,20.7142857 C38.2651541,20.7142857 37.1799028,19.8922902 37.1799028,18.2482993 C37.1799028,16.6043084 38.2651541,15.7823129 40.4356567,15.7823129 Z"/>
      </g>
      <g transform="translate(159.773)">
        <path fill="#F88030" d="M37.115596,-2.10262646e-14 L37.115596,36.4334737 L5.86035726,36.4334737 C2.62377132,36.4334737 3.56998781e-14,28.2775628 3.56998781e-14,18.2167369 C3.56998781e-14,8.1559109 2.62377132,-2.10262646e-14 5.86035726,-2.10262646e-14 L5.86035726,-2.10262646e-14 L37.115596,-2.10262646e-14 Z"/>
        <path fill="#FFCE48" d="M37.1150946,1.59711985 L37.1150946,14.3811199 L0.130130494,14.3811632 C0.52429429,8.66377727 1.78156862,3.94172331 3.45740395,1.5968696 L37.1150946,1.59711985 Z"/>
        <path stroke="#BD5B18" stroke-linecap="round" stroke-width="1.62" d="M19.4559601,35.635489 C17.5580331,32.3225624 16.6090696,26.8764747 16.6090696,19.2972256 C16.6090696,11.7179765 17.4339357,5.55217635 19.0836677,0.79982504"/>
        <ellipse cx="37.116" cy="18.217" fill="#E27023" rx="5.86" ry="18.217"/>
        <path fill="#99B3C6" d="M40.4356567,15.7823129 L45.3192875,15.7823129 L45.3192875,20.7142857 L40.4356567,20.7142857 C38.2651541,20.7142857 37.1799028,19.8922902 37.1799028,18.2482993 C37.1799028,16.6043084 38.2651541,15.7823129 40.4356567,15.7823129 Z"/>
      </g>
      <g transform="translate(361.75)">
        <path fill="#F88030" d="M37.115596,-2.10262646e-14 L37.115596,36.4334737 L5.86035726,36.4334737 C2.62377132,36.4334737 3.56998781e-14,28.2775628 3.56998781e-14,18.2167369 C3.56998781e-14,8.1559109 2.62377132,-2.10262646e-14 5.86035726,-2.10262646e-14 L5.86035726,-2.10262646e-14 L37.115596,-2.10262646e-14 Z"/>
        <path fill="#FFCE48" d="M37.1150946,1.59711985 L37.1150946,14.3811199 L0.130130494,14.3811632 C0.52429429,8.66377727 1.78156862,3.94172331 3.45740395,1.5968696 L37.1150946,1.59711985 Z"/>
        <path stroke="#BD5B18" stroke-linecap="round" stroke-width="1.62" d="M19.4559601,35.635489 C17.5580331,32.3225624 16.6090696,26.8764747 16.6090696,19.2972256 C16.6090696,11.7179765 17.4339357,5.55217635 19.0836677,0.79982504"/>
        <ellipse cx="37.116" cy="18.217" fill="#E27023" rx="5.86" ry="18.217"/>
        <path fill="#99B3C6" d="M40.4356567,15.7823129 L45.3192875,15.7823129 L45.3192875,20.7142857 L40.4356567,20.7142857 C38.2651541,20.7142857 37.1799028,19.8922902 37.1799028,18.2482993 C37.1799028,16.6043084 38.2651541,15.7823129 40.4356567,15.7823129 Z"/>
      </g>
      <g transform="translate(261.264)">
        <path fill="#F88030" d="M37.115596,-2.10262646e-14 L37.115596,36.4334737 L5.86035726,36.4334737 C2.62377132,36.4334737 3.56998781e-14,28.2775628 3.56998781e-14,18.2167369 C3.56998781e-14,8.1559109 2.62377132,-2.10262646e-14 5.86035726,-2.10262646e-14 L5.86035726,-2.10262646e-14 L37.115596,-2.10262646e-14 Z"/>
        <path fill="#FFCE48" d="M37.1150946,1.59711985 L37.1150946,14.3811199 L0.130130494,14.3811632 C0.52429429,8.66377727 1.78156862,3.94172331 3.45740395,1.5968696 L37.1150946,1.59711985 Z"/>
        <path stroke="#BD5B18" stroke-linecap="round" stroke-width="1.62" d="M19.4559601,35.635489 C17.5580331,32.3225624 16.6090696,26.8764747 16.6090696,19.2972256 C16.6090696,11.7179765 17.4339357,5.55217635 19.0836677,0.79982504"/>
        <ellipse cx="37.116" cy="18.217" fill="#E27023" rx="5.86" ry="18.217"/>
        <path fill="#99B3C6" d="M40.4356567,15.7823129 L45.3192875,15.7823129 L45.3192875,20.7142857 L40.4356567,20.7142857 C38.2651541,20.7142857 37.1799028,19.8922902 37.1799028,18.2482993 C37.1799028,16.6043084 38.2651541,15.7823129 40.4356567,15.7823129 Z"/>
      </g>
      <g transform="translate(463.241)">
        <path fill="#F88030" d="M37.115596,-2.10262646e-14 L37.115596,36.4334737 L5.86035726,36.4334737 C2.62377132,36.4334737 3.56998781e-14,28.2775628 3.56998781e-14,18.2167369 C3.56998781e-14,8.1559109 2.62377132,-2.10262646e-14 5.86035726,-2.10262646e-14 L5.86035726,-2.10262646e-14 L37.115596,-2.10262646e-14 Z"/>
        <path fill="#FFCE48" d="M37.1150946,1.59711985 L37.1150946,14.3811199 L0.130130494,14.3811632 C0.52429429,8.66377727 1.78156862,3.94172331 3.45740395,1.5968696 L37.1150946,1.59711985 Z"/>
        <path stroke="#BD5B18" stroke-linecap="round" stroke-width="1.62" d="M19.4559601,35.635489 C17.5580331,32.3225624 16.6090696,26.8764747 16.6090696,19.2972256 C16.6090696,11.7179765 17.4339357,5.55217635 19.0836677,0.79982504"/>
        <ellipse cx="37.116" cy="18.217" fill="#E27023" rx="5.86" ry="18.217"/>
        <path fill="#99B3C6" d="M40.4356567,15.7823129 L45.3192875,15.7823129 L45.3192875,20.7142857 L40.4356567,20.7142857 C38.2651541,20.7142857 37.1799028,19.8922902 37.1799028,18.2482993 C37.1799028,16.6043084 38.2651541,15.7823129 40.4356567,15.7823129 Z"/>
      </g>
    </g>
    <g transform="translate(0 202)">
      <rect width="514" height="4.932" y="15.782" fill="#99B3C6" rx="2.466"/>
      <g transform="translate(58.282)">
        <path fill="#F88030" d="M37.115596,-2.10262646e-14 L37.115596,36.4334737 L5.86035726,36.4334737 C2.62377132,36.4334737 3.56998781e-14,28.2775628 3.56998781e-14,18.2167369 C3.56998781e-14,8.1559109 2.62377132,-2.10262646e-14 5.86035726,-2.10262646e-14 L5.86035726,-2.10262646e-14 L37.115596,-2.10262646e-14 Z"/>
        <path fill="#FFCE48" d="M37.1150946,1.59711985 L37.1150946,14.3811199 L0.130130494,14.3811632 C0.52429429,8.66377727 1.78156862,3.94172331 3.45740395,1.5968696 L37.1150946,1.59711985 Z"/>
        <path stroke="#BD5B18" stroke-linecap="round" stroke-width="1.62" d="M19.4559601,35.635489 C17.5580331,32.3225624 16.6090696,26.8764747 16.6090696,19.2972256 C16.6090696,11.7179765 17.4339357,5.55217635 19.0836677,0.79982504"/>
        <ellipse cx="37.116" cy="18.217" fill="#E27023" rx="5.86" ry="18.217"/>
        <path fill="#99B3C6" d="M40.4356567,15.7823129 L45.3192875,15.7823129 L45.3192875,20.7142857 L40.4356567,20.7142857 C38.2651541,20.7142857 37.1799028,19.8922902 37.1799028,18.2482993 C37.1799028,16.6043084 38.2651541,15.7823129 40.4356567,15.7823129 Z"/>
      </g>
      <g transform="translate(159.773)">
        <path fill="#F88030" d="M37.115596,-2.10262646e-14 L37.115596,36.4334737 L5.86035726,36.4334737 C2.62377132,36.4334737 3.56998781e-14,28.2775628 3.56998781e-14,18.2167369 C3.56998781e-14,8.1559109 2.62377132,-2.10262646e-14 5.86035726,-2.10262646e-14 L5.86035726,-2.10262646e-14 L37.115596,-2.10262646e-14 Z"/>
        <path fill="#FFCE48" d="M37.1150946,1.59711985 L37.1150946,14.3811199 L0.130130494,14.3811632 C0.52429429,8.66377727 1.78156862,3.94172331 3.45740395,1.5968696 L37.1150946,1.59711985 Z"/>
        <path stroke="#BD5B18" stroke-linecap="round" stroke-width="1.62" d="M19.4559601,35.635489 C17.5580331,32.3225624 16.6090696,26.8764747 16.6090696,19.2972256 C16.6090696,11.7179765 17.4339357,5.55217635 19.0836677,0.79982504"/>
        <ellipse cx="37.116" cy="18.217" fill="#E27023" rx="5.86" ry="18.217"/>
        <path fill="#99B3C6" d="M40.4356567,15.7823129 L45.3192875,15.7823129 L45.3192875,20.7142857 L40.4356567,20.7142857 C38.2651541,20.7142857 37.1799028,19.8922902 37.1799028,18.2482993 C37.1799028,16.6043084 38.2651541,15.7823129 40.4356567,15.7823129 Z"/>
      </g>
      <g transform="translate(361.75)">
        <path fill="#F88030" d="M37.115596,-2.10262646e-14 L37.115596,36.4334737 L5.86035726,36.4334737 C2.62377132,36.4334737 3.56998781e-14,28.2775628 3.56998781e-14,18.2167369 C3.56998781e-14,8.1559109 2.62377132,-2.10262646e-14 5.86035726,-2.10262646e-14 L5.86035726,-2.10262646e-14 L37.115596,-2.10262646e-14 Z"/>
        <path fill="#FFCE48" d="M37.1150946,1.59711985 L37.1150946,14.3811199 L0.130130494,14.3811632 C0.52429429,8.66377727 1.78156862,3.94172331 3.45740395,1.5968696 L37.1150946,1.59711985 Z"/>
        <path stroke="#BD5B18" stroke-linecap="round" stroke-width="1.62" d="M19.4559601,35.635489 C17.5580331,32.3225624 16.6090696,26.8764747 16.6090696,19.2972256 C16.6090696,11.7179765 17.4339357,5.55217635 19.0836677,0.79982504"/>
        <ellipse cx="37.116" cy="18.217" fill="#E27023" rx="5.86" ry="18.217"/>
        <path fill="#99B3C6" d="M40.4356567,15.7823129 L45.3192875,15.7823129 L45.3192875,20.7142857 L40.4356567,20.7142857 C38.2651541,20.7142857 37.1799028,19.8922902 37.1799028,18.2482993 C37.1799028,16.6043084 38.2651541,15.7823129 40.4356567,15.7823129 Z"/>
      </g>
      <g transform="translate(261.264)">
        <path fill="#F88030" d="M37.115596,-2.10262646e-14 L37.115596,36.4334737 L5.86035726,36.4334737 C2.62377132,36.4334737 3.56998781e-14,28.2775628 3.56998781e-14,18.2167369 C3.56998781e-14,8.1559109 2.62377132,-2.10262646e-14 5.86035726,-2.10262646e-14 L5.86035726,-2.10262646e-14 L37.115596,-2.10262646e-14 Z"/>
        <path fill="#FFCE48" d="M37.1150946,1.59711985 L37.1150946,14.3811199 L0.130130494,14.3811632 C0.52429429,8.66377727 1.78156862,3.94172331 3.45740395,1.5968696 L37.1150946,1.59711985 Z"/>
        <path stroke="#BD5B18" stroke-linecap="round" stroke-width="1.62" d="M19.4559601,35.635489 C17.5580331,32.3225624 16.6090696,26.8764747 16.6090696,19.2972256 C16.6090696,11.7179765 17.4339357,5.55217635 19.0836677,0.79982504"/>
        <ellipse cx="37.116" cy="18.217" fill="#E27023" rx="5.86" ry="18.217"/>
        <path fill="#99B3C6" d="M40.4356567,15.7823129 L45.3192875,15.7823129 L45.3192875,20.7142857 L40.4356567,20.7142857 C38.2651541,20.7142857 37.1799028,19.8922902 37.1799028,18.2482993 C37.1799028,16.6043084 38.2651541,15.7823129 40.4356567,15.7823129 Z"/>
      </g>
      <g transform="translate(463.241)">
        <path fill="#F88030" d="M37.115596,-2.10262646e-14 L37.115596,36.4334737 L5.86035726,36.4334737 C2.62377132,36.4334737 3.56998781e-14,28.2775628 3.56998781e-14,18.2167369 C3.56998781e-14,8.1559109 2.62377132,-2.10262646e-14 5.86035726,-2.10262646e-14 L5.86035726,-2.10262646e-14 L37.115596,-2.10262646e-14 Z"/>
        <path fill="#FFCE48" d="M37.1150946,1.59711985 L37.1150946,14.3811199 L0.130130494,14.3811632 C0.52429429,8.66377727 1.78156862,3.94172331 3.45740395,1.5968696 L37.1150946,1.59711985 Z"/>
        <path stroke="#BD5B18" stroke-linecap="round" stroke-width="1.62" d="M19.4559601,35.635489 C17.5580331,32.3225624 16.6090696,26.8764747 16.6090696,19.2972256 C16.6090696,11.7179765 17.4339357,5.55217635 19.0836677,0.79982504"/>
        <ellipse cx="37.116" cy="18.217" fill="#E27023" rx="5.86" ry="18.217"/>
        <path fill="#99B3C6" d="M40.4356567,15.7823129 L45.3192875,15.7823129 L45.3192875,20.7142857 L40.4356567,20.7142857 C38.2651541,20.7142857 37.1799028,19.8922902 37.1799028,18.2482993 C37.1799028,16.6043084 38.2651541,15.7823129 40.4356567,15.7823129 Z"/>
      </g>
    </g>
    <g transform="translate(0 152)">
      <rect width="514" height="4.932" y="15.782" fill="#99B3C6" rx="2.466"/>
      <g transform="translate(58.282)">
        <path fill="#F88030" d="M37.115596,-2.10262646e-14 L37.115596,36.4334737 L5.86035726,36.4334737 C2.62377132,36.4334737 3.56998781e-14,28.2775628 3.56998781e-14,18.2167369 C3.56998781e-14,8.1559109 2.62377132,-2.10262646e-14 5.86035726,-2.10262646e-14 L5.86035726,-2.10262646e-14 L37.115596,-2.10262646e-14 Z"/>
        <path fill="#FFCE48" d="M37.1150946,1.59711985 L37.1150946,14.3811199 L0.130130494,14.3811632 C0.52429429,8.66377727 1.78156862,3.94172331 3.45740395,1.5968696 L37.1150946,1.59711985 Z"/>
        <path stroke="#BD5B18" stroke-linecap="round" stroke-width="1.62" d="M19.4559601,35.635489 C17.5580331,32.3225624 16.6090696,26.8764747 16.6090696,19.2972256 C16.6090696,11.7179765 17.4339357,5.55217635 19.0836677,0.79982504"/>
        <ellipse cx="37.116" cy="18.217" fill="#E27023" rx="5.86" ry="18.217"/>
        <path fill="#99B3C6" d="M40.4356567,15.7823129 L45.3192875,15.7823129 L45.3192875,20.7142857 L40.4356567,20.7142857 C38.2651541,20.7142857 37.1799028,19.8922902 37.1799028,18.2482993 C37.1799028,16.6043084 38.2651541,15.7823129 40.4356567,15.7823129 Z"/>
      </g>
      <g transform="translate(159.773)">
        <path fill="#F88030" d="M37.115596,-2.10262646e-14 L37.115596,36.4334737 L5.86035726,36.4334737 C2.62377132,36.4334737 3.56998781e-14,28.2775628 3.56998781e-14,18.2167369 C3.56998781e-14,8.1559109 2.62377132,-2.10262646e-14 5.86035726,-2.10262646e-14 L5.86035726,-2.10262646e-14 L37.115596,-2.10262646e-14 Z"/>
        <path fill="#FFCE48" d="M37.1150946,1.59711985 L37.1150946,14.3811199 L0.130130494,14.3811632 C0.52429429,8.66377727 1.78156862,3.94172331 3.45740395,1.5968696 L37.1150946,1.59711985 Z"/>
        <path stroke="#BD5B18" stroke-linecap="round" stroke-width="1.62" d="M19.4559601,35.635489 C17.5580331,32.3225624 16.6090696,26.8764747 16.6090696,19.2972256 C16.6090696,11.7179765 17.4339357,5.55217635 19.0836677,0.79982504"/>
        <ellipse cx="37.116" cy="18.217" fill="#E27023" rx="5.86" ry="18.217"/>
        <path fill="#99B3C6" d="M40.4356567,15.7823129 L45.3192875,15.7823129 L45.3192875,20.7142857 L40.4356567,20.7142857 C38.2651541,20.7142857 37.1799028,19.8922902 37.1799028,18.2482993 C37.1799028,16.6043084 38.2651541,15.7823129 40.4356567,15.7823129 Z"/>
      </g>
      <g transform="translate(361.75)">
        <path fill="#F88030" d="M37.115596,-2.10262646e-14 L37.115596,36.4334737 L5.86035726,36.4334737 C2.62377132,36.4334737 3.56998781e-14,28.2775628 3.56998781e-14,18.2167369 C3.56998781e-14,8.1559109 2.62377132,-2.10262646e-14 5.86035726,-2.10262646e-14 L5.86035726,-2.10262646e-14 L37.115596,-2.10262646e-14 Z"/>
        <path fill="#FFCE48" d="M37.1150946,1.59711985 L37.1150946,14.3811199 L0.130130494,14.3811632 C0.52429429,8.66377727 1.78156862,3.94172331 3.45740395,1.5968696 L37.1150946,1.59711985 Z"/>
        <path stroke="#BD5B18" stroke-linecap="round" stroke-width="1.62" d="M19.4559601,35.635489 C17.5580331,32.3225624 16.6090696,26.8764747 16.6090696,19.2972256 C16.6090696,11.7179765 17.4339357,5.55217635 19.0836677,0.79982504"/>
        <ellipse cx="37.116" cy="18.217" fill="#E27023" rx="5.86" ry="18.217"/>
        <path fill="#99B3C6" d="M40.4356567,15.7823129 L45.3192875,15.7823129 L45.3192875,20.7142857 L40.4356567,20.7142857 C38.2651541,20.7142857 37.1799028,19.8922902 37.1799028,18.2482993 C37.1799028,16.6043084 38.2651541,15.7823129 40.4356567,15.7823129 Z"/>
      </g>
      <g transform="translate(261.264)">
        <path fill="#F88030" d="M37.115596,-2.10262646e-14 L37.115596,36.4334737 L5.86035726,36.4334737 C2.62377132,36.4334737 3.56998781e-14,28.2775628 3.56998781e-14,18.2167369 C3.56998781e-14,8.1559109 2.62377132,-2.10262646e-14 5.86035726,-2.10262646e-14 L5.86035726,-2.10262646e-14 L37.115596,-2.10262646e-14 Z"/>
        <path fill="#FFCE48" d="M37.1150946,1.59711985 L37.1150946,14.3811199 L0.130130494,14.3811632 C0.52429429,8.66377727 1.78156862,3.94172331 3.45740395,1.5968696 L37.1150946,1.59711985 Z"/>
        <path stroke="#BD5B18" stroke-linecap="round" stroke-width="1.62" d="M19.4559601,35.635489 C17.5580331,32.3225624 16.6090696,26.8764747 16.6090696,19.2972256 C16.6090696,11.7179765 17.4339357,5.55217635 19.0836677,0.79982504"/>
        <ellipse cx="37.116" cy="18.217" fill="#E27023" rx="5.86" ry="18.217"/>
        <path fill="#99B3C6" d="M40.4356567,15.7823129 L45.3192875,15.7823129 L45.3192875,20.7142857 L40.4356567,20.7142857 C38.2651541,20.7142857 37.1799028,19.8922902 37.1799028,18.2482993 C37.1799028,16.6043084 38.2651541,15.7823129 40.4356567,15.7823129 Z"/>
      </g>
      <g transform="translate(463.241)">
        <path fill="#F88030" d="M37.115596,-2.10262646e-14 L37.115596,36.4334737 L5.86035726,36.4334737 C2.62377132,36.4334737 3.56998781e-14,28.2775628 3.56998781e-14,18.2167369 C3.56998781e-14,8.1559109 2.62377132,-2.10262646e-14 5.86035726,-2.10262646e-14 L5.86035726,-2.10262646e-14 L37.115596,-2.10262646e-14 Z"/>
        <path fill="#FFCE48" d="M37.1150946,1.59711985 L37.1150946,14.3811199 L0.130130494,14.3811632 C0.52429429,8.66377727 1.78156862,3.94172331 3.45740395,1.5968696 L37.1150946,1.59711985 Z"/>
        <path stroke="#BD5B18" stroke-linecap="round" stroke-width="1.62" d="M19.4559601,35.635489 C17.5580331,32.3225624 16.6090696,26.8764747 16.6090696,19.2972256 C16.6090696,11.7179765 17.4339357,5.55217635 19.0836677,0.79982504"/>
        <ellipse cx="37.116" cy="18.217" fill="#E27023" rx="5.86" ry="18.217"/>
        <path fill="#99B3C6" d="M40.4356567,15.7823129 L45.3192875,15.7823129 L45.3192875,20.7142857 L40.4356567,20.7142857 C38.2651541,20.7142857 37.1799028,19.8922902 37.1799028,18.2482993 C37.1799028,16.6043084 38.2651541,15.7823129 40.4356567,15.7823129 Z"/>
      </g>
    </g>
    <g transform="translate(0 101)">
      <rect width="523" height="4.932" y="15.782" fill="#99B3C6" rx="2.466"/>
      <g transform="translate(58.282)">
        <path fill="#F88030" d="M37.115596,-2.10262646e-14 L37.115596,36.4334737 L5.86035726,36.4334737 C2.62377132,36.4334737 3.56998781e-14,28.2775628 3.56998781e-14,18.2167369 C3.56998781e-14,8.1559109 2.62377132,-2.10262646e-14 5.86035726,-2.10262646e-14 L5.86035726,-2.10262646e-14 L37.115596,-2.10262646e-14 Z"/>
        <path fill="#FFCE48" d="M37.1150946,1.59711985 L37.1150946,14.3811199 L0.130130494,14.3811632 C0.52429429,8.66377727 1.78156862,3.94172331 3.45740395,1.5968696 L37.1150946,1.59711985 Z"/>
        <path stroke="#BD5B18" stroke-linecap="round" stroke-width="1.62" d="M19.4559601,35.635489 C17.5580331,32.3225624 16.6090696,26.8764747 16.6090696,19.2972256 C16.6090696,11.7179765 17.4339357,5.55217635 19.0836677,0.79982504"/>
        <ellipse cx="37.116" cy="18.217" fill="#E27023" rx="5.86" ry="18.217"/>
        <path fill="#99B3C6" d="M40.4356567,15.7823129 L45.3192875,15.7823129 L45.3192875,20.7142857 L40.4356567,20.7142857 C38.2651541,20.7142857 37.1799028,19.8922902 37.1799028,18.2482993 C37.1799028,16.6043084 38.2651541,15.7823129 40.4356567,15.7823129 Z"/>
      </g>
      <g transform="translate(159.773)">
        <path fill="#F88030" d="M37.115596,-2.10262646e-14 L37.115596,36.4334737 L5.86035726,36.4334737 C2.62377132,36.4334737 3.56998781e-14,28.2775628 3.56998781e-14,18.2167369 C3.56998781e-14,8.1559109 2.62377132,-2.10262646e-14 5.86035726,-2.10262646e-14 L5.86035726,-2.10262646e-14 L37.115596,-2.10262646e-14 Z"/>
        <path fill="#FFCE48" d="M37.1150946,1.59711985 L37.1150946,14.3811199 L0.130130494,14.3811632 C0.52429429,8.66377727 1.78156862,3.94172331 3.45740395,1.5968696 L37.1150946,1.59711985 Z"/>
        <path stroke="#BD5B18" stroke-linecap="round" stroke-width="1.62" d="M19.4559601,35.635489 C17.5580331,32.3225624 16.6090696,26.8764747 16.6090696,19.2972256 C16.6090696,11.7179765 17.4339357,5.55217635 19.0836677,0.79982504"/>
        <ellipse cx="37.116" cy="18.217" fill="#E27023" rx="5.86" ry="18.217"/>
        <path fill="#99B3C6" d="M40.4356567,15.7823129 L45.3192875,15.7823129 L45.3192875,20.7142857 L40.4356567,20.7142857 C38.2651541,20.7142857 37.1799028,19.8922902 37.1799028,18.2482993 C37.1799028,16.6043084 38.2651541,15.7823129 40.4356567,15.7823129 Z"/>
      </g>
      <g transform="translate(361.75)">
        <path fill="#F88030" d="M37.115596,-2.10262646e-14 L37.115596,36.4334737 L5.86035726,36.4334737 C2.62377132,36.4334737 3.56998781e-14,28.2775628 3.56998781e-14,18.2167369 C3.56998781e-14,8.1559109 2.62377132,-2.10262646e-14 5.86035726,-2.10262646e-14 L5.86035726,-2.10262646e-14 L37.115596,-2.10262646e-14 Z"/>
        <path fill="#FFCE48" d="M37.1150946,1.59711985 L37.1150946,14.3811199 L0.130130494,14.3811632 C0.52429429,8.66377727 1.78156862,3.94172331 3.45740395,1.5968696 L37.1150946,1.59711985 Z"/>
        <path stroke="#BD5B18" stroke-linecap="round" stroke-width="1.62" d="M19.4559601,35.635489 C17.5580331,32.3225624 16.6090696,26.8764747 16.6090696,19.2972256 C16.6090696,11.7179765 17.4339357,5.55217635 19.0836677,0.79982504"/>
        <ellipse cx="37.116" cy="18.217" fill="#E27023" rx="5.86" ry="18.217"/>
        <path fill="#99B3C6" d="M40.4356567,15.7823129 L45.3192875,15.7823129 L45.3192875,20.7142857 L40.4356567,20.7142857 C38.2651541,20.7142857 37.1799028,19.8922902 37.1799028,18.2482993 C37.1799028,16.6043084 38.2651541,15.7823129 40.4356567,15.7823129 Z"/>
      </g>
      <g transform="translate(261.264)">
        <path fill="#F88030" d="M37.115596,-2.10262646e-14 L37.115596,36.4334737 L5.86035726,36.4334737 C2.62377132,36.4334737 3.56998781e-14,28.2775628 3.56998781e-14,18.2167369 C3.56998781e-14,8.1559109 2.62377132,-2.10262646e-14 5.86035726,-2.10262646e-14 L5.86035726,-2.10262646e-14 L37.115596,-2.10262646e-14 Z"/>
        <path fill="#FFCE48" d="M37.1150946,1.59711985 L37.1150946,14.3811199 L0.130130494,14.3811632 C0.52429429,8.66377727 1.78156862,3.94172331 3.45740395,1.5968696 L37.1150946,1.59711985 Z"/>
        <path stroke="#BD5B18" stroke-linecap="round" stroke-width="1.62" d="M19.4559601,35.635489 C17.5580331,32.3225624 16.6090696,26.8764747 16.6090696,19.2972256 C16.6090696,11.7179765 17.4339357,5.55217635 19.0836677,0.79982504"/>
        <ellipse cx="37.116" cy="18.217" fill="#E27023" rx="5.86" ry="18.217"/>
        <path fill="#99B3C6" d="M40.4356567,15.7823129 L45.3192875,15.7823129 L45.3192875,20.7142857 L40.4356567,20.7142857 C38.2651541,20.7142857 37.1799028,19.8922902 37.1799028,18.2482993 C37.1799028,16.6043084 38.2651541,15.7823129 40.4356567,15.7823129 Z"/>
      </g>
      <g transform="translate(463.241)">
        <path fill="#F88030" d="M37.115596,-2.10262646e-14 L37.115596,36.4334737 L5.86035726,36.4334737 C2.62377132,36.4334737 3.56998781e-14,28.2775628 3.56998781e-14,18.2167369 C3.56998781e-14,8.1559109 2.62377132,-2.10262646e-14 5.86035726,-2.10262646e-14 L5.86035726,-2.10262646e-14 L37.115596,-2.10262646e-14 Z"/>
        <path fill="#FFCE48" d="M37.1150946,1.59711985 L37.1150946,14.3811199 L0.130130494,14.3811632 C0.52429429,8.66377727 1.78156862,3.94172331 3.45740395,1.5968696 L37.1150946,1.59711985 Z"/>
        <path stroke="#BD5B18" stroke-linecap="round" stroke-width="1.62" d="M19.4559601,35.635489 C17.5580331,32.3225624 16.6090696,26.8764747 16.6090696,19.2972256 C16.6090696,11.7179765 17.4339357,5.55217635 19.0836677,0.79982504"/>
        <ellipse cx="37.116" cy="18.217" fill="#E27023" rx="5.86" ry="18.217"/>
        <path fill="#99B3C6" d="M40.4356567,15.7823129 L45.3192875,15.7823129 L45.3192875,20.7142857 L40.4356567,20.7142857 C38.2651541,20.7142857 37.1799028,19.8922902 37.1799028,18.2482993 C37.1799028,16.6043084 38.2651541,15.7823129 40.4356567,15.7823129 Z"/>
      </g>
    </g>
    <g transform="translate(0 51)">
      <rect width="574" height="4.932" y="15.782" fill="#99B3C6" rx="2.466"/>
      <g transform="translate(58.282)">
        <path fill="#F88030" d="M37.115596,-2.10262646e-14 L37.115596,36.4334737 L5.86035726,36.4334737 C2.62377132,36.4334737 3.56998781e-14,28.2775628 3.56998781e-14,18.2167369 C3.56998781e-14,8.1559109 2.62377132,-2.10262646e-14 5.86035726,-2.10262646e-14 L5.86035726,-2.10262646e-14 L37.115596,-2.10262646e-14 Z"/>
        <path fill="#FFCE48" d="M37.1150946,1.59711985 L37.1150946,14.3811199 L0.130130494,14.3811632 C0.52429429,8.66377727 1.78156862,3.94172331 3.45740395,1.5968696 L37.1150946,1.59711985 Z"/>
        <path stroke="#BD5B18" stroke-linecap="round" stroke-width="1.62" d="M19.4559601,35.635489 C17.5580331,32.3225624 16.6090696,26.8764747 16.6090696,19.2972256 C16.6090696,11.7179765 17.4339357,5.55217635 19.0836677,0.79982504"/>
        <ellipse cx="37.116" cy="18.217" fill="#E27023" rx="5.86" ry="18.217"/>
        <path fill="#99B3C6" d="M40.4356567,15.7823129 L45.3192875,15.7823129 L45.3192875,20.7142857 L40.4356567,20.7142857 C38.2651541,20.7142857 37.1799028,19.8922902 37.1799028,18.2482993 C37.1799028,16.6043084 38.2651541,15.7823129 40.4356567,15.7823129 Z"/>
      </g>
      <g transform="translate(159.773)">
        <path fill="#F88030" d="M37.115596,-2.10262646e-14 L37.115596,36.4334737 L5.86035726,36.4334737 C2.62377132,36.4334737 3.56998781e-14,28.2775628 3.56998781e-14,18.2167369 C3.56998781e-14,8.1559109 2.62377132,-2.10262646e-14 5.86035726,-2.10262646e-14 L5.86035726,-2.10262646e-14 L37.115596,-2.10262646e-14 Z"/>
        <path fill="#FFCE48" d="M37.1150946,1.59711985 L37.1150946,14.3811199 L0.130130494,14.3811632 C0.52429429,8.66377727 1.78156862,3.94172331 3.45740395,1.5968696 L37.1150946,1.59711985 Z"/>
        <path stroke="#BD5B18" stroke-linecap="round" stroke-width="1.62" d="M19.4559601,35.635489 C17.5580331,32.3225624 16.6090696,26.8764747 16.6090696,19.2972256 C16.6090696,11.7179765 17.4339357,5.55217635 19.0836677,0.79982504"/>
        <ellipse cx="37.116" cy="18.217" fill="#E27023" rx="5.86" ry="18.217"/>
        <path fill="#99B3C6" d="M40.4356567,15.7823129 L45.3192875,15.7823129 L45.3192875,20.7142857 L40.4356567,20.7142857 C38.2651541,20.7142857 37.1799028,19.8922902 37.1799028,18.2482993 C37.1799028,16.6043084 38.2651541,15.7823129 40.4356567,15.7823129 Z"/>
      </g>
      <g transform="translate(361.75)">
        <path fill="#F88030" d="M37.115596,-2.10262646e-14 L37.115596,36.4334737 L5.86035726,36.4334737 C2.62377132,36.4334737 3.56998781e-14,28.2775628 3.56998781e-14,18.2167369 C3.56998781e-14,8.1559109 2.62377132,-2.10262646e-14 5.86035726,-2.10262646e-14 L5.86035726,-2.10262646e-14 L37.115596,-2.10262646e-14 Z"/>
        <path fill="#FFCE48" d="M37.1150946,1.59711985 L37.1150946,14.3811199 L0.130130494,14.3811632 C0.52429429,8.66377727 1.78156862,3.94172331 3.45740395,1.5968696 L37.1150946,1.59711985 Z"/>
        <path stroke="#BD5B18" stroke-linecap="round" stroke-width="1.62" d="M19.4559601,35.635489 C17.5580331,32.3225624 16.6090696,26.8764747 16.6090696,19.2972256 C16.6090696,11.7179765 17.4339357,5.55217635 19.0836677,0.79982504"/>
        <ellipse cx="37.116" cy="18.217" fill="#E27023" rx="5.86" ry="18.217"/>
        <path fill="#99B3C6" d="M40.4356567,15.7823129 L45.3192875,15.7823129 L45.3192875,20.7142857 L40.4356567,20.7142857 C38.2651541,20.7142857 37.1799028,19.8922902 37.1799028,18.2482993 C37.1799028,16.6043084 38.2651541,15.7823129 40.4356567,15.7823129 Z"/>
      </g>
      <g transform="translate(261.264)">
        <path fill="#F88030" d="M37.115596,-2.10262646e-14 L37.115596,36.4334737 L5.86035726,36.4334737 C2.62377132,36.4334737 3.56998781e-14,28.2775628 3.56998781e-14,18.2167369 C3.56998781e-14,8.1559109 2.62377132,-2.10262646e-14 5.86035726,-2.10262646e-14 L5.86035726,-2.10262646e-14 L37.115596,-2.10262646e-14 Z"/>
        <path fill="#FFCE48" d="M37.1150946,1.59711985 L37.1150946,14.3811199 L0.130130494,14.3811632 C0.52429429,8.66377727 1.78156862,3.94172331 3.45740395,1.5968696 L37.1150946,1.59711985 Z"/>
        <path stroke="#BD5B18" stroke-linecap="round" stroke-width="1.62" d="M19.4559601,35.635489 C17.5580331,32.3225624 16.6090696,26.8764747 16.6090696,19.2972256 C16.6090696,11.7179765 17.4339357,5.55217635 19.0836677,0.79982504"/>
        <ellipse cx="37.116" cy="18.217" fill="#E27023" rx="5.86" ry="18.217"/>
        <path fill="#99B3C6" d="M40.4356567,15.7823129 L45.3192875,15.7823129 L45.3192875,20.7142857 L40.4356567,20.7142857 C38.2651541,20.7142857 37.1799028,19.8922902 37.1799028,18.2482993 C37.1799028,16.6043084 38.2651541,15.7823129 40.4356567,15.7823129 Z"/>
      </g>
      <g transform="translate(463.241)">
        <path fill="#F88030" d="M37.115596,-2.10262646e-14 L37.115596,36.4334737 L5.86035726,36.4334737 C2.62377132,36.4334737 3.56998781e-14,28.2775628 3.56998781e-14,18.2167369 C3.56998781e-14,8.1559109 2.62377132,-2.10262646e-14 5.86035726,-2.10262646e-14 L5.86035726,-2.10262646e-14 L37.115596,-2.10262646e-14 Z"/>
        <path fill="#FFCE48" d="M37.1150946,1.59711985 L37.1150946,14.3811199 L0.130130494,14.3811632 C0.52429429,8.66377727 1.78156862,3.94172331 3.45740395,1.5968696 L37.1150946,1.59711985 Z"/>
        <path stroke="#BD5B18" stroke-linecap="round" stroke-width="1.62" d="M19.4559601,35.635489 C17.5580331,32.3225624 16.6090696,26.8764747 16.6090696,19.2972256 C16.6090696,11.7179765 17.4339357,5.55217635 19.0836677,0.79982504"/>
        <ellipse cx="37.116" cy="18.217" fill="#E27023" rx="5.86" ry="18.217"/>
        <path fill="#99B3C6" d="M40.4356567,15.7823129 L45.3192875,15.7823129 L45.3192875,20.7142857 L40.4356567,20.7142857 C38.2651541,20.7142857 37.1799028,19.8922902 37.1799028,18.2482993 C37.1799028,16.6043084 38.2651541,15.7823129 40.4356567,15.7823129 Z"/>
      </g>
    </g>
  </g>
</svg>
