<?xml version="1.0" encoding="UTF-8"?>
<svg width="108px" height="62px" viewBox="0 0 108 62" version="1.1" xmlns="http://www.w3.org/2000/svg" xmlns:xlink="http://www.w3.org/1999/xlink">
    <!-- Generator: Sketch 63.1 (92452) - https://sketch.com -->
    <title>Group 3 Copy</title>
    <desc>Created with Sketch.</desc>
    <g id="Page-1" stroke="none" stroke-width="1" fill="none" fill-rule="evenodd">
        <g id="Artboard" transform="translate(-36.000000, -59.000000)">
            <g id="Group-3-Copy" transform="translate(36.000000, 59.000000)">
                <path d="M14.1380672,5.88000996 L84.7000018,5.88000996 L84.7000018,5.88000996 L84.7000018,11.2575391 L13.0380672,11.2575391 L13.0380672,6.98000999 C13.0380672,6.37249675 13.530554,5.88000996 14.1380672,5.88000996 Z" id="Rectangle" fill="#DBDBF3"></path>
                <g id="Group-20-Copy" transform="translate(0.000000, 3.200000)" stroke="#7176C4" stroke-width="1.10000002">
                    <g id="Group-36-Copy-2" transform="translate(0.000000, 0.003999)">
                        <g id="Group-35" transform="translate(0.000000, 0.353540)">
                            <path d="M16.0508703,4.04866009 C16.0508703,4.26096009 15.8781703,4.4347601 15.6647703,4.4347601 C15.4524703,4.4347601 15.2786703,4.26096009 15.2786703,4.04866009 C15.2786703,3.83526008 15.4524703,3.66146008 15.6647703,3.66146008 C15.8781703,3.66146008 16.0508703,3.83526008 16.0508703,4.04866009 Z" id="Stroke-5" stroke-linecap="round" stroke-linejoin="round"></path>
                            <path d="M19.3508704,4.04866009 C19.3508704,4.26096009 19.1781704,4.4347601 18.9647704,4.4347601 C18.7524704,4.4347601 18.5786704,4.26096009 18.5786704,4.04866009 C18.5786704,3.83526008 18.7524704,3.66146008 18.9647704,3.66146008 C19.1781704,3.66146008 19.3508704,3.83526008 19.3508704,4.04866009 Z" id="Stroke-7" stroke-linecap="round" stroke-linejoin="round"></path>
                            <path d="M22.6508705,4.04866009 C22.6508705,4.26096009 22.4781705,4.4347601 22.2647705,4.4347601 C22.0524705,4.4347601 21.8786705,4.26096009 21.8786705,4.04866009 C21.8786705,3.83526008 22.0524705,3.66146008 22.2647705,3.66146008 C22.4781705,3.66146008 22.6508705,3.83526008 22.6508705,4.04866009 Z" id="Stroke-9" stroke-linecap="round" stroke-linejoin="round"></path>
                            <g id="Group-2" transform="translate(0.549890, 51.767651)" stroke-linecap="round" stroke-linejoin="round">
                                <line x1="0" y1="0.550000012" x2="94.0092917" y2="0.550000012" id="Stroke-11"></line>
                                <line x1="106.517182" y1="0.550000012" x2="101.819936" y2="0.550000012" id="Stroke-11"></line>
                            </g>
                            <line x1="22.8485405" y1="57.7500013" x2="54.8706412" y2="57.7500013" id="Stroke-13" stroke-linecap="round" stroke-linejoin="round"></line>
                            <line x1="64.4519714" y1="57.7500013" x2="74.2331716" y2="57.7500013" id="Stroke-15" stroke-linecap="round" stroke-linejoin="round"></line>
                            <line x1="84.2519718" y1="7.70319017" x2="11.6011503" y2="7.70319017" id="Stroke-17"></line>
                            <path d="M84.2519718,43.2330887 L84.2519718,52.3177611 L11.6013703,52.3177611 L11.6013703,2.33046005 C11.6013703,1.11606002 12.5858703,0.130460003 13.8013703,0.130460003 L67.2217715,0.130460003 L84.2519718,0.130460003 L84.2519718,21.6013605 L84.2519718,33.1030549 L84.2519718,43.2330887 Z" id="Path" stroke-linecap="round" stroke-linejoin="round"></path>
                        </g>
                    </g>
                </g>
                <path d="M5.86080013,48.5804011 C5.86080013,49.8949011 4.7949001,50.9608011 3.48040008,50.9608011 C2.16590005,50.9608011 1.10000002,49.8949011 1.10000002,48.5804011 C1.10000002,47.265901 2.16590005,46.200001 3.48040008,46.200001 C4.7949001,46.200001 5.86080013,47.265901 5.86080013,48.5804011" id="Fill-3-Copy" fill-opacity="0.5" fill="#DBDBF3"></path>
                <polygon id="Fill-37-Copy" fill="#DBDBF3" transform="translate(89.650002, 26.950001) rotate(-96.000000) translate(-89.650002, -26.950001) " points="89.649576 29.7000006 86.9000019 26.9500006 89.649576 24.2000005 92.400002 26.9500006"></polygon>
                <rect id="Rectangle-Copy-27" fill="#DBDBF3" transform="translate(3.575000, 3.575000) rotate(28.000000) translate(-3.575000, -3.575000) " x="1.10000002" y="1.10000002" width="4.95000011" height="4.95000011"></rect>
                <path d="M79.104398,20.3500004 L51.7000011,20.3500004 L79.104398,20.3500004 Z" id="Stroke-4" stroke="#DBDBF3" stroke-width="1.10000002" stroke-linecap="round" stroke-linejoin="round"></path>
                <path d="M74.2331716,23.6500005 L51.7000011,23.6500005 L74.2331716,23.6500005 Z" id="Stroke-4-Copy" stroke="#DBDBF3" stroke-width="1.10000002" stroke-linecap="round" stroke-linejoin="round"></path>
                <path d="M74.2331716,26.9500006 L51.7000011,26.9500006 L74.2331716,26.9500006 Z" id="Stroke-4-Copy-5" stroke="#DBDBF3" stroke-width="1.10000002" stroke-linecap="round" stroke-linejoin="round"></path>
                <path d="M62.9665864,37.9500008 L51.7000011,37.9500008 L62.9665864,37.9500008 Z" id="Stroke-4-Copy-6" stroke="#DBDBF3" stroke-width="1.10000002" stroke-linecap="round" stroke-linejoin="round"></path>
                <path d="M62.9665864,41.2500009 L51.7000011,41.2500009 L62.9665864,41.2500009 Z" id="Stroke-4-Copy-7" stroke="#DBDBF3" stroke-width="1.10000002" stroke-linecap="round" stroke-linejoin="round"></path>
                <path d="M62.9665864,44.550001 L51.7000011,44.550001 L62.9665864,44.550001 Z" id="Stroke-4-Copy-8" stroke="#DBDBF3" stroke-width="1.10000002" stroke-linecap="round" stroke-linejoin="round"></path>
                <polygon id="Path-11" fill="#BCBCE2" points="65.7573287 45.5860346 83.7040183 50.684777 83.7040183 45.5860346"></polygon>
                <rect id="Rectangle" fill="#FFFFFF" x="66.0000014" y="33.0000007" width="25.3000005" height="12.1000003"></rect>
                <path d="M68.5892731,35.2000008 L91.300002,35.2000008 L91.300002,35.2000008 L91.300002,45.100001 L67.4892731,45.100001 L67.4892731,36.3000008 C67.4892731,35.6924875 67.9817599,35.2000008 68.5892731,35.2000008 Z" id="Rectangle" fill="#E5E5F6"></path>
                <polygon id="Fill-27-Copy" fill="#7176C4" opacity="0.5" points="70.4000015 38.8300008 88.0000019 38.8300008 88.0000019 37.4000008 75.4567721 37.4000008 70.4000015 37.4000008"></polygon>
                <polygon id="Fill-27-Copy-2" fill="#C3C3EA" points="70.4000015 42.1300009 81.4000018 42.1300009 81.4000018 40.7000009 70.4000015 40.7000009"></polygon>
                <rect id="Rectangle-Copy" stroke="#7176C4" stroke-width="1.10000002" stroke-linecap="round" stroke-linejoin="round" x="66.0000014" y="33.0000007" width="25.3000005" height="12.1000003"></rect>
                <path d="M17.6000004,35.2000008 L46.200001,35.2000008 C46.8075142,35.2000008 47.300001,35.6924875 47.300001,36.3000008 L47.300001,50.6000007 C47.300001,51.207514 46.8075142,51.7000008 46.200001,51.7000008 L17.6000004,51.7000008 C16.9924871,51.7000008 16.5000004,51.207514 16.5000004,50.6000007 L16.5000004,36.3000008 C16.5000004,35.6924875 16.9924871,35.2000008 17.6000004,35.2000008 Z" id="Rectangle-Copy-2" fill="#DBDBF3" opacity="0.5"></path>
                <path d="M17.6000004,35.2000008 L46.200001,35.2000008 C46.8075142,35.2000008 47.300001,35.6924875 47.300001,36.3000008 L47.300001,50.6000007 C47.300001,51.207514 46.8075142,51.7000008 46.200001,51.7000008 L17.6000004,51.7000008 C16.9924871,51.7000008 16.5000004,51.207514 16.5000004,50.6000007 L16.5000004,36.3000008 C16.5000004,35.6924875 16.9924871,35.2000008 17.6000004,35.2000008 Z" id="Rectangle" stroke="#7176C4" stroke-width="1.10000002" stroke-linecap="round" stroke-linejoin="bevel" stroke-dasharray="2.200000047683716,3.300000071525574"></path>
                <g id="Group" transform="translate(5.500000, 17.600000)" stroke-linecap="round" stroke-linejoin="round" stroke-width="1.10000002">
                    <polygon id="Stroke-2" stroke="#7176C4" fill="#FFFFFF" points="0 12.1000003 30.8000007 12.1000003 30.8000007 0 0 0"></polygon>
                    <path d="M14.0633206,3.85000008 L4.4000001,3.85000008 L14.0633206,3.85000008 Z" id="Stroke-4-Copy-2" stroke="#7176C4" opacity="0.800000012"></path>
                    <path d="M26.7370479,7.15000015 L4.4000001,7.15000015 L26.7370479,7.15000015 Z" id="Stroke-4-Copy-3" stroke="#DBDBF3"></path>
                </g>
            </g>
        </g>
    </g>
</svg>