<svg id="Layer_1" data-name="Layer 1" xmlns="http://www.w3.org/2000/svg" viewBox="0 0 50 50"><defs><style>.cls-1{fill-rule:evenodd;}</style></defs><path class="cls-1" d="M31.59,6.71a6.59,6.59,0,1,1-13.17,0,6.59,6.59,0,1,1,13.17,0h0M14.52,19.06l1.12,12.73a2,2,0,0,0,1.84,1.78l.83,0a1.32,1.32,0,0,1,1.25,1.24l1,13.36A1.92,1.92,0,0,0,22.46,50h5.15a1.91,1.91,0,0,0,1.89-1.79l1-13.37a1.29,1.29,0,0,1,1.24-1.23l.83,0a1.92,1.92,0,0,0,1.81-1.76l1.11-12.75a3,3,0,0,0-3-3.08H17.54a3,3,0,0,0-3,3.08"/><path class="cls-1" d="M38.11,19.06,37,32.05a4.61,4.61,0,0,1-3.2,4,1.27,1.27,0,0,0-.84,1l-.62,7.12a1.43,1.43,0,0,0,1.28,1.56h4a1.68,1.68,0,0,0,1.66-1.57l.88-11.74a1.15,1.15,0,0,1,1.09-1.08l.72,0a1.66,1.66,0,0,0,1.59-1.54l1-11.19a2.68,2.68,0,0,0-2.65-2.7H38.77a1,1,0,0,0-1,1,.86.86,0,0,0,0,.32,5.72,5.72,0,0,1,.29,1.81M34.52,1.94a1.14,1.14,0,0,0-.94,1.29.84.84,0,0,0,.06.24,9.21,9.21,0,0,1-.82,8.18,1.14,1.14,0,0,0,.37,1.56.91.91,0,0,0,.22.11,5.81,5.81,0,0,0,7.67-6.14,5.8,5.8,0,0,0-6.34-5.26l-.22,0M11.89,19.06l1.13,13a4.61,4.61,0,0,0,3.2,4,1.27,1.27,0,0,1,.84,1l.62,7.12a1.43,1.43,0,0,1-1.28,1.56h-4a1.68,1.68,0,0,1-1.66-1.57L9.88,32.45a1.15,1.15,0,0,0-1.09-1.08l-.72,0A1.66,1.66,0,0,1,6.48,29.8l-1-11.19a2.67,2.67,0,0,1,2.65-2.7h3.08a1,1,0,0,1,1,1,.86.86,0,0,1-.05.32,5.91,5.91,0,0,0-.29,1.81M15.48,1.94a1.14,1.14,0,0,1,.94,1.29.84.84,0,0,1-.06.24,9.21,9.21,0,0,0,.82,8.18,1.14,1.14,0,0,1-.37,1.56.91.91,0,0,1-.22.11A5.8,5.8,0,0,1,8.92,7.18a5.8,5.8,0,0,1,6.34-5.26l.22,0"/></svg>