<?xml version="1.0" encoding="UTF-8"?>
<svg width="24px" height="24px" viewBox="0 0 24 24" version="1.1" xmlns="http://www.w3.org/2000/svg" xmlns:xlink="http://www.w3.org/1999/xlink">
    <title>description</title>
    <g id="description" stroke="none" stroke-width="1" fill="none" fill-rule="evenodd">
        <g>
            <polygon id="Path" points="0 0 24 0 24 24 0 24"></polygon>
            <path d="M13.1715729,2 L6,2 L6,2 C4.9,2 4.01,2.9 4.01,4 L4,20 C4,21.1 4.89,22 5.99,22 L18,22 C19.1,22 20,21.1 20,20 L20,8.82842712 C20,8.29799415 19.7892863,7.78928632 19.4142136,7.41421356 L14.5857864,2.58578644 C14.2107137,2.21071368 13.7020059,2 13.1715729,2 Z M16,18 L8,18 L8,16 L16,16 L16,18 Z M16,14 L8,14 L8,12 L16,12 L16,14 Z" id="Shape" fill="#324056" fill-rule="nonzero"></path>
        </g>
    </g>
</svg>