<?xml version="1.0" encoding="UTF-8"?>
<svg width="84px" height="65px" viewBox="0 0 84 65" version="1.1" xmlns="http://www.w3.org/2000/svg" xmlns:xlink="http://www.w3.org/1999/xlink">
    <!-- Generator: Sketch 63.1 (92452) - https://sketch.com -->
    <title>Group 38</title>
    <desc>Created with Sketch.</desc>
    <g id="Empty-state" stroke="none" stroke-width="1" fill="none" fill-rule="evenodd">
        <g id="Artboard" transform="translate(-75.000000, -883.000000)">
            <g id="Group-38" transform="translate(75.000000, 883.500000)">
                <path d="M9.8542,50.6574 C9.8542,52.2164 8.5902,53.4794 7.0322,53.4794 C5.4732,53.4794 4.2092,52.2164 4.2092,50.6574 C4.2092,49.0984 5.4732,47.8354 7.0322,47.8354 C8.5902,47.8354 9.8542,49.0984 9.8542,50.6574" id="Fill-1" fill-opacity="0.5" fill="#DBDBF3"></path>
                <path d="M79.9001,2.1642 C79.9001,3.3592 78.9311,4.3282 77.7361,4.3282 C76.5411,4.3282 75.5721,3.3592 75.5721,2.1642 C75.5721,0.9692 76.5411,0.0002 77.7361,0.0002 C78.9311,0.0002 79.9001,0.9692 79.9001,2.1642" id="Fill-3" fill-opacity="0.5" fill="#DBDBF3"></path>
                <line x1="0.4997" y1="56.6994" x2="83.3737" y2="56.6994" id="Stroke-5" stroke="#7176C4" stroke-linecap="round" stroke-linejoin="round"></line>
                <g id="Group-9" transform="translate(54.000000, 62.833800)" stroke="#7176C4" stroke-linecap="round" stroke-linejoin="round">
                    <line x1="0.6872" y1="0.5004" x2="11.5482" y2="0.5004" id="Stroke-7"></line>
                </g>
                <g id="Group-12" transform="translate(21.000000, 62.833800)" stroke="#7176C4" stroke-linecap="round" stroke-linejoin="round">
                    <line x1="0.3259" y1="0.5004" x2="24.5789" y2="0.5004" id="Stroke-10"></line>
                </g>
                <path d="M58.5671,31.3664 L58.5671,31.5264 C58.5671,34.7864 55.9181,37.4464 52.6571,37.4464 L31.4771,37.4464 L31.4771,33.2864 C31.4771,32.2264 32.3381,31.3664 33.3971,31.3664 L58.5671,31.3664 Z" id="Fill-13" fill="#DDDDF0"></path>
                <path d="M65.5486,51.1603 L62.2226,48.1333 C61.8426,47.7933 61.3616,47.6133 60.8616,47.6133 L33.3526,47.6133 C32.2926,47.6133 31.4326,46.7533 31.4326,45.6933 L31.4326,34.4063 L30.1666,34.4063 C29.1076,34.4063 28.2466,35.2663 28.2466,36.3263 L28.2466,48.5663 C28.2466,49.6273 29.1076,50.4863 30.1666,50.4863 L57.6766,50.4863 C58.1766,50.4863 58.6566,50.6663 59.0366,51.0073 L65.0566,56.4863 L65.0276,52.5163 C65.0226,51.9933 65.2236,51.5203 65.5486,51.1603" id="Fill-15" fill="#DDDDF0"></path>
                <path d="M54.5945,31.3664 L70.6565,31.3664 C71.7175,31.3664 72.5675,32.2264 72.5675,33.2864 L72.5675,45.5264 C72.5675,46.5864 71.7175,47.4464 70.6565,47.4464 L70.2775,47.4464 C69.1575,47.4464 68.2465,48.3564 68.2575,49.4764 L68.2865,53.4464 L62.2675,47.9674 C61.8875,47.6274 61.4065,47.4464 60.9065,47.4464 L33.3975,47.4464 C32.3375,47.4464 31.4775,46.5864 31.4775,45.5264 L31.4775,33.2864 C31.4775,32.2264 32.3375,31.3664 33.3975,31.3664" id="Stroke-17" stroke="#7176C4" stroke-linecap="round" stroke-linejoin="round"></path>
                <g id="Group-22" transform="translate(35.000000, 34.833800)" fill="#D4D4F0">
                    <polygon id="Fill-19" points="0.937 3.411 29.59 3.411 29.59 0.846 0.937 0.846"></polygon>
                    <polygon id="Fill-21" points="0.937 8.029 15.263 8.029 15.263 5.464 0.937 5.464"></polygon>
                </g>
                <path d="M51.782,33.839 L23.212,33.839 C22.744,33.839 22.293,34.013 21.947,34.327 L16.315,39.443 L17.344,35.734 C17.352,34.69 16.508,33.839 15.464,33.839 L15.106,33.839 C14.118,33.839 13.317,33.037 13.317,32.049 L13.317,14.071 C13.317,13.083 14.118,12.281 15.106,12.281 L51.782,12.281 C52.77,12.281 53.572,13.083 53.572,14.071 L53.572,32.049 C53.572,33.037 52.77,33.839 51.782,33.839" id="Fill-23" fill="#E5E5F6"></path>
                <path d="M52.656,33.4435 L23.14,33.4435 C22.639,33.4435 22.157,33.6305 21.787,33.9665 L15.758,39.4435 L15.789,35.4715 C15.798,34.3545 14.893,33.4435 13.775,33.4435 L13.393,33.4435 C12.335,33.4435 11.477,32.5855 11.477,31.5275 L11.477,12.2815 C11.477,11.2235 12.335,10.3655 13.393,10.3655 L52.656,10.3655 C53.714,10.3655 54.572,11.2235 54.572,12.2815 L54.572,31.5275 C54.572,32.5855 53.714,33.4435 52.656,33.4435 Z" id="Stroke-25" stroke="#7176C4" stroke-linecap="round" stroke-linejoin="round"></path>
                <polygon id="Fill-27" fill="#BABAE6" points="18.5 21.2448 47.153 21.2448 47.153 18.6798 18.5 18.6798"></polygon>
                <polygon id="Fill-29" fill="#C3C3EA" points="18.5 25.8628 32.826 25.8628 32.826 23.2978 18.5 23.2978"></polygon>
                <path d="M66.6726,6.718 L20.1776,6.897 L20.1776,3.64 C20.1776,2.805 20.8546,2.128 21.6896,2.128 L66.6726,1.949 L66.6726,6.718 Z" id="Fill-30" fill="#DBDBF3"></path>
                <path d="M18.8484,9.9094 L18.8484,2.5164 C18.8484,1.4124 19.7444,0.5164 20.8484,0.5164 L64.7754,0.5164 C65.8794,0.5164 66.7754,1.4124 66.7754,2.5164 L66.7754,29.1284" id="Stroke-31" stroke="#7176C4" stroke-linecap="round" stroke-linejoin="round"></path>
                <path d="M23.1052,3.9836 C23.1052,4.1766 22.9482,4.3346 22.7532,4.3346 C22.5602,4.3346 22.4032,4.1766 22.4032,3.9836 C22.4032,3.7896 22.5602,3.6326 22.7532,3.6326 C22.9482,3.6326 23.1052,3.7896 23.1052,3.9836 Z" id="Stroke-32" stroke="#7176C4" stroke-linecap="round" stroke-linejoin="round"></path>
                <path d="M26.1052,3.9836 C26.1052,4.1766 25.9482,4.3346 25.7532,4.3346 C25.5602,4.3346 25.4032,4.1766 25.4032,3.9836 C25.4032,3.7896 25.5602,3.6326 25.7532,3.6326 C25.9482,3.6326 26.1052,3.7896 26.1052,3.9836 Z" id="Stroke-33" stroke="#7176C4" stroke-linecap="round" stroke-linejoin="round"></path>
                <path d="M29.1052,3.9836 C29.1052,4.1766 28.9482,4.3346 28.7532,4.3346 C28.5602,4.3346 28.4032,4.1766 28.4032,3.9836 C28.4032,3.7896 28.5602,3.6326 28.7532,3.6326 C28.9482,3.6326 29.1052,3.7896 29.1052,3.9836 Z" id="Stroke-34" stroke="#7176C4" stroke-linecap="round" stroke-linejoin="round"></path>
                <line x1="66.6726" y1="6.8967" x2="18.9516" y2="6.8967" id="Stroke-35" stroke="#7176C4"></line>
                <line x1="18.9519" y1="39.9094" x2="18.9519" y2="56.6994" id="Stroke-36" stroke="#7176C4" stroke-linecap="round" stroke-linejoin="round"></line>
                <polygon id="Fill-37" fill="#DBDBF3" points="6.7146 6.5383 3.4866 3.3103 6.7146 0.0823 9.9436 3.3103"></polygon>
            </g>
        </g>
    </g>
</svg>