<svg viewBox="0 0 24 24">
  <path d="M18.5 24h-16A2.503 2.503 0 010 21.5v-14C0 6.121 1.122 5 2.5 5h7a.5.5 0 010 1h-7C1.673 6 1 6.673 1 7.5v14c0 .827.673 1.5 1.5 1.5h15.793L23 18.293V7.5c0-.827-.673-1.5-1.5-1.5h-7a.5.5 0 010-1h7C22.878 5 24 6.121 24 7.5v11c0 .133-.053.26-.146.354l-5 5A.504.504 0 0118.5 24zm5-5.5h.01z"/>
  <path d="M18.5 24a.5.5 0 01-.5-.5v-5a.5.5 0 01.5-.5h5a.5.5 0 010 1H19v4.5a.5.5 0 01-.5.5zM12 9a.5.5 0 01-.5-.5v-5a.5.5 0 011 0v5a.5.5 0 01-.5.5z"/>
  <path d="M12 4c-1.103 0-2-.897-2-2s.897-2 2-2 2 .897 2 2-.897 2-2 2zm0-3a1.001 1.001 0 000 2 1.001 1.001 0 000-2zM19.5 12h-15a.5.5 0 010-1h15a.5.5 0 010 1zM19.5 16h-15a.5.5 0 010-1h15a.5.5 0 010 1zM15.5 20h-11a.5.5 0 010-1h11a.5.5 0 010 1z"/>
</svg>
