<?xml version="1.0" encoding="UTF-8"?>
<svg width="401px" height="400px" viewBox="0 0 401 400" version="1.1" xmlns="http://www.w3.org/2000/svg" xmlns:xlink="http://www.w3.org/1999/xlink">
    <!-- Generator: Sketch 52.6 (67491) - http://www.bohemiancoding.com/sketch -->
    <title>edit</title>
    <desc>Created with Sketch.</desc>
    <g id="Page-1" stroke="none" stroke-width="1" fill="none" fill-rule="evenodd">
        <g id="edit" fill="#324056">
            <path d="M370.107237,250.645823 C364.590992,250.645823 360.12026,255.116556 360.12026,260.6328 L360.12026,349.306236 C360.100753,365.847167 346.700259,379.251563 330.159328,379.267168 L49.9348867,379.267168 C33.3939554,379.251563 19.9934602,365.847167 19.9739547,349.306236 L19.9739547,89.0557494 C19.9934602,72.5187191 33.3939554,59.114323 49.9348867,59.0948174 L138.608322,59.0948174 C144.124567,59.0948174 148.595299,54.6240841 148.595299,49.1078401 C148.595299,43.595497 144.124567,39.1208628 138.608322,39.1208628 L49.9348867,39.1208628 C22.3692693,39.1520721 0.0312093042,61.490131 0,89.0557494 L0,349.310137 C0.0312093042,376.875755 22.3692693,399.213814 49.9348867,399.245023 L330.159328,399.245023 C357.724945,399.213814 380.063005,376.875755 380.094214,349.310137 L380.094214,260.6328 C380.094214,255.116556 375.623481,250.645823 370.107237,250.645823 Z" id="Path"></path>
            <path d="M376.138435,13.4239017 C358.587103,-4.12742998 330.132019,-4.12742998 312.580687,13.4239017 L134.406769,191.597819 C133.185705,192.818883 132.304042,194.332535 131.843705,195.99443 L108.413321,280.583348 C107.449733,284.051482 108.428924,287.765389 110.972484,290.312848 C113.519943,292.856406 117.23385,293.835599 120.701984,292.875912 L205.290902,269.441627 C206.952797,268.981289 208.466448,268.099626 209.687513,266.878562 L387.857528,88.7007433 C405.381553,71.1377079 405.381553,42.7060318 387.857528,25.1429954 L376.138435,13.4239017 Z M156.167457,198.089354 L301.989029,52.2638807 L349.017549,99.2924012 L203.192076,245.117875 L156.167457,198.089354 Z M146.773457,216.939774 L184.345558,254.515776 L132.374264,268.914969 L146.773457,216.939774 Z M373.735318,74.5785332 L363.143661,85.170191 L316.11124,38.1377697 L326.706798,27.5461118 C336.455804,17.7971052 352.263317,17.7971052 362.012324,27.5461118 L373.735318,39.2652055 C383.46872,49.0259159 383.46872,64.8217247 373.735318,74.5785332 Z" id="Shape" fill-rule="nonzero"></path>
        </g>
    </g>
</svg>