<svg xmlns="http://www.w3.org/2000/svg" viewBox="0 0 192 192"><defs><style>.cls-1,.cls-2{fill:#334056;}.cls-2{opacity:0;}</style></defs><g id="trim_area" data-name="trim area"><path class="cls-1" d="M139.42,111.83l-6.5-7L124,95.14V90.89c0-4.35-.92-12.18-8.62-33.93-4.06-11.48-8.08-21.37-8.25-21.79L96,7.77,84.89,35.2C80.94,45,68,77.88,68,90.82v4.52l-8.83,9.36-6.64,7a18.17,18.17,0,0,0-4.72,12.4v19.92H68v0h56v0h20V124.14A18.24,18.24,0,0,0,139.42,111.83ZM96,39.7s16.14,39.66,16,51.12V132.1H80V90.82C80,79.21,96,39.7,96,39.7ZM59.85,124.14A6.18,6.18,0,0,1,61.29,120l6.65-7,.1,18.75v.37H59.85ZM132,132.06h-8v-.18l.1-18.94,6.51,7a6.22,6.22,0,0,1,1.42,4.16Z"/><path class="cls-1" d="M184,177.94a6,6,0,0,0-6-6H137.27a26.31,26.31,0,0,1-16.38-7.13A15.52,15.52,0,0,1,116,153.87a6,6,0,0,0-12,0,27.22,27.22,0,0,0,7.12,18.07H80.87A27.18,27.18,0,0,0,88,153.87a6,6,0,0,0-12,0,15.53,15.53,0,0,1-4.89,10.94,26.29,26.29,0,0,1-16.38,7.13H12.91a6,6,0,1,0,0,12h.31c.23,0,.45,0,.68,0l38,.07H52c1,0,2,0,3-.11H137c1,.07,2,.11,3,.11h.07L178,184a6,6,0,0,0,6-6v0Z"/><rect class="cls-2" width="192" height="192"/></g></svg>