<svg id="Layer_1" data-name="Layer 1" xmlns="http://www.w3.org/2000/svg" viewBox="0 0 50 50"><defs><style>.cls-1{fill-rule:evenodd;}</style></defs><g id="utilities"><path id="Combined-Shape" class="cls-1" d="M40,30l8,8.12A7,7,0,0,1,48,48a6.84,6.84,0,0,1-9.67,0l-.07-.08L27.14,36.62l6.44-6.47a16.55,16.55,0,0,0,2.75.22A16.87,16.87,0,0,0,40,30ZM36.33,0a13.32,13.32,0,0,1,3.54.47l.42.12L32.75,8.24l2,6.83,7,1.39,7.37-7.34a13.28,13.28,0,0,1,.71,4.3A13.47,13.47,0,0,1,32,26.11L10.62,47.49h0a5.75,5.75,0,0,1-8.3-8l.17-.18,21.15-21.5A13.41,13.41,0,0,1,36.33,0Zm-1,37.06-1.63,1.48,7.63,7.77,1.54-1.51ZM7,41a2,2,0,1,0,2,2A2,2,0,0,0,7,41Zm32.16-7.61-1.63,1.48,7.63,7.77,1.54-1.51ZM2.7.3,8,3.69,10,7.3l9.3,9.59L16.17,20,6.51,10.23,2.94,8.17,0,2.85Z"/></g></svg>