<?xml version="1.0" encoding="UTF-8"?>
<svg width="20px" height="20px" viewBox="0 0 20 20" version="1.1" xmlns="http://www.w3.org/2000/svg" xmlns:xlink="http://www.w3.org/1999/xlink">
    <!-- Generator: Sketch 54.1 (76490) - https://sketchapp.com -->
    <title>Combined Shape</title>
    <desc>Created with Sketch.</desc>
    <g id="Page-1" stroke="none" stroke-width="1" fill="none" fill-rule="evenodd">
        <g id="SVG" transform="translate(-378.000000, -523.000000)" fill="#EE518F" fill-rule="nonzero">
            <path d="M383.488722,530 C383.218808,530 383,529.776142 383,529.5 C383,529.223858 383.218808,529 383.488722,529 L392.511278,529 C392.781192,529 393,529.223858 393,529.5 C393,529.776142 392.781192,530 392.511278,530 L383.488722,530 Z M385.368421,533.375703 C385.098507,533.375703 384.879699,533.151846 384.879699,532.875703 C384.879699,532.599561 385.098507,532.375703 385.368421,532.375703 L390.631579,532.375703 C390.901493,532.375703 391.120301,532.599561 391.120301,532.875703 C391.120301,533.151846 390.901493,533.375703 390.631579,533.375703 L385.368421,533.375703 Z M386.87218,536.766917 C386.602267,536.766917 386.383459,536.54306 386.383459,536.266917 C386.383459,535.990775 386.602267,535.766917 386.87218,535.766917 L389.12782,535.766917 C389.397733,535.766917 389.616541,535.990775 389.616541,536.266917 C389.616541,536.54306 389.397733,536.766917 389.12782,536.766917 L386.87218,536.766917 Z M380,523 L396,523 C397.104569,523 398,523.895431 398,525 L398,541 C398,542.104569 397.104569,543 396,543 L380,543 C378.895431,543 378,542.104569 378,541 L378,525 C378,523.895431 378.895431,523 380,523 Z M380,524 C379.447715,524 379,524.447715 379,525 L379,541 C379,541.552285 379.447715,542 380,542 L396,542 C396.552285,542 397,541.552285 397,541 L397,525 C397,524.447715 396.552285,524 396,524 L380,524 Z" id="Combined-Shape"></path>
        </g>
    </g>
</svg>