<svg width="52" height="52" xmlns="http://www.w3.org/2000/svg"><g fill="#FFF" fill-rule="nonzero"><path d="M25.749 17.249c-4.541 0-8.81 1.769-12.021 4.979a16.885 16.885 0 0 0-4.979 12.021 16.89 16.89 0 0 0 4.979 12.021 16.885 16.885 0 0 0 12.021 4.979A16.89 16.89 0 0 0 37.77 46.27a16.885 16.885 0 0 0 4.979-12.021 16.89 16.89 0 0 0-4.979-12.021 16.887 16.887 0 0 0-12.021-4.979zm10.606 27.606a14.902 14.902 0 0 1-10.606 4.394 14.902 14.902 0 0 1-10.606-4.394 14.902 14.902 0 0 1-4.394-10.606c0-4.006 1.561-7.773 4.394-10.606a14.902 14.902 0 0 1 10.606-4.394c3.671 0 7.131 1.323 9.865 3.721L25.042 33.542a.999.999 0 1 0 1.414 1.414l10.572-10.572a14.876 14.876 0 0 1 3.721 9.865 14.9 14.9 0 0 1-4.394 10.606zM25.749 8.249a1 1 0 0 0 1-1v-6a1 1 0 1 0-2 0v6a1 1 0 0 0 1 1zM51.205 10.793a.999.999 0 0 0-1.414 0l-4.243 4.243a.999.999 0 1 0 1.414 1.414l4.243-4.243a.999.999 0 0 0 0-1.414zM1.707 10.793a.999.999 0 1 0-1.414 1.414l4.243 4.243a.997.997 0 0 0 1.414 0 .999.999 0 0 0 0-1.414l-4.243-4.243zM32.996 9.203a1 1 0 0 0 1.225-.707L35.773 2.7a1 1 0 0 0-1.932-.518l-1.553 5.796a1.001 1.001 0 0 0 .708 1.225zM17.277 8.496a.998.998 0 0 0 1.225.707 1 1 0 0 0 .707-1.225l-1.553-5.796a1 1 0 1 0-1.932.518l1.553 5.796zM43.749 5.072a1.002 1.002 0 0 0-1.366.366l-3 5.196a1 1 0 0 0 1.732 1l3-5.196a.999.999 0 0 0-.366-1.366zM11.25 12.135a.999.999 0 0 0 .865-1.5l-3-5.196a1 1 0 0 0-1.732.999l3 5.196a.997.997 0 0 0 .867.501z"/></g></svg>