<svg width="18" height="18" viewBox="0 0 18 18" xmlns="http://www.w3.org/2000/svg">
    <g fill="none" fill-rule="evenodd">
        <g fill="#FFF" fill-rule="nonzero">
            <path d="M14.585 12.344 12.642 1.7l-.009-.04a.938.938 0 0 0-1.44-.567l-7.682 5.06.007.031-1.807.398c-.583.135-.96.72-.837 1.306l.689 3.306c.103.494.522.842.996.88l1.533 3.486a1.317 1.317 0 0 0 1.498.753c.615-.14 1.043-.701 1.02-1.33l-.106-2.837 6.985 1.288a.942.942 0 0 0 .82-.244.944.944 0 0 0 .274-.846l.002-.001zM3.831 7.632l.564 2.614-1.456.285L2.4 7.947l1.43-.315zm1.67 7.391a.204.204 0 0 1-.39.09l-1.278-2.904 1.551-.395v.125l.116 3.083v.001zm.784-4.8-.695-3.22 5.48-3.609 1.456 7.98-6.24-1.152zM13.983 3.653a.556.556 0 0 1-.438-.897l.756-.968a.556.556 0 0 1 .876.683l-.756.968a.553.553 0 0 1-.438.214zM14.743 6.979a.555.555 0 0 1-.058-1.108l1.847-.193a.555.555 0 1 1 .116 1.104l-1.847.194a.615.615 0 0 1-.058.003zM16.63 10.76a.517.517 0 0 1-.084-.007l-1.157-.177a.556.556 0 1 1 .167-1.1l1.158.178a.556.556 0 0 1-.083 1.105z"/>
        </g>
        <path d="M.111.111H17.89V17.89H.111z"/>
    </g>
</svg>
