<svg xmlns="http://www.w3.org/2000/svg" xmlns:xlink="http://www.w3.org/1999/xlink" viewBox="0 0 192 192"><defs><style>.cls-1,.cls-4{fill:none;}.cls-1{clip-rule:evenodd;}.cls-2{clip-path:url(#clip-path);}.cls-3{fill:#334056;}</style><clipPath id="clip-path"><path class="cls-1" d="M-164.69-2879.78v-45c0-27.66-14.78-50.81-40.54-56.94v-6.13a13.49,13.49,0,0,0-13.52-13.51,13.49,13.49,0,0,0-13.52,13.51v6.13c-25.86,6.13-40.54,29.19-40.54,56.94v45l-18,18v9h144.16v-9Zm-54.06,54.07a18.07,18.07,0,0,0,18-18h-36A18,18,0,0,0-218.75-2825.71Z"/></clipPath></defs><g id="trim_area" data-name="trim area"><g id="Filter"><path class="cls-3" d="M167.71,176.1H24.29A16.2,16.2,0,0,1,8.11,159.92V43.39A16.2,16.2,0,0,1,24.29,27.21H75.53a16.26,16.26,0,0,1,13,6.5L102.38,52.3A4.2,4.2,0,0,0,105.73,54h62a16.19,16.19,0,0,1,16.18,16.18v89.76A16.2,16.2,0,0,1,167.71,176.1ZM24.29,39.21a4.19,4.19,0,0,0-4.18,4.18V159.92a4.18,4.18,0,0,0,4.18,4.18H167.71a4.18,4.18,0,0,0,4.18-4.18V70.16A4.18,4.18,0,0,0,167.71,66h-62a16.24,16.24,0,0,1-13-6.5h0L78.87,40.89a4.18,4.18,0,0,0-3.34-1.68Z"/><rect class="cls-4" y="-0.05" width="192" height="192"/></g></g></svg>