<?xml version="1.0" encoding="iso-8859-1"?>
<!-- Generator: Adobe Illustrator 19.0.0, SVG Export Plug-In . SVG Version: 6.00 Build 0)  -->
<svg version="1.1" id="Layer_1" xmlns="http://www.w3.org/2000/svg" xmlns:xlink="http://www.w3.org/1999/xlink" x="0px" y="0px"
	 viewBox="0 0 446.856 446.856" style="enable-background:new 0 0 446.856 446.856; fill: #6d6c7e;" xml:space="preserve">
<g id="XMLID_745_">
	<g>
		<g>
			<path d="M326.39,233.237v-30.34c0-48.263-33.197-88.766-78-99.938V72.124c0-13.807-11.193-25-25-25s-25,11.193-25,25v30.834
				c-44.803,11.172-78,51.676-78,99.938v30.34c0,32.437-12.886,63.546-35.822,86.483c-10.082,10.082-13.098,25.244-7.642,38.417
				c5.456,13.173,18.31,21.761,32.568,21.761h62.148c0,28.579,23.168,51.747,51.747,51.747c28.579,0,51.747-23.168,51.747-51.747
				h62.148c14.258,0,27.112-8.589,32.568-21.761c5.456-13.173,2.44-28.335-7.642-38.417
				C339.275,296.783,326.39,265.674,326.39,233.237z M223.39,401.644c-11.992,0-21.747-9.756-21.747-21.747h43.495
				C245.137,391.889,235.381,401.644,223.39,401.644z M342.137,346.655c-0.816,1.969-2.72,3.242-4.852,3.242H109.494
				c-2.132,0-4.036-1.272-4.852-3.241c-0.816-1.969-0.369-4.216,1.138-5.723c28.767-28.766,44.609-67.013,44.609-107.696v-30.34
				c0-40.252,32.748-73,73-73c40.252,0,73,32.748,73,73v30.34c0,40.682,15.842,78.929,44.609,107.696
				C342.506,342.44,342.953,344.686,342.137,346.655z" fill="#e6676f"/>
			<path d="M86.146,233.065c7.842-2.671,12.034-11.193,9.362-19.035c-16.559-48.616,9.521-101.639,58.137-118.199
				c7.842-2.671,12.034-11.193,9.362-19.035c-2.671-7.842-11.193-12.036-19.035-9.362C79.698,89.326,45.218,159.429,67.11,223.703
				c2.125,6.239,7.954,10.167,14.197,10.167C82.912,233.87,84.544,233.611,86.146,233.065z" fill="#e6676f"/>
			<path d="M130.078,44.416c7.842-2.671,12.034-11.193,9.363-19.035c-2.672-7.842-11.194-12.036-19.036-9.362
				C27.665,47.606-22.086,148.755,9.503,241.496c2.125,6.239,7.954,10.167,14.197,10.167c1.604,0,3.235-0.259,4.838-0.805
				c7.842-2.671,12.034-11.193,9.362-19.035C11.646,154.742,52.996,70.671,130.078,44.416z" fill="#e6676f"/>
			<path d="M302.806,67.434c-7.843-2.673-16.364,1.521-19.035,9.362c-2.671,7.842,1.521,16.364,9.362,19.035
				c48.616,16.56,74.696,69.583,58.138,118.199c-2.671,7.842,1.52,16.364,9.362,19.035c1.603,0.546,3.234,0.805,4.838,0.805
				c6.243,0,12.072-3.929,14.197-10.167C401.561,159.429,367.08,89.326,302.806,67.434z" fill="#e6676f"/>
			<path d="M428.523,105.788c-20.947-42.587-57.224-74.468-102.149-89.77c-7.843-2.674-16.364,1.52-19.035,9.362
				c-2.671,7.842,1.521,16.364,9.362,19.035c37.34,12.719,67.492,39.216,84.902,74.613c17.41,35.397,19.994,75.455,7.275,112.794
				c-2.671,7.842,1.521,16.364,9.362,19.035c1.603,0.546,3.234,0.805,4.838,0.805c6.243,0,12.072-3.929,14.197-10.167
				C452.578,196.571,449.47,148.375,428.523,105.788z" fill="#e6676f"/>
		</g>
	</g>
</g>
<g>
</g>
<g>
</g>
<g>
</g>
<g>
</g>
<g>
</g>
<g>
</g>
<g>
</g>
<g>
</g>
<g>
</g>
<g>
</g>
<g>
</g>
<g>
</g>
<g>
</g>
<g>
</g>
<g>
</g>
</svg>
