<?xml version="1.0" encoding="UTF-8"?>
<svg id="Layer_1" data-name="Layer 1" xmlns="http://www.w3.org/2000/svg" viewBox="0 0 2000 95">
  <defs>
    <style>
      .cls-1 {
        fill: none;
      }

      .cls-2 {
        fill: #eae6f2;
      }

      .cls-3 {
        fill: #8673b4;
      }

      .cls-4 {
        fill: #d7cee5;
      }

      .cls-5 {
        fill: #644d9e;
      }
    </style>
  </defs>
  <rect class="cls-2" width="2000" height="95"/>
  <g>
    <path class="cls-4" d="M1379.58,.18h-5.41l18.03,7.4-14.33,34.91-4.43-1.82,9.68-23.6-12.07-4.95-1.91-.78-12.07-4.95-9.68,23.6-4.43-1.82L1354.45,.18h-2.22l-11.94,29.1,6.33,2.6,12.07,4.95,1.91,.78,12.07,4.95,6.33,2.6,15.88-38.71-15.3-6.28Zm-20.11,34.75l-10.17-4.17,8.9-21.7,10.17,4.17-8.9,21.7Zm12.08,4.96l-10.17-4.17,8.9-21.7,10.17,4.17-8.9,21.7Z"/>
    <path class="cls-4" d="M1361.61,5.19c.24,.1,.52,.11,.79,0l4.06-1.7,1.67,4c.22,.52,.82,.77,1.34,.55,.52-.22,.77-.82,.55-1.34l-2.07-4.95c-.22-.52-.82-.77-1.34-.55l-5.01,2.1c-.52,.22-.77,.82-.55,1.34,.11,.26,.31,.45,.56,.55Z"/>
    <path class="cls-4" d="M1377.19,11.58c.24,.1,.52,.11,.79,0l5.01-2.1c.52-.22,.77-.82,.55-1.34-.22-.52-.82-.77-1.34-.55l-4.06,1.7-1.67-4c-.22-.52-.82-.77-1.34-.55-.52,.22-.77,.82-.55,1.34l2.07,4.95c.11,.26,.31,.45,.56,.55Z"/>
    <path class="cls-4" d="M844.54,.18l18.03,7.4-14.33,34.91-4.43-1.82,9.68-23.6-12.07-4.95-1.91-.78-12.07-4.95-9.68,23.6-4.43-1.82L824.82,.18h-2.22l-11.94,29.1,6.33,2.6,12.07,4.95,1.91,.78,12.07,4.95,6.33,2.6,15.88-38.71-15.3-6.28h-5.41Zm-14.71,34.75l-10.17-4.17,8.9-21.7,10.17,4.17-8.9,21.7Zm12.08,4.96l-10.17-4.17,8.9-21.7,10.17,4.17-8.9,21.7Z"/>
    <path class="cls-4" d="M831.98,5.19c.24,.1,.52,.11,.79,0l4.06-1.7,1.67,4c.22,.52,.82,.77,1.34,.55,.52-.22,.77-.82,.55-1.34l-2.07-4.95c-.22-.52-.82-.77-1.34-.55l-5.01,2.1c-.52,.22-.77,.82-.55,1.34,.11,.26,.31,.45,.56,.55Z"/>
    <path class="cls-4" d="M847.56,11.58c.24,.1,.52,.11,.79,0l5.01-2.1c.52-.22,.77-.82,.55-1.34-.22-.52-.82-.77-1.34-.55l-4.06,1.7-1.67-4c-.22-.52-.82-.77-1.34-.55-.52,.22-.77,.82-.55,1.34l2.07,4.95c.11,.26,.31,.45,.56,.55Z"/>
    <path class="cls-4" d="M1145.43,8.47l-2.86-3.57-13.73,10.98,2.86,3.57-1.58,1.27-2.86-3.57-14.03,11.23,2.86,3.57-1.69,1.35,23.28,29.1,32.67-26.14-23.28-29.1-1.64,1.31Zm.81,12.65l-1.79,1.43-8.76-3.66,8.48-6.78,2.07,9.01Zm-2.54,3.34l-4.85,3.88-5.85-7.31,.85-.68,9.84,4.11Zm-1.45-16.69l1.28,1.61,.12,.51-10.13,8.1-.55-.23-1.25-1.56,10.53-8.42Zm-10.85,14.54l5.85,7.31-4.38,3.51-2.25-10.18,.79-.63Zm-.57,11.13l-1.89,1.51-8.84-3.6,8.73-6.98,2.01,9.07Zm-3.89-13.42l1.28,1.6,.11,.52-10.41,8.33-.57-.23-1.24-1.55,10.83-8.66Zm-9.66,13.59l.98-.78,9.93,4.04-5.07,4.05-5.85-7.31Zm50.18,2.32l-29.47,23.57-13.58-16.98,29.47-23.57,13.58,16.98Zm-19.19-15.13l-2.33-10.12,.8-.64,5.85,7.31-4.32,3.46Z"/>
    <path class="cls-4" d="M1138.74,55.67l25.04-20.03-9.8-12.25-25.04,20.03,9.8,12.25Zm22.15-20.35l-21.83,17.46-7.23-9.04,21.83-17.46,7.23,9.04Z"/>
    <path class="cls-4" d="M1136.95,47.06c.35,.44,1,.51,1.44,.16l17.37-13.9c.44-.35,.51-1,.16-1.44-.35-.44-1-.51-1.44-.16l-17.37,13.9c-.44,.35-.51,1-.16,1.44Z"/>
    <path class="cls-4" d="M962.7,69.09c-10.99-3.56-22.79,2.46-26.35,13.45-.97,3-1.21,6.06-.85,9h2.08c-.38-2.73-.18-5.58,.72-8.37,3.21-9.9,13.87-15.34,23.77-12.13,8.81,2.86,14.07,11.62,12.86,20.49h2.08c1.21-9.75-4.61-19.3-14.31-22.45Z"/>
    <path class="cls-4" d="M967.37,84.07c1.75-5.39-1.21-11.18-6.6-12.93l-3.7,11.42c-1.22-2.15-3.21-3.88-5.75-4.7-5.39-1.75-11.18,1.21-12.93,6.6l11.42,3.7c-1.42,.81-2.65,1.96-3.56,3.37h2.6c.36-.39,.75-.76,1.18-1.08,.09,.37,.22,.73,.37,1.08h2.26c-.78-1.1-1.06-2.53-.61-3.91,.75-2.31,3.23-3.58,5.55-2.83s3.58,3.23,2.83,5.55c-.14,.44-.36,.83-.62,1.19h8.16l-5.31-1.72c2.15-1.22,3.88-3.21,4.7-5.75Zm-16.88,2.16l-9.27-3c1.96-3.08,5.83-4.58,9.46-3.4,1.71,.55,3.1,1.62,4.08,2.97-1.83,.44-3.43,1.67-4.28,3.44Zm8.51-2.98l3-9.27c3.08,1.96,4.58,5.83,3.4,9.46-.55,1.71-1.62,3.1-2.97,4.08-.44-1.83-1.67-3.43-3.44-4.28Z"/>
    <path class="cls-4" d="M211.81,.18l18.03,7.4-14.33,34.91-4.43-1.82,9.68-23.6-12.07-4.95-1.91-.78-12.07-4.95-9.68,23.6-4.43-1.82L192.09,.18h-2.22l-11.94,29.1,6.33,2.6,12.07,4.95,1.91,.78,12.07,4.95,6.33,2.6,15.88-38.71L217.22,.18h-5.41Zm-14.71,34.75l-10.17-4.17,8.9-21.7,10.17,4.17-8.9,21.7Zm12.08,4.96l-10.17-4.17,8.9-21.7,10.17,4.17-8.9,21.7Z"/>
    <path class="cls-4" d="M199.25,5.19c.24,.1,.52,.11,.79,0l4.06-1.7,1.67,4c.22,.52,.82,.77,1.34,.55,.52-.22,.77-.82,.55-1.34l-2.07-4.95c-.22-.52-.82-.77-1.34-.55l-5.01,2.1c-.52,.22-.77,.82-.55,1.34,.11,.26,.31,.45,.56,.55Z"/>
    <path class="cls-4" d="M214.83,11.58c.24,.1,.52,.11,.79,0l5.01-2.1c.52-.22,.77-.82,.55-1.34-.22-.52-.82-.77-1.34-.55l-4.06,1.7-1.67-4c-.22-.52-.82-.77-1.34-.55-.52,.22-.77,.82-.55,1.34l2.07,4.95c.11,.26,.31,.45,.56,.55Z"/>
    <path class="cls-4" d="M582.73,7.72l-2.86-3.57-13.73,10.98,2.86,3.57-1.58,1.27-2.86-3.57-14.03,11.23,2.86,3.57-1.69,1.35,23.28,29.1,32.67-26.14-23.28-29.1-1.64,1.31Zm.81,12.65l-1.79,1.43-8.76-3.66,8.48-6.78,2.07,9.01Zm-2.54,3.34l-4.85,3.88-5.85-7.31,.85-.68,9.84,4.11Zm-1.45-16.69l1.28,1.61,.12,.51-10.13,8.1-.55-.23-1.25-1.56,10.53-8.42Zm-10.85,14.54l5.85,7.31-4.38,3.51-2.25-10.18,.79-.63Zm-.57,11.13l-1.89,1.51-8.84-3.6,8.73-6.98,2.01,9.07Zm-3.89-13.42l1.28,1.6,.11,.52-10.41,8.33-.57-.23-1.24-1.55,10.83-8.66Zm-9.66,13.59l.98-.78,9.93,4.04-5.07,4.05-5.85-7.31Zm50.18,2.32l-29.47,23.57-13.58-16.98,29.47-23.57,13.58,16.98Zm-19.19-15.13l-2.33-10.12,.8-.64,5.85,7.31-4.32,3.46Z"/>
    <path class="cls-4" d="M576.03,54.92l25.04-20.03-9.8-12.25-25.04,20.03,9.8,12.25Zm22.15-20.35l-21.83,17.46-7.23-9.04,21.83-17.46,7.23,9.04Z"/>
    <path class="cls-4" d="M574.24,46.31c.35,.44,1,.51,1.44,.16l17.37-13.9c.44-.35,.51-1,.16-1.44-.35-.44-1-.51-1.44-.16l-17.37,13.9c-.44,.35-.51,1-.16,1.44Z"/>
    <path class="cls-4" d="M393.52,51.57c-10.99-3.56-22.79,2.46-26.35,13.45-.97,3-1.21,6.06-.85,9h2.08c-.38-2.73-.18-5.58,.72-8.37,3.21-9.9,13.87-15.34,23.77-12.13,8.81,2.86,14.07,11.62,12.86,20.49h2.08c1.21-9.75-4.61-19.3-14.31-22.45Z"/>
    <path class="cls-4" d="M398.2,66.55c1.75-5.39-1.21-11.18-6.6-12.93l-3.7,11.42c-1.22-2.15-3.21-3.88-5.75-4.7-5.39-1.75-11.18,1.21-12.93,6.6l11.42,3.7c-1.42,.81-2.65,1.96-3.56,3.37h2.6c.36-.39,.75-.76,1.18-1.08,.09,.37,.22,.73,.37,1.08h2.26c-.78-1.1-1.06-2.53-.61-3.91,.75-2.31,3.23-3.58,5.55-2.83s3.58,3.23,2.83,5.55c-.14,.44-.36,.83-.62,1.19h8.16l-5.31-1.72c2.15-1.22,3.88-3.21,4.7-5.75Zm-16.88,2.16l-9.27-3c1.96-3.08,5.83-4.58,9.46-3.4,1.71,.55,3.1,1.62,4.08,2.97-1.83,.44-3.43,1.67-4.28,3.44Zm8.51-2.98l3-9.27c3.08,1.96,4.58,5.83,3.4,9.46-.55,1.71-1.62,3.1-2.97,4.08-.44-1.83-1.67-3.43-3.44-4.28Z"/>
  </g>
  <g>
    <path class="cls-1" d="M2.43,95H1562.27c.14-.02,.28-.04,.43-.06l-1560.27,.06Z"/>
    <path class="cls-1" d="M270.98,69.94c64.18,.91,107.86,3.1,156.78,4.86,83.1-4.9,159.72-12.07,233.27-14.05,51.12-1.37,109.73,2.51,183.54,4.46,148.05-17.08,258.91-49.3,347.91-62.39,6.65-.98,13.15-1.92,19.51-2.82H0V95H2.43s123.94-27.1,268.55-25.06Z"/>
    <path class="cls-3" d="M687.01,75.9c56.85-1.15,109.19-5.12,157.57-10.7-73.81-1.95-132.42-5.83-183.54-4.46-73.55,1.97-150.17,9.14-233.27,14.05,61.31,2.2,130.84,3.7,259.24,1.11Z"/>
    <path class="cls-3" d="M844.57,65.21c90.93,2.41,204.95,1.89,356.53-14.98C1350.53,33.6,1455.43,14.22,1520.03,0h-308.04c-6.37,.9-12.86,1.84-19.51,2.82-89,13.08-199.86,45.31-347.91,62.39Z"/>
    <path class="cls-3" d="M427.76,74.79c-48.92-1.75-92.6-3.95-156.78-4.86C126.37,67.9,2.43,95,2.43,95c0,0,157.77-14.39,294.03-15.47,45.72-.36,89.34-2.26,131.3-4.74Z"/>
    <path class="cls-5" d="M1600,0h-79.97c-64.6,14.22-169.5,33.6-318.93,50.23-151.58,16.87-265.6,17.38-356.53,14.98-48.38,5.58-100.71,9.55-157.57,10.7-128.4,2.59-197.93,1.09-259.24-1.11-41.97,2.48-85.58,4.38-131.3,4.74C160.2,80.61,2.43,95,2.43,95l1560.27-.06c9.88-1.39,19.82-2.79,29.77-4.18,2.51-.35,5.02-.7,7.53-1.05,63.13-8.83,125.89-17.46,174.67-23.86,101.52-13.31,181.91,5.18,225.33,19.54V0h-400Z"/>
    <path class="cls-3" d="M1562.7,94.94c-.14,.02-.29,.04-.43,.06h30.2v-.06h-29.77Z"/>
    <path class="cls-3" d="M1592.47,90.76c-9.95,1.39-19.89,2.79-29.77,4.18h29.77v-4.18Z"/>
    <path class="cls-3" d="M1774.67,65.85c-48.78,6.39-111.54,15.03-174.67,23.86v5.23h-7.53v.06h407.53v-9.61c-43.42-14.36-123.81-32.85-225.33-19.54Z"/>
    <path class="cls-3" d="M1600,94.94v-5.23c-2.51,.35-5.02,.7-7.53,1.05v4.18h7.53Z"/>
  </g>
</svg>