<svg width="512" height="512" viewBox="0 0 512 512" xmlns="http://www.w3.org/2000/svg">
 <path d="M505.147 242.79l1.806 2.983 5.047 8.41-4.31 8.81C456.438 367.754 371.66 421 255.988 421c-27.513 0-53.278-2.989-77.261-8.943l30.703-30.66c11.897 1.855 24.278 2.96 37.149 3.32l2.811.067 6.598.064c96.384 0 166.217-40.648 211.735-123.413l1.372-2.521 1.568-3.003-2.389-3.735c-18.08-27.777-38.214-50.715-60.467-68.874l25.706-25.67c26.762 22.429 50.666 50.838 71.634 85.157zM255.553 95c54.986 0 104.008 13.419 146.814 40.029l-26.44 26.344c-33.035-18.832-70.071-28.81-111.271-30.082l-2.588-.068-6.515-.071c-88.658 0-158.28 39.465-210.448 119.864l-1.575 2.448-2.252 3.586 1.575 2.956c30.015 55.265 70.842 91.97 123.144 110.535l-27.945 27.843C81.88 374.09 37.615 330.301 5.862 267.4l-1.549-3.102L0 255.556l4.946-8.402C64.323 146.298 148.483 95 255.553 95zm90.985 162.683c0 49.915-40.54 90.38-90.55 90.38-4.186 0-8.306-.284-12.34-.833l102.05-101.906c.554 4.04.84 8.166.84 12.359zm-90.55-90.38c30.975 0 58.318 15.524 74.644 39.202l-26.37 26.273c-9.039-17.419-27.263-29.323-48.274-29.323-30.005 0-54.33 24.279-54.33 54.228 0 20.937 11.888 39.102 29.294 48.139l-26.37 26.274c-23.648-16.307-39.143-43.554-39.143-74.413 0-49.915 40.54-90.38 90.55-90.38z"/>
    <path d="M472.807 39.351c7.041 7.118 7.008 18.603-.074 25.68L64.744 472.723c-7.054 7.05-18.476 7.034-25.511-.034a18.037 18.037 0 01-.04-.04c-7.041-7.118-7.008-18.603.074-25.68L447.256 39.277c7.054-7.05 18.476-7.034 25.511.034l.04.04z"/>
</svg>
