<svg width="11" height="11" xmlns="http://www.w3.org/2000/svg"><g fill="#000" fill-rule="evenodd" opacity=".5"><path d="M7.954 2.428l.01.08-.12.026-.017.173h.146l.193-.019.1-.119-.106-.041-.058-.067-.088-.141-.041-.2-.165.033-.046.07v.08l.08.054z"/><path d="M7.814 2.494l.009-.108-.096-.041-.135.03-.1.161v.104h.117zM5.042 2.954l-.03.076H4.87v.074h.034l.005.037.088-.008.055-.034.014-.069.071-.006.028-.058-.065-.013h-.057zM4.672 3.088l-.006.073.104-.009.011-.073-.062-.049z"/><path d="M10.914 5.401a5.425 5.425 0 00-.386-1.96 5.464 5.464 0 00-1.4-2.019A5.437 5.437 0 005.46 0a5.436 5.436 0 00-4.32 2.127A5.428 5.428 0 000 5.457a5.464 5.464 0 005.458 5.459 5.462 5.462 0 005.458-5.458l-.002-.057zm-1.027-2.18l.032-.036c.041.08.08.162.117.245l-.051-.002-.098.014V3.22zM9.1 2.267v-.244c.086.09.169.185.248.282l-.098.146-.344-.003-.022-.072.216-.11zm-6.584-.606v-.01h.11l.008-.037h.18v.078l-.052.069h-.246v-.1zm.174.243s.11-.018.12-.018c.009 0 0 .109 0 .109l-.247.015-.047-.056.174-.05zm7.546 2.167h-.4l-.243-.181-.256.025v.156h-.081l-.088-.062-.443-.113V3.61l-.562.044-.174.093h-.224l-.109-.01-.27.15v.283l-.555.4.046.17h.113l-.03.162-.079.03-.004.424.479.545h.208l.012-.033h.375l.108-.1h.212l.117.117.316.033-.042.42.352.62-.185.354.012.167.146.145v.4l.191.258v.333h.165a5.001 5.001 0 01-3.884 1.852 5.014 5.014 0 01-5.009-5.01c0-.694.143-1.357.4-1.96v-.156l.179-.217c.062-.118.129-.232.2-.344l.008.091-.208.253a4.97 4.97 0 00-.179.374v.285l.208.1v.396l.2.34.162.025.02-.116-.19-.296-.038-.287h.112l.048.296.276.403-.071.13.176.27.437.108v-.07l.175.024-.017.125.138.025.212.058.3.342.382.029.038.312-.262.183-.013.279-.037.17.379.475.029.163s.137.037.154.037c.017 0 .308.22.308.22v.858l.104.029-.07.396.174.233-.032.392.23.406.297.259.298.005.03-.096-.22-.184.013-.092.04-.112.008-.114-.148-.005-.075-.094.123-.118.016-.09-.137-.039.008-.083.196-.03.298-.142.1-.184.312-.4-.071-.312.096-.166.287.009.193-.153.062-.603.215-.273.037-.175-.195-.062-.13-.212-.44-.004-.35-.134-.017-.25-.116-.203-.317-.005-.183-.287-.162-.079-.008.088-.296.017-.108-.15-.308-.063-.254.293-.4-.068-.028-.45-.292-.05.117-.22-.034-.128-.383.257-.24-.03-.087-.188.053-.194.133-.245.306-.155h.59l-.001.18.212.099-.017-.308.153-.154.31-.203.02-.143.308-.32.328-.182-.029-.024.222-.209.081.022.037.047.085-.094.02-.009-.092-.013-.094-.031v-.09l.05-.04h.11l.05.021.043.088.053-.008v-.008l.015.005.153-.023.022-.075.088.022v.081l-.081.056.012.09.278.085v.003l.064-.005.005-.12-.22-.101-.013-.058.183-.062.008-.175-.192-.117-.012-.295-.262.129H5.01l.025-.225-.357-.084-.147.111v.34l-.266.085-.106.222-.116.018V2.37l-.25-.035-.124-.081-.05-.184.446-.261.218-.067.022.147.122-.006.01-.074.127-.018.002-.026-.055-.023-.012-.078.156-.013.095-.099.005-.007.03-.029.329-.041.145.123-.381.203.485.115.063-.163h.212l.075-.141-.15-.038v-.178l-.47-.209-.325.038-.183.096.012.233-.191-.03-.03-.128.184-.167-.333-.017-.096.03-.041.112.125.02-.025.125-.212.013-.034.083-.307.009s-.009-.175-.021-.175l.241-.004.183-.18-.1-.05-.133.13-.22-.013-.134-.183h-.283l-.295.22h.27l.025.08-.07.065.3.009.045.108-.337-.013-.016-.083-.213-.046-.112-.062-.253.002A4.98 4.98 0 015.458.449c1.266 0 2.424.473 3.307 1.251l-.06.107-.231.09-.097.106.022.123.12.017.071.18.206-.083.034.24h-.062l-.17-.025-.186.031-.182.256-.259.04-.037.223.11.025-.032.143-.258-.052-.236.052-.05.131.041.276.139.065.232-.002.157-.014.048-.124.245-.319.161.033.16-.144.029.113.391.263-.048.065-.176-.01.068.096.108.024.127-.053-.002-.153.056-.028-.045-.048-.261-.146-.069-.193h.217l.07.068.186.161.008.195.193.206.072-.282.134-.073.026.23.13.144.262-.004c.05.13.095.262.135.397l-.027.025zM2.977 2.48l.131-.063.119.029-.041.159-.128.04-.081-.165zm.696.374v.103h-.3l-.112-.03.028-.073.144-.06h.197v.06h.043zm.137.144v.1l-.074.048-.094.018v-.166h.168zm-.084-.04v-.12l.103.095-.103.024zm.047.24v.097l-.072.072h-.159l.025-.11.075-.006.016-.037.115-.016zm-.396-.2h.165l-.212.297-.088-.047.02-.125.115-.125zm.677.166v.096h-.16l-.043-.062v-.09h.013l.19.056zm-.147-.134l.045-.047.077.047-.061.05-.061-.05zm6.41 1.295l.015-.019.02.086-.036-.067z" fill-rule="nonzero"/><path d="M.849 3.341v.157c.055-.128.115-.252.18-.374l-.18.217z"/></g></svg>