<?xml version="1.0" encoding="UTF-8"?>
<svg width="146px" height="100px" viewBox="0 0 146 100" version="1.1" xmlns="http://www.w3.org/2000/svg" xmlns:xlink="http://www.w3.org/1999/xlink">
    <!-- Generator: Sketch 55.2 (78181) - https://sketchapp.com -->
    <title>Group 17</title>
    <desc>Created with Sketch.</desc>
    <defs>
        <linearGradient x1="50%" y1="6.46622263%" x2="50%" y2="64.5249645%" id="linearGradient-1">
            <stop stop-color="#99ACB9" offset="0%"></stop>
            <stop stop-color="#B3C1CB" offset="27.9376385%"></stop>
            <stop stop-color="#DBE1E6" offset="100%"></stop>
        </linearGradient>
        <linearGradient x1="50%" y1="6.46622263%" x2="50%" y2="64.5249645%" id="linearGradient-2">
            <stop stop-color="#99ACB9" offset="0%"></stop>
            <stop stop-color="#B3C1CB" offset="27.9376385%"></stop>
            <stop stop-color="#DBE1E6" offset="100%"></stop>
        </linearGradient>
        <linearGradient x1="50%" y1="6.46622263%" x2="50%" y2="64.5249645%" id="linearGradient-3">
            <stop stop-color="#99ACB9" offset="0%"></stop>
            <stop stop-color="#B3C1CB" offset="27.9376385%"></stop>
            <stop stop-color="#DBE1E6" offset="100%"></stop>
        </linearGradient>
        <linearGradient x1="50%" y1="6.46622263%" x2="50%" y2="64.5249645%" id="linearGradient-4">
            <stop stop-color="#99ACB9" offset="0%"></stop>
            <stop stop-color="#B3C1CB" offset="27.9376385%"></stop>
            <stop stop-color="#DBE1E6" offset="100%"></stop>
        </linearGradient>
        <linearGradient x1="50%" y1="6.46622263%" x2="50%" y2="64.5249645%" id="linearGradient-5">
            <stop stop-color="#99ACB9" offset="0%"></stop>
            <stop stop-color="#B3C1CB" offset="27.9376385%"></stop>
            <stop stop-color="#DBE1E6" offset="100%"></stop>
        </linearGradient>
        <linearGradient x1="50%" y1="6.46622263%" x2="50%" y2="64.5249645%" id="linearGradient-6">
            <stop stop-color="#99ACB9" offset="0%"></stop>
            <stop stop-color="#B3C1CB" offset="27.9376385%"></stop>
            <stop stop-color="#DBE1E6" offset="100%"></stop>
        </linearGradient>
        <linearGradient x1="50%" y1="6.46622263%" x2="50%" y2="64.5249645%" id="linearGradient-7">
            <stop stop-color="#99ACB9" offset="0%"></stop>
            <stop stop-color="#B3C1CB" offset="27.9376385%"></stop>
            <stop stop-color="#DBE1E6" offset="100%"></stop>
        </linearGradient>
        <linearGradient x1="50%" y1="6.46622263%" x2="50%" y2="64.5249645%" id="linearGradient-8">
            <stop stop-color="#99ACB9" offset="0%"></stop>
            <stop stop-color="#B3C1CB" offset="27.9376385%"></stop>
            <stop stop-color="#DBE1E6" offset="100%"></stop>
        </linearGradient>
        <linearGradient x1="50%" y1="6.46622263%" x2="50%" y2="64.5249645%" id="linearGradient-9">
            <stop stop-color="#99ACB9" offset="0%"></stop>
            <stop stop-color="#B3C1CB" offset="27.9376385%"></stop>
            <stop stop-color="#DBE1E6" offset="100%"></stop>
        </linearGradient>
        <linearGradient x1="50%" y1="6.46622263%" x2="50%" y2="64.5249645%" id="linearGradient-10">
            <stop stop-color="#99ACB9" offset="0%"></stop>
            <stop stop-color="#B3C1CB" offset="27.9376385%"></stop>
            <stop stop-color="#DBE1E6" offset="100%"></stop>
        </linearGradient>
        <linearGradient x1="50%" y1="6.46622263%" x2="50%" y2="64.5249645%" id="linearGradient-11">
            <stop stop-color="#99ACB9" offset="0%"></stop>
            <stop stop-color="#B3C1CB" offset="27.9376385%"></stop>
            <stop stop-color="#DBE1E6" offset="100%"></stop>
        </linearGradient>
        <linearGradient x1="50%" y1="6.46622263%" x2="50%" y2="64.5249645%" id="linearGradient-12">
            <stop stop-color="#99ACB9" offset="0%"></stop>
            <stop stop-color="#B3C1CB" offset="27.9376385%"></stop>
            <stop stop-color="#DBE1E6" offset="100%"></stop>
        </linearGradient>
        <linearGradient x1="50%" y1="6.46622263%" x2="50%" y2="64.5249645%" id="linearGradient-13">
            <stop stop-color="#99ACB9" offset="0%"></stop>
            <stop stop-color="#B3C1CB" offset="27.9376385%"></stop>
            <stop stop-color="#DBE1E6" offset="100%"></stop>
        </linearGradient>
    </defs>
    <g id="Chillers" stroke="none" stroke-width="1" fill="none" fill-rule="evenodd">
        <g id="Desktop-HD-Copy" transform="translate(-1130.000000, -879.000000)">
            <g id="Group-17" transform="translate(1130.000000, 879.000000)">
                <g id="Group-7-Copy-4">
                    <path d="M143.633298,67.2892912 L128.874693,67.2892912 L128.874693,82.2467381 L143.633298,82.2467381 C144.663845,78.9405968 145.177252,76.4416289 145.177252,74.7680147 C145.177252,73.0944004 144.663845,70.5954325 143.633298,67.2892912 Z" id="Path-23-Copy-2" stroke="#474747" fill="url(#linearGradient-1)" transform="translate(137.025972, 74.768015) scale(-1, 1) translate(-137.025972, -74.768015) "></path>
                    <path d="M143.471416,41.3318444 L128.702156,41.3318444 L128.702156,56.2892912 L143.471416,56.2892912 C144.610118,52.9659271 145.177252,50.4659732 145.177252,48.8105678 C145.177252,47.1551625 144.610118,44.6552086 143.471416,41.3318444 Z" id="Path-23-Copy-4" stroke="#474747" fill="url(#linearGradient-2)" transform="translate(136.939704, 48.810568) scale(-1, 1) translate(-136.939704, -48.810568) "></path>
                    <path d="M1.97714046,5.7456325 L25.2574097,28.4295222 L136.343858,28.4295222 L112.701566,5.7456325 L1.97714046,5.7456325 Z" id="Path-33-Copy" stroke="#474747" fill="url(#linearGradient-3)"></path>
                    <path d="M1.27198096,6.40958326 L1.27198096,74.9558865 L24.7112601,98.6361421 L24.7112601,28.8872628 L1.27198096,6.40958326 Z" id="Path-34-Copy" stroke="#474747" fill="url(#linearGradient-4)"></path>
                    <path d="M4.46347032,18.1269103 L4.46347032,69.3640066 L21.5197707,86.9178273 L21.5197707,34.7892793 L4.46347032,18.1269103 Z" id="Path-34-Copy-2" stroke="#474747" fill="url(#linearGradient-5)"></path>
                    <path d="M25.6881333,29.208044 L25.6881333,99.4791524 L137.187962,99.4791524 L137.187962,29.208044 L25.6881333,29.208044 Z" id="Path-35-Copy" stroke="#474747" fill="url(#linearGradient-6)"></path>
                    <path d="M32.071112,33.4633631 L32.071112,95.2238332 L130.804984,95.2238332 L130.804984,33.4633631 L32.071112,33.4633631 Z" id="Path-35-Copy-2" stroke="#474747" fill="url(#linearGradient-7)"></path>
                    <g id="Group-6" transform="translate(44.808511, 0.000000)" stroke="#474747">
                        <path d="M0.971516341,8.79801069 L0.988698513,8.92796046 L0.988698513,17.3444484 L0.971516341,17.4743982 C0.931173575,17.6242885 0.911084547,17.7737099 0.911084547,17.9234385 C0.911084547,21.5928535 12.3819619,24.870247 26.4749143,24.870247 C40.5678668,24.870247 52.0387441,21.5928535 52.0387441,17.9234385 C52.0387441,17.7785422 52.0199313,17.6339503 51.9821659,17.4889509 L51.9660238,17.3629291 L51.9660238,8.90947981 L51.9821659,8.78345796 C52.0199313,8.63845857 52.0387441,8.49386672 52.0387441,8.3489704 C52.0387441,4.67955543 40.5678668,1.40216189 26.4749143,1.40216189 C12.3819619,1.40216189 0.911084547,4.67955543 0.911084547,8.3489704 C0.911084547,8.49869896 0.931173575,8.64812042 0.971516341,8.79801069 Z" id="Combined-Shape-Copy" fill="url(#linearGradient-8)" transform="translate(26.474914, 13.136204) rotate(2.000000) translate(-26.474914, -13.136204) "></path>
                        <ellipse id="Oval" fill="url(#linearGradient-9)" cx="26.5481788" cy="8.44494629" rx="25.5393066" ry="7.39660645"></ellipse>
                    </g>
                    <path d="M32.295336,71.5506325 L131.11506,71.5506325" id="Path-36" stroke="#474747"></path>
                    <path d="M32.295336,73.678292 L131.11506,73.678292" id="Path-36-Copy" stroke="#474747"></path>
                    <path d="M32.295336,83.2527601 L131.11506,83.2527601" id="Path-36-Copy-2" stroke="#474747"></path>
                    <path d="M32.295336,81.1251005 L131.11506,81.1251005" id="Path-36-Copy-3" stroke="#474747"></path>
                    <path d="M6.32965834,33.2573764 L19.4039749,44.5008794" id="Path-37" stroke="#595959" stroke-width="1.5" stroke-linecap="round"></path>
                    <path d="M6.32965834,41.7680147 L19.4039749,53.0115177" id="Path-37-Copy" stroke="#595959" stroke-width="1.5" stroke-linecap="round"></path>
                    <path d="M6.32965834,50.278653 L19.4039749,61.522156" id="Path-37-Copy-2" stroke="#595959" stroke-width="1.5" stroke-linecap="round"></path>
                    <path d="M6.32965834,58.7892912 L19.4039749,70.0327943" id="Path-37-Copy-3" stroke="#595959" stroke-width="1.5" stroke-linecap="round"></path>
                </g>
                <path d="M68.097505,8.54370117 L62.6709876,13.9363407 L77.4229828,13.9363407 L76.647766,8.54370117 L68.097505,8.54370117 Z" id="Rectangle" stroke="#474747" fill="url(#linearGradient-10)"></path>
                <path d="M71.097505,2.54370117 L65.6709876,7.93634074 L80.4229828,7.93634074 L79.647766,2.54370117 L71.097505,2.54370117 Z" id="Rectangle" stroke="#474747" fill="url(#linearGradient-10)" transform="translate(72.729258, 5.240021) scale(-1, -1) translate(-72.729258, -5.240021) "></path>
                <path d="M72.459144,6.01516036 L72.9805524,9.78025413 L91.0124993,11.6715096 L90.1210053,6.01516036 L72.459144,6.01516036 Z" id="Rectangle-Copy-11" stroke="#474747" fill="url(#linearGradient-11)"></path>
                <path d="M51.8994368,5.09692383 L52.3717877,8.1848948 L69.6884151,10.0270793 L70.7060757,5.09692383 L51.8994368,5.09692383 Z" id="Rectangle-Copy-11" stroke="#474747" fill="url(#linearGradient-12)" transform="translate(61.318481, 7.584583) scale(-1, -1) translate(-61.318481, -7.584583) "></path>
                <ellipse id="Oval" stroke="#474747" fill="url(#linearGradient-13)" cx="71.3198242" cy="8.04370117" rx="9.36130915" ry="2.02854081"></ellipse>
            </g>
        </g>
    </g>
</svg>