<svg width="50" height="50" viewBox="0 0 50 50" xmlns="http://www.w3.org/2000/svg"><path d="M24.608 0c.794 0 1.455.567 1.592 1.314l.026.289V4.62l-.005.125c7.215.943 12.787 7.114 12.787 14.587v12.453l7.614 8.624a1.502 1.502 0 01-1.126 2.497h-13.27C31.957 46.868 28.627 50 24.559 50s-7.397-3.13-7.668-7.09v-.005l-13.387.001A1.502 1.502 0 012.35 40.44l7.233-8.655V19.332c0-7.687 5.895-13.996 13.41-14.655l-.004-.057V1.603A1.61 1.61 0 0124.608 0zm4.37 42.906H20.14c.259 2.19 2.138 3.889 4.419 3.889 2.28 0 4.16-1.7 4.418-3.89z" fill="#FFF" fill-rule="evenodd"/></svg>
