<?xml version="1.0" encoding="UTF-8"?>
<svg width="40px" height="40px" viewBox="0 0 40 40" version="1.1" xmlns="http://www.w3.org/2000/svg" xmlns:xlink="http://www.w3.org/1999/xlink">
    <!-- Generator: Sketch 52.6 (67491) - http://www.bohemiancoding.com/sketch -->
    <title>calendar3</title>
    <desc>Created with Sketch.</desc>
    <g id="Page-1" stroke="none" stroke-width="1" fill="none" fill-rule="evenodd">
        <g id="calendar3" fill="#FFFFFF">
            <path d="M36.234375,18.6117187 L36.234375,3.68234375 C36.234375,3.03515625 35.7096875,2.51046875 35.0625,2.51046875 L29.3307031,2.51046875 L29.3307031,1.171875 C29.3307031,0.5246875 28.8060156,0 28.1588281,0 C27.5116406,0 26.9869531,0.5246875 26.9869531,1.171875 L26.9869531,2.51046875 L19.2890625,2.51046875 L19.2890625,1.171875 C19.2890625,0.5246875 18.764375,0 18.1171875,0 C17.47,0 16.9453125,0.5246875 16.9453125,1.171875 L16.9453125,2.51046875 L9.24742188,2.51046875 L9.24742188,1.171875 C9.24742188,0.5246875 8.72273438,0 8.07554688,0 C7.42835937,0 6.90367188,0.5246875 6.90367188,1.171875 L6.90367188,2.51046875 L1.171875,2.51046875 C0.5246875,2.51046875 0,3.03515625 0,3.68234375 L0,35.0625781 C0,35.7097656 0.5246875,36.2344531 1.171875,36.2344531 L18.6117187,36.2344531 C20.8775781,38.5560156 24.0386719,40 27.5311719,40 C34.4064844,40 40,34.4065625 40,27.53125 C40,24.0386719 38.5560156,20.8775781 36.234375,18.6117187 Z M2.34375,4.85421875 L33.890625,4.85421875 L33.890625,10.0417187 L2.34375,10.0417187 L2.34375,4.85421875 Z M2.34375,33.890625 L2.34375,12.3854687 L33.890625,12.3854687 L33.890625,16.8103125 C32.0274219,15.7009375 29.8526563,15.0625 27.53125,15.0625 C20.6560156,15.0625 15.0625,20.6559375 15.0625,27.53125 C15.0625,29.8526563 15.7009375,32.0275 16.8103125,33.890625 L2.34375,33.890625 Z M27.5311719,37.65625 C21.9482812,37.65625 17.4061719,33.1142188 17.4061719,27.53125 C17.4061719,21.9482812 21.9482031,17.40625 27.5311719,17.40625 C33.1141406,17.40625 37.65625,21.9483594 37.65625,27.53125 C37.65625,33.1142188 33.1141406,37.65625 27.5311719,37.65625 Z" id="Shape" fill-rule="nonzero"></path>
            <path d="M31.296875,26.359375 L28.703125,26.359375 L28.703125,23.765625 C28.703125,23.1184375 28.1784375,22.59375 27.53125,22.59375 C26.8840625,22.59375 26.359375,23.1184375 26.359375,23.765625 L26.359375,27.53125 C26.359375,28.1784375 26.8840625,28.703125 27.53125,28.703125 L31.296875,28.703125 C31.9440625,28.703125 32.46875,28.1784375 32.46875,27.53125 C32.46875,26.8840625 31.9440625,26.359375 31.296875,26.359375 Z" id="Path"></path>
        </g>
    </g>
</svg>