<svg viewBox="0 0 50 50" xmlns="http://www.w3.org/2000/svg">
  <path d="M34.648 29.294c6.756 0 11.801 3.23 14.789 9.457L50 39.925l-.66 1.121C45.868 46.946 40.88 50 34.625 50c-6.262 0-11.24-3.085-14.678-9.04l-.647-1.12.564-1.165c2.99-6.178 8.034-9.38 14.784-9.38zM20.98 0c2.052 0 3.804 1.396 4.115 3.287 7.113 1.95 12.257 8.354 12.599 15.888h.813c1.592 0 2.892 1.258 2.98 2.843l.005.171v3.13c0 .789-.633 1.428-1.414 1.428a1.42 1.42 0 01-1.407-1.29l-.007-.138v-3.13c0-.07-.045-.13-.107-.15l-.05-.009H2.985a.157.157 0 00-.15.109l-.007.05v4.427c0 .07.045.13.107.15l.05.008h18.7c.78 0 1.414.64 1.414 1.428 0 .743-.56 1.353-1.278 1.422l-.136.006H8.611v5.145c0 5.756 3.926 10.714 9.394 12.032.76.183 1.229.953 1.048 1.72a1.413 1.413 0 01-1.704 1.058C10.72 47.988 5.935 42.05 5.787 35.106l-.003-.331-.001-5.145H2.985c-1.592 0-2.892-1.258-2.98-2.843L0 26.616v-4.427c0-1.607 1.246-2.921 2.816-3.01l.169-.005h.497C3.836 11.326 9.398 4.74 16.907 3.08 17.306 1.295 19.004 0 20.979 0zm13.67 32.15l-.353.004c-5.366.103-9.259 2.574-11.732 7.454l-.057.113.085.145c2.93 4.872 6.928 7.278 12.033 7.278l.347-.004c4.944-.106 8.846-2.495 11.737-7.22l.08-.132.103.209c-2.518-5.247-6.578-7.847-12.244-7.847zm.167 2.539c2.711 0 4.91 2.22 4.91 4.958 0 2.739-2.199 4.958-4.91 4.958-2.712 0-4.91-2.22-4.91-4.958s2.198-4.958 4.91-4.958zm0 2.856c-1.15 0-2.082.941-2.082 2.102s.932 2.103 2.082 2.103 2.081-.942 2.081-2.103a2.092 2.092 0 00-2.081-2.102zM20.979 2.855c-.772 0-1.335.505-1.335 1.035v6.564l-.006.138a1.42 1.42 0 01-1.408 1.29c-.78 0-1.414-.639-1.414-1.428V6.042c-.926.255-1.814.6-2.653 1.027v7.37c0 .79-.633 1.429-1.414 1.429a1.42 1.42 0 01-1.407-1.29l-.007-.138V8.964a14.488 14.488 0 00-5.023 10.21h28.55a14.495 14.495 0 00-4.202-9.447v4.713c0 .789-.634 1.428-1.415 1.428a1.42 1.42 0 01-1.407-1.29l-.007-.138V7.522a14.13 14.13 0 00-2.689-1.239v4.171l-.006.138a1.42 1.42 0 01-1.407 1.29c-.781 0-1.414-.639-1.414-1.428V3.89l-.007-.099c-.064-.492-.604-.935-1.329-.935z" fill-rule="nonzero"/>
</svg>
