<?xml version="1.0" encoding="UTF-8"?>
<svg width="20px" height="41px" viewBox="0 0 20 41" version="1.1" xmlns="http://www.w3.org/2000/svg" xmlns:xlink="http://www.w3.org/1999/xlink">
    <!-- Generator: Sketch 63.1 (92452) - https://sketch.com -->
    <title>Group 5</title>
    <desc>Created with Sketch.</desc>
    <g id="Page-1" stroke="none" stroke-width="1" fill="none" fill-rule="evenodd">
        <g id="test" transform="translate(-54.000000, -126.000000)" fill="#C2F2FF" stroke="#3BB3D4">
            <g id="Group-5" transform="translate(54.000000, 127.000000)">
                <path d="M0.5,19.9417001 C0.5,20.0928912 0.575953493,20.2390551 0.709168942,20.3525051 L7.24430165,25.9180694 C7.28065758,25.9490311 7.31760997,25.9246785 7.34971909,25.8817717 L7.34971909,23.3464309 L13.0657756,23.3464309 L13.0657756,39.1559269 C13.0657756,39.2430699 13.1153088,39.316768 13.1802711,39.3720917 C13.2766691,39.454187 13.4111061,39.5 13.5569043,39.5 L19.0088713,39.5 C19.1546835,39.5 19.2891203,39.4541983 19.3855139,39.3721068 C19.4504796,39.3167802 19.5,39.2430734 19.5,39.1559269 L19.5,16.8813657 C19.5,16.7942421 19.4504745,16.720558 19.3855196,16.6652446 C19.2891238,16.5831573 19.1546856,16.5373542 19.0088713,16.5373542 L7.41190184,16.5373542 L7.12788392,14.4050437 C6.98920013,14.4931053 6.82688147,14.6027726 6.63655119,14.7363196 C5.57785438,15.4791638 3.7750823,16.9203611 0.5,19.9417001 Z" id="Path" fill-rule="nonzero"></path>
                <path d="M13.1904914,16.9886878 L13.1904914,0.952380952 C13.1904914,0.426395476 13.7102272,0 14.3513538,0 L18.2863786,0 C18.9275052,0 19.447241,0.426395476 19.447241,0.952380952 L19.447241,17.1428571" id="Path"></path>
            </g>
        </g>
    </g>
</svg>