<svg width="15" height="13" xmlns="http://www.w3.org/2000/svg"><g fill-rule="evenodd"><path d="M2.6 12.057a2.903 2.903 0 01-.888-5.288l3.41-2.13a2.903 2.903 0 014 .926.67.67 0 11-1.138.711 1.563 1.563 0 00-2.152-.497L2.413 7.901a1.563 1.563 0 101.657 2.65l2.033-1.26c.424.298.903.51 1.41.625l.086.02-2.811 1.755a2.886 2.886 0 01-2.188.366z"/><path d="M7.763 8.829l-.156-.037a2.774 2.774 0 01-.51-.2l-.11-.06a1.698 1.698 0 01-.115-.07c-.036-.024-.084-.053-.12-.078L6.636 8.3a2.88 2.88 0 01-.678-.752.67.67 0 111.138-.711c.457.73 1.42.952 2.152.496l.896-.558 2.517-1.573a1.57 1.57 0 10-1.665-2.665L8.97 3.811a3.974 3.974 0 00-1.407-.627l-.085-.02 2.81-1.753a2.903 2.903 0 113.075 4.922l-3.41 2.13a2.902 2.902 0 01-1.476.443l-.016-.003-.127-.005-.073-.003-.141-.012-.07-.016-.144-.02-.137-.03-.006.012z"/></g></svg>