<svg viewBox="0 0 100 69" xmlns="http://www.w3.org/2000/svg">
  <g fill="none" fill-rule="evenodd">
    <path fill="#BCBCE2" d="m76.422 49.532-16.677-17v-.783h16.677z"/>
    <path stroke="#7176C4" stroke-linecap="round" stroke-linejoin="round" d="M15.104 33.77h38.459v-6H15.104z"/>
    <path stroke="#DBDBF3" stroke-linecap="round" stroke-linejoin="round" d="M15.104 43.575h46.512v-6H15.104zM15.104 53.378h46.512v-6H15.104z"/>
    <path d="M14.592 19.415a.351.351 0 1 1-.703-.001.351.351 0 0 1 .703 0Z" stroke="#7176C4" stroke-linecap="round" stroke-linejoin="round"/>
    <path d="M17.592 19.415a.351.351 0 1 1-.703-.001.351.351 0 0 1 .703 0ZM20.592 19.415a.351.351 0 1 1-.703-.001.351.351 0 0 1 .703 0Z" stroke="#DBDBF3" stroke-linecap="round" stroke-linejoin="round"/>
    <g stroke="#7176C4" stroke-linecap="round" stroke-linejoin="round">
      <path d="M.5 63.296h85.463M97.334 63.296h-4.27"/>
    </g>
    <path stroke="#7176C4" stroke-linecap="round" stroke-linejoin="round" d="M20.771 68.234h29.111M58.593 68.234h8.892"/>
    <path stroke="#7176C4" d="M57.267 22.737H10.546M76.593 35.372v27.924H10.547V17.853a2 2 0 0 1 2-2H61.11"/>
    <path d="M73.611 27.916a9.35 9.35 0 0 1-.53-.02s-.01.01-.02 0c-.118.02-.236.02-.364.02-3.162 0-5.824-2.574-5.824-5.825 0-3.162 2.662-5.824 5.824-5.824 3.242 0 5.825 2.662 5.825 5.824 0 .206-.01.403-.029.599v.03c0 3.054-1.818 5.196-4.882 5.196m14.566-7.318-2.318-.923a1.136 1.136 0 0 1-.462-.472c-.186-.648-.47-1.198-.746-1.847-.089-.186-.089-.373 0-.647l.01-.03 1.012-2.201c.088-.274 0-.647-.187-.932l-.157-.148-2.249-2.17c-.285-.275-.56-.364-.934-.187l-2.229.934a.84.84 0 0 1-.649 0 11.016 11.016 0 0 0-1.846-.747 1.116 1.116 0 0 1-.47-.462l-.59-1.473-.335-.845a.538.538 0 0 0-.128-.206.802.802 0 0 0-.618-.256h-3.34c-.363 0-.648.187-.736.462l-.934 2.318a1.043 1.043 0 0 1-.462.462c-.647.186-1.208.47-1.856.747-.187.087-.363.087-.648 0l-2.219-.934c-.286-.177-.659-.088-.934.187l-2.318 2.318c-.275.285-.373.658-.187.932l.934 2.23c.088.275.088.462 0 .648-.285.649-.56 1.199-.747 1.847a1.127 1.127 0 0 1-.46.472l-2.32.923c-.285.098-.462.374-.462.747v3.34c0 .254.09.46.237.598.058.07.136.109.225.138l.835.334 1.484.599c.186.088.373.275.461.46.186.65.462 1.298.747 1.858a.828.828 0 0 1 0 .648l-.934 2.22c-.186.373-.088.658.187.934l2.171 2.249.147.157c.275.186.648.284.934.186l2.19-1.011.03-.01c.284-.09.46-.09.647 0 .648.284 1.21.559 1.856.746.187.089.374.275.462.462l.934 2.318c.088.284.373.46.736.46h3.34c.373 0 .647-.176.746-.46l.924-2.318c.098-.187.284-.373.471-.462a10.453 10.453 0 0 0 1.846-.746.838.838 0 0 1 .6-.02l1.886.865h.01l.382.176c.373.098.65 0 .934-.186l2.406-2.406c.187-.276.275-.561.187-.934l-.177-.383v-.01l-.845-1.827a.82.82 0 0 1 0-.648c.275-.56.56-1.208.746-1.857.09-.186.276-.373.462-.461l2.318-.933c.275-.09.461-.373.461-.736v-3.34c0-.373-.186-.65-.46-.747" fill="#DBDBF3"/>
    <path d="M73.034 16.215c3.305 0 5.931 2.71 5.931 5.93a5.894 5.894 0 0 1-5.93 5.93c-3.22 0-5.93-2.626-5.93-5.93 0-3.22 2.71-5.93 5.93-5.93Zm4.108-6.795c.702.2 1.404.5 2.004.802.2.1.501.1.702 0l2.405-1.002c.4-.2.701-.101 1.002.2l2.605 2.505c.2.3.301.7.2 1.002l-1.102 2.405c-.1.3-.1.5 0 .7.301.703.601 1.304.802 2.005.1.2.3.402.501.5l2.504 1.003c.301.1.501.402.501.802v3.607c0 .4-.2.702-.5.802l-2.505 1.002c-.2.1-.4.3-.5.5a12.001 12.001 0 0 1-.803 2.005c-.1.2-.1.5 0 .7l1.102 2.406c.101.4 0 .702-.2 1.002l-2.605 2.606c-.3.2-.602.3-1.002.2l-2.405-1.103a.859.859 0 0 0-.702 0c-.6.3-1.302.602-2.004.802-.2.1-.4.3-.5.5l-1.003 2.506c-.1.3-.4.5-.8.5H71.23c-.4 0-.7-.2-.8-.5l-1.002-2.505c-.1-.2-.3-.4-.5-.501-.704-.2-1.304-.501-2.006-.802-.2-.1-.4-.1-.7 0l-2.406 1.103c-.3.1-.702 0-1.002-.2l-2.506-2.606c-.299-.3-.4-.601-.2-1.002l1.002-2.405a.849.849 0 0 0 0-.701c-.3-.602-.6-1.303-.802-2.004a1.193 1.193 0 0 0-.5-.501l-2.505-1.002c-.3-.1-.5-.401-.5-.802v-3.607c0-.4.2-.701.5-.802l2.504-1.002c.202-.1.402-.301.501-.501.202-.701.501-1.302.802-2.004.101-.2.101-.4 0-.701l-1.002-2.405c-.2-.301-.099-.701.2-1.002l2.506-2.505c.3-.301.701-.4 1.002-.2l2.405 1.002c.3.1.501.1.701 0 .702-.301 1.302-.602 2.005-.802.2-.101.4-.301.501-.501l1.002-2.505c.1-.301.4-.501.8-.501h3.608c.401 0 .701.2.801.5l1.002 2.506c.101.2.301.4.501.5ZM89.218 44.725a2.974 2.974 0 0 1 2.966 2.966 2.948 2.948 0 0 1-2.966 2.965 2.975 2.975 0 0 1-2.965-2.965c0-1.61 1.356-2.966 2.965-2.966Zm2.055-3.397c.35.1.7.251 1.002.401.099.05.25.05.35 0l1.202-.5c.2-.102.35-.052.5.1l1.304 1.251c.1.151.15.351.1.501l-.551 1.203c-.05.15-.05.251 0 .35.15.351.3.652.4 1.002.05.101.152.2.25.251l1.254.501c.15.05.25.2.25.4v1.804c0 .2-.1.351-.25.401l-1.253.502a.597.597 0 0 0-.25.25c-.1.35-.251.701-.401 1.001a.43.43 0 0 0 0 .351l.552 1.202a.585.585 0 0 1-.101.502l-1.303 1.302c-.15.101-.3.15-.501.101l-1.202-.55a.42.42 0 0 0-.35 0c-.301.15-.652.3-1.002.4a.601.601 0 0 0-.251.25l-.501 1.252c-.05.15-.2.251-.401.251h-1.803c-.201 0-.351-.1-.402-.25l-.501-1.253a.605.605 0 0 0-.25-.25c-.35-.1-.651-.25-1.002-.4-.1-.052-.201-.052-.35 0l-1.203.55c-.151.05-.351 0-.501-.1L82.856 52.8c-.151-.15-.2-.3-.101-.502l.5-1.202a.43.43 0 0 0 0-.35c-.15-.3-.3-.652-.4-1.002a.6.6 0 0 0-.25-.25l-1.252-.502c-.151-.05-.251-.2-.251-.4v-1.805c0-.2.1-.35.25-.4l1.253-.5c.1-.052.2-.15.25-.252.1-.35.25-.65.4-1.002.05-.099.05-.2 0-.35l-.5-1.203c-.1-.15-.05-.35.1-.5l1.253-1.253c.15-.15.35-.2.5-.1l1.204.501c.149.05.25.05.35 0 .35-.15.652-.3 1.002-.4.1-.05.2-.152.25-.25l.5-1.254c.052-.15.202-.25.403-.25h1.803c.2 0 .35.1.4.25l.502 1.253c.05.1.15.2.25.25Z" stroke="#7176C4"/>
    <path stroke="#7176C4" stroke-linecap="round" stroke-linejoin="round" d="M17.592 30.77h3.746"/>
    <path stroke="#DBDBF3" stroke-linecap="round" stroke-linejoin="round" d="M24.979 30.77h6.854M34.934 30.77h6.854M45.956 30.77h5.598"/>
    <g stroke="#BCBCE2" stroke-linecap="round" stroke-linejoin="round">
      <path d="M95.443 23.24c2.26-9.795-3.846-19.567-13.64-21.828M98.66 12.279a22.11 22.11 0 0 0-1.289-3.103m-1.21-2.093A22.05 22.05 0 0 0 89.71.647"/>
    </g>
  </g>
</svg>
