<svg xmlns="http://www.w3.org/2000/svg" viewBox="0 0 512 512" fill="#606266">
  <path d="M352.097 137.906a7.508 7.508 0 00-.748-.887 7.588 7.588 0 00-.618-.551c-23.397-24.221-55.966-39.522-92.052-40.246a7.155 7.155 0 00-.674-.035c-.136 0-.268.013-.403.02-.534-.006-1.066-.02-1.601-.02-72.651 0-131.757 59.106-131.757 131.757 0 .268.009.533.01.801-.002.067-.01.133-.01.201 0 .114.012.224.017.337.722 72.037 59.537 130.419 131.74 130.419 72.652 0 131.757-59.106 131.757-131.757-.001-34.788-13.559-66.465-35.661-90.039zM256 344.673c-61.5 0-112.039-47.808-116.415-108.211h9.206a7.516 7.516 0 000-15.03h-9.333c1.494-27.037 12.233-51.645 29.099-70.719l6.615 6.616a7.488 7.488 0 005.313 2.201 7.487 7.487 0 005.313-2.201 7.514 7.514 0 000-10.627l-6.591-6.591c19.248-16.85 44.06-27.489 71.281-28.76v9.385a7.516 7.516 0 0015.03 0v-9.129c26.85 2.177 51.159 13.482 69.816 30.799l-5.712 5.712a7.513 7.513 0 00.001 10.627 7.488 7.488 0 005.313 2.201 7.49 7.49 0 005.314-2.201l5.431-5.431c15.979 19.168 25.936 43.518 26.952 70.122h-10.425a7.515 7.515 0 100 15.03h10.042c-5.338 59.452-55.432 106.207-116.25 106.207z"/>
  <path d="M411.267 215.06C404.694 135.155 337.572 72.141 256 72.141S107.306 135.155 100.733 215.06C43.724 221.054 0 269.034 0 327.139c0 62.154 50.566 112.72 112.72 112.72 42.809 0 81.616-24.148 100.691-62.05a155.723 155.723 0 0085.181.006c19.074 37.898 57.881 62.044 100.688 62.044 62.153 0 112.72-50.566 112.72-112.72 0-58.106-43.724-106.085-100.733-112.079zM112.72 424.83c-53.867 0-97.691-43.824-97.691-97.691 0-49.646 36.826-90.764 85.203-96.893.055 3.697.238 7.384.555 11.058-42.5 5.815-74.737 42.085-74.737 85.836 0 47.789 38.88 86.669 86.669 86.669 31.988 0 61.066-17.538 76.14-45.277a156.389 156.389 0 0010.151 4.425c-16.857 31.751-49.909 51.873-86.29 51.873zM256 368.72c-40.913 0-79.741-17.767-106.527-48.744a7.515 7.515 0 00-11.369 9.831 155.994 155.994 0 0037.523 31.603c-12.47 22.897-36.487 37.37-62.907 37.37-39.502 0-71.64-32.138-71.64-71.64 0-36.145 26.616-66.113 61.714-70.943 3.078 16.716 8.855 32.879 17.167 47.73a7.513 7.513 0 0010.228 2.887 7.515 7.515 0 002.888-10.228c-11.678-20.866-17.851-44.601-17.851-68.641 0-77.624 63.151-140.775 140.775-140.775s140.775 63.151 140.775 140.775c0 23.777-6.044 47.283-17.479 67.978a7.515 7.515 0 0013.155 7.269c8.09-14.641 13.73-30.552 16.758-46.995 35.098 4.829 61.711 34.798 61.711 70.942 0 39.502-32.138 71.64-71.64 71.64-26.417 0-50.432-14.47-62.904-37.363a156.082 156.082 0 0038.032-32.214 7.516 7.516 0 00-11.419-9.773C336.178 350.754 297.182 368.72 256 368.72zm143.28 56.11c-36.38 0-69.432-20.12-86.29-51.873a156.072 156.072 0 0010.152-4.422c15.074 27.737 44.15 45.273 76.138 45.273 47.789 0 86.669-38.88 86.669-86.669 0-43.75-32.237-80.019-74.735-85.835.317-3.673.499-7.361.554-11.058 48.376 6.129 85.202 47.247 85.202 96.892.001 53.868-43.823 97.692-97.69 97.692z"/>
  <path d="M433.955 337.582l-31.061-17.033a7.515 7.515 0 10-7.227 13.179l31.061 17.033a7.515 7.515 0 0010.203-2.976 7.517 7.517 0 00-2.976-10.203zM118.612 322.475a7.513 7.513 0 00-10.556-1.227l-24.047 19.037a7.515 7.515 0 009.329 11.785l24.047-19.037a7.517 7.517 0 001.227-10.558zM298.419 271.53h-84.838c-10.588 0-19.202 8.614-19.202 19.201v8.69c0 10.588 8.614 19.201 19.202 19.201h84.838c10.588 0 19.202-8.614 19.202-19.201v-8.69c-.001-10.587-8.614-19.201-19.202-19.201zm4.172 27.891a4.177 4.177 0 01-4.172 4.172h-84.838a4.177 4.177 0 01-4.172-4.172v-8.69c0-2.3 1.872-4.172 4.172-4.172h84.838c2.3 0 4.172 1.872 4.172 4.172v8.69zM335.188 200.946a7.513 7.513 0 00-9.537-4.686l-52.969 18.058c-5.534-6.759-14.893-9.744-23.633-6.763-11.243 3.833-17.271 16.098-13.438 27.341 3.05 8.947 11.441 14.591 20.407 14.591 2.3 0 4.638-.372 6.934-1.154 8.743-2.981 14.329-11.06 14.581-19.792l52.967-18.058a7.513 7.513 0 004.688-9.537zm-73.344 29.872a6.47 6.47 0 01-3.742 3.291 6.475 6.475 0 01-4.975-.32 6.472 6.472 0 01-3.291-3.743 6.468 6.468 0 01.32-4.974 6.472 6.472 0 013.743-3.291 6.546 6.546 0 012.107-.352 6.49 6.49 0 012.867.671 6.472 6.472 0 013.291 3.743 6.461 6.461 0 01-.32 4.975z"/>
</svg>
