<?xml version="1.0" encoding="UTF-8"?>
<svg width="14px" height="15px" viewBox="0 0 14 15" version="1.1" xmlns="http://www.w3.org/2000/svg" xmlns:xlink="http://www.w3.org/1999/xlink">
    <!-- Generator: Sketch 49.1 (51147) - http://www.bohemiancoding.com/sketch -->
    <title>Combined Shape</title>
    <desc>Created with Sketch.</desc>
    <defs></defs>
    <g id="Page-1" stroke="none" stroke-width="1" fill="none" fill-rule="evenodd">
        <g id="Artboard-4" transform="translate(-8.000000, -8.000000)" fill="#ffffff">
            <path d="M22,16.392 L16.5746102,16.392 L13.4253898,16.392 L8,16.392 L8,14 L13.4253898,14 L16.5746102,14 L22,14 L22,16.392 Z M15,12 C13.8954305,12 13,11.1045695 13,10 C13,8.8954305 13.8954305,8 15,8 C16.1045695,8 17,8.8954305 17,10 C17,11.1045695 16.1045695,12 15,12 Z M15,23 C13.8954305,23 13,22.1045695 13,21 C13,19.8954305 13.8954305,19 15,19 C16.1045695,19 17,19.8954305 17,21 C17,22.1045695 16.1045695,23 15,23 Z" id="Combined-Shape"></path>
        </g>
    </g>
</svg>
