<?xml version="1.0" encoding="UTF-8"?>
<svg width="421px" height="525px" viewBox="0 0 421 525" version="1.1" xmlns="http://www.w3.org/2000/svg" xmlns:xlink="http://www.w3.org/1999/xlink">
    <title>Group 5</title>
    <g id="Page-1" stroke="none" stroke-width="1" fill="none" fill-rule="evenodd">
        <g id="Group-5" transform="translate(0.829000, 0.000000)" fill="#6B7E91" fill-rule="nonzero">
            <path d="M26.25,489.999 L26.25,498.749 C26.25,505.7099 29.0156,512.39 33.9375,517.311 C38.8594,522.232 45.5395,524.9985 52.4995,524.9985 L367.4995,524.9985 C374.4604,524.9985 381.1405,522.2329 386.0615,517.311 C390.9825,512.3891 393.749,505.709 393.749,498.749 L393.749,489.999 C400.7099,489.999 407.39,487.2334 412.311,482.3115 C417.232,477.3896 419.9985,470.7095 419.9985,463.7495 L419.9985,323.7495 C419.9985,316.7886 417.2329,310.1085 412.311,305.1875 C407.3891,300.2665 400.709,297.5 393.749,297.5 L393.749,110.16 L283.589,0 L52.499,0 C45.5381,0 38.858,2.7656 33.937,7.6875 C29.016,12.6094 26.2495,19.2895 26.2495,26.2495 L26.2495,297.4995 C19.2886,297.4995 12.6085,300.2651 7.6875,305.187 C2.7665,310.1089 0,316.789 0,323.749 L0,463.749 C0,470.7099 2.7656,477.39 7.6875,482.311 C12.6094,487.232 19.2895,489.9985 26.2495,489.9985 L26.25,489.999 Z M376.25,498.749 C376.25,501.0693 375.32812,503.2959 373.6875,504.9365 C372.04688,506.5771 369.8203,507.499 367.5,507.499 L52.5,507.499 C47.668,507.499 43.75,503.581 43.75,498.749 L43.75,489.999 L376.25,489.999 L376.25,498.749 Z M288.75,29.839 L363.914,105.003 L288.75,105.003 L288.75,29.839 Z M43.75,26.2531 C43.75,21.4211 47.668,17.5031 52.5,17.5031 L271.25,17.5031 L271.25,122.5031 L376.25,122.5031 L376.25,297.5031 L43.75,297.5031 L43.75,26.2531 Z M17.5,323.7531 C17.5,318.9211 21.418,315.0031 26.25,315.0031 L393.75,315.0031 C396.0703,315.0031 398.2969,315.92498 399.9375,317.5656 C401.5781,319.20622 402.5,321.4328 402.5,323.7531 L402.5,463.7531 C402.5,466.0734 401.57812,468.3 399.9375,469.9406 C398.29688,471.5812 396.0703,472.5031 393.75,472.5031 L26.25,472.5031 C21.418,472.5031 17.5,468.5851 17.5,463.7531 L17.5,323.7531 Z" id="Shape"></path>
            <path d="M87.5,209.999 L332.5,209.999 C337.332,209.999 341.25,206.081 341.25,201.249 C341.25,196.417 337.332,192.499 332.5,192.499 L87.5,192.499 C82.668,192.499 78.75,196.417 78.75,201.249 C78.75,206.081 82.668,209.999 87.5,209.999 Z" id="Path"></path>
            <path d="M332.5,244.999 L87.5,244.999 C82.668,244.999 78.75,248.917 78.75,253.749 C78.75,258.581 82.668,262.499 87.5,262.499 L332.5,262.499 C337.332,262.499 341.25,258.581 341.25,253.749 C341.25,248.917 337.332,244.999 332.5,244.999 Z" id="Path"></path>
            <path d="M54.51,447.819 C59.3108,450.0417 64.846,450.0417 69.647,447.819 C71.7212,446.99088 73.0767,444.9792 73.0611,442.7448 L73.0611,404.5968 L101.0611,404.5968 L101.0611,442.7448 C101.033756,445.0065 102.4361,447.0417 104.5611,447.819 C109.3228,450.0885 114.8501,450.0885 119.6121,447.819 C121.6863,446.99088 123.0379,444.9792 123.0223,442.7448 L123.0223,353.1428 C123.065268,350.9045 121.702,348.8772 119.6121,348.0686 C114.7918,346.0842 109.3821,346.0842 104.5611,348.0686 C102.4205,348.82641 101.0064,350.8733 101.0611,353.1428 L101.0611,388.1428 L73.0611,388.1428 L73.0611,353.1428 C73.100162,350.9045 71.7369,348.8772 69.647,348.0686 C64.7954,346.092 59.362,346.092 54.51,348.0686 C52.4202,348.87719 51.0569,350.9045 51.0998,353.1428 L51.0998,442.7448 C51.084176,444.9792 52.4357,446.9909 54.51,447.819 L54.51,447.819 Z" id="Path"></path>
            <path d="M138.43,366.269 L157.504,366.269 L157.504,442.746 C157.488375,444.9804 158.8438,446.9921 160.9181,447.8202 C165.6759,450.0897 171.2071,450.0897 175.9651,447.8202 C178.0901,447.04286 179.4924,445.0077 179.4651,442.746 L179.4651,366.269 L198.8911,366.269 C200.9692,366.335406 202.8911,365.1713 203.7934,363.2963 C204.9926,361.1596 205.5981,358.7455 205.5434,356.2963 C205.551213,353.9838 205.00824,351.7065 203.9653,349.644 C203.05124,347.6948 201.0473,346.4838 198.8911,346.5815 L138.4301,346.5815 C136.2739,346.483843 134.2699,347.6948 133.3559,349.644 C131.1997,353.9409 131.1997,358.9995 133.3559,363.296 C134.31293,365.1983 136.3012,366.3624 138.4301,366.2687 L138.43,366.269 Z" id="Path"></path>
            <path d="M233.101,447.819 C235.0698,446.90884 236.308,444.9128 236.2494,442.7448 L236.2494,388.4948 L249.6364,412.9948 C250.27702,414.4089 251.3903,415.5534 252.7887,416.2331 C253.9528,416.81904 255.2457,417.11982 256.5504,417.1081 C257.9137,417.127631 259.2613,416.82685 260.4879,416.2331 C261.9606,415.57294 263.1637,414.4323 263.8981,412.9948 L277.3751,389.8928 L277.3751,442.3928 C277.347756,444.6584 278.7501,446.6897 280.8751,447.4709 C285.6368,449.7365 291.1641,449.7365 295.9261,447.4709 C298.0003,446.64278 299.3519,444.6271 299.3363,442.3928 L299.3363,357.5178 C299.75036,354.2326 298.50427,350.9514 296.0121,348.7678 C293.8129,347.1428 291.1371,346.2795 288.3988,346.3186 C286.6527,346.21704 284.8988,346.21704 283.1488,346.3186 C281.6918,346.46704 280.2855,346.9436 279.0394,347.7209 C277.6019,348.59981 276.3285,349.7248 275.2738,351.0451 C273.7816,352.9045 272.4652,354.8928 271.3363,356.9943 L256.8133,382.3693 L242.3753,356.9943 C241.1917,354.9084 239.8441,352.9201 238.3519,351.0451 C237.3285,349.7287 236.0863,348.6037 234.6761,347.7209 C233.3909,346.95528 231.9613,346.4787 230.4769,346.3186 C228.7542,346.220943 227.0316,346.220943 225.3128,346.3186 C223.9261,346.314693 222.5433,346.49438 221.1995,346.84594 C219.9026,347.20922 218.7034,347.86544 217.6995,348.76784 C216.6175,349.68971 215.7776,350.86164 215.2503,352.18194 C214.58624,353.79134 214.25811,355.51784 214.28936,357.25614 L214.28936,442.74414 C214.297173,445.07614 215.82056,447.13084 218.05106,447.81834 C222.8078,450.0885 228.339,450.0885 233.101,447.819 Z" id="Path"></path>
            <path d="M317.8,447.819 C319.8273,448.9596 322.1242,449.5338 324.4484,449.4831 L368.8974,449.4831 C370.9599,449.561225 372.8583,448.3854 373.7099,446.5065 C374.7529,444.4792 375.2646,442.2213 375.1982,439.944 C375.256793,437.6393 374.74898,435.3542 373.7099,433.2956 C372.84271,431.4323 370.9521,430.2644 368.8974,430.319 L336.7884,430.319 L336.7884,353.143 C336.827463,350.9047 335.4642,348.8774 333.3743,348.0688 C330.9876,347.08442 328.4329,346.5766 325.8509,346.579724 C323.265,346.557062 320.7064,347.06487 318.3236,348.0688 C316.183,348.82661 314.7689,350.8735 314.8236,353.143 L314.8236,442.745 C314.733756,444.8739 315.8978,446.8583 317.8002,447.8192 L317.8,447.819 Z" id="Path"></path>
        </g>
    </g>
</svg>