<?xml version="1.0" encoding="UTF-8"?>
<svg id="Layer_1" data-name="Layer 1" xmlns="http://www.w3.org/2000/svg" viewBox="0 0 1660 250">
  <defs>
    <style>
      .cls-1 {
        fill: #f8f9fd;
      }

      .cls-2 {
        fill: #b5c8f7;
      }

      .cls-3 {
        fill: #e1e8f9;
      }

      .cls-4 {
        fill: #838389;
      }
    </style>
  </defs>
  <polygon class="cls-1" points="417.13 170.11 389.21 170.11 399.71 210.98 435.42 210.98 445.07 170.11 417.13 170.11"/>
  <path class="cls-1" d="M435.67,133.67c1.57-4.12,.24-6.95-1.44-10.53-1.81-3.85-3.86-8.2-2.86-15.18,.65-4.52,1.76-7.8,2.65-10.43,1.76-5.19,2.82-8.33-1.03-15.87-3.75-7.36-7.21-12.56-11.87-13.98-.86-.26-1.75-.39-2.69-.39-2.36,0-4.99,.82-7.97,2.48-6.35,3.53-8.39,11.33-8.98,17.25-.65,6.46,.05,14.29,1.87,20.93,1.47,5.4-.61,10.08-2.62,14.61-2.29,5.15-4.45,10.02-1.1,15.55,4.63,7.64,12.6,9.88,16.5,10.53v-42.06c0-.55,.45-1,1-1s1,.45,1,1v42.32s.05,0,.07,0c1.81-.87,14.4-7.18,17.47-15.23Z"/>
  <path class="cls-1" d="M1354.12,202.61V88.98c0-3.45-1.98-6.42-5.17-7.74-1.07-.44-2.17-.66-3.26-.66-2.16,0-4.25,.85-5.87,2.47l-113.63,113.63c-2.44,2.44-3.14,5.94-1.82,9.13,1.32,3.19,4.29,5.17,7.74,5.17h113.63c4.62,0,8.38-3.76,8.38-8.38Z"/>
  <polygon class="cls-3" points="882.72 175.44 901.75 175.44 882.18 145.66 847.14 145.66 866.71 175.44 882.72 175.44"/>
  <path class="cls-1" d="M824.08,176.81c-.19,.27-.49,.43-.82,.43h-80.59v23.22c0,5.81,4.72,10.53,10.53,10.53h91.08v-62.96l-20.21,28.79Z"/>
  <path class="cls-3" d="M881.72,205v-27.55h-15.55c-.34,0-.65-.17-.84-.45l-19.05-28.99v62.98h29.44c3.3,0,5.99-2.69,5.99-5.99Z"/>
  <polygon class="cls-1" points="822.75 175.24 843.36 145.86 742.68 145.86 742.2 145.86 740.68 148.03 721.58 175.24 740.68 175.24 742.68 175.24 822.75 175.24"/>
  <g>
    <path class="cls-4" d="M656.56,130.8v-12.01h2.11v12.01h-2.11Z"/>
    <path class="cls-4" d="M661.55,128.78v-5.02h-1.44v-1.66h1.44v-2.38h1.89v2.38h1.76v1.66h-1.76v4.56c0,.59,.29,1.03,.83,1.03,.36,0,.7-.14,.85-.31l.45,1.42c-.34,.32-.9,.56-1.78,.56-1.46,0-2.23-.79-2.23-2.23Z"/>
    <path class="cls-4" d="M671.54,130.8v-12.01h1.89v12.01h-1.89Z"/>
    <path class="cls-4" d="M675.34,126.44c0-2.48,1.71-4.56,4.46-4.56s4.48,2.07,4.48,4.56-1.69,4.57-4.48,4.57-4.46-2.07-4.46-4.57Zm6.99,0c0-1.53-.9-2.88-2.52-2.88s-2.5,1.35-2.5,2.88,.9,2.9,2.5,2.9,2.52-1.35,2.52-2.9Z"/>
    <path class="cls-4" d="M685.65,126.44c0-2.48,1.71-4.56,4.46-4.56s4.48,2.07,4.48,4.56-1.69,4.57-4.48,4.57-4.46-2.07-4.46-4.57Zm6.99,0c0-1.53-.9-2.88-2.52-2.88s-2.5,1.35-2.5,2.88,.9,2.9,2.5,2.9,2.52-1.35,2.52-2.9Z"/>
    <path class="cls-4" d="M702.27,130.8l-2.67-3.58-1.21,1.24v2.34h-1.89v-12.01h1.89v7.51l3.83-4.2h2.34l-3.62,3.94,3.69,4.75h-2.38Z"/>
    <path class="cls-4" d="M705.9,128.29c.61,.63,1.82,1.22,2.95,1.22s1.71-.41,1.71-1.06c0-.76-.92-1.03-1.98-1.26-1.5-.32-3.28-.72-3.28-2.66,0-1.42,1.22-2.65,3.42-2.65,1.48,0,2.59,.52,3.38,1.22l-.79,1.33c-.52-.59-1.49-1.04-2.58-1.04-.99,0-1.62,.36-1.62,.97,0,.67,.86,.9,1.89,1.13,1.51,.32,3.37,.76,3.37,2.81,0,1.53-1.28,2.7-3.62,2.7-1.48,0-2.83-.47-3.73-1.35l.86-1.37Z"/>
    <path class="cls-4" d="M718.92,130.8v-12.01h1.89v12.01h-1.89Z"/>
    <path class="cls-4" d="M723.02,119.49c0-.65,.54-1.17,1.17-1.17s1.17,.52,1.17,1.17-.52,1.17-1.17,1.17-1.17-.52-1.17-1.17Zm.23,11.31v-8.7h1.89v8.7h-1.89Z"/>
    <path class="cls-4" d="M733.35,130.8l-2.67-3.58-1.21,1.24v2.34h-1.89v-12.01h1.89v7.51l3.83-4.2h2.34l-3.62,3.94,3.69,4.75h-2.38Z"/>
    <path class="cls-4" d="M740.48,121.88c2.61,0,4.29,2,4.29,4.74v.45h-6.72c.14,1.31,1.13,2.4,2.77,2.4,.85,0,1.85-.34,2.47-.96l.86,1.24c-.86,.83-2.14,1.26-3.53,1.26-2.61,0-4.55-1.82-4.55-4.57,0-2.52,1.84-4.56,4.41-4.56Zm-2.45,3.85h4.9c-.04-1.03-.74-2.3-2.45-2.3-1.62,0-2.36,1.24-2.45,2.3Z"/>
    <path class="cls-4" d="M751.17,132.51c.2,.09,.5,.14,.72,.14,.59,0,.99-.18,1.24-.76l.43-.99-3.57-8.8h2.02l2.54,6.52,2.54-6.52h2.04l-4.2,10.26c-.59,1.48-1.64,1.94-2.99,1.96-.27,0-.79-.05-1.06-.13l.29-1.69Z"/>
    <path class="cls-4" d="M759.78,126.44c0-2.48,1.71-4.56,4.46-4.56s4.48,2.07,4.48,4.56-1.69,4.57-4.48,4.57-4.46-2.07-4.46-4.57Zm6.99,0c0-1.53-.9-2.88-2.52-2.88s-2.5,1.35-2.5,2.88,.9,2.9,2.5,2.9,2.52-1.35,2.52-2.9Z"/>
    <path class="cls-4" d="M776.5,130.8v-1.15c-.63,.7-1.71,1.37-3.08,1.37-1.87,0-2.79-.97-2.79-2.75v-6.16h1.89v5.47c0,1.35,.68,1.76,1.75,1.76,.95,0,1.78-.54,2.23-1.13v-6.1h1.89v8.7h-1.89Z"/>
    <path class="cls-4" d="M791.35,130.8v-5.47c0-1.35-.7-1.76-1.76-1.76-.95,0-1.78,.58-2.23,1.17v6.07h-1.89v-12.01h1.89v4.5c.58-.68,1.71-1.41,3.08-1.41,1.87,0,2.81,.97,2.81,2.75v6.16h-1.89Z"/>
    <path class="cls-4" d="M801,130.8v-.94c-.65,.74-1.66,1.15-2.81,1.15-1.42,0-3.03-.95-3.03-2.88s1.6-2.83,3.03-2.83c1.17,0,2.18,.38,2.81,1.12v-1.3c0-1.01-.83-1.62-2.04-1.62-.97,0-1.82,.36-2.57,1.1l-.77-1.31c1.01-.96,2.27-1.41,3.66-1.41,1.93,0,3.62,.81,3.62,3.15v5.76h-1.89Zm0-3.29c-.43-.59-1.24-.9-2.07-.9-1.06,0-1.85,.61-1.85,1.57s.79,1.55,1.85,1.55c.83,0,1.64-.31,2.07-.9v-1.31Z"/>
    <path class="cls-4" d="M807.62,130.8l-3.55-8.7h2.02l2.54,6.52,2.54-6.52h2.04l-3.55,8.7h-2.04Z"/>
    <path class="cls-4" d="M818.26,121.88c2.61,0,4.29,2,4.29,4.74v.45h-6.72c.14,1.31,1.13,2.4,2.77,2.4,.85,0,1.85-.34,2.47-.96l.86,1.24c-.86,.83-2.14,1.26-3.53,1.26-2.61,0-4.55-1.82-4.55-4.57,0-2.52,1.84-4.56,4.41-4.56Zm-2.45,3.85h4.9c-.04-1.03-.74-2.3-2.45-2.3-1.62,0-2.36,1.24-2.45,2.3Z"/>
    <path class="cls-4" d="M834.91,130.8v-5.44c0-1.35-.68-1.8-1.75-1.8-.97,0-1.8,.58-2.23,1.17v6.07h-1.89v-8.7h1.89v1.19c.58-.68,1.69-1.41,3.06-1.41,1.87,0,2.81,1.01,2.81,2.79v6.12h-1.89Z"/>
    <path class="cls-4" d="M838.7,126.44c0-2.48,1.71-4.56,4.46-4.56s4.48,2.07,4.48,4.56-1.69,4.57-4.48,4.57-4.46-2.07-4.46-4.57Zm6.99,0c0-1.53-.9-2.88-2.52-2.88s-2.5,1.35-2.5,2.88,.9,2.9,2.5,2.9,2.52-1.35,2.52-2.9Z"/>
    <path class="cls-4" d="M849.94,128.78v-5.02h-1.44v-1.66h1.44v-2.38h1.89v2.38h1.76v1.66h-1.76v4.56c0,.59,.29,1.03,.83,1.03,.36,0,.7-.14,.85-.31l.45,1.42c-.34,.32-.9,.56-1.78,.56-1.46,0-2.23-.79-2.23-2.23Z"/>
    <path class="cls-4" d="M861.19,130.8v-5.47c0-1.35-.7-1.76-1.77-1.76-.95,0-1.78,.58-2.23,1.17v6.07h-1.89v-12.01h1.89v4.5c.58-.68,1.71-1.41,3.08-1.41,1.87,0,2.81,.97,2.81,2.75v6.16h-1.89Z"/>
    <path class="cls-4" d="M865.29,119.49c0-.65,.54-1.17,1.17-1.17s1.17,.52,1.17,1.17-.52,1.17-1.17,1.17-1.17-.52-1.17-1.17Zm.23,11.31v-8.7h1.89v8.7h-1.89Z"/>
    <path class="cls-4" d="M875.73,130.8v-5.44c0-1.35-.68-1.8-1.75-1.8-.97,0-1.8,.58-2.23,1.17v6.07h-1.89v-8.7h1.89v1.19c.58-.68,1.69-1.41,3.06-1.41,1.87,0,2.81,1.01,2.81,2.79v6.12h-1.89Z"/>
    <path class="cls-4" d="M880.84,131.66c.7,.81,1.6,1.12,2.75,1.12,1.24,0,2.57-.58,2.57-2.36v-1.04c-.67,.86-1.66,1.44-2.79,1.44-2.21,0-3.85-1.6-3.85-4.46s1.62-4.47,3.85-4.47c1.1,0,2.09,.5,2.79,1.42v-1.21h1.89v8.25c0,3.13-2.32,3.98-4.46,3.98-1.48,0-2.57-.32-3.64-1.3l.88-1.37Zm5.33-6.93c-.41-.65-1.35-1.17-2.23-1.17-1.49,0-2.45,1.12-2.45,2.79s.96,2.79,2.45,2.79c.88,0,1.82-.52,2.23-1.17v-3.24Z"/>
    <path class="cls-4" d="M901.25,130.8v-1.19c-.67,.86-1.67,1.4-2.79,1.4-2.23,0-3.87-1.69-3.87-4.55s1.62-4.57,3.87-4.57c1.08,0,2.09,.5,2.79,1.42v-4.52h1.89v12.01h-1.89Zm0-6.07c-.43-.65-1.35-1.17-2.25-1.17-1.49,0-2.45,1.21-2.45,2.9s.96,2.88,2.45,2.88c.9,0,1.82-.5,2.25-1.15v-3.46Z"/>
    <path class="cls-4" d="M911.46,130.8v-1.15c-.63,.7-1.71,1.37-3.08,1.37-1.87,0-2.79-.97-2.79-2.75v-6.16h1.89v5.47c0,1.35,.68,1.76,1.75,1.76,.96,0,1.78-.54,2.23-1.13v-6.1h1.89v8.7h-1.89Z"/>
    <path class="cls-4" d="M919.67,121.88c2.61,0,4.29,2,4.29,4.74v.45h-6.72c.14,1.31,1.13,2.4,2.77,2.4,.85,0,1.85-.34,2.47-.96l.86,1.24c-.86,.83-2.14,1.26-3.53,1.26-2.61,0-4.55-1.82-4.55-4.57,0-2.52,1.84-4.56,4.41-4.56Zm-2.45,3.85h4.9c-.04-1.03-.74-2.3-2.45-2.3-1.62,0-2.36,1.24-2.45,2.3Z"/>
    <path class="cls-4" d="M930.83,128.78v-5.02h-1.44v-1.66h1.44v-2.38h1.89v2.38h1.76v1.66h-1.76v4.56c0,.59,.29,1.03,.83,1.03,.36,0,.7-.14,.85-.31l.45,1.42c-.34,.32-.9,.56-1.78,.56-1.46,0-2.23-.79-2.23-2.23Z"/>
    <path class="cls-4" d="M935.65,126.44c0-2.48,1.71-4.56,4.46-4.56s4.48,2.07,4.48,4.56-1.69,4.57-4.48,4.57-4.46-2.07-4.46-4.57Zm6.98,0c0-1.53-.9-2.88-2.52-2.88s-2.5,1.35-2.5,2.88,.9,2.9,2.5,2.9,2.52-1.35,2.52-2.9Z"/>
    <path class="cls-4" d="M952.63,130.8v-1.19c-.67,.86-1.68,1.4-2.79,1.4-2.23,0-3.87-1.69-3.87-4.55s1.62-4.57,3.87-4.57c1.08,0,2.09,.5,2.79,1.42v-4.52h1.89v12.01h-1.89Zm0-6.07c-.43-.65-1.35-1.17-2.25-1.17-1.49,0-2.45,1.21-2.45,2.9s.96,2.88,2.45,2.88c.9,0,1.82-.5,2.25-1.15v-3.46Z"/>
    <path class="cls-4" d="M962.27,130.8v-.94c-.65,.74-1.66,1.15-2.81,1.15-1.42,0-3.03-.95-3.03-2.88s1.6-2.83,3.03-2.83c1.17,0,2.18,.38,2.81,1.12v-1.3c0-1.01-.83-1.62-2.04-1.62-.97,0-1.82,.36-2.57,1.1l-.77-1.31c1.01-.96,2.27-1.41,3.65-1.41,1.93,0,3.62,.81,3.62,3.15v5.76h-1.89Zm0-3.29c-.43-.59-1.24-.9-2.07-.9-1.06,0-1.86,.61-1.86,1.57s.79,1.55,1.86,1.55c.83,0,1.64-.31,2.07-.9v-1.31Z"/>
    <path class="cls-4" d="M966.52,132.51c.2,.09,.5,.14,.72,.14,.59,0,.99-.18,1.24-.76l.43-.99-3.56-8.8h2.02l2.54,6.52,2.54-6.52h2.04l-4.2,10.26c-.59,1.48-1.64,1.94-2.99,1.96-.27,0-.79-.05-1.06-.13l.29-1.69Z"/>
  </g>
  <path class="cls-1" d="M915.49,54.98c-.2,.07-.4,.15-.59,.23-.32,.13-.63,.27-.94,.41-.18,.08-.36,.17-.54,.26-.32,.16-.62,.33-.92,.5-.14,.08-.29,.16-.42,.24-.42,.26-.82,.53-1.19,.81-2.36,1.8-3.52,3.9-3.11,5.62,.36,1.5,1.86,2.68,4.22,3.33,2.57,.7,5.76,.65,9-.14,3.24-.79,6.1-2.21,8.06-4.01,1.8-1.65,2.59-3.39,2.23-4.89-.3-1.24-1.32-2.06-2.36-2.6-.04,.12-.09,.23-.14,.35-.05,.13-.1,.26-.15,.38-.06,.14-.12,.28-.19,.42-.06,.12-.11,.25-.17,.37-.06,.13-.13,.26-.2,.39-.06,.12-.12,.24-.18,.35-.07,.12-.14,.23-.2,.35-.07,.11-.13,.23-.2,.34-.07,.11-.14,.21-.21,.31-.07,.11-.15,.22-.22,.33-.07,.09-.14,.18-.21,.27-.08,.11-.16,.21-.24,.32-.07,.08-.14,.16-.21,.24-.09,.1-.18,.2-.27,.3-.07,.07-.14,.13-.2,.2-.1,.1-.19,.19-.29,.28-.06,.06-.13,.1-.19,.16-.11,.09-.21,.18-.32,.26-.06,.04-.12,.08-.17,.12-.12,.08-.23,.17-.35,.24-.05,.03-.1,.06-.15,.09-.13,.07-.25,.15-.38,.21-.03,.01-.05,.02-.08,.03-.45,.22-.91,.36-1.37,.44-.06,.01-.13,.03-.19,.04-.09,.01-.19,.01-.28,.02-.1,0-.19,.02-.29,.02,0,0,0,0-.01,0-.18,0-.36-.01-.54-.03-.3-.04-.6-.11-.89-.21-.03-.01-.06-.02-.09-.03-.27-.1-.53-.22-.79-.37-.04-.02-.08-.05-.12-.07-.25-.15-.49-.33-.71-.53-.04-.03-.08-.07-.12-.1-.23-.21-.44-.43-.65-.68-.03-.04-.06-.08-.09-.11-.21-.26-.41-.55-.6-.85-.02-.02-.03-.05-.04-.08-.19-.32-.36-.65-.52-1.01,0-.02-.02-.04-.03-.05-.16-.36-.3-.74-.43-1.14-.02-.05-.04-.1-.05-.16-.12-.39-.23-.79-.32-1.21,0-.03-.02-.06-.03-.1-.12,.04-.25,.08-.36,.12Z"/>
  <path class="cls-3" d="M912.62,54.04s.07-.04,.11-.06c.51-.25,1.04-.48,1.59-.7,.16-.06,.33-.12,.49-.18,.24-.09,.48-.19,.73-.27,0-.08-.01-.17-.02-.25-.01-.15-.02-.3-.03-.45-.02-.26-.03-.52-.03-.78,0-.15,0-.3,0-.46,0-.28,0-.56,.02-.84,0-.13,0-.26,.02-.4,.03-.41,.06-.83,.11-1.24,.05-.4,.11-.8,.19-1.21,0-.03,0-.07,.02-.1-1.64-.56-3.22-.83-4.59-.83-2.08,0-3.69,.62-4.32,1.84-.97,1.84,.43,4.77,3.42,7.27,.17-.12,.35-.22,.53-.33,.14-.09,.28-.18,.42-.27,.43-.26,.88-.51,1.35-.74Z"/>
  <path class="cls-3" d="M919.62,58.44c.58,.65,1.24,1.04,1.95,1.13,2.19,.27,4.58-2.39,5.8-6.47,.3-1.01,.53-2.08,.66-3.18,.67-5.57-1.15-10.57-3.97-10.91-.1-.01-.2-.02-.3-.02-2.34,0-4.8,3.22-5.81,7.69h0c-.15,.67-.27,1.33-.35,1.97h0c-.1,.81-.14,1.61-.14,2.4,0,.4,.02,.79,.05,1.18,.03,.39,.07,.77,.12,1.15h0c.31,2.2,1.04,3.97,2,5.05Z"/>
  <g>
    <path class="cls-2" d="M1636.33,210.98h-284.48c2.59-1.89,4.28-4.94,4.28-8.38V88.98c0-4.28-2.45-7.95-6.41-9.59-3.95-1.64-8.28-.77-11.31,2.25l-113.63,113.63c-3.02,3.02-3.89,7.36-2.25,11.31,.75,1.82,1.94,3.31,3.42,4.41h-344.95c1.66-1.47,2.72-3.6,2.72-5.99v-27.55h19.88c.37,0,.71-.2,.88-.53s.16-.72-.04-1.02l-20.88-31.78c-.18-.28-.5-.45-.83-.45h-141.04c-.5,0-.89,.37-.97,.84l-21.88,31.17c-.21,.31-.24,.7-.07,1.04s.51,.54,.89,.54h21.02v23.22c0,4.42,2.3,8.3,5.76,10.53H437.48l10.12-42.87h-29.47v-17.21c.13,0,.21,0,.24,.01h.23s.21-.09,.21-.09c.62-.28,15.13-7.03,18.73-16.44,1.88-4.92,.24-8.41-1.5-12.1-1.69-3.59-3.6-7.66-2.69-14.04,.62-4.34,1.65-7.39,2.56-10.07,1.79-5.3,3.09-9.12-1.14-17.42-3.98-7.82-7.73-13.36-13.07-14.98-3.55-1.08-7.55-.34-12.22,2.25-12.18,6.77-11.5,27.9-8.07,40.45,1.29,4.71-.56,8.87-2.52,13.27-2.4,5.4-4.87,10.97-.98,17.4,5.23,8.62,14.08,10.93,18.21,11.54v17.42h-29.49l11.01,42.87h-121.5c.1-.15,.17-.32,.17-.52,0-50.99-41.49-92.48-92.48-92.48-.55,0-1,.45-1,1s.45,1,1,1c49.89,0,90.48,40.59,90.48,90.48,0,.19,.07,.36,.17,.52H20.34c-.55,0-1,.45-1,1s.45,1-27.57,1H1636.33c.55,0,1-.45,1-1s-.45-1-1-1ZM399.63,138.11c-3.35-5.53-1.19-10.4,1.1-15.55,2.01-4.53,4.09-9.21,2.62-14.61-1.81-6.65-2.51-14.47-1.87-20.93,.59-5.92,2.63-13.72,8.98-17.25,2.98-1.66,5.62-2.48,7.97-2.48,.94,0,1.84,.13,2.69,.39,4.66,1.42,8.12,6.62,11.87,13.98,3.84,7.54,2.78,10.68,1.03,15.87-.89,2.63-2,5.9-2.65,10.43-1,6.97,1.05,11.33,2.86,15.18,1.69,3.58,3.02,6.41,1.44,10.53-3.07,8.05-15.66,14.36-17.47,15.23-.02,0-.05,0-.07,0v-42.32c0-.55-.45-1-1-1s-1,.45-1,1v42.06c-3.9-.65-11.87-2.9-16.5-10.53Zm.09,72.87l-10.5-40.87h55.85l-9.65,40.87h-35.7Zm482.46-65.33l19.57,29.78h-35.04l-19.57-29.78h35.04Zm-160.6,29.58l19.1-27.21,1.52-2.17h101.17l-20.62,29.38h-101.17Zm34.75,35.74h-3.13c-5.81,0-10.53-4.72-10.53-10.53v-23.22h80.59c.33,0,.63-.16,.82-.43l20.21-28.79v62.96h-87.96Zm93.08,0h-3.13v-62.98l19.05,28.99c.19,.28,.5,.45,.84,.45h15.55v27.55c0,3.3-2.69,5.99-5.99,5.99h-26.31Zm382.7,0c-3.45,0-6.42-1.98-7.74-5.17-1.32-3.19-.62-6.69,1.82-9.13l113.63-113.63c1.62-1.62,3.71-2.47,5.87-2.47,1.09,0,2.19,.22,3.26,.66,3.19,1.32,5.17,4.29,5.17,7.74v113.63c0,4.62-3.76,8.38-8.38,8.38h-113.63Z"/>
    <path class="cls-2" d="M908.72,56.64c-2.38,2.16-3.43,4.62-2.88,6.88,.54,2.24,2.55,3.94,5.64,4.78,1.37,.37,2.89,.56,4.49,.56,1.77,0,3.64-.23,5.51-.68,3.56-.86,6.74-2.45,8.94-4.47,2.36-2.17,3.36-4.59,2.82-6.84-.41-1.7-1.73-3.12-3.73-4.07,.22-.86,.4-1.74,.51-2.64,.83-6.88-1.68-12.65-5.72-13.13-3.33-.41-6.54,2.89-8.03,8.12-5.1-1.7-9.6-.92-11.14,2.03-1.39,2.65,.05,6.36,3.6,9.46Zm22.57,.7c.36,1.5-.43,3.24-2.23,4.89-1.96,1.8-4.82,3.22-8.06,4.01-3.24,.79-6.44,.83-9,.14-2.36-.64-3.86-1.82-4.22-3.33-.42-1.71,.75-3.82,3.11-5.62,.37-.28,.77-.55,1.19-.81,.14-.08,.28-.16,.42-.24,.3-.17,.6-.34,.92-.5,.17-.09,.36-.17,.54-.26,.31-.14,.62-.28,.94-.41,.19-.08,.39-.16,.59-.23,.12-.04,.24-.08,.36-.12,0,.03,.02,.06,.03,.1,.09,.42,.2,.83,.32,1.21,.02,.05,.04,.1,.05,.16,.13,.4,.27,.78,.43,1.14,0,.02,.02,.04,.03,.05,.16,.36,.33,.69,.52,1.01,.01,.03,.03,.05,.04,.08,.19,.31,.39,.59,.6,.85,.03,.04,.06,.08,.09,.11,.21,.25,.42,.48,.65,.68,.04,.04,.08,.07,.12,.1,.23,.2,.47,.37,.71,.53,.04,.02,.08,.05,.12,.07,.25,.15,.52,.27,.79,.37,.03,.01,.06,.02,.09,.03,.29,.1,.58,.17,.89,.21,.18,.02,.36,.03,.54,.03,0,0,0,0,.01,0,.1,0,.19-.01,.29-.02,.09,0,.19,0,.28-.02,.06,0,.13-.03,.19-.04,.46-.08,.92-.23,1.37-.44,.03-.01,.05-.02,.08-.03,.13-.06,.25-.14,.38-.21,.05-.03,.1-.06,.15-.09,.12-.07,.23-.16,.35-.24,.06-.04,.12-.08,.17-.12,.11-.08,.21-.17,.32-.26,.06-.05,.13-.1,.19-.16,.1-.09,.19-.19,.29-.28,.07-.07,.14-.13,.2-.2,.09-.09,.18-.2,.27-.3,.07-.08,.14-.16,.21-.24,.08-.1,.16-.21,.24-.32,.07-.09,.14-.18,.21-.27,.08-.11,.15-.22,.22-.33,.07-.1,.14-.21,.21-.31,.07-.11,.14-.23,.2-.34,.07-.12,.14-.23,.2-.35,.06-.11,.12-.23,.18-.35,.07-.13,.13-.25,.2-.39,.06-.12,.11-.24,.17-.37,.06-.14,.13-.28,.19-.42,.05-.12,.1-.25,.15-.38,.05-.12,.09-.23,.14-.35,1.04,.54,2.06,1.36,2.36,2.6Zm-7.54-18.34c.1,0,.2,0,.3,.02,2.83,.34,4.65,5.34,3.97,10.91-.13,1.1-.35,2.17-.66,3.18-1.22,4.07-3.61,6.73-5.8,6.47-.71-.09-1.37-.48-1.95-1.13-.48-.54-.9-1.25-1.24-2.1-.34-.85-.6-1.85-.76-2.95-.05-.38-.1-.77-.12-1.15-.03-.39-.04-.78-.05-1.18,0-.79,.04-1.59,.14-2.4h0c.08-.64,.19-1.3,.35-1.97h0c1.02-4.48,3.47-7.69,5.81-7.69Zm-16.86,9.11c.64-1.21,2.25-1.84,4.32-1.84,1.38,0,2.96,.27,4.59,.83,0,.03,0,.07-.02,.1-.07,.41-.14,.81-.19,1.21-.05,.42-.09,.83-.11,1.24,0,.13-.01,.26-.02,.4-.01,.28-.02,.56-.02,.84,0,.15,0,.3,0,.46,0,.26,.02,.52,.03,.78,0,.15,.02,.3,.03,.45,0,.08,0,.17,.02,.25-.25,.08-.49,.18-.73,.27-.16,.06-.33,.12-.49,.18-.55,.22-1.08,.45-1.59,.7-.04,.02-.07,.04-.11,.06-.47,.23-.92,.48-1.35,.74-.15,.09-.28,.18-.42,.27-.18,.11-.36,.22-.53,.33-2.99-2.5-4.39-5.42-3.42-7.27Z"/>
  </g>
  <g>
    <path class="cls-2" d="M761.36,111.12c-.07,0-.13,0-.2-.02-.54-.11-.89-.64-.78-1.18,.02-.07,.38-1.85,1.53-4.45,.22-.51,.81-.74,1.32-.51,.51,.22,.73,.81,.51,1.32-1.06,2.4-1.39,4.03-1.4,4.04-.1,.47-.51,.8-.98,.8Z"/>
    <path class="cls-2" d="M767.22,99.66c-.22,0-.44-.07-.63-.22-.43-.35-.5-.98-.15-1.41,1.82-2.26,3.95-4.28,6.31-6,.45-.33,1.07-.22,1.4,.22,.32,.45,.23,1.07-.22,1.4-2.22,1.61-4.21,3.51-5.93,5.63-.2,.25-.49,.37-.78,.37Zm69.58-7.95c-2.07,0-4.15-.09-6.17-.26-.55-.05-.96-.53-.91-1.08s.53-.96,1.08-.91c1.97,.17,3.99,.25,6.01,.25h.02c.79,0,1.56-.01,2.32-.04,.57-.02,1.01,.42,1.03,.97,.02,.55-.42,1.01-.97,1.03-.79,.02-1.61,.02-2.4,.04Zm10.8-.75c-.49,0-.92-.36-.99-.86-.08-.55,.31-1.05,.85-1.13,3.61-.5,6.45-1.15,8.19-1.6,.53-.14,1.08,.18,1.22,.72,.14,.53-.18,1.08-.72,1.22-1.79,.47-4.71,1.13-8.42,1.65-.05,0-.09,0-.14,0Zm-25.26-.74c-.07,0-.14,0-.21-.02-.82-.18-1.65-.37-2.48-.58-1.95-.5-3.88-.94-5.75-1.32-.54-.11-.89-.63-.78-1.18,.11-.54,.64-.89,1.18-.78,1.91,.38,3.88,.83,5.86,1.34,.8,.21,1.61,.39,2.4,.56,.54,.12,.88,.65,.77,1.19-.1,.47-.52,.79-.98,.79Zm-41.61-.45c-.4,0-.77-.24-.93-.63-.21-.51,.04-1.09,.55-1.3,2.58-1.04,5.38-1.83,8.32-2.36,.54-.1,1.06,.26,1.16,.81,.1,.54-.26,1.06-.81,1.16-2.81,.51-5.48,1.26-7.93,2.25-.12,.05-.25,.07-.37,.07Zm24.99-2.73s-.07,0-.1,0c-2.49-.26-4.95-.4-7.25-.38-.37,0-.73,0-1.08,.01-.54,0-1.01-.43-1.02-.98-.01-.55,.43-1.01,.98-1.02,.39,0,.79-.01,1.19-.01,2.36,0,4.85,.13,7.38,.4,.55,.06,.95,.55,.89,1.1-.05,.51-.49,.9-.99,.9Zm58.14-.63c-.39,0-.77-.23-.93-.62-.21-.51,.03-1.1,.54-1.31,2.63-1.08,5.23-2.21,7.74-3.36,.5-.23,1.1,0,1.32,.5s0,1.1-.5,1.32c-2.53,1.15-5.16,2.29-7.81,3.38-.12,.05-.25,.08-.38,.08Zm15.41-7.04c-.36,0-.72-.2-.89-.55-.25-.49-.06-1.09,.44-1.35,2.66-1.35,5.14-2.71,7.38-4.03,.48-.28,1.09-.12,1.37,.35,.28,.48,.12,1.09-.35,1.37-2.28,1.34-4.8,2.72-7.49,4.09-.15,.07-.3,.11-.45,.11Z"/>
    <path class="cls-2" d="M893.78,70.68c-.31,0-.61-.14-.81-.41-.33-.44-.23-1.07,.21-1.4,1.26-.93,2.42-1.86,3.43-2.76,.41-.37,1.05-.33,1.41,.08,.37,.41,.33,1.04-.08,1.41-1.06,.94-2.26,1.9-3.57,2.87-.18,.13-.39,.19-.59,.19Z"/>
  </g>
  <path class="cls-2" d="M91.71,210.47c0-50.99,41.49-92.48,92.48-92.48,.55,0,1,.45,1,1s-.45,1-1,1c-49.89,0-90.48,40.59-90.48,90.48,0,.19-.07,.36-.17,.52h-1.67c-.1-.15-.17-.32-.17-.52Z"/>
  <g>
    <path class="cls-2" d="M1421.78,211.4v1.26s14.91,0,14.91,0h71.87s8.58,0,8.58,0v-1.26s-4.68,0-4.68,0c.93-.69,1.69-1.64,2.16-2.79,1.04-2.5,.49-5.24-1.42-7.15l-71.87-71.87c-1.91-1.91-4.65-2.46-7.15-1.42-2.5,1.04-4.05,3.36-4.05,6.06v71.87c0,2.18,1.07,4.1,2.71,5.3h-11.06Zm9.62-5.3v-71.87c0-2.18,1.25-4.06,3.27-4.89,.68-.28,1.37-.42,2.06-.42,1.36,0,2.69,.54,3.71,1.57l71.87,71.87c1.54,1.54,1.98,3.76,1.15,5.77-.84,2.02-2.71,3.27-4.89,3.27h-71.87c-2.92,0-5.3-2.38-5.3-5.3Z"/>
    <path class="cls-2" d="M1517.47,213h-96.03v-1.94h10.47c-1.34-1.29-2.12-3.09-2.12-4.96v-71.87c0-2.84,1.63-5.29,4.26-6.38,2.63-1.09,5.51-.51,7.52,1.5l71.87,71.87c2.01,2.01,2.58,4.89,1.5,7.52-.37,.88-.9,1.67-1.56,2.32h4.1v1.94Zm-95.36-.67h94.68v-.59h-5.36l.82-.61c.9-.67,1.61-1.58,2.05-2.64,.98-2.37,.46-4.97-1.35-6.78l-71.87-71.87c-1.81-1.81-4.41-2.33-6.78-1.35-2.37,.98-3.84,3.19-3.84,5.75v71.87c0,1.97,.96,3.85,2.57,5.03l.84,.61h-11.75v.59Zm86.44-.59h-71.87c-3.11,0-5.64-2.53-5.64-5.64v-71.87c0-2.32,1.33-4.32,3.48-5.21,2.11-.88,4.53-.39,6.14,1.22l71.87,71.87c1.64,1.64,2.11,4,1.22,6.14-.89,2.15-2.88,3.48-5.21,3.48Zm-71.83-82.48c-.66,0-1.31,.13-1.93,.39-1.89,.78-3.06,2.54-3.06,4.58v71.87c0,2.74,2.23,4.96,4.96,4.96h71.87c2.04,0,3.8-1.17,4.58-3.06,.78-1.89,.37-3.96-1.08-5.41l-71.87-71.87c-.95-.95-2.18-1.47-3.47-1.47Z"/>
  </g>
</svg>