<?xml version="1.0" encoding="UTF-8"?>
<svg width="512px" height="512px" viewBox="0 0 512 512" version="1.1" xmlns="http://www.w3.org/2000/svg" xmlns:xlink="http://www.w3.org/1999/xlink">
    <!-- Generator: Sketch 59 (86127) - https://sketch.com -->
    <title>single-line</title>
    <desc>Created with Sketch.</desc>
    <g id="single-line" stroke="none" stroke-width="1" fill="none" fill-rule="evenodd">
        <g transform="translate(0.000000, 102.000000)" fill="#000000" fill-rule="nonzero" id="Shape">
            <path d="M51.2,0 L460.8,0 C489.077,0 512,22.923 512,51.2 L512,256 C512,284.277 489.077,307.2 460.8,307.2 L51.2,307.2 C22.923,307.2 0,284.277 0,256 L0,51.2 C0,22.923 22.923,0 51.2,0 Z M51.2,34.133 C41.774,34.133 34.133,41.774 34.133,51.2 L34.133,256 C34.133,265.426 41.774,273.067 51.2,273.067 L460.8,273.067 C470.226,273.067 477.867,265.426 477.867,256 L477.867,51.2 C477.867,41.774 470.226,34.133 460.8,34.133 L51.2,34.133 Z M68.267,85.333 C68.267,75.908 75.907,68.267 85.333,68.267 C94.759,68.267 102.4,75.907 102.4,85.333 L102.4,221.867 C102.4,231.292 94.759,238.933 85.333,238.933 C75.908,238.933 68.267,231.293 68.267,221.867 L68.267,85.333 Z"></path>
        </g>
    </g>
</svg>