<?xml version="1.0" encoding="UTF-8"?>
<svg width="12px" height="12px" viewBox="0 0 12 12" version="1.1" xmlns="http://www.w3.org/2000/svg" xmlns:xlink="http://www.w3.org/1999/xlink">
    <!-- Generator: Sketch 52.5 (67469) - http://www.bohemiancoding.com/sketch -->
    <title>waiting-approved</title>
    <desc>Created with Sketch.</desc>
    <g id="Page-1" stroke="none" stroke-width="1" fill="none" fill-rule="evenodd" opacity="0.699999988">
        <g id="waiting-approved" fill="#000000">
            <g id="Page-1">
                <g id="Artboard">
                    <g id="waiting-approved">
                        <g id="Page-1">
                            <g id="Approval-List">
                                <g id="Group-8">
                                    <g id="Group-5">
                                        <g id="add-user-(1)">
                                            <path d="M4.99999219,0 C3.34549219,0 1.99999219,1.3455 1.99999219,3 L1.99999219,4.00000781 C1.99999219,4.61901563 2.1885,5.1945 2.511,5.673 C1.01299219,6.537 0,8.14999219 0,10.0000078 L0,10.5 C0,11.3269922 0.673007812,12 1.5,12 L6,12 C6.27649219,12 6.49999219,11.7760078 6.49999219,11.5000078 C6.49999219,11.2240078 6.27649219,11.0000156 6,11.0000156 L1.5,11.0000156 C1.224,11.0000156 1.00000781,10.7755078 1.00000781,10.5000234 L1.00000781,10.0000313 C1.00000781,8.43053906 1.90900781,7.07003906 3.228,6.41552344 C3.72550781,6.78103125 4.33699219,7.00003125 4.99999219,7.00003125 C6.65449219,7.00003125 7.99999219,5.65453125 7.99999219,4.00003125 L7.99999219,3 C7.99999219,1.3455 6.65449219,0 4.99999219,0 Z M8.00000781,4.00000781 C8.00000781,5.103 6.87875825,6 5.50001855,6 C4.12127886,6 3,5.103 3,4.00000781 L3,3 C3,1.89700781 4.12124956,1.00000781 5.49998926,1.00000781 C6.87872895,1.00000781 7.99997851,1.89700781 7.99997851,3 L7.99997851,4.00000781 L8.00000781,4.00000781 Z" id="Shape" fill-rule="nonzero"></path>
                                            <path d="M11.5000078,8.50000781 L9.50001562,8.50000781 L9.50001562,6.50001562 C9.50001562,6.22401562 9.27651562,6.00002344 9.00002344,6.00002344 C8.72353125,6.00002344 8.50003125,6.22401562 8.50003125,6.50001562 L8.50003125,8.50000781 L6.50003906,8.50000781 C6.2235,8.50000781 6,8.724 6,9 C6,9.276 6.2235,9.49999219 6.49999219,9.49999219 L8.49998437,9.49999219 L8.49998437,11.4999844 C8.49998437,11.7759844 8.72348437,11.9999766 8.99997656,11.9999766 C9.27646875,11.9999766 9.49996875,11.7759844 9.49996875,11.4999844 L9.49996875,9.49999219 L11.4999609,9.49999219 C11.7764531,9.49999219 11.9999531,9.276 11.9999531,9 C11.9999531,8.724 11.7765,8.50000781 11.5000078,8.50000781 Z" id="Shape"></path>
                                        </g>
                                    </g>
                                </g>
                            </g>
                        </g>
                    </g>
                </g>
            </g>
        </g>
    </g>
</svg>