<svg xmlns="http://www.w3.org/2000/svg" width="17" height="17" viewBox="0 0 17 17">
    <path stroke-width=".3" d="M15.636 2.802c-.099-.023-.203.007-.274.08l-1.215 1.223h-.582l-.641-.664v-.59l1.197-1.215c.07-.072.1-.175.076-.274-.023-.098-.095-.177-.191-.21-.3-.1-.616-.152-.936-.152-.954 0-1.82.445-2.378 1.22-.522.727-.683 1.617-.452 2.469L8.082 6.847 4.486 3.243v-.707c0-.103-.054-.198-.142-.251L2.273 1.042c-.116-.07-.263-.051-.358.044l-.829.828c-.095.095-.113.243-.044.358l1.243 2.072c.053.088.148.142.251.142h.707L6.839 8.09l-2.15 2.15c-.852-.23-1.742-.07-2.469.452C1.445 11.25 1 12.116 1 13.07c0 .32.051.635.153.936.032.096.112.168.211.191.099.023.203-.006.274-.079l1.215-1.224h.585l.667.667v.586L2.881 15.36c-.072.072-.102.176-.079.275.023.099.096.179.192.21.3.102.616.154.936.154.954 0 1.82-.445 2.378-1.22.522-.727.683-1.617.452-2.47l1.727-1.726.395.43-.181.181c-.114.115-.114.3 0 .415.114.114.3.114.414 0l.165-.165 3.71 4.031.01.009c.686.687 1.798.687 2.485 0 .685-.686.685-1.8 0-2.486l-.009-.009-4.037-3.704.162-.162c.115-.114.115-.3 0-.414-.114-.115-.3-.115-.414 0l-.18.18-.43-.395L12.31 6.76c.247.066.501.1.76.1C14.685 6.86 16 5.544 16 3.93c0-.32-.051-.635-.153-.936-.032-.096-.112-.169-.211-.192zM3.572 3.986c-.055-.055-.13-.083-.207-.083h-.663l-1.04-1.736.505-.505L3.9 2.702v.663c0 .077.031.152.086.207l3.681 3.69-.414.413-3.681-3.689zm7.452 5.715l4.051 3.716c.453.458.451 1.198-.004 1.654-.456.456-1.195.457-1.654.004L9.694 11.03l1.33-1.33zm-.432-.396l-1.295 1.294-.395-.43 1.26-1.26.43.396zm2.478-3.032c-.256 0-.508-.04-.748-.122-.106-.035-.222-.008-.301.07l-5.8 5.8c-.078.078-.105.195-.07.3.244.723.127 1.495-.32 2.117-.445.62-1.138.976-1.901.976-.086 0-.171-.005-.256-.014l.93-.923c.056-.055.087-.13.087-.208v-.829c0-.078-.03-.152-.085-.207l-.84-.839c-.054-.055-.129-.086-.206-.086h-.83c-.077 0-.152.032-.207.087l-.923.93c-.01-.084-.014-.17-.014-.255 0-.763.356-1.456.976-1.902.622-.447 1.393-.563 2.116-.32.106.036.222.009.301-.07l5.8-5.799c.078-.079.105-.195.07-.3-.244-.724-.128-1.495.319-2.116.446-.621 1.139-.977 1.902-.977.089 0 .176.005.263.014l-.91.925c-.055.055-.085.129-.085.206v.829c0 .076.03.149.082.203l.81.839c.055.057.13.09.21.09h.83c.077 0 .152-.032.207-.087l.923-.93c.01.084.014.169.014.255 0 1.292-1.051 2.343-2.344 2.343h0z"/>
</svg>
