<?xml version="1.0" encoding="iso-8859-1"?>
<!-- Generator: Adobe Illustrator 19.0.0, SVG Export Plug-In . SVG Version: 6.00 Build 0)  -->
<svg version="1.1" id="Layer_1" xmlns="http://www.w3.org/2000/svg" xmlns:xlink="http://www.w3.org/1999/xlink" x="0px" y="0px"
	 viewBox="0 0 511.999 511.999" style="enable-background:new 0 0 511.999 511.999;" xml:space="preserve">
<g>
	<g>
		<path d="M339.441,31.098C333.134,13.015,315.919,0,295.713,0c-20.206,0-37.421,13.016-43.729,31.099h-6.43
			c-70.459,0-127.781,57.322-127.781,127.781v41.018H94.309v148.235h77.342V199.897h-23.463v-41.018
			c0-53.686,43.677-97.363,97.364-97.363h6.43c1.026,2.942,2.338,5.751,3.908,8.39c-39.206,15.817-66.947,54.257-66.947,99.06
			v343.034h213.538V406.058V204.291v-35.324c0-44.802-27.742-83.243-66.947-99.06c1.571-2.639,2.882-5.448,3.908-8.39h78.248v-0.001
			V31.098H339.441z M141.234,317.714h-16.507v-87.401h16.507V317.714z M295.713,30.417c8.762,0,15.89,7.129,15.89,15.89
			s-7.129,15.89-15.89,15.89s-15.89-7.128-15.89-15.89C279.823,37.545,286.95,30.417,295.713,30.417z M372.064,168.965v35.324
			H249.406v201.767h122.659v75.525H219.361V168.965c0-42.1,34.252-76.351,76.352-76.351
			C337.814,92.614,372.064,126.865,372.064,168.965z M372.064,295.035v20.278h-66.72v30.417h66.72v29.91h-92.242V234.708h92.242
			v29.91h-66.72v30.417H372.064z"/>
	</g>
</g>
<g>
</g>
<g>
</g>
<g>
</g>
<g>
</g>
<g>
</g>
<g>
</g>
<g>
</g>
<g>
</g>
<g>
</g>
<g>
</g>
<g>
</g>
<g>
</g>
<g>
</g>
<g>
</g>
<g>
</g>
</svg>
