<?xml version="1.0" encoding="utf-8"?>
<!-- Generator: Adobe Illustrator 21.0.2, SVG Export Plug-In . SVG Version: 6.00 Build 0)  -->
<svg version="1.1" xmlns="http://www.w3.org/2000/svg" xmlns:xlink="http://www.w3.org/1999/xlink" x="0px" y="0px"
	 viewBox="0 0 48 48" style="enable-background:new 0 0 48 48;" xml:space="preserve">
<style type="text/css">
	.st0{fill:none;stroke:#01BAB9;stroke-miterlimit:10;}
	.st1{enable-background:new    ;}
	.st2{clip-path:url(#SVGID_2_);}
	.st3{fill:#23201D;}
	.st4{clip-path:url(#SVGID_4_);}
	.st5{fill:#32302D;}
	.st6{clip-path:url(#SVGID_6_);}
	.st7{fill:none;stroke:#231F20;stroke-width:1.5373;}
	.st8{fill:#231F20;}
	.st9{fill:#00979C;}
	.st10{fill:#EA715F;}
	.st11{fill:#25A9E0;}
	.st12{fill:#F6921E;}
	.st13{fill:#0F0F10;}
	.st14{clip-path:url(#SVGID_8_);}
	.st15{fill:#FFFFFF;}
	.st16{fill:none;stroke:#000000;stroke-width:0.8023;stroke-miterlimit:10;}
	.st17{display:none;}
	.st18{display:inline;fill:#FFFFFF;}
	.st19{display:inline;}
	.st20{clip-path:url(#SVGID_10_);}
	.st21{clip-path:url(#SVGID_12_);}
	.st22{clip-path:url(#SVGID_14_);}
	.st23{clip-path:url(#SVGID_16_);}
	.st24{clip-path:url(#SVGID_18_);}
	.st25{clip-path:url(#SVGID_20_);}
	.st26{clip-path:url(#SVGID_22_);}
	.st27{clip-path:url(#SVGID_24_);}
	.st28{clip-path:url(#SVGID_26_);}
	.st29{clip-path:url(#SVGID_28_);}
	.st30{clip-path:url(#SVGID_30_);}
	.st31{clip-path:url(#SVGID_32_);}
	.st32{clip-path:url(#SVGID_34_);}
	.st33{clip-path:url(#SVGID_36_);}
	.st34{clip-path:url(#SVGID_38_);}
	.st35{clip-path:url(#SVGID_40_);}
	.st36{clip-path:url(#SVGID_42_);}
	.st37{clip-path:url(#SVGID_44_);}
	.st38{clip-path:url(#SVGID_46_);}
	.st39{clip-path:url(#SVGID_48_);}
	.st40{display:inline;fill:none;stroke:#000000;stroke-width:1.8246;stroke-miterlimit:10;}
	.st41{clip-path:url(#SVGID_50_);}
	.st42{clip-path:url(#SVGID_52_);}
	.st43{clip-path:url(#SVGID_54_);}
	.st44{clip-path:url(#SVGID_56_);}
	.st45{clip-path:url(#SVGID_58_);}
	.st46{clip-path:url(#SVGID_60_);}
	.st47{clip-path:url(#SVGID_62_);}
	.st48{clip-path:url(#SVGID_64_);}
	.st49{clip-path:url(#SVGID_66_);}
	.st50{clip-path:url(#SVGID_68_);}
	.st51{clip-path:url(#SVGID_70_);}
	.st52{clip-path:url(#SVGID_72_);}
	.st53{clip-path:url(#SVGID_74_);}
	.st54{clip-path:url(#SVGID_76_);}
	.st55{clip-path:url(#SVGID_78_);}
	.st56{clip-path:url(#SVGID_80_);}
	.st57{clip-path:url(#SVGID_82_);}
	.st58{clip-path:url(#SVGID_84_);}
	.st59{clip-path:url(#SVGID_86_);}
	.st60{clip-path:url(#SVGID_88_);}
	.st61{clip-path:url(#SVGID_90_);}
	.st62{clip-path:url(#SVGID_92_);}
	.st63{clip-path:url(#SVGID_94_);}
	.st64{clip-path:url(#SVGID_96_);}
	.st65{clip-path:url(#SVGID_98_);}
	.st66{clip-path:url(#SVGID_100_);}
	.st67{clip-path:url(#SVGID_102_);}
	.st68{clip-path:url(#SVGID_104_);}
	.st69{clip-path:url(#SVGID_106_);}
	.st70{clip-path:url(#SVGID_108_);}
	.st71{clip-path:url(#SVGID_110_);}
	.st72{clip-path:url(#SVGID_112_);}
	.st73{clip-path:url(#SVGID_114_);}
	.st74{clip-path:url(#SVGID_116_);}
	.st75{clip-path:url(#SVGID_118_);}
	.st76{clip-path:url(#SVGID_120_);}
	.st77{clip-path:url(#SVGID_122_);}
	.st78{clip-path:url(#SVGID_124_);}
	.st79{clip-path:url(#SVGID_126_);}
	.st80{clip-path:url(#SVGID_128_);}
	.st81{clip-path:url(#SVGID_130_);}
	.st82{clip-path:url(#SVGID_132_);}
	.st83{clip-path:url(#SVGID_134_);}
	.st84{clip-path:url(#SVGID_136_);}
	.st85{clip-path:url(#SVGID_138_);}
	.st86{clip-path:url(#SVGID_140_);}
	.st87{clip-path:url(#SVGID_142_);}
	.st88{clip-path:url(#SVGID_144_);}
	.st89{clip-path:url(#SVGID_146_);}
	.st90{clip-path:url(#SVGID_148_);}
	.st91{clip-path:url(#SVGID_150_);}
	.st92{clip-path:url(#SVGID_152_);}
	.st93{clip-path:url(#SVGID_154_);}
	.st94{clip-path:url(#SVGID_156_);}
	.st95{clip-path:url(#SVGID_158_);}
	.st96{clip-path:url(#SVGID_160_);}
	.st97{clip-path:url(#SVGID_162_);}
	.st98{clip-path:url(#SVGID_164_);}
	.st99{clip-path:url(#SVGID_166_);}
	.st100{clip-path:url(#SVGID_168_);}
	.st101{clip-path:url(#SVGID_170_);}
	.st102{clip-path:url(#SVGID_172_);}
	.st103{clip-path:url(#SVGID_174_);}
	.st104{clip-path:url(#SVGID_176_);}
	.st105{clip-path:url(#SVGID_178_);}
	.st106{clip-path:url(#SVGID_180_);}
	.st107{clip-path:url(#SVGID_182_);}
	.st108{clip-path:url(#SVGID_184_);}
	.st109{display:inline;fill:none;stroke:#01BAB9;stroke-width:1.8246;stroke-miterlimit:10;}
	.st110{clip-path:url(#SVGID_186_);}
	.st111{clip-path:url(#SVGID_188_);}
	.st112{clip-path:url(#SVGID_190_);}
	.st113{clip-path:url(#SVGID_192_);}
	.st114{clip-path:url(#SVGID_194_);}
	.st115{clip-path:url(#SVGID_196_);}
	.st116{clip-path:url(#SVGID_198_);}
	.st117{clip-path:url(#SVGID_200_);}
	.st118{clip-path:url(#SVGID_202_);}
</style>
<symbol  id="Box_x5F_whitespace_1_" viewBox="-11.2 -12.9 22.4 25.8">
	<polygon class="st0" points="0,12.3 -10.7,6.2 -10.7,1.6 -10.7,-6.2 0,-12.3 10.7,-6.2 10.7,6.2 	"/>
	<g>
		<g class="st1">
			<defs>
				<polygon id="SVGID_1_" class="st1" points="-8.8,-5.4 -8.8,4.2 -0.5,-0.6 -0.5,-10.2 				"/>
			</defs>
			<clipPath id="SVGID_2_">
				<use xlink:href="#SVGID_1_"  style="overflow:visible;"/>
			</clipPath>
			<g class="st2">
				<polyline class="st3" points="-0.5,-0.6 -8.8,4.2 -8.8,-5.4 -0.5,-10.2 -0.5,-0.6 				"/>
			</g>
		</g>
	</g>
	<g>
		<g class="st1">
			<defs>
				<polygon id="SVGID_3_" class="st1" points="-8.3,5.4 0,10.2 8.3,5.4 0,0.6 				"/>
			</defs>
			<clipPath id="SVGID_4_">
				<use xlink:href="#SVGID_3_"  style="overflow:visible;"/>
			</clipPath>
			<g class="st4">
				<polyline class="st5" points="8.3,5.4 0,10.2 -8.3,5.4 0,0.6 8.3,5.4 				"/>
			</g>
		</g>
	</g>
	<g>
		<g class="st1">
			<defs>
				<polygon id="SVGID_5_" class="st1" points="0.5,-10.2 0.5,-0.6 8.8,4.2 8.8,-5.4 				"/>
			</defs>
			<clipPath id="SVGID_6_">
				<use xlink:href="#SVGID_5_"  style="overflow:visible;"/>
			</clipPath>
			<g class="st6">
				<polyline class="st5" points="8.8,4.2 0.5,-0.6 0.5,-10.2 8.8,-5.4 8.8,4.2 				"/>
			</g>
		</g>
	</g>
</symbol>
<g id="Graphic">
	<g>
		<path class="st8" d="M12.7,34c-0.6,0-1-0.2-1.4-0.6c-0.4-0.4-0.6-0.9-0.6-1.4V14.7c0-0.6,0.2-1,0.6-1.4c0.4-0.4,0.9-0.6,1.4-0.6
			h22.6c0.6,0,1,0.2,1.4,0.6c0.4,0.4,0.6,0.9,0.6,1.4V32c0,0.6-0.2,1-0.6,1.4c-0.4,0.4-0.9,0.6-1.4,0.6H12.7z M12.2,14.2
			c-0.1,0.1-0.2,0.3-0.2,0.5V32c0,0.2,0.1,0.3,0.2,0.5c0.1,0.1,0.3,0.2,0.5,0.2h22.6c0.2,0,0.4-0.1,0.5-0.2c0.1-0.1,0.2-0.3,0.2-0.5
			V14.7c0-0.2-0.1-0.3-0.2-0.5S35.5,14,35.3,14H12.7C12.5,14,12.3,14.1,12.2,14.2z M15.3,18c-0.2,0-0.3-0.1-0.5-0.2
			s-0.2-0.3-0.2-0.5c0-0.2,0.1-0.4,0.2-0.5c0.1-0.1,0.3-0.2,0.5-0.2h8c0.2,0,0.3,0.1,0.5,0.2c0.1,0.1,0.2,0.3,0.2,0.5
			c0,0.2-0.1,0.3-0.2,0.5S23.5,18,23.3,18H15.3z M15.3,22c-0.2,0-0.3-0.1-0.5-0.2s-0.2-0.3-0.2-0.5s0.1-0.3,0.2-0.5
			c0.1-0.1,0.3-0.2,0.5-0.2h8c0.2,0,0.3,0.1,0.5,0.2c0.1,0.1,0.2,0.3,0.2,0.5s-0.1,0.3-0.2,0.5S23.5,22,23.3,22H15.3z M15.3,24.7
			c-0.2,0-0.3-0.1-0.5-0.2s-0.2-0.3-0.2-0.5c0-0.2,0.1-0.4,0.2-0.5c0.1-0.1,0.3-0.2,0.5-0.2h8c0.2,0,0.3,0.1,0.5,0.2
			c0.1,0.1,0.2,0.3,0.2,0.5c0,0.2-0.1,0.3-0.2,0.5s-0.3,0.2-0.5,0.2H15.3z M15.3,27.3c-0.2,0-0.3-0.1-0.5-0.2s-0.2-0.3-0.2-0.5
			c0-0.2,0.1-0.3,0.2-0.5C15,26,15.2,26,15.3,26h8c0.2,0,0.3,0.1,0.5,0.2c0.1,0.1,0.2,0.3,0.2,0.5c0,0.2-0.1,0.4-0.2,0.5
			s-0.3,0.2-0.5,0.2H15.3z M15.3,30c-0.2,0-0.3-0.1-0.5-0.2s-0.2-0.3-0.2-0.5c0-0.2,0.1-0.3,0.2-0.5s0.3-0.2,0.5-0.2H22
			c0.2,0,0.4,0.1,0.5,0.2s0.2,0.3,0.2,0.5c0,0.2-0.1,0.3-0.2,0.5S22.2,30,22,30H15.3z M33.5,17.9l-0.4-1.3h-1.3l-1.1-0.8l-1.1,0.8
			h-1.3l-0.4,1.3l-1.1,0.8l0.4,1.3l-0.4,1.3l1.1,0.8l0.2,0.5c0,0,0,0,0,0c0,0,0,0,0,0v6.7c0,0.1,0,0.3,0.1,0.4
			c0.1,0.1,0.2,0.2,0.3,0.2c0.1,0,0.2,0.1,0.4,0c0.1,0,0.2-0.1,0.3-0.2l1.5-1.5l1.5,1.5c0.1,0.1,0.1,0.1,0.2,0.1c0.1,0,0.2,0,0.3,0
			c0,0,0.1,0,0.1,0c0,0,0.1,0,0.1,0c0.1-0.1,0.2-0.1,0.3-0.2c0.1-0.1,0.1-0.2,0.1-0.4v-6.7c0,0,0,0,0,0c0,0,0,0,0,0l0.2-0.5l1.1-0.8
			L34.2,20l0.4-1.3L33.5,17.9z M29,18.8l0.2-0.8H30l0.7-0.5l0.7,0.5h0.8l0.2,0.8l0.6,0.5L32.8,20l0.2,0.8l-0.6,0.5L32.1,22h-0.8
			l-0.7,0.5L30,22h-0.8L29,21.2l-0.6-0.5l0.2-0.8l-0.2-0.8L29,18.8z M30.7,26.6c-0.2,0-0.3,0.1-0.5,0.2l-0.9,0.9v-4.4h0.2l1.1,0.8
			l1.1-0.8H32v4.4l-0.9-0.9C31,26.7,30.8,26.6,30.7,26.6z"/>
	</g>
	<g id="Box_x5F_whitespace">
	</g>
</g>
<g id="BlackBox" class="st17">
	<polygon class="st18" points="37.3,23.6 27.2,29.4 27.2,41.1 37.3,47 47.4,41.1 47.4,29.4 	"/>
	<g class="st19">
		
			<use xlink:href="#Box_x5F_whitespace_1_"  width="22.4" height="25.8" id="XMLID_24_" x="-11.2" y="-12.9" transform="matrix(0.9562 0 0 -0.9562 37.3107 35.2899)" style="overflow:visible;"/>
		<g>
			<g>
				<g class="st1">
					<defs>
						<polygon id="SVGID_29_" class="st1" points="41.4,40.6 41.3,37.2 42.8,36.3 42.9,39.8 						"/>
					</defs>
					<clipPath id="SVGID_8_">
						<use xlink:href="#SVGID_29_"  style="overflow:visible;"/>
					</clipPath>
					<g class="st14">
						<g>
							<g>
								<g>
									<path class="st15" d="M42.1,36.7c-0.1,0.1-0.2,0.1-0.3,0.2c-0.1,0.1-0.2,0.2-0.2,0.3c-0.1,0.1-0.1,0.2-0.2,0.4
										c0,0.1-0.1,0.2-0.1,0.4c0,0.1,0,0.2,0,0.2c0,0.1,0.1,0.1,0.1,0.2l0.1,0.1c0.1,0,0.1,0,0.2,0l-0.4,1.9l0,0l0,0l0,0l0,0
										l1.3-0.8l0,0l0,0l0,0l0,0l-0.4-1.4c0.1-0.1,0.1-0.2,0.2-0.2l0.1-0.3c0-0.1,0.1-0.2,0.1-0.3c0-0.1,0-0.2,0-0.3
										c0-0.1,0-0.2-0.1-0.3c0-0.1-0.1-0.1-0.2-0.2c-0.1,0-0.1-0.1-0.2,0C42.3,36.7,42.2,36.7,42.1,36.7"/>
								</g>
							</g>
						</g>
					</g>
				</g>
			</g>
		</g>
	</g>
</g>
<g id="Hexagon" class="st17">
	<polygon class="st40" points="24,1.5 4.5,12.8 4.5,21.1 4.5,35.2 24,46.5 43.5,35.2 43.5,12.8 	"/>
</g>
<g id="Option_3" class="st17">
	<g class="st19">
		<g class="st1">
			<defs>
				<polygon id="SVGID_109_" class="st1" points="9.1,33.7 9.1,16.4 24.1,25.1 24.1,42.4 				"/>
			</defs>
			<clipPath id="SVGID_10_">
				<use xlink:href="#SVGID_109_"  style="overflow:visible;"/>
			</clipPath>
			<g class="st20">
				<polyline class="st3" points="24.1,25.1 9.1,16.4 9.1,33.7 24.1,42.4 24.1,25.1 				"/>
			</g>
		</g>
	</g>
	<g class="st19">
		<g class="st1">
			<defs>
				<polygon id="SVGID_111_" class="st1" points="10.1,14.3 25,5.6 40.1,14.3 25.1,22.9 				"/>
			</defs>
			<clipPath id="SVGID_12_">
				<use xlink:href="#SVGID_111_"  style="overflow:visible;"/>
			</clipPath>
			<g class="st21">
				<polyline class="st5" points="40.1,14.3 25,5.6 10.1,14.3 25.1,22.9 40.1,14.3 				"/>
			</g>
		</g>
	</g>
	<g class="st19">
		<g class="st1">
			<defs>
				<polygon id="SVGID_113_" class="st1" points="26,42.4 26,25.1 41.1,16.4 41.1,33.7 				"/>
			</defs>
			<clipPath id="SVGID_14_">
				<use xlink:href="#SVGID_113_"  style="overflow:visible;"/>
			</clipPath>
			<g class="st22">
				<polyline class="st5" points="41.1,16.4 26,25.1 26,42.4 41.1,33.7 41.1,16.4 				"/>
			</g>
		</g>
	</g>
	<g class="st19">
		<g>
			<g class="st1">
				<defs>
					<polygon id="SVGID_169_" class="st1" points="28.7,37.7 28.7,28.3 38.9,22.4 38.9,31.8 					"/>
				</defs>
				<clipPath id="SVGID_16_">
					<use xlink:href="#SVGID_169_"  style="overflow:visible;"/>
				</clipPath>
				<g class="st23">
					<g>
						<g>
							<g>
								<path class="st15" d="M36.3,25.3l-0.4,0.6l-0.5,0.3l-0.2,0.6l-0.4,0.6l0.2,0.5l-0.2,0.6l0.4,0.1l0.1,0.2l0,0l0,0l0,2.9
									l0,0.1l0.1,0l0.1-0.1l0.1-0.2l0.6-1l0.6,0.3l0.1,0l0.1,0l0.1,0l0,0l0.1-0.2l0-0.2l0-2.9l0,0l0,0l0.1-0.3l0.4-0.6l-0.2-0.5
									l0.2-0.7l-0.4-0.1l-0.2-0.5l-0.5,0.3L36.3,25.3 M33.5,27.3L30.5,29c-0.1,0-0.1,0.1-0.2,0.2c-0.1,0.1-0.1,0.2-0.1,0.3
									c0,0.1,0,0.1,0.1,0.2c0.1,0,0.1,0,0.2,0l3.1-1.8c0.1,0,0.1-0.1,0.2-0.2c0-0.1,0.1-0.2,0.1-0.2c0-0.1,0-0.1-0.1-0.2
									C33.6,27.2,33.6,27.2,33.5,27.3 M33.5,29l-3.1,1.8c-0.1,0-0.1,0.1-0.2,0.2c-0.1,0.1-0.1,0.2-0.1,0.2c0,0.1,0,0.1,0.1,0.2
									c0.1,0,0.1,0,0.2,0l3.1-1.8c0.1,0,0.1-0.1,0.2-0.2c0-0.1,0.1-0.2,0.1-0.2c0-0.1,0-0.1-0.1-0.2C33.7,29,33.6,29,33.5,29
									 M33.5,30.2L30.5,32c-0.1,0-0.1,0.1-0.2,0.2c-0.1,0.1-0.1,0.2-0.1,0.3c0,0.1,0,0.1,0.1,0.2c0.1,0,0.1,0,0.2,0l3.1-1.8
									c0.1,0,0.1-0.1,0.2-0.2c0-0.1,0.1-0.2,0.1-0.2c0-0.1,0-0.1-0.1-0.2C33.7,30.2,33.6,30.2,33.5,30.2 M33.5,31.4l-3.1,1.8
									c-0.1,0-0.1,0.1-0.2,0.2c-0.1,0.1-0.1,0.2-0.1,0.2s0,0.1,0.1,0.2c0.1,0,0.1,0,0.2,0l3.1-1.8c0.1,0,0.1-0.1,0.2-0.2
									c0-0.1,0.1-0.2,0.1-0.2s0-0.1-0.1-0.2C33.7,31.3,33.6,31.3,33.5,31.4 M33,32.8l-2.5,1.5c-0.1,0-0.1,0.1-0.2,0.2
									c-0.1,0.1-0.1,0.2-0.1,0.2c0,0.1,0,0.1,0.1,0.2c0.1,0,0.1,0,0.2,0l2.5-1.5c0.1,0,0.1-0.1,0.2-0.2c0.1-0.1,0.1-0.2,0.1-0.2
									c0-0.1,0-0.1-0.1-0.2C33.2,32.8,33.1,32.8,33,32.8 M36.3,28.9l0.4-0.6l0.1-0.1l0,1.9L36.5,30c0,0-0.1,0-0.2,0
									c-0.1,0-0.1,0.1-0.2,0.2l-0.3,0.6l0-1.9l0.1-0.1L36.3,28.9 M35.8,28.3L35.7,28L35.4,28l0.1-0.4l-0.1-0.3l0.2-0.3l0.1-0.4
									l0.3-0.2l0.2-0.3l0.2,0.1l0.3-0.2l0.1,0.3l0.2,0.1l-0.1,0.4l0.1,0.3L37,27.3l-0.1,0.4l-0.3,0.2l-0.2,0.4l-0.2-0.1L35.8,28.3
									 M29.5,36.7c-0.1,0-0.1,0-0.2,0c0,0-0.1-0.1-0.1-0.2l0-7.6c0-0.1,0-0.2,0.1-0.2c0.1-0.1,0.1-0.2,0.2-0.2l8.7-5
									c0.1,0,0.1,0,0.2,0c0.1,0,0.1,0.1,0.1,0.2l0,7.6c0,0.1,0,0.2-0.1,0.2c-0.1,0.1-0.1,0.2-0.2,0.2L29.5,36.7 M38.1,22.9l-8.7,5
									c-0.2,0.1-0.4,0.3-0.5,0.6c-0.1,0.3-0.2,0.5-0.2,0.8l0,7.6c0,0.2,0.1,0.4,0.2,0.5c0.2,0.1,0.3,0.1,0.5-0.1l8.7-5
									c0.2-0.1,0.4-0.3,0.5-0.6c0.2-0.3,0.2-0.5,0.2-0.8l0-7.6c0-0.2-0.1-0.4-0.2-0.5C38.5,22.7,38.3,22.7,38.1,22.9"/>
							</g>
						</g>
					</g>
				</g>
			</g>
		</g>
	</g>
	<polygon class="st109" points="25.4,1.6 5.9,12.8 5.9,21.2 5.9,35.3 25.4,46.6 44.9,35.3 44.9,12.8 	"/>
</g>
</svg>
