<?xml version="1.0" encoding="UTF-8"?>
<svg width="84px" height="67px" viewBox="0 0 84 67" version="1.1" xmlns="http://www.w3.org/2000/svg" xmlns:xlink="http://www.w3.org/1999/xlink">
    <!-- Generator: Sketch 63.1 (92452) - https://sketch.com -->
    <title>Group 65</title>
    <desc>Created with Sketch.</desc>
    <defs>
        <polygon id="path-1" points="0.6879 0.0004 11.5479 0.0004 11.5479 1 0.6879 1"></polygon>
        <polygon id="path-3" points="0.3256 0.0004 24.5786 0.0004 24.5786 1 0.3256 1"></polygon>
    </defs>
    <g id="Empty-state" stroke="none" stroke-width="1" fill="none" fill-rule="evenodd">
        <g id="Artboard" transform="translate(-280.000000, -207.000000)">
            <g id="Group-65" transform="translate(280.000000, 207.500000)">
                <line x1="0.4999" y1="58.6829" x2="83.3739" y2="58.6829" id="Stroke-1" stroke="#7176C4" stroke-linecap="round" stroke-linejoin="round"></line>
                <g id="Group-5" transform="translate(54.000000, 64.817300)">
                    <mask id="mask-2" fill="white">
                        <use xlink:href="#path-1"></use>
                    </mask>
                    <g id="Clip-4"></g>
                    <line x1="0.6879" y1="0.5004" x2="11.5479" y2="0.5004" id="Stroke-3" stroke="#7176C4" stroke-linecap="round" stroke-linejoin="round" mask="url(#mask-2)"></line>
                </g>
                <g id="Group-8" transform="translate(21.000000, 64.817300)">
                    <mask id="mask-4" fill="white">
                        <use xlink:href="#path-3"></use>
                    </mask>
                    <g id="Clip-7"></g>
                    <line x1="0.3256" y1="0.5004" x2="24.5786" y2="0.5004" id="Stroke-6" stroke="#7176C4" stroke-linecap="round" stroke-linejoin="round" mask="url(#mask-4)"></line>
                </g>
                <path d="M15.6444,58.6829 L12.4684,58.6829 L12.4684,8.5269 C12.4684,7.7309 13.1134,7.0859 13.9084,7.0859 L15.6444,7.0859 L15.6444,58.6829 Z" id="Fill-9" fill="#DBDBF3"></path>
                <path d="M56.1273,7.0901 L56.1273,15.6401 C54.2463,16.7501 52.6063,18.2401 51.3163,19.9901 L51.3163,7.0901 L56.1273,7.0901 Z" id="Fill-11" fill="#DBDBF3"></path>
                <path d="M56.1273,43.8001 L56.1273,58.6801 L51.3163,58.6801 L51.3163,39.4501 C52.6063,41.2001 54.2463,42.6911 56.1273,43.8001" id="Fill-13" fill="#DBDBF3"></path>
                <path d="M56.1586,43.972 L56.1586,58.683 L10.2876,58.683 L10.2876,7.36 C10.2876,5.967 11.4176,4.838 12.8096,4.838 L53.6376,4.838 C55.0296,4.838 56.1586,5.967 56.1586,7.36 L56.1586,15.618" id="Stroke-15" stroke="#7176C4" stroke-linecap="round" stroke-linejoin="round"></path>
                <polyline id="Stroke-17" stroke="#7176C4" stroke-linecap="round" stroke-linejoin="round" points="51.685 40.0306 51.772 58.6826 14.675 58.6826 14.406 7.0866 51.503 7.0866 51.562 19.3346"></polyline>
                <path d="M36.1684,2.4817 L36.1684,2.4817 C36.1684,1.3867 35.2814,0.5007 34.1864,0.5007 L30.7224,0.5007 C29.6284,0.5007 28.7414,1.3867 28.7414,2.4817 C28.7414,3.4157 28.0904,4.2217 27.1784,4.4187 L22.7054,5.3867 L22.7054,9.3967 L30.0474,9.3967 L34.8614,9.3967 L42.2044,9.3967 L42.2044,5.3867 L37.7304,4.4187 C36.8194,4.2217 36.1684,3.4157 36.1684,2.4817" id="Fill-19" fill="#FFFFFF"></path>
                <path d="M36.1684,2.4817 L36.1684,2.4817 C36.1684,1.3867 35.2814,0.5007 34.1864,0.5007 L30.7224,0.5007 C29.6284,0.5007 28.7414,1.3867 28.7414,2.4817 C28.7414,3.4157 28.0904,4.2217 27.1784,4.4187 L22.7054,5.3867 L22.7054,9.3967 L30.0474,9.3967 L34.8614,9.3967 L42.2044,9.3967 L42.2044,5.3867 L37.7304,4.4187 C36.8194,4.2217 36.1684,3.4157 36.1684,2.4817 Z" id="Stroke-21" stroke="#7176C4" stroke-linecap="round" stroke-linejoin="round"></path>
                <polygon id="Fill-23" fill="#AAAAE2" points="27.5 16.8753 46.729 16.8753 46.729 15.0513 27.5 15.0513"></polygon>
                <polygon id="Fill-25" fill="#DBDBF3" points="27.499 20.1573 37.114 20.1573 37.114 18.3343 27.499 18.3343"></polygon>
                <polyline id="Stroke-27" stroke="#DBDBF3" stroke-linecap="round" stroke-linejoin="round" points="24.9506 18.2815 24.9506 20.5595 18.5566 20.5595 18.5566 14.1655 24.6606 14.1655"></polyline>
                <polyline id="Stroke-29" stroke="#7176C4" stroke-linecap="round" stroke-linejoin="round" points="20.3046 17.4427 21.6236 19.0417 25.4996 15.2447"></polyline>
                <polygon id="Fill-31" fill="#AAAAE2" points="27.581 29.3623 46.81 29.3623 46.81 27.5383 27.581 27.5383"></polygon>
                <polygon id="Fill-33" fill="#DBDBF3" points="27.58 32.6453 37.195 32.6453 37.195 30.8213 27.58 30.8213"></polygon>
                <polyline id="Stroke-35" stroke="#DBDBF3" stroke-linecap="round" stroke-linejoin="round" points="25.0316 30.7688 25.0316 33.0468 18.6376 33.0468 18.6376 26.6528 24.7416 26.6528"></polyline>
                <polyline id="Stroke-37" stroke="#7176C4" stroke-linecap="round" stroke-linejoin="round" points="20.3856 29.93 21.7046 31.529 25.5816 27.732"></polyline>
                <polygon id="Fill-39" fill="#AAAAE2" points="26.757 43.6583 43.92 43.6583 43.92 42.0303 26.757 42.0303"></polygon>
                <polygon id="Fill-41" fill="#DBDBF3" points="26.758 46.5883 35.339 46.5883 35.339 44.9613 26.758 44.9613"></polygon>
                <polyline id="Stroke-43" stroke="#DBDBF3" stroke-linecap="round" stroke-linejoin="round" points="24.4828 44.9143 24.4828 46.9473 18.7748 46.9473 18.7748 41.2393 24.2238 41.2393"></polyline>
                <path d="M35.8104,3.6282 L35.8104,3.6282 C35.8104,2.7152 35.0704,1.9752 34.1574,1.9752 L31.7044,1.9752 C30.7914,1.9752 30.0514,2.7152 30.0514,3.6282 C30.0514,4.4062 29.5084,5.0792 28.7484,5.2442 L25.0164,6.0522 L25.0164,8.8502 L41.6474,8.8502 L41.6474,6.0522 L37.1144,5.2442 C36.3534,5.0792 35.8104,4.4062 35.8104,3.6282" id="Fill-45" fill="#DBDBF3"></path>
                <polygon id="Fill-47" fill="#DBDBF3" points="79.0609 3.6136 77.4419 1.9956 75.4979 3.9376 73.5549 1.9956 71.9369 3.6136 73.8789 5.5566 71.9369 7.5006 73.5549 9.1196 75.4979 7.1766 77.4419 9.1196 79.0609 7.5006 77.1179 5.5566"></polygon>
                <polygon id="Fill-49" fill="#DBDBF3" points="64.4769 49.8382 63.2259 48.5862 61.7239 50.0882 60.2219 48.5862 58.9709 49.8382 60.4729 51.3392 58.9709 52.8412 60.2219 54.0922 61.7239 52.5902 63.2259 54.0922 64.4769 52.8412 62.9749 51.3392"></polygon>
                <path d="M77.5609,53.4017 C77.5609,54.5407 76.6369,55.4637 75.4979,55.4637 C74.3599,55.4637 73.4369,54.5407 73.4369,53.4017 C73.4369,52.2627 74.3599,51.3387 75.4979,51.3387 C76.6369,51.3387 77.5609,52.2627 77.5609,53.4017" id="Fill-51" fill="#DBDBF3"></path>
                <path d="M7.1718,3.4954 C7.1718,4.6344 6.2488,5.5574 5.1098,5.5574 C3.9708,5.5574 3.0478,4.6344 3.0478,3.4954 C3.0478,2.3564 3.9708,1.4324 5.1098,1.4324 C6.2488,1.4324 7.1718,2.3564 7.1718,3.4954" id="Fill-53" fill="#DBDBF3"></path>
                <path d="M56.1586,58.6829 L48.1066,58.6829 L48.1066,28.4509 C48.1066,28.4509 47.9906,34.7629 50.4556,38.3439 C52.5926,41.4489 56.1586,43.7379 56.1586,43.7379 L56.1586,58.6829 Z" id="Fill-55" fill-opacity="0.4" fill="#AAAAE2"></path>
                <path d="M80.8471,30.6546 C80.8471,39.1796 73.9361,46.0926 65.4091,46.0926 C56.8831,46.0926 49.9711,39.1796 49.9711,30.6546 C49.9711,22.1286 56.8831,15.2166 65.4091,15.2166 C73.9361,15.2166 80.8471,22.1286 80.8471,30.6546" id="Fill-57" fill="#DBDBF3"></path>
                <path d="M80.4066,33.5091 C79.1776,38.6901 75.4866,42.9091 70.6466,44.8791 L59.9866,34.2191 L70.5566,23.6501 L80.4066,33.5091 Z" id="Fill-59" fill="#BCBCE2"></path>
                <polygon id="Fill-61" fill="#FFFFFF" points="69.8519 23.0159 62.2299 30.6389 59.1019 27.5109 56.2069 30.4049 62.2299 36.4269 65.1229 33.5329 72.7459 25.9109"></polygon>
                <path d="M80.8471,29.719 C80.8471,31.03 80.6971,32.289 80.4071,33.509 C79.1771,38.69 75.4871,42.909 70.6471,44.879 C68.7461,45.659 66.6571,46.089 64.4771,46.089 C55.4371,46.089 48.1071,38.759 48.1071,29.719 C48.1071,20.679 55.4371,13.349 64.4771,13.349 C73.5171,13.349 80.8471,20.679 80.8471,29.719 Z" id="Stroke-63" stroke="#7176C4"></path>
            </g>
        </g>
    </g>
</svg>