<?xml version="1.0" encoding="UTF-8"?><svg id="trim_area" xmlns="http://www.w3.org/2000/svg" viewBox="0 0 192 192"><defs><style>.cls-1{fill:none;}.cls-2{fill:#334056;}</style></defs><path class="cls-2" d="M128.42,121.39l33.02-38.31c1.63,.43,3.32,.65,5.03,.65,5.27,0,10.22-2.06,13.94-5.78s3.81-10.02,0-13.83l-43.8-43.8c-1.82-1.82-4.32-2.86-6.79-2.86-.05,0-.11,0-.15,0-2.57,0-5.07,1.04-6.89,2.86-5.18,5.18-6.97,12.61-5.03,19.37l-38.13,32.93c-3.75-2.57-8.19-3.96-12.83-3.96-6.1,0-11.82,2.37-16.11,6.67-4.89,4.89-4.89,12.87,0,17.76l24.42,24.42-39.87,39.87c-2.34,2.34-2.35,6.14,0,8.49,2.34,2.34,6.14,2.34,8.49,0l39.87-39.87,24.42,24.42c2.38,2.38,5.53,3.68,8.91,3.68,3.35-.01,6.5-1.32,8.85-3.68,7.88-7.88,8.77-20.15,2.65-29.03Zm-11.53,20.7c-.23,0-.36-.12-.4-.16l-57.33-57.33c-.22-.22-.22-.57,0-.79,2.04-2.04,4.74-3.15,7.62-3.15,2.88,0,5.58,1.12,7.62,3.16l4.91,4.91,53.43-46.13-2.63-4.34c-1.44-2.39-1.46-5.3-.18-7.66l40.21,40.21c-1.11,.6-2.37,.93-3.66,.93-1.36,0-2.68-.35-3.84-1.01l-4.29-2.44-46.05,53.44,4.98,4.98c4.21,4.21,4.21,11.04,0,15.24-.13,.13-.3,.16-.39,.16Z"/><rect class="cls-1" width="192" height="192"/></svg>