<?xml version="1.0" encoding="UTF-8"?>
<svg width="100px" height="100px" viewBox="0 0 100 100" version="1.1" xmlns="http://www.w3.org/2000/svg" xmlns:xlink="http://www.w3.org/1999/xlink">
    <!-- Generator: Sketch 52 (66869) - http://www.bohemiancoding.com/sketch -->
    <title>L shaped duct 2</title>
    <desc>Created with Sketch.</desc>
    <defs>
        <linearGradient x1="100%" y1="15.1876786%" x2="0%" y2="15.1876786%" id="linearGradient-1">
            <stop stop-color="#424951" offset="0%"></stop>
            <stop stop-color="#909CAC" offset="100%"></stop>
        </linearGradient>
        <linearGradient x1="54.3006639%" y1="100%" x2="54.3006639%" y2="0%" id="linearGradient-2">
            <stop stop-color="#282828" offset="0%"></stop>
            <stop stop-color="#C6D0E1" offset="100%"></stop>
        </linearGradient>
    </defs>
    <g id="AHU-Illustration" stroke="none" stroke-width="1" fill="none" fill-rule="evenodd">
        <g id="Types-of-Ducts" transform="translate(-235.000000, -474.000000)">
            <g id="L-shaped-duct-2" transform="translate(285.000000, 524.000000) scale(1, -1) translate(-285.000000, -524.000000) translate(235.000000, 474.000000)">
                <polygon id="Path-8" fill="#848E9C" points="23.960088 23 0 23.2938705 0 -2.87288387e-14 23.960088 -4.61852778e-14"></polygon>
                <polygon id="Path-8-Copy" fill="url(#linearGradient-1)" points="100 99.9480082 70 70 70 -5.68434189e-14 100 -5.68434189e-14"></polygon>
                <polygon id="Path-9" fill="#5B6777" points="0 23 23.4036799 23 23.4036799 -9.23705556e-14 70 -3.59889165e-15 70 70 100 99.9480082 1.42941214e-13 99.9480082"></polygon>
                <polygon id="Path-4-Copy" fill="url(#linearGradient-2)" opacity="0.5" points="0 70 1.73472348e-16 99.9480082 100 99.9480082 70 70"></polygon>
            </g>
        </g>
    </g>
</svg>