<?xml version="1.0" encoding="UTF-8"?>
<svg width="50px" height="50px" viewBox="0 0 50 50" version="1.1" xmlns="http://www.w3.org/2000/svg" xmlns:xlink="http://www.w3.org/1999/xlink">
    <!-- Generator: Sketch 63.1 (92452) - https://sketch.com -->
    <title>linear</title>
    <desc>Created with Sketch.</desc>
    <g id="linear" stroke="none" stroke-width="1" fill="none" fill-rule="evenodd">
        <path d="M45,3 C47.7614237,3 50,5.23857625 50,8 L50,42 C50,44.7614237 47.7614237,47 45,47 L5,47 C2.23857625,47 0,44.7614237 0,42 L0,8 C0,5.23857625 2.23857625,3 5,3 L45,3 Z M45,6 L5,6 C3.9456382,6 3.08183488,6.81587779 3.00548574,7.85073766 L3,8 L3,42 C3,43.0543618 3.81587779,43.9181651 4.85073766,43.9945143 L5,44 L45,44 C46.0543618,44 46.9181651,43.1841222 46.9945143,42.1492623 L47,42 L47,8 C47,6.9456382 46.1841222,6.08183488 45.1492623,6.00548574 L45,6 Z" id="Rectangle" fill="#324056" fill-rule="nonzero"></path>
        <path d="M37.9682172,12.8220474 C38.6187824,12.3091572 39.5619494,12.4207649 40.0748397,13.0713301 C40.5556742,13.681235 40.4876337,14.5483094 39.9412012,15.0769198 L39.825557,15.1779526 L11.9286699,37.1711973 C11.2781047,37.6840875 10.3349377,37.5724798 9.82204744,36.9219146 C9.34121286,36.3120097 9.40925336,35.4449353 9.95568592,34.9163249 L10.0713301,34.8152922 L37.9682172,12.8220474 Z" id="Path-62" fill="#324056" fill-rule="nonzero"></path>
    </g>
</svg>