<?xml version="1.0" encoding="UTF-8"?>
<svg width="18px" height="17px" viewBox="0 0 18 17" version="1.1" xmlns="http://www.w3.org/2000/svg" xmlns:xlink="http://www.w3.org/1999/xlink">
    <!-- Generator: Sketch 63.1 (92452) - https://sketch.com -->
    <title>priority</title>
    <desc>Created with Sketch.</desc>
    <g id="Page-1" stroke="none" stroke-width="1" fill="none" fill-rule="evenodd">
        <g id="Portfolio_All_Sites_1.1" transform="translate(-771.000000, -298.000000)" fill="#324056" fill-rule="nonzero">
            <g id="priority" transform="translate(771.000000, 298.000000)">
                <path d="M7.875,0.01209375 L7.875,3.38709375 L18,3.38709375 L18,0.01209375 L7.875,0.01209375 Z M16.875,2.26209375 L9,2.26209375 L9,1.13709375 L16.875,1.13709375 L16.875,2.26209375 Z" id="Shape"></path>
                <path d="M7.875,15.7620938 L18,15.7620938 L18,12.3870938 L7.875,12.3870938 L7.875,15.7620938 Z M9,13.5120938 L16.875,13.5120938 L16.875,14.6370938 L9,14.6370938 L9,13.5120938 Z" id="Shape"></path>
                <path d="M7.875,9.57459375 L18,9.57459375 L18,6.19959375 L7.875,6.19959375 L7.875,9.57459375 Z M9,7.32459375 L16.875,7.32459375 L16.875,8.44959375 L9,8.44959375 L9,7.32459375 Z" id="Shape"></path>
                <rect id="Rectangle" x="5.625" y="1.13709375" width="1.125" height="1.125"></rect>
                <path d="M3.9375,2.26209375 L4.5,2.26209375 L4.5,1.13709375 L3.9375,1.13709375 C3.71917969,1.13779688 3.50131641,1.15664062 3.286125,1.19334375 L3.4695,2.30259375 C3.62415234,2.27650781 3.78066797,2.2629375 3.9375,2.26209375 Z" id="Path"></path>
                <path d="M3.5398125,12.2222812 L4.829625,13.5120938 L3.9375,13.5120938 C2.38496484,13.5102305 1.12686328,12.2521289 1.125,10.6995938 L1.125,5.07459375 C1.1244375,4.04616797 1.68528516,3.09944531 2.5875,2.60578125 L2.0475,1.61859375 C0.784511719,2.30966016 -0.0006328125,3.63491016 -3.82238744e-07,5.07459375 L-3.82238744e-07,10.6995938 C0.00249609375,12.8731992 1.76389453,14.6345977 3.9375,14.6370938 L4.829625,14.6370938 L3.5398125,15.9269063 L4.3351875,16.7222813 L6.982875,14.0745938 L4.3351875,11.4269062 L3.5398125,12.2222812 Z" id="Path"></path>
            </g>
        </g>
    </g>
</svg>