<svg xmlns="http://www.w3.org/2000/svg" viewBox="0 0 192 192"><defs><style>.cls-1{fill:none;}.cls-2{fill:#334056;}</style></defs><g id="trim_area" data-name="trim area"><path class="cls-1" d="M150.72,83.76a168.94,168.94,0,0,0,22.22-9,80.12,80.12,0,0,0-17.66-32.44,121.21,121.21,0,0,1-17.18,7.43A90.71,90.71,0,0,1,150.72,83.76Z"/><path class="cls-1" d="M53.44,48.68A133.81,133.81,0,0,1,37,41.25a80.09,80.09,0,0,0-18.1,31.62,187.13,187.13,0,0,0,22.18,9.5A94.33,94.33,0,0,1,53.44,48.68Z"/><path class="cls-1" d="M92,56.47a122.45,122.45,0,0,1-30.74-5.16A85.7,85.7,0,0,0,48.77,84.9,166.77,166.77,0,0,0,92,92.05Z"/><path class="cls-1" d="M100,56.49V92.1a174.4,174.4,0,0,0,43-6,82.86,82.86,0,0,0-12.84-33.88A127.89,127.89,0,0,1,100,56.49Z"/><path class="cls-2" d="M169.92,8.06H22.08a14,14,0,0,0-14,14V169.94a14,14,0,0,0,14,14H169.92a14,14,0,0,0,14-14V22.06A14,14,0,0,0,169.92,8.06Zm-147.84,8H169.92a6,6,0,0,1,6,6v18H16.08v-18A6,6,0,0,1,22.08,16.06ZM169.92,175.94H22.08a6,6,0,0,1-6-6V48.07H175.92V169.94A6,6,0,0,1,169.92,175.94Z"/><circle class="cls-2" cx="28.19" cy="28.13" r="4.15"/><circle class="cls-2" cx="48.14" cy="28.11" r="4.15"/><circle class="cls-2" cx="68.12" cy="28.13" r="4.15"/><path class="cls-2" d="M38.46,88.18V99.62a8.79,8.79,0,0,1,3.19-2.75A8.59,8.59,0,0,1,45.46,96q3.95,0,5.85,2.06t1.9,6.49v15.29H47V105.37c0-1.62-.31-2.73-.93-3.32a3.45,3.45,0,0,0-2.48-.88,5.32,5.32,0,0,0-2.06.35,5.8,5.8,0,0,0-1.62,1,5.53,5.53,0,0,0-1,1.48,4.29,4.29,0,0,0-.42,1.89v13.91h-6.2V88.18Z"/><path class="cls-2" d="M56.27,101.52V96.69H59.9V90.53h6.2v6.16h5.32v4.83H66.1V112.2a3.17,3.17,0,0,0,.75,2.46,2.92,2.92,0,0,0,2,.64,10.93,10.93,0,0,0,1.27-.07,6.83,6.83,0,0,0,1.26-.24l.89,4.56a15.19,15.19,0,0,1-2.51.56,19,19,0,0,1-2.32.15c-2.54,0-4.43-.6-5.65-1.81s-1.84-3.25-1.84-6.12V101.52Z"/><path class="cls-2" d="M73.05,101.52V96.69h3.64V90.53h6.2v6.16h5.32v4.83H82.89V112.2a3.17,3.17,0,0,0,.75,2.46,2.88,2.88,0,0,0,2,.64,10.64,10.64,0,0,0,1.26-.07,6.94,6.94,0,0,0,1.27-.24l.88,4.56a14.87,14.87,0,0,1-2.5.56,19.07,19.07,0,0,1-2.33.15q-3.81,0-5.64-1.81c-1.23-1.22-1.84-3.25-1.84-6.12V101.52Z"/><path class="cls-2" d="M98.08,96.69v3.06A8.45,8.45,0,0,1,105.35,96c3.22,0,5.63,1.1,7.22,3.28s2.39,5.18,2.39,9a17.44,17.44,0,0,1-.68,5,11.41,11.41,0,0,1-2,3.88,9,9,0,0,1-3.17,2.5,9.66,9.66,0,0,1-4.2.89,10.08,10.08,0,0,1-3.44-.62,7.63,7.63,0,0,1-3.21-2.48v11h-6.2V96.69ZM98.59,112a5,5,0,0,0,1.22,2.2,4.52,4.52,0,0,0,1.8,1,7.07,7.07,0,0,0,1.83.24,4.83,4.83,0,0,0,2-.4,4.07,4.07,0,0,0,1.62-1.26,6.5,6.5,0,0,0,1.09-2.24,12.24,12.24,0,0,0,.39-3.32,13.15,13.15,0,0,0-.37-3.41,6.47,6.47,0,0,0-1-2.24,3.82,3.82,0,0,0-1.58-1.24,4.94,4.94,0,0,0-1.92-.38,6,6,0,0,0-2,.31,5.89,5.89,0,0,0-1.64,1,5,5,0,0,0-1.3,2.12,10.76,10.76,0,0,0-.42,3.28v.71A14,14,0,0,0,98.59,112Z"/><path class="cls-2" d="M125.55,96.69v7.13h-6.34V96.69Zm0,16v7.14h-6.34v-7.14Z"/><path class="cls-2" d="M128.6,119.82,138.88,87.3H145l-10.28,32.52Z"/><path class="cls-2" d="M143.31,119.82,153.59,87.3h6.15l-10.27,32.52Z"/></g></svg>