<svg width="20" height="20" viewBox="0 0 20 20" xmlns="http://www.w3.org/2000/svg">
    <g fill="none" fill-rule="evenodd">
        <path d="M16.188 2.094H3.793a2.964 2.964 0 0 0-2.96 2.96v8.226a2.964 2.964 0 0 0 2.96 2.96h5.374v1.261H7.083a.833.833 0 1 0 0 1.667h5.834a.833.833 0 1 0 0-1.667h-2.084v-1.26h5.354a2.964 2.964 0 0 0 2.96-2.96V5.053a2.964 2.964 0 0 0-2.96-2.96zm.877 11.186a.878.878 0 0 1-.878.877H3.793a.878.878 0 0 1-.877-.877V5.054c0-.483.392-.877.877-.877h12.396c.483 0 .877.394.877.877v8.226h-.001z" fill="#7374FF" fill-rule="nonzero"/>
        <path d="M0 0h20v20H0z"/>
    </g>
</svg>
