<?xml version="1.0" encoding="UTF-8"?>
<svg width="57px" height="77px" viewBox="0 0 57 77" version="1.1" xmlns="http://www.w3.org/2000/svg" xmlns:xlink="http://www.w3.org/1999/xlink">
    <!-- Generator: Sketch 50.2 (55047) - http://www.bohemiancoding.com/sketch -->
    <title>drop</title>
    <desc>Created with Sketch.</desc>
    <defs></defs>
    <g id="Page-1" stroke="none" stroke-width="1" fill="none" fill-rule="evenodd">
        <g id="drop" fill="#6B7E91" fill-rule="nonzero">
            <path d="M28.489,76.977 C12.949,76.977 0.306,64.334 0.306,48.795 C0.306,34.265 23.491,4.488 26.134,1.141 C26.703,0.421 27.571,0 28.488,0 C29.405,0 30.273,0.42 30.842,1.141 C33.486,4.489 56.67,34.265 56.67,48.795 C56.671,64.334 44.029,76.977 28.489,76.977 Z M28.489,7.917 C20.642,18.326 6.306,39.306 6.306,48.795 C6.306,61.026 16.257,70.977 28.489,70.977 C40.721,70.977 50.672,61.027 50.672,48.795 C50.671,39.306 36.335,18.326 28.489,7.917 Z" id="Shape"></path>
            <path d="M28.489,64.981 C26.832,64.981 25.489,63.638 25.489,61.981 C25.489,60.324 26.832,58.981 28.489,58.981 C34.105,58.981 38.675,54.414 38.675,48.798 C38.675,47.141 40.018,45.798 41.675,45.798 C43.331,45.798 44.675,47.141 44.675,48.798 C44.674,57.721 37.413,64.981 28.489,64.981 Z" id="Shape"></path>
        </g>
    </g>
</svg>