<svg id="Layer_1" xmlns="http://www.w3.org/2000/svg" viewBox="0 0 24 24">
  <defs>
    <clipPath id="clippath">
      <rect class="cls-1" x="2" y="2" width="18" height="6" rx="1" ry="1"/>
    </clipPath>
    <clipPath id="clippath-1">
      <rect class="cls-1" x="4" y="9" width="18" height="6" rx="1" ry="1"/>
    </clipPath>
    <clipPath id="clippath-2">
      <rect class="cls-1" x="2" y="16" width="17" height="6" rx="1" ry="1"/>
    </clipPath>
    <clipPath id="clippath-3">
      <circle class="cls-1" cx="5" cy="5" r="1"/>
    </clipPath>
    <clipPath id="clippath-4">
      <circle class="cls-1" cx="16" cy="19" r="1"/>
    </clipPath>
    <clipPath id="clippath-5">
      <circle class="cls-1" cx="20" cy="12" r="1"/>
    </clipPath>
    <clipPath id="clippath-6">
      <path class="cls-1" d="M7 4h11v2H7z"/>
    </clipPath>
    <clipPath id="clippath-7">
      <path class="cls-1" d="M4 18h10v2H4z"/>
    </clipPath>
    <style>
      .cls-1{fill:none}.cls-4{fill:#fff}.cls-5{fill:#5b75ff}
    </style>
  </defs>
  <g clip-path="url(#clippath)">
    <path class="cls-5" d="M2 2h18v6H2V2z"/>
  </g>
  <g clip-path="url(#clippath-1)">
    <path class="cls-5" d="M4 9h18v6H4V9z"/>
  </g>
  <g clip-path="url(#clippath-2)">
    <path class="cls-5" d="M2 16h17v6H2v-6z"/>
  </g>
  <g clip-path="url(#clippath-3)">
    <path class="cls-4" d="M4 4h2v2H4V4z"/>
  </g>
  <g clip-path="url(#clippath-4)">
    <path class="cls-4" d="M15 18h2v2h-2v-2z"/>
  </g>
  <g clip-path="url(#clippath-5)">
    <path class="cls-4" d="M19 11h2v2h-2v-2z"/>
  </g>
  <g clip-path="url(#clippath-6)">
    <path class="cls-4" d="M7 4h11v2H7V4z"/>
  </g>
  <g clip-path="url(#clippath-7)">
    <path class="cls-4" d="M4 18h10v2H4v-2z"/>
  </g>
  <path d="M6 13c3.64-3.54 8.66 2.94 12-2" stroke="#fff" stroke-miterlimit="10" fill="none"/>
</svg>
