<svg xmlns="http://www.w3.org/2000/svg" viewBox="0 0 192 192"><defs><style>.cls-1{fill:none;}.cls-2{fill:#334056;}</style></defs><g id="trim_area" data-name="trim area"><rect class="cls-1" width="192" height="192"/><path class="cls-2" d="M78.09,99.34H95.48A34.49,34.49,0,0,1,111,103a5.66,5.66,0,0,0,8-3.26h0A5.62,5.62,0,0,0,116.23,93a48,48,0,0,0-4.91-2.15l-7-2.56,5.18-5.36a31.63,31.63,0,1,0-45.42,0l5.18,5.37-7,2.56A46.16,46.16,0,0,0,32.14,134v7.56A18.85,18.85,0,0,0,51,160.43H95.16a5.63,5.63,0,0,0,5.37-3.9h0a5.65,5.65,0,0,0-5.37-7.4H51a7.56,7.56,0,0,1-7.54-7.56V134A34.69,34.69,0,0,1,78.09,99.34ZM66.56,63.05A20.33,20.33,0,1,1,84.71,81.2,20.35,20.35,0,0,1,66.56,63.05Z"/><path class="cls-2" d="M112.59,163.37a5.84,5.84,0,0,1-5.55-7.64l5.4-16.6L98.31,128.87a5.82,5.82,0,0,1,3.43-10.54H119.2l5.39-16.61a5.81,5.81,0,0,1,5.54-4h0a5.81,5.81,0,0,1,5.54,4l5.39,16.61h17.46A5.82,5.82,0,0,1,162,128.87l-14.13,10.26,5.4,16.61a5.83,5.83,0,0,1-9,6.51L130.13,152,116,162.25A5.76,5.76,0,0,1,112.59,163.37Zm31.13-4.55h0Zm-27.17,0h0ZM130.14,141a5.84,5.84,0,0,1,3.42,1.11l6.19,4.5-2.36-7.28a5.81,5.81,0,0,1,2.11-6.51l6.2-4.5H138a5.82,5.82,0,0,1-5.54-4L130.13,117l-2.36,7.28a5.81,5.81,0,0,1-5.54,4h-7.66l6.19,4.49a5.83,5.83,0,0,1,2.12,6.53l-2.36,7.27,6.19-4.5A5.85,5.85,0,0,1,130.14,141Zm-16.77-4.76h0Zm33.53,0Zm-20.73-31.44h0Z"/></g></svg>
