<?xml version="1.0" encoding="utf-8"?>
<!-- Generator: Adobe Illustrator 25.4.1, SVG Export Plug-In . SVG Version: 6.00 Build 0)  -->
<svg version="1.1" id="Layer_1" xmlns="http://www.w3.org/2000/svg" xmlns:xlink="http://www.w3.org/1999/xlink" x="0px" y="0px"
	 viewBox="0 0 192 192" style="enable-background:new 0 0 192 192;" xml:space="preserve">
<style type="text/css">
	.st0{fill:#7176C4;}
	.st1{fill-rule:evenodd;clip-rule:evenodd;fill:#EDEDF9;}
	.st2{fill-rule:evenodd;clip-rule:evenodd;fill:#BCBCE2;}
	.st3{fill-rule:evenodd;clip-rule:evenodd;fill:#DBDBF3;}
	.st4{fill:none;}
</style>
<g>
	<g id="Stroke-1">
		<path class="st0" d="M182.3,154.5H6.1c-0.3,0-0.5-0.2-0.5-0.5c0-0.3,0.2-0.5,0.5-0.5h176.2c0.3,0,0.5,0.2,0.5,0.5
			C182.8,154.3,182.6,154.5,182.3,154.5z"/>
	</g>
	<g id="Stroke-3">
		<path class="st0" d="M144.4,168.6h-23.1c-0.3,0-0.5-0.2-0.5-0.5s0.2-0.5,0.5-0.5h23.1c0.3,0,0.5,0.2,0.5,0.5
			S144.7,168.6,144.4,168.6z"/>
	</g>
	<g id="Stroke-5">
		<path class="st0" d="M101.9,168.6H50.4c-0.3,0-0.5-0.2-0.5-0.5s0.2-0.5,0.5-0.5h51.6c0.3,0,0.5,0.2,0.5,0.5
			S102.2,168.6,101.9,168.6z"/>
	</g>
	<polygon id="Fill-7" class="st1" points="140.4,76.1 140.4,153.4 95.9,153.4 95.9,75.4 124.5,68.9 126.3,68.5 	"/>
	<polygon id="Fill-13" class="st2" points="110.2,66.8 110.2,153.4 95.9,153.4 95.9,70 	"/>
	<polygon id="Fill-15" class="st1" points="26.9,70.7 67.6,63.3 67.6,71.4 26.9,73.7 	"/>
	<polygon id="Fill-18" class="st1" points="26.9,86.6 67.8,80.2 67.8,88.3 26.9,89.6 	"/>
	<polygon id="Fill-20" class="st1" points="26.9,101.4 67.8,96.2 67.8,104.3 26.9,104.4 	"/>
	<polygon id="Fill-22" class="st1" points="26.9,117.5 67.8,112.2 67.8,120.4 26.9,120.5 	"/>
	<polygon id="Fill-24" class="st1" points="26.9,132.2 67.8,130.3 67.8,138.4 26.9,135.2 	"/>
	<g>
		<g id="Stroke-11">
			<path class="st0" d="M78.2,154.5H15.9c-0.3,0-0.5-0.2-0.5-0.5V61c0-0.2,0.2-0.5,0.4-0.5L78,46.1c0.2,0,0.3,0,0.5,0.1
				c0.1,0.1,0.2,0.3,0.2,0.4V154C78.7,154.3,78.5,154.5,78.2,154.5z M16.4,153.4h61.2V47.3L16.4,61.4V153.4z"/>
		</g>
		<g id="Stroke-12">
			<path class="st0" d="M95.9,154.5H78.2c-0.3,0-0.5-0.2-0.5-0.5V46.6c0-0.2,0.1-0.4,0.3-0.5c0.2-0.1,0.4-0.1,0.5,0l17.7,9.6
				c0.2,0.1,0.3,0.3,0.3,0.5V154C96.5,154.3,96.2,154.5,95.9,154.5z M78.7,153.4h16.7V56.5l-16.7-9V153.4z"/>
		</g>
		<g id="Stroke-14">
			<path class="st0" d="M95.9,154.5c-0.1,0-0.3-0.1-0.4-0.2c-0.1-0.1-0.2-0.2-0.2-0.4V70c0-0.2,0.2-0.5,0.4-0.5l28.5-6.6
				c0.2,0,0.3,0,0.5,0.1c0.1,0.1,0.2,0.3,0.2,0.4V154c0,0.3-0.2,0.5-0.5,0.5L95.9,154.5L95.9,154.5z M96.5,70.5v83l27.5,0V64.2
				L96.5,70.5z"/>
		</g>
		<g id="Stroke-16">
			<path class="st0" d="M143.6,154.5h-19.1c-0.3,0-0.5-0.2-0.5-0.5V63.5c0-0.2,0.1-0.3,0.2-0.4c0.2-0.1,0.3-0.1,0.5,0l19.1,8.3
				c0.2,0.1,0.3,0.3,0.3,0.5v10.9c0,0.3-0.2,0.5-0.5,0.5c-0.3,0-0.5-0.2-0.5-0.5V72.1L125,64.3v89.2h18.1v-3c0-0.3,0.2-0.5,0.5-0.5
				c0.3,0,0.5,0.2,0.5,0.5v3.6C144.1,154.3,143.9,154.5,143.6,154.5z"/>
		</g>
		<g id="Stroke-17">
			<path class="st0" d="M26.9,71.7c-0.3,0-0.5-0.2-0.5-0.4c-0.1-0.3,0.1-0.6,0.4-0.6l40.9-7.7c0.3-0.1,0.6,0.1,0.6,0.4
				c0.1,0.3-0.1,0.6-0.4,0.6L26.9,71.7C27,71.7,27,71.7,26.9,71.7z"/>
		</g>
		<g id="Stroke-19">
			<path class="st0" d="M26.9,87.1c-0.3,0-0.5-0.2-0.5-0.5c0-0.3,0.2-0.6,0.4-0.6l40.9-6.4c0.3,0,0.6,0.2,0.6,0.4
				c0,0.3-0.2,0.6-0.4,0.6L26.9,87.1C27,87.1,27,87.1,26.9,87.1z"/>
		</g>
		<g id="Stroke-21">
			<path class="st0" d="M26.9,102c-0.3,0-0.5-0.2-0.5-0.5c0-0.3,0.2-0.6,0.5-0.6l40.9-5.4c0.3,0,0.6,0.2,0.6,0.5
				c0,0.3-0.2,0.6-0.5,0.6L26.9,102C27,102,27,102,26.9,102z"/>
		</g>
		<g id="Stroke-23">
			<path class="st0" d="M26.9,118.1c-0.3,0-0.5-0.2-0.5-0.5c0-0.3,0.2-0.6,0.5-0.6l40.9-5.4c0.3,0,0.6,0.2,0.6,0.5
				c0,0.3-0.2,0.6-0.5,0.6L26.9,118.1C27,118.1,27,118.1,26.9,118.1z"/>
		</g>
		<g id="Stroke-25">
			<path class="st0" d="M26.9,132.7c-0.3,0-0.5-0.2-0.5-0.5c0-0.3,0.2-0.5,0.5-0.6l40.9-1.9c0.3,0,0.5,0.2,0.6,0.5
				c0,0.3-0.2,0.5-0.5,0.6L26.9,132.7C26.9,132.7,26.9,132.7,26.9,132.7z"/>
		</g>
	</g>
	<path id="Fill-26" class="st3" d="M172.5,115.6c2.6-1.9,4.3-4.9,4.3-8.4c0-5.7-4.7-10.4-10.4-10.4c-1.7,0-3.3,0.5-4.7,1.2
		c-0.8-4.1-4.4-7.2-8.7-7.2c-4.9,0-8.9,4-8.9,8.9c0,0.6,0.1,1.1,0.2,1.7c-3.8,1.6-6.4,5.3-6.4,9.6c0,3.2,1.5,6,3.7,7.9
		c-4.4,2.1-7.5,6.6-7.5,11.9c0,7.3,5.9,13.2,13.2,13.2c4.7,0,8.9-2.5,11.2-6.3c2.2,1.7,5,2.7,8,2.7c7.3,0,13.2-5.9,13.2-13.2
		C179.6,122.2,176.7,117.8,172.5,115.6"/>
	<g id="Stroke-28">
		<path class="st0" d="M145.2,144.6c-8,0-14.6-6.5-14.6-14.6c0-5.3,2.9-10.2,7.6-12.7c-2.3-2.2-3.6-5.2-3.6-8.3
			c0-4.6,2.6-8.6,6.7-10.5c-0.1-0.5-0.1-1-0.1-1.5c0-5.5,4.5-10,10-10c4.5,0,8.5,3.1,9.7,7.4c1.5-0.7,3.1-1,4.6-1
			c6.4,0,11.6,5.2,11.6,11.6c0,3.4-1.5,6.7-4.2,8.9c4.4,2.6,7.2,7.3,7.2,12.5c0,8-6.5,14.6-14.6,14.6c-3,0-5.8-0.9-8.3-2.7
			C154.6,142.2,150.1,144.6,145.2,144.6z M151.3,88c-4.9,0-9,4-9,9c0,0.5,0.1,1.1,0.2,1.7c0,0.2-0.1,0.5-0.3,0.6
			c-3.9,1.6-6.5,5.4-6.5,9.7c0,3.1,1.4,6,3.8,8c0.1,0.1,0.2,0.3,0.2,0.5c0,0.2-0.1,0.3-0.3,0.4c-4.7,2.3-7.7,6.9-7.7,12.1
			c0,7.5,6.1,13.5,13.5,13.5c4.7,0,9-2.4,11.5-6.4c0.1-0.1,0.2-0.2,0.4-0.2c0.1,0,0.3,0,0.4,0.1c2.4,1.8,5.2,2.8,8.1,2.8
			c7.5,0,13.5-6.1,13.5-13.5c0-5-2.8-9.6-7.3-11.9c-0.2-0.1-0.3-0.3-0.3-0.4c0-0.2,0.1-0.4,0.2-0.5c2.7-2,4.4-5.2,4.4-8.5
			c0-5.8-4.7-10.5-10.5-10.5c-1.6,0-3.2,0.4-4.8,1.2c-0.2,0.1-0.3,0.1-0.5,0c-0.2-0.1-0.3-0.2-0.3-0.4C159.2,91,155.5,88,151.3,88z"
			/>
	</g>
	<g id="Stroke-30">
		<path class="st0" d="M157,154c-0.3,0-0.5-0.2-0.5-0.5v-46.5c0-0.3,0.2-0.5,0.5-0.5c0.3,0,0.5,0.2,0.5,0.5v46.5
			C157.5,153.7,157.3,154,157,154z"/>
	</g>
	<g id="Stroke-32">
		<path class="st0" d="M156.8,131.8c-0.1,0-0.2,0-0.3-0.1l-9.7-6c-0.3-0.2-0.3-0.5-0.2-0.7c0.2-0.3,0.5-0.3,0.7-0.2l9.4,5.9l9.9-5.9
			c0.3-0.2,0.6-0.1,0.7,0.2c0.2,0.3,0.1,0.6-0.2,0.7l-10.2,6C157,131.7,156.9,131.8,156.8,131.8z"/>
	</g>
	<g id="Stroke-34">
		<path class="st0" d="M156.8,117c-0.1,0-0.2,0-0.3-0.1l-8.1-6c-0.2-0.2-0.3-0.5-0.1-0.7c0.2-0.2,0.5-0.3,0.7-0.1l7.8,5.8l6.5-4.5
			c0.2-0.2,0.6-0.1,0.7,0.1c0.2,0.2,0.1,0.6-0.1,0.7l-6.8,4.7C157,117,156.9,117,156.8,117z"/>
	</g>
	<polygon id="Fill-36" class="st3" points="163.6,52.9 160.9,84.9 166.1,86.9 167.9,52.9 	"/>
	<g id="Stroke-38">
		<path class="st0" d="M178.6,92.3c-0.3,0-0.5-0.2-0.5-0.5l-2.2-54h-7.2l-2,49.1c0,0.3-0.3,0.5-0.6,0.5c-0.3,0-0.5-0.3-0.5-0.6
			l2-49.6c0-0.3,0.2-0.5,0.5-0.5h8.2c0.3,0,0.5,0.2,0.5,0.5l2.2,54.5C179.1,92,178.9,92.3,178.6,92.3
			C178.6,92.3,178.6,92.3,178.6,92.3z"/>
	</g>
	<g id="Stroke-40">
		<path class="st0" d="M156.6,82.1C156.6,82.1,156.6,82.1,156.6,82.1c-0.3,0-0.6-0.3-0.5-0.6l2.4-28.6c0-0.3,0.3-0.5,0.5-0.5h8.3
			c0.3,0,0.5,0.2,0.5,0.5c0,0.3-0.2,0.5-0.5,0.5h-7.8l-2.3,28.1C157.1,81.9,156.9,82.1,156.6,82.1z"/>
	</g>
	<path id="Fill-42" class="st3" d="M152.4,40.9c0,2.4-2,4.4-4.4,4.4c-2.4,0-4.4-2-4.4-4.4c0-2.4,2-4.4,4.4-4.4
		C150.4,36.5,152.4,38.4,152.4,40.9"/>
	<path id="Fill-44" class="st3" d="M115.9,37.9c0,4.2-3.4,7.6-7.6,7.6s-7.6-3.4-7.6-7.6c0-4.2,3.4-7.6,7.6-7.6
		S115.9,33.7,115.9,37.9"/>
	<path id="Fill-46" class="st3" d="M25.6,42.6c0,2.1-1.7,3.8-3.8,3.8c-2.1,0-3.8-1.7-3.8-3.8c0-2.1,1.7-3.8,3.8-3.8
		C23.9,38.8,25.6,40.5,25.6,42.6"/>
	<rect class="st4" width="192" height="192"/>
</g>
</svg>
