<svg width="12" height="12" viewBox="0 0 12 12" xmlns="http://www.w3.org/2000/svg">
    <g fill="none" fill-rule="evenodd">
        <path d="M10.755 1.585h-9.51c-.317 0-.573.28-.573.625s.256.625.573.625h.573v7.25c0 .345.256.625.573.625.316 0 .573-.28.573-.625v-7.25h2.463V6.75c0 .504.375.912.837.912h2.772v2.424c0 .345.257.625.573.625.317 0 .573-.28.573-.625v-7.25h.573c.317 0 .573-.28.573-.625 0-.346-.256-.625-.573-.625v-.001zM9.036 6.412H6.573V5.25h2.463v1.162zm0-2.412H6.573V2.835h2.463V4z" fill="#C1C5CC" fill-rule="nonzero"/>
        <path d="M8.344 3.417c0 .155-.115.28-.257.281h-.679c-.142 0-.258-.126-.258-.281 0-.155.116-.281.258-.281h.679c.068 0 .134.03.182.082a.295.295 0 0 1 .075.199zM8.344 5.83c0 .155-.115.28-.257.281h-.679c-.142 0-.258-.126-.258-.281 0-.155.116-.281.258-.281h.679c.142 0 .257.126.257.281z" fill="#C1C5CC" fill-rule="nonzero"/>
        <path d="M.5 0h11v12H.5z"/>
    </g>
</svg>
