<?xml version="1.0" encoding="UTF-8"?>
<svg width="460px" height="483px" viewBox="0 0 460 483" version="1.1" xmlns="http://www.w3.org/2000/svg" xmlns:xlink="http://www.w3.org/1999/xlink">
    <!-- Generator: Sketch 52.6 (67491) - http://www.bohemiancoding.com/sketch -->
    <title>printer</title>
    <desc>Created with Sketch.</desc>
    <g id="Page-1" stroke="none" stroke-width="1" fill="none" fill-rule="evenodd" fill-opacity="0.7">
        <g id="printer" fill="#000000">
            <path d="M388.25,98.9 L375.85,98.9 L375.85,71.3 C375.85,32 343.85,0 304.55,0 L154.85,0 C115.55,0 83.55,32 83.55,71.3 L83.55,98.9 L72.25,98.9 C32.95,98.9 0.95,130.9 0.95,170.2 L0.95,285.2 C0.95,324.5 32.95,356.5 72.25,356.5 L83.45,356.5 L83.45,446.9 C83.45,466.5 99.45,482.5 119.05,482.5 L340.15,482.5 C359.75,482.5 375.75,466.5 375.75,446.9 L375.75,356.5 L388.25,356.5 C427.55,356.5 459.55,324.5 459.55,285.2 L459.55,170.2 C459.55,130.9 427.55,98.9 388.25,98.9 Z M110.45,71.3 C110.45,46.9 130.35,27 154.75,27 L304.35,27 C328.75,27 348.65,46.9 348.65,71.3 L348.65,98.9 L110.45,98.9 L110.45,71.3 Z M348.75,447.1 C348.75,451.8 344.85,455.7 340.15,455.7 L119.05,455.7 C114.35,455.7 110.45,451.8 110.45,447.1 L110.45,298 L348.75,298 L348.75,447.1 Z M432.55,285.3 C432.55,309.7 412.65,329.6 388.25,329.6 L375.85,329.6 L375.85,298 L393.65,298 C401.15,298 407.15,292 407.15,284.5 C407.15,277 401.15,271 393.65,271 L63.65,271 C56.15,271 50.15,277 50.15,284.5 C50.15,292 56.15,298 63.65,298 L83.55,298 L83.55,329.6 L72.25,329.6 C47.85,329.6 27.95,309.7 27.95,285.3 L27.95,170.3 C27.95,145.9 47.85,126 72.25,126 L388.25,126 C412.65,126 432.55,145.9 432.55,170.3 L432.55,285.3 Z" id="Shape" fill-rule="nonzero"></path>
            <path d="M143.15,364.4 L315.05,364.4 C322.55,364.4 328.55,358.4 328.55,350.9 C328.55,343.4 322.55,337.4 315.05,337.4 L143.15,337.4 C135.65,337.4 129.65,343.4 129.65,350.9 C129.65,358.4 135.75,364.4 143.15,364.4 Z" id="Path"></path>
            <path d="M316.15,392.6 L144.15,392.6 C136.65,392.6 130.65,398.6 130.65,406.1 C130.65,413.6 136.65,419.6 144.15,419.6 L316.05,419.6 C323.55,419.6 329.55,413.6 329.55,406.1 C329.55,398.6 323.55,392.6 316.15,392.6 Z" id="Path"></path>
            <path d="M387.95,151.9 L360.55,151.9 C353.05,151.9 347.05,157.9 347.05,165.4 C347.05,172.9 353.05,178.9 360.55,178.9 L387.95,178.9 C395.45,178.9 401.45,172.9 401.45,165.4 C401.45,157.9 395.45,151.9 387.95,151.9 Z" id="Path"></path>
        </g>
    </g>
</svg>