<?xml version="1.0" encoding="UTF-8"?>
<svg width="50px" height="50px" viewBox="0 0 50 50" version="1.1" xmlns="http://www.w3.org/2000/svg" xmlns:xlink="http://www.w3.org/1999/xlink">
    <!-- Generator: Sketch 63.1 (92452) - https://sketch.com -->
    <title>attachments_icon</title>
    <desc>Created with Sketch.</desc>
    <g id="attachments_icon" stroke="none" stroke-width="1" fill="none" fill-rule="evenodd">
        <path d="M20.9757593,-1 C26.9397337,-1 31.7927034,3.82430431 31.9476993,9.83502282 L31.9515186,10.1315724 L31.9515186,38.1848131 C31.9515186,42.0676958 28.8478798,45.2153943 25.0193473,45.2153943 C21.2705759,45.2153943 18.2168089,42.1974838 18.0911957,38.4265142 L18.087176,38.1848131 L18.087176,15.2023152 C18.087176,14.4423933 18.6945914,13.826355 19.4438763,13.826355 C20.1490856,13.826355 20.7286251,14.3720498 20.7943661,15.069801 L20.8005767,15.2023152 L20.8005767,38.1848131 C20.8005767,40.5478522 22.6893846,42.4634739 25.0193473,42.4634739 C27.2787051,42.4634739 29.1232397,40.6621914 29.2329549,38.3983614 L29.238118,38.1848131 L29.238118,10.1315724 C29.238118,5.5036184 25.538934,1.7519204 20.9757593,1.7519204 C16.4970879,1.7519204 12.8507038,5.36595322 12.7171884,9.87538363 L12.7134007,10.1315724 L12.7134007,37.7870583 C12.7134007,44.6690903 18.2142986,50.2480796 25,50.2480796 C31.6828878,50.2480796 37.1196105,44.8368699 37.2828255,38.0989657 L37.2865993,37.7870583 L37.2865993,15.087703 C37.2865993,14.3277812 37.8940148,13.7117428 38.6432997,13.7117428 C39.348509,13.7117428 39.9280485,14.2574377 39.9937894,14.9551889 L40,15.087703 L40,37.7870583 C40,46.188934 33.2842712,53 25,53 C16.8219374,53 10.172456,46.3624572 10.0033007,38.109412 L10,37.7870583 L10,10.1315724 C10,3.98377473 14.9140148,-1 20.9757593,-1 Z" id="Path-5-Copy" fill="#979797" fill-rule="nonzero" transform="translate(25.000000, 26.000000) rotate(44.000000) translate(-25.000000, -26.000000) "></path>
    </g>
</svg>