<svg id="Layer_1" data-name="Layer 1" xmlns="http://www.w3.org/2000/svg" viewBox="0 0 333.1 153.37"><defs><style>.cls-1{fill:#ffc727;}.cls-2{opacity:0.3;}.cls-2,.cls-8{isolation:isolate;}.cls-3{fill:#263238;}.cls-4{fill:#ebebeb;}.cls-5{fill:#c7c7c7;}.cls-6{fill:#ffc8c3;}.cls-7{opacity:0.2;}.cls-8{opacity:0.1;}.cls-14,.cls-9{fill:#fff;}.cls-10{fill:#37474f;}.cls-11{fill:#eb9481;}.cls-12{fill:#3546ff;}.cls-13{fill:#b7685c;}.cls-14{opacity:0.2;}</style></defs><g id="Layer_2" data-name="Layer 2"><g id="Character_1" data-name="Character 1"><path class="cls-1" d="M179.08,93.2H141.93s-9,30.87-17.14,60.11h39C171.19,124.15,179.08,93.2,179.08,93.2Z" transform="translate(0.56)"/><path class="cls-2" d="M179.08,93.2H141.93s-9,30.87-17.14,60.11h39C171.19,124.15,179.08,93.2,179.08,93.2Z" transform="translate(0.56)"/><path class="cls-3" d="M161.52,142c3.3-13.3,6.59-26.63,9.5-40,0-.07-.09-.1-.11,0-3.33,11.77-6.36,23.65-9.34,35.52q-2,7.92-4,15.84h1.08Q160.11,147.65,161.52,142Z" transform="translate(0.56)"/><path class="cls-3" d="M179.08,93.2H143.14l12,60.11h8.64C171.19,124.15,179.08,93.2,179.08,93.2Z" transform="translate(0.56)"/><path class="cls-1" d="M192.92,93.2H142.3s1.08,17.77,5.32,31.8c.35,1.16.71,2.3,1.11,3.39a66.77,66.77,0,0,1,10.77,5.37s.34,8.45.77,19.56h37.32C195.36,123.91,192.92,93.2,192.92,93.2Z" transform="translate(0.56)"/><path class="cls-2" d="M192.92,93.2H142.3s1.08,17.77,5.32,31.8c.35,1.16.71,2.3,1.11,3.39a66.77,66.77,0,0,1,10.77,5.37s.34,8.45.77,19.56h37.32C195.36,123.91,192.92,93.2,192.92,93.2Z" transform="translate(0.56)"/><path class="cls-3" d="M155.45,118.73c-.15-1-.31-2.07-.47-3.1-.29-1.9-.67-3.78-1-5.67-.75-4.29-1.53-8.58-2.49-12.83a.09.09,0,1,0-.18,0c.17,1.71.37,3.43.61,5.13s.41,3.43.65,5.13c.48,3.39,1,6.78,1.52,10.15.23,1.3,1,3.62-.83,4-1.48.32-2.57-1.14-3-2.36a29.87,29.87,0,0,1-1-4.67c-.3-1.71-.57-3.43-.81-5.14-.53-3.75-1.11-7.47-1.72-11.21,0-.1-.19-.07-.18,0a113,113,0,0,0,.83,11.47q.36,2.73.82,5.45a19,19,0,0,0,1.25,5.08,4.14,4.14,0,0,0,3.09,2.48h.09a.13.13,0,0,0-.06.11,15.82,15.82,0,0,0,.07,1.82c.07.6.19,1.2.3,1.79a13.68,13.68,0,0,0,.46,1.78c.1.28.21.55.33.82s.53,1.41.7,1.67a.09.09,0,0,0,.13.05.09.09,0,0,0,.06-.11s-.22-1.62-.25-1.8-.1-.58-.17-.87c-.12-.58-.28-1.15-.44-1.72s-.27-1.15-.42-1.72-.35-1.16-.48-1.76v0a2.68,2.68,0,0,0,2.6-1.64A4.63,4.63,0,0,0,155.45,118.73Z" transform="translate(0.56)"/><path class="cls-3" d="M162.68,135.1a32.17,32.17,0,0,0-3.69-2.43,34.94,34.94,0,0,0-4.21-2.18c-2.84-1.24-5.77-2.08-8.7-3.05-.09,0-.14.12-.06.15,2.84,1.13,5.56,2.63,8.3,4,1.35.66,2.72,1.29,4.09,1.9s2.75,1.32,4.16,1.84C162.68,135.34,162.76,135.17,162.68,135.1Z" transform="translate(0.56)"/><path class="cls-3" d="M184.83,110.35a24,24,0,0,1-5.91-.8c-.89-.23-1.77-.51-2.65-.8a6.45,6.45,0,0,1-2.38-1.2,10.37,10.37,0,0,1-2.56-4.61,43.25,43.25,0,0,1-1.55-5.59c0-.1-.16-.07-.16,0a21.69,21.69,0,0,0,.81,6.36,9.9,9.9,0,0,0,2.54,4.94,10,10,0,0,0,5.42,2,24.88,24.88,0,0,0,6.45-.09.11.11,0,0,0,0-.21Z" transform="translate(0.56)"/><path class="cls-3" d="M191.26,139.16c-.88-13.93-1.78-27.85-2.87-41.76,0-.15-.24-.14-.23,0,.74,18.65,1.78,37.28,2.85,55.91h1.11Q191.7,146.25,191.26,139.16Z" transform="translate(0.56)"/><path class="cls-3" d="M185.36,61c-5.4,3.3-11.83,4.63-18.08,5-5.81.36-13.18.59-17.65-3.74-4.63-4.43-6.63-10.71-7.06-17a78.73,78.73,0,0,1,1.68-22.6c1.21-5.32,3.51-12.89,14-15,5.89-1.18,12,2.75,14.68,8.12,3,6,3,12.74,6.94,18.38,3.6,5.24,10.88,7.8,12.77,14.22C194.3,54,189.7,58.37,185.36,61Z" transform="translate(0.56)"/><path class="cls-3" d="M160.16,64.71c-5.69-.67-12.68-1.4-15.51-7.12-2.52-5.12-2.93-11.37-2.76-17,.3-10.62,1.74-23.36,10.45-30.54a.14.14,0,0,0-.16-.22c-4.66,3.11-7.13,8.4-8.5,13.67A75.86,75.86,0,0,0,141.35,43c.05,5.48.61,12.44,4.12,16.94,3.22,4.12,9.85,4.64,14.69,5C160.31,65,160.31,64.73,160.16,64.71Z" transform="translate(0.56)"/><path class="cls-3" d="M191.87,42.69c-1.9-2.29-4.45-3.84-6.78-5.63A21,21,0,0,1,178.21,28c-2.16-5.25-3.72-10.65-7.41-15.14h0c3.34,4.3,4.9,9.51,6.81,14.49a22.23,22.23,0,0,0,7.62,10.33c5.48,4.14,11.91,9.48,6.38,16.59a23.48,23.48,0,0,1-15.7,8.56c-.25,0-.26.41,0,.39C184.75,62.35,200.27,52.89,191.87,42.69Z" transform="translate(0.56)"/><path class="cls-3" d="M192,44.66c-1.59-2.35-4.05-4-6.17-5.89A37.6,37.6,0,0,1,178.7,31c-3.53-5.52-4.11-12.3-8.07-17.61h-.07c3.3,4.53,4,10.25,6.32,15.25,2.26,4.84,6.26,8.39,10.26,11.79,2.21,1.87,4.83,3.83,5.6,6.77.94,3.53-.91,7.18-3.25,9.72-4,4.37-10,6.28-15.61,7.49-.18,0-.11.32.08.28,5.48-1.11,11.2-2.88,15.3-6.88C192.73,54.49,195,49.08,192,44.66Z" transform="translate(0.56)"/><path class="cls-4" d="M163.32,50.54c-3,5.45-34.1,53.79-37.65,53.65-10.47-.4-22.76-1.94-20.42-10,3.66-12.63,34.66-37.53,50-47.23C164.46,41.17,166.26,45.17,163.32,50.54Z" transform="translate(0.56)"/><path class="cls-5" d="M163.32,50.55c-3,5.44-34.1,53.78-37.65,53.64-10.47-.4-22.76-1.94-20.42-10,.09-.33.21-.66.34-1l53.64-48.32C164.93,42.52,165.77,46.06,163.32,50.55Z" transform="translate(0.56)"/><path class="cls-4" d="M193.12,94.51l-52.49.86,4.11-15.72A16.4,16.4,0,0,1,142.38,66c1.25-4.63,7.23-11.56,10.89-16,8.92-10.72,16.67-5.87,19.15-3.11C181.86,57.4,193.12,94.51,193.12,94.51Z" transform="translate(0.56)"/><path class="cls-3" d="M159.2,75.6a42.33,42.33,0,0,0-6.15.64c-1,.19-2,.44-3,.7-.49.13-1,.24-1.49.36a7.06,7.06,0,0,1-1.59.2v.07a9.54,9.54,0,0,0,1.51.06,10.22,10.22,0,0,0,1.46-.18c1-.19,2-.43,3.06-.63,2.06-.4,4.12-.8,6.21-1C159.31,75.76,159.3,75.59,159.2,75.6Z" transform="translate(0.56)"/><path class="cls-3" d="M164.17,77.71a48.07,48.07,0,0,0-5.08-.54h-2.55l-1.22.07c-.44,0-.89.12-1.33.14-.05,0-.06.07,0,.07a7.73,7.73,0,0,1,1.27.07h1.27l2.55.09c1.7,0,3.39.1,5.09.2C164.25,77.86,164.25,77.73,164.17,77.71Z" transform="translate(0.56)"/><path class="cls-6" d="M200.61,101.91c8.75,13.15,15.77,34.6,16.86,42.69.47,3.53-25.87,10-26.92,6.29-2.26-7.83-7-32.75-8.51-35.17" transform="translate(0.56)"/><path class="cls-6" d="M217.53,144.64,189.58,147c.26,1,1,3.3,1.94,6.28h26.29A31.27,31.27,0,0,0,217.53,144.64Z" transform="translate(0.56)"/><path class="cls-6" d="M189.66,146.79s-1.41,3.1-2.67,6.52h4.65C190.78,150.59,190,148.22,189.66,146.79Z" transform="translate(0.56)"/><path class="cls-4" d="M212.36,123.64l-25.25,13.43S169.76,78.32,167.4,59.24s5.15-14.93,10.53-6.11C185.3,65.17,212.36,123.64,212.36,123.64Z" transform="translate(0.56)"/><path class="cls-3" d="M187.51,130.36c3.54-1.58,17.77-8.57,20.74-10.29.21-.11.18-.27-.05-.18a213.09,213.09,0,0,0-20.75,10.32C187.37,130.26,187.42,130.4,187.51,130.36Z" transform="translate(0.56)"/><path class="cls-3" d="M176.62,99.66c-.49-2.8-1.07-5.59-1.67-8.37S173.7,85.74,173,83s-1.36-5.52-2.11-8.26l-1.13-4.12c-.41-1.36-.79-2.73-1.22-4.09.23,1.41.52,2.8.79,4.2l.88,4.17c.59,2.78,1.25,5.55,1.91,8.31s1.37,5.52,2.12,8.27S175.77,96.94,176.62,99.66Z" transform="translate(0.56)"/><path class="cls-3" d="M170.31,73.71a10.9,10.9,0,0,0-2.22-3.9,10.28,10.28,0,0,0,.92,2.06A9.87,9.87,0,0,0,170.31,73.71Z" transform="translate(0.56)"/><polygon class="cls-1" points="112.88 109.12 111.83 62.79 146.97 62.59 148.01 108.92 112.88 109.12"/><polygon class="cls-1" points="149.94 77.58 149.62 63.3 146.97 62.59 147.32 78.06 149.94 77.58"/><g class="cls-7"><polygon points="112.88 109.12 111.83 62.79 146.97 62.59 148.01 108.92 112.88 109.12"/><polygon points="149.94 77.58 149.62 63.3 146.97 62.59 147.32 78.06 149.94 77.58"/></g><polygon class="cls-1" points="112.86 109.04 111.81 62.61 145.65 60.35 146.69 106.79 112.86 109.04"/><polygon class="cls-8" points="112.86 109.04 111.81 62.61 145.65 60.35 146.69 106.79 112.86 109.04"/><path class="cls-6" d="M149.3,77.54a3.46,3.46,0,0,1-.38,3.92,5.14,5.14,0,0,1,2.4,2.53c.76,2-2,4-2,4a6.37,6.37,0,0,1,2.1,3.07c.54,2-1.95,4.42-1.95,4.42a5.52,5.52,0,0,1,.15,3.86c-1.24,3.33-6.56,4.42-9.93,5.15s-13.63-.38-15.6-.39l-4.86-21.62s14.21-7.56,18.3-7.85C141,74.39,147.89,75.24,149.3,77.54Z" transform="translate(0.56)"/><path class="cls-6" d="M120.91,81.62c-4.1,1.7-17,9-15.94,14.79s9.36,7.42,21.43,7.84Z" transform="translate(0.56)"/><path class="cls-3" d="M148.7,81.15c-3.73-.62-7.43-.1-11.16.2a.07.07,0,0,0,0,.09.08.08,0,0,0,0,0c3.7-.35,7.43,0,11.14-.15C148.79,81.32,148.8,81.16,148.7,81.15Z" transform="translate(0.56)"/><path class="cls-3" d="M149.19,87.73a10.08,10.08,0,0,0-2.57.17c-.91.12-1.81.25-2.71.4-1.8.3-3.6.64-5.38,1-.08,0-.07.14,0,.12,1.8-.29,3.6-.56,5.41-.78l2.71-.31a11.57,11.57,0,0,0,2.55-.39.13.13,0,0,0,0-.18Z" transform="translate(0.56)"/><path class="cls-3" d="M149.39,95.5a6.88,6.88,0,0,0-2.3.27l-2.46.44c-1.64.29-3.28.58-4.92.81,0,0-.08,0-.09,0a.06.06,0,0,0,0,.09h.05c1.67-.23,3.35-.43,5-.67l2.46-.37a6.69,6.69,0,0,0,2.2-.53Z" transform="translate(0.56)"/><path class="cls-4" d="M120.91,81.62c-4.1,1.7-17,9-15.94,14.79s8.79,8.77,20.09,10Z" transform="translate(0.56)"/><path class="cls-3" d="M120.44,81.68a34,34,0,0,0-4.17,2l-1,.62-.4.13a17.24,17.24,0,0,0-1.69.64,27.58,27.58,0,0,0-3.09,1.63c-.07,0,0,.15.07.11a25,25,0,0,1,3.21-1.44l.44-.15c-.58.38-1.15.76-1.7,1.18A45.3,45.3,0,0,0,108,90c-.06.06,0,.15.1.09,2.37-2.23,11.55-7.45,12.57-8.09S121.17,81.36,120.44,81.68Z" transform="translate(0.56)"/><path class="cls-6" d="M167,47.35c-.4.88-6,6-10.14,4.91-1.35-.34.18-7.81.18-7.81v-.57l-.18-8.08,10.26-4,1.47-.51S167.16,47,167,47.35Z" transform="translate(0.56)"/><path class="cls-3" d="M156.85,35.79l.11,5.3c4.1,1.93,9,.49,10.72-.16.43-4.47.89-9.64.89-9.64l-1.46.51Z" transform="translate(0.56)"/><path class="cls-6" d="M173.28,47.32s-10.08,6.88-15.57,5.86a5.65,5.65,0,0,1-4.6-4.75s5.49-5.31,12.26-5.08C169.88,43.5,173.28,47.32,173.28,47.32Z" transform="translate(0.56)"/><path class="cls-6" d="M176.38,24.66c.27,14.18-8.19,16-11.25,16-2.78.05-12.23-.13-14-14.2S155.9,7.77,162.24,7.32,176.1,10.48,176.38,24.66Z" transform="translate(0.56)"/><path class="cls-3" d="M152.12,27.33c2.29.24,2.94-4.56,2.94-4.56s4.66.13,6.36-6.54a10.22,10.22,0,0,1-2.2,5.49s8.25-.66,11.88-7.46c0,0-1.47,3.47-2.8,4.69a9.65,9.65,0,0,0,5.23-3.64s1.34,4,2.42,5.13c0,0,3-18.65-15.51-13,0,0-7.55-.24-10.71,6.3S152.12,27.33,152.12,27.33Z" transform="translate(0.56)"/><path class="cls-6" d="M153.82,26.28S151,21.66,149,22.63s-.19,7.52,2.1,8.56a2.41,2.41,0,0,0,3.26-1s0-.05,0-.08Z" transform="translate(0.56)"/><path class="cls-3" d="M149.54,24.49v.06a6.07,6.07,0,0,1,2.87,4,1.33,1.33,0,0,0-1.77-.6l-.18.11c-.05,0,0,.09,0,.09a1.47,1.47,0,0,1,1.58.62,7,7,0,0,1,.69,1.36c.07.15.34.09.29-.08h0C153.22,27.91,151.78,24.86,149.54,24.49Z" transform="translate(0.56)"/><path class="cls-9" d="M176.13,29.2a76.83,76.83,0,0,1-12.41-.67c-7-.93-9.89-4-9.89-4l-.52.4,5.1,3-.93,5.5-4.93-1.24-.07.38a11.8,11.8,0,0,1,4.06,1.19c3.05,1.6-5,6.61,12.53,6C174.64,39.61,176.13,29.2,176.13,29.2Z" transform="translate(0.56)"/><path class="cls-10" d="M303.75,103.27H270.1s-9.25,24.85-17.81,50h37.19C296.11,128.62,303.75,103.27,303.75,103.27Z" transform="translate(0.56)"/><path class="cls-3" d="M303.75,103.27H270.1s-9.25,24.85-17.81,50h37.19C296.11,128.62,303.75,103.27,303.75,103.27Z" transform="translate(0.56)"/><path class="cls-10" d="M290.68,136.57c2.83-9.94,5.95-19.8,9-29.69a.09.09,0,0,0-.1,0l-.05,0c-.44,1.22-.89,2.43-1.32,3.65-3.49,9.88-6.52,19.93-9.39,30q-1.81,6.41-3.51,12.84h.83C287.58,147.72,289.09,142.14,290.68,136.57Z" transform="translate(0.56)"/><path class="cls-10" d="M303.74,103.27H275.92l3.81,50h9.75C296.1,128.62,303.74,103.27,303.74,103.27Z" transform="translate(0.56)"/><path class="cls-3" d="M322.27,103.27H273.35a140.25,140.25,0,0,1,2.89,16.79c.7,7,1.58,13.27,2.52,14.05s6.37,4.29,8.17,5.38c0,0-1.87,5.66-4.52,13.82h35.11c3.5-12.3,6.15-21.44,6.15-21.44A34.48,34.48,0,0,0,322.27,103.27Z" transform="translate(0.56)"/><path class="cls-10" d="M276,132.12a76.16,76.16,0,0,1,10.92,7.31c.13.1,0,.32-.15.22-3.7-2.31-7.49-4.57-11.06-7.09a.26.26,0,0,1,.29-.44Z" transform="translate(0.56)"/><path class="cls-10" d="M279,104.78c0-.13.28-.13.26,0a129.87,129.87,0,0,0-1.39,13.35c-.14,2.07-.25,13.61,3.42,13.34.62-.05,1-.58,1.24-1.46a14.46,14.46,0,0,0,.07-3.54c0-2.42,0-4.84.19-7.26A66,66,0,0,1,285,105.9a.12.12,0,0,1,.15-.08.11.11,0,0,1,.08.08,123.43,123.43,0,0,0-1.79,18.6c0,3,.78,7.65-2.36,7.63s-4.07-7.74-4.14-9.83A69,69,0,0,1,279,104.78Z" transform="translate(0.56)"/><path class="cls-10" d="M281.12,131.78a18.62,18.62,0,0,1,.43,2.46,5.18,5.18,0,0,1,0,2,.14.14,0,0,1-.18.08s-.07,0-.08-.08a7.3,7.3,0,0,1-.53-2c-.16-.77-.33-1.53-.46-2.3a.42.42,0,1,1,.82-.16Z" transform="translate(0.56)"/><path class="cls-10" d="M318.06,131.58a39.19,39.19,0,0,1-10-1.89,23.81,23.81,0,0,1-9.72-6,19,19,0,0,1-3.73-5.21c0-.08-.15,0-.13,0a17.41,17.41,0,0,0,2.64,5.23,20.5,20.5,0,0,0,4.28,4.09,22.55,22.55,0,0,0,10.89,4.2,17.73,17.73,0,0,0,5.86-.09C318.34,131.91,318.25,131.6,318.06,131.58Z" transform="translate(0.56)"/><path class="cls-10" d="M283.59,151.4c1-3.35,2.16-8.29,3-11.67a.08.08,0,1,0-.16,0h0c-.37,1-3.35,10.88-4,12.72l-.3.91H283C283.2,152.67,283.4,152,283.59,151.4Z" transform="translate(0.56)"/><path class="cls-10" d="M320.42,105.05c0-.1-.19,0-.15.08a29.41,29.41,0,0,1,1.35,4.4c1.37,5.9.7,12.23-.6,18.08A153.23,153.23,0,0,1,315.65,145c-1,2.77-1.94,5.56-2.88,8.34h.91c1.58-4.7,3.22-9.39,4.79-14.11C322.09,128.27,325.18,116.14,320.42,105.05Z" transform="translate(0.56)"/><path class="cls-1" d="M272.93,107.7c8.53-.21,8.52-10.18,11.21-12.72,1.66-1.57-8.51-13.73-.78-36,6.49-18.66-3.11-15.91-11.67-5.58-4.27,5.16-6.42,22-7.1,21.94S264,107.91,272.93,107.7Z" transform="translate(0.56)"/><path class="cls-8" d="M269.06,93.72a19.32,19.32,0,0,0,4.56,0c8.42-1.31,11.32-3,13.65-5.84,1.44-1.78-10.1-6.67-5.36-29.74a32,32,0,0,0,.85-9.85,3.63,3.63,0,0,0-.1-.59,5.66,5.66,0,0,0-.13-.56c0-.18-.09-.31-.14-.45-.28-.8.49.34,0,0C278.13,54.33,270.22,76.83,269.06,93.72Z" transform="translate(0.56)"/><path class="cls-4" d="M326,114.93c-.14.15-60-.28-60.51-.9-.75-.87,13.42-65.55,19.64-73.5,1.33-1.69,5.67-2.13,9.35-1.63a16,16,0,0,1,2.83.61h.09a6.67,6.67,0,0,1,2.08,1c10.16,8.28,18.49,37,20.42,45.58C323.05,100.34,326.46,114.37,326,114.93Z" transform="translate(0.56)"/><path class="cls-1" d="M298,39.66s-3.9,26.63-4.82,33.52,0,43.35,0,43.35l37.54,3.17s-7.91-24.21-8-25.7c0,0-6.23-29.09-12.65-41.11A36.29,36.29,0,0,0,298,39.66Z" transform="translate(0.56)"/><path class="cls-1" d="M285.5,40.12s-5.06,26.94-5.5,29.16-6.94,46-6.94,46l-9.4.2,5.1-20S279.64,44.26,285.5,40.12Z" transform="translate(0.56)"/><path class="cls-11" d="M287.62,48.73c2.86.33,8.26-3.64,9.76-7.85a63.58,63.58,0,0,0-1.62-6.39c-.52-2.05-1.06-4.34-1.39-6.47-.07-.43-12.83,5.36-12.83,5.36a34.14,34.14,0,0,1,2.58,8,5.26,5.26,0,0,1,.05.89.33.33,0,0,0,0,.14C284.16,44.07,284.56,48.38,287.62,48.73Z" transform="translate(0.56)"/><path class="cls-3" d="M284.16,42.23a.33.33,0,0,1,0,.14,9.22,9.22,0,0,0,1.38-.14c7.82-1.42,8.34-11.57,8.34-14.13-2.31.72-12.35,5.27-12.35,5.27a34.61,34.61,0,0,1,2.58,8A4.91,4.91,0,0,1,284.16,42.23Z" transform="translate(0.56)"/><path class="cls-11" d="M294.22,11.07c2,4.57,1.27,18.61-1.73,22.1-4.34,5-12.31,6.49-16.82,1.07-4.37-5.25-3-23.53.4-26.79C281.11,2.66,291.2,4.32,294.22,11.07Z" transform="translate(0.56)"/><path class="cls-3" d="M276.77,3h0Z" transform="translate(0.56)"/><path class="cls-3" d="M295.85,7.72a15.58,15.58,0,0,0-6.06-2.33l-.54-.12a.06.06,0,0,1-.06-.06.07.07,0,0,1,0-.1h.33a.93.93,0,0,1-.14-.14,33.24,33.24,0,0,1,3.24.79h0A7.62,7.62,0,0,1,295.85,7.72Z" transform="translate(0.56)"/><path class="cls-3" d="M276.68,2.87h0l-.1-.05h.18Z" transform="translate(0.56)"/><path class="cls-3" d="M284,2.73h-.1l-.24-.19h0c-.37-.23-.74-.45-1.11-.65a4.73,4.73,0,0,1,.66.25l.58.22.35.28a.08.08,0,0,1-.07.1A.08.08,0,0,1,284,2.73Z" transform="translate(0.56)"/><path class="cls-3" d="M298.31,10.77c-.81-2.75-3.08-4.19-5.62-5a7.64,7.64,0,0,1,3.16,1.92,15.58,15.58,0,0,0-6.06-2.33l-.54-.12a.06.06,0,0,1-.06-.06.07.07,0,0,1,0-.1h.33a.93.93,0,0,1-.14-.14h0c-1.05-1.08-4-4-6-4.51-1.08-.28-1.34.27-.65,1.14h0c.34.21.67.44,1,.67l.35.28a.1.1,0,0,1,0,.12l0,0h-.22l-.24-.19h0c-.37-.23-.74-.45-1.11-.65h0C280.16,1,277.64.32,276.14.75c-1.92.56-.9,1.44.31,2.09h.22a.56.56,0,0,0,.17.09h-.24c-.23,0-.46-.06-.69-.08h-.08a3.93,3.93,0,0,0-2.44.83c-.92.84-.1,1.19,1.42,1.25-1.67,3.06-1.76,8-1.55,11.44.25-2.27,1.47-5.68,2.73-6s1.72,1.42,3.25,1.71,3-2.08,5.78-1.75,4.68,3.1,5.39,6.78c.82,4.28,1.74,6.71,4.43,6.43.88-.09,1.64-3,2-4.77h0A9.87,9.87,0,0,0,298.31,10.77ZM297,17.65h0v.05a1,1,0,0,1,.05-.16v-.15a11.75,11.75,0,0,0-.59-8.79,5,5,0,0,0-.6-.85,5.93,5.93,0,0,1,2.19,3.38A9,9,0,0,1,297,17.65Z" transform="translate(0.56)"/><path class="cls-3" d="M276.77,3h-.24c-.23,0-.46-.06-.69-.08h.84Z" transform="translate(0.56)"/><path class="cls-3" d="M284,2.73h-.1l-.24-.19h0c-.17-.14-.31-.27-.45-.4a4.28,4.28,0,0,1-.4-.45c.34.21.67.44,1,.67l.35.28a.1.1,0,0,1,0,.13.1.1,0,0,1-.12,0Z" transform="translate(0.56)"/><path class="cls-3" d="M289.79,5.39l-.6-.18a.07.07,0,0,1,0-.1h.33Z" transform="translate(0.56)"/><path class="cls-3" d="M295.85,7.72a15.58,15.58,0,0,0-6.06-2.33l-.54-.12a.06.06,0,0,1-.06-.06.07.07,0,0,1,0-.1h.33a19.19,19.19,0,0,1,3.1.65h0A7.62,7.62,0,0,1,295.85,7.72Z" transform="translate(0.56)"/><path class="cls-3" d="M284,2.73h0l-.35-.22h0c-.37-.23-.74-.45-1.11-.65h0A10.92,10.92,0,0,0,275.22.43m0-.09a9.25,9.25,0,0,1,7.55,1.28h0c.34.21.67.44,1,.67l.35.28a.1.1,0,1,1-.12.16Z" transform="translate(0.56)"/><path class="cls-3" d="M276.77,3h-.24c-.23,0-.46-.06-.69-.08h-.08a6.89,6.89,0,0,0-2.91.51h0a5.63,5.63,0,0,1,3.61-.52h.18A.6.6,0,0,0,276.77,3Z" transform="translate(0.56)"/><path class="cls-11" d="M292.18,22.85S294.82,18.07,297,19s.48,7.59-1.8,8.73a2.42,2.42,0,0,1-3.3-.9l-.06-.1Z" transform="translate(0.56)"/><path class="cls-3" d="M296.43,20.88s.05,0,0,.06a6.12,6.12,0,0,0-2.75,4.14,1.35,1.35,0,0,1,1.78-.69.94.94,0,0,1,.22.12,0,0,0,0,1,0,.07,0,0,0,0,1,0,0,1.51,1.51,0,0,0-1.58.69,8.13,8.13,0,0,0-.64,1.41c-.06.15-.34.1-.3-.08h0C292.84,24.47,294.18,21.33,296.43,20.88Z" transform="translate(0.56)"/><path class="cls-11" d="M305.55,45.78c15.06,16.92,26.39,40.73,26.25,46.34-.15,6.16-8,27.89-15.48,38.1-1,1.32-6.79.77-11.72-1.95-5.2-2.86-9.47-8-8.44-9.49,3.83-5.71,12.93-27.84,12.85-31.3-.08-3.2-7.54-22.78-10.38-34.11C295.91,42.49,298.54,37.91,305.55,45.78Z" transform="translate(0.56)"/><path class="cls-1" d="M325.47,128.56l-28.05-13.7s11-24.62,11.05-27.27-7.25-23.48-10-33.1-1.68-20.42,10.3-5.88,22.44,36.17,23.64,41.91S325.47,128.56,325.47,128.56Z" transform="translate(0.56)"/><path class="cls-3" d="M307,80.52q-.87-2.74-1.79-5.46c-.69-2-1.41-4.06-2.16-6.07s-1.54-3.87-2.33-5.81c-.06-.14-.3,0-.25.09.93,2.59,1.8,5.21,2.68,7.82-.66-1.19-1.33-2.38-2-3.54-.06-.1-.21,0-.15.08.78,1.45,1.61,2.87,2.45,4.28l.63,1.89c1.18,3.51,2.31,7,3.32,10.61a12.11,12.11,0,0,1,.5,2.45,7.56,7.56,0,0,1-.41,2.79c-.51,1.64-1.08,3.27-1.67,4.89-1.16,3.26-2.44,6.48-3.78,9.67-1.52,3.63-3.24,7.23-5,10.76,0,0,1,.28,1.08.31s.08,0,.05-.07a3.53,3.53,0,0,0-.67-.34c1.75-3.07,3.43-6.08,4.9-9.3s2.77-6.43,4-9.73c.6-1.69,1.19-3.4,1.73-5.12a9.79,9.79,0,0,0,.47-5A44,44,0,0,0,307,80.52Z" transform="translate(0.56)"/><path class="cls-3" d="M325.93,120.66a26.72,26.72,0,0,0-3.06-1.45c-.92-.42-1.82-.87-2.74-1.28-2-.9-4-1.82-6-2.71s-4-1.8-6-2.67-4-1.81-6-2.57c-.08,0-.13.09-.06.14,1.86,1.14,3.85,2.09,5.8,3.07s3.89,1.86,5.85,2.74,4,1.74,6.07,2.57c1,.39,2,.75,3,1.12a25.9,25.9,0,0,0,3.2,1.14C325.94,120.77,326,120.69,325.93,120.66Z" transform="translate(0.56)"/><path class="cls-9" d="M272.91,25.24s3.68-.16,10.72-1.09S294.35,20,294.35,20l-.31.56-5.1,3,.93,5.51,4.93-1.25.07.38a11.8,11.8,0,0,0-4.06,1.19c-3.06,1.6,6.11,7.57-11.47,7C273.78,36.19,272.91,25.24,272.91,25.24Z" transform="translate(0.56)"/><path class="cls-3" d="M37.15,23.58c-2.58-.27-1.92-4.74-1.92-4.74s-5.06-1.39-4.8-8.1c0,0-7.75,1.7-11.14-2.61s8-12.61,18.79-2.2c0,0,5.52,1.64,5.83,6.35S40.26,23.91,37.15,23.58Z" transform="translate(0.56)"/><path class="cls-3" d="M30.69,10a.07.07,0,0,1,.1,0,.08.08,0,0,1,0,.05c-1.36,4.3,1,8.65,5.73,8.9a.13.13,0,0,1,.09.16.14.14,0,0,1-.09.09C31.8,19.42,28.05,14.26,30.69,10Z" transform="translate(0.56)"/><path class="cls-3" d="M27.55.86h0a16.4,16.4,0,0,0-4.78.63c-2.31.78-5.47,3.11-4.26,5.94,1.68,3.87,7.27,3.53,10.71,3.06a.18.18,0,1,1,.09.35c-3.54,1.1-10.6.7-11.5-3.91C16.81,1.84,24.06.54,27.55.86Z" transform="translate(0.56)"/><path class="cls-10" d="M49.68,108.48H16S8,130,0,153.31H36.82C43.08,130.39,49.68,108.48,49.68,108.48Z" transform="translate(0.56)"/><path class="cls-3" d="M49.68,108.48H16S8,130,0,153.31H36.82C43.08,130.39,49.68,108.48,49.68,108.48Z" transform="translate(0.56)"/><path class="cls-10" d="M49.67,108.47H21.86l3.41,44.84H36.82C43.07,130.39,49.67,108.47,49.67,108.47Z" transform="translate(0.56)"/><path class="cls-3" d="M69.61,137.07a34.54,34.54,0,0,0-1.4-28.59H19.28a136.21,136.21,0,0,1,2.89,16.78c.7,7,1.58,13.27,2.52,14s6.38,4.29,8.17,5.38c0,0-1.11,3.36-2.82,8.62H64.93C67.67,143.72,69.61,137.07,69.61,137.07Z" transform="translate(0.56)"/><path class="cls-10" d="M21.89,137.33a75.18,75.18,0,0,1,10.91,7.3.14.14,0,0,1,0,.19.13.13,0,0,1-.18,0c-3.7-2.32-7.49-4.58-11.06-7.1a.27.27,0,0,1,0-.37A.26.26,0,0,1,21.89,137.33Z" transform="translate(0.56)"/><path class="cls-10" d="M24.91,110c0-.14.28-.13.25,0-.76,4.71-1.1,8.89-1.39,13.35-.13,2.07-.24,13.62,3.43,13.34.61,0,1-.58,1.24-1.46a14.89,14.89,0,0,0,.06-3.53c0-2.43,0-4.85.2-7.26a64.67,64.67,0,0,1,2.21-13.33.12.12,0,0,1,.15-.08.11.11,0,0,1,.08.08,123.29,123.29,0,0,0-1.78,18.59c0,3,.78,7.66-2.36,7.63s-4.08-7.74-4.14-9.82A68,68,0,0,1,24.91,110Z" transform="translate(0.56)"/><path class="cls-10" d="M27.06,137a20.41,20.41,0,0,1,.43,2.46,5.6,5.6,0,0,1,0,2c0,.12-.2.11-.25,0a6.58,6.58,0,0,1-.53-2c-.16-.76-.34-1.52-.47-2.29a.41.41,0,0,1,.32-.49A.42.42,0,0,1,27.06,137Z" transform="translate(0.56)"/><path class="cls-10" d="M64,136.79a39.21,39.21,0,0,1-10-1.9,23.84,23.84,0,0,1-9.73-6,19,19,0,0,1-3.72-5.22.07.07,0,0,0-.09,0,.07.07,0,0,0,0,.1A17.58,17.58,0,0,0,43,129a19.74,19.74,0,0,0,4.31,4,22.32,22.32,0,0,0,10.89,4.2,17.15,17.15,0,0,0,5.85-.09C64.27,137.12,64.18,136.8,64,136.79Z" transform="translate(0.56)"/><path class="cls-10" d="M32.54,144.93a.08.08,0,0,0-.07-.09.07.07,0,0,0-.08,0c-.24.61-1.56,4.93-2.63,8.43h.67C31.18,150.48,31.94,147.32,32.54,144.93Z" transform="translate(0.56)"/><path class="cls-10" d="M64.4,144.41c3.62-10.94,6.71-23.07,1.95-34.16,0-.1-.18,0-.14.08a30.63,30.63,0,0,1,1.35,4.4c1.36,5.9.7,12.23-.61,18.09a152.59,152.59,0,0,1-5.37,17.35c-.37,1.05-.72,2.1-1.08,3.14h.88Q62.91,148.87,64.4,144.41Z" transform="translate(0.56)"/><path class="cls-12" d="M18.87,112.9c8.52-.2,8.51-10.17,11.2-12.71,1.67-1.58-8.51-13.74-.78-36,6.49-18.67-3.11-15.92-11.67-5.58-4.26,5.15-6.42,22-7.1,21.93S9.94,113.11,18.87,112.9Z" transform="translate(0.56)"/><path class="cls-8" d="M15,98.92a19.41,19.41,0,0,0,4.57,0c8.43-1.35,11.3-3,13.63-5.92,1.45-1.77-10.1-6.67-5.36-29.74.91-4.45,1.14-7.67.85-9.84a2.89,2.89,0,0,0-.1-.6,5.07,5.07,0,0,0-.13-.56,2.25,2.25,0,0,0-.14-.44c-.28-.81.49.33,0,0C24.07,59.53,16.15,82,15,98.92Z" transform="translate(0.56)"/><path class="cls-4" d="M71.89,120.13c-.14.16-60-.27-60.51-.89-.75-.88,13.42-65.56,19.64-73.5,1.34-1.7,5.67-2.13,9.35-1.64a17,17,0,0,1,2.83.61h.1a6.72,6.72,0,0,1,2.07,1c10.17,8.29,18.5,37,20.42,45.58C69,105.54,72.39,119.58,71.89,120.13Z" transform="translate(0.56)"/><path class="cls-12" d="M43.94,44.86S40,71.49,39.12,78.39s0,43.35,0,43.35l37.54,3.16s-7.87-24.21-8-25.74c0,0-6.22-29.1-12.65-41.11A36.32,36.32,0,0,0,43.94,44.86Z" transform="translate(0.56)"/><path class="cls-12" d="M31.44,45.33s-5.07,26.93-5.52,29.16-7,46-7,46l-9.39.19,5.1-20S25.58,49.46,31.44,45.33Z" transform="translate(0.56)"/><path class="cls-13" d="M33.55,53.94c2.86.32,8.26-3.64,9.77-7.85.1-.29-.75-3-1.63-6.4-.52-2-1-4.34-1.39-6.46-.07-.44-12.83,5.35-12.83,5.35a34.14,34.14,0,0,1,2.58,8,4.39,4.39,0,0,1,.05.89v.15C30.1,49.28,30.5,53.59,33.55,53.94Z" transform="translate(0.56)"/><path class="cls-3" d="M30.1,47.43v.15a7.87,7.87,0,0,0,1.37-.15C39.3,46,39.81,35.86,39.82,33.31c-2.32.71-12.36,5.27-12.36,5.27a34.16,34.16,0,0,1,2.59,8A8.08,8.08,0,0,1,30.1,47.43Z" transform="translate(0.56)"/><path class="cls-13" d="M40.16,16.28c2,4.56,1.26,18.61-1.73,22.09-4.34,5.06-12.31,6.49-16.82,1.08-4.37-5.25-3-23.54.39-26.79C27.05,7.86,37.13,9.53,40.16,16.28Z" transform="translate(0.56)"/><path class="cls-3" d="M22.71,8.21l-.24-.05h.07Z" transform="translate(0.56)"/><path class="cls-3" d="M41.79,12.93a15.58,15.58,0,0,0-6.06-2.33l-.54-.12a.06.06,0,0,1-.06-.06.07.07,0,0,1,0-.1h.33l-.14-.14c1.09.22,2.17.5,3.24.83h0A7.6,7.6,0,0,1,41.79,12.93Z" transform="translate(0.56)"/><path class="cls-3" d="M22.62,8.08Z" transform="translate(0.56)"/><path class="cls-3" d="M30,7.94h-.17l-.24-.19h0c-.37-.23-.74-.45-1.11-.65a4.73,4.73,0,0,1,.66.25l.58.22.35.28A.1.1,0,0,1,30,7.94Z" transform="translate(0.56)"/><path class="cls-3" d="M44.25,16c-.81-2.75-3.08-4.19-5.62-5a7.64,7.64,0,0,1,3.16,1.92,15.58,15.58,0,0,0-6.06-2.33l-.54-.12a.06.06,0,0,1-.06-.06.07.07,0,0,1,0-.1h.33l-.14-.14h0c-1-1.08-4-4-6-4.51-1.1-.24-1.36.35-.67,1.18h0c.34.21.67.44,1,.67l.35.28a.11.11,0,0,1,0,.13l-.05,0h-.17l-.24-.19h0c-.37-.23-.74-.45-1.11-.65h0C26.1,6.18,23.58,5.53,22.08,6c-1.92.56-.9,1.44.31,2.09h.23a.56.56,0,0,0,.17.09l-.24,0c-.23,0-.46-.06-.69-.08H21.7a3.93,3.93,0,0,0-2.44.83c-.92.84-.1,1.19,1.42,1.25-1.67,3.06-1.76,8-1.55,11.44.25-2.27.72-6.68,2-7s2.94,4.75,4.47,5,7.66-1.88,7.66-1.88l1.88,5.84S38,29,40.71,28.76c.88-.09,1.64-3,2-4.77h0A9.86,9.86,0,0,0,44.25,16ZM43,22.86h0V22.6a11.75,11.75,0,0,0-.59-8.79,5,5,0,0,0-.6-.85A6,6,0,0,1,44,16.35,9,9,0,0,1,43,22.86Z" transform="translate(0.56)"/><path class="cls-3" d="M22.71,8.21l-.24-.05c-.23,0-.46-.06-.69-.08h.84A.6.6,0,0,0,22.71,8.21Z" transform="translate(0.56)"/><path class="cls-3" d="M30,7.94h-.17l-.24-.19h0c-.17-.14-.31-.27-.45-.4a4.28,4.28,0,0,1-.4-.45c.34.21.67.44,1,.67l.35.28A.09.09,0,0,1,30,7.94Z" transform="translate(0.56)"/><path class="cls-3" d="M35.73,10.6l-.6-.18a.07.07,0,0,1,0-.1h.33Z" transform="translate(0.56)"/><path class="cls-3" d="M41.79,12.93a15.58,15.58,0,0,0-6.06-2.33l-.54-.12a.06.06,0,0,1-.06-.06.07.07,0,0,1,0-.1h.33a19.19,19.19,0,0,1,3.1.65h0A7.62,7.62,0,0,1,41.79,12.93Z" transform="translate(0.56)"/><path class="cls-3" d="M30,7.94h-.07l-.35-.22h0c-.37-.23-.74-.45-1.11-.65h0a10.91,10.91,0,0,0-7.24-1.38m0-.09a9.25,9.25,0,0,1,7.55,1.28h0c.34.21.67.44,1,.67l.35.28a.09.09,0,0,1-.05.12.11.11,0,0,1-.08,0Z" transform="translate(0.56)"/><path class="cls-3" d="M22.71,8.21l-.24-.05c-.23,0-.46-.06-.69-.08H21.7a6.89,6.89,0,0,0-2.91.51h0a5.63,5.63,0,0,1,3.61-.52h.19A.53.53,0,0,0,22.71,8.21Z" transform="translate(0.56)"/><path class="cls-13" d="M38.11,28.05s2.64-4.77,4.78-3.88.48,7.6-1.8,8.73a2.44,2.44,0,0,1-3.32-.9.47.47,0,0,0-.05-.1Z" transform="translate(0.56)"/><path class="cls-3" d="M42.37,26.08s.05.05,0,.06a6.13,6.13,0,0,0-2.74,4.15,1.34,1.34,0,0,1,1.76-.71,1.41,1.41,0,0,1,.24.13v.1A1.47,1.47,0,0,0,40,30.5a6.56,6.56,0,0,0-.64,1.4c-.07.16-.34.11-.3-.07h0C38.78,29.67,40.11,26.53,42.37,26.08Z" transform="translate(0.56)"/><path class="cls-9" d="M19,29.8s3.13.72,10.17-.21,9.88-4,9.88-4l.52.4-5.09,3,.93,5.5,4.93-1.24.06.38a11.7,11.7,0,0,0-4,1.19c-3.06,1.6,5,6.61-12.54,6C18.21,40.68,19,29.8,19,29.8Z" transform="translate(0.56)"/><path class="cls-13" d="M54.59,143.91a29,29,0,0,0,9-5.7h0c13.57-12.27,10.6-32.39,8.44-41.77L55.49,107.68c-.24.27-6.06,6-10.49,11.18h0c-1.18,1.36-2.26,2.68-3.11,3.84a1,1,0,0,0-.07.15c-2.24,2.84-5.21,6.67-7.4,9.71s-5.57,8.73-6.17,11.75a61.67,61.67,0,0,0-.69,9H54.71A64.13,64.13,0,0,0,54.59,143.91Z" transform="translate(0.56)"/><path class="cls-3" d="M34.2,152.17c-.1-2-.29-4-.39-6h-.07c-.09,2-.19,4-.09,6,0,.37.05.73.07,1.1h.54C34.23,152.84,34.21,152.45,34.2,152.17Z" transform="translate(0.56)"/><path class="cls-3" d="M41,145.69h-.06c0,2.54-.09,5.07,0,7.61h.52C41.36,150.78,41.11,148.23,41,145.69Z" transform="translate(0.56)"/><path class="cls-3" d="M47.26,144.18c0-.07-.14-.09-.14,0a49,49,0,0,0,.55,9.14h.27C47.66,150.47,47.42,147.81,47.26,144.18Z" transform="translate(0.56)"/><path class="cls-13" d="M51.48,51C66.54,67.9,77.87,91.71,77.74,97.32c-.15,6.17-8,27.9-15.48,38.11-1,1.31-6.79.76-11.73-2-5.2-2.87-9.46-8-8.44-9.5,3.83-5.71,12.93-27.84,12.85-31.3-.08-3.19-7.53-22.77-10.37-34.1C41.84,47.69,44.48,43.12,51.48,51Z" transform="translate(0.56)"/><path class="cls-12" d="M71.4,133.76l-28.05-13.7s11-24.61,11.06-27.27-7.26-23.48-10-33.09-1.67-20.43,10.31-5.88S77.16,90,78.35,95.73,71.4,133.76,71.4,133.76Z" transform="translate(0.56)"/><path class="cls-3" d="M53,85.72c-.57-1.82-1.16-3.64-1.79-5.46-.69-2-1.4-4.05-2.15-6.07s-1.55-3.87-2.34-5.81c0-.14-.3,0-.25.1.94,2.59,1.81,5.2,2.68,7.82-.66-1.2-1.32-2.38-2-3.55a.1.1,0,0,0-.12,0,.1.1,0,0,0,0,.11c.79,1.45,1.61,2.87,2.45,4.28L50,79c1.18,3.51,2.31,7,3.32,10.6a12.86,12.86,0,0,1,.51,2.45,7.34,7.34,0,0,1-.42,2.79c-.51,1.64-1.08,3.27-1.66,4.9C50.58,103,49.3,106.21,48,109.4c-1.52,3.64-3.25,7.23-5,10.77l1.08.3c.08,0,.08,0,.06-.06a3.66,3.66,0,0,0-.68-.35c1.76-3.07,3.43-6.07,4.9-9.29s2.77-6.43,4-9.73c.61-1.7,1.18-3.41,1.73-5.13a9.57,9.57,0,0,0,.47-5A51.5,51.5,0,0,0,53,85.72Z" transform="translate(0.56)"/><path class="cls-3" d="M71.86,125.86a26.72,26.72,0,0,0-3.06-1.45l-2.74-1.28c-2-.9-4-1.82-6-2.71s-4-1.79-6-2.67-4-1.8-6-2.56a.07.07,0,0,0-.06.13c1.87,1.14,3.85,2.09,5.81,3.07s3.88,1.87,5.85,2.75,4,1.74,6.06,2.56c1,.39,2,.76,3,1.12a25.9,25.9,0,0,0,3.2,1.14.06.06,0,0,0-.06-.1Z" transform="translate(0.56)"/></g></g><polygon class="cls-14" points="0 153.37 333.11 153.37 333.11 0 0 153.37"/></svg>