<?xml version="1.0" encoding="UTF-8"?>
<svg width="928px" height="148px" viewBox="0 0 928 148" version="1.1" xmlns="http://www.w3.org/2000/svg" xmlns:xlink="http://www.w3.org/1999/xlink">
    <title>Group</title>
    <g id="Page-2" stroke="none" stroke-width="1" fill="none" fill-rule="evenodd">
        <g id="Artboard" transform="translate(-3561.000000, -844.000000)" fill="#D8DFFD" fill-rule="nonzero">
            <g id="Group" transform="translate(3561.860000, 844.000000)">
                <path d="M228.48,147.696137 L189.64,147.696137 L178.11,102.826137 L239.07,102.826137 L228.48,147.696137 Z M191.19,145.696137 L226.89,145.696137 L236.54,104.826137 L180.69,104.826137 L191.19,145.696137 Z" id="Shape"></path>
                <path d="M208.61,104.826137 C208.06,104.826137 207.61,104.376137 207.61,103.826137 L207.61,41.2961367 C207.61,40.7461367 208.06,40.2961367 208.61,40.2961367 C209.16,40.2961367 209.61,40.7461367 209.61,41.2961367 L209.61,103.826137 C209.61,104.376137 209.16,104.826137 208.61,104.826137 Z" id="Path"></path>
                <path d="M210.08,85.6361367 L209.85,85.6261367 C209.3,85.6161367 196.24,85.1461367 189.39,73.8561367 C185.49,67.4361367 187.97,61.8561367 190.37,56.4561367 C192.33,52.0561367 194.17,47.8961367 192.89,43.1861367 C189.46,30.6361367 188.78,9.50613669 200.96,2.73613669 C205.63,0.136136693 209.63,-0.603863307 213.18,0.486136693 C218.52,2.11613669 222.26,7.65613669 226.25,15.4661367 C230.48,23.7561367 229.18,27.5861367 227.39,32.8861367 C226.48,35.5661367 225.45,38.6161367 224.83,42.9561367 C223.91,49.3361367 225.83,53.4061367 227.52,56.9961367 C229.26,60.6861367 230.9,64.1761367 229.02,69.0961367 C225.43,78.5061367 210.91,85.2561367 210.3,85.5361367 L210.08,85.6361367 Z M209.9,2.00613669 C207.54,2.00613669 204.91,2.82613669 201.93,4.48613669 C195.58,8.01613669 193.54,15.8161367 192.95,21.7361367 C192.3,28.1961367 193,36.0261367 194.82,42.6661367 C196.29,48.0661367 194.21,52.7461367 192.2,57.2761367 C189.91,62.4261367 187.75,67.2961367 191.1,72.8261367 C196.9,82.3961367 207.95,83.5061367 209.67,83.6161367 C211.48,82.7461367 224.07,76.4361367 227.14,68.3861367 C228.71,64.2661367 227.38,61.4361367 225.7,57.8561367 C223.89,54.0161367 221.84,49.6561367 222.84,42.6761367 C223.49,38.1561367 224.6,34.8761367 225.49,32.2461367 C227.25,27.0561367 228.31,23.9161367 224.46,16.3761367 C220.71,9.01613669 217.25,3.81613669 212.59,2.39613669 C211.74,2.13613669 210.84,2.00613669 209.9,2.00613669 Z" id="Shape"></path>
                <path d="M656.3,84.9161367 C610.42,84.9161367 573.09,47.5861367 573.09,1.70613669 C573.09,1.15613669 573.54,0.706136693 574.09,0.706136693 C574.64,0.706136693 575.09,1.15613669 575.09,1.70613669 C575.09,46.4861367 611.52,82.9161367 656.3,82.9161367 C701.08,82.9161367 737.51,46.4861367 737.51,1.70613669 C737.51,1.15613669 737.96,0.706136693 738.51,0.706136693 C739.06,0.706136693 739.51,1.15613669 739.51,1.70613669 C739.51,47.5961367 702.18,84.9161367 656.3,84.9161367 Z" id="Path"></path>
                <path d="M866.11,147.696137 L752.48,147.696137 C748.2,147.696137 744.53,145.246137 742.89,141.286137 C741.25,137.326137 742.12,133.006137 745.14,129.976137 L858.77,16.3461367 C861.79,13.3261367 866.13,12.4561367 870.08,14.0961367 C874.03,15.7361367 876.49,19.4061367 876.49,23.6861367 L876.49,137.316137 C876.48,143.046137 871.83,147.696137 866.11,147.696137 Z M866.05,15.2861367 C863.89,15.2861367 861.8,16.1361367 860.18,17.7561367 L746.55,131.386137 C744.11,133.826137 743.41,137.326137 744.73,140.516137 C746.05,143.706137 749.02,145.686137 752.47,145.686137 L866.1,145.686137 C870.72,145.686137 874.48,141.926137 874.48,137.306137 L874.48,23.6861367 C874.48,20.2361367 872.5,17.2661367 869.31,15.9461367 C868.24,15.5061367 867.14,15.2861367 866.05,15.2861367 Z" id="Shape"></path>
                <path d="M92.48,147.696137 C91.93,147.696137 91.48,147.246137 91.48,146.696137 C91.48,96.8061367 50.89,56.2161367 1,56.2161367 C0.45,56.2161367 0,55.7661367 0,55.2161367 C0,54.6661367 0.45,54.2161367 1,54.2161367 C52,54.2161367 93.48,95.7061367 93.48,146.696137 C93.48,147.246137 93.04,147.696137 92.48,147.696137 Z" id="Path"></path>
                <path d="M925.99,147.696137 L1,147.696137 C0.45,147.696137 0,147.246137 0,146.696137 C0,146.146137 0.45,145.696137 1,145.696137 L925.99,145.696137 C926.54,145.696137 926.99,146.146137 926.99,146.696137 C926.99,147.246137 926.54,147.696137 925.99,147.696137 Z" id="Path"></path>
                <path d="M550.72,110.536137 L529.8,78.6861367 C529.61,78.4061367 529.3,78.2361367 528.96,78.2361367 L491.46,78.2361367 L485.95,78.2361367 C485.72,75.2461367 484.48,72.3261367 482.2,70.0461367 L456.74,44.5861367 C451.67,39.5161367 443.42,39.5161367 438.36,44.5861367 L429.74,53.2061367 C425.64,50.9461367 420.94,49.6561367 415.93,49.6561367 C400.13,49.6561367 387.27,62.5061367 387.27,78.3161367 C387.27,78.3161367 387.27,78.3261367 387.27,78.3261367 C386.96,78.4561367 386.74,78.7461367 386.68,79.0861367 L364.76,110.316137 C364.55,110.626137 364.52,111.016137 364.69,111.356137 C364.86,111.686137 365.2,111.896137 365.58,111.896137 L386.65,111.896137 L386.65,135.186137 C386.65,142.096137 392.27,147.716137 399.18,147.716137 L491.47,147.716137 L521.97,147.716137 C526.38,147.716137 529.97,144.126137 529.97,139.716137 L529.97,112.106137 L549.89,112.106137 C550.26,112.106137 550.6,111.906137 550.77,111.576137 C550.94,111.236137 550.92,110.846137 550.72,110.536137 Z M386.64,82.6061367 L388.16,80.4361367 L388.64,80.4361367 L489.53,80.4361367 L468.87,109.876137 L388.64,109.876137 L386.64,109.876137 L367.5,109.876137 L386.64,82.6061367 Z M439.76,45.9961367 C441.9,43.8561367 444.72,42.7761367 447.54,42.7761367 C450.36,42.7761367 453.17,43.8461367 455.32,45.9961367 L480.78,71.4561367 C482.67,73.3461367 483.72,75.7561367 483.95,78.2361367 L444.57,78.2361367 C444.55,68.2061367 439.34,59.3761367 431.49,54.2661367 L439.76,45.9961367 Z M415.92,51.6561367 C420.37,51.6561367 424.56,52.7561367 428.25,54.6861367 C428.56,54.8461367 428.86,55.0161367 429.16,55.1861367 C429.46,55.3561367 429.75,55.5361367 430.04,55.7161367 C437.54,60.4261367 442.54,68.7561367 442.57,78.2361367 L389.26,78.2361367 C389.3,63.5761367 401.25,51.6561367 415.92,51.6561367 Z M388.64,135.166137 L388.64,111.876137 L469.39,111.876137 C469.72,111.876137 470.02,111.716137 470.21,111.446137 L490.46,82.5961367 L490.46,145.686153 L399.17,145.686153 C393.36,145.696137 388.64,140.976137 388.64,135.166137 Z M527.96,139.696137 C527.96,143.006137 525.27,145.696137 521.96,145.696137 L492.46,145.696137 L492.46,82.5761367 L511.55,111.626137 C511.74,111.906137 512.05,112.076137 512.39,112.076137 L527.97,112.076137 L527.97,139.696137 L527.96,139.696137 Z M528.96,110.086137 L512.92,110.086137 L493.31,80.2361367 L528.42,80.2361367 L548.03,110.086137 L528.96,110.086137 Z" id="Shape"></path>
            </g>
        </g>
    </g>
</svg>