<?xml version="1.0" encoding="UTF-8"?>
<svg width="76px" height="20px" viewBox="0 0 76 20" version="1.1" xmlns="http://www.w3.org/2000/svg" xmlns:xlink="http://www.w3.org/1999/xlink">
    <!-- Generator: Sketch 52 (66869) - http://www.bohemiancoding.com/sketch -->
    <title>arrow 2</title>
    <desc>Created with Sketch.</desc>
    <g id="Chillers" stroke="none" stroke-width="1" fill="none" fill-rule="evenodd">
        <g id="Desktop-HD-Copy-5" transform="translate(-198.000000, -580.000000)" fill="#F5A623">
            <g id="arrow-2" transform="translate(236.000000, 590.000000) scale(-1, 1) translate(-236.000000, -590.000000) translate(198.000000, 580.000000)">
                <path d="M75.403871,8.62650602 L67.0864516,0.557659208 C66.32,-0.185886403 65.0425806,-0.185886403 64.276129,0.557659208 C63.5096774,1.30120482 63.5096774,2.5404475 64.276129,3.28399312 L69.1870968,8.0757315 L1.98709677,8.0757315 C0.88,8.0757315 0,8.92943201 0,10.0034423 C0,11.0774527 0.88,11.9311532 1.98709677,11.9311532 L69.1870968,11.9311532 L64.276129,16.6953528 C63.5096774,17.4388985 63.5096774,18.6781411 64.276129,19.4216867 C64.6735484,19.8072289 65.1845161,20 65.6954839,20 C66.2064516,20 66.7174194,19.8072289 67.1148387,19.4216867 L75.403871,11.3803787 C75.7729032,11.0223752 76,10.5266781 76,10.0034423 C76,9.48020654 75.8012903,8.98450947 75.403871,8.62650602 Z" id="Path"></path>
            </g>
        </g>
    </g>
</svg>