<?xml version="1.0" encoding="UTF-8"?>
<svg width="508px" height="508px" viewBox="0 0 508 508" version="1.1" xmlns="http://www.w3.org/2000/svg" xmlns:xlink="http://www.w3.org/1999/xlink">
    <title>noun-plug-4200359</title>
    <g id="Page-1" stroke="none" stroke-width="1" fill="none" fill-rule="evenodd">
        <g id="noun-plug-4200359" fill="#000000" fill-rule="nonzero">
            <path d="M498.845988,0.00819219394 C496.576488,0.0785051939 494.427988,1.02769219 492.845988,2.65659219 L435.783988,59.7895922 C417.021988,44.0195922 393.853988,36.1845922 370.638988,36.3095922 C344.685988,36.4502222 318.700988,46.4615922 298.810988,66.3525922 L235.580988,129.586592 L235.577082,129.582686 C233.928682,131.223286 233.006782,133.453786 233.006782,135.777986 C233.006782,138.102186 233.928662,140.328786 235.577082,141.973286 L365.917082,272.333286 L365.917082,272.32938 C367.557682,273.98168 369.792082,274.90748 372.120182,274.90748 C374.448282,274.90748 376.682682,273.9817 378.323282,272.32938 L441.553282,209.07938 C479.225282,171.40338 481.518282,111.86838 448.150982,72.1393802 L505.232982,15.0573802 L505.232982,15.0612872 C507.850182,12.5456872 508.643182,8.67458719 507.225182,5.33078719 C505.807182,1.98698719 502.471282,-0.134012806 498.842382,0.00658719394 L498.845988,0.00819219394 Z M370.705988,53.6158648 C392.131988,53.4961022 413.494988,61.6601922 429.869988,78.0391922 C462.623988,110.793192 462.365988,163.480192 429.151238,196.699192 L372.124238,253.797192 L254.174238,135.797192 L311.221238,78.7501922 C327.830238,62.1411922 349.283238,53.7501922 370.709238,53.6291922 L370.705988,53.6158648 Z M214.525988,215.497192 C212.252588,215.563598 210.092388,216.512792 208.510388,218.145592 L166.881388,259.758592 L142.307388,235.184592 L142.303482,235.184592 C140.639382,233.543992 138.385482,232.637692 136.049582,232.668992 C133.772282,232.684617 131.588682,233.586962 129.963682,235.184592 L66.7296817,298.485592 C29.0616817,336.153592 26.7726817,395.633592 60.1319817,435.355592 L3.04998166,492.519592 L3.05388766,492.523498 C1.20618766,494.109398 0.10078766,496.394598 0.00698765997,498.832098 C-0.09066934,501.265698 0.83901766,503.632898 2.56168766,505.355498 C4.28438766,507.078198 6.65148766,508.003898 9.08508766,507.910198 C11.5225877,507.816448 13.8077877,506.710998 15.3936877,504.859398 L72.5416877,447.761398 C112.268688,481.136398 171.803688,478.839398 209.481688,441.163698 L272.711688,377.933698 L272.715594,377.933698 C276.106194,374.523498 276.106194,369.007898 272.715594,365.597698 L248.141594,341.023698 L289.582594,299.648698 L289.582594,299.644792 C292.191994,297.125292 292.973194,293.258092 291.551394,289.922092 C290.129494,286.586192 286.797494,284.472892 283.172494,284.605692 C280.906894,284.679911 278.754494,285.629092 277.172494,287.257992 L235.781494,328.648992 L179.246494,272.132992 L220.844494,230.534992 C223.442194,228.023292 224.231194,224.179492 222.828894,220.851392 C221.430494,217.523292 218.133594,215.394392 214.524194,215.495892 L214.525988,215.497192 Z M136.115988,253.794192 L254.115988,371.794192 L197.068988,428.821192 C163.853988,462.032192 111.115988,462.290192 78.3589877,429.539942 C45.6049877,396.785942 45.8429877,344.031942 79.0582077,310.819942 L136.115988,253.794192 Z" id="Shape"></path>
        </g>
    </g>
</svg>