<?xml version="1.0" encoding="UTF-8"?>
<svg width="14px" height="18px" viewBox="0 0 14 18" version="1.1" xmlns="http://www.w3.org/2000/svg" xmlns:xlink="http://www.w3.org/1999/xlink">
    <!-- Generator: Sketch 63.1 (92452) - https://sketch.com -->
    <title>maps-and-flags</title>
    <desc>Created with Sketch.</desc>
    <g id="Page-1" stroke="none" stroke-width="1" fill="none" fill-rule="evenodd">
        <g id="Site_Summary1.1" transform="translate(-1226.000000, -326.000000)" fill-rule="nonzero">
            <g id="Group-10" transform="translate(1209.000000, 325.000000)">
                <g id="Group-4" transform="translate(17.000000, 0.000000)">
                    <g id="maps-and-flags" transform="translate(0.000000, 1.000000)">
                        <path d="M13.9946533,6.99465327 C13.9946533,12.5955327 7.67175377,17.7827085 7.67175377,17.7827085 C7.30230151,18.0858191 6.69766332,18.0858191 6.32821106,17.7827085 C6.32821106,17.7827085 0.00531155779,12.5955327 0.00531155779,6.99465327 C0.00531155779,3.13160302 3.13698492,0 7,0 C10.8630151,0 13.9946533,3.13160302 13.9946533,6.99465327 Z" id="Path" fill="#39B2C2"></path>
                        <path d="M7,10.5137186 C5.05955779,10.5137186 3.48096985,8.9350603 3.48096985,6.99468844 C3.48096985,5.05431658 5.05962814,3.47558794 7,3.47558794 C8.94037186,3.47558794 10.5190302,5.05424623 10.5190302,6.99461809 C10.5190302,8.93498995 8.94044221,10.5137186 7,10.5137186 Z" id="Path" fill="#CBECF1"></path>
                    </g>
                </g>
            </g>
        </g>
    </g>
</svg>