<?xml version="1.0" encoding="UTF-8"?>
<svg width="92px" height="20px" viewBox="0 0 92 20" version="1.1" xmlns="http://www.w3.org/2000/svg" xmlns:xlink="http://www.w3.org/1999/xlink">
    <!-- Generator: Sketch 63.1 (92452) - https://sketch.com -->
    <title>Group</title>
    <desc>Created with Sketch.</desc>
    <g id="Page-1" stroke="none" stroke-width="1" fill="none" fill-rule="evenodd">
        <g id="Artboard" transform="translate(-158.000000, -374.000000)" fill-rule="nonzero">
            <g id="Group" transform="translate(159.000000, 374.000000)">
                <g id="water">
                    <path d="M6.91714541,6.49485497 C6.91714541,8.49164847 5.36233998,10.0890951 3.46425181,10.0890951 C1.56616363,10.0890951 0.0113582026,8.49164847 0.0113582026,6.49485497 C0.0113582026,4.49806146 3.46425181,0 3.46425181,0 C3.46425181,0 6.91714541,4.51906727 6.91714541,6.49485497 Z" id="Path" stroke="#474747" stroke-width="0.799999952" fill="#84DBFF"></path>
                    <path d="M3.46425181,9.14324243 C2.07097895,9.14324243 0.920014414,7.9661879 0.920014414,6.49485497 C0.920014414,6.32670995 1.06136725,6.17957074 1.22289982,6.17957074 C1.38443239,6.17957074 1.52578522,6.32670995 1.52578522,6.49485497 C1.52578522,7.60885265 2.39406302,8.51267398 3.46425181,8.51267398 C3.62578438,8.51267398 3.76713721,8.65981319 3.76713721,8.82795821 C3.76713721,8.99610322 3.62578438,9.14324243 3.46425181,9.14324243 Z" id="Path" fill="#FFFFFF"></path>
                </g>
                <g id="water-copy" transform="translate(16.179775, 0.000000)">
                    <path d="M6.91714541,6.49485497 C6.91714541,8.49164847 5.36233998,10.0890951 3.46425181,10.0890951 C1.56616363,10.0890951 0.0113582026,8.49164847 0.0113582026,6.49485497 C0.0113582026,4.49806146 3.46425181,0 3.46425181,0 C3.46425181,0 6.91714541,4.51906727 6.91714541,6.49485497 Z" id="Path" stroke="#474747" stroke-width="0.799999952" fill="#84DBFF"></path>
                    <path d="M3.46425181,9.14324243 C2.07097895,9.14324243 0.920014414,7.9661879 0.920014414,6.49485497 C0.920014414,6.32670995 1.06136725,6.17957074 1.22289982,6.17957074 C1.38443239,6.17957074 1.52578522,6.32670995 1.52578522,6.49485497 C1.52578522,7.60885265 2.39406302,8.51267398 3.46425181,8.51267398 C3.62578438,8.51267398 3.76713721,8.65981319 3.76713721,8.82795821 C3.76713721,8.99610322 3.62578438,9.14324243 3.46425181,9.14324243 Z" id="Path" fill="#FFFFFF"></path>
                </g>
                <g id="water-copy-6" transform="translate(8.089888, 12.631579)">
                    <path d="M4.84200171,4.5463984 C4.84200171,5.94415383 3.75363792,7.06236644 2.42497622,7.06236644 C1.09631452,7.06236644 0.00795074172,5.94415383 0.00795074172,4.5463984 C0.00795074172,3.14864297 2.42497622,0 2.42497622,0 C2.42497622,0 4.84200171,3.16334704 4.84200171,4.5463984 Z" id="Path" stroke="#474747" stroke-width="0.559999957" fill="#84DBFF"></path>
                    <path d="M2.42497622,6.40026959 C1.44968524,6.40026959 0.644010079,5.57633144 0.644010079,4.5463984 C0.644010079,4.42869689 0.74295706,4.32569945 0.856029858,4.32569945 C0.969102657,4.32569945 1.06804964,4.42869689 1.06804964,4.5463984 C1.06804964,5.32619676 1.67584409,5.95887169 2.42497622,5.95887169 C2.53804902,5.95887169 2.636996,6.06186913 2.636996,6.17957064 C2.636996,6.29727215 2.53804902,6.40026959 2.42497622,6.40026959 Z" id="Path" fill="#FFFFFF"></path>
                </g>
                <g id="water-copy-7" transform="translate(25.280899, 12.631579)">
                    <path d="M4.84200171,4.5463984 C4.84200171,5.94415383 3.75363792,7.06236644 2.42497622,7.06236644 C1.09631452,7.06236644 0.00795074172,5.94415383 0.00795074172,4.5463984 C0.00795074172,3.14864297 2.42497622,0 2.42497622,0 C2.42497622,0 4.84200171,3.16334704 4.84200171,4.5463984 Z" id="Path" stroke="#474747" stroke-width="0.559999957" fill="#84DBFF"></path>
                    <path d="M2.42497622,6.40026959 C1.44968524,6.40026959 0.644010079,5.57633144 0.644010079,4.5463984 C0.644010079,4.42869689 0.74295706,4.32569945 0.856029858,4.32569945 C0.969102657,4.32569945 1.06804964,4.42869689 1.06804964,4.5463984 C1.06804964,5.32619676 1.67584409,5.95887169 2.42497622,5.95887169 C2.53804902,5.95887169 2.636996,6.06186913 2.636996,6.17957064 C2.636996,6.29727215 2.53804902,6.40026959 2.42497622,6.40026959 Z" id="Path" fill="#FFFFFF"></path>
                </g>
                <g id="water-copy-8" transform="translate(42.471910, 12.631579)">
                    <path d="M4.84200171,4.5463984 C4.84200171,5.94415383 3.75363792,7.06236644 2.42497622,7.06236644 C1.09631452,7.06236644 0.00795074172,5.94415383 0.00795074172,4.5463984 C0.00795074172,3.14864297 2.42497622,0 2.42497622,0 C2.42497622,0 4.84200171,3.16334704 4.84200171,4.5463984 Z" id="Path" stroke="#474747" stroke-width="0.559999957" fill="#84DBFF"></path>
                    <path d="M2.42497622,6.40026959 C1.44968524,6.40026959 0.644010079,5.57633144 0.644010079,4.5463984 C0.644010079,4.42869689 0.74295706,4.32569945 0.856029858,4.32569945 C0.969102657,4.32569945 1.06804964,4.42869689 1.06804964,4.5463984 C1.06804964,5.32619676 1.67584409,5.95887169 2.42497622,5.95887169 C2.53804902,5.95887169 2.636996,6.06186913 2.636996,6.17957064 C2.636996,6.29727215 2.53804902,6.40026959 2.42497622,6.40026959 Z" id="Path" fill="#FFFFFF"></path>
                </g>
                <g id="water-copy-9" transform="translate(59.662921, 12.631579)">
                    <path d="M4.84200171,4.5463984 C4.84200171,5.94415383 3.75363792,7.06236644 2.42497622,7.06236644 C1.09631452,7.06236644 0.00795074172,5.94415383 0.00795074172,4.5463984 C0.00795074172,3.14864297 2.42497622,0 2.42497622,0 C2.42497622,0 4.84200171,3.16334704 4.84200171,4.5463984 Z" id="Path" stroke="#474747" stroke-width="0.559999957" fill="#84DBFF"></path>
                    <path d="M2.42497622,6.40026959 C1.44968524,6.40026959 0.644010079,5.57633144 0.644010079,4.5463984 C0.644010079,4.42869689 0.74295706,4.32569945 0.856029858,4.32569945 C0.969102657,4.32569945 1.06804964,4.42869689 1.06804964,4.5463984 C1.06804964,5.32619676 1.67584409,5.95887169 2.42497622,5.95887169 C2.53804902,5.95887169 2.636996,6.06186913 2.636996,6.17957064 C2.636996,6.29727215 2.53804902,6.40026959 2.42497622,6.40026959 Z" id="Path" fill="#FFFFFF"></path>
                </g>
                <g id="water-copy-10" transform="translate(76.853933, 12.631579)">
                    <path d="M4.84200171,4.5463984 C4.84200171,5.94415383 3.75363792,7.06236644 2.42497622,7.06236644 C1.09631452,7.06236644 0.00795074172,5.94415383 0.00795074172,4.5463984 C0.00795074172,3.14864297 2.42497622,0 2.42497622,0 C2.42497622,0 4.84200171,3.16334704 4.84200171,4.5463984 Z" id="Path" stroke="#474747" stroke-width="0.559999957" fill="#84DBFF"></path>
                    <path d="M2.42497622,6.40026959 C1.44968524,6.40026959 0.644010079,5.57633144 0.644010079,4.5463984 C0.644010079,4.42869689 0.74295706,4.32569945 0.856029858,4.32569945 C0.969102657,4.32569945 1.06804964,4.42869689 1.06804964,4.5463984 C1.06804964,5.32619676 1.67584409,5.95887169 2.42497622,5.95887169 C2.53804902,5.95887169 2.636996,6.06186913 2.636996,6.17957064 C2.636996,6.29727215 2.53804902,6.40026959 2.42497622,6.40026959 Z" id="Path" fill="#FFFFFF"></path>
                </g>
                <g id="water-copy-2" transform="translate(33.370787, 0.000000)">
                    <path d="M6.91714541,6.49485497 C6.91714541,8.49164847 5.36233998,10.0890951 3.46425181,10.0890951 C1.56616363,10.0890951 0.0113582026,8.49164847 0.0113582026,6.49485497 C0.0113582026,4.49806146 3.46425181,0 3.46425181,0 C3.46425181,0 6.91714541,4.51906727 6.91714541,6.49485497 Z" id="Path" stroke="#474747" stroke-width="0.799999952" fill="#84DBFF"></path>
                    <path d="M3.46425181,9.14324243 C2.07097895,9.14324243 0.920014414,7.9661879 0.920014414,6.49485497 C0.920014414,6.32670995 1.06136725,6.17957074 1.22289982,6.17957074 C1.38443239,6.17957074 1.52578522,6.32670995 1.52578522,6.49485497 C1.52578522,7.60885265 2.39406302,8.51267398 3.46425181,8.51267398 C3.62578438,8.51267398 3.76713721,8.65981319 3.76713721,8.82795821 C3.76713721,8.99610322 3.62578438,9.14324243 3.46425181,9.14324243 Z" id="Path" fill="#FFFFFF"></path>
                </g>
                <g id="water-copy-3" transform="translate(49.550562, 0.000000)">
                    <path d="M6.91714541,6.49485497 C6.91714541,8.49164847 5.36233998,10.0890951 3.46425181,10.0890951 C1.56616363,10.0890951 0.0113582026,8.49164847 0.0113582026,6.49485497 C0.0113582026,4.49806146 3.46425181,0 3.46425181,0 C3.46425181,0 6.91714541,4.51906727 6.91714541,6.49485497 Z" id="Path" stroke="#474747" stroke-width="0.799999952" fill="#84DBFF"></path>
                    <path d="M3.46425181,9.14324243 C2.07097895,9.14324243 0.920014414,7.9661879 0.920014414,6.49485497 C0.920014414,6.32670995 1.06136725,6.17957074 1.22289982,6.17957074 C1.38443239,6.17957074 1.52578522,6.32670995 1.52578522,6.49485497 C1.52578522,7.60885265 2.39406302,8.51267398 3.46425181,8.51267398 C3.62578438,8.51267398 3.76713721,8.65981319 3.76713721,8.82795821 C3.76713721,8.99610322 3.62578438,9.14324243 3.46425181,9.14324243 Z" id="Path" fill="#FFFFFF"></path>
                </g>
                <g id="water-copy-4" transform="translate(66.741573, 0.000000)">
                    <path d="M6.91714541,6.49485497 C6.91714541,8.49164847 5.36233998,10.0890951 3.46425181,10.0890951 C1.56616363,10.0890951 0.0113582026,8.49164847 0.0113582026,6.49485497 C0.0113582026,4.49806146 3.46425181,0 3.46425181,0 C3.46425181,0 6.91714541,4.51906727 6.91714541,6.49485497 Z" id="Path" stroke="#474747" stroke-width="0.799999952" fill="#84DBFF"></path>
                    <path d="M3.46425181,9.14324243 C2.07097895,9.14324243 0.920014414,7.9661879 0.920014414,6.49485497 C0.920014414,6.32670995 1.06136725,6.17957074 1.22289982,6.17957074 C1.38443239,6.17957074 1.52578522,6.32670995 1.52578522,6.49485497 C1.52578522,7.60885265 2.39406302,8.51267398 3.46425181,8.51267398 C3.62578438,8.51267398 3.76713721,8.65981319 3.76713721,8.82795821 C3.76713721,8.99610322 3.62578438,9.14324243 3.46425181,9.14324243 Z" id="Path" fill="#FFFFFF"></path>
                </g>
                <g id="water-copy-5" transform="translate(82.921348, 0.000000)">
                    <path d="M6.91714541,6.49485497 C6.91714541,8.49164847 5.36233998,10.0890951 3.46425181,10.0890951 C1.56616363,10.0890951 0.0113582026,8.49164847 0.0113582026,6.49485497 C0.0113582026,4.49806146 3.46425181,0 3.46425181,0 C3.46425181,0 6.91714541,4.51906727 6.91714541,6.49485497 Z" id="Path" stroke="#474747" stroke-width="0.799999952" fill="#84DBFF"></path>
                    <path d="M3.46425181,9.14324243 C2.07097895,9.14324243 0.920014414,7.9661879 0.920014414,6.49485497 C0.920014414,6.32670995 1.06136725,6.17957074 1.22289982,6.17957074 C1.38443239,6.17957074 1.52578522,6.32670995 1.52578522,6.49485497 C1.52578522,7.60885265 2.39406302,8.51267398 3.46425181,8.51267398 C3.62578438,8.51267398 3.76713721,8.65981319 3.76713721,8.82795821 C3.76713721,8.99610322 3.62578438,9.14324243 3.46425181,9.14324243 Z" id="Path" fill="#FFFFFF"></path>
                </g>
            </g>
        </g>
    </g>
</svg>