<svg xmlns="http://www.w3.org/2000/svg" viewBox="0 0 192 192"><defs><style>.cls-1{fill:#334056;}.cls-2{fill:none;}</style></defs><g id="trim_area" data-name="trim area"><g id="Filter"><path class="cls-1" d="M29.4,16.41l-.14.12s0,0,0,0A.41.41,0,0,1,29.4,16.41Z"/><rect class="cls-2" y="-0.05" width="192" height="192"/><path class="cls-1" d="M36,107.87A11.87,11.87,0,1,1,47.87,96,11.89,11.89,0,0,1,36,107.87Zm0-12a.13.13,0,0,0-.13.13c0,.15.26.15.26,0A.13.13,0,0,0,36,95.87Z"/><path class="cls-1" d="M96,107.87A11.87,11.87,0,1,1,107.87,96,11.89,11.89,0,0,1,96,107.87Zm0-12a.13.13,0,0,0-.13.13c0,.15.26.15.26,0A.13.13,0,0,0,96,95.87Z"/><path class="cls-1" d="M156,107.87A11.87,11.87,0,1,1,167.87,96,11.89,11.89,0,0,1,156,107.87Zm0-12a.13.13,0,0,0-.13.13c0,.15.26.15.26,0A.13.13,0,0,0,156,95.87Z"/></g></g></svg>