<svg id="Layer_1" data-name="Layer 1" xmlns="http://www.w3.org/2000/svg" viewBox="0 0 50 50"><defs><style>.cls-1{fill-rule:evenodd;}</style></defs><g id="bills-alerts"><path id="Combined-Shape" class="cls-1" d="M35.76.08l.09.06,2.92,2.35a1.92,1.92,0,0,0,2.16.09L41,2.49,43.15.69a.61.61,0,0,1,.41-.15.6.6,0,0,1,.61.48V30.85L40,24.13a6,6,0,0,0-8.12-1.95,5.89,5.89,0,0,0-2,1.95l-12,19.24A6.83,6.83,0,0,0,17.57,50H3.08A3,3,0,0,1,0,47.18v-46A.52.52,0,0,1,.17.75.65.65,0,0,1,1,.65L1,.72l2,1.77a1.67,1.67,0,0,0,1.12.38,1.91,1.91,0,0,0,1-.29l.11-.09L8.26.14A.66.66,0,0,1,9,.08l.09.06L12,2.48a2,2,0,0,0,2.2.07l.05,0,0,0L17.19.14A.66.66,0,0,1,17.9.08L18,.14l2.92,2.34a2,2,0,0,0,2.2.07l0,0,.05,0L26.12.14a.66.66,0,0,1,.71-.06l.09.06,2.92,2.34A1.94,1.94,0,0,0,32,2.55l0,0,.05,0L35.05.14A.65.65,0,0,1,35.76.08Zm1.73,26,.1.16,12,19.17A2.89,2.89,0,0,1,50,47a3,3,0,0,1-2.9,3H23.23a3.18,3.18,0,0,1-1.57-.42,3,3,0,0,1-1.17-3.95l.1-.16L32.31,26.29a3,3,0,0,1,1-1A3.13,3.13,0,0,1,37.49,26.11ZM35,42.82a1.75,1.75,0,1,0,1.79,1.75A1.78,1.78,0,0,0,35,42.82Zm-21.2-.93h-6a1.25,1.25,0,0,0,0,2.49h6.12a1.25,1.25,0,0,0-.13-2.49ZM35,30.94a1.27,1.27,0,0,0-1.28,1.12v7.73A1.26,1.26,0,0,0,35,41a1.29,1.29,0,0,0,1.28-1.13V32.19A1.26,1.26,0,0,0,35,30.94Zm-17,3.95H7.76a1.25,1.25,0,0,0,0,2.49h10.3a1.25,1.25,0,0,0-.13-2.49Zm4.07-7H7.76a1.25,1.25,0,0,0,0,2.49H22.13A1.25,1.25,0,0,0,22,27.89ZM23.25,8.71H21.69V10.2c-2.22.22-3.53,1.6-3.53,3.22,0,2.17,1.84,2.78,3.53,3.2v2.52a4.82,4.82,0,0,1-2.61-1.37L17.81,19.5a6,6,0,0,0,3.88,1.66V22.6h1.56V21.14c2.4-.24,3.59-1.6,3.59-3.37,0-2.18-1.89-2.82-3.59-3.23V12.28a4.67,4.67,0,0,1,2,1l1.3-1.66a5.89,5.89,0,0,0-3.34-1.43Zm0,8.29c.71.22,1.22.5,1.22,1s-.41,1-1.22,1.12Zm-1.56-4.82v2c-.69-.2-1.15-.45-1.15-.92S21,12.28,21.69,12.18Z"/></g></svg>