<svg width="12" height="8" viewBox="0 0 12 8" xmlns="http://www.w3.org/2000/svg">
    <g fill="none" fill-rule="evenodd">
        <path d="M-1-4h14v14H-1"/>
        <path d="M3.667 2.417h4.666v1.166H3.667V2.417zM10.725 3h1.108A2.918 2.918 0 0 0 8.917.083H6.583v1.109h2.334c.997 0 1.808.81 1.808 1.808zm-9.45 0c0-.997.81-1.808 1.808-1.808h2.334V.083H3.083a2.918 2.918 0 0 0 0 5.834h2.334V4.808H3.083A1.81 1.81 0 0 1 1.275 3zm8.808 0H8.917v1.75h-1.75v1.167h1.75v1.75h1.166v-1.75h1.75V4.75h-1.75V3z" fill="#2E2E49" fill-rule="nonzero"/>
    </g>
</svg>
