<?xml version="1.0" encoding="UTF-8"?>
<svg width="100px" height="100px" viewBox="0 0 100 100" version="1.1" xmlns="http://www.w3.org/2000/svg" xmlns:xlink="http://www.w3.org/1999/xlink">
    <!-- Generator: Sketch 52 (66869) - http://www.bohemiancoding.com/sketch -->
    <title>Plus Shaped duct</title>
    <desc>Created with Sketch.</desc>
    <defs>
        <linearGradient x1="100%" y1="15.1876786%" x2="0%" y2="15.1876786%" id="linearGradient-1">
            <stop stop-color="#424951" offset="0%"></stop>
            <stop stop-color="#909CAC" offset="100%"></stop>
        </linearGradient>
        <linearGradient x1="73.8528983%" y1="0%" x2="73.8528983%" y2="100%" id="linearGradient-2">
            <stop stop-color="#282828" offset="0%"></stop>
            <stop stop-color="#C6D0E1" offset="100%"></stop>
        </linearGradient>
    </defs>
    <g id="AHU-Illustration" stroke="none" stroke-width="1" fill="none" fill-rule="evenodd">
        <g id="Types-of-Ducts" transform="translate(-105.000000, -882.000000)">
            <g id="Plus-Shaped-duct" transform="translate(105.000000, 882.000000)">
                <g id="Group-3" transform="translate(0.000000, 77.000000)">
                    <g id="Group-Copy-12" fill="#848E9C">
                        <polygon id="Path-4-Copy" points="0 0 0 23 100 23 100 0"></polygon>
                    </g>
                    <g id="Group-2-Copy" transform="translate(50.000000, 11.500000) scale(1, -1) translate(-50.000000, -11.500000) ">
                        <polygon id="Path-8" fill="#848E9C" points="23.960088 -1.07160645e-14 0 23 0 -0.000225525492"></polygon>
                        <polygon id="Path-8-Copy" fill="url(#linearGradient-1)" points="100 1.27675648e-15 70 23 70 1.27675648e-15"></polygon>
                        <polygon id="Path-9" fill="#5B6777" points="0 23 23 -5.03997885e-14 70 -5.68434189e-14 70 23"></polygon>
                    </g>
                </g>
                <g id="Group-5-Copy-7">
                    <g id="Group-Copy-4">
                        <polygon id="Path-2-Copy" fill="#5B6777" points="5 7.10542736e-15 5 77 0 77 0 7.10542736e-15"></polygon>
                        <polygon id="Path-2-Copy-2" fill="#5B6777" points="100 77 68 77 68 25.2938705 99.9598784 0"></polygon>
                        <polygon id="Path-4" fill="url(#linearGradient-2)" opacity="0.5" points="0 0 0 30 5 30 5 0"></polygon>
                        <polygon id="Path-4-Copy-2" fill="url(#linearGradient-2)" opacity="0.5" points="99.9598784 0 70 30 99.9598784 30"></polygon>
                    </g>
                    <polygon id="Path-8" fill="#848E9C" points="23 1.71737624e-15 0 30 0 0"></polygon>
                    <polygon id="Path-8-Copy" fill="url(#linearGradient-1)" points="99.9598784 0.0752475263 70 30 70 0.0752475263"></polygon>
                    <polygon id="Path-9" fill="#5B6777" points="0 30 23 2.67147415e-16 70 0 70 77 0 77"></polygon>
                </g>
            </g>
        </g>
    </g>
</svg>