<svg viewBox="0 0 50 50" xmlns="http://www.w3.org/2000/svg">
  <path d="M23.976 0l.164.005a2.501 2.501 0 012.337 2.497v4.8l-.007.144a1.5 1.5 0 01-1.494 1.356l-.144-.007a1.501 1.501 0 01-1.356-1.494v-4.3H3.002v43.996h20.474v-19.65l.007-.145a1.5 1.5 0 012.994.144v19.651h20.522v-19.65l.007-.145a1.5 1.5 0 012.994.144V48A2 2 0 0148 50H2a2 2 0 01-2-2V2.501l.005-.165A2.501 2.501 0 012.501 0h21.475zm11.043 40.028v4.002h-4.001v-4.002h4.001zm7.003 0v4.002H38.02v-4.002h4.002zm-30.011 0v4.002H8.01v-4.002h4.001zm7.002 0v4.002h-4v-4.002h4zm16.006-7.005v4.003h-4.001v-4.003h4.001zm7.003 0v4.003H38.02v-4.003h4.002zm-23.009 0v4.003h-4v-4.003h4zM50 6.91v10.478a1.5 1.5 0 01-2.994.144l-.007-.144-.001-5.195-11.999 11.543a2 2 0 01-2.634.122l-.133-.116-7.313-6.975L7.98 31.165a1.5 1.5 0 01-2.01-.06l-.105-.112a1.502 1.502 0 01.06-2.01l.112-.106 17.623-14.98a2 2 0 012.542-.042l.134.118 7.272 6.933L45.04 9.91h-5.857a1.5 1.5 0 01-1.494-1.356l-.007-.144c0-.78.595-1.422 1.356-1.494l.145-.007H50zm-37.989-.904v4.003H8.01V6.005h4.001zm7.002 0v4.003h-4V6.005h4z" fill="#364458" fill-rule="nonzero"/>
</svg>
