<?xml version="1.0" encoding="UTF-8"?>
<svg width="47px" height="47px" viewBox="0 0 47 47" version="1.1" xmlns="http://www.w3.org/2000/svg" xmlns:xlink="http://www.w3.org/1999/xlink">
    <!-- Generator: Sketch 62 (91390) - https://sketch.com -->
    <title>Group 12</title>
    <desc>Created with Sketch.</desc>
    <defs>
        <circle id="path-1" cx="23.1249579" cy="23.1249579" r="23.1249579"></circle>
    </defs>
    <g id="Page-1" stroke="none" stroke-width="1" fill="none" fill-rule="evenodd">
        <g id="Agent_Overview" transform="translate(-902.000000, -225.000000)">
            <g id="Group-10" transform="translate(320.000000, 210.000000)">
                <g id="Group-7">
                    <g id="Group">
                        <g id="Component/Card-Metric" transform="translate(559.000000, -0.000000)">
                            <g id="Component/Card/Metric-with-Icon" transform="translate(0.000000, 0.000000)">
                                <g id="Group-12" transform="translate(23.124958, 15.416639)">
                                    <g id="Icon-Circle" opacity="0.149999991">
                                        <g id="Oval">
                                            <mask id="mask-2" fill="white">
                                                <use xlink:href="#path-1"></use>
                                            </mask>
                                            <use fill="#FFFFFF" xlink:href="#path-1"></use>
                                        </g>
                                    </g>
                                    <g id="multiple-connector-points" transform="translate(13.124958, 13.427988)" fill="#FFFFFF" fill-rule="nonzero">
                                        <path d="M17.2354545,8.31454545 L17.2354545,9.18090909 L15.3084848,9.18090909 C15.5360606,9.01212121 15.7436364,8.82090909 15.9315152,8.60727273 C16.8242424,7.59060606 17.0278788,6.32 17.0575758,5.52090909 L18.5739394,5.52090909 C18.9651515,5.52090909 19.2821212,5.20363636 19.2821212,4.81272727 L19.2821212,0.797272727 C19.2821212,0.406363636 18.9651515,0.0890909091 18.5739394,0.0890909091 L14.5587879,0.0890909091 C14.1675758,0.0890909091 13.8506061,0.406363636 13.8506061,0.797272727 L13.8506061,4.81242424 C13.8506061,5.20363636 14.1675758,5.52060606 14.5587879,5.52060606 L16.1133333,5.52060606 C16.0845455,6.17242424 15.9163636,7.1930303 15.2218182,7.98393939 C14.6427273,8.64333333 13.7842424,9.02878788 12.6718182,9.14181818 L12.6718182,7.64515152 C12.6718182,7.25424242 12.3548485,6.9369697 11.9636364,6.9369697 L7.94848485,6.9369697 C7.55727273,6.9369697 7.24030303,7.25424242 7.24030303,7.64515152 L7.24030303,9.18060606 L2.67666667,9.18060606 L2.67666667,8.31424242 L0,8.31424242 L0,10.9909091 L2.67666667,10.9909091 L2.67666667,10.1251515 L4.90757576,10.1251515 C3.55,11.1754545 3.09818182,12.8460606 2.94787879,13.7851515 L1.33818182,13.7851515 C0.946666667,13.7851515 0.63,14.1024242 0.63,14.4933333 L0.63,18.5084848 C0.63,18.899697 0.946969697,19.2166667 1.33818182,19.2166667 L5.35333333,19.2166667 C5.74454545,19.2166667 6.06151515,18.8993939 6.06151515,18.5084848 L6.06151515,14.4933333 C6.06151515,14.1021212 5.74454545,13.7851515 5.35333333,13.7851515 L3.89333333,13.7851515 C4.08545455,12.6445455 4.77242424,10.5154545 7.24,10.1721212 L7.24,11.6606061 C7.24,12.0515152 7.5569697,12.3687879 7.94818182,12.3687879 L11.9633333,12.3687879 C12.3545455,12.3687879 12.6715152,12.0515152 12.6715152,11.6606061 L12.6715152,10.1251515 L17.2351515,10.1251515 L17.2351515,10.9909091 L19.9118182,10.9909091 L19.9118182,8.31424242 L17.2354545,8.31424242 L17.2354545,8.31454545 Z M15.2666667,1.50575758 L17.8654545,1.50575758 L17.8654545,4.10454545 L15.2666667,4.10454545 C15.2666667,4.10454545 15.2666667,1.50575758 15.2666667,1.50575758 Z M4.64515152,17.800303 L2.04636364,17.800303 L2.04636364,15.2015152 L4.64515152,15.2015152 L4.64515152,17.800303 Z M11.2551515,10.9524242 L8.65666667,10.9524242 L8.65666667,8.35363636 L11.2551515,8.35363636 L11.2551515,10.9524242 Z" id="Shape"></path>
                                    </g>
                                </g>
                            </g>
                        </g>
                    </g>
                </g>
            </g>
        </g>
    </g>
</svg>