<svg xmlns="http://www.w3.org/2000/svg" width="480" height="384" viewBox="0 0 480 384">
  <g fill="none">
    <path fill="#F6F5FF" d="M464 312C468.418278 312 472 315.581722 472 320L472 344C472 361.673112 457.673112 376 440 376L40 376C22.326888 376 8 361.673112 8 344L8 320C8 315.581722 11.581722 312 16 312L200 312 200 336C200 340.418278 203.581722 344 208 344L272 344C276.418278 344 280 340.418278 280 336L280 312 464 312zM448 24L448 312 416 312 416 40 64 40 64 312 32 312 32 24C32.0263584 15.1743851 39.1743851 8.02635841 48 8L432 8C440.825615 8.02635841 447.973642 15.1743851 448 24z"/>
    <g fill="#7176C4">
      <path d="M464,304 L456,304 L456,24 C455.960462,10.7615776 445.238422,0.0395376133 432,0 L48,0 C34.7615776,0.0395376133 24.0395376,10.7615776 24,24 L24,304 L16,304 C7.17438507,304.026358 0.0263584089,311.174385 0,320 L0,344 C0,366.09139 17.90861,384 40,384 L440,384 C462.09139,384 480,366.09139 480,344 L480,320 C479.973642,311.174385 472.825615,304.026358 464,304 L464,304 Z M40,24 C40,19.581722 43.581722,16 48,16 L432,16 C436.418278,16 440,19.581722 440,24 L440,304 L424,304 L424,40 C424,35.581722 420.418278,32 416,32 L64,32 C59.581722,32 56,35.581722 56,40 L56,304 L40,304 L40,24 Z M72,304 L72,48 L408,48 L408,304 L72,304 Z M272,320 L272,336 L208,336 L208,320 L272,320 Z M464,344 C463.960462,357.238422 453.238422,367.960462 440,368 L40,368 C26.7615776,367.960462 16.0395376,357.238422 16,344 L16,320 L192,320 L192,336 C192.026358,344.825615 199.174385,351.973642 208,352 L272,352 C280.825615,351.973642 287.973642,344.825615 288,336 L288,320 L464,320 L464,344 Z"/>
      <path d="M139.312 128L157.656 109.656 146.344 98.344 122.344 122.344C119.220944 125.467999 119.220944 130.532001 122.344 133.656L146.344 157.656 157.656 146.344 139.312 128zM221.656 157.656L245.656 133.656C248.779056 130.532001 248.779056 125.467999 245.656 122.344L221.656 98.344 210.344 109.656 228.688 128 210.344 146.344 221.656 157.656z"/>
      <polygon points="151.045 120.067 217.011 120.067 217.011 136.059 151.045 136.059" transform="rotate(-75.936 184.028 128.063)"/>
      <polygon points="264 144 344 144 344 160 264 160"/>
      <polygon points="264 112 280 112 280 128 264 128"/>
      <polygon points="296 112 344 112 344 128 296 128"/>
      <polygon points="248 176 344 176 344 192 248 192"/>
      <polygon points="184 176 232 176 232 192 184 192"/>
      <polygon points="152 176 168 176 168 192 152 192"/>
      <polygon points="152 208 264 208 264 224 152 224"/>
      <polygon points="280 208 312 208 312 224 280 224"/>
      <polygon points="328 208 344 208 344 224 328 224"/>
      <polygon points="152 240 344 240 344 256 152 256"/>
    </g>
  </g>
</svg>
