<svg width="32" height="32" viewBox="0 0 32 32" xmlns="http://www.w3.org/2000/svg">
    <g fill="none" fill-rule="evenodd">
        <circle fill="#EFEFEF" cx="16" cy="16" r="16"/>
        <path d="M8 8h16v16H8z"/>
        <path d="M18.667 8.667h-8c-.734 0-1.334.6-1.334 1.333v9.333h1.334V10h8V8.667zm2 2.666h-7.334c-.733 0-1.333.6-1.333 1.334V22c0 .733.6 1.333 1.333 1.333h7.334c.733 0 1.333-.6 1.333-1.333v-9.333c0-.734-.6-1.334-1.333-1.334zm0 10.667h-7.334v-9.333h7.334V22z" fill="#818A99"/>
    </g>
</svg>
