<svg xmlns="http://www.w3.org/2000/svg" width="20" height="30" viewBox="0 0 20 30">
  <g transform="translate(.718 .282)">
    <path d="M1.72415489,9.28583462 L9.79084506,1.21914444 C10.0697183,0.940229339 10.0697183,0.488038648 9.79084506,0.209123546 C9.51188811,-0.0697078486 9.05973927,-0.0697078486 8.78082417,0.209123546 L0.209123546,8.78082417 C-0.0697078486,9.05973927 -0.0697078486,9.51192996 0.209123546,9.79084506 L8.78082417,18.3625457 C9.06459434,18.6366057 9.51678503,18.6287372 9.79084506,18.344967 C10.0581666,18.0681446 10.0581666,17.6293053 9.79084506,17.3525248 L1.72415489,9.28583462 Z" transform="rotate(-90 14.5 14.5)"/>
    <path d="M1.72415489,9.28583462 L9.79084506,1.21914444 C10.0697183,0.940229339 10.0697183,0.488038648 9.79084506,0.209123546 C9.51188811,-0.0697078486 9.05973927,-0.0697078486 8.78082417,0.209123546 L0.209123546,8.78082417 C-0.0697078486,9.05973927 -0.0697078486,9.51192996 0.209123546,9.79084506 L8.78082417,18.3625457 C9.06459434,18.6366057 9.51678503,18.6287372 9.79084506,18.344967 C10.0581666,18.0681446 10.0581666,17.6293053 9.79084506,17.3525248 L1.72415489,9.28583462 Z" transform="rotate(90 9.282 9.282)"/>
  </g>
</svg>
