<svg width="11" height="9" xmlns="http://www.w3.org/2000/svg"><path d="M2.148 4.09C.964 4.09 0 3.174 0 2.046 0 .918.964 0 2.148 0c1.185 0 2.149.918 2.149 2.045 0 1.128-.964 2.046-2.149 2.046zm0-3.272c-.71 0-1.289.55-1.289 1.227s.579 1.228 1.29 1.228c.71 0 1.288-.55 1.288-1.228 0-.676-.578-1.227-1.289-1.227zM11 1.636H5.156v.819H11v-.819zm-8.852 0a.42.42 0 0 0-.43.41c0 .225.194.409.43.409a.42.42 0 0 0 .43-.41.42.42 0 0 0-.43-.409zm0 7.364C.964 9 0 8.082 0 6.955c0-1.128.964-2.046 2.148-2.046 1.185 0 2.149.918 2.149 2.046C4.297 8.082 3.333 9 2.148 9zm0-3.273c-.71 0-1.289.55-1.289 1.228 0 .676.579 1.227 1.29 1.227.71 0 1.288-.55 1.288-1.227S2.86 5.727 2.149 5.727zM11 6.545H5.156v.819H11v-.819z" fill="#324056" fill-rule="nonzero"/></svg>