<svg xmlns="http://www.w3.org/2000/svg" viewBox="0 0 512 428">
  <g fill="#7176C4">
    <path d="M488.454 56.61c-12.983 0-23.546 10.563-23.546 23.547 0 12.983 10.563 23.546 23.546 23.546 12.983 0 23.546-10.563 23.546-23.546 0-12.984-10.563-23.546-23.546-23.546zm0 32.063c-4.696 0-8.517-3.82-8.517-8.516 0-4.697 3.82-8.517 8.517-8.517 4.696 0 8.517 3.82 8.517 8.517 0 4.696-3.82 8.516-8.517 8.516zM23.546 329.143C10.563 329.143 0 339.705 0 352.689c0 12.983 10.563 23.546 23.546 23.546 12.983 0 23.546-10.563 23.546-23.546 0-12.984-10.563-23.546-23.546-23.546zm0 32.062c-4.696 0-8.517-3.82-8.517-8.516s3.82-8.517 8.517-8.517c4.696 0 8.517 3.82 8.517 8.517 0 4.696-3.82 8.516-8.517 8.516zM416.814 48.094h15.029V31.562h16.533v-15.03h-16.533V0h-15.029v16.532h-16.532v15.03h16.532zM119.233 360.705h-15.029v16.532H87.671v15.029h16.533v16.532h15.029v-16.532h16.532v-15.029h-16.532zM415.812 64.626h-211.9L171.85 16.532H48.094v303.593h111.718v-15.03H65.233L109.57 127.75h337.198L402.43 305.096h-26.196v15.03h37.929l51.851-207.406h-50.203V64.626zM163.806 31.562l22.043 33.064H63.123V31.562h100.683zm-65.97 81.158L63.123 251.567V79.656h337.66v33.064H97.836z"/>
    <path d="M256 176.845c-39.502 0-71.64 32.138-71.64 71.64s32.138 71.64 71.64 71.64 71.64-32.138 71.64-71.64-32.138-71.64-71.64-71.64zm0 128.25c-31.215 0-56.61-25.395-56.61-56.61s25.395-56.61 56.61-56.61 56.61 25.395 56.61 56.61-25.395 56.61-56.61 56.61z"/>
    <path d="M359.703 248.485c0-57.181-46.521-103.702-103.703-103.702s-103.703 46.52-103.703 103.702c0 57.183 46.521 103.703 103.703 103.703 19.724 0 38.179-5.537 53.893-15.135l90.389 90.389 34.674-34.674-90.389-90.388c9.599-15.717 15.136-34.171 15.136-53.895zm-192.376 0c0-48.894 39.779-88.673 88.673-88.673s88.673 39.779 88.673 88.673c0 48.895-39.779 88.674-88.673 88.674s-88.673-39.78-88.673-88.674zm232.955 157.701l-53.498-53.497 13.42-13.42 53.498 53.498-13.42 13.42zm-50.706-77.544l-13.42 13.42-13.88-13.881c4.87-4.057 9.363-8.55 13.42-13.42l13.88 13.88z"/>
    <path d="M257.103 208.933c-6.504-.298-12.668 2.006-17.364 6.492a23.66 23.66 0 00-7.285 17.029h15.03c0-2.35.936-4.537 2.636-6.16a8.455 8.455 0 016.292-2.347c4.267.197 7.898 3.828 8.095 8.095a8.523 8.523 0 01-3.527 7.323c-7.824 5.657-12.495 15.06-12.495 25.152h15.03c0-5.284 2.344-10.134 6.272-12.974a23.509 23.509 0 009.734-20.191c-.553-12.019-10.4-21.867-22.418-22.419zM248.485 272.532h15.03v16.032h-15.03zM79.656 40.579h16.031v15.03H79.656zM111.718 40.579h16.032v15.03h-16.032zM143.781 40.579h16.031v15.03h-16.031z"/>
  </g>
</svg>