<svg xmlns="http://www.w3.org/2000/svg"><g fill="none" fill-rule="evenodd"><path d="M9.854 51.157a2.822 2.822 0 11-5.644 0 2.822 2.822 0 015.644 0M79.9 2.664a2.164 2.164 0 11-4.328 0 2.164 2.164 0 014.328 0" fill-opacity=".5" fill="#DBDBF3"/><path stroke="#7176C4" stroke-linecap="round" stroke-linejoin="round" d="M.5 57.199h82.874M54.687 63.834h10.861M21.326 63.834h24.253"/><path d="M58.567 31.866v.16c0 3.26-2.649 5.92-5.91 5.92h-21.18v-4.16c0-1.06.861-1.92 1.92-1.92h25.17z" fill="#DDDDF0"/><path d="M65.549 51.66l-3.326-3.027a2.03 2.03 0 00-1.361-.52h-27.51a1.92 1.92 0 01-1.92-1.92V34.906h-1.265c-1.06 0-1.92.86-1.92 1.92v12.24a1.92 1.92 0 001.92 1.92h27.51c.5 0 .98.18 1.36.521l6.02 5.48-.03-3.97a1.987 1.987 0 01.522-1.357" fill="#DDDDF0"/><path d="M54.594 31.866h16.062c1.061 0 1.911.86 1.911 1.92v12.24c0 1.06-.85 1.92-1.91 1.92h-.38c-1.12 0-2.03.91-2.02 2.03l.03 3.97-6.02-5.479a2.032 2.032 0 00-1.36-.52h-27.51a1.92 1.92 0 01-1.92-1.92v-12.24c0-1.06.86-1.92 1.92-1.92" stroke="#7176C4" stroke-linecap="round" stroke-linejoin="round"/><g fill="#D4D4F0"><path d="M35.937 38.745H64.59V36.18H35.937zM35.937 43.363h14.326v-2.565H35.937z"/></g><path d="M51.782 34.339h-28.57c-.468 0-.919.174-1.265.488l-5.632 5.116 1.029-3.709a1.88 1.88 0 00-1.88-1.895h-.358a1.79 1.79 0 01-1.789-1.79V14.571c0-.988.801-1.79 1.789-1.79h36.676c.988 0 1.79.802 1.79 1.79v17.978a1.79 1.79 0 01-1.79 1.79" fill="#E5E5F6"/><path d="M52.656 33.944H23.14c-.501 0-.983.186-1.353.523l-6.029 5.477.031-3.973a2.014 2.014 0 00-2.014-2.027h-.382a1.916 1.916 0 01-1.916-1.917V12.783c0-1.058.858-1.916 1.916-1.916h39.263c1.058 0 1.916.858 1.916 1.916v19.246a1.916 1.916 0 01-1.916 1.916z" stroke="#7176C4" stroke-linecap="round" stroke-linejoin="round"/><path fill="#BABAE6" d="M18.5 21.745h28.653V19.18H18.5z"/><path fill="#C3C3EA" d="M18.5 26.363h14.326v-2.565H18.5z"/><path d="M66.673 7.218l-46.495.179V4.14c0-.835.677-1.512 1.512-1.512l44.983-.179v4.769z" fill="#DBDBF3"/><path d="M18.848 10.41V3.015a2 2 0 012-2h43.927a2 2 0 012 2v26.612" stroke="#7176C4" stroke-linecap="round" stroke-linejoin="round"/><path d="M23.105 4.484a.352.352 0 11-.703-.002.352.352 0 01.703.002zM26.105 4.484a.352.352 0 11-.703-.002.352.352 0 01.703.002zM29.105 4.484a.352.352 0 11-.703-.002.352.352 0 01.703.002z" stroke="#7176C4" stroke-linecap="round" stroke-linejoin="round"/><path stroke="#7176C4" d="M66.673 7.397H18.952"/><path stroke="#7176C4" stroke-linecap="round" stroke-linejoin="round" d="M18.952 40.409v16.79"/><path fill="#DBDBF3" d="M6.715 7.038L3.487 3.81 6.715.582 9.944 3.81z"/></g></svg>