<svg id="Layer_1" data-name="Layer 1" xmlns="http://www.w3.org/2000/svg" viewBox="0 0 50 50"><defs><style>.cls-1{fill-rule:evenodd;}</style></defs><path class="cls-1" d="M37.93,10.82A2.52,2.52,0,0,1,35.3,8.4h0V2.55A2.51,2.51,0,0,1,37.84,0a2.55,2.55,0,0,1,2.72,2.34v6a2.53,2.53,0,0,1-2.63,2.43m-25.61,0A2.53,2.53,0,0,1,9.69,8.39h0V2.55A2.52,2.52,0,0,1,12.19,0,2.57,2.57,0,0,1,15,2.31V8.39a2.53,2.53,0,0,1-2.63,2.43h0"/><path class="cls-1" d="M50,44.49,35.48,31.89a1.57,1.57,0,0,1-.5-1.71c1.92-5.09-1-10.65-6.48-12.43a11.32,11.32,0,0,0-3.33-.54,1.21,1.21,0,0,0-.93,2.09l4.07,3.76c1,.89,1.54,1.78-1.35,4.45l-1.31,1.21C23,31.18,21.8,30.85,20.84,30l-4.11-3.8a1.35,1.35,0,0,0-2.27.85c0,5.39,4.78,9.73,10.6,9.71a11.44,11.44,0,0,0,3.49-.57,1.87,1.87,0,0,1,1.86.46L44.15,50H3.48A3.36,3.36,0,0,1,0,46.78V6.84A3.36,3.36,0,0,1,3.49,3.62H6A1.4,1.4,0,0,1,7.41,5h0V8.34a4.81,4.81,0,0,0,5.73,4.48A4.81,4.81,0,0,0,17.22,8.1V5a1.4,1.4,0,0,1,1.45-1.34H31.58A1.4,1.4,0,0,1,33,5V8.34a4.92,4.92,0,0,0,9.82-.24V5a1.38,1.38,0,0,1,1.44-1.34h2.23A3.36,3.36,0,0,1,50,6.84Z"/></svg>