<svg xmlns="http://www.w3.org/2000/svg" viewBox="0 0 192 192"><defs><style>.cls-1{fill:#334056;}.cls-2{fill:none;}</style></defs><g id="trim_area" data-name="trim area"><path class="cls-1" d="M177.85,80a6,6,0,0,0,6-6V28.15a20,20,0,0,0-20-20H28.13a20,20,0,0,0-20,20L8,164a20,20,0,0,0,20,20H163.85a20,20,0,0,0,20-20V130a6,6,0,0,0-12,0v34a8,8,0,0,1-8,8H88c0-.1,0-.2,0-.3V119.75h26a6,6,0,0,0,0-12H88V60H142a6,6,0,0,0,0-12H82a6,6,0,0,0-6,6V171.7c0,.1,0,.2,0,.3H28.3a8.4,8.4,0,0,1-5.57-2A7.94,7.94,0,0,1,20,164l.06-76H45.9a6,6,0,1,0,0-12H20.09l0-47.86a8,8,0,0,1,8-8H163.85a8,8,0,0,1,8,8V74A6,6,0,0,0,177.85,80Z"/><rect class="cls-2" width="192" height="192"/></g></svg>