<?xml version="1.0" encoding="UTF-8"?>
<svg width="50px" height="50px" viewBox="0 0 50 50" version="1.1" xmlns="http://www.w3.org/2000/svg" xmlns:xlink="http://www.w3.org/1999/xlink">
    <!-- Generator: Sketch 63.1 (92452) - https://sketch.com -->
    <title>calendar_icon</title>
    <desc>Created with Sketch.</desc>
    <g id="calendar_icon" stroke="none" stroke-width="1" fill="none" fill-rule="evenodd">
        <g id="calendar-copy" transform="translate(0.000000, 1.000000)" fill="#FFFFFF">
            <path d="M44.5652174,4 C47.5667649,4 50,6.46243388 50,9.5 L50,42.5 C50,45.5375661 47.5667649,48 44.5652174,48 L5.43478261,48 C2.43323506,48 0,45.5375661 0,42.5 L0,9.5 C0,6.46243388 2.43323506,4 5.43478261,4 L44.5652174,4 Z M44.5652174,7.575 L5.43478261,7.575 C4.43676805,7.575 3.6182692,8.3528213 3.53891435,9.34212007 L3.5326087,9.5 L3.5326087,42.5 C3.5326087,43.5099907 4.30120682,44.3383116 5.27877477,44.4186187 L5.43478261,44.425 L44.5652174,44.425 C45.563232,44.425 46.3817308,43.6471787 46.4610857,42.6578799 L46.4673913,42.5 L46.4673913,9.5 C46.4673913,8.49000926 45.6987932,7.66168843 44.7212252,7.58138132 L44.5652174,7.575 Z" id="Rectangle" fill-rule="nonzero"></path>
            <g id="Group" transform="translate(12.000000, 0.000000)">
                <rect id="Rectangle" x="0" y="18.5454545" width="5.4" height="5.45454545" rx="2.5"></rect>
                <rect id="Rectangle-Copy-7" x="21.6" y="18.5454545" width="5.4" height="5.45454545" rx="2.5"></rect>
                <rect id="Rectangle-Copy-8" x="10.8" y="18.5454545" width="5.4" height="5.45454545" rx="2.5"></rect>
                <rect id="Rectangle-Copy-11" x="0" y="29.4545455" width="5.4" height="5.45454545" rx="2.5"></rect>
                <rect id="Rectangle-Copy-10" x="21.6" y="29.4545455" width="5.4" height="5.45454545" rx="2.5"></rect>
                <rect id="Rectangle-Copy-9" x="10.8" y="29.4545455" width="5.4" height="5.45454545" rx="2.5"></rect>
                <path d="M2.43,0.409090909 C3.34824607,0.409090909 4.10178213,1.12142154 4.1785581,2.02886049 L4.185,2.18181818 L4.185,10.2917892 C4.185,11.2708394 3.39925974,12.0645165 2.43,12.0645165 C1.51175393,12.0645165 0.758217866,11.3521858 0.681441897,10.4447469 L0.675,10.2917892 L0.675,2.18181818 C0.675,1.20276794 1.46074026,0.409090909 2.43,0.409090909 Z" id="Path-7" fill-rule="nonzero"></path>
                <path d="M24.03,0.409090909 C24.9482461,0.409090909 25.7017821,1.12142154 25.7785581,2.02886049 L25.785,2.18181818 L25.785,10.2917892 C25.785,11.2708394 24.9992597,12.0645165 24.03,12.0645165 C23.1117539,12.0645165 22.3582179,11.3521858 22.2814419,10.4447469 L22.275,10.2917892 L22.275,2.18181818 C22.275,1.20276794 23.0607403,0.409090909 24.03,0.409090909 Z" id="Path-7-Copy" fill-rule="nonzero"></path>
            </g>
        </g>
    </g>
</svg>