<svg xmlns="http://www.w3.org/2000/svg" width="52" height="54" viewBox="0 0 52 54">
    <g fill="none" fill-rule="evenodd">
        <path fill="#B9CFFD" fill-rule="nonzero" d="M35.524 4.023c2.341-.334 4.497 1.243 4.905 3.59l.734 4.217c.08.454.357.84.762 1.056l3.753 2.006c2.09 1.117 2.912 3.669 1.873 5.81l-1.865 3.845c-.202.415-.202.89 0 1.306l1.865 3.845c1.04 2.141.216 4.693-1.873 5.81l-3.753 2.006c-.405.217-.682.602-.762 1.057l-.734 4.215c-.408 2.348-2.562 3.925-4.905 3.591l-4.207-.6c-.453-.063-.902.083-1.232.404l-3.053 2.976c-.85.829-1.941 1.243-3.032 1.243-1.09 0-2.182-.414-3.032-1.243l-1.387-1.351 2.156-2.26c.33-.346.779-.504 1.233-.435l4.206.645c2.343.36 4.497-1.339 4.905-3.866l.735-4.539c.079-.49.356-.904.761-1.137l3.753-2.16c2.09-1.202 2.912-3.95 1.874-6.255l-1.866-4.14c-.201-.446-.201-.959 0-1.405l1.866-4.14c1.038-2.305.215-5.053-1.874-6.255l-3.753-2.16c-.405-.233-.682-.648-.762-1.137l-.656-4.06zM9.567 45.545l.442.465c-.47-.221-.895-.526-1.258-.898.305.045.589.195.816.433zM22.05.467c1.162-.59 2.525-.62 3.708-.092L22.97.802c-.373.057-.742-.039-1.045-.266z" transform="translate(2 2)"/>
        <path fill-rule="nonzero" stroke="#438DFF" stroke-width="2.5" d="M45.686 25.853c-.202-.415-.202-.89 0-1.306l1.865-3.845c1.04-2.141.216-4.693-1.873-5.81l-3.753-2.006c-.405-.217-.683-.602-.762-1.056l-.734-4.216c-.408-2.348-2.564-3.925-4.905-3.591l-4.207.6c-.454.064-.903-.083-1.232-.404l-3.053-2.976c-1.7-1.657-4.364-1.657-6.064 0l-3.053 2.976c-.33.321-.779.468-1.232.404l-4.207-.6c-2.342-.334-4.497 1.244-4.905 3.59l-.734 4.217c-.08.454-.357.84-.762 1.056l-3.753 2.006C.232 16.009-.59 18.562.45 20.702l1.865 3.845c.202.415.202.891 0 1.306L.45 29.698c-1.04 2.141-.216 4.693 1.873 5.81l3.753 2.006c.405.217.683.602.762 1.057l.734 4.216c.372 2.136 2.19 3.635 4.28 3.635.206 0 .415-.015.625-.045l4.207-.6c.453-.064.903.083 1.232.404l3.053 2.976c.85.829 1.941 1.243 3.032 1.243 1.09 0 2.182-.414 3.032-1.243l3.053-2.976c.33-.32.779-.467 1.232-.403l4.207.6c2.343.333 4.497-1.244 4.905-3.592l.734-4.215c.08-.455.357-.84.762-1.057l3.753-2.006c2.09-1.117 2.912-3.669 1.873-5.81l-1.865-3.845z" transform="translate(2 2)"/>
        <path stroke="#438DFF" stroke-linecap="round" stroke-width="2.5" d="M32.803 14.798L15.314 35.685" transform="translate(2 2)"/>
        <path stroke="#438DFF" stroke-width="2.5" d="M15.497 14.565c-.98 0-1.868.397-2.51 1.04-.643.642-1.04 1.53-1.04 2.51 0 .98.397 1.868 1.04 2.51.642.642 1.53 1.04 2.51 1.04.98 0 1.868-.398 2.51-1.04.642-.642 1.04-1.53 1.04-2.51 0-.98-.398-1.868-1.04-2.51-.642-.643-1.53-1.04-2.51-1.04zM32.297 28.965c-.98 0-1.868.397-2.51 1.04-.643.642-1.04 1.53-1.04 2.51 0 .98.397 1.868 1.04 2.51.642.642 1.53 1.04 2.51 1.04.98 0 1.868-.398 2.51-1.04.642-.642 1.04-1.53 1.04-2.51 0-.98-.398-1.868-1.04-2.51-.642-.643-1.53-1.04-2.51-1.04z" transform="translate(2 2)"/>
    </g>
</svg>
