<?xml version="1.0" encoding="UTF-8"?>
<svg id="Layer_1" data-name="Layer 1" xmlns="http://www.w3.org/2000/svg" viewBox="0 0 2000 95">
  <defs>
    <style>
      .cls-1 {
        fill: none;
      }

      .cls-2 {
        fill: #e6edef;
      }

      .cls-3 {
        fill: #c2d0d9;
      }

      .cls-4 {
        fill: #7297a5;
      }

      .cls-5 {
        fill: #4a798c;
      }
    </style>
  </defs>
  <rect class="cls-2" width="2000" height="95"/>
  <g>
    <path class="cls-3" d="M1286.6,12.04l-10.8,12.37c-.26,.3-.32,.72-.15,1.08,.17,.36,.53,.59,.92,.58l10.04-.12v-2l-7.83,.1,7.83-8.96v-3.04Z"/>
    <path class="cls-3" d="M1045.26,38.31l-13.2-.59,3.04-12.35c.11-.44-.09-.89-.48-1.11-.39-.22-.89-.15-1.2,.17l-19.85,20.32c-.28,.28-.36,.7-.21,1.07,.14,.37,.49,.61,.89,.63l13.51,.59-2.34,12.63c-.08,.44,.14,.88,.54,1.08,.13,.07,.28,.1,.42,.11,.28,0,.56-.11,.76-.32l18.82-20.55c.26-.29,.34-.7,.19-1.06-.15-.36-.49-.6-.88-.62Zm-17.25,18.3l1.92-10.33c.05-.28-.02-.58-.2-.8-.18-.23-.45-.36-.74-.38l-12.43-.54,15.72-16.09-2.45,9.97c-.07,.29,0,.6,.17,.84,.18,.24,.46,.39,.76,.4l12.28,.55-15.02,16.4Z"/>
    <path class="cls-3" d="M833.1,22.09l-13.21,.15,2.34-12.5c.08-.44-.14-.89-.55-1.08-.41-.2-.89-.1-1.19,.24l-18.68,21.39c-.26,.3-.32,.72-.15,1.08,.17,.36,.53,.59,.92,.58l13.53-.17-1.63,12.74c-.06,.44,.19,.87,.6,1.05,.14,.06,.28,.09,.43,.08,.28,0,.55-.14,.74-.37l17.65-21.57c.25-.3,.3-.72,.13-1.07-.17-.35-.52-.57-.91-.57Zm-16.2,19.23l1.34-10.42c.04-.29-.05-.58-.24-.79-.19-.22-.47-.34-.76-.33l-12.44,.15,14.8-16.95-1.89,10.09c-.06,.29,.02,.6,.22,.83s.48,.36,.78,.36l12.29-.14-14.08,17.21Z"/>
    <path class="cls-3" d="M584.11,24.27l-13.2-.59,3.04-12.35c.11-.44-.09-.89-.49-1.11-.39-.22-.89-.15-1.2,.17l-19.85,20.32c-.28,.28-.36,.7-.21,1.07,.14,.37,.49,.61,.89,.63l13.51,.59-2.34,12.63c-.08,.44,.14,.88,.54,1.08,.13,.07,.28,.1,.42,.11,.28,0,.56-.11,.76-.32l18.82-20.55c.26-.29,.34-.7,.19-1.06-.15-.36-.49-.6-.88-.62Zm-17.25,18.3l1.92-10.33c.05-.28-.02-.58-.2-.8-.18-.23-.45-.36-.74-.38l-12.43-.54,15.72-16.09-2.45,9.97c-.07,.29,0,.6,.17,.84,.18,.24,.46,.39,.76,.4l12.28,.55-15.02,16.4Z"/>
    <path class="cls-3" d="M397.5,59.84l-13.2-.59,3.04-12.35c.11-.44-.09-.89-.49-1.11-.39-.22-.89-.15-1.2,.17l-19.85,20.32c-.28,.28-.36,.7-.21,1.07,.14,.37,.49,.61,.89,.63l13.51,.59-2.34,12.63c-.08,.44,.14,.88,.54,1.08,.13,.07,.28,.1,.42,.11,.28,0,.56-.11,.76-.32l18.82-20.55c.26-.29,.34-.7,.19-1.06-.15-.36-.49-.6-.88-.62Zm-17.25,18.3l1.92-10.33c.05-.28-.02-.58-.2-.8-.18-.23-.45-.36-.74-.38l-12.43-.54,15.72-16.09-2.45,9.97c-.07,.29,0,.6,.17,.84,.18,.24,.46,.39,.76,.4l12.28,.55-15.02,16.4Z"/>
    <path class="cls-3" d="M220.14,16.25l-13.21,.15,2.34-12.5c.08-.44-.14-.89-.55-1.08-.41-.2-.89-.1-1.19,.24l-18.68,21.39c-.26,.3-.32,.72-.15,1.08,.17,.36,.53,.59,.92,.58l13.53-.17-1.63,12.74c-.06,.44,.19,.87,.6,1.05,.14,.06,.28,.09,.43,.08,.28,0,.55-.14,.74-.37l17.65-21.57c.25-.3,.3-.72,.13-1.07-.17-.35-.52-.57-.91-.57Zm-16.2,19.23l1.34-10.42c.04-.29-.05-.58-.24-.79-.19-.22-.47-.34-.76-.33l-12.44,.15,14.8-16.95-1.89,10.09c-.06,.29,.02,.6,.22,.83s.48,.36,.78,.36l12.29-.14-14.08,17.21Z"/>
  </g>
  <g>
    <path class="cls-1" d="M2.43,95H1562.27c.14-.02,.29-.04,.43-.06l-1560.27,.06Z"/>
    <path class="cls-1" d="M270.98,69.94c64.18,.91,107.86,3.1,156.78,4.86,83.1-4.9,159.72-12.07,233.27-14.05,51.12-1.37,109.73,2.51,183.54,4.46,148.05-17.08,258.91-49.3,347.91-62.39,6.65-.98,13.15-1.92,19.51-2.82H0V95H2.43s123.94-27.1,268.55-25.06Z"/>
    <path class="cls-4" d="M687.01,75.9c56.85-1.15,109.19-5.12,157.57-10.7-73.81-1.95-132.42-5.83-183.54-4.46-73.55,1.97-150.17,9.14-233.27,14.05,61.31,2.2,130.84,3.7,259.24,1.11Z"/>
    <path class="cls-4" d="M844.57,65.21c90.93,2.41,204.95,1.89,356.53-14.98C1350.53,33.6,1455.43,14.22,1520.03,0h-308.04c-6.37,.9-12.86,1.84-19.51,2.82-89,13.08-199.86,45.31-347.91,62.39Z"/>
    <path class="cls-4" d="M427.76,74.79c-48.92-1.75-92.6-3.95-156.78-4.86C126.37,67.9,2.43,95,2.43,95c0,0,157.77-14.39,294.03-15.47,45.72-.36,89.34-2.26,131.3-4.74Z"/>
    <path class="cls-5" d="M1600,0h-79.97c-64.6,14.22-169.5,33.6-318.93,50.23-151.58,16.87-265.6,17.38-356.53,14.98-48.38,5.58-100.71,9.55-157.57,10.7-128.4,2.59-197.93,1.09-259.24-1.11-41.97,2.48-85.58,4.38-131.3,4.74C160.2,80.61,2.43,95,2.43,95l1560.27-.06c9.88-1.39,19.82-2.79,29.77-4.18,2.51-.35,5.02-.7,7.53-1.05,63.13-8.83,125.89-17.46,174.67-23.86,101.52-13.31,181.91,5.18,225.33,19.54V0h-400Z"/>
    <path class="cls-4" d="M1562.7,94.94c-.14,.02-.29,.04-.43,.06h30.2v-.06h-29.77Z"/>
    <path class="cls-4" d="M1592.47,90.76c-9.95,1.39-19.89,2.79-29.77,4.18h29.77v-4.18Z"/>
    <path class="cls-4" d="M1774.67,65.85c-48.78,6.39-111.54,15.03-174.67,23.86v5.23h-7.53v.06h407.53v-9.61c-43.42-14.36-123.81-32.85-225.33-19.54Z"/>
    <path class="cls-4" d="M1600,94.94v-5.23c-2.51,.35-5.02,.7-7.53,1.05v4.18h7.53Z"/>
  </g>
</svg>