<svg viewBox="0 0 512 512" xmlns="http://www.w3.org/2000/svg">
  <path d="M493.765 462.51l-90.738-96.427c33.615-40.149 52.033-90.664 52.033-143.252C455.06 99.964 355.565 0 233.274 0 110.984 0 11.49 99.964 11.49 222.831c0 122.868 99.495 222.832 221.785 222.832 45.91 0 89.66-13.913 127.064-40.323l91.731 97.463c5.506 5.745 12.912 8.913 20.848 8.913a28.705 28.705 0 0 0 20.048-8.11c11.494-11.112 11.86-29.539.8-41.097zM233.275 58.13c90.391 0 163.928 73.883 163.928 164.701 0 90.819-73.537 164.702-163.929 164.702S69.346 313.65 69.346 222.83c0-90.818 73.536-164.701 163.928-164.701z" fill="#000" fill-rule="nonzero"/>
</svg>
