<?xml version="1.0" encoding="UTF-8"?>
<svg width="380px" height="271px" viewBox="0 0 380 271" version="1.1" xmlns="http://www.w3.org/2000/svg" xmlns:xlink="http://www.w3.org/1999/xlink">
    <title>CA823FEB-CFD0-4A62-92F5-B3A8BA4620D8</title>
    <g id="1440-Screen" stroke="none" stroke-width="1" fill="none" fill-rule="evenodd">
        <g id="Storeroom/Issues-&amp;-Retuns/Empty-State-2" transform="translate(-718.000000, -419.000000)" fill-rule="nonzero">
            <g id="Group-4" transform="translate(702.000000, 419.000000)">
                <g id="store-room-illustration-revised" transform="translate(16.000000, 0.000000)">
                    <g id="Group" transform="translate(44.830290, 0.000000)">
                        <g transform="translate(37.401985, 228.442816)">
                            <rect id="Rectangle" fill="#EEF9FF" x="0.349015737" y="0.348914746" width="22.6729999" height="41.8202965"></rect>
                            <path d="M23.3684268,42.5155222 L0,42.5155222 L0,0 L23.3684268,0 L23.3684268,42.5155222 Z M0.695426879,41.8202965 L22.6729999,41.8202965 L22.6729999,0.69522565 L0.695426879,0.69522565 L0.695426879,41.8202965 Z" id="Shape" fill="#E1F3F7"></path>
                        </g>
                        <g transform="translate(0.000000, 228.442816)">
                            <rect id="Rectangle" fill="#F6FDFD" x="0.349015737" y="0.348914746" width="37.401985" height="41.8202965"></rect>
                            <path d="M38.0974119,42.5155222 L-1.48054088e-14,42.5155222 L-1.48054088e-14,0 L38.0974119,0 L38.0974119,42.5155222 Z M0.695426879,41.8202965 L37.3993804,41.8202965 L37.3993804,0.69522565 L0.695426879,0.69522565 L0.695426879,41.8202965 Z" id="Shape" fill="#D8F1F4"></path>
                            <polygon id="Path" fill="#EFFAFC" points="37.3863574 41.8593541 0.635521193 41.8593541 0.635521193 15.1699799"></polygon>
                        </g>
                        <g transform="translate(60.074985, 0.000000)">
                            <rect id="Rectangle" fill="#F9FCFD" x="0.349015737" y="29.220308" width="129.482234" height="241.39172"></rect>
                            <path d="M130.180265,270.958339 L-1.48054088e-14,270.958339 L-1.48054088e-14,28.8713933 L130.180265,28.8713933 L130.180265,270.958339 Z M0.698031474,270.263113 L129.484839,270.263113 L129.484839,29.5666189 L0.698031474,29.5666189 L0.698031474,270.263113 Z" id="Shape" fill="#D8F1F4"></path>
                            <rect id="Rectangle" fill="#E8F8F9" x="129.83125" y="29.220308" width="17.7242693" height="155.589938"></rect>
                            <path d="M147.90193,185.156557 L129.482234,185.156557 L129.482234,28.8713933 L147.90193,28.8713933 L147.90193,185.156557 Z M130.177661,184.461332 L147.203899,184.461332 L147.203899,29.5666189 L130.177661,29.5666189 L130.177661,184.461332 L130.177661,184.461332 Z" id="Shape" fill="#E1F3F7"></path>
                            <rect id="Rectangle" fill="#FFFFFF" x="4.93570763" y="33.636423" width="120.069227" height="53.730267"></rect>
                            <path d="M125.351346,87.7156048 L4.58669189,87.7156048 L4.58669189,33.2901121 L125.351346,33.2901121 L125.351346,87.7156048 Z M5.28211877,87.0203791 L124.653315,87.0203791 L124.653315,33.9853378 L5.28211877,33.9853378 L5.28211877,87.0203791 Z" id="Shape" fill="#D8F1F4"></path>
                            <rect id="Rectangle" fill="#FFFFFF" x="4.93570763" y="92.7436225" width="120.069227" height="53.730267"></rect>
                            <path d="M125.351346,146.822804 L4.58669189,146.822804 L4.58669189,92.3973116 L125.351346,92.3973116 L125.351346,146.822804 Z M5.28211877,146.127579 L124.653315,146.127579 L124.653315,93.0925373 L5.28211877,93.0925373 L5.28211877,146.127579 Z" id="Shape" fill="#D8F1F4"></path>
                            <rect id="Rectangle" fill="#FFFFFF" x="4.93570763" y="153.178781" width="120.069227" height="53.730267"></rect>
                            <path d="M125.351346,207.257963 L4.58669189,207.257963 L4.58669189,152.83247 L125.351346,152.83247 L125.351346,207.257963 Z M5.28211877,206.562737 L124.653315,206.562737 L124.653315,153.527696 L5.28211877,153.527696 L5.28211877,206.562737 Z" id="Shape" fill="#D8F1F4"></path>
                            <rect id="Rectangle" fill="#F6FDFD" x="58.6711082" y="0.346310904" width="26.5694741" height="28.8739971"></rect>
                            <path d="M85.5895981,29.5666189 L58.3220924,29.5666189 L58.3220924,-9.25070291e-16 L85.5895981,-9.25070291e-16 L85.5895981,29.5692228 L85.5895981,29.5666189 Z M59.0201239,28.8713933 L84.8941712,28.8713933 L84.8941712,0.69522565 L59.0201239,0.69522565 L59.0201239,28.8713933 Z" id="Shape" fill="#D8F1F4"></path>
                            <rect id="Rectangle" fill="#E8F8F9" x="85.2405823" y="0.346310904" width="16.1068158" height="28.8739971"></rect>
                            <path d="M101.696414,29.5666189 L84.8941712,29.5666189 L84.8941712,-9.25070291e-16 L101.696414,-9.25070291e-16 L101.696414,29.5692228 L101.696414,29.5666189 Z M85.5895981,28.8713933 L101.000987,28.8713933 L101.000987,0.69522565 L85.5895981,0.69522565 L85.5895981,28.8713933 Z" id="Shape" fill="#D8F1F4"></path>
                            <polygon id="Path" fill="#EFFAFC" points="84.8811482 28.8661856 59.0227285 28.8661856 59.0227285 9.89720111"></polygon>
                            <rect id="Rectangle" fill="#F6FDFD" x="16.2474639" y="56.3992044" width="28.2312058" height="30.9674856"></rect>
                            <path d="M44.8250809,87.7156048 L15.8984482,87.7156048 L15.8984482,56.0528935 L44.8250809,56.0528935 L44.8250809,87.7156048 Z M16.5938751,87.0203791 L44.1270494,87.0203791 L44.1270494,56.7481192 L16.5938751,56.7481192 L16.5938751,87.0203791 L16.5938751,87.0203791 Z" id="Shape" fill="#D8F1F4"></path>
                            <rect id="Rectangle" fill="#E8F8F9" x="44.4760651" y="56.3992044" width="17.1147941" height="30.9674856"></rect>
                            <path d="M61.939875,87.7156048 L44.129654,87.7156048 L44.129654,56.0528935 L61.939875,56.0528935 L61.939875,87.7156048 Z M44.8250809,87.0203791 L61.2418435,87.0203791 L61.2418435,56.7481192 L44.8250809,56.7481192 L44.8250809,87.0203791 Z" id="Shape" fill="#D8F1F4"></path>
                            <polygon id="Path" fill="#EFFAFC" points="44.1322586 87.0620406 16.6433624 87.0620406 16.6433624 67.043708"></polygon>
                            <rect id="Rectangle" fill="#F6FDFD" x="90.1007567" y="9.45715192" width="18.1878873" height="19.7631561"></rect>
                            <path d="M108.63766,29.5666189 L89.7543456,29.5666189 L89.7543456,9.10823717 L108.63766,9.10823717 L108.63766,29.5666189 Z M90.4497724,28.8713933 L107.939628,28.8713933 L107.939628,9.80346282 L90.4497724,9.80346282 L90.4497724,28.8713933 Z" id="Shape" fill="#D8F1F4"></path>
                            <rect id="Rectangle" fill="#E8F8F9" x="108.288644" y="9.45715192" width="11.0252509" height="19.7631561"></rect>
                            <path d="M119.662911,29.5666189 L107.942233,29.5666189 L107.942233,9.10823717 L119.662911,9.10823717 L119.662911,29.5666189 Z M108.63766,28.8713933 L118.967484,28.8713933 L118.967484,9.80346282 L108.63766,9.80346282 L108.63766,28.8713933 Z" id="Shape" fill="#D8F1F4"></path>
                            <polygon id="Path" fill="#EFFAFC" points="107.908373 28.8661856 90.4810276 28.8661856 90.4810276 15.940717"></polygon>
                            <rect id="Rectangle" fill="#F6FDFD" x="5.06593738" y="110.673674" width="32.9455228" height="35.8002152"></rect>
                            <path d="M38.360476,146.822804 L4.71692164,146.822804 L4.71692164,110.32476 L38.360476,110.32476 L38.360476,146.822804 Z M5.41495312,146.127579 L37.6650491,146.127579 L37.6650491,111.022589 L5.41495312,111.022589 L5.41495312,146.127579 L5.41495312,146.127579 Z" id="Shape" fill="#D8F1F4"></path>
                            <rect id="Rectangle" fill="#E8F8F9" x="38.0114602" y="110.673674" width="19.9720349" height="35.8002152"></rect>
                            <path d="M58.3299062,146.822804 L37.6624445,146.822804 L37.6624445,110.32476 L58.3299062,110.32476 L58.3299062,146.822804 Z M38.3578714,146.127579 L57.6318748,146.127579 L57.6318748,111.022589 L38.3578714,111.022589 L38.3578714,146.127579 Z" id="Shape" fill="#D8F1F4"></path>
                            <polygon id="Path" fill="#EFFAFC" points="37.594725 146.145806 5.40713933 146.145806 5.40713933 122.72946"></polygon>
                            <rect id="Rectangle" fill="#F6FDFD" x="38.0114602" y="121.969138" width="22.550584" height="24.5047513"></rect>
                            <path d="M60.9110599,146.822804 L37.6650491,146.822804 L37.6650491,121.622827 L60.9110599,121.622827 L60.9110599,146.822804 Z M38.360476,146.127579 L60.2156331,146.127579 L60.2156331,122.318053 L38.360476,122.318053 L38.360476,146.127579 Z" id="Shape" fill="#D8F1F4"></path>
                            <rect id="Rectangle" fill="#E8F8F9" x="60.5620442" y="121.969138" width="13.6715194" height="24.5047513"></rect>
                            <path d="M74.5799748,146.822804 L60.2130285,146.822804 L60.2130285,121.622827 L74.5799748,121.622827 L74.5799748,146.822804 Z M60.9084553,146.127579 L73.8819433,146.127579 L73.8819433,122.318053 L60.9084553,122.318053 L60.9084553,146.127579 L60.9084553,146.127579 Z" id="Shape" fill="#D8F1F4"></path>
                            <polygon id="Path" fill="#EFFAFC" points="60.2052147 146.145806 38.3656851 146.145806 38.3656851 130.119162"></polygon>
                            <rect id="Rectangle" fill="#F6FDFD" x="59.7910841" y="46.7181222" width="37.0581784" height="40.6511717"></rect>
                            <path d="M97.1956736,87.7156048 L59.4420683,87.7156048 L59.4420683,46.3692074 L97.1956736,46.3692074 L97.1956736,87.7156048 Z M60.1374952,87.0203791 L96.4976422,87.0203791 L96.4976422,47.0644331 L60.1374952,47.0644331 L60.1374952,87.0203791 Z" id="Shape" fill="#D8F1F4"></path>
                            <rect id="Rectangle" fill="#E8F8F9" x="96.8492625" y="46.7181222" width="22.4646323" height="40.6511717"></rect>
                            <path d="M119.662911,87.7156048 L96.5002468,87.7156048 L96.5002468,46.3692074 L119.662911,46.3692074 L119.662911,87.7156048 Z M97.1982782,87.0203791 L118.967484,87.0203791 L118.967484,47.0644331 L97.1982782,47.0644331 L97.1982782,87.0203791 Z" id="Shape" fill="#D8F1F4"></path>
                            <polygon id="Path" fill="#EFFAFC" points="96.5106651 87.022983 60.1557274 87.022983 60.1557274 61.1720457"></polygon>
                        </g>
                    </g>
                    <g id="Group" transform="translate(186.112454, 113.354306)">
                        <polygon id="Path" fill="#EFF8F9" points="47.4676305 63.9074037 47.4676305 85.7874829 9.25301183 85.7874829 9.25301183 68.2323843"></polygon>
                        <path d="M47.8166462,86.1363977 L8.90660068,86.1363977 L8.90660068,67.9199233 L47.8166462,63.5168275 L47.8166462,86.1337938 L47.8166462,86.1363977 Z M9.60202756,85.441172 L47.1186147,85.441172 L47.1186147,64.2979799 L9.60202756,68.5422414 L9.60202756,85.441172 L9.60202756,85.441172 Z" id="Shape" fill="#B1E2EA"></path>
                        <path d="M39.0652068,86.4670855 C38.8724668,86.4670855 38.7161911,86.310855 38.7161911,86.1181708 L38.7161911,69.1463326 C38.7161911,68.9536483 38.8724668,68.7974179 39.0652068,68.7974179 C39.2579468,68.7974179 39.4142226,68.9536483 39.4142226,69.1463326 L39.4142226,86.1181708 C39.4142226,86.310855 39.2579468,86.4670855 39.0652068,86.4670855 L39.0652068,86.4670855 Z" id="Path" fill="#B1E2EA"></path>
                        <path d="M39.7241694,37.2622948 C33.6346261,25.6153123 27.0163501,22.9698095 19.4265601,23.321328 C11.8367701,23.6754505 2.17372247,30.8255989 5.39300195,44.8498886 C5.39300195,44.8498886 5.4242571,44.8785309 5.46593062,44.9201924 C5.50239495,45.2560879 5.65606606,46.7689197 5.67429822,47.6776604 C5.69513498,48.7035739 5.67429822,49.6982413 5.67429822,49.6982413 C5.67429822,49.6982413 6.43223538,54.1898677 8.77897553,55.9552721 C8.77116174,56.3067907 8.76855714,56.6557055 8.74511579,57.025451 C8.21638299,65.8472656 6.56767432,70.1722461 6.56767432,70.1722461 C6.56767432,70.1722461 24.8962097,72.112108 34.9577604,70.1722461 C45.0193111,68.2323843 48.9027623,64.6130448 48.9027623,64.6130448 C48.9027623,64.6130448 45.8137126,48.9092774 39.7241694,37.2622948 L39.7241694,37.2622948 Z" id="Path" fill="#FFFFFF"></path>
                        <path d="M23.151131,71.3778247 C14.7773579,71.3778247 6.65362596,70.5315762 6.53120999,70.5211609 L6.08321964,70.4742917 L6.24470454,70.0524694 C6.26033211,70.0082041 7.88299483,65.6623928 8.40130924,57.0098279 C8.41954141,56.7051785 8.4247506,56.4161521 8.42995979,56.1271257 C6.10926559,54.2367368 5.36435141,49.9482101 5.33309627,49.7607335 L5.32788708,49.7294874 L5.32788708,49.6956375 C5.32788708,49.6956375 5.34872384,48.6983662 5.32788708,47.6906796 C5.31225951,46.8782811 5.18463435,45.565945 5.13514704,45.089442 L5.08045055,45.0373652 L5.05700919,44.9332116 C3.27546618,37.1789719 5.50760414,32.1223119 7.69285939,29.2424634 C10.4693577,25.5866701 14.9596796,23.1859283 19.4109325,22.9802248 C25.8026088,22.6807831 33.2491461,24.1311227 40.0341162,37.1060643 L40.0341162,37.1060643 C46.0767767,48.6645163 49.2153137,64.3943221 49.2465689,64.5505526 L49.2830332,64.740633 L49.1423851,64.8734289 C48.9809002,65.0244517 45.071403,68.581299 35.0280845,70.518557 C31.673366,71.1669135 27.383598,71.3804285 23.1563402,71.3804285 L23.151131,71.3778247 Z M7.03910603,69.8702005 C9.87811464,70.1462077 25.8547007,71.5757166 34.8900409,69.8311429 C43.6935722,68.1334383 47.7332992,65.1260015 48.5172823,64.4828527 C48.1344068,62.6263138 45.0401479,48.1880133 39.411618,37.423733 L39.411618,37.423733 C32.8089695,24.7924984 25.6124734,23.3812164 19.4395831,23.6702428 C15.188884,23.8681347 10.8965113,26.162119 8.24242894,29.659078 C6.15614831,32.4061306 4.02819415,37.2362564 5.70815796,44.6702236 L5.79931878,44.7587542 L5.81234176,44.8837386 C5.8435969,45.1857842 6.0024772,46.7402775 6.02070936,47.6724527 C6.03894153,48.586401 6.02331396,49.4847263 6.02070936,49.6722029 C6.09363802,50.0627791 6.87501654,54.0935256 8.98734313,55.679265 L9.13059586,55.7860225 L9.12278207,56.1323334 C9.11757288,56.4317751 9.1097591,56.7312169 9.09152693,57.0488855 C8.65135037,64.3760952 7.45844583,68.5786952 7.03910603,69.8702005 L7.03910603,69.8702005 Z" id="Shape" fill="#B1E2EA"></path>
                        <path d="M4.76268995,11.4946805 C4.76268995,11.4946805 4.13498254,19.1968433 9.87030085,22.5922525 C15.6056192,25.9902655 21.916553,20.4753294 21.8722749,16.8585937 C23.5939122,16.9471243 27.4643404,14.7182361 26.3079002,11.7081955 C25.1488554,8.69815482 21.7733002,9.69021839 20.1532421,11.0806697 C19.0931719,11.3670922 18.1763545,10.0938138 14.5142938,9.38817279 C11.0944605,8.72940092 9.39886915,9.88811033 9.39886915,9.88811033 C9.39886915,9.88811033 7.55481585,10.8333048 4.76529455,11.4946805 L4.76268995,11.4946805 Z" id="Path" fill="#FFFFFF"></path>
                        <path d="M13.6808234,23.9983268 C12.2977834,23.9983268 10.9407894,23.6311852 9.69579298,22.8916942 C3.83284952,19.4207737 4.41106962,11.5207189 4.4188834,11.4556228 L4.44492936,11.2108618 L4.6845521,11.1535772 C7.3177977,10.5286553 9.1071545,9.69282223 9.12538667,9.66938766 L9.34938184,9.38556895 L9.62546892,9.62251851 C9.62546892,9.62251851 11.3236649,8.41693995 14.5794087,9.04446572 C17.5720884,9.61991467 18.5097426,11.2525232 19.5020934,10.9192315 C19.6766012,10.861947 19.8354815,10.8072663 19.986548,10.763001 C21.0622458,9.86988344 22.8880669,9.10435408 24.4325918,9.49753413 C25.4483839,9.75271058 26.2089256,10.4739746 26.6360792,11.5832111 C27.0710466,12.7106744 26.9043525,13.8537608 26.1542291,14.884882 C25.1879244,16.2154449 23.4350319,17.0955433 22.2108722,17.1970931 C22.0441781,19.1395588 20.3303546,21.4387507 17.9966374,22.7875406 C16.6031791,23.5921276 15.1289783,23.995723 13.683428,23.995723 L13.6808234,23.9983268 Z M5.09347352,11.7706877 C5.04398622,12.9346048 5.19244814,19.4181698 10.0474133,22.2954145 C13.2328331,24.1805957 16.1734209,23.0375093 17.6450171,22.188657 C19.9136194,20.876321 21.5467005,18.6370174 21.5258637,16.8638014 L21.5206545,16.4940559 L21.890507,16.5122828 C22.7760693,16.5669635 24.6227272,15.8066418 25.5864274,14.4786827 C26.1985072,13.6350381 26.3313416,12.7445243 25.9823259,11.8357837 C25.6359147,10.9348546 25.05509,10.3776325 24.2580839,10.1745329 C22.9219267,9.83863735 21.3096823,10.5442784 20.3772373,11.3462615 L20.3173316,11.3983383 L20.2417984,11.4191691 C20.0803135,11.4634344 19.9084102,11.5207189 19.7182748,11.5832111 C18.6582046,11.9399373 17.6163665,10.3437826 14.4439698,9.73187985 C11.8680253,9.23454615 9.98490304,10.6900935 9.45356564,10.3568018 C8.91180987,10.9582891 7.30217013,11.1665965 5.09086893,11.7706877 L5.09347352,11.7706877 Z" id="Shape" fill="#B1E2EA"></path>
                        <path d="M21.0361998,14.2495447 L21.0257815,14.2495447 C20.8330414,14.244337 20.6845795,14.0855026 20.6897887,13.8928184 C20.7080209,13.241858 21.1403837,11.8852567 22.6536534,11.4087537 C24.4612423,10.8359086 25.0446716,11.3983383 25.1436462,11.518115 C25.2660622,11.666534 25.2478301,11.8852567 25.0993681,12.0076372 C24.9509062,12.1300178 24.7321202,12.1117909 24.6097043,11.9633719 C24.6097043,11.9633719 24.6097043,11.9633719 24.6097043,11.9633719 C24.6097043,11.9633719 24.2007828,11.650911 22.8646256,12.0727333 C21.4555397,12.5179901 21.3878202,13.8563646 21.3878202,13.9136491 C21.3800064,14.1011257 21.2263353,14.2495447 21.0388044,14.2495447 L21.0361998,14.2495447 Z" id="Path" fill="#B1E2EA"></path>
                        <path d="M5.34351465,44.8498886 C5.34351465,44.8498886 5.87224744,49.3154766 5.34351465,51.0366158 C4.81478185,52.7577549 1.75438266,52.9400238 1.75438266,52.9400238 C1.75438266,52.9400238 1.92889053,53.4373575 2.00181919,53.8149145 C2.07474786,54.1924715 2.10860759,54.5387824 2.10860759,54.5387824 C2.10860759,54.5387824 4.16102849,55.1949505 5.85922447,55.515223 C7.55742044,55.8354954 8.7399066,56.0151605 8.7399066,56.0151605 C8.7399066,56.0151605 8.8440904,53.8227261 8.40651843,51.4532304 C7.96894646,49.0837347 6.75520517,46.1283748 5.34351465,44.8498886 L5.34351465,44.8498886 Z" id="Path" fill="#FFFFFF"></path>
                        <path d="M9.06808558,56.4187559 L8.6852101,56.3614714 C8.6852101,56.3614714 7.476678,56.1792025 5.791505,55.85893 C4.09070443,55.5360537 2.08256164,54.8981125 1.9992146,54.8720741 L1.78042862,54.8017704 L1.75698726,54.5726324 C1.75698726,54.5726324 1.72312752,54.2367368 1.65540805,53.8800106 C1.58768858,53.5310958 1.42359909,53.0598005 1.4209945,53.0571967 L1.26732339,52.6223552 L1.72833671,52.5937129 C1.75698726,52.5937129 4.55432235,52.4062363 5.00752189,50.9376698 C5.51020873,49.3076651 4.9997081,44.9384192 4.99449891,44.8941539 L4.88510592,43.9723941 L5.57532361,44.597316 C7.08598874,45.9669366 8.31535761,49.0550925 8.74772038,51.3959459 C9.18789695,53.7758569 9.09152693,55.9448568 9.08631774,56.0359912 L9.06808558,56.4213598 L9.06808558,56.4187559 Z M2.42636819,54.2731906 C2.99416991,54.447648 4.5803683,54.9189433 5.92173475,55.1715159 C7.02608305,55.3798232 7.91685456,55.530846 8.39870465,55.6089612 C8.40651843,54.8824895 8.38047248,53.2368617 8.06271189,51.5157226 C7.72932372,49.7138643 6.86720276,47.3521802 5.79410959,45.8862175 C5.91913016,47.3417648 6.05977829,49.8883217 5.67429822,51.1381656 C5.20547111,52.658809 3.13481804,53.1118774 2.21279139,53.2394656 C2.2596741,53.3982999 2.30916141,53.5831726 2.34041655,53.7472147 C2.37948548,53.9451066 2.40553143,54.1325832 2.42376359,54.2731906 L2.42636819,54.2731906 Z" id="Shape" fill="#B1E2EA"></path>
                        <path d="M11.8315609,25.899131 C11.8315609,25.899131 12.3733167,26.4381262 13.6808234,26.8365139 C14.9883301,27.2349017 15.7644995,27.1567864 15.7644995,27.1567864 L14.6497328,30.9401679 C14.6497328,30.9401679 11.0371594,29.5236782 10.1750385,27.1619941 C10.6594932,26.7193411 11.8341655,25.899131 11.8341655,25.899131 L11.8315609,25.899131 Z" id="Path" fill="#DFF2F5"></path>
                        <path d="M14.8763325,31.4010479 L14.5221076,31.2630443 C14.3684365,31.2031559 10.750654,29.7606278 9.8468595,27.279167 L9.76872165,27.0604443 L9.94062492,26.9042138 C10.435498,26.4511454 11.586729,25.6465584 11.6362163,25.6127085 L11.8732344,25.4460626 L12.0789975,25.6491622 C12.094625,25.6647853 12.6077303,26.1412883 13.7850072,26.5006184 C14.9961439,26.8703639 15.7280351,26.8104755 15.7332443,26.8078717 L16.2437449,26.7610025 L14.8789371,31.398444 L14.8763325,31.4010479 Z M10.5917737,27.2583362 C11.3445017,28.9117755 13.5636166,30.0652772 14.4283422,30.4610611 L15.3008815,27.4978896 C14.9180061,27.4744551 14.3293676,27.393736 13.5792442,27.1672018 C12.6728451,26.8911946 12.1050434,26.5448837 11.818538,26.3339725 C11.5164049,26.5500914 10.9616262,26.9510829 10.5917737,27.2583362 L10.5917737,27.2583362 Z" id="Shape" fill="#B1E2EA"></path>
                        <path d="M15.7644995,27.1567864 L17.6632493,30.4246074 C17.6632493,30.4246074 25.1306233,26.3079341 24.9092327,23.7066966 C23.3881492,23.3629895 22.8698348,23.321328 22.4036123,23.2926858 C22.4036123,23.2926858 18.8222941,27.1776171 15.7644995,27.1567864 Z" id="Path" fill="#DFF2F5"></path>
                        <path d="M17.5330195,30.8959026 L15.1576288,26.8052678 L15.7671041,26.8104755 L15.7905454,26.8104755 C18.6529954,26.8104755 22.1145022,23.0973977 22.1483619,23.0583401 L22.2603595,22.9359595 L22.4270536,22.9463749 C22.9479726,22.9802248 23.5001468,23.0323017 24.9873705,23.370801 L25.2348071,23.4280855 L25.2556438,23.6806582 C25.4900574,26.4277108 18.6139264,30.299623 17.8299433,30.7318606 L17.5304149,30.8959026 L17.5330195,30.8959026 Z M16.3479288,27.4692474 L17.7908744,29.9559159 C19.8875734,28.7607527 24.315385,25.8626772 24.5550078,23.9879114 C23.4011722,23.7353388 22.9010899,23.6780543 22.5442604,23.6520159 C21.9321805,24.289957 19.080149,27.1099173 16.3479288,27.4692474 Z" id="Shape" fill="#B1E2EA"></path>
                        <path d="M22.4322628,23.3525741 C22.4322628,23.3525741 20.8460644,23.0323017 17.3793484,23.5869199 C13.9126324,24.1415381 11.8341655,25.8965272 11.8341655,25.8965272 C11.8341655,25.8965272 13.6886372,27.2505247 15.7671041,27.1541826 C17.9289179,27.0552366 20.5178854,25.5345932 22.4322628,23.3499703 L22.4322628,23.3525741 Z" id="Path" fill="#FFFFFF"></path>
                        <path d="M15.5509227,27.5109088 C13.4724558,27.5109088 11.7039358,26.2376304 11.6257979,26.1829497 L11.2663638,25.9225656 L11.6049612,25.636143 C11.6935174,25.5606316 13.7980302,23.8134541 17.3194427,23.2484205 C20.8096001,22.6859907 22.4296582,23.0010556 22.4973777,23.0166786 L23.0860162,23.1364553 L22.6901177,23.5869199 C20.6585336,25.9043387 18.0096604,27.4067552 15.7775224,27.508305 C15.7019892,27.5109088 15.6238513,27.5135127 15.5483181,27.5135127 L15.5509227,27.5109088 Z M12.44885,25.8783003 C13.0843711,26.2480458 14.3736457,26.8651562 15.7488719,26.8104755 C17.6033436,26.7245487 19.8849688,25.4955356 21.7029762,23.6285813 C20.9502482,23.584316 19.5463715,23.5921276 17.4340449,23.9332308 C14.9544704,24.3316185 13.1911595,25.3705512 12.44885,25.8783003 Z" id="Shape" fill="#B1E2EA"></path>
                        <path d="M19.7052518,70.666976 L19.7026472,70.666976 C19.5099071,70.666976 19.356236,70.5081417 19.3588406,70.3154574 C19.3588406,70.1696423 19.4994888,55.6584342 18.7181103,46.8756772 C17.9367317,38.1033356 15.4519481,28.164473 15.4285067,28.0655271 C15.381624,27.8780505 15.4936216,27.6905739 15.6811524,27.6437047 C15.8634741,27.5968356 16.0562141,27.7088008 16.1030968,27.8962774 C16.1291428,27.9952233 18.6269494,37.9887666 19.4109325,46.8157889 C20.1949156,55.6323958 20.0542675,70.1774538 20.0542675,70.3232689 C20.0542675,70.5133493 19.8979918,70.666976 19.7052518,70.666976 Z" id="Path" fill="#B1E2EA"></path>
                        <path d="M9.80258138,38.4340235 L15.8452419,37.8794052 C16.0093314,37.8637822 16.1577933,37.9731435 16.191653,38.1345817 L16.3505333,38.8792803 C16.3922069,39.0693608 16.2567679,39.2542335 16.0614233,39.2698565 L9.99792601,39.7828133 C9.83383652,39.7958325 9.6853746,39.6838673 9.65411946,39.5224292 L9.51607593,38.819392 C9.47961159,38.6319154 9.61244594,38.4522503 9.80518598,38.4340235 L9.80258138,38.4340235 Z" id="Path" fill="#DFF2F5"></path>
                        <path d="M9.96927546,40.131728 C9.65151487,40.131728 9.3728232,39.9077977 9.31031292,39.590129 L9.17226938,38.8870919 C9.13580505,38.6996153 9.18008316,38.506931 9.29208075,38.3533044 C9.40407834,38.1996777 9.57858621,38.1033356 9.76872165,38.0851087 L9.76872165,38.0851087 L15.8087776,37.5304905 C16.1447703,37.5018482 16.4547171,37.7257786 16.5276458,38.0590703 L16.6865261,38.8037689 C16.7281996,38.9912455 16.6865261,39.1891375 16.5693193,39.3453679 C16.4547171,39.5015984 16.2776047,39.5979406 16.0848647,39.6161674 L10.0213674,40.1291242 C10.0031352,40.1291242 9.98490304,40.1291242 9.96406627,40.1291242 L9.96927546,40.131728 Z M9.85206869,38.7803344 L9.99271682,39.4547293 L16.0301682,38.9235456 L15.8478465,38.2074893 L9.85206869,38.7777305 L9.85206869,38.7803344 Z" id="Shape" fill="#B1E2EA"></path>
                        <path d="M19.9605021,37.4575829 L25.8755375,36.9055686 C26.0396269,36.8899455 26.1880889,36.9993069 26.2219486,37.160745 L26.3782243,37.9054437 C26.4172932,38.0955241 26.2818543,38.277793 26.0891143,38.2960199 L20.1532421,38.8063728 C19.9891526,38.819392 19.8380861,38.7074268 19.806831,38.5459886 L19.671392,37.8429515 C19.6349277,37.6554749 19.7677621,37.4758098 19.9605021,37.4601868 L19.9605021,37.4575829 Z" id="Path" fill="#DFF2F5"></path>
                        <path d="M20.1271962,39.1552875 C19.806831,39.1552875 19.5281393,38.9287533 19.4682336,38.6110847 L19.3327947,37.9080475 C19.2963304,37.7205709 19.3406085,37.5278867 19.4552107,37.3768639 C19.5698128,37.2258411 19.7417161,37.1294989 19.929247,37.111272 L25.8442823,36.5592577 C26.1880889,36.5254077 26.4928265,36.7545458 26.5631506,37.0904413 L26.7194263,37.8351399 C26.7584952,38.0226165 26.7168217,38.2205085 26.6022195,38.3741351 C26.4876173,38.5277617 26.3131094,38.6267077 26.1203694,38.6423308 L20.1844973,39.1526837 C20.1662651,39.1526837 20.1454283,39.1552875 20.1271962,39.1552875 L20.1271962,39.1552875 Z M20.012594,37.8038938 L20.1506375,38.4782888 L26.0604637,37.9471051 L25.8807466,37.2336526 L20.012594,37.8038938 L20.012594,37.8038938 Z" id="Shape" fill="#B1E2EA"></path>
                        <path d="M38.6198211,50.2268211 C38.6015889,50.2268211 38.5859613,50.2268211 38.5677292,50.2216134 C38.3775937,50.1929712 38.247364,50.0159099 38.2760145,49.8258295 C38.9193495,45.5763604 38.2812237,40.8243498 38.2760145,40.7774807 C38.2499686,40.5874003 38.3828029,40.4129429 38.5729383,40.3843007 C38.7604692,40.3582622 38.9375817,40.4910582 38.9662322,40.6811386 C38.974046,40.7306116 39.6251947,45.5763604 38.9662322,49.9273793 C38.9401863,50.0992329 38.7917243,50.2242173 38.6224257,50.2242173 L38.6198211,50.2268211 Z" id="Path" fill="#B1E2EA"></path>
                        <path d="M25.7140526,44.0088479 C25.6958204,44.0088479 25.6775882,44.0088479 25.6593561,44.0036402 C25.4692206,43.9723941 25.3389909,43.7953329 25.370246,43.6052525 C25.3780598,43.5557795 26.1750659,38.5459886 26.1750659,35.3146215 C26.1750659,35.1219372 26.3313416,34.9657067 26.5240816,34.9657067 C26.7168217,34.9657067 26.8730974,35.1219372 26.8730974,35.3146215 C26.8730974,38.6032731 26.0682775,43.6651408 26.0604637,43.7146138 C26.0344178,43.8864673 25.8859558,44.0088479 25.7166572,44.0088479 L25.7140526,44.0088479 Z" id="Path" fill="#B1E2EA"></path>
                        <path d="M12.8108887,10.2578558 C12.8108887,10.2578558 7.20059092,12.8773202 3.69220138,11.4191691 C0.183811847,9.95841405 -2.02228016,2.61037366 4.99189432,0.688738715 C8.27368408,-0.0950175423 9.57077242,1.92556337 9.57077242,1.92556337 C9.57077242,1.92556337 11.3497108,-0.537670578 14.2824849,0.779873164 C17.2152589,2.09741691 16.7490364,4.32370129 16.7490364,4.32370129 C16.7490364,4.32370129 20.4006787,2.8707578 21.2888456,5.2116112 C22.1770125,7.55246461 22.3931939,9.56263016 22.3931939,9.56263016 C22.3931939,9.56263016 21.2133123,10.0052832 20.3303546,10.9817237 C19.4447923,11.9581642 19.4031188,13.0465699 19.4031188,13.0465699 C19.4031188,13.0465699 17.7674331,13.9396875 17.5199965,13.0674007 C17.2751646,12.1951138 16.7724777,9.54179943 15.3112999,9.57825321 C13.8501221,9.61470699 12.8108887,10.2604597 12.8108887,10.2604597 L12.8108887,10.2578558 Z" id="Path" fill="#D4EFF3"></path>
                        <path d="M18.1034258,13.8381377 C17.9419409,13.8381377 17.7882698,13.8147031 17.6502263,13.7548148 C17.3975806,13.6480573 17.2230727,13.4475615 17.1449348,13.1715543 C17.1188889,13.0752122 17.0876337,12.9554355 17.053774,12.8200357 C16.8141513,11.8904644 16.3218828,9.96622558 15.3399505,9.96622558 C15.3347413,9.96622558 15.3269275,9.96622558 15.3217183,9.96622558 C13.9933748,9.99747167 13.0296747,10.583336 13.0192563,10.5885437 L12.9775828,10.6093744 C12.7431692,10.7187357 7.16933578,13.2861233 3.54373947,11.7758953 C1.39755314,10.8827777 -0.152180915,8.15134813 0.0119085734,5.55792211 C0.105673995,4.07112868 0.866215751,1.41000278 4.89031511,0.308577873 C7.52095611,-0.321551743 8.98473853,0.719984812 9.5811908,1.32667985 C10.2661993,0.639265729 12.0008596,-0.675674172 14.4439698,0.420543052 C16.0848647,1.15743016 16.7334088,2.18334367 16.9860545,2.9150231 C17.0980521,3.23789943 17.1449348,3.53213351 17.1605624,3.77429076 C17.9263134,3.55296424 19.3275855,3.26914553 20.411097,3.7456485 C21.0023401,4.00603264 21.4216799,4.45128952 21.6560935,5.07100377 C22.5520742,7.43008407 22.7734648,9.43504193 22.7838831,9.51836486 L22.8151383,9.81780662 L22.5312374,9.92456411 C22.5312374,9.92456411 21.4268891,10.3515941 20.6194646,11.239504 C19.8485045,12.0883563 19.793808,13.0491738 19.793808,13.0595891 L19.7833896,13.2783118 L19.5906496,13.3850693 C19.4291647,13.4735999 18.7285286,13.8355339 18.1060304,13.8355339 L18.1034258,13.8381377 Z M15.3425551,9.18507316 C16.9261489,9.18507316 17.4991598,11.4217729 17.8091066,12.6273515 C17.8403617,12.7549397 17.8716169,12.8669049 17.8976628,12.9606432 C17.9132904,13.0179277 17.9341271,13.0257392 17.9523593,13.0361546 C18.1581223,13.1220813 18.6608092,12.9658509 19.0384754,12.7913935 C19.1035903,12.3825904 19.3171671,11.5155112 20.0412445,10.7187357 C20.7158347,9.97664094 21.5388867,9.52357254 21.9660403,9.32047291 C21.8722749,8.69555098 21.5909786,7.10720773 20.9242023,5.34701096 C20.765322,4.92518865 20.4944441,4.63616226 20.0985456,4.46170488 C18.8665722,3.91750203 16.9157305,4.67782372 16.8948937,4.68563524 L16.2203036,4.95383091 L16.3687655,4.24298221 C16.3843931,4.16747081 16.7125721,2.29791269 14.1236046,1.13399559 C11.5268233,-0.0325253491 9.95625249,2.06356697 9.88853302,2.15209757 L9.55254026,2.6129775 L9.24519804,2.13387068 C9.19831533,2.06356697 8.03666593,0.3606547 5.08565974,1.06629572 C2.46283252,1.78495594 0.933935223,3.3993376 0.79328709,5.60999894 C0.650034362,7.85451021 2.02005136,10.2969134 3.84587249,11.0572351 C7.06254738,12.3956096 12.2873651,10.0677754 12.6311716,9.91154491 C12.8056795,9.80999509 13.8579359,9.22152694 15.3034861,9.18507316 C15.3165091,9.18507316 15.3321367,9.18507316 15.3451597,9.18507316 L15.3425551,9.18507316 Z" id="Shape" fill="#B1E2EA"></path>
                    </g>
                    <rect id="Rectangle" fill="#EDF7F8" x="91.5489116" y="184.893569" width="135.902561" height="85.7575161"></rect>
                    <path d="M227.800488,270.997396 L91.1998958,270.997396 L91.1998958,184.544654 L227.800488,184.544654 L227.800488,270.997396 Z M91.8979273,270.302171 L227.105061,270.302171 L227.105061,185.23988 L91.8979273,185.23988 L91.8979273,270.302171 Z" id="Shape" fill="#3AAFBF"></path>
                    <polygon id="Path" fill="#D4EFF3" points="227.451472 184.810246 265.616604 184.810246 265.616604 222.836746 241.597028 222.909653 241.487635 270.612028 227.451472 270.567762"></polygon>
                    <path d="M241.834046,270.960942 L227.102457,270.914073 L227.102457,184.461332 L265.963015,184.461332 L265.963015,223.183057 L241.940835,223.255964 L241.831442,270.960942 L241.834046,270.960942 Z M227.800488,270.221451 L241.141224,270.263113 L241.250617,222.563343 L265.270192,222.490435 L265.270192,185.159161 L227.800488,185.159161 L227.800488,270.221451 Z" id="Shape" fill="#B1E2EA"></path>
                    <rect id="Rectangle" fill="#EDF7F8" x="85.1337939" y="184.810246" width="142.320283" height="7.19180991"></rect>
                    <path d="M227.800488,192.348367 L84.7847782,192.348367 L84.7847782,184.461332 L227.800488,184.461332 L227.800488,192.348367 L227.800488,192.348367 Z M85.4802051,191.653141 L227.105061,191.653141 L227.105061,185.159161 L85.4802051,185.159161 L85.4802051,191.653141 Z" id="Shape" fill="#B1E2EA"></path>
                    <rect id="Rectangle" fill="#D4EFF3" transform="translate(249.339187, 188.403547) rotate(180.000000) translate(-249.339187, -188.403547) " x="227.454077" y="184.807642" width="43.7702199" height="7.19180991"></rect>
                    <path d="M271.570708,192.348367 L227.105061,192.348367 L227.105061,184.461332 L271.570708,184.461332 L271.570708,192.348367 Z M227.800488,191.653141 L270.872676,191.653141 L270.872676,185.159161 L227.800488,185.159161 L227.800488,191.653141 L227.800488,191.653141 Z" id="Shape" fill="#B1E2EA"></path>
                    <g id="Group" transform="translate(34.161869, 118.986044)">
                        <path d="M7.57937161,121.343308 L0.455804134,126.105734 L14.1585787,151.404657 C14.1585787,151.404657 17.4924604,149.243469 16.8986127,143.944651 C16.304765,138.648438 19.3677688,136.398719 19.3677688,136.398719 L12.4890333,121.796377 L7.57937161,121.338101 L7.57937161,121.343308 Z" id="Path" fill="#D7F3F1"></path>
                        <path d="M14.0335582,151.901991 L13.8538411,151.571303 L-7.40270438e-15,125.993769 L7.49081538,120.983978 L12.7234468,121.470896 L19.81055,136.510684 L19.578741,136.679934 C19.4615342,136.768465 16.6876405,138.890595 17.250233,143.905594 C17.8623129,149.355434 14.4971761,151.602549 14.3539233,151.696287 L14.0387673,151.901991 L14.0335582,151.901991 Z M0.914212864,126.217699 L14.2731809,150.881285 C15.0519548,150.217305 17.0184241,148.108194 16.5574108,143.986313 C16.0364917,139.338456 18.2165378,136.961149 18.9432198,136.307585 L12.2624335,122.129668 L7.67313703,121.702638 L0.916817459,126.220303 L0.914212864,126.217699 Z" id="Shape" fill="#B1E2EA"></path>
                        <path d="M47.8828755,140.437277 L47.8464111,151.571303 L76.3693316,151.662437 C76.3693316,151.662437 77.6039096,147.592633 72.655179,145.337707 C67.7038438,143.080176 66.0785765,142.158416 65.6071448,140.885138 C65.1357131,139.611859 59.0279377,138.437527 59.0279377,138.437527 L48.2292866,138.742176 L47.8854801,140.437277 L47.8828755,140.437277 Z" id="Path" fill="#DFF2F5"></path>
                        <path d="M76.6271865,152.011352 L47.4973954,151.917614 L47.5416735,140.366973 L47.9427812,138.401073 L59.0565883,138.088612 L59.0930526,138.096424 C65.091435,139.249925 65.844163,140.523204 65.9327192,140.765361 C66.3624774,141.924071 68.024209,142.84583 72.7984318,145.022642 C77.9659483,147.379118 76.7157427,151.722326 76.7027197,151.766591 L76.6271865,152.013956 L76.6271865,152.011352 Z M48.1954269,151.222388 L76.0932445,151.313523 C76.257334,150.433424 76.4787246,147.462441 72.5093217,145.652771 C67.4538027,143.348372 65.7972803,142.405781 65.2789658,141.004915 C65.0315293,140.335727 61.8330866,139.333248 58.9966826,138.783838 L48.5131875,139.080676 L48.2292866,140.471127 L48.1954269,151.222388 L48.1954269,151.222388 Z" id="Shape" fill="#B1E2EA"></path>
                        <path d="M31.6640621,74.1851369 C31.6640621,74.1851369 32.5131601,83.7099887 25.264572,99.0309914 C18.015984,114.351994 6.99333772,120.562156 6.99333772,120.562156 L20.2455174,138.257862 C20.2455174,138.257862 33.6956462,128.118504 40.7436804,115.919507 C46.4842079,106.287897 46.4920217,103.447106 46.4920217,103.447106 L46.3722103,140.090966 L65.6019356,140.153458 L65.8415584,65.8528445 L34.1957285,65.7512946 L31.6588529,74.1903446 L31.6640621,74.1851369 Z" id="Path" fill="#FFFFFF"></path>
                        <path d="M65.953556,140.497165 L46.0284038,140.432069 L46.1404014,106.082194 C45.4215331,108.019452 43.9733783,111.183119 41.0484181,116.09136 C34.0472665,128.207034 20.5945331,138.427112 20.4590941,138.528661 L20.1804025,138.739573 L6.48023249,120.447587 L6.82664364,120.252299 C6.85268959,120.236676 9.60314196,118.669163 13.1948785,115.263339 C16.5079235,112.123106 21.2378681,106.73055 24.9520206,98.8747609 C32.0677743,83.8349731 31.3280693,74.3023098 31.3202555,74.2085715 L31.3150463,74.1408716 L31.3332785,74.0757756 L33.9430827,65.3893607 L66.1983879,65.4935143 L66.1983879,65.8398253 C66.1983879,65.8398253 65.9561606,140.489354 65.9561606,140.489354 L65.953556,140.497165 Z M46.7264353,139.739448 L65.2607337,139.799336 L65.5003564,66.1939477 L34.4613972,66.0923979 L32.018287,74.2215907 C32.0755881,75.1277275 32.4636728,84.6291447 25.579728,99.1768065 C21.8134836,107.139353 17.0132149,112.60742 13.6506827,115.791918 C10.6970719,118.588444 8.35293634,120.135126 7.50383835,120.661102 L20.3132368,137.763132 C22.2666831,136.237281 34.0681033,126.774921 40.444152,115.742445 C46.0179854,106.392051 46.843642,103.447106 46.4946263,103.441899 L46.843642,103.441899 C46.843642,103.441899 46.7264353,139.739448 46.7264353,139.739448 L46.7264353,139.739448 Z" id="Shape" fill="#B1E2EA"></path>
                        <path d="M64.7971158,51.5082823 C64.7971158,51.5082823 66.7062839,55.0234681 73.9600812,56.9346877 C83.750754,59.5150945 93.2210616,52.0733158 93.2210616,52.0733158 C93.2210616,52.0733158 88.5562318,44.5508181 86.548089,42.3427606 C82.7974722,46.0870845 74.3038877,40.6476598 70.0662115,33.1043313 C65.83114,25.5610028 55.3372265,22.4051471 55.3372265,22.4051471 L45.4788342,21.5354641 C45.4788342,21.5354641 41.2333443,23.0378805 36.3028459,25.7380641 C31.3723474,28.4382476 22.524538,40.267499 22.2171958,51.3103903 C21.9098536,62.3532816 30.4972035,66.9985347 30.4972035,66.9985347 L29.6559193,74.7814166 L66.6463782,74.6902821 C66.6463782,74.6902821 66.8260953,69.1414961 66.5500082,67.4828492 C66.5057301,67.222465 66.2192247,66.9803078 65.7634205,66.7537736 L66.1749465,66.3918396 C66.1749465,66.3918396 65.9196962,61.5018255 65.3050118,55.4348751 C64.6903274,49.3679246 64.7945112,51.5108861 64.7945112,51.5108861 L64.7971158,51.5082823 Z" id="Path" fill="#DFF2F5"></path>
                        <path d="M29.2704392,75.1277275 L30.127351,67.1808036 C28.8094259,66.3710089 21.5868838,61.4627679 21.8707847,51.2999749 C22.1885453,39.9263958 31.2890004,28.086729 36.1387564,25.4308108 C41.0353951,22.7488541 45.3225585,21.2203993 45.3668367,21.2047762 L45.4371607,21.1787378 L55.4414103,22.0692515 C55.8763777,22.1994436 66.1176454,25.3526955 70.3735538,32.9324778 C73.3323737,38.2026528 78.5884466,42.5927294 82.5995229,43.1473476 C84.1466524,43.3608626 85.3916488,43.0067401 86.3058617,42.0953956 L86.5637166,41.8376154 L86.8085486,42.1084149 C88.8140867,44.3138685 93.32785,51.5811898 93.5179854,51.8884431 L93.6820749,52.1540349 L93.437243,52.3467192 C93.340873,52.4222306 83.7194988,59.8640093 73.8715249,57.2705832 C69.0686516,56.0051163 66.1072271,54.057443 64.9299501,52.8232222 C65.0002742,53.4611633 65.1643637,54.2631464 65.2763612,55.3645714 C65.8832319,61.3716334 66.5213577,66.3189321 66.5239623,66.3684051 L66.5317761,66.5376547 L66.3546636,66.6938852 C66.6724242,66.9178156 66.8495367,67.157369 66.8938148,67.4229608 C67.1725064,69.094627 67.0006032,74.4715594 66.9927894,74.6980936 L66.982371,75.0339892 L29.2678346,75.1277275 L29.2704392,75.1277275 Z M45.5283215,21.8869826 C44.9553106,22.09529 40.978094,23.5742719 36.4747491,26.0427135 C31.7474091,28.6309318 22.878763,40.1919876 22.5688161,51.3182018 C22.2692877,62.0225938 30.5831551,66.6444122 30.6665022,66.6886775 L30.8722652,66.8006427 L30.0492131,74.429898 L66.3129901,74.3387635 C66.3468498,73.1149581 66.4406152,68.9097542 66.2114109,67.534926 C66.2088063,67.5166991 66.1645282,67.3344302 65.612354,67.0610269 L65.1487361,66.829285 L65.8233262,66.2356091 C65.7712343,65.3242647 65.1305039,60.7987883 64.5887481,55.4322712 C64.3777759,53.3491981 64.1772221,52.3284923 64.1095027,51.792101 C64.0704337,51.7296088 64.049597,51.6905512 64.0417832,51.677532 L64.0053189,51.6072282 L64.0001097,51.529113 C63.9818775,51.167179 63.9662499,50.823472 64.325684,50.7974336 C64.5470746,50.7792067 64.6486538,50.7713951 64.7736744,51.529113 C65.2867796,52.2633963 68.0059769,55.0026374 74.0564512,56.5961883 C82.695893,58.8719457 91.2103142,53.1096447 92.7626528,51.9821814 C91.94481,50.675053 88.3660964,45.0012826 86.5298569,42.8374904 C85.4932281,43.7123811 84.1127927,44.0560882 82.5109667,43.8347617 C78.2342216,43.2436897 72.8791742,38.8015363 69.7718923,33.2709772 C65.7712343,26.1468672 55.925865,22.9493499 55.2799254,22.7436465 L45.5335307,21.8843788 L45.5283215,21.8869826 Z" id="Shape" fill="#B1E2EA"></path>
                        <g transform="translate(44.861545, 17.955182)">
                            <path d="M10.1813621,1.92163494 L10.1735483,4.60359157 C10.1735483,4.60359157 8.60558206,6.76998761 5.14147064,6.7257223 C1.67735921,6.681457 0.362038713,3.80421227 0.362038713,3.80421227 L0.992350716,0.606695043 L5.94108132,0.346310904 L9.98080825,0.913948327 L10.1813621,1.92163494 L10.1813621,1.92163494 Z" id="Path" fill="#FFFFFF"></path>
                            <path d="M5.24825903,7.07463705 C5.2117947,7.07463705 5.17272578,7.07463705 5.13626145,7.07463705 C1.49503756,7.0277679 0.104183802,4.07501177 0.046882711,3.95002738 L1.48054088e-14,3.84847757 L0.703240665,0.276007187 L5.95670889,-2.96022493e-14 L10.2725229,0.606695043 L10.5277732,1.92684263 L10.5173548,4.72076443 L10.45224,4.81189888 C10.3845205,4.90563717 8.76967155,7.07984473 5.24565444,7.07984473 L5.24825903,7.07463705 Z M0.72668202,3.75473928 C0.98453693,4.24165762 2.2633931,6.34035378 5.14407523,6.3794114 C8.02215277,6.40544981 9.50156276,4.86918339 9.82453254,4.48381487 L9.83234633,1.95808872 L9.68648901,1.22640929 L5.92545375,0.697829492 L1.28146077,0.942590582 L0.72668202,3.75734312 L0.72668202,3.75473928 Z" id="Shape" fill="#B1E2EA"></path>
                        </g>
                        <g transform="translate(39.433723, 7.394830)">
                            <path d="M17.8803915,0.97821596 C17.8803915,0.97821596 19.5759828,3.49613058 19.2399901,7.67529601 C18.9039973,11.8544614 15.6091846,15.6065969 12.3247902,15.3462127 C9.03779126,15.0858286 6.30817564,11.7086463 6.30817564,11.7086463 C6.30817564,11.7086463 3.1149421,13.3985394 1.11982229,10.8806248 C-1.06543296,8.12315673 1.77878484,4.81888201 4.98764595,5.69637655 C6.23524698,5.69898039 6.12845858,2.71497817 7.90218781,1.92341038 C9.67591705,1.1318426 17.1380819,-0.615334968 17.8803915,0.975612119 L17.8803915,0.97821596 Z" id="Path" fill="#FFFFFF"></path>
                            <path d="M12.6503646,15.7081467 C12.5331578,15.7081467 12.415951,15.702939 12.2987443,15.6951275 C9.34513347,15.4607818 6.88379115,12.895998 6.21441022,12.1356763 C5.37312602,12.4871949 2.65392878,13.3777086 0.848944408,11.0993474 C-0.177266043,9.80523826 -0.278845251,8.26116032 0.575461927,6.96705115 C1.51572074,5.54535375 3.29986835,4.89960109 5.02931947,5.35006565 C5.35228926,5.31621571 5.57107524,4.83971274 5.89144043,4.07157953 C6.26129293,3.18366961 6.71970166,2.07703703 7.76414428,1.61094942 C9.11071992,1.0120659 17.1901738,-1.15953782 18.1877337,0.806362429 C18.3674507,1.08236962 19.9197894,3.6106996 19.5916104,7.70393826 C19.2451993,12.0080881 15.9894555,15.7081467 12.6529692,15.7081467 L12.6503646,15.7081467 Z M6.39933647,11.2685971 L6.57905353,11.4899236 C6.60509948,11.5237736 9.25918184,14.7551407 12.3534408,14.9999018 C15.3825848,15.2472668 18.5706092,11.6669849 18.8935789,7.64665375 C19.2165487,3.63673802 17.6095136,1.19693864 17.5912814,1.17090022 L17.5652355,1.12403108 C17.0130613,-0.0581129118 10.0145144,1.36618833 8.04544054,2.24368287 C7.25364365,2.5978053 6.87076817,3.52216899 6.53217082,4.33717135 C6.16752751,5.21726974 5.82372096,6.04789514 4.99025054,6.04789514 L4.98764595,6.04789514 L4.89648512,6.03487593 C3.21652131,5.57399601 1.80743539,6.36295995 1.15628662,7.34981583 C0.476487315,8.38093702 0.565043547,9.62036552 1.39330477,10.6671098 C3.18787077,12.9324518 6.11543561,11.4196199 6.14669075,11.4039969 L6.39933647,11.271201 L6.39933647,11.2685971 Z" id="Shape" fill="#B1E2EA"></path>
                        </g>
                        <path d="M44.34844,15.1456373 C44.226024,15.1612603 44.1010035,15.1248066 44.0124472,15.0388798 C44.0020288,15.0310683 43.6790591,14.7316265 43.1425125,14.6665305 C42.7570324,14.6196613 42.2699731,15.0597105 42.1136974,15.2315641 C42.006909,15.3539446 41.8219828,15.4008138 41.6631025,15.3435292 L41.6631025,15.3435292 C41.6292427,15.33051 41.5979876,15.314887 41.5667325,15.2940563 C41.4000384,15.1716757 41.376597,14.9503492 41.512036,14.7967225 C41.5979876,14.7003804 42.3767615,13.854132 43.267533,13.9660971 C44.1062126,14.0702508 44.5750398,14.5363384 44.5932719,14.5571691 C44.7339201,14.6951727 44.7208971,14.9217069 44.5620168,15.0545028 C44.4995065,15.1065797 44.4239732,15.1378258 44.34844,15.1482411 L44.34844,15.1456373 Z" id="Shape" fill="#B1E2EA"></path>
                        <g transform="translate(41.596992, 2.249677)">
                            <path d="M0.920417373,10.7790377 C0.920417373,10.7790377 1.33454799,10.6931109 1.58198452,10.6931109 C1.82942105,10.6931109 2.10029893,10.7061301 2.20708733,10.7217532 C2.30345735,10.7373762 3.00148882,10.8389261 3.49375729,11.052441 C3.50678026,11.0576487 3.51719864,11.0628564 3.53022162,11.0680641 C3.56668595,11.0836871 3.60054568,11.101914 3.63440542,11.1175371 C4.17616119,11.3883366 4.61894235,11.857028 4.84033293,12.4663269 C4.89502943,12.6173497 5.05651432,12.695465 5.21018543,12.6485958 L5.99416854,12.4012309 C6.18951317,12.3387387 6.30671994,12.1382429 6.26244183,11.9377471 L5.92644907,10.4275191 C5.71547687,9.47972085 6.29890616,8.53452643 7.24176957,8.3001807 L15.4670807,6.23793832 L15.9333033,6.12076546 C17.3736443,5.75883151 13.3313128,4.77197562 12.9666695,3.33465518 L13.870464,2.53267203 C12.6983962,-1.12572512 11.2867057,0.939121103 9.80208651,0.842778971 C2.53526631,0.371483681 5.23102219,4.56366831 3.65524218,4.17048826 C2.14197245,3.79293126 0.0244366741,6.25095753 0.396893767,8.11791181 L0.925626563,10.7764339 L0.920417373,10.7790377 Z" id="Path" fill="#DFF2F5"></path>
                            <path d="M5.1190246,13.0131336 C4.8533559,13.0131336 4.60852397,12.8490916 4.51215395,12.5887075 C4.3298323,12.0835622 3.9625844,11.6747591 3.47812972,11.4326019 L3.38957348,11.3909404 C3.19683345,11.3050137 2.83219014,11.1748216 2.17322759,11.0706679 C2.08206677,11.0550449 1.83983943,11.0342142 1.58458911,11.0420257 C1.41268584,11.0420257 1.09752984,11.0993102 0.993346034,11.1201409 L0.649539487,11.1904446 L0.0504826246,8.18821552 C-0.204767691,6.9097294 0.54796028,5.51407042 1.40747665,4.69386038 C2.170623,3.96738864 3.01972099,3.65232383 3.73338003,3.83198888 C3.82454086,3.85542346 3.85840059,3.84761193 3.85840059,3.84500809 C3.89486492,3.80074279 3.94174764,3.55337786 3.97560737,3.37110896 C4.18657957,2.24885332 4.57466423,0.155364845 9.81771408,0.493864226 C10.1563114,0.512091115 10.5235593,0.38971057 10.9038302,0.259518501 C11.4690273,0.0642303969 12.1071531,-0.157096121 12.7348605,0.157968687 C13.3313128,0.454806605 13.7949307,1.17607067 14.1960384,2.42591453 L14.2663624,2.64203337 L13.3755909,3.43099731 C13.6803285,3.95957711 14.6674701,4.49076075 15.3446648,4.85529855 C16.1755306,5.30315927 16.6339393,5.54792036 16.5818474,5.9723465 C16.5375693,6.32646893 16.1442755,6.4254149 16.0140457,6.45926484 L7.32251202,8.63868008 C6.55676107,8.83136435 6.09314315,9.58387451 6.26504642,10.3546116 L6.60103919,11.8648396 C6.68438623,12.2450004 6.46820484,12.6173497 6.09835234,12.7345226 L5.31436923,12.9818875 C5.24925435,13.0027182 5.18413948,13.0105298 5.1190246,13.0105298 L5.1190246,13.0131336 Z M1.60542587,10.3441962 C1.83202564,10.3441962 2.12634488,10.3572154 2.26438842,10.3780461 C2.83479474,10.4691806 3.30362185,10.5889573 3.63440542,10.7347724 L3.67607894,10.7529993 C3.70472949,10.7660185 3.73858922,10.7816415 3.77244896,10.7998684 C4.41838853,11.1227448 4.90023862,11.6539284 5.15027974,12.3048888 L5.88738014,12.0731469 C5.9108215,12.0653353 5.92384447,12.0419008 5.91863528,12.0184662 L5.58264252,10.5082382 C5.3299968,9.36775567 6.01760989,8.25070772 7.15060874,7.96688901 L15.6572162,5.83434291 C15.4696853,5.71977389 15.2196442,5.58437414 15.0138812,5.4750128 C14.0475764,4.95684836 12.8468581,4.30849186 12.622863,3.42578963 L12.570771,3.22008616 L13.4615426,2.42851838 C13.1489912,1.52498541 12.7999754,0.972971041 12.4249137,0.785494461 C12.0576658,0.603225564 11.6305122,0.751644523 11.1330346,0.923498054 C10.7032764,1.07191701 10.2604952,1.23335518 9.77343596,1.19429756 C5.15027974,0.897459641 4.8559605,2.46497216 4.66061587,3.50390487 C4.58768721,3.88927339 4.51996774,4.25120735 4.2256485,4.44128777 C4.05114063,4.55325295 3.82714545,4.57668752 3.56668595,4.51159149 C3.09785884,4.39181478 2.46754683,4.64959508 1.88932673,5.20160945 C1.03762415,6.01400797 0.560983255,7.18573659 0.735491124,8.05541961 L1.19910904,10.38065 C1.33454799,10.3624231 1.47780071,10.3441962 1.60803047,10.3468 L1.60542587,10.3441962 Z" id="Shape" fill="#B1E2EA"></path>
                        </g>
                        <path d="M49.1070351,69.0816078 L49.1070351,76.3801752 L28.3249712,76.3801752 L29.3329495,66.4725587 C29.3329495,66.4725587 37.6311893,69.5893568 49.1070351,69.0816078 Z" id="Path" fill="#FFFFFF"></path>
                        <path d="M49.4560509,76.7290899 L27.9394911,76.7290899 L29.0334211,65.9882442 L29.4553655,66.1470785 C29.5387125,66.1783246 37.8239294,69.2326306 49.0914076,68.7352969 L49.4560509,68.7196738 L49.4560509,76.7290899 L49.4560509,76.7290899 Z M28.7104513,76.0338643 L48.760624,76.0338643 L48.760624,69.4461456 C38.9751604,69.815891 31.4609037,67.5557567 29.6376871,66.9464578 L28.7130559,76.0338643 L28.7104513,76.0338643 Z" id="Shape" fill="#B1E2EA"></path>
                        <polygon id="Path" fill="#FFFFFF" points="52.9201623 68.9696426 52.9201623 76.3801752 66.6646104 76.3801752 66.6646104 69.1024385"></polygon>
                        <path d="M67.0318583,76.7290899 L52.555519,76.7290899 L52.555519,68.618124 L67.0318583,68.7561276 L67.0318583,76.7290899 Z M53.2874102,76.0338643 L66.3025717,76.0338643 L66.3025717,69.4461456 L53.2874102,69.3211612 L53.2874102,76.0338643 L53.2874102,76.0338643 Z" id="Shape" fill="#B1E2EA"></path>
                        <path d="M86.6913418,42.2906838 C86.6913418,42.2906838 88.5458135,38.8275747 92.3849866,37.7157344 C96.2241597,36.6038942 98.05519,36.9736396 99.026704,37.345989 C99.9982179,37.7183383 99.9982179,38.4187716 99.9982179,38.4187716 C99.9982179,38.4187716 103.407633,38.7390441 103.772276,39.9446227 C104.136919,41.1502012 103.506607,42.1084149 103.506607,42.1084149 C103.506607,42.1084149 104.152547,42.9937209 103.884274,44.0248421 C103.616,45.0559633 103.016944,45.2616668 103.016944,45.2616668 C103.016944,45.2616668 103.616,45.9204386 103.438888,47.0348828 C103.261776,48.146723 101.894363,48.9304793 101.894363,48.9304793 C101.894363,48.9304793 100.30556,49.1778442 98.1880243,49.5892512 C96.0704886,50.0006581 94.273318,50.938041 93.6872841,51.6098321 C93.1012502,52.2790193 92.9814388,51.9405199 92.9814388,51.9405199 C92.9814388,51.9405199 85.6130394,49.4668706 86.6939464,42.2958914 L86.6913418,42.2906838 Z" id="Path" fill="#FFFFFF"></path>
                        <path d="M93.1168778,52.3701538 C93.083018,52.3701538 93.0491583,52.3675499 93.0152986,52.3597384 C92.9085102,52.3389077 92.8251631,52.2868308 92.7652574,52.2269425 C91.8536492,51.8806316 85.3083018,49.1387866 86.3475352,42.2386069 L86.3839996,42.1266417 C86.4621374,41.9808266 88.3504688,38.5229253 92.286012,37.3824427 C95.2760871,36.5179674 97.5186434,36.3981907 99.1491199,37.0205088 C99.9044525,37.3095352 100.18054,37.7834343 100.284723,38.0984991 C101.230191,38.2104643 103.733207,38.6192674 104.10306,39.8430728 C104.410402,40.8611748 104.092641,41.7204425 103.907715,42.0953956 C104.105664,42.4443104 104.449471,43.2254628 104.220266,44.1107689 C104.048363,44.7773523 103.74623,45.1549093 103.501398,45.3606127 C103.688929,45.7043198 103.907715,46.2979956 103.782695,47.0843557 C103.582141,48.3472188 102.128777,49.1934673 102.066266,49.2273172 L101.946455,49.2689787 C101.930827,49.2689787 100.33942,49.5189474 98.2531392,49.9251467 C96.0626748,50.3521767 94.4165707,51.2973711 93.9477436,51.8311586 C93.7237484,52.086335 93.4346384,52.3649461 93.1168778,52.3649461 L93.1168778,52.3701538 Z M87.0247299,42.4078566 C86.6184131,45.2226092 87.4987662,47.6181432 89.642348,49.5293628 C91.2754291,50.9849101 93.0699951,51.6020206 93.0882272,51.6072282 L93.1611559,51.6306628 C93.2158524,51.5890013 93.301804,51.5134899 93.4216154,51.3780902 C94.0441136,50.6672415 95.9037945,49.6777818 98.1177003,49.2455441 C99.972172,48.8836101 101.441164,48.6466606 101.769343,48.5945837 C102.003756,48.4487686 102.962247,47.7978083 103.092477,46.9775982 C103.238334,46.0558384 102.774716,45.5142394 102.753879,45.4908048 L102.412678,45.1002286 L102.902341,44.9283751 C102.902341,44.9283751 103.334704,44.7461062 103.545676,43.9337077 C103.767067,43.0822515 103.227916,42.3167222 103.222707,42.3089106 L103.084663,42.1162264 L103.214893,41.9157306 C103.23573,41.8818807 103.74623,41.0694821 103.436283,40.0435686 C103.233125,39.3665699 101.282283,38.8874631 99.9643582,38.7650825 L99.6492022,38.7364403 L99.6492022,38.4187716 C99.6492022,38.4187716 99.617947,37.9448725 98.9016834,37.6714691 C97.4196688,37.1038317 95.3177606,37.2288161 92.4813566,38.05163 C89.0719417,39.0410897 87.2695619,41.9860343 87.0273345,42.4052528 L87.0247299,42.4078566 Z" id="Shape" fill="#B1E2EA"></path>
                        <path d="M93.109064,45.9673078 C93.0074848,45.9673078 92.9085102,45.9230425 92.8381861,45.8397196 C92.7157701,45.6913006 92.7392115,45.4725779 92.8876734,45.3501974 C92.9006964,45.339782 94.176948,44.2800186 94.6249383,42.68126 C95.0625103,41.1189551 94.9947908,40.6190176 94.9921862,40.6138099 L94.9192576,40.1477223 L95.3854801,40.2050068 C95.3854801,40.2050068 96.6825684,40.3872757 97.9197511,39.8951497 C99.123074,39.4160429 99.5971103,38.6479097 99.6023195,38.6400981 C99.7012941,38.4760561 99.9148709,38.4213755 100.07896,38.5203214 C100.24305,38.6192674 100.297746,38.8301785 100.201376,38.9942206 C100.177935,39.0332782 99.6153424,39.9706611 98.177606,40.5435062 C97.1982782,40.9340824 96.2189505,40.957517 95.6850085,40.9288747 C95.6589625,41.2908087 95.5678017,41.8948999 95.2943192,42.8687365 C94.7864232,44.6862178 93.3851511,45.8397196 93.3252454,45.8891925 C93.2601305,45.9412694 93.1819927,45.9673078 93.1064594,45.9673078 L93.109064,45.9673078 Z" id="Path" fill="#B1E2EA"></path>
                        <path d="M97.4196688,43.0718362 C97.2998574,43.0718362 97.1852553,43.0119478 97.1201404,42.9025865 C97.0211658,42.7385445 97.0758623,42.5224256 97.2399517,42.4260835 C97.3102758,42.384422 98.9954488,41.3897546 100.745737,41.3663201 C102.472583,41.3585085 103.363355,41.7074233 103.399819,41.7230463 C103.576932,41.7985577 103.660279,42.0016574 103.58735,42.1787186 C103.511817,42.3557798 103.308658,42.4391027 103.131546,42.3661908 C103.126337,42.3635913 102.331935,42.0511303 100.75355,42.0641496 C99.1881888,42.0823764 97.6124088,43.0145517 97.5967813,43.024967 C97.5420848,43.058817 97.4795745,43.07444 97.4196688,43.07444 L97.4196688,43.0718362 Z" id="Path" fill="#73CFD6"></path>
                        <path d="M98.3989965,46.636495 C98.2557438,46.636495 98.1229095,46.5479644 98.0708176,46.407357 C98.0057027,46.2276919 98.0994681,46.0271961 98.2817898,45.9621001 C98.3547184,45.9360617 100.039891,45.3319705 101.050474,45.1444939 C102.071476,44.9544135 102.884109,44.9934711 102.920574,44.996075 C103.113314,45.0064903 103.259171,45.1705323 103.251357,45.3606127 C103.240939,45.553297 103.074245,45.7043198 102.886714,45.6913006 C102.8789,45.6913006 102.115754,45.6548468 101.180704,45.8293042 C100.227422,46.0063654 98.5370401,46.6130605 98.5214125,46.6182681 C98.4823436,46.6312873 98.4432747,46.6390989 98.4042057,46.6390989 L98.3989965,46.636495 Z" id="Path" fill="#73CFD6"></path>
                        <g transform="translate(39.380360, 0.843091)">
                            <path d="M7.84876205,0.559471204 C12.7922835,-0.510707606 17.683713,2.53318297 19.0823805,7.41538557 L0.454316695,11.4435282 C-0.290597491,6.41811432 2.90524064,1.62704617 7.84876205,0.556867362 L7.84876205,0.559471204 Z" id="Path" fill="#DFF2F5"></path>
                            <path d="M0.165206644,11.8627467 L0.110510148,11.495605 C-0.663054584,6.26969536 2.70208223,1.31458521 7.77583339,0.218367982 C12.8443754,-0.875245401 17.9624046,2.2389489 19.4183733,7.31904344 L19.5199525,7.67576971 L0.165206644,11.8627467 Z M9.8230451,0.694870956 C9.1953377,0.694870956 8.55721191,0.75996699 7.92169071,0.897970584 C3.32458044,1.89263799 0.23553071,6.29573378 0.751240531,11.0217059 L18.6369948,7.15239759 C17.355534,3.25965472 13.7403561,0.692267114 9.8230451,0.692267114 L9.8230451,0.694870956 Z" id="Shape" fill="#B1E2EA"></path>
                        </g>
                        <g transform="translate(38.023664, 7.677290)">
                            <path d="M0.717082496,4.84888306 L1.81361701,4.6119335 L20.4416808,0.583790873 L21.4757051,0.359860514 C21.7283508,0.305179845 21.9783919,0.469221852 22.035693,0.72700215 L22.1008079,1.02644391 C22.1555044,1.28422421 21.9966241,1.53679682 21.7439784,1.59147749 L20.7151633,1.81280401 L2.07928571,5.84355047 L0.987960382,6.08050004 C0.735314662,6.13518071 0.485273537,5.9711387 0.427972445,5.71335841 L0.362857569,5.41391665 C0.308161073,5.15613635 0.467041371,4.90356373 0.719687091,4.84888306 L0.717082496,4.84888306 Z" id="Path" fill="#DFF2F5"></path>
                            <path d="M0.88377658,6.43722631 C0.727500877,6.43722631 0.573829768,6.39035717 0.438390826,6.30182656 C0.256069172,6.18204985 0.131048609,5.99717712 0.0841658982,5.78366212 L0.0190510219,5.4868242 C-0.0773189951,5.04156733 0.201372676,4.60151813 0.64154924,4.50777984 L0.64154924,4.50777984 L21.4001718,0.0187572926 C21.6163532,-0.0281118524 21.8351392,0.0135496098 22.0174608,0.135930155 C22.1997825,0.255706859 22.3248031,0.440579597 22.3716858,0.654094591 L22.4368007,0.950932509 C22.4836834,1.16965519 22.4446144,1.3909817 22.3248031,1.57585444 C22.2075963,1.75812334 22.0252746,1.88571157 21.8143024,1.92997687 L1.05828445,6.41899942 C1.00098336,6.43201863 0.943682266,6.43722631 0.886381175,6.43722631 L0.88377658,6.43722631 Z M0.790011158,5.18738245 L0.790011158,5.18738245 C0.724896282,5.20040165 0.683222761,5.27070537 0.698850331,5.33840525 L0.763965207,5.63524316 C0.774383588,5.68211231 0.803034133,5.70815072 0.821266299,5.71856609 C0.839498464,5.73158529 0.870753605,5.7446045 0.90982253,5.73418914 L21.6684451,1.24516659 C21.707514,1.23735506 21.7283508,1.21392049 21.7413738,1.1956936 C21.7517922,1.18007055 21.7700243,1.14361677 21.7596059,1.09414379 L21.6944911,0.797305867 C21.6840727,0.750436722 21.6554221,0.724398308 21.63719,0.713982943 C21.6189578,0.700963736 21.5877027,0.687944529 21.5486337,0.698359894 L0.790011158,5.18738245 L0.790011158,5.18738245 Z" id="Shape" fill="#B1E2EA"></path>
                        </g>
                        <g transform="translate(48.428026, -0.000000)">
                            <path d="M4.11546078,0.707278234 C5.84023417,0.707381401 7.23841348,2.10556069 7.23851667,3.83033408 L7.23866551,6.31799306 C7.23876869,8.04249967 5.84086351,9.44057214 4.1163569,9.44067531 C4.11623236,9.44067532 4.11610783,9.44067532 4.1159833,9.44067531 C2.39120991,9.44057215 0.993030605,8.04239286 0.99292741,6.31761947 L0.992778572,3.82996049 C0.992675394,2.10545388 2.39058058,0.707381413 4.11508719,0.707278234 C4.11521172,0.707278227 4.11533625,0.707278227 4.11546078,0.707278234 Z" id="Rectangle" fill="#DFF2F5" transform="translate(4.115722, 5.073977) rotate(167.790000) translate(-4.115722, -5.073977) "></path>
                            <path d="M2.82779964,10.1410542 C2.55431716,10.1410542 2.28343928,10.0629389 2.04642113,9.90931227 C1.72084674,9.70100496 1.49685157,9.37552478 1.41610912,8.99796778 L0.0330691497,2.61074486 C-0.136229529,1.82959244 0.361248127,1.05885539 1.14262664,0.889605703 L5.09640193,0.0329418872 C5.87517586,-0.136307803 6.64874059,0.363629743 6.81803927,1.14217832 L8.20107924,7.52940124 C8.28182169,7.90695824 8.21410221,8.29493061 8.00313002,8.62041078 C7.79476241,8.94589095 7.46918803,9.16982131 7.09152175,9.2505404 L3.13774645,10.1046004 C3.03356265,10.1280349 2.93198344,10.1384503 2.82779964,10.1384503 L2.82779964,10.1410542 Z M5.40374415,0.699525282 C5.35165225,0.699525282 5.29695575,0.704732965 5.24486385,0.717752172 L1.29108856,1.57441599 C0.887376327,1.6629466 0.629521417,2.06133433 0.715473054,2.46753358 L2.09851303,8.85475651 C2.14018655,9.05004461 2.25739333,9.2192943 2.426692,9.32865564 C2.59599068,9.43801698 2.7965445,9.47447076 2.99188913,9.43020545 L2.99188913,9.43020545 L6.94566442,8.57614548 C7.14100905,8.53448401 7.31030773,8.41731115 7.41970072,8.24806146 C7.52909372,8.07881177 7.56555805,7.87831599 7.52127993,7.68302788 L6.13823996,1.29580496 C6.0627067,0.944286372 5.75015529,0.702129124 5.40374415,0.702129124 L5.40374415,0.699525282 Z" id="Shape" fill="#B1E2EA"></path>
                        </g>
                        <path d="M55.3971322,3.48823941 L56.350414,7.88873135 L56.4545978,4.53758749 C56.4545978,4.53758749 55.9805615,3.97515775 55.3971322,3.48823941 Z" id="Path" fill="#D0F1F4"></path>
                        <path d="M49.1747546,4.25637262 L50.1488732,8.76362206 C50.1488732,8.76362206 48.3881669,6.38631487 46.6066239,5.38904362 C44.8250809,4.39177237 43.9264956,4.31886481 43.9264956,4.31886481 C43.9264956,4.31886481 47.6901354,3.55333544 49.1747546,4.25637262 L49.1747546,4.25637262 Z" id="Path" fill="#B1E2EA"></path>
                        <g transform="translate(36.935588, 21.741168)">
                            <g transform="translate(0.177287, 0.000000)">
                                <path d="M13.385014,5.38214015 C13.385014,5.38214015 12.0176016,5.27017497 9.83495092,3.80421227 C7.64969567,2.33564572 6.8448758,0.43223767 6.8448758,0.43223767 C6.8448758,0.43223767 4.25330372,1.29150533 0.174507869,3.55684733 C1.09653452,3.05690979 4.03191314,9.29831759 2.79733509,13.4800869 C2.71659264,13.7482825 2.63585019,14.0294974 2.55510775,14.3133161 L13.3876186,14.3133161 L13.3876186,5.38214015 L13.385014,5.38214015 Z" id="Path" fill="#FFFFFF"></path>
                                <path d="M13.7314251,14.6648347 L2.08888523,14.6648347 L2.21651039,14.216974 C2.29985743,13.9305514 2.38059988,13.6493365 2.45873773,13.3811409 C3.30002193,10.5325384 2.12014037,6.62677633 1.01318748,4.7624259 C0.606870648,4.08021945 0,3.24959405 0,3.24959405 C4.06056369,0.99466741 6.62348522,0.135399752 6.73027362,0.0989459727 L7.03240665,0 L7.1600318,0.294234077 C7.16784559,0.312460966 7.95964249,2.12473457 10.0224818,3.51258203 C12.0332291,4.86397571 13.2990623,5.04103692 13.3120853,5.03843308 L13.7262159,5.10092528 L13.7262159,5.38214015 C13.7262159,5.38214015 13.7288205,14.6648347 13.7288205,14.6648347 L13.7314251,14.6648347 Z M3.01612107,13.9617975 L13.0359982,13.9617975 L13.0359982,5.75448946 C12.4369414,5.74667794 11.2362231,5.16862515 9.63960629,4.09323866 C7.88671382,2.91630235 6.99333772,1.47637807 6.66776334,0.86447534 C5.94368591,1.132671 3.87303285,1.94506952 0.961095575,3.52039355 C2.2113012,4.77023742 4.20902561,9.91803184 3.12811866,13.576429 C3.09165433,13.7014134 3.0525854,13.8290016 3.01612107,13.9591937 L3.01612107,13.9617975 Z" id="Shape" fill="#B1E2EA"></path>
                            </g>
                            <g transform="translate(0.341377, 28.704747)">
                                <path d="M5.82908373,4.56974163 C8.76185776,5.38474399 13.2183199,5.96279678 13.2183199,5.96279678 L13.2183199,0.348914746 L0.539151176,0.348914746 C1.47940999,2.4345917 3.56569063,3.94221586 5.82908373,4.56974163 L5.82908373,4.56974163 Z" id="Path" fill="#FFFFFF"></path>
                                <path d="M13.5673356,6.35858067 L13.1740418,6.30910768 C13.1297637,6.3039 8.66027855,5.71803569 5.73531831,4.90563717 L5.73531831,4.90563717 C3.2140703,4.20520384 1.15123101,2.5543684 0.22139058,0.492126022 L0,0 L13.5673356,0 L13.5673356,6.35858067 L13.5673356,6.35858067 Z M5.92284915,4.23384609 C8.29563525,4.89261797 11.7206777,5.40297088 12.8719088,5.56440904 L12.8719088,0.697829492 L1.1069529,0.697829492 C2.04200252,2.34345725 3.80270878,3.64798178 5.92284915,4.23644994 L5.92284915,4.23644994 L5.92284915,4.23384609 Z" id="Shape" fill="#B1E2EA"></path>
                            </g>
                            <g transform="translate(0.127800, 18.916908)">
                                <path d="M13.4345013,0.348914746 L1.31011131,0.348914746 C0.919422054,2.03099628 0.588638482,3.71047398 0.398503043,5.18685204 L13.4371059,5.18685204 L13.4371059,0.348914746 L13.4345013,0.348914746 Z" id="Path" fill="#FFFFFF"></path>
                                <path d="M13.7809124,5.53576679 L0,5.53576679 L0.049487306,5.14258674 C0.22659977,3.77296617 0.533941986,2.1325461 0.96890936,0.268195663 L1.03141964,0 L13.7809124,0 L13.7809124,5.53576679 L13.7809124,5.53576679 Z M0.794401491,4.84054114 L13.0854856,4.84054114 L13.0854856,0.697829492 L1.58619839,0.697829492 C1.23197346,2.25492664 0.966304765,3.64537794 0.794401491,4.84054114 Z" id="Shape" fill="#B1E2EA"></path>
                            </g>
                            <g transform="translate(16.245034, 28.702144)">
                                <path d="M0.351620332,6.31171152 C0.351620332,6.31171152 5.4253715,7.50687472 6.28749246,7.66050136 C7.14700883,7.814128 8.74623019,7.91307397 10.4939135,8.68120718 C11.4966826,9.15250247 12.2520151,9.56130557 12.2520151,9.56130557 C12.2520151,9.56130557 11.7154686,4.27550756 11.082552,0.348914746 L0.354224927,0.348914746 L0.354224927,6.30910768 L0.351620332,6.31171152 Z" id="Path" fill="#FFFFFF"></path>
                                <path d="M12.6635412,10.1810198 L12.0853211,9.86595501 C12.0853211,9.86595501 11.3273839,9.45454807 10.3454516,8.99627199 C8.99627132,8.40259615 7.74606569,8.22553494 6.83185283,8.09534287 C6.60264846,8.06149293 6.39688545,8.03285068 6.22237758,8.00160458 C5.36286122,7.84797794 0.476640895,6.69708005 0.268273291,6.64760706 L0,6.58511487 L0,0 L11.3742666,0 L11.4211493,0.291630235 C12.0488567,4.18176927 12.5880079,9.47017112 12.5932171,9.52224795 L12.6609366,10.178416 L12.6635412,10.1810198 Z M0.698031474,6.03570433 C1.75810166,6.28306927 5.61811153,7.18660223 6.34739815,7.3167943 C6.51409223,7.34543655 6.71204145,7.37407881 6.93082744,7.4053249 C7.82941273,7.53291313 9.18901135,7.72820124 10.631957,8.36093469 C11.1033887,8.58226121 11.5227285,8.79056852 11.8352799,8.94940285 C11.6763996,7.4678171 11.2570598,3.7182855 10.7830235,0.69522565 L0.698031474,0.69522565 L0.698031474,6.03310049 L0.698031474,6.03570433 Z" id="Shape" fill="#B1E2EA"></path>
                            </g>
                            <g transform="translate(16.250243, 0.578053)">
                                <path d="M10.7361408,4.42132267 C7.89192301,2.61946443 6.00880079,1.29150533 3.22188408,0.429633829 C3.22188408,0.429633829 2.6879421,2.47364932 1.84665789,3.44227831 C1.00797829,4.41351115 0.343806547,4.63223383 0.343806547,4.63223383 L0.343806547,13.7378672 L9.24370785,13.7378672 C9.01189889,8.80879541 9.25152163,4.35622664 10.7361408,4.42132267 L10.7361408,4.42132267 Z" id="Path" fill="#FFFFFF"></path>
                                <path d="M9.61095575,14.0867819 L1.48054088e-14,14.0867819 L1.48054088e-14,4.38226505 L0.23701815,4.30154597 C0.23701815,4.30154597 0.833470417,4.08282329 1.58619839,3.21314027 C2.37799528,2.29919194 2.8963097,0.307253284 2.90151889,0.294234077 L3.02133026,0 L3.32606788,0.0937382899 C5.82908373,0.867079182 7.65230027,2.03360012 9.95736689,3.50737435 C10.2673137,3.70787013 10.5902835,3.91096976 10.9236717,4.12448476 C10.9236717,4.12448476 10.5746559,4.69472602 10.4209848,4.90303333 C10.1188518,5.30923259 9.2697538,6.83768748 9.59272358,13.7196403 L9.61095575,14.0841781 L9.61095575,14.0867819 Z M0.695426879,13.3915563 L8.88166913,13.3915563 C8.66548774,8.34791549 9.01710808,5.32745948 9.92871635,4.41611499 C9.94694851,4.39528426 9.96778527,4.37705737 9.98862203,4.35883048 C9.85057849,4.27029987 9.71513955,4.18437311 9.5823052,4.09844634 C7.32933048,2.65852206 5.67541262,1.60136245 3.41462412,0.856663816 C3.20104732,1.30973222 2.74263859,2.94234077 2.11232659,3.67141636 C1.51326973,4.36403816 0.98453693,4.70514139 0.695426879,4.85616419 L0.695426879,13.3889524 L0.695426879,13.3915563 Z" id="Shape" fill="#B1E2EA"></path>
                            </g>
                            <g transform="translate(16.247639, 18.916908)">
                                <path d="M0.349015737,0.348914746 L0.349015737,5.18685204 L10.1865713,5.18685204 C9.99122663,3.84326989 9.78546362,2.16118835 9.61095575,0.348914746 L0.349015737,0.348914746 Z" id="Path" fill="#FFFFFF"></path>
                                <path d="M10.5902835,5.53576679 L0,5.53576679 L0,0 L9.92611175,0 L9.95736689,0.315064808 C10.1188518,1.99975018 10.3246148,3.71307782 10.5303778,5.13737906 L10.5876789,5.53576679 L10.5902835,5.53576679 Z M0.698031474,4.84054114 L9.78806821,4.84054114 C9.61095575,3.58288575 9.44165707,2.13514994 9.29840434,0.697829492 L0.70063607,0.697829492 L0.70063607,4.84054114 L0.698031474,4.84054114 Z" id="Shape" fill="#B1E2EA"></path>
                            </g>
                            <g transform="translate(0.997735, 13.969609)">
                                <path d="M12.5645665,0.346310904 L1.73205571,0.346310904 C1.29708834,1.85393507 0.836075012,3.57507422 0.437571969,5.29360954 L12.5619619,5.29360954 L12.5619619,0.346310904 L12.5645665,0.346310904 Z" id="Path" fill="#E6F8F7"></path>
                                <path d="M12.9109777,5.64512813 L0,5.64512813 L0.0989746121,5.21809814 C0.46361792,3.65058562 0.911608269,1.93465415 1.39606295,0.252572615 L1.46899161,0 L12.9109777,0 L12.9109777,5.64512813 L12.9109777,5.64512813 Z M0.877748533,4.94990248 L12.2155508,4.94990248 L12.2155508,0.697829492 L1.99511981,0.697829492 C1.58359379,2.13514994 1.20071832,3.59330111 0.877748533,4.94990248 L0.877748533,4.94990248 Z" id="Shape" fill="#B1E2EA"></path>
                            </g>
                            <g transform="translate(16.247639, 13.969609)">
                                <path d="M9.61095575,5.29621338 C9.45728464,3.69485093 9.32445029,1.9945425 9.24631244,0.348914746 L0.346411142,0.348914746 L0.346411142,5.29621338 L9.60835115,5.29621338 L9.61095575,5.29621338 Z" id="Path" fill="#E6F8F7"></path>
                                <path d="M9.99383122,5.64512813 L0,5.64512813 L0,0 L9.57970061,0 L9.59532818,0.330687856 C9.66825684,1.87216196 9.79067281,3.53080892 9.95736689,5.26236344 L9.99383122,5.64512813 L9.99383122,5.64512813 Z M0.695426879,4.94990248 L9.22808028,4.94990248 C9.09003674,3.46831673 8.98585294,2.04141165 8.91552887,0.697829492 L0.695426879,0.697829492 L0.695426879,4.94990248 Z" id="Shape" fill="#B1E2EA"></path>
                            </g>
                            <g transform="translate(0.000000, 23.754845)">
                                <path d="M0.523698304,0.348914746 C0.377840981,1.48418959 0.312726105,2.49968773 0.370027196,3.30167088 C0.419514502,4.01251958 0.604440751,4.67910297 0.880527827,5.29621338 L13.5596965,5.29621338 L13.5596965,0.348914746 L0.521093709,0.348914746 L0.523698304,0.348914746 Z" id="Path" fill="#E6F8F7"></path>
                                <path d="M13.9087123,5.64512813 L0.656532652,5.64512813 L0.56276723,5.43942466 C0.255425014,4.75461437 0.07310336,4.04376567 0.0210114589,3.32770929 C-0.0336850373,2.5543684 0.0184068638,1.53626642 0.177287162,0.304649442 L0.216356088,0 L13.9087123,0 L13.9087123,5.64512813 Z M1.10973219,4.94990248 L13.2106808,4.94990248 L13.2106808,0.697829492 L0.828435926,0.697829492 C0.706019958,1.74717757 0.666951032,2.61425675 0.713833743,3.27823631 C0.752902669,3.84326989 0.885737017,4.40569963 1.1071276,4.94990248 L1.10973219,4.94990248 Z" id="Shape" fill="#B1E2EA"></path>
                            </g>
                            <g transform="translate(16.247639, 23.754845)">
                                <path d="M0.349015737,5.29881722 L11.0773428,5.29881722 C10.9236717,4.34320743 10.7621868,3.46571289 10.6033065,2.76527955 C10.4834951,2.24190743 10.3376378,1.39565898 10.1865713,0.348914746 L0.349015737,0.348914746 L0.349015737,5.29621338 L0.349015737,5.29881722 Z" id="Path" fill="#E6F8F7"></path>
                                <path d="M11.4862642,5.64512813 L0,5.64512813 L0,-2.96022493e-14 L10.4887043,-2.96022493e-14 L10.5329824,0.299441759 C10.6840489,1.34358216 10.8273016,2.17160372 10.947113,2.68716431 C11.0955749,3.34593618 11.2570598,4.20520384 11.4237539,5.24153271 L11.4888688,5.64512813 L11.4862642,5.64512813 Z M0.695426879,4.94990248 L10.6658167,4.94990248 C10.5251686,4.10625787 10.3897297,3.40061685 10.2621045,2.84339479 C10.1527115,2.3590803 10.0224818,1.62219318 9.88183363,0.697829492 L0.692822284,0.697829492 L0.692822284,4.94990248 L0.695426879,4.94990248 Z" id="Shape" fill="#B1E2EA"></path>
                            </g>
                        </g>
                        <path d="M44.3562538,109.737987 C44.3093711,109.737987 44.2624883,109.727572 44.2156056,109.709345 C44.0384932,109.63123 43.9603553,109.425526 44.0384932,109.251069 C44.1010035,109.113065 50.156687,95.2736483 51.0735044,85.3009358 C51.0917366,85.1082515 51.2610353,84.9702479 51.4511707,84.985871 C51.6439107,85.0040979 51.7845589,85.1733475 51.7663267,85.363428 C50.8390909,95.4507095 44.7365246,109.391676 44.6740144,109.532284 C44.6167133,109.662476 44.4890881,109.740591 44.3562538,109.740591 L44.3562538,109.737987 Z" id="Path" fill="#B1E2EA"></path>
                        <g transform="translate(50.368183, 56.102419)" id="Path">
                            <line x1="0.348491811" y1="0.345350219" x2="3.38284505" y2="0.691661123" fill="#3AAFBF"></line>
                            <path d="M3.38284505,1.04057587 C3.36982207,1.04057587 3.3567991,1.04057587 3.34377612,1.04057587 L0.309422886,0.694264965 C0.119287447,0.673434234 -0.0187560912,0.498976861 0.00208066925,0.308896439 C0.0229174297,0.118816018 0.197425298,-0.0165837339 0.387560737,0.00164315584 L3.42191398,0.34795406 C3.61204941,0.368784791 3.75009295,0.543242164 3.72925619,0.733322585 C3.70841943,0.9103838 3.55735292,1.04317971 3.38284505,1.04317971 L3.38284505,1.04057587 Z" fill="#B1E2EA"></path>
                        </g>
                        <path d="M49.0992214,69.3992764 C48.9116905,69.3966726 48.7580194,69.2430459 48.7580194,69.0529655 C48.7580194,68.8602813 48.9116905,68.7040508 49.1044306,68.7040508 C50.6932335,68.6988431 52.4956133,68.6702008 52.787328,68.6285394 C52.9019301,68.5868779 53.0399737,68.6103125 53.1363437,68.6988431 C53.2795964,68.8290352 53.2900148,69.0477578 53.1623896,69.1909691 C53.0321599,69.3341804 52.9852772,69.3888611 49.1070351,69.4018803 L49.0992214,69.4018803 L49.0992214,69.3992764 Z" id="Path" fill="#B1E2EA"></path>
                        <path d="M54.2849701,68.3030592 C54.2849701,68.3030592 55.0376981,69.4331264 57.1760706,69.5737338 C59.3144432,69.7143412 60.9761748,70.7949354 62.2967045,71.9380218 C63.6172342,73.0811081 64.6694906,73.3545115 65.6566321,72.7530241 C66.6437736,72.1515368 66.6463782,71.4484996 66.6463782,71.4484996 C66.6463782,71.4484996 67.6283106,72.0551946 68.750891,71.2870614 C69.8734715,70.5189282 70.0141196,69.2768959 70.0141196,69.2768959 C70.0141196,69.2768959 70.6574546,69.4930147 71.5117618,68.5009511 C72.3634644,67.5088876 72.1681198,65.3607184 70.1703954,63.6421831 C68.1726709,61.9236478 64.8413939,59.0932722 61.2105884,58.2496276 C57.5459231,57.5413828 52.9592312,66.9777039 54.2901793,68.3004554 L54.2849701,68.3030592 Z" id="Path" fill="#FFFFFF"></path>
                        <path d="M64.6017711,73.4091922 C63.612025,73.4091922 62.7186489,72.7634395 62.0675001,72.1984059 C61.0204529,71.2896653 59.3691397,70.063256 57.1552339,69.9174409 C55.0403027,69.7768334 54.1651587,68.7196738 54.0193014,68.5217819 C53.1181115,67.5583606 54.3526896,64.5717545 55.2330427,62.9469575 C56.7020343,60.2311509 59.0617974,57.4788906 61.2783078,57.9111282 C65.0575753,58.7886228 68.5321051,61.7752288 70.3995997,63.381799 C72.5197401,65.204488 72.7671766,67.5739836 71.7800351,68.7222777 C71.1809782,69.4201072 70.6444316,69.6049799 70.2980205,69.636226 C70.1756045,70.0997098 69.8396118,70.9641851 68.9514449,71.5708801 C68.1127653,72.1463291 67.3365959,72.0604023 66.8807918,71.9197949 C66.7479574,72.2400674 66.461452,72.6697012 65.8389538,73.0472582 C65.4170094,73.3050385 65.0028788,73.4091922 64.6043757,73.4091922 L64.6017711,73.4091922 Z M54.5740802,68.1103749 C54.6105445,68.1624518 55.2929484,69.1024385 57.199512,69.2300267 C59.62439,69.3888611 61.4007238,70.703801 62.5259089,71.6802415 C64.0730383,73.0212198 64.9117179,72.8024971 65.4717059,72.4613939 C66.2608982,71.9822871 66.2947579,71.4615188 66.2947579,71.4406881 L66.3234085,70.8548238 L66.8286999,71.1568694 C66.859955,71.1750963 67.6413336,71.6281647 68.5529418,71.0032427 C69.5244558,70.3392632 69.6677085,69.2456498 69.6677085,69.2352344 L69.7171958,68.8134121 L70.1235126,68.9488119 L70.1235126,68.9488119 C70.1235126,68.9488119 70.5897352,69.0347386 71.2434885,68.2744169 C71.9180786,67.4906607 71.8399408,65.532572 69.9385864,63.8973596 C68.1179744,62.3324509 64.7267917,59.4161486 61.1272413,58.5829193 C59.2936064,58.2235892 57.1317925,60.8847151 55.842518,63.2698338 C54.4620826,65.8189945 54.1912047,67.7197987 54.5324066,68.0582981 L54.5740802,68.1103749 L54.5740802,68.1103749 Z" id="Shape" fill="#B1E2EA"></path>
                        <g transform="translate(62.077105, 62.991454)" fill="#B1E2EA" id="Path">
                            <path d="M8.29123983,6.18128835 C8.28082145,6.14743841 8.02817573,5.33764374 6.81703903,3.6868083 C5.6241345,2.05680359 3.36595059,0.166414745 3.26958057,0.0856956616 C3.11330487,-0.0444964077 2.87889131,-0.0236656766 2.74605696,0.129960965 C2.61582721,0.283587607 2.63405938,0.51532949 2.79033508,0.64552156 C2.81377644,0.663748449 5.07977413,2.5671565 6.21537758,4.11383829 C7.32753966,5.63187782 7.57758079,6.38438798 7.58018538,6.38959566 C7.62706809,6.54582614 7.77032082,6.6499798 7.93441031,6.6499798 L7.93441031,6.6499798 C7.97087464,6.6499798 8.00733897,6.64477211 8.04119871,6.63435675 C8.13496413,6.60571449 8.21310198,6.5432223 8.25998469,6.45729553 C8.3068674,6.37136877 8.31728578,6.2724228 8.28863524,6.17868451 L8.29123983,6.18128835 Z"></path>
                            <path d="M3.12893244,5.6370855 C1.78496139,4.02530768 0.602475234,3.35612044 0.552987928,3.32747819 C0.37327087,3.23113606 0.149275695,3.29102441 0.0476964878,3.46808562 C-0.00179081825,3.55401239 -0.0122091985,3.65295836 0.0138367521,3.74669665 C0.0398827026,3.84043494 0.102392984,3.91855018 0.188344621,3.96802317 C0.198763001,3.97323085 1.29529752,4.59554894 2.55592152,6.10577695 C3.81394094,7.61340111 4.21765317,8.58723779 4.22025776,8.59765315 C4.27755886,8.73826059 4.4103932,8.8267912 4.56406431,8.8267912 L4.56406431,8.8267912 C4.61355162,8.8267912 4.66043433,8.81897967 4.70210785,8.80075278 C4.89224329,8.72524138 4.98600871,8.51172639 4.91047545,8.32424981 C4.86619734,8.21488847 4.43904375,7.20720185 3.12893244,5.6370855 Z"></path>
                        </g>
                    </g>
                    <g id="Group" transform="translate(131.253359, 149.567253)">
                        <g>
                            <rect id="Rectangle" fill="#EFF8F9" x="0.346411142" y="0.348914746" width="31.8099194" height="34.8940784"></rect>
                            <path d="M32.5053463,35.5893041 L0,35.5893041 L0,0 L32.5053463,0 L32.5053463,35.5893041 Z M0.695426879,34.8940784 L31.8099194,34.8940784 L31.8099194,0.69522565 L0.695426879,0.69522565 L0.695426879,34.8940784 Z" id="Shape" fill="#B1E2EA"></path>
                        </g>
                        <g transform="translate(31.807315, 0.000000)">
                            <rect id="Rectangle" fill="#D9F3F7" x="0.349015737" y="0.348914746" width="19.2844218" height="34.8940784"></rect>
                            <path d="M19.9798487,35.5893041 L0,35.5893041 L0,0 L19.9798487,0 L19.9798487,35.5893041 Z M0.695426879,34.8940784 L19.2818172,34.8940784 L19.2818172,0.69522565 L0.695426879,0.69522565 L0.695426879,34.8940784 Z" id="Shape" fill="#B1E2EA"></path>
                        </g>
                        <polygon id="Path" fill="#E4F6FA" points="31.8203378 34.9044938 0.703240665 34.9044938 0.703240665 12.8239188"></polygon>
                    </g>
                    <g id="Group" transform="translate(168.811660, 156.170595)">
                        <path d="M19.5213993,11.7224939 C19.5213993,11.7224939 26.4678543,14.0399128 32.4896781,13.362914 C38.5115018,12.6859152 41.9521719,6.66583395 43.0122421,0.841040768 C43.0122421,0.841040768 44.4030959,2.69497584 49.1669002,4.81189888 C53.9333092,6.92882193 55.9180106,7.06161784 55.9180106,7.06161784 C55.9180106,7.06161784 55.092354,33.3135467 19.6229785,23.426761 C19.6229785,23.426761 10.222995,20.9999808 5.58942036,17.2504492 C0.955845762,13.5009176 0.205722387,10.4127617 0.359393495,8.9780451 C0.513064603,7.5433285 1.88047701,7.52249777 1.88047701,7.52249777 C1.88047701,7.52249777 1.88047701,6.19974634 2.89626908,5.6685627 C3.91206115,5.1399829 4.68302128,5.60346666 4.68302128,5.60346666 C4.68302128,5.60346666 4.21940337,3.88232751 5.90718096,3.05690979 C7.59495856,2.22888823 8.58730927,4.18176927 9.48068537,6.06695043 C10.3740615,7.95213159 10.4730361,8.94419516 11.7649152,9.47537881 C13.0567944,10.0039586 13.9501705,10.0378085 13.9501705,10.0378085 C13.9501705,10.0378085 14.512763,8.31666939 12.92396,6.79602602 C11.3351571,5.27538265 10.8376794,4.580157 11.7649152,3.55424349 C12.6921511,2.52832999 16.7631331,5.00979083 18.1513823,7.75684349 C19.5422361,10.5038962 19.5135855,11.7224939 19.5135855,11.7224939 L19.5213993,11.7224939 Z" id="Path" fill="#FFFFFF"></path>
                        <path d="M34.0368075,26.0097716 C29.7470395,26.0097716 24.9050973,25.2624691 19.5344223,23.7652603 C19.1541514,23.6663144 10.0146274,21.2785918 5.37584357,17.5238525 C0.0155869479,13.1858528 -0.078178474,9.86074733 0.018191543,8.94419516 C0.143212106,7.79069343 0.961054953,7.33502119 1.56532101,7.21264064 C1.63043588,6.73092998 1.87266322,5.81698166 2.74259797,5.36391326 C3.35467781,5.04624461 3.89643358,5.03843308 4.27930905,5.10613296 C4.27409986,4.35101896 4.57883748,3.32510545 5.76132364,2.74705266 C6.27963805,2.49187621 6.78492949,2.4476109 7.26417498,2.61686059 C8.34247734,2.99441759 9.05353179,4.33799975 9.80365516,5.92373915 C10.0120228,6.36378835 10.1787168,6.7569684 10.3271788,7.10588314 C10.8064243,8.23855415 11.046047,8.80619157 11.9055634,9.15771016 C12.6973603,9.48319033 13.3354861,9.6133824 13.6845018,9.66285539 C13.7548259,9.16552168 13.7548259,8.06930446 12.6921511,7.05120248 C11.1762768,5.60086282 10.3428063,4.6244223 11.5174787,3.32510545 C11.6971958,3.12460966 12.0540253,2.9006793 12.7234062,2.99441759 C14.3825333,3.21574411 17.3179119,5.32225179 18.4717475,7.60321685 C19.5370269,9.70712069 19.7922772,10.9543607 19.8547875,11.4647136 C21.0763426,11.8422706 27.1736996,13.6128828 32.4558183,13.0218108 C36.3991753,12.5791577 41.1551658,9.13167174 42.6736447,0.783756257 L42.8168975,0 L43.296143,0.63794114 C43.3091659,0.656168029 44.7156473,2.45542243 49.3153621,4.49943792 C53.9411229,6.55386877 55.9310336,6.72051462 55.9492657,6.72051462 L56.2826539,6.74394919 L56.2722355,7.07724089 C56.2696309,7.17097918 55.8945692,16.3859738 48.3985447,21.8904945 C44.6609508,24.6375472 39.8554729,26.0123755 34.0394121,26.0123755 L34.0368075,26.0097716 Z M3.89122439,5.76750867 C3.65941543,5.76750867 3.37811916,5.81698166 3.06296316,5.98362751 C2.2529341,6.40544981 2.23470193,7.51729008 2.23470193,7.53030929 L2.23470193,7.87141251 C2.23470193,7.87141251 1.89089539,7.87922404 1.89089539,7.87922404 C1.78410699,7.88182788 0.82561601,7.94171623 0.708409232,9.02491425 C0.526087578,10.7304304 1.76847942,13.7170364 5.81081094,16.9874612 C10.3297834,20.6458584 19.6177693,23.0726385 19.7115347,23.0960731 C32.1588945,26.5643898 41.6682711,25.970714 47.9818095,21.3306686 C54.435996,16.5890735 55.4127192,8.99627199 55.5507627,7.36887112 C54.7902209,7.24388674 52.7430092,6.78561065 49.0262521,5.13477521 C45.6871612,3.65058562 43.9759423,2.29398426 43.2232143,1.57792788 C41.5041816,9.81648203 36.6127521,13.2535527 32.528747,13.7118287 C26.4991095,14.3914313 19.6985118,12.1495239 19.4120063,12.0557856 L19.169779,11.9750665 L19.1749882,11.7224939 C19.1749882,11.6938517 19.156756,10.5038962 17.8492493,7.9208855 C16.815225,5.87947385 14.11426,3.88753519 12.6296408,3.6870394 C12.4629467,3.66360483 12.1634183,3.64798178 12.0331885,3.7937969 C11.3898535,4.50724944 11.4549684,4.90563717 13.1740012,6.55126493 C14.9008477,8.20470421 14.3148138,10.0742623 14.2913724,10.1523776 L14.21063,10.4023463 L13.9475659,10.391931 C13.908497,10.391931 12.9760519,10.3502695 11.6424993,9.80346282 C10.5173142,9.3425829 10.1865306,8.56143048 9.68644838,7.37668265 C9.54059106,7.03557943 9.37910617,6.65281474 9.17594775,6.22057707 C8.64981955,5.1087368 7.92834672,3.58548959 7.03497062,3.27302862 C6.73544219,3.16887497 6.42028619,3.20012106 6.06866585,3.3719746 C4.66739371,4.05938872 5.01120026,5.45765155 5.02682783,5.5175399 L5.24040463,6.34035378 L4.51111801,5.90551226 C4.49809504,5.89770074 4.26107689,5.76750867 3.89122439,5.76750867 L3.89122439,5.76750867 Z" id="Shape" fill="#B1E2EA"></path>
                        <path d="M5.66495362,14.052932 C5.60244334,14.052932 5.53732846,14.0373089 5.48263197,14.0008551 C5.34719302,13.9149284 2.1487503,11.8813282 1.56011181,7.66570904 C1.53406586,7.47562862 1.66690021,7.29856741 1.85703565,7.27252899 C2.04717109,7.24388674 2.22428355,7.37928649 2.2503295,7.56936691 C2.79208528,11.4516944 5.82122932,13.3915563 5.85248446,13.4097831 C6.01396936,13.511333 6.06345666,13.7248479 5.96187746,13.88889 C5.89676258,13.9956475 5.7821604,14.052932 5.66755822,14.052932 L5.66495362,14.052932 Z" id="Path" fill="#B1E2EA"></path>
                        <path d="M7.85020887,11.6469825 C7.75123426,11.6469825 7.65486424,11.6053211 7.58714477,11.5272058 C7.50119313,11.4282598 5.47742278,9.0535565 4.4095388,5.71543184 C4.34963312,5.53316295 4.45121232,5.335271 4.63613857,5.27798649 C4.82106482,5.21809814 5.01640945,5.31964795 5.07371054,5.50452069 C6.0973164,8.70203791 8.0976454,11.0507028 8.11587757,11.0741374 C8.24089813,11.2199525 8.22527056,11.4386752 8.07941324,11.5662634 C8.01429836,11.623548 7.93355591,11.6495864 7.85281347,11.6495864 L7.85020887,11.6469825 Z" id="Path" fill="#B1E2EA"></path>
                    </g>
                    <g id="Group" transform="translate(241.138619, 222.487831)">
                        <rect id="Rectangle" fill="#F6FDFD" x="0.349015737" y="0.348914746" width="43.5983166" height="47.7752818"></rect>
                        <path d="M44.2963481,48.4705074 L0,48.4705074 L0,2.96022493e-14 L44.2963481,2.96022493e-14 L44.2963481,48.4705074 Z M0.698031474,47.7752818 L43.6009212,47.7752818 L43.6009212,0.69522565 L0.698031474,0.69522565 L0.698031474,47.7752818 L0.698031474,47.7752818 Z" id="Shape" fill="#D8F1F4"></path>
                        <rect id="Rectangle" fill="#E8F8F9" x="43.9473323" y="0.348914746" width="26.428826" height="47.7752818"></rect>
                        <path d="M70.7251741,48.4705074 L43.5983166,48.4705074 L43.5983166,2.96022493e-14 L70.7251741,2.96022493e-14 L70.7251741,48.4705074 Z M44.2937435,47.7752818 L70.0271426,47.7752818 L70.0271426,0.69522565 L44.2937435,0.69522565 L44.2937435,47.7752818 Z" id="Shape" fill="#D8F1F4"></path>
                        <polygon id="Path" fill="#EFFAFC" points="43.5905028 47.7700741 0.687613094 47.7700741 0.687613094 16.3625393"></polygon>
                        <rect id="Rectangle" fill="#F6FDFD" x="58.3325108" y="17.4196989" width="27.7936338" height="30.7044976"></rect>
                        <path d="M86.4725558,48.4705074 L57.9834951,48.4705074 L57.9834951,17.0707841 L86.4725558,17.0707841 L86.4725558,48.4705074 Z M58.678922,47.7752818 L85.7771289,47.7752818 L85.7771289,17.7686136 L58.678922,17.7686136 L58.678922,47.7752818 Z" id="Shape" fill="#D8F1F4"></path>
                        <rect id="Rectangle" fill="#E8F8F9" x="86.1261447" y="17.4196989" width="17.3439985" height="30.7044976"></rect>
                        <path d="M103.819159,48.4705074 L85.7771289,48.4705074 L85.7771289,17.0707841 L103.819159,17.0707841 L103.819159,48.4705074 Z M86.4751604,47.7752818 L103.123732,47.7752818 L103.123732,17.7686136 L86.4751604,17.7686136 L86.4751604,47.7752818 Z" id="Shape" fill="#D8F1F4"></path>
                        <polygon id="Path" fill="#EFFAFC" points="85.7536876 47.7700741 58.6632944 47.7700741 58.6632944 27.9626527"></polygon>
                    </g>
                    <path d="M379.674426,270.997396 L0.325574382,270.997396 C0.145857323,270.997396 0,270.841166 0,270.648481 C0,270.455797 0.145857323,270.299567 0.325574382,270.299567 L379.674426,270.299567 C379.854143,270.299567 380,270.455797 380,270.648481 C380,270.841166 379.854143,270.997396 379.674426,270.997396 Z" id="Path" fill="#9FDCE6"></path>
                </g>
            </g>
        </g>
    </g>
</svg>
