<svg xmlns="http://www.w3.org/2000/svg" viewBox="0 0 405.284 405.284" style="enable-background:new 0 0 405.284 405.284" xml:space="preserve"><path d="M345.93 326.886h-.037l-187.293-.915c-36.029 0-65.37-29.341-65.37-65.407s29.341-65.407 65.407-65.407a65.179 65.179 0 0 1 24.606 4.798c3.521-42.628 39.34-76.241 82.862-76.241 45.847 0 83.146 37.299 83.146 83.146 0 .465-.005.934-.015 1.408 31.197 1.72 56.049 27.644 56.049 59.263-.001 32.729-26.627 59.355-59.355 59.355zM158.637 210.158c-27.794 0-50.407 22.612-50.407 50.407s22.612 50.407 50.407 50.407l187.306.915c24.451-.007 44.341-19.901 44.341-44.354 0-24.457-19.897-44.354-44.354-44.354-1.225 0-2.524.067-4.089.21a7.498 7.498 0 0 1-8.13-8.36c.363-3.036.54-5.708.54-8.168 0-37.576-30.57-68.146-68.146-68.146s-68.146 30.57-68.146 68.146c0 1.426.109 2.915.224 4.491l.036.488a7.497 7.497 0 0 1-3.707 7.022 7.497 7.497 0 0 1-7.938-.244 50.152 50.152 0 0 0-27.937-8.46z"/><path d="M74.183 240.984h-14.81C26.635 240.984 0 214.35 0 181.611v-.774c0-30.354 23.15-55.668 52.703-57.631a56.463 56.463 0 0 1 30.121 6.399c13.183-31.774 44.722-52.413 79.895-51.152 23.457.839 45.761 12.387 61.194 31.684a7.5 7.5 0 0 1-11.714 9.37c-12.701-15.881-30.932-25.38-50.017-26.063-31.601-1.134-59.636 19.294-68.193 49.667a7.499 7.499 0 0 1-11.855 3.862 41.49 41.49 0 0 0-28.437-8.799C31.998 139.614 15 158.355 15 180.837v.774c0 24.467 19.906 44.373 44.373 44.373h14.81a7.5 7.5 0 0 1 0 15z"/></svg>