<?xml version="1.0" encoding="utf-8"?>
<!-- Svg Vector Icons : http://www.onlinewebfonts.com/icon -->
<!DOCTYPE svg PUBLIC "-//W3C//DTD SVG 1.1//EN" "http://www.w3.org/Graphics/SVG/1.1/DTD/svg11.dtd">
<svg version="1.1" xmlns="http://www.w3.org/2000/svg" xmlns:xlink="http://www.w3.org/1999/xlink" x="0px" y="0px" viewBox="0 0 1000 1000" enable-background="new 0 0 1000 1000" xml:space="preserve">
<metadata> Svg Vector Icons : http://www.onlinewebfonts.com/icon </metadata>
<g><g><path d="M824.4,668.5L681.1,501.1c-16-18.7-13.7-46.7,5.1-62.5l153.7-129.8c18.8-15.9,42-26.9,51.9-24.7c9.9,2.2,31.8-10.3,48.9-27.9l34.5-35.6c17.1-17.6,19.6-45.9,5.6-63.1c-14-17.2-42.1-20.4-62.7-7l-41.4,26.8c-20.6,13.3-37.4,31.7-37.4,41c0,9.3-15.2,29.7-34,45.6l-155.9,132c-18.8,15.9-46.9,13.6-62.9-5.1l-46.4-54.2c-16-18.7-18.7-48.2-7.3-66.8c11.3-18.6,30.6-52.2,30.6-76.8c0.1-29.5-13.7-72-72.4-119.9C427,20.6,369.8,11,332.8,12.3c-24.6,0.9-31,23.2-15.3,42.2l78.2,94.7c15.6,19,15.1,49.3-1.1,67.7l-1.7,1.9c-16.2,18.4-46.4,43.8-67.4,56.6l-0.8,0.5c-21,12.8-51.1,8.3-67.4-10.1L176,173.8c-16.3-18.4-39.3-15.6-44,8.5c-5.7,29.3-6.5,72.7,15.2,125.9c9.3,22.7,29.3,57.5,44.8,76.5c29.9,36.9,59.2,50.1,82,53.7c24.3,3.8,59-9.5,77.4-16.9c18.4-7.4,45.5,1.1,60.9,20.2l46.2,57.3c15.4,19.1,18.6,42.6,7,52.4c-11.6,9.8-33.7,2.4-49.4-16.5l-2.1-2.6c-15.7-18.9-33.4-34.2-39.5-34.2c-6.1,0-10.6,19.9-10,44.5l0.3,13.8c0.6,24.6-18.3,40.9-42.2,36.4c-23.9-4.4-58.7,4.6-77.6,20.2L44.4,777.7c-19,15.6-34.4,41.8-34.4,58.5c0,16.7,12.4,45.8,27.8,65l38.3,47.9c15.4,19.2,41.1,36.4,57.5,38.5c16.4,2.1,45-9,63.9-24.7l201-167.4c18.9-15.7,35-48.4,35.9-72.9l0.2-5.6c1-24.6,21.2-40.1,45.2-34.8l2.1,0.4c24,5.3,43.4,3.9,43.4-3.3c0-7.2-10-25.1-22.4-40c-12.4-14.9-13.2-34.8-1.8-44.4s33.2-2,48.6,17.2l133.9,166c15.4,19.1,26.4,41.3,25.4,49.7c-0.6,5-0.9,10.1-0.9,15.3c0,77.8,63.1,140.9,140.9,140.9S990,920.8,990,843c0-61.1-38.9-112.9-93.2-132.4C873.7,702.2,840.3,687.1,824.4,668.5z M849.1,919c-42,0-76-34-76-76s34-76,76-76c42,0,76,34,76,76C925.1,884.9,891.1,919,849.1,919z" style="
    fill: #fff;"/></g><g></g><g></g><g></g><g></g><g></g><g></g><g></g><g></g><g></g><g></g><g></g><g></g><g></g><g></g><g></g></g>
</svg>
