<?xml version="1.0" encoding="UTF-8"?>
<svg width="12px" height="14px" viewBox="0 0 12 14" version="1.1" xmlns="http://www.w3.org/2000/svg" xmlns:xlink="http://www.w3.org/1999/xlink">
    <!-- Generator: Sketch 63.1 (92452) - https://sketch.com -->
    <title>ic_airline_seat_recline_normal</title>
    <desc>Created with Sketch.</desc>
    <g id="Page-1" stroke="none" stroke-width="1" fill="none" fill-rule="evenodd">
        <g id="Employee-List_Global-Search_Filter-collapse-Copy-2" transform="translate(-188.000000, -289.000000)">
            <g id="Filter-full" transform="translate(178.000000, 178.000000)">
                <g id="Group-4" transform="translate(8.000000, 25.000000)">
                    <g id="Filter-2">
                        <g id="Icons" transform="translate(0.000000, 51.000000)">
                            <g id="ic_airline_seat_recline_normal" transform="translate(0.000000, 34.000000)">
                                <g id="Icon-24px">
                                    <path d="M5.06,3.60666667 C4.54,3.08666667 4.54,2.24 5.06,1.72 C5.58,1.2 6.42666667,1.2 6.94666667,1.72 C7.46666667,2.24 7.46666667,3.08666667 6.94666667,3.60666667 C6.42,4.13333333 5.58,4.13333333 5.06,3.60666667 L5.06,3.60666667 Z M4,10.6666667 L4,4.66666667 L2.66666667,4.66666667 L2.66666667,10.6666667 C2.66666667,12.5066667 4.16,14 6,14 L10,14 L10,12.6666667 L6,12.6666667 C4.89333333,12.6666667 4,11.7733333 4,10.6666667 L4,10.6666667 Z M13.3333333,13.38 L9.95333333,10 L7.66666667,10 L7.66666667,7.54666667 C8.6,8.31333333 10.0666667,8.98666667 11.3333333,8.98666667 L11.3333333,7.54666667 C10.2266667,7.56 8.92666667,6.96666667 8.22,6.18666667 L7.28666667,5.15333333 C7.16,5.01333333 7,4.9 6.82666667,4.82 C6.63333333,4.72666667 6.41333333,4.66666667 6.18666667,4.66666667 L6.16666667,4.66666667 C5.34,4.66666667 4.66666667,5.34 4.66666667,6.16666667 L4.66666667,10 C4.66666667,11.1066667 5.56,12 6.66666667,12 L10.0466667,12 L12.38,14.3333333 L13.3333333,13.38 L13.3333333,13.38 Z" id="shape" fill="#6b7e91"></path>
                                    <polygon id="Shape" points="0 0 16 0 16 16 0 16"></polygon>
                                </g>
                            </g>
                        </g>
                    </g>
                </g>
            </g>
        </g>
    </g>
</svg>
