<svg xmlns="http://www.w3.org/2000/svg" viewBox="0 0 512 512">
  <path fill="#606266" d="M494.934 121.035v-18.637c0-9.425-7.641-17.066-17.067-17.066h-25.601v-8.531a17.002 17.002 0 00-8.532-14.696V51.2c0-14.136-11.46-25.597-25.601-25.597-14.137 0-25.598 11.46-25.598 25.597v10.906A17.006 17.006 0 00384 76.801v8.531h-25.602V51.199C358.371 22.934 335.465.027 307.2 0H204.801c-28.266.027-51.172 22.934-51.2 51.2v34.132H128v-8.531a17.006 17.006 0 00-8.535-14.696V51.2c0-14.136-11.461-25.597-25.598-25.597-14.14 0-25.601 11.46-25.601 25.597v10.906a17.002 17.002 0 00-8.532 14.696v8.531H34.133c-9.426 0-17.067 7.64-17.067 17.066v18.637A25.603 25.603 0 000 145.066v25.602a25.594 25.594 0 0017.066 24.027V436.77A25.6 25.6 0 000 460.8v25.598C0 500.54 11.46 512 25.602 512h460.796C500.54 512 512 500.54 512 486.398v-25.597a25.6 25.6 0 00-17.066-24.031V194.695A25.594 25.594 0 00512 170.668v-25.602a25.603 25.603 0 00-17.066-24.03zm-17.067-18.637v17.067h-25.601v-17.067zm-76.8-25.597h34.132v42.664h-34.133zm8.535-25.602a8.533 8.533 0 0117.066 0v8.535h-17.066zm-238.934 0c0-18.851 15.281-34.133 34.133-34.133h102.398c18.852 0 34.133 15.282 34.133 34.133v34.133h-17.066V59.734c0-14.14-11.461-25.601-25.598-25.601h-85.336c-14.137 0-25.598 11.46-25.598 25.601v25.598h-17.066zm136.531 34.133H204.801V59.734a8.533 8.533 0 018.531-8.535h85.336c4.71 0 8.531 3.82 8.531 8.535zm-145.066 17.066H384v17.067H128v-17.067zM76.8 76.801h34.133v42.664H76.8zm8.531-25.602c0-4.71 3.82-8.531 8.535-8.531 4.711 0 8.531 3.82 8.531 8.531v8.535H85.332zm-51.2 51.2h25.602v17.066H34.133zm443.735 332.8H34.133V196.266h443.734zm17.067 51.2a8.534 8.534 0 01-8.536 8.535H25.602a8.534 8.534 0 01-8.536-8.536v-25.597a8.534 8.534 0 018.536-8.535h460.796a8.534 8.534 0 018.536 8.535zm0-315.731c0 4.71-3.82 8.531-8.536 8.531H25.602a8.533 8.533 0 01-8.536-8.531v-25.602c0-4.71 3.82-8.53 8.536-8.53h460.796a8.533 8.533 0 018.536 8.53zm0 0"/>
  <path fill="#ed8a19" d="M76.8 298.668h8.532v8.531c0 9.426 7.64 17.067 17.066 17.067h17.067c9.426 0 17.07-7.641 17.07-17.067v-8.531h8.531c9.426 0 17.067-7.64 17.067-17.066v-17.067c0-9.426-7.64-17.07-17.067-17.07h-8.53v-8.531c0-9.426-7.645-17.067-17.071-17.067h-17.067c-9.425 0-17.066 7.64-17.066 17.067v8.53h-8.531c-9.426 0-17.067 7.645-17.067 17.071v17.067c0 9.425 7.641 17.066 17.067 17.066zm0-34.133h17.067c4.711 0 8.531-3.824 8.531-8.535v-17.066h17.067V256c0 4.71 3.824 8.535 8.535 8.535h17.066v17.067H128c-4.71 0-8.535 3.82-8.535 8.53V307.2h-17.067v-17.066c0-4.711-3.82-8.531-8.53-8.531H76.8zm0 0M366.934 298.668h68.265c9.426 0 17.067-7.64 17.067-17.066v-17.067c0-9.426-7.641-17.07-17.067-17.07h-68.265c-9.426 0-17.067 7.644-17.067 17.07v17.067c0 9.425 7.64 17.066 17.067 17.066zm0-34.133h68.265v17.067h-68.265zm0 0M216.27 332.8h27.894l-21.863 65.571a8.537 8.537 0 003.945 10.149 8.53 8.53 0 0010.707-1.993l73.66-88.406a17.07 17.07 0 002.344-18.156 17.073 17.073 0 00-15.441-9.832h-22.368l11.332-37.77a17.07 17.07 0 00-2.656-15.086 17.074 17.074 0 00-13.691-6.879H236.75a16.971 16.971 0 00-16.352 12.172l-20.48 68.266A17.068 17.068 0 00216.27 332.8zm20.48-85.335h33.383l-11.332 37.77a17.065 17.065 0 0016.348 21.965h22.367L252.8 360.866l11.297-33.902a8.526 8.526 0 00-1.176-7.688 8.526 8.526 0 00-6.922-3.543h-39.73zm0 0M59.734 418.133h17.067c4.71 0 8.531-3.82 8.531-8.531a8.533 8.533 0 00-8.531-8.536H59.734a8.534 8.534 0 100 17.067zm0 0M102.398 409.602c0 4.71 3.82 8.53 8.536 8.53h59.734a8.533 8.533 0 000-17.066h-59.734a8.534 8.534 0 00-8.536 8.536zm0 0"/>
</svg>
