<?xml version="1.0" encoding="UTF-8"?>
<svg width="84px" height="66px" viewBox="0 0 84 66" version="1.1" xmlns="http://www.w3.org/2000/svg" xmlns:xlink="http://www.w3.org/1999/xlink">
    <!-- Generator: Sketch 63.1 (92452) - https://sketch.com -->
    <title>Group 39</title>
    <desc>Created with Sketch.</desc>
    <g id="Empty-state" stroke="none" stroke-width="1" fill="none" fill-rule="evenodd">
        <g id="Artboard" transform="translate(-280.000000, -343.000000)">
            <g id="Group-39" transform="translate(280.000000, 342.500000)">
                <g id="Group-11" transform="translate(0.000000, 0.824500)">
                    <line x1="0.4999" y1="57.8658" x2="83.3739" y2="57.8658" id="Stroke-1" stroke="#7176C4" stroke-linecap="round" stroke-linejoin="round"></line>
                    <line x1="54.6879" y1="64.4996" x2="65.5479" y2="64.4996" id="Stroke-3" stroke="#7176C4" stroke-linecap="round" stroke-linejoin="round"></line>
                    <line x1="21.3256" y1="64.4996" x2="45.5786" y2="64.4996" id="Stroke-5" stroke="#7176C4" stroke-linecap="round" stroke-linejoin="round"></line>
                    <polygon id="Fill-7" fill="#DBDBF3" points="63.3012 26.4918 42.7882 26.4918 42.7012 20.9028 23.5172 20.7958 23.5172 3.4648 63.3012 3.4648"></polygon>
                    <polyline id="Stroke-9" stroke="#7176C4" stroke-linecap="round" stroke-linejoin="round" points="20.7279 20.2946 20.7279 0.6756 63.3009 0.6756 63.3009 26.0116"></polyline>
                </g>
                <polygon id="Fill-12" fill="#BCBCE2" points="35.819 13.5735 48.209 13.5735 48.209 12.0645 35.819 12.0645"></polygon>
                <polygon id="Stroke-13" stroke="#7176C4" stroke-linecap="round" stroke-linejoin="round" points="35.819 15.0885 48.209 15.0885 48.209 9.6955 35.819 9.6955"></polygon>
                <polygon id="Fill-14" fill="#BCBCE2" points="35.819 12.0645 48.209 12.0645 48.209 9.6965 35.819 9.6965"></polygon>
                <polygon id="Stroke-15" stroke="#7176C4" stroke-linecap="round" stroke-linejoin="round" points="35.819 12.0645 48.209 12.0645 48.209 9.6965 35.819 9.6965"></polygon>
                <polygon id="Fill-16" fill="#DBDBF3" points="8.957 58.6905 42.756 58.6905 42.756 24.8915 8.957 24.8915"></polygon>
                <polygon id="Stroke-18" stroke="#7176C4" stroke-linecap="round" stroke-linejoin="round" points="5.301 58.6905 42.756 58.6905 42.756 21.2355 5.301 21.2355"></polygon>
                <polygon id="Fill-19" fill="#BCBCE2" points="15.908 37.0605 32.149 37.0605 32.149 35.0825 15.908 35.0825"></polygon>
                <polygon id="Stroke-20" stroke="#7176C4" stroke-linecap="round" stroke-linejoin="round" points="15.908 39.0475 32.149 39.0475 32.149 31.9795 15.908 31.9795"></polygon>
                <polygon id="Fill-21" fill="#BCBCE2" points="15.908 35.0825 32.149 35.0825 32.149 31.9785 15.908 31.9785"></polygon>
                <polygon id="Stroke-22" stroke="#7176C4" stroke-linecap="round" stroke-linejoin="round" points="15.908 35.0825 32.149 35.0825 32.149 31.9785 15.908 31.9785"></polygon>
                <polygon id="Fill-23" fill="#DBDBF3" points="45.79 58.3715 73.847 58.3715 73.847 30.3155 45.79 30.3155"></polygon>
                <polygon id="Stroke-25" stroke="#7176C4" stroke-linecap="round" stroke-linejoin="round" points="42.757 58.3695 73.847 58.3695 73.847 27.2795 42.757 27.2795"></polygon>
                <polygon id="Fill-26" fill="#BCBCE2" points="51.561 40.4175 65.042 40.4175 65.042 38.7755 51.561 38.7755"></polygon>
                <polygon id="Stroke-27" stroke="#7176C4" stroke-linecap="round" stroke-linejoin="round" points="51.561 42.0675 65.042 42.0675 65.042 36.2005 51.561 36.2005"></polygon>
                <polygon id="Fill-28" fill="#BCBCE2" points="51.561 38.7765 65.042 38.7765 65.042 36.2005 51.561 36.2005"></polygon>
                <polygon id="Stroke-29" stroke="#7176C4" stroke-linecap="round" stroke-linejoin="round" points="51.561 38.7765 65.042 38.7765 65.042 36.2005 51.561 36.2005"></polygon>
                <g id="Group-38" transform="translate(5.000000, 0.824500)">
                    <path d="M74.9047,2.7448 C74.9047,3.8838 73.9817,4.8068 72.8427,4.8068 C71.7037,4.8068 70.7807,3.8838 70.7807,2.7448 C70.7807,1.6058 71.7037,0.6818 72.8427,0.6818 C73.9817,0.6818 74.9047,1.6058 74.9047,2.7448" id="Fill-30" fill="#DBDBF3"></path>
                    <path d="M4.4247,2.7448 C4.4247,3.8838 3.5017,4.8068 2.3627,4.8068 C1.2237,4.8068 0.3007,3.8838 0.3007,2.7448 C0.3007,1.6058 1.2237,0.6818 2.3627,0.6818 C3.5017,0.6818 4.4247,1.6058 4.4247,2.7448" id="Fill-32" fill="#DBDBF3"></path>
                    <path d="M68.3959,17.7106 C68.3959,19.6016 66.8629,21.1336 64.9719,21.1336 C63.0819,21.1336 61.5479,19.6016 61.5479,17.7106 C61.5479,15.8186 63.0819,14.2866 64.9719,14.2866 C66.8629,14.2866 68.3959,15.8186 68.3959,17.7106" id="Fill-34" fill="#DBDBF3"></path>
                    <polygon id="Fill-36" fill-opacity="0.3" fill="#AAAAE2" points="62.7367 57.3844 37.7567 57.3844 37.7567 26.4544 41.8377 26.4544 43.8967 29.4944 47.8667 35.3744 49.6067 37.9544 50.7167 39.5944 51.8267 41.2444"></polygon>
                </g>
            </g>
        </g>
    </g>
</svg>