<?xml version="1.0" encoding="UTF-8"?>
<svg width="512px" height="512px" viewBox="0 0 512 512" version="1.1" xmlns="http://www.w3.org/2000/svg" xmlns:xlink="http://www.w3.org/1999/xlink">
    <!-- Generator: Sketch 59 (86127) - https://sketch.com -->
    <title>checkbox-icon</title>
    <desc>Created with Sketch.</desc>
    <g id="checkbox-icon" stroke="none" stroke-width="1" fill="none" fill-rule="evenodd">
        <g transform="translate(20.000000, 20.000000)" fill="#000000" fill-rule="nonzero">
            <path d="M392.923077,-19 C447.089466,-19 491,24.9105342 491,79.0769231 L491,392.923077 C491,447.089466 447.089466,491 392.923077,491 L79.0769231,491 C24.9105342,491 -19,447.089466 -19,392.923077 L-19,79.0769231 C-19,24.9105342 24.9105342,-19 79.0769231,-19 L392.923077,-19 Z M392.923077,20.2307692 L79.0769231,20.2307692 C46.5770897,20.2307692 20.2307692,46.5770897 20.2307692,79.0769231 L20.2307692,392.923077 C20.2307692,425.42291 46.5770897,451.769231 79.0769231,451.769231 L392.923077,451.769231 C425.42291,451.769231 451.769231,425.42291 451.769231,392.923077 L451.769231,79.0769231 C451.769231,46.5770897 425.42291,20.2307692 392.923077,20.2307692 Z" id="Rectangle"></path>
            <polygon id="Path" points="330.86 98.9669231 193.826923 255.536923 140.551538 194.69 98.6923077 242.551538 193.826923 351.338462 372.719231 146.867692"></polygon>
        </g>
    </g>
</svg>