<svg width="50" height="50" viewBox="0 0 50 50" xmlns="http://www.w3.org/2000/svg"><path d="M48.629 4c.368.005.72.166.977.446.257.281.399.66.394 1.051v7.855c.006.393-.136.771-.393 1.053a1.35 1.35 0 01-.978.448h-1.8v30.65a1.53 1.53 0 01-.395 1.05 1.35 1.35 0 01-.977.447H4.543c-.76 0-1.371-.669-1.371-1.497V14.849h-1.8C.615 14.849 0 14.18 0 13.356V5.497c-.004-.392.138-.77.395-1.05A1.35 1.35 0 011.372 4zM32.57 19.2H17.379c-1.7 0-3.093 1.58-3.093 3.526v4.348c0 1.945 1.39 3.526 3.093 3.526H32.57c1.7 0 3.093-1.58 3.093-3.526v-4.348c0-1.945-1.39-3.526-3.093-3.526zm0 3.021c.243 0 .443.228.443.505v4.348c0 .277-.2.505-.443.505H17.379c-.243 0-.443-.228-.443-.505v-4.348c0-.277.2-.505.443-.505H32.57zm14.686-15.23H2.743v4.867h44.514V6.991z" fill="#FFF" fill-rule="nonzero"/></svg>
