<?xml version="1.0" encoding="UTF-8"?>
<svg width="17px" height="9px" viewBox="0 0 17 9" version="1.1" xmlns="http://www.w3.org/2000/svg" xmlns:xlink="http://www.w3.org/1999/xlink">
    <!-- Generator: Sketch 49.1 (51147) - http://www.bohemiancoding.com/sketch -->
    <title>Combined Shape</title>
    <desc>Created with Sketch.</desc>
    <defs></defs>
    <g id="Page-1" stroke="none" stroke-width="1" fill="none" fill-rule="evenodd">
        <g id="Artboard-5" transform="translate(-6.000000, -11.000000)" fill="#333333">
            <path d="M6.38671875,15.9921875 C6.64453254,15.6210919 7.06640332,15.2539081 7.65234375,14.890625 L7.83398438,14.7792969 C7.58398313,14.4980455 7.39062568,14.210939 7.25390625,13.9179688 C7.11718682,13.6249985 7.04882812,13.3203141 7.04882812,13.0039062 C7.04882812,12.3749969 7.25976352,11.8837908 7.68164062,11.5302734 C8.10351773,11.176756 8.65038727,11 9.32226562,11 C9.93554994,11 10.4423808,11.1806623 10.8427734,11.5419922 C11.2431661,11.9033221 11.4433594,12.3652316 11.4433594,12.9277344 C11.4433594,13.4355494 11.3232434,13.8476547 11.0830078,14.1640625 C10.8427722,14.4804703 10.4902367,14.7734362 10.0253906,15.0429688 L11.25,16.5546875 C11.3906257,16.3515615 11.4990231,16.1308606 11.5751953,15.8925781 C11.6513676,15.6542957 11.6914062,15.4023451 11.6953125,15.1367188 L13.1777344,15.1367188 C13.1542968,15.6601589 13.029298,16.1894504 12.8027344,16.7246094 C12.6777337,17.0253921 12.4746108,17.3574201 12.1933594,17.7207031 L13.7636719,19.6074219 L11.7363281,19.6074219 L11.1386719,18.875 C10.8496079,19.1445326 10.5800794,19.3437494 10.3300781,19.4726562 C9.8847634,19.7031262 9.37109666,19.8183594 8.7890625,19.8183594 C7.91405812,19.8183594 7.23047121,19.5605495 6.73828125,19.0449219 C6.24609129,18.5292943 6,17.9570344 6,17.328125 C6,16.8085912 6.12890496,16.3632831 6.38671875,15.9921875 Z M8.74804688,13.4375 C8.81835973,13.5507818 8.97070195,13.7519517 9.20507812,14.0410156 C9.4394543,13.8769523 9.60742137,13.7382818 9.70898438,13.625 C9.90429785,13.4140614 10.0019531,13.1855481 10.0019531,12.9394531 C10.0019531,12.7597647 9.94335996,12.5996101 9.82617188,12.4589844 C9.70898379,12.3183587 9.53125119,12.2480469 9.29296875,12.2480469 C9.14453051,12.2480469 9.00586002,12.2890621 8.87695312,12.3710938 C8.68163965,12.4921881 8.58398438,12.6835924 8.58398438,12.9453125 C8.58398438,13.1015633 8.63867133,13.2656241 8.74804688,13.4375 Z M8.01269531,18.0605469 C7.78027228,17.8222644 7.6640625,17.5605483 7.6640625,17.2753906 C7.6640625,17.0214831 7.73144464,16.7890636 7.86621094,16.578125 C8.00097724,16.3671864 8.27734166,16.1230483 8.6953125,15.8457031 L10.2773438,17.8027344 C10.1249992,17.9589852 9.92675903,18.1005853 9.68261719,18.2275391 C9.43847534,18.3544928 9.17968887,18.4179688 8.90625,18.4179688 C8.54296693,18.4179688 8.24511835,18.2988293 8.01269531,18.0605469 Z M15.3867188,15.9921875 C15.6445325,15.6210919 16.0664033,15.2539081 16.6523438,14.890625 L16.8339844,14.7792969 C16.5839831,14.4980455 16.3906257,14.210939 16.2539062,13.9179688 C16.1171868,13.6249985 16.0488281,13.3203141 16.0488281,13.0039062 C16.0488281,12.3749969 16.2597635,11.8837908 16.6816406,11.5302734 C17.1035177,11.176756 17.6503873,11 18.3222656,11 C18.9355499,11 19.4423808,11.1806623 19.8427734,11.5419922 C20.2431661,11.9033221 20.4433594,12.3652316 20.4433594,12.9277344 C20.4433594,13.4355494 20.3232434,13.8476547 20.0830078,14.1640625 C19.8427722,14.4804703 19.4902367,14.7734362 19.0253906,15.0429688 L20.25,16.5546875 C20.3906257,16.3515615 20.4990231,16.1308606 20.5751953,15.8925781 C20.6513676,15.6542957 20.6914062,15.4023451 20.6953125,15.1367188 L22.1777344,15.1367188 C22.1542968,15.6601589 22.029298,16.1894504 21.8027344,16.7246094 C21.6777337,17.0253921 21.4746108,17.3574201 21.1933594,17.7207031 L22.7636719,19.6074219 L20.7363281,19.6074219 L20.1386719,18.875 C19.8496079,19.1445326 19.5800794,19.3437494 19.3300781,19.4726562 C18.8847634,19.7031262 18.3710967,19.8183594 17.7890625,19.8183594 C16.9140581,19.8183594 16.2304712,19.5605495 15.7382812,19.0449219 C15.2460913,18.5292943 15,17.9570344 15,17.328125 C15,16.8085912 15.128905,16.3632831 15.3867188,15.9921875 Z M17.7480469,13.4375 C17.8183597,13.5507818 17.970702,13.7519517 18.2050781,14.0410156 C18.4394543,13.8769523 18.6074214,13.7382818 18.7089844,13.625 C18.9042979,13.4140614 19.0019531,13.1855481 19.0019531,12.9394531 C19.0019531,12.7597647 18.94336,12.5996101 18.8261719,12.4589844 C18.7089838,12.3183587 18.5312512,12.2480469 18.2929688,12.2480469 C18.1445305,12.2480469 18.00586,12.2890621 17.8769531,12.3710938 C17.6816396,12.4921881 17.5839844,12.6835924 17.5839844,12.9453125 C17.5839844,13.1015633 17.6386713,13.2656241 17.7480469,13.4375 Z M17.0126953,18.0605469 C17.2451183,18.2988293 17.5429669,18.4179688 17.90625,18.4179688 C18.1796889,18.4179688 18.4384753,18.3544928 18.6826172,18.2275391 C18.926759,18.1005853 19.1249992,17.9589852 19.2773438,17.8027344 L17.6953125,15.8457031 C17.2773417,16.1230483 17.0009772,16.3671864 16.8662109,16.578125 C16.7314446,16.7890636 16.6640625,17.0214831 16.6640625,17.2753906 C16.6640625,17.5605483 16.7802723,17.8222644 17.0126953,18.0605469 Z" id="Combined-Shape"></path>
        </g>
    </g>
</svg>