<?xml version="1.0" encoding="UTF-8"?>
<svg width="282px" height="422px" viewBox="0 0 282 422" version="1.1" xmlns="http://www.w3.org/2000/svg" xmlns:xlink="http://www.w3.org/1999/xlink">
    <!-- Generator: Sketch 63.1 (92452) - https://sketch.com -->
    <title>Group</title>
    <desc>Created with Sketch.</desc>
    <defs>
        <path d="M18.6290684,23.3363043 C76.0362035,7.91797244 116.665002,0.208806482 140.515464,0.208806482 C164.381905,0.208806482 205.049172,7.92830577 262.517266,23.3673044 C273.439032,26.3014739 281.030928,36.202157 281.030928,47.5111942 L281.030928,371.135325 C281.030928,380.160797 274.986029,388.067965 266.276522,390.435163 C247.783969,395.461342 235.239674,398.574767 228.643637,399.775439 C220.459171,401.265252 219.550904,385.700603 201.51606,388.204338 C183.481216,390.708073 182.206543,405.185284 175.841188,405.562795 C163.811689,406.276232 154.552339,405.562795 141.580499,405.562795 C128.77894,405.562795 118.308598,404.845183 106.424802,404.150354 C98.2269253,403.671036 104.552465,388.869341 80.6139453,386.371062 C56.6754257,383.872784 61.3128199,399.476382 53.5990158,398.251214 C46.1753753,397.072133 34.0453955,394.388228 17.2090765,390.199498 C8.33802138,387.992457 2.09246214,380.05148 2.03806073,370.910162 L0.114166477,47.6294233 C0.0465319204,36.26461 7.65303646,26.2842324 18.6290684,23.3363043 Z" id="path-1"></path>
    </defs>
    <g id="Page-1" stroke="none" stroke-width="1" fill="none" fill-rule="evenodd">
        <g id="Artboard-Copy-2" transform="translate(-203.000000, -184.000000)">
            <g id="Group" transform="translate(202.000000, 184.000000)">
                <polygon id="Rectangle-Copy" fill="#385265" transform="translate(142.000000, 415.258664) scale(1, -1) translate(-142.000000, -415.258664) " points="132 408.517327 152 408.517327 152 421.879878 132 422"></polygon>
                <path d="M141.501718,7.34625544 C117.67626,7.34625544 77.0910669,15.0547141 19.7450158,30.4566401 C14.3667601,31.9011249 9.81403864,35.0685598 6.61416634,39.2670632 C3.4142941,43.4655665 1.56727099,48.6951382 1.60041192,54.2638967 L3.52430617,377.544635 C3.55082686,382.001028 5.08644227,386.164837 7.69658735,389.483532 C10.3067324,392.802226 13.9914072,395.275806 18.3160465,396.351738 C35.1328555,400.535614 47.2486504,403.217136 54.6637009,404.394853 C55.7355669,404.565095 56.5392057,404.375244 57.2115462,403.923538 C58.1615445,403.285291 58.8598709,402.175254 59.6767643,400.914215 C61.2837561,398.433501 63.2816101,395.377783 67.8808554,393.628764 C71.0087065,392.439292 75.3578962,391.854335 81.6520989,392.511212 C97.0048089,394.113456 100.138818,400.692472 102.438111,405.463928 C103.163372,406.968979 103.786963,408.295317 104.733397,409.18651 C105.409377,409.823033 106.257655,410.219512 107.440241,410.288656 C108.758694,410.365744 110.059752,410.443112 111.348527,410.51975 C121.666391,411.133311 131.196095,411.700244 142.566754,411.700244 C147.082238,411.700244 151.148253,411.786589 155.03777,411.869215 C162.311706,412.023737 168.966704,412.165565 176.79784,411.701121 C179.103746,411.564364 180.662232,409.405833 182.689896,406.776644 C186.251803,402.158064 191.079082,395.922852 202.43356,394.346537 C213.365698,392.828853 218.148171,397.794698 221.971425,401.78202 C224.38555,404.299742 226.371316,406.497828 229.540348,405.920972 C236.129134,404.721619 248.659446,401.61076 267.131637,396.590116 C271.377521,395.436107 274.973908,392.93173 277.508823,389.615876 C280.043738,386.300022 281.517182,382.172691 281.517182,377.772774 L281.517182,54.1486432 C281.517182,48.607215 279.657168,43.4108335 276.459237,39.2403733 C273.261306,35.0699131 268.725459,31.9253742 263.373793,30.4876311 C205.966807,15.0650491 165.343157,7.34625544 141.501718,7.34625544 Z" id="Rectangle" stroke="#979797" fill="#D8D8D8"></path>
                <g id="Path-31" transform="translate(0.986254, 6.637449)">
                    <path d="M45.3481467,389.53157 C68.0222431,397.377204 100.658949,401.30002 143.258266,401.30002 C185.857582,401.30002 218.494289,397.377204 241.168385,389.53157 L214.806884,368.848333 L51.9391868,368.848333 L45.3481467,389.53157 Z" id="Path-33" fill="#385265"></path>
                    <mask id="mask-2" fill="white">
                        <use xlink:href="#path-1"></use>
                    </mask>
                    <use id="Mask" fill="#6A889F" xlink:href="#path-1"></use>
                    <path d="M0,59.7990861 L95.3724524,3.12052437 L137.339849,-3.95294118 L187.7532,3.12052437 L281.030928,59.7990861 C216.462534,54.0004154 168.565507,51.10108 137.339849,51.10108 C106.11419,51.10108 60.3342404,54.0004154 0,59.7990861 Z" fill="#A3B9CB" mask="url(#mask-2)"></path>
                </g>
                <path d="M132,0.522425684 L152,0.522425684 L152,10.6945925 C150.495367,11.9131479 147.162034,12.5224257 142,12.5224257 C136.837966,12.5224257 133.504633,11.9131479 132,10.6945925 L132,0.522425684 Z" id="Rectangle" fill="#385265"></path>
            </g>
        </g>
    </g>
</svg>