<svg width="18" height="18" viewBox="0 0 18 18" xmlns="http://www.w3.org/2000/svg">
  <path d="M17 0a1 1 0 011 1v16a1 1 0 01-1 1H1a1 1 0 01-1-1V1a1 1 0 011-1zM8.694 4.737c-1.218 0-2.08.076-2.694.178v8.452h1.953v-3.062c.191.026.43.038.69.038 1.178 0 2.194-.28 2.876-.902.523-.484.812-1.195.811-2.034 0-.84-.378-1.552-.942-1.984-.588-.457-1.464-.686-2.694-.686zm.093 1.461c.994 0 1.558.471 1.558 1.26 0 .876-.654 1.398-1.715 1.398-.288 0-.486-.013-.677-.05V6.274c.153-.038.429-.077.834-.077z"/>
</svg>
