<?xml version="1.0" encoding="UTF-8"?>
<svg width="545px" height="496px" viewBox="0 0 545 496" version="1.1" xmlns="http://www.w3.org/2000/svg" xmlns:xlink="http://www.w3.org/1999/xlink">
    <g id="Page-1" stroke="none" stroke-width="1" fill="none" fill-rule="evenodd">
        <g id="Group-3" transform="translate(0.129483, 0.000000)" fill="#2e2e49" fill-rule="nonzero">
            <path d="M210.128097,23.918 C205.366397,9.637 192.023097,0 176.948097,0 C161.873097,0 148.483097,9.6367 143.745097,23.918 L1.80509737,449.748 C-4.30820263,468.064 5.60979737,487.928 23.9500974,493.99 C42.3370974,500.1541 62.0980974,490.2166 68.2120974,471.877 L100.134097,376.115 C100.552067,376.154062 100.903627,376.24781 101.321597,376.24781 L253.831597,376.24781 L285.706597,471.91581 C290.581597,486.56781 304.237597,495.83381 318.909597,495.83381 C322.573697,495.83381 326.307997,495.27522 329.968597,494.00961 C348.331597,487.90021 358.230597,468.11461 352.113597,449.77161 L210.128097,23.918 Z M123.374097,306.248 L176.901097,145.668 L230.428097,306.248 L123.374097,306.248 Z" id="Shape"></path>
            <path d="M461.938097,149.218 C428.946097,149.218 408.254097,164.991 391.403097,179.808 C376.868097,192.593 375.442097,214.691 388.207797,229.206 C400.922797,243.718 423.066797,245.167 437.605797,232.4013 C450.531797,221.0613 454.773797,219.2643 461.894797,219.2643 C467.726797,219.2643 470.156497,220.2682 470.363597,220.01039 C472.066697,222.45959 473.070597,228.33849 473.695597,235.40839 C384.472597,250.99039 343.755597,323.49039 343.755597,376.82839 C343.755597,456.62939 404.446597,493.00839 460.815597,493.00839 L509.624597,493.00839 C528.991597,493.00839 544.624597,477.32839 544.624597,458.00839 L544.620691,267.25839 C544.605066,225.95739 544.605066,149.218 461.932691,149.218 L461.938097,149.218 Z M413.778003,376.738 C413.778003,360.683 425.911097,319.945 474.606097,306.504 L474.610003,422.914 L460.801003,422.914 C439.328003,422.914 413.778003,414.8867 413.778003,376.738 L413.778003,376.738 Z" id="Shape"></path>
        </g>
    </g>
</svg>
