<?xml version="1.0" encoding="UTF-8"?>
<svg width="7px" height="12px" viewBox="0 0 7 12" version="1.1" xmlns="http://www.w3.org/2000/svg" xmlns:xlink="http://www.w3.org/1999/xlink">
    <!-- Generator: Sketch 49.3 (51167) - http://www.bohemiancoding.com/sketch -->
    <title>Group 5</title>
    <desc>Created with Sketch.</desc>
    <defs></defs>
    <g id="Page-1" stroke="none" stroke-width="1" fill="none" fill-rule="evenodd">
        <g id="Workorder_View_Dropdown_Rearrange" transform="translate(-559.000000, -247.000000)" fill="#D8D8D8">
            <g id="Group" transform="translate(390.000000, 236.000000)">
                <g id="Group-5" transform="translate(169.000000, 11.000000)">
                    <path d="M1.16666667,2.4 C0.522334459,2.4 0,1.8627417 0,1.2 C0,0.5372583 0.522334459,0 1.16666667,0 C1.81099887,0 2.33333333,0.5372583 2.33333333,1.2 C2.33333333,1.8627417 1.81099887,2.4 1.16666667,2.4 Z M1.16666667,7.2 C0.522334459,7.2 0,6.6627417 0,6 C0,5.3372583 0.522334459,4.8 1.16666667,4.8 C1.81099887,4.8 2.33333333,5.3372583 2.33333333,6 C2.33333333,6.6627417 1.81099887,7.2 1.16666667,7.2 Z M1.16666667,12 C0.522334459,12 0,11.4627417 0,10.8 C0,10.1372583 0.522334459,9.6 1.16666667,9.6 C1.81099887,9.6 2.33333333,10.1372583 2.33333333,10.8 C2.33333333,11.4627417 1.81099887,12 1.16666667,12 Z M5.83333333,2.4 C5.18900113,2.4 4.66666667,1.8627417 4.66666667,1.2 C4.66666667,0.5372583 5.18900113,0 5.83333333,0 C6.47766554,0 7,0.5372583 7,1.2 C7,1.8627417 6.47766554,2.4 5.83333333,2.4 Z M5.83333333,7.2 C5.18900113,7.2 4.66666667,6.6627417 4.66666667,6 C4.66666667,5.3372583 5.18900113,4.8 5.83333333,4.8 C6.47766554,4.8 7,5.3372583 7,6 C7,6.6627417 6.47766554,7.2 5.83333333,7.2 Z M5.83333333,12 C5.18900113,12 4.66666667,11.4627417 4.66666667,10.8 C4.66666667,10.1372583 5.18900113,9.6 5.83333333,9.6 C6.47766554,9.6 7,10.1372583 7,10.8 C7,11.4627417 6.47766554,12 5.83333333,12 Z" id="Combined-Shape"></path>
                </g>
            </g>
        </g>
    </g>
</svg>