<svg viewBox="0 0 12 19" xmlns="http://www.w3.org/2000/svg">
  <g fill="none" fill-rule="evenodd">
    <path d="M6 1.2a5.5 5.5 0 00-3.8 9.5h0c1 1 1.3 1.6 1.5 2.3v1.4l.3.3h4l.2-.3v-.5-.8c.3-.8.7-1.3 1.6-2.4h0l.5-.6A5.5 5.5 0 006 1.2z" stroke="#000" fill="#FFFB36" fill-rule="nonzero"/>
    <path d="M6 5.5v2.7" stroke="#000" stroke-width="2" stroke-linecap="round"/>
    <path d="M8 15.4H4a.8.8 0 000 1.5h4a.8.8 0 100-1.5zM7 17H5a.8.8 0 000 1.6h2a.8.8 0 000-1.5z" fill="#000" fill-rule="nonzero"/>
  </g>
</svg>
