<svg width="87" height="72" viewBox="0 0 87 72" xmlns="http://www.w3.org/2000/svg"><g fill="none" fill-rule="evenodd"><g transform="translate(-.501)"><path fill="#BCBCE2" d="M20.514 28.843h2.275v-4.077h-2.275z"/><path fill="#BCBCE2" d="M21.152 42.896h1.637V28.842h-1.637z"/><path stroke="#7176C4" stroke-linecap="round" stroke-linejoin="round" d="M1.001 64.052h82.874M55.189 70.686h10.86M21.827 70.686H46.08M5.468 61.657h17.321V45.29H5.468zM22.789 64.052H5.197a1.197 1.197 0 010-2.395h17.592v2.395z"/><path fill="#DBDBF3" d="M7.143 61.16h15.646V45.355H7.143z"/><path d="M22.789 45.29H5.197a1.197 1.197 0 010-2.394h17.592v2.394z" stroke="#7176C4" stroke-linecap="round" stroke-linejoin="round"/><path d="M48.67 7.85a1.981 1.981 0 00-1.982-1.98h-3.465a1.98 1.98 0 00-1.98 1.98c0 .934-.652 1.74-1.564 1.938l-4.473.968v4.01H54.704v-4.01l-4.473-.968A1.982 1.982 0 0148.67 7.85" fill="#FFF"/><path fill-opacity=".2" fill="#7176C4" d="M18.259 63.706h4.53v-19.81h-4.53z"/><path fill="#DBDBF3" d="M14.348 36.764l-2.574.529-2.733-13.302 2.573-.53z"/><path fill="#BCBCE2" d="M11.045 22.502l-2.573.53-.485-2.36 2.573-.529z"/><path fill="#DBDBF3" d="M15.608 42.898h-2.68l-.58-2.8-.57-2.8v-.01l-.13-.61 2.57-.53.13.62.57 2.8z"/><path stroke="#7176C4" stroke-linecap="round" stroke-linejoin="round" d="M14.348 36.764l-3.646.749-2.946-14.335 3.646-.749z"/><path fill="#BCBCE2" d="M14.348 36.764l-2.574.529.578 2.808 2.573-.529z"/><path fill="#FFF" d="M13.22 36.996l-.627.128.577 2.81.627-.13z"/><path stroke="#7176C4" stroke-linecap="round" stroke-linejoin="round" d="M15.608 42.898h-3.8l-.53-2.58 1.07-.22.82-.17.11-.02.52-.11 1.12-.23h.01z"/><path stroke="#7176C4" stroke-linecap="round" stroke-linejoin="round" d="M14.348 36.764l-3.646.749.578 2.808 3.646-.749zM10.201 20.217l-2.214.455.485 2.36 2.214-.456z"/><path stroke="#7176C4" stroke-linecap="round" stroke-linejoin="round" d="M7.756 23.178l5.787-1.189 2.946 14.335-.954-1.004.465-1.378M19.515 42.896h3.274V23.573h-3.274z"/><path stroke="#7176C4" stroke-linecap="round" stroke-linejoin="round" d="M19.515 42.896h3.274V28.842h-3.274z"/><circle fill="#DBDBF3" cx="78.162" cy="19.869" r="3"/><path fill-opacity=".5" fill="#DBDBF3" d="M16.82.207l3.974 2.113-2.113 3.973-3.973-2.113z"/><circle fill="#DBDBF3" cx="2.751" cy="36.25" r="2.25"/></g><path d="M70.22 13.202l-48.494.179v-3.257c0-.835.677-1.512 1.512-1.512l46.983-.18v4.77z" fill="#DBDBF3"/><path d="M20.396 21.393V9a2 2 0 012-2h45.927a2 2 0 012 2v26.612" stroke="#7176C4" stroke-linecap="round" stroke-linejoin="round"/><path fill="#AAAAE2" opacity=".5" d="M31.001 22.824h28.027V21H31.001z"/><path fill-opacity=".5" fill="#DBDBF3" d="M31.001 27.824h28.027V26H31.001zM31 32.847h14.014v-1.823H31z"/><path fill="#AAAAE2" opacity=".5" d="M31.001 40.87H53.5v-1.824H31.001z"/><path fill-opacity=".5" fill="#DBDBF3" d="M31.001 45.87h17.916v-1.824H31zM31 50.893h14.014v-1.824H31z"/><path d="M79.353 57.205v3.168a.4.4 0 01-.603.345l-11.577-6.803H61.02a2.667 2.667 0 01-2.666-2.666v-1.177l9.074.302 11.72 6.48a.4.4 0 01.206.35zM53.353 48.072h5v4h-5z" fill="#DBDBF3"/><path d="M79.353 33.797v26.58a.4.4 0 01-.602.345l-11.578-6.736h0-6.154a2.667 2.667 0 01-2.666-2.667v-8.048a2.667 2.667 0 012.666-2.667h6.408l11.312-7.145a.4.4 0 01.614.338z" stroke="#7176C4"/><path d="M58.353 43.072h-3.667c-.737 0-1.333.597-1.333 1.333v6.333c0 .737.596 1.334 1.333 1.334h3.667M62.353 54.072v9.58c0 .221.179.4.4.4h3.2a.4.4 0 00.4-.4v-9.58h0M67.353 40.072v14" stroke="#7176C4"/><path stroke="#7176C4" stroke-linecap="round" d="M82.353 42.072l3-2M82.353 52.072l3 2M83.353 47.072h3"/><path d="M24.653 10.467a.352.352 0 11-.703-.001.352.352 0 01.703.001zM27.653 10.467a.352.352 0 11-.703-.001.352.352 0 01.703.001zM30.653 10.467a.352.352 0 11-.703-.001.352.352 0 01.703.001z" stroke="#7176C4" stroke-linecap="round" stroke-linejoin="round"/><path stroke="#7176C4" d="M70.221 13.38H20.5"/><path stroke="#7176C4" stroke-linecap="round" stroke-linejoin="round" d="M22.288 42.896v20.287"/></g></svg>