<?xml version="1.0" encoding="UTF-8"?>
<svg width="512px" height="512px" viewBox="0 0 512 512" version="1.1" xmlns="http://www.w3.org/2000/svg" xmlns:xlink="http://www.w3.org/1999/xlink">
    <!-- Generator: Sketch 59 (86127) - https://sketch.com -->
    <title>sites</title>
    <desc>Created with Sketch.</desc>
    <g id="sites" stroke="none" stroke-width="1" fill="none" fill-rule="evenodd">
        <g fill="#000000" fill-rule="nonzero" id="Shape">
            <path d="M182.877188,182.877188 L36.632636,182.877188 L36.632636,475.367364 L182.877188,475.367364 L182.877188,402.244552 L91.474477,402.244552 C81.3780084,402.244552 73.1935063,394.061121 73.1935063,383.964653 C73.1935063,373.868184 81.3780084,365.683682 91.474477,365.683682 L182.877188,365.683682 L182.877188,292.56087 L91.474477,292.56087 C81.3780084,292.56087 73.1935063,284.377439 73.1935063,274.280971 C73.1935063,264.184502 81.3780084,256 91.474477,256 L182.877188,256 L182.877188,182.877188 Z M182.877188,182.877188 L182.877188,146.316318 L182.877188,182.877188 Z M201.158159,511.928234 L18.3516653,511.928234 C8.25626778,511.928234 0.0717656904,503.744803 0.0717656904,493.648335 L0.0717656904,164.597289 C0.0717656904,154.50082 8.25519665,146.316318 18.3516653,146.316318 L182.877188,146.316318 L182.877188,18.3516653 C182.877188,8.25626778 191.06169,0.0717656904 201.158159,0.0717656904 L493.648335,0.0717656904 C503.743732,0.0717656904 511.928234,8.25519665 511.928234,18.3516653 L511.928234,493.648335 C511.928234,503.743732 503.744803,511.928234 493.648335,511.928234 L201.158159,511.928234 Z M219.43913,164.597289 L219.43913,383.964653 L475.367364,383.964653 L475.367364,36.632636 L219.43913,36.632636 L219.43913,164.597289 Z M219.43913,475.367364 L475.367364,475.367364 L475.367364,420.525523 L219.43913,420.525523 L219.43913,475.367364 Z M274.280971,128.035347 C274.280971,117.93995 282.464402,109.755448 292.56087,109.755448 C302.657339,109.755448 310.841841,117.938879 310.841841,128.035347 L310.841841,310.841841 C310.841841,320.93831 302.657339,329.122812 292.56087,329.122812 C282.465473,329.122812 274.280971,320.93831 274.280971,310.841841 L274.280971,128.035347 Z M383.964653,128.035347 C383.964653,117.93995 392.148084,109.755448 402.244552,109.755448 C412.341021,109.755448 420.525523,117.938879 420.525523,128.035347 L420.525523,310.841841 C420.525523,320.93831 412.341021,329.122812 402.244552,329.122812 C392.149155,329.122812 383.964653,320.93831 383.964653,310.841841 L383.964653,128.035347 Z"></path>
        </g>
    </g>
</svg>