<svg viewBox="0 0 40 40" xmlns="http://www.w3.org/2000/svg">
  <path d="M39.553 26.528c.31.541.151 1.222-.347 1.575l-.097.062-1.055.606a.49.49 0 00-.067.81l.067.046 1.055.606c.808.464 1.11 1.47.709 2.297l-.062.116-2.273 3.914a1.763 1.763 0 01-2.287.705l-.116-.061-1.055-.606a.512.512 0 00-.763.354l-.005.074v1.211c0 .934-.725 1.694-1.638 1.759l-.125.004h-4.546c-.93 0-1.694-.72-1.759-1.637l-.004-.126v-1.21c0-.357-.37-.593-.7-.462l-.07.033-1.054.606c-.802.46-1.818.22-2.332-.533l-.07-.11-2.273-3.915a1.763 1.763 0 01.534-2.343l.112-.07 1.055-.606a.49.49 0 00.067-.81l-.067-.046-1.055-.606a1.202 1.202 0 01-.444-1.637c.29-.508.894-.723 1.426-.54l.105.042.103.052 1.055.606c1.894 1.087 1.94 3.773.138 4.938l-.138.084-.499.286 1.634 2.814.514-.295c1.891-1.085 4.248.22 4.35 2.367l.003.144v.573h3.283v-.573c0-2.183 2.315-3.56 4.226-2.58l.127.07.513.294 1.635-2.814-.498-.286c-1.894-1.087-1.941-3.773-.14-4.938l.14-.084 1.055-.606a1.195 1.195 0 011.633.446zM34.893 0a5.114 5.114 0 015.104 4.937L40 5.12v10.962c0 .619-.5 1.12-1.117 1.12-.581 0-1.058-.444-1.112-1.012l-.006-.108V5.12a2.877 2.877 0 00-2.72-2.876l-.152-.004H5.107A2.876 2.876 0 002.24 4.968l-.004.152-.001 5.314h25.39a2.716 2.716 0 012.71 2.571l.004.15-.001 8.815 2.91-2.812a1.115 1.115 0 011.58.029c.402.417.416 1.067.05 1.5l-.078.084-5.557 5.371-5.857-5.35a1.122 1.122 0 01-.074-1.582 1.115 1.115 0 011.49-.146l.089.072 3.213 2.935v-8.916a.48.48 0 00-.4-.474l-.078-.006-25.391-.001v22.194a2.877 2.877 0 002.72 2.876l.153.004H15.28c.617 0 1.117.502 1.117 1.12a1.12 1.12 0 01-1.01 1.115l-.107.005H5.107a5.114 5.114 0 01-5.104-4.937L0 34.868V5.12A5.115 5.115 0 014.924.003L5.107 0h29.786zm-2.758 27.953c.661 0 1.197.537 1.197 1.2a4.12 4.12 0 01-4.111 4.122 4.12 4.12 0 01-4.112-4.122c0-.663.536-1.2 1.197-1.2.622 0 1.134.476 1.192 1.084l.005.116c0 .948.772 1.722 1.718 1.722.905 0 1.65-.708 1.713-1.6l.004-.122c0-.663.536-1.2 1.197-1.2zM6.471 4.8c.881 0 1.596.716 1.596 1.6 0 .884-.715 1.6-1.596 1.6a1.598 1.598 0 01-1.596-1.6c0-.884.714-1.6 1.596-1.6zm4.788 0c.882 0 1.596.716 1.596 1.6 0 .884-.714 1.6-1.596 1.6a1.598 1.598 0 01-1.596-1.6c0-.884.715-1.6 1.596-1.6zm4.789 0c.881 0 1.596.716 1.596 1.6 0 .884-.715 1.6-1.596 1.6a1.598 1.598 0 01-1.597-1.6c0-.884.715-1.6 1.597-1.6z" fill-rule="nonzero"/>
</svg>
