<?xml version="1.0" encoding="UTF-8"?>
<svg id="Layer_1" data-name="Layer 1" xmlns="http://www.w3.org/2000/svg" viewBox="0 0 2000 95">
  <defs>
    <style>
      .cls-1 {
        fill: none;
      }

      .cls-2 {
        fill: #e7edfa;
      }

      .cls-3 {
        fill: #c3d2f2;
      }

      .cls-4 {
        fill: #7198e2;
      }

      .cls-5 {
        fill: #487cd8;
      }
    </style>
  </defs>
  <rect class="cls-2" width="2000" height="95"/>
  <g>
    <path class="cls-3" d="M1328.23,34.62c-8.26-5.42-19.22-4.31-24.4-3.36-.85,.16-1.54,.65-1.97,1.31-.43,.66-.61,1.49-.41,2.33,1.19,5.14,4.53,15.63,12.79,21.05,5.61,3.68,13.29,1.89,17.15-4s2.45-13.65-3.16-17.33Zm1.49,16.23c-3.25,4.96-9.71,6.5-14.39,3.43-2.61-1.71-8.99-7.07-11.94-19.83-.09-.37,.05-.65,.14-.78,.09-.13,.29-.37,.66-.44,12.88-2.37,20.34,1.35,22.94,3.06,4.68,3.07,5.84,9.6,2.58,14.56Z"/>
    <path class="cls-3" d="M1327.03,48.6c-.46-.3-1.08-.17-1.38,.29-1.72,2.62-5.13,3.43-7.6,1.81-.46-.3-1.08-.17-1.38,.29-.3,.46-.17,1.08,.29,1.38,3.39,2.23,8.05,1.16,10.37-2.38,.3-.46,.17-1.08-.29-1.38Z"/>
    <path class="cls-3" d="M616.85,20.92c-8.26-5.42-19.22-4.31-24.4-3.36-.85,.16-1.54,.65-1.97,1.31-.43,.66-.61,1.49-.41,2.33,1.19,5.14,4.53,15.63,12.79,21.05,5.61,3.68,13.29,1.89,17.15-4s2.45-13.65-3.16-17.33Zm1.49,16.23c-3.25,4.96-9.71,6.5-14.39,3.43-2.61-1.71-8.99-7.07-11.94-19.83-.09-.37,.05-.65,.14-.78,.09-.13,.29-.37,.66-.44,12.88-2.37,20.34,1.35,22.94,3.06,4.68,3.07,5.84,9.6,2.58,14.56Z"/>
    <path class="cls-3" d="M615.65,34.9c-.46-.3-1.08-.17-1.38,.29-1.72,2.62-5.13,3.43-7.6,1.81-.46-.3-1.08-.17-1.38,.29-.3,.46-.17,1.08,.29,1.38,3.39,2.23,8.05,1.16,10.37-2.38,.3-.46,.17-1.08-.29-1.38Z"/>
    <path class="cls-3" d="M847.17,10.26c-.77-.38-1.62-.4-2.36-.12-.74,.27-1.38,.84-1.72,1.63-2.1,4.83-5.66,15.26-2.25,24.53,2.32,6.3,9.55,9.43,16.17,7,6.61-2.43,10.1-9.51,7.78-15.8-3.41-9.27-12.87-14.91-17.61-17.23Zm9.14,31.15c-5.57,2.05-11.67-.56-13.6-5.81-1.08-2.93-3.02-11.03,2.21-23.04,.15-.35,.43-.49,.58-.55,.15-.06,.45-.12,.79,.04,11.76,5.76,15.54,13.19,16.61,16.12,1.93,5.25-1.03,11.19-6.59,13.24Z"/>
    <path class="cls-3" d="M854.21,37.41c-2.94,1.08-6.16-.3-7.18-3.07-.19-.52-.77-.78-1.28-.59s-.78,.77-.59,1.28c1.4,3.81,5.78,5.72,9.75,4.26,.52-.19,.78-.77,.59-1.28s-.77-.78-1.28-.59Z"/>
    <path class="cls-3" d="M220.22,25.75c-.11-9.88-7.15-18.35-10.83-22.12-.6-.61-1.4-.92-2.19-.91-.79,0-1.58,.33-2.17,.96-3.6,3.85-10.44,12.49-10.33,22.36,.08,6.71,5.85,12.08,12.9,12s12.69-5.58,12.62-12.29Zm-12.64,10.29c-5.93,.07-10.81-4.43-10.87-10.02-.04-3.12,.85-11.41,9.79-20.98,.26-.28,.57-.32,.73-.32,.16,0,.47,.04,.73,.31,9.16,9.36,10.23,17.63,10.26,20.75,.06,5.59-4.71,10.2-10.64,10.27Z"/>
    <path class="cls-3" d="M207.96,32.55c0-.55-.46-.99-1.01-.99-3.13,.04-5.71-2.34-5.74-5.3,0-.55-.46-.99-1.01-.99-.55,0-.99,.46-.99,1.01,.05,4.06,3.53,7.32,7.77,7.27,.55,0,.99-.46,.99-1.01Z"/>
    <path class="cls-3" d="M411.22,45.79c-.77-.38-1.62-.4-2.36-.12-.74,.27-1.38,.84-1.72,1.63-2.1,4.83-5.66,15.26-2.25,24.53,2.32,6.3,9.55,9.43,16.17,7,6.61-2.43,10.1-9.51,7.78-15.8-3.41-9.27-12.87-14.91-17.61-17.23Zm9.14,31.15c-5.57,2.05-11.67-.56-13.6-5.81-1.08-2.93-3.02-11.03,2.21-23.04,.15-.35,.43-.49,.58-.55,.15-.06,.45-.12,.79,.04,11.76,5.76,15.54,13.19,16.61,16.12,1.93,5.25-1.03,11.19-6.59,13.24Z"/>
    <path class="cls-3" d="M418.26,72.94c-2.94,1.08-6.16-.3-7.18-3.07-.19-.52-.77-.78-1.28-.59s-.78,.77-.59,1.28c1.4,3.81,5.78,5.72,9.75,4.26,.52-.19,.78-.77,.59-1.28s-.77-.78-1.28-.59Z"/>
  </g>
  <g>
    <path class="cls-1" d="M270.98,69.94c64.18,.91,107.86,3.1,156.78,4.86,83.1-4.9,159.72-12.07,233.27-14.05,51.12-1.37,109.73,2.51,183.54,4.46,148.05-17.08,258.91-49.3,347.91-62.39,6.65-.98,13.15-1.92,19.51-2.82H0V95H2.43s123.94-27.1,268.55-25.06Z"/>
    <path class="cls-1" d="M2.43,95H1562.27c.14-.02,.29-.04,.43-.06l-1560.27,.06Z"/>
    <path class="cls-4" d="M687.01,75.9c56.85-1.15,109.19-5.12,157.57-10.7-73.81-1.95-132.42-5.83-183.54-4.46-73.55,1.97-150.17,9.14-233.27,14.05,61.31,2.2,130.84,3.7,259.24,1.11Z"/>
    <path class="cls-4" d="M844.57,65.21c90.93,2.41,204.95,1.89,356.53-14.98C1350.53,33.6,1455.43,14.22,1520.03,0h-308.04c-6.37,.9-12.86,1.84-19.51,2.82-89,13.08-199.86,45.31-347.91,62.39Z"/>
    <path class="cls-4" d="M427.76,74.79c-48.92-1.75-92.6-3.95-156.78-4.86C126.37,67.9,2.43,95,2.43,95c0,0,157.77-14.39,294.03-15.47,45.72-.36,89.34-2.26,131.3-4.74Z"/>
    <path class="cls-5" d="M1600,0h-79.97c-64.6,14.22-169.5,33.6-318.93,50.23-151.58,16.87-265.6,17.38-356.53,14.98-48.38,5.58-100.71,9.55-157.57,10.7-128.4,2.59-197.93,1.09-259.24-1.11-41.97,2.48-85.58,4.38-131.3,4.74C160.2,80.61,2.43,95,2.43,95l1560.27-.06c9.88-1.39,19.82-2.79,29.77-4.18,2.51-.35,5.02-.7,7.53-1.05,63.13-8.83,125.89-17.46,174.67-23.86,101.52-13.31,181.91,5.18,225.33,19.54V0h-400Z"/>
    <path class="cls-4" d="M1562.7,94.94c-.14,.02-.29,.04-.43,.06h30.2v-.06h-29.77Z"/>
    <path class="cls-4" d="M1592.47,90.76c-9.95,1.39-19.89,2.79-29.77,4.18h29.77v-4.18Z"/>
    <path class="cls-4" d="M1774.67,65.85c-48.78,6.39-111.54,15.03-174.67,23.86v5.23h-7.53v.06h407.53v-9.61c-43.42-14.36-123.81-32.85-225.33-19.54Z"/>
    <path class="cls-4" d="M1600,94.94v-5.23c-2.51,.35-5.02,.7-7.53,1.05v4.18h7.53Z"/>
  </g>
</svg>