<?xml version="1.0" encoding="UTF-8"?>
<svg width="1106px" height="191px" viewBox="0 0 1106 191" version="1.1" xmlns="http://www.w3.org/2000/svg" xmlns:xlink="http://www.w3.org/1999/xlink">
    <title>Group</title>
    <g id="Page-2" stroke="none" stroke-width="1" fill="none" fill-rule="evenodd">
        <g id="Artboard" transform="translate(-2220.000000, -1762.000000)" fill="#D7E0FD" fill-rule="nonzero">
            <g id="Group" transform="translate(2220.000000, 1762.000000)">
                <g transform="translate(484.580000, 20.930701)">
                    <g transform="translate(72.579953, -0.000000)">
                        <g id="Shape">
                            <path d="M23.3400473,33.509299 C22.7500473,33.509299 22.0900473,33.279299 21.2300473,32.939299 C19.0100473,32.039299 19.2300473,30.049299 19.4500473,27.939299 C19.4900473,27.579299 19.5300473,27.199299 19.5700473,26.789299 C19.6900473,25.399299 19.3000473,23.669299 18.1300473,23.159299 C16.6500473,22.509299 15.0700473,22.149299 11.6300473,21.349299 L11.0400473,21.209299 C7.14004726,20.309299 4.26004726,19.349299 4.14004726,19.309299 C3.92004726,19.239299 3.74004726,19.089299 3.62004726,18.899299 C3.42004726,18.579299 -1.33995274,11.099299 0.370047255,5.63929898 C1.01004726,3.60929898 2.43004726,2.11929898 4.60004726,1.21929898 C13.7100473,-2.55070102 24.8300473,3.10929898 28.7900473,8.82929898 C31.3200473,12.479299 31.5700473,15.079299 31.3600473,16.579299 C33.1900473,16.839299 35.4700473,18.049299 36.1300473,21.469299 C36.9800473,25.929299 35.3300473,28.509299 34.8300473,29.159299 C34.7100473,29.449299 34.4600473,29.669299 34.1500473,29.749299 C33.8300473,29.829299 33.5000473,29.749299 33.2600473,29.539299 C33.0000473,29.309299 32.7400473,29.149299 32.4800473,29.029299 C29.2400473,27.609299 27.4300473,29.399299 25.9600473,31.539299 C24.9600473,32.989299 24.2400473,33.509299 23.3400473,33.509299 Z M5.12004726,17.529299 C5.99004726,17.809299 8.45004726,18.559299 11.5000473,19.269299 L12.0900473,19.409299 C15.6600473,20.239299 17.2900473,20.609299 18.9500473,21.339299 C21.0300473,22.249299 21.7700473,24.829299 21.5800473,26.979299 C21.5400473,27.399299 21.5000473,27.799299 21.4600473,28.169299 C21.2100473,30.459299 21.2800473,30.809299 22.0000473,31.099299 C23.4500473,31.689299 23.4500473,31.679299 24.3100473,30.439299 C25.2400473,29.089299 28.0800473,24.959299 33.2800473,27.229299 C33.3900473,27.279299 33.5100473,27.329299 33.6200473,27.389299 C34.0800473,26.509299 34.7100473,24.689299 34.1700473,21.869299 C33.4800473,18.269299 30.5100473,18.529299 30.1800473,18.569299 C29.8000473,18.609299 29.4300473,18.439299 29.2200473,18.119299 C29.0200473,17.809299 29.0000473,17.409299 29.1800473,17.079299 C29.2200473,16.999299 30.3500473,14.599299 27.1500473,9.97929898 C23.6500473,4.93929898 13.4300473,-0.260701019 5.36004726,3.07929898 C3.74004726,3.74929898 2.74004726,4.77929898 2.28004726,6.23929898 C1.01004726,10.269299 4.30004726,16.149299 5.12004726,17.529299 Z"></path>
                            <path d="M16.1700473,47.109299 C11.0700473,47.109299 6.72004726,44.949299 3.86004726,40.869299 C-0.859952745,34.139299 -0.949952745,26.629299 3.57004726,17.899299 C3.80004726,17.459299 4.31004726,17.259299 4.77004726,17.409299 C4.80004726,17.419299 7.69004726,18.379299 11.4900473,19.259299 L12.0800473,19.399299 C15.6500473,20.229299 17.2800473,20.599299 18.9400473,21.329299 C21.0200473,22.239299 21.7600473,24.819299 21.5700473,26.969299 C21.5300473,27.389299 21.4900473,27.789299 21.4500473,28.159299 C21.2000473,30.449299 21.2700473,30.799299 21.9900473,31.089299 C23.4400473,31.679299 23.4400473,31.669299 24.3000473,30.429299 C25.2300473,29.079299 28.0700473,24.949299 33.2700473,27.219299 C33.7200473,27.419299 34.1400473,27.679299 34.5500473,28.039299 C35.8800473,29.179299 36.6300473,31.029299 36.6100473,33.109299 C36.5800473,35.709299 35.4000473,38.219299 33.4500473,39.819299 C31.9400473,40.879299 30.3000473,41.599299 29.6600473,41.859299 C28.9700473,42.699299 26.5000473,45.219299 20.8600473,46.549299 C19.2400473,46.929299 17.6700473,47.109299 16.1700473,47.109299 Z M4.97004726,19.579299 C1.21004726,27.259299 1.39004726,33.859299 5.50004726,39.729299 C8.75004726,44.369299 14.0400473,46.099299 20.4000473,44.599299 C26.2400473,43.219299 28.1900473,40.489299 28.2100473,40.469299 C28.3300473,40.299299 28.5000473,40.169299 28.6900473,40.099299 C28.7100473,40.089299 30.6400473,39.359299 32.2500473,38.229299 C33.6700473,37.059299 34.6000473,35.079299 34.6200473,33.089299 C34.6400473,31.599299 34.1400473,30.309299 33.2600473,29.559299 C33.2600473,29.559299 33.2600473,29.559299 33.2600473,29.559299 C33.0000473,29.329299 32.7400473,29.169299 32.4800473,29.049299 C29.2400473,27.629299 27.4300473,29.419299 25.9600473,31.559299 C24.3300473,33.919299 23.4300473,33.819299 21.2500473,32.939299 C19.0300473,32.039299 19.2500473,30.049299 19.4700473,27.939299 C19.5100473,27.579299 19.5500473,27.199299 19.5900473,26.789299 C19.7100473,25.399299 19.3200473,23.669299 18.1500473,23.159299 C16.6700473,22.509299 15.0900473,22.149299 11.6500473,21.349299 L11.0600473,21.209299 C8.33004726,20.589299 6.11004726,19.929299 4.97004726,19.579299 Z"></path>
                        </g>
                        <path d="M27.0700473,34.229299 C26.9100473,34.229299 26.7400473,34.189299 26.5900473,34.109299 C26.1100473,33.839299 25.9300473,33.239299 26.2000473,32.749299 C26.2700473,32.619299 27.9600473,29.599299 30.5800473,29.829299 C33.0000473,30.039299 33.9400473,31.449299 34.0400473,31.609299 C34.3300473,32.079299 34.1900473,32.689299 33.7200473,32.989299 C33.2500473,33.279299 32.6400473,33.139299 32.3400473,32.669299 C32.3300473,32.659299 31.8100473,31.939299 30.3900473,31.819299 C29.2900473,31.729299 28.2300473,33.189299 27.9400473,33.719299 C27.7600473,34.039299 27.4200473,34.229299 27.0700473,34.229299 Z" id="Path"></path>
                        <path d="M29.3900473,41.589299 C28.0400473,41.589299 26.0000473,40.959299 23.8000473,38.049299 C23.4700473,37.609299 23.5500473,36.979299 23.9900473,36.649299 C24.4300473,36.319299 25.0600473,36.399299 25.3900473,36.839299 C28.1000473,40.409299 30.0300473,39.499299 30.1100473,39.459299 C30.5900473,39.219299 31.2000473,39.399299 31.4500473,39.879299 C31.7000473,40.359299 31.5500473,40.939299 31.0700473,41.209299 C31.0200473,41.239299 30.3900473,41.589299 29.3900473,41.589299 Z" id="Path"></path>
                    </g>
                    <g opacity="0.5" transform="translate(78.803076, 156.975070)" id="Path">
                        <path d="M0.996924066,12.4342285 C0.796924066,12.4342285 0.596924066,12.3742285 0.416924066,12.2442285 C-0.0330759344,11.9242285 -0.133075934,11.2942285 0.186924066,10.8442285 C0.266924066,10.7442285 2.05692407,8.2342285 4.45692407,5.4142285 C6.87692407,2.5742285 9.34692407,0.3442285 9.45692407,0.2542285 C9.86692407,-0.1157715 10.4969241,-0.0757714999 10.8669241,0.3342285 C11.2369241,0.7442285 11.1969241,1.3742285 10.7869241,1.7442285 C10.7669241,1.7642285 8.30692407,3.9742285 5.97692407,6.7042285 C3.63692407,9.4642285 1.83692407,11.9742285 1.81692407,12.0042285 C1.61692407,12.2842285 1.30692407,12.4342285 0.996924066,12.4342285 Z"></path>
                    </g>
                    <path d="M93.7,169.409299 C93.39,169.409299 93.08,169.259299 92.88,168.989299 C91.95,167.669299 88.24,159.259299 85.6,151.219299 C82.98,143.229299 82.47,138.499299 82.45,138.309299 C82.39,137.759299 82.79,137.269299 83.34,137.209299 C83.89,137.149299 84.38,137.549299 84.44,138.099299 C84.44,138.149299 84.96,142.839299 87.5,150.599299 C90.08,158.479299 93.75,166.769299 94.51,167.839299 C94.83,168.289299 94.72,168.919299 94.27,169.229299 C94.1,169.349299 93.89,169.409299 93.7,169.409299 Z" id="Path"></path>
                    <path d="M30.55,169.729299 C30.4,169.729299 30.26,169.699299 30.12,169.629299 C29.62,169.389299 29.41,168.789299 29.65,168.299299 C29.71,168.179299 35.72,155.759299 43.68,144.529299 C51.61,133.339299 57.44,126.059299 57.5,125.989299 C57.85,125.559299 58.48,125.489299 58.91,125.839299 C59.34,126.189299 59.41,126.819299 59.06,127.249299 C59,127.319299 53.2,134.559299 45.31,145.689299 C37.45,156.779299 31.51,169.049299 31.45,169.179299 C31.27,169.519299 30.92,169.729299 30.55,169.729299 Z" id="Path"></path>
                    <path d="M136.75,169.629299 C136.35,169.629299 135.98,169.389299 135.82,169.009299 C135.79,168.929299 132.38,160.529299 129.21,150.629299 C126,140.629299 125.68,127.819299 125.66,127.279299 C125.65,126.729299 126.08,126.269299 126.64,126.259299 C127.18,126.229299 127.65,126.679299 127.66,127.239299 C127.66,127.369299 127.99,140.309299 131.11,150.029299 C134.26,159.849299 137.64,168.179299 137.67,168.259299 C137.88,168.769299 137.63,169.359299 137.12,169.559299 C137,169.609299 136.87,169.629299 136.75,169.629299 Z" id="Path"></path>
                    <path d="M95.49,116.329299 C95.31,116.329299 95.14,116.279299 94.98,116.189299 C94.71,116.029299 94.53,115.749299 94.5,115.429299 C94.49,115.379299 93.94,110.099299 91.4,103.249299 C88.88,96.439299 83.16,89.689299 83.11,89.619299 C82.93,89.409299 82.85,89.139299 82.88,88.869299 C82.91,88.599299 83.05,88.349299 83.26,88.179299 C83.36,88.099299 93.71,80.039299 95.77,76.799299 C96.07,76.329299 96.68,76.199299 97.15,76.489299 C97.62,76.789299 97.75,77.399299 97.46,77.869299 C95.55,80.869299 87.84,87.099299 85.3,89.119299 C86.93,91.159299 91.14,96.739299 93.29,102.549299 C95.16,107.609299 95.99,111.789299 96.31,113.839299 C99.35,112.349299 107.37,107.949299 110.9,101.379299 C115.45,92.929299 119.9,77.979299 117.48,63.619299 C115.14,49.789299 101.27,41.959299 101.13,41.879299 C100.65,41.609299 100.47,40.999299 100.74,40.519299 C101.01,40.039299 101.62,39.859299 102.1,40.129299 C102.71,40.459299 116.95,48.489299 119.45,63.289299 C121.96,78.139299 117.36,93.599299 112.66,102.329299 C107.93,111.109299 96.37,116.029299 95.88,116.239299 C95.76,116.309299 95.62,116.329299 95.49,116.329299 Z" id="Path"></path>
                    <path d="M128.81,128.259299 C128.8,128.259299 128.78,128.259299 128.77,128.259299 L64.67,125.759299 C64.12,125.739299 63.69,125.269299 63.71,124.719299 C63.73,124.169299 64.21,123.729299 64.75,123.759299 L127.64,126.209299 L120.29,77.229299 C118.31,63.999299 115.7,57.759299 115.67,57.699299 C115.45,57.189299 115.69,56.599299 116.2,56.389299 C116.71,56.169299 117.29,56.409299 117.51,56.919299 C117.62,57.179299 120.24,63.419299 122.27,76.939299 L129.8,127.119299 C129.84,127.409299 129.76,127.709299 129.56,127.939299 C129.37,128.129299 129.09,128.259299 128.81,128.259299 Z" id="Path"></path>
                    <path d="M1,128.049299 C0.74,128.049299 0.48,127.949299 0.3,127.759299 C0.11,127.569299 0,127.319299 0,127.049299 L0,84.949299 C0,84.679299 0.11,84.429299 0.3,84.239299 C0.49,84.049299 0.75,83.959299 1.02,83.949299 L64.27,84.829299 C64.54,84.829299 64.79,84.939299 64.97,85.129299 C65.16,85.319299 65.26,85.579299 65.25,85.839299 L65.01,102.819299 C65,103.369299 64.54,103.819299 64,103.809299 C63.45,103.799299 63.01,103.349299 63.01,102.799299 L63.23,86.819299 L2,85.969299 L2,126.039299 L17.45,125.899299 C17.45,125.899299 17.46,125.899299 17.46,125.899299 C18.01,125.899299 18.46,126.339299 18.46,126.889299 C18.46,127.439299 18.02,127.889299 17.47,127.899299 L1,128.049299 C1,128.049299 1,128.049299 1,128.049299 Z" id="Path"></path>
                    <path d="M60.36,86.779299 C60.27,86.779299 60.18,86.769299 60.09,86.739299 C59.56,86.589299 59.25,86.039299 59.4,85.509299 C59.41,85.469299 60.46,81.719299 61.3,78.249299 C62.11,74.869299 62.22,71.229299 62.22,71.189299 C62.23,70.639299 62.67,70.169299 63.25,70.219299 C63.8,70.229299 64.24,70.689299 64.22,71.249299 C64.22,71.409299 64.11,75.129299 63.25,78.719299 C62.41,82.229299 61.34,86.009299 61.33,86.049299 C61.2,86.489299 60.8,86.779299 60.36,86.779299 Z" id="Path"></path>
                    <path d="M58.95,86.779299 C58.4,86.779299 57.95,86.329299 57.95,85.779299 C57.95,85.769299 57.88,83.459299 55.4,80.139299 C52.86,76.739299 49.35,75.219299 49.31,75.209299 C49.02,75.089299 48.81,74.839299 48.73,74.539299 C48.65,74.239299 48.72,73.919299 48.91,73.669299 C48.93,73.639299 51.36,70.479299 54.8,61.609299 C58.53,51.989299 62,47.239299 65.23,43.209299 C68.82,38.719299 75.72,37.619299 76.01,37.579299 C76.56,37.489299 77.07,37.869299 77.15,38.419299 C77.23,38.969299 76.86,39.479299 76.31,39.559299 C76.25,39.569299 69.88,40.589299 66.78,44.469299 C63.65,48.389299 60.28,52.989299 56.66,62.349299 C54.14,68.839299 52.15,72.369299 51.16,73.929299 C52.55,74.699299 55.01,76.309299 56.99,78.969299 C59.91,82.869299 59.94,85.689299 59.94,85.799299 C59.95,86.329299 59.5,86.779299 58.95,86.779299 L58.95,86.779299 Z" id="Path"></path>
                    <path d="M41.09,86.509299 C40.85,86.509299 40.6,86.419299 40.41,86.239299 C40,85.859299 39.98,85.229299 40.36,84.829299 C41.27,83.839299 49.31,75.179299 50.53,74.249299 C50.97,73.909299 51.6,73.999299 51.93,74.439299 C52.26,74.879299 52.18,75.509299 51.74,75.839299 C50.92,76.459299 45.23,82.519299 41.83,86.189299 C41.63,86.399299 41.36,86.509299 41.09,86.509299 Z" id="Path"></path>
                    <path d="M28.99,136.979299 C27.08,136.979299 25.22,136.819299 23.33,136.509299 C20.33,136.019299 18.69,134.169299 18.13,133.399299 C17.5,132.539299 17.58,131.529299 17.75,130.839299 C17.05,130.219299 16.13,129.049299 16.38,127.239299 C16.51,126.299299 16.73,125.629299 16.97,125.159299 C15.98,124.229299 15.11,122.659299 16.01,120.739299 C17.53,117.509299 20.69,117.939299 22.57,118.199299 C26.15,118.689299 28.39,118.629299 29.22,118.019299 C30.1,117.369299 30.12,117.089299 30.12,117.079299 C30.12,117.079299 30.1,116.929299 29.74,116.619299 C29.38,116.429299 27.75,116.669299 26.77,116.809299 C24.71,117.109299 22.94,117.359299 22.07,116.379299 C21.34,115.559299 21.08,114.459299 21.37,113.449299 C21.82,111.859299 23.46,110.639299 26.23,109.819299 C31.03,108.389299 33.21,108.049299 35.86,108.969299 C35.91,108.989299 35.95,109.009299 36,109.029299 C37.49,109.809299 41.82,111.819299 44.04,111.829299 C44.04,111.829299 44.04,111.829299 44.04,111.829299 C46.5,111.829299 61.95,103.169299 67.64,99.349299 C72.74,95.919299 83.17,88.249299 83.28,88.169299 C83.72,87.839299 84.35,87.939299 84.68,88.379299 C85.01,88.819299 84.91,89.449299 84.47,89.779299 C84.37,89.859299 73.9,97.549299 68.76,100.999299 C64.67,103.749299 47.64,113.819299 44.04,113.819299 C44.04,113.819299 44.03,113.819299 44.03,113.819299 C41.03,113.799299 35.84,111.189299 35.15,110.829299 C33.16,110.159299 31.49,110.339299 26.81,111.729299 C23.99,112.569299 23.41,113.589299 23.3,113.999299 C23.15,114.509299 23.45,114.909299 23.58,115.059299 C23.9,115.209299 25.53,114.979299 26.5,114.839299 C28.44,114.559299 30.12,114.319299 31.05,115.099299 C31.8,115.729299 32.16,116.419299 32.14,117.149299 C32.1,118.269299 31.14,119.099299 30.43,119.629299 C28.75,120.859299 25.39,120.599299 22.32,120.179299 C19.84,119.839299 18.6,119.959299 17.84,121.589299 C17.16,123.049299 18.72,124.009299 18.91,124.119299 C19.24,124.309299 19.44,124.679299 19.41,125.059299 C19.38,125.389299 19.2,125.679299 18.92,125.849299 C18.85,125.929299 18.56,126.319299 18.39,127.519299 C18.21,128.869299 19.32,129.529299 19.45,129.599299 C19.92,129.859299 20.11,130.449299 19.87,130.929299 C19.74,131.199299 19.54,131.889299 19.78,132.219299 C20.11,132.659299 21.35,134.149299 23.69,134.529299 C27.42,135.139299 31,135.109299 35.3,134.439299 C37.28,134.129299 39.25,133.459299 41.17,132.459299 C41.74,132.159299 42.43,131.729299 43.17,131.259299 C44.85,130.209299 46.75,129.019299 48.64,128.429299 C53.67,126.869299 59.11,125.319299 63.91,123.949299 C67.27,122.989299 70.18,122.159299 72.26,121.519299 L73.48,121.149299 C81.05,118.839299 92.49,115.339299 94.71,113.429299 C95.13,113.069299 95.76,113.119299 96.12,113.539299 C96.48,113.959299 96.43,114.589299 96.01,114.949299 C93.66,116.969299 84.68,119.819299 74.06,123.069299 L72.84,123.439299 C70.74,124.079299 67.82,124.919299 64.45,125.879299 C59.66,127.249299 54.23,128.799299 49.22,130.349299 C47.58,130.859299 45.8,131.979299 44.22,132.959299 C43.45,133.439299 42.72,133.899299 42.09,134.229299 C39.98,135.339299 37.79,136.079299 35.6,136.419299 C33.22,136.789299 31.07,136.979299 28.99,136.979299 Z" id="Shape"></path>
                    <path d="M27.54,126.879299 C24.57,126.879299 21.27,125.969299 21.12,125.929299 C20.59,125.779299 20.28,125.229299 20.42,124.699299 C20.56,124.169299 21.12,123.859299 21.65,123.999299 C21.68,124.009299 25.15,124.959299 27.93,124.869299 C30.34,124.789299 31.11,124.219299 31.12,124.219299 C31.52,123.839299 32.13,123.879299 32.51,124.279299 C32.89,124.679299 32.85,125.329299 32.45,125.709299 C32.26,125.889299 31.18,126.769299 28,126.869299 C27.85,126.869299 27.69,126.879299 27.54,126.879299 Z" id="Path"></path>
                    <path d="M26.92,132.459299 C24.47,132.459299 21.85,131.769299 21.73,131.739299 C21.2,131.599299 20.88,131.049299 21.02,130.519299 C21.16,129.989299 21.71,129.669299 22.24,129.809299 C22.27,129.819299 25.12,130.569299 27.4,130.449299 C29.34,130.359299 29.97,129.899299 29.98,129.899299 C30.38,129.519299 30.99,129.559299 31.37,129.959299 C31.75,130.359299 31.71,131.009299 31.31,131.389299 C31.08,131.609299 30.13,132.319299 27.5,132.449299 C27.31,132.449299 27.12,132.459299 26.92,132.459299 Z" id="Path"></path>
                </g>
                <g transform="translate(0.000000, -0.000000)">
                    <path d="M1104.08,190.66 L5.16,190.66 C4.61,190.66 4.16,190.21 4.16,189.66 C4.16,189.11 4.61,188.66 5.16,188.66 L1104.08,188.66 C1104.63,188.66 1105.08,189.11 1105.08,189.66 C1105.08,190.21 1104.63,190.66 1104.08,190.66 Z" id="Path"></path>
                    <path d="M842,64.99 C806.72,64.99 778.01,36.28 778.01,1 C778.01,0.45 778.46,-2.27373675e-13 779.01,-2.27373675e-13 C779.56,-2.27373675e-13 780.01,0.45 780.01,1 C780.01,35.18 807.82,62.99 842,62.99 C876.18,62.99 903.99,35.18 903.99,1 C903.99,0.45 904.44,-2.27373675e-13 904.99,-2.27373675e-13 C905.54,-2.27373675e-13 905.99,0.45 905.99,1 C905.99,36.28 877.28,64.99 842,64.99 Z" id="Path"></path>
                    <path d="M92.48,189.14 C91.93,189.14 91.48,188.69 91.48,188.14 C91.48,138.25 50.89,97.66 1,97.66 C0.45,97.66 0,97.21 0,96.66 C0,96.11 0.45,95.66 1,95.66 C51.99,95.66 93.48,137.15 93.48,188.14 C93.48,188.69 93.03,189.14 92.48,189.14 Z" id="Path"></path>
                    <path d="M995.06,190.66 L898.86,190.66 C895.18,190.66 892.01,188.55 890.6,185.14 C889.19,181.74 889.93,178 892.54,175.4 L988.74,79.2 C991.34,76.6 995.08,75.85 998.48,77.26 C1001.88,78.67 1004,81.83 1004,85.52 L1004,181.72 C1004,186.65 999.99,190.66 995.06,190.66 Z M995.02,78.56 C993.23,78.56 991.5,79.27 990.16,80.61 L893.96,176.81 C891.94,178.83 891.36,181.73 892.46,184.37 C893.56,187.01 896.01,188.65 898.87,188.65 L995.07,188.65 C998.9,188.65 1002.01,185.54 1002.01,181.71 L1002.01,85.51 C1002.01,82.65 1000.37,80.19 997.73,79.1 C996.83,78.74 995.92,78.56 995.02,78.56 Z" id="Shape"></path>
                    <path d="M280.42,190.66 L250.32,190.66 L241.38,155.84 L288.65,155.84 L280.42,190.66 Z M251.87,188.66 L278.84,188.66 L286.12,157.84 L243.96,157.84 L251.87,188.66 Z" id="Shape"></path>
                    <path d="M265.03,157.84 C264.48,157.84 264.03,157.39 264.03,156.84 L264.03,108.97 C264.03,108.42 264.48,107.97 265.03,107.97 C265.58,107.97 266.03,108.42 266.03,108.97 L266.03,156.84 C266.03,157.39 265.58,157.84 265.03,157.84 Z" id="Path"></path>
                    <path d="M266.2,143.14 L265.97,143.13 C265.54,143.12 255.42,142.76 250.11,134.01 C247.06,128.99 248.99,124.66 250.85,120.47 C252.33,117.14 253.73,113.99 252.77,110.47 C250.13,100.79 249.62,84.48 259.06,79.23 C262.7,77.21 265.82,76.64 268.6,77.48 C272.76,78.75 275.67,83.03 278.75,89.07 C282.03,95.51 281.03,98.48 279.64,102.59 C278.95,104.64 278.16,106.95 277.69,110.26 C277,115.08 278.39,118.03 279.73,120.88 C281.08,123.75 282.36,126.47 280.89,130.33 C278.11,137.62 266.91,142.83 266.43,143.04 L266.2,143.14 Z M266.02,79.12 C264.26,79.12 262.28,79.74 260.03,80.99 C251.59,85.68 252.22,100.88 254.7,109.95 C255.85,114.16 254.24,117.79 252.68,121.29 C250.88,125.35 249.32,128.85 251.83,132.98 C256.15,140.1 264.34,141.02 265.8,141.13 C267.35,140.38 276.71,135.63 279,129.63 C280.17,126.57 279.17,124.44 277.9,121.75 C276.57,118.92 274.92,115.41 275.69,110 C276.19,106.51 277.04,104 277.73,101.98 C279.05,98.06 279.85,95.7 276.96,90.01 C274.11,84.43 271.5,80.49 268.01,79.43 C267.38,79.22 266.72,79.12 266.02,79.12 Z" id="Shape"></path>
                </g>
            </g>
        </g>
    </g>
</svg>