<?xml version="1.0" encoding="UTF-8"?>
<svg width="512px" height="512px" viewBox="0 0 512 512" version="1.1" xmlns="http://www.w3.org/2000/svg" xmlns:xlink="http://www.w3.org/1999/xlink">
    <!-- Generator: Sketch 59 (86127) - https://sketch.com -->
    <title>lookup</title>
    <desc>Created with Sketch.</desc>
    <g id="lookup" stroke="none" stroke-width="1" fill="none" fill-rule="evenodd">
        <g transform="translate(32.000000, 0.500000)" fill="currentcolor" fill-rule="nonzero">
            <path d="M183.465521,480.931508 C183.465521,491.636403 174.756081,496.178541 163.974013,496.178541 L78.0822908,496.178541 C20.1509799,496.178541 0,480.931508 0,418.650488 L0,77.5280537 C0,17.2535123 15.5527159,0 78.0822908,0 L318.081002,0 C381.079624,0 396.163293,14.6587204 396.163293,77.5280537 L396.163293,262.626219 C396.163293,273.331114 391.857682,282.996689 381.079624,282.996689 C370.297557,282.996689 366.165333,273.331114 366.165333,262.626219 L366.165333,77.5280537 C366.165333,38.6813423 360.549799,29.9518568 318.081002,29.9518568 L78.0822908,29.9518568 C38.4017181,29.9518568 30.1653333,43.0490917 30.1653333,77.5280537 L30.1653333,418.650488 C30.1653333,459.418488 36.8973602,466.167553 78.0822908,466.167553 L163.974013,466.167553 C174.756081,466.167553 183.465521,470.225611 183.465521,480.930506 L183.465521,480.931508 Z" id="Path"></path>
            <path d="M298.559427,116.291579 L97.4976286,116.291579 C86.7155615,116.291579 77.9770559,122.929396 77.9770559,131.118676 C77.9770559,139.308957 86.7155615,145.946774 97.4976286,145.946774 L298.56043,145.946774 C309.33949,145.946774 318.082004,139.308957 318.082004,131.118676 C318.082004,122.929396 309.33949,116.291579 298.56043,116.291579 L298.559427,116.291579 Z M318.082004,208.646729 C318.082004,200.45745 309.338488,193.819633 298.559427,193.819633 L97.4976286,193.819633 C86.7155615,193.819633 77.9770559,200.45745 77.9770559,208.646729 C77.9770559,216.837011 86.7155615,223.473826 97.4976286,223.473826 L298.56043,223.473826 C309.33949,223.473826 318.082004,216.837011 318.082004,208.646729 L318.082004,208.646729 Z M97.4976286,271.347687 C86.7145593,271.347687 77.9760537,277.985503 77.9760537,286.174783 C77.9760537,294.365065 86.7145593,301.001879 97.4966264,301.001879 L200.087624,301.001879 C210.869691,301.001879 219.608197,294.365065 219.608197,286.174783 C219.608197,277.985503 210.868689,271.347687 200.087624,271.347687 L97.4966264,271.347687 L97.4976286,271.347687 Z" id="Shape"></path>
            <path d="M313.307347,293.27413 C344.990731,293.27413 376.266795,305.485821 406.068888,329.100386 C409.819337,332.072008 413.500514,335.190473 417.115606,338.443352 C430.249788,350.26156 439.516198,360.60741 450.807244,374.654733 L451.580294,375.618301 C452.182926,376.371178 452.870453,377.273566 453.638137,378.310564 L454.535349,379.533191 L455.471647,380.82777 L456.605069,382.417483 C464.996145,394.253292 464.996145,410.098135 456.631038,421.897197 L455.515072,423.467647 C454.367601,425.068502 453.154745,426.717547 452.138698,428.027575 L451.581332,428.736588 L450.042606,430.650916 C439.10205,444.208637 429.946701,454.365682 417.105387,465.918059 C413.493204,469.167671 409.815004,472.283201 406.068604,475.251474 C376.268576,498.866136 344.991304,511.0783 313.307347,511.0783 C281.623963,511.0783 250.347899,498.866608 220.545806,475.252043 C216.795369,472.280432 213.114185,469.161984 209.499088,465.909143 C196.662113,454.358516 187.510019,444.20356 176.570505,430.645421 L175.03191,428.731018 L174.564847,428.139235 C173.921077,427.313495 173.193541,426.342103 172.385969,425.238578 L171.641307,424.215107 C171.353018,423.81672 171.07235,423.426423 170.799867,423.045535 L170.00754,421.932418 C161.618297,410.096042 161.618297,394.252379 170.005295,382.419171 L170.806628,381.293108 C170.942651,381.102902 171.080113,380.911192 171.219321,380.717617 L172.077955,379.530904 L172.976927,378.305661 C173.745658,377.267127 174.433033,376.365073 175.035813,375.612526 L175.828459,374.62461 C190.324105,356.59587 202.871209,343.10463 220.545296,329.10079 C250.346396,305.486146 281.623571,293.27413 313.307347,293.27413 Z M313.307347,323.073647 C288.771312,323.073647 263.857012,332.80131 239.052082,352.456947 C223.831459,364.516816 212.703013,376.397198 199.819928,392.3448 L198.148841,394.425094 L197.824959,394.841769 C197.082478,395.808127 196.085954,397.172005 195.044932,398.628383 L194.319691,399.647675 C193.246935,401.161224 193.246935,403.187196 194.321936,404.703914 L195.410661,406.230012 C196.309933,407.481157 197.167896,408.650005 197.824731,409.505641 L198.29752,410.110531 L199.776569,411.950646 C209.792798,424.361642 218.03202,433.499987 229.431387,443.757063 C232.594033,446.602791 235.801245,449.319723 239.052384,451.895721 C263.858242,471.551373 288.771671,481.278783 313.307347,481.278783 C337.843452,481.278783 362.757649,471.551073 387.561877,451.89527 C390.810231,449.321599 394.01496,446.607111 397.175142,443.76413 C408.849977,433.261149 417.211337,423.930539 427.547072,411.074155 L428.458237,409.935856 L428.79783,409.497228 C429.461646,408.630079 430.337544,407.437189 431.183271,406.26087 L432.295083,404.699219 C433.366784,403.187559 433.366784,401.163868 432.285825,399.639135 L431.353558,398.32999 C430.182646,396.696927 429.028695,395.130814 428.31787,394.242769 L427.574145,393.3158 L426.034079,391.408221 C416.367437,379.488901 408.275584,370.576323 397.183162,360.595301 C394.020564,357.749579 390.813407,355.032674 387.56231,352.456708 C362.756452,332.801057 337.843023,323.073647 313.307347,323.073647 Z" id="Path"></path>
            <path d="M313.6,365.350515 C297.103177,365.350515 283.733333,378.626148 283.733333,395.004707 C283.733333,411.383266 297.103177,424.658899 313.6,424.658899 C330.096823,424.658899 343.466667,411.383266 343.466667,395.004707 C343.466667,378.626148 330.096823,365.350515 313.6,365.350515 Z" id="Path"></path>
        </g>
    </g>
</svg>