<?xml version="1.0" encoding="UTF-8"?>
<svg width="512px" height="512px" viewBox="0 0 512 512" version="1.1" xmlns="http://www.w3.org/2000/svg" xmlns:xlink="http://www.w3.org/1999/xlink">
    <!-- Generator: Sketch 59 (86127) - https://sketch.com -->
    <title>priority</title>
    <desc>Created with Sketch.</desc>
    <g id="priority" stroke="none" stroke-width="1" fill="none" fill-rule="evenodd">
        <g transform="translate(19.000000, 0.500000)" fill="#000000" fill-rule="nonzero" id="Shape">
            <path d="M113.210203,54.7309865 L105.689189,47.2078378 C98.5738514,40.0925 98.5738514,28.5563649 105.689189,21.441027 C112.804527,14.3256892 124.339595,14.3256892 131.456,21.441027 L170.105149,60.0912432 C177.220486,67.2065811 177.220486,78.7416486 170.105149,85.8580541 L131.456,124.50827 C124.340662,131.623608 112.804527,131.623608 105.689189,124.50827 C98.5738514,117.392932 98.5738514,105.856797 105.689189,98.7414595 L113.259311,91.1702703 L36.5823378,91.1702703 L36.5823378,419.127027 L127.681081,419.127027 C137.743973,419.127027 145.901257,427.284311 145.901257,437.347203 C145.901257,447.409027 137.743973,455.566311 127.681081,455.566311 L18.3621622,455.566311 C8.29927027,455.566311 0.141986486,447.410095 0.141986486,437.347203 L0.141986486,72.9500946 C0.141986486,62.8882703 8.29927027,54.7309865 18.3621622,54.7309865 L113.210203,54.7309865 L113.210203,54.7309865 Z M182.340541,18.2906351 C182.340541,8.22881081 190.497824,0.071527027 200.560716,0.071527027 L455.637838,0.071527027 C465.70073,0.071527027 473.858014,8.22774324 473.858014,18.2906351 L473.858014,127.609554 C473.858014,137.672446 465.70073,145.82973 455.637838,145.82973 L200.560716,145.82973 C190.497824,145.82973 182.340541,137.672446 182.340541,127.609554 L182.340541,18.2906351 Z M218.779824,36.5108108 L218.779824,109.390446 L437.417662,109.390446 L437.417662,36.5108108 L218.779824,36.5108108 Z M182.340541,200.489189 C182.340541,190.426297 190.497824,182.269014 200.560716,182.269014 L455.637838,182.269014 C465.70073,182.269014 473.858014,190.426297 473.858014,200.489189 L473.858014,309.808108 C473.858014,319.871 465.70073,328.028284 455.637838,328.028284 L200.560716,328.028284 C190.497824,328.028284 182.340541,319.871 182.340541,309.808108 L182.340541,200.489189 Z M218.779824,218.709365 L218.779824,291.587932 L437.417662,291.587932 L437.417662,218.709365 L218.779824,218.709365 Z M182.340541,382.687743 C182.340541,372.624851 190.497824,364.467568 200.560716,364.467568 L455.637838,364.467568 C465.70073,364.467568 473.858014,372.624851 473.858014,382.687743 L473.858014,492.006662 C473.858014,502.068486 465.70073,510.22577 455.637838,510.22577 L200.560716,510.22577 C190.497824,510.22577 182.340541,502.069554 182.340541,492.006662 L182.340541,382.687743 Z M218.779824,400.906851 L218.779824,473.786486 L437.417662,473.786486 L437.417662,400.906851 L218.779824,400.906851 L218.779824,400.906851 Z"></path>
        </g>
    </g>
</svg>