<svg viewBox="0 -49 511.998 511" xmlns="http://www.w3.org/2000/svg">
  <path d="M429.43 330.547H392.87a7.515 7.515 0 01-7.512-7.516 7.513 7.513 0 017.512-7.515h36.559c37.242 0 67.543-30.297 67.543-67.543v-43.856c0-37.242-30.301-67.539-67.543-67.539-9.64 0-18.957 1.996-27.692 5.934a14.426 14.426 0 01-13.816-1.024 14.31 14.31 0 01-6.57-12.078v-21.863c0-37.242-30.301-67.54-67.543-67.54-23.93 0-46.297 12.868-58.375 33.587-2.004 3.441-5.243 5.844-9.114 6.758-3.84.91-7.945.183-11.265-1.985-10.97-7.164-23.715-10.953-36.868-10.953-17.593 0-34.253 6.73-46.906 18.95a7.52 7.52 0 01-10.629-.184 7.52 7.52 0 01.188-10.63c15.472-14.937 35.84-23.163 57.347-23.163 15.883 0 31.286 4.52 44.59 13.078 14.832-24.988 41.989-40.488 71.032-40.488 45.53 0 82.57 37.043 82.57 82.57v20.902c10.45-4.578 21.562-6.898 33.05-6.898 45.528 0 82.567 37.039 82.567 82.566v43.86c.004 45.527-37.035 82.57-82.566 82.57zm0 0M357.2 330.547H82.57c-45.53 0-82.57-37.043-82.57-82.57V229.52c0-45.532 37.04-82.57 82.57-82.57 11.489 0 22.602 2.32 33.051 6.902v-18.895a82.456 82.456 0 014.094-25.746 7.51 7.51 0 019.48-4.797 7.514 7.514 0 014.801 9.48 67.433 67.433 0 00-3.348 21.063v19.856a14.32 14.32 0 01-6.57 12.078c-4.14 2.675-9.308 3.058-13.82 1.023-8.73-3.937-18.047-5.934-27.688-5.934-37.242 0-67.543 30.297-67.543 67.54v18.457c0 37.242 30.301 67.539 67.543 67.539H357.2c4.148 0 7.515 3.367 7.515 7.515s-3.367 7.516-7.516 7.516zm0 0"/>
  <path d="M198.34 156.8c22.601 0 34.984 14.188 34.984 22.602 0 5.532-3.004 8.899-8.894 8.899-11.422 0-8.059-15.63-26.09-15.63-12.387 0-22.606 10.7-22.606 29.458 0 15.75 6.254 29.453 23.325 29.453 15.511 0 15.148-16.59 24.648-16.59 4.809 0 9.617 2.766 9.617 7.574 0 12.504-15.148 24.887-34.265 24.887-27.051 0-43.043-15.512-43.043-45.328 0-24.406 14.43-45.324 42.324-45.324zm0 0M285.508 156.8c28.37 0 43.762 18.876 43.762 44.247 0 24.406-14.188 46.406-43.762 46.406-31.024 0-43.766-20.2-43.766-46.406 0-25.371 15.39-44.246 43.766-44.246zm0 74.782c17.914 0 24.043-13.945 24.043-30.535 0-16.594-7.934-28.375-24.043-28.375-16.113 0-24.047 11.781-24.047 28.375 0 16.59 5.527 30.535 24.047 30.535zm0 0M372.93 264.281c4.59 0 6.504 2.375 6.504 6.43s-1.914 6.43-6.504 6.43h-31.22c-4.054 0-6.503-3.063-6.503-6.352 0-4.746 1.148-7.195 15.227-16.988l7.27-5.051c3.75-2.602 5.124-4.742 5.124-7.883 0-3.75-2.523-6.195-6.656-6.195-8.723 0-4.207 10.633-12.856 10.633-5.507 0-7.496-3.059-7.496-7.422 0-7.344 7.192-15.149 20.813-15.149 16.297 0 21.96 8.875 21.96 17.368 0 6.43-3.214 11.02-10.023 15.304l-13.851 8.723v.152zm0 0M424.11 49.84c-13.602 0-24.669-11.067-24.669-24.668C399.441 11.566 410.508.5 424.11.5c13.606 0 24.672 11.066 24.672 24.672 0 13.601-11.066 24.668-24.672 24.668zm0-34.313c-5.317 0-9.641 4.328-9.641 9.645s4.324 9.64 9.64 9.64 9.645-4.324 9.645-9.64-4.328-9.645-9.645-9.645zm0 0M104.035 412.86c-10.45 0-18.95-8.5-18.95-18.954 0-10.449 8.5-18.953 18.95-18.953 10.453 0 18.953 8.504 18.953 18.953 0 10.453-8.5 18.953-18.953 18.953zm0-22.876c-2.16 0-3.922 1.758-3.922 3.922s1.758 3.926 3.922 3.926 3.926-1.762 3.926-3.926-1.762-3.922-3.926-3.922zm0 0M172.918 396.719c-16.137 0-29.27-13.13-29.27-29.266s13.13-29.27 29.27-29.27 29.27 13.13 29.27 29.27c-.004 16.137-13.133 29.266-29.27 29.266zm0-43.504c-7.852 0-14.238 6.387-14.238 14.238s6.386 14.238 14.238 14.238c7.852 0 14.238-6.386 14.238-14.238s-6.386-14.238-14.238-14.238zm0 0"/>
</svg>
