<?xml version="1.0" encoding="UTF-8"?>
<svg width="456px" height="301px" viewBox="0 0 456 301" version="1.1" xmlns="http://www.w3.org/2000/svg" xmlns:xlink="http://www.w3.org/1999/xlink">
    <title>noun-alignment-3367181</title>
    <g id="Page-1" stroke="none" stroke-width="1" fill="none" fill-rule="evenodd">
        <g id="noun-alignment-3367181" transform="translate(0.500000, 0.023000)" fill="#6B7E91" fill-rule="nonzero">
            <path d="M17.49975,35 L437.49975,35 C443.75365,35 449.53075,31.668 452.65575,26.25 C455.78075,20.8359 455.78075,14.168 452.65575,8.75 C449.53075,3.3359 443.75345,-2.84217094e-14 437.49975,-2.84217094e-14 L17.49975,-2.84217094e-14 C11.24585,-2.84217094e-14 5.46875,3.3359 2.34375,8.75 C-0.78125,14.168 -0.78125,20.836 2.34375,26.25 C5.46875,31.668 11.24605,35 17.49975,35 Z" id="Path"></path>
            <path d="M17.49975,167.657 L332.49975,167.657 C338.75365,167.657 344.53075,164.3211 347.65575,158.907 C350.78075,153.4929 350.78075,146.821 347.65575,141.407 C344.53075,135.9929 338.75345,132.657 332.49975,132.657 L17.49975,132.657 C11.24585,132.657 5.46875,135.9929 2.34375,141.407 C-0.78125,146.8211 -0.78125,153.493 2.34375,158.907 C5.46875,164.3211 11.24605,167.657 17.49975,167.657 Z" id="Path"></path>
            <path d="M437.49975,265.297 L17.49975,265.297 C11.24585,265.297 5.46875,268.6329 2.34375,274.047 C-0.78125,279.4611 -0.78125,286.133 2.34375,291.547 C5.46875,296.9611 11.24605,300.297 17.49975,300.297 L437.49975,300.297 C443.75365,300.297 449.53075,296.9611 452.65575,291.547 C455.78075,286.1329 455.78075,279.461 452.65575,274.047 C449.53075,268.6329 443.75345,265.297 437.49975,265.297 Z" id="Path"></path>
        </g>
    </g>
</svg>
