<?xml version="1.0" encoding="UTF-8"?>
<svg width="129px" height="118px" viewBox="0 0 129 118" version="1.1" xmlns="http://www.w3.org/2000/svg" xmlns:xlink="http://www.w3.org/1999/xlink">
    <!-- Generator: Sketch 52.6 (67491) - http://www.bohemiancoding.com/sketch -->
    <title>Group 17 Copy</title>
    <desc>Created with Sketch.</desc>
    <g id="Page-1" stroke="none" stroke-width="1" fill="none" fill-rule="evenodd">
        <g id="Asset_Performance2.0" transform="translate(-836.000000, -411.000000)">
            <g id="Group-17-Copy" transform="translate(835.500000, 409.131787)">
                <path d="M118.611068,55.0547488 C110.584525,39.6465012 82.6581053,2.50194166 57.1119141,13.2686548 C5.23373653,35.1332628 -10.5307349,66.4099796 9.08793819,86.562179 C19.1810832,96.9298053 87.8579065,127.649078 116.30904,117.964976 C143.160141,108.825487 118.918829,55.6455452 118.611068,55.0547488 Z" id="Oval-Copy-7" fill="#F6F5FF"></path>
                <path d="M-3.81167874,30.1946352 C3.7936575,44.7608872 14.3414001,50.2337995 27.8315492,46.6133719 C48.0667727,41.1827306 41.489252,21.3538194 29.80632,20.9582731 C18.123388,20.5627267 13.200104,38.5610416 31.4703291,49.7968513 C41.6719795,56.0706549 54.3715009,47.2789544 56.1355445,35.9577641 C57.530742,27.0037355 55.171644,20.0304123 51.4222466,17.1894763" id="Path-15" stroke="#B3AFC9" stroke-width="1.41758242" stroke-linecap="round" stroke-dasharray="4.725274725274725" transform="translate(26.364707, 34.538443) scale(1, -1) rotate(109.000000) translate(-26.364707, -34.538443) "></path>
                <path d="M14.858096,68.9624916 L17.0760821,68.9624916 C17.4022942,68.9624916 17.6667414,69.2269388 17.6667414,69.5531509 C17.6667414,69.8793631 17.4022942,70.1438103 17.0760821,70.1438103 L14.858096,70.1438103 L14.858096,72.3598148 C14.858096,72.686027 14.5936488,72.9504742 14.2674366,72.9504742 C13.9412245,72.9504742 13.6767773,72.686027 13.6767773,72.3598148 L13.6767773,70.1438103 L11.4587912,70.1438103 C11.1325791,70.1438103 10.8681319,69.8793631 10.8681319,69.5531509 C10.8681319,69.2269388 11.1325791,68.9624916 11.4587912,68.9624916 L13.6767773,68.9624916 L13.6767773,66.7445055 C13.6767773,66.4182933 13.9412245,66.1538462 14.2674366,66.1538462 C14.5936488,66.1538462 14.858096,66.4182933 14.858096,66.7445055 L14.858096,68.9624916 Z" id="Combined-Shape" fill="#FF3184"></path>
                <polygon id="Path-2-Copy" stroke="#39B3C2" stroke-width="1.41758242" opacity="0.5" stroke-linejoin="round" points="79.8571429 21.8963414 87.6125522 21.8963414 83.7348475 15.1208791"></polygon>
                <path d="M124.038462,69.4615385 C125.734765,69.4615385 127.10989,68.0864131 127.10989,66.3901099 C127.10989,64.6938067 125.734765,63.3186813 124.038462,63.3186813 C122.342158,63.3186813 120.967033,64.6938067 120.967033,66.3901099 C120.967033,68.0864131 122.342158,69.4615385 124.038462,69.4615385 Z" id="Oval-Copy-3" stroke="#736795" stroke-width="1.60659341" stroke-linecap="round" stroke-linejoin="round" stroke-dasharray="6.615384615384615"></path>
                <g id="Group-16" transform="translate(43.000000, 27.406593)">
                    <path d="M55.789888,57.6483516 L55.789888,70.5216848 C55.789888,71.5655636 54.9436569,72.4117947 53.8997781,72.4117947 C53.8798916,72.4117947 53.8600063,72.4114808 53.8401298,72.4108532 L43.9450549,72.0984277 L55.789888,57.6483516 Z" id="Path-14" fill="#FFFFFF"></path>
                    <path d="M43.1022705,72.2967033 L3.78021978,72.2967033 C1.69246204,72.2967033 2.55676583e-16,70.6042413 0,68.5164835 L0,7.08791209 C-2.55676583e-16,5.00015435 1.69246204,3.30769231 3.78021978,3.30769231 L51.978022,3.30769231 C54.0657797,3.30769231 55.7582418,5.00015435 55.7582418,7.08791209 L55.7582418,62.2606263" id="Rectangle" stroke="#B3AFC9" stroke-width="2.36263736" fill="#FFFFFF" stroke-linecap="round"></path>
                    <g id="Group" transform="translate(19.846154, 13.230769)" fill="#B3AFC9">
                        <path d="M7.15460737,0.398306084 C6.89722756,0.290777272 6.60056891,0.350246583 6.40383013,0.548362369 L2.47077724,4.49477352 L0.689102564,4.49477352 C0.308717949,4.49477352 0,4.80456714 0,5.18627714 L0,9.33529885 C0,9.71700884 0.308717949,10.0268025 0.689102564,10.0268025 L2.47077724,10.0268025 L6.40383013,13.9732136 C6.53544872,14.1056366 6.71185897,14.1758242 6.89102564,14.1758242 C6.97957532,14.1758242 7.06950321,14.1585366 7.15460737,14.1232699 C7.41233173,14.0160868 7.58012821,13.7640338 7.58012821,13.4843206 L7.58012821,1.03725543 C7.58012821,0.757542214 7.41233173,0.505489145 7.15460737,0.398306084 Z" id="Path"></path>
                        <path d="M10.2162901,5.30487001 C9.94719551,5.03483785 9.51099359,5.03483785 9.24189904,5.30487001 C8.97280449,5.57490217 8.97280449,6.01262396 9.24189904,6.28300188 C9.77905449,6.8223747 9.77905449,7.69989279 9.24189904,8.23891986 C8.97280449,8.50895202 8.97280449,8.94701957 9.24189904,9.21670598 C9.37661859,9.35189493 9.55268429,9.41931654 9.72909455,9.41931654 C9.90550481,9.41931654 10.0819151,9.35189493 10.2162901,9.21670598 C11.2909455,8.13796033 11.2909455,6.38292415 10.2162901,5.30487001 Z" id="Path"></path>
                        <path d="M12.1654167,3.34895202 C11.8963221,3.07891986 11.4601202,3.07891986 11.1910256,3.34895202 C10.9219311,3.61898419 10.9219311,4.05670598 11.1910256,4.32673814 C11.9728125,5.11124899 12.4031571,6.1529992 12.4031571,7.26044224 C12.4031571,8.36823104 11.9728125,9.40963549 11.1910256,10.1941463 C10.9219311,10.4638328 10.9219311,10.9019003 11.1910256,11.1719325 C11.3257452,11.3071214 11.5018109,11.374543 11.6782212,11.374543 C11.8546314,11.374543 12.0306971,11.3071214 12.1654167,11.1719325 C13.2073397,10.1267247 13.7810176,8.73749397 13.7810176,7.26044224 C13.7810176,5.78373626 13.2073397,4.39450549 12.1654167,3.34895202 Z" id="Path"></path>
                        <path d="M14.1145433,1.39303404 C13.8454487,1.12300188 13.4092468,1.12300188 13.1401522,1.39303404 C12.8710577,1.6630662 12.8710577,2.10078799 13.1401522,2.37082016 C15.8269631,5.06699276 15.8269631,9.45389172 13.1401522,12.1504101 C12.8710577,12.4204422 12.8710577,12.858164 13.1401522,13.1281962 C13.2748718,13.2633852 13.4509375,13.3308068 13.6273478,13.3308068 C13.803758,13.3308068 13.9798237,13.2633852 14.1145433,13.1281962 C17.3385096,9.89265076 17.3385096,4.62823372 14.1145433,1.39303404 Z" id="Path"></path>
                    </g>
                    <g id="Group-3" transform="translate(9.450549, 34.021978)" stroke="#D9D7E4" stroke-linecap="round" stroke-width="2.36263736">
                        <path d="M0.236263736,0.708791209 L36.8571429,0.708791209" id="Path-8-Copy-7"></path>
                        <path d="M0.307142857,12.521978 L36.8571429,12.521978" id="Path-8-Copy-5"></path>
                        <path d="M0.306267806,24.8076923 L16.2287573,24.8076923" id="Path-8-Copy-4"></path>
                    </g>
                    <circle id="Oval" fill="#FFFFFF" cx="34.4945055" cy="55.2857143" r="14.1758242"></circle>
                    <g id="Group-12" transform="translate(22.681319, 41.109890)" stroke="#B3AFC9">
                        <g id="Group-11">
                            <g id="Group-13">
                                <path d="M23.1538462,22.2087912 L35.0610518,32.0973852" id="Path-9" stroke-width="3.78021978" stroke-linecap="round"></path>
                                <circle id="Oval" stroke-width="2.36263736" fill="#FFFFFF" cx="14.1758242" cy="14.1758242" r="12.9945055"></circle>
                                <path d="M20.9871129,19.4975449 C21.9348329,18.1258181 22.4899048,16.4620235 22.4899048,14.6685848 C22.4899048,12.243211 21.4747469,10.05494 19.8461538,8.50549451" id="Oval" stroke-width="1.89010989" stroke-linecap="round"></path>
                            </g>
                        </g>
                    </g>
                    <path d="M10.6318681,7.32417582 L45.1263736,7.32417582 L45.1263736,3.78021978 C45.1263736,2.34488634 43.962806,1.18131868 42.5274725,1.18131868 L13.2307692,1.18131868 C11.7954358,1.18131868 10.6318681,2.34488634 10.6318681,3.78021978 L10.6318681,7.32417582 Z" id="Rectangle" stroke="#B3AFC9" stroke-width="2.36263736" fill="#FFFFFF"></path>
                </g>
            </g>
        </g>
    </g>
</svg>