<svg width="87" height="66" viewBox="0 0 87 66" xmlns="http://www.w3.org/2000/svg"><g fill="none" fill-rule="evenodd"><path fill="#FFF" d="M77.846 53.252l.926-.649 3.96 5.657-.925.648zM76.773 53.998l.819-.573 3.461 4.943-.819.574z"/><path d="M58.85 36.627V51.07a7.613 7.613 0 0015.225 0V37.273a5.32 5.32 0 00-10.639 0v13.2a3.156 3.156 0 106.311 0v-13.52h0" stroke="#E3E3FA" stroke-width="1.5" stroke-linecap="round"/><path stroke="#7176C4" stroke-linecap="round" stroke-linejoin="round" d="M.5 58.682h85.874M54.688 65.317h10.86M21.326 65.317h24.253"/><path stroke="#FFF" stroke-linecap="round" stroke-linejoin="round" d="M57.377 34.73h0M68.252 34.73h0"/><path fill="#DBDBF3" d="M51 1.5h4.682v12.63h12.57v5.024H51z"/><path stroke="#7176C4" stroke-linecap="round" stroke-linejoin="round" d="M25.525 58.111V1.5h30.062l12.666 12.725v11.739"/><path stroke="#7176C4" stroke-linecap="round" stroke-linejoin="round" d="M55.682 1.5l12.571 12.63h-12.57z"/><path fill="#DBDBF3" d="M21.507 17.16h3.51V58.11h-3.51z"/><path stroke="#7176C4" stroke-linecap="round" stroke-linejoin="round" d="M7.482 58.16v-41h18.043"/><path d="M57.85 36.627V51.07a7.613 7.613 0 0015.225 0V37.273a5.32 5.32 0 00-10.639 0v13.2a3.156 3.156 0 106.311 0v-13.52h0" stroke="#7176C4" stroke-linecap="round"/><path fill="#AAAAE2" opacity=".5" d="M33.001 36.954h19.027V35.13H33.001zM33.001 31.954h28.027V30.13H33.001z"/><path fill-opacity=".5" fill="#DBDBF3" d="M33.001 41.954h19.027V40.13H33.001zM33 46.977h14.014v-1.823H33z"/><path fill="#AAAAE2" opacity=".5" d="M33 10.954h18V9.13H33z"/><path fill-opacity=".5" fill="#DBDBF3" d="M33 15.954h18V14.13H33zM33 20.977h8v-1.823h-8z"/><path fill="#AAAAE2" opacity=".5" d="M12 25.954h9.551V24.13h-9.55z"/><path fill-opacity=".5" fill="#DBDBF3" d="M12 30.954h9.551V29.13h-9.55zM12 35.977h7.112v-1.823H12z"/></g></svg>