<svg viewBox="0 0 90 72" xmlns="http://www.w3.org/2000/svg">
  <g fill-rule="evenodd">
    <path d="M50.35.7a9.32 9.32 0 019.31 9.05v5.85h9.7a8.6 8.6 0 015.21 2.06l.19.18 13 13a8.6 8.6 0 012.23 5.14l.01.27v20.24a6.42 6.42 0 01-6.19 6.41h-2.66a9.98 9.98 0 01-9.84 8.4 9.98 9.98 0 01-9.79-8.12l-.05-.27H32.53a9.99 9.99 0 01-9.84 8.38 9.99 9.99 0 01-9.79-8.11l-.05-.27H6.42A6.42 6.42 0 010 56.72V10.02A9.32 9.32 0 019.04.72L9.31.7h41.04zM22.7 54.54a6.8 6.8 0 10.01 13.6 6.8 6.8 0 00-.01-13.6zm48.62 0a6.8 6.8 0 10.01 13.59 6.8 6.8 0 00-.01-13.6zM50.98 3.88H9.39c-3.35 0-6.09 2.87-6.2 6.44V56.5a3.24 3.24 0 003.04 3.23h6.62a9.98 9.98 0 019.84-8.38c4.86 0 8.91 3.5 9.79 8.12l.05.26h28.94a9.98 9.98 0 019.84-8.38c4.86 0 8.91 3.5 9.79 8.12l.05.26h2.43a3.23 3.23 0 003.23-3.04V36.24c0-.89-.55-2.29-1.18-3.02l-.12-.13-13-13a5.58 5.58 0 00-2.97-1.3H57.18v-8.22c0-3.68-2.78-6.68-6.2-6.68z" fill-rule="nonzero"/>
    <path d="M71.32 24.25a4.19 4.19 0 00-2.75-1.14h-1.16a3.49 3.49 0 00-3.48 3.48v12.64a3.49 3.49 0 003.48 3.49h11.65a3.49 3.49 0 003.49-3.49v-2.15a4.2 4.2 0 00-1.14-2.74l-10.1-10.1z" fill-rule="nonzero"/>
    <path d="M79.36 39.23a.3.3 0 01-.3.3H67.41a.3.3 0 01-.3-.3V26.6c0-.16.14-.3.3-.3h1.16c.12 0 .4.12.5.2l10.09 10.1c.08.09.2.37.2.49v2.16z" fill-rule="nonzero"/>
    <path d="M11.15 11.33h37.09v4.17H11.15zM23.52 26.5h24.73v4.17H23.52zM27.64 41.67h20.61v4.17H27.64z"/>
  </g>
</svg>
