<?xml version="1.0" encoding="UTF-8"?>
<svg width="509px" height="146px" viewBox="0 0 509 146" version="1.1" xmlns="http://www.w3.org/2000/svg" xmlns:xlink="http://www.w3.org/1999/xlink">
    <title>Group</title>
    <g id="Page-2" stroke="none" stroke-width="1" fill="none" fill-rule="evenodd">
        <g id="Artboard" transform="translate(-4660.000000, -847.000000)" fill="#D7E0FD" fill-rule="nonzero">
            <g id="Group" transform="translate(4660.850000, 847.000000)">
                <path d="M415.42,93.48 C364.42,93.48 322.94,51.99 322.94,1 C322.94,0.45 323.39,0 323.94,0 C324.49,0 324.94,0.45 324.94,1 C324.94,50.89 365.53,91.48 415.42,91.48 C465.31,91.48 505.9,50.89 505.9,1 C505.9,0.45 506.35,0 506.9,0 C507.45,0 507.900002,0.45 507.900002,1 C507.91,51.99 466.42,93.48 415.42,93.48 Z" id="Path"></path>
                <path d="M60.37,145.04 C59.82,145.04 59.37,144.59 59.37,144.04 C59.37,111.85 33.18,85.67 1,85.67 C0.45,85.67 0,85.22 0,84.67 C0,84.12 0.45,83.67 1,83.67 C34.29,83.67 61.37,110.75 61.37,144.04 C61.37,144.59 60.92,145.04 60.37,145.04 Z" id="Path"></path>
                <g transform="translate(0.000000, 38.757500)">
                    <path d="M418.91,106.2825 L1,106.2825 C0.45,106.2825 0,105.8325 0,105.2825 C0,104.7325 0.45,104.2825 1,104.2825 L418.91,104.2825 C419.46,104.2825 419.91,104.7325 419.91,105.2825 C419.91,105.8325 419.46,106.2825 418.91,106.2825 Z" id="Path"></path>
                    <path d="M302.42,69.3225 L281.62,37.6625 C281.43,37.3825 281.12,37.2125 280.78,37.2125 L256.84,37.2125 L256.84,16.9325 C256.84,13.4025 253.97,10.5225 250.43,10.5225 L215.29,10.5225 L208.57,3.8025 C203.5,-1.2675 195.25,-1.2675 190.19,3.8025 L182.53,11.4625 C178.48,9.2425 173.83,7.9825 168.89,7.9825 C153.18,7.9825 140.39,20.7625 140.39,36.4825 C140.39,36.7325 140.41,36.9725 140.42,37.2225 L140.26,37.2225 C139.76,37.2225 139.37,37.5925 139.29,38.0625 L117.5,69.1125 C117.29,69.4225 117.26,69.8125 117.43,70.1525 C117.6,70.4825 117.94,70.6925 118.32,70.6925 L139.26,70.6925 L139.26,93.7725 C139.26,100.6825 144.88,106.3025 151.79,106.3025 L243.49,106.3025 L273.82,106.3025 C278.21,106.3025 281.78,102.7325 281.78,98.3425 L281.78,70.8925 L301.58,70.8925 C301.95,70.8925 302.29,70.6925 302.46,70.3625 C302.63,70.0325 302.62,69.6325 302.42,69.3225 Z M139.26,41.5725 L140.78,39.4025 L141.26,39.4025 L241.56,39.4025 L221.02,68.6625 L141.25,68.6625 L139.25,68.6625 L120.23,68.6625 L139.26,41.5725 Z M142.4,36.4625 C142.4,21.8525 154.29,9.9625 168.9,9.9625 C173.28,9.9625 177.42,11.0425 181.06,12.9325 C181.37,13.0925 181.67,13.2625 181.98,13.4325 C182.28,13.6025 182.58,13.7725 182.87,13.9625 C190.39,18.6425 195.4,26.9825 195.4,36.4725 C195.4,36.7225 195.38,36.9625 195.37,37.2125 L142.43,37.2125 C142.42,36.9625 142.4,36.7125 142.4,36.4625 Z M207.16,5.2125 L212.47,10.5225 L206.25,10.5225 C202.72,10.5225 199.84,13.3925 199.84,16.9325 L199.84,37.2125 L197.36,37.2125 C197.37,36.9625 197.39,36.7225 197.39,36.4725 C197.39,26.4325 192.17,17.5925 184.3,12.5225 L191.6,5.2225 C193.74,3.0825 196.56,2.0025 199.38,2.0025 C202.2,2.0025 205.02,3.0625 207.16,5.2125 Z M243.49,37.2025 L201.85,37.2025 L201.85,16.9225 C201.85,14.4925 203.83,12.5125 206.26,12.5125 L214.48,12.5125 L215.89,12.5125 L217.3,12.5125 L250.44,12.5125 C252.87,12.5125 254.85,14.4925 254.85,16.9225 L254.85,37.2025 L243.49,37.2025 Z M141.26,93.7525 L141.26,70.6725 L221.55,70.6725 C221.88,70.6725 222.18,70.5125 222.37,70.2425 L242.49,41.5725 L242.49,104.2825 L151.79,104.2825 C145.99,104.2825 141.26,99.5525 141.26,93.7525 Z M279.78,98.3225 C279.78,101.6125 277.11,104.2825 273.82,104.2825 L244.49,104.2825 L244.49,41.5525 L263.46,70.4225 C263.65,70.7025 263.96,70.8725 264.3,70.8725 L279.78,70.8725 L279.78,98.3225 Z M280.78,68.8725 L264.83,68.8725 L245.34,39.2125 L280.24,39.2125 L299.73,68.8725 L280.78,68.8725 Z" id="Shape"></path>
                </g>
            </g>
        </g>
    </g>
</svg>