<svg viewBox="0 0 50 50" xmlns="http://www.w3.org/2000/svg">
  <path d="M46.289 26.55a3.682 3.682 0 013.677 3.688v12.103a3.682 3.682 0 01-3.677 3.687H30.357a3.682 3.682 0 01-3.677-3.687V30.238a3.682 3.682 0 013.677-3.688h15.932zM19.454 4c6.116 0 9.372 3.346 9.37 9.67-.433 6.89-2.618 11.098-6.55 12.27l2.185 10.538-4.961 6.228-4.719-6.229 1.775-10.004h-.212c-7.548 0-13.689 6.006-13.879 13.485l-.005.358v1.948c0 .629.475 1.147 1.086 1.218l.144.008h19.807c.68 0 1.23.549 1.23 1.226 0 .628-.475 1.146-1.086 1.217l-.144.008H3.688a3.683 3.683 0 01-3.682-3.46L0 42.263v-1.948c0-8.181 6.047-14.954 13.927-16.117-2.324-2.062-3.654-5.638-3.985-10.627C10.046 7.333 13.346 4 19.454 4zm26.835 25.009H30.357c-.629 0-1.147.474-1.218 1.086l-.008.143v12.103c0 .63.473 1.15 1.083 1.22l.143.009h15.932c.628 0 1.147-.475 1.217-1.086l.009-.143V30.238c0-.63-.474-1.15-1.083-1.221l-.143-.008zm-2.368 8.506c.679 0 1.23.549 1.23 1.226 0 .628-.475 1.146-1.087 1.217l-.143.008h-5.598c-.68 0-1.23-.548-1.23-1.225 0-.629.475-1.147 1.086-1.218l.144-.008h5.598zm-10.508-3.677a2.455 2.455 0 012.458 2.451c0 1.354-1.1 2.452-2.458 2.452a2.455 2.455 0 01-2.458-2.452c0-1.353 1.1-2.45 2.458-2.45zm-14.322-7.586l-1.705 9.6 2.16 2.85 2.271-2.85-1.983-9.574a10.63 10.63 0 01-.743-.026zm24.83 6.36c.679 0 1.23.55 1.23 1.226 0 .629-.475 1.147-1.087 1.218l-.143.008h-5.598c-.68 0-1.23-.549-1.23-1.226 0-.628.475-1.146 1.086-1.217l.144-.009h5.598zM12.552 15.07l-.009.017c.7 5.77 2.992 8.545 6.9 8.731 3.879.185 6.146-2.594 6.806-8.806-1.564-.214-3.762-.928-6.696-2.13-3.08-1.263-5.289-.585-7 2.188zm6.902-8.618c-3.945 0-6.147 1.549-6.828 4.832 2.06-1.624 4.622-1.906 7.554-.792l1.094.44c2.242.887 3.953 1.425 5.058 1.62-.299-4.185-2.486-6.1-6.878-6.1z" fill-rule="nonzero"/>
</svg>
