<?xml version="1.0" encoding="UTF-8"?>
<svg width="16px" height="30px" viewBox="0 0 16 30" version="1.1" xmlns="http://www.w3.org/2000/svg" xmlns:xlink="http://www.w3.org/1999/xlink">
    <!-- Generator: Sketch 52 (66869) - http://www.bohemiancoding.com/sketch -->
    <title>filter</title>
    <desc>Created with Sketch.</desc>
    <g id="AHU-Illustration" stroke="none" stroke-width="1" fill="none" fill-rule="evenodd">
        <g id="Components" transform="translate(-1071.000000, -268.000000)" fill="#174A8E">
            <g id="filter" transform="translate(1070.000000, 268.000000)">
                <path d="M1.99469218,2.21931472 C4.93376775,1.17082197 7.26733081,0.646575595 8.99538137,0.646575595 C10.7234275,0.646575595 13.056983,1.17081927 15.9960479,2.21930663 L15.9960589,2.2192757 C16.5162517,2.40485023 16.7875134,2.97698771 16.6019389,3.49718053 C16.5783887,3.5631953 16.5479635,3.62655131 16.5111652,3.68620399 L9.84647211,14.4901225 C9.55651232,14.9601669 8.94040717,15.1061544 8.47036274,14.8161946 C8.3377535,14.734391 8.22609428,14.6227317 8.14429064,14.4901225 L1.47957923,3.68626318 C1.18960591,3.2161968 1.33560018,2.60006288 1.80566656,2.31008956 C1.86531992,2.27329075 1.92867666,2.24286525 1.99469218,2.21931472 Z" id="Path-16"></path>
                <path d="M1.99469218,15.4525212 C4.93376775,14.4040285 7.26733081,13.8797821 8.99538137,13.8797821 C10.7234275,13.8797821 13.056983,14.4040258 15.9960479,15.4525131 L15.9960589,15.4524822 C16.5162517,15.6380567 16.7875134,16.2101942 16.6019389,16.730387 C16.5783887,16.7964018 16.5479635,16.8597578 16.5111652,16.9194105 L9.84647211,27.723329 C9.55651232,28.1933734 8.94040717,28.3393609 8.47036274,28.0494011 C8.3377535,27.9675975 8.22609428,27.8559382 8.14429064,27.723329 L1.47957923,16.9194697 C1.18960591,16.4494033 1.33560018,15.8332694 1.80566656,15.5432961 C1.86531992,15.5064973 1.92867666,15.4760718 1.99469218,15.4525212 Z" id="Path-16-Copy" transform="translate(8.995381, 21.491393) scale(1, -1) translate(-8.995381, -21.491393) "></path>
            </g>
        </g>
    </g>
</svg>