<?xml version="1.0" encoding="UTF-8"?>
<svg width="22px" height="22px" viewBox="0 0 22 22" version="1.1" xmlns="http://www.w3.org/2000/svg" xmlns:xlink="http://www.w3.org/1999/xlink">
    <!-- Generator: Sketch 52.5 (67469) - http://www.bohemiancoding.com/sketch -->
    <title>Group 10 Copy 3</title>
    <desc>Created with Sketch.</desc>
    <g id="Page-1" stroke="none" stroke-width="1" fill="none" fill-rule="evenodd">
        <g id="Group-10-Copy-3" transform="translate(1.000000, 1.000000)" stroke="#000000">
            <circle id="Oval" stroke-width="1.3" cx="10" cy="10" r="10"></circle>
            <g id="wind" transform="translate(4.000000, 4.500000)" fill="#000000" stroke-width="0.2">
                <path d="M0.163570313,5.51063281 C0.873445313,6.11951562 1.67800781,6.80967969 3.23428125,6.80967969 C4.79060156,6.80965625 5.59521094,6.11951562 6.30510938,5.51063281 C6.97645313,4.93482031 7.55625,4.4375 8.76557813,4.4375 C9.97492969,4.4375 10.5547266,4.93482031 11.2260469,5.51063281 C11.4225703,5.67917187 11.7184922,5.65653125 11.8870313,5.46003125 C12.0555703,5.26350781 12.0329297,4.96758594 11.8364063,4.79904687 C11.1265078,4.19016406 10.3218984,3.5 8.76557813,3.5 C7.20925781,3.5 6.40464844,4.19014062 5.69475,4.79904687 C5.02340625,5.37485937 4.44360938,5.87217969 3.23428125,5.87217969 C2.02497656,5.87217969 1.44525,5.37488281 0.773953125,4.79904687 C0.577453125,4.63050781 0.28153125,4.653125 0.11296875,4.84964844 C-0.05559375,5.04614844 -0.0329296875,5.34209375 0.163570313,5.51063281 Z" id="Path"></path>
                <path d="M0.163570313,2.01063281 C0.873421875,2.61953906 1.67798438,3.30967969 3.23428125,3.30967969 C4.79060156,3.30967969 5.59521094,2.61953906 6.30510938,2.01063281 C6.97645313,1.43482031 7.55622656,0.9375 8.76557813,0.9375 C9.97488281,0.9375 10.5546797,1.43479687 11.2260469,2.01063281 C11.4225703,2.17921875 11.7184688,2.15650781 11.8870078,1.95998437 C12.0555703,1.76348437 12.0328594,1.46751562 11.8363594,1.299 C11.1264609,0.69009375 10.3218516,0 8.76557813,0 C7.20925781,0 6.40464844,0.690140625 5.69475,1.29904687 C5.02340625,1.87485937 4.44360938,2.37217969 3.23428125,2.37217969 C2.025,2.37217969 1.44525,1.87488281 0.773953125,1.29904687 C0.577453125,1.13048437 0.281507813,1.153125 0.11296875,1.34964844 C-0.05559375,1.54614844 -0.0329296875,1.84209375 0.163570313,2.01063281 Z" id="Path"></path>
                <path d="M11.8364062,8.42686719 C11.1265078,7.81798438 10.3218984,7.12782031 8.76557812,7.12782031 C7.20925781,7.12782031 6.40464844,7.81796094 5.69475,8.42686719 C5.02340625,9.00267969 4.44360937,9.5 3.23428125,9.5 C2.02504687,9.5 1.44527344,9.00270313 0.773976562,8.42691406 L0.773929687,8.42686719 C0.577429687,8.258375 0.28153125,8.28101563 0.11296875,8.47749219 C-0.0555703125,8.67399219 -0.03290625,8.9699375 0.16359375,9.13847656 C0.87346875,9.74738281 1.67805469,10.4375 3.23428125,10.4375 C4.79060156,10.4375 5.59521094,9.74735938 6.30510937,9.13845313 C6.97645312,8.56264063 7.55625,8.06532031 8.76557812,8.06532031 C9.97492969,8.06532031 10.5547266,8.56264063 11.2260469,9.13845313 C11.4225703,9.30699219 11.7184922,9.28435156 11.8870312,9.08785156 C12.0555703,8.89132813 12.0329297,8.59540625 11.8364062,8.42686719 Z" id="Path"></path>
            </g>
        </g>
    </g>
</svg>