<svg viewBox="0 0 160 147" xmlns="http://www.w3.org/2000/svg">
  <g fill="none" fill-rule="evenodd">
    <path d="M147.034 65.806C137.016 46.549 102.162.126 70.279 13.583c-64.747 27.326-84.422 66.414-59.937 91.6 12.597 12.957 98.31 51.35 133.819 39.246 33.512-11.422 3.257-77.885 2.873-78.623Z" fill="#F6F5FF"/>
    <path d="M49.292 74.057c-20.28-3.06-31.023-13.298-32.232-30.712-1.814-26.121 24.258-26.417 29.472-12.772 5.214 13.644-14.025 26.785-34.708 9.767C.276 30.838 5.49 12.254 18.134 5.563 28.132.271 37.32.221 42.195 3.496" stroke="#B3AFC9" stroke-width="1.776" stroke-linecap="round" stroke-dasharray="5.92"/>
    <path d="M17.544 83.187h2.767a.738.738 0 1 1 0 1.477h-2.767v2.77a.737.737 0 1 1-1.475 0v-2.77h-2.767a.738.738 0 1 1 0-1.477h2.767v-2.773a.737.737 0 0 1 1.475 0v2.773Z" fill="#FF3184"/>
    <path stroke="#39B3C2" stroke-width="1.776" opacity=".5" stroke-linejoin="round" d="M98.667 24.365h9.679l-4.84-8.467z"/>
    <path d="M153.808 83.811a3.836 3.836 0 0 0 3.833-3.839 3.836 3.836 0 0 0-3.833-3.838 3.836 3.836 0 0 0-3.834 3.838 3.836 3.836 0 0 0 3.834 3.839Z" stroke="#736795" stroke-width="2.013" stroke-linecap="round" stroke-linejoin="round" stroke-dasharray="8.288"/>
    <g transform="translate(52.667 31.252)">
      <path d="M69.63 72.047V88.13a2.368 2.368 0 0 1-2.444 2.367l-12.34-.39 14.783-18.06Z" fill="#FFF"/>
      <path d="M53.794 90.354H4.718A4.721 4.721 0 0 1 0 85.63V8.858a4.721 4.721 0 0 1 4.718-4.724h60.154a4.721 4.721 0 0 1 4.718 4.724v68.954" stroke="#B3AFC9" stroke-width="2.96" fill="#FFF" stroke-linecap="round"/>
      <ellipse fill="#FFF" cx="41.872" cy="65.551" rx="14.154" ry="14.173"/>
      <g transform="translate(11.205 24.803)">
        <ellipse fill="#FF3184" opacity=".3" cx="3.538" cy="3.543" rx="3.538" ry="3.543"/>
        <path d="M12.09 3.248h35.09" stroke="#D9D7E4" stroke-width="2.96" stroke-linecap="round"/>
      </g>
      <g transform="translate(11.205 39.567)">
        <ellipse fill="#97D6E0" opacity=".3" cx="3.538" cy="3.543" rx="3.538" ry="3.543"/>
        <path d="M12.09 3.248h35.09" stroke="#D9D7E4" stroke-width="2.96" stroke-linecap="round"/>
      </g>
      <g transform="translate(11.205 51.378)">
        <path d="M12.09 6.791h15.33" stroke="#D9D7E4" stroke-width="2.96" stroke-linecap="round"/>
        <g transform="translate(17.103)" stroke="#B3AFC9">
          <path d="m28.897 27.756 14.861 12.358" stroke-width="4.736" stroke-linecap="round"/>
          <ellipse stroke-width="2.96" fill="#FFF" cx="17.692" cy="17.717" rx="16.212" ry="16.237"/>
          <path d="M26.193 24.367a10.59 10.59 0 0 0 1.876-6.035c0-3.03-1.267-5.766-3.3-7.702" stroke-width="2.368" stroke-linecap="round"/>
        </g>
        <ellipse fill="#F5A623" opacity=".3" cx="3.538" cy="6.496" rx="3.538" ry="3.543"/>
      </g>
      <path d="M13.275 9.15h43.04V4.736a3.256 3.256 0 0 0-3.256-3.256H16.53a3.256 3.256 0 0 0-3.256 3.256V9.15Z" stroke="#B3AFC9" stroke-width="2.96" fill="#FFF"/>
    </g>
  </g>
</svg>
