<?xml version="1.0" encoding="UTF-8"?>
<svg width="29px" height="24px" viewBox="0 0 29 24" version="1.1" xmlns="http://www.w3.org/2000/svg" xmlns:xlink="http://www.w3.org/1999/xlink">
    <title>Desk</title>
    <g id="Design" stroke="none" stroke-width="1" fill="none" fill-rule="evenodd">
        <g id="Group" fill="#000000" fill-rule="nonzero">
            <g id="Desk">
                <path d="M20.8037383,10.0934579 L20.8037383,3.64485981 C20.8037383,1.63508411 19.1686542,0 17.1588785,0 L11.5514019,0 C9.54162617,0 7.90654206,1.63508411 7.90654206,3.64485981 L7.90654206,10.0934579 L0,10.0934579 L0,24 L4.48598131,24 L4.48598131,14.5794393 L7.90654206,14.5794393 L7.90654206,15.9813084 C7.90654206,17.0634953 8.78697196,17.9439252 9.86915888,17.9439252 L13.5140187,17.9439252 L13.5140187,19.2336449 L11.5514019,19.2336449 C10.469215,19.2336449 9.58878505,20.1140748 9.58878505,21.1962617 L9.58878505,22.1384299 C9.41478505,22.3360374 9.30841121,22.5945421 9.30841121,22.8785047 C9.30841121,23.4979065 9.81050467,24 10.4299065,24 C11.0493084,24 11.5514019,23.4979065 11.5514019,22.8785047 C11.5514019,22.5945421 11.445028,22.3359813 11.271028,22.1384299 L11.271028,21.1962617 C11.271028,21.0416636 11.3968037,20.9158879 11.5514019,20.9158879 L13.5140187,20.9158879 L13.5140187,22.1384299 C13.3400187,22.3360374 13.2336449,22.5945421 13.2336449,22.8785047 C13.2336449,23.4979065 13.7357383,24 14.3551402,24 C14.9745421,24 15.4766355,23.4979065 15.4766355,22.8785047 C15.4766355,22.5945421 15.3702617,22.3359813 15.1962617,22.1384299 L15.1962617,20.9158879 L17.1588785,20.9158879 C17.3134766,20.9158879 17.4392523,21.0416636 17.4392523,21.1962617 L17.4392523,22.1384299 C17.2652523,22.3360374 17.1588785,22.5945421 17.1588785,22.8785047 C17.1588785,23.4979065 17.660972,24 18.2803738,24 C18.8997757,24 19.4018692,23.4979065 19.4018692,22.8785047 C19.4018692,22.5945421 19.2954953,22.3359813 19.1214953,22.1384299 L19.1214953,21.1962617 C19.1214953,20.1140748 18.2410654,19.2336449 17.1588785,19.2336449 L15.1962617,19.2336449 L15.1962617,17.9439252 L18.8411215,17.9439252 C19.9233084,17.9439252 20.8037383,17.0634953 20.8037383,15.9813084 L20.8037383,14.5794393 L24.2242991,14.5794393 L24.2242991,24 L28.7102804,24 L28.7102804,10.0934579 L20.8037383,10.0934579 Z M9.58878505,3.64485981 C9.58878505,2.5626729 10.469215,1.68224299 11.5514019,1.68224299 L17.1588785,1.68224299 C18.2410654,1.68224299 19.1214953,2.5626729 19.1214953,3.64485981 L19.1214953,10.0934579 L9.58878505,10.0934579 L9.58878505,3.64485981 Z M2.80373832,22.317757 L1.68224299,22.317757 L1.68224299,14.5794393 L2.80373832,14.5794393 L2.80373832,22.317757 Z M19.1214953,15.9813084 C19.1214953,16.1359065 18.9957196,16.2616822 18.8411215,16.2616822 L9.86915888,16.2616822 C9.71456075,16.2616822 9.58878505,16.1359065 9.58878505,15.9813084 L9.58878505,14.5794393 L19.1214953,14.5794393 L19.1214953,15.9813084 Z M27.0280374,22.317757 L25.9065421,22.317757 L25.9065421,14.5794393 L27.0280374,14.5794393 L27.0280374,22.317757 Z M27.0280374,12.8971963 L1.68224299,12.8971963 L1.68224299,11.7757009 L27.0280374,11.7757009 L27.0280374,12.8971963 Z" id="Shape"></path>
                <rect id="Rectangle" x="11.7757009" y="5.04672897" width="5.1588785" height="1.68224299"></rect>
            </g>
        </g>
    </g>
</svg>