<svg id="Layer_1" data-name="Layer 1" xmlns="http://www.w3.org/2000/svg" viewBox="0 0 50 50"><defs><style>.cls-1{fill-rule:evenodd;}</style></defs><rect x="10.06" y="11.64" width="6.25" height="6.25"/><rect x="10.24" y="31.04" width="6.25" height="6.25"/><path class="cls-1" d="M39,0H5.05A5,5,0,0,0,0,5.05V45a5,5,0,0,0,5.05,5H39a5,5,0,0,0,5-5V5.05A5,5,0,0,0,39,0ZM21.44,9.81H34.65v3.3H21.44ZM8.06,9.64H18.31V19.89H8.06ZM18.5,39.3H8.24V29H18.5Zm2.94-22.71H29v3.3H21.44ZM29.17,39.3H21.63V36h7.54Zm5.66-6.78H21.63v-3.3h13.2Z"/></svg>