<svg version="1.1" fill="#606266" xmlns="http://www.w3.org/2000/svg" x="0" y="0" viewBox="0 0 444.8 444.8" xml:space="preserve">
  <path d="M148.267 212.8c-2.133-3.2-5.333-4.267-8.533-4.267s-6.4 1.066-10.667 3.2c-11.733 6.4-23.466 9.6-36.267 9.6-20.267 0-35.2-5.333-46.934-17.067-10.667-10.667-16-25.6-16-43.733s5.333-33.067 16-43.733c10.667-11.733 25.6-17.067 45.867-17.067 12.8 0 24.533 3.2 36.267 9.6 4.267 2.133 7.467 3.2 11.733 3.2 2.133 0 5.333-1.067 7.467-4.267 2.133-3.2 3.2-6.4 3.2-10.667 0-3.2-3.2-6.4-7.467-10.667s-11.733-7.467-20.267-10.667c-8.534-3.2-19.2-5.333-33.067-5.333-24.533 0-45.867 7.467-62.933 23.467C8.533 111.467 0 132.8 0 160.533s8.533 49.067 26.667 66.133c17.067 16 38.4 23.467 62.933 23.467 20.267 0 38.4-5.333 54.4-16 5.333-3.2 7.467-6.4 7.467-10.667s-1.067-7.466-3.2-10.666zM329.601 95.467c-16-16-36.267-24.533-62.933-24.533s-46.934 8.534-62.933 24.533c-16 17.067-23.467 38.4-23.467 65.067s7.467 49.067 23.467 65.067 36.267 24.533 62.933 24.533 46.933-8.533 62.933-24.533c16-17.067 23.467-38.4 23.467-65.067s-7.467-48.001-23.467-65.067zm-25.6 112c-5.333 5.333-11.734 8.534-18.133 10.667-6.4 2.133-12.8 3.2-19.2 3.2-6.4 0-12.8-1.066-19.2-3.2-6.4-2.133-12.8-5.333-18.133-10.667-5.333-4.267-9.6-10.667-13.867-18.133-3.2-8.534-5.333-17.067-5.333-28.8s2.133-21.333 5.333-28.8c9.6-22.4 26.667-33.067 51.2-33.067 14.933 0 26.667 4.267 37.333 13.867 11.733 10.667 18.133 26.667 18.133 46.933 0 21.333-6.4 37.333-18.133 48zM434.134 357.867h-71.467c1.067-4.267 5.333-7.467 9.6-11.733 4.267-3.2 9.6-7.467 16-11.733l19.2-12.8c6.4-4.267 12.8-8.533 18.133-13.867 12.8-11.733 19.2-23.466 19.2-36.267 0-11.733-4.267-22.4-13.867-29.867-8.534-7.467-19.2-11.733-33.067-11.733-17.066 0-32 3.2-45.867 10.667-3.2 1.067-4.267 3.2-4.267 6.4s1.067 5.333 2.133 6.4c2.133 1.067 4.267 2.133 5.333 2.133s3.2 0 4.267-1.067c11.733-5.333 23.466-7.467 35.2-7.467s20.267 2.133 25.6 7.467c2.133 2.133 4.267 4.267 5.333 7.467 1.067 3.2 2.133 7.467 2.133 11.733s-2.133 9.6-6.4 13.867c-4.267 5.333-8.533 9.6-14.933 13.867-6.4 4.267-12.8 8.534-20.267 12.8-7.466 4.267-13.867 8.533-20.267 13.867-5.333 5.333-10.667 10.667-14.933 16-4.267 5.333-6.4 11.733-6.4 19.2 0 3.2 1.066 5.333 3.2 7.467 2.133 2.133 4.267 3.2 7.467 3.2h78.933c2.133 0 4.267 0 6.4-2.133 1.067-2.133 2.133-4.267 2.133-6.4s0-4.267-2.133-6.4c-2.131-1.068-4.264-2.135-6.397-1.068z"/>
</svg>
