<?xml version="1.0" encoding="UTF-8"?>
<svg width="330px" height="524px" viewBox="0 0 330 524" version="1.1" xmlns="http://www.w3.org/2000/svg" xmlns:xlink="http://www.w3.org/1999/xlink">
    <title>Group 2</title>
    <g id="Page-1" stroke="none" stroke-width="1" fill="none" fill-rule="evenodd">
        <g id="Group-2" fill="#000000">
            <path d="M165.190615,215.26 C105.717615,215.26 57.560615,167.1 57.560615,107.63 C57.560615,48.16 105.720615,0 165.190615,0 C224.663615,0 272.820615,48.16 272.820615,107.63 C272.707335,167.103 224.547615,215.26 165.190615,215.26 Z M165.190615,35.83 C125.542615,35.83 93.397615,67.975 93.397615,107.623 C93.397615,147.271 125.542615,179.416 165.190615,179.416 C204.838615,179.416 236.983615,147.271 236.983615,107.623 C236.983615,67.975 204.838615,35.83 165.190615,35.83 Z" id="Shape" fill-rule="nonzero"></path>
            <path d="M311.020615,406.33 C301.165115,406.33 293.098615,398.2675 293.098615,388.408 L293.098615,359.064 C293.098615,317.4 259.274615,283.689 217.723615,283.689 L112.673615,283.689 C71.009615,283.689 37.298615,317.513 37.298615,359.064 L37.298615,388.408 C37.298615,398.2635 29.236115,406.33 19.376615,406.33 C9.521115,406.33 1.454615,398.2675 1.454615,388.408 L1.454615,359.064 C1.567895,297.689 51.294615,247.854 112.664615,247.854 L217.714615,247.854 C279.089615,247.96728 328.924616,297.694 328.924616,359.064 L328.924616,388.408 C328.928521,398.2674 320.866015,406.33 311.010615,406.33 L311.020615,406.33 Z" id="Path" fill-rule="nonzero"></path>
            <path d="M318.115618,431 C324.678201,431 330,435.614164 330,441.304321 C330,446.597039 325.414916,450.959169 319.501807,451.55048 L318.115618,451.618336 L11.8746879,451.618336 C5.33149252,451.618336 0,447.004171 0,441.314015 C0,436.03099 4.58508357,431.66886 10.4884998,431.077549 L11.8746879,431.009694 L318.115618,431.009694 L318.115618,431 Z M204.884411,503.178715 C211.33067,503.178715 216.555533,507.802573 216.555533,513.49273 C216.555533,518.785448 212.047998,523.137884 206.241518,523.738889 L204.884411,523.806744 L11.6808154,523.806744 C5.22486267,523.806744 0,519.19258 0,513.49273 C0,508.209705 4.50753459,503.847575 10.3140146,503.246571 L11.6711218,503.178715 L204.884411,503.178715 Z" id="Shape"></path>
        </g>
    </g>
</svg>