<svg viewBox="0 0 512 512" xmlns="http://www.w3.org/2000/svg">
  <g fill-rule="nonzero">
    <path d="M231.898 234.326c28.204 0 51.153-23.259 51.153-51.846 0-28.592-22.95-51.85-51.153-51.85s-51.148 23.258-51.148 51.85c0 28.587 22.945 51.846 51.148 51.846zm0-73.287c11.665 0 21.153 9.618 21.153 21.44 0 11.82-9.488 21.438-21.153 21.438-11.66 0-21.148-9.618-21.148-21.437 0-11.823 9.488-21.441 21.148-21.441z"/>
    <path d="M493.305 33.507H18.695C8.387 33.507 0 42.007 0 52.457v407.205c0 10.449 8.387 18.95 18.695 18.95h474.61c10.308 0 18.695-8.501 18.695-18.95V52.457c0-10.45-8.387-18.95-18.695-18.95zM482 63.916V304.56l-94.352-95.643a15.648 15.648 0 0 0-22.304.012L231.902 344.19l-85.238-86.396c-2.98-3.025-6.945-4.692-11.164-4.692-4.215 0-8.176 1.663-11.156 4.684L30 353.416v-289.5h452zM30 448.203V396.42l105.5-106.938 85.234 86.396c2.985 3.025 6.95 4.696 11.168 4.696 4.211 0 8.176-1.667 11.153-4.688L376.5 240.621l105.504 106.943v100.639H30z"/>
  </g>
</svg>
