<?xml version="1.0" encoding="UTF-8"?>
<svg width="512px" height="358px" viewBox="0 0 512 358" version="1.1" xmlns="http://www.w3.org/2000/svg" xmlns:xlink="http://www.w3.org/1999/xlink">
    <!-- Generator: Sketch 52.6 (67491) - http://www.bohemiancoding.com/sketch -->
    <title>one-box</title>
    <desc>Created with Sketch.</desc>
    <g id="Page-1" stroke="none" stroke-width="1" fill="none" fill-rule="evenodd">
        <g id="one-box" transform="translate(0.000000, -0.032680)" fill="#A3BFCE" fill-rule="nonzero">
            <path d="M497.95932,0.629960784 L14.0406797,0.629960784 C6.28538562,0.629960784 0,6.91701961 0,14.6706405 L0,88.4722614 C0,96.226719 6.28538562,102.512941 14.0406797,102.512941 L32.4609673,102.512941 L32.4609673,343.394719 C32.4609673,351.149176 38.7463529,357.435399 46.5016471,357.435399 L465.49668,357.435399 C473.251974,357.435399 479.537359,351.14834 479.537359,343.394719 L479.537359,102.512941 L497.957647,102.512941 C505.712941,102.512941 511.998327,96.2258824 511.998327,88.4722614 L511.998327,14.6706405 C512,6.91701961 505.714614,0.629960784 497.95932,0.629960784 Z M483.918641,74.4315817 L28.0821961,74.4315817 L28.0821961,28.7121569 L483.918641,28.7121569 L483.918641,74.4315817 Z M451.456837,329.354039 L60.5431634,329.354039 L60.5431634,102.512941 L451.456837,102.512941 L451.456837,329.354039 Z" id="Shape"></path>
            <path d="M156.331503,244.707556 L355.668497,244.707556 C373.741595,244.707556 388.445699,230.004288 388.445699,211.93119 L388.445699,171.548444 C388.445699,153.475346 373.742431,138.771242 355.668497,138.771242 L156.331503,138.771242 C138.258405,138.771242 123.554301,153.47451 123.554301,171.548444 L123.554301,211.93119 C123.555137,230.005124 138.258405,244.707556 156.331503,244.707556 Z M151.637333,171.549281 C151.637333,168.960837 153.744732,166.853438 156.333176,166.853438 L355.668497,166.853438 C358.256941,166.853438 360.36434,168.96 360.36434,171.549281 L360.36434,211.932026 C360.36434,214.520471 358.256941,216.626196 355.668497,216.626196 L156.331503,216.626196 C153.743059,216.626196 151.63566,214.519634 151.63566,211.932026 L151.63566,171.549281 L151.637333,171.549281 Z" id="Shape"></path>
        </g>
    </g>
</svg>