<svg xmlns="http://www.w3.org/2000/svg" viewBox="0 0 512.001 512.001" fill="#ed8a19">
  <path d="M146.152 313.368c-28.385 0-51.479 23.093-51.479 51.479s23.093 51.479 51.479 51.479 51.479-23.093 51.479-51.479-23.094-51.479-51.479-51.479zm0 87.964c-20.118 0-36.485-16.367-36.485-36.485s16.367-36.485 36.485-36.485 36.485 16.367 36.485 36.485-16.367 36.485-36.485 36.485zM146.152 263.389c-11.299 0-20.492 9.192-20.492 20.492 0 11.299 9.192 20.492 20.492 20.492s20.492-9.192 20.492-20.492-9.192-20.492-20.492-20.492zm0 25.989c-3.032 0-5.498-2.466-5.498-5.498s2.466-5.498 5.498-5.498 5.498 2.466 5.498 5.498-2.466 5.498-5.498 5.498zM217.895 293.106a20.358 20.358 0 00-14.49-6.002 20.35 20.35 0 00-14.489 6.002c-3.871 3.87-6.003 9.016-6.003 14.49s2.132 10.62 6.003 14.49c3.994 3.994 9.24 5.992 14.489 5.992 5.247 0 10.495-1.998 14.489-5.992l.001-.001a20.358 20.358 0 006.002-14.489 20.36 20.36 0 00-6.002-14.49zm-10.603 18.377a5.503 5.503 0 01-7.775 0 5.458 5.458 0 01-1.61-3.887 5.454 5.454 0 011.61-3.888 5.461 5.461 0 013.887-1.609c1.468 0 2.849.572 3.887 1.61a5.456 5.456 0 011.61 3.887 5.455 5.455 0 01-1.609 3.887zM227.119 344.355c-11.299 0-20.492 9.192-20.492 20.492s9.192 20.492 20.492 20.492 20.492-9.192 20.492-20.492-9.194-20.492-20.492-20.492zm0 25.99c-3.032 0-5.498-2.466-5.498-5.498s2.466-5.498 5.498-5.498 5.498 2.466 5.498 5.498-2.468 5.498-5.498 5.498zM217.893 407.608c-7.99-7.989-20.989-7.987-28.978 0a20.36 20.36 0 00-6.003 14.49 20.352 20.352 0 006.003 14.49c3.87 3.87 9.016 6.001 14.489 6.001s10.62-2.131 14.49-6.001c3.87-3.87 6.001-9.016 6.001-14.49s-2.131-10.618-6.002-14.49zm-10.601 18.378c-1.039 1.039-2.419 1.61-3.887 1.61s-2.849-.572-3.887-1.609l-.001-.001a5.456 5.456 0 01-1.61-3.887 5.46 5.46 0 011.61-3.887 5.478 5.478 0 013.887-1.607c1.407 0 2.816.536 3.887 1.606a5.462 5.462 0 011.61 3.888 5.46 5.46 0 01-1.609 3.887zM146.152 425.322c-11.299 0-20.492 9.192-20.492 20.492s9.192 20.492 20.492 20.492 20.492-9.192 20.492-20.492-9.193-20.492-20.492-20.492zm0 25.989c-3.032 0-5.498-2.466-5.498-5.498s2.466-5.498 5.498-5.498 5.498 2.466 5.498 5.498-2.467 5.498-5.498 5.498zM103.389 407.608c-7.99-7.988-20.988-7.989-28.978 0a20.358 20.358 0 00-6.003 14.49c0 5.475 2.131 10.62 6.002 14.49a20.357 20.357 0 0014.49 6.001c5.474 0 10.62-2.131 14.489-6.001 3.871-3.87 6.003-9.016 6.003-14.49s-2.133-10.619-6.003-14.49zm-10.603 18.379a5.461 5.461 0 01-3.887 1.609 5.462 5.462 0 01-3.887-1.61 5.456 5.456 0 01-1.61-3.887c0-1.468.572-2.849 1.61-3.887a5.503 5.503 0 017.775 0 5.458 5.458 0 011.61 3.887 5.453 5.453 0 01-1.611 3.888zM65.186 344.355c-11.299 0-20.492 9.192-20.492 20.492s9.192 20.492 20.492 20.492 20.492-9.192 20.492-20.492-9.193-20.492-20.492-20.492zm0 25.99c-3.032 0-5.498-2.466-5.498-5.498s2.466-5.498 5.498-5.498 5.498 2.466 5.498 5.498-2.468 5.498-5.498 5.498zM103.391 293.107l-.001-.001a20.357 20.357 0 00-14.489-6.001 20.359 20.359 0 00-14.49 6.001 20.358 20.358 0 00-6.002 14.49 20.353 20.353 0 006.003 14.49c3.993 3.994 9.24 5.992 14.488 5.991 5.248 0 10.496-1.997 14.49-5.991a20.36 20.36 0 006.003-14.49 20.36 20.36 0 00-6.002-14.489zm-10.603 18.376a5.505 5.505 0 01-7.775.001 5.462 5.462 0 01-1.61-3.888 5.454 5.454 0 011.609-3.887 5.46 5.46 0 013.887-1.61 5.465 5.465 0 013.888 1.61 5.456 5.456 0 011.61 3.887 5.449 5.449 0 01-1.609 3.887zM469.581 77.137h-2.984l2.11-2.109a12.588 12.588 0 003.71-8.958c0-3.384-1.317-6.564-3.71-8.958l-10.823-10.823c-4.939-4.939-12.976-4.938-17.917.001l-2.109 2.109v-2.984c0-6.985-5.684-12.669-12.669-12.669h-15.305c-6.985 0-12.669 5.684-12.669 12.669v2.984l-2.109-2.11c-4.939-4.939-12.977-4.939-17.916 0L366.371 57.11a12.588 12.588 0 00-3.71 8.958c0 3.384 1.317 6.564 3.71 8.958l2.111 2.11h-2.984c-6.985 0-12.669 5.684-12.669 12.669v15.305c0 6.985 5.684 12.669 12.669 12.669h2.984l-2.11 2.109c-2.393 2.394-3.71 5.575-3.71 8.958s1.317 6.564 3.71 8.958l10.821 10.822c4.939 4.939 12.976 4.938 17.917-.001l2.109-2.109v2.984c0 6.985 5.684 12.669 12.669 12.669h15.305c6.985 0 12.669-5.684 12.669-12.669v-2.984l2.109 2.11c4.94 4.939 12.977 4.939 17.916 0l10.822-10.822c2.393-2.394 3.71-5.575 3.71-8.958s-1.317-6.564-3.71-8.958l-2.11-2.109h2.984c6.985 0 12.669-5.684 12.669-12.669V89.806c-.002-6.985-5.686-12.669-12.671-12.669zm-2.325 25.646H463.7c-5.238 0-9.871 3.19-11.804 8.13a34.96 34.96 0 01-.561 1.353c-2.12 4.838-1.106 10.348 2.584 14.037l2.541 2.541-7.533 7.533-2.541-2.542c-3.69-3.688-9.2-4.705-14.035-2.585-.45.197-.905.386-1.355.563-4.938 1.931-8.13 6.563-8.13 11.803v3.558h-10.654v-3.558c0-5.239-3.191-9.872-8.122-11.8-.459-.18-.914-.368-1.361-.564-4.837-2.121-10.347-1.106-14.036 2.585l-2.541 2.541-7.533-7.533 2.541-2.541c3.689-3.69 4.704-9.199 2.584-14.038a38.875 38.875 0 01-.562-1.355c-1.932-4.936-6.565-8.127-11.803-8.127h-3.557V92.131h3.557c5.238 0 9.871-3.191 11.804-8.13.178-.456.365-.907.561-1.353 2.12-4.838 1.106-10.348-2.584-14.037l-2.541-2.541 7.533-7.533 2.541 2.542c3.69 3.688 9.199 4.703 14.035 2.585.45-.197.905-.386 1.355-.563 4.938-1.931 8.13-6.563 8.13-11.803V47.74h10.654v3.557c0 5.239 3.191 9.872 8.122 11.8.459.18.914.368 1.361.564 4.837 2.121 10.347 1.106 14.036-2.585l2.541-2.541 7.533 7.533-2.541 2.541c-3.689 3.69-4.704 9.199-2.584 14.038.195.446.382.897.562 1.355 1.932 4.936 6.565 8.127 11.803 8.127h3.557v10.654z"/>
  <path d="M417.54 70.738c-14.733 0-26.721 11.986-26.721 26.72s11.987 26.72 26.721 26.72 26.72-11.986 26.72-26.72-11.987-26.72-26.72-26.72zm0 38.445c-6.465 0-11.727-5.259-11.727-11.725s5.261-11.727 11.727-11.727 11.726 5.261 11.726 11.726c0 6.465-5.261 11.726-11.726 11.726z"/>
  <path d="M417.54 2.997c-23.5 0-45.021 8.628-61.568 22.88-.119.085-.24.165-.355.258l-239.483 193.35a16.645 16.645 0 00-2.654-1.437 16.564 16.564 0 00-12.765-.142l-21.919 8.796a16.562 16.562 0 00-9.127 8.926 16.577 16.577 0 00-.142 12.765l2.39 5.956a129.724 129.724 0 00-32.586 31.879l-5.907-2.523a16.573 16.573 0 00-12.765-.142 16.568 16.568 0 00-9.126 8.925l-9.28 21.72a16.575 16.575 0 00-.142 12.764 16.568 16.568 0 008.925 9.126l5.907 2.523a129.771 129.771 0 00-.512 45.585l-5.956 2.39a16.566 16.566 0 00-9.126 8.926 16.578 16.578 0 00-.142 12.765l8.795 21.921a16.568 16.568 0 008.925 9.126c4.096 1.75 8.63 1.8 12.764.142l5.956-2.39a129.781 129.781 0 0031.879 32.588l-2.524 5.907c-3.614 8.456.327 18.276 8.784 21.889l21.72 9.28c8.46 3.615 18.276-.327 21.89-8.782l2.524-5.908a129.719 129.719 0 0045.584.512l2.39 5.957a16.568 16.568 0 008.925 9.126c2.105.9 4.327 1.35 6.55 1.35 2.102 0 4.205-.402 6.214-1.208l21.919-8.796a16.562 16.562 0 009.127-8.926c1.75-4.097 1.8-8.629.142-12.765l-2.39-5.956a129.723 129.723 0 0032.586-31.879l5.907 2.523a16.573 16.573 0 0012.765.142 16.568 16.568 0 009.126-8.925l9.28-21.72a16.549 16.549 0 00.725-11.024l198.05-241.036c.114-.141.214-.285.315-.427 14.243-16.544 22.866-38.058 22.866-61.551 0-52.085-42.376-94.46-94.461-94.46zM276.261 405.598l-9.28 21.72a1.686 1.686 0 01-2.211.888l-10.161-4.341a9.34 9.34 0 00-11.458 3.436c-9.116 13.747-20.795 25.173-34.713 33.957a9.342 9.342 0 00-3.691 11.381l4.113 10.25c.215.535.111.997-.015 1.289a1.647 1.647 0 01-.922.901l-21.921 8.797c-.535.214-.998.11-1.289-.015a1.655 1.655 0 01-.902-.922l-4.114-10.254a9.344 9.344 0 00-10.534-5.669c-16.13 3.272-32.466 3.09-48.553-.544a9.348 9.348 0 00-10.658 5.437l-4.341 10.161a1.686 1.686 0 01-2.211.888l-21.72-9.28a1.688 1.688 0 01-.888-2.211l4.342-10.162a9.344 9.344 0 00-3.437-11.458c-13.747-9.116-25.173-20.795-33.956-34.71a9.345 9.345 0 00-11.381-3.694l-10.252 4.113c-.536.214-.998.11-1.289-.015a1.655 1.655 0 01-.902-.922l-8.795-21.921a1.647 1.647 0 01.015-1.289c.125-.293.386-.687.922-.902l10.249-4.112a9.345 9.345 0 005.673-10.536c-3.272-16.129-3.089-32.466.544-48.553a9.343 9.343 0 00-5.437-10.658l-10.161-4.341a1.66 1.66 0 01-.902-.922 1.65 1.65 0 01.015-1.289l9.28-21.72a1.687 1.687 0 012.211-.888l10.161 4.341a9.344 9.344 0 0011.459-3.437c9.116-13.746 20.794-25.171 34.712-33.956a9.342 9.342 0 003.691-11.381l-4.113-10.25a1.647 1.647 0 01.015-1.289c.125-.293.386-.687.922-.901l21.921-8.797a1.647 1.647 0 011.289.015c.125.053.267.138.406.251a7.456 7.456 0 001.122 2.231l3.488 8.692c1.68 4.182 6.108 6.561 10.535 5.67 16.129-3.273 32.465-3.091 48.553.544a9.344 9.344 0 0010.658-5.437l4.341-10.161a1.689 1.689 0 012.211-.888l21.72 9.28a1.688 1.688 0 01.888 2.211l-4.342 10.162a9.344 9.344 0 003.437 11.458c13.747 9.116 25.173 20.795 33.956 34.71a9.346 9.346 0 0011.381 3.694l10.251-4.112.001-.001a1.642 1.642 0 011.289.015c.293.125.687.387.902.922l8.795 21.921c.215.535.111.997-.015 1.289a1.651 1.651 0 01-.922.902l-10.249 4.112a9.344 9.344 0 00-5.673 10.536c3.272 16.129 3.089 32.466-.544 48.553a9.344 9.344 0 005.437 10.658l10.161 4.341c.53.227.783.627.902.922.118.296.211.76-.016 1.29zM417.54 176.925c-15.463 0-30.453-4.447-43.352-12.861a7.497 7.497 0 00-8.192 12.559c15.341 10.007 33.164 15.296 51.544 15.296a94.072 94.072 0 0028.903-4.529L280.548 389.293l-5.188-2.216a129.771 129.771 0 00.512-45.585l5.956-2.39a16.566 16.566 0 009.126-8.926c1.75-4.097 1.8-8.63.142-12.765L282.3 295.49a16.568 16.568 0 00-8.925-9.126 16.566 16.566 0 00-12.764-.142l-5.956 2.39a129.781 129.781 0 00-31.879-32.588l2.524-5.907c3.614-8.456-.327-18.276-8.784-21.889l-21.72-9.28c-8.457-3.615-18.276.327-21.89 8.782l-2.524 5.908a129.72 129.72 0 00-45.584-.512l-.414-1.033L327.843 67.83a94.066 94.066 0 00-4.764 29.628c0 20.74 6.599 40.428 19.085 56.934a7.496 7.496 0 0010.502 1.456 7.496 7.496 0 001.456-10.502c-10.5-13.881-16.049-30.44-16.049-47.889 0-43.819 35.649-79.467 79.467-79.467s79.467 35.648 79.467 79.467-35.649 79.468-79.467 79.468z"/>
</svg>
