<svg width="16" height="16" viewBox="0 0 16 16" xmlns="http://www.w3.org/2000/svg">
    <g fill="none" fill-rule="evenodd">
        <path d="M13.903.674H2.107C1.322.675.685 1.312.684 2.097v3.41A2.448 2.448 0 0 0 2.182 7.76v6.213c0 .746.605 1.351 1.351 1.352H12.5c.746 0 1.35-.606 1.352-1.352V7.742c.257-.113.494-.269.7-.46.46-.423.739-1.008.777-1.631V2.098A1.424 1.424 0 0 0 13.903.674zm-7.57 13.651a.102.102 0 0 1-.005-.032v-.328a1.3 1.3 0 0 1 1.299-1.298h.756a1.3 1.3 0 0 1 1.298 1.297v.329c0 .01-.002.02-.005.031l-3.343.001zm1-3.538a.673.673 0 1 1 1.347 0 .673.673 0 0 1-1.347 0zm5.517 3.186c0 .194-.156.351-.35.352h-1.907v-.36c0-.927-.578-1.755-1.448-2.076a1.583 1.583 0 1 0-2.28 0 2.214 2.214 0 0 0-1.448 2.076v.36H3.533a.352.352 0 0 1-.351-.352V7.951a2.46 2.46 0 0 0 2.333-1.912.043.043 0 0 1 .044-.032c.02-.001.04.012.045.032a2.445 2.445 0 0 0 4.773 0 .047.047 0 0 1 .089 0 2.46 2.46 0 0 0 2.382 1.917l.002 6.017zm1.478-8.466a1.47 1.47 0 0 1-1.473 1.445 1.454 1.454 0 0 1-1.41-1.13 1.046 1.046 0 0 0-2.042 0 1.446 1.446 0 0 1-2.82 0 1.047 1.047 0 0 0-2.042 0 1.445 1.445 0 0 1-2.855-.315v-3.41c0-.233.19-.422.423-.423h11.794c.234 0 .423.19.423.424l.002 3.409z" fill="#334056" fill-rule="nonzero"/>
        <path d="M0 0h16v16H0z"/>
        <path d="M0 0h16v16H0z"/>
    </g>
</svg>
