<svg id="Capa_1" enable-background="new 0 0 512 512" height="512" viewBox="0 0 512 512" width="512" xmlns="http://www.w3.org/2000/svg"><g><path d="m151 345c0 16.569 13.431 30 30 30h150c16.569 0 30-13.431 30-30v-30h-210z"/><path d="m353.241 41.263c-1.929-23.138-21.627-41.263-44.845-41.263h-104.792c-23.218 0-42.917 18.125-44.845 41.263l-15 180c-1.042 12.505 3.233 24.973 11.73 34.207s20.566 14.53 33.115 14.53h37.396v15h60v-15h37.396c12.548 0 24.618-5.296 33.115-14.53s12.772-21.702 11.73-34.207z"/><path d="m350.744 452.77-79.744-26.582v-21.188h-30v21.188l-79.743 26.581c-6.126 2.043-10.257 7.774-10.257 14.231v30c0 8.284 6.716 15 15 15s15-6.716 15-15v-19.188l60-20v29.188c0 8.284 6.716 15 15 15s15-6.716 15-15v-29.188l60 20v19.188c0 8.284 6.716 15 15 15s15-6.716 15-15v-30c0-6.457-4.131-12.188-10.256-14.23z"/><path d="m446 205h-40c-8.284 0-15 6.716-15 15s6.716 15 15 15h5v60c0 11.046-8.954 20-20 20v30c27.614 0 50-22.386 50-50v-60h5c8.284 0 15-6.716 15-15s-6.716-15-15-15z"/><path d="m106 235c8.284 0 15-6.716 15-15s-6.716-15-15-15h-40c-8.284 0-15 6.716-15 15s6.716 15 15 15h5v60c0 27.614 22.386 50 50 50v-30c-11.046 0-20-8.954-20-20v-60z"/></g></svg>