<?xml version="1.0" encoding="UTF-8"?>
<svg width="50px" height="50px" viewBox="0 0 50 50" version="1.1" xmlns="http://www.w3.org/2000/svg" xmlns:xlink="http://www.w3.org/1999/xlink">
    <!-- Generator: Sketch 63.1 (92452) - https://sketch.com -->
    <title>triangle</title>
    <desc>Created with Sketch.</desc>
    <g id="triangle" stroke="none" stroke-width="1" fill="none" fill-rule="evenodd">
        <path d="M23.3784748,3.43116877 C24.8965218,2.56455889 26.8111067,3.04660726 27.7506645,4.49784867 L27.8546699,4.66957916 L49.571432,43.072018 C49.8523231,43.5687267 50,44.130219 50,44.7015054 C50,46.4581527 48.6332847,47.8940753 46.9099451,47.9944006 L46.7170466,48 L3.28352258,48 C2.71492788,48 2.15608113,47.851624 1.66171274,47.5694032 C0.143665684,46.7027933 -0.424280859,44.8035383 0.335550428,43.2496962 L0.429137262,43.072018 L22.1458993,4.66957916 C22.4381835,4.15272374 22.8640546,3.72483662 23.3784748,3.43116877 Z M25.0002846,6.29906653 L3.28352258,44.7015054 L46.7170466,44.7015054 L25.0002846,6.29906653 Z" id="Path-61" fill="#324056" fill-rule="nonzero"></path>
    </g>
</svg>