<svg viewBox="0 0 50 50" xmlns="http://www.w3.org/2000/svg">
  <path d="M27.92.929l.19.143 20 15.692a4.917 4.917 0 011.884 3.615l.006.25v24.434c0 2.655-2.122 4.82-4.783 4.932L45 50H5C2.311 50 .118 47.904.005 45.277L0 45.063V20.63c0-1.422.62-2.77 1.695-3.705l.194-.16 20-15.692a5.051 5.051 0 016.03-.143zM23.896 3.29l-.14.1-20 15.693c-.43.337-.698.832-.748 1.366L3 20.63v24.434c0 1.041.816 1.894 1.85 1.97l.15.005 11.499-.001.001-16.81c0-1.309 1.032-2.38 2.336-2.463l.164-.005h12.387c1.325 0 2.41 1.018 2.495 2.306l.005.162-.001 16.81H45a1.99 1.99 0 001.995-1.827l.005-.147V20.63c0-.542-.225-1.057-.619-1.428l-.137-.118-20-15.692a2.02 2.02 0 00-2.348-.1zm6.99 27.43H19.5l-.001 16.317h11.387V30.721z" fill="#324055" fill-rule="nonzero"/>
</svg>
