<svg xmlns="http://www.w3.org/2000/svg" width="1680" height="533" viewBox="0 0 1680 533">
    <g fill="none" fill-rule="evenodd">
        <g>
            <g>
                <path fill="#F7F7FF" d="M0 1L110.945 0 110.945 216.864 0 216.864z" transform="translate(0 .837) translate(0 296.163)"/>
                <path fill="#FFF" d="M15.603 18.786L27.645 18.786 27.645 39.825 15.603 39.825zM35.603 18.786L47.645 18.786 47.645 39.825 35.603 39.825zM55.603 18.786L67.645 18.786 67.645 39.825 55.603 39.825zM75.603 18.786L87.645 18.786 87.645 39.825 75.603 39.825zM15.603 48.786L27.645 48.786 27.645 69.825 15.603 69.825zM35.603 48.786L47.645 48.786 47.645 69.825 35.603 69.825zM55.603 48.786L67.645 48.786 67.645 69.825 55.603 69.825zM75.603 48.786L87.645 48.786 87.645 69.825 75.603 69.825zM15.603 78.786L27.645 78.786 27.645 99.825 15.603 99.825zM35.603 78.786L47.645 78.786 47.645 99.825 35.603 99.825zM55.603 78.786L67.645 78.786 67.645 99.825 55.603 99.825zM75.603 78.786L87.645 78.786 87.645 99.825 75.603 99.825zM15.603 108.786L27.645 108.786 27.645 129.825 15.603 129.825zM35.603 108.786L47.645 108.786 47.645 129.825 35.603 129.825zM55.603 108.786L67.645 108.786 67.645 129.825 55.603 129.825zM75.603 108.786L87.645 108.786 87.645 129.825 75.603 129.825zM15.603 138.786L27.645 138.786 27.645 159.825 15.603 159.825zM35.603 138.786L47.645 138.786 47.645 159.825 35.603 159.825zM55.603 138.786L67.645 138.786 67.645 159.825 55.603 159.825zM75.603 138.786L87.645 138.786 87.645 159.825 75.603 159.825zM15.603 168.786L27.645 168.786 27.645 189.825 15.603 189.825zM35.603 168.786L47.645 168.786 47.645 189.825 35.603 189.825zM55.603 168.786L67.645 168.786 67.645 189.825 55.603 189.825zM75.603 168.786L87.645 168.786 87.645 189.825 75.603 189.825zM15.603 198.786L27.645 198.786 27.645 216.786 15.603 216.786zM35.603 198.786L47.645 198.786 47.645 216.786 35.603 216.786zM55.603 198.786L67.645 198.786 67.645 216.786 55.603 216.786zM75.603 198.786L87.645 198.786 87.645 216.786 75.603 216.786z" transform="translate(0 .837) translate(0 296.163)"/>
            </g>
            <g>
                <path fill="#F7F7FF" d="M0 1L110.945 0 110.945 216.864 0 216.864z" transform="translate(0 .837) translate(1578 296)"/>
                <path fill="#FFF" d="M15.603 18.786L27.645 18.786 27.645 39.825 15.603 39.825zM35.603 18.786L47.645 18.786 47.645 39.825 35.603 39.825zM55.603 18.786L67.645 18.786 67.645 39.825 55.603 39.825zM75.603 18.786L87.645 18.786 87.645 39.825 75.603 39.825zM15.603 48.786L27.645 48.786 27.645 69.825 15.603 69.825zM35.603 48.786L47.645 48.786 47.645 69.825 35.603 69.825zM55.603 48.786L67.645 48.786 67.645 69.825 55.603 69.825zM75.603 48.786L87.645 48.786 87.645 69.825 75.603 69.825zM15.603 78.786L27.645 78.786 27.645 99.825 15.603 99.825zM35.603 78.786L47.645 78.786 47.645 99.825 35.603 99.825zM55.603 78.786L67.645 78.786 67.645 99.825 55.603 99.825zM75.603 78.786L87.645 78.786 87.645 99.825 75.603 99.825zM15.603 108.786L27.645 108.786 27.645 129.825 15.603 129.825zM35.603 108.786L47.645 108.786 47.645 129.825 35.603 129.825zM55.603 108.786L67.645 108.786 67.645 129.825 55.603 129.825zM75.603 108.786L87.645 108.786 87.645 129.825 75.603 129.825zM15.603 138.786L27.645 138.786 27.645 159.825 15.603 159.825zM35.603 138.786L47.645 138.786 47.645 159.825 35.603 159.825zM55.603 138.786L67.645 138.786 67.645 159.825 55.603 159.825zM75.603 138.786L87.645 138.786 87.645 159.825 75.603 159.825zM15.603 168.786L27.645 168.786 27.645 189.825 15.603 189.825zM35.603 168.786L47.645 168.786 47.645 189.825 35.603 189.825zM55.603 168.786L67.645 168.786 67.645 189.825 55.603 189.825zM75.603 168.786L87.645 168.786 87.645 189.825 75.603 189.825zM15.603 198.786L27.645 198.786 27.645 216.786 15.603 216.786zM35.603 198.786L47.645 198.786 47.645 216.786 35.603 216.786zM55.603 198.786L67.645 198.786 67.645 216.786 55.603 216.786zM75.603 198.786L87.645 198.786 87.645 216.786 75.603 216.786z" transform="translate(0 .837) translate(1578 296)"/>
            </g>
            <g>
                <path fill="#F7F7FF" d="M0 1L110.945 0 110.945 216.864 0 216.864z" transform="translate(0 .837) translate(204 296.163)"/>
                <path fill="#FFF" d="M15.603 18.786L27.645 18.786 27.645 39.825 15.603 39.825zM35.603 18.786L47.645 18.786 47.645 39.825 35.603 39.825zM55.603 18.786L67.645 18.786 67.645 39.825 55.603 39.825zM75.603 18.786L87.645 18.786 87.645 39.825 75.603 39.825zM15.603 48.786L27.645 48.786 27.645 69.825 15.603 69.825zM35.603 48.786L47.645 48.786 47.645 69.825 35.603 69.825zM55.603 48.786L67.645 48.786 67.645 69.825 55.603 69.825zM75.603 48.786L87.645 48.786 87.645 69.825 75.603 69.825zM15.603 78.786L27.645 78.786 27.645 99.825 15.603 99.825zM35.603 78.786L47.645 78.786 47.645 99.825 35.603 99.825zM55.603 78.786L67.645 78.786 67.645 99.825 55.603 99.825zM75.603 78.786L87.645 78.786 87.645 99.825 75.603 99.825zM15.603 108.786L27.645 108.786 27.645 129.825 15.603 129.825zM35.603 108.786L47.645 108.786 47.645 129.825 35.603 129.825zM55.603 108.786L67.645 108.786 67.645 129.825 55.603 129.825zM75.603 108.786L87.645 108.786 87.645 129.825 75.603 129.825zM15.603 138.786L27.645 138.786 27.645 159.825 15.603 159.825zM35.603 138.786L47.645 138.786 47.645 159.825 35.603 159.825zM55.603 138.786L67.645 138.786 67.645 159.825 55.603 159.825zM75.603 138.786L87.645 138.786 87.645 159.825 75.603 159.825zM15.603 168.786L27.645 168.786 27.645 189.825 15.603 189.825zM35.603 168.786L47.645 168.786 47.645 189.825 35.603 189.825zM55.603 168.786L67.645 168.786 67.645 189.825 55.603 189.825zM75.603 168.786L87.645 168.786 87.645 189.825 75.603 189.825zM15.603 198.786L27.645 198.786 27.645 216.786 15.603 216.786zM35.603 198.786L47.645 198.786 47.645 216.786 35.603 216.786zM55.603 198.786L67.645 198.786 67.645 216.786 55.603 216.786zM75.603 198.786L87.645 198.786 87.645 216.786 75.603 216.786z" transform="translate(0 .837) translate(204 296.163)"/>
            </g>
            <g transform="translate(0 .837) translate(110.945)">
                <path fill="#F7F7FF" d="M0 296.163L0 91.093 47.787 0 93.055 86.655 93.055 513.027 0 513.027z"/>
                <path fill="#FFF" d="M26.528 512.911L26.528 475.902 47.279 445.163 66.528 473.232 66.528 513.163z"/>
                <circle cx="46.055" cy="112.163" r="24" fill="#FFF"/>
            </g>
            <path fill="#F7F7FF" d="M335.784 411.059L378.231 411.059 378.231 434.949 438.874 434.949 439 512.949 335.784 512.608z" transform="translate(0 .837)"/>
            <g>
                <path fill="#F7F7FF" d="M0 0L108.198 0 108.198 168.951 132.62 168.951 132.62 212.445 0.068 213.837z" transform="translate(0 .837) translate(768.278 300.163)"/>
                <path fill="#FFF" d="M10.722 10.837H19.722V197.837H10.722zM27.325 10.786L39.367 10.786 39.367 22.786 27.325 22.786zM47.325 10.786L59.367 10.786 59.367 22.786 47.325 22.786zM67.325 10.786L79.367 10.786 79.367 22.786 67.325 22.786zM27.325 30.786L39.367 30.786 39.367 42.786 27.325 42.786zM47.325 30.786L59.367 30.786 59.367 42.786 47.325 42.786zM67.325 30.786L79.367 30.786 79.367 42.786 67.325 42.786zM27.325 50.786L39.367 50.786 39.367 62.786 27.325 62.786zM47.325 50.786L59.367 50.786 59.367 62.786 47.325 62.786zM67.325 50.786L79.367 50.786 79.367 62.786 67.325 62.786zM27.325 70.786L39.367 70.786 39.367 82.786 27.325 82.786zM47.325 70.786L59.367 70.786 59.367 82.786 47.325 82.786zM67.325 70.786L79.367 70.786 79.367 82.786 67.325 82.786zM27.325 90.786L39.367 90.786 39.367 102.786 27.325 102.786zM47.325 90.786L59.367 90.786 59.367 102.786 47.325 102.786zM67.325 90.786L79.367 90.786 79.367 102.786 67.325 102.786zM27.325 110.786L39.367 110.786 39.367 122.786 27.325 122.786zM47.325 110.786L59.367 110.786 59.367 122.786 47.325 122.786zM67.325 110.786L79.367 110.786 79.367 122.786 67.325 122.786zM27.325 130.786L39.367 130.786 39.367 142.786 27.325 142.786zM47.325 130.786L59.367 130.786 59.367 142.786 47.325 142.786zM67.325 130.786L79.367 130.786 79.367 142.786 67.325 142.786zM27.325 150.786L39.367 150.786 39.367 162.786 27.325 162.786zM47.325 150.786L59.367 150.786 59.367 162.786 47.325 162.786zM67.325 150.786L79.367 150.786 79.367 162.786 67.325 162.786zM87.722 10.837H96.722V211.837H87.722z" transform="translate(0 .837) translate(768.278 300.163)"/>
            </g>
            <g>
                <path fill="#F7F7FF" d="M0 305.424L0 21.857 23.385 21.857 23.385 8.448 39.095 8.448 39.095 0 85.902 0 85.902 8.448 100.644 7.744 100.722 21.857 127.434 21.857 127.722 304.397z" transform="translate(0 .837) translate(901.278 207.603)"/>
                <path fill="#FFF" d="M13.722 39.397H113.722V59.397H13.722zM13.722 79.397H113.722V99.397H13.722zM13.722 119.397H113.722V139.397H13.722zM13.722 159.397H113.722V179.397H13.722zM13.722 199.397H113.722V219.397H13.722zM13.722 239.397H113.722V259.397H13.722z" transform="translate(0 .837) translate(901.278 207.603)"/>
            </g>
            <path fill="#F7F7FF" d="M1029.278 398.163L1099 398.163 1099 512 1029.278 512z" transform="translate(0 .837)"/>
            <g>
                <path fill="#F7F7FF" d="M0 8L108.198 8 108.198 216.951 132.62 216.951 132.62 259.837 0.068 259.837z" transform="translate(0 .837) translate(1098.278 252.163)"/>
                <path fill="#FFF" d="M10.722 24.837H19.722V261.837H10.722zM27.325 58.786L39.367 58.786 39.367 70.786 27.325 70.786zM47.325 58.786L59.367 58.786 59.367 70.786 47.325 70.786zM67.325 58.786L79.367 58.786 79.367 70.786 67.325 70.786zM27.325 38.786L39.367 38.786 39.367 50.786 27.325 50.786zM47.325 38.786L59.367 38.786 59.367 50.786 47.325 50.786zM67.325 38.786L79.367 38.786 79.367 50.786 67.325 50.786zM27.325 78.786L39.367 78.786 39.367 90.786 27.325 90.786zM47.325 78.786L59.367 78.786 59.367 90.786 47.325 90.786zM67.325 78.786L79.367 78.786 79.367 90.786 67.325 90.786zM27.325 98.786L39.367 98.786 39.367 110.786 27.325 110.786zM47.325 98.786L59.367 98.786 59.367 110.786 47.325 110.786zM67.325 98.786L79.367 98.786 79.367 110.786 67.325 110.786zM27.325 118.786L39.367 118.786 39.367 130.786 27.325 130.786zM47.325 118.786L59.367 118.786 59.367 130.786 47.325 130.786zM67.325 118.786L79.367 118.786 79.367 130.786 67.325 130.786zM27.325 138.786L39.367 138.786 39.367 150.786 27.325 150.786zM47.325 138.786L59.367 138.786 59.367 150.786 47.325 150.786zM67.325 138.786L79.367 138.786 79.367 150.786 67.325 150.786zM27.325 158.786L39.367 158.786 39.367 170.786 27.325 170.786zM47.325 158.786L59.367 158.786 59.367 170.786 47.325 170.786zM67.325 158.786L79.367 158.786 79.367 170.786 67.325 170.786zM27.325 178.786L39.367 178.786 39.367 190.786 27.325 190.786zM47.325 178.786L59.367 178.786 59.367 190.786 47.325 190.786zM67.325 178.786L79.367 178.786 79.367 190.786 67.325 190.786zM27.325 198.786L39.367 198.786 39.367 210.786 27.325 210.786zM47.325 198.786L59.367 198.786 59.367 210.786 47.325 210.786zM67.325 198.786L79.367 198.786 79.367 210.786 67.325 210.786zM87.722 24.837H96.722V259.837H87.722z" transform="translate(0 .837) translate(1098.278 252.163)"/>
                <path fill="#F7F7FF" d="M27.325 8L27.325 0.025 79.367 0 79.367 11.059 27.325 11.059z" transform="translate(0 .837) translate(1098.278 252.163)"/>
            </g>
            <path fill="#F7F7FF" d="M1231 398.163L1300.722 398.163 1300.722 512 1231 512z" transform="translate(0 .837)"/>
            <g>
                <path fill="#F7F7FF" d="M0 340.032L0 0 79.969 79.335 79.969 195.032 174.674 195.032 174.674 340.032z" transform="translate(0 .837) translate(1300.722 171.968)"/>
                <path fill="#FFF" d="M9.881 298.981L21.923 298.981 21.923 310.981 9.881 310.981zM29.881 298.981L41.923 298.981 41.923 310.981 29.881 310.981zM49.881 298.981L61.923 298.981 61.923 310.981 49.881 310.981zM9.881 268.981L21.923 268.981 21.923 280.981 9.881 280.981zM29.881 268.981L41.923 268.981 41.923 280.981 29.881 280.981zM49.881 268.981L61.923 268.981 61.923 280.981 49.881 280.981zM9.881 238.981L21.923 238.981 21.923 250.981 9.881 250.981zM29.881 238.981L41.923 238.981 41.923 250.981 29.881 250.981zM49.881 238.981L61.923 238.981 61.923 250.981 49.881 250.981zM9.881 208.981L21.923 208.981 21.923 220.981 9.881 220.981zM29.881 208.981L41.923 208.981 41.923 220.981 29.881 220.981zM49.881 208.981L61.923 208.981 61.923 220.981 49.881 220.981zM9.881 178.981L21.923 178.981 21.923 190.981 9.881 190.981zM29.881 178.981L41.923 178.981 41.923 190.981 29.881 190.981zM49.881 178.981L61.923 178.981 61.923 190.981 49.881 190.981zM9.881 148.981L21.923 148.981 21.923 160.981 9.881 160.981zM29.881 148.981L41.923 148.981 41.923 160.981 29.881 160.981zM49.881 148.981L61.923 148.981 61.923 160.981 49.881 160.981zM9.881 118.981L21.923 118.981 21.923 130.981 9.881 130.981zM29.881 118.981L41.923 118.981 41.923 130.981 29.881 130.981zM49.881 118.981L61.923 118.981 61.923 130.981 49.881 130.981zM9.881 88.981L21.923 88.981 21.923 100.981 9.881 100.981zM29.881 88.981L41.923 88.981 41.923 100.981 29.881 100.981zM9.881 58.981L21.923 58.981 21.923 70.981 9.881 70.981zM9.881 28.981L21.923 28.981 21.923 40.981 9.881 40.981zM29.881 58.981L41.923 58.981 41.923 70.981 29.881 70.981zM49.881 88.981L61.923 88.981 61.923 100.981 49.881 100.981z" transform="translate(0 .837) translate(1300.722 171.968)"/>
            </g>
            <g>
                <path fill="#F7F7FF" d="M0 0L42.447 0 42.447 23.89 103.089 23.89 103.089 101 0 101z" transform="translate(0 .837) translate(1475 411)"/>
                <path fill="#FFF" d="M1 11L31 11 31 15 1 15zM1 23.163L31 23.163 31 27.163 1 27.163zM1 35.163L31 35.163 31 39.163 1 39.163zM1 47.163L31 47.163 31 51.163 1 51.163zM1 59.163L31 59.163 31 63.163 1 63.163zM1 71.163L31 71.163 31 75.163 1 75.163z" transform="translate(0 .837) translate(1475 411)"/>
            </g>
        </g>
        <g>
            <path fill="#F7F7FF" d="M134.383 470.445L134.383 458.304 231.276 458.304 231.276 470.445" transform="translate(137.081 43)"/>
            <path fill="#F7F7FF" d="M166.767 470.445L166.767 89.122 186.348 69.804 186.348.053 198.703 0 198.703 470.445zM0 115.026L14.64 100.84 153.342 100.84 153.342 115.026zM210.316 100.84L522.532 100.84 538.724 115.026 198.703 115.026z" transform="translate(137.081 43)"/>
            <path stroke="#7176C4" stroke-width="2.816" d="M127.343 470.445L127.343 452.672 231.276 452.672 231.276 470.445M159.864 448.052l37.399-38.713c.8-.828.79-2.143-.024-2.958l-35.93-36.035c-.805-.808-.823-2.11-.04-2.94l36.01-38.185c.79-.838.764-2.154-.06-2.96l-35.812-35.007c-.834-.815-.85-2.152-.034-2.986.01-.011.02-.022.032-.032l35.79-35.078c.83-.817.845-2.153.031-2.988l-35.902-36.704c-.81-.827-.803-2.15.015-2.97l35.871-35.907c.825-.824.825-2.162 0-2.986h-.002l-35.85-35.78c-.824-.824-.825-2.16-.003-2.987l35.85-35.97c.823-.827.821-2.164-.005-2.988l-.008-.007-24.385-24.067h0" transform="translate(137.081 43)"/>
            <path stroke="#7176C4" stroke-width="2.816" d="M198.703 448.052l-37.4-38.713c-.799-.828-.788-2.143.024-2.958l35.93-36.035c.806-.808.824-2.11.04-2.94l-36.01-38.185c-.79-.838-.763-2.154.06-2.96l35.813-35.007c.834-.815.85-2.152.034-2.986l-.032-.032-35.79-35.078c-.831-.817-.845-2.153-.032-2.988l35.903-36.704c.81-.827.802-2.15-.016-2.97l-35.87-35.907c-.826-.824-.825-2.162 0-2.986h.002l35.85-35.78c.823-.824.825-2.16.003-2.987l-35.794-35.914c-.823-.827-.821-2.164.005-2.987.02-.021.042-.041.064-.061l35.631-32.668c.86-.788.918-2.124.13-2.984l-.026-.028-16.654-17.52c-.734-.773-.777-1.971-.102-2.795l18.237-22.233h0" transform="translate(137.081 43)"/>
            <path stroke="#7176C4" stroke-width="2.816" d="M159.864 452.672L159.864 81.201 179.309 63.815 179.309 0.053 198.703 0.053 198.703 452.672" transform="translate(137.081 43)"/>
            <path stroke="#7176C4" stroke-linecap="round" stroke-width="2.816" d="M159.864 115.026L0 115.026 21.651 94.051 143.856 94.051" transform="translate(137.081 43)"/>
            <path stroke="#7176C4" stroke-linecap="round" stroke-width="2.816" d="M21.65 94.051l18.178 19.42c.797.852 2.134.896 2.985.1l.013-.013 18.93-18.01c.846-.804 2.183-.77 2.987.075l.04.043 15.828 17.596c.78.867 2.115.938 2.982.158.061-.055.119-.113.173-.174l15.378-17.457c.77-.875 2.105-.96 2.98-.189.049.043.096.088.14.135l16.727 17.716c.801.848 2.138.887 2.986.086l.038-.037 9.025-8.961h0M198.703 115.026l17.087-20.232c.752-.89 2.085-1.003 2.976-.25.077.065.149.135.216.21l16.562 18.639c.774.872 2.11.95 2.981.175l.053-.048 18.89-17.972c.846-.804 2.183-.77 2.987.075l.04.043 15.828 17.596c.78.867 2.115.938 2.982.158.061-.055.119-.113.173-.174l15.378-17.457c.77-.875 2.105-.96 2.98-.189.049.043.096.088.14.135l16.73 17.718c.8.848 2.137.886 2.985.086l.036-.036 18.48-18.31h0l16.973 18.25c.794.854 2.13.903 2.985.108l.035-.033 18.81-18.324h0l16.787 18.207c.79.858 2.127.912 2.984.121l.07-.067 17.624-17.797c.82-.83 2.158-.836 2.987-.015.034.034.066.069.098.105l15.467 17.555c.77.875 2.105.96 2.98.189.045-.04.087-.08.128-.122l16.964-17.668c.808-.841 2.145-.868 2.987-.06.04.039.08.08.117.122l15.538 17.524c.774.873 2.109.953 2.982.179.05-.044.098-.091.143-.14l16.425-17.62c.795-.853 2.132-.9 2.985-.104.036.033.07.067.104.103l18.035 19.32h0" transform="translate(137.081 43)"/>
            <path stroke="#7176C4" stroke-width="2.816" d="M217.34 94.051L528.614 94.051 551.316 115.026 198.703 115.026" transform="translate(137.081 43)"/>
            <path stroke="#7176C4" stroke-width="2" d="M63.631 94.051L179.283 4.928" transform="translate(137.081 43)"/>
            <g stroke="#7176C4" stroke-linecap="round" stroke-width="2.816">
                <path d="M59 4.13C56.129 2.766 52.915 2 49.522 2c-12.176 0-22.046 9.85-22.046 22H0" transform="translate(137.081 43) translate(685.919 156)"/>
                <path d="M89.792 22c.137-.948.208-1.92.208-2.909C90 8.547 81.941 0 72 0S54 8.547 54 19.091" transform="translate(137.081 43) translate(685.919 156)"/>
                <path d="M139 41h-22.879c0-11.046-9.038-20-20.188-20-4.92 0-9.43 1.744-12.933 4.643" transform="translate(137.081 43) translate(685.919 156)"/>
            </g>
            <path fill="#F7F7FF" d="M582.494 466.135c3.97 9.636 11.958 16.012 52.575 16.809 28.978-.447 48.554-4.607 58.727-12.478l99.496.03v4.623h-97.738c-9.592 9.812-29.754 14.51-60.485 14.093-41.536 1.25-66.953-10.184-77.119-18.811l24.544-4.266z" transform="translate(137.081 43)"/>
            <g transform="translate(137.081 43) translate(80.879 204.864)">
                <path fill="#FFF" d="M220.914 265.581V10.56c0-5.832 4.728-10.56 10.56-10.56h308.352c5.832 0 10.56 4.728 10.56 10.56v255.021"/>
                <path fill="#F7F7FF" d="M234.994 265.581V17.6c0-5.832 4.728-10.56 10.56-10.56h294.272c5.832 0 10.56 4.728 10.56 10.56v247.981"/>
                <path stroke="#7176C4" stroke-linecap="round" stroke-width="2.816" d="M220.914 265.581V10.56c0-5.832 4.728-10.56 10.56-10.56h308.352c5.832 0 10.56 4.728 10.56 10.56v107.576M0 265.581L434.93 265.581"/>
                <circle cx="239.922" cy="14.784" r="4.224" fill="#7176C4"/>
                <circle cx="255.41" cy="14.784" r="4.224" fill="#7176C4"/>
                <circle cx="270.898" cy="14.784" r="4.224" fill="#7176C4"/>
                <path stroke="#7176C4" stroke-linecap="round" stroke-width="2.816" d="M220.914 29.568h136.709m19.53 0h56.784M520.96 265.581L712.448 265.581M441.653 29.568L446.461 29.568"/>
            </g>
            <g>
                <path fill="#FFF" d="M7.04 49.984L259.776 49.984 259.776 7.04 7.04 7.04z" transform="translate(137.081 43) rotate(8 -1768.709 2556.267)"/>
                <path stroke="#DBDBF3" stroke-linecap="round" stroke-linejoin="round" stroke-width="2.816" d="M0 49.984L259.776 49.984 259.776 0 0 0zM15.488 25.344L38.016 25.344M59.84 25.344L101.376 25.344M118.976 25.344L136.005 25.344M185.856 25.344L219.648 25.344" transform="translate(137.081 43) rotate(8 -1768.709 2556.267)"/>
            </g>
            <g>
                <path fill="#FFF" d="M273.152 7.744L0 7.744 0 49.984 261.184 49.984" transform="translate(137.081 43) translate(329.952 382.272)"/>
                <path stroke="#DBDBF3" stroke-linecap="round" stroke-linejoin="round" stroke-width="2.816" d="M255.014 0L0 0 0 49.984 232.32 49.984M15.488 25.344L38.016 25.344M59.84 25.344L101.376 25.344M118.976 25.344L160.512 25.344M185.856 25.344L212.608 25.344" transform="translate(137.081 43) translate(329.952 382.272)"/>
            </g>
            <g>
                <path fill="#DBDBF3" d="M126.158 131.59c0-8.656-16.8-14.022-51.577-14.022-34.776 0-61.767 5.366-61.767 14.021v10.416c0 2.173 1.004 4.224 2.72 5.558 10.093 7.847 30.177 11.432 60.25 10.757 33.067-.743 49.86-6.513 50.374-17.308v-9.423z" transform="translate(137.081 43) translate(568.047 324.544)"/>
                <path stroke="#7176C4" stroke-width="2.816" d="M20.11 119.736C7.821 122.633.141 126.754.141 131.328v10.471c0 2.135 1.076 4.125 2.86 5.29 11.54 7.54 31.59 11.311 60.148 11.311 28.318 0 48.27-3.349 59.855-10.046 1.951-1.128 3.153-3.213 3.153-5.47v-11.556h0c0-8.766-28.21-15.872-63.008-15.872" transform="translate(137.081 43) translate(568.047 324.544)"/>
                <path fill="#DBDBF3" d="M25.486 128.088L59.218 9.72c.69-2.42 2.9-4.088 5.416-4.088h5.75c2.531 0 4.752 1.69 5.427 4.13l32.747 118.366" transform="translate(137.081 43) translate(568.047 324.544)"/>
                <path fill="#DBDBF3" d="M18.082 126.72l-.34 1.304c0 6.278 20.096 11.368 45.295 11.368s45.521-5.09 45.521-11.368" transform="translate(137.081 43) translate(568.047 324.544)"/>
                <path fill="#FFF" d="M19.15 127.407c0 6.256 18.896 11.985 44.02 11.985 25.125 0 45.388-5.729 45.388-11.985l-1.24-3.503c-8.109 6.869-22.825 10.304-44.147 10.304-21.323 0-35.997-3.435-44.02-10.304v3.503z" transform="translate(137.081 43) translate(568.047 324.544)"/>
                <path stroke="#7176C4" stroke-width="2.816" d="M18.082 126.72l-.34 1.304c0 6.278 20.096 11.368 45.295 11.368s45.521-5.09 45.521-11.368l-.097-.355" transform="translate(137.081 43) translate(568.047 324.544)"/>
                <path stroke="#7176C4" stroke-width="2.816" d="M17.742 128.087L50.59 7.779C51.843 3.186 56.016 0 60.777 0h5.102c4.772 0 8.951 3.2 10.195 7.808l32.484 120.32h0" transform="translate(137.081 43) translate(568.047 324.544)"/>
                <path fill="#F7F7FF" d="M40.27 64.768L41.309 60.544 83.214 60.544 82.315 64.768z" transform="translate(137.081 43) translate(568.047 324.544)"/>
                <path stroke="#7176C4" stroke-linecap="round" stroke-width="2.816" d="M48.718 39.072L84.622 39.072M35.342 64.416L83.214 64.416" transform="translate(137.081 43) translate(568.047 324.544)"/>
                <path fill="#7176C4" d="M19.15 126.278L18.812 127.424 17.742 127.064 18.223 126.016z" transform="translate(137.081 43) translate(568.047 324.544)"/>
            </g>
            <path stroke="#7176C4" stroke-width="2" d="M198.703 4.928L448.3 92.932M448.3 115.026L448.3 285.645" transform="translate(137.081 43)"/>
        </g>
    </g>
</svg>
