<?xml version="1.0" encoding="UTF-8"?>
<svg width="512px" height="512px" viewBox="0 0 512 512" version="1.1" xmlns="http://www.w3.org/2000/svg" xmlns:xlink="http://www.w3.org/1999/xlink">
    <!-- Generator: Sketch 59 (86127) - https://sketch.com -->
    <title>dropdown-icon</title>
    <desc>Created with Sketch.</desc>
    <g id="dropdown-icon" stroke="none" stroke-width="1" fill="none" fill-rule="evenodd">
        <g fill="#000000" fill-rule="nonzero">
            <path d="M413.538462,0 C467.917268,0 512,44.0827323 512,98.4615385 L512,413.538462 C512,467.917268 467.917268,512 413.538462,512 L98.4615385,512 C44.0827323,512 0,467.917268 0,413.538462 L0,98.4615385 C0,44.0827323 44.0827323,0 98.4615385,0 L413.538462,0 Z M413.538462,39.3846154 L98.4615385,39.3846154 C65.8342548,39.3846154 39.3846154,65.8342548 39.3846154,98.4615385 L39.3846154,413.538462 C39.3846154,446.165745 65.8342548,472.615385 98.4615385,472.615385 L413.538462,472.615385 C446.165745,472.615385 472.615385,446.165745 472.615385,413.538462 L472.615385,98.4615385 C472.615385,65.8342548 446.165745,39.3846154 413.538462,39.3846154 Z" id="Rectangle"></path>
            <path d="M351.547077,219.410781 L159.980308,219.410781 C156.335316,219.381147 152.841061,220.864422 150.331077,223.507692 C147.712344,226.015069 146.244581,229.4921 146.27358,233.117538 C146.27358,236.819692 147.652923,240.009846 150.331077,242.727385 L246.153846,338.510769 C248.832,341.267692 252.061538,342.60715 255.763692,342.60715 C259.395025,342.626398 262.872936,341.14401 265.373538,338.510769 L361.156923,242.727385 C363.790163,240.226783 365.272552,236.748872 365.253304,233.117538 C365.272552,229.486205 363.790163,226.008294 361.156923,223.507692 C358.656321,220.874452 355.17841,219.392064 351.547077,219.410781 Z" id="Path"></path>
        </g>
    </g>
</svg>