<?xml version="1.0" encoding="UTF-8"?>
<svg id="Icons" xmlns="http://www.w3.org/2000/svg" viewBox="0 0 20 20">
  <rect class="st1" x="1.25" y="1.25" width="17.5" height="17.5" rx="1.5" ry="1.5"/>
  <path  d="m16.35,6.25h-1.81l.38-1.81c.05-.25-.1-.44-.35-.44h-1.11c-.25,0-.49.2-.54.44l-.38,1.81h-3.5l.38-1.81c.05-.25-.1-.44-.35-.44h-1.11c-.25,0-.49.2-.54.44l-.38,1.81h-1.81c-.25,0-.49.2-.54.44l-.24,1.11c-.05.25.1.44.35.44h1.81l-.74,3.5h-1.81c-.25,0-.49.2-.54.44l-.24,1.11c-.05.25.1.44.35.44h1.81l-.38,1.81c-.05.25.1.44.35.44h1.11c.25,0,.49-.2.54-.44l.38-1.81h3.5l-.38,1.81c-.05.25.1.44.35.44h1.11c.25,0,.49-.2.54-.44l.38-1.81h1.81c.25,0,.49-.2.54-.44l.24-1.11c.05-.25-.1-.44-.35-.44h-1.81l.74-3.5h1.81c.25,0,.49-.2.54-.44l.24-1.11c.05-.25-.1-.44-.35-.44Zm-4.97,5.5h-3.5l.74-3.5h3.5l-.74,3.5Z" fill="#fff"/>
  <rect width="20" height="20" fill="#fff" opacity="0"/>
</svg>