<?xml version="1.0" encoding="UTF-8"?>
<svg width="21px" height="20px" viewBox="0 0 21 20" version="1.1" xmlns="http://www.w3.org/2000/svg" xmlns:xlink="http://www.w3.org/1999/xlink">
    <title>Sq feet</title>
    <g id="Design" stroke="none" stroke-width="1" fill="none" fill-rule="evenodd">
        <g id="Sq-feet" transform="translate(-1.000000, -1.000000)" fill="#000000">
            <g id="blueprint-(1)" transform="translate(1.979633, 6.000000)" fill-rule="nonzero">
                <path d="M14.1723671,0 L11.9227768,0 C11.5500586,0 11.2478938,0.305273438 11.2478938,0.681826172 C11.2478938,1.05837891 11.5500586,1.36365234 11.9227768,1.36365234 L13.4974842,1.36365234 L13.4974842,6.81820312 L11.4728645,6.81820312 C11.1001463,6.81820312 10.7979816,7.12347656 10.7979816,7.5000293 C10.7979816,7.87658203 11.1001463,8.18185547 11.4728645,8.18185547 L13.4974842,8.18185547 L13.4974842,13.6364063 L6.88454225,13.6364063 L6.88454225,11.590957 C6.88454225,11.2144043 6.58237751,10.9091309 6.20965934,10.9091309 C5.83694116,10.9091309 5.53477643,11.2144043 5.53477643,11.590957 L5.53477643,13.6364063 L1.34973682,13.6364063 L1.34973682,8.18182617 L5.53477643,8.18182617 L5.53477643,8.86365234 C5.53477643,9.24020508 5.83694116,9.54547852 6.20965934,9.54547852 C6.58237751,9.54547852 6.88454225,9.24020508 6.88454225,8.86365234 L6.88454225,8.18182617 L8.32347856,8.18182617 C8.69619673,8.18182617 8.99836147,7.87655273 8.99836147,7.5 C8.99836147,7.12344727 8.69619673,6.81817383 8.32347856,6.81817383 L6.88454225,6.81817383 L6.88454225,6.13634766 C6.88454225,5.75979492 6.58237751,5.45452148 6.20965934,5.45452148 C5.83694116,5.45452148 5.53477643,5.75979492 5.53477643,6.13634766 L5.53477643,6.81817383 L1.34973682,6.81817383 L1.34973682,1.36362305 L5.53477643,1.36362305 L5.53477643,3.40907227 C5.53477643,3.785625 5.83694116,4.09089844 6.20965934,4.09089844 C6.58237751,4.09089844 6.88454225,3.785625 6.88454225,3.40907227 L6.88454225,1.36362305 L8.77339084,1.36362305 C9.14610901,1.36362305 9.44827375,1.05834961 9.44827375,0.681796875 C9.44824475,0.305273438 9.14608001,0 8.77336184,0 L0.67488291,0 C0.302164737,0 0,0.305273438 0,0.681826172 L0,14.3182031 C0,14.6947266 0.302164737,15 0.67488291,15 L14.1723961,15 C14.5450853,15 14.84725,14.6947266 14.84725,14.3181738 L14.84725,0.681826172 C14.84725,0.305273438 14.5450853,0 14.1723671,0 Z" id="Path"></path>
            </g>
            <polygon id="Rectangle" points="3.42183774 2.084723 14.9272975 2.084723 14.9272975 3.084723 3.42183774 3.084723"></polygon>
            <path d="M16.3172681,3.03983161 L14.6191491,4.0230712 C14.3801754,4.16144099 14.0742781,4.07988543 13.9359083,3.84091176 C13.8918231,3.76477375 13.8686084,3.67835123 13.8686084,3.5903711 L13.8686084,1.62389192 C13.8686084,1.34774954 14.0924661,1.12389192 14.3686084,1.12389192 C14.4565886,1.12389192 14.5430111,1.14710662 14.6191491,1.19119182 L16.3172681,2.17443141 C16.5562418,2.3128012 16.6377974,2.61869851 16.4994276,2.85767217 C16.4556607,2.93326038 16.3928563,2.99606476 16.3172681,3.03983161 Z" id="Path-2"></path>
            <path d="M4.19060692,3.03983161 L2.49248789,4.0230712 C2.25351422,4.16144099 1.94761691,4.07988543 1.80924712,3.84091176 C1.76516193,3.76477375 1.74194722,3.67835123 1.74194722,3.5903711 L1.74194722,1.62389192 C1.74194722,1.34774954 1.96580485,1.12389192 2.24194722,1.12389192 C2.32992735,1.12389192 2.41634987,1.14710662 2.49248789,1.19119182 L4.19060692,2.17443141 C4.42958059,2.3128012 4.51113614,2.61869851 4.37276636,2.85767217 C4.32899951,2.93326038 4.26619512,2.99606476 4.19060692,3.03983161 Z" id="Path-2-Copy" transform="translate(3.339928, 2.607132) scale(-1, 1) translate(-3.339928, -2.607132) "></path>
            <polygon id="Rectangle" transform="translate(20.348710, 13.611740) rotate(90.000000) translate(-20.348710, -13.611740) " points="14.5367959 13.1168317 26.160625 13.1168317 26.160625 14.1066483 14.5367959 14.1066483"></polygon>
            <path d="M21.139046,20.1677494 L19.4235418,21.140928 C19.1833555,21.2771819 18.8781903,21.1929281 18.7419364,20.9527417 C18.699264,20.8775195 18.6768322,20.7925152 18.6768322,20.7060322 L18.6768322,18.7596751 C18.6768322,18.4835327 18.9006899,18.2596751 19.1768322,18.2596751 C19.2633153,18.2596751 19.3483196,18.2821068 19.4235418,18.3247792 L21.139046,19.2979578 C21.3792323,19.4342117 21.4634862,19.7393768 21.3272322,19.9795632 C21.2826563,20.0581409 21.2176237,20.1231735 21.139046,20.1677494 Z" id="Path-2" transform="translate(20.291253, 19.732854) rotate(90.000000) translate(-20.291253, -19.732854) "></path>
            <path d="M21.139046,7.91632794 L19.4235418,8.8895065 C19.1833555,9.02576043 18.8781903,8.94150657 18.7419364,8.70132024 C18.699264,8.62609803 18.6768322,8.54109368 18.6768322,8.45461066 L18.6768322,6.50825355 C18.6768322,6.23211118 18.9006899,6.00825355 19.1768322,6.00825355 C19.2633153,6.00825355 19.3483196,6.03068534 19.4235418,6.07335772 L21.139046,7.04653627 C21.3792323,7.18279021 21.4634862,7.48795534 21.3272322,7.72814168 C21.2826563,7.80671944 21.2176237,7.87175201 21.139046,7.91632794 Z" id="Path-2-Copy" transform="translate(20.291253, 7.481432) scale(-1, -1) rotate(90.000000) translate(-20.291253, -7.481432) "></path>
        </g>
    </g>
</svg>