<?xml version="1.0" encoding="UTF-8"?>
<svg width="146px" height="122px" viewBox="0 0 146 122" version="1.1" xmlns="http://www.w3.org/2000/svg" xmlns:xlink="http://www.w3.org/1999/xlink">
    <title>Group</title>
    <g id="Page-2" stroke="none" stroke-width="1" fill="none" fill-rule="evenodd">
        <g id="Artboard" transform="translate(-6328.000000, -1095.000000)" fill="#D7E0FD" fill-rule="nonzero">
            <g id="Group" transform="translate(6328.000000, 1095.000000)">
                <path d="M94.99,33.91 L53.23,33.91 C52.68,33.91 52.23,34.36 52.23,34.91 C52.23,35.46 52.68,35.91 53.23,35.91 L94.99,35.91 C95.54,35.91 95.99,35.46 95.99,34.91 C95.99,34.36 95.54,33.91 94.99,33.91 Z" id="Path"></path>
                <path d="M94.99,40.74 L53.23,40.74 C52.68,40.74 52.23,41.19 52.23,41.74 C52.23,42.29 52.68,42.74 53.23,42.74 L94.99,42.74 C95.54,42.74 95.99,42.29 95.99,41.74 C95.99,41.19 95.54,40.74 94.99,40.74 Z" id="Path"></path>
                <path d="M45.6,35.91 C46.15,35.91 46.6,35.46 46.6,34.91 C46.6,34.36 46.15,33.91 45.6,33.91 L44.3,33.91 L44.3,32.61 C44.3,32.06 43.85,31.61 43.3,31.61 C42.75,31.61 42.3,32.06 42.3,32.61 L42.3,33.91 L37.47,33.91 L37.47,32.61 C37.47,32.06 37.02,31.61 36.47,31.61 C35.92,31.61 35.47,32.06 35.47,32.61 L35.47,33.91 L34.17,33.91 C33.62,33.91 33.17,34.36 33.17,34.91 C33.17,35.46 33.62,35.91 34.17,35.91 L35.47,35.91 L35.47,40.74 L34.17,40.74 C33.62,40.74 33.17,41.19 33.17,41.74 C33.17,42.29 33.62,42.74 34.17,42.74 L35.47,42.74 L35.47,44.04 C35.47,44.59 35.92,45.04 36.47,45.04 C37.02,45.04 37.47,44.59 37.47,44.04 L37.47,42.74 L42.3,42.74 L42.3,44.04 C42.3,44.59 42.75,45.04 43.3,45.04 C43.85,45.04 44.3,44.59 44.3,44.04 L44.3,42.74 L45.6,42.74 C46.15,42.74 46.6,42.29 46.6,41.74 C46.6,41.19 46.15,40.74 45.6,40.74 L44.3,40.74 L44.3,35.91 L45.6,35.91 Z M42.3,40.74 L37.47,40.74 L37.47,35.91 L42.3,35.91 L42.3,40.74 Z" id="Shape"></path>
                <path d="M105.57,33.47 C102.9,33.47 100.72,35.65 100.72,38.32 C100.72,40.99 102.9,43.17 105.57,43.17 C108.24,43.17 110.42,40.99 110.42,38.32 C110.42,35.65 108.24,33.47 105.57,33.47 Z M105.57,41.17 C104,41.17 102.72,39.89 102.72,38.32 C102.72,36.75 104,35.47 105.57,35.47 C107.14,35.47 108.42,36.75 108.42,38.32 C108.42,39.9 107.14,41.17 105.57,41.17 Z" id="Shape"></path>
                <path d="M53.23,67.06 L94.99,67.06 C95.54,67.06 95.99,66.61 95.99,66.06 C95.99,65.51 95.54,65.06 94.99,65.06 L53.23,65.06 C52.68,65.06 52.23,65.51 52.23,66.06 C52.23,66.61 52.68,67.06 53.23,67.06 Z" id="Path"></path>
                <path d="M53.23,73.88 L94.99,73.88 C95.54,73.88 95.99,73.43 95.99,72.88 C95.99,72.33 95.54,71.88 94.99,71.88 L53.23,71.88 C52.68,71.88 52.23,72.33 52.23,72.88 C52.23,73.43 52.68,73.88 53.23,73.88 Z" id="Path"></path>
                <path d="M34.18,71.88 C33.63,71.88 33.18,72.33 33.18,72.88 C33.18,73.43 33.63,73.88 34.18,73.88 L35.48,73.88 L35.48,75.18 C35.48,75.73 35.93,76.18 36.48,76.18 C37.03,76.18 37.48,75.73 37.48,75.18 L37.48,73.88 L42.31,73.88 L42.31,75.18 C42.31,75.73 42.76,76.18 43.31,76.18 C43.86,76.18 44.31,75.73 44.31,75.18 L44.31,73.88 L45.61,73.88 C46.16,73.88 46.61,73.43 46.61,72.88 C46.61,72.33 46.16,71.88 45.61,71.88 L44.31,71.88 L44.31,67.05 L45.61,67.05 C46.16,67.05 46.61,66.6 46.61,66.05 C46.61,65.5 46.16,65.05 45.61,65.05 L44.31,65.05 L44.31,63.75 C44.31,63.2 43.86,62.75 43.31,62.75 C42.76,62.75 42.31,63.2 42.31,63.75 L42.31,65.05 L37.48,65.05 L37.48,63.75 C37.48,63.2 37.03,62.75 36.48,62.75 C35.93,62.75 35.48,63.2 35.48,63.75 L35.48,65.05 L34.18,65.05 C33.63,65.05 33.18,65.5 33.18,66.05 C33.18,66.6 33.63,67.05 34.18,67.05 L35.48,67.05 L35.48,71.88 L34.18,71.88 Z M37.48,67.06 L42.31,67.06 L42.31,71.89 L37.48,71.89 L37.48,67.06 Z" id="Shape"></path>
                <path d="M94.99,96.2 L53.23,96.2 C52.68,96.2 52.23,96.65 52.23,97.2 C52.23,97.75 52.68,98.2 53.23,98.2 L94.99,98.2 C95.54,98.2 95.99,97.75 95.99,97.2 C95.99,96.65 95.54,96.2 94.99,96.2 Z" id="Path"></path>
                <path d="M94.99,103.03 L53.23,103.03 C52.68,103.03 52.23,103.48 52.23,104.03 C52.23,104.58 52.68,105.03 53.23,105.03 L94.99,105.03 C95.54,105.03 95.99,104.58 95.99,104.03 C95.99,103.48 95.54,103.03 94.99,103.03 Z" id="Path"></path>
                <path d="M45.6,98.2 C46.15,98.2 46.6,97.75 46.6,97.2 C46.6,96.65 46.15,96.2 45.6,96.2 L44.3,96.2 L44.3,94.9 C44.3,94.35 43.85,93.9 43.3,93.9 C42.75,93.9 42.3,94.35 42.3,94.9 L42.3,96.2 L37.47,96.2 L37.47,94.9 C37.47,94.35 37.02,93.9 36.47,93.9 C35.92,93.9 35.47,94.35 35.47,94.9 L35.47,96.2 L34.17,96.2 C33.62,96.2 33.17,96.65 33.17,97.2 C33.17,97.75 33.62,98.2 34.17,98.2 L35.47,98.2 L35.47,103.03 L34.17,103.03 C33.62,103.03 33.17,103.48 33.17,104.03 C33.17,104.58 33.62,105.03 34.17,105.03 L35.47,105.03 L35.47,106.33 C35.47,106.88 35.92,107.33 36.47,107.33 C37.02,107.33 37.47,106.88 37.47,106.33 L37.47,105.03 L42.3,105.03 L42.3,106.33 C42.3,106.88 42.75,107.33 43.3,107.33 C43.85,107.33 44.3,106.88 44.3,106.33 L44.3,105.03 L45.6,105.03 C46.15,105.03 46.6,104.58 46.6,104.03 C46.6,103.48 46.15,103.03 45.6,103.03 L44.3,103.03 L44.3,98.2 L45.6,98.2 Z M42.3,103.03 L37.47,103.03 L37.47,98.2 L42.3,98.2 L42.3,103.03 Z" id="Shape"></path>
                <path d="M105.57,95.76 C102.9,95.76 100.72,97.94 100.72,100.61 C100.72,103.28 102.9,105.46 105.57,105.46 C108.24,105.46 110.42,103.28 110.42,100.61 C110.42,97.94 108.24,95.76 105.57,95.76 Z M105.57,103.47 C104,103.47 102.72,102.19 102.72,100.62 C102.72,99.05 104,97.77 105.57,97.77 C107.14,97.77 108.42,99.05 108.42,100.62 C108.42,102.19 107.14,103.47 105.57,103.47 Z" id="Shape"></path>
                <path d="M135.06,46.49 L126.76,46.49 L126.76,31 C126.76,23.42 120.59,17.25 113.01,17.25 L31.77,17.25 C24.19,17.25 18.02,23.42 18.02,31 L18.02,108.07 C18.02,115.65 24.19,121.82 31.77,121.82 L113.01,121.82 C120.59,121.82 126.76,115.65 126.76,108.07 L126.76,92.5 L135.06,92.5 C141.07,92.5 145.95,87.61 145.95,81.61 L145.95,57.38 C145.95,51.38 141.06,46.49 135.06,46.49 Z M143.95,81.62 C143.95,86.52 139.96,90.51 135.06,90.51 L126.76,90.51 L125.76,90.51 L124.76,90.51 L117.38,90.51 L116.05,90.51 L114.4,90.51 L109.04,90.51 C107.78,90.51 106.58,90.24 105.49,89.77 C104.88,89.5 104.3,89.16 103.77,88.77 C103.36,88.47 102.98,88.14 102.63,87.77 C101.26,86.34 100.36,84.47 100.19,82.39 C100.17,82.14 100.15,81.88 100.15,81.62 L100.15,81.39 L100.15,80.39 L100.15,58.63 L100.15,57.63 L100.15,57.4 C100.15,57.14 100.17,56.89 100.19,56.63 C100.37,54.55 101.27,52.67 102.63,51.25 C102.98,50.88 103.36,50.55 103.77,50.25 C104.3,49.86 104.88,49.52 105.49,49.25 C106.58,48.77 107.78,48.51 109.04,48.51 L114.4,48.51 L116.05,48.51 L117.38,48.51 L124.75,48.51 L125.75,48.51 L126.75,48.51 L135.05,48.51 C139.95,48.51 143.94,52.5 143.94,57.4 L143.94,81.62 L143.95,81.62 Z M124.75,108.08 C124.75,114.56 119.48,119.83 113,119.83 L31.76,119.83 C25.28,119.83 20.01,114.56 20.01,108.08 L20.01,31.01 C20.01,24.53 25.28,19.26 31.76,19.26 L113,19.26 C119.48,19.26 124.75,24.53 124.75,31.01 L124.75,46.5 L118.47,46.5 C118.73,45.77 118.88,44.98 118.88,44.16 L118.88,32.56 C118.88,28.66 115.7,25.48 111.8,25.48 L32.98,25.48 C29.08,25.48 25.9,28.66 25.9,32.56 L25.9,44.16 C25.9,48.06 29.08,51.24 32.98,51.24 L100.06,51.24 C98.99,52.79 98.33,54.64 98.19,56.62 L32.98,56.62 C29.08,56.62 25.9,59.8 25.9,63.7 L25.9,75.3 C25.9,79.2 29.08,82.38 32.98,82.38 L98.19,82.38 C98.33,84.37 99,86.21 100.06,87.76 L32.98,87.76 C29.08,87.76 25.9,90.94 25.9,94.84 L25.9,106.44 C25.9,110.34 29.08,113.52 32.98,113.52 L111.8,113.52 C115.71,113.52 118.88,110.34 118.88,106.44 L118.88,94.84 C118.88,94.02 118.73,93.24 118.47,92.5 L124.75,92.5 L124.75,108.08 Z M116.88,94.85 L116.88,106.45 C116.88,109.25 114.6,111.53 111.8,111.53 L32.98,111.53 C30.18,111.53 27.9,109.25 27.9,106.45 L27.9,94.85 C27.9,92.05 30.18,89.77 32.98,89.77 L101.84,89.77 C103.76,91.47 106.28,92.51 109.04,92.51 L116.28,92.51 C116.65,93.21 116.88,94 116.88,94.85 Z M98.15,80.38 L32.98,80.38 C30.18,80.38 27.9,78.1 27.9,75.3 L27.9,63.7 C27.9,60.9 30.18,58.62 32.98,58.62 L98.15,58.62 L98.15,80.38 Z M116.28,46.49 L109.04,46.49 C106.28,46.49 103.76,47.53 101.84,49.23 L32.98,49.23 C30.18,49.23 27.9,46.95 27.9,44.15 L27.9,32.55 C27.9,29.75 30.18,27.47 32.98,27.47 L111.8,27.47 C114.6,27.47 116.88,29.75 116.88,32.55 L116.88,44.15 C116.88,45 116.65,45.79 116.28,46.49 Z" id="Shape"></path>
                <path d="M139.01,67.35 C136.7,66.06 134.36,65.73 132.22,66.31 C132.02,66.02 131.79,65.75 131.55,65.49 C130.3,64.17 128.64,63.46 126.75,63.37 C126.42,63.35 126.09,63.36 125.75,63.38 C125.42,63.4 125.09,63.43 124.75,63.49 C124.38,63.55 124.01,63.63 123.64,63.73 C121.88,64.21 120.3,64.89 118.87,65.69 C118.53,65.88 118.19,66.09 117.87,66.29 C117.8,66.33 117.73,66.37 117.67,66.41 C117.43,65.98 117.16,65.59 116.87,65.24 C116.05,64.23 115.03,63.53 113.83,63.15 C110.44,62.08 106.67,63.93 105.44,64.62 C105.21,64.75 105.06,64.84 105.03,64.86 C104.72,65.06 104.57,65.4 104.58,65.75 C104.59,65.92 104.62,66.09 104.72,66.24 C104.85,66.44 105.04,66.57 105.25,66.64 C105.45,66.71 105.66,66.71 105.87,66.64 C105.95,66.61 106.03,66.6 106.1,66.55 C106.11,66.54 106.53,66.29 107.18,65.97 C107.27,65.93 107.36,65.89 107.45,65.84 C107.72,65.72 108.01,65.6 108.33,65.48 C109.74,64.96 111.59,64.54 113.23,65.05 C114.02,65.3 114.68,65.77 115.24,66.43 C115.53,66.77 115.8,67.14 116.03,67.59 C112.54,70.42 110.64,73.92 110.6,76.26 C110.57,77.76 111.26,78.85 112.5,79.24 C112.98,79.39 113.47,79.47 113.96,79.47 C114.23,79.47 114.5,79.43 114.76,79.38 C115.58,79.24 116.35,78.89 117.03,78.35 C117.24,78.18 117.46,78.01 117.65,77.8 C118.17,77.23 118.56,76.55 118.85,75.8 C119.51,74.05 119.52,71.87 118.88,69.5 C118.77,69.09 118.64,68.67 118.49,68.25 C118.61,68.17 118.75,68.09 118.88,68.01 C119.51,67.6 120.19,67.22 120.92,66.87 C121.92,66.39 123,65.97 124.18,65.65 C124.38,65.6 124.57,65.56 124.76,65.52 C125.1,65.45 125.44,65.4 125.76,65.37 C126.1,65.34 126.44,65.33 126.76,65.35 C128.1,65.43 129.23,65.94 130.1,66.86 C130.17,66.94 130.25,67.02 130.32,67.1 C130.1,67.23 129.88,67.38 129.66,67.54 C129.26,67.82 128.87,68.12 128.5,68.48 C127.82,69.13 127.24,69.88 126.76,70.68 C126.34,71.38 126,72.1 125.76,72.83 C125.24,74.41 125.18,75.95 125.73,77.04 C125.74,77.06 125.75,77.07 125.76,77.09 C126,77.55 126.34,77.91 126.76,78.17 C127.39,78.55 128.18,78.69 129.1,78.53 C131.07,78.2 132.63,76.74 133.37,74.52 C134.06,72.46 133.96,70.13 133.2,68.15 C134.53,67.89 136.16,68.04 138.05,69.1 C138.53,69.37 139.14,69.2 139.41,68.71 C139.67,68.23 139.5,67.62 139.01,67.35 Z M127.51,76.14 C126.89,74.91 127.79,71.93 129.88,69.93 C130.25,69.58 130.73,69.19 131.32,68.85 C131.92,70.41 132,72.27 131.47,73.88 C131.18,74.76 130.44,76.27 128.76,76.55 C127.8,76.71 127.6,76.31 127.51,76.14 Z M116.87,75.39 C116.69,75.79 116.46,76.16 116.18,76.47 C115.36,77.37 114.21,77.7 113.11,77.35 C112.97,77.31 112.59,77.19 112.61,76.32 C112.64,74.7 114.05,71.95 116.81,69.55 C116.84,69.63 116.85,69.71 116.87,69.79 C117.53,72 117.52,73.96 116.87,75.39 Z" id="Shape"></path>
                <path d="M26.89,13.85 C27.44,13.85 27.89,13.4 27.89,12.85 L27.89,1 C27.89,0.45 27.44,0 26.89,0 C26.34,0 25.89,0.45 25.89,1 L25.89,12.85 C25.89,13.4 26.34,13.85 26.89,13.85 Z" id="Path"></path>
                <path d="M12.85,26.8 L1,26.8 C0.45,26.8 0,27.25 0,27.8 C0,28.35 0.45,28.8 1,28.8 L12.85,28.8 C13.4,28.8 13.85,28.35 13.85,27.8 C13.85,27.25 13.41,26.8 12.85,26.8 Z" id="Path"></path>
                <path d="M8.65,7.95 C8.26,7.56 7.63,7.56 7.24,7.95 C6.85,8.34 6.85,8.97 7.24,9.36 L15.62,17.74 C15.82,17.94 16.07,18.03 16.33,18.03 C16.59,18.03 16.84,17.93 17.04,17.74 C17.43,17.35 17.43,16.72 17.04,16.33 L8.65,7.95 Z" id="Path"></path>
            </g>
        </g>
    </g>
</svg>