<?xml version="1.0" encoding="UTF-8"?>
<svg width="286px" height="193px" viewBox="0 0 286 193" version="1.1" xmlns="http://www.w3.org/2000/svg" xmlns:xlink="http://www.w3.org/1999/xlink">
    <title>Group</title>
    <g id="Page-2" stroke="none" stroke-width="1" fill="none" fill-rule="evenodd">
        <g id="Artboard" transform="translate(-4470.000000, -1760.000000)" fill="#D7E0FD" fill-rule="nonzero">
            <g id="Group" transform="translate(4470.000000, 1760.000000)">
                <g transform="translate(153.324529, 20.039258)" id="Shape">
                    <path d="M32.3854712,39.0580701 C32.3054712,39.0580701 32.2254712,39.0480701 32.1454712,39.0280701 C31.8354712,38.9480701 31.5754712,38.7280701 31.4554712,38.4280701 C31.3254712,38.1080701 31.1754712,37.8380701 30.9954712,37.6180701 C28.7854712,34.8580701 26.3554712,35.5980701 24.0554712,36.8080701 C21.5154712,38.1380701 20.7654712,37.6380701 19.2454712,35.8480701 C17.7054712,34.0280701 18.8154712,32.3580701 19.9954712,30.5980701 C20.1954712,30.2980701 20.4054712,29.9780701 20.6354712,29.6380701 C21.3854712,28.4580701 21.8454712,26.7480701 21.0454712,25.7580701 C20.0354712,24.4880701 18.8054712,23.4380701 16.1254712,21.1280701 L15.6654712,20.7380701 C12.6254712,18.1280701 10.5254712,15.9380701 10.4354712,15.8480701 C10.2754712,15.6880701 10.1854712,15.4680701 10.1554712,15.2480701 C10.1254712,14.8780701 9.3854712,6.03807015 13.4354712,1.98807015 C14.9454712,0.488070146 16.8854712,-0.171929854 19.2254712,0.0380701456 C29.0454712,0.928070146 36.2654712,11.1080701 37.1154712,18.0180701 C37.6554712,22.4180701 36.6754712,24.8480701 35.7954712,26.0780701 C37.2954712,27.1580701 38.7554712,29.2880701 37.7454712,32.6180701 C36.4354712,36.9680701 33.7654712,38.4780701 33.0254712,38.8280701 C32.8454712,38.9780701 32.6154712,39.0580701 32.3854712,39.0580701 Z M27.5354712,33.7380701 C29.1554712,33.7380701 30.9454712,34.3480701 32.5654712,36.3680701 C32.6454712,36.4680701 32.7154712,36.5680701 32.7854712,36.6680701 C33.6054712,36.0980701 35.0054712,34.7780701 35.8354712,32.0380701 C36.8954712,28.5280701 34.1554712,27.3780701 33.8354712,27.2580701 C33.4754712,27.1280701 33.2254712,26.7980701 33.1854712,26.4180701 C33.1454712,26.0480701 33.3254712,25.6880701 33.6354712,25.4780701 C33.7054712,25.4280701 35.8254712,23.8280701 35.1354712,18.2480701 C34.3854712,12.1580701 27.7454712,2.80807015 19.0554712,2.01807015 C17.3154712,1.85807015 15.9454712,2.30807015 14.8554712,3.38807015 C11.8654712,6.36807015 12.0454712,13.0980701 12.1354712,14.7080701 C12.7854712,15.3580701 14.6054712,17.1680701 16.9754712,19.2080701 L17.4354712,19.5980701 C20.2154712,21.9880701 21.4854712,23.0780701 22.6154712,24.4880701 C24.0354712,26.2580701 23.4854712,28.8880701 22.3254712,30.6980701 C22.0954712,31.0580701 21.8754712,31.3880701 21.6654712,31.6980701 C20.3854712,33.6080701 20.2754712,33.9580701 20.7754712,34.5480701 C21.7854712,35.7380701 21.7854712,35.7380701 23.1254712,35.0380701 C23.9154712,34.6180701 25.5954712,33.7380701 27.5354712,33.7380701 Z"></path>
                    <path d="M17.9254712,48.4380701 C16.4654712,48.4380701 14.6854712,48.2480701 12.5954712,47.7180701 C5.5354712,45.9080701 1.0054712,41.1980701 0.185471199,34.8080701 C-0.864528801,26.6580701 2.5354712,19.9580701 10.5954712,14.3280701 C10.9954712,14.0480701 11.5454712,14.0980701 11.8854712,14.4580701 C11.9054712,14.4780701 14.0154712,16.6680701 16.9754712,19.2180701 L17.4354712,19.6080701 C20.2154712,21.9980701 21.4854712,23.0880701 22.6154712,24.4980701 C24.0354712,26.2680701 23.4854712,28.8980701 22.3254712,30.7080701 C22.0954712,31.0680701 21.8754712,31.3980701 21.6654712,31.7080701 C20.3854712,33.6180701 20.2754712,33.9680701 20.7754712,34.5580701 C21.7854712,35.7480701 21.7954712,35.7480701 23.1254712,35.0480701 C24.5854712,34.2780701 29.0154712,31.9480701 32.5554712,36.3780701 C32.8654712,36.7580701 33.1054712,37.1880701 33.3154712,37.6980701 C33.9654712,39.3280701 33.7654712,41.3080701 32.7854712,43.1480701 C31.5554712,45.4380701 29.3354712,47.1080701 26.8654712,47.6180701 C25.0354712,47.8580701 23.2454712,47.7280701 22.5554712,47.6580701 C21.9254712,47.9180701 20.3754712,48.4380701 17.9254712,48.4380701 Z M11.0454712,16.4580701 C4.1454712,21.5180701 1.2454712,27.4380701 2.1554712,34.5480701 C2.8754712,40.1680701 6.7654712,44.1580701 13.0854712,45.7780701 C18.8954712,47.2680701 21.8854712,45.7580701 21.9154712,45.7480701 C22.0954712,45.6580701 22.3154712,45.6180701 22.5054712,45.6380701 C22.5254712,45.6380701 24.5754712,45.8880701 26.5254712,45.6380701 C28.3254712,45.2580701 30.0654712,43.9380701 31.0154712,42.1880701 C31.7254712,40.8780701 31.8854712,39.5080701 31.4554712,38.4280701 C31.4554712,38.4280701 31.4554712,38.4280701 31.4554712,38.4280701 C31.3254712,38.1080701 31.1754712,37.8380701 30.9954712,37.6180701 C28.7854712,34.8580701 26.3554712,35.5980701 24.0554712,36.8080701 C21.5154712,38.1380701 20.7654712,37.6380701 19.2454712,35.8480701 C17.7054712,34.0280701 18.8154712,32.3580701 19.9954712,30.5980701 C20.1954712,30.2980701 20.4054712,29.9780701 20.6354712,29.6380701 C21.3854712,28.4580701 21.8454712,26.7480701 21.0454712,25.7580701 C20.0354712,24.4880701 18.8054712,23.4380701 16.1254712,21.1280701 L15.6654712,20.7380701 C13.5554712,18.9080701 11.8854712,17.2980701 11.0454712,16.4580701 Z"></path>
                </g>
                <path d="M91.3,138.497328 C81.7,138.497328 79.48,135.987328 79.36,133.817328 C79.31,132.967328 79.56,132.317328 79.94,131.837328 C79.19,131.227328 78.58,130.227328 78.58,128.657328 C78.58,127.467328 78.93,126.507328 79.64,125.807328 C79.66,125.787328 79.68,125.767328 79.7,125.747328 C78.93,125.017328 78.6,123.997328 78.66,123.017328 C78.75,121.337328 79.92,119.607328 81.73,119.607328 C81.73,119.607328 81.74,119.607328 81.74,119.607328 C82.56,119.607328 83.35,119.667328 84.12,119.727328 C85.57,119.837328 86.93,119.947328 88.55,119.697328 C88.96,119.637328 89.42,119.577328 89.9,119.507328 C91.41,119.307328 94.94,118.827328 95.36,118.147328 C95.32,116.307328 94.22,115.727328 91.78,115.157328 C89.74,114.687328 87.73,113.817328 88.18,111.007328 C88.25,110.597328 88.49,110.017328 89.3,109.587328 C91.27,108.547328 96.18,108.957328 99.2,110.407328 C102.53,111.997328 107.03,114.187328 107.03,114.187328 C107.07,114.207328 107.1,114.227328 107.14,114.247328 C107.19,114.277328 112.87,117.777328 123.31,114.227328 C134.86,110.307328 148.09,103.527328 152.68,100.847328 C157.75,97.8973278 158.85,97.2073278 158.86,97.1973278 C159.09,97.0473278 159.38,97.0073278 159.65,97.0773278 C159.92,97.1473278 160.15,97.3273278 160.28,97.5673278 C160.31,97.6273278 163.54,103.547328 166.08,110.507328 C168.61,117.437328 170.42,124.657328 170.44,124.727328 C170.55,125.177328 170.35,125.637328 169.94,125.857328 C169.42,126.137328 157.03,132.677328 145.13,134.217328 C137.43,135.217328 126.93,135.147328 119.25,135.087328 C118.03,135.077328 116.88,135.067328 115.82,135.067328 C112.45,135.047328 109.23,135.477328 106.15,136.327328 C102.85,137.227328 97.89,138.337328 92.98,138.477328 C92.38,138.487328 91.83,138.497328 91.3,138.497328 Z M82.16,126.767328 C81.69,126.777328 80.57,126.977328 80.57,128.667328 C80.57,130.407328 81.76,130.647328 82.12,130.677328 C82.62,130.717328 83.01,131.127328 83.04,131.627328 C83.06,132.127328 82.72,132.567328 82.23,132.657328 C81.96,132.717328 81.31,132.937328 81.35,133.707328 C81.44,135.247328 85.05,136.697328 92.91,136.477328 C97.62,136.347328 102.41,135.277328 105.6,134.397328 C108.82,133.517328 112.21,133.067328 115.69,133.067328 C115.73,133.067328 115.77,133.067328 115.81,133.067328 L115.81,133.067328 C116.88,133.067328 118.03,133.077328 119.25,133.087328 C126.86,133.137328 137.29,133.207328 144.85,132.227328 C154.82,130.937328 165.49,125.847328 168.28,124.437328 C167.75,122.417328 166.2,116.707328 164.18,111.187328 C162.28,105.977328 159.98,101.357328 158.99,99.4473278 C158.13,99.9673278 156.53,100.907328 153.67,102.577328 C149.02,105.287328 135.63,112.157328 123.94,116.117328 C112.96,119.837328 106.8,116.387328 106.1,115.947328 C105.61,115.707328 101.46,113.687328 98.33,112.197328 C95.36,110.777328 90.88,110.757328 90.14,111.397328 C90.02,112.137328 90.02,112.677328 92.24,113.197328 C94.13,113.637328 97.29,114.377328 97.34,118.197328 C97.37,120.507328 93.71,121.007328 90.16,121.487328 C89.69,121.547328 89.24,121.607328 88.84,121.677328 C86.99,121.967328 85.44,121.847328 83.95,121.727328 C83.19,121.667328 82.47,121.617328 81.72,121.607328 C81.72,121.607328 81.72,121.607328 81.72,121.607328 C81.2,121.607328 80.69,122.327328 80.64,123.127328 C80.61,123.677328 80.78,124.607328 82.26,124.767328 C82.79,124.817328 83.18,125.287328 83.16,125.817328 C83.13,126.347328 82.69,126.767328 82.16,126.767328 C82.16,126.767328 82.16,126.767328 82.16,126.767328 Z" id="Shape"></path>
                <path d="M89.27,127.617328 C86.93,127.617328 84.25,127.407328 81.88,126.717328 C81.35,126.567328 81.05,126.007328 81.2,125.477328 C81.35,124.947328 81.91,124.637328 82.44,124.797328 C87.7,126.337328 94.99,125.217328 95.06,125.207328 C95.6,125.117328 96.12,125.497328 96.2,126.037328 C96.28,126.587328 95.91,127.097328 95.37,127.177328 C95.19,127.217328 92.56,127.617328 89.27,127.617328 Z" id="Path"></path>
                <path d="M90.15,134.227328 C89.65,134.227328 89.11,134.207328 88.54,134.167328 C85.16,133.917328 81.84,132.657328 81.7,132.607328 C81.18,132.407328 80.93,131.827328 81.12,131.317328 C81.32,130.797328 81.89,130.537328 82.41,130.737328 C82.44,130.747328 85.6,131.947328 88.68,132.177328 C91.72,132.397328 93.87,131.847328 93.89,131.847328 C94.42,131.707328 94.97,132.027328 95.11,132.557328 C95.25,133.087328 94.93,133.637328 94.4,133.777328 C94.32,133.787328 92.66,134.227328 90.15,134.227328 Z" id="Path"></path>
                <path d="M86.5,25.0573278 C86.45,25.0573278 86.41,25.0573278 86.36,25.0573278 C84.69,24.9973278 83.68,24.2173278 83.11,23.3373278 C82.52,23.7273278 81.7,24.0473278 80.55,24.0673278 C78.92,24.1173278 77.95,23.3073278 77.36,22.3973278 C76.79,22.7373278 76.02,22.9673278 75.01,22.9173278 C74.02,22.8673278 73.05,22.1673278 72.29,20.9573278 C70.76,18.5173278 70.07,14.0173278 71.98,9.47732785 C72.5,8.24732785 73.59,5.95732785 75.03,4.51732785 C78.43,1.11732785 83.25,-0.342672153 89.8,0.0673278467 C92.62,0.247327847 96.77,1.44732785 98.82,2.23732785 C103.43,4.02732785 118.08,13.0173278 120.99,14.9273278 C121.45,15.2273278 121.58,15.8473278 121.28,16.3073278 C120.98,16.7673278 120.36,16.8973278 119.9,16.5973278 C116.67,14.4773278 102.38,5.75732785 98.11,4.10732785 C96.24,3.37732785 92.26,2.22732785 89.68,2.06732785 C83.75,1.69732785 79.43,2.95732785 76.46,5.92732785 C75.21,7.17732785 74.21,9.36732785 73.83,10.2573278 C72.2,14.1073278 72.77,17.9473278 73.99,19.8873278 C74.49,20.6773278 74.93,20.9073278 75.12,20.9173278 C76.42,20.9773278 76.71,20.3573278 76.76,20.2273278 C76.92,19.8073278 77.36,19.5173278 77.81,19.5673278 C78.26,19.6173278 78.63,19.9473278 78.7,20.3973278 C78.75,20.6773278 79.08,22.1173278 80.52,22.0573278 C82.15,22.0173278 82.52,21.1573278 82.56,21.0573278 C82.73,20.6173278 83.21,20.3373278 83.66,20.4073278 C84.13,20.4773278 84.49,20.8573278 84.51,21.3373278 C84.54,21.7173278 84.76,22.9773278 86.46,23.0473278 C86.48,23.0473278 86.49,23.0473278 86.51,23.0473278 C88.15,23.0473278 89.11,19.7773278 89.68,17.8273278 C89.78,17.4773278 89.88,17.1573278 89.97,16.8773278 C90.51,15.1673278 91.43,13.0573278 92.73,12.7473278 C93.25,12.6273278 93.77,12.7773278 94.16,13.1773278 C94.84,13.8673278 95.72,15.3973278 94.03,17.9073278 C93.5,18.6973278 93.3,20.5873278 93.84,21.6573278 C94.1,22.1773278 94.4,22.2573278 94.64,22.2673278 C94.65,22.2673278 94.66,22.2673278 94.67,22.2673278 C96.09,22.2673278 99.42,17.4473278 100.38,13.3373278 C101.04,10.5073278 100.16,9.78732785 100.15,9.77732785 C99.67,9.50732785 99.53,8.91732785 99.8,8.42732785 C100.07,7.94732785 100.71,7.79732785 101.19,8.06732785 C101.41,8.19732785 103.35,9.42732785 102.33,13.7873278 C101.45,17.5773278 97.78,24.4673278 94.54,24.2673278 C93.46,24.2073278 92.58,23.5973278 92.05,22.5473278 C91.23,20.8973278 91.38,18.2573278 92.38,16.7773278 C93,15.8673278 93.07,15.3173278 93,14.9873278 C92.71,15.4073278 92.3,16.2073278 91.9,17.4773278 C91.81,17.7473278 91.72,18.0573278 91.63,18.3873278 C90.8,21.0473278 89.62,25.0573278 86.5,25.0573278 Z" id="Path"></path>
                <path d="M77.69,21.5473278 C77.69,21.5473278 77.69,21.5473278 77.69,21.5473278 C77.14,21.5473278 76.69,21.0973278 76.69,20.5473278 C76.69,20.4273278 76.71,17.6473278 77.44,13.7673278 C78.21,9.70732785 80.68,6.84732785 80.79,6.72732785 C81.15,6.30732785 81.78,6.26732785 82.2,6.63732785 C82.62,6.99732785 82.66,7.62732785 82.3,8.04732785 C82.28,8.07732785 80.08,10.6373278 79.41,14.1473278 C78.71,17.8373278 78.69,20.5373278 78.69,20.5673278 C78.69,21.1073278 78.24,21.5473278 77.69,21.5473278 Z" id="Path"></path>
                <path d="M83.49,22.3873278 C83.47,22.3873278 83.45,22.3873278 83.43,22.3873278 C82.88,22.3573278 82.46,21.8873278 82.49,21.3273278 C82.5,21.1973278 82.69,18.0673278 83.83,14.0573278 C85.02,9.87732785 86.76,8.25732785 86.83,8.19732785 C87.24,7.82732785 87.87,7.85732785 88.24,8.26732785 C88.61,8.67732785 88.58,9.30732785 88.17,9.67732785 C88.16,9.68732785 86.76,11.0373278 85.75,14.6073278 C84.67,18.3973278 84.49,21.4173278 84.48,21.4473278 C84.46,21.9773278 84.02,22.3873278 83.49,22.3873278 Z" id="Path"></path>
                <path d="M170.16,128.467328 C170.02,128.467328 169.89,128.437328 169.76,128.387328 C169.49,128.267328 169.28,128.027328 169.2,127.747328 C169.17,127.657328 166.59,118.487328 164.7,112.647328 C162.82,106.867328 158.54,98.6173278 158.5,98.5273278 C158.27,98.0773278 158.4,97.5273278 158.82,97.2473278 L172.04,88.0473278 C172.49,87.7273278 173.12,87.8473278 173.43,88.2973278 C173.75,88.7473278 173.63,89.3773278 173.18,89.6873278 L160.67,98.3873278 C161.8,100.617328 165,107.087328 166.6,112.027328 C168.1,116.637328 170.01,123.297328 170.78,125.997328 C173.91,124.227328 183.05,118.587328 186.92,111.067328 C191.55,102.047328 193.22,96.3473278 190.82,86.4373278 C188.54,76.9873278 177.35,67.6573278 177.24,67.5673278 C176.81,67.2173278 176.75,66.5873278 177.11,66.1573278 C177.46,65.7273278 178.09,65.6673278 178.52,66.0273278 C179,66.4273278 190.34,75.8873278 192.77,85.9773278 C195.3,96.4373278 193.47,102.697328 188.7,111.987328 C183.72,121.677328 171.15,128.107328 170.61,128.377328 C170.47,128.427328 170.31,128.467328 170.16,128.467328 Z" id="Path"></path>
                <path d="M201.87,149.387328 C201.83,149.387328 201.79,149.387328 201.75,149.377328 L145.63,142.427328 C145.36,142.397328 145.12,142.257328 144.95,142.037328 C144.78,141.817328 144.72,141.547328 144.76,141.277328 L146.12,132.727328 C146.21,132.187328 146.73,131.807328 147.26,131.897328 C147.81,131.987328 148.18,132.497328 148.09,133.037328 L146.89,140.557328 L200.81,147.227328 C200.64,144.037328 200.07,134.837328 198.57,125.837328 C198.52,125.547328 193.64,96.3373278 190.83,86.4373278 C190.68,85.9073278 190.99,85.3573278 191.52,85.2073278 C192.05,85.0573278 192.6,85.3673278 192.75,85.8973278 C195.59,95.9073278 200.34,124.307328 200.54,125.517328 C202.41,136.727328 202.860579,148.217328 202.860579,148.327328 C202.87,148.617328 202.75,148.907328 202.54,149.097328 C202.36,149.297328 202.11,149.387328 201.87,149.387328 Z" id="Path"></path>
                <path d="M183.52,61.7273278 C183,61.7273278 182.56,61.3273278 182.52,60.8073278 C182.52,60.7973278 182.39,59.9173278 181.19,59.1473278 C180.27,58.5573278 178.64,59.3573278 178.14,59.6873278 C177.68,59.9873278 177.06,59.8673278 176.75,59.4073278 C176.45,58.9473278 176.57,58.3273278 177.03,58.0173278 C177.15,57.9373278 180.06,56.0473278 182.26,57.4573278 C184.3,58.7673278 184.49,60.4573278 184.5,60.6473278 C184.54,61.1973278 184.13,61.6773278 183.58,61.7173278 C183.57,61.7173278 183.55,61.7273278 183.52,61.7273278 Z" id="Path"></path>
                <path d="M177.41,67.7773278 C177,67.7773278 173.48,67.5973278 172.47,61.5973278 C172.38,61.0573278 172.75,60.5373278 173.29,60.4473278 C173.84,60.3573278 174.35,60.7273278 174.44,61.2673278 C175.18,65.6873278 177.31,65.7773278 177.4,65.7773278 C177.94,65.7873278 178.39,66.2273278 178.39,66.7673278 C178.39,67.3073278 177.98,67.7573278 177.44,67.7773278 C177.44,67.7773278 177.43,67.7773278 177.41,67.7773278 Z" id="Path"></path>
                <path d="M147.71,54.6273278 C147.66,54.6273278 147.61,54.6273278 147.56,54.6173278 L55.09,40.4373278 C54.83,40.3973278 54.59,40.2573278 54.43,40.0373278 C54.27,39.8173278 54.21,39.5573278 54.25,39.2873278 L59.38,7.00732785 C59.47,6.46732785 59.96,6.09732785 60.51,6.17732785 L73.22,8.01732785 C73.77,8.09732785 74.15,8.60732785 74.07,9.14732785 C73.99,9.69732785 73.48,10.0673278 72.94,9.99732785 L61.21,8.29732785 L56.4,38.6073278 L146.92,52.4873278 L152.67,21.5673278 L101.28,14.1173278 C100.73,14.0373278 100.35,13.5273278 100.43,12.9873278 C100.51,12.4373278 101.02,12.0673278 101.56,12.1373278 L153.98,19.7373278 C154.25,19.7773278 154.49,19.9273278 154.65,20.1473278 C154.81,20.3673278 154.87,20.6473278 154.82,20.9073278 L148.7,53.8073278 C148.61,54.2973278 148.19,54.6273278 147.71,54.6273278 Z" id="Path"></path>
                <path d="M155.08,47.8373278 C154.81,47.8373278 154.55,47.7273278 154.35,47.5173278 L149.26,42.0773278 C148.88,41.6773278 148.9,41.0373278 149.31,40.6673278 C149.71,40.2873278 150.35,40.3073278 150.72,40.7173278 L155.81,46.1573278 C156.19,46.5573278 156.17,47.1973278 155.76,47.5673278 C155.57,47.7473278 155.33,47.8373278 155.08,47.8373278 Z" id="Path"></path>
                <path d="M120.54,101.587328 C102.13,101.587328 87.16,86.6173278 87.16,68.2073278 C87.16,59.5873278 90.43,51.4173278 96.38,45.1773278 C96.76,44.7773278 97.39,44.7673278 97.79,45.1473278 C98.19,45.5273278 98.2,46.1573278 97.82,46.5573278 C92.23,52.4173278 89.16,60.1073278 89.16,68.2073278 C89.16,85.5073278 103.24,99.5873278 120.54,99.5873278 C137.84,99.5873278 151.92,85.5073278 151.92,68.2073278 C151.92,62.4073278 150.33,56.7473278 147.32,51.8373278 C147.03,51.3673278 147.18,50.7473278 147.65,50.4573278 C148.12,50.1673278 148.74,50.3173278 149.03,50.7873278 C152.24,56.0173278 153.93,62.0373278 153.93,68.2073278 C153.92,86.6173278 138.95,101.587328 120.54,101.587328 Z" id="Path"></path>
                <path d="M85.93,121.847328 C85.88,121.847328 85.83,121.847328 85.78,121.837328 C85.23,121.757328 84.86,121.247328 84.94,120.697328 L88.89,94.0673278 C88.97,93.5573278 89.4,93.1873278 89.94,93.2173278 L102.39,93.9773278 C102.94,94.0073278 103.36,94.4873278 103.33,95.0373278 C103.3,95.5873278 102.86,96.0173278 102.27,95.9773278 L90.74,95.2673278 L86.92,120.987328 C86.84,121.487328 86.41,121.847328 85.93,121.847328 Z" id="Path"></path>
                <path d="M145.36,144.327328 C145.34,144.327328 145.32,144.327328 145.3,144.327328 L83.1,140.467328 C82.82,140.447328 82.56,140.317328 82.38,140.097328 C82.2,139.877328 82.13,139.597328 82.17,139.317328 L82.59,136.457328 C82.67,135.907328 83.18,135.537328 83.73,135.617328 C84.28,135.697328 84.65,136.207328 84.57,136.757328 L84.31,138.537328 L144.51,142.267328 L145.98,132.717328 C146.06,132.167328 146.58,131.797328 147.12,131.877328 C147.67,131.957328 148.04,132.467328 147.96,133.017328 L146.35,143.467328 C146.27,143.967328 145.85,144.327328 145.36,144.327328 Z" id="Path"></path>
                <path d="M151.63,103.597328 C151.58,103.597328 151.53,103.597328 151.48,103.587328 C150.93,103.507328 150.56,102.997328 150.64,102.447328 L151.17,98.9873278 L135.29,98.0073278 C134.74,97.9773278 134.32,97.4973278 134.35,96.9473278 C134.38,96.3973278 134.84,95.9673278 135.41,96.0073278 L152.38,97.0473278 C152.66,97.0673278 152.92,97.1973278 153.1,97.4173278 C153.28,97.6373278 153.35,97.9173278 153.31,98.1973278 L152.61,102.747328 C152.54,103.247328 152.11,103.597328 151.63,103.597328 Z" id="Path"></path>
                <path d="M104.7,192.557328 C104.55,192.557328 104.4,192.527328 104.26,192.457328 C103.76,192.217328 103.56,191.617328 103.8,191.117328 C103.83,191.047328 107.16,184.277328 115.96,168.347328 C124.82,152.307328 135.23,142.127328 135.34,142.027328 C135.74,141.647328 136.37,141.647328 136.75,142.047328 C137.13,142.447328 137.13,143.077328 136.73,143.457328 C136.63,143.557328 126.42,153.547328 117.71,169.307328 C108.94,185.187328 105.63,191.927328 105.59,191.997328 C105.43,192.357328 105.07,192.557328 104.7,192.557328 Z" id="Path"></path>
                <path d="M212.1,192.557328 C211.75,192.557328 211.4,192.367328 211.22,192.037328 C211.21,192.017328 209.89,189.597328 206.72,183.257328 C196.82,162.467328 196.92,148.477328 196.93,147.887328 C196.94,147.337328 197.42,146.897328 197.94,146.907161 C198.49,146.917328 198.93,147.367328 198.93,147.917328 C198.93,148.057328 198.85,162.067328 208.52,182.377328 C211.66,188.657328 212.96,191.057328 212.98,191.077328 C213.24,191.557328 213.06,192.167328 212.58,192.437328 C212.43,192.517328 212.26,192.557328 212.1,192.557328 Z" id="Path"></path>
                <path d="M150.6,192.557328 C150.4,192.557328 150.2,192.497328 150.02,192.367328 C149.57,192.047328 149.47,191.417328 149.79,190.967328 C149.87,190.867328 151.66,188.357328 154.06,185.537328 C156.48,182.697328 159.13,180.317328 159.24,180.217328 C159.65,179.847328 160.28,179.887328 160.65,180.297328 C161.02,180.707328 160.98,181.337328 160.57,181.707328 C160.54,181.727328 157.91,184.097328 155.58,186.837328 C153.24,189.597328 151.44,192.107328 151.42,192.137328 C151.22,192.417328 150.92,192.557328 150.6,192.557328 Z" id="Path"></path>
                <path d="M164.5,192.557328 C164.19,192.557328 163.88,192.407328 163.68,192.137328 C162.75,190.817328 159.04,182.407328 156.4,174.367328 C153.79,166.377328 153.27,161.647328 153.25,161.457328 C153.19,160.907328 153.59,160.417328 154.14,160.357328 C154.69,160.297328 155.18,160.697328 155.24,161.247328 C155.24,161.297328 155.76,165.987328 158.3,173.747328 C160.88,181.627328 164.55,189.907328 165.31,190.987328 C165.63,191.437328 165.52,192.067328 165.07,192.377328 C164.9,192.497328 164.7,192.557328 164.5,192.557328 Z" id="Path"></path>
                <path d="M284.48,192.787328 L1,192.787328 C0.45,192.787328 0,192.337328 0,191.787328 C0,191.237328 0.45,190.787328 1,190.787328 L284.48,190.787328 C285.03,190.787328 285.48,191.237328 285.48,191.787328 C285.48,192.337328 285.03,192.787328 284.48,192.787328 Z" id="Path"></path>
            </g>
        </g>
    </g>
</svg>