<svg width="104" height="69" viewBox="0 0 104 69" xmlns="http://www.w3.org/2000/svg"><g transform="translate(0 1)" fill="none" fill-rule="evenodd"><path stroke="#7176C4" stroke-linecap="round" stroke-linejoin="round" d="M19.104 32.27h38.459v-6H19.104z"/><path stroke="#DBDBF3" stroke-linecap="round" stroke-linejoin="round" d="M52.705 38.075H19.104v6h36.263M59.175 49.878H19.104v6h45.369"/><path d="M18.592 17.915a.351.351 0 11-.703-.001.351.351 0 01.703 0z" stroke="#7176C4" stroke-linecap="round" stroke-linejoin="round"/><path d="M21.592 17.915a.351.351 0 11-.703-.001.351.351 0 01.703 0zM24.592 17.915a.351.351 0 11-.703-.001.351.351 0 01.703 0z" stroke="#DBDBF3" stroke-linecap="round" stroke-linejoin="round"/><g stroke="#7176C4" stroke-linecap="round" stroke-linejoin="round"><path d="M4.5 61.796h85.463M101.334 61.796h-4.27"/></g><path stroke="#7176C4" stroke-linecap="round" stroke-linejoin="round" d="M24.771 66.734h29.111M62.593 66.734h8.892"/><path stroke="#7176C4" d="M54.98 21.237H14.546M14.547 61.796V16.353a2 2 0 012-2h46.046"/><path stroke="#7176C4" stroke-linecap="round" stroke-linejoin="round" d="M21.592 29.27h3.746"/><path stroke="#DBDBF3" stroke-linecap="round" stroke-linejoin="round" d="M28.979 29.27h6.854M38.934 29.27h6.854M49.956 29.27h5.598"/><g stroke="#BCBCE2" stroke-linecap="round" stroke-linejoin="round"><path d="M100.634 27.886c.903-12.906-8.773-24.095-21.61-24.993M102.504 13.305a28.454 28.454 0 00-2.25-3.683m-1.949-2.416a28.208 28.208 0 00-9.443-6.88"/></g><g fill-rule="nonzero"><path d="M73.5 8C61.645 8 52 17.786 52 29.814 52 42.414 63.4 54.677 73.5 62 83.56 54.705 95 42.478 95 29.814 95 17.786 85.355 8 73.5 8z" fill="#FFF"/><path d="M75.5 8C64.748 8 56 17.75 56 29.735 56 42.289 64.715 54.703 73.875 62 83 54.73 95 42.354 95 29.735 95 17.75 86.252 8 75.5 8z" fill="#EDEDF9"/><path d="M75 38c-3.86 0-7-3.14-7-7s3.14-7 7-7 7 3.14 7 7-3.14 7-7 7z" fill="#FFF"/><path d="M73.5 8C61.645 8 52 17.786 52 29.814c0 12.6 11.4 24.519 21.5 31.842C83.56 54.361 95 42.478 95 29.814 95 17.786 85.355 8 73.5 8zm-.021 30.474c-4.737 0-8.592-3.906-8.592-8.707s3.855-8.707 8.592-8.707 8.592 3.906 8.592 8.707-3.855 8.707-8.592 8.707z" stroke="#7176C4"/></g><circle fill="#DBDBF3" cx="99" cy="50" r="3"/><path fill-opacity=".5" fill="#DBDBF3" d="M20.32 3l3.973 2.113-2.113 3.973-3.973-2.113z"/><circle fill="#DBDBF3" cx="2.25" cy="36.25" r="2.25"/></g></svg>