<svg viewBox="0 0 512 512" xmlns="http://www.w3.org/2000/svg">
  <g fill="#000" fill-rule="nonzero">
    <path d="M377.06 17.169c-14.341-7.288-31.884-1.578-39.179 12.754l-216.71 425.774c-7.294 14.33-1.577 31.85 12.768 39.136A29.048 29.048 0 0 0 147.122 498c10.617 0 20.853-5.817 25.997-15.921l216.71-425.774c7.294-14.33 1.577-31.85-12.768-39.136zM222 157.501C222 96.571 172.429 47 111.498 47 50.571 47 1 96.571 1 157.501 1 218.429 50.571 268 111.5 268c60.93 0 110.5-49.571 110.5-110.499zm-110.5 52.228c-28.798 0-52.229-23.43-52.229-52.228 0-28.8 23.431-52.23 52.229-52.23 28.8 0 52.23 23.429 52.23 52.23-.001 28.797-23.43 52.228-52.23 52.228zM401.501 244C340.571 244 291 293.571 291 354.5S340.57 465 401.501 465C462.429 465 512 415.43 512 354.5S462.43 244 401.501 244zm0 162.727c-28.8 0-52.23-23.431-52.23-52.229s23.43-52.229 52.23-52.229c28.797 0 52.228 23.431 52.228 52.23 0 28.797-23.429 52.228-52.228 52.228z"/>
  </g>
</svg>
