<?xml version="1.0" encoding="UTF-8"?>
<svg width="18px" height="16px" viewBox="0 0 18 16" version="1.1" xmlns="http://www.w3.org/2000/svg" xmlns:xlink="http://www.w3.org/1999/xlink">
    <!-- Generator: Sketch 63.1 (92452) - https://sketch.com -->
    <title>Combined Shape</title>
    <desc>Created with Sketch.</desc>
    <g id="Page-1" stroke="none" stroke-width="1" fill="none" fill-rule="evenodd">
        <g id="chatbot_3.2_lookup_listsearch_02" transform="translate(-1406.000000, -370.000000)" fill="#FFFFFF" fill-rule="nonzero">
            <g id="topbar-copy" transform="translate(1381.000000, 340.000000)">
                <g id="back-copy" transform="translate(25.000000, 30.000000)">
                    <path d="M8.47748439,0.540380592 C8.7059411,0.768837303 8.72878677,1.12504434 8.5460214,1.37905111 L8.47748439,1.45961941 L2.56876118,7.367 L17,7.36786498 C17.3589851,7.36786498 17.65,7.65887989 17.65,8.01786498 C17.65,8.34421506 17.4094918,8.61439144 17.0960522,8.66081731 L17,8.66786498 L2.56876118,8.667 L8.47748439,14.5761106 C8.7059411,14.8045673 8.72878677,15.1607743 8.5460214,15.4147811 L8.47748439,15.4953494 C8.24902768,15.7238061 7.89282064,15.7466517 7.63881387,15.5638864 L7.55824557,15.4953494 L0.0807611845,8.01786498 L7.55824557,0.540380592 C7.81208636,0.286539803 8.2236436,0.286539803 8.47748439,0.540380592 Z" id="Combined-Shape"></path>
                </g>
            </g>
        </g>
    </g>
</svg>