<?xml version="1.0" encoding="UTF-8"?>
<svg width="200px" height="150px" viewBox="0 0 200 150" version="1.1" xmlns="http://www.w3.org/2000/svg" xmlns:xlink="http://www.w3.org/1999/xlink">
    <!-- Generator: Sketch 52 (66869) - http://www.bohemiancoding.com/sketch -->
    <title>Compressor</title>
    <desc>Created with Sketch.</desc>
    <defs>
        <linearGradient x1="50%" y1="6.46622263%" x2="50%" y2="64.5249645%" id="linearGradient-1">
            <stop stop-color="#99ACB9" offset="0%"></stop>
            <stop stop-color="#B3C1CB" offset="27.9376385%"></stop>
            <stop stop-color="#DBE1E6" offset="100%"></stop>
        </linearGradient>
        <linearGradient x1="50%" y1="6.46622263%" x2="50%" y2="95.4860138%" id="linearGradient-2">
            <stop stop-color="#99ACB9" offset="0%"></stop>
            <stop stop-color="#B3C1CB" offset="27.9376385%"></stop>
            <stop stop-color="#DBE1E6" offset="100%"></stop>
        </linearGradient>
        <linearGradient x1="50%" y1="6.46622263%" x2="50%" y2="64.5249645%" id="linearGradient-3">
            <stop stop-color="#4C4C4C" offset="2.3956828%"></stop>
            <stop stop-color="#CACACA" offset="100%"></stop>
        </linearGradient>
        <linearGradient x1="50%" y1="6.46622263%" x2="50%" y2="84.839996%" id="linearGradient-4">
            <stop stop-color="#99ACB9" offset="0%"></stop>
            <stop stop-color="#B3C1CB" offset="27.9376385%"></stop>
            <stop stop-color="#DBE1E6" offset="100%"></stop>
        </linearGradient>
    </defs>
    <g id="Chillers" stroke="none" stroke-width="1" fill="none" fill-rule="evenodd">
        <g id="Desktop-HD-Copy-5" transform="translate(-114.000000, -258.000000)">
            <g id="Compressor" transform="translate(114.000000, 258.000000)">
                <path d="M32.2969925,76.1917293 L34.4548872,76.1917293 L34.4548872,67.7943335 L34.7547014,67.6633391 C36.0008621,67.1188684 36.8233083,65.8861908 36.8233083,64.5026027 L36.8233083,58.2631579 C36.8233083,56.882446 35.7040201,55.7631579 34.3233083,55.7631579 L32.4285714,55.7631579 C31.0478596,55.7631579 29.9285714,56.882446 29.9285714,58.2631579 L29.9285714,64.5026027 C29.9285714,65.8861908 30.7510176,67.1188684 31.9971783,67.6633391 L32.2969925,67.7943335 L32.2969925,76.1917293 Z" id="Combined-Shape" stroke="#474747" fill="url(#linearGradient-1)"></path>
                <g id="Group-7" transform="translate(57.624060, 22.556391)" stroke="#000000" stroke-width="3">
                    <path d="M57.0521694,0.804209095 L0.49767079,26.9910562" id="Path-68"></path>
                    <path d="M53.8259633,36.3909774 L4.61715513,36.8676121" id="Path-68-Copy" transform="translate(29.221559, 36.629295) scale(1, -1) translate(-29.221559, -36.629295) "></path>
                </g>
                <g id="Group-4" transform="translate(103.864662, 14.661654)" stroke="#474747">
                    <circle id="Oval" fill="url(#linearGradient-1)" cx="28.1954887" cy="28.1954887" r="27.6954887"></circle>
                    <circle id="Oval-Copy-10" fill="#FFFFFF" cx="28.1954887" cy="28.1954887" r="23.5490933"></circle>
                </g>
                <path d="M111.977897,77.3195489 L150.167521,77.3195489 L150.167521,54.0158552 C150.167521,52.4942465 150.407025,50.9821204 150.87724,49.5349886 L151.498235,47.6238192 C152.261095,45.2760478 153.907884,43.317422 156.089808,42.1627829 L163.270029,38.3631261 L165.344371,38.7040619 C169.067197,39.3159404 172.84773,38.0107186 175.400079,35.2323472 L178.130506,32.260128 C178.890139,31.4332259 179.00527,30.2013071 178.412012,29.2479683 L169.193287,14.4338844 C169.182993,14.4174369 169.182993,14.4174369 169.172529,14.4010967 C168.424927,13.2402968 166.877862,12.9053337 165.717062,13.6529357 L163.48392,15.0911695 C162.483554,15.7354453 161.879034,16.843826 161.879034,18.0337093 L161.879034,19.8842903 L144.649841,29.9468196 L143.910995,29.2407015 C142.213417,27.6183205 139.943192,26.7329988 137.595452,26.777823 L137.085908,26.7875514 L137.085908,17.1895444 L135.227478,8.52961959 L138.165857,8.52961959 C139.546569,8.52961959 140.665857,7.41033146 140.665857,6.02961959 L140.665857,3 C140.665857,1.61928813 139.546569,0.5 138.165857,0.5 L126.169996,0.5 C124.789284,0.5 123.669996,1.61928813 123.669996,3 L123.669996,6.02961959 C123.669996,7.41033146 124.789284,8.52961959 126.169996,8.52961959 L130.088939,8.52961959 L127.444133,17.2109717 L127.444133,26.5007571 L125.591247,26.5888912 C123.206465,26.7023253 120.978666,27.8110659 119.450237,29.6451749 L119.228064,29.9117809 L89.3901843,19.4429885 L89.3944195,19.084108 C89.4645406,13.1422263 88.7996441,9.90310568 87.6625851,9.50101354 C86.7382542,9.17414731 84.4507699,10.261103 80.9998031,12.8180071 C80.8355051,12.9397385 80.6771799,13.0693309 80.5253804,13.2063318 C77.9205709,15.5572018 77.7147123,19.5745737 80.0655823,22.1793831 C81.0220716,23.2391917 82.9683127,23.682693 85.9240462,23.4447226 L86.0995125,23.4305956 L110.444586,39.9680773 C111.403692,40.619593 111.977897,41.703805 111.977897,42.8632691 L111.977897,77.3195489 Z" id="Path-67" stroke="#474747" fill="url(#linearGradient-2)"></path>
                <circle id="Oval" stroke="#474747" fill="#FFFFFF" cx="131.496241" cy="45.6766917" r="12.4699248"></circle>
                <path d="M159.628826,20.80113 L159.627844,41.2279968 L160.882452,41.2289452 L160.883435,20.8020784 L159.628826,20.80113 Z" id="Rectangle" stroke="#474747" fill="url(#linearGradient-1)" transform="translate(160.255639, 31.015038) rotate(-30.000000) translate(-160.255639, -31.015038) "></path>
                <rect id="Rectangle" stroke="#474747" fill="url(#linearGradient-1)" x="126.921053" y="14.0338346" width="10.2781955" height="1.2556391"></rect>
                <rect id="Rectangle-Copy-7" stroke="#474747" fill="url(#linearGradient-1)" x="125.793233" y="17.4172932" width="12.5338346" height="1.2556391"></rect>
                <rect id="Rectangle-Copy-8" stroke="#474747" fill="url(#linearGradient-1)" x="125.793233" y="21.9285714" width="12.5338346" height="1.2556391"></rect>
                <path d="M155.117548,23.0567691 L155.116565,43.4836359 L156.371174,43.4845843 L156.372156,23.0577175 L155.117548,23.0567691 Z" id="Rectangle-Copy-5" stroke="#474747" fill="url(#linearGradient-1)" transform="translate(155.744361, 33.270677) rotate(-30.000000) translate(-155.744361, -33.270677) "></path>
                <path d="M161.206767,76.1917293 L164.943609,76.1917293 L164.943609,71.4868344 L165.134411,71.3366929 C166.000885,70.654867 166.522556,69.5850701 166.522556,68.4210526 C166.522556,66.4082417 164.97378,64.7857143 163.075188,64.7857143 C161.176596,64.7857143 159.62782,66.4082417 159.62782,68.4210526 C159.62782,69.5850701 160.149491,70.654867 161.015965,71.3366929 L161.206767,71.4868344 L161.206767,76.1917293 Z" id="Combined-Shape" stroke="#474747" fill="url(#linearGradient-1)"></path>
                <path d="M142.926801,131.327068 L149.600744,149.5 L162.011278,149.5 L162.011278,131.327068 L142.926801,131.327068 Z" id="Path-69" stroke="#474747" fill="url(#linearGradient-3)"></path>
                <path d="M34.6561242,131.327068 L41.330067,149.5 L53.7406015,149.5 L53.7406015,131.327068 L34.6561242,131.327068 Z" id="Path-69-Copy" stroke="#474747" fill="url(#linearGradient-3)" transform="translate(44.090226, 140.413534) scale(-1, 1) translate(-44.090226, -140.413534) "></path>
                <path d="M151.734089,25.3124082 L151.733107,45.739275 L152.987716,45.7402234 L152.988698,25.3133566 L151.734089,25.3124082 Z" id="Rectangle-Copy-6" stroke="#474747" fill="url(#linearGradient-1)" transform="translate(152.360902, 35.526316) rotate(-30.000000) translate(-152.360902, -35.526316) "></path>
                <path d="M199.5,100.5 L174.5,100.5 L174.5,114.5 L199.5,114.5 L199.5,100.5 Z" id="Path-23-Copy-26" stroke="#474747" fill="url(#linearGradient-1)"></path>
                <path d="M24.8439391,76.0639098 C13.9346666,86.0835109 8.5,96.0664394 8.5,106.015038 C8.5,115.963636 13.9346666,125.946564 24.8439391,135.966165 L172.735008,135.966165 C183.644281,125.946564 189.078947,115.963636 189.078947,106.015038 C189.078947,96.0664394 183.644281,86.0835109 172.735008,76.0639098 L24.8439391,76.0639098 Z" id="Rectangle-Copy-4" stroke="#474747" fill="url(#linearGradient-4)"></path>
                <path d="M17.0967141,100.5 L0.5,100.5 L0.5,114.5 L17.0967141,114.5 C18.8113707,109.99109 18.8113707,105.00891 17.096713,100.5 Z" id="Path-23-Copy-29" stroke="#474747" fill="url(#linearGradient-1)"></path>
                <path d="M77.924812,76.058468 L77.924812,76.058468 C94.4720213,90.7127759 96.006521,116.006603 81.3522131,132.553812 C80.2800417,133.764476 79.1354761,134.909042 77.924812,135.981213" id="Path-70-Copy" stroke="#474747"></path>
                <path d="M45.2180451,76.058468 L45.2180451,76.058468 C61.7652544,90.7127759 63.2997541,116.006603 48.6454462,132.553812 C47.5732748,133.764476 46.4287092,134.909042 45.2180451,135.981213" id="Path-70-Copy-5" stroke="#474747"></path>
                <path d="M110.631579,76.058468 L110.631579,76.058468 C127.178788,90.7127759 128.713288,116.006603 114.05898,132.553812 C112.986809,133.764476 111.842243,134.909042 110.631579,135.981213" id="Path-70-Copy-2" stroke="#474747"></path>
                <path d="M144.466165,76.058468 L144.466165,76.058468 C161.013375,90.7127759 162.547874,116.006603 147.893567,132.553812 C146.821395,133.764476 145.67683,134.909042 144.466165,135.981213" id="Path-70-Copy-3" stroke="#474747"></path>
                <path d="M41.1681837,76.0639098 L45.6269101,76.0639098 L45.6269101,74.151883 L83.0042445,74.151883 L83.0042445,76.0639098 L88.7030075,76.0639098 L88.7030075,65.3755383 L77.7276752,65.3755383 L77.7276752,61.1382774 L77.7725361,60.9312788 L78.4150148,59.5186259 C83.0552133,49.316515 78.5463925,37.284446 68.3442816,32.6442475 C65.7058536,31.4442184 62.8409712,30.8233083 59.942459,30.8233083 C48.3357372,30.8233083 38.9266301,40.2324154 38.9266301,51.8391372 C38.9266301,58.5312241 42.1137731,64.8232449 47.509082,68.7824605 L49.1746406,70.0049658 L41.1681837,70.0049658 L41.1681837,76.0639098 Z" id="Path-66" stroke="#474747" fill="url(#linearGradient-1)"></path>
                <path d="M89.7030669,18.5466285 L89.7041541,27.6950567 L90.9585872,27.693973 L90.9575001,18.5455449 L89.7030669,18.5466285 Z" id="Rectangle" stroke="#474747" fill="url(#linearGradient-1)" transform="translate(90.330827, 23.120301) rotate(29.000000) translate(-90.330827, -23.120301) "></path>
                <path d="M91.9586794,19.6742289 L91.9593528,29.9507583 L93.214253,29.9498313 L93.2135795,19.6733018 L91.9586794,19.6742289 Z" id="Rectangle-Copy-9" stroke="#474747" fill="url(#linearGradient-1)" transform="translate(92.586466, 24.812030) rotate(29.000000) translate(-92.586466, -24.812030) "></path>
                <path d="M95.3421574,19.6743957 L95.3434651,32.2063497 L96.5976922,32.2053036 L96.5963846,19.6733495 L95.3421574,19.6743957 Z" id="Rectangle-Copy-10" stroke="#474747" fill="url(#linearGradient-1)" transform="translate(95.969925, 25.939850) rotate(29.000000) translate(-95.969925, -25.939850) "></path>
            </g>
        </g>
    </g>
</svg>