<?xml version="1.0" encoding="UTF-8"?>
<svg width="512px" height="512px" viewBox="0 0 512 512" version="1.1" xmlns="http://www.w3.org/2000/svg" xmlns:xlink="http://www.w3.org/1999/xlink">
    <!-- Generator: Sketch 59 (86127) - https://sketch.com -->
    <title>description</title>
    <desc>Created with Sketch.</desc>
    <g id="description" stroke="none" stroke-width="1" fill="none" fill-rule="evenodd">
        <g transform="translate(34.000000, 0.000000)" fill="#000000" fill-rule="nonzero" id="Shape">
            <path d="M51.23,0 L392.77,0 C421.062,0 444,22.923 444,51.2 L444,460.8 C444,489.077 421.063,512 392.77,512 L51.23,512 C22.938,512 0,489.077 0,460.8 L0,51.2 C0,22.923 22.937,0 51.23,0 Z M51.23,34.133 C41.8,34.133 34.154,41.774 34.154,51.2 L34.154,460.8 C34.154,470.226 41.799,477.867 51.231,477.867 L392.769,477.867 C402.201,477.867 409.846,470.226 409.846,460.8 L409.846,51.2 C409.846,41.774 402.201,34.133 392.769,34.133 L51.231,34.133 L51.23,34.133 Z M102.533,170.677 C93.108,170.677 85.467,163.031 85.467,153.6 C85.467,144.169 93.107,136.523 102.533,136.523 L341.467,136.523 C350.892,136.523 358.533,144.169 358.533,153.6 C358.533,163.031 350.893,170.677 341.467,170.677 L102.533,170.677 Z M102.533,238.944 C93.108,238.944 85.467,231.298 85.467,221.867 C85.467,212.435 93.107,204.79 102.533,204.79 L341.467,204.79 C350.892,204.79 358.533,212.435 358.533,221.867 C358.533,231.298 350.893,238.944 341.467,238.944 L102.533,238.944 Z M102.533,307.21 C93.108,307.21 85.467,299.565 85.467,290.133 C85.467,280.702 93.107,273.056 102.533,273.056 L341.467,273.056 C350.892,273.056 358.533,280.702 358.533,290.133 C358.533,299.565 350.893,307.21 341.467,307.21 L102.533,307.21 Z M102.513,375.477 C93.087,375.477 85.446,367.831 85.446,358.4 C85.446,348.969 93.087,341.323 102.513,341.323 L273.179,341.323 C282.605,341.323 290.246,348.969 290.246,358.4 C290.246,367.831 282.606,375.477 273.179,375.477 L102.513,375.477 Z"></path>
        </g>
    </g>
</svg>