<svg width="18" height="18" viewBox="0 0 18 18" xmlns="http://www.w3.org/2000/svg">
    <g fill="none" fill-rule="evenodd">
        <path d="M14.313 17.145H3.638A2.781 2.781 0 0 1 .86 14.368V3.652A2.781 2.781 0 0 1 3.638.874h10.676a2.781 2.781 0 0 1 2.778 2.778v10.716a2.781 2.781 0 0 1-2.778 2.777h-.001zM3.638 2.725a.927.927 0 0 0-.926.927v10.716c0 .51.416.926.926.926h10.676c.51 0 .926-.416.926-.926V3.652a.927.927 0 0 0-.926-.926H3.638z" fill="#C1C5CC" fill-rule="nonzero"/>
        <path d="M5.296 13.328v-8.31c0-.255.208-.462.463-.462h3.85c2.003 0 3.095 1.356 3.095 2.976 0 1.62-1.106 2.977-3.096 2.977H7.26v2.819a.463.463 0 0 1-.463.463H5.76a.463.463 0 0 1-.463-.463zM10.7 7.532c0-.775-.58-1.246-1.355-1.246H7.258V8.78h2.087c.774 0 1.355-.485 1.355-1.247z" fill="#C1C5CC" fill-rule="nonzero"/>
        <path d="M.111.111H17.89V17.89H.111z"/>
    </g>
</svg>
