<?xml version="1.0" encoding="UTF-8"?>
<svg width="21px" height="24px" viewBox="0 0 21 24" version="1.1" xmlns="http://www.w3.org/2000/svg" xmlns:xlink="http://www.w3.org/1999/xlink">
    <!-- Generator: Sketch 53.1 (72631) - https://sketchapp.com -->
    <title>Profile Pic</title>
    <desc>Created with Sketch.</desc>
    <g id="Page-1" stroke="none" stroke-width="1" fill="none" fill-rule="evenodd">
        <g id="Profile-Pic" transform="translate(0.000000, 1.000000)" fill="#FFFFFF" fill-rule="nonzero" stroke="#FFFFFF" stroke-width="0.5">
            <path d="M6.26536491,7.18362358 C6.26536491,7.20162536 6.26536491,7.21062625 6.26536491,7.21962714 C6.26536491,7.28263336 6.28336669,7.34563959 6.31036936,7.39964492 L6.50838891,8.42574626 C6.91342891,10.4869498 8.72260759,11.9720965 10.8198147,11.9720965 C12.9170218,11.9720965 14.7262005,10.4779489 15.1312405,8.41674537 L15.7433009,5.28443602 C15.9233187,3.97030624 15.5272796,2.63817468 14.6451925,1.63907601 C13.7541045,0.648978225 12.49398,0.0729213336 11.1708494,0.0729213336 L10.4507783,0.0729213336 C9.12764759,0.0729213336 7.85852225,0.648978225 6.98543602,1.6480769 C6.1123498,2.64717557 5.71631069,3.97930713 5.89632846,5.32043958 L6.26536491,7.18362358 Z M10.8108138,11.1080112 C9.12764759,11.1080112 7.67850447,9.91089293 7.36347336,8.26373026 L7.14745203,7.13861914 C7.21045825,6.5985658 7.50748758,5.34744224 8.24556047,4.8973978 C8.68660403,4.62737113 9.28966359,4.6543738 10.0367374,4.96940491 C11.8819196,5.76148313 13.3130609,5.77048402 14.2401525,5.61746891 C14.7171996,6.12151869 14.5461827,6.82358803 14.5011783,6.96760225 C14.4921774,7.00360581 14.4831765,7.07561292 14.4831765,7.12061736 C14.4831765,7.12961825 14.4831765,7.12961825 14.4831765,7.13861914 L14.2671552,8.27273114 C13.9431232,9.91089293 12.49398,11.1080112 10.8108138,11.1080112 Z M7.64250092,2.22413379 C8.35357114,1.41405378 9.37067159,0.946007559 10.4507783,0.946007559 L11.1708494,0.946007559 C12.2419552,0.946007559 13.2680565,1.41405378 13.9791267,2.22413379 C14.6631943,2.99821023 14.9782254,4.02431157 14.8792156,5.03241113 C14.8072085,4.95140313 14.7262005,4.87939602 14.6361916,4.80738891 C14.5371818,4.72638091 14.4021685,4.69937824 14.2761561,4.72638091 C13.4840778,4.8973978 12.1609472,4.93340135 10.3787712,4.16832579 C9.35266981,3.73628313 8.47958359,3.72728224 7.78651514,4.15032402 C7.3274698,4.42935157 7.01243869,4.86139424 6.78741647,5.31143869 L6.7604138,5.17642535 C6.61639958,4.11432046 6.94043158,3.03421379 7.64250092,2.22413379 Z" id="Shape"></path>
            <path d="M20.6577863,21.3960272 L19.3616583,15.2934245 C19.2536476,14.7893747 18.8846112,14.3663329 18.3985632,14.1953161 L14.6001881,12.8451827 C14.4381721,12.7911774 14.2671552,12.8271809 14.1501436,12.9441925 L10.8108138,16.2835223 L7.47148403,12.9441925 C7.35447247,12.8271809 7.17445469,12.7821765 7.02143958,12.8451827 L3.22306445,14.1953161 C2.73701645,14.3663329 2.36798001,14.7893747 2.25996934,15.2934245 L0.963841334,21.4050281 C0.936838667,21.5310405 0.972842222,21.6660539 1.05385022,21.7740645 C1.13485822,21.8730743 1.26087067,21.9360805 1.395884,21.9360805 L20.2437454,21.9360805 C20.3787587,21.9360805 20.4957703,21.8730743 20.5857792,21.7740645 C20.6577863,21.6660539 20.684789,21.5310405 20.6577863,21.3960272 Z M3.11505379,15.4734423 C3.16005823,15.257421 3.31307334,15.0864041 3.5110929,15.014397 L7.04844225,13.7542725 L10.4957827,17.201613 C10.6667996,17.3726298 10.9458272,17.3726298 11.116844,17.201613 L14.5641845,13.7542725 L18.1015338,15.014397 C18.3085543,15.0864041 18.4525685,15.257421 18.5065738,15.4734423 C18.5065738,15.4734423 18.902613,17.333626 19.6946912,21.0539934 L1.92693645,21.0539934 L3.11505379,15.4734423 Z" id="Shape"></path>
        </g>
    </g>
</svg>