<svg id="Layer_1" data-name="Layer 1" xmlns="http://www.w3.org/2000/svg" viewBox="0 0 50 50"><g id="Page-1"><g id="Artboard"><g id="inventory"><path id="Shape" d="M14.71,0a1.37,1.37,0,0,0-1.38,1.38V22a1.37,1.37,0,0,0,.4,1,1.42,1.42,0,0,0,1,.4h20.6A1.38,1.38,0,0,0,36.67,22V1.38A1.37,1.37,0,0,0,35.31,0H28.64V8.2a1.37,1.37,0,0,1-1.37,1.37H22.74A1.37,1.37,0,0,1,21.37,8.2V0Zm9.41,0V6.82H25.9V0ZM1.38,26.65a1.39,1.39,0,0,0-1,.41A1.34,1.34,0,0,0,0,28v20.6a1.38,1.38,0,0,0,.41,1,1.34,1.34,0,0,0,1,.4H22a1.38,1.38,0,0,0,1.37-1.37V28A1.39,1.39,0,0,0,22,26.65H15.32v8.2a1.38,1.38,0,0,1-1.38,1.37H9.41A1.37,1.37,0,0,1,8,34.85v-8.2Zm9.41,0v6.82h1.78V26.65Zm17.24,0a1.38,1.38,0,0,0-1,.41,1.35,1.35,0,0,0-.41,1v20.6A1.38,1.38,0,0,0,28,50h20.6A1.37,1.37,0,0,0,50,48.63V28a1.38,1.38,0,0,0-1.37-1.38H42v8.2a1.37,1.37,0,0,1-1.38,1.37H36.06a1.38,1.38,0,0,1-1.37-1.37v-8.2Zm9.41,0v6.82h1.79V26.65Z"/></g></g></g></svg>