<svg xmlns="http://www.w3.org/2000/svg" viewBox="0 0 1070 212">
  <defs>
    <clipPath id="a">
      <path d="M0 595.28h841.89V0H0z"/>
    </clipPath>
  </defs>
  <path d="M343.85 90.96h20.25l13.88 36.84 14.36-36.84H410l14 36.84 14.24-36.84h18.6l-24.6 58.61h-17.18l-14.36-34.13-14.6 34.13h-17.18z"/>
  <g clip-path="url(#a)" stroke-width=".83" transform="matrix(6.31887 0 0 -6.31887 -2128.44 2396.47)">
    <path d="M417.81 360.4c-.6-.3-.69-.31-2.47-.55a6.6 6.6 0 0 1-1.53-.34.99.99 0 0 1-.67-.93c0-.63.6-1.03 1.6-1.03.9 0 1.86.34 2.51.86.4.34.56.78.56 1.55zm-7.1 1.77a2.8 2.8 0 0 0 1.24 2.33c.89.71 2.16 1.06 3.8 1.06 1.73 0 3.16-.39 3.96-1.06.71-.6.93-1.26.93-2.75v-3.86c0-1 .08-1.4.34-1.68v-.28h-2.85l-.24 1.1a5.33 5.33 0 0 0-3.97-1.45c-2.33 0-3.76 1.1-3.76 2.87 0 1.17.61 2.07 1.67 2.48.77.3.77.3 3.7.63 1.87.22 2.3.4 2.3.99 0 .65-.72 1.04-1.97 1.04a3.1 3.1 0 0 1-1.68-.4c-.3-.18-.43-.4-.52-1.02zm18.49-6.24h-1.6c-1.63 0-2.43.25-2.95.9-.41.48-.47.82-.47 2.42v3.91h-1.49v2.05h1.5v2.66H427v-2.66h2.18v-2.05H427v-3.7c0-1.09.2-1.3 1.21-1.3h.97zm7.74 0h-1.58c-1.64 0-2.44.25-2.97.9-.4.48-.46.82-.46 2.42v3.91h-1.5v2.05h1.5v2.66h2.83v-2.66h2.18v-2.05h-2.18v-3.7c0-1.09.2-1.3 1.21-1.3h.97z"/>
    <path d="M441.9 358.99c.12-1 .8-1.44 2.3-1.44 1.27 0 2.01.38 2.01 1 0 .29-.2.53-.57.64-.4.1-1.25.2-3.5.45-1.22.15-2 .41-2.5.88-.5.46-.76 1.04-.76 1.73a3 3 0 0 0 1.37 2.46c.9.57 2.1.85 3.65.85 2.09 0 3.8-.6 4.55-1.56.35-.47.46-.84.48-1.57h-3.07c-.07.45-.17.64-.47.82a3.2 3.2 0 0 1-1.65.36c-1.14 0-1.77-.32-1.77-.88 0-.6.22-.67 4.19-1.06 2-.18 3.09-1.15 3.09-2.72 0-.97-.5-1.88-1.32-2.44-.95-.63-2.16-.93-3.86-.93-1.92 0-3.3.37-4.28 1.16-.67.54-.97 1.15-1.06 2.25zm17.78 2.64c-.22 1.23-1.2 1.96-2.59 1.96-1.43 0-2.37-.69-2.57-1.96zm3.02-2.85c-1.03-2.16-2.85-3.2-5.67-3.2-3.52 0-5.66 1.84-5.66 4.9 0 3.13 2.16 5.08 5.63 5.08 3.55 0 5.79-2.03 5.79-5.27v-.39h-8.42c.06-.72.17-1.06.47-1.45.5-.62 1.24-.91 2.27-.91 1.15 0 1.75.31 2.38 1.24zm2.86 6.43h2.83v-1.55c.49.62.75.88 1.14 1.14a4.5 4.5 0 0 0 2.48.65c1.47 0 2.7-.52 3.3-1.41.37-.54.46-1 .46-2.33v-5.78h-2.85v5.16c0 .8-.11 1.18-.41 1.53-.35.4-.97.62-1.64.62-.95 0-1.8-.45-2.18-1.14-.22-.4-.3-.82-.3-1.53v-4.64h-2.83zm15.96-6.22c.13-1 .8-1.44 2.31-1.44 1.27 0 2.01.38 2.01 1 0 .29-.2.53-.57.64-.4.1-1.25.2-3.5.45-1.22.15-2 .41-2.5.88-.5.46-.76 1.04-.76 1.73a3 3 0 0 0 1.37 2.46c.9.57 2.1.85 3.65.85 2.09 0 3.8-.6 4.55-1.56.35-.47.46-.84.48-1.57h-3.07c-.07.45-.17.64-.47.82a3.2 3.2 0 0 1-1.65.36c-1.14 0-1.77-.32-1.77-.88 0-.6.22-.67 4.19-1.06 2-.18 3.09-1.15 3.09-2.72 0-.97-.5-1.88-1.32-2.44-.95-.63-2.16-.93-3.86-.93-1.92 0-3.3.37-4.28 1.16-.67.54-.97 1.15-1.06 2.25zm17.78 2.64c-.21 1.23-1.18 1.96-2.58 1.96-1.43 0-2.37-.69-2.57-1.96zm3.03-2.85c-1.03-2.16-2.85-3.2-5.67-3.2-3.52 0-5.66 1.84-5.66 4.9 0 3.13 2.16 5.08 5.63 5.08 3.55 0 5.79-2.03 5.79-5.27v-.39H494c.06-.72.17-1.06.47-1.45.5-.62 1.24-.91 2.27-.91 1.15 0 1.75.31 2.38 1.24zm-152.49 12.89v-2.26h-5.21v-14.23h5.23v-2.2h-7.6v18.7zM367 352.98v2.25h5.22v14.24h-5.23v2.2h7.6v-18.7zm-13.45 23.82l1.96 1 9.43-18.43-8.85 2.46 7.14-13.98-1.96-1-9.43 18.45 8.86-2.49z" fill="#2BC47C"/>
  </g>
</svg>
