<?xml version="1.0"?>
<svg xmlns="http://www.w3.org/2000/svg" xmlns:xlink="http://www.w3.org/1999/xlink" xmlns:svgjs="http://svgjs.com/svgjs" version="1.1" width="512" height="512" x="0" y="0" viewBox="0 0 474 474.8" style="enable-background:new 0 0 512 512" xml:space="preserve" class=""><g transform="matrix(0.9400000000000001,0,0,0.9400000000000001,13.943906250000026,14.244023437500033)"><path xmlns="http://www.w3.org/2000/svg" d="m12.398438 416.601562 96 55.199219c7.203124 4 16.800781 4 24 0l100-56.800781 100 56.800781c7.203124 4 16.800781 4 24 0l96-55.199219c7.203124-4 12-12 12-20.800781v-116.800781c0-8.800781-4.796876-16.800781-12-20.800781l-100-57.597657v-121.601562c0-8.800781-4.796876-16.800781-12-20.800781l-96-55.199219c-7.199219-4-16.796876-4-24 0l-96 55.199219c-7.199219 4-12 12-12 20.800781v122.398438l-100 56.800781c-7.199219 4-12 12-12 20.800781v117.601562c0 8 4.800781 16 12 20zm108-38.402343-10.398438-10.398438c1.601562-3.199219 2.398438-7.199219 2.398438-11.199219v-13.601562l-7.199219-14.398438c-.800781-1.601562-.800781-2.402343-.800781-4v-15.203124c0-8.796876 7.203124-16 16-16 8.800781 0 16 7.203124 16 16v15.203124c0 1.597657 0 2.398438-.796876 3.199219l-7.203124 15.199219v13.601562c0 4 .800781 7.199219 2.402343 11.199219zm24-21.597657v-10.402343l5.601562-11.199219c1.601562-3.199219 2.398438-7.199219 2.398438-10.398438v-15.203124c0-17.597657-14.398438-32-32-32-17.597657 0-32 14.402343-32 32v15.203124c0 4 .800781 7.199219 2.402343 10.398438l5.597657 11.199219v10.402343c0 3.199219-2.398438 6.398438-5.597657 8l-25.601562 7.199219 4.800781-62.402343c2.398438-28 26.398438-48.796876 54.398438-46.398438 24.800781 1.601562 44.800781 21.601562 46.402343 46.398438l4.800781 62.402343-25.601562-7.199219c-3.199219-1.601562-5.601562-4.800781-5.601562-8zm-88 40c0-3.203124 2.402343-6.402343 5.601562-8l32.800781-9.601562c.800781 0 2.398438-.800781 3.199219-.800781l11.199219 11.199219-20.800781 20.800781v32l-32-18.398438zm68 61.597657c-2.398438 1.601562-5.597657 1.601562-8 0l-12-7.199219v-34.398438l38.402343-38.402343c.800781.800781 2.398438.800781 3.199219.800781l32.800781 9.601562c3.199219.796876 5.597657 4 5.597657 8v27.199219zm140-364.800781c-8-3.199219-16.796876-3.199219-23.199219 1.601562l-8.800781 4.800781-8.796876-4.800781c-7.203124-4-16-4.800781-23.203124-1.601562v-16c0-4.796876 3.203124-8 8-8h48c4.800781 0 8 3.203124 8 8zm-64 24c0-5.597657 4.800781-10.398438 10.402343-10.398438 1.597657 0 4 .800781 5.597657 1.601562l16.800781 10.398438 16.800781-10.398438c4.800781-3.203124 11.199219-1.601562 13.601562 3.199219.796876 1.597657 1.597657 3.199219 1.597657 5.597657v17.601562c0 2.398438-.800781 4-2.398438 5.601562l-20 20-10.402343 9.597657-8.796876-8.800781-8.800781-8.796876-11.199219-11.203124c-1.601562-1.597657-2.402343-3.199219-2.402343-5.597657v-18.402343zm96 106.402343-48.796876 28 12.796876-33.601562c3.203124-8.800781.800781-18.398438-5.597657-25.597657l-11.199219-11.203124 15.199219-15.199219 32 10.402343c3.199219.796876 5.597657 4 5.597657 7.199219zm-64-31.199219 11.203124 11.199219c2.398438 2.398438 3.199219 5.597657 1.597657 8.800781l-12.800781 34.398438-12.796876-34.398438c-.800781-3.203124 0-6.402343 1.597657-8.800781zm-26.398438-26.402343 15.199219 15.199219-11.199219 11.203124c-6.398438 6.398438-8.800781 16.796876-5.601562 25.597657l12.800781 33.601562-48.800781-28v-38.402343c0-3.199219 2.402343-6.398438 5.601562-7.199219zm142.398438 292c-2.398438 1.601562-5.597657 1.601562-8 0l-60-34.398438v-38.402343c0-3.199219 2.402343-6.398438 5.601562-7.199219l32-10.398438c14.398438 14.398438 38.398438 14.398438 52.800781 0l32 10.398438c3.199219.800781 5.597657 4 5.597657 7.199219v38.402343zm-36-148.800781v-1.597657l32-6.402343 32 6.402343v20.800781c0 1.597657-.796876 3.199219-1.597657 4.796876l-12.800781 20c-7.199219 9.601562-20.800781 12-30.398438 4-1.601562-1.597657-3.203124-2.398438-4-4l-12.800781-20c-.800781-1.597657-1.601562-3.199219-1.601562-4.796876v-19.203124zm64-17.597657-32-6.402343-32 6.402343v-14.402343c0-4.796876 3.203124-8 8-8h56zm68-20c2.402343 1.597657 4 4 4 7.199219v117.601562c0 3.199219-1.597657 5.597657-4 7.199219l-20 10.398438v-29.597657c0-10.402343-6.398438-19.203124-16.796876-22.402343l-27.203124-8.800781 7.203124-11.199219c2.398438-4 4-8.800781 4-13.597657v-75.203124h-72c-13.601562 0-24 10.402343-24 24v51.203124c0 4.796876 1.597657 9.597657 4 13.597657l7.199219 11.199219-27.199219 8.800781c-8.800781 3.199219-15.203124 12-15.203124 22.402343v29.597657l-24-13.597657v-127.203124c1.601562-.796876 2.402343-.796876 4-1.597657l100-56.800781zm-312-200 96-55.199219c2.402343-1.601562 5.601562-1.601562 8 0l96 55.199219c2.402343 1.597657 4 4 4 7.199219v122.398438l-24 13.601562v-29.601562c0-10.398438-6.398438-19.199219-16.796876-22.398438l-24.800781-8 2.398438-2.398438c4.800781-4.800781 7.199219-10.402343 7.199219-16.800781v-58.402343c0-13.597657-10.398438-24-24-24h-48c-13.597657 0-24 10.402343-24 24v57.601562c0 6.398438 2.402343 12.800781 7.203124 16.800781l2.398438 2.398438-24.800781 8c-10.398438 3.199219-16.800781 12-16.800781 22.402343v29.597657l-24-13.597657v-121.601562c0-3.199219 1.601562-5.601562 4-7.199219zm-116 207.199219c0-3.199219 1.601562-5.601562 4-7.199219l100-56.800781 100 56.800781c1.601562.800781 2.402343.800781 4 1.597657v127.203124l-24 13.597657v-17.597657c0-7.203124-3.199219-13.601562-8-17.601562l-5.597657-71.199219c-3.199219-36.800781-35.199219-64-71.199219-61.601562-32.800781 2.402343-58.402343 28.800781-61.601562 61.601562l-5.601562 71.199219c-4.796876 4.800781-8 11.199219-8 17.601562v17.597657l-20-11.199219c-2.398438-1.601562-4-4-4-7.199219zm0 0" fill="#bfbfbf" data-original="#000000" style="" class=""/><path xmlns="http://www.w3.org/2000/svg" d="m144.398438 397.398438h24v16h-24zm0 0" fill="#bfbfbf" data-original="#000000" style="" class=""/><path xmlns="http://www.w3.org/2000/svg" d="m336.398438 389.398438h16v16h-16zm0 0" fill="#bfbfbf" data-original="#000000" style="" class=""/><path xmlns="http://www.w3.org/2000/svg" d="m336.398438 421.398438h16v16h-16zm0 0" fill="#bfbfbf" data-original="#000000" style="" class=""/><path xmlns="http://www.w3.org/2000/svg" d="m368.398438 389.398438h24v16h-24zm0 0" fill="#bfbfbf" data-original="#000000" style="" class=""/><path xmlns="http://www.w3.org/2000/svg" d="m272.398438 189.398438h16v16h-16zm0 0" fill="#bfbfbf" data-original="#000000" style="" class=""/></g></svg>
