<svg id="Layer_1" data-name="Layer 1" xmlns="http://www.w3.org/2000/svg" viewBox="0 0 53 50"><defs><style>.cls-1{fill-rule:evenodd;}</style></defs><path id="Combined-Shape" class="cls-1" d="M47.82,0A5.39,5.39,0,0,1,53,5.56h0V44.44A5.39,5.39,0,0,1,47.82,50H5.18A5.39,5.39,0,0,1,0,44.44H0V5.56A5.39,5.39,0,0,1,5.18,0H47.82ZM46.76,3.57H6.24A2.67,2.67,0,0,0,3.56,6.25h0v37.5a2.67,2.67,0,0,0,2.68,2.68H46.76a2.67,2.67,0,0,0,2.68-2.68h0V6.25a2.67,2.67,0,0,0-2.68-2.68ZM24.93,7.14V17.87H17.83l0,3.56H26.5V7.14H43.2a2.68,2.68,0,0,1,2.68,2.69h0v11.6H38.75V14.29H35.19V32.14h3.56V25h7.12V40.17l0,.32a2.68,2.68,0,0,1-2.66,2.37H28.05V32.14H21.37l.08,3.6,5.05,0v3.64l0,3.43H9.8l-.31,0a2.67,2.67,0,0,1-2.36-2.67h0V21.42h7.13V17.86H7.12V9.51A2.68,2.68,0,0,1,9.8,7.14H24.93Z"/></svg>