<?xml version="1.0" encoding="UTF-8"?>
<svg width="100px" height="100px" viewBox="0 0 100 100" version="1.1" xmlns="http://www.w3.org/2000/svg" xmlns:xlink="http://www.w3.org/1999/xlink">
    <!-- Generator: Sketch 52 (66869) - http://www.bohemiancoding.com/sketch -->
    <title>T shaped duct 2</title>
    <desc>Created with Sketch.</desc>
    <defs>
        <linearGradient x1="73.8528983%" y1="0%" x2="73.8528983%" y2="100%" id="linearGradient-1">
            <stop stop-color="#282828" offset="0%"></stop>
            <stop stop-color="#C6D0E1" offset="100%"></stop>
        </linearGradient>
        <linearGradient x1="100%" y1="15.1876786%" x2="0%" y2="15.1876786%" id="linearGradient-2">
            <stop stop-color="#424951" offset="0%"></stop>
            <stop stop-color="#909CAC" offset="100%"></stop>
        </linearGradient>
    </defs>
    <g id="AHU-Illustration" stroke="none" stroke-width="1" fill="none" fill-rule="evenodd">
        <g id="Types-of-Ducts" transform="translate(-949.000000, -478.000000)">
            <g id="T-shaped-duct-2" transform="translate(949.000000, 478.000000)">
                <g id="Group-Copy-12">
                    <polygon id="Path-2-Copy" fill="#5B6777" points="100 0 100 77 0 77 0 0"></polygon>
                    <polygon id="Path-4" fill="url(#linearGradient-1)" opacity="0.5" points="0 0 0 30 100 30 100 0"></polygon>
                    <polygon id="Path-4-Copy" fill="#848E9C" points="0 77 0 100 100 100 100 77"></polygon>
                </g>
                <g id="Group-2-Copy" transform="translate(50.000000, 65.000000) scale(1, -1) translate(-50.000000, -65.000000) translate(0.000000, 30.000000)">
                    <polygon id="Path-8" fill="#848E9C" points="23.960088 4.12968107 0 23 0 -5.68434189e-14 23.960088 -5.68434189e-14"></polygon>
                    <polygon id="Path-8-Copy" fill="url(#linearGradient-2)" points="99.9598784 -1.13646939e-13 70 23 70 -1.13686838e-13"></polygon>
                    <polygon id="Path-9" fill="#5B6777" points="0 23 23.5948648 3.44328888 23.5948648 2.64718802e-14 70 0 70 70 5 70"></polygon>
                </g>
            </g>
        </g>
    </g>
</svg>