<svg width="84" height="67" viewBox="0 0 84 67" xmlns="http://www.w3.org/2000/svg"><g fill="none" fill-rule="evenodd"><path stroke="#7176C4" stroke-linecap="round" stroke-linejoin="round" d="M.5 59.682h82.874M54.688 66.317h10.86M21.326 66.317h24.253"/><path fill="#EDEDF9" d="M64.381 59.683H22.043l2.103-44.91h38.131z"/><path fill="#BCBCE2" d="M45.579 59.635h-20.41v-17.86z"/><path stroke="#7176C4" stroke-linecap="round" stroke-linejoin="round" d="M64.381 59.682H18.548l2.277-48.21h41.28L63.11 37"/><g><path d="M33.33 14.773V9.747c0-4.555 3.916-8.247 8.745-8.247 4.83 0 8.744 3.692 8.744 8.247v5.026M50.82 18.337v.73M33.331 19.068v-.73" stroke="#7176C4" stroke-linecap="round" stroke-linejoin="round"/><path d="M30.136 11.552V9.747c0-4.554 3.915-8.247 8.745-8.247 4.829 0 8.744 3.693 8.744 8.247v1.805" stroke="#7176C4" stroke-linecap="round" stroke-linejoin="round"/><path fill="#FFF" d="M6.478 46.304h18.356V41.99H6.478z"/><path stroke="#7176C4" stroke-linecap="round" stroke-linejoin="round" d="M6.478 46.304h18.356V41.99H6.478z"/><path fill="#DBDBF3" d="M7.246 45.81h17.058v-2.932H7.246z"/><path fill="#FFF" d="M8.34 45.81h1.485v-3.325H8.34zM10.749 45.81h1.485v-3.325h-1.485z"/><path fill="#BCBCE2" d="M21.941 45.81h2.363v-2.932h-2.363z"/><path fill="#FFF" d="M9.478 50.62h18.356v-4.315H9.478z"/><path stroke="#7176C4" stroke-linecap="round" stroke-linejoin="round" d="M9.478 50.62h18.356v-4.315H9.478z"/><path fill="#DBDBF3" d="M10.246 50.126h17.058v-2.932H10.246z"/><path fill="#FFF" d="M11.34 50.126h1.485v-3.325H11.34zM13.749 50.126h1.485v-3.325h-1.485z"/><path fill="#BCBCE2" d="M24.941 50.126h2.363v-2.932h-2.363z"/><path fill="#FFF" d="M6.597 54.935h18.356V50.62H6.597z"/><path stroke="#7176C4" stroke-linecap="round" stroke-linejoin="round" d="M6.597 54.935h18.356V50.62H6.597z"/><path fill="#DBDBF3" d="M7.365 54.441h17.058V51.51H7.365z"/><path fill="#FFF" d="M8.458 54.441h1.485v-3.325H8.458zM10.867 54.441h1.486v-3.325h-1.486z"/><path fill="#BCBCE2" d="M22.06 54.441h2.363V51.51H22.06z"/><path fill="#FFF" d="M9.943 59.324h18.356V55.01H9.943z"/><path stroke="#7176C4" stroke-linecap="round" stroke-linejoin="round" d="M9.943 59.324h18.356V55.01H9.943z"/><path fill="#DBDBF3" d="M10.711 58.83h17.058v-2.932H10.711z"/><path fill="#FFF" d="M11.804 58.83h1.485v-3.325h-1.485zM14.213 58.83h1.486v-3.325h-1.486z"/><path fill="#BCBCE2" d="M25.406 58.83h2.363v-2.932h-2.363z"/><path d="M72.082 46.194a.816.816 0 010-.717l1.025-2.111a2.41 2.41 0 00-1.029-3.19l-2.06-1.101a.81.81 0 01-.419-.58l-.403-2.315a2.387 2.387 0 00-2.693-1.971l-2.31.329a.801.801 0 01-.676-.222l-1.676-1.634a2.371 2.371 0 00-3.329 0l-1.676 1.634a.801.801 0 01-.677.222l-2.31-.33a2.386 2.386 0 00-2.693 1.972l-.402 2.315a.81.81 0 01-.419.58l-2.06 1.101a2.41 2.41 0 00-1.029 3.19l1.025 2.111c.11.228.11.49 0 .717l-1.025 2.111a2.41 2.41 0 001.029 3.19l2.06 1.101a.81.81 0 01.419.58l.402 2.315a2.388 2.388 0 002.694 1.971l2.31-.33a.8.8 0 01.676.222l1.676 1.634a2.377 2.377 0 001.664.683c.6 0 1.198-.228 1.665-.683l1.676-1.634a.802.802 0 01.677-.221l2.31.329a2.386 2.386 0 002.692-1.971l.403-2.315a.81.81 0 01.419-.58l2.06-1.101a2.41 2.41 0 001.029-3.19l-1.025-2.111z" fill="#FAFAFF" fill-rule="nonzero"/><path d="M66.503 34.209a2.387 2.387 0 012.693 1.971l.403 2.315a.81.81 0 00.419.58l2.06 1.1a2.41 2.41 0 011.029 3.19l-1.025 2.112a.816.816 0 000 .717l1.025 2.11a2.41 2.41 0 01-1.029 3.19l-2.06 1.102a.81.81 0 00-.419.58l-.403 2.315a2.386 2.386 0 01-2.693 1.971l-2.31-.33a.802.802 0 00-.676.222l-1.676 1.634a2.378 2.378 0 01-1.665.683 2.377 2.377 0 01-1.664-.683l-.76-.741 1.182-1.242a.767.767 0 01.677-.238l2.31.354c1.285.197 2.468-.735 2.692-2.122l.403-2.492a.872.872 0 01.418-.625l2.06-1.185c1.148-.66 1.6-2.17 1.03-3.435l-1.025-2.273a.94.94 0 010-.771l1.025-2.273c.57-1.266.118-2.774-1.03-3.434l-2.06-1.186a.872.872 0 01-.418-.624l-.36-2.23zm-7.436-1.933a2.365 2.365 0 012.073-.07l-1.53.235a.756.756 0 01-.572-.147z" fill="#DBDBF3" fill-rule="nonzero"/><path d="M72.082 46.194a.816.816 0 010-.717l1.025-2.111a2.41 2.41 0 00-1.029-3.19l-2.06-1.101a.81.81 0 01-.419-.58l-.403-2.315a2.387 2.387 0 00-2.693-1.971l-2.31.329a.801.801 0 01-.676-.222l-1.676-1.634a2.371 2.371 0 00-3.329 0l-1.676 1.634a.801.801 0 01-.677.222l-2.31-.33a2.386 2.386 0 00-2.693 1.972l-.402 2.315a.81.81 0 01-.419.58l-2.06 1.101a2.41 2.41 0 00-1.029 3.19l1.025 2.111c.11.228.11.49 0 .717l-1.025 2.111a2.41 2.41 0 001.029 3.19l2.06 1.101a.81.81 0 01.419.58l.402 2.315a2.388 2.388 0 002.694 1.971l2.31-.33a.8.8 0 01.676.222l1.676 1.634a2.377 2.377 0 001.664.683c.6 0 1.198-.228 1.665-.683l1.676-1.634a.802.802 0 01.677-.221l2.31.329a2.386 2.386 0 002.692-1.971l.403-2.315a.81.81 0 01.419-.58l2.06-1.101a2.41 2.41 0 001.029-3.19l-1.025-2.111z" stroke="#7176C4"/><path stroke="#7176C4" stroke-linecap="round" d="M65.01 40.124l-9.602 11.468"/><path d="M55.508 39.81c-.59 0-1.123.239-1.51.625-.386.387-.625.92-.625 1.51s.239 1.124.625 1.51c.387.387.92.626 1.51.626s1.124-.24 1.51-.626c.386-.386.625-.92.625-1.51s-.239-1.123-.625-1.51a2.129 2.129 0 00-1.51-.625zM64.732 47.716c-.59 0-1.124.239-1.51.625-.387.387-.626.92-.626 1.51s.24 1.124.626 1.51c.386.387.92.626 1.51.626s1.123-.24 1.51-.626c.386-.386.625-.92.625-1.51s-.24-1.123-.626-1.51a2.129 2.129 0 00-1.51-.625z" stroke="#7176C4"/><path d="M78.432 7.13a3.05 3.05 0 11-6.099.002 3.05 3.05 0 016.099-.001M13.711 25.558a1.764 1.764 0 11-3.528-.001 1.764 1.764 0 013.528 0" fill-opacity=".5" fill="#DBDBF3"/><path d="M77.432 54.441a1.763 1.763 0 11-3.526 0 1.763 1.763 0 013.526 0M9.715 10.522L6.487 7.293l3.228-3.228 3.229 3.228z" fill="#DBDBF3"/></g></g></svg>