<svg xmlns="http://www.w3.org/2000/svg" viewBox="0 0 192 192"><defs><style>.cls-1{fill:#334056;}.cls-2{fill:none;}</style></defs><g id="trim_area" data-name="trim area"><path class="cls-1" d="M171.1,144.1h-4.36v-6.4a11.08,11.08,0,1,0-7.39,0v6.4h-17.6V22.89A15.18,15.18,0,0,0,126.59,7.73H64.91A15.18,15.18,0,0,0,49.75,22.89V144.1H34.44v-6.4a11.08,11.08,0,1,0-7.38,0v6.4H20.28A12.48,12.48,0,0,0,7.81,156.56V170.9a12.48,12.48,0,0,0,12.47,12.46H171.1a12.48,12.48,0,0,0,12.47-12.46V156.56A12.48,12.48,0,0,0,171.1,144.1Zm-8-20.54a3.69,3.69,0,1,1-3.7,3.69A3.69,3.69,0,0,1,163.05,123.56ZM61.75,22.89a3.17,3.17,0,0,1,3.16-3.16h61.68a3.17,3.17,0,0,1,3.16,3.16V144.1h-68Zm-31,100.67a3.69,3.69,0,1,1-3.69,3.69A3.69,3.69,0,0,1,30.75,123.56ZM171.57,170.9a.47.47,0,0,1-.47.46H20.28a.47.47,0,0,1-.47-.46V156.56a.46.46,0,0,1,.47-.46H171.1a.46.46,0,0,1,.47.46Z"/><rect class="cls-1" x="67.75" y="41.3" width="12" height="12" rx="1.46"/><rect class="cls-1" x="111.75" y="41.3" width="12" height="12" rx="1.46"/><rect class="cls-1" x="90" y="41.3" width="12" height="12" rx="1.46"/><rect class="cls-1" x="67.69" y="79.56" width="12" height="12" rx="1.46"/><rect class="cls-1" x="111.69" y="79.56" width="12" height="12" rx="1.46"/><rect class="cls-1" x="89.94" y="79.56" width="12" height="12" rx="1.46"/><rect class="cls-1" x="67.75" y="117.82" width="12" height="12" rx="1.46"/><rect class="cls-1" x="111.75" y="117.82" width="12" height="12" rx="1.46"/><rect class="cls-1" x="90" y="117.82" width="12" height="12" rx="1.46"/><rect class="cls-2" y="-0.06" width="192" height="192"/></g></svg>