<svg id="Layer_1" data-name="Layer 1" xmlns="http://www.w3.org/2000/svg" viewBox="0 0 59.54 50"><defs><style>.cls-1{fill-rule:evenodd;}</style></defs><path class="cls-1" d="M37.94,18.33a13.65,13.65,0,0,1-.07,1.7,5.48,5.48,0,0,1-2.43,3.84,4.58,4.58,0,0,1-2.34.7,3.87,3.87,0,0,1-2.5,4.29,17.25,17.25,0,0,0,.89,1.59c1.73,2.51,4,4.05,7.19,3.7a4.72,4.72,0,0,0,3.72-2.24,11,11,0,0,0,1.51-4.27,16,16,0,0,0-.17-5.77,10.15,10.15,0,0,0-1.28-3.33,5,5,0,0,0-2-2,1.36,1.36,0,0,0-1.39-.07,2.22,2.22,0,0,0-1.14,1.84M17.25,17A5.52,5.52,0,0,0,16.37,20a1.56,1.56,0,0,0,1.7,1.65,4.26,4.26,0,0,0,2.17-.78,2.14,2.14,0,0,1,.5-.3,5.48,5.48,0,0,1,4.26.14A4.61,4.61,0,0,1,27,22.42a3.87,3.87,0,0,1,4.92,0,9,9,0,0,0,1.55-3A7.08,7.08,0,0,0,32,12.28a4.84,4.84,0,0,0-4.39-1.61A13.81,13.81,0,0,0,22,12.57,12.59,12.59,0,0,0,17.25,17m10.93,11.8a3.85,3.85,0,0,1-2.46-4.27A9,9,0,0,0,20,25.61a6.64,6.64,0,0,0-3.4,5.14,4.7,4.7,0,0,0,1.15,3.48,13.82,13.82,0,0,0,4,3.6,12.74,12.74,0,0,0,6.34,2.11,5.85,5.85,0,0,0,3-.59,1.59,1.59,0,0,0,.54-2.64,4.92,4.92,0,0,0-1.45-1.16,4.73,4.73,0,0,1-2.12-2.28,4.66,4.66,0,0,1,0-4.44m1.21-1.28a2.26,2.26,0,0,0,2.3-2.25h0A2.29,2.29,0,0,0,29.45,23a2.28,2.28,0,0,0-.21,4.55h.15"/><path class="cls-1" d="M29.42,43.42A18.16,18.16,0,1,1,47.54,25.56,18.19,18.19,0,0,1,29.42,43.42M50.65,13.06a3.26,3.26,0,0,1,3.26-3.27h2.36c0-1.48,0-3,0-4.55A5.2,5.2,0,0,0,51.12,0H7.75A4.57,4.57,0,0,0,3.19,4.57V9.79H5.73a3.27,3.27,0,0,1,0,6.54H3.2V34.2H5.73a3.27,3.27,0,0,1,0,6.53H3.2v3.68A5.58,5.58,0,0,0,8.78,50c9.47,0,28.94-.06,41.93-.07a5.58,5.58,0,0,0,5.57-5.57h0V40.73H53.91a3.27,3.27,0,0,1,0-6.53h2.37V31.81c0-5.51,0-10.45,0-15.48H53.91a3.26,3.26,0,0,1-3.26-3.27"/><path class="cls-1" d="M5.26,15h-3a2,2,0,0,1-2-2h0a2,2,0,0,1,2-2h3a2,2,0,0,1,0,4h0m52,0h-3a2,2,0,0,1-2-2h0a2,2,0,0,1,2-2h3a2,2,0,0,1,0,4h0m-52,24.43h-3a2,2,0,0,1-2-2h0a2,2,0,0,1,2-2h3a2,2,0,0,1,0,4h0m52,0h-3a2,2,0,0,1-2-2h0a2,2,0,0,1,2-2h3a2,2,0,0,1,0,4h0"/></svg>