<svg width="512px" height="512px" viewBox="0 0 512 512" version="1.1" xmlns="http://www.w3.org/2000/svg" xmlns:xlink="http://www.w3.org/1999/xlink">
    <g id="Artboard" stroke="none" stroke-width="1" fill="none" fill-rule="evenodd">
        <g id="Group-75" transform="translate(21.000000, 70.000000)">
            <g id="Group-9" transform="translate(0.000000, 75.470875)">
                <line x1="0.877603424" y1="254.662604" x2="469.887612" y2="254.662604" id="Stroke-1" stroke="#7176C4" stroke-width="5.65931425" stroke-linecap="round" stroke-linejoin="round"></line>
                <line x1="307.544524" y1="292.211022" x2="369.004676" y2="292.211022" id="Stroke-3" stroke="#7176C4" stroke-width="5.65931425" stroke-linecap="round" stroke-linejoin="round"></line>
                <line x1="118.736784" y1="292.211022" x2="255.992132" y2="292.211022" id="Stroke-5" stroke="#7176C4" stroke-width="5.65931425" stroke-linecap="round" stroke-linejoin="round"></line>
                <polygon id="Fill-7" fill="#EDEDF9" points="362.401955 254.662604 122.797908 254.662604 134.699446 0.508460747 350.494757 0.508460747"></polygon>
                <polygon id="Fill-43" fill="#BCBCE2" points="255.992132 254.391068 140.48541 254.391068 140.48541 153.322027"></polygon>
            </g>
            <polyline id="Stroke-10" stroke="#7176C4" stroke-width="5.65931425" stroke-linecap="round" stroke-linejoin="round" points="362.401955 330.133479 103.018605 330.133479 115.904863 57.2922803 349.515696 57.2922803 353.850731 149.171247"></polyline>
            <g id="Group-74" transform="translate(33.955885, 0.722382)">
                <path d="M152.7204,75.2558221 L152.7204,46.8121087 C152.7204,21.0339323 174.876615,0.139744113 202.211103,0.139744113 C229.539932,0.139744113 251.696147,21.0339323 251.696147,46.8121087 L251.696147,75.2558221" id="Stroke-11" stroke="#7176C4" stroke-width="5.65931425" stroke-linecap="round" stroke-linejoin="round"></path>
                <line x1="251.697279" y1="95.4284477" x2="251.697279" y2="99.5597471" id="Stroke-13" stroke="#7176C4" stroke-width="5.65931425" stroke-linecap="round" stroke-linejoin="round"></line>
                <line x1="152.7204" y1="99.5620108" x2="152.7204" y2="95.4307114" id="Stroke-15" stroke="#7176C4" stroke-width="5.65931425" stroke-linecap="round" stroke-linejoin="round"></line>
                <path d="M134.639457,57.0232094 L134.639457,46.8081472 C134.639457,21.0356301 156.795672,0.135782593 184.13016,0.135782593 C211.458989,0.135782593 233.615204,21.0356301 233.615204,46.8081472 L233.615204,57.0232094" id="Stroke-17" stroke="#7176C4" stroke-width="5.65931425" stroke-linecap="round" stroke-linejoin="round"></path>
                <circle id="Oval" fill="#DBDBF3" cx="204.258077" cy="170.588668" r="54.6457724"></circle>
                <polygon id="Stroke-19" stroke="#7176C4" stroke-width="5.65931425" stroke-linecap="round" stroke-linejoin="round" points="236.847238 257.338033 351.210661 257.338033 369.654366 172.408704 218.403533 172.408704"></polygon>
                <polyline id="Stroke-21" stroke="#7176C4" stroke-width="5.65931425" stroke-linecap="round" stroke-linejoin="round" points="371.637389 163.212884 412.673077 163.439257 412.673077 152.137606 374.048257 152.137606 345.480039 283.665728 244.21227 283.665728"></polyline>
                <line x1="252.476566" y1="182.230444" x2="255.260949" y2="245.326138" id="Stroke-23" stroke="#7176C4" stroke-width="5.65931425" stroke-linecap="round" stroke-linejoin="round"></line>
                <line x1="334.49248" y1="182.230444" x2="331.708098" y2="245.326138" id="Stroke-25" stroke="#7176C4" stroke-width="5.65931425" stroke-linecap="round" stroke-linejoin="round"></line>
                <line x1="236.47146" y1="198.213479" x2="346.369683" y2="198.213479" id="Stroke-27" stroke="#7176C4" stroke-width="5.65931425" stroke-linecap="round" stroke-linejoin="round"></line>
                <line x1="244.214534" y1="231.158045" x2="341.633969" y2="231.158045" id="Stroke-29" stroke="#7176C4" stroke-width="5.65931425" stroke-linecap="round" stroke-linejoin="round"></line>
                <path d="M348.049368,313.16264 C348.049368,319.02569 343.295544,323.779514 337.432494,323.779514 C331.569445,323.779514 326.815621,319.02569 326.815621,313.16264 C326.815621,307.299591 331.569445,302.545767 337.432494,302.545767 C343.295544,302.545767 348.049368,307.299591 348.049368,313.16264" id="Fill-31" fill="#BCBCE2"></path>
                <path d="M351.238391,312.228853 C351.238391,320.366947 344.639631,326.965708 336.501537,326.965708 C328.357784,326.965708 321.759023,320.366947 321.759023,312.228853 C321.759023,304.09076 328.357784,297.491999 336.501537,297.491999 C344.639631,297.491999 351.238391,304.09076 351.238391,312.228853 Z" id="Stroke-33" stroke="#7176C4" stroke-width="5.65931425" stroke-linecap="round" stroke-linejoin="round"></path>
                <path d="M338.980317,312.228853 C338.980317,313.598407 337.871091,314.707633 336.501537,314.707633 C335.126324,314.707633 334.017098,313.598407 334.017098,312.228853 C334.017098,310.859299 335.126324,309.750074 336.501537,309.750074 C337.871091,309.750074 338.980317,310.859299 338.980317,312.228853 Z" id="Stroke-35" stroke="#7176C4" stroke-width="5.65931425" stroke-linecap="round" stroke-linejoin="round"></path>
                <path d="M280.137597,313.16264 C280.137597,319.02569 275.383773,323.779514 269.520723,323.779514 C263.657674,323.779514 258.90385,319.02569 258.90385,313.16264 C258.90385,307.299591 263.657674,302.545767 269.520723,302.545767 C275.383773,302.545767 280.137597,307.299591 280.137597,313.16264" id="Fill-37" fill="#BCBCE2"></path>
                <path d="M283.32662,312.228853 C283.32662,320.366947 276.72786,326.965708 268.589766,326.965708 C260.446013,326.965708 253.847252,320.366947 253.847252,312.228853 C253.847252,304.09076 260.446013,297.491999 268.589766,297.491999 C276.72786,297.491999 283.32662,304.09076 283.32662,312.228853 Z" id="Stroke-39" stroke="#7176C4" stroke-width="5.65931425" stroke-linecap="round" stroke-linejoin="round"></path>
                <path d="M271.068546,312.228853 C271.068546,313.598407 269.95932,314.707633 268.589766,314.707633 C267.214553,314.707633 266.105327,313.598407 266.105327,312.228853 C266.105327,310.859299 267.214553,309.750074 268.589766,309.750074 C269.95932,309.750074 271.068546,310.859299 271.068546,312.228853 Z" id="Stroke-41" stroke="#7176C4" stroke-width="5.65931425" stroke-linecap="round" stroke-linejoin="round"></path>
                <polygon id="Fill-45" fill="#FFFFFF" points="0.753664442 253.69966 104.636037 253.69966 104.636037 229.279719 0.753664442 229.279719"></polygon>
                <polygon id="Stroke-47" stroke="#7176C4" stroke-width="5.65931425" stroke-linecap="round" stroke-linejoin="round" points="0.753664442 253.69966 104.636037 253.69966 104.636037 229.279719 0.753664442 229.279719"></polygon>
                <polygon id="Fill-48" fill="#DBDBF3" points="5.10001778 250.898299 101.6366 250.898299 101.6366 234.310849 5.10001778 234.310849"></polygon>
                <polygon id="Fill-49" fill="#FFFFFF" points="11.2913076 250.898299 19.6953892 250.898299 19.6953892 232.086738 11.2913076 232.086738"></polygon>
                <polygon id="Fill-50" fill="#FFFFFF" points="24.9245956 250.898299 33.3286772 250.898299 33.3286772 232.086738 24.9245956 232.086738"></polygon>
                <polygon id="Fill-51" fill="#BCBCE2" points="88.2636406 250.898299 101.6366 250.898299 101.6366 234.310849 88.2636406 234.310849"></polygon>
                <polygon id="Fill-52" fill="#FFFFFF" points="17.7316072 278.12526 121.613979 278.12526 121.613979 253.705319 17.7316072 253.705319"></polygon>
                <polygon id="Stroke-53" stroke="#7176C4" stroke-width="5.65931425" stroke-linecap="round" stroke-linejoin="round" points="17.7316072 278.12526 121.613979 278.12526 121.613979 253.705319 17.7316072 253.705319"></polygon>
                <polygon id="Fill-54" fill="#DBDBF3" points="22.0779605 275.329559 118.614543 275.329559 118.614543 258.736449 22.0779605 258.736449"></polygon>
                <polygon id="Fill-55" fill="#FFFFFF" points="28.2692503 275.329559 36.673332 275.329559 36.673332 256.512339 28.2692503 256.512339"></polygon>
                <polygon id="Fill-56" fill="#FFFFFF" points="41.9025383 275.329559 50.30662 275.329559 50.30662 256.512339 41.9025383 256.512339"></polygon>
                <polygon id="Fill-57" fill="#BCBCE2" points="105.241583 275.329559 118.614543 275.329559 118.614543 258.736449 105.241583 258.736449"></polygon>
                <polygon id="Fill-58" fill="#FFFFFF" points="1.42712284 302.545201 105.309495 302.545201 105.309495 278.12526 1.42712284 278.12526"></polygon>
                <polygon id="Stroke-59" stroke="#7176C4" stroke-width="5.65931425" stroke-linecap="round" stroke-linejoin="round" points="1.42712284 302.545201 105.309495 302.545201 105.309495 278.12526 1.42712284 278.12526"></polygon>
                <polygon id="Fill-60" fill="#DBDBF3" points="5.77347618 299.7495 102.310059 299.7495 102.310059 283.15639 5.77347618 283.15639"></polygon>
                <polygon id="Fill-61" fill="#FFFFFF" points="11.9591066 299.7495 20.3631883 299.7495 20.3631883 280.93228 11.9591066 280.93228"></polygon>
                <polygon id="Fill-62" fill="#FFFFFF" points="25.5923947 299.7495 34.0021356 299.7495 34.0021356 280.93228 25.5923947 280.93228"></polygon>
                <polygon id="Fill-63" fill="#BCBCE2" points="88.937099 299.7495 102.310059 299.7495 102.310059 283.15639 88.937099 283.15639"></polygon>
                <polygon id="Fill-64" fill="#FFFFFF" points="20.3631883 327.383931 124.245561 327.383931 124.245561 302.96399 20.3631883 302.96399"></polygon>
                <polygon id="Stroke-65" stroke="#7176C4" stroke-width="5.65931425" stroke-linecap="round" stroke-linejoin="round" points="20.3631883 327.383931 124.245561 327.383931 124.245561 302.96399 20.3631883 302.96399"></polygon>
                <polygon id="Fill-66" fill="#DBDBF3" points="24.7095416 324.58823 121.246124 324.58823 121.246124 307.99512 24.7095416 307.99512"></polygon>
                <polygon id="Fill-67" fill="#FFFFFF" points="30.8951721 324.58823 39.2992538 324.58823 39.2992538 305.77101 30.8951721 305.77101"></polygon>
                <polygon id="Fill-68" fill="#FFFFFF" points="44.5284601 324.58823 52.9382011 324.58823 52.9382011 305.77101 44.5284601 305.77101"></polygon>
                <polygon id="Fill-69" fill="#BCBCE2" points="107.873164 324.58823 121.246124 324.58823 121.246124 307.99512 107.873164 307.99512"></polygon>
                <path d="M407.963962,32.003947 C407.963962,41.5398915 400.238998,49.2648555 390.703053,49.2648555 C381.178427,49.2648555 373.442145,41.5398915 373.442145,32.003947 C373.442145,22.4680025 381.178427,14.7430386 390.703053,14.7430386 C400.238998,14.7430386 407.963962,22.4680025 407.963962,32.003947" id="Fill-70" fill-opacity="0.5" fill="#DBDBF3"></path>
                <path d="M41.6891822,136.286999 C41.6891822,141.799171 37.2183239,146.270029 31.7061518,146.270029 C26.1996391,146.270029 21.7287808,141.799171 21.7287808,136.286999 C21.7287808,130.774827 26.1996391,126.303968 31.7061518,126.303968 C37.2183239,126.303968 41.6891822,130.774827 41.6891822,136.286999" id="Fill-71" fill-opacity="0.5" fill="#DBDBF3"></path>
                <path d="M402.304647,299.7495 C402.304647,305.261672 397.839448,309.726871 392.321617,309.726871 C386.815104,309.726871 382.349905,305.261672 382.349905,299.7495 C382.349905,294.231668 386.815104,289.766469 392.321617,289.766469 C397.839448,289.766469 402.304647,294.231668 402.304647,299.7495" id="Fill-72" fill="#DBDBF3"></path>
                <polygon id="Fill-73" fill="#DBDBF3" points="19.0711669 51.1980772 0.802900476 32.9241515 19.0711669 14.6558852 37.3450926 32.9241515"></polygon>
            </g>
        </g>
    </g>
</svg>
