<?xml version="1.0" encoding="UTF-8"?>
<svg width="16px" height="16px" viewBox="0 0 16 16" version="1.1" xmlns="http://www.w3.org/2000/svg" xmlns:xlink="http://www.w3.org/1999/xlink">
    <!-- Generator: Sketch 52.5 (67469) - http://www.bohemiancoding.com/sketch -->
    <title>dashboard</title>
    <desc>Created with Sketch.</desc>
    <g id="Page-1" stroke="none" stroke-width="1" fill="none" fill-rule="evenodd">
        <g id="dashboard" fill="#000000" fill-rule="nonzero">
            <path d="M7.0625,11 L0.625,11 C0.2798125,11 0,11.2798125 0,11.625 L0,15.375 C0,15.7201875 0.2798125,16 0.625,16 L7.0625,16 C7.4076875,16 7.6875,15.7201875 7.6875,15.375 L7.6875,11.625 C7.6875,11.2798125 7.4076875,11 7.0625,11 Z M6.4375,14.75 L1.25,14.75 L1.25,12.25 L6.4375,12.25 L6.4375,14.75 Z" id="Shape"></path>
            <path d="M7.0625,0 L0.625,0 C0.2798125,0 0,0.2798125 0,0.625 L0,9.75 C0,10.0951875 0.2798125,10.375 0.625,10.375 L7.0625,10.375 C7.4076875,10.375 7.6875,10.0951875 7.6875,9.75 L7.6875,0.625 C7.6875,0.2798125 7.4076875,0 7.0625,0 Z M6.4375,9.125 L1.25,9.125 L1.25,1.25 L6.4375,1.25 L6.4375,9.125 Z" id="Shape"></path>
            <path d="M15.375,0 L8.9375,0 C8.5923125,0 8.3125,0.2798125 8.3125,0.625 L8.3125,4.375 C8.3125,4.7201875 8.5923125,5 8.9375,5 L15.375,5 C15.7201875,5 16,4.7201875 16,4.375 L16,0.625 C16,0.2798125 15.7201875,0 15.375,0 Z M14.75,3.75 L9.5625,3.75 L9.5625,1.25 L14.75,1.25 L14.75,3.75 Z" id="Shape"></path>
            <path d="M15.375,5.625 L8.9375,5.625 C8.5923125,5.625 8.3125,5.9048125 8.3125,6.25 L8.3125,15.375 C8.3125,15.7201875 8.5923125,16 8.9375,16 L15.375,16 C15.7201875,16 16,15.7201875 16,15.375 L16,6.25 C16,5.9048125 15.7201875,5.625 15.375,5.625 Z M14.75,14.75 L9.5625,14.75 L9.5625,6.875 L14.75,6.875 L14.75,14.75 Z" id="Shape"></path>
        </g>
    </g>
</svg>