<?xml version="1.0" encoding="UTF-8"?>
<svg width="100px" height="100px" viewBox="0 0 100 100" version="1.1" xmlns="http://www.w3.org/2000/svg" xmlns:xlink="http://www.w3.org/1999/xlink">
    <!-- Generator: Sketch 52 (66869) - http://www.bohemiancoding.com/sketch -->
    <title>Cooling tower</title>
    <desc>Created with Sketch.</desc>
    <defs>
        <linearGradient x1="50%" y1="6.46622263%" x2="50%" y2="64.5249645%" id="linearGradient-1">
            <stop stop-color="#99ACB9" offset="0%"></stop>
            <stop stop-color="#B3C1CB" offset="27.9376385%"></stop>
            <stop stop-color="#DBE1E6" offset="100%"></stop>
        </linearGradient>
        <linearGradient x1="87.463788%" y1="16.0727894%" x2="23.4200858%" y2="89.0030632%" id="linearGradient-2">
            <stop stop-color="#99ACB9" offset="0%"></stop>
            <stop stop-color="#DBE1E6" offset="100%"></stop>
        </linearGradient>
        <linearGradient x1="50%" y1="0%" x2="50%" y2="100%" id="linearGradient-3">
            <stop stop-color="#F7FFFC" offset="0%"></stop>
            <stop stop-color="#818783" offset="100%"></stop>
        </linearGradient>
    </defs>
    <g id="Chillers" stroke="none" stroke-width="1" fill="none" fill-rule="evenodd">
        <g id="Desktop-HD-Copy-5" transform="translate(-426.000000, -107.000000)" stroke="#474747">
            <g id="Cooling-tower" transform="translate(426.000000, 107.000000)">
                <path d="M48.5663229,89.9751023 L24.3337401,66.6963207 L2.17359617,66.6963207 L2.17359617,75.6081971 L24.7186931,97.8206515 L24.7186931,89.9751023 L48.5663229,89.9751023 Z" id="Path-30" fill="url(#linearGradient-1)"></path>
                <path d="M4.78416841,8.13840464 L25.9067098,27.4778137 L95.7014044,29.2153802 L71.1691577,8.13840464 L4.78416841,8.13840464 Z" id="Path-27" fill="url(#linearGradient-1)"></path>
                <path d="M32.4533652,65.5653371 L24.8424454,65.5653371 L24.8424454,67.0806856 L45.8611511,87.5238422 L53.3015774,86.7711412 L32.4533652,65.5653371 Z" id="Path-28-Copy-5" fill="url(#linearGradient-1)"></path>
                <path d="M28.6072113,56.9114909 L20.9962916,56.9114909 L20.9962916,58.4268394 L42.0149972,78.869996 L49.4554235,78.1172951 L28.6072113,56.9114909 Z" id="Path-28-Copy-4" fill="url(#linearGradient-1)"></path>
                <path d="M23.799519,47.2961063 L16.1885993,47.2961063 L16.1885993,48.8114548 L37.2073049,69.2546114 L44.6477312,68.5019104 L23.799519,47.2961063 Z" id="Path-28-Copy-3" fill="url(#linearGradient-1)"></path>
                <path d="M18.9918267,37.6807217 L11.380907,37.6807217 L11.380907,39.1960702 L32.3996126,59.6392268 L39.8400389,58.8865258 L18.9918267,37.6807217 Z" id="Path-28-Copy-2" fill="url(#linearGradient-1)"></path>
                <path d="M14.1841344,28.0653371 L6.57321465,28.0653371 L6.57321465,29.5806856 L27.5919203,50.0238422 L35.0323466,49.2711412 L14.1841344,28.0653371 Z" id="Path-28-Copy" fill="url(#linearGradient-1)"></path>
                <path d="M8.41490365,18.4499524 L0.803983878,18.4499524 L0.803983878,19.965301 L21.8226895,40.4084575 L29.2631158,39.6557566 L8.41490365,18.4499524 Z" id="Path-28" fill="url(#linearGradient-1)"></path>
                <path d="M97.0997501,41.369181 L97.0997501,43.5555442 L99.1474738,43.5555442 L99.1474738,42.7914133 L97.0997501,41.369181 Z" id="Path-29" fill="url(#linearGradient-2)"></path>
                <path d="M92.2920578,50.9845656 L92.2920578,53.1709288 L94.3397815,53.1709288 L94.3397815,52.4067979 L92.2920578,50.9845656 Z" id="Path-29-Copy" fill="url(#linearGradient-2)"></path>
                <path d="M87.4843655,59.6384118 L87.4843655,61.8247749 L89.5320892,61.8247749 L89.5320892,61.060644 L87.4843655,59.6384118 Z" id="Path-29-Copy-2" fill="url(#linearGradient-2)"></path>
                <path d="M81.6766732,69.2537964 L81.6766732,71.4401596 L83.7243968,71.4401596 L83.7243968,70.6760287 L81.6766732,69.2537964 Z" id="Path-29-Copy-3" fill="url(#linearGradient-2)"></path>
                <path d="M76.8689809,77.9076425 L76.8689809,80.0940057 L78.9167045,80.0940057 L78.9167045,79.3298748 L76.8689809,77.9076425 Z" id="Path-29-Copy-4" fill="url(#linearGradient-3)"></path>
                <path d="M73.022827,85.5999502 L73.022827,87.7863134 L75.0705507,87.7863134 L75.0705507,87.0221825 L73.022827,85.5999502 Z" id="Path-29-Copy-5" fill="url(#linearGradient-3)"></path>
                <path d="M94.7332105,89.6432342 L78.2196583,72.1703199 L68.2509171,92.5939816 L94.7332105,89.6432342 Z" id="Path-31" fill="url(#linearGradient-1)"></path>
                <path d="M4.01095251,8.68178379 L4.01095251,15.6831229 L25.5379312,34.5827397 L48.8512156,90.1595479 L25.6214385,90.307316 L25.6214385,98.7538885 L95.4902982,98.7538885 L95.4902982,90.3075523 L70.2927473,90.1592489 L96.7039678,44.1992414 L96.7039678,30.1933892 L25.4683741,28.306044 L4.01095251,8.68178379 Z" id="Path-26" fill="url(#linearGradient-1)"></path>
                <path d="M27.4760458,8.08567585 L27.493228,8.21562563 L27.493228,15.8228359 L27.4760458,15.9527857 C27.4406698,16.0842224 27.4230769,16.2150777 27.4230769,16.3461538 C27.4230769,19.6201112 37.7719183,22.5769231 50.4807692,22.5769231 C63.1896201,22.5769231 73.5384615,19.6201112 73.5384615,16.3461538 C73.5384615,16.2193112 73.5219872,16.0926924 73.4888757,15.9655614 L73.4727336,15.8395396 L73.4727336,8.19892197 L73.4888757,8.07290011 C73.5219872,7.94576912 73.5384615,7.81915034 73.5384615,7.69230769 C73.5384615,4.41835029 63.1896201,1.46153846 50.4807692,1.46153846 C37.7719183,1.46153846 27.4230769,4.41835029 27.4230769,7.69230769 C27.4230769,7.82338387 27.4406698,7.95423909 27.4760458,8.08567585 Z" id="Combined-Shape-Copy" fill="url(#linearGradient-1)" transform="translate(50.480769, 12.019231) rotate(2.000000) translate(-50.480769, -12.019231) "></path>
                <path d="M27.5183675,7.77746356 C28.5055697,10.9582512 38.6455296,13.9232215 50.4844347,13.9232215 C62.5493676,13.9232215 72.4873811,11.2584441 73.4634655,8.18731027 L27.5183675,7.77746356 Z" id="Oval" transform="translate(50.490884, 10.847751) rotate(1.000000) translate(-50.490884, -10.847751) "></path>
            </g>
        </g>
    </g>
</svg>