<svg viewBox="0 0 50 50" xmlns="http://www.w3.org/2000/svg">
  <path d="M4.50786 37.06173c2.48963 0 4.50786 2.0009 4.50786 4.46914C9.01572 43.9991 6.9975 46 4.50786 46 2.01824 46 0 43.9991 0 41.53087c0-2.46824 2.01824-4.46914 4.50786-4.46914zM50 39.37533v4.76707H13.8901v-4.76707H50zm-45.49214.66582c-.82987 0-1.50262.66697-1.50262 1.48972 0 .82274.67275 1.4897 1.50262 1.4897.82988 0 1.50262-.66696 1.50262-1.4897 0-.82275-.67274-1.48972-1.50262-1.48972zm0-19.58085c2.48963 0 4.50786 2.0009 4.50786 4.46914 0 2.46823-2.01823 4.46913-4.50786 4.46913C2.01824 29.39857 0 27.39767 0 24.92944c0-2.46824 2.01824-4.46914 4.50786-4.46914zM50 22.69056v4.76708H13.8901v-4.76708H50zm-45.49214.74916c-.82987 0-1.50262.66697-1.50262 1.48972 0 .82274.67275 1.4897 1.50262 1.4897.82988 0 1.50262-.66696 1.50262-1.4897 0-.82275-.67274-1.48972-1.50262-1.48972zM4.50786 4C6.9975 4 9.01572 6.0009 9.01572 8.46913c0 2.46824-2.01823 4.46914-4.50786 4.46914C2.01824 12.93827 0 10.93737 0 8.46913 0 6.0009 2.01824 4 4.50786 4zM50 6.0058v4.76707H13.8901V6.00579H50zm-45.49214.97362c-.82987 0-1.50262.66697-1.50262 1.48971 0 .82275.67275 1.48972 1.50262 1.48972.82988 0 1.50262-.66697 1.50262-1.48972 0-.82274-.67274-1.4897-1.50262-1.4897z" fill="#6B7E91" fill-rule="nonzero"/>
</svg>
