<?xml version="1.0" encoding="UTF-8"?><svg id="Layer_1" xmlns="http://www.w3.org/2000/svg" xmlns:xlink="http://www.w3.org/1999/xlink" viewBox="0 0 24 24"><defs><style>.cls-1,.cls-2{fill:none;}.cls-3{clip-path:url(#clippath);}.cls-4{fill:#fff;}.cls-5{fill:#5b74ff;}.cls-6{clip-path:url(#clippath-1);}.cls-7{clip-path:url(#clippath-4);}.cls-8{clip-path:url(#clippath-3);}.cls-9{clip-path:url(#clippath-2);}.cls-10{clip-path:url(#clippath-7);}.cls-11{clip-path:url(#clippath-6);}.cls-12{clip-path:url(#clippath-5);}.cls-2{stroke:#5b74ff;stroke-miterlimit:10;}</style><clipPath id="clippath"><rect class="cls-1" x="2" y="2" width="18" height="6" rx="1" ry="1"/></clipPath><clipPath id="clippath-1"><rect class="cls-1" x="4" y="9" width="18" height="6" rx="1" ry="1"/></clipPath><clipPath id="clippath-2"><rect class="cls-1" x="2" y="16" width="17" height="6" rx="1" ry="1"/></clipPath><clipPath id="clippath-3"><circle class="cls-1" cx="5" cy="5" r="1"/></clipPath><clipPath id="clippath-4"><circle class="cls-1" cx="16" cy="19" r="1"/></clipPath><clipPath id="clippath-5"><circle class="cls-1" cx="20" cy="12" r="1"/></clipPath><clipPath id="clippath-6"><rect class="cls-1" x="7" y="4" width="11" height="2"/></clipPath><clipPath id="clippath-7"><rect class="cls-1" x="4" y="18" width="10" height="2"/></clipPath></defs><g class="cls-3"><polygon class="cls-4" points="2 2 20 2 20 8 2 8 2 2"/></g><g class="cls-6"><polygon class="cls-4" points="4 9 22 9 22 15 4 15 4 9"/></g><g class="cls-9"><polygon class="cls-4" points="2 16 19 16 19 22 2 22 2 16"/></g><g class="cls-8"><polygon class="cls-5" points="4 4 6 4 6 6 4 6 4 4"/></g><g class="cls-7"><polygon class="cls-5" points="15 18 17 18 17 20 15 20 15 18"/></g><g class="cls-12"><polygon class="cls-5" points="19 11 21 11 21 13 19 13 19 11"/></g><g class="cls-11"><polygon class="cls-5" points="7 4 18 4 18 6 7 6 7 4"/></g><g class="cls-10"><polygon class="cls-5" points="4 18 14 18 14 20 4 20 4 18"/></g><path class="cls-2" d="M6,13c3.64-3.54,8.66,2.94,12-2"/></svg>