<svg viewBox="0 0 18 18" xmlns="http://www.w3.org/2000/svg">
  <path d="M17.986 6.384a.266.266 0 00-.016-.091.46.46 0 00-.182-.256l-2.576-1.791v-1.92a.461.461 0 00-.461-.461h-2.965L9.264.11a.46.46 0 00-.525 0L6.201 1.864H3.249a.461.461 0 00-.46.46v1.898l-2.59 1.79a.46.46 0 00-.198.372L0 6.393l.014 9.993a.461.461 0 00.46.46h.001l17.065-.023c.254 0 .46-.207.46-.462l-.014-9.977zM15.212 5.37l1.473 1.023-1.473 1.024V5.37zM9 1.05l1.17.814H7.824L9 1.05zM3.71 2.787H14.29v5.27l-3.552 2.47L9.29 9.403 9.283 9.4a.46.46 0 00-.559.004l-1.458 1.132L3.71 8.078V2.787zm-.923 2.557V7.44L1.272 6.392l1.516-1.048zM.923 7.273l5.578 3.855-5.567 4.318-.01-8.173zm.9 8.65l7.184-5.572 7.157 5.552-14.34.02zm9.678-4.804l5.565-3.869.01 8.194-5.575-4.325z" fill="#324056" fill-rule="nonzero"/>
</svg>
