<?xml version="1.0" encoding="UTF-8"?>
<svg width="18px" height="24px" viewBox="0 0 18 24" version="1.1" xmlns="http://www.w3.org/2000/svg" xmlns:xlink="http://www.w3.org/1999/xlink">
    <!-- Generator: Sketch 61.1 (89650) - https://sketch.com -->
    <title>606797</title>
    <desc>Created with Sketch.</desc>
    <g id="Page-1" stroke="none" stroke-width="1" fill="none" fill-rule="evenodd">
        <g id="Supplier_Summary1.1" transform="translate(-897.000000, -244.000000)" fill="#31BFCE" fill-rule="nonzero">
            <g id="606797" transform="translate(897.000000, 244.000000)">
                <path d="M10.8554847,2.64122034 C10.3022644,1.82766102 9.81412881,1.07918644 9.35853559,0.39579661 C9.29345085,0.298169492 9.19582373,0.200542373 9.09819661,0.135457627 C8.70768814,-0.124881356 8.18701017,0.00528813559 7.92667119,0.39579661 C7.50362034,1.07918644 7.01548475,1.79511864 6.42972203,2.64122034 C3.85887458,6.41613559 0.0188745763,12.1110508 0.0188745763,15.3652881 C0.0188745763,17.7408814 0.995145763,19.888678 2.55717966,21.4507119 C4.11921356,22.9802034 6.26701017,23.9564746 8.64260339,23.9564746 C11.0181966,23.9564746 13.1659932,22.9802034 14.7280271,21.4181695 C16.290061,19.8561356 17.2663322,17.708339 17.2663322,15.3327458 C17.2663322,12.0785085 13.4263322,6.41613559 10.8554847,2.64122034 Z M13.5565017,20.2466441 C12.2873492,21.5157966 10.5626034,22.2642712 8.64260339,22.2642712 C6.72260339,22.2642712 4.99785763,21.4832542 3.72870508,20.2466441 C2.45955254,18.9774915 1.71107797,17.2527458 1.71107797,15.3327458 C1.71107797,12.5991864 5.3883661,7.16461017 7.82904407,3.55240678 C8.12192542,3.12935593 8.38226441,2.70630508 8.64260339,2.34833898 C8.90294237,2.70630508 9.16328136,3.12935593 9.45616271,3.55240678 C11.8968407,7.19715254 15.5741288,12.5991864 15.5741288,15.3327458 C15.5741288,17.2527458 14.7931119,18.9774915 13.5565017,20.2466441 Z" id="Shape"></path>
                <path d="M13.6866712,14.7469831 C13.231078,14.7144407 12.8405695,15.0724068 12.8080271,15.528 C12.7754847,16.2439322 12.5476881,16.927322 12.189722,17.5130847 C11.8317559,18.0988475 11.311078,18.6195254 10.6927729,18.9449492 C10.3022644,19.1727458 10.1395525,19.6934237 10.3673492,20.0839322 C10.6276881,20.5395254 11.1483661,20.6696949 11.5388746,20.4418983 C12.4175186,19.9537627 13.1334508,19.2378305 13.6215864,18.4242712 C14.1422644,17.6107119 14.4351458,16.6344407 14.4676881,15.6256271 C14.5002305,15.1700339 14.1422644,14.7795254 13.6866712,14.7469831 Z" id="Path"></path>
            </g>
        </g>
    </g>
</svg>