<svg id="Layer_1" data-name="Layer 1" xmlns="http://www.w3.org/2000/svg" viewBox="0 0 50 50"><g id="Budget"><path d="M13.18,0A13.19,13.19,0,1,0,26.37,13.18,13.19,13.19,0,0,0,13.18,0Zm1.47,20.24V22a1.47,1.47,0,1,1-2.93,0V20.22a4.3,4.3,0,0,1-2.05-1.47A1.46,1.46,0,1,1,12,17a1.47,1.47,0,1,0,1.17-2.34,4.38,4.38,0,0,1-1.46-8.52V4.39a1.47,1.47,0,0,1,2.93,0V6.14a4.39,4.39,0,0,1,2,1.48,1.46,1.46,0,0,1-2.34,1.76,1.52,1.52,0,0,0-2.64.87,1.47,1.47,0,0,0,1.46,1.47,4.38,4.38,0,0,1,1.47,8.52Z"/><path d="M48.54,5.86h-21a16.43,16.43,0,0,1,1.72,5.86H42.48A1.46,1.46,0,0,1,44,13.18V24.9a1.47,1.47,0,0,1-1.47,1.47H22.41a15.7,15.7,0,0,1-7.76,2.84V48.54A1.46,1.46,0,0,0,16.11,50H48.54A1.47,1.47,0,0,0,50,48.54V7.32A1.46,1.46,0,0,0,48.54,5.86ZM30.76,29.3h2.93a1.47,1.47,0,1,1,0,2.93H30.76a1.47,1.47,0,0,1,0-2.93Zm0,5.86h2.93a1.47,1.47,0,1,1,0,2.93H30.76a1.47,1.47,0,0,1,0-2.93ZM24.9,44H22A1.47,1.47,0,0,1,22,41H24.9a1.47,1.47,0,1,1,0,2.93Zm0-5.86H22a1.47,1.47,0,0,1,0-2.93H24.9a1.47,1.47,0,1,1,0,2.93Zm0-5.86H22a1.47,1.47,0,0,1,0-2.93H24.9a1.47,1.47,0,1,1,0,2.93ZM42.48,44H30.76a1.47,1.47,0,0,1,0-2.93H42.48a1.47,1.47,0,1,1,0,2.93Zm0-5.86H39.55a1.47,1.47,0,0,1,0-2.93h2.93a1.47,1.47,0,1,1,0,2.93Zm0-5.86H39.55a1.47,1.47,0,0,1,0-2.93h2.93a1.47,1.47,0,1,1,0,2.93Z"/><path d="M41,23.44V14.65H29.17a16,16,0,0,1-3.59,8.79Z"/></g></svg>