<?xml version="1.0" encoding="UTF-8"?>
<svg width="17px" height="16px" viewBox="0 0 17 16" version="1.1" xmlns="http://www.w3.org/2000/svg" xmlns:xlink="http://www.w3.org/1999/xlink">
    <!-- Generator: Sketch 51.2 (57519) - http://www.bohemiancoding.com/sketch -->
    <title>polaroid-photo-symbol</title>
    <desc>Created with Sketch.</desc>
    <defs></defs>
    <g id="Page-1" stroke="none" stroke-width="1" fill="none" fill-rule="evenodd" opacity="0.5">
        <g id="Approval-Task-Page-Copy-2" transform="translate(-1294.000000, -327.000000)" fill="#8CA1AD" fill-rule="nonzero">
            <g id="Group-18" transform="translate(521.000000, 146.000000)">
                <g id="Group-15-Copy" transform="translate(31.000000, 165.000000)">
                    <g id="Group-14">
                        <g id="polaroid-photo-symbol" transform="translate(742.000000, 16.000000)">
                            <path d="M15.8313075,0 L1.16967892,0 C0.534332689,0 0.019729207,0.5145706 0.019729207,1.14991683 L0.019729207,14.5356905 C0.019729207,15.1710368 0.534332689,15.6856731 1.16967892,15.6856731 L15.8313075,15.6856731 C16.4666209,15.6856731 16.9812573,15.1710696 16.9812573,14.5356905 L16.9812573,1.14991683 C16.9812244,0.5145706 16.4666209,0 15.8313075,0 Z M1.16967892,1.14991683 L15.8313075,1.14991683 L15.8313075,14.3741083 L1.16967892,14.3741083 L1.16967892,1.14991683 Z M15.2562998,13.310577 L1.74462089,13.310577 L1.74462089,9.62305668 C1.74462089,9.21949575 1.88637524,8.82846287 2.14479497,8.51828685 L5.49626112,4.49928299 C5.85559574,4.07954411 6.51395938,4.10542225 6.84169439,4.55103927 L10.6565667,9.71709923 L12.6172224,7.64724237 C12.959294,7.28787486 13.5285474,7.28787486 13.870619,7.64724237 L14.8486615,8.80376848 C15.1116847,9.11512825 15.2562669,9.50951509 15.2562669,9.91748221 L15.2562998,13.310577 Z M11.5190619,4.16848549 C11.5190619,3.29451451 12.2262553,2.58732108 13.1001934,2.58732108 C13.9741315,2.58732108 14.6813578,3.29451451 14.6813578,4.16848549 C14.6813578,5.0424236 13.9741315,5.74961702 13.1001934,5.74961702 C12.2262553,5.74961702 11.5190619,5.04245648 11.5190619,4.16848549 Z" id="Shape"></path>
                        </g>
                    </g>
                </g>
            </g>
        </g>
    </g>
</svg>