<svg xmlns="http://www.w3.org/2000/svg" width="1592" height="1036" viewBox="0 0 1592 1036">
  <g fill="none" fill-rule="evenodd">
    <rect width="1310.2" height="655.2" x="280.8" fill="#6A889F"/>
    <circle cx="1078.5" cy="145.5" r="110.5" fill="#436884" fill-rule="nonzero" transform="rotate(-17 1078.5 145.5)"/>
    <circle cx="1078.5" cy="145.5" r="95.5" fill="#1C3446" fill-rule="nonzero" transform="rotate(-17 1078.5 145.5)"/>
    <path fill="#6A889F" d="M1310.2,935.999918 L0,935.999918 L140.401989,795.599932 L140.399995,795.599923 L280.801984,655.199937 L935.999918,655.199937 L925.201,665.999937 L936.00196,655.199937 L1591,655.199937 L1450.6,795.599923 L1310.2,935.999918 Z" opacity=".9"/>
    <polygon fill="#436884" points="1591.371 .012 1573 0 1472.629 100.012 1491 100"/>
    <path stroke="#415F76" stroke-width="5.616" d="M141.565089,580.319952 L6.7791794,715.10394 L654.060735,715.10394 L788.821633,580.319952 L141.565089,580.319952 Z" opacity=".3"/>
    <path fill="#A8BECE" d="M140.399986,795.601633 L0,935.999918 L0,280.827484 L140.399986,140.399995 L140.399995,140.427489 L280.799981,0 L280.799981,655.201638 L140.399995,795.599923 L140.399986,795.601633 Z"/>
    <path fill="#6A889F" d="M181,755 L181,100 L831,100 L831,755 L181,755 Z"/>
    <path fill="#546F83" d="M795.599986,795.601633 L655.2,935.999918 L655.2,280.827484 L795.599986,140.399995 L795.599995,140.427489 L935.999981,0 L935.999981,655.201638 L795.599995,795.599923 L795.599986,795.601633 Z"/>
    <polygon fill="#436884" points="954.371 .012 936 0 835.629 100.012 854 100"/>
    <polygon fill="#415F76" points="845 91.163 844.429 424.451 785 486 785 150.976"/>
    <polygon fill="#244D6B" points="1492 99.163 1491.429 430.451 1432 492 1432 158.976"/>
    <polygon fill="#415F76" points="280.802 0 936 0 836.005 100.012 180.797 100.003"/>
    <path stroke="#436884" stroke-width="4" d="M936.630402,2 L840.625525,98.0035079 L1490.17633,98.0121919 L1586.17208,2 L936.630402,2 Z"/>
    <polygon fill="#436884" points="827 109 1482 109 1492 99.471 836.629 99"/>
    <path fill="#85A5BF" d="M432.700791,449.695802 L519.738618,364.866868 C531.838269,350.976165 546.432868,340.129208 563.522416,332.325994 C580.611965,324.522781 597.771159,320.414116 615,320 C623.957529,320.202352 631.4402,320.871429 637.448012,322.007229 C643.455824,323.14303 649.373153,324.650507 655.2,326.52966 L655.2,590.247779 C648.439089,598.804564 642.115463,606.100956 636.229124,612.136954 C630.342784,618.172953 621.401049,626.530041 609.403917,637.20822 L432.700791,449.695802 Z"/>
    <polygon fill="#436884" points="515.618 678 655.2 678 655.2 590.248 546.074 657.754"/>
    <polygon fill="#436884" points="515.618 420 655.2 420 655.2 589.663 655.2 612.382 599.774 647.712 550.195 444.662"/>
    <circle cx="515" cy="549" r="129" fill="#436884"/>
    <path fill="#A8BECE" d="M818.95,462.8 L818.95,632 L819,632 L819.021971,634.71204 C820.470221,724.035862 893.331048,796 983,796 C1073.5747,796 1147,722.574699 1147,632 C1147,627.448417 1146.81458,622.940141 1146.45088,618.482313 L1146.45,462.8 L1310.2,462.8 L1310.2,936 L655.2,936 L655.2,462.8 L818.95,462.8 Z"/>
    <path fill="#6A889F" d="M819,632 L819,632.001 L819.021971,634.71204 C820.455592,723.133602 891.866398,794.544408 980.28796,795.978029 L983,796 L906.999,872 L907,872 C907,962.574699 833.574699,1036 743,1036 C653.331048,1036 580.470221,964.035862 579.021971,874.71204 L579,872 L819,632 Z"/>
    <circle cx="983" cy="632" r="164" fill="#6487A3" opacity=".5"/>
    <path fill="#7893A8" d="M1147,632 C1147.34348,652.69348 1143.3355,673.26097 1134.97606,693.702468 C1125.58763,716.203263 1114.50727,731.581293 1100.51524,746.484202 C1049.18097,797.352409 972.296161,873.857648 869.860811,975.999918 L869.860811,975.999918 L869.90547,975.887461 C893.088074,947.601777 907,911.425541 907,872 Z"/>
    <path fill="#85A5BF" d="M627.199077,755.935803 C660.656108,723.978601 699.25594,708 742.998573,708 C788.978081,708.69023 827.355898,724.423543 858.132024,755.199937 C888.90815,785.976331 905.196525,824.909685 906.997147,872 L1147.02033,632 C1147.02033,586.958365 1131.26428,548.634441 1099.75219,517.028228 C1068.24009,485.422015 1029.32608,468.912606 983.010167,467.5 C938.363583,468.553988 899.949301,485.063397 867.767321,517.028228 C819.494352,564.975475 577.013532,803.871605 627.199077,755.935803 Z"/>
    <path fill="#66839A" d="M743,708 L579,872 L579.021971,869.28796 C580.470221,779.964138 653.331048,708 743,708 L743,708 Z"/>
    <path fill="#647F94" d="M1450.59999,795.601633 L1310.2,935.999918 L1310.2,280.827484 L1450.59999,140.399995 L1450.59999,140.427489 L1590.99998,-1.13686838e-13 L1590.99998,655.201638 L1450.59999,795.599923 L1450.59999,795.601633 Z"/>
  </g>
</svg>
