<?xml version="1.0" encoding="UTF-8"?>
<svg width="512px" height="512px" viewBox="0 0 512 512" version="1.1" xmlns="http://www.w3.org/2000/svg" xmlns:xlink="http://www.w3.org/1999/xlink">
    <!-- Generator: Sketch 61.1 (89650) - https://sketch.com -->
    <title>Documents-Icon</title>
    <desc>Created with Sketch.</desc>
    <g id="Documents-Icon" stroke="none" stroke-width="1" fill="none" fill-rule="evenodd">
        <g id="folder-(1)" transform="translate(6.000000, 19.888889)" fill="#324056" fill-rule="nonzero">
            <path d="M457.286432,1.02386935 C464.223618,1.02386935 469.849246,6.64824121 469.849246,13.5866834 L469.849246,13.5866834 L469.849246,77.2298995 C486.873116,79.6771357 500,94.3517588 500,112.041457 L500,112.041457 L500,413.548995 C500,432.944724 484.219849,448.724874 464.824121,448.724874 L464.824121,448.724874 L97.9899497,448.724874 C78.5942211,448.724874 62.8140704,432.944724 62.8140704,413.548995 L62.8140704,413.548995 L62.8140704,384.390704 L12.5628141,384.390704 C5.62562814,384.390704 0,378.766332 0,371.827889 L0,371.827889 L0,13.5866834 C0,6.64824121 5.62562814,1.02386935 12.5628141,1.02386935 L12.5628141,1.02386935 Z M464.824121,101.991206 L324.120603,101.991206 C318.579146,101.991206 314.070352,106.5 314.070352,112.041457 C314.070352,131.437186 298.290201,147.217337 278.894472,147.217337 L278.894472,147.217337 L97.9899497,147.217337 C92.4484925,147.217337 87.9396985,151.726131 87.9396985,157.267588 L87.9396985,157.267588 L87.9396985,413.548995 C87.9396985,419.090452 92.4484925,423.599246 97.9899497,423.599246 L97.9899497,423.599246 L464.824121,423.599246 C470.365578,423.599246 474.874372,419.090452 474.874372,413.548995 L474.874372,413.548995 L474.874372,112.041457 C474.874372,106.5 470.365578,101.991206 464.824121,101.991206 L464.824121,101.991206 Z M444.723618,26.1494975 L25.1256281,26.1494975 L25.1256281,359.265075 L62.8140704,359.265075 L62.8140704,157.267588 C62.8140704,137.871859 78.5942211,122.091709 97.9899497,122.091709 L97.9899497,122.091709 L278.894472,122.091709 C284.43593,122.091709 288.944724,117.582915 288.944724,112.041457 C288.944724,92.6457286 304.724874,76.8655779 324.120603,76.8655779 L324.120603,76.8655779 L444.723618,76.8655779 L444.723618,26.1494975 Z M248.743719,227.619347 C255.680905,227.619347 261.306533,233.243719 261.306533,240.182161 C261.306533,247.120603 255.680905,252.744975 248.743719,252.744975 L248.743719,252.744975 L133.165829,252.744975 C126.228643,252.744975 120.603015,247.120603 120.603015,240.182161 C120.603015,233.243719 126.228643,227.619347 133.165829,227.619347 L133.165829,227.619347 Z M248.743719,184.905779 C255.680905,184.905779 261.306533,190.530151 261.306533,197.468593 C261.306533,204.407035 255.680905,210.031407 248.743719,210.031407 L248.743719,210.031407 L133.165829,210.031407 C126.228643,210.031407 120.603015,204.407035 120.603015,197.468593 C120.603015,190.530151 126.228643,184.905779 133.165829,184.905779 L133.165829,184.905779 Z" id="Combined-Shape"></path>
        </g>
    </g>
</svg>