<?xml version="1.0" encoding="UTF-8"?>
<svg width="220px" height="110px" viewBox="0 0 220 110" version="1.1" xmlns="http://www.w3.org/2000/svg" xmlns:xlink="http://www.w3.org/1999/xlink">
    <!-- Generator: Sketch 52 (66869) - http://www.bohemiancoding.com/sketch -->
    <title>chiller</title>
    <desc>Created with Sketch.</desc>
    <defs>
        <linearGradient x1="50%" y1="6.46622263%" x2="50%" y2="64.5249645%" id="linearGradient-1">
            <stop stop-color="#99ACB9" offset="0%"></stop>
            <stop stop-color="#B3C1CB" offset="27.9376385%"></stop>
            <stop stop-color="#DBE1E6" offset="100%"></stop>
        </linearGradient>
        <linearGradient x1="87.463788%" y1="16.0727894%" x2="23.4200858%" y2="89.0030632%" id="linearGradient-2">
            <stop stop-color="#99ACB9" offset="0%"></stop>
            <stop stop-color="#DBE1E6" offset="100%"></stop>
        </linearGradient>
        <linearGradient x1="89.1414265%" y1="53.6628512%" x2="0%" y2="52.0957446%" id="linearGradient-3">
            <stop stop-color="#6D7D88" offset="0%"></stop>
            <stop stop-color="#B3C1CB" offset="58.5423968%"></stop>
            <stop stop-color="#DBE1E6" offset="100%"></stop>
        </linearGradient>
    </defs>
    <g id="Chillers" stroke="none" stroke-width="1" fill="none" fill-rule="evenodd">
        <g id="Desktop-HD-Copy-5" transform="translate(-144.000000, -97.000000)">
            <g id="chiller" transform="translate(144.000000, 97.000000)">
                <g id="Group-2">
                    <path d="M115.049017,85.560445 L117.494788,90.4925446 L168.244727,89.6229402 L168.434439,84.2651747 L115.049017,85.560445 Z" id="Path-20" stroke="#474747" fill="url(#linearGradient-1)"></path>
                    <path d="M209.5,78.5 L209.5,92.5 L219.5,92.5 L219.5,78.5 L209.5,78.5 Z" id="Path-22-Copy" stroke="#474747" fill="url(#linearGradient-1)"></path>
                    <path d="M209.5,57.5 L209.5,71.5 L219.5,71.5 L219.5,57.5 L209.5,57.5 Z" id="Path-22-Copy-2" stroke="#474747" fill="url(#linearGradient-1)"></path>
                    <path d="M178.886073,25.601926 L180.580388,85.3887414 L205.852644,108.897542 L217.500904,108.897542 L212.390561,101.281941 L211.448232,49.3903688 C211.426516,48.1945503 210.929651,47.0565693 210.067373,46.2277573 L179.732562,17.0702876 C179.639426,16.9807665 179.515256,16.9307672 179.386073,16.9307672 C179.10993,16.9307672 178.886073,17.1546248 178.886073,17.4307672 L178.886073,25.601926 Z" id="Path-21" stroke="#474747" fill="url(#linearGradient-1)"></path>
                    <path d="M165.165349,25.4681443 L165.165349,39.6445009 L188.881253,39.6445009 C187.549795,35.5619819 186.095906,32.5460397 184.530892,30.6017512 C182.909621,28.5875713 180.4838,26.8743357 177.246974,25.4681443 L165.165349,25.4681443 Z" id="Path-17" stroke="#474747" fill="url(#linearGradient-2)"></path>
                    <path d="M167.371874,39.6745081 L78.2241506,41.4232403 L32.8355884,42.9384945 L38.5085933,49.1347066 L40.1394382,88.0148442 L203.269284,84.6286293 C205.102971,80.5367467 206.215501,77.5262676 206.604791,75.6158206 C207.59579,70.7524834 207.778425,65.6475925 207.248713,61.9973348 C206.516363,56.9506858 205.347883,52.5344349 203.147678,48.0922406 C202.205059,46.1891013 200.05512,43.3754579 196.706383,39.6745081 L167.371874,39.6745081 Z" id="Path-18" stroke="#474747" fill="url(#linearGradient-1)"></path>
                    <path d="M39.1290244,28.2428382 L50.2900378,28.2428382 C50.5462132,24.6649117 53.5300362,21.84181 57.17323,21.84181 L80.0803164,21.84181 L80.0803164,12.3346672 L51.6290244,12.3346672 C44.725465,12.3346672 39.1290244,17.9311078 39.1290244,24.8346672 L39.1290244,28.2428382 Z" id="Path-15" stroke="#474747" fill="url(#linearGradient-1)"></path>
                    <path d="M155.109897,12.0059606 L155.109897,42.7127501 L166.904184,42.7127501 L166.904184,18.0586841 L160.02531,12.0059606 L155.109897,12.0059606 Z" id="Path-16" stroke="#474747" fill="url(#linearGradient-2)"></path>
                    <ellipse id="Oval" fill="#C5D0E2" transform="translate(21.887665, 63.885761) rotate(-7.000000) translate(-21.887665, -63.885761) " cx="21.8876645" cy="63.8857614" rx="8.06666667" ry="22"></ellipse>
                    <path d="M18.2513366,27.2786982 L33.2455597,42.6788581 L78.4445409,41.2651287 L87.8003704,49.6653226 L155.700586,48.2434373 L155.700586,9.55014697 L147.923302,0.504414205 L78.7597235,1.82893097 L78.7597235,27.2786982 L18.2513366,27.2786982 Z" id="Path-12" stroke="#474747" fill="url(#linearGradient-1)"></path>
                    <path d="M78.9926301,26.9980503 L79.0301087,41.4826328" id="Path-13" stroke="#474747"></path>
                    <polyline id="Path-14" stroke="#474747" points="113.894531 1.1902374 119.591263 9.83612118 119.591263 48.539587"></polyline>
                    <path d="M49.967328,87.7615988 L52.1784283,91.3952831 L104.603795,90.5971294 L104.603795,86.7974307 L49.967328,87.7615988 Z" id="Path-19" stroke="#474747" fill="url(#linearGradient-1)"></path>
                    <path d="M12.8153966,30.5 L0.5,30.5 L0.5,44.5 L13.4758561,44.5 L12.8153966,30.5 Z" id="Path-23" stroke="#474747" fill="url(#linearGradient-1)"></path>
                    <path d="M12.8153966,55.5 L0.5,55.5 L0.5,69.5 L13.4758561,69.5 L12.8153966,55.5 Z" id="Path-23-Copy-5" stroke="#474747" fill="url(#linearGradient-1)"></path>
                    <path d="M6.11516921,80.3126608 L36.1081537,108.92475 L48.4690001,108.92475 L42.8452029,103.137991 L42.8452029,48.4671336 C42.8452029,47.0968016 42.2208046,45.8011402 41.1489645,44.9473437 L10.2474461,20.3320988 C10.1589222,20.2615833 10.0490936,20.2231866 9.93591703,20.2231866 C9.65977466,20.2231866 9.43591703,20.4470442 9.43591703,20.7231866 L9.43591703,80.3126608 L6.11516921,80.3126608 Z" id="Path-11" stroke="#474747" fill="url(#linearGradient-1)"></path>
                    <ellipse id="Oval-Copy-3" stroke="#474747" fill="url(#linearGradient-3)" transform="translate(25.820998, 63.885761) rotate(-7.000000) translate(-25.820998, -63.885761) " cx="25.8209978" cy="63.8857614" rx="7.56666667" ry="21.5"></ellipse>
                </g>
                <path d="M120.901618,48.0068252 C123.557182,52.6761074 125.073123,56.9155719 125.568781,60.7148849 C126.018898,64.1651191 126.486005,69.4905089 125.568781,75.3958878 C125.198199,77.7818123 124.213775,81.3677932 122.615509,86.1538304" id="Path-24-Copy" stroke="#474747" transform="translate(123.498668, 67.080328) rotate(-4.000000) translate(-123.498668, -67.080328) "></path>
                <path d="M67.9041982,41.4759666 C73.2215566,48.8677336 76.2416887,55.3342215 76.9645946,60.8754303 C77.414712,64.3256645 77.8818186,69.6510543 76.9645946,75.5564332 C76.5940126,77.9423577 75.553486,81.7562494 73.8430147,86.9981082" id="Path-24" stroke="#474747" transform="translate(72.697865, 64.237037) rotate(-4.000000) translate(-72.697865, -64.237037) "></path>
                <path d="M172.696975,39.4857016 C177.487223,48.1889597 180.2438,55.3111932 180.966706,60.8524021 C181.416823,64.3026363 181.88393,69.628026 180.966706,75.533405 C180.596124,77.9193295 179.674761,81.1440721 178.202617,85.2076328" id="Path-24-Copy-2" stroke="#474747" transform="translate(177.095309, 62.346667) rotate(-4.000000) translate(-177.095309, -62.346667) "></path>
                <path d="M59.039463,27.5496674 C62.6982502,30.2828632 64.8987937,32.5217319 65.6410936,34.2662736 C66.3833934,36.0108153 66.6301863,38.5438278 66.3814721,41.8653112" id="Path-25" stroke="#474747"></path>
                <polyline id="Path-55" stroke="#474747" points="78.916274 2.08552275 88.195073 10.8731982 155.216517 9.42106601"></polyline>
                <path d="M88.461225,10.6953428 L88.2003278,49.4997613" id="Path-56" stroke="#474747"></path>
            </g>
        </g>
    </g>
</svg>