<?xml version="1.0" encoding="UTF-8"?>
<svg width="560px" height="319px" viewBox="0 0 560 319" version="1.1" xmlns="http://www.w3.org/2000/svg" xmlns:xlink="http://www.w3.org/1999/xlink">
    <!-- Generator: Sketch 63.1 (92452) - https://sketch.com -->
    <title>Group 4</title>
    <desc>Created with Sketch.</desc>
    <defs>
        <path d="M39.9838449,0.812362115 L8.45134705,0.812362115 C3.47301229,1.09866245 0.983844911,4.43199578 0.983844911,10.8123621 C0.983844911,17.1927284 3.47301229,20.5260618 8.45134705,20.8123621 L39.9838449,20.8123621 L39.9838449,0.812362115 Z" id="path-1"></path>
        <path d="M39.9838449,0.812362115 L8.45134705,0.812362115 C3.47301229,1.09866245 0.983844911,4.43199578 0.983844911,10.8123621 C0.983844911,17.1927284 3.47301229,20.5260618 8.45134705,20.8123621 L39.9838449,20.8123621 L39.9838449,0.812362115 Z" id="path-3"></path>
        <path d="M39.9838449,0.812362115 L8.45134705,0.812362115 C3.47301229,1.11297746 0.983844911,4.61297746 0.983844911,11.3123621 C0.983844911,18.0117468 3.47301229,21.5117468 8.45134705,21.8123621 L39.9838449,21.8123621 L39.9838449,0.812362115 Z" id="path-5"></path>
        <path d="M39.9838449,0.812362115 L8.45134705,0.812362115 C3.47301229,1.11297746 0.983844911,4.61297746 0.983844911,11.3123621 C0.983844911,18.0117468 3.47301229,21.5117468 8.45134705,21.8123621 L39.9838449,21.8123621 L39.9838449,0.812362115 Z" id="path-7"></path>
        <linearGradient x1="49.2867281%" y1="0%" x2="49.2867281%" y2="58.597148%" id="linearGradient-9">
            <stop stop-color="#89B9CD" offset="0%"></stop>
            <stop stop-color="#B4D3E3" offset="100%"></stop>
        </linearGradient>
        <path d="M39.0630048,8.08248266e-13 L7.47956596,8.08248266e-13 C2.49318865,0.372345041 0,4.70747846 0,13.0054002 C0,21.303322 2.49318865,25.6384555 7.47956596,26.0108005 L39.0630048,26.0108005 L39.0630048,8.08248266e-13 Z" id="path-10"></path>
        <linearGradient x1="49.2867281%" y1="0%" x2="49.2867281%" y2="58.597148%" id="linearGradient-12">
            <stop stop-color="#89B9CD" offset="0%"></stop>
            <stop stop-color="#B4D3E3" offset="100%"></stop>
        </linearGradient>
    </defs>
    <g id="Page-1" stroke="none" stroke-width="1" fill="none" fill-rule="evenodd">
        <g id="chiller-type-updated" transform="translate(-65.000000, -51.000000)">
            <g id="Group-4" transform="translate(65.000000, 50.000000)">
                <g id="Group-9-Copy-2" transform="translate(510.000000, 184.187032)">
                    <g id="Group-16-Copy" transform="translate(0.000000, 0.812968)">
                        <g id="in-pipe-copy-2" transform="translate(25.000000, 15.000000) scale(-1, 1) translate(-25.000000, -15.000000) ">
                            <g id="Group-2" transform="translate(0.000000, 0.000263)" stroke="#02627E" stroke-width="1.5">
                                <path d="M13.25,0.749737032 L10,0.749737032 C7.46598011,0.749737032 5.20290879,2.33425214 3.55296991,4.80916046 C1.81430593,7.41715644 0.75,11.0225055 0.75,14.999737 C0.75,18.9769685 1.81430593,22.5823176 3.55296991,25.1903136 C5.20290879,27.6652219 7.46598011,29.249737 10,29.249737 L13.25,29.249737 L13.25,0.749737032 Z" id="Path" fill="#A5C9DC"></path>
                                <ellipse id="Oval" fill="#89B9CD" cx="14" cy="14.999737" rx="9.25" ry="14.25"></ellipse>
                            </g>
                            <path d="M49.0791599,5.01083702 L17.495721,5.01083702 C12.5093437,5.29713735 10.0161551,8.63047069 10.0161551,15.010837 C10.0161551,21.3912034 12.5093437,24.7245367 17.495721,25.010837 L49.0791599,25.010837 L49.0791599,5.01083702 Z" id="Path-65" fill="#B4D3E3"></path>
                            <g id="Path" transform="translate(9.016155, 4.000234)">
                                <mask id="mask-2" fill="white">
                                    <use xlink:href="#path-1"></use>
                                </mask>
                                <use id="Mask" fill="#A5C9DC" xlink:href="#path-1"></use>
                                <path d="M1.3887066,4.81236212 C1.11879881,5.97823592 0.983844911,7.31156925 0.983844911,8.81236212 L42.9838449,8.81236212 L42.9838449,4.81236212 L1.3887066,4.81236212 Z" fill="#8FBCD4" mask="url(#mask-2)"></path>
                            </g>
                            <path d="M49.0791599,5.01083702 L17.495721,5.01083702 C12.5093437,5.29713735 10.0161551,8.63047069 10.0161551,15.010837 C10.0161551,21.3912034 12.5093437,24.7245367 17.495721,25.010837 L49.0791599,25.010837 L49.0791599,5.01083702 Z" id="Path-65-Copy" stroke="#02627E" stroke-width="1.5"></path>
                        </g>
                    </g>
                    <g id="Group-16-Copy-2" transform="translate(0.000000, 40.812968)">
                        <g id="in-pipe-copy-2" transform="translate(25.000000, 15.000000) scale(-1, 1) translate(-25.000000, -15.000000) ">
                            <g id="Group-2" transform="translate(0.000000, 0.000263)" stroke="#02627E" stroke-width="1.5">
                                <path d="M13.25,0.749737032 L10,0.749737032 C7.46598011,0.749737032 5.20290879,2.33425214 3.55296991,4.80916046 C1.81430593,7.41715644 0.75,11.0225055 0.75,14.999737 C0.75,18.9769685 1.81430593,22.5823176 3.55296991,25.1903136 C5.20290879,27.6652219 7.46598011,29.249737 10,29.249737 L13.25,29.249737 L13.25,0.749737032 Z" id="Path" fill="#A5C9DC"></path>
                                <ellipse id="Oval" fill="#89B9CD" cx="14" cy="14.999737" rx="9.25" ry="14.25"></ellipse>
                            </g>
                            <path d="M49.0791599,5.01083702 L17.495721,5.01083702 C12.5093437,5.29713735 10.0161551,8.63047069 10.0161551,15.010837 C10.0161551,21.3912034 12.5093437,24.7245367 17.495721,25.010837 L49.0791599,25.010837 L49.0791599,5.01083702 Z" id="Path-65" fill="#B4D3E3"></path>
                            <g id="Path" transform="translate(9.016155, 4.000234)">
                                <mask id="mask-4" fill="white">
                                    <use xlink:href="#path-3"></use>
                                </mask>
                                <use id="Mask" fill="#A5C9DC" xlink:href="#path-3"></use>
                                <path d="M1.3887066,4.81236212 C1.11879881,5.97823592 0.983844911,7.31156925 0.983844911,8.81236212 L42.9838449,8.81236212 L42.9838449,4.81236212 L1.3887066,4.81236212 Z" fill="#8FBCD4" mask="url(#mask-4)"></path>
                            </g>
                            <path d="M49.0791599,5.01083702 L17.495721,5.01083702 C12.5093437,5.29713735 10.0161551,8.63047069 10.0161551,15.010837 C10.0161551,21.3912034 12.5093437,24.7245367 17.495721,25.010837 L49.0791599,25.010837 L49.0791599,5.01083702 Z" id="Path-65-Copy" stroke="#02627E" stroke-width="1.5"></path>
                        </g>
                    </g>
                </g>
                <g id="Group-9-Copy-4" transform="translate(25.000000, 143.687032) scale(-1, 1) translate(-25.000000, -143.687032) translate(0.000000, 104.187032)">
                    <g id="Group-16" transform="translate(0.000000, 47.000373)"></g>
                    <g id="Group-16-Copy" transform="translate(0.000000, 0.812968)">
                        <g id="in-pipe-copy-2" transform="translate(25.000000, 15.000000) scale(-1, 1) translate(-25.000000, -15.000000) ">
                            <g id="Group-2" transform="translate(0.000000, 0.000263)" stroke="#02627E" stroke-width="1.5">
                                <path d="M13.25,0.749737032 L10,0.749737032 C7.46598011,0.749737032 5.20290879,2.33425214 3.55296991,4.80916046 C1.81430593,7.41715644 0.75,11.0225055 0.75,14.999737 C0.75,18.9769685 1.81430593,22.5823176 3.55296991,25.1903136 C5.20290879,27.6652219 7.46598011,29.249737 10,29.249737 L13.25,29.249737 L13.25,0.749737032 Z" id="Path" fill="#388CA8"></path>
                                <ellipse id="Oval" fill="#1E6B84" cx="14" cy="14.999737" rx="9.25" ry="14.25"></ellipse>
                            </g>
                            <path d="M49.0791599,5.01083702 L17.495721,5.01083702 C12.5093437,5.29713735 10.0161551,8.63047069 10.0161551,15.010837 C10.0161551,21.3912034 12.5093437,24.7245367 17.495721,25.010837 L49.0791599,25.010837 L49.0791599,5.01083702 Z" id="Path-65" fill="#B4D3E3"></path>
                            <g id="Path" transform="translate(9.016155, 4.000234)">
                                <mask id="mask-6" fill="white">
                                    <use xlink:href="#path-5"></use>
                                </mask>
                                <use id="Mask" fill="#1E6B84" xlink:href="#path-5"></use>
                                <path d="M1.3887066,4.81236212 C1.11879881,5.97823592 0.983844911,7.31156925 0.983844911,8.81236212 L42.9838449,8.81236212 L42.9838449,4.81236212 L1.3887066,4.81236212 Z" fill="#195F76" mask="url(#mask-6)"></path>
                            </g>
                            <path d="M49.0791599,5.01083702 L17.495721,5.01083702 C12.5093437,5.29713735 10.0161551,8.63047069 10.0161551,15.010837 C10.0161551,21.3912034 12.5093437,24.7245367 17.495721,25.010837 L49.0791599,25.010837 L49.0791599,5.01083702 Z" id="Path-65-Copy" stroke="#02627E" stroke-width="1.5"></path>
                        </g>
                        <g id="in-pipe-copy-3" transform="translate(25.000000, 55.000000) scale(-1, 1) translate(-25.000000, -55.000000) translate(0.000000, 40.000000)">
                            <g id="Group-2" transform="translate(0.000000, 0.000263)" stroke="#02627E" stroke-width="1.5">
                                <path d="M13.25,0.749737032 L10,0.749737032 C7.46598011,0.749737032 5.20290879,2.33425214 3.55296991,4.80916046 C1.81430593,7.41715644 0.75,11.0225055 0.75,14.999737 C0.75,18.9769685 1.81430593,22.5823176 3.55296991,25.1903136 C5.20290879,27.6652219 7.46598011,29.249737 10,29.249737 L13.25,29.249737 L13.25,0.749737032 Z" id="Path" fill="#388CA8"></path>
                                <ellipse id="Oval" fill="#1E6B84" cx="14" cy="14.999737" rx="9.25" ry="14.25"></ellipse>
                            </g>
                            <path d="M49.0791599,5.01083702 L17.495721,5.01083702 C12.5093437,5.29713735 10.0161551,8.63047069 10.0161551,15.010837 C10.0161551,21.3912034 12.5093437,24.7245367 17.495721,25.010837 L49.0791599,25.010837 L49.0791599,5.01083702 Z" id="Path-65" fill="#B4D3E3"></path>
                            <g id="Path" transform="translate(9.016155, 4.000234)">
                                <mask id="mask-8" fill="white">
                                    <use xlink:href="#path-7"></use>
                                </mask>
                                <use id="Mask" fill="#1E6B84" xlink:href="#path-7"></use>
                                <path d="M1.3887066,4.81236212 C1.11879881,5.97823592 0.983844911,7.31156925 0.983844911,8.81236212 L42.9838449,8.81236212 L42.9838449,4.81236212 L1.3887066,4.81236212 Z" fill="#195F76" mask="url(#mask-8)"></path>
                            </g>
                            <path d="M49.0791599,5.01083702 L17.495721,5.01083702 C12.5093437,5.29713735 10.0161551,8.63047069 10.0161551,15.010837 C10.0161551,21.3912034 12.5093437,24.7245367 17.495721,25.010837 L49.0791599,25.010837 L49.0791599,5.01083702 Z" id="Path-65-Copy" stroke="#02627E" stroke-width="1.5"></path>
                        </g>
                    </g>
                </g>
                <g id="Group-7" transform="translate(13.164782, 0.240838)">
                    <g id="Group-3-Copy" transform="translate(489.264136, 185.260594) scale(-1, 1) translate(-489.264136, -185.260594) translate(445.764136, 51.760594)">
                        <g id="stand" transform="translate(0.000000, 253.895284)" fill="#89B9CD" stroke="#02627E" stroke-width="1.5">
                            <polygon id="Path-61" points="0.229622548 10.2980807 0.229622548 12.9827272 43.5702746 12.9827272 56.3627678 2.58203044 56.3627678 -6.17662762e-13 30.0484653 -6.17288511e-13"></polygon>
                            <path d="M14.5584881,-9.09501345e-13 L0.261634045,9.85831103 C0.216166898,9.88966263 0.204723987,9.95193653 0.236075589,9.99740368 C0.254620025,10.0242974 0.285131419,10.0404379 0.317798403,10.0406348 L43.0296703,10.2980807 L43.0296703,10.2980807 L55.3432077,0.355607235 C55.4291472,0.286216028 55.4425623,0.160295608 55.373171,0.0743561049 C55.3352016,0.0273318056 55.2780035,-9.02611381e-13 55.2175638,-9.09501345e-13 L14.5584881,-9.09501345e-13 L14.5584881,-9.09501345e-13 Z" id="Path-62"></path>
                        </g>
                        <g id="stand-copy" transform="translate(29.046850, 226.186338)" fill="#89B9CD" stroke="#02627E" stroke-width="1.5">
                            <polygon id="Path-61" points="0.229622548 10.2980807 0.229622548 12.9827272 43.5702746 12.9827272 56.3627678 2.58203044 56.3627678 -6.17662762e-13 30.0484653 -6.17288511e-13"></polygon>
                            <path d="M14.5584881,-9.09501345e-13 L0.261634045,9.85831103 C0.216166898,9.88966263 0.204723987,9.95193653 0.236075589,9.99740368 C0.254620025,10.0242974 0.285131419,10.0404379 0.317798403,10.0406348 L43.0296703,10.2980807 L43.0296703,10.2980807 L55.3432077,0.355607235 C55.4291472,0.286216028 55.4425623,0.160295608 55.373171,0.0743561049 C55.3352016,0.0273318056 55.2780035,-9.15802892e-13 55.2175638,-9.09501345e-13 L14.5584881,-9.09501345e-13 L14.5584881,-9.09501345e-13 Z" id="Path-62"></path>
                        </g>
                        <g id="Group" transform="translate(20.030695, 0.000000)">
                            <path d="M2.92545498,259.001205 L0.171367549,259.001205 L2.75725793,36.9772273 C2.85937078,28.2098404 8.15776886,20.3401296 16.2427036,16.9472944 L17.3216315,16.4945234 L17.3216315,16.4945234 L10.0177706,253.441892 L2.92545498,259.001205 Z" id="Path-58" stroke="#02627E" stroke-width="1.5" fill="#89B9CD"></path>
                            <path d="M35.9010819,16.1820494 L11.2516083,4.19168384 C8.76838883,2.9837591 5.77612522,4.01758974 4.56820048,6.50080921 C4.22404321,7.20831854 4.05170685,7.98705908 4.06520272,8.77371756 L7.85090997,229.438122 L7.85090997,229.438122 L49.6794823,258.967221 C49.769719,259.030924 49.8945118,259.009414 49.9582149,258.919177 C49.9825353,258.884727 49.9953441,258.843471 49.9948109,258.801304 L47.150918,33.9142185 C47.0552856,26.3518762 42.7020871,19.490296 35.9010819,16.1820494 Z" id="Path-60-Copy" stroke="#02627E" stroke-width="1.5" fill="#89B9CD" transform="translate(26.962612, 129.910658) scale(-1, 1) translate(-26.962612, -129.910658) "></path>
                            <ellipse id="Oval" fill="#74A8BD" cx="14.5201939" cy="41.500252" rx="1.50242326" ry="4.50003287"></ellipse>
                            <ellipse id="Oval-Copy" fill="#74A8BD" cx="41.5638126" cy="25.6855086" rx="1.50242326" ry="4.50003287"></ellipse>
                            <ellipse id="Oval-Copy-3" fill="#74A8BD" cx="11.5201939" cy="237.501048" rx="1.50242326" ry="4.50003287"></ellipse>
                            <ellipse id="Oval-Copy-2" fill="#74A8BD" cx="38.5638126" cy="221.686305" rx="1.50242326" ry="4.50003287"></ellipse>
                        </g>
                    </g>
                    <g id="Group-3-Copy-2" transform="translate(0.906300, 51.760594)">
                        <g id="stand" transform="translate(0.000000, 253.895284)" fill="#89B9CD" stroke="#02627E" stroke-width="1.5">
                            <polygon id="Path-61" points="0.229622548 10.2980807 0.229622548 12.9827272 43.5702746 12.9827272 56.3627678 2.58203044 56.3627678 -6.17662762e-13 30.0484653 -6.17288511e-13"></polygon>
                            <path d="M14.5584881,-9.09501345e-13 L0.261634045,9.85831103 C0.216166898,9.88966263 0.204723987,9.95193653 0.236075589,9.99740368 C0.254620025,10.0242974 0.285131419,10.0404379 0.317798403,10.0406348 L43.0296703,10.2980807 L43.0296703,10.2980807 L55.3432077,0.355607235 C55.4291472,0.286216028 55.4425623,0.160295608 55.373171,0.0743561049 C55.3352016,0.0273318056 55.2780035,-9.07226419e-13 55.2175638,-9.09501345e-13 L14.5584881,-9.09501345e-13 L14.5584881,-9.09501345e-13 Z" id="Path-62"></path>
                        </g>
                        <g id="stand-copy" transform="translate(29.046850, 226.186338)" fill="#89B9CD" stroke="#02627E" stroke-width="1.5">
                            <polygon id="Path-61" points="0.229622548 10.2980807 0.229622548 12.9827272 43.5702746 12.9827272 56.3627678 2.58203044 56.3627678 -6.17662762e-13 30.0484653 -6.17288511e-13"></polygon>
                            <path d="M14.5584881,-9.09501345e-13 L0.261634045,9.85831103 C0.216166898,9.88966263 0.204723987,9.95193653 0.236075589,9.99740368 C0.254620025,10.0242974 0.285131419,10.0404379 0.317798403,10.0406348 L43.0296703,10.2980807 L43.0296703,10.2980807 L55.3432077,0.355607235 C55.4291472,0.286216028 55.4425623,0.160295608 55.373171,0.0743561049 C55.3352016,0.0273318056 55.2780035,-9.07587242e-13 55.2175638,-9.09501345e-13 L14.5584881,-9.09501345e-13 L14.5584881,-9.09501345e-13 Z" id="Path-62"></path>
                        </g>
                        <g id="Group-Copy-3" transform="translate(19.827141, 0.000000)">
                            <path d="M3.92545498,259.001205 L0.171367549,259.001205 L2.75725793,36.9772273 C2.85937078,28.2098404 8.15776886,20.3401296 16.2427036,16.9472944 L17.3216315,16.4945234 L17.3216315,16.4945234 L10.0177706,253.441892 L3.92545498,259.001205 Z" id="Path-58" stroke="#02627E" stroke-width="1.5" fill="#89B9CD"></path>
                            <path d="M35.9010819,16.1820494 L11.2516083,4.19168384 C8.76838883,2.9837591 5.77612522,4.01758974 4.56820048,6.50080921 C4.22404321,7.20831854 4.05170685,7.98705908 4.06520272,8.77371756 L7.85090997,229.438122 L7.85090997,229.438122 L49.6794823,258.967221 C49.769719,259.030924 49.8945118,259.009414 49.9582149,258.919177 C49.9825353,258.884727 49.9953441,258.843471 49.9948109,258.801304 L47.150918,33.9142185 C47.0552856,26.3518762 42.7020871,19.490296 35.9010819,16.1820494 Z" id="Path-60-Copy" stroke="#02627E" stroke-width="1.5" fill="#89B9CD" transform="translate(26.962612, 129.910658) scale(-1, 1) translate(-26.962612, -129.910658) "></path>
                            <ellipse id="Oval" fill="#74A8BD" cx="14.5201939" cy="41.500252" rx="1.50242326" ry="4.50003287"></ellipse>
                            <ellipse id="Oval-Copy" fill="#74A8BD" cx="41.5638126" cy="25.6855086" rx="1.50242326" ry="4.50003287"></ellipse>
                            <ellipse id="Oval-Copy-3" fill="#74A8BD" cx="11.5201939" cy="237.501048" rx="1.50242326" ry="4.50003287"></ellipse>
                            <ellipse id="Oval-Copy-2" fill="#74A8BD" cx="38.5638126" cy="221.686305" rx="1.50242326" ry="4.50003287"></ellipse>
                        </g>
                    </g>
                    <g id="Group-3-Copy-3" transform="translate(48.969305, 97.759162)">
                        <path d="M74.7305522,0.140527628 L409.412126,0.140527628 C423.967195,-1.68852347 431.444754,14.3370707 431.844805,48.21731 C432.244856,82.0975493 426.958246,101.358446 415.984975,106 L74.7305522,106 L18.9434484,106 C7.32372592,106 1.3041449,88.3333333 0.884705357,53 C0.465265811,17.6666667 7.06705752,0.0468425425 20.6900805,0.140527628 L74.7305522,0.140527628 Z" id="cylinder-front" fill="#195F76"></path>
                        <path d="M0.884706277,54 C0.465246189,18 7.06736123,0.0477263641 20.6910514,0.143179092 L74.7341697,0.143179092 L409.432135,0.143179092 C423.987916,-1.7203824 431.465842,14.6075814 431.865913,49.1270706 L0.884706277,54 Z" id="Path" fill="#1E6B84"></path>
                        <path d="M1.86591276,71 L426.865913,71 C426.417029,73.9541809 425.651591,76.9640539 424.569598,80.029619 L4.8920208,82 L1.86591276,71 Z" id="Path-64" fill="#195F76"></path>
                        <path d="M74.7305522,0.140527628 L409.412126,0.140527628 C423.967195,-1.68852347 431.444754,14.3370707 431.844805,48.21731 C432.244856,82.0975493 426.958246,101.358446 415.984975,106 L74.7305522,106 L18.9434484,106 C7.32372592,106 1.3041449,88.3333333 0.884705357,53 C0.465265811,17.6666667 7.06705752,0.0468425425 20.6900805,0.140527628 L74.7305522,0.140527628 Z" id="cylinder-front-copy" stroke="#02627E" stroke-width="1.5"></path>
                    </g>
                    <ellipse id="Oval" fill="#A5C9DC" cx="378.835218" cy="116.759162" rx="55" ry="15"></ellipse>
                    <g id="tomb-copy-2" transform="translate(340.835218, 0.893902)">
                        <path d="M1.00310201,108.223017 L1.00310201,17.2519158 C12.4303319,6.32747884 28.3588075,0.865260337 48.7885286,0.865260337 C69.2182498,0.865260337 84.6220735,6.32747884 95,17.2519158 L95,111.36526 C64.1923524,118.949914 32.8600531,119.213074 1.00310201,112.154739 L1,108.910542 L1.00310201,108.223017 Z" id="Path-Copy-5" fill="#B4D3E3"></path>
                        <path d="M85,115.86526 C76.7008359,117.419424 69.0292057,118.300983 64.1514898,118.728881 L64.1514898,21.1670988 C64.9311092,15.4540396 59.8806126,8.68676012 49,0.865260337 C69.6098225,6.12672899 81.2487591,12.0679171 83.9168098,18.6888247 L85,111.602639 L85,115.86526 Z" id="Path" fill="#A5C9DC"></path>
                        <path d="M11,0.865260337 C31.6098225,6.13401316 43.2487591,12.0834265 45.9168098,18.7135003 L47,114.955264 L47,119.809483 C44.7084914,120.239202 42.464825,120.638322 40.3146041,121 L40.3146041,19.2046187 C38.5440033,12.2571432 28.7724686,6.36930342 11,1.54109943 L11.011197,1.19339342 L11,0.865260337 Z" id="Path" fill="#A5C9DC" transform="translate(29.000000, 60.932630) scale(-1, 1) translate(-29.000000, -60.932630) "></path>
                        <path d="M1,16.9796209 C30.9513209,22.1604735 62.2846542,22.1604735 95,16.9796209 C85.3463451,6.6373927 69.9328155,1.26593917 48.7594111,0.865260337 C29.5281821,1.14320032 14.5011823,5.752721 3.67841157,14.6938224 L1.39018307,16.7175736 L1,16.9796209 Z" id="Path-67-Copy" fill="#A5C9DC"></path>
                        <path d="M1,16.8652603 C30.9513209,22.1985937 62.2846542,22.1985937 95,16.8652603" id="Path-67" stroke="#02627E" stroke-width="1.5"></path>
                        <path d="M1,102.271716 L1,108.656089 L1.00310201,17.1155957 C12.4303319,6.2820388 28.3588075,0.865260337 48.7885286,0.865260337 C69.2182498,0.865260337 84.6220735,6.2820388 95,17.1155957 L95,108.723228" id="Path" stroke="#02627E" stroke-width="1.5"></path>
                    </g>
                    <g id="Group-14" transform="translate(254.835218, 51.759162)" stroke="#02627E" stroke-width="1.5">
                        <polygon id="Path-51" fill="url(#linearGradient-9)" points="0 6.85831658 8.18045113 0 87.1027985 0 96 6.85831658 96 20 9.85930088e-14 20"></polygon>
                        <polygon id="Path-50" fill="#B4D3E3" points="1.24515269e-13 74 96 74 96 8 1.24515269e-13 8"></polygon>
                    </g>
                    <g id="Group-14-Copy-4" transform="translate(166.835218, 43.759162)">
                        <polygon id="Path-51" stroke="#02627E" stroke-width="1.5" fill="url(#linearGradient-9)" points="0 6.85831658 8.18045113 0 87.1027985 0 96 6.85831658 96 20 9.85930088e-14 20"></polygon>
                        <polygon id="Path-50" fill="#B4D3E3" points="1.24515269e-13 84 96 84 96 8 0 8"></polygon>
                        <path d="M0,70 L0,65.6305124 C-5.84404479e-15,58.4508106 5.82029825,52.6305124 13,52.6305124 L75.9723592,52.6305124 L75.9723592,52.6305124 C80.9555002,47.2031948 87.6313805,43.6596907 96,42 L96.1082271,70.0070069 L0,70 Z" id="Path-10" fill="#A5C9DC"></path>
                        <polygon id="Path-50-Copy-6" stroke="#02627E" stroke-width="1.5" points="1.24515269e-13 84 96 84 96 8 0 8"></polygon>
                    </g>
                </g>
                <g id="Group-3" transform="translate(52.134087, 175.187024)">
                    <path d="M78.6722847,0.937594546 L431.213896,0.937594546 C446.545685,-0.684394162 454.42228,13.5269818 454.843679,43.5717223 C455.265078,73.6164629 449.696352,90.6968807 438.1375,94.8129757 L78.6722847,94.8129757 L19.9081429,94.8129757 C7.6683424,94.8129757 1.32753084,79.146309 0.88570821,47.8129757 C0.443885579,16.4796424 7.39797708,0.854515319 21.7479827,0.937594546 L78.6722847,0.937594546 Z" id="cylinder-front" fill="#B4D3E3"></path>
                    <path d="M0.885709179,47.8129757 C0.44386491,16.4796424 7.39829699,0.854515319 21.7490054,0.937594546 L78.6760953,0.937594546 L431.234972,0.937594546 C446.567513,-0.684394162 454.444493,13.5269818 454.865913,43.5717223 L0.885709179,47.8129757 Z" id="Path" fill="#A5C9DC"></path>
                    <path d="M3.86591276,74.8129757 L451.865913,74.8129757 C451.392736,77.4985947 450.585875,80.2348429 449.445327,83.0217203 L7.05578665,84.8129757 L3.86591276,74.8129757 Z" id="Path-64" fill="#A5C9DC"></path>
                    <path d="M78.6722847,0.937594546 L431.213896,0.937594546 C446.545685,-0.684394162 454.42228,13.5269818 454.843679,43.5717223 C455.265078,73.6164629 449.696352,90.6968807 438.1375,94.8129757 L78.6722847,94.8129757 L19.9081429,94.8129757 C7.6683424,94.8129757 1.32753084,79.146309 0.88570821,47.8129757 C0.443885579,16.4796424 7.39797708,0.854515319 21.7479827,0.937594546 L78.6722847,0.937594546 Z" id="cylinder-front-copy" stroke="#02627E" stroke-width="1.5"></path>
                </g>
                <g id="Group-15" transform="translate(53.500631, 162.000000)">
                    <polygon id="Path-9" fill="#B4D3E3" points="1.36636135 6.68514503 450.63928 6.68514503 451.396116 3 450.420209 7.90387424e-13 8.63345663 7.90387424e-13 1.36636135 7.90387424e-13"></polygon>
                    <polygon id="Path-9-Copy-2" fill="#A5C9DC" points="1.36636135 6.68514503 450.63928 6.68514503 451.396116 4.48016966 450.420209 2.68514503 8.63345663 2.68514503 1.36636135 2.68514503"></polygon>
                    <path d="M1.57852933,6.68514503 L450.360436,6.68514503 L450.638635,6.16548368 C451.682992,4.21468144 451.576239,1.84881911 450.360436,-7.29638572e-13 L450.360436,-7.29638572e-13 L450.360436,-7.29638572e-13 L8.63345663,-7.29638572e-13 L1.57852933,-7.29638572e-13 C0.579097801,2.11224183 0.577276035,4.56088284 1.57356348,6.67460947 L1.57852933,6.68514503 L1.57852933,6.68514503 Z" id="Path-9-Copy" stroke="#02627E" stroke-width="1.5"></path>
                </g>
                <g id="Group-15-Copy" transform="translate(50.000000, 149.000000)">
                    <polygon id="Path-9" fill="#B4D3E3" points="1.4993694 7 458.728973 7 459.499213 3.14129311 458.506023 1.59161573e-12 8.89516594 1.59161573e-12 1.4993694 1.59161573e-12"></polygon>
                    <polygon id="Path-9-Copy-2" fill="#A5C9DC" points="1.4993694 7 458.728973 7 459.499213 4.79502463 458.506023 3 8.89516594 3 1.4993694 3"></polygon>
                    <path d="M2.10465369,7 L458.493098,7 L458.779937,6.44831589 C459.84382,4.40212682 459.73446,1.9436454 458.493098,0 L458.493098,0 L458.493098,0 L9.27915706,0 L2.10465369,0 C1.08550576,2.21776602 1.0836426,4.76960119 2.09955095,6.98885306 L2.10465369,7 L2.10465369,7 Z" id="Path-9-Copy" stroke="#02627E" stroke-width="1.5"></path>
                </g>
                <g id="Group-13" transform="translate(155.000000, 91.523217)">
                    <ellipse id="Oval" fill="#91BBD2" cx="19" cy="93.9767829" rx="19" ry="3.5"></ellipse>
                    <ellipse id="Oval-Copy-4" stroke="#02627E" stroke-width="1.5" cx="19" cy="93.9767829" rx="18.25" ry="2.75"></ellipse>
                    <path d="M6,93.9782146 L6,50.4767829 C6,29.4899624 23.0131795,12.4767829 44,12.4767829 L131.982413,12.4767829 L131.982413,12.4767829 L131.982413,38.0100135 L44.4416724,38.0100135 C37.8142554,38.0100135 32.4416724,43.3825965 32.4416724,50.0100135 L32.4416724,93.9782146 L32.4416724,93.9782146" id="Path-85" fill="#B4D3E3"></path>
                    <path d="M5.99987005,93.9782146 L5.99987005,48.1619279 C7.85654669,30.495672 17.5916704,18.9163086 35.2052411,13.4238376 L42.4534029,12.396421 L104.295885,12.396421 L104.295885,19.4002276 L44.3240047,19.4002276 C28.0306086,19.400215 14.4721175,31.9201336 13.1764036,48.1619279 C13.1764036,48.1619279 13.1764036,48.1619279 13.1764036,48.1619279 L13.0914105,93.9660518 L5.99987005,93.9782146 Z" id="Path-3" fill="#A5C9DC"></path>
                    <path d="M6,93.9782146 L6,50.4767829 C6,29.4899624 23.0131795,12.4767829 44,12.4767829 L131.982413,12.4767829 L131.982413,12.4767829 L131.982413,38.0100135 L44.4416724,38.0100135 C37.8142554,38.0100135 32.4416724,43.3825965 32.4416724,50.0100135 L32.4416724,93.9782146 L32.4416724,93.9782146" id="Path-85-Copy" stroke="#02627E" stroke-width="1.5"></path>
                    <polygon id="Rectangle" fill="#B4D3E3" points="157.98483 3.47678285 168.750777 3.47678285 168.750777 44.4767829 157.98483 44.4767829"></polygon>
                    <polygon id="Rectangle-Copy-12" fill="#A5C9DC" points="157.98483 3.47678285 168.750777 3.47678285 168.750777 25.0282952 157.98483 25.0282952"></polygon>
                    <path d="M168.000777,4.22678285 L158.73483,4.22678285 L158.73483,43.7267829 L168.000777,43.7267829 L168.000777,4.22678285 Z" id="Rectangle-Copy-11" stroke="#02627E" stroke-width="1.5"></path>
                    <path d="M138.829288,0.0282952445 L158.73161,0.0282952445 L158.73161,41.1665712 C158.73161,45.8932363 158.016941,50.5927336 156.611836,55.1057197 L156.611836,55.1057197 L156.611836,55.1057197 L141.885603,55.1057197 C139.870901,50.6176731 138.829288,45.7539092 138.829288,40.8343985 L138.829288,0.0282952445 L138.829288,0.0282952445 Z" id="Path-2" fill="#B4D3E3"></path>
                    <path d="M150.428608,0.0282952445 L158.73161,0.0282952445 L158.73161,41.7070399 C158.73161,46.2314342 158.016184,50.7273708 156.611836,55.0282952 L156.611836,55.0282952 L156.611836,55.0282952 L150.428608,55.0282952 L150.428608,0.0282952445 Z" id="Path-2-Copy-2" fill="#A5C9DC"></path>
                    <path d="M138.829288,0.0282952445 L158.73161,0.0282952445 L158.73161,41.1665712 C158.73161,45.8932363 158.016941,50.5927336 156.611836,55.1057197 L156.611836,55.1057197 L156.611836,55.1057197 L141.885603,55.1057197 C139.870901,50.6176731 138.829288,45.7539092 138.829288,40.8343985 L138.829288,0.0282952445 L138.829288,0.0282952445 Z" id="Path-2-Copy" stroke="#02627E" stroke-width="1.5"></path>
                    <path d="M106.891462,9.3200682 L102.65498,12.0130765 L102.65498,12.0130765 L101.859314,12.4767829 C100.676708,20.2073614 100.676708,28.8066727 101.859314,38.2747168 L106.036493,40.3765931 C116.209932,45.4956728 127.440529,48.1619279 138.829288,48.1619279 L138.829288,48.1619279 L138.829288,48.1619279 L138.829288,0.0282952445 C127.516768,0.0282952445 116.438394,3.25136181 106.891462,9.3200682 Z" id="Path" fill="#B4D3E3"></path>
                    <path d="M101.859314,12.4767829 C114.142486,3.76281673 126.465811,-0.386679135 138.829288,0.0282952445 L138.770613,8.4019691 C126.923538,8.4019691 114.32412,12.1430249 100.972359,19.6251364 L101.690307,13.1422404 L101.859314,12.4767829 Z" id="Path-8" fill="#A5C9DC"></path>
                    <path d="M106.891462,9.3200682 L102.65498,12.0130765 L102.65498,12.0130765 L101.859314,12.4767829 C100.676708,20.2073614 100.676708,28.8066727 101.859314,38.2747168 L106.036493,40.3765931 C116.209932,45.4956728 127.440529,48.1619279 138.829288,48.1619279 L138.829288,48.1619279 L138.829288,48.1619279 L138.829288,0.0282952445 C127.516768,0.0282952445 116.438394,3.25136181 106.891462,9.3200682 Z" id="Path-Copy-6" stroke="#02627E" stroke-width="1.5"></path>
                </g>
                <g id="Group-14-Copy-2" transform="translate(323.000000, 86.000000)">
                    <polygon id="Path-50" fill="#B4D3E3" points="0 52.7144411 50 52.7144411 50 5 0 5"></polygon>
                    <polygon id="Path-50-Copy-3" fill="#A5C9DC" points="0 30 50 30 50 5 0 5"></polygon>
                    <polygon id="Path-50-Copy-2" stroke="#02627E" stroke-width="1.5" points="0 52.7144411 50 52.7144411 50 5 0 5"></polygon>
                </g>
                <g id="Group-14-Copy-5" transform="translate(373.000000, 86.000000)">
                    <polygon id="Path-50" fill="#B4D3E3" points="0 52.7144411 50 52.7144411 50 5 0 5"></polygon>
                    <polygon id="Path-50-Copy-3" fill="#A5C9DC" points="0 30 50 30 50 5 0 5"></polygon>
                    <polygon id="Path-50-Copy-2" stroke="#02627E" stroke-width="1.5" points="0 52.7144411 50 52.7144411 50 5 0 5"></polygon>
                </g>
                <g id="in-pipe" transform="translate(447.539580, 115.000131) scale(-1, 1) translate(-447.539580, -115.000131) translate(423.000000, 97.000000)">
                    <g id="Group-2" stroke="#02627E" stroke-width="1.5">
                        <path d="M13.2726171,0.75 L10.0161551,0.75 C8.81579234,0.75 7.67564458,1.18905725 6.63361553,1.96473044 C5.48349667,2.82086431 4.45498314,4.08058867 3.58903313,5.636796 C1.82839876,8.80084947 0.75,13.1739857 0.75,18.0001315 C0.75,22.8262773 1.82839876,27.1994135 3.58903313,30.363467 C4.45498314,31.9196743 5.48349667,33.1793987 6.63361553,34.0355325 C7.67564458,34.8112057 8.81579234,35.250263 10.0161551,35.250263 L13.2726171,35.250263 L13.2726171,0.75 Z" id="Path" fill="#A5C9DC"></path>
                        <ellipse id="Oval" fill="#89B9CD" cx="14.0226171" cy="18.0001315" rx="9.26615509" ry="17.2501315"></ellipse>
                    </g>
                    <path d="M49.0791599,5.00003652 L17.495721,5.00003652 C12.5093437,5.37238156 10.0161551,9.70751498 10.0161551,18.0054368 C10.0161551,26.3033586 12.5093437,30.638492 17.495721,31.010837 L49.0791599,31.010837 L49.0791599,5.00003652 Z" id="Path-65" fill="#B4D3E3"></path>
                    <g id="Path" transform="translate(10.016155, 5.000037)">
                        <mask id="mask-11" fill="white">
                            <use xlink:href="#path-10"></use>
                        </mask>
                        <use id="Mask" fill="#A5C9DC" xlink:href="#path-10"></use>
                        <path d="M0.408311415,4.00002922 C0.136103805,5.50614268 9.3587317e-13,7.22858577 9.3587317e-13,9.16735849 L42.3578713,9.16735849 L42.3578713,4.00002922 L0.408311415,4.00002922 Z" fill="#8FBCD4" mask="url(#mask-11)"></path>
                    </g>
                    <path d="M49.0791599,5.00003652 L17.495721,5.00003652 C12.5093437,5.37238156 10.0161551,9.70751498 10.0161551,18.0054368 C10.0161551,26.3033586 12.5093437,30.638492 17.495721,31.010837 L49.0791599,31.010837 L49.0791599,5.00003652 Z" id="Path-65-Copy" stroke="#02627E" stroke-width="1.5"></path>
                </g>
                <g id="Group-11" transform="translate(377.000000, 175.187024)" fill="#B4D3E3" stroke="#02627E" stroke-width="1.5">
                    <path d="M0.5,2.61373208 L0.5,11.0122193 C0.5,12.0067496 1.30622609,12.8129757 2.30075638,12.8129757 C3.29528666,12.8129757 4.10151276,12.0067496 4.10151276,11.0122193 L4.10151276,2.61373208 C4.10151276,1.6192018 3.29528666,0.812975706 2.30075638,0.812975706 C1.30622609,0.812975706 0.5,1.6192018 0.5,2.61373208 Z" id="Path-88"></path>
                    <path d="M44.1015128,2.61373208 L44.1015128,11.0122193 C44.1015128,12.0067496 44.9077388,12.8129757 45.9022691,12.8129757 C46.8967994,12.8129757 47.7030255,12.0067496 47.7030255,11.0122193 L47.7030255,2.61373208 C47.7030255,1.6192018 46.8967994,0.812975706 45.9022691,0.812975706 C44.9077388,0.812975706 44.1015128,1.6192018 44.1015128,2.61373208 Z" id="Path-88-Copy-2"></path>
                </g>
                <g id="Group-14-Copy-3" transform="translate(362.000000, 119.000000)" stroke="#02627E" stroke-width="1.5">
                    <polygon id="Path-51" fill="url(#linearGradient-12)" points="0 6.75440269 8.0565049 0 69.2376046 0 78 6.75440269 78 19.6969697 0 19.6969697"></polygon>
                    <polygon id="Path-50" fill="#B4D3E3" points="0 60.1870243 78 60.1870243 78 7.21696611 0 7.21696611"></polygon>
                    <line x1="0" y1="23.2659535" x2="6.91933029" y2="23.2659535" id="Path-7"></line>
                    <line x1="0" y1="15.2659535" x2="6.91933029" y2="15.2659535" id="Path-7-Copy"></line>
                    <line x1="0" y1="31.2659535" x2="6.91933029" y2="31.2659535" id="Path-7-Copy-2"></line>
                    <line x1="0" y1="39.2659535" x2="6.91933029" y2="39.2659535" id="Path-7-Copy-3"></line>
                </g>
                <path d="M403.5,136.5 L395.5,136.5 L395.5,145.5 L403.5,145.5 L403.5,136.5 Z" id="Rectangle" stroke="#97BDD1"></path>
                <polygon id="Rectangle-Copy-21" fill="#73A2BB" points="396 136.962732 403 136.962732 403 145.037268 396 145.037268"></polygon>
                <g id="Group-10" transform="translate(419.000000, 132.000000)">
                    <polygon id="Rectangle-Copy-13" fill="#8BB5CC" points="0 0 4 0 4 4 0 4"></polygon>
                    <polygon id="Rectangle-Copy-14" fill="#73A2BB" points="0 5 4 5 4 9 0 9"></polygon>
                    <polygon id="Rectangle-Copy-15" fill="#8BB5CC" points="0 10 4 10 4 14 0 14"></polygon>
                    <polygon id="Rectangle-Copy-16" fill="#73A2BB" points="0 15 4 15 4 19 0 19"></polygon>
                </g>
                <g id="Group-10-Copy" transform="translate(412.000000, 159.500000) rotate(-90.000000) translate(-412.000000, -159.500000) translate(410.000000, 150.000000)">
                    <polygon id="Rectangle-Copy-13" fill="#8BB5CC" points="0 0 4 0 4 4 0 4"></polygon>
                    <polygon id="Rectangle-Copy-14" fill="#73A2BB" points="0 5 4 5 4 9 0 9"></polygon>
                    <polygon id="Rectangle-Copy-15" fill="#8BB5CC" points="0 10 4 10 4 14 0 14"></polygon>
                    <polygon id="Rectangle-Copy-16" fill="#73A2BB" points="0 15 4 15 4 19 0 19"></polygon>
                </g>
                <g id="Group-12" transform="translate(425.000000, 132.000000)">
                    <polygon id="Rectangle-Copy-20" fill="#73A2BB" points="0 0 4 0 4 4 0 4"></polygon>
                    <polygon id="Rectangle-Copy-19" fill="#8BB5CC" points="0 5 4 5 4 9 0 9"></polygon>
                    <polygon id="Rectangle-Copy-18" fill="#73A2BB" points="0 10 4 10 4 14 0 14"></polygon>
                    <polygon id="Rectangle-Copy-17" fill="#8BB5CC" points="0 15 4 15 4 19 0 19"></polygon>
                </g>
                <g id="pipe-top" transform="translate(90.000000, 66.995520)">
                    <ellipse id="Oval" fill="#085971" cx="6" cy="58.0044795" rx="6" ry="2"></ellipse>
                    <ellipse id="Oval-Copy-6" fill="#87B1C7" cx="26" cy="118.00448" rx="6" ry="2"></ellipse>
                    <path d="M2.7835633,58.8681004 L2.7835633,18.7134035 C2.7835633,15.399695 5.4698548,12.7134035 8.7835633,12.7134035 C10.7206526,12.7134035 12.5385774,13.6486049 13.6649472,15.224551 L25.2590373,31.4462759 C27.8053025,35.0088508 29.1741937,39.2782863 29.1741937,43.6572595 L29.1741937,118.50448 L29.1741937,118.50448 L22.5726406,118.50448 L22.5726406,41.6815442 C22.0714377,39.8500308 21.2264316,37.7944081 20.0376223,35.5146762 L10.3033603,21.2861547 C9.36882122,21.0804523 8.90155169,21.7861772 8.90155169,23.4033293 L8.96596089,29.1000811 L8.96596089,58.8681004 L2.7835633,58.8681004 Z" id="Path-87-Copy" fill="#B4D3E3"></path>
                    <path d="M2.7835633,58.8681004 L2.7835633,18.7134035 C2.7835633,15.399695 5.4698548,12.7134035 8.7835633,12.7134035 C10.7206526,12.7134035 12.5385774,13.6486049 13.6649472,15.224551 L25.2590373,31.4462759 C27.8053025,35.0088508 29.1741937,39.2782863 29.1741937,43.6572595 L29.1741937,118.50448 L29.1741937,118.50448 L26,118.50448 L26,41.6815442 C25.4362682,38.9275569 24.5599977,36.4106973 23.3711883,34.1309654 L10.3033603,16.6573822 C7.43445343,16.6049616 6,17.3873274 6,19.0044795 L6,29.1000811 L6,58.8681004 L2.7835633,58.8681004 Z" id="Path-87-Copy-2" fill="#A5C9DC"></path>
                    <path d="M8.90155169,58.8681004 L8.90155169,22.2303775 C8.90155169,21.6780928 9.34926694,21.2303775 9.90155169,21.2303775 C10.2312346,21.2303775 10.5397337,21.3928725 10.7262118,21.6647489 L20.9945816,36.6355535 C22.0224931,38.1342006 22.5726406,39.9089202 22.5726406,41.7262108 L22.5726406,118.505911 L22.5726406,118.505911" id="Path-86" stroke="#02627E" stroke-width="1.5"></path>
                    <path d="M2.7835633,58.8681004 L2.7835633,18.7134035 C2.7835633,15.399695 5.4698548,12.7134035 8.7835633,12.7134035 C10.7206526,12.7134035 12.5385774,13.6486049 13.6649472,15.224551 L27.8691415,35.0981704 C28.7178966,36.2856953 29.1741937,37.7088405 29.1741937,39.1684982 L29.1741937,118.50448 L29.1741937,118.50448" id="Path-87" stroke="#02627E" stroke-width="1.5"></path>
                </g>
            </g>
        </g>
    </g>
</svg>