<?xml version="1.0" encoding="UTF-8"?>
<svg width="10px" height="10px" viewBox="0 0 10 10" version="1.1" xmlns="http://www.w3.org/2000/svg" xmlns:xlink="http://www.w3.org/1999/xlink">
    <!-- Generator: Sketch 52.5 (67469) - http://www.bohemiancoding.com/sketch -->
    <title>share</title>
    <desc>Created with Sketch.</desc>
    <g id="Page-1" stroke="none" stroke-width="1" fill="none" fill-rule="evenodd">
        <g id="Dasnboard_Manager_Dashboard_Page-1.2" transform="translate(-1251.000000, -411.000000)" fill="#324056" fill-rule="nonzero">
            <path d="M1253.92373,414.905623 L1257.7033,413.015835 C1257.6793,412.903236 1257.66667,412.786426 1257.66667,412.666667 C1257.66667,411.746192 1258.41286,411 1259.33333,411 C1260.25381,411 1261,411.746192 1261,412.666667 C1261,413.587141 1260.25381,414.333333 1259.33333,414.333333 C1258.8317,414.333333 1258.38182,414.111714 1258.07627,413.761044 L1254.2967,415.650831 C1254.3207,415.763431 1254.33333,415.88024 1254.33333,416 C1254.33333,416.11976 1254.3207,416.236569 1254.2967,416.349169 L1258.07627,418.238956 C1258.38182,417.888286 1258.8317,417.666667 1259.33333,417.666667 C1260.25381,417.666667 1261,418.412859 1261,419.333333 C1261,420.253808 1260.25381,421 1259.33333,421 C1258.41286,421 1257.66667,420.253808 1257.66667,419.333333 C1257.66667,419.213574 1257.6793,419.096764 1257.7033,418.984165 L1253.92373,417.094377 C1253.61818,417.445047 1253.1683,417.666667 1252.66667,417.666667 C1251.74619,417.666667 1251,416.920475 1251,416 C1251,415.079525 1251.74619,414.333333 1252.66667,414.333333 C1253.1683,414.333333 1253.61818,414.554953 1253.92373,414.905623 Z M1252.66667,416.833333 C1253.1269,416.833333 1253.5,416.460237 1253.5,416 C1253.5,415.539763 1253.1269,415.166667 1252.66667,415.166667 C1252.20643,415.166667 1251.83333,415.539763 1251.83333,416 C1251.83333,416.460237 1252.20643,416.833333 1252.66667,416.833333 Z M1259.33333,413.5 C1259.79357,413.5 1260.16667,413.126904 1260.16667,412.666667 C1260.16667,412.206429 1259.79357,411.833333 1259.33333,411.833333 C1258.8731,411.833333 1258.5,412.206429 1258.5,412.666667 C1258.5,413.126904 1258.8731,413.5 1259.33333,413.5 Z M1259.33333,420.166667 C1259.79357,420.166667 1260.16667,419.793571 1260.16667,419.333333 C1260.16667,418.873096 1259.79357,418.5 1259.33333,418.5 C1258.8731,418.5 1258.5,418.873096 1258.5,419.333333 C1258.5,419.793571 1258.8731,420.166667 1259.33333,420.166667 Z" id="share"></path>
        </g>
    </g>
</svg>