<?xml version="1.0" encoding="UTF-8"?>
<svg width="11px" height="11px" viewBox="0 0 11 11" version="1.1" xmlns="http://www.w3.org/2000/svg" xmlns:xlink="http://www.w3.org/1999/xlink">
    <!-- Generator: Sketch 52.5 (67469) - http://www.bohemiancoding.com/sketch -->
    <title>globe</title>
    <desc>Created with Sketch.</desc>
    <g id="Page-1" stroke="none" stroke-width="1" fill="none" fill-rule="evenodd" opacity="0.5">
        <g id="Dasnboard_Manager_Dashboard_Page-1.2" transform="translate(-1169.000000, -357.000000)" fill="#000000">
            <g id="Group-3" transform="translate(83.000000, 234.000000)">
                <g id="Group-4-Copy" transform="translate(0.000000, 105.000000)">
                    <g id="Group-7" transform="translate(765.000000, 13.000000)">
                        <g id="globe" transform="translate(321.000000, 5.000000)">
                            <polygon id="Path" points="7.95412247 2.42785714 7.96467344 2.50889796 7.84322449 2.53404082 7.82706123 2.70667347 7.97253058 2.70667347 8.16604085 2.68804082 8.26593876 2.56928571 8.15975514 2.52797959 8.10161228 2.46108163 8.01428571 2.31965306 7.97253058 2.11963266 7.80842857 2.15308163 7.76240816 2.22357143 7.76240816 2.30304082 7.84142857 2.35714286"></polygon>
                            <polygon id="Path" points="7.81426531 2.49430612 7.82302041 2.38610204 7.72671429 2.34457143 7.59202041 2.37577551 7.49212245 2.53606123 7.49212245 2.64 7.60863266 2.64"></polygon>
                            <path d="M5.04181632,2.95383673 L5.01218368,3.03016327 L4.86873469,3.03016327 L4.86873469,3.1042449 L4.90285714,3.1042449 C4.90285714,3.1042449 4.90487755,3.11995918 4.90779591,3.14061225 L4.99579591,3.13320409 L5.05079591,3.09908163 L5.06516327,3.03016327 L5.13632653,3.02410204 L5.16438775,2.96618368 L5.09906123,2.95271429 L5.04181632,2.95383673 Z" id="Path"></path>
                            <polygon id="Path" points="4.67208163 3.08830612 4.66646939 3.16081632 4.77040816 3.15206123 4.78118368 3.07932653 4.71877551 3.03016327"></polygon>
                            <path d="M10.9144694,5.40144898 C10.912898,5.24183673 10.9048163,5.08334694 10.8897755,4.92732653 C10.8392653,4.40718368 10.714898,3.90859184 10.5285714,3.44120408 C10.514653,3.40640816 10.5018571,3.37116327 10.4870408,3.33681632 C10.2387551,2.75022449 9.89012247,2.21616327 9.46336734,1.75528571 C9.4353061,1.72520408 9.40679591,1.69557143 9.37828571,1.66638775 C9.2976939,1.58265306 9.21485714,1.50093877 9.12910201,1.42259184 C8.15885714,0.53922449 6.87028571,0 5.45779591,0 C4.03340816,0 2.73563266,0.548877551 1.76269388,1.44571429 C1.53595918,1.65471429 1.32763266,1.88279591 1.13861225,2.12704082 C0.425632653,3.0492449 0,4.20446939 0,5.45779591 C0,8.46753058 2.4485102,10.9158163 5.45802041,10.9158163 C7.57495918,10.9158163 9.41285714,9.70357143 10.317551,7.93728571 C10.5110612,7.55969388 10.6616939,7.15718368 10.7631632,6.73536734 C10.7889796,6.62828571 10.8112041,6.5207551 10.8305102,6.41187755 C10.8855102,6.10185714 10.9155918,5.78308163 10.9155918,5.45779591 C10.9158163,5.43893877 10.9146939,5.42030612 10.9144694,5.40144898 Z M9.88720409,3.22008163 L9.91885714,3.18461225 C9.96038772,3.26520408 9.99922448,3.34714286 10.0362653,3.43020408 L9.98463266,3.42818368 L9.88720409,3.44165306 L9.88720409,3.22008163 Z M9.09857143,2.26779592 L9.09946942,2.024 C9.18522448,2.11491837 9.26783676,2.20853061 9.34685714,2.3055102 L9.24853058,2.45187755 L8.90483676,2.4487347 L8.88328571,2.37712245 L9.09857143,2.26779592 Z M2.51473469,1.66189796 L2.51473469,1.65269388 L2.62406123,1.65269388 L2.6334898,1.61520409 L2.81240816,1.61520409 L2.81240816,1.69332653 L2.761,1.76202041 L2.5145102,1.76202041 L2.51473469,1.66189796 Z M2.68938775,1.90546939 C2.68938775,1.90546939 2.79871429,1.88683673 2.80814286,1.88683673 C2.81757143,1.88683673 2.80814286,1.99593877 2.80814286,1.99593877 L2.56165306,2.01142857 L2.51473469,1.95530612 L2.68938775,1.90546939 Z M10.2349388,4.07202041 L9.83557143,4.07202041 L9.59222448,3.89085714 L9.33608162,3.91577551 L9.33608162,4.07202041 L9.25504085,4.07202041 L9.16748981,4.00961225 L8.72389799,3.89714286 L8.72389799,3.60979591 L8.16177552,3.65357143 L7.98757143,3.74718368 L7.76442857,3.74718368 L7.65510204,3.73618368 L7.38414286,3.88659184 L7.38414286,4.16967347 L6.83032653,4.5692653 L6.87634694,4.73987755 L6.98859184,4.73987755 L6.95918368,4.90240816 L6.88016327,4.93136734 L6.87589796,5.35610204 L7.3545102,5.90116327 L7.56283673,5.90116327 L7.57540816,5.86793877 L7.94985714,5.86793877 L8.05783676,5.76804082 L8.27020409,5.76804082 L8.38671429,5.88477551 L8.70324486,5.91755102 L8.66126533,6.33846939 L9.01259181,6.95873469 L8.82761228,7.31230612 L8.84018371,7.47887755 L8.98587753,7.62412245 L8.98587753,8.02461228 L9.17714286,8.28187753 L9.17714286,8.61457143 L9.34236734,8.61457143 C8.42285714,9.74353058 7.02338775,10.4666123 5.45757143,10.4666123 C2.69589796,10.4668368 0.448979591,8.2196939 0.448979591,5.45779591 C0.448979591,4.76255102 0.591755102,4.09985714 0.848795915,3.49755102 L0.848795915,3.34130612 L1.02793877,3.12377551 C1.09012245,3.00636734 1.15679591,2.89187755 1.22795918,2.78030612 L1.23604082,2.87122449 L1.02816327,3.12377551 C0.963734695,3.24544898 0.903571429,3.36981632 0.849020409,3.49755102 L0.849020409,3.78265306 L1.05712245,3.88277551 L1.05712245,4.279 L1.25669388,4.61955102 L1.419,4.64446939 L1.43987755,4.52773469 L1.24838775,4.23230612 L1.21089796,3.94518368 L1.32314286,3.94518368 L1.3705102,4.24061225 L1.64730612,4.64446939 L1.57591837,4.77489796 L1.75191837,5.04406123 L2.189,5.1522653 L2.189,5.08155102 L2.36387755,5.10646939 L2.3472653,5.23128571 L2.48465306,5.25642857 L2.69679591,5.31434694 L2.9964898,5.65579591 L3.3792449,5.6847551 L3.41673469,5.99702041 L3.1547551,6.18020408 L3.14240816,6.45902041 L3.10491837,6.62963266 L3.48385714,7.10397959 L3.51281632,7.2665102 C3.51281632,7.2665102 3.65020408,7.30377551 3.66704082,7.30377551 C3.68365306,7.30377551 3.97504082,7.52444898 3.97504082,7.52444898 L3.97504082,8.38177552 L4.07897959,8.41095915 L4.0082653,8.80651019 L4.18314286,9.03975514 L4.15081632,9.43171429 L4.38181632,9.83781629 L4.67836734,10.0968775 L4.9764898,10.1022653 L5.00567347,10.0064082 L4.78657143,9.82187753 L4.79914286,9.73028571 L4.83842857,9.61804085 L4.84673469,9.50355104 L4.69857143,9.49906124 L4.62381632,9.40522448 L4.74683673,9.28691838 L4.76344898,9.19757143 L4.62606123,9.15828571 L4.63414286,9.07522448 L4.82989796,9.04559181 L5.12757143,8.90259181 L5.22746939,8.71940819 L5.53973469,8.31981629 L5.46879591,8.00732656 L5.56465306,7.84097959 L5.85177551,7.84973469 L6.04506123,7.69663266 L6.10746939,7.09365306 L6.32185714,6.82134694 L6.35934694,6.64646939 L6.16381632,6.58383673 L6.03473469,6.37214286 L5.59361225,6.36765306 L5.24385714,6.23430612 L5.2272449,5.98489796 L5.1105102,5.78083673 L4.79420408,5.77612245 L4.61146939,5.48922449 L4.44916327,5.40997959 L4.44085714,5.49753061 L4.14542857,5.51504082 L4.03722449,5.36440816 L3.729,5.30177551 L3.47510204,5.59518368 L3.0755102,5.52738775 L3.04655102,5.07706123 L2.75493877,5.02722449 L2.87189796,4.80632653 L2.83844898,4.6794898 L2.4552449,4.93563266 L2.21414286,4.90622449 L2.12816327,4.71787755 L2.18069388,4.52369388 L2.31359184,4.27877551 L2.61957143,4.12387755 L3.21042857,4.12365306 L3.20885714,4.30391837 L3.42122449,4.40269388 L3.40438775,4.09469388 L3.5574898,3.94069388 L3.86638775,3.7377551 L3.8874898,3.59497959 L4.1954898,3.27440816 L4.52302041,3.09302041 L4.49406123,3.06922449 L4.71585714,2.86044898 L4.79712245,2.882 L4.83438775,2.92869388 L4.91857143,2.83530612 L4.93922449,2.82610204 L4.84695918,2.81308163 L4.75334694,2.78187755 L4.75334694,2.69208163 L4.80295918,2.65144898 L4.91228571,2.65144898 L4.96234694,2.67344898 L5.00567347,2.761 L5.05865306,2.75291837 L5.05865306,2.74528571 L5.07391837,2.75044898 L5.22746939,2.72687755 L5.2492449,2.65189796 L5.33679591,2.67389796 L5.33679591,2.75516327 L5.25553061,2.81106123 L5.2557551,2.81106123 L5.26765306,2.90018368 L5.54579591,2.98593877 C5.54579591,2.98593877 5.54602041,2.98706123 5.54646939,2.98930612 L5.61044898,2.98391837 L5.61471429,2.86336734 L5.3942653,2.76302041 L5.38169388,2.70510204 L5.56465306,2.64269388 L5.57273469,2.46759184 L5.38146939,2.35108163 L5.36889796,2.05587755 L5.10669388,2.18473469 L5.01106123,2.18473469 L5.03620408,1.96002041 L4.6792653,1.87583673 L4.53155102,1.98740816 L4.53155102,2.32773469 L4.26597959,2.41191837 L4.15957143,2.63371429 L4.04418368,2.65234694 L4.04418368,2.36859184 L3.79455102,2.33402041 L3.66973469,2.2527551 L3.61944898,2.06889796 L4.06595918,1.80759184 L4.28438775,1.74114286 L4.30638775,1.88795918 L4.42806123,1.88167347 L4.4374898,1.80781632 L4.56477551,1.78963266 L4.56702041,1.76381632 L4.5122449,1.74114286 L4.49967347,1.66302041 L4.65614286,1.64977551 L4.75065306,1.55144898 L4.75581632,1.5442653 L4.75693877,1.54471429 L4.78567347,1.51508163 L5.11455102,1.47355102 L5.26002041,1.59702041 L4.87861225,1.80018368 L5.36395918,1.91467347 L5.42681632,1.75236734 L5.63895918,1.75236734 L5.71393877,1.61093877 L5.56397959,1.57344898 L5.56397959,1.39453061 L5.09367347,1.18620408 L4.76906123,1.22369388 L4.58587755,1.31955102 L4.59844898,1.55257143 L4.40695918,1.52338775 L4.37755102,1.39453061 L4.56095918,1.22795918 L4.22804082,1.21134694 L4.13240816,1.24030612 L4.09087755,1.35255102 L4.21569388,1.37365306 L4.19077551,1.49846939 L3.97863266,1.51104082 L3.94540816,1.59410204 L3.63763266,1.60263266 C3.63763266,1.60263266 3.62910204,1.42797959 3.6167551,1.42797959 C3.60440816,1.42797959 3.85808163,1.42371429 3.85808163,1.42371429 L4.0414898,1.24457143 L3.94136734,1.1945102 L3.8082449,1.32381632 L3.58734694,1.3112449 L3.45422449,1.12806123 L3.17114286,1.12806123 L2.87571429,1.34873469 L3.14644898,1.34873469 L3.17114286,1.42797959 L3.10087755,1.49330612 L3.40057143,1.50161225 L3.44636734,1.60981632 L3.10895918,1.5972449 L3.09257143,1.51395918 L2.88042857,1.46816327 L2.76795918,1.4057551 L2.51540816,1.40777551 C3.34220408,0.80546939 4.35891837,0.448979591 5.45779591,0.448979591 C6.72436734,0.448979591 7.88161228,0.922428571 8.76453058,1.70028571 L8.70504085,1.80669388 L8.47404085,1.89716327 L8.37661228,2.00289796 L8.39906124,2.12614286 L8.51826533,2.1427551 L8.59010201,2.32234694 L8.79573467,2.2395102 L8.82963266,2.47971429 L8.76767344,2.47971429 L8.59885714,2.45479591 L8.41163266,2.48622449 L8.23046942,2.74214286 L7.97140819,2.78277551 L7.93391838,3.00457143 L8.04324486,3.03038775 L8.01159181,3.17293877 L7.75432653,3.12130612 L7.51838775,3.17293877 L7.46832653,3.3042653 L7.50918368,3.57993877 L7.64769388,3.64481632 L7.88004085,3.64346939 L8.03695915,3.62932653 L8.08477552,3.5045102 L8.32991838,3.18595918 L8.49132656,3.21895918 L8.65026533,3.07528571 L8.67989799,3.18753061 L9.07095915,3.45130612 L9.02314286,3.5155102 L8.84691838,3.50608163 L8.91471429,3.60216327 L9.02314286,3.62595918 L9.15020409,3.57297959 L9.14751019,3.41987755 L9.20385714,3.39159184 L9.15851019,3.34355102 L8.89765305,3.19808163 L8.82895915,3.00479591 L9.04581629,3.00479591 L9.11518371,3.0734898 L9.30195915,3.23444898 L9.30981629,3.42908163 L9.50332656,3.63516327 L9.57538772,3.3527551 L9.70940819,3.27957143 L9.73455104,3.51057143 L9.86542857,3.6542449 L10.1265102,3.6497551 C10.1770204,3.77973469 10.2223673,3.91195918 10.262102,4.04687755 L10.2349388,4.07202041 Z M2.97695918,2.47971429 L3.10806123,2.41730612 L3.22659184,2.44559184 L3.18573469,2.6047551 L3.05777551,2.64538775 L2.97695918,2.47971429 Z M3.67265306,2.85438775 L3.67265306,2.95742857 L3.37318368,2.95742857 L3.26093877,2.92622449 L3.289,2.85438775 L3.43289796,2.79489796 L3.62955102,2.79489796 L3.62955102,2.85438775 L3.67265306,2.85438775 Z M3.8104898,2.99806123 L3.8104898,3.09795918 L3.7355102,3.14622449 L3.64212245,3.1635102 C3.64212245,3.1635102 3.64212245,3.01377551 3.64212245,2.99806123 L3.8104898,2.99806123 Z M3.72608163,2.95742857 L3.72608163,2.83867347 L3.82912245,2.9325102 L3.72608163,2.95742857 Z M3.773,3.19763266 L3.773,3.29483673 L3.70138775,3.36667347 L3.54222449,3.36667347 L3.56714286,3.25757143 L3.64234694,3.25106123 L3.65783673,3.21357143 L3.773,3.19763266 Z M3.37655102,2.99806123 L3.542,2.99806123 L3.32985714,3.29461225 L3.24230612,3.24769388 L3.26116327,3.12287755 L3.37655102,2.99806123 Z M4.05406123,3.1635102 L4.05406123,3.2604898 L3.89489796,3.2604898 L3.85134694,3.19763266 L3.85134694,3.10738775 L3.86391837,3.10738775 L4.05406123,3.1635102 Z M3.90702041,3.03016327 L3.95236734,2.98257143 L4.02891837,3.03016327 L3.96763266,3.08067347 L3.90702041,3.03016327 Z M10.3162041,4.32479592 L10.3319184,4.30638775 C10.3384286,4.33467347 10.3453877,4.36295918 10.3516734,4.39169388 L10.3162041,4.32479592 Z" id="Shape" fill-rule="nonzero"></path>
                            <path d="M0.849020409,3.34130612 L0.849020409,3.49755102 C0.903571429,3.37004082 0.963734695,3.24567347 1.02816327,3.12377551 L0.849020409,3.34130612 Z" id="Path"></path>
                        </g>
                    </g>
                </g>
            </g>
        </g>
    </g>
</svg>