<?xml version="1.0" encoding="UTF-8"?>
<svg width="512px" height="512px" viewBox="0 0 512 512" version="1.1" xmlns="http://www.w3.org/2000/svg" xmlns:xlink="http://www.w3.org/1999/xlink">
    <!-- Generator: Sketch 59 (86127) - https://sketch.com -->
    <title>task-icon</title>
    <desc>Created with Sketch.</desc>
    <g id="task-icon" stroke="none" stroke-width="1" fill="none" fill-rule="evenodd">
        <g transform="translate(37.500000, 0.500000)" fill="#000000" fill-rule="nonzero" id="Shape">
            <path d="M378.629286,36.4852857 L358.34,36.4852857 L358.34,11.826 C358.34,5.43026645 353.155234,0.2455 346.7595,0.2455 C340.363766,0.2455 335.179,5.43026645 335.179,11.826 L335.179,36.6101429 L101.134286,36.6101429 L101.134286,11.7947857 C101.134286,5.39043258 95.9425317,0.198678571 89.5381786,0.198678571 C83.1338254,0.198678571 77.9420714,5.39043258 77.9420714,11.7947857 L77.9420714,36.6101429 L58.2458571,36.6101429 C26.2398471,36.6273643 0.298149996,62.5690614 0.280928571,94.5750714 L0.280928571,452.821429 C0.280928571,484.847286 26.2512143,510.786357 58.2458571,510.786357 L378.504429,510.786357 C410.510439,510.769136 436.452136,484.827439 436.469357,452.821429 L436.469357,94.4814286 C436.469357,62.5169789 410.593661,36.5853518 378.629286,36.5165 L378.629286,36.4852857 Z M413.402,452.759 C413.350548,471.942087 397.812373,487.480262 378.629286,487.531714 L58.2458571,487.531714 C39.0627701,487.480262 23.5245953,471.942087 23.4731429,452.759 L23.4731429,94.4502143 C23.5355714,75.2846429 39.0802857,59.7399286 58.2458571,59.6775 L77.9420714,59.6775 L77.9420714,77.6569286 C77.9420714,84.0612817 83.1338254,89.2530357 89.5381786,89.2530357 C95.9425317,89.2530357 101.134286,84.0612817 101.134286,77.6569286 L101.134286,59.6775 L335.179,59.6775 L335.179,77.6569286 C335.179,84.0526621 340.363766,89.2374286 346.7595,89.2374286 C353.155234,89.2374286 358.34,84.0526621 358.34,77.6569286 L358.34,59.6775 L378.629286,59.6775 C397.826071,59.7399286 413.339571,75.2846429 413.402,94.4502143 L413.402,452.759 Z"></path>
            <path d="M147.737214,245.964357 L104.973643,286.761429 L85.2462143,267.065214 C82.3624799,263.994042 78.035252,262.73671 73.9547482,263.784333 C69.8742444,264.831955 66.687884,268.018316 65.6402611,272.09882 C64.5926382,276.179323 65.8499703,280.506551 68.9211429,283.390286 L96.6082143,311.108571 C98.7932143,313.293571 101.758571,314.510929 104.848786,314.4485 C107.838178,314.472413 110.71388,313.304159 112.839643,311.202214 L163.718929,262.507929 C167.132341,259.765739 168.70157,255.329109 167.771372,251.05059 C166.841174,246.772072 163.571521,243.387469 159.327683,242.310052 C155.083845,241.232635 150.595663,242.647693 147.737214,245.964357 L147.737214,245.964357 Z M359.8695,267.065214 L226.5845,267.065214 C220.188766,267.065214 215.004,272.249981 215.004,278.645714 C215.004,285.041448 220.188766,290.226214 226.5845,290.226214 L359.8695,290.226214 C366.265234,290.226214 371.45,285.041448 371.45,278.645714 C371.45,272.249981 366.265234,267.065214 359.8695,267.065214 Z M147.737214,130.065714 L104.973643,170.831571 L85.2462143,151.135357 C82.3244453,148.219164 78.0688488,147.083236 74.0824669,148.155465 C70.096085,149.227695 66.9845439,152.345185 65.9199311,156.333608 C64.8553183,160.322031 65.9993738,164.57545 68.9211429,167.491643 L96.6082143,195.178714 C98.7932143,197.363714 101.758571,198.612286 104.848786,198.549857 C107.838178,198.57377 110.71388,197.405516 112.839643,195.303571 L163.718929,146.609286 C167.132341,143.867096 168.70157,139.430466 167.771372,135.151947 C166.841174,130.873429 163.571521,127.488826 159.327683,126.411409 C155.083845,125.333992 150.595663,126.74905 147.737214,130.065714 L147.737214,130.065714 Z M359.8695,151.135357 L226.5845,151.135357 C220.180147,151.135357 214.988393,156.327111 214.988393,162.731464 C214.988393,169.135817 220.180147,174.327571 226.5845,174.327571 L359.8695,174.327571 C366.273853,174.327571 371.465607,169.135817 371.465607,162.731464 C371.465607,156.327111 366.273853,151.135357 359.8695,151.135357 L359.8695,151.135357 Z M147.737214,361.863 L104.973643,402.660071 L85.2462143,382.963857 C82.3244453,380.047664 78.0688488,378.911736 74.0824669,379.983965 C70.096085,381.056195 66.9845439,384.173685 65.9199311,388.162108 C64.8553183,392.150531 65.9993738,396.40395 68.9211429,399.320143 L96.6082143,427.007214 C98.7932143,429.192214 101.758571,430.440786 104.848786,430.378357 C107.838178,430.40227 110.71388,429.234016 112.839643,427.132071 L163.718929,378.437786 C167.132341,375.695596 168.70157,371.258966 167.771372,366.980447 C166.841174,362.701929 163.571521,359.317326 159.327683,358.239909 C155.083845,357.162492 150.595663,358.57755 147.737214,361.894214 L147.737214,361.863 Z M359.8695,382.963857 L226.5845,382.963857 C220.180147,382.963857 214.988393,388.155611 214.988393,394.559964 C214.988393,400.964317 220.180147,406.156071 226.5845,406.156071 L359.8695,406.156071 C366.273853,406.156071 371.465607,400.964317 371.465607,394.559964 C371.465607,388.155611 366.273853,382.963857 359.8695,382.963857 L359.8695,382.963857 Z"></path>
        </g>
    </g>
</svg>