<?xml version="1.0" encoding="UTF-8"?><svg id="trim_area" xmlns="http://www.w3.org/2000/svg" viewBox="0 0 192 192"><defs><style>.cls-1{fill:none;}.cls-2{fill:#324056;}</style></defs><g id="Filter"><g><rect class="cls-1" x="0" width="192" height="192"/><g><path class="cls-2" d="M163.98,48.11h-21.6c-2.42,0-4.38,1.96-4.38,4.38v3.24c0,2.42,1.96,4.38,4.38,4.38h21.6c1.12,0,2.02,.9,2.02,2.02v63.8c0,1.11-.91,2.02-2.02,2.02h-21.6c-2.42,0-4.38,1.96-4.38,4.38v3.23c0,2.42,1.96,4.38,4.38,4.38h21.6c7.74,0,14.02-6.28,14.02-14.02V62.13c0-7.74-6.28-14.02-14.02-14.02ZM28.02,60.11H97.61c2.43,0,4.39-1.97,4.39-4.39v-3.21c0-2.43-1.97-4.39-4.39-4.39H28.02c-7.74,0-14.02,6.28-14.02,14.02v63.8c0,7.74,6.28,14.02,14.02,14.02H97.62c2.42,0,4.38-1.96,4.38-4.38v-3.24c0-2.42-1.96-4.38-4.38-4.38H28.02c-1.11,0-2.02-.91-2.02-2.02V62.13c0-1.12,.9-2.02,2.02-2.02Z"/><path class="cls-2" d="M126,41.95v104h3.9c2.55,0,4.62,2.07,4.62,4.61v2.52c0,2.55-2.07,4.61-4.62,4.61h-19.8c-2.55,0-4.62-2.06-4.62-4.61v-2.52c0-2.54,2.07-4.61,4.62-4.61h3.9V41.95h-3.92c-2.54,0-4.6-2.06-4.6-4.6v-2.54c0-2.54,2.06-4.6,4.6-4.6h19.84c2.54,0,4.6,2.06,4.6,4.6v2.54c0,2.54-2.06,4.6-4.6,4.6h-3.92Z"/></g></g></g></svg>