<svg xmlns="http://www.w3.org/2000/svg" viewBox="0 0 192 192"><defs><style>.cls-1{fill:none;}.cls-2{fill:#334056;}</style></defs><g id="trim_area" data-name="trim area"><g id="Filter"><rect class="cls-1" width="192" height="192"/><path class="cls-2" d="M167,34.39H126.3V28.15a11.9,11.9,0,0,0-11.89-11.89H77.83A11.9,11.9,0,0,0,65.92,28.15v6.24H25a7.5,7.5,0,0,0-7.57,7.14,7.34,7.34,0,0,0,7.34,7.54h9.76v108.7a22.54,22.54,0,0,0,22.52,22.52h78.13a22.55,22.55,0,0,0,22.52-22.52V49.07h9.53a7.33,7.33,0,0,0,7.34-7.54A7.5,7.5,0,0,0,167,34.39ZM78.73,29.07h34.76v5.32H78.73ZM143,157.68a7.93,7.93,0,0,1-7.92,7.92H57.14a7.93,7.93,0,0,1-7.92-7.92V49.07H143Z"/></g></g></svg>