<svg viewBox="0 0 512 512" xmlns="http://www.w3.org/2000/svg">
  <path d="M76.162 373.845c4.126 4.171 4.087 10.896-.086 15.021l-6.32 6.308c-19.362 19.524-32.547 34.757-39.432 45.455-1.414 2.198-2.504 4.122-3.287 5.715l-.462.98.35.001c14.125-.591 52.017-15.013 109.496-43.088l12.734-6.284c29.857-13.93 49.807-15.273 56.458 3.202 4.615 12.82-1.78 32.675-18.27 62.36l-3.831 6.759c-5.758 9.976-8.113 16.854-7.96 20.024l.057.544c.074-.095.346-.128 1.393-.118l1.666.034c10.914.274 31.615-6.453 57.99-18.387 9.15-4.14 18.752-8.795 28.605-13.823a907.25 907.25 0 0021.488-11.337l11.209-6.205 7.3-4.164 7.891-4.126c127.71-65.89 197.134-57.563 194.782 31.42-.155 5.864-5.036 10.493-10.903 10.339-5.866-.154-10.495-5.033-10.34-10.897 1.773-67.064-50.61-72-171.092-8.183l-3.165 1.824a808.131 808.131 0 01-8.58 4.83 938.252 938.252 0 01-28.931 15.42c-10.134 5.17-20.03 9.968-29.505 14.255-29.293 13.255-52.06 20.654-67.288 20.27-25.793-.648-30.322-20.996-14.237-50.183l1.214-2.151c15.41-26.702 21.968-44.631 20.686-50.684l-.135-.473-.043.075c-.089.064-.318.121-.85.18l-1.511.126c-5.42.365-13.93 3.102-24.865 8.2l-17.56 8.648c-67.859 32.99-107.335 46.725-124.143 41.534-16.695-5.156-15.62-20.432-4.232-38.128 8.652-13.444 24.824-31.792 48.683-55.376 4.173-4.125 10.9-4.088 15.026.083zM358.735 7.037c8.835-9.347 24.669-9.347 33.315-.214l55.8 55.837c8.313 9.197 7.906 23.503-1.051 32.008L224.838 316.623l-.39.466c-1.225 1.336-2.446 2.288-4.134 3.364l-1.362.84-1.688.82c-34.14 12.991-60.396 22.697-78.802 29.128l-11.209 3.837c-6.498 2.166-11.56 3.73-15.24 4.7l-1.58.402c-2.013.49-3.651.796-5.075.918-1.98.169-3.677.082-5.76-.709-5.779-2.193-8.648-8.664-6.447-13.869L131.8 236.249c1.104-2.818 2.763-5.344 5.113-7.426l.161-.14zm-47.702 77.741l-159.24 159.235-.304.256-31.887 90.952 1.048-.336 13.257-4.559c10.824-3.808 24.253-8.701 40.28-14.676l34.755-13.111.647-.707 159.261-159.26-57.817-57.794zm65.787-63.143c-.461-.487-2.187-.487-2.847.206l-47.916 47.913 57.817 57.795 48.09-48.09c.729-.692.762-1.843-.07-2.742l-.125-.127z" fill="#000" fill-rule="nonzero"/>
</svg>
