<?xml version="1.0" encoding="UTF-8"?>
<svg width="58px" height="121px" viewBox="0 0 58 121" version="1.1" xmlns="http://www.w3.org/2000/svg" xmlns:xlink="http://www.w3.org/1999/xlink">
    <title>Group</title>
    <g id="Symbols" stroke="none" stroke-width="1" fill="none" fill-rule="evenodd">
        <g id="Action-cards/Delivery-" transform="translate(-265.000000, -37.000000)" fill="#F2F2F2" fill-rule="nonzero" stroke="#F2F2F2" stroke-width="7">
            <g id="Deliveries-Copy" transform="translate(250.000000, 0.000000)">
                <g transform="translate(5.000000, 27.000000)" id="Group">
                    <g transform="translate(14.000000, 14.000000)">
                        <path d="M104.07425,0 L8.92575039,0 C3.9942733,0 0,3.9942733 0,8.92575039 L0,104.07425 C0,109.005727 3.9942733,113 8.92575039,113 L104.07425,113 C109.005727,113 113,109.005727 113,104.07425 L113,8.92575039 C113,3.9942733 109.005727,0 104.07425,0 L104.07425,0 Z M69.5241575,5.96537651 L69.5241575,44.688257 C69.5241575,46.2874539 68.2224855,47.5891259 66.6232886,47.5891259 L46.3767114,47.5891259 C44.7775145,47.5891259 43.4758425,46.2874539 43.4758425,44.688257 L43.4758425,5.96537651 L69.5241575,5.96537651 L69.5241575,5.96537651 Z M107.0495,104.07425 C107.0495,105.718075 105.718075,107.0495 104.07425,107.0495 L8.92575039,107.0495 C7.2819247,107.0495 5.95050026,105.718075 5.95050026,104.07425 L5.95050026,8.92575039 C5.95050026,7.2819247 7.2819247,5.95050026 8.92575039,5.95050026 L37.5253423,5.95050026 L37.5253423,44.688257 C37.5253423,49.5751053 41.4898631,53.5396261 46.3767114,53.5396261 L66.6232886,53.5396261 C71.5101369,53.5396261 75.4746577,49.5751053 75.4746577,44.688257 L75.4746577,5.95050026 L104.07425,5.95050026 C105.718075,5.95050026 107.0495,7.2819247 107.0495,8.92575039 L107.0495,104.07425 L107.0495,104.07425 Z" id="Shape"></path>
                    </g>
                </g>
            </g>
        </g>
    </g>
</svg>