<?xml version="1.0" encoding="UTF-8"?>
<svg width="500px" height="500px" viewBox="0 0 500 500" version="1.1" xmlns="http://www.w3.org/2000/svg" xmlns:xlink="http://www.w3.org/1999/xlink">
    <!-- Generator: Sketch 60.1 (88133) - https://sketch.com -->
    <title>walk in delivery</title>
    <desc>Created with Sketch.</desc>
    <g id="walk-in-delivery" stroke="none" stroke-width="1" fill="none" fill-rule="evenodd">
        <g id="walk" transform="translate(50.000000, 49.609375)" fill-rule="nonzero">
            <g id="Icons" transform="translate(5.885417, 6.666667)">
                <path d="M387.447917,226.666667 L387.447917,320 C387.447917,334.727593 375.508843,346.666667 360.78125,346.666667 L334.114583,346.666667 C321.962035,346.657602 311.352718,338.433325 308.314583,326.666667 C326.384754,326.196685 340.787361,311.409614 340.78125,293.333333 L340.78125,200 L360.78125,200 C375.508843,200 387.447917,211.939073 387.447917,226.666667 Z" id="Shape" fill="#CAD9FC"></path>
                <path d="M367.447917,226.666667 L367.447917,320 C367.447917,334.727593 355.508843,346.666667 340.78125,346.666667 L334.114583,346.666667 C321.962035,346.657602 311.352718,338.433325 308.314583,326.666667 C326.384754,326.196685 340.787361,311.409614 340.78125,293.333333 L340.78125,200 C355.508843,200 367.447917,211.939073 367.447917,226.666667 Z" id="Shape" fill="#E8EDFC"></path>
                <path d="M387.448889,60 C387.448889,74.7275933 375.508843,86.6666667 360.78125,86.6666667 L294.114583,86.6666667 C279.38699,86.6666667 267.446945,74.7275933 267.446945,60 C267.427819,57.7484341 267.719475,55.5049224 268.314583,53.3333333 C271.352718,41.5666748 281.962035,33.342398 294.114583,33.3333333 C294.084541,18.7507323 303.536963,5.84142533 317.447917,1.46666667 C320.694535,0.5046844 324.061795,0.0108196 327.447917,0 C345.857408,0 360.78125,14.9238417 360.78125,33.3333333 C372.933799,33.342398 383.543115,41.5666748 386.58125,53.3333333 C387.176358,55.5049224 387.468015,57.7484341 387.448889,60 Z" id="Shape" fill="#CAD9FC"></path>
                <path d="M367.448889,60 C367.448889,74.7275933 355.508843,86.6666667 340.78125,86.6666667 L294.114583,86.6666667 C279.38699,86.6666667 267.446945,74.7275933 267.446945,60 C267.427819,57.7484341 267.719475,55.5049224 268.314583,53.3333333 C271.352718,41.5666748 281.962035,33.342398 294.114583,33.3333333 C294.084541,18.7507323 303.536963,5.84142533 317.447917,1.46666667 C331.358871,5.84142533 340.811292,18.7507323 340.78125,33.3333333 C352.933799,33.342398 363.543115,41.5666748 366.58125,53.3333333 C367.176358,55.5049224 367.468015,57.7484341 367.448889,60 Z" id="Shape" fill="#E8EDFC"></path>
                <path d="M120.782222,86.6666667 C120.782222,101.39426 108.842177,113.333333 94.1145833,113.333333 L27.4479167,113.333333 C12.7203233,113.333333 0.78027796,101.39426 0.78027796,86.6666667 C0.761151867,84.4151007 1.05280833,82.1715893 1.64791667,80 C4.6860512,68.2333413 15.2953683,60.0090647 27.4479167,60 C27.4479167,41.5905083 42.3717583,26.6666667 60.78125,26.6666667 C79.1907413,26.6666667 94.1145833,41.5905083 94.1145833,60 C106.267132,60.0090647 116.876449,68.2333413 119.914583,80 C120.509691,82.1715893 120.801348,84.4151007 120.782222,86.6666667 Z" id="Shape" fill="#E8EDFC"></path>
                <rect id="Rectangle-path" fill="#CAD9FC" x="234.114583" y="140" width="106.666667" height="186.666667" rx="42.6666667"></rect>
                <g id="Group" transform="translate(40.781250, 0.000000)" fill="#E8EDFC">
                    <rect id="Rectangle-path" x="193.333333" y="140" width="86.6666667" height="186.666667" rx="42.6666667"></rect>
                    <path d="M136.466667,386.133333 C129.418561,388.15238 122.062618,384.102145 120,377.066667 C102.133333,329.266667 107.666667,339.333333 91.7333333,320.533333 C89.9191833,318.411922 86.975488,317.645309 84.3570253,318.612355 C81.738562,319.579401 79.9997853,322.075336 80,324.866667 C79.991672,330.408153 78.54444,335.852501 75.8,340.666667 L53.3333333,380 C49.6514353,386.406503 41.47317,388.615231 35.0666667,384.933333 C28.6601633,381.251435 26.451435,373.07317 30.1333333,366.666667 L49.1333333,333.333333 C54.2,324.266667 53.3333333,320 53.3333333,293.333333 L100,294.066667 C121.933333,315.333333 126.666667,318.266667 129.8,327.4 L145.6,369.733333 C147.571465,376.780051 143.495483,384.098967 136.466667,386.133333 L136.466667,386.133333 Z" id="Shape"></path>
                    <circle id="Oval" cx="80" cy="173.333333" r="20"></circle>
                    <circle id="Oval" cx="133.333333" cy="26.6666667" r="26.6666667"></circle>
                    <path d="M166.666667,266.666667 C166.6635,270.764546 164.776148,274.63336 161.548497,277.158216 C158.320846,279.683072 154.111445,280.583493 150.133333,279.6 C106,265.266667 112.6,268.933333 100,256.733333 L100,293.333333 L53.3333333,293.333333 L53.3333333,252.266667 C38.8,262.333333 43.0666667,257.6 25.2,285.6 C21.5427555,291.126347 14.3818463,293.127973 8.38911213,290.299001 C2.396378,287.470029 -0.609161733,280.669157 1.33333333,274.333333 L17.7333333,247.666667 C21.6,241 25.2666667,239.4 46.4666667,224.666667 C50.9409033,221.601635 56.2433353,219.973696 61.6666667,219.999686 L89.2666667,219.999686 C96.14632,219.992237 102.762785,222.6436 107.733333,227.4 C128.133333,247.4 120.066667,242.2 156.666667,254.066667 C162.443482,255.556504 166.527567,260.702451 166.666667,266.666667 Z" id="Shape"></path>
                </g>
            </g>
            <g id="Icons_copy" transform="translate(6.666667, 33.333333)" fill="#FFFFFF">
                <path d="M120,166.666667 C123.524453,166.649415 126.979046,165.68213 130,163.866667 C123.92827,160.263913 120.205881,153.726818 120.205881,146.666667 C120.205881,139.606515 123.92827,133.06942 130,129.466667 C126.979046,127.651203 123.524453,126.683918 120,126.666667 C108.954305,126.666667 100,135.620972 100,146.666667 C100,157.712361 108.954305,166.666667 120,166.666667 Z" id="Shape"></path>
                <path d="M61.3333333,247.666667 L77.7333333,221 C81.6,214.333333 85.2666667,212.733333 106.466667,198 C110.940903,194.934969 116.243335,193.307029 121.666667,193.332713 L101.666667,193.332713 C96.236238,193.326633 90.9331933,194.97802 86.4666667,198.066667 C65.2666667,212.8 61.6,214.266667 57.7333333,221.066667 L41.3333333,247.733333 C38.8150689,253.666349 40.9013011,260.551317 46.289205,264.088665 C51.6771089,267.626012 58.82397,266.802892 63.2666667,262.133333 C59.8058081,258.123252 59.0469385,252.444814 61.3333333,247.666667 L61.3333333,247.666667 Z" id="Shape"></path>
                <path d="M90.1333333,340 L109.133333,306.666667 C114.2,297.6 113.333333,293.333333 113.333333,266.666667 L93.3333333,266.666667 C93.3333333,293.866667 94.2,297.866667 89.1333333,306.666667 L70.1333333,340 C66.8768913,345.934753 68.58449,353.367845 74.1045207,357.286385 C79.6245513,361.204926 87.2048867,360.365119 91.7333333,355.333333 C87.99973,351.079823 87.358288,344.932673 90.1333333,340 Z" id="Shape"></path>
                <path d="M113.333333,225.6 C104.613739,230.122305 97.595998,237.350578 93.3333333,246.2 L93.3333333,266.666667 L113.333333,266.666667 L113.333333,225.6 Z" id="Shape"></path>
                <path d="M20,60 C20,45.2724067 31.9390733,33.3333333 46.6666667,33.3333333 C46.7238555,18.8245707 56.1593795,6.0192166 70,1.66666667 C59.8890041,-1.66763493 48.7904607,0.0809882 40.1945013,6.36265087 C31.5985419,12.6443135 26.5612411,22.6872688 26.6666667,33.3333333 C11.9390733,33.3333333 0,45.2724067 0,60 C0,74.7275933 11.9390733,86.6666667 26.6666667,86.6666667 L46.6666667,86.6666667 C31.9390733,86.6666667 20,74.7275933 20,60 Z" id="Shape"></path>
            </g>
            <path d="M77,234.466667 L84.6,245.4 L79.1333333,249.2 L76.4,251.133333 C75.676416,251.595943 74.9858633,252.108289 74.3333333,252.666667 C71.6418647,255.314067 69.3912087,258.374958 67.6666667,261.733333 L53.6666667,284.466667 L42.3333333,277.466667 L56.2666667,254.866667 L60.0666667,248.866667 C61.6016808,246.543365 63.4655233,244.454963 65.6,242.666667 C66.617059,241.761384 67.6855007,240.915534 68.8,240.133333 L71.5333333,238.266667 L77,234.466667 Z" id="Shape" fill="#FFFFFF"></path>
            <g id="Group" fill="#428DFF">
                <path d="M20,386.666667 L6.66666667,386.666667 C2.98476833,386.666667 0,389.651435 0,393.333333 C0,397.015231 2.98476833,400 6.66666667,400 L20,400 C23.6818983,400 26.6666667,397.015231 26.6666667,393.333333 C26.6666667,389.651435 23.6818983,386.666667 20,386.666667 Z" id="Shape"></path>
                <path d="M372.8,33.9333333 C369.613472,14.615594 352.912123,0.443496333 333.333333,0.443496333 C313.754543,0.443496333 297.053195,14.615594 293.866667,33.9333333 C277.021119,37.1723834 265.384375,52.6676455 266.970069,69.748322 C268.555762,86.8289987 282.846077,99.9173087 300,100 L340,100 C343.681898,100 346.666667,97.0152313 346.666667,93.3333333 C346.666667,89.6514353 343.681898,86.6666667 340,86.6666667 L300,86.6666667 C290.244234,86.4871207 282.041987,79.2939873 280.590534,69.6451273 C279.139082,59.9962682 284.862135,50.7083885 294.133333,47.6666667 C295.256753,53.5888167 297.719523,59.1756551 301.333333,64 C302.592363,65.6787056 304.568285,66.6666667 306.666667,66.6666667 C308.109135,66.6666667 309.512692,66.1988142 310.666667,65.3333333 C313.612185,63.1241943 314.209139,58.9455187 312,56 C305.436653,47.2943368 304.833829,35.4701087 310.477782,26.1420921 C316.121736,16.8140755 326.875584,11.8612468 337.632825,13.6354741 C348.390065,15.4097014 356.983827,23.5535957 359.333333,34.2 C352.498163,35.7247531 346.316847,39.3635657 341.666667,44.6 C339.649587,47.3916445 340.090989,51.2602159 342.685087,53.525728 C345.279184,55.7912401 349.171963,55.7078528 351.666667,53.3333333 C357.785896,46.4920267 367.776358,44.6941319 375.896761,48.9728579 C384.017165,53.2515841 388.182755,62.5084521 385.999663,71.4237513 C383.816571,80.33905 375.845263,86.623952 366.666667,86.6666667 C362.984769,86.6666667 360,89.6514353 360,93.3333333 C360,97.0152313 362.984769,100 366.666667,100 C383.82059,99.9173087 398.110905,86.8289987 399.696598,69.748322 C401.282291,52.6676455 389.645548,37.1723834 372.8,33.9333333 L372.8,33.9333333 Z" id="Shape"></path>
                <path d="M80,120 C80,116.318102 77.0152313,113.333333 73.3333333,113.333333 L33.3333333,113.333333 C23.5775676,113.153787 15.3753197,105.960654 13.9238673,96.311794 C12.472415,86.6629347 18.1954677,77.3750553 27.4666667,74.3333333 C28.5900862,80.2554833 31.0528558,85.842322 34.6666667,90.6666667 C35.9256959,92.345372 37.901618,93.3333333 40,93.3333333 C41.4424681,93.3333333 42.8460255,92.8654807 44,92 C45.4144879,90.939134 46.3496148,89.3598153 46.5996633,87.609476 C46.8497118,85.859136 46.3941993,84.0811547 45.3333333,82.6666667 C38.7699857,73.9610033 38.1671622,62.1367754 43.8111157,52.8087588 C49.4550691,43.4807422 60.2089174,38.5279135 70.966158,40.3021408 C81.723398,42.0763681 90.3171607,50.2202623 92.6666667,60.8666667 C85.8314967,62.3914197 79.65018,66.0302323 75,71.2666667 C72.9829207,74.0583113 73.424322,77.9268827 76.01842,80.1923947 C78.6125173,82.4579067 82.5052967,82.3745193 85,80 C91.1192293,73.1586933 101.109691,71.3607987 109.230095,75.6395247 C117.350498,79.9182507 121.516089,89.1751187 119.332997,98.090418 C117.149905,107.005717 109.178596,113.290619 100,113.333333 C96.318102,113.333333 93.3333333,116.318102 93.3333333,120 C93.3333333,123.681898 96.318102,126.666667 100,126.666667 C117.153923,126.583975 131.444238,113.495665 133.029931,96.4149887 C134.615625,79.334312 122.978881,63.8390501 106.133333,60.6 C102.946805,41.2822607 86.2454567,27.110163 66.6666667,27.110163 C47.0878768,27.110163 30.3865279,41.2822607 27.2,60.6 C10.354452,63.8390501 -1.28229147,79.334312 0.303402,96.4149887 C1.88909547,113.495665 16.1794097,126.583975 33.3333333,126.666667 L73.3333333,126.666667 C77.0152313,126.666667 80,123.681898 80,120 Z" id="Shape"></path>
                <path d="M326.666667,300 L326.666667,266.666667 C326.666667,262.984769 323.681898,260 320,260 C316.318102,260 313.333333,262.984769 313.333333,266.666667 L313.333333,300 L286.666667,300 C282.984769,300 280,302.984769 280,306.666667 C280,310.348565 282.984769,313.333333 286.666667,313.333333 L313.333333,313.333333 C320.69713,313.333333 326.666667,307.363797 326.666667,300 Z" id="Shape"></path>
                <path d="M366.666667,200 L353.333333,200 L353.333333,180 C353.333333,157.90861 335.424723,140 313.333333,140 L273.333333,140 C251.241943,140 233.333333,157.90861 233.333333,180 L233.333333,300 C233.333333,322.09139 251.241943,340 273.333333,340 L286.666667,340 L286.666667,386.666667 L198.266667,386.666667 C199.606818,382.528008 199.606818,378.071992 198.266667,373.933333 L182.666667,331.6 C180.670917,326.240377 177.478831,321.406645 173.333333,317.466667 L153.333333,297.933333 L153.333333,277.933333 C155.619168,279.415341 158.083134,280.602524 160.666667,281.466667 L195.2,292.6 C205.413657,294.339131 215.264524,287.990335 217.899537,277.970351 C220.53455,267.950367 215.081223,257.576939 205.333333,254.066667 L179,245.666667 C176.177645,244.713506 173.603861,243.141903 171.466667,241.066667 L159,229.133333 C152.772657,223.2344 144.51097,219.963154 135.933333,220 L108.333333,220 C101.54352,219.996521 94.91456,222.066617 89.3333333,225.933333 L77,234.466667 C73.985364,236.568248 73.2398987,240.713034 75.3333333,243.733333 C77.4349147,246.747969 81.5797007,247.493435 84.6,245.4 L96.9333333,236.866667 C100.285159,234.556087 104.262288,233.32341 108.333333,233.333333 L135.933333,233.333333 C141.105797,233.336649 146.075827,235.343776 149.8,238.933333 L162.266667,250.866667 C165.857575,254.294575 170.159505,256.889389 174.866667,258.466667 L201.533333,267 C204.812647,268.011889 206.787971,271.348038 206.098354,274.709919 C205.408737,278.0718 202.279523,280.360864 198.866667,280 L164.8,269 C162.001443,268.037953 159.451251,266.466853 157.333333,264.4 L153.333333,260.6 L153.333333,260 C153.333333,256.318102 150.348565,253.333333 146.666667,253.333333 C142.984769,253.333333 140,256.318102 140,260 L140,293.333333 L106.666667,293.333333 L106.666667,262.933333 C109.293685,261.680569 112.041106,260.697751 114.866667,260 C118.548565,259.153163 120.846837,255.481898 120,251.8 C119.153163,248.118102 115.481898,245.81983 111.8,246.666667 C106.419905,248.151385 101.279201,250.396234 96.5333333,253.333333 L88.6666667,258.733333 C84.6914147,261.511387 81.3511353,265.101619 78.8666667,269.266667 L66.2,288.933333 L66.2,289.6 C64.5885003,292.80587 60.728697,294.161221 57.4666667,292.666667 C55.8599259,291.954101 54.6262914,290.599522 54.0666667,288.933333 C53.3998799,287.310257 53.3998799,285.489743 54.0666667,283.866667 C55.5463767,280.574281 54.1369429,276.702231 50.8870272,275.131438 C47.6371115,273.560645 43.7273243,274.861739 42.0666667,278.066667 C37.3025529,288.026414 41.5100714,299.962636 51.4666667,304.733333 C61.200136,309.299655 72.8021373,305.353797 77.7333333,295.8 L90,276.333333 C90.9024793,274.739771 92.024578,273.281042 93.3333333,272 L93.3333333,324.4 C93.3440673,328.798259 92.1942667,333.12151 90,336.933333 L71,370.266667 C68.1634113,375.343033 67.6766973,381.402625 69.6666667,386.866667 L46.6666667,386.866667 C42.9847683,386.866667 40,389.851435 40,393.533333 C40,397.215231 42.9847683,400.2 46.6666667,400.2 L393.333333,400.2 C397.015231,400.2 400,397.215231 400,393.533333 C400,389.851435 397.015231,386.866667 393.333333,386.866667 L360,386.866667 L360,360 L366.666667,360 C385.076158,360 400,345.076158 400,326.666667 L400,233.333333 C400,214.923842 385.076158,200 366.666667,200 L366.666667,200 Z M246.666667,300 L246.666667,180 C246.666667,165.272407 258.60574,153.333333 273.333333,153.333333 L313.333333,153.333333 C328.060927,153.333333 340,165.272407 340,180 L340,300 C340,314.727593 328.060927,326.666667 313.333333,326.666667 L273.333333,326.666667 C258.60574,326.666667 246.666667,314.727593 246.666667,300 Z M82.6,376.666667 L101.6,343.333333 C104.881332,337.559811 106.62588,331.040711 106.666667,324.4 L106.666667,306.666667 L143.2,306.666667 L164.133333,326.666667 C166.819478,329.265999 168.89202,332.431749 170.2,335.933333 L185.866667,377.8 C186.346407,379.501635 186.130583,381.324149 185.266667,382.866667 C184.412691,384.42346 182.972947,385.575255 181.266667,386.066667 C179.495984,386.568651 177.596553,386.316295 176.018369,385.369385 C174.440185,384.422474 173.323669,382.865261 172.933333,381.066667 L159.6,344.8 C158.046749,340.646389 155.791757,336.790353 152.933333,333.4 L143.8,322.6 C140.209287,318.029286 134.071397,316.311311 128.629651,318.353871 C123.187905,320.396431 119.696367,325.728813 120,331.533333 C119.992147,335.929167 118.843596,340.247715 116.666667,344.066667 L94.2,383.2 C93.3170627,384.745428 91.852808,385.873624 90.1333333,386.333333 C88.422938,386.79294 86.5999553,386.553074 85.0666667,385.666667 C81.9318233,383.838137 80.8354847,379.837983 82.6,376.666667 L82.6,376.666667 Z M128.266667,350.666667 C131.592674,344.838829 133.339179,338.243474 133.333333,331.533333 L142.533333,342.333333 C144.295422,344.589222 145.690367,347.109121 146.666667,349.8 L160,385.6 L160.4,386.666667 L107.066667,386.666667 L128.266667,350.666667 Z M346.666667,386.666667 L300,386.666667 L300,340 L309.533333,340 C314.82276,352.119713 326.77637,359.966723 340,360 L346.666667,360 L346.666667,386.666667 Z M386.666667,326.666667 C386.666667,337.712361 377.712361,346.666667 366.666667,346.666667 L340,346.666667 C333.681301,346.635288 327.749063,343.619734 324,338.533333 C341.325653,333.739573 353.325145,317.976605 353.333333,300 L353.333333,213.333333 L366.666667,213.333333 C377.712361,213.333333 386.666667,222.287639 386.666667,233.333333 L386.666667,326.666667 Z" id="Shape"></path>
                <path d="M62.1333333,264.933333 C58.451435,264.933333 55.4666667,261.948565 55.4666667,258.266667 C55.4666667,254.584769 58.451435,251.6 62.1333333,251.6 C65.8152317,251.6 68.8,254.584769 68.8,258.266667 C68.8,261.948565 65.8152317,264.933333 62.1333333,264.933333 Z" id="Shape"></path>
                <path d="M126.666667,153.333333 C111.939073,153.333333 100,165.272407 100,180 C100,194.727593 111.939073,206.666667 126.666667,206.666667 C141.39426,206.666667 153.333333,194.727593 153.333333,180 C153.333333,165.272407 141.39426,153.333333 126.666667,153.333333 Z M126.666667,193.333333 C119.30287,193.333333 113.333333,187.363797 113.333333,180 C113.333333,172.636203 119.30287,166.666667 126.666667,166.666667 C134.030463,166.666667 140,172.636203 140,180 C140,187.363797 134.030463,193.333333 126.666667,193.333333 Z" id="Shape"></path>
                <path d="M180,66.6666667 C198.409491,66.6666667 213.333333,51.742825 213.333333,33.3333333 C213.333333,14.9238417 198.409491,0 180,0 C161.590509,0 146.666667,14.9238417 146.666667,33.3333333 C146.666667,51.742825 161.590509,66.6666667 180,66.6666667 Z M180,13.3333333 C191.045695,13.3333333 200,22.2876383 200,33.3333333 C200,44.3790283 191.045695,53.3333333 180,53.3333333 C168.954305,53.3333333 160,44.3790283 160,33.3333333 C160,22.2876383 168.954305,13.3333333 180,13.3333333 Z" id="Shape"></path>
                <path d="M320,246.666667 C323.681898,246.666667 326.666667,243.681898 326.666667,240 L326.666667,226.666667 C326.666667,222.984769 323.681898,220 320,220 C316.318102,220 313.333333,222.984769 313.333333,226.666667 L313.333333,240 C313.333333,243.681898 316.318102,246.666667 320,246.666667 Z" id="Shape"></path>
            </g>
        </g>
    </g>
</svg>