<svg viewBox="0 0 50 50" xmlns="http://www.w3.org/2000/svg">
  <path d="M18.60735 31.17147c.84529.83067 2.18365.83067 2.9585 0l9.79188-9.62193c.84458-.83067.84458-2.1459 0-2.90734-.84599-.83067-2.18435-.83067-2.9592 0l-9.79118 9.62193c-.77484.76145-.77484 2.07667 0 2.90734zM14.3105 42.87008c-1.90188 1.93823-5.07169 2.07668-7.04402.20767-2.04276-1.7991-2.18364-4.9141-.3522-6.92225l12.74968-12.8754c-2.25409-2.1459-5.7761-2.07667-7.95974.13845l-8.87547 8.99893-.07044.06922c-3.94465 4.22258-3.59245 10.86863.63397 14.7444C5.43504 49.1001 8.04133 50 10.6476 50c2.81761 0 5.63522-1.10687 7.67798-3.18354l8.66414-8.58429c2.18365-2.1452 2.18365-5.67625 0-7.82214L14.3105 42.87008zm32.966-25.40467l.07045-.06922c3.8742-4.2918 3.45156-10.93716-.91573-14.7444-4.29685-3.80724-11.0591-3.46112-14.93331.69223l-8.52327 8.72204c-2.18364 2.21512-2.04276 5.74547.14088 7.82214L35.58414 7.08204c1.83074-2.00746 5.00055-2.1459 7.04402-.34612 2.04206 1.79979 2.25338 4.9148.49238 6.92226L30.58218 26.81045c2.25409 2.07668 5.84654 2.00815 7.95974-.27689l8.73459-9.06815z" fill="#6B7E91" fill-rule="evenodd"/>
</svg>
