<svg id="Layer_1" data-name="Layer 1" xmlns="http://www.w3.org/2000/svg" viewBox="0 0 50 50"><path d="M31.25,0V12.5h12.5Z"/><path d="M31.25,15.62a3.13,3.13,0,0,1-3.13-3.12V0H9.38A3.13,3.13,0,0,0,6.25,3.12V46.88A3.13,3.13,0,0,0,9.38,50H40.62a3.13,3.13,0,0,0,3.13-3.12V15.62Zm-14.06-6V7.81a1.56,1.56,0,0,1,3.12,0V9.57A6.49,6.49,0,0,1,23,10.82a1.56,1.56,0,0,1-2,2.42,3.52,3.52,0,0,0-2.23-.74c-1.69,0-3.13,1.07-3.13,2.34s1.44,2.35,3.13,2.35c3.45,0,6.25,2.45,6.25,5.47a5.65,5.65,0,0,1-4.69,5.27v1.76a1.56,1.56,0,0,1-3.12,0V27.93a6.49,6.49,0,0,1-2.65-1.25,1.56,1.56,0,0,1,2-2.42,3.52,3.52,0,0,0,2.23.74c1.69,0,3.13-1.07,3.13-2.34s-1.44-2.35-3.13-2.35c-3.45,0-6.25-2.45-6.25-5.47A5.65,5.65,0,0,1,17.19,9.57ZM35.94,43.75H14.06a1.57,1.57,0,0,1,0-3.13H35.94a1.57,1.57,0,0,1,0,3.13Zm0-6.25H14.06a1.56,1.56,0,1,1,0-3.12H35.94a1.56,1.56,0,1,1,0,3.12Zm0-6.25H29.69a1.57,1.57,0,1,1,0-3.13h6.25a1.57,1.57,0,0,1,0,3.13Zm0-6.25H29.69a1.56,1.56,0,1,1,0-3.12h6.25a1.56,1.56,0,1,1,0,3.12Z"/></svg>