<svg xmlns="http://www.w3.org/2000/svg" xmlns:xlink="http://www.w3.org/1999/xlink" viewBox="0 0 192 192"><defs><style>.cls-1{fill:none;clip-rule:evenodd;}.cls-2{clip-path:url(#clip-path);}.cls-3{fill:#7da97a;}.cls-4{fill:#fff;}</style><clipPath id="clip-path"><path class="cls-1" d="M973-1411v-45c0-27.66-14.78-50.82-40.54-57v-6.12a13.5,13.5,0,0,0-13.52-13.52,13.5,13.5,0,0,0-13.52,13.52v6.12c-25.86,6.13-40.54,29.2-40.54,57v45l-18,18v9H991v-9Zm-54.06,54.06a18.07,18.07,0,0,0,18-18h-36A18,18,0,0,0,918.9-1356.91Z"/></clipPath></defs><g id="trim_area" data-name="trim area"><circle class="cls-3" cx="96" cy="96.19" r="96"/><path class="cls-4" d="M136.34,45.09H55.65A10.77,10.77,0,0,0,44.89,55.84v80.69a10.77,10.77,0,0,0,10.76,10.76h59.76a3.93,3.93,0,1,0,0-7.85H55.65a2.9,2.9,0,0,1-2.9-2.91V55.84a2.91,2.91,0,0,1,2.9-2.9H79.91V75.31a5,5,0,0,0,8,4L96,73.07l8.06,6.19a5,5,0,0,0,8-4V52.94h24.24a2.91,2.91,0,0,1,2.91,2.9v59.88a3.93,3.93,0,1,0,7.85,0V55.84A10.76,10.76,0,0,0,136.34,45.09ZM104.24,69.5l-5.2-4a5,5,0,0,0-6.08,0l-5.2,4V52.94h16.48Z"/><path class="cls-4" d="M144.12,132.9l-16.77-16.78a23.25,23.25,0,1,0-11.41,11.42l16.77,16.77a7.92,7.92,0,0,0,11.22,0l.19-.18h0A7.94,7.94,0,0,0,144.12,132.9Zm-49.8-14.68a16.77,16.77,0,1,1,11.85,4.91A16.67,16.67,0,0,1,94.32,118.22ZM139.5,139.5l-.19.19a1.4,1.4,0,0,1-1,.4,1.37,1.37,0,0,1-1-.4L121.8,124.15,124,122l15.53,15.54A1.39,1.39,0,0,1,139.5,139.5Z"/><path class="cls-4" d="M106.25,119.74a13.21,13.21,0,0,1-10.49-5,13.53,13.53,0,0,1-2.5-10.23,2,2,0,0,1,3.87.64,9.07,9.07,0,0,0,10.6,10.56,2,2,0,0,1,.58,3.89A14.38,14.38,0,0,1,106.25,119.74Z"/></g></svg>
