<?xml version="1.0" encoding="UTF-8"?>
<svg width="58px" height="121px" viewBox="0 0 58 121" version="1.1" xmlns="http://www.w3.org/2000/svg" xmlns:xlink="http://www.w3.org/1999/xlink">
    <title>Group</title>
    <g id="Symbols" stroke="none" stroke-width="1" fill="none" fill-rule="evenodd">
        <g id="Action-cards/visitors-" transform="translate(-265.000000, -33.000000)" fill="#F2F2F2" fill-rule="nonzero" stroke="#F2F2F2" stroke-width="2.754">
            <g id="Visitor" transform="translate(251.000000, 0.000000)">
                <g transform="translate(16.000000, 18.000000)" id="Group">
                    <g transform="translate(0.000000, 17.000000)">
                        <path d="M92.7018931,8.22078947 L80.5422337,8.39782895 L80.5422337,2.89421053 C80.5422337,1.30085526 79.2394131,0 77.626397,0 L25.9323348,0 C24.3270737,0 23.0164981,1.29315789 23.0164981,2.89421053 L23.0164981,8.22078947 L9.30586178,8.22078947 C4.16437315,8.22078947 0,12.3542763 0,17.4576316 L0,107.763158 C0,112.866513 4.16437315,117 9.30586178,117 L92.6941382,117 C97.8356269,117 102,112.866513 102,107.763158 L102,17.4499342 C102,12.3465789 97.8356269,8.21309211 92.6941382,8.21309211 L92.7018931,8.22078947 Z M73.252642,6.15789474 C73.857523,6.15789474 74.3460807,6.64282895 74.3460807,7.24322368 L74.3460807,15.3947368 C74.3460807,17.0958553 72.9579564,18.4736842 71.2441268,18.4736842 L32.3301148,18.4736842 C30.6162853,18.4736842 29.2281609,17.0958553 29.2281609,15.3947368 L29.2281609,7.24322368 C29.2281609,6.64282895 29.7167186,6.15789474 30.3215996,6.15789474 L73.252642,6.15789474 Z M95.803847,107.763158 C95.803847,109.464276 94.4157226,110.842105 92.7018931,110.842105 L9.31361667,110.842105 C7.59978712,110.842105 6.21166274,109.464276 6.21166274,107.763158 L6.21166274,17.4576316 C6.21166274,15.7565132 7.59978712,14.3786842 9.31361667,14.3786842 L23.024253,14.3786842 L23.024253,15.3947368 C23.024253,20.4980921 27.1886262,24.6315789 32.3301148,24.6315789 L71.2441268,24.6315789 C76.3856154,24.6315789 80.5499886,20.4980921 80.5499886,15.3947368 L80.5499886,14.5557237 C80.5499886,14.5557237 80.6120277,14.5557237 80.6430472,14.5557237 L92.7406675,14.3786842 C94.4312324,14.3940789 95.803847,15.7719079 95.803847,17.4576316 L95.803847,107.770855 L95.803847,107.763158 Z" id="Shape"></path>
                        <path d="M69.3364252,94.62375 L32.6635748,94.62375 C30.9497453,94.62375 29.5616209,96.0015789 29.5616209,97.7026974 C29.5616209,99.4038158 30.9497453,100.781645 32.6635748,100.781645 L69.3364252,100.781645 C71.0502547,100.781645 72.4383791,99.4038158 72.4383791,97.7026974 C72.4383791,96.0015789 71.0502547,94.62375 69.3364252,94.62375 L69.3364252,94.62375 Z" id="Path"></path>
                        <path d="M51.0038774,27.7105263 C33.865582,27.7105263 19.9765833,41.4965132 19.9765833,58.5076974 C19.9765833,75.5188816 33.865582,89.3048684 51.0038774,89.3048684 C68.1421729,89.3048684 82.0311716,75.5188816 82.0311716,58.5076974 C82.0311716,41.4965132 68.1421729,27.7105263 51.0038774,27.7105263 L51.0038774,27.7105263 Z M38.7201399,79.9063816 C38.7666692,79.6908553 38.7976887,79.4676316 38.7976887,79.2367105 C38.7976887,72.5553947 44.2726374,67.1210526 51.0038774,67.1210526 C57.7351175,67.1210526 63.2100661,72.5553947 63.2100661,79.2367105 C63.2100661,79.4676316 63.2410857,79.6908553 63.287615,79.9063816 C59.6583289,81.9615789 55.4706911,83.1469737 51.0038774,83.1469737 C46.5370638,83.1469737 42.3416711,81.9615789 38.7201399,79.9063816 L38.7201399,79.9063816 Z M51.0038774,57.8842105 C48.204364,57.8842105 45.9244279,55.6211842 45.9244279,52.8424342 C45.9244279,50.0636842 48.204364,47.8006579 51.0038774,47.8006579 C53.8033909,47.8006579 56.083327,50.0636842 56.083327,52.8424342 C56.083327,55.6211842 53.8033909,57.8842105 51.0038774,57.8842105 Z M69.01072,75.4419079 C67.6923896,69.2686184 63.2255759,64.2345395 57.362883,62.0869737 C60.3330039,60.0702632 62.27948,56.6834211 62.27948,52.8424342 C62.27948,46.6614474 57.23105,41.6427632 50.9961226,41.6427632 C44.7611952,41.6427632 39.7127651,46.65375 39.7127651,52.8424342 C39.7127651,56.6834211 41.6592412,60.0702632 44.6293621,62.0869737 C38.7666692,64.2345395 34.2998555,69.2686184 32.9815251,75.4419079 C28.7628678,71.0236184 26.1649814,65.0658553 26.1649814,58.5076974 C26.1649814,44.9218421 37.300996,33.8684211 50.9883677,33.8684211 C64.6757394,33.8684211 75.811754,44.9218421 75.811754,58.5076974 C75.811754,65.0581579 73.2138676,71.0236184 68.9952102,75.4419079 L69.01072,75.4419079 Z" id="Shape"></path>
                    </g>
                </g>
            </g>
        </g>
    </g>
</svg>