<svg viewBox="0 0 20 20" xmlns="http://www.w3.org/2000/svg">
  <g fill="#324056" fill-rule="nonzero">
    <path d="M10.006 1.134c4.885 0 8.86 3.977 8.86 8.865 0 4.887-3.977 8.864-8.864 8.865-4.89-.001-8.867-3.978-8.867-8.865 0-4.888 3.977-8.865 8.868-8.865h.003zM10.005 0h-.002H10C4.479 0 0 4.478 0 10c0 5.52 4.48 9.999 10 10 5.52-.001 10-4.48 10-10 .001-5.524-4.478-10-9.995-10z"/>
    <path d="M11.761 8.438c.95-3.46-1.059-5.672-3.757-5.418-1.272.122-2.547 1.724-1.764 3.182C6.975 7.569 8.512 7.442 8.982 9c.44-.592 1.312-1.257 2.779-.562zM7.292 10c-3.196.815-4.052 3.31-2.624 5.234.673.906 2.532 1.16 3.341-.078.758-1.159-.04-2.262.991-3.308-.67-.07-1.598-.432-1.708-1.848zM11 11.433c2.264 2.428 4.863 1.85 5.855-.47.466-1.096-.215-2.904-1.69-2.961-1.382-.056-1.961 1.257-3.376.897.265.638.397 1.669-.789 2.534z"/>
    <circle cx="10.5" cy="10.5" r="1.5"/>
  </g>
</svg>
