<svg viewBox="0 0 50 50" xmlns="http://www.w3.org/2000/svg">
  <path d="M40.61633 2C45.79879 2 50 6.20852 50 11.4v28.2c0 5.19148-4.20121 9.4-9.38367 9.4H9.38367C4.20121 49 0 44.79148 0 39.6V11.4C0 6.20852 4.20121 2 9.38367 2h31.23266zm0 3.13333H9.38367c-3.29793 0-5.9998 2.55642-6.23862 5.79898L3.12789 11.4v28.2c0 3.30367 2.55198 6.01025 5.7889 6.24948l.46688.01719h31.23266c3.29793 0 5.9998-2.55642 6.23862-5.79898l.01716-.46769V11.4c0-3.30367-2.55198-6.01025-5.7889-6.24948l-.46688-.01719zm-25.32121 19.543c.86005-.93698 2.3456-1.01506 3.28384-.07808l6.25492 6.24731c.31275.23347.78187.31155 1.09462 0l5.08213-4.45143c.86005-.70274 2.11103-.70274 2.97187 0l9.3824 8.1205c.85926.62543.31196 1.95204-.70447 1.95204H7.39827c-1.01642 0-1.48554-1.17123-.86005-1.87396zM39.09864 11.4c2.59123 0 4.69184 2.10426 4.69184 4.7s-2.1006 4.7-4.69184 4.7c-2.59123 0-4.69184-2.10426-4.69184-4.7s2.10061-4.7 4.69184-4.7z" fill="#000" fill-rule="nonzero"/>
</svg>
