<?xml version="1.0" encoding="UTF-8"?><svg id="trim_area" xmlns="http://www.w3.org/2000/svg" viewBox="0 0 192 192"><defs><style>.cls-1{fill:none;}.cls-2{fill:#324056;}</style></defs><g id="Filter"><g><rect class="cls-1" x="0" y="0" width="192" height="192"/><g><path class="cls-2" d="M165.92,37.3v17.39c0,5.51-4.48,9.99-9.99,9.99H36.07c-5.51,0-10-4.48-10-9.99v-17.39c0-5.51,4.49-9.99,10-9.99h119.86c5.51,0,9.99,4.48,9.99,9.99Z"/><path class="cls-2" d="M155.94,114.69H36.07c-5.51,0-9.99-4.48-9.99-9.99v-17.39c0-5.51,4.48-9.99,9.99-9.99h119.87c5.51,0,9.99,4.48,9.99,9.99v17.39c0,5.51-4.48,9.99-9.99,9.99Zm-117.86-12h115.85v-13.38H38.08v13.38Z"/><path class="cls-2" d="M155.94,164.69H36.07c-5.51,0-9.99-4.48-9.99-9.99v-17.39c0-5.51,4.48-9.99,9.99-9.99h119.87c5.51,0,9.99,4.48,9.99,9.99v17.39c0,5.51-4.48,9.99-9.99,9.99Zm-117.86-12h115.85v-13.38H38.08v13.38Z"/></g></g></g></svg>