<?xml version="1.0" encoding="UTF-8"?>
<svg width="19px" height="19px" viewBox="0 0 50 50" version="1.1" xmlns="http://www.w3.org/2000/svg" xmlns:xlink="http://www.w3.org/1999/xlink">
    <g id="help-icon-50x50-FINAL" stroke="none" stroke-width="1" fill="none" fill-rule="evenodd">
        <g id="help-icon" fill="#353F54" fill-rule="nonzero">
            <path d="M25.0132429,0.0826214616 C38.7934471,0.0826214616 49.9645099,11.2536842 49.9645099,25.0338885 C49.9645099,38.8140928 38.7934471,49.9851556 25.0132429,49.9851556 C11.2330386,49.9851556 0.061975801,38.8140928 0.061975801,25.0338885 C0.061975801,11.2536842 11.2330386,0.0826214616 25.0132429,0.0826214616 Z M11.7411565,26.5621336 L3.00397257,26.5625307 C3.76712372,37.7133512 12.8162964,46.5874509 24.0409096,47.0742488 L24.0412877,38.445893 C17.6072403,37.96135 12.4408968,32.933797 11.7411565,26.5621336 Z M26.9307118,38.3549302 L26.9308606,47.0131061 C37.7145078,46.0845992 46.280906,37.39856 47.0225131,26.5625307 L38.3827951,26.5621336 C37.7140794,32.6512953 32.9660532,37.5128925 26.9307118,38.3549302 Z M25.0619758,14.5709256 C19.2565265,14.5709256 14.5502799,19.2771721 14.5502799,25.0826215 C14.5502799,30.8880708 19.2565265,35.5943174 25.0619758,35.5943174 C30.8674251,35.5943174 35.5736717,30.8880708 35.5736717,25.0826215 C35.5736717,19.2771721 30.8674251,14.5709256 25.0619758,14.5709256 Z M26.9308606,3.05467095 L26.9307118,11.8103127 C32.988764,12.6555189 37.7497945,17.5505926 38.3901708,23.6719013 L47.0333001,23.6720537 C46.3686716,12.7584713 37.7697855,3.98793746 26.9308606,3.05467095 Z M24.0412877,11.7193499 L24.0409096,2.99352826 C12.7603826,3.48275108 3.6770234,12.4430441 2.99318557,23.6720537 L11.7337808,23.6719013 C12.4037555,17.2676642 17.5841027,12.2056354 24.0412877,11.7193499 Z" id="Combined-Shape"></path>
        </g>
    </g>
</svg>
