<?xml version="1.0" encoding="UTF-8"?><svg id="trim_area" xmlns="http://www.w3.org/2000/svg" viewBox="0 0 192 192"><defs><style>.cls-1{fill:none;}.cls-2{fill:#334056;}</style></defs><path class="cls-2" d="M169.12,98.8l-.1-.06c-.66-.38-1.25-.95-1.65-1.59l-.05-.09c-.43-.76-.63-1.55-.63-2.47,0-.79,.21-1.58,.64-2.33,.44-.77,1.07-1.35,1.93-1.81,4.26-2.5,7.3-6.5,8.56-11.28,1.3-4.83,.64-9.85-1.85-14.13l-13.59-23.59c-2.47-4.27-6.52-7.37-11.37-8.72-4.78-1.29-9.99-.57-14.27,1.98-1.45,.88-3.25,.84-4.79-.11-.62-.35-1.24-.96-1.62-1.59l-.07-.13c-.39-.75-.59-1.56-.59-2.41,0-5.02-1.94-9.7-5.47-13.18-3.54-3.55-8.23-5.5-13.22-5.5h-27.16c-4.93,0-9.76,2.01-13.25,5.52-3.47,3.48-5.45,8.31-5.44,13.24,0,1.16-.41,2.29-1.17,3.18-.78,.9-1.8,1.46-2.97,1.65-1.21,.16-2.35-.1-3.31-.72-4.18-2.66-9.4-3.51-14.31-2.32-4.66,1.3-8.68,4.41-11.24,8.74l-13.57,23.51c-2.48,4.34-3.13,9.39-1.82,14.22,1.32,4.82,4.43,8.86,8.77,11.37,.43,.25,1.24,.8,1.71,1.68,.41,.7,.64,1.53,.64,2.41,0,.83-.21,1.62-.63,2.33l-.1,.17c-.4,.68-1.02,1.26-1.84,1.7-4.23,2.48-7.3,6.5-8.57,11.28-1.3,4.8-.64,9.83,1.86,14.17l13.6,23.57c2.51,4.27,6.55,7.36,11.35,8.69,4.77,1.28,9.99,.56,14.29-1.96,1.43-.91,3.15-.87,4.75,.1,.69,.38,1.27,.95,1.68,1.66,.44,.81,.64,1.6,.64,2.47,0,4.98,1.95,9.65,5.47,13.18,3.52,3.54,8.21,5.48,13.21,5.48h27.15c4.93,0,9.59-1.9,13.11-5.35,3.51-3.47,5.49-8.14,5.58-13.11,0-1.09,.43-2.23,1.18-3.08,.76-.86,1.8-1.43,2.93-1.61,1.14-.21,2.33,.06,3.48,.79,4.13,2.46,9.29,3.15,14.07,1.85,4.8-1.34,8.83-4.45,11.32-8.74l13.56-23.51c2.5-4.32,3.15-9.36,1.84-14.2-1.26-4.79-4.34-8.81-8.67-11.35Zm-3.06,19.25l-14.05,23.61c-.92,1.59-2.5,2.78-4.32,3.25-1.77,.46-3.71,.19-5.31-.76-4.88-2.91-11.44-2.93-16.33-.05-2.54,1.47-4.66,3.57-6.14,6.11-1.42,2.48-2.17,5.32-2.15,8.18h0c0,1.92-.72,3.69-2.03,4.99-1.39,1.36-3.11,2.07-5.01,2.07h-27.1c-1.96-.02-3.7-.76-5.06-2.12-1.31-1.34-2.02-3.1-2.02-5,0-2.89-.76-5.73-2.2-8.2-1.41-2.46-3.48-4.51-5.97-5.95-2.5-1.45-5.37-2.23-8.31-2.26-2.9,.01-5.81,.81-8.39,2.3-1.49,.89-3.41,1.16-5.11,.73-1.94-.56-3.46-1.72-4.37-3.3l-13.6-23.53c-.92-1.66-1.18-3.57-.75-5.28,.57-1.96,1.79-3.5,3.44-4.43,3.31-1.92,5.87-4.97,7.18-8.58,1.32-3.63,1.31-7.65-.02-11.3-1.33-3.62-3.91-6.66-7.25-8.56-1.59-.91-2.76-2.46-3.24-4.25-.48-1.83-.2-3.8,.77-5.4l13.53-23.44c.91-1.57,2.49-2.79,4.22-3.28,1.89-.48,3.86-.2,5.46,.75,4.97,2.94,11.38,2.94,16.34,0,2.59-1.48,4.67-3.55,6.06-6,1.46-2.52,2.22-5.36,2.21-8.25,0-1.89,.71-3.66,2.02-4.99,1.35-1.36,3.13-2.09,5.01-2.09h27.1c1.95,.03,3.73,.79,5.06,2.14,1.31,1.33,2.03,3.11,2.03,5.01,.05,5.83,3.22,11.26,8.26,14.13,5.06,2.93,11.38,2.92,16.51-.01,1.49-.92,3.42-1.19,5.19-.73,1.85,.49,3.35,1.64,4.33,3.33l13.99,23.49c.97,1.62,1.22,3.49,.73,5.38-.46,1.77-1.67,3.37-3.25,4.28-3.36,1.91-5.94,4.97-7.27,8.62-1.31,3.62-1.31,7.63,0,11.27,1.33,3.61,3.92,6.66,7.27,8.58,1.57,.89,2.78,2.48,3.24,4.24,.44,1.79,.19,3.71-.71,5.29Z"/><path class="cls-2" d="M97.34,59.95c-18.91,0-34.29,15.38-34.29,34.28s15.38,34.31,34.29,34.31,34.28-15.38,34.28-34.31-15.38-34.28-34.28-34.28Zm0,56.12c-12.03,0-21.82-9.8-21.82-21.85s9.78-21.82,21.82-21.82,21.85,9.78,21.85,21.82-9.81,21.85-21.85,21.85Z"/><rect class="cls-1" x="0" y="0" width="192" height="192"/></svg>