<svg viewBox="0 0 15 14" xmlns="http://www.w3.org/2000/svg">
  <path d="M7.5.794c.163.196.121.039 0 0zM.429 7.919l6.364 2.834c.562.263.805.263 1.414 0l6.364-2.834c.314-.145.429-.826.429-1.193-.409.203-.989.492-1 .494l-6.5 2.968L1 7.22c.02.014-.576-.254-1-.494 0 .36.09 1.016.429 1.193zM7.5 13.157L1 10.187c.02.015-.576-.253-1-.494 0 .359.09 1.017.429 1.194l6.364 2.833c.562.264.805.264 1.414 0l6.364-2.833c.314-.145.429-.826.429-1.194-.409.204-.989.493-1 .495l-6.5 2.97zM.429 4.952l6.364 2.833c.562.263.805.263 1.414 0l6.364-2.833c.469-.216.484-1.136 0-1.4L8.207.226c-.5-.294-.85-.279-1.414 0L.429 3.553c-.484.309-.5 1.135 0 1.399zM7.5.79L14 4.252 7.5 6.966 1 4.252 7.5.79z" fill-rule="nonzero"/>
</svg>
