<?xml version="1.0" encoding="UTF-8"?>
<svg width="22px" height="18px" viewBox="0 0 22 18" version="1.1" xmlns="http://www.w3.org/2000/svg" xmlns:xlink="http://www.w3.org/1999/xlink">
    <!-- Generator: Sketch 63.1 (92452) - https://sketch.com -->
    <title>television (1)</title>
    <desc>Created with Sketch.</desc>
    <g id="Page-1" stroke="none" stroke-width="1" fill="none" fill-rule="evenodd">
        <g id="Site_Summary1.1" transform="translate(-528.000000, -728.000000)" fill="#000000" fill-rule="nonzero">
            <g id="Group-9" transform="translate(492.000000, 728.000000)">
                <g id="television-(1)" transform="translate(36.000000, 0.000000)">
                    <path d="M22,0 L0,0 L0,14.1796875 L8.2802124,14.1796875 L8.10078431,15.0769958 C7.98060609,15.6773834 7.44903564,16.1132812 6.83673096,16.1132812 L1.9765625,16.1132812 L1.9765625,17.4023438 L20.0234375,17.4023438 L20.0234375,16.1132812 L15.163269,16.1132812 C14.5509644,16.1132812 14.0193939,15.6773834 13.8992157,15.0769958 L13.7197876,14.1796875 L22,14.1796875 L22,0 Z M12.6351624,15.3297729 C12.6915589,15.6115875 12.7936096,15.8747711 12.9320831,16.1132812 L9.06791686,16.1132812 C9.20639036,15.8747711 9.30844114,15.6115875 9.36483762,15.3297729 L9.5947876,14.1796875 L12.4052124,14.1796875 L12.6351624,15.3297729 Z M20.7109375,12.890625 L1.2890625,12.890625 L1.2890625,1.2890625 L20.7109375,1.2890625 L20.7109375,12.890625 Z" id="Shape"></path>
                </g>
            </g>
        </g>
    </g>
</svg>