<svg viewBox="0 0 50 50" xmlns="http://www.w3.org/2000/svg">
  <path d="M21.75996 15v7.53699c.5891-.7863 1.26846-1.38562 2.0381-1.79795.76962-.41233 1.66752-.6185 2.69369-.6185 1.06417 0 1.98583.19179 2.76496.57535.77912.38356 1.42523.92055 1.93832 1.61096.51308.69041.8979 1.51986 1.15444 2.48836.17425.65781.28932 1.36208.34521 2.1128l3.79617.0009c.07342-.72804.21525-1.41342.42548-2.05617.32306-.98767.79338-1.8315 1.41099-2.5315.6176-.7 1.37297-1.24179 2.26612-1.62535.89315-.38356 1.90982-.57534 3.05-.57534 1.04518 0 1.92883.13904 2.65095.41712.72212.27808 1.32071.65206 1.7958 1.12192.47507.46986.84563 1.01164 1.11168 1.62534.26604.6137.45607 1.25617.5701 1.9274l-3.22104.48904c-.15203-.84384-.44182-1.54384-.8694-2.1-.42757-.55616-1.14494-.83425-2.1521-.83425-.72212 0-1.32072.15343-1.7958.46028-.47508.30685-.85514.7048-1.14019 1.19383-.28505.48904-.48933 1.05-.61285 1.68288a9.96828 9.96828 0 00-.12323.805l8.82192.00048v2.30137l-8.82476.00022c.033.31671.07977.62349.14032.92033.13302.65205.34206 1.21301.6271 1.68287.28505.46987.66512.84384 1.1402 1.12192.47507.27808 1.05467.41712 1.73878.41712.98817 0 1.7388-.2637 2.25188-.7911.51308-.52739.83613-1.28013.96916-2.25821H50c-.19003 1.78356-.82189 3.17877-1.89556 4.18562C47.03076 35.49658 45.49625 36 43.50092 36c-1.1972 0-2.23762-.18699-3.12126-.56096-.88365-.37397-1.62002-.90616-2.20912-1.59657-.5891-.69042-1.02617-1.51987-1.31122-2.48836-.19495-.66238-.32323-1.37634-.38485-2.14189l-3.79282-.00014c-.0682.75668-.20268 1.4611-.40344 2.11326-.30405.98767-.74113 1.82671-1.31122 2.51713-.5701.6904-1.2542 1.2226-2.05234 1.59657-.79813.37397-1.69128.56096-2.67945.56096-.89314 0-1.71978-.1726-2.4799-.5178-.76013-.34521-1.45375-.92056-2.08085-1.72604v1.78357h-3.13552L18.538 29.21h-4.581l.00081 6.32973H10.8508v-1.95617c-.5511.67123-1.2257 1.2274-2.02384 1.6685-.79813.4411-1.76729.66164-2.90748.66164-.70312 0-1.35872-.0911-1.96682-.27329-.6081-.1822-1.13544-.45548-1.58202-.81986-.44657-.36439-.79813-.82945-1.05467-1.3952-.25654-.56576-.38482-1.2322-.38482-1.99932 0-.88102.16504-1.61977.49511-2.21626L0 29.21096v-2.30137l4.64833-.00103c.38519-.11461.7899-.20536 1.21414-.27226.91215-.14383 1.8243-.23493 2.73645-.27329l2.19487-.11506v-.63288c0-1.1315-.2708-1.91302-.81239-2.34452-.54159-.4315-1.24945-.64726-2.1236-.64726-1.00716 0-1.75304.1726-2.23762.5178-.48458.34521-.80288.84384-.9549 1.4959l-2.9645-.31644c.26605-1.45754.92165-2.52192 1.96683-3.19315 1.04517-.67124 2.4799-1.00685 4.30421-1.00685 1.1782 0 2.1521.15342 2.92174.46027.76962.30685 1.38247.72877 1.83855 1.26576.45608.53698.77438 1.17465.9549 1.913.18054.73837.2708 1.54864.2708 2.43083l-.00081.71859h4.581L18.53893 15h3.22103zM10.793 29.21l-5.40382-.00054c-.15526.07622-.29205.15823-.41035.24602-.32306.23973-.53684.5178-.64136.83425-.10452.31643-.15678.65685-.15678 1.02123 0 .65205.20429 1.16027.61285 1.52466.40857.36438 1.01192.54657 1.81005.54657 1.42524 0 2.47992-.36438 3.16403-1.09315.68411-.72877 1.02617-1.71644 1.02617-2.96301L10.793 29.21zm18.49613.0021l-7.52667-.0011c.05088.66532.15931 1.23106.3253 1.69722.21854.6137.5036 1.10274.85515 1.46712.35156.36439.75537.6137 1.21145.74795.45608.13424.93115.20137 1.42524.20137.53208 0 1.02617-.0959 1.48224-.28767.45608-.19178.85514-.49384 1.1972-.90617.34206-.41233.6081-.9541.79813-1.62534.10802-.38155.18534-.81268.23196-1.29338zm-3.56701-6.38744c-.70312 0-1.30647.11507-1.81005.3452-.50358.23014-.9169.55617-1.23996.97809-.32305.42191-.56059.92534-.71261 1.51027-.1012.38936-.16872.80634-.20255 1.25094l7.53115-.00107c-.04877-.47214-.1305-.89835-.24518-1.27864-.19953-.66164-.46083-1.19863-.78388-1.61096-.32305-.41233-.70787-.71438-1.15444-.90616-.44658-.19178-.9074-.28767-1.38248-.28767z" fill="#6B7E91" fill-rule="nonzero"/>
</svg>
