<?xml version="1.0" encoding="UTF-8"?>
<svg width="16px" height="16px" viewBox="0 0 11 11" version="1.1" xmlns="http://www.w3.org/2000/svg" xmlns:xlink="http://www.w3.org/1999/xlink">
    <!-- Generator: Sketch 63.1 (92452) - https://sketch.com -->
    <title>ic_person</title>
    <desc>Created with Sketch.</desc>
    <g id="Page-1" stroke="none" stroke-width="1" fill="none" fill-rule="evenodd">
        <g id="Employee-List_Global-Search_Filter-collapse-Copy-2" transform="translate(-189.000000, -256.000000)">
            <g id="Filter-full" transform="translate(178.000000, 178.000000)">
                <g id="Group-4" transform="translate(8.000000, 25.000000)">
                    <g id="Filter-2">
                        <g id="Icons" transform="translate(0.000000, 51.000000)">
                            <g id="ic_person" transform="translate(1.000000, 0.000000)">
                                <g id="Icon-24px">
                                    <path d="M7.5,7.5 C8.88125,7.5 10,6.38125 10,5 C10,3.61875 8.88125,2.5 7.5,2.5 C6.11875,2.5 5,3.61875 5,5 C5,6.38125 6.11875,7.5 7.5,7.5 L7.5,7.5 Z M7.5,8.75 C5.83125,8.75 2.5,9.5875 2.5,11.25 L2.5,12.5 L12.5,12.5 L12.5,11.25 C12.5,9.5875 9.16875,8.75 7.5,8.75 L7.5,8.75 Z" id="shape" fill="#2F98A5"></path>
                                    <polygon id="Shape" points="0 0 15 0 15 15 0 15"></polygon>
                                </g>
                            </g>
                        </g>
                    </g>
                </g>
            </g>
        </g>
    </g>
</svg>
