<svg xmlns="http://www.w3.org/2000/svg" width="200" height="200" viewBox="0 0 200 200">
  <g fill="none" transform="translate(-25 -25)">
    <circle cx="125.117" cy="125.117" r="99.425" fill="#3C576B" opacity=".89" transform="rotate(-17 125.117 125.117)"/>
    <path fill="#F7F9F9" d="M162.575553,53.9912778 C154.171403,37.3057062 104.9487,33.2199555 89.7913495,52.6290052 C77.7459355,68.0536877 91.668543,95.4111952 97.8929496,105.995088 C101.444036,103.318032 105.861684,101.730048 110.651249,101.730048 C118.358521,101.730048 125.104785,105.840345 128.820753,111.98738 C148.755396,96.2777564 170.170236,69.0707232 162.575553,53.9912778 Z" transform="rotate(-17 124.592 75.843)"/>
    <path fill="#FFF" d="M205.768846,131.554103 C198.889716,113.232524 168.28634,110.844145 156.009345,110.636042 C156.07391,111.309975 156.109661,111.992445 156.109661,112.682919 C156.109661,124.400705 146.610571,133.899795 134.892785,133.899795 C134.850631,133.899795 134.80901,133.897127 134.766856,133.896593 C137.774741,159.099437 149.821223,191.562932 166.649265,192.946549 C185.268591,194.477438 214.425387,154.60922 205.768846,131.554103 Z" transform="rotate(-17 171.052 151.813)"/>
    <path fill="#F7F9F9" d="M110.64502,138.435221 C110.64502,134.583186 111.676996,130.973937 113.471482,127.8604 C90.0641916,118.044353 55.8819811,112.50882 46.377555,126.464511 C35.8614294,141.905735 56.1583842,186.934901 80.4834612,190.777331 C99.8135386,193.831106 116.986284,168.390811 123.224564,157.813322 C115.812905,154.505022 110.64502,147.075754 110.64502,138.435221 Z" transform="rotate(-17 83.38 154.547)"/>
    <circle cx="125.031" cy="124.964" r="22.803" fill="#415F76" transform="rotate(-17 125.031 124.964)"/>
    <circle cx="125.031" cy="124.964" r="8.452" fill="#F8F5EE" transform="rotate(-17 125.031 124.964)"/>
  </g>
</svg>
