<svg xmlns="http://www.w3.org/2000/svg" viewBox="0 0 192 192"><defs><style>.cls-2{fill:none;}</style></defs><g id="trim_area" data-name="trim area"><g id="Filter"><path class="cls-1" d="M29.4,16.41l-.14.12s0,0,0,0A.41.41,0,0,1,29.4,16.41Z"/><rect class="cls-2" y="-0.05" width="192" height="192"/><path class="cls-1" d="M8.21,71.62,31.58,57H42.51v75.48H29.84V71.07L13.67,80.79Z"/><path class="cls-1" d="M77.13,109.68A159.4,159.4,0,0,0,89.26,98.87a52.16,52.16,0,0,0,8-9.94,20.43,20.43,0,0,0,2.9-10.65q0-5.79-3.23-9.12t-8.79-3.33q-6.76,0-10.16,2.89t-5,9.78L61,76.86a43.2,43.2,0,0,1,2.79-8.36,21.56,21.56,0,0,1,5-7,24.06,24.06,0,0,1,8-4.8A32.32,32.32,0,0,1,88.33,54.9q12.12,0,18.46,6.17t6.34,16.44A27.27,27.27,0,0,1,110.78,89a41.76,41.76,0,0,1-6.67,10,109.68,109.68,0,0,1-10.37,10.22q-6.08,5.3-13.6,12.18h34l-1.53,11H61.79v-9.72Q70.08,115.42,77.13,109.68Z"/><path class="cls-1" d="M142.49,120.61q3.33,3.11,10.65,3.11,6.44,0,10.16-3.06t3.71-9.72q0-6.45-3.44-9.28t-10.1-2.85h-8.2v-11H154q9.39,0,10.71-8.3a13,13,0,0,0,.43-5.46,8.64,8.64,0,0,0-3.82-6.39,15,15,0,0,0-8.19-2q-6.55,0-9.89,2.78t-5,9l-11.8-1.64a35.09,35.09,0,0,1,2.68-8,21.63,21.63,0,0,1,5-6.67,22.5,22.5,0,0,1,7.81-4.53,34.29,34.29,0,0,1,11.31-1.64,33.58,33.58,0,0,1,11,1.64A22.74,22.74,0,0,1,172,60.91a17.13,17.13,0,0,1,4.53,6.34A20,20,0,0,1,178,74.89q0,12-10.48,17.48,6.56,2.73,9.39,7.48a20.4,20.4,0,0,1,2.84,10.65q0,11.15-6.61,17.54t-19.82,6.39a34.13,34.13,0,0,1-13.11-2.19,22.66,22.66,0,0,1-8.36-5.68,21.31,21.31,0,0,1-4.48-7.86,35.12,35.12,0,0,1-1.58-8.63h12.56Q139.16,117.5,142.49,120.61Z"/></g></g></svg>
