<svg width="178" height="171" xmlns="http://www.w3.org/2000/svg">
  <g fill="none" fill-rule="evenodd">
    <path d="M160.3 78.98c-10.57-20.29-47.37-69.19-81.04-55.01C10.9 52.75-9.88 93.92 15.98 120.45c13.3 13.65 103.8 54.1 141.3 41.34 35.38-12.03 3.43-82.04 3.03-82.81z" fill="#F6F5FF"/>
    <path d="M57.1 87.67c-21.4-3.23-32.75-14.01-34.03-32.35-1.92-27.52 25.61-27.83 31.12-13.46 5.5 14.38-14.81 28.22-36.65 10.3-12.2-10.02-6.69-29.6 6.66-36.64 10.56-5.57 20.26-5.63 25.41-2.18" stroke="#B3AFC9" stroke-width="1.87" stroke-linecap="round" stroke-dasharray="6.22"/>
    <path d="M23.58 97.28h2.92a.78.78 0 0 1 0 1.56h-2.92v2.92a.78.78 0 1 1-1.56 0v-2.92H19.1a.78.78 0 1 1 0-1.56h2.92v-2.91a.78.78 0 1 1 1.56 0v2.91z" fill="#FF3184"/>
    <path stroke="#39B3C2" stroke-width="1.87" opacity=".5" stroke-linejoin="round" d="M109.24 35.32h10.22l-5.11-8.91z"/>
    <path d="M167.46 97.94a4.05 4.05 0 1 0 0-8.09 4.05 4.05 0 0 0 0 8.1z" stroke="#736795" stroke-width="2.11" stroke-linecap="round" stroke-linejoin="round" stroke-dasharray="8.71"/>
    <g transform="translate(60.67 42.58)">
      <path d="M73.52 75.89v16.95a2.49 2.49 0 0 1-2.57 2.48l-13.04-.4 15.61-19.03z" fill="#FFF"/>
      <path d="M56.8 95.17H4.98A4.98 4.98 0 0 1 0 90.2V9.33a4.98 4.98 0 0 1 4.98-4.98H68.5a4.98 4.98 0 0 1 4.98 4.98v72.63" stroke="#B3AFC9" stroke-width="3.11" fill="#FFF" stroke-linecap="round"/>
      <g fill="#B3AFC9">
        <path d="M50.22 25.43H42.5v-1.25H47c.46 0 .84-.37.84-.81v-7.01c0-.45-.38-.8-.84-.8H36.33a.82.82 0 0 0-.84.8v7c0 .45.38.82.84.82h4.5v1.25H23.25a.82.82 0 0 0-.84.8v2.2h28.64v-2.2c0-.44-.37-.8-.84-.8z"/>
        <path d="M47.45 26.9v9.03c0 .42.44.77.98.77.55 0 .99-.35.99-.77V26.9h-1.97zM24.41 26.9v9.03c0 .42.44.77.98.77.55 0 .99-.35.99-.77V26.9H24.4z"/>
      </g>
      <g stroke="#D9D7E4" stroke-linecap="round" stroke-width="3.11">
        <path d="M12.77 45.72h48.26M12.86 61.27h48.17M12.86 77.44h20.98"/>
      </g>
      <ellipse fill="#FFF" cx="45.46" cy="72.78" rx="18.68" ry="18.66"/>
      <g transform="translate(29.89 54.12)" stroke="#B3AFC9">
        <path d="M30.51 29.24l15.7 13.01" stroke-width="4.98" stroke-linecap="round"/>
        <ellipse stroke-width="3.11" fill="#FFF" cx="18.68" cy="18.66" rx="17.13" ry="17.11"/>
        <path d="M27.66 25.67a11.16 11.16 0 0 0-1.5-14.47" stroke-width="2.49" stroke-linecap="round"/>
      </g>
      <path d="M14 9.64h45.47V4.98a3.42 3.42 0 0 0-3.42-3.42H17.43a3.42 3.42 0 0 0-3.42 3.42v4.66z" stroke="#B3AFC9" stroke-width="3.11" fill="#FFF"/>
    </g>
  </g>
</svg>