<?xml version="1.0" encoding="UTF-8"?>
<svg width="697px" height="401px" viewBox="0 0 697 401" version="1.1" xmlns="http://www.w3.org/2000/svg" xmlns:xlink="http://www.w3.org/1999/xlink">
    <!-- Generator: Sketch 63.1 (92452) - https://sketch.com -->
    <title>Group 14</title>
    <desc>Created with Sketch.</desc>
    <defs>
        <linearGradient x1="50%" y1="0%" x2="50%" y2="114.274142%" id="linearGradient-1">
            <stop stop-color="#A5C9DC" offset="0%"></stop>
            <stop stop-color="#89B9CD" offset="100%"></stop>
        </linearGradient>
    </defs>
    <g id="Page-1" stroke="none" stroke-width="1" fill="none" fill-rule="evenodd">
        <g id="boiler-copy-3" transform="translate(-56.000000, -36.000000)">
            <g id="Group-14" transform="translate(57.000000, 37.000000)">
                <g id="Group-13-Copy" transform="translate(0.000000, 260.000000)">
                    <path d="M0,137.112906 L0,38.4767829 C-2.57014425e-15,17.4899624 17.0131795,0.476782854 38,0.476782854 L117.612896,0.476782854 L117.612896,0.476782854 L117.612896,26.0100135 L38.4416724,26.0100135 C31.8142554,26.0100135 26.4416724,31.3825965 26.4416724,38.0100135 L26.4416724,137.100744 L26.4416724,137.100744 L13.016174,138.637862 L0,137.112906 Z" id="Path-85" fill="#B4D3E3"></path>
                    <path d="M-0.000129952175,136.99555 L-0.000129952175,36.1619279 C1.85654669,18.495672 11.5916704,6.91630855 29.2052411,1.42383758 L36.4534029,0.396420956 L98.2958845,0.396420956 L98.2958845,7.40022762 L38.3240047,7.40022762 C22.0306086,7.40021504 8.47211749,19.9201336 7.17640364,36.1619279 C7.17640364,36.1619279 7.17640364,36.1619279 7.17640364,36.1619279 L7.09141054,137.908182 L-0.000129952175,136.99555 Z" id="Path-3" fill="#A5C9DC"></path>
                    <path d="M17.5215956,138.317339 L17.5215956,36.1619279 C17.9349397,22.7206426 26.1628215,16.0485354 42.2052411,16.1456063 L49.4534029,16.1456063 L111.295885,16.1456063 L111.295885,18.7158396 L43.5651307,18.7158396 C27.9159839,18.7158396 20.1197416,24.5312024 20.1764036,36.1619279 L20.0914105,138.317339 L17.5215956,138.317339 Z" id="Path-3-Copy" fill="#A5C9DC"></path>
                    <path d="M0,137.28585 L0,38.4767829 C-9.67557161e-15,17.4899624 17.0131795,0.476782854 38,0.476782854 L117.612896,0.476782854 L117.612896,0.476782854 L117.612896,26.0100135 L38.3963661,26.0100135 C31.7866688,26.0100135 26.4214542,31.3549716 26.396452,37.9646216 L26.0207515,137.28585 L26.0207515,137.28585 C17.4291847,138.960398 8.595137,138.960628 0.0034829244,137.286529 L0,137.28585 L0,137.28585 Z" id="Path-85-Copy" stroke="#02627E" stroke-width="1.5"></path>
                </g>
                <g id="Group-15" transform="translate(70.115392, 298.332175)">
                    <polygon id="Path" fill="#1E6B84" points="26.9154018 21.373358 0 21.373358 0.552113666 20.6678252 41.6059887 -9.09494702e-13 577.576397 -9.09494702e-13 618.150053 21.373358 584.530494 21.373358 572.873252 14.5438997 40.8048325 14.5438997"></polygon>
                    <polyline id="Path-66" stroke="#02627E" stroke-width="1.5" points="26.7279839 21.4994614 40.8048325 14.5438997 572.873252 14.5438997 601.641131 30.5548556"></polyline>
                </g>
                <path d="M647.94024,298.194053 L111.49891,298.194053 L69.75,319.459665 L69.75,336.25 L688.25,336.25 L688.25,319.452375 L647.94024,298.194053 Z" id="Path-60" stroke="#02627E" stroke-width="1.5"></path>
                <g id="Group-13-Copy-2" transform="translate(626.000000, 328.000000) scale(1, -1) translate(-626.000000, -328.000000) translate(553.000000, 270.000000)">
                    <ellipse id="Oval" fill="#B4D3E3" cx="19" cy="111.976783" rx="19" ry="3.5"></ellipse>
                    <ellipse id="Oval-Copy-4" stroke="#02627E" stroke-width="1.5" cx="19" cy="111.976783" rx="18.25" ry="2.75"></ellipse>
                    <path d="M6,111.978215 L6,38.4767829 C6,17.4899624 23.0131795,0.476782854 44,0.476782854 L138.982413,0.476782854 L138.982413,0.476782854 L142.292889,13.3666061 L138.982413,26.0100135 L44.4416724,26.0100135 C37.8142554,26.0100135 32.4416724,31.3825965 32.4416724,38.0100135 L32.4416724,111.978215 L32.4416724,111.978215" id="Path-85" fill="#B4D3E3"></path>
                    <path d="M5.99987005,111.978215 L5.99987005,36.1619279 C7.85654669,18.495672 17.5916704,6.91630855 35.2052411,1.42383758 L42.4534029,0.396420956 L138.982413,0.396420956 L141.570447,7.40022762 L43.3762175,7.40022762 C37.7426492,7.40022805 32.2400893,9.09958666 27.58757,12.2762447 C18.7701874,18.2965979 13.9664653,26.2584923 13.1764036,36.1619279 L13.0914105,111.966052 L5.99987005,111.978215 Z" id="Path-3" fill="#A5C9DC"></path>
                    <path d="M6,111.978215 L6,38.2219119 C6,17.2350914 23.0131795,0.221911902 44,0.221911902 L138.982413,0.221911902 L138.982413,0.221911902 L139.031732,0.323732722 C142.923446,8.35821108 142.905259,17.7358191 138.982413,25.7551425 L138.982413,25.7551425 L138.982413,25.7551425 L44.4416724,25.7551425 C37.8142554,25.7551425 32.4416724,31.1277255 32.4416724,37.7551425 L32.4416724,111.978215 L32.4416724,111.978215" id="Path-85-Copy" stroke="#02627E" stroke-width="1.5"></path>
                </g>
                <path d="M688.25,319.75 L69.75,319.75 L69.75,336.25 L688.25,336.25 L688.25,319.75 Z" id="Rectangle" stroke="#02627E" stroke-width="1.5" fill="#89B9CD"></path>
                <path d="M111.410681,298.332175 L223.325224,298.332175 L244.357805,319.705533 L71.1031473,319.705533 C70.827005,319.705533 70.6031473,319.481675 70.6031473,319.205533 C70.6031473,319.016717 70.7095122,318.844004 70.8781265,318.759029 L111.410681,298.332175 L111.410681,298.332175 Z" id="Path-59" fill="#89B9CD"></path>
                <path d="M111.410681,298.332175 L223.325224,298.332175 L244.357805,319.705533 L70.2618884,319.705533 C70.096203,319.705533 69.9618884,319.571218 69.9618884,319.405533 C69.9618884,319.292243 70.0257073,319.188616 70.1268759,319.137631 L111.410681,298.332175 L111.410681,298.332175 Z" id="Path-59-Copy" stroke="#02627E" stroke-width="1.5"></path>
                <g id="Group-9" transform="translate(93.218998, 223.122890)">
                    <polygon id="Path-70" fill="#8BB6CD" points="29.3956541 90.2776654 40.6061671 83.463489 40.6061671 12.1375024 26.9829493 12.1375024 6.63821273 14.620248 6.63821273 60.2776654"></polygon>
                    <path d="M29.3956541,90.2776654 L40.6061671,83.463489 L40.6061671,14.9082348 L26.9829493,14.9082348 L7.51707758,17.2837292 C7.01536283,17.3449553 6.63821273,17.7709284 6.63821273,18.2763652 L6.63821273,90.2776654 L6.63821273,90.2776654 L29.3956541,90.2776654 Z" id="Path-70-Copy" stroke="#02627E" stroke-width="1.5"></path>
                    <polygon id="Path-69" fill="#A5C9DC" points="-1.77064508e-15 14.7579874 6.74282541 8.02203333 29.3956541 8.02203333 29.3956541 90.2776654 -1.77064508e-15 90.2776654"></polygon>
                    <polygon id="Path-69-Copy" stroke="#02627E" stroke-width="1.5" points="-1.77064508e-15 14.7579874 6.74282541 8.02203333 29.3956541 8.02203333 29.3956541 90.2776654 -1.77064508e-15 90.2776654"></polygon>
                </g>
                <polyline id="Path-84" stroke="#76A2B4" points="107.916825 281.291267 107.916825 302.867769 144.27103 302.867769"></polyline>
                <rect id="Rectangle" fill="#89B9CD" x="102.890675" y="273" width="9.96784566" height="10"></rect>
                <path d="M154.705934,282.781409 L158.341563,282.781409 C174.910105,282.781409 188.341563,269.349952 188.341563,252.781409 L188.341563,239.735903 L188.341563,239.735903 L154.705934,239.735903 L154.705934,282.781409 Z" id="Path-74" stroke="#02627E" stroke-width="1.5" fill="#8BB6CD"></path>
                <path d="M200.575563,212 L141.799441,212 L121.86375,230.5 L121.86375,251.7537 C121.86375,269.292204 136.081517,283.509971 153.620021,283.509971 L158.376292,283.509971 C173.287981,283.509971 185.376292,271.421659 185.376292,256.509971 L185.376292,253 L185.376292,253 L200.575563,253 L200.575563,212 Z" id="Path-8-Copy" fill="#A5C9DC"></path>
                <path d="M199.825563,212.75 L142.093823,212.75 L122.61375,230.827193 L122.61375,251.7537 C122.61375,260.315845 126.084245,268.067413 131.695277,273.678445 C137.306308,279.289476 145.057876,282.759971 153.620021,282.759971 L158.376292,282.759971 C165.62503,282.759971 172.18753,279.82184 176.937845,275.071524 C181.688161,270.321209 184.626292,263.758709 184.626292,256.509971 L184.626292,252.25 L199.825563,252.25 L199.825563,212.75 Z" id="Path-8-Copy-2" stroke="#02627E" stroke-width="1.5"></path>
                <ellipse id="Oval" stroke="#02627E" stroke-width="1.5" fill="#8BB6CD" cx="200.575563" cy="232.5" rx="5.2307074" ry="19.75"></ellipse>
                <path d="M205.061093,218 C202.033294,218 199.578778,224.715729 199.578778,233 C199.578778,241.284271 202.033294,248 205.061093,248 L240.458918,248 L240.458918,218 L205.061093,218 Z" id="Path" stroke="#02627E" stroke-width="1.5" fill="#A5C9DC"></path>
                <g id="Group-8" transform="translate(223.233443, 109.601196)">
                    <path d="M28.1951801,176.687099 C18.4244204,176.524663 11.6917244,169.702347 7.99709214,156.220151 C-12.1039211,67.0666462 11.9848591,16.8604848 16.0530491,8.62461166 C18.7651758,3.1340296 24.1969371,0.392093638 32.3483328,0.397651677 L32.3483328,0.397651677 L418.558238,0.398178707 C426.709633,0.392093638 432.141395,3.1340296 434.853521,8.62461166 C438.921711,16.8604848 463.010492,67.0666462 442.909478,156.220151 C439.194389,169.776999 432.407498,176.60001 422.548807,176.689185 L422.54861,176.690071 L28.5540023,176.690071 Z" id="Combined-Shape" fill="#A5C9DC"></path>
                    <polygon id="Path-9" fill="#B2D4E6" points="3.80311444 135.134707 446.987238 135.134707 445.096311 145.585043 5.93015306 145.585043"></polygon>
                    <polygon id="Path-9-Copy" fill="#B2D4E6" points="1.24473121 115.398804 449.365815 115.398804 448.976643 120.398804 1.79023661 120.398804"></polygon>
                    <path d="M2.74341043,53.8457792 C5.55093374,35.2875168 10.4463549,19.455878 17.4296741,6.35086298 C21.6137009,1.78638598 28.3924968,-0.218510891 37.7660618,0.336172356 C289.58298,0.494093146 415.491439,0.573053541 415.491439,0.573053541 C426.746916,-0.523584933 434.039526,3.85099853 437.36927,13.6968039 C442.170057,25.966923 445.844886,39.3590424 448.393756,53.8731619 L16.9850759,54.6279158 L2.74341043,54.6279158 L2.74341043,53.8457792 Z" id="Path-8" fill="#BBDBEC"></path>
                    <path d="M28.1951801,176.687099 C18.4244204,176.524663 11.6917244,169.702347 7.99709214,156.220151 C-12.1039211,67.0666462 11.9848591,16.8604848 16.0530491,8.62461166 C18.7651758,3.1340296 24.1969371,0.392093638 32.3483328,0.397651677 L32.3483328,0.397651677 L418.558238,0.398178707 C426.709633,0.392093638 432.141395,3.1340296 434.853521,8.62461166 C438.921711,16.8604848 463.010492,67.0666462 442.909478,156.220151 C439.194389,169.776999 432.407498,176.60001 422.548807,176.689185 L422.54861,176.690071 L28.5540023,176.690071 Z" id="Combined-Shape-Copy" stroke="#02627E" stroke-width="1.5"></path>
                </g>
                <polyline id="Path-82" stroke="#76A2B4" points="113.653081 250 135.710453 250 135.710453 232.5 146.890991 221.725515 180.141479 221.725515"></polyline>
                <rect id="Rectangle" fill="#89B9CD" x="175.655949" y="219" width="8.97106109" height="9"></rect>
                <path d="M107.860696,258 C112.264767,258 115.834972,254.418278 115.834972,250 C115.834972,245.581722 112.264767,242 107.860696,242 L99.9003215,242 L99.9003215,258 L107.860696,258 Z" id="Path" fill="#89B9CD"></path>
                <ellipse id="Oval" fill="#89B9CD" cx="571.379421" cy="114" rx="50.8360129" ry="13"></ellipse>
                <g id="Group-7" transform="translate(502.601286, 0.000000)">
                    <g id="tomb" transform="translate(21.929260, 71.000000)">
                        <path d="M0.340205545,24.2933827 L0.343294307,12.6012287 C2.68859538,3.82541583 27.5821265,0.431099035 47.9245646,0.431099035 C68.2670027,0.431099035 90.8090882,3.99161461 93.9386041,12.6012287 L93.9386041,45.0544881 C63.2625777,50.6874995 32.0641411,50.8829444 0.343294307,45.6408226 L0.340205545,37.5277284 L0.340205545,24.2933827 Z" id="Path-Copy-7" fill="#89B9CD"></path>
                        <polygon id="Path-7" fill="#BBDBEC" points="72.2318298 18.4851672 77.2157527 17.638634 77.2157527 67.8138851 72.2318298 67.8138851"></polygon>
                        <path d="M16.2474039,17.067203 L16.2474039,66.4222374 C20.3846124,67.5188811 26.5675813,68.067203 34.7963107,68.067203 L35.0025058,19.9080919 L16.2474039,17.067203 Z" id="Path-6" fill="#BBDBEC"></path>
                        <path d="M0.340205545,38.9988395 L0.340205545,28.6762511 L0.343294307,14.8365587 C0.343294307,5.35445921 27.5821265,0.431099035 47.9245646,0.431099035 C68.2670027,0.431099035 92.2048333,4.4006263 93.9386041,14.8365587 L93.9386041,38.9993749 L100.503278,38.9993749" id="Path" stroke="#02627E" stroke-width="1.5" stroke-linecap="round"></path>
                        <path d="M0.340205545,14.8365587 C32.0631116,21.5032253 63.2625777,21.5032253 93.9386041,14.8365587" id="Path-5" stroke="#02627E" stroke-width="1.5"></path>
                    </g>
                    <path d="M22.2540119,85.75 L9,85.75 C6.72182541,85.75 4.65932541,86.6734127 3.16636906,88.1663691 C1.6734127,89.6593254 0.75,91.7218254 0.75,94 L0.75,110.052077 L22.2540119,110.052077 L22.2540119,85.75 Z" id="Rectangle" stroke="#02627E" stroke-width="1.5" fill="#89B9CD"></path>
                    <ellipse id="Oval" stroke="#02627E" stroke-width="1.5" fill="#A5C9DC" cx="11.9614148" cy="96" rx="3.23713826" ry="3.25"></ellipse>
                    <g id="Group-13" transform="translate(50.398714, 0.000000)">
                        <ellipse id="Oval" fill="#B4D3E3" cx="19" cy="79.9767829" rx="19" ry="3.5"></ellipse>
                        <ellipse id="Oval-Copy-4" stroke="#02627E" stroke-width="1.5" cx="19" cy="79.9767829" rx="18.25" ry="2.75"></ellipse>
                        <path d="M6,79.9782146 L6,38.4767829 C6,17.4899624 23.0131795,0.476782854 44,0.476782854 L138.982413,0.476782854 L138.982413,0.476782854 L142.292889,13.3666061 L138.982413,26.0100135 L44.4416724,26.0100135 C37.8142554,26.0100135 32.4416724,31.3825965 32.4416724,38.0100135 L32.4416724,79.9782146 L32.4416724,79.9782146" id="Path-85" fill="#B4D3E3"></path>
                        <path d="M5.99987005,79.9782146 L5.99987005,36.1619279 C7.85654669,18.495672 17.5916704,6.91630855 35.2052411,1.42383758 L42.4534029,0.396420956 L138.982413,0.396420956 L141.570447,7.40022762 L43.3762175,7.40022762 C37.7426492,7.40022805 32.2400893,9.09958666 27.58757,12.2762447 C18.7701874,18.2965979 13.9664653,26.2584923 13.1764036,36.1619279 L13.0914105,79.9660518 L5.99987005,79.9782146 Z" id="Path-3" fill="#A5C9DC"></path>
                        <path d="M6,79.9782146 L6,38.4126222 C6,17.4508748 22.9740677,0.448098952 43.9357852,0.412676456 L138.982413,0.252060382 L138.982413,0.252060382 L139.213282,0.737041889 C142.989897,8.67046725 142.904746,17.9006548 138.982413,25.7630559 L138.982413,25.7630559 L138.982413,25.7630559 L44.4416724,25.7630559 C37.8142554,25.7630559 32.4416724,31.1356389 32.4416724,37.7630559 L32.4416724,79.9782146 L32.4416724,79.9782146" id="Path-85-Copy" stroke="#02627E" stroke-width="1.5"></path>
                    </g>
                </g>
                <polyline id="Path-68" stroke="#02627E" stroke-width="1.5" fill="url(#linearGradient-1)" points="309.862527 280.767187 292.279743 319.705533 341.757144 319.705533 327.493959 280.767187"></polyline>
                <polyline id="Path-68-Copy" stroke="#02627E" stroke-width="1.5" fill="url(#linearGradient-1)" points="449.412366 280.767187 431.829582 319.705533 481.306983 319.705533 467.043798 280.767187"></polyline>
                <polyline id="Path-68-Copy-2" stroke="#02627E" stroke-width="1.5" fill="url(#linearGradient-1)" points="588.962205 280.767187 571.379421 319.705533 620.856822 319.705533 606.593637 280.767187"></polyline>
                <polygon id="Path-72" fill="#A5C9DC" points="132.794212 314.523643 175.88174 314.523643 167.385504 306 141.752425 306"></polygon>
                <path d="M167.7274,302.933829 L183.137548,302.933829 C184.810653,302.933829 186.428423,303.533093 187.697777,304.623056 L190.792976,307.280827 C191.880994,308.215081 193.267655,308.728736 194.701744,308.728736 L422.36175,308.728736 C422.914034,308.728736 423.36175,308.281021 423.36175,307.728736 C423.36175,307.354652 423.152959,307.011849 422.820575,306.84021 L410.132787,300.288372 C407.806101,299.086896 406.344565,296.687277 406.344565,294.068687 L406.344565,287.019107 L406.344565,287.019107" id="Path-73" stroke="#04485E" stroke-width="2"></path>
                <ellipse id="Oval-Copy-6" stroke="#02627E" stroke-width="1.5" fill="#89B9CD" cx="156.21865" cy="260.5" rx="11.7098071" ry="11.75"></ellipse>
                <ellipse id="Oval" stroke="#02627E" stroke-width="1.5" fill="#89B9CD" cx="153.228296" cy="260.5" rx="11.7098071" ry="11.75"></ellipse>
                <rect id="Rectangle" fill="#BBDBEC" x="150.736334" y="252" width="4.98392283" height="17" rx="2.49196141"></rect>
                <ellipse id="Oval-Copy-5" stroke="#02627E" stroke-width="1.5" fill="#89B9CD" cx="156.21865" cy="299.5" rx="11.7098071" ry="11.75"></ellipse>
                <ellipse id="Oval-Copy-4" stroke="#02627E" stroke-width="1.5" fill="#89B9CD" cx="153.228296" cy="299.5" rx="11.7098071" ry="11.75"></ellipse>
                <ellipse id="Oval-Copy-7" fill="#BBDBEC" cx="153.228296" cy="299.5" rx="7.47588424" ry="7.5"></ellipse>
                <g id="Group-10" transform="translate(280.318328, 291.000000)">
                    <line x1="5.867821" y1="12.7320124" x2="5.867821" y2="17.7320124" id="Path-76" stroke="#04485E" stroke-width="2"></line>
                    <polygon id="Path-75" stroke="#02627E" stroke-width="1.5" fill="#89B9CD" points="1.53778498 8.79959443 9.51206151 8.79959443 7.601559 14.7995944 3.89509683 14.7995944"></polygon>
                    <rect id="Rectangle" stroke="#02627E" stroke-width="1.5" fill="#89B9CD" x="0.75" y="0.75" width="9.46463023" height="9.5"></rect>
                </g>
                <g id="Group-10-Copy" transform="translate(343.115756, 291.000000)">
                    <line x1="5.867821" y1="12.7320124" x2="5.867821" y2="17.7320124" id="Path-76" stroke="#04485E" stroke-width="2"></line>
                    <polygon id="Path-75" stroke="#02627E" stroke-width="1.5" fill="#89B9CD" points="1.53778498 8.79959443 9.51206151 8.79959443 7.601559 14.7995944 3.89509683 14.7995944"></polygon>
                    <rect id="Rectangle" stroke="#02627E" stroke-width="1.5" fill="#89B9CD" x="0.75" y="0.75" width="9.46463023" height="9.5"></rect>
                </g>
                <g id="Group-10-Copy-2" transform="translate(384.980707, 291.000000)">
                    <line x1="5.867821" y1="12.7320124" x2="5.867821" y2="17.7320124" id="Path-76" stroke="#04485E" stroke-width="2"></line>
                    <polygon id="Path-75" stroke="#02627E" stroke-width="1.5" fill="#89B9CD" points="1.53778498 8.79959443 9.51206151 8.79959443 7.601559 14.7995944 3.89509683 14.7995944"></polygon>
                    <rect id="Rectangle" stroke="#02627E" stroke-width="1.5" fill="#89B9CD" x="0.75" y="0.75" width="9.46463023" height="9.5"></rect>
                </g>
                <path d="M468.323707,166.37547 C468.323707,169.481812 470.841894,172 473.948237,172 L476.684887,172 L476.684887,172 C476.684887,172.794695 477.329115,173.438922 478.12381,173.438922 L496.178441,173.438922 C496.973136,173.438922 497.617363,172.794695 497.617363,172 L497.617363,172 L497.617363,172 L498.725346,172 L498.725346,189 C498.725346,195.627417 504.097929,201 510.725346,201 L520.543408,201 L520.543408,201 C520.543408,201.542576 520.983253,201.982421 521.525829,201.982421 L540.493463,201.982421 C541.036039,201.982421 541.475884,201.542576 541.475884,201 L541.475884,201 L541.475884,201 L586.970068,201 C593.0452,201 597.970068,196.075132 597.970068,190 L597.970068,172.604388 L597.970068,172.604388 L621.390837,172.604388 C624.969044,172.604388 627.869755,169.703678 627.869755,166.12547 L627.869755,166.12547 L627.869755,166.12547 L468.323707,166.37547 Z" id="Path-81" fill="#98BED2"></path>
                <g id="pipe" transform="translate(468.710611, 162.250940)">
                    <path d="M32.4099907,7.74905968 L32.4099907,26.1869855 C32.4099907,31.709833 36.8871432,36.1869855 42.4099907,36.1869855 L116.59164,36.1869855 C122.114487,36.1869855 126.59164,31.709833 126.59164,26.1869855 L126.59164,7.74905968 L126.59164,7.74905968 L118.615944,7.74905968 L118.615944,23.84241 C118.615944,26.6038338 116.377367,28.84241 113.615944,28.84241 L44.8277031,28.84241 C42.0662793,28.84241 39.8277031,26.6038338 39.8277031,23.84241 L39.8277031,7.74905968 L39.8277031,7.74905968 L32.4099907,7.74905968 Z" id="Path-77" fill="#89B9CD"></path>
                    <path d="M32.4099907,7.74905968 L32.4099907,26.1869855 C32.4099907,31.709833 36.8871432,36.1869855 42.4099907,36.1869855 L116.59164,36.1869855 C122.114487,36.1869855 126.59164,31.709833 126.59164,26.1869855 L126.59164,7.74905968 L126.59164,7.74905968" id="Path-77-Copy" stroke="#02627E" stroke-width="1.5"></path>
                    <path d="M39.8277031,7.74905968 L39.8277031,24.84241 C39.8277031,27.051549 41.6185641,28.84241 43.8277031,28.84241 L114.615944,28.84241 C116.825083,28.84241 118.615944,27.051549 118.615944,24.84241 L118.615944,7.74905968 L118.615944,7.74905968" id="Path-78" stroke="#02627E" stroke-width="1.5"></path>
                    <path d="M33.1517868,7.74905968 L3.87452984,7.74905968 C1.7346861,7.74905968 2.62055279e-16,6.01437358 0,3.87452984 C-2.62055279e-16,1.7346861 1.7346861,-2.57178659e-13 3.87452984,-2.57571742e-13 L154.614216,-2.57571742e-13 C156.75406,-2.59297092e-13 158.488746,1.7346861 158.488746,3.87452984 C158.488746,6.01437358 156.75406,7.74905968 154.614216,7.74905968 L125.845088,7.74905968 L125.845088,7.74905968 M119.361616,7.74905968 C119.361616,7.74905968 92.6012771,7.74905968 39.0805986,7.74905968" id="Shape" stroke="#02627E" stroke-width="1.5" fill="#89B9CD"></path>
                </g>
                <g id="Group-11" transform="translate(476.684887, 156.604388)">
                    <rect id="Rectangle" fill="#BBDBEC" x="0" y="3.39561192" width="20.9324759" height="12" rx="3"></rect>
                    <rect id="Rectangle-Copy-3" fill="#A5C9DC" x="0.996784566" y="10.3956119" width="18.9389068" height="2"></rect>
                    <rect id="Rectangle-Copy-2" stroke="#02627E" stroke-width="1.5" x="0.75" y="4.14561192" width="19.4324759" height="10.5" rx="3"></rect>
                    <line x1="10.4662379" y1="4.0362659" x2="10.4662379" y2="0.5" id="Path-79" stroke="#02627E" stroke-width="1.5"></line>
                    <line x1="7.01866773" y1="0.5" x2="13.8003764" y2="0.5" id="Path-80" stroke="#02627E" stroke-width="1.5" stroke-linecap="round"></line>
                </g>
                <g id="Group-11-Copy" transform="translate(537.488746, 156.604388)">
                    <rect id="Rectangle" fill="#BBDBEC" x="0" y="3.39561192" width="20.9324759" height="12" rx="3"></rect>
                    <rect id="Rectangle-Copy-3" fill="#A5C9DC" x="0.996784566" y="10.3956119" width="18.9389068" height="2"></rect>
                    <rect id="Rectangle-Copy-2" stroke="#02627E" stroke-width="1.5" x="0.75" y="4.14561192" width="19.4324759" height="10.5" rx="3"></rect>
                    <line x1="10.4662379" y1="4.0362659" x2="10.4662379" y2="0.5" id="Path-79" stroke="#02627E" stroke-width="1.5"></line>
                    <line x1="7.01866773" y1="0.5" x2="13.8003764" y2="0.5" id="Path-80" stroke="#02627E" stroke-width="1.5" stroke-linecap="round"></line>
                </g>
                <g id="Group-11-Copy-2" transform="translate(520.543408, 185.000000)">
                    <rect id="Rectangle" fill="#BBDBEC" x="0" y="3.39561192" width="20.9324759" height="12" rx="3"></rect>
                    <rect id="Rectangle-Copy-3" fill="#A5C9DC" x="0.996784566" y="10.3956119" width="18.9389068" height="2"></rect>
                    <rect id="Rectangle-Copy-2" stroke="#02627E" stroke-width="1.5" x="0.75" y="4.14561192" width="19.4324759" height="10.5" rx="3"></rect>
                    <line x1="10.4662379" y1="4.0362659" x2="10.4662379" y2="0.5" id="Path-79" stroke="#02627E" stroke-width="1.5"></line>
                    <line x1="7.01866773" y1="0.5" x2="13.8003764" y2="0.5" id="Path-80" stroke="#02627E" stroke-width="1.5" stroke-linecap="round"></line>
                </g>
                <rect id="Rectangle" fill="#98BED2" x="317.199357" y="146" width="10.9646302" height="2"></rect>
                <g id="Group-13" transform="translate(317.199357, 132.000000)">
                    <path d="M0.996784566,-1.77635684e-15 L10.8475847,-1.77635684e-15 L7.11855048,5.01082705 L7.11855048,26.0614235 C7.11855048,26.9594056 6.39059219,27.6873639 5.49261013,27.6873639 C4.59462807,27.6873639 3.86666978,26.9594056 3.86666978,26.0614235 L3.86666978,5.01082705 L3.86666978,5.01082705 L0.996784566,-1.77635684e-15 Z" id="Path-83" fill="#89B9CD"></path>
                    <path d="M0.644886735,0 L10.4956869,0 L7.11855048,5.01082705 L7.11855048,26.0614235 C7.11855048,26.9594056 6.39059219,27.6873639 5.49261013,27.6873639 C4.59462807,27.6873639 3.86666978,26.9594056 3.86666978,26.0614235 L3.86666978,5.01082705 L3.86666978,5.01082705 L0.644886735,0 Z" id="Path-83-Copy" stroke="#02627E" stroke-width="1.5"></path>
                </g>
                <g id="Group-12" transform="translate(314.209003, 73.000000)">
                    <path d="M4.23633441,1.6716796 C6.98458906,0.745285821 9.96074856,0.745285821 12.7090032,1.6716796 C15.2405955,2.52503987 16.9453376,4.89867018 16.9453376,7.57022092 L16.9453376,55.5166867 C16.9453376,56.9292255 15.9599693,58.150415 14.5793336,58.4489297 L12.7090032,58.8533238 C9.91703803,59.4569896 7.02829959,59.4569896 4.23633441,58.8533238 L2.36600402,58.4489297 C0.985368309,58.150415 -2.96348016e-15,56.9292255 0,55.5166867 L0,7.57022092 C-1.21534903e-15,4.89867018 1.7047421,2.52503987 4.23633441,1.6716796 Z" id="Rectangle" fill="#89B9CD"></path>
                    <path d="M12.5875226,2.1912391 C9.86251934,1.74395267 7.08281829,1.74395267 4.357815,2.1912391 L1.79753235,2.61148801 C1.495469,2.66106918 1.23358591,2.81638988 1.04721866,3.03584166 C0.860851411,3.25529344 0.75,3.5388763 0.75,3.84498177 L0.75,57.6110012 C0.75,57.926893 0.867854939,58.217954 1.06410103,58.4396104 C1.26034713,58.6612667 1.53498438,58.8135186 1.848549,58.8517923 L4.45785777,59.1702846 C7.18208901,59.5028044 9.93685685,59.4993294 12.6602405,59.1599377 L15.0999185,58.8559018 C15.4127892,58.8169114 15.686644,58.6644556 15.8822811,58.4429246 C16.0779182,58.2213936 16.1953376,57.9307876 16.1953376,57.6154967 L16.1953376,3.84498177 C16.1953376,3.5388763 16.0844862,3.25529344 15.898119,3.03584166 C15.7117517,2.81638988 15.4498686,2.66106918 15.1478053,2.61148801 L12.5875226,2.1912391 Z" id="Rectangle-Copy-4" stroke="#02627E" stroke-width="1.5"></path>
                </g>
                <path d="M305.562694,92.5520769 L292.507405,92.5520769 L284.058682,100.53646 L284.058682,110.052077 L305.562694,110.052077 L305.562694,92.5520769 Z" id="Path" stroke="#02627E" stroke-width="1.5" fill="#89B9CD"></path>
                <ellipse id="Oval-Copy-8" stroke="#02627E" stroke-width="1.5" fill="#A5C9DC" cx="295.270096" cy="102" rx="3.23713826" ry="3.25"></ellipse>
            </g>
        </g>
    </g>
</svg>