<?xml version="1.0" encoding="UTF-8"?>
<svg width="20px" height="22px" viewBox="0 0 20 22" version="1.1" xmlns="http://www.w3.org/2000/svg" xmlns:xlink="http://www.w3.org/1999/xlink">
    <!-- Generator: Sketch 59 (86127) - https://sketch.com -->
    <title>Group 8</title>
    <desc>Created with Sketch.</desc>
    <g id="Page-1" stroke="none" stroke-width="1" fill="none" fill-rule="evenodd">
        <g id="Kiosk-Icons" transform="translate(-193.000000, -115.000000)">
            <g id="Group-8" transform="translate(193.667594, 116.000000)">
                <polygon id="Rectangle-Copy-18" fill="#FF3073" points="2.66624349 4.90004867 9 2.5594725 9 19.4649901 2.66624349 16.5611815"></polygon>
                <g id="Group-2-Copy-2" transform="translate(9.000000, 10.000000) scale(-1, 1) translate(-9.000000, -10.000000) ">
                    <path d="M2.598312,6.85649742 L5.40203238,9.87556214 C5.58782468,10.0756245 5.57877853,10.3877361 5.38171075,10.5767018 L2.57799037,13.265152 C2.37867394,13.4562739 2.06216115,13.4496309 1.87103927,13.2503144 C1.78177315,13.157221 1.73193359,13.0332338 1.73193359,12.9042577 L1.73193359,7.19674272 C1.73193359,6.92060034 1.95579122,6.69674272 2.23193359,6.69674272 C2.37095862,6.69674272 2.50370677,6.75462588 2.598312,6.85649742 Z" id="Rectangle-Copy-11" fill="#FF3073" transform="translate(3.734408, 10.000000) scale(-1, 1) translate(-3.734408, -10.000000) "></path>
                    <polygon id="Rectangle-Copy-12" stroke="#733C9A" stroke-width="2" stroke-linejoin="round" points="8.36230469 0 17.3623047 3.80952381 17.3623047 16.1904762 8.36230469 20"></polygon>
                    <polyline id="Path-Copy-4" stroke="#733C9A" stroke-width="2" stroke-linejoin="round" points="5 16 0 16 0 4 0 4 5 4"></polyline>
                    <circle id="Oval-Copy-4" stroke="#FFFFFF" cx="11.6462402" cy="10" r="1"></circle>
                </g>
            </g>
        </g>
    </g>
</svg>