<svg width="50" height="50" viewBox="0 0 50 50" xmlns="http://www.w3.org/2000/svg"><path d="M41.32 7.633c1.427.004 2.59 1.096 2.674 2.472l.005.166v36.777c.035 1.539-1.164 2.822-2.71 2.943l-.172.009H8.88c-1.57-.034-2.825-1.265-2.88-2.783L6 47.047V10.272c0-.066.002-.133.007-.2.104-1.393 1.299-2.453 2.706-2.438l.17.007h5.634v3.273c0 .48.228 1.126.685 1.21l.101.01H34.63c.49 0 .807-.615.848-1.115l.004-.105V7.64h5.634c.068-.005.136-.007.204-.007zM28.22 33.29H14.037l-.298.02a2.202 2.202 0 00-1.894 2.186 2.2 2.2 0 002.192 2.206h14.182l.297-.02a2.202 2.202 0 001.895-2.186 2.2 2.2 0 00-2.192-2.206zm7.86-11.765H14.038l-.298.02a2.202 2.202 0 00-1.894 2.186 2.2 2.2 0 002.192 2.206H36.08l.297-.02a2.202 2.202 0 001.895-2.186 2.2 2.2 0 00-2.192-2.206zM28.8 3.02c.106.402.447.698.858.759l.125.011h3.735v6.418H16.482V3.79h3.604a.98.98 0 00.983-.706c.35-1.812 1.983-3.113 3.865-3.08 1.871-.065 3.511 1.215 3.865 3.016z" fill="#FFF" fill-rule="nonzero"/></svg>
