<svg viewBox="0 0 512 512" xmlns="http://www.w3.org/2000/svg">
  <g fill="none" fill-rule="evenodd">
    <path d="M470.525 236.261C438.48 174.896 326.992 26.964 225.005 69.844 17.895 156.922-45.041 281.484 33.28 361.743c40.295 41.29 314.47 163.633 428.054 125.065 107.196-36.4 10.418-248.194 9.19-250.547z" fill="#F6F5FF"/>
    <path d="M157.873 262.554c-64.869-9.752-99.237-42.375-103.105-97.868-5.801-83.24 77.597-84.182 94.275-40.701 16.678 43.48-44.862 85.357-111.021 31.126C1.08 124.831 17.76 65.61 58.202 44.287c31.986-16.863 61.375-17.021 76.972-6.586" stroke="#B3AFC9" stroke-width="5.659" stroke-linecap="round" stroke-dasharray="18.864"/>
    <path d="M56.317 291.65h8.86a2.352 2.352 0 010 4.705h-8.86v8.82a2.358 2.358 0 11-4.716 0v-8.82h-8.86a2.352 2.352 0 010-4.705h8.86v-8.827a2.358 2.358 0 114.716 0v8.827z" fill="#FF3184"/>
    <path stroke="#39B3C2" stroke-width="5.659" opacity=".5" stroke-linejoin="round" d="M315.81 104.204h30.961l-15.48-26.984z"/>
    <path d="M492.192 293.638c6.772 0 12.262-5.477 12.262-12.232 0-6.756-5.49-12.233-12.262-12.233s-12.262 5.477-12.262 12.233c0 6.755 5.49 12.232 12.262 12.232z" stroke="#736795" stroke-width="6.414" stroke-linecap="round" stroke-linejoin="round" stroke-dasharray="26.41"/>
    <g transform="translate(168.667 126.15)">
      <path d="M222.727 229.59v51.252a7.546 7.546 0 01-7.783 7.542l-39.504-1.245 47.287-57.548z" fill="#FFF"/>
      <path d="M172.075 287.93H15.092C6.757 287.93 0 281.188 0 272.873V28.228c0-8.314 6.757-15.055 15.092-15.055h192.417c8.335 0 15.092 6.74 15.092 15.055V247.96" stroke="#B3AFC9" stroke-width="9.432" fill="#FFF" stroke-linecap="round"/>
      <path d="M105.35 109.15a2.18 2.18 0 01-1.022-.261 2.17 2.17 0 01-1.154-1.91v-6.515h-13.06a10.897 10.897 0 01-7.696-3.18 10.844 10.844 0 01-3.187-7.677V63.55c0-5.996 4.872-10.857 10.883-10.857h43.534c6.01 0 10.883 4.86 10.883 10.857v26.057c0 5.996-4.873 10.857-10.883 10.857h-14.584l-12.516 8.316a2.18 2.18 0 01-1.197.37zm-6.53-36.914a4.348 4.348 0 00-4.353 4.342 4.348 4.348 0 004.354 4.343 4.348 4.348 0 004.353-4.343 4.348 4.348 0 00-4.353-4.342zm13.06 0a4.348 4.348 0 00-4.353 4.342 4.348 4.348 0 004.354 4.343 4.348 4.348 0 004.353-4.343 4.348 4.348 0 00-4.353-4.342zm13.06 0a4.348 4.348 0 00-4.353 4.342 4.348 4.348 0 004.354 4.343 4.348 4.348 0 004.353-4.343 4.348 4.348 0 00-4.353-4.342z" fill="#B3AFC9" fill-rule="nonzero"/>
      <path d="M38.672 138.319h146.2M38.955 185.366h145.917m-145.92 48.929h63.566" stroke="#D9D7E4" stroke-linecap="round" stroke-width="9.432"/>
      <ellipse fill="#FFF" cx="137.711" cy="220.181" rx="56.593" ry="56.457"/>
      <g transform="translate(90.55 163.724)" stroke="#B3AFC9">
        <path d="M92.436 88.449l47.536 39.382" stroke-width="15.092" stroke-linecap="round"/>
        <ellipse stroke-width="9.432" fill="#FFF" cx="56.593" cy="56.457" rx="51.877" ry="51.741"/>
        <path d="M83.786 77.651c3.783-5.463 6-12.09 6-19.232 0-9.66-4.053-18.374-10.555-24.545" stroke-width="7.546" stroke-linecap="round"/>
      </g>
      <path d="M42.445 29.158h137.71V15.092c0-5.73-4.645-10.376-10.375-10.376H52.82c-5.73 0-10.375 4.645-10.375 10.376v14.066z" stroke="#B3AFC9" stroke-width="9.432" fill="#FFF"/>
    </g>
  </g>
</svg>
