<?xml version="1.0" encoding="iso-8859-1"?>
<!-- Generator: Adobe Illustrator 19.0.0, SVG Export Plug-In . SVG Version: 6.00 Build 0)  -->
<svg version="1.1" id="Capa_1" xmlns="http://www.w3.org/2000/svg" xmlns:xlink="http://www.w3.org/1999/xlink" x="0px" y="0px"
	 viewBox="0 0 512 512" style="enable-background:new 0 0 512 512;" xml:space="preserve">
<g>
	<g>
		<path d="M510.365,458.065c-1.46-2.866-36.559-70.639-106.152-110.863c-33.858-19.57-68.312-34.149-96.246-40.855
			c-2.164-5.855-5.314-11.313-9.345-16.157c8.173-27.573,12.793-64.747,12.793-103.903c0-80.441-41.079-144.754-42.827-147.453
			c-5.907-9.114-19.27-9.112-25.176,0c-1.749,2.698-42.827,67.011-42.827,147.453c0,39.155,4.62,76.329,12.792,103.901
			c-4.03,4.843-7.18,10.302-9.345,16.159c-27.934,6.707-62.387,21.285-96.245,40.855C38.194,387.426,3.095,455.199,1.635,458.065
			c-2.306,4.526-2.165,9.913,0.376,14.312c4.67,8.086,12.455,7.617,19.18,7.617c20.757,0,83.704-3.034,142.023-36.742
			c33.876-19.579,63.729-42.175,83.498-63.05c6.235,1.058,12.335,1.059,18.577,0c19.769,20.875,49.621,43.471,83.498,63.05v-0.001
			c58.324,33.711,121.271,36.743,142.023,36.743c6.731,0,14.5,0.486,19.18-7.617C512.53,467.978,512.671,462.592,510.365,458.065z
			 M148.202,417.279c-38.105,22.024-79.4,29.297-105.567,31.631c15.105-21.526,42.05-53.705,80.166-75.736
			c27.848-16.096,55.763-28.475,79.184-35.269c2.526,11.073,8.397,20.892,16.359,28.321
			C200.75,383.146,176.067,401.173,148.202,417.279z M256,350.997c-13.958,0-25.266-11.287-25.409-25.163
			c-0.158-13.905,11.048-25.665,25.409-25.665c14.39,0,25.566,11.789,25.409,25.665C281.267,339.621,270.028,350.997,256,350.997z
			 M272.329,272.594c-10.348-3.196-21.683-3.39-32.658,0c-5.835-23.708-9.086-54.108-9.086-86.307
			c0-44.069,14.37-83.53,25.438-107.386c11.062,23.793,25.392,63.155,25.392,107.386
			C281.415,218.485,278.165,248.885,272.329,272.594z M363.798,417.279c-27.866-16.106-52.549-34.133-70.141-51.052
			c7.528-7.023,13.735-16.817,16.359-28.32c23.421,6.794,51.336,19.173,79.184,35.268c38.115,22.031,65.063,54.213,80.166,75.735
			C443.193,446.574,401.899,439.301,363.798,417.279z" fill="#ff3184"/>
	</g>
</g>
<g>
</g>
<g>
</g>
<g>
</g>
<g>
</g>
<g>
</g>
<g>
</g>
<g>
</g>
<g>
</g>
<g>
</g>
<g>
</g>
<g>
</g>
<g>
</g>
<g>
</g>
<g>
</g>
<g>
</g>
</svg>
