<svg xmlns="http://www.w3.org/2000/svg" width="24" height="22" viewBox="0 0 24 22">
    <path fill="#324056" stroke="#2F4158" stroke-width=".2" d="M21.118.6c.194 0 .355.137.392.32l.008.08v10.292H23c.193 0 .355.138.392.32l.008.08v9.46c0 .193-.137.355-.32.392l-.08.008H1.4c-.193 0-.355-.137-.392-.32L1 21.153v-9.46c0-.192.137-.354.32-.391l.08-.008 17.651-.001.593-10.315c.01-.185.146-.335.322-.37L20.043.6h1.075zm.01 11.491l-.01.002h-1.7 0l-17.619-.001v8.66h20.8v-8.66l-1.471-.001zM5.836 14.889c.966 0 1.75.783 1.75 1.75 0 .966-.784 1.75-1.75 1.75-.967 0-1.75-.784-1.75-1.75 0-.967.783-1.75 1.75-1.75zm4.608 0c.966 0 1.75.783 1.75 1.75 0 .966-.784 1.75-1.75 1.75-.967 0-1.75-.784-1.75-1.75 0-.967.783-1.75 1.75-1.75zm4.608 0c.966 0 1.75.783 1.75 1.75 0 .966-.784 1.75-1.75 1.75-.967 0-1.75-.784-1.75-1.75 0-.967.783-1.75 1.75-1.75zm-9.216.86c-.491 0-.89.399-.89.89 0 .49.399.889.89.889.49 0 .889-.398.889-.89 0-.49-.398-.888-.89-.888zm4.608 0c-.491 0-.89.399-.89.89 0 .49.399.889.89.889.49 0 .889-.398.889-.89 0-.49-.398-.888-.89-.888zm4.608 0c-.491 0-.89.399-.89.89 0 .49.399.889.89.889.49 0 .889-.398.889-.89 0-.49-.398-.888-.89-.888zM20.718 1.4h-.298l-.569 9.893h.867V1.399zm-9.285 6.336c.286.286.286.752 0 1.038-.143.143-.331.215-.52.215-.187 0-.375-.072-.518-.215-.287-.286-.287-.752 0-1.038.286-.287.752-.287 1.038 0zm1.164-1.423l.134.125-.52.519c-.675-.676-1.752-.714-2.472-.113l-.123.113-.52-.52c.959-.958 2.492-1 3.501-.124zm-1.683-2.464c1.098 0 2.135.4 2.945 1.129l.17.161-.519.52c-.693-.694-1.615-1.076-2.596-1.076-.906 0-1.76.326-2.433.921l-.164.155-.519-.52c.832-.832 1.939-1.29 3.116-1.29zm0-1.836c1.569 0 3.05.575 4.202 1.626l.212.202-.52.52c-1.04-1.04-2.423-1.614-3.894-1.614-1.38 0-2.681.504-3.696 1.424l-.199.19-.519-.52c1.179-1.179 2.746-1.828 4.414-1.828z"/>
</svg>
