<?xml version="1.0" encoding="UTF-8"?>
<svg width="500px" height="500px" viewBox="0 0 500 500" version="1.1" xmlns="http://www.w3.org/2000/svg" xmlns:xlink="http://www.w3.org/1999/xlink">
    <!-- Generator: Sketch 60.1 (88133) - https://sketch.com -->
    <title>work permit</title>
    <desc>Created with Sketch.</desc>
    <g id="work-permit" stroke="none" stroke-width="1" fill="none" fill-rule="evenodd">
        <g id="book-copy" transform="translate(100.000000, 59.714286)" fill-rule="nonzero">
            <path d="M48.330976,7.42574257 C35.2074611,7.42574257 24.5685997,18.064604 24.5685997,31.1881188 L24.5685997,349.009901 C24.5685997,335.886386 35.2074611,325.247525 48.330976,325.247525 L291.717115,325.247525 L291.717115,7.42574257 L48.330976,7.42574257 Z" id="XMLID_889_" fill="#E8EDFC"></path>
            <path d="M31.1881188,325.247525 L292.574257,325.247525 L292.574257,372.772277 L31.1881188,372.772277 C18.064604,372.772277 7.42574257,362.133416 7.42574257,349.009901 L7.42574257,349.009901 C7.42574257,335.886386 18.064604,325.247525 31.1881188,325.247525 Z" id="XMLID_2637_" fill="#FFFFFF"></path>
            <path d="M234.32896,53.4653465 L65.8589109,53.4653465 C58.2460396,53.4653465 52.074505,59.6368812 52.074505,67.2497525 L52.074505,200.076238 C52.074505,207.689109 58.2460396,213.860644 65.8589109,213.860644 L234.32896,213.860644 C241.941832,213.860644 248.113366,207.689109 248.113366,200.076238 L248.113366,67.2497525 C248.113366,59.6368812 241.942574,53.4653465 234.32896,53.4653465 Z" id="XMLID_841_" fill="#C7D9FC"></path>
            <g id="tools" transform="translate(100.379650, 83.949081)">
                <path d="M95.7522637,81.4834572 C99.6634971,85.3970388 99.6634971,91.7401719 95.7522637,95.6537535 C91.841813,99.5649871 85.4939837,99.5649871 81.5827501,95.6537535 L54.7872396,66.5476645 L66.5992115,54.7380406 L95.7522637,81.4834572 Z" id="Path" stroke="#428DFF" stroke-width="4.03200068" fill="#C8D9FC"></path>
                <polygon id="Path" fill="#B9CFFD" points="60.6998786 49.3239917 67.5987404 55.9738012 55.7867685 67.783425 49.3653636 60.6592895"></polygon>
                <path d="M97.7466249,12.2795936 L88.8518366,21.2440438 L83.1834051,21.2440438 L77.6472524,15.5075159 L77.6472524,9.83908419 L86.411327,0.94507857 C84.6040351,0.336125372 82.6668121,0.00503631735 80.6528831,0.00503631735 C68.3063159,0.00503631735 59.6338191,12.1473146 63.5591415,23.7988298 L46.5334961,40.8268233 L46.5201897,40.8127345 L19.940709,14.1729844 L19.940709,8.50690111 L5.77276068,0.00503631735 L0.105894514,5.67190249 L8.60619397,19.8398506 L14.2722773,19.8421988 L40.8533236,46.481166 L40.8650644,46.4929068 L23.8981227,63.4606313 C12.2685235,59.543136 0.104329181,68.1827588 0.104329181,80.5535902 C0.104329181,82.5675193 0.434635569,84.5047422 1.04358877,86.3120342 L9.93837705,77.3475842 L15.6068088,77.3475842 L21.3433366,83.0841123 L21.3433366,88.7525438 L12.3788864,97.647332 C14.1861786,98.2562854 16.1234013,98.5873743 18.1373306,98.5873743 C30.5065965,98.5873743 39.1485675,86.4223973 35.2310724,74.7927981 C43.4488109,66.5750594 66.71114,43.3127303 74.892091,35.1317795 C76.7017311,35.7415154 78.6389541,36.0718218 80.6528831,36.0718218 C90.6129483,36.0718218 98.6858845,27.9988855 98.6858845,18.0388204 C98.6858845,16.0248913 98.3555783,14.0868857 97.7466249,12.2795936 L97.7466249,12.2795936 Z" id="Path" fill="#E9EEF0"></path>
                <path d="M88.8518366,21.2440438 L83.1834051,21.2440438 L77.6472524,15.5075159 L77.6472524,9.83908419 L86.411327,0.94507857 C84.6040351,0.336125372 82.6668121,0.00503631735 80.6528831,0.00503631735 C68.3063159,0.00503631735 59.6338191,12.1473146 63.5591415,23.7988298 L46.5334961,40.8268233 L46.5201897,40.8127345 L19.940709,14.1729844 L19.940709,8.50690111 L5.77276068,0.00503631735 L0.105894514,5.67190249 L8.60619397,19.8398506 L14.2722773,19.8421988 L40.8533236,46.481166 L40.8650644,46.4929068 L23.8981227,63.4606313 C12.2685235,59.543136 0.104329181,68.1827588 0.104329181,80.5535902 C0.104329181,82.5675193 0.434635569,84.5047422 1.04358877,86.3120342 L9.93837705,77.3475842 L15.6068088,77.3475842 L21.3433366,83.0841123 L21.3433366,88.7525438 L12.3788864,97.647332 C14.1861786,98.2562854 16.1234013,98.5873743 18.1373306,98.5873743 C30.5065965,98.5873743 39.1485675,86.4223973 35.2310724,74.7927981 C43.4488109,66.5750594 66.71114,43.3127303 74.892091,35.1317795 C76.7017311,35.7415154 78.6389541,36.0718218 80.6528831,36.0718218 C90.6129483,36.0718218 98.6858845,27.9988855 98.6858845,18.0388204 C98.6858845,16.0248913 98.3555783,14.0868857 97.7466249,12.2795936 L88.8518366,21.2440438 Z" id="Path" stroke="#428DFF" stroke-width="4.03200068" fill="#E8EDFC" stroke-linejoin="round"></path>
                <path d="M67.5987404,29.0892095 C66.4927621,29.0892095 65.5949866,29.984637 65.5949866,31.0921804 C65.5949866,32.1989414 66.4927621,33.0959342 67.5987404,33.0959342 C68.7070667,33.0959342 69.6024942,32.1989414 69.6024942,31.0921804 C69.6024942,29.984637 68.7070667,29.0892095 67.5987404,29.0892095 Z" id="Path" fill="#428DFF"></path>
                <path d="M31.1914733,65.4956937 C30.083147,65.4956937 29.1877195,66.3934692 29.1877195,67.4994475 C29.1877195,68.6077738 30.083147,69.5032013 31.1914733,69.5032013 C32.2974514,69.5032013 33.1952271,68.6077738 33.1952271,67.4994475 C33.1952271,66.3934692 32.2974514,65.4956937 31.1914733,65.4956937 Z" id="Path" fill="#428DFF"></path>
                <path d="M60.5151576,35.3423302 L35.4408402,60.4166476 C34.6589067,61.198581 34.6589067,62.4673641 35.4408402,63.2500805 C36.2235565,64.0327968 37.4923398,64.0327968 38.2750561,63.2500805 L63.3493733,38.1757632 C64.1320896,37.3938296 64.1320896,36.1250465 63.3493733,35.3423302 C62.566657,34.5596138 61.2978739,34.5596138 60.5151576,35.3423302 L60.5151576,35.3423302 Z" id="Path" fill="#428DFF"></path>
                <path d="M85.8360307,88.5709536 C86.618747,89.3513217 87.8875301,89.3513217 88.6702464,88.5662572 C89.4513974,87.7827582 89.4490492,86.5139751 88.66555,85.7328243 L70.6043711,67.729566 C69.8208721,66.9484152 68.5513061,66.9507632 67.770938,67.7342624 C66.9890043,68.5185441 66.9913525,69.7865445 67.7748515,70.5676955 L85.8360307,88.5709536 Z" id="Path" fill="#428DFF"></path>
            </g>
            <g id="XMLID_170_" fill="#428DFF">
                <path d="M292.574257,0 L31.1881188,0 C13.9908416,0 0,13.9908416 0,31.1881188 L0,349.009901 C0,366.207178 13.9908416,380.19802 31.1881188,380.19802 L292.574257,380.19802 C296.674752,380.19802 300,376.873515 300,372.772277 L300,325.247525 L300,7.42574257 C300,3.32450495 296.674752,0 292.574257,0 Z M31.1881188,14.8514851 L285.148515,14.8514851 L285.148515,317.821782 L31.1881188,317.821782 C25.2014851,317.821782 19.6061881,319.520792 14.8514851,322.456931 L14.8514851,31.1881188 C14.8514851,22.1799505 22.1799505,14.8514851 31.1881188,14.8514851 Z M285.148515,365.346535 L31.1881188,365.346535 C22.1799505,365.346535 14.8514851,358.018069 14.8514851,349.009901 C14.8514851,340.001733 22.1799505,332.673267 31.1881188,332.673267 L285.148515,332.673267 L285.148515,365.346535 Z" id="XMLID_772_"></path>
                <path d="M65.8589109,221.287129 L234.32896,221.287129 C246.024505,221.287129 255.539109,211.772525 255.539109,200.07698 L255.539109,67.2497525 C255.539109,55.5542079 246.024505,46.039604 234.32896,46.039604 L135.089109,46.039604 C130.988614,46.039604 127.663366,49.3641089 127.663366,53.4653465 C127.663366,57.5665842 130.988614,60.8910891 135.089109,60.8910891 L234.329703,60.8910891 C237.836139,60.8910891 240.688366,63.7440594 240.688366,67.2497525 L240.688366,200.076238 C240.688366,203.582673 237.835396,206.434901 234.329703,206.434901 L65.8589109,206.434901 C62.3524752,206.434901 59.5002475,203.581931 59.5002475,200.076238 L59.5002475,67.2497525 C59.5002475,63.7433168 62.3532178,60.8910891 65.8589109,60.8910891 L75.685396,60.8910891 C79.7858911,60.8910891 83.1111386,57.5665842 83.1111386,53.4653465 C83.1111386,49.3641089 79.7858911,46.039604 75.685396,46.039604 L65.8589109,46.039604 C54.1633663,46.039604 44.6487624,55.5542079 44.6487624,67.2497525 L44.6487624,200.076238 C44.6487624,211.772525 54.1633663,221.287129 65.8589109,221.287129 Z" id="XMLID_804_"></path>
                <path d="M105.386139,60.8910891 C107.339109,60.8910891 109.25495,60.0965347 110.636139,58.7153465 C112.016584,57.3341584 112.811881,55.4257426 112.811881,53.4653465 C112.811881,51.5123762 112.017327,49.5965347 110.636139,48.2153465 C109.25495,46.8341584 107.339109,46.039604 105.386139,46.039604 C103.433168,46.039604 101.517327,46.8341584 100.136139,48.2153465 C98.7556931,49.5965347 97.960396,51.5123762 97.960396,53.4653465 C97.960396,55.4257426 98.7549505,57.3341584 100.136139,58.7153465 C101.517327,60.0965347 103.433168,60.8910891 105.386139,60.8910891 Z" id="XMLID_811_"></path>
                <path d="M192.859158,254.740099 L77.6264851,254.740099 C73.5259901,254.740099 70.2007426,258.064604 70.2007426,262.165842 C70.2007426,266.267079 73.5259901,269.591584 77.6264851,269.591584 L192.859158,269.591584 C196.959653,269.591584 200.284901,266.267079 200.284901,262.165842 C200.284901,258.064604 196.959653,254.740099 192.859158,254.740099 Z" id="XMLID_814_"></path>
                <path d="M222.564356,254.740099 C220.60396,254.740099 218.695545,255.534653 217.314356,256.915842 C215.933911,258.29703 215.138614,260.212871 215.138614,262.165842 C215.138614,264.118812 215.933168,266.034653 217.314356,267.415842 C218.695545,268.79703 220.604703,269.591584 222.564356,269.591584 C224.517327,269.591584 226.433168,268.79703 227.814356,267.415842 C229.194802,266.034653 229.990099,264.118812 229.990099,262.165842 C229.990099,260.212871 229.195545,258.29703 227.814356,256.915842 C226.433168,255.534653 224.517327,254.740099 222.564356,254.740099 Z" id="XMLID_870_"></path>
            </g>
        </g>
    </g>
</svg>