<svg width="109" height="101" viewBox="0 0 109 101" xmlns="http://www.w3.org/2000/svg">
    <g fill="none" fill-rule="evenodd">
        <path d="M99.762 46.785C93.07 33.888 69.79 2.798 48.492 11.809 5.246 30.11-7.897 56.29 8.459 73.156c8.414 8.678 65.666 34.39 89.385 26.285 22.384-7.65 2.175-52.162 1.919-52.656z" fill="#F6F5FF"/>
        <path d="M34.475 52.31c-13.546-2.05-20.723-8.905-21.53-20.568-1.212-17.494 16.203-17.692 19.686-8.554 3.482 9.138-9.368 17.939-23.183 6.542-7.715-6.364-4.231-18.81 4.214-23.292 6.679-3.544 12.816-3.577 16.073-1.384" stroke="#B3AFC9" stroke-width="1.44" stroke-linecap="round" stroke-dasharray="4.8"/>
        <path d="M12.776 56.075c.271 0 .492.22.492.492v1.858h1.847a.494.494 0 1 1 0 .99l-1.847-.001v1.857a.492.492 0 0 1-.985 0v-1.857h-1.847a.494.494 0 0 1 0-.989h1.847v-1.858c0-.272.22-.492.493-.492z" fill="#FF3184"/>
        <path stroke="#39B3C2" stroke-width="1.44" opacity=".5" stroke-linejoin="round" d="M67.455 19.03h6.465l-3.233-5.67z"/>
        <path d="M104.286 58.843a2.566 2.566 0 0 0 2.561-2.57c0-1.42-1.146-2.571-2.56-2.571a2.566 2.566 0 0 0-2.561 2.57c0 1.42 1.146 2.571 2.56 2.571z" stroke="#736795" stroke-width="1.632" stroke-linecap="round" stroke-linejoin="round" stroke-dasharray="6.72"/>
        <g transform="translate(36.729 23.643)">
            <path d="M46.51 48.252v10.426a1.92 1.92 0 0 1-1.981 1.919l-7.894-.25 9.874-12.095z" fill="#FFF"/>
            <path d="M35.932 60.513H3.152A3.158 3.158 0 0 1 0 57.349V5.933a3.158 3.158 0 0 1 3.151-3.164h40.18a3.158 3.158 0 0 1 3.152 3.164v46.18" stroke="#B3AFC9" stroke-width="2.4" fill="#FFF" stroke-linecap="round"/>
            <ellipse fill="#FFF" cx="27.969" cy="43.901" rx="9.454" ry="9.492"/>
            <g transform="translate(7.485 16.611)">
                <ellipse fill="#FF3184" opacity=".3" cx="2.364" cy="2.373" rx="2.364" ry="2.373"/>
                <path stroke="#D9D7E4" stroke-width="2.4" stroke-linecap="round" d="M8.075 2.175h23.439"/>
            </g>
            <g transform="translate(7.485 26.5)">
                <ellipse fill="#97D6E0" opacity=".3" cx="2.364" cy="2.373" rx="2.364" ry="2.373"/>
                <path stroke="#D9D7E4" stroke-width="2.4" stroke-linecap="round" d="M8.075 2.175h23.439"/>
            </g>
            <g transform="translate(7.485 34.41)">
                <path stroke="#D9D7E4" stroke-width="2.4" stroke-linecap="round" d="M8.075 4.548h10.24"/>
                <g transform="translate(11.424)" stroke="#B3AFC9">
                    <path stroke-width="3.84" stroke-linecap="round" d="m19.302 18.589 9.927 8.277"/>
                    <ellipse stroke-width="2.4" fill="#FFF" cx="11.818" cy="11.865" rx="10.618" ry="10.665"/>
                    <path d="M17.496 16.32a7.106 7.106 0 0 0 1.253-4.042c0-2.03-.847-3.862-2.204-5.159" stroke-width="1.92" stroke-linecap="round"/>
                </g>
                <ellipse fill="#F5A623" opacity=".3" cx="2.364" cy="4.351" rx="2.364" ry="2.373"/>
            </g>
            <path d="M35.045 1.2c.652 0 1.241.264 1.668.691.427.427.692 1.017.692 1.669v1.898l-28 .444-.325-2.415a2.352 2.352 0 0 1 .69-1.596 2.352 2.352 0 0 1 1.668-.691z" stroke="#B3AFC9" stroke-width="2.4" fill="#FFF"/>
        </g>
    </g>
</svg>
