<?xml version="1.0" encoding="UTF-8"?>
<svg width="87px" height="66px" viewBox="0 0 87 66" version="1.1" xmlns="http://www.w3.org/2000/svg" xmlns:xlink="http://www.w3.org/1999/xlink">
    <!-- Generator: Sketch 63.1 (92452) - https://sketch.com -->
    <title>Group 17</title>
    <desc>Created with Sketch.</desc>
    <g id="Empty-state" stroke="none" stroke-width="1" fill="none" fill-rule="evenodd">
        <g id="Artboard" transform="translate(-376.000000, -1302.000000)">
            <g id="Group-17" transform="translate(276.000000, 1302.870482)">
                <g transform="translate(100.000000, 0.000000)">
                    <g id="Group-53-Copy-2">
                        <polyline id="Path" stroke="#7176C4" fill="#FFFFFF" stroke-linecap="round" stroke-linejoin="round" transform="translate(79.166529, 56.055127) rotate(-35.000000) translate(-79.166529, -56.055127) " points="75.7999927 55.6842642 75.8052998 51.6945457 82.5330658 51.6945457 82.5330658 60.4157079"></polyline>
                        <polygon id="Rectangle-Copy-3" fill="#DBDBF3" transform="translate(79.561079, 55.985866) rotate(-35.000000) translate(-79.561079, -55.985866) " points="77.126059 51.9352551 81.996099 51.9352551 81.9957558 60.036476 77.126059 56.6792478"></polygon>
                        <rect id="Rectangle-Copy-4" fill="#FFFFFF" transform="translate(80.289228, 54.755103) rotate(-35.000000) translate(-80.289228, -54.755103) " x="79.7240334" y="51.3025422" width="1.13038918" height="6.90512227"></rect>
                        <rect id="Rectangle-Copy-5" fill="#FFFFFF" transform="translate(78.766946, 55.285376) rotate(-35.000000) translate(-78.766946, -55.285376) " x="78.4445341" y="52.2677658" width="1" height="6.03522132"></rect>
                        <line x1="0.5001" y1="57.6823" x2="86.3741" y2="57.6823" id="Stroke-3" stroke="#7176C4" stroke-linecap="round" stroke-linejoin="round"></line>
                        <line x1="54.688" y1="64.3171" x2="65.548" y2="64.3171" id="Stroke-5" stroke="#7176C4" stroke-linecap="round" stroke-linejoin="round"></line>
                        <line x1="21.3257" y1="64.3171" x2="45.5787" y2="64.3171" id="Stroke-7" stroke="#7176C4" stroke-linecap="round" stroke-linejoin="round"></line>
                        <line x1="57.3775" y1="33.7301" x2="57.3775" y2="33.7301" id="Stroke-15" stroke="#FFFFFF" stroke-linecap="round" stroke-linejoin="round"></line>
                        <line x1="68.2525" y1="33.7301" x2="68.2525" y2="33.7301" id="Stroke-17" stroke="#FFFFFF" stroke-linecap="round" stroke-linejoin="round"></line>
                        <polyline id="Stroke-34" stroke="#7176C4" stroke-linecap="round" stroke-linejoin="round" points="25.525 57.1112 25.525 0.4992 60.5866699 0.4992 68.253 8.22400071 68.253 57.1112"></polyline>
                        <polygon id="Rectangle" stroke="#7176C4" stroke-linecap="round" stroke-linejoin="round" points="60.6823125 0.4992 68.253 8.06988747 60.6823125 8.06988747"></polygon>
                        <polygon id="Rectangle-Copy-6" fill="#DBDBF3" transform="translate(64.021123, 12.168464) scale(-1, -1) translate(-64.021123, -12.168464) " points="60.2357793 8.38311989 67.8064668 15.9538074 60.2357793 15.9538074"></polygon>
                        <rect id="Rectangle" fill="#DBDBF3" x="21.5073242" y="6.15966797" width="3.5090332" height="50.951532"></rect>
                        <polyline id="Shape" stroke="#7176C4" stroke-linecap="round" stroke-linejoin="round" points="7.4823 57.159668 7.4823 6.15966797 25.525 6.15966797"></polyline>
                    </g>
                    <g id="Group" transform="translate(77.199662, 25.575930) scale(-1, 1) rotate(-70.000000) translate(-77.199662, -25.575930) translate(69.199662, 22.075930)" stroke="#BCBCE2" stroke-linecap="round" stroke-linejoin="round">
                        <path d="M12.9014043,6.23348394 C9.68985217,3.3881223 5.46519328,1.66062715 0.837056279,1.66062715" id="Shape" transform="translate(6.869230, 3.947056) rotate(3.000000) translate(-6.869230, -3.947056) "></path>
                        <path d="M15.5246591,4.80851719 C15.1836582,4.51846049 14.8337138,4.23860238 14.4752974,3.96941442 M13.072111,2.99793612 C11.7334974,2.14573367 10.2967309,1.43399335 8.78256695,0.883470484" id="Shape" transform="translate(12.153613, 2.845994) rotate(3.000000) translate(-12.153613, -2.845994) "></path>
                    </g>
                    <polygon id="Fill-29" fill="#AAAAE2" opacity="0.5" points="33.001 35.9535183 61.028 35.9535183 61.028 34.1295183 33.001 34.1295183"></polygon>
                    <polygon id="Fill-29-Copy" fill="#AAAAE2" opacity="0.5" points="33.001 30.9535183 61.028 30.9535183 61.028 29.1295183 33.001 29.1295183"></polygon>
                    <polygon id="Fill-31" fill-opacity="0.5" fill="#DBDBF3" points="33.001 40.9535183 61.028 40.9535183 61.028 39.1295183 33.001 39.1295183"></polygon>
                    <polygon id="Fill-33" fill-opacity="0.5" fill="#DBDBF3" points="33 45.9765183 47.014 45.9765183 47.014 44.1535183 33 44.1535183"></polygon>
                    <polygon id="Fill-29" fill="#AAAAE2" opacity="0.5" points="44.3415527 9.95351829 58.3415527 9.95351829 58.3415527 8.12951829 44.3415527 8.12951829"></polygon>
                    <polygon id="Fill-31" fill-opacity="0.5" fill="#DBDBF3" points="44.3415527 14.9535183 58.3415527 14.9535183 58.3415527 13.1295183 44.3415527 13.1295183"></polygon>
                    <polygon id="Fill-33" fill-opacity="0.5" fill="#DBDBF3" points="44.3415527 19.9765183 52.3415527 19.9765183 52.3415527 18.1535183 44.3415527 18.1535183"></polygon>
                    <path d="M37.322,20.5295183 L37.322,19.2835183 C38.1433333,19.1808516 38.8083333,18.8798516 39.317,18.3805183 C39.8256667,17.881185 40.08,17.2348516 40.08,16.4415183 C40.08,16.1428516 40.0473333,15.8698516 39.982,15.6225183 C39.9166667,15.375185 39.807,15.158185 39.653,14.9715183 C39.499,14.7848516 39.352,14.626185 39.212,14.4955183 C39.072,14.3648516 38.8736667,14.234185 38.617,14.1035183 C38.3603333,13.9728516 38.155,13.8748516 38.001,13.8095183 C37.847,13.744185 37.6206667,13.6555183 37.322,13.5435183 L37.322,13.5435183 L37.322,10.7715183 C37.91,10.902185 38.3253333,11.2708516 38.568,11.8775183 L38.568,11.8775183 L39.926,11.0935183 C39.4406667,9.98285163 38.5726667,9.34351829 37.322,9.17551829 L37.322,9.17551829 L37.322,7.92951829 L36.412,7.92951829 L36.412,9.16151829 C35.6373333,9.23618496 34.9886667,9.51618496 34.466,10.0015183 C33.9433333,10.4868516 33.682,11.1215183 33.682,11.9055183 C33.682,12.3348516 33.7543333,12.7105183 33.899,13.0325183 C34.0436667,13.3545183 34.263,13.6275183 34.557,13.8515183 C34.851,14.0755183 35.1286667,14.2505183 35.39,14.3765183 C35.6513333,14.5025183 35.992,14.6448516 36.412,14.8035183 L36.412,14.8035183 L36.412,17.7155183 C35.544,17.622185 34.9466667,17.1648516 34.62,16.3435183 L34.62,16.3435183 L33.234,17.1415183 C33.4766667,17.7855183 33.8733333,18.294185 34.424,18.6675183 C34.9746667,19.0408516 35.6373333,19.2508516 36.412,19.2975183 L36.412,19.2975183 L36.412,20.5295183 L37.322,20.5295183 Z M36.412,13.1795183 C36.0106667,12.9928516 35.7236667,12.806185 35.551,12.6195183 C35.3783333,12.4328516 35.292,12.1948516 35.292,11.9055183 C35.292,11.5975183 35.3923333,11.3408516 35.593,11.1355183 C35.7936667,10.930185 36.0666667,10.7995183 36.412,10.7435183 L36.412,10.7435183 L36.412,13.1795183 Z M37.322,17.7015183 L37.322,15.1535183 C37.714,15.3308516 38.0033333,15.515185 38.19,15.7065183 C38.3766667,15.8978516 38.47,16.1475183 38.47,16.4555183 C38.47,16.7635183 38.372,17.0295183 38.176,17.2535183 C37.98,17.4775183 37.6953333,17.6268516 37.322,17.7015183 L37.322,17.7015183 Z" id="$" fill="#D4D4F0" fill-rule="nonzero"></path>
                    <polygon id="Fill-29" fill="#AAAAE2" opacity="0.5" points="12.0003408 14.9535183 21.5512695 14.9535183 21.5512695 13.1295183 12.0003408 13.1295183"></polygon>
                    <polygon id="Fill-31" fill-opacity="0.5" fill="#DBDBF3" points="12.0003408 19.9535183 21.5512695 19.9535183 21.5512695 18.1295183 12.0003408 18.1295183"></polygon>
                    <rect id="Rectangle" stroke="#7176C4" fill="#FFFFFF" stroke-linecap="round" stroke-linejoin="round" transform="translate(74.159180, 48.784666) rotate(-35.000000) translate(-74.159180, -48.784666) " x="72.1591797" y="43.7938249" width="4" height="9.98168171"></rect>
                    <rect id="Rectangle" fill-opacity="0.3" fill="#7176C4" transform="translate(73.156795, 47.368405) rotate(-35.000000) translate(-73.156795, -47.368405) " x="70.7776372" y="45.6421246" width="4.75831513" height="3.45256114"></rect>
                    <path d="M64.4588464,52.0766643 C65.604741,52.0766643 66.7161407,51.9289739 67.7750485,51.6515901 C67.8634438,26.4250817 67.8634438,26.7648172 67.8634438,26.4250817 C66.7780512,26.132554 65.6366708,25.9765183 64.4588464,25.9765183 C57.2514901,25.9765183 51.4087734,31.819235 51.4087734,39.0265913 C51.4087734,46.2339476 57.2514901,52.0766643 64.4588464,52.0766643 Z" id="Oval" fill-opacity="0.3" fill="#BCBCE2"></path>
                    <circle id="Oval" stroke="#7176C4" fill="#FFFFFF" stroke-linecap="round" stroke-linejoin="round" cx="65.9897578" cy="37.4312761" r="11.3017578"></circle>
                    <polygon id="Fill-33" fill-opacity="0.5" fill="#DBDBF3" points="12 24.9765183 19.1115723 24.9765183 19.1115723 23.1535183 12 23.1535183"></polygon>
                    <circle id="Oval" fill="#DBDBF3" cx="66.262335" cy="37.7038533" r="10.4888916"></circle>
                    <circle id="Oval" fill="#FFFFFF" cx="65.9897578" cy="37.4312761" r="8.12694727"></circle>
                    <path d="M74.1167051,37.4312761 C74.1167051,36.7438399 74.0313532,36.0763387 73.8706686,35.4387917 M73.1860508,33.6514108 C71.8256326,31.0667155 69.1135089,29.3043288 65.9897578,29.3043288 C61.5013688,29.3043288 57.8628105,32.9428871 57.8628105,37.4312761 C57.8628105,41.9196651 61.5013688,45.5582234 65.9897578,45.5582234 L65.9897578,45.5582234" id="Shape" stroke="#7176C4" fill="#FFFFFF" stroke-linecap="round" stroke-linejoin="round"></path>
                    <path d="M73.1567948,46.6295183 L74.44754,48.4454199 M75.4597015,49.8693924 L75.7134283,50.2263513" id="Shape" stroke="#7176C4" fill="#FFFFFF" stroke-linecap="round" stroke-linejoin="round"></path>
                    <circle id="Oval" fill="#EDEDF9" cx="66.8291234" cy="33.9586417" r="2.82912344"></circle>
                    <circle id="Oval-Copy" fill="#EDEDF9" cx="70.7497053" cy="37.9586417" r="1.17087656"></circle>
                </g>
            </g>
        </g>
    </g>
</svg>