<?xml version="1.0" encoding="UTF-8"?>
<svg width="30px" height="30px" viewBox="0 0 30 30" version="1.1" xmlns="http://www.w3.org/2000/svg" xmlns:xlink="http://www.w3.org/1999/xlink">
    <!-- Generator: Sketch 56.3 (81716) - https://sketch.com -->
    <title>controls</title>
    <desc>Created with Sketch.</desc>
    <g id="Page-1" stroke="none" stroke-width="1" fill="none" fill-rule="evenodd">
        <g id="controls" fill="#A9AACB" fill-rule="nonzero">
            <path d="M14.8551923,9.95130804 C12.2353846,9.95130804 9.7725,10.9719231 7.92,12.8238462 C6.07448934,14.6590235 5.0400967,17.1563993 5.04746053,19.7590385 C5.04041856,22.3616141 6.07476188,24.8588708 7.92,26.6942308 C9.75517736,28.5397414 12.2525531,29.5741341 14.8551923,29.5667702 C17.4577679,29.5738122 19.9550246,28.5394689 21.7903846,26.6942308 C23.6358953,24.8590534 24.6702879,22.3616776 24.6629241,19.7590385 C24.6699661,17.1564628 23.6356227,14.6592061 21.7903846,12.8238462 C19.9551342,10.9784445 17.4578061,9.94407162 14.8551923,9.95130804 L14.8551923,9.95130804 Z M20.9740385,25.8778846 C19.354818,27.5061402 17.1515055,28.4189589 14.8551923,28.4129147 C12.5588792,28.4189589 10.3555666,27.5061402 8.73634615,25.8778846 C7.10809062,24.2586642 6.1952719,22.0553516 6.20131603,19.7590385 C6.20131603,17.4478846 7.10192308,15.2746154 8.73634615,13.6401923 C10.3555666,12.0119368 12.5588792,11.0991181 14.8551923,11.1051622 C16.9730769,11.1051622 18.9692308,11.8684615 20.5465385,13.2519231 L14.4473077,19.3511538 C14.3015845,19.496877 14.2446732,19.7092731 14.2980115,19.9083346 C14.3513499,20.1073961 14.5068347,20.2628809 14.7058962,20.3162192 C14.9049577,20.3695576 15.1173538,20.3126462 15.2630769,20.1669231 L21.3623077,14.0676923 C22.7487279,15.6390954 23.5123015,17.6634579 23.5090699,19.7590385 C23.5152414,22.055377 22.602403,24.2587372 20.9740385,25.8778846 L20.9740385,25.8778846 Z M14.8551923,4.75903846 C15.1738181,4.75903846 15.4321154,4.5007412 15.4321154,4.18211538 L15.4321154,0.720576923 C15.4321154,0.401951106 15.1738181,0.143653846 14.8551923,0.143653846 C14.5365665,0.143653846 14.2782692,0.401951106 14.2782692,0.720576923 L14.2782692,4.18211538 C14.2782692,4.5007412 14.5365665,4.75903846 14.8551923,4.75903846 Z M29.5413462,6.22673077 C29.4332322,6.11843287 29.2864878,6.05757625 29.1334615,6.05757625 C28.9804352,6.05757625 28.8336908,6.11843287 28.7255769,6.22673077 L26.2776923,8.67461538 C26.1319692,8.82033852 26.0750578,9.03273462 26.1283962,9.23179613 C26.1817345,9.43085764 26.3372193,9.58634238 26.5362808,9.63968075 C26.7353423,9.69301912 26.9477384,9.63610775 27.0934615,9.49038462 L29.5413462,7.0425 C29.6496441,6.93438609 29.7105007,6.78764169 29.7105007,6.63461538 C29.7105007,6.48158907 29.6496441,6.33484468 29.5413462,6.22673077 L29.5413462,6.22673077 Z M0.984807692,6.22673077 C0.839084556,6.08100762 0.626688452,6.02409626 0.427626939,6.07743462 C0.228565427,6.13077299 0.0730806863,6.28625773 0.0197423169,6.48531925 C-0.0335960526,6.68438076 0.0233153166,6.89677686 0.169038462,7.0425 L2.61692308,9.49038462 C2.72488565,9.59896687 2.87168675,9.66002011 3.02480769,9.66002011 C3.17792864,9.66002011 3.32472973,9.59896687 3.43269231,9.49038462 C3.54099021,9.38227071 3.60184682,9.23552631 3.60184682,9.0825 C3.60184682,8.92947369 3.54099021,8.78272929 3.43269231,8.67461538 L0.984807692,6.22673077 L0.984807692,6.22673077 Z M19.0361538,5.30942308 C19.1839617,5.3490715 19.3414665,5.32837002 19.4740091,5.25187403 C19.6065516,5.17537805 19.7032712,5.04935572 19.7428846,4.90153846 L20.6382692,1.55769231 C20.7207933,1.24989977 20.5381771,0.93348564 20.2303846,0.850961555 C19.9225921,0.76843747 19.6061779,0.951053623 19.5236538,1.25884615 L18.6276923,4.60269231 C18.5455078,4.91062031 18.7283127,5.22691398 19.0361538,5.30942308 Z M9.9675,4.90153846 C10.0068409,5.04952605 10.1035115,5.17574644 10.2361357,5.25228957 C10.36876,5.32883269 10.5264117,5.34939261 10.6742308,5.30942308 C10.822048,5.26980969 10.9480704,5.17309006 11.0245663,5.04054752 C11.1010623,4.90800497 11.1217638,4.75050017 11.0821154,4.60269231 L10.1861538,1.25884615 C10.1036298,0.951053614 9.78721562,0.768437452 9.47942308,0.850961538 C9.17163054,0.933485625 8.98901437,1.24989977 9.07153846,1.55769231 L9.9675,4.90153846 L9.9675,4.90153846 Z M25.2398077,2.92615385 C24.9637874,2.76752984 24.6114664,2.86192918 24.4517308,3.13730769 L22.7209615,6.135 C22.5642171,6.41068844 22.6593799,6.76120411 22.9340225,6.91977377 C23.2086652,7.07834343 23.5598044,6.98550785 23.7201923,6.71192308 L25.4509615,3.71423077 C25.5276191,3.58175973 25.5484377,3.42423783 25.5088268,3.27640033 C25.4692159,3.12856282 25.3724286,3.00255173 25.2398077,2.92615385 L25.2398077,2.92615385 Z M6.49038462,7.00096286 C6.69654487,7.00110776 6.88708294,6.89112549 6.99007152,6.71253259 C7.09306009,6.53393968 7.09281283,6.31393788 6.98942308,6.13557692 L5.25865385,3.13788462 C5.09578829,2.87014502 4.74897314,2.78138184 4.47750858,2.93795984 C4.20604402,3.09453784 4.10921778,3.43918887 4.25942308,3.71423077 L5.99019231,6.71192308 C6.09293966,6.89108281 6.28385367,7.00140336 6.49038462,7.00096286 L6.49038462,7.00096286 Z" id="Shape"></path>
        </g>
    </g>
</svg>