<?xml version="1.0" encoding="UTF-8"?>
<svg width="30px" height="30px" viewBox="0 0 30 30" version="1.1" xmlns="http://www.w3.org/2000/svg" xmlns:xlink="http://www.w3.org/1999/xlink">
    <!-- Generator: Sketch 52.6 (67491) - http://www.bohemiancoding.com/sketch -->
    <title>box-outline</title>
    <desc>Created with Sketch.</desc>
    <g id="Page-1" stroke="none" stroke-width="1" fill="none" fill-rule="evenodd">
        <g id="box-outline" fill="#FFFFFF">
            <path d="M28.0984479,0.0526008969 L1.87320236,0.0526008969 C0.839233792,0.0526008969 0,1.01038117 0,2.19047085 L0,6.4661435 L29.9717092,6.4661435 L29.9717092,2.19047085 C29.9717092,1.01038117 29.1324754,0.0526008969 28.0984479,0.0526008969 Z M28.0984479,4.32827354 L1.87320236,4.32827354 L1.87320236,2.19047085 L28.0984479,2.19047085 L28.0984479,4.32827354 Z" id="Shape" fill-rule="nonzero"></path>
            <path d="M1.87320236,27.8445067 C1.87320236,29.0245964 2.71243615,29.9823094 3.74640472,29.9823094 L26.2251866,29.9823094 C27.2592141,29.9823094 28.098389,29.0245291 28.098389,27.8445067 L28.098389,8.60394619 L1.87320236,8.60394619 L1.87320236,27.8445067 Z M3.74646365,10.7418161 L26.2252456,10.7418161 L26.2252456,27.8445067 L3.74646365,27.8445067 L3.74646365,10.7418161 Z" id="Shape" fill-rule="nonzero"></path>
            <path d="M19.6689194,12.8796188 L10.3027898,12.8796188 C9.78577603,12.8796188 9.36618861,13.3584753 9.36618861,13.9485202 C9.36618861,14.5364126 9.78577603,15.0174215 10.3027898,15.0174215 L19.6689194,15.0174215 C20.1840472,15.0174215 20.6055206,14.5364126 20.6055206,13.9485202 C20.6055206,13.3585426 20.1840472,12.8796188 19.6689194,12.8796188 Z" id="Path"></path>
        </g>
    </g>
</svg>