<svg xmlns="http://www.w3.org/2000/svg" width="17" height="18" viewBox="0 0 17 18">
    <g fill="none" fill-rule="evenodd" stroke="#FFF" stroke-width="1.2">
        <path fill-rule="nonzero" d="M14.213 8.043c-.062-.129-.062-.277 0-.406l.58-1.196c.324-.667.068-1.46-.582-1.808l-1.168-.624c-.126-.067-.212-.187-.237-.329l-.228-1.311c-.127-.73-.798-1.221-1.526-1.117l-1.309.186c-.141.02-.28-.026-.383-.125L8.41.387C7.88-.13 7.052-.13 6.523.387l-.95.926c-.102.1-.242.145-.383.125l-1.309-.186c-.728-.104-1.399.387-1.526 1.117L2.127 3.68c-.025.142-.111.262-.237.329l-1.167.624c-.65.348-.907 1.142-.583 1.808l.58 1.196c.063.13.063.277 0 .406L.14 9.24c-.324.667-.068 1.46.582 1.808l1.168.624c.126.067.212.187.237.329l.228 1.311c.116.665.682 1.131 1.332 1.131.064 0 .13-.004.195-.014l1.308-.186c.141-.02.281.026.384.126l.95.925c.264.258.603.387.943.387.339 0 .678-.129.943-.387l.95-.925c.102-.1.242-.146.383-.126l1.309.186c.729.104 1.399-.386 1.526-1.117L12.806 12c.025-.142.111-.261.237-.329l1.168-.624c.65-.347.906-1.141.583-1.808l-.58-1.196z" transform="translate(1 1)"/>
        <path stroke-linecap="round" d="M10.206 4.604L4.764 11.102" transform="translate(1 1)"/>
        <path d="M4.821 4.742c-.246 0-.47.1-.631.262-.162.162-.262.385-.262.632 0 .246.1.47.262.631.161.162.385.262.631.262.247 0 .47-.1.632-.262.162-.161.262-.385.262-.631 0-.247-.1-.47-.262-.632-.162-.162-.385-.262-.632-.262zM10.048 9.222c-.247 0-.47.1-.632.262-.161.162-.261.385-.261.632 0 .246.1.47.261.631.162.162.385.262.632.262s.47-.1.632-.262c.161-.161.261-.385.261-.631 0-.247-.1-.47-.261-.632-.162-.162-.385-.262-.632-.262z" transform="translate(1 1)"/>
    </g>
</svg>
