<?xml version="1.0" encoding="UTF-8"?>
<svg width="512px" height="512px" viewBox="0 0 512 512" version="1.1" xmlns="http://www.w3.org/2000/svg" xmlns:xlink="http://www.w3.org/1999/xlink">
    <!-- Generator: Sketch 59 (86127) - https://sketch.com -->
    <title>decimal</title>
    <desc>Created with Sketch.</desc>
    <defs>
        <filter x="-4.5%" y="-9.0%" width="109.1%" height="118.0%" filterUnits="objectBoundingBox" id="filter-1">
            <feOffset dx="0" dy="2" in="SourceAlpha" result="shadowOffsetOuter1"></feOffset>
            <feGaussianBlur stdDeviation="2" in="shadowOffsetOuter1" result="shadowBlurOuter1"></feGaussianBlur>
            <feColorMatrix values="0 0 0 0 0   0 0 0 0 0   0 0 0 0 0  0 0 0 0.5 0" type="matrix" in="shadowBlurOuter1" result="shadowMatrixOuter1"></feColorMatrix>
            <feMerge>
                <feMergeNode in="shadowMatrixOuter1"></feMergeNode>
                <feMergeNode in="SourceGraphic"></feMergeNode>
            </feMerge>
        </filter>
    </defs>
    <g id="decimal" stroke="none" stroke-width="1" fill="none" fill-rule="evenodd">
        <path d="M490,0 C502.150264,0 512,9.8497355 512,22 L512,490 C512,502.150264 502.150264,512 490,512 L22,512 C9.8497355,512 0,502.150264 0,490 L0,22 C0,9.8497355 9.8497355,0 22,0 L490,0 Z M482,30 L30,30 L30,482 L482,482 L482,30 Z" id="Rectangle" fill="#000000" fill-rule="nonzero"></path>
        <g filter="url(#filter-1)" transform="translate(91.000000, 172.500000)" fill="#000000" fill-rule="nonzero" id="Shape" stroke="#000000" stroke-width="3">
            <path d="M-1.33935091,134.067748 L24.5082961,134.067748 L24.5082961,163.800426 L-1.33935091,163.800426 L-1.33935091,134.067748 Z M76.7634223,147.328582 C66.401606,133.69519 61.2635903,112.409222 61.2635903,83.4752738 C61.2635903,69.0371275 62.6482743,56.4978937 65.424783,45.8541588 C68.2125915,35.1677862 72.2140935,26.3103295 77.439876,19.2905193 C82.6900284,12.237973 89.0180066,7.01060292 96.411349,3.62881412 C103.772849,0.260901922 112.058602,-1.41967546 121.254584,-1.41967546 C130.451968,-1.41967546 138.70084,0.261436096 145.988077,3.63129259 C153.309881,7.01612236 159.526229,12.2486845 164.624955,19.3080347 C169.695748,26.32966 173.541778,35.1870713 176.17506,45.8740177 C178.795433,56.5113207 180.102292,69.0432154 180.102292,83.4752738 C180.102292,97.9076695 178.795259,110.402713 176.174427,120.963958 C173.539478,131.580031 169.651683,140.366353 164.499251,147.314486 C159.32191,154.295278 152.991175,159.486014 145.520567,162.867106 C138.081943,166.233409 129.684807,167.913043 120.340223,167.913043 C101.756372,167.913043 87.183726,161.038928 76.7634223,147.328582 Z M137.23909,142.872597 C141.651355,140.051436 145.20432,135.990877 147.905054,130.663183 C150.64753,125.252493 152.659487,118.583138 153.93085,110.654536 C155.212061,102.665188 155.853773,93.6047412 155.853773,83.4746045 C155.853773,73.345133 155.212061,64.2846814 153.93085,56.2946729 C152.659097,48.3642942 150.646152,41.6544787 147.901393,36.1649612 C145.200569,30.7639536 141.648675,26.6684448 137.239783,23.8490408 C132.850578,21.0428591 127.380151,19.6299189 120.797404,19.6299189 C114.212347,19.6299189 108.700429,21.0442321 104.231945,23.8549303 C99.7494949,26.6746487 96.163356,30.7679537 93.4651905,36.1655668 C90.7203999,41.655148 88.7074552,48.3649636 87.4356821,56.295462 C86.1539672,64.2838247 85.5121095,73.343988 85.5121095,83.4752738 C85.5121095,93.6061419 86.1539991,102.666922 87.4357013,110.655205 C88.7070895,118.583304 90.7190809,125.25261 93.4614977,130.663183 C96.1602249,135.98756 99.7468682,140.045322 104.231897,142.866662 C108.700606,145.677502 114.211931,147.091704 120.797404,147.091704 C127.379551,147.091704 132.849942,145.678735 137.23909,142.872597 Z M228.016517,147.328544 L228.016546,147.328582 C217.65473,133.69519 212.516714,112.409222 212.516714,83.4752738 C212.516714,69.0371275 213.901398,56.4978937 216.677907,45.8541588 C219.465715,35.1677862 223.467217,26.3103295 228.693,19.2905193 C233.943152,12.237973 240.27113,7.01060292 247.664473,3.62881412 C255.026102,0.260842878 263.311221,-1.41967546 272.507039,-1.41967546 C281.704586,-1.41967546 289.954091,0.261495092 297.241249,3.63131525 C304.563111,7.01649122 310.779919,12.2494408 315.877353,19.3079567 C320.948863,26.3296258 324.79492,35.1870966 327.427493,45.8739302 C330.048407,56.5106816 331.355416,69.0423889 331.355416,83.4752738 C331.355416,97.9084937 330.048233,110.403346 327.426904,120.96387 C324.792733,131.579549 320.905027,140.366056 315.752375,147.314486 C310.575286,154.294938 304.24399,159.485851 296.773068,162.867084 C289.335358,166.233286 280.937606,167.913043 271.593347,167.913043 C253.008817,167.913043 238.436155,161.038921 228.016517,147.328544 Z M288.492172,142.872623 C292.904383,140.05108 296.457794,135.990186 299.158178,130.663183 C301.900035,125.253714 303.911677,118.584858 305.183974,110.654536 C306.465185,102.665188 307.106897,93.6047412 307.106897,83.4746045 C307.106897,73.345133 306.465184,64.2846814 305.183993,56.2947926 C303.911568,48.3643283 301.898598,41.6544268 299.154517,36.1649612 C296.453591,30.7637512 292.90165,26.6683717 288.492237,23.8490408 C284.103085,21.042893 278.632686,19.6299189 272.050527,19.6299189 C265.465532,19.6299189 259.95356,21.0442052 255.48448,23.8548793 C251.002629,26.6746208 247.416432,30.7679917 244.717645,36.1655668 C241.973481,41.6538947 239.960847,48.3632215 238.688156,56.2953422 C237.406945,64.2846906 236.765233,73.3451371 236.765233,83.4752738 C236.765233,93.6049927 237.406977,102.666056 238.688136,110.655086 C239.960196,118.58327 241.972213,125.252662 244.713952,130.663183 C247.412345,135.986901 250.999444,140.044998 255.48427,142.866611 C259.95356,145.677418 265.465532,147.091704 272.050527,147.091704 C278.632654,147.091704 284.103032,145.678744 288.492172,142.872623 Z"></path>
        </g>
    </g>
</svg>