<?xml version="1.0" encoding="UTF-8"?>
<svg width="50px" height="50px" viewBox="0 0 50 50" version="1.1" xmlns="http://www.w3.org/2000/svg" xmlns:xlink="http://www.w3.org/1999/xlink">
    <!-- Generator: Sketch 63.1 (92452) - https://sketch.com -->
    <title>xls-icon</title>
    <desc>Created with Sketch.</desc>
    <g id="xls-icon" stroke="none" stroke-width="1" fill="none" fill-rule="evenodd">
        <g id="pdf" transform="translate(3.000000, 0.000000)" fill-rule="nonzero">
            <path d="M3.17064516,0 L29.6593548,0 L43.6995161,13.9856452 L43.6995161,46.7641935 C43.6995161,48.4866129 42.3029032,49.8817742 40.5819355,49.8817742 L3.17064516,49.8817742 C1.44967742,49.8817742 0.0530645161,48.4866129 0.0530645161,46.7641935 L0.0530645161,3.11758065 C0.0530645161,1.39516129 1.44983871,0 3.17064516,0 Z" id="Path" fill="#38AF64"></path>
            <path d="M43.6545161,14.0291935 L32.7880645,14.0291935 C31.0670968,14.0291935 29.6704839,12.6325806 29.6704839,10.9116129 L29.6704839,0.0311290323 L43.6545161,14.0291935 Z" id="Path" fill="#1D7F41"></path>
            <path d="M17.7080078,31.0996094 C18.1240234,31.0996094 18.4462891,30.8066406 18.4462891,30.4140625 C18.4462891,30.2265625 18.3876953,30.0566406 18.2529297,29.8867188 L16.0029297,26.7988281 L16.0029297,26.7578125 L18.3232422,23.6113281 C18.4580078,23.4296875 18.5107422,23.2714844 18.5107422,23.0898438 C18.5107422,22.7265625 18.1767578,22.4453125 17.7783203,22.4453125 C17.4912109,22.4453125 17.3447266,22.5507812 17.1572266,22.8203125 L15.1474609,25.7207031 L15.1005859,25.7207031 L13.1435547,22.8671875 C12.9384766,22.5625 12.7509766,22.4453125 12.4638672,22.4453125 C12.0244141,22.4453125 11.6962891,22.7441406 11.6962891,23.1484375 C11.6962891,23.3359375 11.7431641,23.5 11.9013672,23.7050781 L14.0869141,26.7226562 L14.0869141,26.7636719 L11.8310547,29.9160156 C11.6962891,30.109375 11.6376953,30.2675781 11.6376953,30.4433594 C11.6376953,30.8125 11.9541016,31.0996094 12.3583984,31.0996094 C12.6396484,31.0996094 12.7978516,31.0058594 12.9970703,30.71875 L14.9951172,27.8945312 L15.0419922,27.8945312 L17.0517578,30.7246094 C17.2451172,30.9941406 17.4267578,31.0996094 17.7080078,31.0996094 Z M24.5751953,31 C24.9912109,31 25.2666016,30.7539062 25.2666016,30.3613281 C25.2666016,29.96875 24.9853516,29.7226562 24.5751953,29.7226562 L21.3349609,29.7226562 L21.3349609,23.2304688 C21.3349609,22.7324219 21.0537109,22.4453125 20.5791016,22.4453125 C20.1103516,22.4453125 19.8232422,22.7324219 19.8232422,23.2304688 L19.8232422,30.2148438 C19.8232422,30.7070312 20.1103516,31 20.5791016,31 L24.5751953,31 Z M29.2333984,31.140625 C31.2666016,31.140625 32.5380859,30.1210938 32.5380859,28.5039062 C32.5380859,27.25 31.7880859,26.5351562 30.0068359,26.1660156 L29.0986328,25.9785156 C28.0439453,25.7558594 27.6220703,25.3867188 27.6220703,24.8125 C27.6220703,24.1035156 28.2900391,23.6582031 29.2275391,23.6582031 C30.0185547,23.6582031 30.6220703,23.9628906 30.9091797,24.6777344 C31.0673828,25.0058594 31.2841797,25.1582031 31.6357422,25.1582031 C32.0283203,25.1582031 32.2919922,24.90625 32.2919922,24.5371094 C32.2919922,24.3964844 32.2744141,24.2851562 32.2392578,24.1914062 C31.8935547,23.0722656 30.7333984,22.4042969 29.2392578,22.4042969 C27.4052734,22.4042969 26.0986328,23.4121094 26.0986328,24.9003906 C26.0986328,26.1367188 26.8896484,26.9335938 28.5830078,27.2792969 L29.4912109,27.4667969 C30.5927734,27.6953125 31.0146484,28.0703125 31.0146484,28.6796875 C31.0146484,29.3828125 30.2998047,29.8867188 29.2802734,29.8867188 C28.3779297,29.8867188 27.6513672,29.5585938 27.3876953,28.8261719 C27.2236328,28.4863281 27.0126953,28.3515625 26.6787109,28.3515625 C26.2802734,28.3515625 26.0107422,28.6210938 26.0107422,29.0429688 C26.0107422,29.1835938 26.0400391,29.3359375 26.0927734,29.4765625 C26.4208984,30.4375 27.5458984,31.140625 29.2333984,31.140625 Z" id="XLS" fill="#FFFFFF"></path>
        </g>
    </g>
</svg>