<?xml version="1.0" encoding="UTF-8"?>
<svg width="14px" height="13px" viewBox="0 0 14 13" version="1.1" xmlns="http://www.w3.org/2000/svg" xmlns:xlink="http://www.w3.org/1999/xlink">
    <!-- Generator: Sketch 55.2 (78181) - https://sketchapp.com -->
    <title>passage-of-time</title>
    <desc>Created with Sketch.</desc>
    <g id="Page-1" stroke="none" stroke-width="1" fill="none" fill-rule="evenodd">
        <g id="Attendance_Summary_page_with_Location1.0" transform="translate(-1251.000000, -409.000000)" fill="#000000" fill-rule="nonzero">
            <g id="Group-14" transform="translate(560.000000, 121.000000)">
                <g id="Group-21" transform="translate(691.000000, 262.000000)">
                    <g id="passage-of-time" transform="translate(0.000000, 26.000000)">
                        <path d="M13.6812083,5.57666667 C13.6336667,5.47545833 13.5321667,5.41070833 13.419875,5.41070833 L12.5661667,5.41070833 C12.023375,2.46516667 9.436875,0.226041667 6.33675,0.226041667 C2.842875,0.226041667 0,3.06891667 0,6.56279167 C0,10.0566667 2.84258333,12.89925 6.33675,12.89925 C8.591625,12.89925 10.6945417,11.685625 11.82475,9.732625 C11.984,9.457 11.8900833,9.10495833 11.6141667,8.94541667 C11.3388333,8.785875 10.9865,8.87979167 10.8275417,9.15541667 C9.902375,10.7540417 8.18154167,11.7474583 6.33675,11.7474583 C3.478125,11.7474583 1.15208333,9.42170833 1.15208333,6.563375 C1.15208333,3.70445833 3.478125,1.37870833 6.33675,1.37870833 C8.799,1.37870833 10.8619583,3.10566667 11.3875417,5.411 L10.5405417,5.411 C10.42825,5.411 10.3270417,5.47575 10.2792083,5.57695833 C10.2316667,5.67816667 10.247125,5.79745833 10.318875,5.8835 L11.759125,7.611625 C11.8139583,7.67725 11.89475,7.71516667 11.9805,7.71516667 C12.0659583,7.71516667 12.1470417,7.67695833 12.2015833,7.611625 L13.6418333,5.8835 C13.7135833,5.79716667 13.72875,5.677875 13.6812083,5.57666667 Z" id="Path"></path>
                        <path d="M6.33675,1.66629167 C6.01854167,1.66629167 5.76070833,1.924125 5.76070833,2.24233333 L5.76070833,5.73766667 C5.50025,5.92025 5.32875,6.22125 5.32875,6.56308333 C5.32875,7.119 5.781125,7.571375 6.33704167,7.571375 C6.48929167,7.571375 6.63279167,7.53491667 6.76229167,7.47395833 L8.76604167,8.63041667 C8.85704167,8.68320833 8.955625,8.708 9.053625,8.708 C9.25254167,8.708 9.44620833,8.60475 9.55295833,8.41983333 C9.71191667,8.14479167 9.61770833,7.79216667 9.34179167,7.63320833 L7.336,6.475 C7.30916667,6.1705 7.15079167,5.9045 6.913375,5.73825 L6.913375,2.24233333 C6.91279167,1.92441667 6.65466667,1.66629167 6.33675,1.66629167 Z M6.33675,6.99475 C6.09845833,6.99475 5.90479167,6.80079167 5.90479167,6.56308333 C5.90479167,6.32508333 6.09875,6.131125 6.33675,6.131125 C6.57475,6.131125 6.76870833,6.32508333 6.76870833,6.56308333 C6.76870833,6.80079167 6.57475,6.99475 6.33675,6.99475 Z" id="Shape"></path>
                    </g>
                </g>
            </g>
        </g>
    </g>
</svg>