<svg width="14px" height="16px" viewBox="0 0 14 16" version="1.1" xmlns="http://www.w3.org/2000/svg" xmlns:xlink="http://www.w3.org/1999/xlink">
    <!-- Generator: Sketch 52.5 (67469) - http://www.bohemiancoding.com/sketch -->
    <title>building</title>
    <desc>Created with Sketch.</desc>
    <g id="Page-1" stroke="none" stroke-width="1" fill="none" fill-rule="evenodd">
        <g id="Dasnboard_Manager_Dashboard_Page-1.2" transform="translate(-152.000000, -640.000000)" fill="#8CA1AD" fill-rule="nonzero">
            <g id="Group-8" transform="translate(108.000000, 638.000000)">
                <g id="building" transform="translate(44.000000, 2.000000)">
                    <path d="M1.5,14.5 L1.5,1 C1.5,0.723857625 1.72385763,0.5 2,0.5 L12,0.5 C12.2761424,0.5 12.5,0.723857625 12.5,1 L12.5,14.5 L13.5,14.5 C13.7761424,14.5 14,14.7238576 14,15 C14,15.2761424 13.7761424,15.5 13.5,15.5 L0.5,15.5 C0.223857625,15.5 0,15.2761424 0,15 C0,14.7238576 0.223857625,14.5 0.5,14.5 L1.5,14.5 Z M2.5,14.5 L5,14.5 L5,11 C5,10.7238576 5.22385763,10.5 5.5,10.5 L8.5,10.5 C8.77614237,10.5 9,10.7238576 9,11 L9,14.5 L11.5,14.5 L11.5,1.5 L2.5,1.5 L2.5,14.5 Z M6,14.5 L8,14.5 L8,11.5 L6,11.5 L6,14.5 Z M4.5,3.5 L4.5,4.5 L5.5,4.5 L5.5,3.5 L4.5,3.5 Z M4,2.5 L6,2.5 C6.27614237,2.5 6.5,2.72385763 6.5,3 L6.5,5 C6.5,5.27614237 6.27614237,5.5 6,5.5 L4,5.5 C3.72385763,5.5 3.5,5.27614237 3.5,5 L3.5,3 C3.5,2.72385763 3.72385763,2.5 4,2.5 Z M8.5,3.5 L8.5,4.5 L9.5,4.5 L9.5,3.5 L8.5,3.5 Z M8,2.5 L10,2.5 C10.2761424,2.5 10.5,2.72385763 10.5,3 L10.5,5 C10.5,5.27614237 10.2761424,5.5 10,5.5 L8,5.5 C7.72385763,5.5 7.5,5.27614237 7.5,5 L7.5,3 C7.5,2.72385763 7.72385763,2.5 8,2.5 Z M4.5,7.5 L4.5,8.5 L5.5,8.5 L5.5,7.5 L4.5,7.5 Z M4,6.5 L6,6.5 C6.27614237,6.5 6.5,6.72385763 6.5,7 L6.5,9 C6.5,9.27614237 6.27614237,9.5 6,9.5 L4,9.5 C3.72385763,9.5 3.5,9.27614237 3.5,9 L3.5,7 C3.5,6.72385763 3.72385763,6.5 4,6.5 Z M8.5,7.5 L8.5,8.5 L9.5,8.5 L9.5,7.5 L8.5,7.5 Z M8,6.5 L10,6.5 C10.2761424,6.5 10.5,6.72385763 10.5,7 L10.5,9 C10.5,9.27614237 10.2761424,9.5 10,9.5 L8,9.5 C7.72385763,9.5 7.5,9.27614237 7.5,9 L7.5,7 C7.5,6.72385763 7.72385763,6.5 8,6.5 Z" id="Combined-Shape"></path>
                </g>
            </g>
        </g>
    </g>
</svg>