<?xml version="1.0" encoding="UTF-8"?>
<svg width="513px" height="512px" viewBox="0 0 513 512" version="1.1" xmlns="http://www.w3.org/2000/svg" xmlns:xlink="http://www.w3.org/1999/xlink">
    <!-- Generator: Sketch 61.1 (89650) - https://sketch.com -->
    <title>Command-Icon</title>
    <desc>Created with Sketch.</desc>
    <g id="Command-Icon" stroke="none" stroke-width="1" fill="none" fill-rule="evenodd" transform="translate(0.000000, 0.000000)">
        <path d="M466.526316,6 C488.109022,6 505.646128,23.3212783 505.994712,44.8209147 L506,45.4736842 L506,466.526316 C506,488.109022 488.678722,505.646128 467.179085,505.994712 L466.526316,506 L45.4736842,506 C23.8909775,506 6.35387218,488.678722 6.00528835,467.179085 L6,466.526316 L6,45.4736842 C6,23.8909775 23.3212783,6.35387218 44.8209147,6.00528835 L45.4736842,6 L466.526316,6 Z M479.684,162 L32.315,162 L32.3157895,466.526316 C32.3157895,473.689407 38.0396678,479.515616 45.163101,479.680617 L45.4736842,479.684211 L466.526316,479.684211 C473.689407,479.684211 479.515616,473.960332 479.680617,466.836899 L479.684211,466.526316 L479.684,162 Z M130.564531,233.252333 L131.128583,233.789385 L193.528583,296.189385 C199.43615,302.096952 199.615167,311.563785 194.065634,317.687065 L193.528583,318.251117 L131.128583,380.651117 C125.036404,386.743296 115.15903,386.743296 109.066851,380.651117 C103.159283,374.743549 102.980266,365.276717 108.529799,359.153436 L109.066851,358.589385 L160.436197,307.22025 L109.066851,255.851116 C103.159283,249.943549 102.980266,240.476717 108.529799,234.353436 L109.066851,233.789385 C114.974418,227.881817 124.441251,227.7028 130.564531,233.252333 Z M349.772862,362.034428 C356.728609,362.034428 362.525065,367.385002 362.525065,373.805692 C362.525065,380.129098 356.902929,385.068594 350.088218,385.216824 L349.772862,385.220251 L232.684456,385.220251 C225.728709,385.220251 219.932254,380.226381 219.932254,373.805692 C219.932254,367.480834 225.556972,362.194385 232.373795,362.037989 L232.684456,362.034428 L349.772862,362.034428 Z M466.526316,32.3157895 L45.4736842,32.3157895 C38.3105925,32.3157895 32.4843843,38.0396678 32.319383,45.163101 L32.3157895,45.4736842 L32.315,133 L479.684,133 L479.684211,45.4736842 C479.684211,38.3105925 473.960332,32.4843843 466.836899,32.319383 L466.526316,32.3157895 Z" id="Combined-Shape" fill="#324056" fill-rule="nonzero"></path>
    </g>
</svg>