<?xml version="1.0" encoding="UTF-8"?>
<svg width="14px" height="14px" viewBox="0 0 14 14" version="1.1" xmlns="http://www.w3.org/2000/svg" xmlns:xlink="http://www.w3.org/1999/xlink">
    <!-- Generator: Sketch 52.6 (67491) - http://www.bohemiancoding.com/sketch -->
    <title>list (2)</title>
    <desc>Created with Sketch.</desc>
    <g id="Page-1" stroke="none" stroke-width="1" fill="none" fill-rule="evenodd">
        <g id="Form_Builder_System_Fields1.0" transform="translate(-95.000000, -260.000000)" fill="#324056" fill-rule="nonzero">
            <g id="list-(2)" transform="translate(95.000000, 260.000000)">
                <path d="M12.8678152,13.1133055 L1.12417288,13.1133055 C0.640160954,13.1133055 0.247868852,12.7210134 0.247868852,12.2370015 C0.247868852,11.7529896 0.640160954,11.3606975 1.12417288,11.3606975 L12.8675231,11.3606975 C13.351535,11.3606975 13.7438271,11.7529896 13.7438271,12.2370015 C13.7438271,12.7210134 13.3518271,13.1133055 12.8678152,13.1133055 Z" id="Shape"></path>
                <path d="M11.4689583,7.61274516 L1.02703903,7.61274516 C0.596677367,7.61274516 0.247868852,7.22045306 0.247868852,6.73644113 C0.247868852,6.25242921 0.596677367,5.86013711 1.02703903,5.86013711 L11.4686985,5.86013711 C11.8990602,5.86013711 12.2478687,6.25242921 12.2478687,6.73644113 C12.2481284,7.22045306 11.8993199,7.61274516 11.4689583,7.61274516 Z" id="Shape"></path>
                <path d="M9.5987768,2.1121848 L0.897177339,2.1121848 C0.538542618,2.1121848 0.247868852,1.7198927 0.247868852,1.23588077 C0.247868852,0.751868852 0.538542618,0.359576751 0.897177339,0.359576751 L9.59856037,0.359576751 C9.95719509,0.359576751 10.2478689,0.751868852 10.2478689,1.23588077 C10.2478689,1.7198927 9.95741152,2.1121848 9.5987768,2.1121848 Z" id="Shape"></path>
            </g>
        </g>
    </g>
</svg>