<?xml version="1.0" encoding="UTF-8"?>
<svg width="16px" height="15px" viewBox="0 0 16 15" version="1.1" xmlns="http://www.w3.org/2000/svg" xmlns:xlink="http://www.w3.org/1999/xlink">
    <!-- Generator: Sketch 54.1 (76490) - https://sketchapp.com -->
    <title>mark-as-fully-recieved</title>
    <desc>Created with Sketch.</desc>
    <g id="Page-1" stroke="none" stroke-width="1" fill="none" fill-rule="evenodd">
        <g id="SVG" transform="translate(-379.000000, -146.000000)" fill="#000000" fill-rule="nonzero">
            <path d="M380,149.914647 C379.417404,149.708729 379,149.153109 379,148.5 L379,147.5 C379,146.671573 379.671573,146 380.5,146 L393.5,146 C394.328427,146 395,146.671573 395,147.5 L395,148.5 C395,149.153109 394.582596,149.708729 394,149.914647 L394,152 C394,152.276142 393.776142,152.5 393.5,152.5 C393.223858,152.5 393,152.276142 393,152 L393,150 L381,150 L381,158.5 C381,158.776142 381.223858,159 381.5,159 L386,159 C386.276142,159 386.5,159.223858 386.5,159.5 C386.5,159.776142 386.276142,160 386,160 L381.5,160 C380.671573,160 380,159.328427 380,158.5 L380,149.914647 Z M380.5,149 L393.5,149 C393.776142,149 394,148.776142 394,148.5 L394,147.5 C394,147.223858 393.776142,147 393.5,147 L380.5,147 C380.223858,147 380,147.223858 380,147.5 L380,148.5 C380,148.776142 380.223858,149 380.5,149 Z M385.5,152.5 C385.223858,152.5 385,152.276142 385,152 C385,151.723858 385.223858,151.5 385.5,151.5 L388.5,151.5 C388.776142,151.5 389,151.723858 389,152 C389,152.276142 388.776142,152.5 388.5,152.5 L385.5,152.5 Z M392.023295,155.901839 C392.199031,155.726103 392.483955,155.726103 392.659691,155.901839 C392.835427,156.077575 392.835427,156.362499 392.659691,156.538235 L390.796256,158.401669 C390.620521,158.577405 390.335596,158.577405 390.15986,158.401669 L389.271802,157.513611 C389.096066,157.337875 389.096066,157.052951 389.271802,156.877215 C389.447538,156.701479 389.732462,156.701479 389.908198,156.877215 L390.478058,157.447075 L392.023295,155.901839 Z M391,160.95 C388.818475,160.95 387.05,159.181525 387.05,157 C387.05,154.818475 388.818475,153.05 391,153.05 C393.181525,153.05 394.95,154.818475 394.95,157 C394.95,159.181525 393.181525,160.95 391,160.95 Z M391,160.05 C392.684468,160.05 394.05,158.684468 394.05,157 C394.05,155.315532 392.684468,153.95 391,153.95 C389.315532,153.95 387.95,155.315532 387.95,157 C387.95,158.684468 389.315532,160.05 391,160.05 Z" id="mark-as-fully-recieved"></path>
        </g>
    </g>
</svg>