<?xml version="1.0" encoding="UTF-8"?>
<svg width="20px" height="20px" viewBox="0 0 20 20" version="1.1" xmlns="http://www.w3.org/2000/svg" xmlns:xlink="http://www.w3.org/1999/xlink">
    <!-- Generator: Sketch 52.5 (67469) - http://www.bohemiancoding.com/sketch -->
    <title>wheel</title>
    <desc>Created with Sketch.</desc>
    <g id="Page-1" stroke="none" stroke-width="1" fill="none" fill-rule="evenodd">
        <g id="Card_Template-1.1" transform="translate(-106.000000, -273.000000)" fill-rule="nonzero">
            <g id="Group-4" transform="translate(90.000000, 136.000000)">
                <g id="Group-6">
                    <g id="wheel" transform="translate(16.000000, 137.000000)">
                        <path d="M9.99999981,2.33332031 C5.77267287,2.33332031 2.33332031,5.77267287 2.33332031,9.99999981 C2.33332031,14.2273268 5.77267287,17.6666793 9.99999981,17.6666793 C14.2273268,17.6666793 17.6666793,14.2273268 17.6666793,9.99999981 C17.6666793,5.77267287 14.2273268,2.33332031 9.99999981,2.33332031 Z M13.9222624,5.19708904 C14.0083776,5.10118087 14.130026,5.0445344 14.2591764,5.03941331 C14.3705377,5.02679026 14.5137486,5.08105587 14.6073208,5.16995624 C15.601217,6.11097941 16.2769317,7.30891072 16.5595351,8.63410566 C16.604457,8.84559779 16.5024394,9.06086336 16.3105781,9.16005083 C15.8416837,9.4024492 15.2848772,9.51987495 14.7514301,9.51987495 C14.0560846,9.51987495 13.3972157,9.32051172 13.0153798,8.93867589 C12.2030578,8.12684799 12.5418136,6.7282058 13.9222624,5.19708904 Z M6.07778216,14.8777504 C5.99166695,14.9736586 5.87001854,15.0307543 5.74086819,15.0359203 C5.73525296,15.0363695 5.72869436,15.0363695 5.72213577,15.0363695 C5.59954401,15.0363695 5.48162412,14.9895609 5.39272376,14.9053324 C4.39882755,13.9643093 3.72311289,12.7663779 3.44050946,11.4407338 C3.39558759,11.2292417 3.49760514,11.0139761 3.68946642,10.9147886 C4.76947784,10.357488 6.30989342,10.4613473 6.98466472,11.1361186 C7.7960434,11.9480364 7.45724271,13.3466786 6.07778216,14.8777504 Z M6.9846198,8.93872081 C6.60278396,9.32055664 5.94391501,9.51991987 5.2485695,9.51991987 C4.71512238,9.51991987 4.15921433,9.4024492 3.6894215,9.16009575 C3.49756022,9.06090828 3.39554267,8.84564271 3.44046453,8.63415058 C3.72311289,7.30895564 4.39878263,6.11102434 5.39267883,5.17000116 C5.48625107,5.0811008 5.62384674,5.02589183 5.74082327,5.03945823 C5.86997362,5.04462424 5.99162203,5.10122579 6.07773724,5.19713397 C7.45818607,6.7282058 7.79694183,8.12684799 6.9846198,8.93872081 Z M12.0420578,16.3896855 C11.378517,16.6011777 10.6915719,16.7083612 9.99999981,16.7083612 C9.30842774,16.7083612 8.6214377,16.6012226 7.95794179,16.3896855 C7.7473481,16.3223027 7.60979735,16.1201544 7.62475634,15.8997677 C7.74456294,14.1753971 8.76559195,12.874999 9.99999981,12.874999 C11.2344077,12.874999 12.2554367,14.1753971 12.3752433,15.8997228 C12.3902023,16.1201544 12.2526515,16.3223027 12.0420578,16.3896855 Z M8.08331871,9.99999981 C8.08331871,8.94294347 8.94339269,8.08331871 9.99999981,8.08331871 C11.0566069,8.08331871 11.9166809,8.94289855 11.9166809,9.99999981 C11.9166809,11.0571011 11.0566069,11.9166809 9.99999981,11.9166809 C8.94339269,11.9166809 8.08331871,11.0570562 8.08331871,9.99999981 Z M12.3752433,4.13814598 C12.2554367,5.86202245 11.2344077,7.16242053 9.99999981,7.16242053 C8.76559195,7.16242053 7.74456294,5.86202245 7.62475634,4.13814598 C7.60979735,3.91775932 7.74640474,3.71561094 7.95699843,3.64867737 C9.28408009,3.22470483 10.7159645,3.22470483 12.0430012,3.64867737 C12.2535949,3.71561094 12.3902023,3.91775932 12.3752433,4.13814598 Z M16.5595351,11.3645014 C16.2768867,12.6901455 15.601217,13.8880769 14.6073208,14.8291 C14.5184204,14.9133285 14.4005005,14.9601371 14.2779088,14.9601371 C14.2713502,14.9601371 14.2647916,14.9601371 14.2591764,14.9596879 C14.130026,14.9545219 14.0083776,14.8979203 13.9222624,14.8020121 C12.5418585,13.2709403 12.2030578,11.871804 13.0153798,11.0599312 C13.6901511,10.3847106 15.2296683,10.282199 16.3105781,10.8386011 C16.5024394,10.9377437 16.604457,11.1530093 16.5595351,11.3645014 Z" id="Shape" fill="#324056"></path>
                        <path d="M10,0.55 C4.78957264,0.55 0.55,4.7896984 0.55,10 C0.55,15.2103016 4.78957264,19.45 10,19.45 C15.2104274,19.45 19.45,15.2103016 19.45,10 C19.45,4.7896984 15.2104274,0.55 10,0.55 Z" id="Shape" stroke="#324056" stroke-width="1.1"></path>
                    </g>
                </g>
            </g>
        </g>
    </g>
</svg>