<?xml version="1.0" encoding="UTF-8"?>
<svg width="12px" height="12px" viewBox="0 0 12 12" version="1.1" xmlns="http://www.w3.org/2000/svg" xmlns:xlink="http://www.w3.org/1999/xlink">
    <!-- Generator: Sketch 52.3 (67297) - http://www.bohemiancoding.com/sketch -->
    <title>approved-success-icon</title>
    <desc>Created with Sketch.</desc>
    <g id="Page-1" stroke="none" stroke-width="1" fill="none" fill-rule="evenodd" opacity="0.699999988">
        <g id="Artboard" transform="translate(-1033.000000, -372.000000)" fill="#26A666">
            <g id="approved-success-icon" transform="translate(1033.000000, 372.000000)">
                <g id="Page-1">
                    <g id="Approval-List">
                        <g id="Group-8-Copy-2">
                            <g id="Group-5">
                                <g id="add-user-(1)">
                                    <path d="M4.99999219,0 C3.34549219,0 1.99999219,1.3455 1.99999219,3 L1.99999219,4.00000781 C1.99999219,4.61901563 2.1885,5.1945 2.511,5.673 C1.01299219,6.537 0,8.14999219 0,10.0000078 L0,10.5 C0,11.3269922 0.673007812,12 1.5,12 L6,12 C6.27649219,12 6.49999219,11.7760078 6.49999219,11.5000078 C6.49999219,11.2240078 6.27649219,11.0000156 6,11.0000156 L1.5,11.0000156 C1.224,11.0000156 1.00000781,10.7755078 1.00000781,10.5000234 L1.00000781,10.0000313 C1.00000781,8.43053906 1.90900781,7.07003906 3.228,6.41552344 C3.72550781,6.78103125 4.33699219,7.00003125 4.99999219,7.00003125 C6.65449219,7.00003125 7.99999219,5.65453125 7.99999219,4.00003125 L7.99999219,3 C7.99999219,1.3455 6.65449219,0 4.99999219,0 Z M7.00000781,4.00000781 C7.00000781,5.103 6.10300781,6 5.00001562,6 C3.89702344,6 3,5.103 3,4.00000781 L3,3 C3,1.89700781 3.897,1.00000781 4.99999219,1.00000781 C6.10298437,1.00000781 6.99998437,1.89700781 6.99998437,3 L6.99998437,4.00000781 L7.00000781,4.00000781 Z" id="Shape" fill-rule="nonzero"></path>
                                    <g id="checked-(4)" transform="translate(6.000000, 6.000000)">
                                        <path d="M0.0634615385,2.32692308 C0.0211538462,2.28461538 0,2.22115385 0,2.17884615 C0,2.13653846 0.0211538462,2.07307692 0.0634615385,2.03076923 L0.359615385,1.73461538 C0.444230769,1.65 0.571153846,1.65 0.655769231,1.73461538 L0.676923077,1.75576923 L1.84038462,3.00384615 C1.88269231,3.04615385 1.94615385,3.04615385 1.98846154,3.00384615 L4.82307692,0.0634615385 L4.84423077,0.0634615385 C4.92884615,-0.0211538462 5.05576923,-0.0211538462 5.14038462,0.0634615385 L5.43653846,0.359615385 C5.52115385,0.444230769 5.52115385,0.571153846 5.43653846,0.655769231 L2.05192308,4.16730769 C2.00961538,4.20961538 1.96730769,4.23076923 1.90384615,4.23076923 C1.84038462,4.23076923 1.79807692,4.20961538 1.75576923,4.16730769 L0.105769231,2.39038462 L0.0634615385,2.32692308 Z" id="Shape"></path>
                                    </g>
                                </g>
                            </g>
                        </g>
                    </g>
                </g>
            </g>
        </g>
    </g>
</svg>