<svg width="250px" height="39px" viewBox="0 0 250 39" version="1.1" xmlns="http://www.w3.org/2000/svg" xmlns:xlink="http://www.w3.org/1999/xlink" preserveAspectRatio="xMinYMax meet">
    <!-- Generator: Sketch 56.3 (81716) - https://sketch.com -->
    <title>Group</title>
    <desc>Created with Sketch.</desc>
    <g id="Page-1" stroke="none" stroke-width="1" fill="none" fill-rule="evenodd">
        <g id="Group" fill-rule="nonzero">
            <g transform="translate(1.243781, 0.000000)" fill="#DE1B54" id="Path">
                <path d="M10.2114428,3.54477612 L16.5671642,9.98756219 C18.3208955,11.7412935 21.0199005,9.02985075 19.278607,7.28855721 L13.7686567,1.60447761 C13.0348259,0.845771144 11.7412935,1.51741294 10.920398,1.8159204 C10.199005,2.07711443 9.47761194,2.81094527 10.2114428,3.54477612 Z"></path>
                <path d="M31.3059701,13.7189055 C33.0597015,15.4726368 35.7462687,12.761194 34.0049751,11.0074627 L25.5721393,2.68656716 C24.7139303,1.84079602 23.4452736,1.54228856 22.2885572,1.24378109 C21.5671642,1.05721393 20.8208955,0.895522388 20.0870647,0.820895522 C19.738806,0.78358209 19.3781095,0.808457711 19.1915423,1.16915423 C19.0671642,1.41791045 19.1293532,1.74129353 19.3283582,1.94029851 L31.3059701,13.7189055 Z"></path>
                <path d="M31.5920398,31.2437811 L6.09452736,5.73383085 C5.36069652,5.01243781 4.56467662,5.63432836 3.99253731,6.19402985 C3.39552239,6.77860697 2.57462687,7.62437811 3.39552239,8.43283582 L28.9054726,33.9427861 C29.6144279,34.6517413 30.3731343,34.1044776 30.9328358,33.5572139 C31.5298507,32.960199 32.4378109,32.0895522 31.5920398,31.2437811 Z"></path>
                <path d="M24.8258706,36.1442786 L18.4701493,29.7014925 C16.7164179,27.9477612 14.0174129,30.659204 15.7587065,32.4004975 L21.2686567,38.0845771 C22.0024876,38.8432836 23.2960199,38.1716418 24.1169154,37.8731343 C24.8383085,37.6243781 25.5472637,36.8905473 24.8258706,36.1442786 Z"></path>
                <path d="M3.73134328,25.9701493 C1.97761194,24.2164179 -0.708955224,26.9278607 1.03233831,28.681592 L9.46517413,37.0024876 C10.3233831,37.8482587 11.5920398,38.1467662 12.7487562,38.4452736 C13.4701493,38.6318408 14.2164179,38.7935323 14.9502488,38.8681592 C15.2985075,38.9054726 15.659204,38.880597 15.8457711,38.5199005 C15.9701493,38.2711443 15.9079602,37.9477612 15.7089552,37.7487562 L3.73134328,25.9701493 Z"></path>
            </g>
            <g transform="translate(0.000000, 9.950249)" fill="#26235D">
                <g transform="translate(48.507463, 0.000000)">
                    <path d="M7.71144279,8.6318408 C5.39800995,8.0721393 3.4079602,7.59950249 3.4079602,5.82089552 C3.4079602,3.8681592 5.59701493,3.17164179 7.64925373,3.17164179 C9.00497512,3.17164179 10.3358209,3.39552239 11.5920398,3.83084577 C11.7910448,3.90547264 11.9402985,3.94278607 12.0646766,3.94278607 C12.7985075,3.94278607 13.2587065,3.2960199 13.2587065,2.69900498 C13.2587065,2.12686567 12.9726368,1.7039801 12.4378109,1.51741294 C10.9452736,0.957711443 9.25373134,0.684079602 7.41293532,0.684079602 C2.82338308,0.684079602 0.771144279,3.34577114 0.771144279,5.98258706 C0.771144279,9.58955224 4.19154229,10.460199 7.20149254,11.2313433 C9.4278607,11.8034826 11.3557214,12.2885572 11.3557214,13.7562189 C11.3557214,15.5472637 10,16.4303483 7.18905473,16.4303483 C5.48507463,16.4303483 3.8681592,16.0945274 2.36318408,15.4228856 C2.17661692,15.3482587 2.00248756,15.3109453 1.8159204,15.3109453 C1.05721393,15.3109453 0.597014925,15.9328358 0.597014925,16.5547264 C0.597014925,17.0646766 0.945273632,17.5621891 1.41791045,17.7487562 C3.28358209,18.5572139 5.29850746,18.9552239 7.42537313,18.9552239 C11.2935323,18.9552239 13.9925373,16.8781095 13.9925373,13.9054726 C13.9800995,10.1368159 10.6467662,9.32835821 7.71144279,8.6318408 Z" id="Path"></path>
                    <path d="M32.9477612,0.820895522 C32.2263682,0.820895522 31.6293532,1.41791045 31.6293532,2.1641791 L31.6293532,12.0771144 C31.6293532,15.1243781 29.1915423,16.5174129 26.9402985,16.5174129 C24.6890547,16.5174129 22.2512438,15.1243781 22.2512438,12.0771144 L22.2512438,2.1641791 C22.2512438,1.43034826 21.641791,0.820895522 20.9079602,0.820895522 C20.1865672,0.820895522 19.5895522,1.41791045 19.5895522,2.1641791 L19.5895522,12.0024876 C19.5895522,16.579602 23.2835821,18.9676617 26.9278607,18.9676617 C30.5721393,18.9676617 34.2661692,16.579602 34.2661692,12.0024876 L34.2661692,2.1641791 C34.2910448,1.43034826 33.6691542,0.820895522 32.9477612,0.820895522 Z" id="Path"></path>
                    <path d="M53.0721393,0.945273632 L40.6716418,0.945273632 C39.9751244,0.945273632 39.4278607,1.50497512 39.4278607,2.21393035 C39.4278607,2.92288557 39.9626866,3.45771144 40.6716418,3.45771144 L45.5597015,3.45771144 L45.5597015,17.5373134 C45.5597015,18.2587065 46.1442786,18.8557214 46.8781095,18.8557214 C47.6119403,18.8557214 48.221393,18.2711443 48.221393,17.5373134 L48.221393,3.45771144 L53.0845771,3.45771144 C53.7935323,3.45771144 54.3532338,2.91044776 54.3532338,2.21393035 C54.340796,1.50497512 53.7935323,0.945273632 53.0721393,0.945273632 Z" id="Path"></path>
                    <path d="M72.5621891,0.820895522 C71.840796,0.820895522 71.2437811,1.41791045 71.2437811,2.1641791 L71.2437811,8.59452736 L62.1890547,8.59452736 L62.1890547,2.1641791 C62.1890547,1.43034826 61.579602,0.820895522 60.8457711,0.820895522 C60.1243781,0.820895522 59.5273632,1.41791045 59.5273632,2.1641791 L59.5273632,17.5373134 C59.5273632,18.2587065 60.1119403,18.8557214 60.8457711,18.8557214 C61.579602,18.8557214 62.1890547,18.2711443 62.1890547,17.5373134 L62.1890547,11.1069652 L71.2437811,11.1069652 L71.2437811,17.5373134 C71.2437811,18.2587065 71.8283582,18.8557214 72.5621891,18.8557214 C73.2960199,18.8557214 73.9054726,18.2711443 73.9054726,17.5373134 L73.9054726,2.1641791 C73.9054726,1.43034826 73.2960199,0.820895522 72.5621891,0.820895522 Z" id="Path"></path>
                    <path d="M92.4875622,3.45771144 C93.1965174,3.45771144 93.7562189,2.91044776 93.7562189,2.21393035 C93.7562189,1.50497512 93.1965174,0.945273632 92.4875622,0.945273632 L82.5,0.945273632 C81.778607,0.945273632 81.181592,1.54228856 81.181592,2.28855721 L81.181592,17.4129353 C81.181592,18.1343284 81.7661692,18.7313433 82.5,18.7313433 L92.4875622,18.7313433 C93.1965174,18.7313433 93.7562189,18.1840796 93.7562189,17.4875622 C93.7562189,16.778607 93.1965174,16.2189055 92.4875622,16.2189055 L83.8432836,16.2189055 L83.8432836,11.0820896 L91.5920398,11.0820896 C92.300995,11.0820896 92.8606965,10.5348259 92.8606965,9.83830846 C92.8606965,9.12935323 92.300995,8.56965174 91.5920398,8.56965174 L83.8432836,8.56965174 L83.8432836,3.45771144 L92.4875622,3.45771144 L92.4875622,3.45771144 Z" id="Path"></path>
                    <path d="M113.706468,6.19402985 C113.706468,2.86069652 111.169154,0.945273632 106.741294,0.945273632 L100.932836,0.945273632 C100.211443,0.945273632 99.6144279,1.54228856 99.6144279,2.28855721 L99.6144279,17.5373134 C99.6144279,18.2587065 100.199005,18.8557214 100.932836,18.8557214 C101.666667,18.8557214 102.276119,18.2711443 102.276119,17.5373134 L102.276119,11.9402985 L107.238806,11.9402985 C110.485075,11.9402985 110.90796,14.5273632 110.90796,16.778607 L110.90796,17.5248756 C110.90796,18.3084577 111.442786,18.8432836 112.251244,18.8432836 C112.972637,18.8432836 113.569652,18.2587065 113.569652,17.5248756 L113.569652,16.380597 C113.569652,15.2736318 113.358209,11.7661692 110.820896,10.6840796 C112.61194,9.87562189 113.706468,8.19651741 113.706468,6.19402985 Z M111.057214,6.3681592 C111.057214,8.27114428 109.390547,9.41542289 106.59204,9.41542289 L102.276119,9.41542289 L102.276119,3.48258706 L106.467662,3.48258706 C110.522388,3.48258706 111.057214,5.02487562 111.057214,6.3681592 Z" id="Shape"></path>
                    <path d="M130.932836,16.0696517 L122.985075,16.0696517 L122.985075,2.1641791 C122.985075,1.43034826 122.375622,0.820895522 121.641791,0.820895522 C120.920398,0.820895522 120.323383,1.41791045 120.323383,2.1641791 L120.323383,16.9651741 C120.323383,17.9353234 121.119403,18.7313433 122.089552,18.7313433 L130.932836,18.7313433 C131.666667,18.7313433 132.276119,18.1467662 132.276119,17.4129353 C132.276119,16.6791045 131.654229,16.0696517 130.932836,16.0696517 Z" id="Path"></path>
                    <path d="M146.654229,1.96517413 C146.343284,1.25621891 145.733831,0.820895522 145.024876,0.820895522 L144.776119,0.820895522 C144.067164,0.820895522 143.457711,1.24378109 143.146766,1.96517413 L136.791045,16.9651741 C136.70398,17.1890547 136.654229,17.3756219 136.654229,17.5373134 C136.654229,18.2960199 137.21393,18.8557214 137.972637,18.8557214 C138.532338,18.8557214 138.992537,18.5447761 139.216418,18.0348259 L140.783582,14.2661692 L148.992537,14.2661692 L150.559701,18.0348259 C150.783582,18.5447761 151.256219,18.8432836 151.803483,18.8432836 C152.562189,18.8432836 153.121891,18.2835821 153.121891,17.5248756 C153.121891,17.3631841 153.072139,17.1641791 152.985075,16.9527363 L146.654229,1.96517413 Z M147.972637,11.8034826 L141.828358,11.8034826 L144.900498,4.41542289 L147.972637,11.8034826 Z" id="Shape"></path>
                    <path d="M172.686567,0.820895522 C171.965174,0.820895522 171.368159,1.41791045 171.368159,2.1641791 L171.368159,15 L162.126866,1.65422886 C161.716418,1.11940299 161.169154,0.833333333 160.609453,0.833333333 L160.28607,0.833333333 C159.291045,0.833333333 158.470149,1.65422886 158.470149,2.67412935 L158.470149,17.5373134 C158.470149,18.2587065 159.054726,18.8557214 159.788557,18.8557214 C160.522388,18.8557214 161.131841,18.2711443 161.131841,17.5373134 L161.131841,4.68905473 L170.422886,18.1094527 C170.783582,18.5820896 171.318408,18.8557214 171.902985,18.8557214 L172.201493,18.8557214 C173.208955,18.8557214 174.042289,18.0472637 174.042289,17.039801 L174.042289,2.1641791 C174.029851,1.43034826 173.420398,0.820895522 172.686567,0.820895522 Z" id="Path"></path>
                    <path d="M194.402985,3.78109453 C192.761194,1.9278607 190.422886,0.945273632 187.624378,0.945273632 L182.624378,0.945273632 C181.902985,0.945273632 181.30597,1.54228856 181.30597,2.28855721 L181.30597,17.4129353 C181.30597,18.1343284 181.890547,18.7313433 182.624378,18.7313433 L187.624378,18.7313433 C190.410448,18.7313433 192.761194,17.7487562 194.402985,15.8830846 C195.808458,14.2910448 196.616915,12.0895522 196.616915,9.83830846 C196.616915,7.58706468 195.808458,5.37313433 194.402985,3.78109453 Z M193.992537,9.83830846 C193.992537,13.6567164 191.330846,16.2189055 187.363184,16.2189055 L183.967662,16.2189055 L183.967662,3.45771144 L187.363184,3.45771144 C191.318408,3.45771144 193.992537,6.0199005 193.992537,9.83830846 Z" id="Shape"></path>
                </g>
                <g transform="translate(0.000000, 1.243781)" id="Path">
                    <path d="M23.9800995,0.472636816 C23.221393,0.410447761 22.5497512,0.410447761 21.7039801,0.472636816 C21.318408,0.497512438 20.9825871,0.684079602 20.8333333,1.03233831 C20.6840796,1.39303483 20.7711443,1.80348259 21.0447761,2.07711443 L35.1243781,15.721393 C35.3233831,15.9079602 35.4726368,15.9825871 35.858209,15.9825871 C36.3308458,15.9825871 36.5547264,15.6840796 36.6666667,15.3855721 C36.9278607,14.7014925 37.1393035,13.9925373 37.3134328,13.2835821 C37.4129353,12.8606965 37.300995,12.4129353 37.0273632,12.0895522 C37.0024876,12.0522388 36.9651741,12.0273632 36.9278607,11.9900498 L25.5721393,1.20646766 C25.1616915,0.758706468 24.5771144,0.52238806 23.9800995,0.472636816 Z"></path>
                    <path d="M13.3830846,16.8283582 C14.141791,16.8905473 14.8134328,16.8905473 15.659204,16.8283582 C16.0447761,16.8034826 16.380597,16.6169154 16.5298507,16.2562189 C16.6791045,15.8955224 16.5920398,15.4850746 16.318408,15.2114428 L2.22636816,1.56716418 C2.02736318,1.38059701 1.87810945,1.31840796 1.49253731,1.31840796 C1.0199005,1.31840796 0.7960199,1.61691542 0.684079602,1.91542289 C0.422885572,2.59950249 0.211442786,3.30845771 0.0373134328,4.01741294 C-0.0621890547,4.44029851 0.0497512438,4.8880597 0.323383085,5.21144279 C0.348258706,5.24875622 0.385572139,5.28606965 0.422885572,5.31094527 L11.778607,16.0945274 C12.2014925,16.5422886 12.7860697,16.7661692 13.3830846,16.8283582 Z"></path>
                </g>
            </g>
            <g transform="translate(245.024876, 9.950249)" fill="#26235D" id="Shape">
                <path d="M1.54228856,4.30348259 L1.54228856,1.96517413 L2.48756219,1.96517413 C2.71144279,1.96517413 2.88557214,2.02736318 3.02238806,2.1641791 C3.15920398,2.28855721 3.22139303,2.46268657 3.22139303,2.67412935 C3.22139303,2.77363184 3.20895522,2.87313433 3.17164179,2.960199 C3.13432836,3.04726368 3.09701493,3.12189055 3.03482587,3.17164179 C2.97263682,3.22139303 2.91044776,3.27114428 2.8358209,3.30845771 C2.76119403,3.34577114 2.68656716,3.35820896 2.6119403,3.37064677 L3.24626866,4.32835821 L2.89800995,4.32835821 L2.30099502,3.4079602 L1.82835821,3.4079602 L1.82835821,4.32835821 L1.54228856,4.30348259 L1.54228856,4.30348259 Z M1.82835821,3.10945274 L2.43781095,3.10945274 C2.57462687,3.10945274 2.68656716,3.05970149 2.77363184,2.98507463 C2.86069652,2.91044776 2.91044776,2.79850746 2.91044776,2.66169154 C2.91044776,2.52487562 2.86069652,2.42537313 2.77363184,2.33830846 C2.68656716,2.25124378 2.57462687,2.21393035 2.43781095,2.21393035 L1.82835821,2.21393035 L1.82835821,3.10945274 Z"></path>
                <path d="M2.30099502,5.36069652 C1.08208955,5.36069652 0.0995024876,4.37810945 0.0995024876,3.15920398 C0.0995024876,1.94029851 1.08208955,0.957711443 2.30099502,0.957711443 C3.5199005,0.957711443 4.50248756,1.94029851 4.50248756,3.15920398 C4.50248756,4.36567164 3.5199005,5.36069652 2.30099502,5.36069652 Z M2.30099502,1.24378109 C1.24378109,1.24378109 0.385572139,2.10199005 0.385572139,3.15920398 C0.385572139,4.21641791 1.24378109,5.07462687 2.30099502,5.07462687 C3.35820896,5.07462687 4.21641791,4.21641791 4.21641791,3.15920398 C4.21641791,2.10199005 3.35820896,1.24378109 2.30099502,1.24378109 Z"></path>
            </g>
        </g>
    </g>
</svg>
