<svg xmlns="http://www.w3.org/2000/svg" width="1391" height="225" viewBox="0 0 1391 225">
    <defs>
        <linearGradient id="k6as1le3ba" x1="50%" x2="50%" y1="0%" y2="100%">
            <stop offset="0%" stop-color="#8C5FFF"/>
            <stop offset="100%" stop-color="#8C5FFF" stop-opacity="0"/>
        </linearGradient>
        <linearGradient id="bo2bohadfb" x1="47.033%" x2="72.163%" y1="16.427%" y2="116.256%">
            <stop offset="0%" stop-color="#8C5FFF"/>
            <stop offset="100%" stop-color="#8C5FFF" stop-opacity="0"/>
        </linearGradient>
        <linearGradient id="83sqb2wmnc" x1="50%" x2="50%" y1="0%" y2="82.483%">
            <stop offset="0%" stop-color="#8C5FFF"/>
            <stop offset="100%" stop-color="#8C5FFF" stop-opacity="0"/>
        </linearGradient>
        <linearGradient id="ljso6y7fmd" x1="49.895%" x2="49.853%" y1="39.34%" y2="73.862%">
            <stop offset="0%" stop-color="#8C5FFF"/>
            <stop offset="100%" stop-color="#6B31FF" stop-opacity="0"/>
        </linearGradient>
        <linearGradient id="vtr5mthcpe" x1="50%" x2="50%" y1="25.276%" y2="99.404%">
            <stop offset="0%" stop-color="#8C5FFF"/>
            <stop offset="100%" stop-color="#8C5FFF" stop-opacity="0"/>
        </linearGradient>
        <linearGradient id="bu7pn9srif" x1="50%" x2="50%" y1=".138%" y2="49.559%">
            <stop offset=".04%" stop-color="#8C5FFF" stop-opacity="0"/>
            <stop offset="100%" stop-color="#8C5FFF"/>
        </linearGradient>
        <linearGradient id="qtz5locpmg" x1="50%" x2="50%" y1="13.158%" y2="107.463%">
            <stop offset="11.679%" stop-color="#8C5FFF"/>
            <stop offset="100%" stop-color="#6B31FF" stop-opacity="0"/>
        </linearGradient>
        <linearGradient id="qhcklsjx1h" x1="50%" x2="50%" y1="25.276%" y2="99.404%">
            <stop offset="0%" stop-color="#8C5FFF"/>
            <stop offset="100%" stop-color="#8C5FFF" stop-opacity="0"/>
        </linearGradient>
        <linearGradient id="ow6x4oejci" x1="50%" x2="50%" y1="0%" y2="98.855%">
            <stop offset="0%" stop-color="#8C5FFF"/>
            <stop offset="100%" stop-color="#8C5FFF" stop-opacity="0"/>
        </linearGradient>
        <linearGradient id="h531p8wt7j" x1="50%" x2="50%" y1="25.974%" y2="100%">
            <stop offset="0%" stop-color="#8C5FFF"/>
            <stop offset="100%" stop-color="#8C5FFF" stop-opacity="0"/>
        </linearGradient>
        <linearGradient id="cgfu0d2j4k" x1="50%" x2="50%" y1="0%" y2="98.855%">
            <stop offset="0%" stop-color="#8C5FFF"/>
            <stop offset="100%" stop-color="#8C5FFF" stop-opacity="0"/>
        </linearGradient>
        <linearGradient id="9xfpct7o5l" x1="50%" x2="50%" y1="25.974%" y2="100%">
            <stop offset="0%" stop-color="#8C5FFF"/>
            <stop offset="100%" stop-color="#8C5FFF" stop-opacity="0"/>
        </linearGradient>
        <linearGradient id="6p0m51rnem" x1="50%" x2="50%" y1="25.974%" y2="100%">
            <stop offset="0%" stop-color="#8C5FFF"/>
            <stop offset="100%" stop-color="#8C5FFF" stop-opacity="0"/>
        </linearGradient>
        <linearGradient id="p4ix54ghan" x1="50%" x2="-5.989%" y1="47.815%" y2="51.589%">
            <stop offset="0%" stop-color="#8C5FFF"/>
            <stop offset="100%" stop-color="#8C5FFF" stop-opacity="0"/>
        </linearGradient>
        <linearGradient id="wu9s91vlgo" x1="50%" x2="50%" y1="40.453%" y2="82.301%">
            <stop offset="0%" stop-color="#8C5FFF"/>
            <stop offset="56.443%" stop-color="#8C5FFF" stop-opacity=".345"/>
            <stop offset="100%" stop-color="#8C5FFF" stop-opacity="0"/>
        </linearGradient>
        <linearGradient id="ixtvf8alep" x1="50%" x2="50%" y1="25.027%" y2="101.214%">
            <stop offset="0%" stop-color="#8C5FFF"/>
            <stop offset="100%" stop-color="#8C5FFF" stop-opacity="0"/>
        </linearGradient>
        <linearGradient id="a0n6e7gocq" x1="59.907%" x2="4.053%" y1="57.8%" y2="77.859%">
            <stop offset="0%" stop-color="#8C5FFF"/>
            <stop offset="100%" stop-color="#8C5FFF" stop-opacity="0"/>
        </linearGradient>
        <linearGradient id="rhistc94gr" x1="50%" x2="50%" y1="25.974%" y2="100%">
            <stop offset="0%" stop-color="#8C5FFF"/>
            <stop offset="100%" stop-color="#8C5FFF" stop-opacity="0"/>
        </linearGradient>
        <linearGradient id="gnixxlzeds" x1="50%" x2="50%" y1="0%" y2="98.577%">
            <stop offset="0%" stop-color="#8C5FFF"/>
            <stop offset="100%" stop-color="#8C5FFF" stop-opacity="0"/>
        </linearGradient>
        <linearGradient id="2i9m9w83dt" x1="50%" x2="50%" y1="0%" y2="100%">
            <stop offset="0%" stop-color="#8C5FFF"/>
            <stop offset="100%" stop-color="#8C5FFF" stop-opacity="0"/>
        </linearGradient>
        <linearGradient id="c1czaltgnu" x1="50%" x2="50%" y1="14.324%" y2="76.118%">
            <stop offset="0%" stop-color="#8C5FFF"/>
            <stop offset="100%" stop-color="#8C5FFF" stop-opacity="0"/>
        </linearGradient>
        <linearGradient id="j0yl6fyqwv" x1="50%" x2="50%" y1="30.464%" y2="76.118%">
            <stop offset="0%" stop-color="#8C5FFF"/>
            <stop offset="100%" stop-color="#8C5FFF" stop-opacity="0"/>
        </linearGradient>
        <linearGradient id="8hupgkt0hw" x1="50%" x2="50%" y1="14.324%" y2="76.118%">
            <stop offset="0%" stop-color="#8C5FFF"/>
            <stop offset="100%" stop-color="#8C5FFF" stop-opacity="0"/>
        </linearGradient>
        <linearGradient id="6o7rn9clax" x1="45.267%" x2="63.329%" y1="26.028%" y2="117.176%">
            <stop offset="0%" stop-color="#8C5FFF"/>
            <stop offset="100%" stop-color="#8C5FFF" stop-opacity="0"/>
        </linearGradient>
        <linearGradient id="dvi78ahp3y" x1="72.448%" x2="32.273%" y1="40.766%" y2="50.829%">
            <stop offset="0%" stop-color="#8C5FFF" stop-opacity="0"/>
            <stop offset="100%" stop-color="#8C5FFF"/>
        </linearGradient>
        <linearGradient id="ozxh907b0z" x1="50%" x2="50%" y1="26.198%" y2="90.543%">
            <stop offset="0%" stop-color="#8C5FFF"/>
            <stop offset="100%" stop-color="#8C5FFF" stop-opacity="0"/>
        </linearGradient>
        <linearGradient id="bn3wq2jpwA" x1="70.686%" x2="84.287%" y1="39.956%" y2="107.507%">
            <stop offset="0%" stop-color="#8C5FFF"/>
            <stop offset="100%" stop-color="#8C5FFF" stop-opacity="0"/>
        </linearGradient>
        <linearGradient id="pbd1mrf7qB" x1="50%" x2="50%" y1="0%" y2="100%">
            <stop offset="0%" stop-color="#8C5FFF"/>
            <stop offset="100%" stop-color="#8C5FFF" stop-opacity="0"/>
        </linearGradient>
        <linearGradient id="lye8n0zy0C" x1="50.933%" x2="54.854%" y1="24.106%" y2="104.341%">
            <stop offset="0%" stop-color="#8C5FFF"/>
            <stop offset="100%" stop-color="#8C5FFF" stop-opacity="0"/>
        </linearGradient>
        <linearGradient id="gafk9yh1uD" x1="50%" x2="50%" y1="48.727%" y2="86.402%">
            <stop offset="0%" stop-color="#8C5FFF"/>
            <stop offset="99.937%" stop-color="#8C5FFF" stop-opacity="0"/>
        </linearGradient>
        <linearGradient id="jv90s1x2mE" x1="50%" x2="50%" y1="42.729%" y2="88.96%">
            <stop offset="0%" stop-color="#8C5FFF"/>
            <stop offset="100%" stop-color="#8C5FFF" stop-opacity="0"/>
        </linearGradient>
        <linearGradient id="zqop6p9v4F" x1="50%" x2="50%" y1="42.021%" y2="100%">
            <stop offset="0%" stop-color="#8C5FFF"/>
            <stop offset="98.424%" stop-color="#8C5FFF" stop-opacity="0"/>
        </linearGradient>
        <linearGradient id="rasfpknhpG" x1="50%" x2="50%" y1="55.873%" y2="87.448%">
            <stop offset="0%" stop-color="#8C5FFF"/>
            <stop offset="100%" stop-color="#8C5FFF" stop-opacity="0"/>
        </linearGradient>
        <linearGradient id="488kk2cwbH" x1="50%" x2="50%" y1=".059%" y2="49.559%">
            <stop offset="0%" stop-color="#8C5FFF" stop-opacity="0"/>
            <stop offset="100%" stop-color="#8C5FFF"/>
        </linearGradient>
        <linearGradient id="0sb85jxasI" x1="50%" x2="50%" y1="43.932%" y2="99.818%">
            <stop offset="0%" stop-color="#8C5FFF"/>
            <stop offset="77.059%" stop-color="#8C5FFF" stop-opacity=".061"/>
            <stop offset="100%" stop-color="#8C5FFF" stop-opacity="0"/>
        </linearGradient>
        <linearGradient id="wxobbo757J" x1="50%" x2="50%" y1="0%" y2="100%">
            <stop offset="0%" stop-color="#8C5FFF"/>
            <stop offset="100%" stop-color="#8C5FFF" stop-opacity="0"/>
        </linearGradient>
        <linearGradient id="8a7yvvb0sK" x1="50%" x2="50%" y1="0%" y2="100%">
            <stop offset="0%" stop-color="#8C5FFF"/>
            <stop offset="100%" stop-color="#8C5FFF" stop-opacity="0"/>
        </linearGradient>
        <linearGradient id="rsqaeupl3L" x1="50%" x2="50%" y1="55.638%" y2="100%">
            <stop offset="0%" stop-color="#8C5FFF"/>
            <stop offset="100%" stop-color="#8C5FFF" stop-opacity="0"/>
        </linearGradient>
        <linearGradient id="tmndl5ifcM" x1="44.404%" x2="76.513%" y1="29.749%" y2="21.758%">
            <stop offset="0%" stop-color="#8C5FFF"/>
            <stop offset="100%" stop-color="#8C5FFF" stop-opacity="0"/>
        </linearGradient>
        <linearGradient id="15gftm97aN" x1="50%" x2="50%" y1="16.66%" y2="100%">
            <stop offset="0%" stop-color="#8C5FFF"/>
            <stop offset="100%" stop-color="#8C5FFF" stop-opacity="0"/>
        </linearGradient>
        <linearGradient id="94tws5k19O" x1="47.033%" x2="72.163%" y1="32.8%" y2="83.945%">
            <stop offset="24.546%" stop-color="#8C5FFF"/>
            <stop offset="100%" stop-color="#8C5FFF" stop-opacity="0"/>
        </linearGradient>
        <linearGradient id="itw5gesffP" x1="54.363%" x2="15.59%" y1="42.234%" y2="59.097%">
            <stop offset="0%" stop-color="#8C5FFF" stop-opacity=".985"/>
            <stop offset="100%" stop-color="#8C5FFF" stop-opacity="0"/>
        </linearGradient>
        <linearGradient id="e7rksd7h6Q" x1="56.609%" x2="-25.657%" y1="51.262%" y2="87.533%">
            <stop offset="0%" stop-color="#8C5FFF"/>
            <stop offset="100%" stop-color="#8C5FFF" stop-opacity="0"/>
        </linearGradient>
        <linearGradient id="wvamv3gp2R" x1="66.147%" x2="102.553%" y1="40.191%" y2="62.094%">
            <stop offset="0%" stop-color="#8C5FFF"/>
            <stop offset="100%" stop-color="#8C5FFF" stop-opacity="0"/>
        </linearGradient>
        <linearGradient id="47tgtx05vS" x1="50%" x2="50%" y1="0%" y2="100%">
            <stop offset="0%" stop-color="#8C5FFF"/>
            <stop offset="100%" stop-color="#8C5FFF" stop-opacity="0"/>
        </linearGradient>
        <linearGradient id="iwg9xb8yyT" x1="49.954%" x2="49.592%" y1="68.288%" y2="109.41%">
            <stop offset="0%" stop-color="#8C5FFF"/>
            <stop offset="100%" stop-color="#8C5FFF" stop-opacity="0"/>
        </linearGradient>
        <linearGradient id="dg3ckd4qgU" x1="50.005%" x2="50%" y1="26.365%" y2="100%">
            <stop offset="0%" stop-color="#8C5FFF"/>
            <stop offset="61.262%" stop-color="#8C5FFF" stop-opacity=".105"/>
            <stop offset="100%" stop-color="#8C5FFF" stop-opacity="0"/>
        </linearGradient>
        <linearGradient id="6wxl95rmnV" x1="35.662%" x2="146.619%" y1="36.851%" y2="31.686%">
            <stop offset="0%" stop-color="#8C5FFF"/>
            <stop offset="100%" stop-color="#8C5FFF" stop-opacity="0"/>
        </linearGradient>
        <linearGradient id="s80ta1a10W" x1="50%" x2="50.006%" y1="0%" y2="129.053%">
            <stop offset="0%" stop-color="#8C5FFF"/>
            <stop offset="100%" stop-color="#8C5FFF" stop-opacity="0"/>
        </linearGradient>
        <linearGradient id="rh63ccc2cX" x1="50%" x2="50%" y1=".138%" y2="49.559%">
            <stop offset=".04%" stop-color="#8C5FFF" stop-opacity="0"/>
            <stop offset="100%" stop-color="#8C5FFF"/>
        </linearGradient>
    </defs>
    <g fill="none" fill-rule="evenodd" opacity=".499">
        <g stroke-width="1.2">
            <path stroke="url(#k6as1le3ba)" d="M0 99.33L0 38.816 16.231 19.525 87.515 37.176" transform="translate(1) translate(0 154.261)"/>
            <path stroke="url(#bo2bohadfb)" d="M26.327 21.738L26.327 4.442 32.252 0 63.911 8.57 63.911 30.797" transform="translate(1) translate(0 154.261)"/>
            <path stroke="url(#83sqb2wmnc)" d="M16.231 19.525L16.231 113.774" transform="translate(1) translate(0 154.261)"/>
        </g>
        <path stroke="url(#ljso6y7fmd)" stroke-width="1.2" d="M445.703 359L445.703 79.659 466.913 65.234 532.739 98.061" transform="translate(1)"/>
        <path stroke="url(#vtr5mthcpe)" stroke-width="1.2" d="M466.913 65.234L466.913 200.742" transform="translate(1)"/>
        <path stroke="url(#bu7pn9srif)" stroke-width="1.2" d="M498.892 81.107L498.892 7.2" transform="translate(1)"/>
        <path stroke="url(#qtz5locpmg)" stroke-width="1.2" d="M1225.703 170.656L1225.703 69.659 1246.913 55.234 1312.739 88.061 1312.739 324.626" transform="translate(1)"/>
        <path stroke="url(#qhcklsjx1h)" stroke-width="1.2" d="M1246.913 55.234L1246.913 176.886" transform="translate(1)"/>
        <g stroke-width="1.2">
            <path stroke="url(#ow6x4oejci)" d="M0.416 119.355L0.416 20.735 41.415 0 76.687 13.868" transform="translate(1) translate(491 155.006)"/>
            <path stroke="url(#h531p8wt7j)" d="M0 55.087L36.026 38.994" transform="translate(1) translate(491 155.006) matrix(-1 0 0 1 36.026 0)"/>
            <path stroke="url(#h531p8wt7j)" d="M0 83.087L36.026 66.994" transform="translate(1) translate(491 155.006) matrix(-1 0 0 1 36.026 0)"/>
        </g>
        <g stroke-width="1.2">
            <path stroke="url(#cgfu0d2j4k)" d="M0.416 120.355L0.416 21.735 40 0 76.687 14.868" transform="translate(1) matrix(-1 0 0 1 1389 154.006)"/>
            <path stroke="url(#9xfpct7o5l)" d="M40 63.68L76.026 44.168" transform="translate(1) matrix(-1 0 0 1 1389 154.006)"/>
            <path stroke="url(#6p0m51rnem)" d="M40 91.087L76.026 70.953" transform="translate(1) matrix(-1 0 0 1 1389 154.006)"/>
            <path stroke="url(#p4ix54ghan)" d="M0.416 21.735L34.863 37.795 76.026 14.994" transform="translate(1) matrix(-1 0 0 1 1389 154.006)"/>
        </g>
        <path stroke="url(#wu9s91vlgo)" stroke-width="1.2" d="M567.687 298.8L567.687 114.575 589.605 101.5 651.443 123.417" transform="translate(1)"/>
        <path stroke="url(#ixtvf8alep)" stroke-width="1.2" d="M716.156 85.513L740.251 95.055 740.251 295.091" transform="translate(1)"/>
        <path stroke="url(#a0n6e7gocq)" stroke-width="1.2" d="M606.63 149.631L716.156 85.513" transform="translate(1)"/>
        <path stroke="url(#rhistc94gr)" stroke-width="1.2" d="M606.63 188.742L716.156 126.528" transform="translate(1)"/>
        <path stroke="url(#gnixxlzeds)" stroke-width="1.2" d="M609.565 229.001L716.156 166.128" transform="translate(1)"/>
        <path stroke="url(#2i9m9w83dt)" stroke-width="1.2" d="M609.565 271.001L716.156 208.128" transform="translate(1)"/>
        <path stroke="url(#c1czaltgnu)" stroke-width="1.2" d="M740.251 152.64L816.248 179.312 816.248 295.091" transform="translate(1)"/>
        <path stroke="url(#j0yl6fyqwv)" stroke-width="1.2" d="M1174.677 152.752L1249.997 179.312 1249.997 295.091" transform="translate(1)"/>
        <path stroke="url(#8hupgkt0hw)" stroke-width="1.2" d="M168.46 152.346L236.941 177.066 236.941 292.845" transform="translate(1) matrix(-1 0 0 1 405.4 0)"/>
        <path stroke="url(#6o7rn9clax)" stroke-width="1.2" d="M801.382 174.632L801.382 101.5 853.968 74.806 908.92 101.5 908.92 272.689" transform="translate(1)"/>
        <path stroke="url(#dvi78ahp3y)" stroke-width="1.2" d="M801.382 101.5L855.151 128.838 908.92 101.5" transform="translate(1)"/>
        <path stroke="url(#ozxh907b0z)" stroke-width="1.2" d="M908.92 139.505L939.459 123.125 1008.199 149.618 1008.199 280.018" transform="translate(1)"/>
        <path stroke="url(#bn3wq2jpwA)" stroke-width="1.2" d="M945.763 125.204L945.763 77.58 954.526 71.805 980.82 81.01 980.82 139.148" transform="translate(1)"/>
        <path stroke="url(#pbd1mrf7qB)" stroke-width="1.2" d="M1008.199 177.533L1079.05 165.635 1079.05 295.091" transform="translate(1)"/>
        <path stroke="#8C5FFF" stroke-width="1.2" d="M444.922 143.29L398.672 169.097 332.081 133.457" transform="translate(1)"/>
        <path stroke="url(#lye8n0zy0C)" stroke-width="1.2" d="M332.081 251.136L332.081 133.457 379 108.512 445.703 143.289" transform="translate(1)"/>
        <path stroke="url(#gafk9yh1uD)" stroke-width="1.2" d="M589.605 101.5L589.605 270.528" transform="translate(1)"/>
        <path stroke="url(#jv90s1x2mE)" stroke-width="1.2" d="M855.151 128.838L855.151 280.018" transform="translate(1)"/>
        <path stroke="url(#zqop6p9v4F)" stroke-width="1.2" d="M939.459 123.125L939.459 277.623" transform="translate(1)"/>
        <path stroke="url(#rasfpknhpG)" stroke-width="1.2" d="M954.526 71.805L954.526 122.111" transform="translate(1)"/>
        <path stroke="url(#488kk2cwbH)" stroke-width="1.2" d="M963.292 74.806L963.292 0" transform="translate(1)"/>
        <path stroke="url(#0sb85jxasI)" stroke-width="1.2" d="M716.156 85.513L716.303 285.528" transform="translate(1)"/>
        <path stroke="url(#wxobbo757J)" stroke-width="1.2" d="M532.415 97.513L532.415 163" transform="translate(1)"/>
        <path stroke="url(#8a7yvvb0sK)" stroke-width="1.2" d="M1079.311 165.416L1101.52 180.45 1101.52 292.516" transform="translate(1)"/>
        <path stroke="url(#rsqaeupl3L)" d="M1116.247 113.987L1116.247 248" transform="translate(1)"/>
        <path stroke="url(#tmndl5ifcM)" stroke-width="1.2" d="M350.78 123.584L274.498 79.502 237.079 106.478 237.079 258.692" transform="translate(1)"/>
        <path stroke="url(#15gftm97aN)" stroke-width="1.2" d="M1090.416 172.613L1090.416 126.947 1116.247 113.987 1175 133.006 1175 262.287" transform="translate(1)"/>
        <path stroke="url(#94tws5k19O)" stroke-width="1.2" d="M1113.327 115.095L1113.327 106.703 1120.158 101.127 1156.804 113.987 1156.804 126.627" transform="translate(1)"/>
        <g stroke-linecap="round" stroke-width="1.2">
            <path stroke="url(#itw5gesffP)" d="M52.284 4.407C49.581 3 46.491 2.2 43.21 2.2c-10.624 0-19.237 8.372-19.237 18.7H0" transform="translate(1) translate(1027 35)"/>
            <path stroke="url(#e7rksd7h6Q)" d="M78.889 19.39c.204-1.035.311-2.104.311-3.2C79.2 7.25 72.059 0 63.25 0S47.3 7.249 47.3 16.19" transform="translate(1) translate(1027 35)"/>
            <path stroke="url(#wvamv3gp2R)" d="M121 36.3h-19.774c0-9.72-7.812-17.6-17.448-17.6-4.253 0-8.15 1.535-11.178 4.086" transform="translate(1) translate(1027 35)"/>
        </g>
        <g stroke-linecap="round" stroke-width="1.2">
            <path stroke="url(#itw5gesffP)" d="M52.284 4.407C49.581 3 46.491 2.2 43.21 2.2c-10.624 0-19.237 8.372-19.237 18.7H0" transform="translate(1) translate(278 26)"/>
            <path stroke="url(#e7rksd7h6Q)" d="M78.889 19.39c.204-1.035.311-2.104.311-3.2C79.2 7.25 72.059 0 63.25 0S47.3 7.249 47.3 16.19" transform="translate(1) translate(278 26)"/>
            <path stroke="url(#wvamv3gp2R)" d="M121 36.3h-19.774c0-9.72-7.812-17.6-17.448-17.6-4.253 0-8.15 1.535-11.178 4.086" transform="translate(1) translate(278 26)"/>
        </g>
        <path stroke="url(#47tgtx05vS)" d="M274.498 79.919L274.498 263.467" transform="translate(1)"/>
        <path stroke="url(#iwg9xb8yyT)" stroke-width="1.2" d="M87.179 251.136L87.179 106.204 102.663 97.576 102.663 57.122 125.335 42.386 169.343 67.561 169.343 109.433 186.257 133.293 186.257 170.368" transform="translate(1)"/>
        <path stroke="url(#dg3ckd4qgU)" stroke-width="1.2" d="M146.165 82L146 288.117" transform="translate(1)"/>
        <path stroke="url(#6wxl95rmnV)" stroke-width="1.2" d="M102.663 57.122L146.275 82.166 168.809 68.475" transform="translate(1)"/>
        <path stroke="url(#s80ta1a10W)" stroke-width="1.2" d="M399 169L399 260.994" transform="translate(1)"/>
        <path stroke="url(#rh63ccc2cX)" stroke-width="1.2" d="M137 62.907L137 8.827" transform="translate(1)"/>
    </g>
</svg>
