<svg xmlns="http://www.w3.org/2000/svg" viewBox="0 0 192 192" style="width:35px;height:35px;fill:#fff"><g data-name="trim area"><path class="cls-3" d="M77.78 101.67 67.37 39.48a29.55 29.55 0 1 1 58.7-4.94 30.46 30.46 0 0 1-.41 4.93l-10.21 61.06-8.33-9.22a13.92 13.92 0 0 0-21 .39Zm18.74-84.62A17.56 17.56 0 0 0 79.2 37.5l6.64 39.65a26 26 0 0 1 21.39-.23l6.59-39.42a18.67 18.67 0 0 0 .25-3 17.55 17.55 0 0 0-17.55-17.45Z"/><path class="cls-3" d="M39.33 163.24a30.28 30.28 0 0 1-5.27-.47A29.55 29.55 0 0 1 29 106l59-22-4.3 12.13a13.81 13.81 0 0 0-.77 4.58A14 14 0 0 0 94 114.29l12.25 2.55-48.15 39.65a29.47 29.47 0 0 1-18.77 6.75ZM71 103.1l-37.84 14.15a17.65 17.65 0 0 0-11.4 16.47 17.19 17.19 0 0 0 2.35 8.73 17.54 17.54 0 0 0 26.36 4.78l31.08-25.62A26.12 26.12 0 0 1 71 103.1Z"/><path class="cls-3" d="M153.69 163.24a29.62 29.62 0 0 1-18.76-6.75l-48.31-39.83 12.71-2.31a13.91 13.91 0 0 0 11.4-13.69 13.74 13.74 0 0 0-.72-4.42l-4-11.95L164.08 106a29.54 29.54 0 0 1 15.23 42.45 29.65 29.65 0 0 1-25.62 14.79Zm-41.92-41.4 30.79 25.39a17.54 17.54 0 0 0 26.36-4.77 17.55 17.55 0 0 0-9-25.21l-37.28-13.94a25.91 25.91 0 0 1-10.87 18.53ZM39.52 114.46a6 6 0 0 1-5.94-5.19 65.07 65.07 0 0 1-.57-8.61 63.63 63.63 0 0 1 16.57-42.9 6 6 0 1 1 8.88 8.07A51.67 51.67 0 0 0 45 100.66a52.64 52.64 0 0 0 .46 7 6 6 0 0 1-5.14 6.75 5.51 5.51 0 0 1-.8.05Z"/><path class="cls-3" d="M96.81 164.46a64.58 64.58 0 0 1-12.43-1.21 6 6 0 1 1 2.33-11.77 52.4 52.4 0 0 0 10.1 1 51.31 51.31 0 0 0 31.65-10.8 6 6 0 1 1 7.34 9.49 63.15 63.15 0 0 1-38.99 13.29ZM150.18 84.44a6 6 0 0 1-5.54-3.7 52.19 52.19 0 0 0-28.56-28.18 6 6 0 0 1 4.47-11.13 64.22 64.22 0 0 1 35.17 34.69 6 6 0 0 1-3.23 7.88 5.93 5.93 0 0 1-2.31.44ZM18.73 126.27a6 6 0 0 1-5.81-4.55 87.06 87.06 0 0 1-2.59-21.06A92.61 92.61 0 0 1 14.21 75C21.23 52.24 37.74 37 47 30a6 6 0 1 1 7.29 9.54C46.16 45.7 31.71 59 25.68 78.5a81.13 81.13 0 0 0-3.35 22.16 75 75 0 0 0 2.23 18.15 6 6 0 0 1-4.37 7.28 6.14 6.14 0 0 1-1.46.18Z"/><path class="cls-3" d="M97.57 187.14h-.84A80.46 80.46 0 0 1 66.9 181a6 6 0 0 1 4.58-11.1 68.72 68.72 0 0 0 25.4 5.24 73 73 0 0 0 22.12-3.35A74.91 74.91 0 0 0 149.77 153a6 6 0 1 1 8.53 8.43 86.84 86.84 0 0 1-35.78 21.8 85.53 85.53 0 0 1-24.95 3.91ZM175.78 91.13a6 6 0 0 1-5.88-4.85 74.75 74.75 0 0 0-54.56-57.78 6 6 0 0 1 3-11.62A86.78 86.78 0 0 1 181.67 84a6 6 0 0 1-4.73 7 6.6 6.6 0 0 1-1.16.13Z"/></g></svg>