<?xml version="1.0" encoding="UTF-8"?>
<svg width="199px" height="110px" viewBox="0 0 199 110" version="1.1" xmlns="http://www.w3.org/2000/svg" xmlns:xlink="http://www.w3.org/1999/xlink">
    <!-- Generator: Sketch 52 (66869) - http://www.bohemiancoding.com/sketch -->
    <title>chiller 2</title>
    <desc>Created with Sketch.</desc>
    <defs>
        <linearGradient x1="50%" y1="6.46622263%" x2="50%" y2="64.5249645%" id="linearGradient-1">
            <stop stop-color="#99ACB9" offset="0%"></stop>
            <stop stop-color="#B3C1CB" offset="27.9376385%"></stop>
            <stop stop-color="#DBE1E6" offset="100%"></stop>
        </linearGradient>
    </defs>
    <g id="Chillers" stroke="none" stroke-width="1" fill="none" fill-rule="evenodd">
        <g id="Desktop-HD-Copy-5" transform="translate(-1023.000000, -96.000000)" stroke="#474747">
            <g id="chiller-2" transform="translate(1023.000000, 96.000000)">
                <g id="Group-10" transform="translate(144.350362, 12.315417)">
                    <path d="M3.74983187,87.5493362 L51.572934,87.5493362 L51.572934,24.2287408 L52.072934,24.2287408 L54.0576514,24.2287408 L54.0576514,21.041352 L18.7132124,1.25827642 L0.973932805,1.25827642 L0.973932805,3.47938876 L3.74983187,5.80504893 L3.74983187,87.5493362 Z" id="Path-47" fill="url(#linearGradient-1)"></path>
                    <polyline id="Path-48" points="32.5107828 87.1342556 32.5107828 24.1012251 51.6799842 24.1012251"></polyline>
                    <path d="M3.83596571,5.56672997 L32.4503166,24.2306636" id="Path-49"></path>
                </g>
                <g id="Group-9" transform="translate(0.000000, 69.981612)">
                    <path d="M1.01934149,0.750595293 L1.01934149,8.62250403 L45.7915521,38.8059093 L196.498665,38.8059093 L196.498665,29.746841 L174.834711,29.746841 L133.673913,0.750595293 L1.01934149,0.750595293 Z" id="Path-40" fill="url(#linearGradient-1)"></path>
                    <polyline id="Path-43" points="1.03214736 1.05032923 45.5122935 30.1484615 177.597806 29.9140489"></polyline>
                </g>
                <path d="M118.895835,35.043462 L119.517867,77.0625349 L164.509246,77.0625349 C168.80993,67.948596 170.142422,59.9039478 168.526826,52.9220913 C166.903482,45.9067547 163.505059,39.9508754 158.325617,35.043462 L118.895835,35.043462 Z" id="Path-44" fill="url(#linearGradient-1)"></path>
                <path d="M150.504377,31.2029703 L150.504377,34.7637027 L152.480303,36.7473986 L157.304998,36.7473986 L157.304998,31.2029703 L150.504377,31.2029703 Z" id="Path-54" fill="url(#linearGradient-1)"></path>
                <g id="Group-12" transform="translate(38.337591, 27.874116)">
                    <path d="M0.875149337,0.727564623 L0.875149337,55.5704502 L84.146227,55.5704502 C89.8083977,48.5955234 91.4925057,38.4811041 89.1663819,25.196535 C86.8385605,11.9022703 83.1997163,3.74627387 78.328624,0.727564623 L0.875149337,0.727564623 Z" id="Path-41" fill="url(#linearGradient-1)"></path>
                    <path d="M20.9626733,0.909191431 C26.708668,8.45366947 30.4627097,15.3546705 32.2247986,21.6121945 C33.9868875,27.8697186 34.3004621,35.9694064 33.1655225,45.911258" id="Path-53"></path>
                    <path d="M33.6842059,0.909191431 C39.4302006,8.45366947 43.1842424,15.3546705 44.9463312,21.6121945 C46.7084201,27.8697186 47.0219947,35.9694064 45.8870551,45.911258" id="Path-53-Copy"></path>
                    <path d="M46.4057385,0.909191431 C52.1517332,8.45366947 55.905775,15.3546705 57.6678638,21.6121945 C59.4299527,27.8697186 59.7435273,35.9694064 58.6085877,45.911258" id="Path-53-Copy-2"></path>
                </g>
                <path d="M16.401879,75.9778698 L16.401879,76.8263534 L47.4058962,97.2001051 L56.6407205,97.2001051 L56.6407205,95.1148562 L52.9032411,95.1148562 L52.9032411,38.8516896 C52.9032411,37.6047045 52.2397844,36.4518992 51.1615855,35.8254337 L20.1153213,17.7866329 C19.8765563,17.6479034 19.5705365,17.7289982 19.4318069,17.9677631 C19.3874788,18.0440555 19.3641292,18.1307197 19.3641292,18.2189552 L19.3641292,78.1560876 L16.401879,75.9778698 Z" id="Path-39" fill="url(#linearGradient-1)"></path>
                <path d="M96.9071855,73.9562899 L96.9071855,83.6275332 L99.6665475,85.6552216 L114.661764,85.6552216 L114.661764,77.1975982 L109.472463,73.9562899 L96.9071855,73.9562899 Z" id="Path-42-Copy-3" fill="url(#linearGradient-1)"></path>
                <path d="M83.9614174,73.9562899 L83.9614174,83.6275332 L86.7207794,85.6552216 L101.715996,85.6552216 L101.715996,77.1975982 L96.5266944,73.9562899 L83.9614174,73.9562899 Z" id="Path-42-Copy-2" fill="url(#linearGradient-1)"></path>
                <path d="M71.0156494,73.9562899 L71.0156494,83.6275332 L73.7750113,85.6552216 L88.7702282,85.6552216 L88.7702282,77.1975982 L83.5809264,73.9562899 L71.0156494,73.9562899 Z" id="Path-42-Copy" fill="url(#linearGradient-1)"></path>
                <path d="M58.0698813,73.9562899 L58.0698813,83.6275332 L60.8292433,85.6552216 L75.8244601,85.6552216 L75.8244601,77.1975982 L70.6351583,73.9562899 L58.0698813,73.9562899 Z" id="Path-42" fill="url(#linearGradient-1)"></path>
                <path d="M124.385552,26.188849 L124.385552,30.4112642 L126.725413,30.4112642 C127.040811,30.4112642 127.355369,30.4437634 127.664104,30.508247 C129.944822,30.9846062 131.473916,33.0769569 131.304853,35.3389858 L135.560148,35.3389858 L135.498468,33.4447608 C135.366754,29.3997901 132.049555,26.188849 128.002441,26.188849 L124.385552,26.188849 Z" id="Path-46" fill="url(#linearGradient-1)"></path>
                <path d="M122.495384,21.7202107 L95.9215818,21.7202107 L95.9215818,29.0110438 C95.9215818,29.3184216 96.0160127,29.6183793 96.1920951,29.870324 L97.804248,32.1770462 C98.0848685,32.5785674 98.5438702,32.817766 99.0337347,32.817766 L124.260555,32.817766 C125.055456,29.8654697 125.331476,27.6551659 125.100003,26.2094511 C124.870874,24.7783699 124.008229,23.2801606 122.495383,21.7202107 Z" id="Path-45" fill="url(#linearGradient-1)"></path>
                <ellipse id="Oval" fill="url(#linearGradient-1)" transform="translate(34.930410, 57.509952) rotate(-5.000000) translate(-34.930410, -57.509952) " cx="34.93041" cy="57.5099524" rx="7.98106396" ry="25.6667726"></ellipse>
                <g id="Group-11" transform="translate(150.004377, 0.000000)">
                    <path d="M0.5,14.1639182 L20.7907771,27.642955 L39.8477704,27.642955 L39.8477704,12.9720546 L20.4926943,0.5 L0.5,0.5 L0.5,14.1639182 Z" id="Path-50" fill="url(#linearGradient-1)"></path>
                    <polyline id="Path-51" points="0.952187234 0.833357269 20.9530493 13.034496 39.5071308 12.6314706"></polyline>
                    <path d="M21.457256,14.2999389 L21.457256,28.4106268" id="Path-52"></path>
                </g>
            </g>
        </g>
    </g>
</svg>