<svg xmlns="http://www.w3.org/2000/svg" viewBox="0 0 192 192"><defs><style>.cls-1{fill:#334056;}.cls-2{fill:none;}</style></defs><g id="trim_area" data-name="trim area"><g id="Filter"><path class="cls-1" d="M188.49,45.17a6.7,6.7,0,0,1-.16,1.5,7.31,7.31,0,0,1-7.15,5.81H10.82a7.31,7.31,0,0,1-7.15-5.81,7.11,7.11,0,0,1,0-3,7.3,7.3,0,0,1,7.15-5.81H181.18a7.3,7.3,0,0,1,7.15,5.81A6.7,6.7,0,0,1,188.49,45.17Z"/><path class="cls-1" d="M159.12,101.09a6.7,6.7,0,0,1-.16,1.5,7.32,7.32,0,0,1-7.16,5.81H40.2A7.32,7.32,0,0,1,33,102.59a7.11,7.11,0,0,1,0-3,7.33,7.33,0,0,1,7.16-5.81H151.8A7.33,7.33,0,0,1,159,99.59,6.7,6.7,0,0,1,159.12,101.09Z"/><path class="cls-1" d="M125.34,157a6.82,6.82,0,0,1-.16,1.5,7.31,7.31,0,0,1-7.15,5.81H74a7.31,7.31,0,0,1-7.15-5.81,7.11,7.11,0,0,1,0-3A7.31,7.31,0,0,1,74,149.71H118a7.31,7.31,0,0,1,7.15,5.81A6.82,6.82,0,0,1,125.34,157Z"/><rect class="cls-2" width="192" height="192"/></g></g></svg>