<?xml version="1.0" encoding="iso-8859-1"?>
<!-- Generator: Adobe Illustrator 19.0.0, SVG Export Plug-In . SVG Version: 6.00 Build 0)  -->
<svg version="1.1" id="Capa_1" xmlns="http://www.w3.org/2000/svg" xmlns:xlink="http://www.w3.org/1999/xlink" x="0px" y="0px"
	 viewBox="0 0 512 512" style="enable-background:new 0 0 512 512;" xml:space="preserve">
<g>
	<g>
		<g>
			<path d="M138.667,170.667c-5.888,0-10.667,4.779-10.667,10.667v32H85.333v-32c0-5.888-4.779-10.667-10.667-10.667
				S64,175.445,64,181.333v85.333c0,5.888,4.779,10.667,10.667,10.667s10.667-4.779,10.667-10.667v-32H128v32
				c0,5.888,4.779,10.667,10.667,10.667s10.667-4.779,10.667-10.667v-85.333C149.333,175.445,144.555,170.667,138.667,170.667z" fill="#605e88"/>
			<path d="M224,170.667h-42.667c-5.888,0-10.667,4.779-10.667,10.667v85.333c0,5.888,4.779,10.667,10.667,10.667H224
				c17.643,0,32-14.357,32-32v-42.667C256,185.024,241.643,170.667,224,170.667z M234.667,245.333
				c0,5.888-4.779,10.667-10.667,10.667h-32v-64h32c5.888,0,10.667,4.779,10.667,10.667V245.333z" fill="#605e88"/>
			<path d="M480,42.667H32c-17.643,0-32,14.357-32,32v298.667c0,17.643,14.357,32,32,32h181.333v22.976l-119.083,19.84
				c-5.803,0.96-9.728,6.464-8.768,12.267c0.875,5.227,5.397,8.917,10.517,8.917c0.576,0,1.152-0.043,1.749-0.149L224.853,448
				h62.272l127.104,21.184c0.597,0.107,1.195,0.149,1.771,0.149c5.141,0,9.664-3.691,10.496-8.917
				c0.981-5.803-2.965-11.307-8.768-12.267l-119.061-19.84v-22.976H480c17.643,0,32-14.357,32-32V74.667
				C512,57.024,497.643,42.667,480,42.667z M277.333,426.667h-42.667v-21.333h42.667V426.667z M490.667,373.333
				c0,5.888-4.779,10.667-10.667,10.667H32c-5.888,0-10.667-4.779-10.667-10.667V74.667C21.333,68.779,26.112,64,32,64h448
				c5.888,0,10.667,4.779,10.667,10.667V373.333z" fill="#605e88"/>
			<path d="M341.333,170.667h-64c-5.888,0-10.667,4.779-10.667,10.667S271.445,192,277.333,192h21.333v74.667
				c0,5.888,4.779,10.667,10.667,10.667S320,272.555,320,266.667V192h21.333c5.888,0,10.667-4.779,10.667-10.667
				S347.221,170.667,341.333,170.667z" fill="#605e88"/>
			<path d="M441.088,171.349c-5.547-2.069-11.669,0.704-13.739,6.229l-22.016,58.709l-22.016-58.709
				c-2.069-5.504-8.213-8.277-13.739-6.229c-5.504,2.069-8.299,8.213-6.229,13.739l32,85.333c1.557,4.16,5.547,6.912,9.984,6.912
				c4.437,0,8.427-2.752,9.984-6.912l32-85.333C449.387,179.563,446.592,173.419,441.088,171.349z" fill="#605e88"/>
		</g>
	</g>
</g>
<g>
</g>
<g>
</g>
<g>
</g>
<g>
</g>
<g>
</g>
<g>
</g>
<g>
</g>
<g>
</g>
<g>
</g>
<g>
</g>
<g>
</g>
<g>
</g>
<g>
</g>
<g>
</g>
<g>
</g>
</svg>
