<?xml version="1.0" encoding="UTF-8"?>
<svg width="730px" height="191px" viewBox="0 0 730 191" version="1.1" xmlns="http://www.w3.org/2000/svg" xmlns:xlink="http://www.w3.org/1999/xlink">
    <title>Group</title>
    <g id="Page-2" stroke="none" stroke-width="1" fill="none" fill-rule="evenodd">
        <g id="Artboard" transform="translate(-3533.000000, -1762.000000)" fill="#D7E0FD" fill-rule="nonzero">
            <g id="Group" transform="translate(3533.000000, 1762.000000)">
                <path d="M728.33,190.66 L1,190.66 C0.45,190.66 0,190.21 0,189.66 C0,189.11 0.45,188.66 1,188.66 L728.33,188.66 C728.88,188.66 729.33,189.11 729.33,189.66 C729.33,190.21 728.88,190.66 728.33,190.66 Z" id="Path"></path>
                <path d="M540.31,64.99 C505.03,64.99 476.32,36.28 476.32,1 C476.32,0.45 476.77,0 477.32,0 C477.87,0 478.32,0.45 478.32,1 C478.32,35.18 506.13,62.99 540.31,62.99 C574.49,62.99 602.3,35.18 602.3,1 C602.3,0.45 602.75,0 603.3,0 C603.85,0 604.3,0.45 604.3,1 C604.3,36.28 575.59,64.99 540.31,64.99 Z" id="Path"></path>
                <path d="M659.24,190.66 L563.04,190.66 C559.36,190.66 556.19,188.55 554.78,185.14 C553.37,181.74 554.11,178 556.72,175.4 L652.92,79.2 C655.52,76.6 659.26,75.85 662.66,77.26 C666.06,78.67 668.18,81.83 668.18,85.52 L668.18,181.72 C668.18,186.65 664.17,190.66 659.24,190.66 Z M659.2,78.56 C657.41,78.56 655.68,79.27 654.34,80.61 L558.14,176.81 C556.12,178.83 555.54,181.73 556.64,184.37 C557.74,187.01 560.19,188.65 563.05,188.65 L659.25,188.65 C663.08,188.65 666.19,185.54 666.19,181.71 L666.19,85.51 C666.19,82.65 664.55,80.19 661.91,79.1 C661.01,78.74 660.1,78.56 659.2,78.56 Z" id="Shape"></path>
                <path d="M123.39,190.66 L93.29,190.66 L84.35,155.84 L131.62,155.84 L123.39,190.66 Z M94.84,188.66 L121.81,188.66 L129.09,157.84 L86.93,157.84 L94.84,188.66 Z" id="Shape"></path>
                <path d="M107.99,157.84 C107.44,157.84 106.99,157.39 106.99,156.84 L106.99,108.97 C106.99,108.42 107.44,107.97 107.99,107.97 C108.54,107.97 108.99,108.42 108.99,108.97 L108.99,156.84 C108.99,157.39 108.54,157.84 107.99,157.84 Z" id="Path"></path>
                <path d="M109.16,143.15 L108.93,143.14 C108.5,143.13 98.38,142.77 93.07,134.02 C90.02,129 91.95,124.67 93.81,120.48 C95.29,117.15 96.69,114 95.73,110.48 C93.09,100.8 92.58,84.49 102.02,79.24 C105.66,77.22 108.78,76.65 111.56,77.49 C115.72,78.76 118.63,83.04 121.71,89.08 C124.99,95.52 123.99,98.49 122.6,102.6 C121.91,104.65 121.12,106.96 120.65,110.27 C119.96,115.09 121.35,118.04 122.69,120.89 C124.04,123.76 125.32,126.48 123.85,130.34 C121.07,137.63 109.87,142.84 109.39,143.05 L109.16,143.15 Z M108.98,79.12 C107.22,79.12 105.24,79.74 102.99,80.99 C94.56,85.68 95.18,100.88 97.66,109.95 C98.81,114.16 97.2,117.79 95.64,121.29 C93.84,125.35 92.28,128.85 94.79,132.98 C99.11,140.1 107.3,141.02 108.76,141.13 C110.31,140.38 119.67,135.63 121.96,129.63 C123.13,126.57 122.13,124.44 120.86,121.75 C119.53,118.92 117.88,115.41 118.65,110 C119.15,106.51 120,104 120.69,101.98 C122.01,98.06 122.81,95.7 119.92,90.01 C117.07,84.43 114.46,80.49 110.97,79.43 C110.34,79.22 109.68,79.12 108.98,79.12 Z" id="Shape"></path>
                <g transform="translate(299.340000, 19.844926)">
                    <path d="M72.69,170.805074 C72.49,170.805074 72.29,170.745074 72.11,170.615074 C71.66,170.295074 71.56,169.665074 71.88,169.215074 C71.96,169.115074 73.75,166.605074 76.15,163.785074 C78.57,160.945074 81.22,158.565074 81.33,158.465074 C81.74,158.095074 82.37,158.135074 82.74,158.545074 C83.11,158.955074 83.07,159.585074 82.66,159.955074 C82.63,159.975074 80,162.345074 77.67,165.085074 C75.33,167.845074 73.53,170.355074 73.51,170.385074 C73.31,170.655074 73,170.805074 72.69,170.805074 Z" id="Path"></path>
                    <path d="M86.59,170.805074 C86.28,170.805074 85.97,170.655074 85.77,170.385074 C84.84,169.065074 81.13,160.655074 78.49,152.615074 C75.87,144.625074 75.36,139.895074 75.34,139.705074 C75.28,139.155074 75.68,138.665074 76.23,138.605074 C76.79,138.545074 77.27,138.945074 77.33,139.495074 C77.33,139.545074 77.85,144.235074 80.39,151.995074 C82.97,159.875074 86.64,168.165074 87.4,169.235074 C87.72,169.685074 87.61,170.315074 87.16,170.625074 C86.99,170.745074 86.79,170.805074 86.59,170.805074 Z" id="Path"></path>
                    <g transform="translate(74.069897, -0.000000)">
                        <g id="Shape">
                            <path d="M22.8501033,35.0050742 C22.1901033,35.0050742 21.5001033,34.6750742 20.5601033,34.1450742 C18.4801033,32.9650742 18.9501033,31.0150742 19.4501033,28.9550742 C19.5301033,28.6050742 19.6301033,28.2350742 19.7101033,27.8350742 C20.0101033,26.4750742 19.8401033,24.7050742 18.7601033,24.0450742 C17.3701033,23.2050742 15.8601033,22.6350742 12.5401033,21.3950742 L11.9801033,21.1850742 C8.23010326,19.7850742 5.50010326,18.4550742 5.38010326,18.4050742 C5.18010326,18.3050742 5.01010326,18.1350742 4.91010326,17.9350742 C4.75010326,17.5950742 1.01010326,9.55507424 3.41010326,4.36507424 C4.31010326,2.43507424 5.91010326,1.14507424 8.17010326,0.535074245 C17.7001033,-2.01492576 27.9801033,5.04507424 31.1701033,11.2350742 C33.2001033,15.1850742 33.1101033,17.7950742 32.7101033,19.2550742 C34.4901033,19.7550742 36.5901033,21.2450742 36.8001033,24.7250742 C37.0701033,29.2550742 35.0901033,31.5950742 34.5101033,32.1850742 C34.3501033,32.4550742 34.0701033,32.6450742 33.7601033,32.6750742 C33.4401033,32.7150742 33.1201033,32.5950742 32.9001033,32.3450742 C32.6701033,32.0850742 32.4401033,31.8950742 32.1901033,31.7450742 C29.1601033,29.9250742 27.1401033,31.4550742 25.4001033,33.3850742 C24.3701033,34.5450742 23.6301033,35.0050742 22.8501033,35.0050742 Z M6.59010326,16.7650742 C7.42010326,17.1550742 9.76010326,18.2250742 12.6901033,19.3150742 L13.2501033,19.5250742 C16.6901033,20.8150742 18.2601033,21.3950742 19.8101033,22.3350742 C21.7501033,23.5050742 22.1501033,26.1550742 21.6801033,28.2650742 C21.5901033,28.6750742 21.4901033,29.0650742 21.4101033,29.4250742 C20.8701033,31.6550742 20.8901033,32.0250742 21.5601033,32.4050742 C22.9201033,33.1750742 22.9201033,33.1750742 23.9401033,32.0450742 C25.0401033,30.8250742 28.4001033,27.1050742 33.2501033,30.0350742 C33.3601033,30.0950742 33.4601033,30.1650742 33.5601033,30.2450742 C34.1301033,29.4350742 34.9901033,27.7050742 34.8301033,24.8450742 C34.6101033,21.0750742 31.4401033,21.0650742 31.3101033,21.0550742 C30.8901033,21.0350742 30.5801033,20.8350742 30.4101033,20.4950742 C30.2401033,20.1550742 30.2801033,19.7550742 30.5101033,19.4550742 C30.5601033,19.3750742 32.0001033,17.1550742 29.4201033,12.1550742 C26.6101033,6.69507424 17.1501033,0.215074245 8.72010326,2.47507424 C7.03010326,2.92507424 5.90010326,3.82507424 5.25010326,5.20507424 C3.46010326,9.03507424 5.95010326,15.2950742 6.59010326,16.7650742 Z"></path>
                            <path d="M16.2101033,47.7050742 C9.98010326,47.7050742 4.98010326,44.8850742 2.31010326,39.7550742 C-1.48989674,32.4650742 -0.609896742,25.0050742 5.01010326,16.9450742 C5.29010326,16.5450742 5.82010326,16.4050742 6.27010326,16.6150742 C6.30010326,16.6250742 9.04010326,17.9550742 12.6901033,19.3250742 L13.2501033,19.5350742 C16.6901033,20.8250742 18.2601033,21.4050742 19.8101033,22.3450742 C21.7501033,23.5150742 22.1501033,26.1650742 21.6801033,28.2750742 C21.5901033,28.6850742 21.4901033,29.0750742 21.4101033,29.4350742 C20.8701033,31.6650742 20.8901033,32.0350742 21.5601033,32.4150742 C22.9201033,33.1850742 22.9201033,33.1850742 23.9401033,32.0550742 C25.0401033,30.8350742 28.4001033,27.1150742 33.2501033,30.0450742 C33.6701033,30.2950742 34.0501033,30.6150742 34.4201033,31.0250742 C34.4201033,31.0250742 34.4201033,31.0250742 34.4201033,31.0250742 C35.5901033,32.3350742 36.0901033,34.2650742 35.8001033,36.3250742 C35.4301033,38.8950742 33.9301033,41.2350742 31.7901033,42.5650742 C30.1501033,43.4250742 28.4301033,43.9150742 27.7601033,44.0950742 C26.9701033,44.8350742 24.1901033,47.0150742 18.4301033,47.5950742 C17.6601033,47.6650742 16.9301033,47.7050742 16.2101033,47.7050742 Z M6.17010326,18.7850742 C1.44010326,25.9150742 0.760103258,32.4750742 4.08010326,38.8350742 C6.70010326,43.8550742 11.7201033,46.2650742 18.2101033,45.6050742 C24.1801033,44.9950742 26.4701033,42.5450742 26.4901033,42.5250742 C26.6301033,42.3750742 26.8101033,42.2650742 27.0101033,42.2150742 C27.0301033,42.2150742 29.0401033,41.7350742 30.7801033,40.8250742 C32.3401033,39.8550742 33.5201033,38.0050742 33.8001033,36.0350742 C34.0101033,34.5650742 33.6901033,33.2250742 32.9101033,32.3550742 C32.6801033,32.0950742 32.4501033,31.9050742 32.2001033,31.7550742 C29.1701033,29.9350742 27.1501033,31.4650742 25.4101033,33.3950742 C23.4901033,35.5250742 22.6101033,35.3050742 20.5601033,34.1550742 C18.4801033,32.9750742 18.9501033,31.0250742 19.4501033,28.9650742 C19.5301033,28.6150742 19.6301033,28.2450742 19.7101033,27.8450742 C20.0101033,26.4850742 19.8401033,24.7150742 18.7601033,24.0550742 C17.3701033,23.2150742 15.8601033,22.6450742 12.5401033,21.4050742 L11.9801033,21.1950742 C9.37010326,20.2150742 7.26010326,19.2750742 6.17010326,18.7850742 Z"></path>
                        </g>
                        <path d="M26.3101033,36.1950742 C26.1001033,36.1950742 25.9001033,36.1350742 25.7201033,36.0050742 C25.2701033,35.6750742 25.1801033,35.0550742 25.5101033,34.6050742 C25.6001033,34.4850742 27.6701033,31.7050742 30.2301033,32.2750742 C32.6001033,32.7950742 33.3501033,34.3150742 33.4301033,34.4950742 C33.6601033,34.9950742 33.4401033,35.5950742 32.9401033,35.8250742 C32.4401033,36.0550742 31.8401033,35.8350742 31.6101033,35.3350742 C31.6001033,35.3250742 31.1801033,34.5450742 29.7901033,34.2350742 C28.7101033,34.0050742 27.4701033,35.3150742 27.1201033,35.7950742 C26.9201033,36.0550742 26.6201033,36.1950742 26.3101033,36.1950742 Z" id="Path"></path>
                        <path d="M28.0801033,43.8150742 C26.7601033,43.8150742 24.5201033,43.1750742 22.4401033,39.5450742 C22.1701033,39.0650742 22.3301033,38.4550742 22.8101033,38.1850742 C23.2901033,37.9150742 23.9001033,38.0750742 24.1701033,38.5550742 C26.3901033,42.4450742 28.4201033,41.7950742 28.5101033,41.7650742 C29.0201033,41.5850742 29.6001033,41.8450742 29.7901033,42.3550742 C29.9801033,42.8650742 29.7501033,43.4250742 29.2401033,43.6250742 C29.2001033,43.6450742 28.7601033,43.8150742 28.0801033,43.8150742 Z" id="Path"></path>
                    </g>
                    <path d="M122.02,129.995074 C121.97,129.995074 121.92,129.995074 121.87,129.985074 C117.6,129.335074 64.55,122.525074 64.01,122.455074 C63.46,122.385074 63.08,121.885074 63.15,121.335074 C63.22,120.785074 63.72,120.395074 64.27,120.475074 C64.77,120.535074 111.97,126.595074 120.97,127.835074 C120.55,118.675074 118.66,85.6650742 112.46,70.7950742 C106.07,55.4750742 95.56,46.7650742 95.45,46.6750742 C95.02,46.3250742 94.96,45.6950742 95.31,45.2650742 C95.66,44.8350742 96.29,44.7750742 96.72,45.1250742 C97.17,45.4850742 107.72,54.2150742 114.31,70.0250742 C120.95,85.9650742 122.74,121.905074 123.030579,128.945074 C123.04,129.245074 122.92,129.535074 122.7,129.735074 C122.5,129.905074 122.27,129.995074 122.02,129.995074 Z" id="Path"></path>
                    <path d="M70.59,40.4550742 C70.16,40.4550742 69.77,40.1850742 69.64,39.7550742 C69.47,39.2250742 69.77,38.6650742 70.29,38.5050742 L75.53,36.8650742 C76.05,36.7050742 76.62,36.9950742 76.78,37.5150742 C76.95,38.0450742 76.65,38.6050742 76.13,38.7650742 L70.89,40.4050742 C70.79,40.4450742 70.69,40.4550742 70.59,40.4550742 Z" id="Path"></path>
                    <path d="M91.58,107.075074 C91.45,107.075074 91.32,107.045074 91.2,106.995074 C90.92,106.875074 90.71,106.645074 90.62,106.355074 C90.61,106.305074 89.2,101.595074 85.74,91.2350742 C82.37,81.1350742 80.05,78.1650742 80.02,78.1350742 C79.85,77.9250742 79.77,77.6450742 79.81,77.3750742 C79.84,77.1050742 79.99,76.8650742 80.2,76.6950742 L92.49,67.5650742 C92.93,67.2350742 93.56,67.3250742 93.89,67.7750742 C94.22,68.2150742 94.13,68.8450742 93.68,69.1750742 L82.15,77.7350742 C83.09,79.2450742 85.07,82.9550742 87.62,90.5950742 C90.11,98.0350742 91.54,102.585074 92.15,104.585074 C95.23,102.795074 104.15,97.2850742 108.39,91.3250742 C113.74,83.7950742 113.84,78.8950742 113.41,73.2550742 C113.37,72.7050742 113.78,72.2250742 114.33,72.1850742 C114.88,72.1450742 115.36,72.5550742 115.4,73.1050742 C115.84,78.9350742 115.74,84.4250742 110.02,92.4850742 C104.61,100.105074 92.54,106.675074 92.03,106.955074 C91.9,107.035074 91.74,107.075074 91.58,107.075074 Z" id="Path"></path>
                    <path d="M12.74,117.825074 C3.13,117.825074 0.91,115.315074 0.78,113.155074 C0.73,112.305074 0.98,111.665074 1.36,111.185074 C0.61,110.575074 0,109.575074 0,108.015074 C0,106.825074 0.35,105.865074 1.05,105.165074 C1.07,105.145074 1.09,105.125074 1.11,105.105074 C0.34,104.375074 0.01,103.355074 0.07,102.385074 C0.16,100.705074 1.33,98.9750742 3.14,98.9750742 C3.14,98.9750742 3.15,98.9750742 3.15,98.9750742 C3.97,98.9750742 4.76,99.0350742 5.53,99.0950742 C6.98,99.2050742 8.34,99.3150742 9.96,99.0650742 C10.36,99.0050742 10.82,98.9450742 11.31,98.8750742 C12.82,98.6750742 16.35,98.1950742 16.77,97.5150742 C16.72,95.6850742 15.63,95.1050742 13.19,94.5350742 C11.16,94.0650742 9.14,93.1950742 9.58,90.3950742 C9.65,89.9850742 9.89,89.4050742 10.69,88.9850742 C12.66,87.9550742 17.56,88.3550742 20.59,89.7950742 C23.92,91.3850742 28.42,93.5650742 28.42,93.5650742 C28.46,93.5850742 28.49,93.6050742 28.53,93.6250742 C28.58,93.6550742 34.26,97.1450742 44.7,93.6150742 C56.25,89.7150742 69.47,82.9450742 74.07,80.2850742 C79.14,77.3450742 80.24,76.6550742 80.25,76.6450742 C80.48,76.4950742 80.77,76.4550742 81.03,76.5250742 C81.3,76.5950742 81.52,76.7650742 81.66,77.0150742 C81.69,77.0750742 84.93,82.9850742 87.47,89.9250742 C90,96.8450742 91.82,104.035074 91.83,104.105074 C91.95,104.585074 91.7,105.085074 91.24,105.275074 C91.11,105.325074 78.39,110.465074 66.54,111.995074 C62.12,112.565074 47.05,114.415074 37.45,114.415074 C37.37,114.415074 37.29,114.415074 37.21,114.415074 L37.21,114.415074 C33.88,114.445074 30.62,114.825074 27.54,115.665074 C24.24,116.565074 19.29,117.665074 14.38,117.805074 C13.82,117.815074 13.27,117.825074 12.74,117.825074 Z M3.58,106.115074 C3.11,106.125074 1.99,106.325074 1.99,108.005074 C1.99,109.735074 3.18,109.975074 3.55,110.005074 C4.05,110.045074 4.44,110.455074 4.47,110.955074 C4.49,111.455074 4.15,111.895074 3.66,111.985074 C3.39,112.045074 2.74,112.265074 2.78,113.025074 C2.87,114.555074 6.49,116.005074 14.34,115.795074 C19.05,115.665074 23.84,114.595074 27.03,113.725074 C30.28,112.835074 33.73,112.395074 37.24,112.405074 C46.7,112.455074 61.88,110.575074 66.3,110.005074 C76.18,108.735074 86.73,104.875074 89.69,103.735074 C89.14,101.645074 87.6,96.0350742 85.61,90.6050742 C83.71,85.4050742 81.41,80.7950742 80.42,78.8950742 C79.56,79.4150742 77.96,80.3550742 75.1,82.0150742 C70.45,84.7150742 57.06,91.5650742 45.37,95.5150742 C34.4,99.2250742 28.24,95.7750742 27.53,95.3450742 C27.04,95.1050742 22.89,93.0950742 19.76,91.6050742 C16.79,90.1850742 12.31,90.1650742 11.56,90.7950742 C11.45,91.5350742 11.44,92.0750742 13.66,92.5850742 C15.55,93.0250742 18.71,93.7650742 18.76,97.5750742 C18.79,99.8850742 15.13,100.375074 11.58,100.855074 C11.1,100.915074 10.66,100.975074 10.27,101.035074 C8.42,101.325074 6.87,101.205074 5.38,101.085074 C4.62,101.025074 3.9,100.975074 3.15,100.965074 C3.15,100.965074 3.15,100.965074 3.15,100.965074 C2.63,100.965074 2.12,101.685074 2.07,102.475074 C2.04,103.015074 2.21,103.955074 3.69,104.105074 C4.22,104.155074 4.62,104.625074 4.59,105.155074 C4.56,105.705074 4.12,106.115074 3.58,106.115074 C3.59,106.115074 3.58,106.115074 3.58,106.115074 Z" id="Shape"></path>
                    <path d="M10.71,106.975074 C8.36,106.975074 5.68,106.765074 3.31,106.075074 C2.78,105.925074 2.48,105.365074 2.63,104.835074 C2.79,104.305074 3.34,104.005074 3.87,104.155074 C9.12,105.685074 16.42,104.575074 16.5,104.565074 C17.04,104.475074 17.56,104.855074 17.64,105.395074 C17.73,105.945074 17.35,106.455074 16.81,106.535074 C16.62,106.575074 13.99,106.975074 10.71,106.975074 Z" id="Path"></path>
                    <path d="M11.58,113.565074 C11.07,113.565074 10.53,113.545074 9.96,113.505074 C6.58,113.255074 3.26,111.995074 3.12,111.945074 C2.6,111.745074 2.35,111.165074 2.54,110.655074 C2.74,110.135074 3.31,109.885074 3.83,110.075074 C3.86,110.085074 7.02,111.285074 10.1,111.505074 C13.14,111.735074 15.29,111.175074 15.31,111.175074 C15.84,111.035074 16.39,111.355074 16.53,111.885074 C16.67,112.415074 16.35,112.965074 15.82,113.105074 C15.75,113.135074 14.09,113.565074 11.58,113.565074 Z" id="Path"></path>
                    <path d="M5.3,101.005074 C5.26,101.005074 5.22,101.005074 5.17,100.995074 C4.62,100.925074 4.23,100.425074 4.3,99.8750742 L7.35,75.8550742 C7.42,75.3250742 7.89,74.9450742 8.42,74.9850742 L27.98,76.4650742 C28.53,76.5050742 28.94,76.9850742 28.9,77.5350742 C28.86,78.0850742 28.38,78.5050742 27.83,78.4550742 L9.22,77.0450742 L6.29,100.125074 C6.22,100.635074 5.79,101.005074 5.3,101.005074 Z" id="Path"></path>
                    <path d="M69.66,84.6150742 C69.61,84.6150742 69.57,84.6150742 69.52,84.6050742 C68.97,84.5250742 68.59,84.0250742 68.67,83.4750742 L68.93,81.5850742 L50.78,80.2050742 C50.23,80.1650742 49.82,79.6850742 49.86,79.1350742 C49.9,78.5850742 50.38,78.1750742 50.93,78.2150742 L70.14,79.6750742 C70.42,79.6950742 70.67,79.8250742 70.84,80.0450742 C71.01,80.2650742 71.09,80.5350742 71.05,80.8150742 L70.64,83.7650742 C70.58,84.2450742 70.15,84.6150742 69.66,84.6150742 Z" id="Path"></path>
                    <path d="M63.67,126.185074 C63.65,126.185074 63.62,126.185074 63.6,126.185074 L2.67,121.675074 C2.4,121.655074 2.14,121.525074 1.97,121.315074 C1.8,121.105074 1.72,120.825074 1.75,120.555074 L2.42,115.135074 C2.49,114.585074 2.99,114.205074 3.54,114.265074 C4.09,114.335074 4.48,114.835074 4.41,115.385074 L3.87,119.765074 L62.82,124.125074 L64.7,111.075074 C64.78,110.525074 65.29,110.155074 65.83,110.225074 C66.38,110.305074 66.76,110.815074 66.68,111.355074 L64.67,125.335074 C64.59,125.815074 64.16,126.185074 63.67,126.185074 Z" id="Path"></path>
                    <path d="M41.52,81.6650742 C36.58,81.6650742 31.84,80.5550742 27.45,78.3550742 C16.69,72.9750742 10,62.1750742 10,50.1450742 C10,49.1650742 10.05,48.1650742 10.14,47.1950742 C10.19,46.6450742 10.68,46.2350742 11.23,46.2950742 C11.78,46.3450742 12.18,46.8350742 12.13,47.3850742 C12.05,48.3050742 12,49.2350742 12,50.1550742 C12,61.4150742 18.26,71.5350742 28.34,76.5750742 C32.45,78.6250742 36.88,79.6750742 41.51,79.6750742 C44.6,79.6750742 47.64,79.2050742 50.55,78.2650742 C62.8,74.3350742 71.02,63.0350742 71.02,50.1650742 C71.02,33.8950742 57.78,20.6550742 41.51,20.6550742 C36.32,20.6550742 31.21,22.0250742 26.74,24.6150742 C26.26,24.8950742 25.65,24.7250742 25.37,24.2550742 C25.09,23.7750742 25.26,23.1650742 25.73,22.8850742 C30.5,20.1150742 35.96,18.6550742 41.5,18.6550742 C58.88,18.6550742 73.01,32.7950742 73.01,50.1650742 C73.01,63.9150742 64.22,75.9650742 51.15,80.1750742 C48.06,81.1550742 44.81,81.6650742 41.52,81.6650742 Z" id="Path"></path>
                    <path d="M13.05,48.7150742 C12.34,48.7150742 11.62,48.5450742 10.89,48.2250742 C8.93,47.3450742 6.13,44.8050742 4.62,41.3350742 C2.22,35.8250742 2.87,32.8450742 5.01,28.9450742 C7.66,24.1350742 10.7,19.4950742 14.93,18.0750742 C19.57,16.5250742 23.2,18.6550742 24.61,20.1450742 C25.22,20.7950742 26.51,22.4450742 27.04,23.1250742 C28.67,25.2350742 30.65,27.8750742 30.81,28.4850742 C30.96,29.0650742 30.73,29.7450742 30.2,30.3050742 C29.8,30.7250742 28.67,31.6350742 26.65,31.2150742 C24.91,30.8550742 23.33,29.5050742 22.28,28.5550742 C22.52,29.2150742 22.88,29.9750742 23.4,30.7150742 C23.59,30.9850742 23.78,31.2450742 23.97,31.5050742 C25.5,33.6150742 27.24,36.0150742 25.36,38.5150742 C23.96,40.3850742 21.52,40.7450742 18.84,39.4950742 C18.34,39.2650742 18.12,38.6650742 18.36,38.1650742 C18.59,37.6650742 19.19,37.4450742 19.69,37.6850742 C20.74,38.1750742 22.66,38.7850742 23.76,37.3150742 C24.66,36.1150742 24.02,34.9750742 22.35,32.6750742 C22.15,32.4050742 21.96,32.1350742 21.76,31.8550742 C19.96,29.2850742 19.79,26.6650742 19.78,26.5550742 C19.75,26.0150742 20.15,25.5550742 20.69,25.5050742 C20.84,25.4850742 21.63,25.4550742 22.6,26.1650742 C22.78,26.2950742 23.04,26.5350742 23.36,26.8250742 C24.23,27.6250742 25.7,28.9750742 27.06,29.2550742 C28.08,29.4650742 28.6,29.1050742 28.79,28.8750742 C28.37,28.2050742 27.05,26.3950742 25.47,24.3450742 C24.41,22.9750742 23.55,21.9150742 23.17,21.5150742 C22.08,20.3650742 19.26,18.7350742 15.58,19.9650742 C11.5,21.3250742 8.31,27.1150742 6.77,29.8950742 C4.86,33.3550742 4.36,35.7150742 6.46,40.5150742 C7.85,43.7050742 10.37,45.7750742 11.72,46.3850742 C12.51,46.7350742 13.26,46.7950742 13.9,46.5450742 C15.59,45.8850742 15.69,44.0650742 15.69,43.9850742 C15.71,43.4350742 16.19,43.0350742 16.72,43.0250742 C17.27,43.0450742 17.7,43.4950742 17.68,44.0450742 C17.68,44.1750742 17.56,47.2650742 14.61,48.4050742 C14.11,48.6150742 13.59,48.7150742 13.05,48.7150742 Z" id="Path"></path>
                    <path d="M17.28,44.7650742 C15.76,44.7650742 14.45,43.9850742 14.36,43.9350742 C13.89,43.6450742 13.74,43.0350742 14.02,42.5650742 C14.31,42.0950742 14.92,41.9450742 15.39,42.2250742 C15.41,42.2350742 17.3,43.3450742 18.41,42.3650742 C19.75,41.1950742 19.89,39.1150742 19.89,39.0950742 C19.92,38.5450742 20.39,38.1250742 20.94,38.1450742 C21.49,38.1750742 21.92,38.6450742 21.89,39.1950742 C21.88,39.3150742 21.72,42.1250742 19.73,43.8750742 C18.97,44.5450742 18.1,44.7650742 17.28,44.7650742 Z" id="Path"></path>
                    <path d="M16.96,38.0450742 C16.71,38.0450742 16.45,37.9450742 16.26,37.7550742 C16.11,37.6050742 12.57,34.0850742 11.32,30.7550742 C11.13,30.2350742 11.39,29.6650742 11.91,29.4650742 C12.43,29.2750742 13,29.5350742 13.2,30.0550742 C14.29,32.9650742 17.63,36.2950742 17.67,36.3250742 C18.06,36.7150742 18.07,37.3450742 17.68,37.7350742 C17.48,37.9450742 17.22,38.0450742 16.96,38.0450742 Z" id="Path"></path>
                    <path d="M12.48,42.5750742 C12.23,42.5750742 11.97,42.4750742 11.78,42.2850742 C11.63,42.1350742 8.09,38.6150742 6.84,35.2850742 C6.65,34.7650742 6.91,34.1950742 7.43,33.9950742 C7.95,33.8050742 8.52,34.0650742 8.72,34.5850742 C9.81,37.4950742 13.15,40.8250742 13.19,40.8550742 C13.58,41.2450742 13.59,41.8750742 13.2,42.2650742 C13,42.4750742 12.74,42.5750742 12.48,42.5750742 Z" id="Path"></path>
                    <path d="M27.15,171.125074 C27,171.125074 26.85,171.095074 26.71,171.025074 C26.21,170.785074 26.01,170.185074 26.25,169.685074 C26.31,169.555074 32.78,156.495074 40.73,145.265074 C48.66,134.075074 56.59,124.195074 56.67,124.095074 C57.02,123.665074 57.65,123.595074 58.08,123.945074 C58.51,124.295074 58.58,124.925074 58.23,125.355074 C58.15,125.455074 50.25,135.285074 42.36,146.425074 C34.5,157.525074 28.1,170.445074 28.04,170.575074 C27.87,170.915074 27.52,171.125074 27.15,171.125074 Z" id="Path"></path>
                    <path d="M129.65,171.025074 C129.25,171.025074 128.88,170.785074 128.72,170.405074 C128.69,170.325074 125.28,161.925074 122.11,152.025074 C118.9,142.025074 118.58,129.215074 118.56,128.675074 C118.55,128.125074 118.98,127.665074 119.54,127.655074 C120.07,127.625074 120.55,128.075074 120.56,128.635074 C120.56,128.765074 120.89,141.705074 124.01,151.425074 C127.16,161.245074 130.54,169.575074 130.57,169.655074 C130.78,170.165074 130.53,170.755074 130.02,170.955074 C129.9,171.005074 129.77,171.025074 129.65,171.025074 Z" id="Path"></path>
                </g>
            </g>
        </g>
    </g>
</svg>