<svg xmlns="http://www.w3.org/2000/svg" width="101" height="82" viewBox="0 0 101 82">
    <g fill="none" fill-rule="evenodd" transform="translate(0 -1)">
        <path fill="#EDEDF9" d="M70.727 41.011L55.209 53.825c-2.432 2.009-5.932 2.062-8.424.13-21.93-17.008-32.895-26.11-32.895-27.31 0-1.273.577-2.338 1.73-3.193l32.54 25.943c1.68 1.34 4.075 1.303 5.712-.09l12.411-10.55 19.36-16.457"/>
        <path fill="#BCBCE2" d="M87.757 37.876l-.33 25.68-26.434-28.893.73-.067c3.36 4.404 8.664 7.247 14.63 7.247 4.303 0 7.927-1.483 11.074-3.967"/>
        <path fill="#7176C4" fill-rule="nonzero" d="M99.297 72.846c.62 0 1.123.503 1.123 1.124 0 .576-.433 1.05-.992 1.116l-.131.007H2.809c-.62 0-1.123-.503-1.123-1.123 0-.577.433-1.051.992-1.116l.131-.008h96.488zM75.897 80.3c.62 0 1.123.504 1.123 1.124 0 .577-.434 1.052-.992 1.117l-.131.007H63.694c-.62 0-1.123-.503-1.123-1.124 0-.576.434-1.05.992-1.116l.131-.007h12.203zM53.46 80.3c.62 0 1.123.504 1.123 1.124 0 .577-.434 1.052-.993 1.117l-.13.007H26.208c-.62 0-1.124-.503-1.124-1.124 0-.576.434-1.05.993-1.116l.13-.007H53.46z"/>
        <path fill="#7176C4" fill-rule="nonzero" d="M82.022 21.348c3.103 0 5.618 2.516 5.618 5.618v48.127H13.483V26.966c0-3.102 2.515-5.618 5.618-5.618h62.921zm0 2.248h-62.92c-1.796 0-3.263 1.403-3.366 3.172l-.006.198v45.88h69.663v-45.88c0-1.795-1.403-3.262-3.172-3.365l-.199-.005z"/>
        <path fill="#7176C4" fill-rule="nonzero" d="M84.916 21.442l1.455 1.712L54.6 50.16c-1.977 1.68-4.835 1.782-6.92.28l-.22-.167L14.92 24.33l1.4-1.757 32.54 25.944c1.203.959 2.894.977 4.114.068l.17-.136 31.772-27.007z"/>
        <circle cx="29.017" cy="8.828" r="1.674" fill="#DBDBF3"/>
        <path fill="#DBDBF3" d="M94.746 24.5c0 9.58-7.765 17.346-17.346 17.346-9.58 0-17.346-7.767-17.346-17.346 0-9.58 7.766-17.346 17.346-17.346S94.746 14.92 94.746 24.5"/>
        <path fill="#BCBCE2" d="M94.251 27.708c-1.38 5.82-5.528 10.56-10.966 12.775L71.307 28.506l11.877-11.877L94.25 27.71z"/>
        <path fill="#FFF" d="M82.392 15.918L73.828 24.482 70.313 20.967 67.06 24.22 73.828 30.985 77.078 27.735 85.643 19.171z"/>
        <path fill="#DBDBF3" d="M4.634 41.644c0 1.28-1.037 2.317-2.317 2.317C1.037 43.96 0 42.924 0 41.644c0-1.28 1.037-2.318 2.317-2.318 1.28 0 2.317 1.038 2.317 2.318"/>
        <path fill="#7176C4" fill-rule="nonzero" d="M76.353 3.933c-10.778 0-19.517 8.739-19.517 19.517 0 10.777 8.739 19.516 19.517 19.516 2.55 0 5.045-.495 7.358-1.443 5.814-2.368 10.178-7.426 11.634-13.555.349-1.47.524-2.973.524-4.518 0-10.778-8.739-19.517-19.516-19.517zm0 2.247c9.536 0 17.27 7.733 17.27 17.27 0 1.37-.156 2.7-.465 3.998-1.287 5.421-5.15 9.899-10.297 11.995-2.046.838-4.25 1.276-6.508 1.276-9.537 0-17.27-7.733-17.27-17.27 0-9.536 7.733-17.27 17.27-17.27z"/>
        <path fill="#BCBCE2" d="M99.001 45.516L97.182 43.696 94.998 45.88 92.814 43.696 90.995 45.516 93.179 47.699 90.995 49.883 92.814 51.702 94.998 49.519 97.182 51.702 99.001 49.883 96.818 47.699z"/>
        <path fill="#DBDBF3" d="M56.627 3.579L55.172 2.123 53.425 3.87 51.678 2.123 50.223 3.579 51.969 5.325 50.223 7.073 51.678 8.528 53.425 6.781 55.172 8.528 56.627 7.073 54.881 5.325z" transform="rotate(-45 53.425 5.326)"/>
    </g>
</svg>
