<?xml version="1.0" encoding="UTF-8"?>
<svg width="52px" height="52px" viewBox="0 0 52 52" version="1.1" xmlns="http://www.w3.org/2000/svg" xmlns:xlink="http://www.w3.org/1999/xlink">
    <!-- Generator: Sketch 52.3 (67297) - http://www.bohemiancoding.com/sketch -->
    <title>error</title>
    <desc>Created with Sketch.</desc>
    <g id="Page-1" stroke="none" stroke-width="1" fill="none" fill-rule="evenodd">
        <g id="Artboard" transform="translate(-723.000000, -283.000000)" fill="#D9202F">
            <g id="error" transform="translate(723.000000, 283.000000)">
                <path d="M26,0 C11.664,0 0,11.663 0,26 C0,40.337 11.664,52 26,52 C40.336,52 52,40.337 52,26 C52,11.663 40.336,0 26,0 Z M26,50 C12.767,50 2,39.233 2,26 C2,12.767 12.767,2 26,2 C39.233,2 50,12.767 50,26 C50,39.233 39.233,50 26,50 Z" id="Shape" fill-rule="nonzero"></path>
                <path d="M35.707,16.293 C35.316,15.902 34.684,15.902 34.293,16.293 L26,24.586 L17.707,16.293 C17.316,15.902 16.684,15.902 16.293,16.293 C15.902,16.684 15.902,17.316 16.293,17.707 L24.586,26 L16.293,34.293 C15.902,34.684 15.902,35.316 16.293,35.707 C16.488,35.902 16.744,36 17,36 C17.256,36 17.512,35.902 17.707,35.707 L26,27.414 L34.293,35.707 C34.488,35.902 34.744,36 35,36 C35.256,36 35.512,35.902 35.707,35.707 C36.098,35.316 36.098,34.684 35.707,34.293 L27.414,26 L35.707,17.707 C36.098,17.316 36.098,16.684 35.707,16.293 Z" id="Path"></path>
            </g>
        </g>
    </g>
</svg>