<svg viewBox="0 0 512 512" xmlns="http://www.w3.org/2000/svg">
  <path d="M457.718 0c29.765 0 53.895 24.13 53.895 53.895v403.69c0 29.764-24.13 53.894-53.895 53.894H53.895C24.129 511.479 0 487.349 0 457.584V53.894C0 24.13 24.13 0 53.895 0h403.823zm.445 26.947H53.895c-14.734 0-26.706 11.825-26.948 26.502v404.135c0 14.734 11.825 26.706 26.502 26.947h404.269c14.734 0 26.706-11.824 26.947-26.501V53.895c0-14.734-11.825-26.706-26.502-26.948zM224.31 388c7.441 0 13.473 6.032 13.473 13.474 0 7.338-5.866 13.306-13.164 13.47l-.31.003H108c-7.441 0-13.474-6.032-13.474-13.473 0-7.338 5.866-13.306 13.165-13.47L108 388h116.31zm90.203-128c7.441 0 13.473 6.032 13.473 13.474 0 7.338-5.866 13.306-13.164 13.47l-.31.003H108.639c-7.441 0-13.473-6.032-13.473-13.473 0-7.338 5.866-13.306 13.164-13.47l.31-.004h205.874zm85.977-128c7.441 0 13.474 6.032 13.474 13.474 0 7.338-5.866 13.306-13.165 13.47l-.309.003H108.638c-7.441 0-13.473-6.032-13.473-13.473 0-7.338 5.866-13.306 13.164-13.47l.31-.004H400.49z" fill-rule="nonzero"/>
</svg>
