<?xml version="1.0" encoding="UTF-8"?>
<svg width="512px" height="512px" viewBox="0 0 512 512" version="1.1" xmlns="http://www.w3.org/2000/svg" xmlns:xlink="http://www.w3.org/1999/xlink">
    <title>Artboard Copy 23</title>
    <g id="Artboard-Copy-23" stroke="none" stroke-width="1" fill="none" fill-rule="evenodd">
        <g id="Icon-24px">
            <polygon id="Shape" points="0 0 512 0 512 512 0 512"></polygon>
            <path d="M362.666667,235 L149.333333,235 L149.333333,277.666667 L362.666667,277.666667 L362.666667,235 L362.666667,235 Z M405.333333,85.6666667 L384,85.6666667 L384,43 L341.333333,43 L341.333333,85.6666667 L170.666667,85.6666667 L170.666667,43 L128,43 L128,85.6666667 L106.666667,85.6666667 C82.9866667,85.6666667 64.2133333,104.866667 64.2133333,128.333333 L64,427 C64,450.466667 82.9866667,469.666667 106.666667,469.666667 L405.333333,469.666667 C428.8,469.666667 448,450.466667 448,427 L448,128.333333 C448,104.866667 428.8,85.6666667 405.333333,85.6666667 L405.333333,85.6666667 Z M405.333333,427 L106.666667,427 L106.666667,192.333333 L405.333333,192.333333 L405.333333,427 L405.333333,427 Z M298.666667,320.333333 L149.333333,320.333333 L149.333333,363 L298.666667,363 L298.666667,320.333333 L298.666667,320.333333 Z" id="Shape" fill="#4f4f4f"></path>
        </g>
    </g>
</svg>
