<?xml version="1.0" encoding="UTF-8"?>
<svg width="611px" height="552px" viewBox="0 0 611 552" version="1.1" xmlns="http://www.w3.org/2000/svg" xmlns:xlink="http://www.w3.org/1999/xlink">
    <title>Group</title>
    <g id="Page-1" stroke="none" stroke-width="1" fill="none" fill-rule="evenodd">
        <g id="Group" transform="translate(0.018772, 0.000000)" fill="#000000" fill-rule="nonzero">
            <path d="M609.238086,286.103295 C604.191186,243.529295 582.258086,204.763295 548.367086,178.513295 C514.472086,152.259295 471.457086,140.708295 428.977086,146.462295 C397.645086,58.9662949 314.907086,0.432294855 221.967086,0 C129.033086,-0.419585145 45.7670865,57.3612949 13.6370865,144.572295 C-18.4959135,231.775295 7.37928648,329.772295 78.3750865,389.742295 C83.2109865,393.832095 89.8630865,395.031395 95.8240865,392.886795 C101.784986,390.742295 106.148086,385.582095 107.273086,379.347795 C108.394186,373.113395 106.108986,366.753795 101.273086,362.663795 C40.9760865,311.667795 19.5890865,228.083795 47.9840865,154.393795 C76.3790865,80.7057949 148.324086,33.0837949 227.254086,35.7337949 C306.180086,38.3899949 374.764086,90.7337949 398.144086,166.163795 C401.835486,178.233795 414.152086,185.472795 426.496086,182.819795 C491.066086,169.999795 554.446086,209.671795 571.146086,273.346795 C587.841086,337.022795 552.068086,402.686795 489.517086,423.196795 C481.173286,425.876495 476.044086,434.251795 477.443086,442.899795 C478.845386,451.552095 486.353286,457.876795 495.115086,457.791661 C496.997886,457.791661 498.868986,457.486105 500.646286,456.868915 C572.572286,432.657915 617.816286,361.505915 609.246286,286.098915 L609.238086,286.103295 Z" id="Path"></path>
            <path d="M386.728086,388.883295 L263.528086,388.883295 L263.528086,358.688295 C263.906996,348.196295 267.606186,338.094295 274.090086,329.836295 C280.890886,322.512095 290.098086,317.883295 300.031086,316.793295 C309.226386,316.039385 318.343086,318.941695 325.410086,324.875295 C333.503886,331.433895 339.066086,340.605295 341.144086,350.816295 C343.104986,360.429595 352.480086,366.632295 362.093086,364.675295 C371.702486,362.718295 377.909086,353.339295 375.952086,343.730295 C372.112286,324.957295 361.706086,308.168295 346.604086,296.375295 C331.624086,284.187295 312.131086,279.023295 293.084086,282.199295 C274.541086,284.804795 257.643086,294.261295 245.732086,308.711295 C234.611086,323.082295 228.423086,340.660295 228.080086,358.828295 L228.080086,389.023295 L223.259786,389.023295 C212.548786,388.910015 202.239786,393.113095 194.661786,400.691295 C187.087586,408.265495 182.880786,418.574295 182.991557,429.289295 L182.991557,510.879295 C182.880506,521.590295 187.087586,531.899295 194.661786,539.477295 C202.239886,547.051495 212.548786,551.258295 223.259786,551.147525 L386.719786,551.147525 C397.430786,551.258575 407.739786,547.051495 415.317786,539.477295 C422.891986,531.899195 427.098786,521.590295 426.981786,510.879295 L426.981786,430.848295 C428.446586,421.496695 425.868486,411.961295 419.895886,404.621295 C411.786486,394.625195 399.586886,388.840295 386.719886,388.883295 L386.728086,388.883295 Z M391.548386,429.149295 L391.548386,510.879295 C391.610886,512.176195 391.122606,513.437895 390.204586,514.355895 C389.286616,515.273865 388.024886,515.762095 386.727986,515.699695 L223.267986,515.699695 C221.971086,515.762195 220.709386,515.273915 219.791386,514.355895 C218.877326,513.437925 218.389086,512.176195 218.447586,510.879295 L218.447586,429.149295 C218.365555,427.844595 218.846026,426.571195 219.767886,425.645395 C220.689756,424.723515 221.967086,424.243095 223.267886,424.328995 L386.727886,424.328995 C388.606786,424.239151 390.442686,424.903215 391.829486,426.168795 C391.661516,427.153175 391.567766,428.149295 391.548236,429.149295 L391.548386,429.149295 Z" id="Shape"></path>
        </g>
    </g>
</svg>