<?xml version="1.0" encoding="UTF-8"?>
<svg width="50px" height="50px" viewBox="0 0 50 50" version="1.1" xmlns="http://www.w3.org/2000/svg" xmlns:xlink="http://www.w3.org/1999/xlink">
    <!-- Generator: Sketch 63.1 (92452) - https://sketch.com -->
    <title>chatbot_icon</title>
    <desc>Created with Sketch.</desc>
    <g id="chatbot_icon" stroke="none" stroke-width="1" fill="none" fill-rule="evenodd">
        <g id="Group" transform="translate(1.000000, 2.000000)">
            <path d="M3,45.8451434 L3,29.7920378 C3,20.5644851 10.4804095,13.0840756 19.7079622,13.0840756 L30.534978,13.0840756 C38.9877083,13.0840756 45.84,19.9363673 45.84,28.3890976 C45.84,36.8418278 38.9877083,43.6941195 30.534978,43.6941195 L14.8446556,43.6941195 C12.1237423,43.6941195 9.42369573,44.1688861 6.86598919,45.0970598 L3.61557674,46.2766115 C3.37728348,46.3630865 3.11400684,46.2400134 3.02753189,46.0017202 C3.00931702,45.9515267 3,45.8985398 3,45.8451434 Z" id="Path" fill="#FFFFFF"></path>
            <path d="M45,25.5 L46.1646285,25.5 C47.4072692,25.5 48.4146285,26.5073593 48.4146285,27.75 C48.4146285,28.9926407 47.4072692,30 46.1646285,30 L45,30 L45,30 L45,25.5 Z" id="Rectangle" fill="#FFFFFF"></path>
            <path d="M2.40107235,25.5 L3.6,25.5 L3.6,25.5 L3.6,30 L2.40107235,30 C1.15843166,30 0.151072346,28.9926407 0.151072346,27.75 C0.151072346,26.5073593 1.15843166,25.5 2.40107235,25.5 Z" id="Rectangle-Copy-2" fill="#FFFFFF"></path>
            <rect id="Rectangle" fill="#FF3184" x="13.71" y="25.066166" width="7.65" height="7.65"></rect>
            <polygon id="Rectangle-Copy" fill="#39B3C2" points="27.48 25.066166 35.13 25.066166 35.13 32.716166 27.48 32.716166"></polygon>
            <polygon id="Path-2-Copy" fill="#FFFFFF" fill-rule="nonzero" points="25.5675 3.19736689 25.5675 15.5829899 23.2725 15.5829899 23.2725 3.19736689"></polygon>
            <path d="M24.4531099,7.65 C26.5655991,7.65 28.2781099,5.93748917 28.2781099,3.825 C28.2781099,1.71251083 26.5655991,0 24.4531099,0 C22.3406207,0 20.6281099,1.71251083 20.6281099,3.825 C20.6281099,5.93748917 22.3406207,7.65 24.4531099,7.65 Z" id="Oval" fill="#FFFFFF"></path>
        </g>
    </g>
</svg>