<?xml version="1.0" encoding="UTF-8"?>
<svg width="14px" height="15px" viewBox="0 0 14 15" version="1.1" xmlns="http://www.w3.org/2000/svg" xmlns:xlink="http://www.w3.org/1999/xlink">
    <!-- Generator: Sketch 52.6 (67491) - http://www.bohemiancoding.com/sketch -->
    <title>text-button</title>
    <desc>Created with Sketch.</desc>
    <g id="Page-1" stroke="none" stroke-width="1" fill="none" fill-rule="evenodd">
        <g id="Form_Builder_System_Fields1.0" transform="translate(-95.000000, -199.000000)" fill="#324056" fill-rule="nonzero">
            <g id="text-button" transform="translate(95.000000, 199.000000)">
                <path d="M13.3641093,0 L0.645530055,0 C0.328579235,0 0.0717595628,0.256896175 0.0717595628,0.573770492 L0.0717595628,4.1104918 C0.0717595628,4.42736612 0.328579235,4.6842623 0.645530055,4.6842623 C0.962480874,4.6842623 1.21930055,4.42736612 1.21930055,4.1104918 L1.21930055,1.14754098 L6.43104918,1.14754098 L6.43104918,13.3211913 L4.56629508,13.3211913 C4.24934426,13.3211913 3.99252459,13.5780874 3.99252459,13.8949617 C3.99252459,14.2118361 4.24934426,14.4687322 4.56629508,14.4687322 L9.44334426,14.4687322 C9.76029508,14.4687322 10.0171148,14.2118361 10.0171148,13.8949617 C10.0171148,13.5780874 9.76029508,13.3211913 9.44334426,13.3211913 L7.57859016,13.3211913 L7.57859016,1.14754098 L12.7903388,1.14754098 L12.7903388,4.1104918 C12.7903388,4.42736612 13.0471585,4.6842623 13.3641093,4.6842623 C13.6810601,4.6842623 13.9378798,4.42736612 13.9378798,4.1104918 L13.9378798,0.573770492 C13.9378798,0.256896175 13.6810601,0 13.3641093,0 Z" id="Shape"></path>
            </g>
        </g>
    </g>
</svg>