<svg viewBox="0 0 512 512" xmlns="http://www.w3.org/2000/svg">
  <path d="M370.118 35.716h76.87C467.43 35.716 484 52.243 484 72.63v146.876c0 7.84-6.373 14.197-14.235 14.197-7.862 0-14.236-6.356-14.236-14.197v-53.173H28.471v269.753c0 4.705 3.824 8.519 8.54 8.519H229.48c7.862 0 14.235 6.356 14.235 14.197 0 7.842-6.373 14.198-14.235 14.198H37.012C16.57 473 0 456.473 0 436.086V72.63c0-20.387 16.57-36.914 37.012-36.914h76.87v-8.518c0-7.842 6.374-14.198 14.236-14.198 7.862 0 14.235 6.356 14.235 14.198v8.518h85.412v-8.518C227.765 19.356 234.138 13 242 13c7.862 0 14.235 6.356 14.235 14.198v8.518h85.412v-8.518c0-7.842 6.373-14.198 14.235-14.198 7.862 0 14.236 6.356 14.236 14.198v8.518zm0 28.395v8.519c0 7.84-6.374 14.197-14.236 14.197-7.862 0-14.235-6.356-14.235-14.197V64.11h-85.412v8.519c0 7.84-6.373 14.197-14.235 14.197-7.862 0-14.235-6.356-14.235-14.197V64.11h-85.412v8.519c0 7.84-6.373 14.197-14.235 14.197-7.862 0-14.236-6.356-14.236-14.197V64.11h-76.87c-4.717 0-8.541 3.814-8.541 8.519v65.308h427.058V72.63c0-4.705-3.824-8.519-8.54-8.519h-76.871zm-.34 303.01v-47.838c0-7.855 6.367-14.222 14.222-14.222 7.855 0 14.222 6.367 14.222 14.222v62.06c0 7.855-6.367 14.223-14.222 14.223h-41.374c-7.854 0-14.222-6.368-14.222-14.223 0-7.854 6.368-14.222 14.222-14.222h27.152zM384 499c-70.692 0-128-57.308-128-128 0-70.692 57.308-128 128-128 70.692 0 128 57.308 128 128 0 70.692-57.308 128-128 128zm0-28.444c54.983 0 99.556-44.573 99.556-99.556S438.983 271.444 384 271.444 284.444 316.017 284.444 371s44.573 99.556 99.556 99.556z" fill="#000" fill-rule="nonzero"/>
</svg>
