<svg xmlns="http://www.w3.org/2000/svg" width="16" height="17" viewBox="0 0 16 17">
  <path d="M13,1 L12,1 L12,0.5 C12,0.223857625 11.7761424,0 11.5,0 C11.2238576,0 11,0.223857625 11,0.5 L11,1 L5,1 L5,0.5 C5,0.223857625 4.77614237,0 4.5,0 C4.22385763,0 4,0.223857625 4,0.5 L4,1 L3,1 C1.34314575,1 0,2.34314575 0,4 L0,14 C0,15.6568542 1.34314575,17 3,17 L13,17 C14.6568542,17 16,15.6568542 16,14 L16,4 C16,2.34314575 14.6568542,1 13,1 Z M15,14 C14.9987325,15.1040441 14.1040441,15.9987325 13,16 L3,16 C1.89595593,15.9987325 1.00126747,15.1040441 1,14 L1,4 C1.00126747,2.89595593 1.89595593,2.00126747 3,2 L4,2 L4,2.5 C4,2.77614237 4.22385763,3 4.5,3 C4.77614237,3 5,2.77614237 5,2.5 L5,2 L11,2 L11,2.5 C11,2.77614237 11.2238576,3 11.5,3 C11.7761424,3 12,2.77614237 12,2.5 L12,2 L13,2 C14.1040441,2.00126747 14.9987325,2.89595593 15,4 L15,14 Z M8,4 C5.23857625,4 3,6.23857625 3,9 C3,11.7614237 5.23857625,14 8,14 C10.7614237,14 13,11.7614237 13,9 C13,7.67391755 12.4732158,6.40214799 11.5355339,5.46446609 C10.597852,4.5267842 9.32608245,4 8,4 L8,4 Z M8,13 C5.790861,13 4,11.209139 4,9 C4,6.790861 5.790861,5 8,5 C10.209139,5 12,6.790861 12,9 C11.9975201,11.208111 10.208111,12.9975201 8,13 L8,13 Z M10.49994,8.99994 C10.49994,9.27608237 10.2760824,9.49994 9.99994,9.49994 L9.99963,9.49988 L8.00063,9.49988 L8,9.5 C7.72385763,9.5 7.5,9.27614237 7.5,9 L7.49994,9 L7.49994,6.49994 L7.5,6.49994 C7.50001657,6.22379763 7.72388763,5.99997 8.00003,5.99997 C8.27617237,5.99997 8.50001657,6.22385763 8.5,6.5 L8.49994,6.50031 L8.49994,8.49988 L10,8.49988 L10,8.49994 C10.2761189,8.49997 10.49994,8.72382105 10.49994,8.99994 L10.49994,8.99994 Z"/>
</svg>
