<?xml version="1.0" encoding="UTF-8"?>
<svg width="84px" height="74px" viewBox="0 0 84 74" version="1.1" xmlns="http://www.w3.org/2000/svg" xmlns:xlink="http://www.w3.org/1999/xlink">
    <!-- Generator: Sketch 63.1 (92452) - https://sketch.com -->
    <title>Group 74</title>
    <desc>Created with Sketch.</desc>
    <g id="Empty-state" stroke="none" stroke-width="1" fill="none" fill-rule="evenodd">
        <g id="Artboard" transform="translate(-280.000000, -595.000000)">
            <g id="Group-74" transform="translate(279.000000, 595.000000)">
                <g id="Group-3" transform="translate(0.499000, 0.000000)">
                    <polygon id="Fill-1" fill="#BCBCE2" points="20.514 20.8433 22.789 20.8433 22.789 16.7663 20.514 16.7663"></polygon>
                    <polygon id="Fill-2" fill="#BCBCE2" points="21.152 39.8963 22.789 39.8963 22.789 20.8423 21.152 20.8423"></polygon>
                    <line x1="1.0009" y1="66.0521" x2="83.8749" y2="66.0521" id="Stroke-3" stroke="#7176C4" stroke-linecap="round" stroke-linejoin="round"></line>
                    <line x1="55.1889" y1="72.6858" x2="66.0489" y2="72.6858" id="Stroke-5" stroke="#7176C4" stroke-linecap="round" stroke-linejoin="round"></line>
                    <line x1="21.8266" y1="72.6858" x2="46.0796" y2="72.6858" id="Stroke-7" stroke="#7176C4" stroke-linecap="round" stroke-linejoin="round"></line>
                    <path d="M28.1454,66.0521 L24.9694,66.0521 L24.9694,15.8951 C24.9694,15.1001 25.6144,14.4551 26.4094,14.4551 L28.1454,14.4551 L28.1454,66.0521 Z" id="Fill-9" fill="#DBDBF3"></path>
                    <path d="M68.6283,14.1683 L68.6283,33.3573 L68.4573,33.3573 C66.7373,33.3573 65.1173,33.9283 63.8173,34.9073 L63.8173,13.8173 C65.1073,15.5673 66.7473,13.0583 68.6283,14.1683" id="Fill-11" fill="#DBDBF3"></path>
                    <polygon id="Stroke-14" stroke="#7176C4" stroke-linecap="round" stroke-linejoin="round" points="5.468 63.6573 22.789 63.6573 22.789 42.2903 5.468 42.2903"></polygon>
                    <path d="M22.789,66.0521 L5.197,66.0521 C4.536,66.0521 4,65.5161 4,64.8551 C4,64.1941 4.536,63.6571 5.197,63.6571 L22.789,63.6571 L22.789,66.0521 Z" id="Stroke-15" stroke="#7176C4" stroke-linecap="round" stroke-linejoin="round"></path>
                    <path d="M22.789,42.2903 L5.197,42.2903 C4.536,42.2903 4,41.7543 4,41.0933 C4,40.4333 4.536,39.8963 5.197,39.8963 L22.789,39.8963 L22.789,42.2903 Z" id="Stroke-17" stroke="#7176C4" stroke-linecap="round" stroke-linejoin="round"></path>
                    <polygon id="Fill-19" fill="#DBDBF3" points="7.143 63.1593 22.789 63.1593 22.789 44.3563 7.143 44.3563"></polygon>
                    <path d="M68.6596,66.0521 L22.7886,66.0521 L22.7886,14.7291 C22.7886,13.3361 23.9186,12.2071 25.3106,12.2071 L66.1386,12.2071 C67.5306,12.2071 68.6596,13.3361 68.6596,14.7291 L68.6596,33.3561" id="Stroke-21" stroke="#7176C4" stroke-linecap="round" stroke-linejoin="round"></path>
                    <polyline id="Stroke-23" stroke="#7176C4" stroke-linecap="round" stroke-linejoin="round" points="64.2729 66.0521 27.1759 66.0521 26.9069 14.4551 64.0039 14.4551 64.0979 34.4441"></polyline>
                    <path d="M48.6694,9.8509 L48.6694,9.8509 C48.6694,8.7559 47.7814,7.8699 46.6884,7.8699 L43.2234,7.8699 C42.1294,7.8699 41.2424,8.7559 41.2424,9.8509 C41.2424,10.7839 40.5914,11.5899 39.6794,11.7879 L35.2064,12.7559 L35.2064,16.7659 L42.5484,16.7659 L47.3624,16.7659 L54.7044,16.7659 L54.7044,12.7559 L50.2314,11.7879 C49.3194,11.5899 48.6694,10.7839 48.6694,9.8509" id="Fill-25" fill="#FFFFFF"></path>
                    <path d="M48.6694,9.8509 L48.6694,9.8509 C48.6694,8.7559 47.7814,7.8699 46.6884,7.8699 L43.2234,7.8699 C42.1294,7.8699 41.2424,8.7559 41.2424,9.8509 C41.2424,10.7839 40.5914,11.5899 39.6794,11.7879 L35.2064,12.7559 L35.2064,16.7659 L42.5484,16.7659 L47.3624,16.7659 L54.7044,16.7659 L54.7044,12.7559 L50.2314,11.7879 C49.3194,11.5899 48.6694,10.7839 48.6694,9.8509 Z" id="Stroke-27" stroke="#7176C4" stroke-linecap="round" stroke-linejoin="round"></path>
                    <polygon id="Fill-29" fill="#AAAAE2" opacity="0.5" points="30.942 24.2443 58.969 24.2443 58.969 22.4203 30.942 22.4203"></polygon>
                    <polygon id="Fill-31" fill-opacity="0.5" fill="#DBDBF3" points="30.942 29.2443 58.969 29.2443 58.969 27.4203 30.942 27.4203"></polygon>
                    <polygon id="Fill-33" fill-opacity="0.5" fill="#DBDBF3" points="30.941 34.2673 44.955 34.2673 44.955 32.4443 30.941 32.4443"></polygon>
                    <polygon id="Fill-35" fill="#AAAAE2" opacity="0.5" points="30.942 42.2903 56.969 42.2903 56.969 40.4663 30.942 40.4663"></polygon>
                    <polygon id="Fill-37" fill-opacity="0.5" fill="#DBDBF3" points="30.942 47.2903 56.969 47.2903 56.969 45.4663 30.942 45.4663"></polygon>
                    <polygon id="Fill-39" fill-opacity="0.5" fill="#DBDBF3" points="30.941 52.3133 44.955 52.3133 44.955 50.4893 30.941 50.4893"></polygon>
                    <path d="M48.3119,10.9974 L48.3119,10.9974 C48.3119,10.0844 47.5709,9.3444 46.6579,9.3444 L44.2059,9.3444 C43.2919,9.3444 42.5519,10.0844 42.5519,10.9974 C42.5519,11.7754 42.0099,12.4484 41.2489,12.6124 L37.5169,13.4214 L37.5169,16.2194 L54.1489,16.2194 L54.1489,13.4214 L49.6149,12.6124 C48.8539,12.4484 48.3119,11.7754 48.3119,10.9974" id="Fill-41" fill="#DBDBF3"></path>
                    <path d="M66.1684,55.0481 L66.1684,57.8081 L63.8974,57.8081 L63.8974,60.5381 L58.1684,60.5381 L57.0584,63.6571 L58.5774,63.6571 L58.5774,66.0481 L39.3774,66.0481 L63.2684,34.2681 L63.8974,34.8481 C62.6884,35.7371 61.7374,36.9781 61.2074,38.4581 C60.5984,40.1381 60.5984,41.9781 61.2074,43.6481 L62.4974,47.2771 C62.8484,48.2471 63.3974,49.1481 64.1174,49.8981 C65.4284,51.2881 66.1684,53.1381 66.1684,55.0481" id="Fill-43" fill-opacity="0.3" fill="#BCBCE2"></path>
                    <polygon id="Fill-45" fill="#DBDBF3" points="79.3969 61.6302 59.2219 61.6302 58.5039 63.6572 80.1149 63.6572"></polygon>
                    <path d="M75.6625,39.8284 L75.6625,39.8284 C74.6755,37.0704 72.0615,35.2304 69.1335,35.2304 L68.8915,35.2304 C65.9615,35.2304 63.3485,37.0704 62.3605,39.8284 C61.8195,41.3404 61.8195,42.9924 62.3605,44.5044 L63.5285,47.7664 C63.8445,48.6474 64.3395,49.4524 64.9815,50.1314 C66.1675,51.3854 66.8285,53.0454 66.8285,54.7704 L66.8285,57.2504 L71.1945,57.2504 L71.1945,54.7704 C71.1945,53.0454 71.8555,51.3854 73.0425,50.1314 C73.6845,49.4524 74.1795,48.6474 74.4945,47.7664 L75.6625,44.5044 C76.2035,42.9924 76.2035,41.3404 75.6625,39.8284" id="Fill-47" fill-opacity="0.5" fill="#DBDBF3"></path>
                    <path d="M75.9731,38.4603 L75.9731,38.4603 C74.8761,35.3983 71.9751,33.3563 68.7231,33.3563 L68.4531,33.3563 C65.2021,33.3563 62.3001,35.3983 61.2031,38.4603 C60.6031,40.1393 60.6031,41.9743 61.2031,43.6513 L62.5001,47.2753 C62.8511,48.2523 63.4001,49.1473 64.1141,49.9003 C65.4301,51.2923 66.1641,53.1353 66.1641,55.0513 L66.1641,57.8053 L71.0121,57.8053 L71.0121,55.0513 C71.0121,53.1353 71.7461,51.2923 73.0631,49.9003 C73.7771,49.1473 74.3261,48.2523 74.6761,47.2753 L75.9731,43.6513 C76.5741,41.9743 76.5741,40.1393 75.9731,38.4603 Z" id="Stroke-49" stroke="#7176C4" stroke-linecap="round" stroke-linejoin="round"></path>
                    <polygon id="Fill-51" fill="#DBDBF3" points="64.808 60.5393 73.276 60.5393 73.276 58.7593 64.808 58.7593"></polygon>
                    <polygon id="Stroke-53" stroke="#7176C4" stroke-linecap="round" stroke-linejoin="round" points="63.901 60.5393 73.276 60.5393 73.276 57.8053 63.901 57.8053"></polygon>
                    <polygon id="Stroke-54" stroke="#7176C4" stroke-linecap="round" stroke-linejoin="round" points="79.0111 60.5394 58.1651 60.5394 57.0621 63.6574 80.1151 63.6574"></polygon>
                    <polygon id="Fill-55" fill="#BCBCE2" points="58.62 65.7063 78.635 65.7063 78.635 64.0003 58.62 64.0003"></polygon>
                    <polygon id="Stroke-56" stroke="#7176C4" stroke-linecap="round" stroke-linejoin="round" points="58.58 66.0493 78.596 66.0493 78.596 63.6573 58.58 63.6573"></polygon>
                    <polygon id="Stroke-57" stroke="#BCBCE2" points="59.5121 54.2132 48.7301 57.7792 47.7871 54.9302 58.5701 51.3642"></polygon>
                    <path d="M50.0219,57.3509 C51.1679,58.8539 53.1849,59.5399 55.0819,58.9129 C56.9869,58.2829 58.1959,56.5299 58.2199,54.6389" id="Stroke-58" stroke="#BCBCE2"></path>
                    <path d="M49.0795,54.5013 C49.1035,52.6113 50.3125,50.8573 52.2095,50.2303 C54.1145,49.6003 56.1315,50.2873 57.2775,51.7893" id="Stroke-59" stroke="#BCBCE2"></path>
                    <polygon id="Fill-60" fill-opacity="0.2" fill="#7176C4" points="18.259 65.7063 22.789 65.7063 22.789 39.8963 18.259 39.8963"></polygon>
                    <polygon id="Fill-61" fill="#DBDBF3" points="14.3485 33.764 11.7745 34.293 9.0405 20.991 11.6145 20.461"></polygon>
                    <polygon id="Fill-62" fill="#BCBCE2" points="11.0453 19.5022 8.4723 20.0312 7.9873 17.6722 10.5603 17.1432"></polygon>
                    <polygon id="Fill-63" fill="#DBDBF3" points="15.6078 39.8978 12.9278 39.8978 12.3478 37.0978 11.7778 34.2978 11.7778 34.2888 11.6478 33.6778 14.2178 33.1478 14.3478 33.7678 14.9178 36.5678"></polygon>
                    <polygon id="Stroke-64" stroke="#7176C4" stroke-linecap="round" stroke-linejoin="round" points="14.3485 33.764 10.7025 34.513 7.7565 20.178 11.4015 19.429"></polygon>
                    <polygon id="Fill-65" fill="#BCBCE2" points="14.3485 33.764 11.7745 34.293 12.3515 37.101 14.9255 36.572"></polygon>
                    <polygon id="Fill-66" fill="#FFFFFF" points="13.2196 33.9964 12.5926 34.1244 13.1696 36.9334 13.7966 36.8044"></polygon>
                    <polygon id="Stroke-67" stroke="#7176C4" stroke-linecap="round" stroke-linejoin="round" points="15.6078 39.8978 11.8078 39.8978 11.2778 37.3178 12.3478 37.0978 13.1678 36.9278 13.2778 36.9078 13.7978 36.7978 14.9178 36.5678 14.9278 36.5678"></polygon>
                    <polygon id="Stroke-68" stroke="#7176C4" stroke-linecap="round" stroke-linejoin="round" points="14.3485 33.764 10.7025 34.513 11.2795 37.321 14.9255 36.572"></polygon>
                    <polygon id="Stroke-69" stroke="#7176C4" stroke-linecap="round" stroke-linejoin="round" points="10.2011 17.2171 7.9871 17.6721 8.4721 20.0311 10.6861 19.5761"></polygon>
                    <polyline id="Stroke-70" stroke="#7176C4" stroke-linecap="round" stroke-linejoin="round" points="7.7562 20.178 13.5432 18.989 16.4892 33.324 15.5352 32.32 16.0002 30.942"></polyline>
                    <polygon id="Stroke-71" stroke="#7176C4" stroke-linecap="round" stroke-linejoin="round" points="19.515 39.8963 22.789 39.8963 22.789 15.5733 19.515 15.5733"></polygon>
                    <polygon id="Stroke-72" stroke="#7176C4" stroke-linecap="round" stroke-linejoin="round" points="19.515 39.8963 22.789 39.8963 22.789 20.8423 19.515 20.8423"></polygon>
                    <circle id="Oval-Copy-4" fill="#DBDBF3" cx="78.1618537" cy="21.869" r="3"></circle>
                    <polygon id="Rectangle-Copy-26" fill-opacity="0.5" fill="#DBDBF3" transform="translate(81.161854, 52.586859) rotate(-26.000000) translate(-81.161854, -52.586859) " points="78.83313 50.0868592 83.4905775 51.4224917 79.8262101 55.0868592"></polygon>
                    <rect id="Rectangle-Copy-27" fill-opacity="0.5" fill="#DBDBF3" transform="translate(29.251000, 3.326057) rotate(28.000000) translate(-29.251000, -3.326057) " x="27.001" y="1.0760569" width="4.5" height="4.5"></rect>
                    <circle id="Oval-Copy-6" fill="#DBDBF3" cx="2.751" cy="32.1472976" r="2.25"></circle>
                </g>
                <g id="Group-13" transform="translate(1.000000, 12.817300)"></g>
                <g id="Group-73" transform="translate(4.000000, 6.817300)"></g>
            </g>
        </g>
    </g>
</svg>