<?xml version="1.0"?>
<svg xmlns="http://www.w3.org/2000/svg" xmlns:xlink="http://www.w3.org/1999/xlink" version="1.1" id="Capa_1" x="0px" y="0px" viewBox="0 0 490.672 490.672" style="enable-background:new 0 0 490.672 490.672;" xml:space="preserve" width="512px" height="512px"><g><g>
	<g>
		<path d="M483.619,144.56c-69.376-52.693-151.765-80.555-238.293-80.555c-33.685,0-67.435,4.416-100.309,13.12    c-3.691,0.981-6.592,3.84-7.573,7.531c-1.003,3.691,0.043,7.616,2.752,10.325l215.637,215.616    c2.005,2.005,4.736,3.115,7.552,3.115c0.256,0,0.469,0,0.725-0.021c3.072-0.213,5.888-1.749,7.765-4.203l113.792-149.995    C489.229,154.8,488.312,148.123,483.619,144.56z" data-original="#000000" class="active-path" data-old_color="#F3EBEB" fill="#F9F3F3"/>
	</g>
</g><g>
	<g>
		<path d="M487.544,472.453L344.888,329.797L110.179,95.109h-0.021L18.211,3.12c-4.16-4.16-10.923-4.16-15.083,0    c-4.16,4.16-4.16,10.923,0,15.083l80.981,80.981c-27.669,12.437-53.611,27.563-77.077,45.397    c-4.693,3.563-5.611,10.24-2.048,14.933l231.829,305.6c2.027,2.667,5.184,4.224,8.512,4.224s6.485-1.557,8.491-4.224    l84.629-111.573L472.44,487.536c2.091,2.091,4.821,3.136,7.552,3.136s5.461-1.045,7.552-3.115    C491.704,483.376,491.704,476.635,487.544,472.453z" data-original="#000000" class="active-path" data-old_color="#F3EBEB" fill="#F9F3F3"/>
	</g>
</g></g> </svg>
