<?xml version="1.0" encoding="UTF-8"?>
<svg width="13px" height="13px" viewBox="0 0 13 13" version="1.1" xmlns="http://www.w3.org/2000/svg" xmlns:xlink="http://www.w3.org/1999/xlink">
    <!-- Generator: Sketch 55.2 (78181) - https://sketchapp.com -->
    <title>earth</title>
    <desc>Created with Sketch.</desc>
    <g id="Page-1" stroke="none" stroke-width="1" fill="none" fill-rule="evenodd">
        <g id="Attendance_Summary_page_with_Location1.0" transform="translate(-790.000000, -213.000000)" fill="#324056" fill-rule="nonzero">
            <g id="Group-14" transform="translate(560.000000, 121.000000)">
                <g id="Group-13" transform="translate(40.000000, 87.000000)">
                    <g id="earth" transform="translate(190.000000, 5.000000)">
                        <polygon id="Path" points="9.40032653 2.86928571 9.41279592 2.96506122 9.26926531 2.99477551 9.25016327 3.19879592 9.42208163 3.19879592 9.65077551 3.17677551 9.76883673 3.03642857 9.64334694 2.98761224 9.57463265 2.90855102 9.47142857 2.74140816 9.42208163 2.50502041 9.22814286 2.54455102 9.1737551 2.62785714 9.1737551 2.72177551 9.26714286 2.78571429"></polygon>
                        <polygon id="Path" points="9.23504082 2.94781633 9.24538776 2.81993878 9.13157143 2.77085714 8.97238776 2.80773469 8.85432653 2.99716327 8.85432653 3.12 8.99202041 3.12"></polygon>
                        <path d="M5.9585102,3.49089796 L5.9234898,3.58110204 L5.75395918,3.58110204 L5.75395918,3.66865306 L5.79428571,3.66865306 C5.79428571,3.66865306 5.79667347,3.68722449 5.80012245,3.71163265 L5.90412245,3.70287755 L5.96912245,3.66255102 L5.98610204,3.58110204 L6.07020408,3.57393878 L6.10336735,3.5054898 L6.02616327,3.48957143 L5.9585102,3.49089796 Z" id="Path"></path>
                        <polygon id="Path" points="5.52155102 3.64981633 5.51491837 3.7355102 5.6377551 3.72516327 5.6504898 3.63920408 5.57673469 3.58110204"></polygon>
                        <path d="M12.8989184,6.38353061 C12.8970612,6.19489796 12.8875102,6.00759184 12.8697347,5.82320408 C12.8100408,5.2084898 12.6630612,4.6192449 12.4428571,4.06687755 C12.4264082,4.0257551 12.4112857,3.98410204 12.3937755,3.9435102 C12.1003469,3.25026531 11.6883265,2.61910204 11.1839796,2.07442857 C11.1508163,2.03887755 11.1171224,2.00385714 11.0834286,1.96936735 C10.9881837,1.87040816 10.8902857,1.77383673 10.7889388,1.6812449 C9.64228571,0.637265306 8.11942857,0 6.45012245,0 C4.7667551,0 3.23302041,0.648673469 2.08318367,1.70857143 C1.81522449,1.95557143 1.56902041,2.22512245 1.34563265,2.51377551 C0.503020408,3.60365306 0,4.96891837 0,6.45012245 C0,10.0070816 2.89369388,12.9005102 6.45038776,12.9005102 C8.95222449,12.9005102 11.1242857,11.4678571 12.1934694,9.38042857 C12.4221633,8.93418367 12.6001837,8.4584898 12.720102,7.95997959 C12.7506122,7.83342857 12.7768776,7.70634694 12.7996939,7.57767347 C12.8646939,7.21128571 12.9002798,6.83455102 12.9002798,6.45012245 C12.9005102,6.42783673 12.8991837,6.40581633 12.8989184,6.38353061 Z M11.6848776,3.80555102 L11.7222857,3.76363265 C11.7713673,3.85887755 11.8172653,3.95571429 11.8610408,4.05387755 L11.8000204,4.0514898 L11.6848776,4.06740816 L11.6848776,3.80555102 L11.6848776,3.80555102 Z M10.7528571,2.68012245 L10.7539184,2.392 C10.8552653,2.49944898 10.952898,2.61008163 11.0462857,2.72469388 L10.9300816,2.89767347 L10.523898,2.89395918 L10.4984286,2.80932653 L10.7528571,2.68012245 Z M2.97195918,1.96406122 L2.97195918,1.95318367 L3.10116327,1.95318367 L3.11230612,1.90887755 L3.3237551,1.90887755 L3.3237551,2.00120408 L3.263,2.08238776 L2.97169388,2.08238776 L2.97195918,1.96406122 L2.97195918,1.96406122 Z M3.17836735,2.25191837 C3.17836735,2.25191837 3.30757143,2.22989796 3.31871429,2.22989796 C3.32985714,2.22989796 3.31871429,2.35883673 3.31871429,2.35883673 L3.02740816,2.37714286 L2.97195918,2.31081633 L3.17836735,2.25191837 Z M12.0958367,4.81238776 L11.6238571,4.81238776 L11.3362653,4.59828571 L11.033551,4.62773469 L11.033551,4.81238776 L10.9377755,4.81238776 L10.8343061,4.73863265 L10.3100612,4.60571429 L10.3100612,4.26612245 L9.64573469,4.31785714 L9.43985714,4.4284898 L9.17614286,4.4284898 L9.04693878,4.4154898 L8.72671429,4.5932449 L8.72671429,4.92779592 L8.07220408,5.40004082 L8.12659184,5.60167347 L8.2592449,5.60167347 L8.2244898,5.7937551 L8.13110204,5.82797959 L8.12606122,6.32993878 L8.69169388,6.97410204 L8.93789796,6.97410204 L8.9527551,6.93483673 L9.39528571,6.93483673 L9.52289796,6.81677551 L9.77387755,6.81677551 L9.91157143,6.95473469 L10.2856531,6.99346939 L10.2360408,7.49091837 L10.6512449,8.22395918 L10.4326327,8.64181633 L10.4474898,8.83867347 L10.6196735,9.01032653 L10.6196735,9.48363265 L10.8457143,9.78767347 L10.8457143,10.1808571 L11.0409796,10.1808571 C9.95428571,11.5150816 8.30036735,12.3696327 6.44985714,12.3696327 C3.18606122,12.369898 0.530612245,9.71418367 0.530612245,6.45012245 C0.530612245,5.62846939 0.699346939,4.84528571 1.00312245,4.13346939 L1.00312245,3.94881633 L1.21483673,3.69173469 C1.28832653,3.55297959 1.36712245,3.41767347 1.45122449,3.28581633 L1.46077551,3.39326531 L1.21510204,3.69173469 C1.13895918,3.83553061 1.06785714,3.9825102 1.00338776,4.13346939 L1.00338776,4.47040816 L1.24932653,4.58873469 L1.24932653,5.057 L1.48518367,5.45946939 L1.677,5.48891837 L1.70167347,5.35095918 L1.47536735,5.00181633 L1.43106122,4.6624898 L1.56371429,4.6624898 L1.61969388,5.01163265 L1.94681633,5.48891837 L1.86244898,5.64306122 L2.07044898,5.96116327 L2.587,6.08904082 L2.587,6.00546939 L2.79367347,6.03491837 L2.77404082,6.18242857 L2.93640816,6.21214286 L3.18712245,6.28059184 L3.54130612,6.68412245 L3.99365306,6.71834694 L4.03795918,7.08738776 L3.72834694,7.30387755 L3.7137551,7.63338776 L3.66944898,7.83502041 L4.11728571,8.39561224 L4.1515102,8.58769388 C4.1515102,8.58769388 4.31387755,8.63173469 4.33377551,8.63173469 C4.35340816,8.63173469 4.69777551,8.89253061 4.69777551,8.89253061 L4.69777551,9.90573469 L4.82061224,9.94022449 L4.73704082,10.4076939 L4.94371429,10.6833469 L4.9055102,11.1465714 L5.1785102,11.6265102 L5.52897959,11.9326735 L5.88130612,11.9390408 L5.91579592,11.8257551 L5.65685714,11.6076735 L5.67171429,11.4994286 L5.71814286,11.3667755 L5.72795918,11.2314694 L5.55285714,11.2261633 L5.4645102,11.1152653 L5.60989796,10.975449 L5.62953061,10.8698571 L5.46716327,10.8234286 L5.47671429,10.7252653 L5.70806122,10.6902449 L6.05985714,10.5212449 L6.17791837,10.3047551 L6.54695918,9.8325102 L6.46312245,9.46320408 L6.57640816,9.26661224 L6.91573469,9.27695918 L7.14416327,9.09602041 L7.21791837,8.38340816 L7.47128571,8.06159184 L7.51559184,7.85491837 L7.2845102,7.78089796 L7.13195918,7.53071429 L6.61063265,7.52540816 L6.19728571,7.36781633 L6.17765306,7.07306122 L6.03969388,6.83189796 L5.66587755,6.82632653 L5.44991837,6.48726531 L5.25810204,6.39361224 L5.24828571,6.49708163 L4.89914286,6.51777551 L4.77126531,6.3397551 L4.407,6.26573469 L4.10693878,6.6124898 L3.63469388,6.53236735 L3.60046939,6.00016327 L3.25583673,5.94126531 L3.39406122,5.68020408 L3.35453061,5.53030612 L2.90165306,5.83302041 L2.61671429,5.79826531 L2.51510204,5.57567347 L2.57718367,5.34618367 L2.7342449,5.05673469 L3.09585714,4.87367347 L3.79414286,4.87340816 L3.79228571,5.08644898 L4.04326531,5.20318367 L4.02336735,4.83918367 L4.20430612,4.65718367 L4.56936735,4.41734694 L4.59430612,4.24861224 L4.95830612,3.8697551 L5.34538776,3.65538776 L5.31116327,3.62726531 L5.57328571,3.38053061 L5.66932653,3.406 L5.71336735,3.46118367 L5.81285714,3.35081633 L5.83726531,3.33993878 L5.72822449,3.32455102 L5.61759184,3.28767347 L5.61759184,3.18155102 L5.67622449,3.13353061 L5.80542857,3.13353061 L5.86459184,3.15953061 L5.91579592,3.263 L5.97840816,3.25344898 L5.97840816,3.24442857 L5.99644898,3.25053061 L6.17791837,3.22267347 L6.20365306,3.13406122 L6.30712245,3.16006122 L6.30712245,3.25610204 L6.21108163,3.32216327 L6.21134694,3.32216327 L6.22540816,3.4274898 L6.55412245,3.52883673 C6.55412245,3.52883673 6.55438776,3.53016327 6.55491837,3.53281633 L6.63053061,3.52644898 L6.63557143,3.38397959 L6.37504082,3.26538776 L6.36018367,3.19693878 L6.57640816,3.12318367 L6.58595918,2.9162449 L6.35991837,2.77855102 L6.34506122,2.42967347 L6.03518367,2.58195918 L5.92216327,2.58195918 L5.95187755,2.31638776 L5.53004082,2.21689796 L5.35546939,2.3487551 L5.35546939,2.75095918 L5.04161224,2.85044898 L4.91585714,3.11257143 L4.7794898,3.13459184 L4.7794898,2.7992449 L4.48446939,2.75838776 L4.33695918,2.66234694 L4.27753061,2.44506122 L4.80522449,2.1362449 L5.06336735,2.05771429 L5.08936735,2.23122449 L5.23316327,2.22379592 L5.24430612,2.1365102 L5.39473469,2.11502041 L5.39738776,2.0845102 L5.33265306,2.05771429 L5.31779592,1.96538776 L5.50271429,1.94973469 L5.61440816,1.83353061 L5.6205102,1.82504082 L5.62183673,1.82557143 L5.65579592,1.79055102 L6.04446939,1.74146939 L6.21638776,1.88738776 L5.76563265,2.1274898 L6.33922449,2.26279592 L6.4135102,2.07097959 L6.66422449,2.07097959 L6.75283673,1.90383673 L6.57561224,1.85953061 L6.57561224,1.64808163 L6.01979592,1.40187755 L5.63616327,1.44618367 L5.41967347,1.55946939 L5.43453061,1.83485714 L5.20822449,1.80036735 L5.17346939,1.64808163 L5.39022449,1.45122449 L4.99677551,1.43159184 L4.8837551,1.46581633 L4.83467347,1.59846939 L4.98218367,1.62340816 L4.95273469,1.77091837 L4.70202041,1.78577551 L4.6627551,1.88393878 L4.29902041,1.89402041 C4.29902041,1.89402041 4.28893878,1.68761224 4.27434694,1.68761224 C4.2597551,1.68761224 4.55955102,1.68257143 4.55955102,1.68257143 L4.77630612,1.47085714 L4.65797959,1.41169388 L4.50065306,1.5645102 L4.23959184,1.54965306 L4.08226531,1.33316327 L3.74771429,1.33316327 L3.39857143,1.59395918 L3.71853061,1.59395918 L3.74771429,1.68761224 L3.66467347,1.76481633 L4.01885714,1.77463265 L4.07297959,1.9025102 L3.67422449,1.88765306 L3.65485714,1.78922449 L3.40414286,1.73510204 L3.27122449,1.66134694 L2.9727551,1.66373469 C3.94987755,0.951918367 5.15144898,0.530612245 6.45012245,0.530612245 C7.94697959,0.530612245 9.31463265,1.09014286 10.3580816,2.00942857 L10.2877755,2.13518367 L10.0147755,2.24210204 L9.89963265,2.36706122 L9.92616327,2.51271429 L10.0670408,2.53234694 L10.1519388,2.74459184 L10.3949592,2.64669388 L10.4350204,2.93057143 L10.3617959,2.93057143 L10.1622857,2.90112245 L9.94102041,2.93826531 L9.72691837,3.24071429 L9.4207551,3.28873469 L9.37644898,3.55085714 L9.50565306,3.58136735 L9.4682449,3.74983673 L9.16420408,3.68881633 L8.88536735,3.74983673 L8.82620408,3.90504082 L8.8744898,4.23083673 L9.03818367,4.3075102 L9.31277551,4.30591837 L9.49822449,4.28920408 L9.55473469,4.14169388 L9.84444898,3.76522449 L10.0352041,3.80422449 L10.2230408,3.63442857 L10.2580612,3.76708163 L10.7202245,4.07881633 L10.6637143,4.15469388 L10.455449,4.14355102 L10.5355714,4.25710204 L10.6637143,4.28522449 L10.8138776,4.22261224 L10.8106939,4.04167347 L10.8772857,4.0082449 L10.8236939,3.95146939 L10.5154082,3.77955102 L10.4342245,3.55112245 L10.6905102,3.55112245 L10.7724898,3.63230612 L10.9932245,3.82253061 L11.0025102,4.05255102 L11.2312041,4.29610204 L11.3163673,3.96234694 L11.4747551,3.87585714 L11.5044694,4.14885714 L11.6591429,4.31865306 L11.9676939,4.31334694 C12.0273878,4.46695918 12.0809796,4.62322449 12.1279388,4.78267347 L12.0958367,4.81238776 Z M3.51822449,2.93057143 L3.67316327,2.85681633 L3.8132449,2.8902449 L3.76495918,3.07834694 L3.61373469,3.12636735 L3.51822449,2.93057143 Z M4.34040816,3.37336735 L4.34040816,3.49514286 L3.9864898,3.49514286 L3.85383673,3.45826531 L3.887,3.37336735 L4.05706122,3.30306122 L4.28946939,3.30306122 L4.28946939,3.37336735 L4.34040816,3.37336735 Z M4.50330612,3.54316327 L4.50330612,3.66122449 L4.41469388,3.71826531 L4.30432653,3.73869388 C4.30432653,3.73869388 4.30432653,3.56173469 4.30432653,3.54316327 L4.50330612,3.54316327 Z M4.40355102,3.49514286 L4.40355102,3.35479592 L4.52532653,3.46569388 L4.40355102,3.49514286 Z M4.459,3.77902041 L4.459,3.89389796 L4.37436735,3.97879592 L4.18626531,3.97879592 L4.21571429,3.84985714 L4.30459184,3.84216327 L4.32289796,3.79785714 L4.459,3.77902041 Z M3.99046939,3.54316327 L4.186,3.54316327 L3.93528571,3.89363265 L3.83181633,3.83818367 L3.85410204,3.69067347 L3.99046939,3.54316327 Z M4.79116327,3.73869388 L4.79116327,3.85330612 L4.60306122,3.85330612 L4.55159184,3.77902041 L4.55159184,3.67236735 L4.56644898,3.67236735 L4.79116327,3.73869388 Z M4.61738776,3.58110204 L4.67097959,3.52485714 L4.76144898,3.58110204 L4.68902041,3.64079592 L4.61738776,3.58110204 Z M12.1918776,5.11112245 L12.210449,5.08936735 C12.2181429,5.12279592 12.2263673,5.15622449 12.2337959,5.19018367 L12.1918776,5.11112245 Z" id="Shape"></path>
                        <path d="M1.00338776,3.94881633 L1.00338776,4.13346939 C1.06785714,3.98277551 1.13895918,3.83579592 1.21510204,3.69173469 L1.00338776,3.94881633 Z" id="Path"></path>
                    </g>
                </g>
            </g>
        </g>
    </g>
</svg>