<?xml version="1.0" encoding="UTF-8"?>
<svg width="12px" height="12px" viewBox="0 0 12 12" version="1.1" xmlns="http://www.w3.org/2000/svg" xmlns:xlink="http://www.w3.org/1999/xlink">
    <!-- Generator: Sketch 52.5 (67469) - http://www.bohemiancoding.com/sketch -->
    <title>edit (1)</title>
    <desc>Created with Sketch.</desc>
    <g id="Page-1" stroke="none" stroke-width="1" fill="none" fill-rule="evenodd" opacity="0.699999988">
        <g id="Artboard-Copy" transform="translate(-1283.000000, -431.000000)" fill="#000000" fill-rule="nonzero">
            <g id="Group-3" transform="translate(83.000000, 244.000000)">
                <g id="Group-4-Copy-3" transform="translate(35.000000, 179.000000)">
                    <g id="edit-(1)" transform="translate(1165.000000, 8.000000)">
                        <path d="M11.5159664,10.9210084 L0.484033613,10.9210084 C0.25210084,10.9210084 0.0705882353,11.112605 0.0705882353,11.3344538 C0.0705882353,11.5563025 0.262184874,11.7478992 0.484033613,11.7478992 L11.5260504,11.7478992 C11.7579832,11.7478992 11.9394958,11.5563025 11.9394958,11.3344538 C11.9394958,11.112605 11.7478992,10.9210084 11.5159664,10.9210084 Z" id="Shape"></path>
                        <path d="M0.0705882353,7.2605042 L0.0605042017,9.22689076 C0.0605042017,9.33781513 0.100840336,9.4487395 0.181512605,9.52941176 C0.262184874,9.61008403 0.36302521,9.65042017 0.47394958,9.65042017 L2.4302521,9.64033613 C2.54117647,9.64033613 2.64201681,9.6 2.72268908,9.51932773 L9.4789916,2.76302521 C9.64033613,2.60168067 9.64033613,2.3394958 9.4789916,2.16806723 L7.54285714,0.211764706 C7.38151261,0.0504201681 7.11932773,0.0504201681 6.94789916,0.211764706 L5.59663866,1.57310924 L0.191596639,6.96806723 C0.121008403,7.0487395 0.0705882353,7.14957983 0.0705882353,7.2605042 Z M7.25042017,1.09915966 L8.61176471,2.4605042 L7.84537815,3.22689076 L6.48403361,1.86554622 L7.25042017,1.09915966 Z M0.907563025,7.44201681 L5.88907563,2.4605042 L7.25042017,3.82184874 L2.26890756,8.79327731 L0.897478992,8.80336134 L0.907563025,7.44201681 Z" id="Shape"></path>
                    </g>
                </g>
            </g>
        </g>
    </g>
</svg>