<svg xmlns="http://www.w3.org/2000/svg" width="20" height="18" viewBox="0 0 20 18">
    <path fill="#FFF" fill-rule="evenodd" d="M7.57 13.29c-.52.003-.981-.275-1.287-.695-.005-.007-.011-.01-.015-.017a1.51 1.51 0 0 1 .187-.91l2.647-4.49c.18-.308.546-.472.901-.469.357-.002.693.16.876.465l2.096 3.515.59 1.061c.17.307.127.697-.052.997-.177.301-.48.507-.829.51l-5.113.032zm9.348-2.18c-.536-.036-1.034-.294-1.31-.756l-1.26-2.115-1.13-2.034c-.26-.467-.228-1.021.01-1.499A3.265 3.265 0 0 0 11.954.44 3.242 3.242 0 0 0 9.7.058C7.5.25 6.032 2.573 6.934 4.665c.208.484.216 1.031-.05 1.484L4.41 10.345c-.276.468-.778.728-1.32.763A3.328 3.328 0 0 0 0 14.43a3.32 3.32 0 0 0 2.95 3.295c1.27.284 2.632-.198 3.398-1.316.298-.435.763-.729 1.292-.732l4.78-.03c.522-.003.985.277 1.29.698a3.19 3.19 0 0 0 1.954 1.247c.136.042.266.096.41.12a3.337 3.337 0 0 0 3.927-3.282 3.326 3.326 0 0 0-3.083-3.32z"/>
</svg>
