<svg viewBox="0 0 50 50" xmlns="http://www.w3.org/2000/svg">
  <path d="M47.9 0c1.16 0 2.1.94 2.099 2.1v4.14L50 8.916V47.9a2.1 2.1 0 01-2.1 2.1H27.98l-6.066-.001H2.1a2.1 2.1 0 01-2.1-2.1V2.1C0 .94.94 0 2.1 0zm-2.778 2.632H4.878a2.1 2.1 0 00-2.1 2.1v40.536c0 1.16.94 2.1 2.1 2.1h40.244a2.1 2.1 0 002.1-2.1V4.732a2.1 2.1 0 00-2.1-2.1z"/>
  <path d="M24.292 12.738c3.418 0 5.85.649 7.485 1.945 1.565 1.225 2.617 3.243 2.617 5.624.001 2.377-.802 4.392-2.255 5.762-1.893 1.766-4.716 2.558-7.986 2.558-.726 0-1.387-.036-1.917-.108v8.676h-5.427V13.242c1.704-.288 4.102-.504 7.483-.504zm.259 4.142c-1.125 0-1.892.11-2.317.217v7.171c.532.108 1.08.144 1.881.144 2.946 0 4.762-1.479 4.762-3.964.002-2.234-1.565-3.568-4.326-3.568z"/>
</svg>
