<?xml version="1.0" encoding="UTF-8"?>
<svg width="500px" height="500px" viewBox="0 0 500 500" version="1.1" xmlns="http://www.w3.org/2000/svg" xmlns:xlink="http://www.w3.org/1999/xlink">
    <!-- Generator: Sketch 60.1 (88133) - https://sketch.com -->
    <title>visitor invite</title>
    <desc>Created with Sketch.</desc>
    <g id="visitor-invite" stroke="none" stroke-width="1" fill="none" fill-rule="evenodd">
        <g id="Group-5" transform="translate(250.000000, 254.598394) rotate(22.000000) translate(-250.000000, -254.598394) translate(20.000000, 50.000000)" fill-rule="nonzero">
            <g id="key-card" transform="translate(0.687306, 0.187538)">
                <g id="fill_12_" transform="translate(6.276631, 7.173293)">
                    <path d="M409.427327,147.061463 C405.889997,138.614014 397.999375,132.935457 388.905433,131.851393 C372.745799,129.925364 358.058482,119.598513 351.322761,103.515094 C344.587936,87.4316757 347.534365,69.7208165 357.499862,56.8546198 C363.107583,49.6149743 364.596938,40.0072456 361.059608,31.5606937 L355.479684,18.2345096 C349.249679,3.35799756 332.139583,-3.65210255 317.263071,2.577902 L18.3716988,127.7402 C3.49518677,133.970204 -3.51491333,151.0803 2.71509121,165.956812 L91.0425319,376.885685 C97.2725364,391.762197 114.382632,398.772297 129.259144,392.542293 L428.150517,267.379995 C443.027925,261.14999 450.037129,244.039894 443.808021,229.163382 L409.427327,147.061463 Z" id="Path" fill="#E8EDFC"></path>
                    <path d="M107.69264,225.338224 C83.5329913,157.291475 105.216958,109.740615 126.865058,82.3081516 L18.3716988,127.7402 C3.49518677,133.970204 -3.51491333,151.0803 2.71509121,165.956812 L91.0425319,376.885685 C97.2725364,391.762197 114.382632,398.772297 129.259144,392.542293 L213.511258,357.26135 C183.833554,325.09541 137.555057,309.445079 107.69264,225.338224 Z" id="Path" fill="#D1DBFD"></path>
                    <path d="M443.808021,229.164279 L422.857523,179.134151 L70.0920344,326.856453 L91.0425319,376.886582 C97.2725364,391.763094 114.382632,398.773194 129.259144,392.543189 L428.150517,267.380892 C443.027925,261.150887 450.037129,244.040791 443.808021,229.164279 Z" id="Path" fill="#C9D9FC"></path>
                    <path d="M146.055409,295.045591 L70.0920344,326.856453 L91.0425319,376.886582 C97.2725364,391.763094 114.382632,398.773194 129.259144,392.543189 L213.511258,357.262247 C194.852628,337.038045 169.634021,323.329883 146.055409,295.045591 Z" id="Path" fill="#B9CFFD"></path>
                </g>
                <g id="stroke_12_" fill="#428DFF">
                    <path d="M301.00032,181.232339 C304.426464,179.79768 306.040455,175.857749 304.605796,172.431605 L300.293751,162.134344 C298.859092,158.7082 294.919162,157.094209 291.493018,158.528868 C288.066874,159.963526 286.452883,163.903457 287.887542,167.329601 L292.199587,177.626862 C293.634246,181.053006 297.574176,182.666997 301.00032,181.232339 Z" id="Path"></path>
                    <path d="M167.58246,237.101527 C171.008603,235.666869 172.622594,231.726938 171.187936,228.300794 L166.87589,218.003533 C165.441232,214.577389 161.501301,212.963398 158.075157,214.398056 C154.649013,215.832715 153.035022,219.772646 154.469681,223.19879 L158.781726,233.496051 C160.216385,236.922195 164.156316,238.536186 167.58246,237.101527 Z" id="Path"></path>
                    <path d="M237.011861,215.662349 C245.040569,212.300765 251.980729,206.340656 256.50349,198.338848 C258.331783,195.105486 257.192126,191.00326 253.957868,189.174967 C250.724506,187.346674 246.621383,188.487227 244.794883,191.719692 C238.771111,202.375618 226.310205,207.594189 214.490413,204.410143 C210.904663,203.443542 207.212211,205.567733 206.2483,209.15438 C205.281698,212.741026 207.40589,216.431685 210.992536,217.397389 C219.866795,219.787889 228.983153,219.023933 237.011861,215.662349 Z" id="Path"></path>
                    <path d="M456.287756,233.739046 L421.907062,151.63623 C417.502661,141.11839 407.566754,133.727209 395.9783,132.34635 C381.684618,130.64359 369.355521,121.348796 363.802496,108.090758 C358.251264,94.8318236 360.27772,79.5258107 369.093696,68.1462788 C376.240985,58.9187347 377.943746,46.6533012 373.539344,36.1363577 L367.959419,22.8101735 C360.306413,4.53621085 339.215139,-4.10312331 320.942073,3.54719315 L22.0507012,128.710387 C3.77763517,136.362497 -4.86349232,157.454667 2.78861746,175.727733 L27.6557326,235.110939 C29.0903911,238.536186 33.0285287,240.152867 36.4564659,238.716415 C39.8826097,237.281756 41.4966005,233.341825 40.061942,229.915681 L15.1948269,170.532476 C12.8760601,164.994694 12.8518502,158.884842 15.1284739,153.328231 C17.4050976,147.772516 21.7081765,143.435364 27.2468549,141.1157 L326.136434,15.9542992 C337.567972,11.1679198 350.765934,16.5729957 355.554106,28.0054306 L361.134031,41.3316148 C363.670687,47.387667 362.645803,54.5071598 358.46198,59.9095457 C346.68433,75.1133392 343.977309,95.5661894 351.397183,113.286015 C358.817955,131.005841 375.291421,143.426397 394.386725,145.702124 C401.17266,146.510913 406.964197,150.775435 409.500853,156.832384 L443.881547,238.934304 C448.668823,250.367635 443.262851,263.563803 431.830416,268.351079 L132.938147,393.513377 C121.502125,398.300653 108.309544,392.893784 103.522267,381.462246 L85.1693986,337.635222 L403.363204,204.38952 C406.789348,202.954862 408.403339,199.014931 406.968681,195.588787 C405.533125,192.162643 401.594988,190.550446 398.168844,191.983311 L79.9741415,325.229012 L50.9420334,255.898244 C49.5073749,252.4721 45.567444,250.860799 42.1413002,252.292767 C38.7151563,253.727426 37.1011655,257.667357 38.535824,261.093501 L91.1169548,386.657503 C94.8237537,395.509346 101.755844,402.387637 110.63638,406.026289 C115.032712,407.827682 127.712403,409.669425 138.134301,405.919586 L437.026569,280.757289 C455.297842,273.105179 463.93897,252.013009 456.287756,233.739046 Z" id="Path"></path>
                    <path d="M41.2643652,168.879929 C39.8297067,165.453785 41.4436975,161.513854 44.8698413,160.079196 L254.696717,72.212639 C258.121964,70.7779805 262.061895,72.3919713 263.496554,75.8181152 C264.931212,79.244259 263.317221,83.1841899 259.891078,84.6188484 L50.0650984,172.485405 C45.3674885,173.905717 42.3439457,171.456934 41.2643652,168.879929 Z" id="Path"></path>
                    <path d="M54.3098942,200.032642 C52.8752357,196.606498 54.4892266,192.666567 57.9153704,191.231908 L154.683086,150.709979 C158.10923,149.277114 162.049161,150.889311 163.48382,154.315455 C164.918478,157.741599 163.304487,161.68153 159.878343,163.116188 L63.1106275,203.638118 C58.6120764,205.315772 55.3894748,202.610544 54.3098942,200.032642 Z" id="Path"></path>
                </g>
            </g>
        </g>
    </g>
</svg>