<?xml version="1.0" encoding="UTF-8"?>
<svg width="171px" height="46px" viewBox="0 0 171 46" version="1.1" xmlns="http://www.w3.org/2000/svg" xmlns:xlink="http://www.w3.org/1999/xlink">
    <title>moro-logo</title>
    <g id="Page-1" stroke="none" stroke-width="1" fill="none" fill-rule="evenodd">
        <g id="moro-logo" fill-rule="nonzero">
            <g id="Group" transform="translate(44.000000, 0.000000)" fill="#7EC242">
                <path d="M17.08,39.73 C11.0323655,36.1467335 7.27972704,29.6796923 7.1695861,22.6510686 C7.05944516,15.6224449 10.6076093,9.04099764 16.54,5.27 C17.0941976,4.92972799 17.2686187,4.20520926 16.93,3.65 L16.84,3.52 L14.35,0.43 C13.9767461,-0.0270261742 13.323271,-0.13807424 12.82,0.17 C5.10137721,5.01669862 0.460287569,13.5300703 0.568465759,22.6435725 C0.676643949,31.7570747 5.51850661,40.1578828 13.35,44.82 C13.5342474,44.9307204 13.7450446,44.9894672 13.96,44.990006 C14.3126342,44.991127 14.646967,44.8331455 14.87,44.56 L17.4,41.46 C17.7956375,40.9552509 17.7156987,40.2269195 17.22,39.82 L17.06,39.71" id="Path"></path>
                <path d="M40.29,0.17 C39.786729,-0.13807424 39.1332539,-0.0270261742 38.76,0.43 L36.24,3.52 C35.8285843,4.02535143 35.9046929,4.76852982 36.41,5.18 L36.54,5.27 C42.4723907,9.04099764 46.0205548,15.6224449 45.9104139,22.6510686 C45.800273,29.6796923 42.0476345,36.1467335 36,39.73 C35.7264091,39.8834275 35.525165,40.1394733 35.440728,40.44157 C35.3562911,40.7436666 35.3956107,41.0669507 35.55,41.34 L35.66,41.5 L38.19,44.6 C38.413033,44.8731455 38.7473658,45.031127 39.1,45.030006 C39.3149554,45.0294672 39.5257526,44.9707204 39.71,44.86 C47.5504442,40.1974446 52.4027341,31.7937587 52.5210864,22.672466 C52.6394388,13.5511733 48.006828,5.02441705 40.29,0.16" id="Path"></path>
            </g>
            <g id="Group" transform="translate(0.000000, 3.000000)" fill="#FFFFFF">
                <path d="M128.3,37.29 L122.35,37.29 C121.965779,37.3100038 121.604155,37.1078054 121.42,36.77 L113.59,24.69 L110.59,24.69 L110.59,36.52 C110.603725,36.7137159 110.539696,36.9049162 110.412079,37.0513 C110.284463,37.1976838 110.103778,37.2871841 109.91,37.3 L104.35,37.3 C104.138881,37.3150312 103.931631,37.2376929 103.781969,37.0880312 C103.632307,36.9383694 103.554969,36.7311193 103.57,36.52 L103.57,1.82 C103.556275,1.62628413 103.620304,1.43508375 103.747921,1.28869998 C103.875537,1.14231621 104.056222,1.05281588 104.25,1.04 L115.08,1.04 C123.63,1.04 128.24,5.96 128.24,12.86 C128.24,18.1 125.6,22.19 120.62,23.86 L128.86,36.35 C129.22,36.92 128.96,37.28 128.34,37.28 M110.62,18.38 L114.87,18.38 C118.19,18.38 121.4,17.08 121.4,12.83 C121.4,8.58 118.19,7.29 114.87,7.29 L110.62,7.29 L110.62,18.38 Z" id="Shape"></path>
                <path d="M133.35,19.31 C133.35,9.00436657 141.704367,0.65 152.01,0.65 C162.315633,0.65 170.67,9.00436657 170.67,19.31 C170.67,29.6156334 162.315633,37.97 152.01,37.97 C141.704367,37.97 133.35,29.6156334 133.35,19.31 L133.35,19.31 M163.57,19.31 C163.503969,12.9438272 158.307051,7.8271395 151.940622,7.8599967 C145.574192,7.89317166 140.430622,13.0634848 140.430622,19.43 C140.430622,25.7965152 145.574192,30.9668283 151.940622,31.0000033 C158.307051,31.0328605 163.503969,25.9161728 163.57,19.55 C163.57,19.47 163.57,19.39 163.57,19.31" id="Shape"></path>
                <path d="M37.89,1.82 L37.89,36.52 C37.9037248,36.7137159 37.8396961,36.9049162 37.7120794,37.0513 C37.5844628,37.1976838 37.4037781,37.2871841 37.21,37.3 L31.56,37.3 C31.3488807,37.3150312 31.1416306,37.2376929 30.9919688,37.0880312 C30.8423071,36.9383694 30.7649688,36.7311193 30.78,36.52 L30.78,15.89 L22.35,36.67 C22.1952126,37.0467941 21.8273435,37.2920401 21.42,37.29 L16.42,37.29 C16.0126565,37.2920401 15.6447874,37.0467941 15.49,36.67 L7.09,15.89 L7.09,36.52 C7.10090025,36.7163325 7.03321148,36.9089304 6.90187715,37.0552744 C6.77054282,37.2016183 6.5863635,37.2896734 6.39,37.3 L0.78,37.3 C0.568880742,37.3150312 0.36163057,37.2376929 0.211968818,37.0880312 C0.0623070667,36.9383694 -0.0150312475,36.7311193 -3.55293052e-15,36.52 L-3.55293052e-15,1.82 C-0.0137248089,1.62628413 0.0503039461,1.43508375 0.177920567,1.28869998 C0.305537188,1.14231621 0.48622187,1.05281588 0.68,1.04 L7.15,1.04 C7.53779013,1.00393603 7.90765775,1.21074373 8.08,1.56 L18.97,29.16 L29.8,1.53 C29.9723423,1.18074373 30.3422099,0.973936029 30.73,1.01 L37.1,1.01 C37.3111193,0.994968752 37.5183694,1.07230707 37.6680312,1.22196882 C37.8176929,1.37163057 37.8950312,1.57888074 37.88,1.79" id="Path"></path>
            </g>
        </g>
    </g>
</svg>