<svg width="92" height="67" viewBox="0 0 92 67" xmlns="http://www.w3.org/2000/svg"><g transform="translate(1)" fill="none" fill-rule="evenodd"><path stroke="#7176C4" fill="#FFF" stroke-linecap="round" stroke-linejoin="round" d="M77.196 59.682l-2.284-3.27 5.511-3.86 5.002 7.144"/><path fill="#DBDBF3" d="M76.243 56.064l3.99-2.793 4.646 6.636-5.915.044z"/><path fill="#FFF" d="M78.846 54.252l.926-.649 3.96 5.657-.925.648zM77.773 54.998l.819-.573 3.461 4.943-.819.574z"/><path stroke="#7176C4" stroke-linecap="round" stroke-linejoin="round" d="M68.863 59.682h18.511"/><path stroke="#FFF" stroke-linecap="round" stroke-linejoin="round" d="M58.377 35.73h0M69.252 35.73h0"/><path fill="#DBDBF3" d="M13.112 18.16h5.904l-.758 35.917-2.194 3.544-2.952 2.061z"/><path d="M15.677 18.16H4v34.26a7.262 7.262 0 1014.525 0V18.203h0V2.499h50.728v48.183a9 9 0 01-9 9H18.525M.326 66.317h24.253M28.688 66.317h10.86" stroke="#7176C4" stroke-linecap="round" stroke-linejoin="round"/><g stroke="#BCBCE2" stroke-linecap="round" stroke-linejoin="round"><path d="M73.705 24.132a18.131 18.131 0 018.923 9.319M74.27 21.113c.4.2.795.413 1.182.638m1.443.912a21.96 21.96 0 013.622 3.122"/></g><path fill="#AAAAE2" opacity=".5" d="M26.028 37.954h36V36.13h-36zM26.028 32.954h36V31.13h-36z"/><path fill-opacity=".5" fill="#DBDBF3" d="M26.028 42.954h36V41.13h-36zM26.028 47.977h18v-1.823h-18z"/><path fill="#AAAAE2" opacity=".5" d="M26.028 11.954h33V10.13h-33z"/><path fill-opacity=".5" fill="#DBDBF3" d="M26.028 16.954h33V15.13h-33zM26.028 21.977h18v-1.823h-18z"/><path fill="#AAAAE2" opacity=".5" d="M7.551 26.954h7V25.13h-7z"/><path fill-opacity=".5" fill="#DBDBF3" d="M7.551 31.954h7V30.13h-7z"/><path stroke="#7176C4" fill="#FFF" stroke-linecap="round" stroke-linejoin="round" d="M70.658 47.844l3.277-2.294 5.725 8.176-3.276 2.295z"/><path fill-opacity=".3" fill="#7176C4" d="M71.218 49.319l3.898-2.73 1.98 2.83-3.897 2.728z"/><path d="M65.459 54.077c1.146 0 2.257-.148 3.316-.425.088-25.227.088-24.887.088-25.227a13.067 13.067 0 00-3.404-.448c-7.208 0-13.05 5.842-13.05 13.05 0 7.207 5.842 13.05 13.05 13.05z" fill-opacity=".3" fill="#BCBCE2"/><circle stroke="#7176C4" fill="#FFF" stroke-linecap="round" stroke-linejoin="round" cx="66.99" cy="39.431" r="11.302"/><path fill-opacity=".5" fill="#DBDBF3" d="M7.551 36.977h5v-1.823h-5z"/><circle fill="#DBDBF3" cx="67.262" cy="39.704" r="10.489"/><circle fill="#FFF" cx="66.99" cy="39.431" r="8.127"/><path d="M75.117 39.431c0-.687-.086-1.355-.246-1.992m-.685-1.788a8.127 8.127 0 10-7.196 11.907h0M74.157 48.63l1.29 1.815m1.013 1.424l.253.357" stroke="#7176C4" fill="#FFF" stroke-linecap="round" stroke-linejoin="round"/><circle fill="#EDEDF9" cx="67.829" cy="35.959" r="2.829"/><circle fill="#EDEDF9" cx="71.75" cy="39.959" r="1.171"/><path d="M81.1 3.05a3.05 3.05 0 11-6.099.001A3.05 3.05 0 0181.1 3.05M90.527 47.764a1.764 1.764 0 11-3.529 0 1.764 1.764 0 013.529 0" fill-opacity=".5" fill="#DBDBF3"/><path fill="#DBDBF3" d="M10.228 9.457L7 6.228 10.228 3l3.229 3.228z"/></g></svg>