<svg xmlns="http://www.w3.org/2000/svg" viewBox="0 0 192 192"><defs><style>.cls-1{fill:none;}.cls-2{fill:#39b2c2;}</style></defs><g id="trim_area" data-name="trim area"><g id="Filter"><rect class="cls-1" width="192" height="192"/><path class="cls-2" d="M160.65,47.34,144.38,31.07a14.14,14.14,0,0,0-20,0L36.18,119.31l-8.69,37a6.57,6.57,0,0,0,1.75,6.19l2.64,2.59,40.53-9.53L160.65,67.3A14.14,14.14,0,0,0,160.65,47.34ZM65.81,143.69l-23.25,5.47L48,125.91l63.53-63.52,17.78,17.78Zm85.62-85.62L138.56,71,120.78,53.17l12.87-12.88a1.05,1.05,0,0,1,1.5,0l16.28,16.28A1.05,1.05,0,0,1,151.43,58.07Z"/></g></g></svg>
