<?xml version="1.0" encoding="UTF-8"?>
<svg width="13px" height="12px" viewBox="0 0 13 12" version="1.1" xmlns="http://www.w3.org/2000/svg" xmlns:xlink="http://www.w3.org/1999/xlink">
    <!-- Generator: Sketch 51.2 (57519) - http://www.bohemiancoding.com/sketch -->
    <title>Group 8 Copy</title>
    <desc>Created with Sketch.</desc>
    <defs></defs>
    <g id="Page-1" stroke="none" stroke-width="1" fill="none" fill-rule="evenodd">
        <g id="Add-Derivation-Build-in-function" transform="translate(-880.000000, -210.000000)" stroke="#39B2C2">
            <g id="Group-8-Copy" transform="translate(880.000000, 210.000000)">
                <path d="M4.04545455,1 L4.04545455,10.8181818 C4.04545455,11.0943242 4.26931217,11.3181818 4.54545455,11.3181818 L12,11.3181818 C12.2761424,11.3181818 12.5,11.0943242 12.5,10.8181818 L12.5,1 C12.5,0.723857625 12.2761424,0.5 12,0.5 L4.54545455,0.5 C4.26931217,0.5 4.04545455,0.723857625 4.04545455,1 Z" id="Rectangle-7"></path>
                <g id="arrow-pointing-to-right-(1)-copy" transform="translate(0.590909, 2.954545)" fill="#39B2C2" fill-rule="nonzero" stroke-width="0.15">
                    <path d="M7.8797904,3.65477944 L0.372894591,3.65477944 C0.123162215,3.65477944 -0.075,3.42829583 -0.075,3.15361421 C-0.075,2.87890949 0.12315296,2.65244897 0.372894591,2.65244897 L7.87978669,2.65244897 L6.23867649,0.776894518 C6.06829645,0.582174474 6.06829645,0.270138947 6.23867649,0.075418904 C6.41416522,-0.125139635 6.70343672,-0.125139635 6.87892544,0.075418904 L9.26545083,2.8028764 C9.43583087,2.99759645 9.43583087,3.30963197 9.26545144,3.50435132 L6.87896504,6.23183244 C6.79395205,6.32891053 6.67892022,6.38223694 6.55886063,6.38223694 C6.43878831,6.38223694 6.32372582,6.32890075 6.23873616,6.23180951 C6.06835611,6.03708947 6.06835611,5.72505394 6.23873532,5.53033485 L7.8797904,3.65477944 Z" id="Shape"></path>
                </g>
            </g>
        </g>
    </g>
</svg>