
<svg width="492px" height="492px" viewBox="0 0 492 492" version="1.1" xmlns="http://www.w3.org/2000/svg" xmlns:xlink="http://www.w3.org/1999/xlink">
    <path d="M465.167,211.614 L280.245,211.614 L280.245,26.691 C280.245,18.267 268.806,0.001 245.929,0.001 C223.052,0.001 211.613,18.268 211.613,26.691 L211.613,211.615 L26.69,211.615 C18.267,211.614 0,223.053 0,245.929 C0,268.805 18.267,280.245 26.69,280.245 L211.614,280.245 L211.614,465.169 C211.614,473.591 223.052,491.859 245.93,491.859 C268.808,491.859 280.246,473.591 280.246,465.169 L280.246,280.245 L465.17,280.245 C473.592,280.245 491.86,268.807 491.86,245.929 C491.86,223.051 473.59,211.614 465.167,211.614 Z" id="Shape"></path>
</svg>
