<?xml version="1.0" encoding="UTF-8"?>
<svg width="512px" height="512px" viewBox="0 0 512 512" version="1.1" xmlns="http://www.w3.org/2000/svg" xmlns:xlink="http://www.w3.org/1999/xlink">
    <!-- Generator: Sketch 59 (86127) - https://sketch.com -->
    <title>multi-line</title>
    <desc>Created with Sketch.</desc>
    <g id="multi-line" stroke="none" stroke-width="1" fill="none" fill-rule="evenodd">
        <g transform="translate(0.000000, 102.000000)" fill="#000000" fill-rule="nonzero" id="Shape">
            <path d="M51.2,0.4 L460.8,0.4 C489.077,0.4 512,23.323 512,51.6 L512,256.4 C512,284.677 489.077,307.6 460.8,307.6 L51.2,307.6 C22.923,307.6 0,284.677 0,256.4 L0,51.6 C0,23.323 22.923,0.4 51.2,0.4 Z M51.2,34.533 C41.774,34.533 34.133,42.174 34.133,51.6 L34.133,256.4 C34.133,265.826 41.774,273.467 51.2,273.467 L460.8,273.467 C470.226,273.467 477.867,265.826 477.867,256.4 L477.867,51.6 C477.867,42.174 470.226,34.533 460.8,34.533 L51.2,34.533 Z M68.267,85.733 C68.267,76.308 75.907,68.667 85.333,68.667 C94.759,68.667 102.4,76.307 102.4,85.733 L102.4,222.267 C102.4,231.692 94.759,239.333 85.333,239.333 C75.908,239.333 68.267,231.693 68.267,222.267 L68.267,85.733 Z M392.587,205.2 L409.6,205.2 L409.6,188.133 C409.6,178.708 417.241,171.067 426.667,171.067 C436.092,171.067 443.733,178.707 443.733,188.133 L443.733,222.267 C443.733,231.692 436.093,239.333 426.667,239.333 L392.587,239.333 C383.161,239.333 375.52,231.693 375.52,222.267 C375.52,212.841 383.161,205.2 392.587,205.2 L392.587,205.2 Z"></path>
        </g>
    </g>
</svg>