<?xml version="1.0" encoding="UTF-8"?>
<svg width="19px" height="18px" viewBox="0 0 50 50" version="1.1" xmlns="http://www.w3.org/2000/svg" xmlns:xlink="http://www.w3.org/1999/xlink">
    <g id="logout-icon-50x50-FINAL" stroke="none" stroke-width="1" fill="none" fill-rule="evenodd">
        <g id="logout-icon-copy-2" fill="#DD6160" fill-rule="nonzero">
            <path d="M45.564501,0.00030579254 C47.946584,0.00030579254 49.8905302,1.87619249 49.9996683,4.23129456 L50.004501,4.44030579 L50.004501,45.781702 C50.004501,48.163785 48.1286143,50.1077312 45.7735122,50.2168693 L45.542255,50.2216463 L1.30441414,49.9999963 C0.578168808,49.9963575 -0.00761953374,49.4046695 -0.00399760409,48.6784242 C-0.000569376636,47.9975692 0.519682103,47.4401627 1.18310793,47.3761448 L1.31759136,47.3700293 L45.5554323,47.5916793 C46.5137012,47.5917009 47.2929687,46.8603479 47.3684998,45.9301501 L47.374501,45.781702 L47.374501,4.44030579 C47.374501,3.49065217 46.6431469,2.71181543 45.7129491,2.63630589 L45.564501,2.63030579 L1.31342665,2.63030579 C0.5871722,2.63030579 -0.00157335354,2.04156024 -0.00157335354,1.31530579 C-0.00157335354,0.634442249 0.515878794,0.0744361309 1.17897554,0.0070949893 L1.31342665,0.00030579254 L45.564501,0.00030579254 Z M25.890196,11.9647823 L25.9980777,12.0593936 L39.3074129,25.0624157 L25.9759273,37.4937121 C25.4447682,37.9890055 24.612664,37.9599305 24.1173706,37.4287714 C23.6550968,36.9330229 23.6496061,36.1751178 24.0827806,35.6735753 L24.1823113,35.5702148 L34.0639857,26.3543058 L9,26.3552412 C8.27374555,26.3552412 7.685,25.7664956 7.685,25.0402412 C7.685,24.3593776 8.20245215,23.7993715 8.86554889,23.7320304 L9,23.7252412 L34.1759857,23.7243058 L24.1601609,13.9406064 C23.6753105,13.4669148 23.6345442,12.710087 24.0439016,12.1889233 L24.1385129,12.0810416 C24.6122045,11.5961912 25.3690323,11.5554249 25.890196,11.9647823 Z" id="Combined-Shape"></path>
        </g>
    </g>
</svg>
