<?xml version="1.0" encoding="UTF-8"?>
<svg width="15px" height="22px" viewBox="0 0 15 22" version="1.1" xmlns="http://www.w3.org/2000/svg" xmlns:xlink="http://www.w3.org/1999/xlink">
    <!-- Generator: Sketch 63.1 (92452) - https://sketch.com -->
    <title>mobile-view</title>
    <desc>Created with Sketch.</desc>
    <g id="Page-1" stroke="none" stroke-width="1" fill="none" fill-rule="evenodd">
        <g id="01-roles-default" transform="translate(-1395.000000, -84.000000)" fill="#808080">
            <g id="Group-4" transform="translate(290.000000, 0.000000)">
                <g id="Group-8" transform="translate(0.000000, 23.000000)">
                    <g id="Group-13" transform="translate(990.000000, 50.000000)">
                        <g id="Group-15" transform="translate(11.000000, 11.063361)">
                            <path d="M115.672437,4.61852778e-14 C117.192799,4.61852778e-14 118.434428,1.24162896 118.434428,2.76199095 L118.434428,2.76199095 L118.434428,18.8271493 C118.434428,20.3475113 117.192799,21.5891403 115.672437,21.5891403 L115.672437,21.5891403 L107.234428,21.5891403 C105.714066,21.5891403 104.497839,20.3475113 104.4725,18.8271493 L104.4725,18.8271493 L104.4725,2.76199095 C104.4725,1.24162896 105.714066,4.61852778e-14 107.234428,4.61852778e-14 L107.234428,4.61852778e-14 Z M117.522274,18.4723348 L105.359378,18.4723348 L105.359378,18.8271493 C105.359378,19.866 106.195514,20.7022624 107.234428,20.7022624 L107.234428,20.7022624 L115.697839,20.7022624 C116.711414,20.7022624 117.54755,19.866 117.522274,18.8271493 L117.522274,18.8271493 L117.522274,18.4723348 Z M111.466133,18.7257665 C111.947581,18.7257665 112.327672,19.105857 112.327672,19.587305 C112.327672,20.0687529 111.947581,20.4488434 111.466133,20.4488434 C110.984686,20.4488434 110.604595,20.0687529 110.604595,19.587305 C110.604595,19.105857 110.984686,18.7257665 111.466133,18.7257665 Z M117.54755,4.02895928 L105.384654,4.02895928 L105.384654,17.560181 L117.54755,17.560181 L117.54755,4.02895928 Z M115.672437,0.886877828 L107.234428,0.886877828 C106.220853,0.886877828 105.384717,1.72307692 105.384717,2.76199095 L105.384717,2.76199095 L105.384717,3.11674208 L117.54755,3.11674208 L117.54755,2.76199095 C117.54755,1.72307692 116.711414,0.886877828 115.672437,0.886877828 L115.672437,0.886877828 Z" id="mobile-view"></path>
                        </g>
                    </g>
                </g>
            </g>
        </g>
    </g>
</svg>