<svg xmlns="http://www.w3.org/2000/svg" xmlns:xlink="http://www.w3.org/1999/xlink" viewBox="0 0 192 192"><defs><style>.cls-1,.cls-3{fill:none;}.cls-1{clip-rule:evenodd;}.cls-2{clip-path:url(#clip-path);}.cls-4{fill:#334056;}</style><clipPath id="clip-path"><path class="cls-1" d="M-119.54-1411v-45c0-27.66-14.77-50.82-40.54-57v-6.12a13.5,13.5,0,0,0-13.52-13.52,13.49,13.49,0,0,0-13.51,13.52v6.12c-25.86,6.13-40.55,29.2-40.55,57v45l-18,18v9h144.16v-9Zm-54.06,54.06a18.07,18.07,0,0,0,18-18h-36A18,18,0,0,0-173.6-1356.91Z"/></clipPath></defs><g id="trim_area" data-name="trim area"><rect class="cls-3" x="0.79" y="-0.27" width="191.71" height="191.71"/><path class="cls-4" d="M158.91,177.37H34.39a19.62,19.62,0,0,1-19.6-19.6V33.25a19.62,19.62,0,0,1,19.6-19.6H158.91a19.62,19.62,0,0,1,19.6,19.6V157.77A19.62,19.62,0,0,1,158.91,177.37ZM34.39,25.65a7.61,7.61,0,0,0-7.6,7.6V157.77a7.61,7.61,0,0,0,7.6,7.6H158.91a7.61,7.61,0,0,0,7.6-7.6V33.25a7.61,7.61,0,0,0-7.6-7.6Z"/><path class="cls-4" d="M140.14,90.61a6,6,0,0,1,6,6v38.05a9.92,9.92,0,0,1-9.91,9.89h-38a6,6,0,1,1,0-12h27.46L59.93,66.83V94.29a6,6,0,1,1-12,0V56.24a9.9,9.9,0,0,1,9.9-9.9H95.88a6,6,0,1,1,0,12H68.42l65.72,65.73V96.6A6,6,0,0,1,140.14,90.61Z"/></g></svg>