<svg viewBox="0 0 512 512" xmlns="http://www.w3.org/2000/svg">
  <g fill-rule="evenodd">
    <path d="M20 59h472c11.046 0 20 8.954 20 20v65.75c0 11.046-8.954 20-20 20H20c-11.046 0-20-8.954-20-20V79c0-11.046 8.954-20 20-20zm9.676 29.676v46.398h452.648V88.676H29.676z" fill-rule="nonzero"/>
    <path d="M29 67.46h362.667v84.6H29z"/>
    <path d="M20 198.59h472c11.046 0 20 8.954 20 20v65.75c0 11.046-8.954 20-20 20H20c-11.046 0-20-8.954-20-20v-65.75c0-11.046 8.954-20 20-20zm9.676 76.074h452.648v-46.398H29.676v46.398z" fill-rule="nonzero"/>
    <path d="M20 207.05h170.667v84.6H20z"/>
    <path d="M20 338.18h472c11.046 0 20 8.954 20 20v65.75c0 11.046-8.954 20-20 20H20c-11.046 0-20-8.954-20-20v-65.75c0-11.046 8.954-20 20-20zm9.676 29.676v46.398h452.648v-46.398H29.676z" fill-rule="nonzero"/>
    <path d="M20 346.64h298.667v84.6H20z"/>
  </g>
</svg>
