<?xml version="1.0" encoding="UTF-8"?>
<svg width="22px" height="21px" viewBox="0 0 22 21" version="1.1" xmlns="http://www.w3.org/2000/svg" xmlns:xlink="http://www.w3.org/1999/xlink">
    <!-- Generator: Sketch 63.1 (92452) - https://sketch.com -->
    <title>alarm</title>
    <desc>Created with Sketch.</desc>
    <g id="Page-1" stroke="none" stroke-width="1" fill="none" fill-rule="evenodd">
        <g id="Site_Summary1.1" transform="translate(-746.000000, -726.000000)" fill="#000000" fill-rule="nonzero">
            <g id="Group-8" transform="translate(729.000000, 726.000000)">
                <g id="alarm" transform="translate(17.000000, 0.000000)">
                    <path d="M16.0639374,10.7409709 L16.0639374,9.24772707 C16.0639374,6.87236689 14.4300805,4.87893065 12.2250112,4.3290783 L12.2250112,2.81147204 C12.2250112,2.13193289 11.6741253,1.58104698 10.9945861,1.58104698 C10.315047,1.58104698 9.76416107,2.13193289 9.76416107,2.81147204 L9.76416107,4.32902908 C7.55909172,4.87888143 5.9252349,6.87236689 5.9252349,9.24767785 L5.9252349,10.7409217 C5.9252349,12.3373736 5.29102461,13.8684653 4.16218345,14.9973557 C3.66597763,15.4935615 3.51753915,16.2397897 3.78606711,16.8881253 C4.05459508,17.5364609 4.68723043,17.9591365 5.38896644,17.9591365 L8.4477047,17.9591365 C8.4477047,19.3657092 9.58796421,20.5059687 10.9945369,20.5059687 C12.4011096,20.5059687 13.5413691,19.3657092 13.5413691,17.9591365 L16.6001074,17.9591365 C17.3018434,17.9591365 17.9344787,17.5364116 18.2030067,16.8881253 C18.4715347,16.2397897 18.3230962,15.4935615 17.8268904,14.9973557 C16.6980984,13.8685145 16.0639374,12.3374228 16.0639374,10.7409709 Z M10.9945861,19.0294586 C10.4043758,19.0294586 9.92426398,18.5492975 9.92426398,17.9591365 L12.0649575,17.9591365 C12.0649083,18.5493468 11.5847472,19.0294586 10.9945861,19.0294586 Z M16.8389575,16.3230649 C16.7987964,16.4199732 16.7050872,16.4826264 16.6001566,16.4826264 L5.38896644,16.4826264 C5.28403579,16.4826264 5.19032662,16.4200224 5.15016555,16.3231141 C5.11000447,16.2262058 5.13200447,16.1156152 5.2061745,16.0414452 C6.622,14.6256689 7.40169575,12.7432662 7.40169575,10.7409709 L7.40169575,9.24772707 C7.40169575,7.2666443 9.01345414,5.65488591 10.9945369,5.65488591 C12.9756197,5.65488591 14.5873781,7.2666443 14.5873781,9.24772707 L14.5873781,10.7409709 C14.5873781,12.743217 15.3670738,14.6256197 16.7828993,16.0414452 C16.8571186,16.1156152 16.8791186,16.2261566 16.8389575,16.3230649 Z" id="Shape"></path>
                    <path d="M4.23984787,10.7325056 C4.62580761,10.601047 4.83212528,10.1816197 4.70061745,9.79565996 C3.88563311,7.40292617 5.16921253,4.79329306 7.56194631,3.97825951 C7.94790604,3.84680089 8.15422371,3.4273736 8.02271588,3.04141387 C7.89125727,2.65545414 7.47182998,2.44903803 7.08587025,2.5806443 C3.92249664,3.65810291 2.22549441,7.10836242 3.30295302,10.271736 C3.40753915,10.5788009 3.69442506,10.7721253 4.0016868,10.7721253 C4.08068009,10.7721253 4.16100224,10.7593781 4.23984787,10.7325056 Z" id="Path"></path>
                    <path d="M6.40204922,1.44776734 C6.78800895,1.31630872 6.99432662,0.896881432 6.86286801,0.5109217 C6.73136018,0.124961969 6.31193289,-0.0814541387 5.92597315,0.0501521253 C1.36158837,1.60476957 -1.08700671,6.58302013 0.467709172,11.1474541 C0.572295302,11.454519 0.859181208,11.6478434 1.16644295,11.6478434 C1.24538702,11.6478434 1.32565996,11.6350962 1.40455481,11.6082237 C1.79051454,11.4767651 1.99683221,11.0573378 1.86532438,10.6713781 C0.573181208,6.87768233 2.60830425,2.73995973 6.40204922,1.44776734 Z" id="Path"></path>
                    <path d="M14.9032036,2.5806443 C14.5171946,2.44908725 14.0978166,2.65550336 13.9663579,3.04141387 C13.8348993,3.4273736 14.041217,3.84680089 14.4271275,3.97825951 C16.8198613,4.79329306 18.1034407,7.40292617 17.2885056,9.79565996 C17.157047,10.1816197 17.3633154,10.601047 17.7492752,10.7325056 C17.82817,10.7593781 17.908443,10.7721253 17.987387,10.7721253 C18.2946488,10.7721253 18.5815347,10.5787517 18.6861208,10.271736 C19.7636286,7.10836242 18.0665772,3.65810291 14.9032036,2.5806443 Z" id="Path"></path>
                    <path d="M21.0906174,4.4683132 C20.0596689,2.37230872 18.2742237,0.803221477 16.0631499,0.0501029083 C15.6771409,-0.0815033557 15.2577629,0.124912752 15.1263043,0.510872483 C14.9948456,0.896832215 15.2011633,1.31625951 15.5870738,1.44771812 C17.4248367,2.07370917 18.9088277,3.37781208 19.7656957,5.11994631 C20.6225638,6.86208054 20.7497405,8.83361521 20.1237494,10.6713289 C19.9922908,11.0572886 20.1986085,11.4767159 20.584519,11.6081745 C20.6634139,11.635047 20.7436868,11.6477942 20.8226309,11.6477942 C21.1298926,11.6477942 21.4167785,11.4544206 21.5213647,11.1474049 C22.2745324,8.93638031 22.121566,6.56431767 21.0906174,4.4683132 Z" id="Path"></path>
                </g>
            </g>
        </g>
    </g>
</svg>