<svg id="Layer_1" data-name="Layer 1" xmlns="http://www.w3.org/2000/svg" viewBox="0 0 50 50"><defs><style>.cls-1{fill-rule:evenodd;}</style></defs><path id="Combined-Shape" class="cls-1" d="M20.47,0A4.45,4.45,0,0,1,25,4.33V45.67A4.45,4.45,0,0,1,20.47,50H4.56A4.45,4.45,0,0,1,0,45.67V4.33A4.45,4.45,0,0,1,4.56,0ZM18.65,26.92a1.93,1.93,0,1,0,2,1.93A2,2,0,0,0,18.65,26.92Zm2-7.69H4.35v3.85H20.67Zm0-7.69H4.35v3.84H20.67Z"/><path id="Combined-Shape-2" data-name="Combined-Shape" class="cls-1" d="M45.44,0A4.45,4.45,0,0,1,50,4.33V45.67A4.45,4.45,0,0,1,45.44,50H29.53A4.45,4.45,0,0,1,25,45.67V4.33A4.45,4.45,0,0,1,29.53,0ZM43.63,26.92a1.93,1.93,0,1,0,2,1.93A2,2,0,0,0,43.63,26.92Zm2-7.69H29.33v3.85H45.65Zm0-7.69H29.33v3.84H45.65Z"/></svg>