<svg width="18" height="16" viewBox="0 0 18 16" xmlns="http://www.w3.org/2000/svg">
    <g fill-rule="nonzero" fill="none">
        <path fill="none" d="M0 0h17.455v16H0z"/>
        <path d="M14.466.533H2.988C1.661.533.582 1.571.582 2.845v2.291c0 1.246 1.034 2.185 2.406 2.185h7.22v5.834c0 1.272 1.08 2.312 2.407 2.312h1.851c1.327 0 2.407-1.037 2.407-2.312V2.845c0-1.274-1.08-2.312-2.407-2.312zm.555 12.622c0 .339-.25.615-.555.615h-1.851c-.307 0-.555-.276-.555-.615V6.918c0-.713-.582-1.294-1.296-1.294H2.988c-.13 0-.555-.035-.555-.488v-2.29c0-.34.249-.616.555-.616h11.478c.306 0 .555.277.555.615v10.31z" fill="#FC436D"/>
        <path d="M8.118 8h-.007c-.56.003-1.085.25-1.418.667H4.36A1.83 1.83 0 0 0 2.936 8c-.99.015-1.781.767-1.772 1.684v3.032c-.008.919.786 1.671 1.778 1.684h5.176c.99-.015 1.781-.767 1.773-1.684V9.69C9.902 8.77 9.11 8.016 8.118 8zm-1.783 2.351v.68H4.72v-.68h1.616zm2.101-.667v3.032c.01.175-.134.326-.323.337H2.942a.355.355 0 0 1-.237-.107.304.304 0 0 1-.087-.23V9.684c-.01-.175.134-.326.324-.337.189.012.332.162.323.337v2.358a.304.304 0 0 0 .086.23c.06.064.146.102.237.107h3.878c.19-.01.334-.161.324-.337V9.684a.293.293 0 0 1 .143-.29.347.347 0 0 1 .344-.01c.107.059.17.169.16.283v.017z" fill="#FC436D"/>
    </g>
</svg>
