<svg width="18" height="18" viewBox="0 0 18 18" xmlns="http://www.w3.org/2000/svg">
    <g fill="none" fill-rule="evenodd">
        <path d="M16.045 2.46H1.955c-.469 0-.849.414-.849.925 0 .512.38.926.85.926h.848v10.74c0 .512.38.927.849.927s.849-.415.849-.926V4.312h3.65v5.8c0 .745.554 1.35 1.238 1.351h4.108v3.59c0 .511.38.926.85.926.468 0 .848-.415.848-.926V4.312h.849c.469 0 .849-.415.849-.926 0-.511-.38-.926-.85-.926zm-2.547 7.15h-3.65V7.89h3.65V9.61zm0-3.573h-3.65V4.311h3.65v1.726z" fill="#FFF" fill-rule="nonzero"/>
        <path d="M12.473 5.173c0 .23-.171.416-.382.417h-1.005c-.21 0-.382-.187-.382-.417 0-.23.171-.417.382-.417h1.005c.102 0 .199.044.27.123a.437.437 0 0 1 .112.294zM12.473 8.748c0 .23-.171.416-.382.417h-1.005c-.21 0-.382-.187-.382-.417 0-.23.171-.417.382-.417h1.005c.211 0 .382.187.382.417z" fill="#FFF" fill-rule="nonzero"/>
        <path d="M.852.111h16.296V17.89H.852z"/>
    </g>
</svg>
