<?xml version="1.0" encoding="UTF-8"?>
<svg width="17px" height="18px" viewBox="0 0 17 18" version="1.1" xmlns="http://www.w3.org/2000/svg" xmlns:xlink="http://www.w3.org/1999/xlink">
    <title>hot-desk2</title>
    <g id="Page-1" stroke="none" stroke-width="1" fill="none" fill-rule="evenodd">
        <g id="hot-desk2">
            <path d="M15.193,2.349 L1.103,2.349 C0.634,2.349 0.254,2.763 0.254,3.274 C0.254,3.786 0.634,4.2 1.104,4.2 L1.952,4.2 L1.952,14.94 C1.952,15.452 2.332,15.867 2.801,15.867 C3.27,15.867 3.65,15.452 3.65,14.941 L3.65,4.201 L7.3,4.201 L7.3,10.001 C7.3,10.746 7.854,11.351 8.538,11.352 L12.646,11.352 L12.646,14.942 C12.646,15.453 13.026,15.868 13.496,15.868 C13.964,15.868 14.344,15.453 14.344,14.942 L14.344,4.201 L15.193,4.201 C15.662,4.201 16.042,3.786 16.042,3.275 C16.042,2.764 15.662,2.349 15.192,2.349 L15.193,2.349 Z M12.646,9.499 L8.996,9.499 L8.996,7.779 L12.646,7.779 L12.646,9.499 Z M12.646,5.926 L8.996,5.926 L8.996,4.2 L12.646,4.2 L12.646,5.926 L12.646,5.926 Z" id="Shape" fill="#EE518F" fill-rule="nonzero"></path>
            <path d="M11.621004,5.062 C11.621004,5.292 11.45,5.478 11.239,5.479 L10.234,5.479 C10.024,5.479 9.852,5.292 9.852,5.062 C9.852,4.832 10.023,4.645 10.234,4.645 L11.239,4.645 C11.341,4.645 11.438,4.689 11.509,4.768 C11.5815387,4.84869657 11.6214615,4.95349381 11.621004,5.062 L11.621004,5.062 Z M11.621,8.637 C11.621,8.867 11.45,9.053 11.239,9.054 L10.234,9.054 C10.024,9.054 9.852,8.867 9.852,8.637 C9.852,8.407 10.023,8.22 10.234,8.22 L11.239,8.22 C11.45,8.22 11.621,8.407 11.621,8.637 Z" id="Shape" fill="#EE518F" fill-rule="nonzero"></path>
            <polygon id="Path" points="0 0 16.296 0 16.296 17.779 0 17.779"></polygon>
        </g>
    </g>
</svg>