<?xml version='1.0' encoding='iso-8859-1'?>
<!DOCTYPE svg PUBLIC '-//W3C//DTD SVG 1.1//EN' 'http://www.w3.org/Graphics/SVG/1.1/DTD/svg11.dtd'>
<svg version="1.1" xmlns="http://www.w3.org/2000/svg" viewBox="0 0 297 297" xmlns:xlink="http://www.w3.org/1999/xlink" enable-background="new 0 0 297 297">
  <g>
    <path d="m268.075,77.5c0-1.867-0.501-3.616-1.378-5.122l-16.545-33.089c-1.728-3.456-5.258-5.638-9.121-5.638h-49.902c-4.61-19.274-21.972-33.651-42.639-33.651s-38.029,14.377-42.64,33.651h-49.902c-3.862,0-7.392,2.182-9.121,5.638l-16.825,33.651c-1.581,3.161-1.411,6.915 0.446,9.921 1.808,2.927 4.969,4.724 8.396,4.818l32.275,200.741c0.795,4.944 5.061,8.579 10.067,8.579h134.607c5.007,0 9.273-3.635 10.068-8.579l32.274-200.736c5.512-0.137 9.94-4.639 9.94-10.184zm-119.585-57.105c9.28,3.55271e-15 17.317,5.418 21.118,13.257h-42.237c3.801-7.839 11.839-13.257 21.119-13.257zm-86.239,33.652h172.477l6.629,13.256h-185.734l6.628-13.256zm144.853,222.558h-117.228l-30.372-188.907h177.973l-30.373,188.907z"/>
    <path d="m132.09,162.511c3.415,1.971 7.779,0.803 9.751-2.613l6.999-12.122 6.072,10.518c-3.738-0.438-7.199,2.096-7.86,5.84-0.685,3.883 1.907,7.585 5.79,8.271l16.571,2.924c0.412,0.072 0.826,0.108 1.239,0.108 1.455,0 2.886-0.445 4.094-1.291 1.552-1.086 2.607-2.743 2.937-4.607l2.921-16.57c0.686-3.883-1.907-7.586-5.789-8.27-3.75-0.662-7.299,1.721-8.171,5.36l-11.622-20.128c-1.275-2.209-3.632-3.569-6.182-3.569-2.551,0-4.907,1.36-6.183,3.569l-13.181,22.83c-1.97,3.412-0.8,7.778 2.614,9.75z"/>
    <path d="m173.747,180.148c-3.415,1.971-4.585,6.335-2.614,9.75l6.1,10.566h-9.934c2.551-2.844 2.421-7.216-0.35-9.892-2.834-2.74-7.354-2.661-10.093,0.175l-11.691,12.102c-1.315,1.361-2.036,3.19-2.004,5.083 0.033,1.894 0.816,3.696 2.178,5.012l12.104,11.689c1.387,1.339 3.173,2.004 4.959,2.004 1.868,0 3.734-0.729 5.135-2.179 2.618-2.711 2.655-6.956 0.178-9.718h21.883c2.55,0 4.906-1.36 6.181-3.569 1.275-2.207 1.275-4.928 0.001-7.137l-12.28-21.273c-1.973-3.411-6.338-4.586-9.753-2.613z"/>
    <path d="m107.385,214.741h19.548c3.943,0 7.139-3.195 7.139-7.138s-3.195-7.139-7.139-7.139h-7.184l4.434-7.678c1.054,2.797 3.721,4.627 6.651,4.627 0.57,0 1.151-0.07 1.73-0.215 3.825-0.951 6.153-4.825 5.2-8.651l-4.066-16.328c-0.457-1.836-1.627-3.417-3.249-4.393-1.624-0.976-3.568-1.268-5.404-0.808l-16.328,4.07c-3.825,0.953-6.153,4.827-5.199,8.652 0.953,3.824 4.822,6.153 8.653,5.199l.064-.016-11.033,19.108c-1.274,2.209-1.274,4.93 0,7.138 1.276,2.212 3.632,3.572 6.183,3.572z"/>
  </g>
</svg>
