<?xml version="1.0" encoding="UTF-8"?>
<svg width="49px" height="55px" viewBox="0 0 49 55" version="1.1" xmlns="http://www.w3.org/2000/svg" xmlns:xlink="http://www.w3.org/1999/xlink">
    <!-- Generator: Sketch 51.2 (57519) - http://www.bohemiancoding.com/sketch -->
    <title>alarm</title>
    <desc>Created with Sketch.</desc>
    <defs></defs>
    <g id="Page-1" stroke="none" stroke-width="1" fill="none" fill-rule="evenodd" fill-opacity="0.5">
        <g id="alarm" fill="#6D6C7E" fill-rule="nonzero">
            <path d="M48.376,45.291 C43.716,40.66 41.354,35.179 41.354,29 L41.354,20.006 C41.397,13.149 36.786,8.601 32.824,6.79 C31.689,6.271 30.519,5.871 29.33,5.574 L29.33,5 C29.33,2.243 27.087,0 24.33,0 C21.573,0 19.33,2.243 19.33,5 L19.33,5.661 C18.259,5.95 17.206,6.327 16.184,6.799 C11.805,8.817 7.369,13.681 7.329,20 L7.329,29 C7.329,35.388 5.073,40.869 0.624,45.291 C0.359,45.555 0.263,45.944 0.375,46.301 C0.487,46.658 0.79,46.922 1.159,46.986 L10.65,48.625 C12.418,48.93 14.046,49.18 15.595,49.386 C17.341,52.806 20.768,55 24.512,55 C28.257,55 31.685,52.804 33.429,49.382 C34.972,49.177 36.592,48.928 38.35,48.624 L47.84,46.985 C48.209,46.922 48.511,46.657 48.624,46.3 C48.737,45.944 48.641,45.555 48.376,45.291 Z M21.329,5 C21.329,3.346 22.675,2 24.329,2 C25.983,2 27.329,3.346 27.329,5 L27.329,5.182 C25.336,4.896 23.314,4.908 21.329,5.229 L21.329,5 Z M24.512,53 C21.98,53 19.614,51.742 18.095,49.685 C20.33,49.915 22.416,50.031 24.501,50.031 C26.594,50.031 28.687,49.915 30.931,49.682 C29.411,51.741 27.044,53 24.512,53 Z M38.01,46.653 C36.091,46.984 34.332,47.253 32.67,47.465 C32.668,47.465 32.666,47.465 32.664,47.465 C31.932,47.558 31.22,47.639 30.523,47.709 C30.516,47.71 30.508,47.71 30.501,47.711 C29.864,47.775 29.241,47.826 28.625,47.871 C28.508,47.88 28.392,47.887 28.275,47.895 C27.741,47.93 27.213,47.958 26.688,47.978 C26.58,47.982 26.472,47.988 26.364,47.991 C25.12,48.033 23.893,48.033 22.65,47.992 C22.54,47.988 22.428,47.983 22.318,47.978 C21.8,47.958 21.278,47.931 20.751,47.896 C20.627,47.888 20.503,47.88 20.378,47.871 C19.778,47.828 19.171,47.777 18.55,47.716 C18.528,47.714 18.507,47.712 18.486,47.71 C17.794,47.641 17.087,47.56 16.36,47.468 C16.357,47.468 16.354,47.468 16.351,47.468 C14.683,47.257 12.918,46.986 10.99,46.654 L3.329,45.33 C7.312,40.776 9.329,35.292 9.329,29 L9.329,20.006 C9.363,14.571 13.217,10.369 17.02,8.615 C18.151,8.094 19.324,7.705 20.517,7.432 C20.527,7.43 20.538,7.431 20.548,7.429 C23.012,6.875 25.635,6.85 28.128,7.361 C28.141,7.364 28.154,7.358 28.167,7.36 C29.471,7.632 30.755,8.044 31.992,8.609 C35.681,10.296 39.388,14.47 39.353,20.001 L39.353,29.001 C39.353,35.034 41.528,40.644 45.666,45.332 L38.01,46.653 Z" id="Shape"></path>
            <path d="M30.746,11.338 C26.871,9.567 22.126,9.565 18.277,11.34 C16.082,12.352 12.359,15.313 12.329,19.994 C12.326,20.546 12.77,20.996 13.323,21 C13.325,21 13.327,21 13.329,21 C13.878,21 14.326,20.557 14.329,20.006 C14.352,16.329 17.348,13.971 19.114,13.156 C22.445,11.619 26.56,11.623 29.913,13.156 C30.415,13.386 31.009,13.165 31.239,12.663 C31.469,12.16 31.248,11.567 30.746,11.338 Z" id="Shape"></path>
        </g>
    </g>
</svg>