<?xml version="1.0" encoding="UTF-8"?>
<svg width="100px" height="100px" viewBox="0 0 100 100" version="1.1" xmlns="http://www.w3.org/2000/svg" xmlns:xlink="http://www.w3.org/1999/xlink">
    <!-- Generator: Sketch 52 (66869) - http://www.bohemiancoding.com/sketch -->
    <title>T shaped duct 4</title>
    <desc>Created with Sketch.</desc>
    <defs>
        <linearGradient x1="73.8528983%" y1="0%" x2="73.8528983%" y2="100%" id="linearGradient-1">
            <stop stop-color="#282828" offset="0%"></stop>
            <stop stop-color="#C6D0E1" offset="100%"></stop>
        </linearGradient>
        <linearGradient x1="100%" y1="15.1876786%" x2="0%" y2="15.1876786%" id="linearGradient-2">
            <stop stop-color="#424951" offset="0%"></stop>
            <stop stop-color="#909CAC" offset="100%"></stop>
        </linearGradient>
    </defs>
    <g id="AHU-Illustration" stroke="none" stroke-width="1" fill="none" fill-rule="evenodd">
        <g id="Types-of-Ducts" transform="translate(-949.000000, -615.000000)">
            <g id="T-shaped-duct-4" transform="translate(999.000000, 665.000000) scale(-1, 1) rotate(-90.000000) translate(-999.000000, -665.000000) translate(949.000000, 615.000000)">
                <g id="Group-Copy-12">
                    <polygon id="Path-2-Copy" fill="#5B6777" points="100 0 100 77 0 77 0 0"></polygon>
                    <polygon id="Path-4" fill="url(#linearGradient-1)" opacity="0.5" points="0 0 0 30 100 30 100 0"></polygon>
                    <polygon id="Path-4-Copy" fill="#848E9C" points="-3.17079696e-13 77 -3.17079696e-13 100 100 100 100 77"></polygon>
                </g>
                <g id="Group-2-Copy" transform="translate(50.500000, 65.000000) scale(1, -1) translate(-50.500000, -65.000000) translate(1.000000, 30.000000)">
                    <polygon id="Path-8" fill="#848E9C" points="0.5 23 0.5 4.05009359e-13 22.960088 0"></polygon>
                    <polygon id="Path-8-Copy" fill="url(#linearGradient-2)" points="99 -3.2690517e-13 68.5401216 23.5 68.5401216 -4.54747351e-13"></polygon>
                    <polyline id="Path-9" fill="#5B6777" points="2.84217094e-14 23 22 -2.06057393e-13 69 -3.03809061e-13 69 70 5 70"></polyline>
                </g>
            </g>
        </g>
    </g>
</svg>