<?xml version="1.0" encoding="UTF-8"?><svg id="trim_area" xmlns="http://www.w3.org/2000/svg" xmlns:xlink="http://www.w3.org/1999/xlink" viewBox="0 0 192 192"><defs><style>.cls-1,.cls-2{fill:none;}.cls-3{fill:#334056;}.cls-2{clip-rule:evenodd;}</style><clipPath id="clippath"><path class="cls-2" d="M37.79-5369.58v-45.05c0-27.66-14.78-50.82-40.55-56.94v-6.13c0-7.48-6.04-13.52-13.52-13.52s-13.52,6.04-13.52,13.52v6.13c-25.86,6.13-40.55,29.19-40.55,56.94v45.05l-18.02,18.02v9.01H55.81v-9.01l-18.02-18.02Zm-54.06,54.06c9.91,0,18.02-8.11,18.02-18.02H-34.29c0,9.91,8.02,18.02,18.02,18.02Z"/></clipPath></defs><rect class="cls-1" y="0" width="192" height="192"/><path class="cls-3" d="M46.86,153.37V53.39h-7.94v98.98c0,2.4,.88,4.45,2.69,6.26s3.86,2.69,6.25,2.69H125.46v-7.95H46.86ZM146.98,33.36c-1.81-1.81-3.86-2.69-6.26-2.69H67.76c-2.4,0-4.44,.88-6.25,2.69-1.82,1.81-2.7,3.86-2.7,6.26v92.85c0,2.4,.88,4.45,2.7,6.26,1.81,1.81,3.85,2.69,6.25,2.69h72.96c2.4,0,4.45-.88,6.26-2.69,1.81-1.81,2.69-3.86,2.69-6.26V39.62c0-2.4-.88-4.45-2.69-6.26Zm-5.26,100.11H66.76V38.62h74.96v94.85Z"/></svg>