<svg width="16" height="16" viewBox="0 0 16 16" xmlns="http://www.w3.org/2000/svg">
    <g fill="#949494" fill-rule="nonzero">
        <circle cx="4.842" cy="8.508" r="1"/>
        <path fill="none" d="M0 0h16v16H0z"/>
        <path d="M14 14V2.848c0-.81-.636-1.468-1.417-1.468h-1.112A1.84 1.84 0 0 0 9.833.333h-6C2.823.333 2 1.188 2 2.237V14h-.833a.833.833 0 0 0 0 1.667h13.666a.833.833 0 1 0 0-1.667H14zm-2.333-.06V3.094h.666v10.848h-.666zm-1.667 0H3.667V2.23a.18.18 0 0 1 .166-.183h5.992a.18.18 0 0 1 .175.19V13.94z"/>
    </g>
</svg>
