<svg id="Layer_1" data-name="Layer 1" xmlns="http://www.w3.org/2000/svg" viewBox="0 0 50 50"><defs><style>.cls-1{fill-rule:evenodd;}</style></defs><g id="Artboard"><g id="Group-18"><g id="Group-6-Copy-2"><path id="Fill-1" class="cls-1" d="M41.8,5.76a2,2,0,1,1,2,2A2,2,0,0,1,41.8,5.76Zm-6,0a2,2,0,0,1,2-2,2,2,0,1,1,0,3.92A2,2,0,0,1,35.82,5.76Zm-6,0a2,2,0,1,1,2,2A2,2,0,0,1,29.82,5.76ZM3.14,0A3.14,3.14,0,0,0,0,3.13V46.86A3.15,3.15,0,0,0,3.14,50H25V45.7H5.85a1.57,1.57,0,0,1-1.57-1.57V13a1.56,1.56,0,0,1,1.57-1.56H44.09A1.58,1.58,0,0,1,45.65,13V25H50V3.13A3.14,3.14,0,0,0,46.86,0Z"/><g id="Group-5"><path id="Fill-3" class="cls-1" d="M47.88,28.47H30.18a1.87,1.87,0,0,0-1.86,1.87V48a1.85,1.85,0,0,0,1.86,1.85h17.7A1.86,1.86,0,0,0,49.75,48V30.34a1.87,1.87,0,0,0-1.87-1.87"/></g></g><path id="Fill-3-Copy" class="cls-1" d="M38.35,25.58H26.44a1.33,1.33,0,0,0-1.31,1.33V39H21.46a1.59,1.59,0,0,1-1.6-1.6V22.08a1.6,1.6,0,0,1,1.6-1.61H36.74a1.61,1.61,0,0,1,1.61,1.61Z"/></g></g></svg>