<?xml version="1.0" encoding="UTF-8"?>
<svg width="447px" height="417px" viewBox="0 0 447 417" version="1.1" xmlns="http://www.w3.org/2000/svg" xmlns:xlink="http://www.w3.org/1999/xlink">
    <!-- Generator: Sketch 52.6 (67491) - http://www.bohemiancoding.com/sketch -->
    <title>alarm-pm</title>
    <desc>Created with Sketch.</desc>
    <g id="Page-1" stroke="none" stroke-width="1" fill="none" fill-rule="evenodd">
        <g id="alarm-pm" fill="#A6C1D0">
            <path d="M326.39,218.237 L326.39,187.897 C326.39,139.634 293.193,99.131 248.39,87.959 L248.39,57.124 C248.39,43.317 237.197,32.124 223.39,32.124 C209.583,32.124 198.39,43.317 198.39,57.124 L198.39,87.958 C153.587,99.13 120.39,139.634 120.39,187.896 L120.39,218.236 C120.39,250.673 107.504,281.782 84.568,304.719 C74.486,314.801 71.47,329.963 76.926,343.136 C82.382,356.309 95.236,364.897 109.494,364.897 L171.642,364.897 C171.642,393.476 194.81,416.644 223.389,416.644 C251.968,416.644 275.136,393.476 275.136,364.897 L337.284,364.897 C351.542,364.897 364.396,356.308 369.852,343.136 C375.308,329.963 372.292,314.801 362.21,304.719 C339.275,281.783 326.39,250.674 326.39,218.237 Z M223.39,386.644 C211.398,386.644 201.643,376.888 201.643,364.897 L245.138,364.897 C245.137,376.889 235.381,386.644 223.39,386.644 Z M342.137,331.655 C341.321,333.624 339.417,334.897 337.285,334.897 L109.494,334.897 C107.362,334.897 105.458,333.625 104.642,331.656 C103.826,329.687 104.273,327.44 105.78,325.933 C134.547,297.167 150.389,258.92 150.389,218.237 L150.389,187.897 C150.389,147.645 183.137,114.897 223.389,114.897 C263.641,114.897 296.389,147.645 296.389,187.897 L296.389,218.237 C296.389,258.919 312.231,297.166 340.998,325.933 C342.506,327.44 342.953,329.686 342.137,331.655 Z" id="Shape" fill-rule="nonzero"></path>
            <path d="M86.146,218.065 C93.988,215.394 98.18,206.872 95.508,199.03 C78.949,150.414 105.029,97.391 153.645,80.831 C161.487,78.16 165.679,69.638 163.007,61.796 C160.336,53.954 151.814,49.76 143.972,52.434 C79.698,74.326 45.218,144.429 67.11,208.703 C69.235,214.942 75.064,218.87 81.307,218.87 C82.912,218.87 84.544,218.611 86.146,218.065 Z" id="Path"></path>
            <path d="M130.078,29.416 C137.92,26.745 142.112,18.223 139.441,10.381 C136.769,2.539 128.247,-1.655 120.405,1.019 C27.665,32.606 -22.086,133.755 9.503,226.496 C11.628,232.735 17.457,236.663 23.7,236.663 C25.304,236.663 26.935,236.404 28.538,235.858 C36.38,233.187 40.572,224.665 37.9,216.823 C11.646,139.742 52.996,55.671 130.078,29.416 Z" id="Path"></path>
            <path d="M302.806,52.434 C294.963,49.761 286.442,53.955 283.771,61.796 C281.1,69.638 285.292,78.16 293.133,80.831 C341.749,97.391 367.829,150.414 351.271,199.03 C348.6,206.872 352.791,215.394 360.633,218.065 C362.236,218.611 363.867,218.87 365.471,218.87 C371.714,218.87 377.543,214.941 379.668,208.703 C401.561,144.429 367.08,74.326 302.806,52.434 Z" id="Path"></path>
            <path d="M428.523,90.788 C407.576,48.201 371.299,16.32 326.374,1.018 C318.531,-1.656 310.01,2.538 307.339,10.38 C304.668,18.222 308.86,26.744 316.701,29.415 C354.041,42.134 384.193,68.631 401.603,104.028 C419.013,139.425 421.597,179.483 408.878,216.822 C406.207,224.664 410.399,233.186 418.24,235.857 C419.843,236.403 421.474,236.662 423.078,236.662 C429.321,236.662 435.15,232.733 437.275,226.495 C452.578,181.571 449.47,133.375 428.523,90.788 Z" id="Path"></path>
        </g>
    </g>
</svg>