<svg viewBox="0 0 512 512" xmlns="http://www.w3.org/2000/svg">
  <path d="M479.216 378.503c18.106 0 32.784 14.662 32.784 32.749 0 17.835-14.273 32.34-32.031 32.74l-.753.008H32.784C14.678 444 0 429.338 0 411.252c0-17.836 14.273-32.34 32.031-32.74l.753-.009h446.432zm0-155.251C497.322 223.252 512 237.914 512 256c0 17.835-14.273 32.34-32.031 32.74l-.753.008H32.784C14.678 288.748 0 274.086 0 256c0-17.835 14.273-32.34 32.031-32.74l.753-.008h446.432zm0-155.252C497.322 68 512 82.662 512 100.748c0 17.836-14.273 32.34-32.031 32.74l-.753.009H32.784C14.678 133.497 0 118.835 0 100.748c0-17.835 14.273-32.34 32.031-32.74l.753-.008h446.432z"/>
</svg>
