<?xml version="1.0" encoding="UTF-8"?>
<svg width="100px" height="100px" viewBox="0 0 100 100" version="1.1" xmlns="http://www.w3.org/2000/svg" xmlns:xlink="http://www.w3.org/1999/xlink">
    <!-- Generator: Sketch 52 (66869) - http://www.bohemiancoding.com/sketch -->
    <title>Cooling Coil 2</title>
    <desc>Created with Sketch.</desc>
    <defs>
        <linearGradient x1="0%" y1="0%" x2="100%" y2="100%" id="linearGradient-1">
            <stop stop-color="#A2BEE6" offset="0%"></stop>
            <stop stop-color="#2D5093" offset="100%"></stop>
        </linearGradient>
        <linearGradient x1="73.8528983%" y1="0%" x2="73.8528983%" y2="100%" id="linearGradient-2">
            <stop stop-color="#282828" offset="0%"></stop>
            <stop stop-color="#C6D0E1" offset="100%"></stop>
        </linearGradient>
    </defs>
    <g id="AHU-Illustration" stroke="none" stroke-width="1" fill="none" fill-rule="evenodd">
        <g id="Components" transform="translate(-221.000000, -744.000000)">
            <g id="Cooling-Coil-2" transform="translate(271.000000, 794.000000) rotate(90.000000) translate(-271.000000, -794.000000) translate(221.000000, 744.000000)">
                <polygon id="Path-2-Copy" fill="#5B6777" points="100 0 100 77.26 0 77.26 0 0"></polygon>
                <polygon id="Path-4-Copy" fill="#848E9C" points="0 77 0 100 100 100 100 77"></polygon>
                <g id="Group-16" transform="translate(26.000000, 7.000000)">
                    <polygon id="Path-10" fill="#899FB7" points="20.1537594 0.239216353 0.465481217 19.9274945 28.7993143 19.9274945 48.4975781 0.239216353"></polygon>
                    <polygon id="Path-11" fill="url(#linearGradient-1)" points="0.487842596 19.9447974 0.487842596 92.2516676 28.8713593 92.2516676 28.8713593 19.9447974"></polygon>
                    <polygon id="Path-12" fill="#045795" points="48.5313524 0.216037505 48.5313524 69.8050327 28.8019306 92 28.8019306 19.9410217"></polygon>
                    <g id="Group-15" transform="translate(32.000000, 19.000000)" stroke-linecap="round">
                        <path d="M0.904146181,12.7378253 L13.5429334,0.099038079" id="Path-15" stroke="#6B8AB8"></path>
                        <path d="M0.904146181,22.7378253 L13.5429334,10.0990381" id="Path-15-Copy" stroke="#6B8AB8"></path>
                        <path d="M0.904146181,32.7378253 L13.5429334,20.0990381" id="Path-15-Copy-7" stroke="#6B8AB8"></path>
                        <path d="M0.904146181,42.7378253 L13.5429334,30.0990381" id="Path-15-Copy-8" stroke="#6B8AB8"></path>
                        <path d="M0.904146181,17.7378253 L13.5429334,5.09903808" id="Path-15-Copy-2" stroke="#6B8AB8"></path>
                        <path d="M0.904146181,27.7378253 L13.5429334,15.0990381" id="Path-15-Copy-3" stroke="#6B8AB8"></path>
                        <path d="M0.904146181,37.7378253 L13.5429334,25.0990381" id="Path-15-Copy-4" stroke="#6B8AB8"></path>
                        <path d="M0.904146181,47.7378253 L13.5429334,35.0990381" id="Path-15-Copy-5" stroke="#6B8AB8"></path>
                        <path d="M0.904146181,13.7378253 L13.5429334,1.09903808" id="Path-15-Copy-15" stroke="#FFFFFF" opacity="0.5"></path>
                        <path d="M0.904146181,23.7378253 L13.5429334,11.0990381" id="Path-15-Copy-14" stroke="#FFFFFF" opacity="0.5"></path>
                        <path d="M0.904146181,33.7378253 L13.5429334,21.0990381" id="Path-15-Copy-13" stroke="#FFFFFF" opacity="0.5"></path>
                        <path d="M0.904146181,43.7378253 L13.5429334,31.0990381" id="Path-15-Copy-12" stroke="#FFFFFF" opacity="0.5"></path>
                        <path d="M0.904146181,18.7378253 L13.5429334,6.09903808" id="Path-15-Copy-11" stroke="#FFFFFF" opacity="0.5"></path>
                        <path d="M0.904146181,28.7378253 L13.5429334,16.0990381" id="Path-15-Copy-10" stroke="#FFFFFF" opacity="0.5"></path>
                        <path d="M0.904146181,38.7378253 L13.5429334,26.0990381" id="Path-15-Copy-9" stroke="#FFFFFF" opacity="0.5"></path>
                        <path d="M0.904146181,48.7378253 L13.5429334,36.0990381" id="Path-15-Copy-6" stroke="#FFFFFF" opacity="0.5"></path>
                    </g>
                </g>
                <polygon id="Path-4" fill="url(#linearGradient-2)" opacity="0.5" points="0 0 0 30 100 30 100 0"></polygon>
            </g>
        </g>
    </g>
</svg>