<svg width="18" height="15" viewBox="0 0 18 15" xmlns="http://www.w3.org/2000/svg">
  <path d="M10.758 0c1.207 0 2.2.939 2.28 2.122l.005.156v4.03H18V15h-2.813V9.112h-2.144v.876a1.23 1.23 0 01-1.105 1.22l-.126.007H9.527v.806h1.23a1.23 1.23 0 011.225 1.101l.006.126v.589a.69.69 0 01.176.462.702.702 0 11-1.29-.384l.06-.078v-.59a.176.176 0 00-.12-.166l-.056-.009h-1.23v.765a.702.702 0 11-1.115.078l.06-.078v-.765h-1.23a.176.176 0 00-.168.12l-.009.056v.589a.69.69 0 01.176.462.702.702 0 11-1.29-.384l.06-.078v-.59a1.23 1.23 0 011.105-1.22l.125-.006h1.23v-.806H6.189a1.23 1.23 0 01-1.225-1.101l-.006-.126v-.876H2.813V15H0V6.308h4.957v-4.03c0-1.204.942-2.192 2.129-2.273L7.242 0h3.516zM11 4.984H7v.997h4v-.997zm0-1.993H7v.997h4V2.99z"/>
</svg>
