<?xml version="1.0" encoding="UTF-8"?>
<svg width="17px" height="16px" viewBox="0 0 17 16" version="1.1" xmlns="http://www.w3.org/2000/svg" xmlns:xlink="http://www.w3.org/1999/xlink">
    <!-- Generator: Sketch 52.5 (67469) - http://www.bohemiancoding.com/sketch -->
    <title>alarm</title>
    <desc>Created with Sketch.</desc>
    <g id="Page-1" stroke="none" stroke-width="1" fill="none" fill-rule="evenodd">
        <g id="Trigger_Overview_3.0" transform="translate(-121.000000, -343.000000)" fill="#A3BFCE" fill-rule="nonzero">
            <g id="Group-11" transform="translate(91.000000, 236.000000)">
                <g transform="translate(24.000000, 45.000000)" id="alarm">
                    <g transform="translate(6.000000, 62.000000)">
                        <path d="M12.4130425,8.29984116 L12.4130425,7.14597092 C12.4130425,5.31046532 11.1505168,3.77008277 9.44659955,3.34519687 L9.44659955,2.17250112 C9.44659955,1.64740268 9.02091499,1.22171812 8.49581655,1.22171812 C7.97071812,1.22171812 7.54503356,1.64740268 7.54503356,2.17250112 L7.54503356,3.34515884 C5.84111633,3.77004474 4.5785906,5.31046532 4.5785906,7.14593289 L4.5785906,8.29980313 C4.5785906,9.53342506 4.08851902,10.7165414 3.21623266,11.5888658 C2.83280089,11.9722975 2.71809843,12.5489284 2.92559732,13.049915 C3.1330962,13.5509016 3.62195078,13.8775145 4.16420134,13.8775145 L6.52777181,13.8775145 C6.52777181,14.9644116 7.40888143,15.8455213 8.49577852,15.8455213 C9.58267562,15.8455213 10.4637852,14.9644116 10.4637852,13.8775145 L12.8273557,13.8775145 C13.3696063,13.8775145 13.8584609,13.5508635 14.0659597,13.049915 C14.2734586,12.5489284 14.1587562,11.9722975 13.7753244,11.5888658 C12.9030761,10.7165794 12.4130425,9.53346309 12.4130425,8.29984116 Z M8.49581655,14.7045817 C8.03974497,14.7045817 7.66874944,14.3335481 7.66874944,13.8775145 L9.3229217,13.8775145 C9.32288367,14.3335861 8.95185011,14.7045817 8.49581655,14.7045817 Z M13.0119217,12.6132774 C12.9808881,12.6881611 12.9084765,12.7365749 12.8273937,12.7365749 L4.16420134,12.7365749 C4.08311857,12.7365749 4.01070694,12.6881991 3.97967338,12.6133154 C3.94863982,12.5384318 3.96563982,12.4529754 4.02295302,12.3956622 C5.117,11.3016532 5.71949217,9.84706935 5.71949217,8.29984116 L5.71949217,7.14597092 C5.71949217,5.61513423 6.96494183,4.36968456 8.49577852,4.36968456 C10.0266152,4.36968456 11.2720649,5.61513423 11.2720649,7.14597092 L11.2720649,8.29984116 C11.2720649,9.84703132 11.874557,11.3016152 12.968604,12.3956622 C13.0259553,12.4529754 13.0429553,12.5383937 13.0119217,12.6132774 Z" id="Shape"></path>
                        <path d="M3.27624609,8.29329978 C3.5744877,8.19171812 3.73391499,7.86761521 3.6322953,7.5693736 C3.00253468,5.72044295 3.9943915,3.70390828 5.84332215,3.07410962 C6.14156376,2.97252796 6.30099105,2.64842506 6.19937136,2.35018345 C6.09778971,2.05194183 5.7736868,1.89243848 5.47544519,1.99413423 C3.03102013,2.82671588 1.71970022,5.4928255 2.55228188,7.93725056 C2.63309843,8.17452796 2.854783,8.32391499 3.09221253,8.32391499 C3.1532528,8.32391499 3.21531991,8.31406488 3.27624609,8.29329978 Z" id="Shape"></path>
                        <path d="M4.94703803,1.11872931 C5.24527964,1.01714765 5.40470694,0.693044743 5.30312528,0.394803132 C5.20150559,0.0965615213 4.87740268,-0.0629418345 4.57916107,0.038753915 C1.05213647,1.24004922 -0.839959732,5.08687919 0.361411633,8.61394183 C0.442228188,8.85121924 0.663912752,9.00060626 0.901342282,9.00060626 C0.962344519,9.00060626 1.0243736,8.99075615 1.08533781,8.96999105 C1.38357942,8.8684094 1.54300671,8.54430649 1.44138702,8.24606488 C0.442912752,5.31457271 2.01550783,2.11724161 4.94703803,1.11872931 Z" id="Shape"></path>
                        <path d="M11.5161119,1.99413423 C11.2178322,1.89247651 10.8937673,2.05197987 10.7921857,2.35018345 C10.690604,2.64842506 10.8500313,2.97252796 11.1482349,3.07410962 C12.9971655,3.70390828 13.9890224,5.72044295 13.3592998,7.5693736 C13.2577181,7.86761521 13.4171074,8.19171812 13.715349,8.29329978 C13.7763132,8.31406488 13.8383423,8.32391499 13.8993445,8.32391499 C14.136774,8.32391499 14.3584586,8.17448993 14.4392752,7.93725056 C15.2718949,5.4928255 13.9605369,2.82671588 11.5161119,1.99413423 Z" id="Shape"></path>
                        <path d="M16.2972953,3.45278747 C15.5006532,1.83314765 14.1209911,0.620671141 12.412434,0.0387158837 C12.1141544,-0.0629798658 11.7900895,0.0965234899 11.6885078,0.394765101 C11.5869262,0.693006711 11.7463535,1.01710962 12.044557,1.11869128 C13.4646465,1.60241163 14.6113669,2.61012752 15.2734922,3.95632215 C15.9356174,5.30251678 16.0338904,6.82597539 15.55017,8.24602685 C15.4485884,8.54426846 15.6080157,8.86837136 15.9062192,8.96995302 C15.9671834,8.99071812 16.0292125,9.00056823 16.0902148,9.00056823 C16.3276443,9.00056823 16.5493289,8.85114318 16.6301454,8.6139038 C17.2121387,6.90538479 17.0939374,5.07242729 16.2972953,3.45278747 Z" id="Shape"></path>
                    </g>
                </g>
            </g>
        </g>
    </g>
</svg>