<?xml version="1.0" encoding="UTF-8"?>
<svg width="72px" height="57px" viewBox="0 0 72 57" version="1.1" xmlns="http://www.w3.org/2000/svg" xmlns:xlink="http://www.w3.org/1999/xlink">
    <!-- Generator: Sketch 63.1 (92452) - https://sketch.com -->
    <title>Group 2</title>
    <desc>Created with Sketch.</desc>
    <g id="Page-1" stroke="none" stroke-width="1" fill="none" fill-rule="evenodd">
        <g id="Space" transform="translate(-4.000000, -11.000000)">
            <g id="Group-2" transform="translate(4.000000, 11.000000)">
                <rect id="Rectangle" stroke="#979797" stroke-width="0.949999988" fill="#BCBCE2" x="0.474999994" y="24.1519228" width="70.9576914" height="5.18846147"></rect>
                <polygon id="Rectangle" fill="#FFFFFF" points="0 24.5538458 71.0307683 24.5538458 71.0307683 25.9106752 0 25.9106752"></polygon>
                <rect id="Rectangle-Copy-3" stroke="#7176C4" x="0.5" y="24.1769228" width="70.9076914" height="5.13846146"></rect>
                <rect id="Rectangle" fill="#DBDBF3" x="2.6307692" y="28.9384612" width="5.2615384" height="27.184615"></rect>
                <rect id="Rectangle" fill="#BCBCE2" x="5.2615384" y="29.8153842" width="1.75384613" height="25.4307689"></rect>
                <rect id="Rectangle-Copy-4" stroke="#7176C4" x="3.1307692" y="29.4384612" width="4.2615384" height="26.184615"></rect>
                <rect id="Rectangle-Copy" fill="#DBDBF3" x="64.0153838" y="28.9384612" width="5.2615384" height="27.184615"></rect>
                <rect id="Rectangle" fill="#BCBCE2" x="66.646153" y="29.8153842" width="2.6307692" height="25.4307689"></rect>
                <rect id="Rectangle-Copy-5" stroke="#7176C4" x="64.5153838" y="29.4384612" width="4.2615384" height="26.184615"></rect>
                <g id="Group" transform="translate(41.215384, 0.000000)">
                    <path d="M9.79230757,21.0461536 L18.2692305,21.0461536 C19.3185716,21.0461536 20.1692305,21.8968125 20.1692305,22.9461536 L20.1692305,24.5538458 L20.1692305,24.5538458 L7.89230759,24.5538458 L7.89230759,22.9461536 C7.89230759,21.8968125 8.74296656,21.0461536 9.79230757,21.0461536 Z" id="Rectangle-Copy-8" fill="#BCBCE2"></path>
                    <polygon id="Rectangle" fill="#FFFFFF" points="8.76923066 21.9230766 19.2923075 21.9230766 19.2923075 22.4874013 8.76923066 22.3601452"></polygon>
                    <path d="M18.2692305,21.5461536 L9.79230757,21.5461536 C9.40570825,21.5461536 9.05570826,21.7028539 8.80235809,21.9562041 C8.54900793,22.2095542 8.39230759,22.5595542 8.39230759,22.9461536 L8.39230759,24.0538458 L19.6692305,24.0538458 L19.6692305,22.9461536 C19.6692305,22.5595542 19.5125302,22.2095542 19.25918,21.9562041 C19.0058299,21.7028539 18.6558299,21.5461536 18.2692305,21.5461536 Z" id="Rectangle-Copy-9" stroke="#7176C4"></path>
                    <rect id="Rectangle-Copy-6" fill="#FFFFFF" x="1.24618263e-14" y="0" width="28.0615381" height="19.2923075" rx="2.84999996"></rect>
                    <path d="M1.89999998,1.75384613 L24.3943751,1.75384613 C25.4437161,1.75384613 26.2943751,2.6045051 26.2943751,3.65384611 L26.2943751,17.3923075 C26.2943751,18.4416485 25.4437161,19.2923075 24.3943751,19.2923075 L2.84999996,19.2923075 C1.27598845,19.2923075 4.42185646e-15,18.016319 4.67318486e-15,16.4423075 L4.67318486e-15,3.65384611 C4.54467765e-15,2.6045051 0.850658965,1.75384613 1.89999998,1.75384613 Z" id="Rectangle" fill="#DBDBF3"></path>
                    <polygon id="Rectangle" fill="#BCBCE2" points="0.687395778 15.6182183 27.4385288 15.6182183 27.5638138 17.1166092 27.0050297 18.4153844 1.50414658 18.6150001 0.754460624 17.4747312"></polygon>
                    <rect id="Rectangle-Copy-2" stroke="#7176C4" x="0.5" y="0.5" width="27.0615381" height="18.2923075" rx="2.84999996"></rect>
                    <rect id="Rectangle" fill="#BCBCE2" x="10.5230768" y="19.2923075" width="7.01538453" height="1.75384613"></rect>
                    <line x1="10.5230768" y1="21.0461536" x2="10.5230768" y2="19.2923075" id="Path-14" stroke="#7176C4"></line>
                    <line x1="17.5384613" y1="21.0461536" x2="17.5384613" y2="19.2923075" id="Path-15" stroke="#7176C4"></line>
                </g>
                <path d="M15.8086992,5.2934979 L30.9650915,5.2934979 C34.1131145,5.2934979 36.6650914,7.8454748 36.6650914,10.9934978 C36.6650914,11.2118328 36.6525466,11.4299873 36.6275191,11.6468831 L35.1092566,24.8045902 C34.7220657,28.1601003 31.8808662,30.6923073 28.503091,30.6923073 L17.7807428,30.6923073 C14.3088751,30.6923073 11.4212731,28.0214416 11.1509333,24.5601151 L10.1260054,11.437333 C9.88088197,8.29886781 12.2263989,5.55592735 15.3648641,5.31080397 C15.5125281,5.29927097 15.6605855,5.2934979 15.8086992,5.2934979 Z" id="Rectangle" fill="#FFFFFF"></path>
                <path d="M14.8506052,6.63379644 L30.3106015,6.91927496 C32.9335069,6.96770855 35.0205286,9.13325666 34.9720951,11.7561621 C34.9694205,11.9009995 34.9601217,12.0456389 34.9442277,12.1896265 L33.3686158,26.4634686 C33.2257646,27.7575915 32.5717844,28.8825454 31.6212269,29.6461589 C30.5829711,30.3100504 29.3515234,30.6923073 28.0391926,30.6923073 L17.7358111,30.6923073 C14.2668475,30.6923073 11.3806367,28.0257689 11.1065942,24.5676468 L10.1335401,12.2887523 C9.97070277,10.2339209 10.9187721,8.34740531 12.4737478,7.21996088 C13.0545145,6.89985084 13.7120209,6.69711755 14.4167076,6.64561993 C14.5610844,6.63506906 14.705868,6.63112378 14.8506052,6.63379644 Z" id="Combined-Shape" fill="#DBDBF3"></path>
                <path d="M10.9620721,8.25423863 C11.7654199,18.4924328 12.3473194,24.3094615 12.7077706,25.7053248 C13.0682218,27.101188 13.9443666,28.6966317 15.3362049,30.4916558 L13.0286726,29.0968144 L11.1922944,26.1883515 L10.0793364,10.0846153 L10.9620721,8.25423863 Z" id="Path-16" fill="#BCBCE2" opacity="0.5"></path>
                <path d="M15.8086992,5.2934979 L30.9650915,5.2934979 C34.1131145,5.2934979 36.6650914,7.8454748 36.6650914,10.9934978 C36.6650914,11.2118328 36.6525466,11.4299873 36.6275191,11.6468831 L35.1092566,24.8045902 C34.7220657,28.1601003 31.8808662,30.6923073 28.503091,30.6923073 L17.7807428,30.6923073 C14.3088751,30.6923073 11.4212731,28.0214416 11.1509333,24.5601151 L10.1260054,11.437333 C9.88088197,8.29886781 12.2263989,5.55592735 15.3648641,5.31080397 C15.5125281,5.29927097 15.6605855,5.2934979 15.8086992,5.2934979 Z" id="Rectangle-Copy-11" stroke="#7176C4" stroke-linejoin="round"></path>
                <g id="Group-31" transform="translate(15.784615, 30.692307)">
                    <rect id="Rectangle" stroke="#7176C4" fill="#BCBCE2" x="0.5" y="19.7923075" width="14.7846152" height="1.6307692"></rect>
                    <rect id="Rectangle" fill="#7176C4" x="7.01538453" y="0" width="1.75384613" height="20.1692305"></rect>
                    <path d="M7.23461529,14.9076921 L8.54999989,14.9076921 C10.1240114,14.9076921 11.3999999,16.1836806 11.3999999,17.7576921 L11.3999999,20.1692305 L11.3999999,20.1692305 L4.38461533,20.1692305 L4.38461533,17.7576921 C4.38461533,16.1836806 5.66060378,14.9076921 7.23461529,14.9076921 Z" id="Rectangle" fill="#DBDBF3"></path>
                    <rect id="Rectangle" fill="#BCBCE2" x="5.2615384" y="17.5384613" width="5.2615384" height="1.75384613"></rect>
                    <path d="M8.54999989,15.4076921 L7.23461529,15.4076921 C6.58568072,15.4076921 5.99818073,15.6707248 5.57291438,16.0959912 C5.14764804,16.5212575 4.88461533,17.1087575 4.88461533,17.7576921 L4.88461533,19.6692305 L10.8999999,19.6692305 L10.8999999,17.7576921 C10.8999999,17.1087575 10.6369672,16.5212575 10.2117008,16.0959912 C9.78643445,15.6707248 9.19893446,15.4076921 8.54999989,15.4076921 Z" id="Rectangle-Copy-14" stroke="#7176C4"></path>
                </g>
                <path d="M17.7138459,33.3230765 L29.6871648,33.3230765 C32.108721,33.3230765 34.0717802,35.2861357 34.0717802,37.7076918 L34.0717802,37.7076918 L34.0717802,37.7076918 L13.3292306,37.7076918 C13.3292306,35.2861357 15.2922898,33.3230765 17.7138459,33.3230765 Z" id="Rectangle" fill="#DBDBF3"></path>
                <rect id="Rectangle" fill="#BCBCE2" x="14.0307691" y="35.9538457" width="19.2923075" height="1"></rect>
                <path d="M29.6871648,33.8230765 L17.7138459,33.8230765 C16.641139,33.8230765 15.6699852,34.2578769 14.9670081,34.960854 C14.3762957,35.5515663 13.9749445,36.3316398 13.8618191,37.2022097 L33.5076933,37.0009538 C33.3566711,36.1791334 32.9468993,35.4478757 32.3661273,34.8946046 C31.6691634,34.2306437 30.7257556,33.8230765 29.6871648,33.8230765 Z" id="Rectangle-Copy-7" stroke="#7176C4"></path>
                <path d="M16.6615383,52.615384 L18.645599,52.615384 L18.645599,53.8213811 C18.645599,54.3692644 18.2014519,54.8134115 17.6535686,54.8134115 C17.1056854,54.8134115 16.6615383,54.3692644 16.6615383,53.8213811 L16.6615383,52.615384 L16.6615383,52.615384 Z" id="Rectangle" fill="#7176C4"></path>
                <path d="M28.9384612,52.615384 L30.922522,52.615384 L30.922522,53.8213811 C30.922522,54.3692644 30.4783748,54.8134115 29.9304916,54.8134115 C29.3826083,54.8134115 28.9384612,54.3692644 28.9384612,53.8213811 L28.9384612,52.615384 L28.9384612,52.615384 Z" id="Rectangle-Copy-10" fill="#7176C4"></path>
            </g>
        </g>
    </g>
</svg>