<?xml version="1.0" encoding="UTF-8"?>
<svg width="177px" height="176px" viewBox="0 0 177 176" version="1.1" xmlns="http://www.w3.org/2000/svg" xmlns:xlink="http://www.w3.org/1999/xlink">
    <title>noun_Question_4334348</title>
    <g id="Page-1" stroke="none" stroke-width="1" fill="none" fill-rule="evenodd">
        <g id="noun_Question_4334348" transform="translate(0.867649, 0.000000)" fill="#000000" fill-rule="nonzero">
            <path d="M168.582351,53.7450865 C151.122567,12.1983334 105.018703,-9.35566868 61.9428837,3.89010523 C18.8670643,17.1358791 -7.160677,60.8702821 1.7400242,105.048945 C10.6407254,149.227608 51.5729278,179.471552 96.4172993,175.003993 C141.261671,170.536434 175.422562,132.811445 175.432467,87.7450865 C175.451386,76.0671435 173.121876,64.5046138 168.582351,53.7450865 L168.582351,53.7450865 Z M138.812351,138.405087 C114.636432,162.567459 76.7595797,166.288732 48.3435556,147.293341 C19.9275315,128.29795 8.88559891,91.8757103 21.9699187,60.2988853 C35.0542385,28.7220602 68.6211035,10.7841293 102.144318,17.4541684 C135.667532,24.1242075 159.812668,53.5447515 159.812668,87.7250865 C159.869083,106.752393 152.306521,125.01058 138.812351,138.425087 L138.812351,138.405087 Z M95.902351,128.795087 C95.8909615,128.665336 95.8909615,128.534837 95.902351,128.405087 C95.902351,128.295087 95.902351,128.155087 95.902351,128.035087 C95.902351,127.915087 95.842351,127.785087 95.822351,127.665087 C95.802351,127.545087 95.762351,127.415087 95.722351,127.295087 C95.682351,127.175087 95.642351,127.065087 95.602351,126.925087 C95.562351,126.785087 95.512351,126.685087 95.472351,126.575087 C95.4292963,126.453989 95.37576,126.336879 95.312351,126.225087 L95.132351,125.865087 C95.078248,125.750024 95.0146969,125.639646 94.942351,125.535087 L94.742351,125.225087 C94.6805308,125.116442 94.6103172,125.012793 94.532351,124.915087 L94.292351,124.615087 L94.042351,124.325087 C93.9600244,124.227727 93.8697105,124.137413 93.772351,124.055087 C93.6740866,123.966818 93.5806195,123.873351 93.492351,123.775087 L93.202351,123.525087 C93.1051248,123.440514 93.0014801,123.363616 92.892351,123.295087 L92.582351,123.075087 C92.4783528,122.99633 92.3639281,122.932386 92.242351,122.885087 C92.132351,122.825087 92.032351,122.745087 91.912351,122.685087 L91.562351,122.515087 L91.212351,122.355087 L90.862351,122.215087 L90.492351,122.095087 L90.112351,122.005087 L89.742351,121.925087 L89.372351,121.865087 C89.2425575,121.854723 89.1121445,121.854723 88.982351,121.865087 C88.8525627,121.854594 88.7221393,121.854594 88.592351,121.865087 C88.3394125,121.845083 88.0852895,121.845083 87.832351,121.865087 L87.442351,121.865087 L87.052351,121.865087 L86.682351,121.925087 L86.312351,122.005087 L85.932351,122.095087 L85.562351,122.215087 L85.212351,122.355087 C85.092053,122.400089 84.9750937,122.453556 84.862351,122.515087 L84.512351,122.685087 C84.3967788,122.742093 84.2863656,122.80901 84.182351,122.885087 C84.062351,122.935087 83.962351,123.015087 83.842351,123.075087 C83.722351,123.135087 83.632351,123.215087 83.532351,123.295087 L83.242351,123.525087 L82.952351,123.775087 C82.849269,123.858134 82.7553981,123.952005 82.672351,124.055087 L82.402351,124.325087 L82.152351,124.615087 L81.912351,124.915087 C81.8355605,125.013653 81.7654059,125.117215 81.702351,125.225087 C81.622351,125.325087 81.562351,125.435087 81.482351,125.535087 C81.402351,125.635087 81.342351,125.755087 81.292351,125.865087 L81.112351,126.225087 C81.052351,126.335087 81.012351,126.455087 80.952351,126.575087 C80.892351,126.695087 80.862351,126.805087 80.822351,126.925087 C80.782351,127.045087 80.742351,127.155087 80.702351,127.295087 C80.6572496,127.414934 80.6237626,127.538836 80.602351,127.665087 C80.602351,127.805087 80.542351,127.925087 80.522351,128.035087 C80.502351,128.145087 80.522351,128.295087 80.522351,128.405087 C80.5119876,128.53488 80.5119876,128.665293 80.522351,128.795087 C80.5126248,128.924905 80.5126248,129.055268 80.522351,129.185087 L80.522351,129.975087 C80.522351,130.085087 80.522351,130.225087 80.522351,130.365087 C80.5337405,130.494837 80.5337405,130.625336 80.522351,130.755087 C80.522351,130.865087 80.522351,131.005087 80.522351,131.125087 C80.522351,131.245087 80.582351,131.375087 80.602351,131.495087 C80.6263182,131.620762 80.6597467,131.744448 80.702351,131.865087 L80.822351,132.235087 C80.822351,132.355087 80.922351,132.475087 80.952351,132.585087 C80.9954057,132.706184 81.0489419,132.823294 81.112351,132.935087 L81.292351,133.295087 C81.346454,133.410149 81.4100051,133.520527 81.482351,133.625087 C81.5486797,133.739599 81.6221586,133.849817 81.702351,133.955087 C81.7665519,134.062232 81.8366601,134.165725 81.912351,134.265087 L82.152351,134.565087 C82.2294243,134.666978 82.3129277,134.763842 82.402351,134.855087 C82.4846776,134.952446 82.5749915,135.04276 82.672351,135.125087 L82.952351,135.405087 L83.242351,135.655087 L83.532351,135.885087 L83.842351,136.105087 C83.9463492,136.183843 84.0607739,136.247787 84.182351,136.295087 C84.292351,136.355087 84.392351,136.435087 84.512351,136.495087 L84.862351,136.675087 C84.9815281,136.719013 85.0983511,136.76908 85.212351,136.825087 L85.562351,136.965087 L85.932351,137.085087 L86.312351,137.175087 L86.682351,137.255087 L87.052351,137.315087 C87.1821245,137.325939 87.3125775,137.325939 87.442351,137.315087 C87.5721604,137.325042 87.7025416,137.325042 87.832351,137.315087 L88.612351,137.315087 L89.002351,137.315087 L89.392351,137.315087 L89.762351,137.255087 L90.132351,137.175087 L90.512351,137.085087 L90.882351,136.965087 L91.232351,136.825087 L91.582351,136.675087 L91.932351,136.495087 C92.0479231,136.43808 92.1583364,136.371163 92.262351,136.295087 C92.3756801,136.23772 92.4858394,136.174294 92.592351,136.105087 C92.692351,136.025087 92.812351,135.965087 92.912351,135.885087 L93.222351,135.655087 L93.512351,135.405087 C93.615433,135.322039 93.7093039,135.228169 93.792351,135.125087 L94.062351,134.855087 L94.312351,134.565087 L94.552351,134.265087 C94.6313994,134.168181 94.701676,134.064439 94.762351,133.955087 C94.8405862,133.852527 94.9076338,133.741899 94.962351,133.625087 L95.152351,133.295087 L95.332351,132.935087 C95.392351,132.825087 95.432351,132.705087 95.492351,132.585087 C95.552351,132.465087 95.582351,132.355087 95.622351,132.235087 C95.662351,132.115087 95.702351,132.005087 95.742351,131.865087 C95.7874524,131.745239 95.8209394,131.621337 95.842351,131.495087 C95.8785201,131.374001 95.9052666,131.250298 95.922351,131.125087 C95.922351,131.005087 95.922351,130.865087 95.922351,130.755087 C95.9327144,130.625293 95.9327144,130.49488 95.922351,130.365087 C95.9320772,130.235268 95.9320772,130.104905 95.922351,129.975087 C95.922351,129.835087 95.922351,129.715087 95.922351,129.585087 C95.9318192,129.451921 95.9318192,129.318252 95.922351,129.185087 C95.922351,129.055087 95.922351,128.915087 95.922351,128.795087 L95.902351,128.795087 Z M88.132351,38.0950865 C69.5651606,38.0563689 54.4775045,53.0679376 54.422351,71.6350865 C54.422351,75.9484304 57.9190071,79.4450865 62.232351,79.4450865 C66.5456949,79.4450865 70.042351,75.9484304 70.042351,71.6350865 C70.0402451,66.9536311 71.887657,62.4608978 75.182351,59.1350865 C80.8455395,53.2035421 89.8021625,51.8498135 96.9653631,55.8427424 C104.128564,59.8356712 107.687238,68.1657078 105.620261,76.101861 C103.553283,84.0380141 96.3832563,89.5737516 88.182351,89.5650865 C86.1101964,89.5624282 84.1221474,90.3844114 82.6569117,91.8496472 C81.1916759,93.314883 80.3696927,95.3029319 80.372351,97.3750865 L80.372351,106.205087 C80.372351,110.51843 83.8690071,114.015087 88.182351,114.015087 C92.4956949,114.015087 95.992351,110.51843 95.992351,106.205087 L95.992351,104.265087 C112.638549,100.399428 123.711703,84.6299155 121.69594,67.6600622 C119.680177,50.6902089 105.22092,37.9535622 88.132351,38.0950865 Z" id="Shape"></path>
        </g>
    </g>
</svg>