<?xml version="1.0" encoding="UTF-8"?>
<svg width="20px" height="20px" viewBox="0 0 20 20" version="1.1" xmlns="http://www.w3.org/2000/svg" xmlns:xlink="http://www.w3.org/1999/xlink">
    <!-- Generator: Sketch 59 (86127) - https://sketch.com -->
    <title>Group 4</title>
    <desc>Created with Sketch.</desc>
    <g id="Page-1" stroke="none" stroke-width="1" fill="none" fill-rule="evenodd">
        <g id="Vendor_Portal_Home1.0" transform="translate(-29.000000, -487.000000)" stroke="#324056">
            <g id="Group-6" transform="translate(29.000000, 126.000000)">
                <g id="Group-4" transform="translate(1.000000, 362.000000)">
                    <path d="M1,10 L5,10 C5.55228475,10 6,10.4477153 6,11 L6,18 L6,18 L1,18 C0.44771525,18 6.76353751e-17,17.5522847 0,17 L0,11 C-6.76353751e-17,10.4477153 0.44771525,10 1,10 Z" id="Rectangle"></path>
                    <path d="M7,0 L11,0 C11.5522847,-1.01453063e-16 12,0.44771525 12,1 L12,18 L12,18 L6,18 L6,1 C6,0.44771525 6.44771525,1.01453063e-16 7,0 Z" id="Rectangle"></path>
                    <path d="M13,5 L17,5 C17.5522847,5 18,5.44771525 18,6 L18,17 C18,17.5522847 17.5522847,18 17,18 L12,18 L12,18 L12,6 C12,5.44771525 12.4477153,5 13,5 Z" id="Rectangle"></path>
                </g>
            </g>
        </g>
    </g>
</svg>