<?xml version="1.0" encoding="UTF-8"?>
<svg width="512px" height="512px" viewBox="0 0 512 512" version="1.1" xmlns="http://www.w3.org/2000/svg" xmlns:xlink="http://www.w3.org/1999/xlink">
    <!-- Generator: Sketch 59 (86127) - https://sketch.com -->
    <title>date</title>
    <desc>Created with Sketch.</desc>
    <g id="date" stroke="none" stroke-width="1" fill="none" fill-rule="evenodd">
        <g transform="translate(0.000000, 13.000000)" fill="#000000" fill-rule="nonzero" id="Shape">
            <path d="M409.6,62.093 L409.6,72.333 C409.6,81.759 401.959,89.4 392.533,89.4 C383.108,89.4 375.467,81.759 375.467,72.333 L375.467,62.093 L136.533,62.093 L136.533,72.333 C136.533,81.759 128.893,89.4 119.467,89.4 C110.041,89.4 102.4,81.759 102.4,72.333 L102.4,62.093 L40.96,62.093 C37.13,62.093 34.133,65.042 34.133,68.541 L34.133,150.84 L477.867,150.84 L477.867,68.54 C477.867,65.042 474.871,62.093 471.04,62.093 L409.6,62.093 Z M409.6,27.96 L471.04,27.96 C493.601,27.96 512,46.067 512,68.54 L512,434.147 C512,462.424 489.077,485.347 460.8,485.347 L40.96,485.347 C18.399,485.347 0,467.24 0,444.766 L0,68.54 C0,46.067 18.399,27.96 40.96,27.96 L102.4,27.96 L102.4,17.72 C102.4,8.294 110.041,0.653 119.467,0.653 C128.892,0.653 136.533,8.294 136.533,17.72 L136.533,27.96 L375.467,27.96 L375.467,17.72 C375.467,8.294 383.107,0.653 392.533,0.653 C401.959,0.653 409.6,8.294 409.6,17.72 L409.6,27.96 Z M34.133,184.973 L34.133,444.766 C34.133,448.266 37.129,451.213 40.96,451.213 L460.8,451.213 C470.226,451.213 477.867,443.573 477.867,434.147 L477.867,184.973 L34.133,184.973 Z"></path>
        </g>
    </g>
</svg>