<?xml version="1.0" encoding="UTF-8"?>
<svg width="191px" height="112px" viewBox="0 0 191 112" version="1.1" xmlns="http://www.w3.org/2000/svg" xmlns:xlink="http://www.w3.org/1999/xlink">
    <title>Group 10</title>
    <g id="Web_v3" stroke="none" stroke-width="1" fill="none" fill-rule="evenodd">
        <g id="Group-10" transform="translate(0.060606, 0.990562)">
            <g id="Group-32" transform="translate(15.280906, -0.000000)">
                <g id="Group-30" transform="translate(66.133333, 53.811001)">
                    <path d="M99.5055421,48 L4.5,48 C2.01471863,48 3.04359188e-16,45.9852814 0,43.5 L0,13.5 C-3.04359188e-16,11.0147186 2.01471863,9 4.5,9 L99.5055421,9 C101.990823,9 104.005542,11.0147186 104.005542,13.5 L104.005542,43.5 C104.005542,45.9852814 101.990823,48 99.5055421,48 Z" id="Path-3-Copy-4" fill="#DDDDF0"></path>
                    <path d="M103.718182,43.5 L8.71263975,43.5 C6.22735838,43.5 4.21263975,41.4852814 4.21263975,39 L4.21263975,4.5 C4.21263975,2.01471863 6.22735838,1.3447172e-15 8.71263975,0 L103.718182,0 C106.203463,4.31639638e-16 108.218182,2.01471863 108.218182,4.5 L108.218182,39 C108.218182,41.4852814 106.203463,43.5 103.718182,43.5 Z" id="Path-3-Copy-3" stroke="#7176C4" stroke-width="1.5" fill="#FFFFFF"></path>
                    <rect id="Rectangle-Copy-14" fill="#DBDBF3" x="47.1160447" y="10.3845" width="36.0727273" height="9" rx="4.5"></rect>
                    <rect id="Rectangle-Copy-15" fill="#DBDBF3" x="47.1160447" y="32.8845" width="25.5515152" height="4.5" rx="2.25"></rect>
                    <rect id="Rectangle-Copy-16" fill="#BCBCE2" x="75.6736204" y="32.8845" width="24.0484848" height="4.5" rx="2.25"></rect>
                    <rect id="Rectangle-Copy-17" fill="#BCBCE2" x="47.1160447" y="25.3845" width="12.0242424" height="4.5" rx="2.25"></rect>
                    <path d="M43.8451501,21.7397745 C43.8451501,29.551616 37.5002402,35.88465 29.6716991,35.88465 C21.8440762,35.88465 15.4982481,29.551616 15.4982481,21.7397745 C15.4982481,13.9279331 21.8440762,7.59489903 29.6716991,7.59489903 C37.5002402,7.59489903 43.8451501,13.9279331 43.8451501,21.7397745" id="Fill-13-Copy" fill="#FFFFFF"></path>
                    <path d="M43.8451501,20.8834589 C43.8451501,22.0837301 43.7074368,23.2381894 43.4411912,24.3559993 C42.3119422,29.1021098 38.9241955,32.9677161 34.4806469,34.7736203 C32.7353606,35.4873694 30.8174736,35.8822678 28.8160406,35.8822678 C20.5165201,35.8822678 13.7869311,29.1662465 13.7869311,20.8834589 C13.7869311,12.6006713 20.5165201,5.88465 28.8160406,5.88465 C37.1155611,5.88465 43.8451501,12.6006713 43.8451501,20.8834589 Z" id="Stroke-19-Copy" stroke="#7176C4" stroke-width="1.5"></path>
                    <g id="Group-29-Copy" transform="translate(20.099225, 9.570900)">
                        <path d="M16.0401891,8.8479 C16.0401891,12.8034 12.8282133,16.0074 8.86622545,16.0074 C4.90423758,16.0074 1.69226182,12.8034 1.69226182,8.8479 C1.69226182,4.8939 4.90423758,1.6899 8.86622545,1.6899 C12.8282133,1.6899 16.0401891,4.8939 16.0401891,8.8479" id="Fill-57" fill="#DBDBF3"></path>
                        <path d="M8.0201697,16.008 C8.16295758,16.008 8.30123636,15.993 8.44252121,15.9855 C8.58380606,15.9945 8.72358788,16.008 8.86487273,16.008 C12.8283636,16.008 16.0403394,12.8025 16.0403394,8.8485 C16.0403394,8.706 16.0268121,8.5665 16.0177939,8.4255 C16.0253091,8.286 16.0403394,8.1465 16.0403394,8.004 C16.0403394,3.5835 12.4496,0 8.0201697,0 C3.59073939,0 0,3.5835 0,8.004 C0,12.423 3.59073939,16.008 8.0201697,16.008 Z" id="Stroke-63" stroke="#7176C4" stroke-width="1.5" stroke-linecap="round" stroke-linejoin="round"></path>
                    </g>
                    <path d="M40.4789827,30.2423251 C38.0336667,33.8899956 34.0828846,35.7471502 28.6266363,35.813789 C23.2292874,35.8797084 19.2077677,33.6994266 16.5620771,29.2729436 C16.5620771,27.2434436 16.9834434,25.64535 19.0170434,25.64535 L37.2187404,25.64535 C40.435812,25.5984567 40.4789827,28.2128251 40.4789827,30.2423251 Z" id="Stroke-61-Copy-3" stroke="#7176C4" stroke-width="1.5" stroke-linecap="round" stroke-linejoin="round"></path>
                    <path d="M39.1075317,30.5351157 C36.9561088,33.2250028 33.4801561,34.5945169 28.6796734,34.6436581 C23.9310112,34.6922688 20.3928226,33.0844723 18.0651074,29.8202686 C18.0651074,28.3236625 18.4358313,27.1451867 20.2250207,27.1451867 L36.2391254,27.1451867 C39.0695495,27.1106064 39.1075317,29.0385096 39.1075317,30.5351157 Z" id="Stroke-61-Copy-4" fill="#DBDBF3"></path>
                </g>
                <g id="Group-31" transform="translate(0.000000, 17.811001)">
                    <path d="M112.128425,43.5 L8.10706469,43.5 C5.62178332,43.5 3.60706469,41.4852814 3.60706469,39 L3.60706469,9 C3.60706469,6.51471863 5.62178332,4.5 8.10706469,4.5 L112.128425,4.5 C114.613706,4.5 116.628425,6.51471863 116.628425,9 L116.628425,39 C116.628425,41.4852814 114.613706,43.5 112.128425,43.5 Z" id="Path-3-Copy" fill="#E5E5F6"></path>
                    <path d="M114.239394,43.5 L4.5,43.5 C2.01471863,43.5 3.04359188e-16,41.4852814 0,39 L0,4.5 C-3.04359188e-16,2.01471863 2.01471863,4.56538782e-16 4.5,0 L114.239394,0 C116.724675,-4.56538782e-16 118.739394,2.01471863 118.739394,4.5 L118.739394,39 C118.739394,41.4852814 116.724675,43.5 114.239394,43.5 Z" id="Path-3" stroke="#7176C4" stroke-width="1.5" fill="#FFFFFF"></path>
                    <rect id="Rectangle" fill="#DBDBF3" x="41.1039234" y="10.3845" width="36.0727273" height="9" rx="4.5"></rect>
                    <rect id="Rectangle-Copy-13" fill="#DBDBF3" x="41.1039234" y="32.8845" width="25.5515152" height="4.5" rx="2.25"></rect>
                    <rect id="Rectangle-Copy-11" fill="#BCBCE2" x="69.6614992" y="32.8845" width="37.5757576" height="4.5" rx="2.25"></rect>
                    <rect id="Rectangle-Copy-12" fill="#BCBCE2" x="41.1039234" y="25.3845" width="27.0545455" height="4.5" rx="2.25"></rect>
                    <path d="M37.8330289,21.7397745 C37.8330289,29.551616 31.488119,35.88465 23.6595779,35.88465 C15.831955,35.88465 9.48612692,29.551616 9.48612692,21.7397745 C9.48612692,13.9279331 15.831955,7.59489903 23.6595779,7.59489903 C31.488119,7.59489903 37.8330289,13.9279331 37.8330289,21.7397745" id="Fill-13" fill="#FFFFFF"></path>
                    <path d="M37.8330289,20.8834589 C37.8330289,22.0837301 37.6953156,23.2381894 37.4290699,24.3559993 C36.299821,29.1021098 32.9120743,32.9677161 28.4685257,34.7736203 C26.7232394,35.4873694 24.8053524,35.8822678 22.8039194,35.8822678 C14.5043989,35.8822678 7.77480987,29.1662465 7.77480987,20.8834589 C7.77480987,12.6006713 14.5043989,5.88465 22.8039194,5.88465 C31.1034398,5.88465 37.8330289,12.6006713 37.8330289,20.8834589 Z" id="Stroke-19" stroke="#7176C4" stroke-width="1.5"></path>
                    <g id="Group-29" transform="translate(14.087104, 9.570900)">
                        <path d="M16.0401891,8.8479 C16.0401891,12.8034 12.8282133,16.0074 8.86622545,16.0074 C4.90423758,16.0074 1.69226182,12.8034 1.69226182,8.8479 C1.69226182,4.8939 4.90423758,1.6899 8.86622545,1.6899 C12.8282133,1.6899 16.0401891,4.8939 16.0401891,8.8479" id="Fill-57" fill="#DBDBF3"></path>
                        <path d="M8.0201697,16.008 C8.16295758,16.008 8.30123636,15.993 8.44252121,15.9855 C8.58380606,15.9945 8.72358788,16.008 8.86487273,16.008 C12.8283636,16.008 16.0403394,12.8025 16.0403394,8.8485 C16.0403394,8.706 16.0268121,8.5665 16.0177939,8.4255 C16.0253091,8.286 16.0403394,8.1465 16.0403394,8.004 C16.0403394,3.5835 12.4496,0 8.0201697,0 C3.59073939,0 0,3.5835 0,8.004 C0,12.423 3.59073939,16.008 8.0201697,16.008 Z" id="Stroke-63" stroke="#7176C4" stroke-width="1.5" stroke-linecap="round" stroke-linejoin="round"></path>
                    </g>
                    <path d="M34.4668615,30.2423251 C32.0215455,33.8899956 28.0707633,35.7471502 22.6145151,35.813789 C17.2171662,35.8797084 13.1956465,33.6994266 10.5499559,29.2729436 C10.5499559,27.2434436 10.9713222,25.64535 13.0049222,25.64535 L31.2066192,25.64535 C34.4236908,25.5984567 34.4668615,28.2128251 34.4668615,30.2423251 Z" id="Stroke-61-Copy" stroke="#7176C4" stroke-width="1.5" stroke-linecap="round" stroke-linejoin="round"></path>
                    <path d="M33.0954105,30.5351157 C30.9439876,33.2250028 27.4680349,34.5945169 22.6675522,34.6436581 C17.91889,34.6922688 14.3807013,33.0844723 12.0529862,29.8202686 C12.0529862,28.3236625 12.4237101,27.1451867 14.2128995,27.1451867 L30.2270042,27.1451867 C33.0574283,27.1106064 33.0954105,29.0385096 33.0954105,30.5351157 Z" id="Stroke-61-Copy-2" fill="#DBDBF3"></path>
                </g>
                <ellipse id="Oval" fill="#DBDBF3" cx="88.1867845" cy="10.7308372" rx="2.23980167" ry="2.23528594"></ellipse>
                <polygon id="Fill-33" fill="#DBDBF3" transform="translate(120.837276, 6.055201) rotate(-45.000000) translate(-120.837276, -6.055201) " points="125.114238 3.72496356 123.167514 1.77823882 120.834713 4.10983747 118.498402 1.77352731 116.555602 3.71632719 118.891913 6.05263736 116.560314 8.38543843 118.507039 10.3321632 120.838639 8.0005633 123.17615 10.3368747 125.11895 8.39407479 122.782638 6.05656342"></polygon>
                <path d="M61.9272059,84.6816012 C61.9272059,87.0201012 60.0273756,88.9146012 57.6856544,88.9146012 C55.3424301,88.9146012 53.4425998,87.0201012 53.4425998,84.6816012 C53.4425998,82.3431012 55.3424301,80.4486012 57.6856544,80.4486012 C60.0273756,80.4486012 61.9272059,82.3431012 61.9272059,84.6816012" id="Fill-1" fill-opacity="0.5" fill="#DBDBF3"></path>
            </g>
            <polygon id="Fill-33" fill="#BCBCE2" points="10.7090909 76.2087012 8.27568485 73.7802012 5.35379394 76.6947012 2.43340606 73.7802012 0 76.2087012 2.92038788 79.1232012 0 82.0392012 2.43340606 84.4677012 5.35379394 81.5532012 8.27568485 84.4677012 10.7090909 82.0392012 7.78870303 79.1232012"></polygon>
            <rect id="Rectangle" fill="#7176C4" x="10.7718147" y="103.509438" width="178.860606" height="1.5" rx="0.75"></rect>
            <rect id="Rectangle-Copy-18" fill="#7176C4" x="51.3536329" y="109.509438" width="28.5575758" height="1.5" rx="0.75"></rect>
            <rect id="Rectangle-Copy-19" fill="#7176C4" x="84.4202996" y="109.509438" width="58.6181818" height="1.5" rx="0.75"></rect>
        </g>
    </g>
</svg>