<?xml version="1.0" encoding="UTF-8"?>
<svg width="490px" height="245px" viewBox="0 0 490 245" version="1.1" xmlns="http://www.w3.org/2000/svg" xmlns:xlink="http://www.w3.org/1999/xlink">
    <title>Shape</title>
    <g id="Page-1" stroke="none" stroke-width="1" fill="none" fill-rule="evenodd">
        <path d="M69.99975,17.5 C69.99975,12.8594 71.84355,8.4062 75.12475,5.125 C78.40595,1.8438 82.85915,0 87.49975,0 L402.49975,0 C408.75365,0 414.53075,3.3359 417.65575,8.75 C420.78075,14.1641 420.78075,20.836 417.65575,26.25 C414.53075,31.664 408.75345,35 402.49975,35 L87.49975,35 C82.85915,35 78.40595,33.1562 75.12475,29.875 C71.84355,26.5938 69.99975,22.1406 69.99975,17.5 Z M17.49975,140 L472.49975,140 C478.75365,140 484.53075,136.6641 487.65575,131.25 C490.78075,125.8359 490.78075,119.164 487.65575,113.75 C484.53075,108.336 478.75345,105 472.49975,105 L17.49975,105 C11.24585,105 5.46875,108.3359 2.34375,113.75 C-0.78125,119.1641 -0.78125,125.836 2.34375,131.25 C5.46875,136.664 11.24605,140 17.49975,140 Z M52.49975,210 C46.24585,210 40.46875,213.3359 37.34375,218.75 C34.21875,224.1641 34.21875,230.836 37.34375,236.25 C40.46875,241.664 46.24605,245 52.49975,245 L437.49975,245 C443.75365,245 449.53075,241.6641 452.65575,236.25 C455.78075,230.8359 455.78075,224.164 452.65575,218.75 C449.53075,213.336 443.75345,210 437.49975,210 L52.49975,210 Z" id="Shape" fill="#6B7E91" fill-rule="nonzero"></path>
    </g>
</svg>