<?xml version="1.0" encoding="UTF-8"?>
<svg width="62px" height="80px" viewBox="0 0 62 80" version="1.1" xmlns="http://www.w3.org/2000/svg" xmlns:xlink="http://www.w3.org/1999/xlink">
    <!-- Generator: Sketch 59 (86127) - https://sketch.com -->
    <title>Map_1 new.svg</title>
    <desc>Created with Sketch.</desc>
    <defs>
        <linearGradient x1="34.1142507%" y1="34.0182685%" x2="60.3501072%" y2="58.4804525%" id="linearGradient-1">
            <stop stop-color="#FFFFFF" stop-opacity="0.2" offset="0%"></stop>
            <stop stop-color="#FFFFFF" stop-opacity="0" offset="100%"></stop>
        </linearGradient>
    </defs>
    <g id="Map_1-new.svg" stroke="none" stroke-width="1" fill="none" fill-rule="evenodd">
        <g id="Map_1-new" transform="translate(11.000000, 1.000000)" fill-rule="nonzero">
            <path d="M39.5,19.5 C39.5,8.78 30.72,0 20,0 C9.28,0 0.5,8.78 0.5,19.5 C0.5,29.71 8.36,38.08 18.37,38.9 L18.37,76.37 C18.37,77.29 19.08,78 20,78 C20.92,78 21.63,77.29 21.63,76.37 L21.63,38.9 C31.64,38.08 39.5,29.71 39.5,19.5 Z" id="Path" fill="#303C42"></path>
            <circle id="Oval" fill="#E53935" cx="20" cy="19.5" r="16.23"></circle>
            <path d="M31.03,7.76 C31.13,8.37 31.23,9.09 31.23,9.8 C31.23,18.78 23.98,26.03 15,26.03 C10.71,26.03 6.73,24.29 3.87,21.54 C4.89,29.5 11.63,35.83 19.9,35.83 C28.88,35.83 36.13,28.58 36.13,19.6 C36.13,14.91 34.19,10.72 31.03,7.76 Z" id="Path" fill="#000000" opacity="0.1"></path>
            <path d="M39.5,19.5 C39.5,8.78 30.72,0 20,0 C9.28,0 0.5,8.78 0.5,19.5 C0.5,29.71 8.36,38.08 18.37,38.9 L18.37,76.37 C18.37,77.29 19.08,78 20,78 C20.92,78 21.63,77.29 21.63,76.37 L21.63,38.9 C31.64,38.08 39.5,29.71 39.5,19.5 Z" id="Path" fill="url(#linearGradient-1)"></path>
        </g>
    </g>
</svg>
