<svg xmlns="http://www.w3.org/2000/svg" width="35" height="40" viewBox="0 0 35 40">
    <g fill="none" fill-rule="evenodd">
        <g fill-rule="nonzero">
            <path fill="#E2E5E7" d="M5.312 0a2.456 2.456 0 0 0-2.45 2.45v34.29a2.456 2.456 0 0 0 2.45 2.449h24.493a2.456 2.456 0 0 0 2.45-2.45V9.797L22.456 0H5.312z"/>
            <path fill="#B0B7BD" d="M24.906 9.797h7.348L22.457 0v7.348a2.456 2.456 0 0 0 2.45 2.45z"/>
        </g>
        <path fill="#007F3A" fill-rule="nonzero" d="M34.79 29.908c0 .78-.643 1.418-1.429 1.418H1.93A1.428 1.428 0 0 1 .5 29.908V15.719c0-.78.643-1.419 1.429-1.419H33.36c.786 0 1.43.639 1.43 1.419v14.189z"/>
        <path fill="#FFF" fill-rule="nonzero" d="M5.992 27.848a.362.362 0 0 1-.266-.11.362.362 0 0 1-.11-.266v-1.58c0-.105.037-.193.11-.266a.362.362 0 0 1 .266-.11h1.58c.105 0 .194.036.267.11.073.073.11.161.11.266v1.58a.377.377 0 0 1-.102.267.356.356 0 0 1-.274.11H5.992zm3.584 0a.331.331 0 0 1-.242-.102.331.331 0 0 1-.102-.242c0-.094.031-.183.094-.266l2.676-3.569-2.473-3.35a.436.436 0 0 1-.093-.266c0-.094.033-.174.101-.242a.331.331 0 0 1 .243-.102h1.377c.115 0 .201.023.259.07.057.047.117.113.18.196l1.753 2.332 1.737-2.332c.01-.01.05-.057.117-.14.068-.084.175-.126.321-.126h1.33c.095 0 .173.034.235.102a.327.327 0 0 1 .094.227.458.458 0 0 1-.094.281l-2.504 3.366 2.692 3.553a.436.436 0 0 1 .094.266.331.331 0 0 1-.102.242.331.331 0 0 1-.242.102h-1.44c-.167 0-.308-.083-.423-.25l-1.878-2.473-1.894 2.473c-.115.167-.256.25-.423.25H9.576zm9.58 0a.362.362 0 0 1-.267-.11.362.362 0 0 1-.11-.266V17.111c0-.115.037-.206.11-.274a.377.377 0 0 1 .267-.102h1.314a.37.37 0 0 1 .274.102.37.37 0 0 1 .102.274v10.361a.377.377 0 0 1-.102.267.356.356 0 0 1-.274.11h-1.314zm6.87.157c-.792 0-1.455-.12-1.987-.36s-.926-.52-1.182-.838c-.255-.318-.383-.592-.383-.821 0-.105.034-.188.102-.25a.345.345 0 0 1 .242-.095h1.284c.083 0 .156.042.219.125.052.042.17.141.352.298.183.156.391.279.626.368.235.088.493.133.775.133.417 0 .756-.081 1.017-.243a.773.773 0 0 0 .391-.696.722.722 0 0 0-.18-.51c-.12-.13-.333-.25-.641-.36-.308-.109-.77-.231-1.385-.367-.887-.188-1.542-.475-1.965-.86-.422-.387-.634-.898-.634-1.535 0-.417.125-.811.376-1.182.25-.37.623-.673 1.119-.907.496-.235 1.088-.353 1.777-.353.71 0 1.32.113 1.83.337.512.224.9.493 1.167.806.266.313.4.59.4.83a.331.331 0 0 1-.103.242.331.331 0 0 1-.242.102h-1.174a.313.313 0 0 1-.266-.125 5.452 5.452 0 0 1-.352-.29 1.997 1.997 0 0 0-.54-.336 1.853 1.853 0 0 0-.72-.126c-.387 0-.684.084-.893.25a.801.801 0 0 0-.313.658c0 .188.05.345.149.47.1.125.3.242.603.352.302.11.756.222 1.361.337 1.879.365 2.818 1.184 2.818 2.457 0 .74-.321 1.34-.963 1.8-.642.46-1.536.689-2.684.689z"/>
        <path fill="#CAD1D8" d="M2.949 31.326h29.392v1H2.949z"/>
    </g>
</svg>
