<?xml version="1.0" encoding="UTF-8"?>
<svg width="18px" height="18px" viewBox="0 0 18 18" version="1.1" xmlns="http://www.w3.org/2000/svg" xmlns:xlink="http://www.w3.org/1999/xlink">
    <!-- Generator: Sketch 59 (86127) - https://sketch.com -->
    <title>comment</title>
    <desc>Created with Sketch.</desc>
    <g id="Page-1" stroke="none" stroke-width="1" fill="none" fill-rule="evenodd">
        <g id="Vendor_Portal_Home1.0" transform="translate(-30.000000, -235.000000)" fill="#324056" fill-rule="nonzero">
            <g id="Group-6" transform="translate(29.000000, 126.000000)">
                <g id="comment" transform="translate(1.000000, 109.000000)">
                    <path d="M17.4726562,0 L0.52734375,0 C0.236109375,0 0,0.236109375 0,0.52734375 L0,14.0836289 C0,14.3748633 0.236109375,14.6109727 0.52734375,14.6109727 L3.3890625,14.6109727 L3.3890625,17.4726562 C3.3890625,17.6859492 3.51755859,17.8782539 3.71460938,17.9598516 C3.77985938,17.9868867 3.84837891,18 3.91630078,18 C4.05355078,18 4.18844531,17.9464219 4.28930859,17.8455234 L7.52389453,14.6109375 L17.4726562,14.6109375 C17.7638906,14.6109375 18,14.3748281 18,14.0835938 L18,0.52734375 C18,0.236109375 17.7638906,0 17.4726562,0 Z M16.9453125,13.5562852 L7.30546875,13.5562852 C7.16561719,13.5562852 7.03146094,13.6118672 6.93260156,13.7107617 L4.44378516,16.199543 L4.44378516,14.0836289 C4.44378516,13.7923945 4.20767578,13.5562852 3.91644141,13.5562852 L1.0546875,13.5562852 L1.0546875,1.0546875 L16.9453125,1.0546875 L16.9453125,13.5562852 Z" id="Shape"></path>
                </g>
            </g>
        </g>
    </g>
</svg>