<svg viewBox="0 0 65 65" xmlns="http://www.w3.org/2000/svg"><g transform="translate(.54 1)" fill="none" fill-rule="evenodd"><path fill="#E9E9F8" d="M9.786 9.998h38.929v38.929H9.786z"/><g transform="translate(17.905 18.117)"><rect fill="#F9F9F9" width="20.132" height="20.132" rx="1.716"/><rect fill="#C4C5E8" x="1.196" y="1.196" width="17.739" height="17.739" rx="1.716"/></g><path stroke="#7176C4" stroke-linecap="round" stroke-linejoin="round" d="M7.375 7.587h41.34v41.34H7.375z"/><g stroke="#7176C4" stroke-linecap="round" stroke-linejoin="round"><path d="M0 20.457h7.385M0 28.255h7.385M0 36.053h7.385"/></g><g stroke="#7176C4" stroke-linecap="round" stroke-linejoin="round"><path d="M48.715 20.457H56.1M48.715 28.255H56.1"/><path stroke-width="1.56" d="M48.715 36.053h5.405"/></g><path d="M47.882 47.933v-18.47c-10.2 0-18.47 8.27-18.47 18.47 0 .339 18.47 0 18.47 0z" fill-opacity=".4" fill="#BCBCE2"/><g stroke="#7176C4" stroke-linecap="round" stroke-linejoin="round"><path d="M36.057 0v7.385M28.26 0v7.385M20.461 0v7.385"/></g><g stroke="#7176C4" stroke-linecap="round" stroke-linejoin="round"><path stroke-width="1.56" d="M36.057 48.927V54.5"/><path d="M28.26 48.927v7.385M20.461 48.927v7.385"/></g><circle stroke="#7176C4" fill="#FFF" stroke-linecap="round" stroke-linejoin="round" cx="48.51" cy="48.548" r="14.615"/><circle fill="#D9DAF0" cx="49.183" cy="48.927" r="13.344"/><path fill="#ADAEDD" d="M29.25 21.241h6.63v2.051h-6.63z"/><path fill="#D9DAF0" d="M32.029 24.593h3.851v2.051h-3.851zM11.302 43.194h3.851v3.866h-3.851z"/><g transform="translate(35.504 41.306)" stroke="#7176C4" stroke-linecap="round" stroke-linejoin="round"><path d="M0 1.878l10.468.009"/><circle fill="#FFF" cx="12.384" cy="1.878" r="1.878"/></g><g transform="rotate(-90 58.29 3.535)" stroke="#7176C4" stroke-linecap="round" stroke-linejoin="round"><path d="M1.621 2.447l6.24-.009"/><circle fill="#FFF" cx="9.824" cy="2.438" r="1.878"/></g><path stroke="#7176C4" stroke-linecap="round" stroke-linejoin="round" d="M42.486 49.532h7.385l4.802-4.032h7.855M36.235 55.828h8.941"/><circle stroke="#7176C4" fill="#FFF" stroke-linecap="round" stroke-linejoin="round" cx="40.56" cy="49.453" r="1.878"/><circle stroke="#7176C4" fill="#FFF" stroke-linecap="round" stroke-linejoin="round" cx="47.055" cy="55.828" r="1.878"/></g></svg>