<?xml version="1.0" encoding="UTF-8"?>
<svg width="22px" height="20px" viewBox="0 0 22 20" version="1.1" xmlns="http://www.w3.org/2000/svg" xmlns:xlink="http://www.w3.org/1999/xlink">
    <!-- Generator: Sketch 63.1 (92452) - https://sketch.com -->
    <title>box-outline</title>
    <desc>Created with Sketch.</desc>
    <g id="Page-1" stroke="none" stroke-width="1" fill="none" fill-rule="evenodd">
        <g id="Site_Summary1.1" transform="translate(-963.000000, -727.000000)" fill="#010002" fill-rule="nonzero">
            <g id="Group-7" transform="translate(945.000000, 727.000000)">
                <g id="box-outline" transform="translate(18.000000, -0.000000)">
                    <path d="M20.6055285,0.0337996071 L1.37368173,0.0337996071 C0.615438114,0.0337996071 0,0.649237721 0,1.40752456 L0,4.15493124 L21.9792534,4.15493124 L21.9792534,1.40752456 C21.9792534,0.649237721 21.3638153,0.0337996071 20.6055285,0.0337996071 Z M20.6055285,2.78120629 L1.37368173,2.78120629 L1.37368173,1.40752456 L20.6055285,1.40752456 L20.6055285,2.78120629 Z" id="Shape"></path>
                    <path d="M1.37368173,17.8919646 C1.37368173,18.6502515 1.98911984,19.2656464 2.74736346,19.2656464 L19.2318035,19.2656464 C19.9900904,19.2656464 20.6054853,18.6502083 20.6054853,17.8919646 L20.6054853,5.52861297 L1.37368173,5.52861297 L1.37368173,17.8919646 Z M2.74740668,6.90233792 L19.2318468,6.90233792 L19.2318468,17.8919646 L2.74740668,17.8919646 L2.74740668,6.90233792 Z" id="Shape"></path>
                    <path d="M14.4238743,8.27601965 L7.55537917,8.27601965 C7.17623576,8.27601965 6.86853831,8.58371709 6.86853831,8.96286051 C6.86853831,9.34062083 7.17623576,9.64970138 7.55537917,9.64970138 L14.4238743,9.64970138 C14.8016346,9.64970138 15.1107151,9.34062083 15.1107151,8.96286051 C15.1107151,8.58376031 14.8016346,8.27601965 14.4238743,8.27601965 Z" id="Path"></path>
                </g>
            </g>
        </g>
    </g>
</svg>