<svg viewBox="0 0 512 512">
  <path d="M370.149 11.626c14.575-15.431 40.442-15.431 54.645-.417l75.366 75.433c15.723 14.949 15.723 40.04.379 54.619L298.656 343.297 194.624 447.243c-3.182 3.948-5.834 5.91-10.46 8.687l-3.283 1.596c-44.012 16.76-78.571 29.579-103.73 38.471l-12.793 4.462c-13.152 4.516-22.977 7.636-29.692 9.41l-3.843.948c-2.387.539-4.454.89-6.38 1.055-3.563.304-6.661.146-10.594-1.348-11.118-4.222-16.66-16.732-12.43-26.745L54.966 330.9c2.04-5.207 5.239-9.872 8.2-12.082zm-56.561 115.037L197.901 242.451 92.983 347.223l-39.707 113.29 17.21-6.014c9.628-3.444 20.51-7.409 32.645-11.896l60.657-22.839 220.928-221.075-71.128-72.026zm84.069-84.142L342.8 97.425l71.132 72.029 55.287-55.321-71.562-71.612z" fill-rule="nonzero"/>
</svg>
