<?xml version="1.0" encoding="UTF-8"?>
<svg width="19px" height="18px" viewBox="0 0 50 50" version="1.1" xmlns="http://www.w3.org/2000/svg" xmlns:xlink="http://www.w3.org/1999/xlink">
    <g id="blog-icon-50x50-st-copy" stroke="none" stroke-width="1" fill="none" fill-rule="evenodd">
        <g id="blog-icon" transform="translate(0.000000, 1.000000)" fill="#353F54" fill-rule="nonzero">
            <path d="M44.6990005,1.0658141e-13 C47.6057623,1.0658141e-13 49.9621584,2.35639605 49.9621584,5.26315789 L49.9621584,42.054368 C49.9621584,44.9611298 47.6057623,47.3175259 44.6990005,47.3175259 L5.26315789,47.3175259 C2.35639605,47.3175259 -2.16715534e-13,44.9611298 -2.16715534e-13,42.054368 L-2.16715534e-13,5.26315789 C-2.16715534e-13,2.35639605 2.35639605,1.0658141e-13 5.26315789,1.0658141e-13 L44.6990005,1.0658141e-13 Z M44.6990005,2.63157895 L5.26315789,2.63157895 C3.86567624,2.63157895 2.72261664,3.72088925 2.63675626,5.0967327 L2.63157895,5.26315789 L2.63157895,42.054368 C2.63157895,43.4518497 3.72088925,44.5949093 5.0967327,44.6807696 L5.26315789,44.6859469 L44.6990005,44.6859469 C46.0964822,44.6859469 47.2395418,43.5966366 47.3254021,42.2207932 L47.3305794,42.054368 L47.3305794,5.26315789 C47.3305794,3.86567624 46.2412691,2.72261664 44.8654257,2.63675626 L44.6990005,2.63157895 Z M29.0640377,28.9897857 C29.7907282,28.9897857 30.3798272,29.5788847 30.3798272,30.3055752 C30.3798272,30.9868475 29.8620644,31.5471898 29.1985696,31.6145714 L29.0640377,31.6213647 L11.8787321,31.6213647 C11.1520416,31.6213647 10.5629426,31.0322657 10.5629426,30.3055752 C10.5629426,29.6243029 11.0807054,29.0639606 11.7442002,28.996579 L11.8787321,28.9897857 L29.0640377,28.9897857 Z M38.1337845,15.831891 C38.860475,15.831891 39.449574,16.42099 39.449574,17.1476805 C39.449574,17.8289528 38.9318112,18.3892951 38.2683164,18.4566767 L38.1337845,18.4634699 L11.8787321,18.4634699 C11.1520416,18.4634699 10.5629426,17.8743709 10.5629426,17.1476805 C10.5629426,16.4664081 11.0807054,15.9060658 11.7442002,15.8386843 L11.8787321,15.831891 L38.1337845,15.831891 Z" id="Combined-Shape"></path>
        </g>
    </g>
</svg>
