<svg width="23" height="16" viewBox="0 0 18 12" xmlns="http://www.w3.org/2000/svg">
    <path d="M8.8 9.4c.947 0 1.75-.33 2.41-.99.66-.66.99-1.463.99-2.41 0-.947-.33-1.75-.99-2.41-.66-.66-1.463-.99-2.41-.99-.947 0-1.75.33-2.41.99-.66.66-.99 1.463-.99 2.41 0 .947.33 1.75.99 2.41.66.66 1.463.99 2.41.99zm0-1.16a2.163 2.163 0 0 1-1.59-.65A2.163 2.163 0 0 1 6.56 6c0-.627.217-1.157.65-1.59.433-.433.963-.65 1.59-.65.627 0 1.157.217 1.59.65.433.433.65.963.65 1.59 0 .627-.217 1.157-.65 1.59-.433.433-.963.65-1.59.65zm0 3.76c-1.947 0-3.707-.553-5.28-1.66A10.113 10.113 0 0 1 0 6a10.113 10.113 0 0 1 3.52-4.34C5.093.553 6.853 0 8.8 0s3.707.553 5.28 1.66A10.113 10.113 0 0 1 17.6 6a10.113 10.113 0 0 1-3.52 4.34C12.507 11.447 10.747 12 8.8 12zm0-1.2a8.043 8.043 0 0 0 4.45-1.31A8.5 8.5 0 0 0 16.34 6a8.5 8.5 0 0 0-3.09-3.49A8.043 8.043 0 0 0 8.8 1.2a8.043 8.043 0 0 0-4.45 1.31A8.644 8.644 0 0 0 1.24 6a8.644 8.644 0 0 0 3.11 3.49A8.043 8.043 0 0 0 8.8 10.8z" fill-rule="nonzero"/>
</svg>
