<?xml version="1.0" encoding="UTF-8"?>
<svg viewBox="0 0 50 50" width="19" height="22" version="1.1" xmlns="http://www.w3.org/2000/svg"
  xmlns:xlink="http://www.w3.org/1999/xlink">
  <defs>
    <path
      d="M28.169,25.74 L36.029,33.57 L7.72059471,49.5999335 C7.31324493,49.830594 6.86064376,49.9674603 6.3957161,50.0018576 L6.16237749,50.010477 C5.49588449,50.010477 4.87754815,49.8042938 4.36767286,49.4522318 L28.169,25.74 Z M3.61324357,1.28047198 L27.416,24.99 L3.60680372,48.7111775 C3.25820769,48.2338269 3.0401128,47.6551225 3.00500608,47.0275512 L3,46.8480995 L3,3.15251118 C3,2.60838878 3.14039584,2.07347111 3.40761173,1.59948286 C3.47057882,1.48779167 3.53931772,1.38140033 3.61324357,1.28047198 Z M37.023,16.92 L46.3838154,22.1974702 C46.8847827,22.4798959 47.2992519,22.8935846 47.5826211,23.3940188 C48.4432007,24.9138147 47.9088003,26.8434904 46.3890043,27.70407 L46.3890043,27.70407 L36.916,33.068 L28.864,25.047 L37.023,16.92 Z M4.30996783,0.588522572 C5.27938487,-0.110922149 6.60572175,-0.227850701 7.71540581,0.397745425 L7.71540581,0.397745425 L36.061,16.378 L28.111,24.298 Z"
      id="path-1"></path>
  </defs>
  <g id="playstore-logo" stroke="none" stroke-width="1" fill="none" fill-rule="evenodd">
    <mask id="mask-2" fill="white">
      <use xlink:href="#path-1"></use>
    </mask>
    <use id="play-logo" fill="#353f54" xlink:href="#path-1"></use>
  </g>
</svg>
