<?xml version="1.0" encoding="UTF-8"?>
<svg width="700pt" height="700pt" version="1.1" viewBox="0 0 700 700" xmlns="http://www.w3.org/2000/svg">
 <path d="m268.33 303.33c21.66 0 42.434-8.6016 57.75-23.918 15.312-15.316 23.918-36.09 23.918-57.746 0-21.66-8.6055-42.434-23.918-57.75-15.316-15.312-36.09-23.918-57.75-23.918-21.656 0-42.43 8.6055-57.746 23.918-15.316 15.316-23.918 36.09-23.918 57.75 0 21.656 8.6016 42.43 23.918 57.746 15.316 15.316 36.09 23.918 57.746 23.918zm0-140c15.473 0 30.309 6.1484 41.25 17.086 10.938 10.941 17.086 25.777 17.086 41.25 0 15.469-6.1484 30.309-17.086 41.246-10.941 10.941-25.777 17.086-41.25 17.086-15.469 0-30.309-6.1445-41.246-17.086-10.941-10.938-17.086-25.777-17.086-41.246 0.019531-15.469 6.168-30.293 17.105-41.23 10.934-10.934 25.762-17.086 41.227-17.105zm81.668 186.67h-163.33c-18.566 0-36.371 7.375-49.5 20.504-13.125 13.125-20.5 30.93-20.5 49.496v46.668h303.33v-46.668c0-18.566-7.375-36.371-20.504-49.496-13.125-13.129-30.93-20.504-49.496-20.504zm46.668 93.332h-256.67v-23.332c0.015625-12.371 4.9336-24.234 13.684-32.984 8.75-8.7461 20.609-13.668 32.984-13.684h163.33c12.371 0.015625 24.234 4.9375 32.984 13.684 8.7461 8.75 13.668 20.613 13.684 32.984zm186.23-245c0-0.85938-0.22656-1.6562-0.25391-2.5078l24.02-4.2344-4.0508-22.98-24.164 4.2617h-0.003906c-3.4727-10.609-9.0977-20.383-16.523-28.719l15.738-18.758-17.875-15-15.691 18.699 0.003906 0.003906c-9.5078-5.8672-20.133-9.6992-31.199-11.254v-24.512h-23.332v24.512c-11.066 1.5547-21.691 5.3867-31.199 11.254l-15.691-18.699-17.875 15 15.738 18.758v-0.003906c-7.4219 8.3359-13.047 18.113-16.52 28.719l-24.168-4.2617-4.0508 22.98 24.02 4.2344c-0.027344 0.85156-0.25391 1.6484-0.25391 2.5078 0.027344 10.371 2.0469 20.641 5.9375 30.25l-21.039 12.148 11.668 20.207 21.242-12.262v-0.003906c6.9102 8.7539 15.551 15.996 25.375 21.277l-8.3945 23.062 21.926 7.9805 8.2695-22.719c11 2.3008 22.359 2.3008 33.359 0l8.2695 22.719 21.926-7.9805-8.3945-23.062h0.003906c9.8242-5.2812 18.461-12.523 25.375-21.277l21.242 12.262 11.668-20.207-21.039-12.145c3.8906-9.6094 5.9062-19.879 5.9375-30.25zm-81.668 58.332 0.003906 0.003907c-15.473 0-30.309-6.1484-41.25-17.086-10.938-10.941-17.086-25.777-17.086-41.25 0-15.469 6.1484-30.309 17.086-41.246 10.941-10.941 25.777-17.086 41.25-17.086 15.469 0 30.305 6.1445 41.246 17.086 10.941 10.938 17.086 25.777 17.086 41.246-0.019531 15.469-6.168 30.293-17.105 41.23-10.938 10.934-25.762 17.086-41.227 17.105zm0-93.332h0.003906c-9.2852 0-18.188 3.6875-24.75 10.254-6.5625 6.5625-10.25 15.465-10.25 24.746 0 9.2852 3.6875 18.188 10.25 24.75s15.465 10.25 24.75 10.25c9.2812 0 18.184-3.6875 24.746-10.25 6.5664-6.5625 10.254-15.465 10.254-24.75 0-9.2812-3.6875-18.184-10.254-24.746-6.5625-6.5664-15.465-10.254-24.746-10.254zm0 46.668h0.003906c-4.7188 0-8.9727-2.8438-10.781-7.2031-1.8047-4.3594-0.80469-9.375 2.5312-12.715 3.3359-3.3359 8.3516-4.332 12.715-2.5273 4.3594 1.8047 7.1992 6.0586 7.1992 10.777-0.007813 6.4414-5.2266 11.66-11.664 11.668z"/>
</svg>
