<?xml version="1.0" encoding="UTF-8"?><svg id="trim_area" xmlns="http://www.w3.org/2000/svg" viewBox="0 0 192 192"><defs><style>.cls-1{fill:none;}.cls-2{fill:#334056;}</style></defs><rect class="cls-1" x="0" y="0" width="192" height="192"/><g><path class="cls-2" d="M95.25,22.84c-40.34,0-73.16,32.82-73.16,73.16s32.82,73.17,73.16,73.17,73.17-32.82,73.17-73.17S135.59,22.84,95.25,22.84Zm0,134.33c-33.73,0-61.16-27.44-61.16-61.17s27.43-61.16,61.16-61.16,61.17,27.44,61.17,61.16-27.44,61.17-61.17,61.17Z"/><polygon class="cls-2" points="135.44 96.02 104.74 126.72 96.26 118.24 112.47 102.02 56.25 102.02 56.25 90.02 112.47 90.02 96.24 73.79 104.72 65.31 135.44 96.02"/></g></svg>