<svg width="62" height="125" viewBox="0 0 62 125" xmlns="http://www.w3.org/2000/svg">
    <g fill="none" fill-rule="evenodd" opacity=".2">
        <path d="M-3-5h135v135H-3z"/>
        <path d="M77.198 6.721a6.096 6.096 0 0 1-6.096 6.09H64.55a6.096 6.096 0 1 1 0-12.186h6.553a6.103 6.103 0 0 1 6.096 6.096z" fill="#354054" fill-rule="nonzero"/>
        <path d="M122.1 110.664H97.842V50.997h7.334a6.68 6.68 0 0 0 2.11-13.015L47.216 18.203v-6.602a.9.9 0 0 1 .352-.078 5.273 5.273 0 0 0 0-10.546C41.564.977 36.67 5.61 36.67 11.305v3.418l-10.842-3.551a6.68 6.68 0 0 0-8.395 4.324 6.813 6.813 0 0 0-.33 2.004v26.817a6.694 6.694 0 0 0 6.679 6.68h7.263v59.667H6.9a6.68 6.68 0 1 0 0 13.36h115.2a6.68 6.68 0 1 0 0-13.36zM30.462 37.638V26.732l33.096 10.906H30.462zm54.02 73.026H44.406V50.997h40.078v59.667z" fill="#2F2CFF" fill-rule="nonzero"/>
    </g>
</svg>
