<?xml version="1.0" encoding="UTF-8"?>
<svg id="Layer_1" data-name="Layer 1" xmlns="http://www.w3.org/2000/svg" viewBox="0 0 2000 95">
  <defs>
    <style>
      .cls-1 {
        fill: none;
      }

      .cls-2 {
        fill: #edf4f1;
      }

      .cls-3 {
        fill: #91c4b0;
      }

      .cls-4 {
        fill: #d0e6da;
      }

      .cls-5 {
        fill: #70b599;
      }
    </style>
  </defs>
  <rect class="cls-2" width="2000" height="95"/>
  <g>
    <polygon class="cls-4" points="1223.3 0 1223.3 21.25 1189.17 21.25 1189.17 0 1187.17 0 1187.17 23.25 1225.3 23.25 1225.3 0 1223.3 0"/>
    <path class="cls-4" d="M1193.21,17.21h26.06V0h-2V3.13h-22.06V0h-2V3.13h0v2h0v3.96h0v2h0v6.11Zm2-12.08h22.06v3.96h-22.06v-3.96Zm0,5.96h22.06v4.11h-22.06v-4.11Z"/>
    <polygon class="cls-4" points="869.63 21.25 835.5 21.25 835.5 0 833.5 0 833.5 23.25 871.63 23.25 871.63 0 869.63 0 869.63 21.25"/>
    <path class="cls-4" d="M839.54,17.21h26.06V0h-2V3.13h-22.06V0h-2V3.13h0v2h0v3.96h0v2h0v6.11Zm2-12.08h22.06v3.96h-22.06v-3.96Zm0,5.96h22.06v4.11h-22.06v-4.11Z"/>
    <path class="cls-4" d="M415.52,51.14c-10.53,0-19.07,8.54-19.07,19.07,0,5.63,2.46,10.68,6.34,14.17h3.23c-4.56-3.07-7.57-8.27-7.57-14.17,0-9.41,7.66-17.07,17.07-17.07s17.07,7.66,17.07,17.07c0,5.9-3.01,11.1-7.57,14.17h3.23c3.88-3.49,6.34-8.54,6.34-14.17,0-10.53-8.54-19.07-19.07-19.07Z"/>
    <path class="cls-4" d="M425.93,63.42c-.39-.39-1.02-.39-1.41,0l-11.44,11.44-6.55-6.55c-.39-.39-1.02-.39-1.41,0s-.39,1.02,0,1.41l7.96,7.96,12.86-12.86c.39-.39,.39-1.02,0-1.41Z"/>
    <path class="cls-4" d="M628.18,18.56c-7.81-4.35-14.13-1.72-20.23,.83-5.93,2.47-11.52,4.8-18.49,.93-.48-.27-1.09-.09-1.36,.39-.27,.48-.09,1.09,.39,1.36,3.03,1.68,5.83,2.32,8.48,2.32,4.19,0,8.01-1.59,11.75-3.15,5.93-2.47,11.52-4.8,18.49-.93,.48,.27,1.09,.1,1.36-.39,.27-.48,.09-1.09-.39-1.36Z"/>
    <path class="cls-4" d="M628.18,5.98c-7.81-4.35-14.13-1.71-20.23,.83-5.93,2.47-11.52,4.8-18.49,.93-.48-.27-1.09-.09-1.36,.39-.27,.48-.09,1.09,.39,1.36,3.03,1.68,5.83,2.32,8.48,2.32,4.19,0,8.01-1.59,11.75-3.15,5.93-2.47,11.52-4.8,18.49-.93,.48,.27,1.09,.1,1.36-.39,.27-.48,.09-1.09-.39-1.36Z"/>
    <path class="cls-4" d="M628.18,31.96c-7.81-4.35-14.13-1.72-20.23,.83-5.93,2.47-11.52,4.8-18.49,.93-.48-.27-1.09-.09-1.36,.39-.27,.48-.09,1.09,.39,1.36,3.03,1.68,5.83,2.32,8.48,2.32,4.19,0,8.01-1.59,11.75-3.15,5.93-2.47,11.52-4.8,18.49-.93,.48,.27,1.09,.1,1.36-.39,.27-.48,.09-1.09-.39-1.36Z"/>
    <polygon class="cls-4" points="222.74 21.25 188.61 21.25 188.61 0 186.61 0 186.61 23.25 224.74 23.25 224.74 0 222.74 0 222.74 21.25"/>
    <path class="cls-4" d="M192.65,17.21h26.06V0h-2V3.13h-22.06V0h-2V3.13h0v2h0v3.96h0v2h0v6.11Zm2-12.08h22.06v3.96h-22.06v-3.96Zm0,5.96h22.06v4.11h-22.06v-4.11Z"/>
  </g>
  <g>
    <path class="cls-1" d="M2.43,95H1562.27c.14-.02,.29-.04,.43-.06l-1560.27,.06Z"/>
    <path class="cls-1" d="M270.98,69.94c64.18,.91,107.86,3.1,156.78,4.86,83.1-4.9,159.72-12.07,233.27-14.05,51.12-1.37,109.73,2.51,183.54,4.46,148.05-17.08,258.91-49.3,347.91-62.39,6.65-.98,13.15-1.92,19.51-2.82H0V95H2.43s123.94-27.1,268.55-25.06Z"/>
    <path class="cls-3" d="M687.01,75.9c56.85-1.15,109.19-5.12,157.57-10.7-73.81-1.95-132.42-5.83-183.54-4.46-73.55,1.97-150.17,9.14-233.27,14.05,61.31,2.2,130.84,3.7,259.24,1.11Z"/>
    <path class="cls-3" d="M844.57,65.21c90.93,2.41,204.95,1.89,356.53-14.98C1350.53,33.6,1455.43,14.22,1520.03,0h-308.04c-6.37,.9-12.86,1.84-19.51,2.82-89,13.08-199.86,45.31-347.91,62.39Z"/>
    <path class="cls-3" d="M427.76,74.79c-48.92-1.75-92.6-3.95-156.78-4.86C126.37,67.9,2.43,95,2.43,95c0,0,157.77-14.39,294.03-15.47,45.72-.36,89.34-2.26,131.3-4.74Z"/>
    <path class="cls-5" d="M1600,0h-79.97c-64.6,14.22-169.5,33.6-318.93,50.23-151.58,16.87-265.6,17.38-356.53,14.98-48.38,5.58-100.71,9.55-157.57,10.7-128.4,2.59-197.93,1.09-259.24-1.11-41.97,2.48-85.58,4.38-131.3,4.74C160.2,80.61,2.43,95,2.43,95l1560.27-.06c9.88-1.39,19.82-2.79,29.77-4.18,2.51-.35,5.02-.7,7.53-1.05,63.13-8.83,125.89-17.46,174.67-23.86,101.52-13.31,181.91,5.18,225.33,19.54V0h-400Z"/>
    <path class="cls-3" d="M1562.7,94.94c-.14,.02-.29,.04-.43,.06h30.2v-.06h-29.77Z"/>
    <path class="cls-3" d="M1592.47,90.76c-9.95,1.39-19.89,2.79-29.77,4.18h29.77v-4.18Z"/>
    <path class="cls-3" d="M1774.67,65.85c-48.78,6.39-111.54,15.03-174.67,23.86v5.23h-7.53v.06h407.53v-9.61c-43.42-14.36-123.81-32.85-225.33-19.54Z"/>
    <path class="cls-3" d="M1600,94.94v-5.23c-2.51,.35-5.02,.7-7.53,1.05v4.18h7.53Z"/>
  </g>
</svg>