<?xml version="1.0" encoding="iso-8859-1"?>
<!-- Generator: Adobe Illustrator 19.0.0, SVG Export Plug-In . SVG Version: 6.00 Build 0)  -->
<svg version="1.1" id="Layer_1" xmlns="http://www.w3.org/2000/svg" xmlns:xlink="http://www.w3.org/1999/xlink" x="0px" y="0px"
	 viewBox="0 0 512 512" style="enable-background:new 0 0 512 512;" xml:space="preserve">
<path style="fill:#81A4E3;" d="M147.371,290.073c-28.39,12.671-47.177,39.879-47.177,69.868c0,2.246,0.107,4.474,0.302,6.671
	c0.276,3.051-1.005,6.031-3.398,7.939c-2.375,1.908-5.568,2.491-8.495,1.543c-5.079-1.655-10.372-2.491-15.735-2.491
	c-30.137,0-54.651,26.561-54.651,59.206s24.515,59.206,54.651,59.206h200.388c35.5-2.304,63.76-34.322,63.76-72.868
	c0-20.026-7.459-38.636-20.978-52.505c-13.475,4.457-27.831,6.958-42.782,6.958C216.74,373.6,168.133,339.109,147.371,290.073z
	 M163.616,359.292l-46.619,46.623c-1.779,1.779-4.11,2.669-6.44,2.669c-2.33,0-4.661-0.889-6.44-2.669
	c-3.558-3.558-3.558-9.322,0-12.88l46.619-46.623c3.558-3.558,9.322-3.558,12.88,0C167.174,349.97,167.174,355.734,163.616,359.292z
	 M282.223,400.992v65.935c0,5.03-4.074,9.109-9.109,9.109s-9.109-4.078-9.109-9.109v-65.935c0-5.03,4.074-9.109,9.109-9.109
	S282.223,395.962,282.223,400.992z"/>
<path style="fill:#E65F58;" d="M273.257,118.56c-65.29,0-118.411,53.117-118.411,118.411s53.121,118.411,118.411,118.411
	s118.411-53.117,118.411-118.411S338.546,118.56,273.257,118.56z"/>
<g>
	<path style="fill:#314E55;" d="M150.736,346.412l-46.619,46.623c-3.558,3.558-3.558,9.322,0,12.88
		c1.779,1.779,4.11,2.669,6.44,2.669c2.33,0,4.661-0.889,6.44-2.669l46.619-46.623c3.558-3.558,3.558-9.322,0-12.88
		C160.058,342.854,154.294,342.854,150.736,346.412z"/>
	<path style="fill:#314E55;" d="M386.411,132.726c2.33,0,4.661-0.889,6.44-2.669l46.619-46.619c3.558-3.558,3.558-9.322,0-12.88
		c-3.558-3.558-9.322-3.558-12.88,0l-46.619,46.619c-3.558,3.558-3.558,9.322,0,12.88
		C381.75,131.836,384.08,132.726,386.411,132.726z"/>
	<path style="fill:#314E55;" d="M392.851,346.412c-3.558-3.558-9.322-3.558-12.88,0c-3.558,3.558-3.558,9.322,0,12.88l46.619,46.623
		c1.779,1.779,4.11,2.669,6.44,2.669c2.33,0,4.661-0.889,6.44-2.669c3.558-3.558,3.558-9.322,0-12.88L392.851,346.412z"/>
	<path style="fill:#314E55;" d="M150.736,130.057c1.779,1.779,4.11,2.669,6.44,2.669c2.33,0,4.661-0.889,6.44-2.669
		c3.558-3.558,3.558-9.322,0-12.88l-46.619-46.619c-3.558-3.558-9.322-3.558-12.88,0c-3.558,3.558-3.558,9.322,0,12.88
		L150.736,130.057z"/>
	<path style="fill:#314E55;" d="M502.892,228.325h-65.174c-5.035,0-9.109,4.078-9.109,9.109s4.074,9.109,9.109,9.109h65.174
		c5.035,0,9.109-4.078,9.109-9.109S507.926,228.325,502.892,228.325z"/>
	<path style="fill:#314E55;" d="M273.114,85.92c5.035,0,9.109-4.078,9.109-9.109V10.877c0-5.03-4.074-9.109-9.109-9.109
		s-9.109,4.078-9.109,9.109v65.935C264.006,81.842,268.08,85.92,273.114,85.92z"/>
	<path style="fill:#314E55;" d="M43.924,246.525h65.93c5.035,0,9.109-4.078,9.109-9.109c0-5.03-4.074-9.109-9.109-9.109h-65.93
		c-5.035,0-9.109,4.078-9.109,9.109C34.816,242.446,38.889,246.525,43.924,246.525z"/>
	<path style="fill:#314E55;" d="M264.006,400.992v65.935c0,5.03,4.074,9.109,9.109,9.109s9.109-4.078,9.109-9.109v-65.935
		c0-5.03-4.074-9.109-9.109-9.109S264.006,395.962,264.006,400.992z"/>
	<path style="fill:#314E55;" d="M409.885,236.971c0-75.337-61.287-136.628-136.628-136.628s-136.628,61.291-136.628,136.628
		c0,12.325,1.79,24.215,4.863,35.58c-34.584,14.7-57.85,47.226-59.426,83.445c-3.042-0.405-6.111-0.609-9.198-0.609
		C32.689,355.387,0,390.118,0,432.809s32.689,77.423,72.868,77.423l200.975-0.018c45.641-2.94,81.39-42.941,81.39-91.068
		c0-22.353-7.572-43.316-21.392-59.897C378.828,336.867,409.885,290.535,409.885,236.971z M337.016,419.147
		c0,38.547-28.26,70.565-63.76,72.868H72.869c-30.137,0-54.651-26.561-54.651-59.206s24.515-59.206,54.651-59.206
		c5.364,0,10.656,0.836,15.735,2.491c2.927,0.947,6.12,0.365,8.495-1.543c2.393-1.908,3.674-4.888,3.398-7.939
		c-0.196-2.197-0.303-4.426-0.303-6.672c0-29.99,18.787-57.198,47.177-69.868c20.762,49.036,69.369,83.527,125.886,83.527
		c14.951,0,29.307-2.501,42.782-6.958C329.557,380.511,337.016,399.121,337.016,419.147z M273.257,355.383
		c-65.29,0-118.411-53.117-118.411-118.411S207.967,118.56,273.257,118.56s118.411,53.117,118.411,118.411
		S338.546,355.383,273.257,355.383z"/>
</g>
<g>
</g>
<g>
</g>
<g>
</g>
<g>
</g>
<g>
</g>
<g>
</g>
<g>
</g>
<g>
</g>
<g>
</g>
<g>
</g>
<g>
</g>
<g>
</g>
<g>
</g>
<g>
</g>
<g>
</g>
</svg>
