<svg xmlns="http://www.w3.org/2000/svg" width="21" height="23" viewBox="0 0 21 23">
    <path fill="#324056" d="M20.32.915c.37 0 .671.296.68.664v20.625c0 .37-.296.671-.664.68H4.818c-.37 0-.67-.296-.68-.664v-2.4c0-.29.235-.524.523-.524.284 0 .516.226.523.509v2.033h14.77V1.96H5.184v8.56c0 .285-.226.516-.508.523h-.015c-.284 0-.515-.226-.522-.508V1.595c0-.37.295-.671.663-.68H20.32zM7.078 12.01l2.635 2.635c.182.182.182.476 0 .658l-2.635 2.635c-.182.182-.477.182-.658 0-.182-.182-.182-.477 0-.659l1.805-1.806-6.848.001c-.258 0-.466-.224-.466-.5s.208-.5.466-.5h6.848L6.42 12.668c-.182-.182-.182-.477 0-.66.181-.181.476-.181.658 0zm9.243-2.683c.39 0 .716.302.716.664 0 .329-.269.592-.611.637l-.105.006H9.746c-.39 0-.716-.281-.716-.643 0-.332.274-.613.62-.658l.096-.006h6.575zm0-2.354c.39 0 .716.302.716.664 0 .33-.269.592-.611.637l-.105.007H9.746c-.39 0-.716-.282-.716-.644 0-.332.274-.613.62-.658l.096-.006h6.575zm0-2.354c.39 0 .716.302.716.664 0 .33-.269.592-.611.637l-.105.007H9.746c-.39 0-.716-.282-.716-.644 0-.332.274-.613.62-.658l.096-.006h6.575z"/>
</svg>
