<?xml version="1.0" encoding="UTF-8"?>
<svg width="65px" height="65px" viewBox="0 0 65 65" version="1.1" xmlns="http://www.w3.org/2000/svg" xmlns:xlink="http://www.w3.org/1999/xlink">
    <!-- Generator: Sketch 63.1 (92452) - https://sketch.com -->
    <title>Group 29 Copy</title>
    <desc>Created with Sketch.</desc>
    <g id="Empty-state" stroke="none" stroke-width="1" fill="none" fill-rule="evenodd">
        <g id="Artboard" transform="translate(-87.000000, -1034.000000)">
            <g id="Group-29-Copy" transform="translate(87.540002, 1035.000000)">
                <rect id="Rectangle" fill="#E9E9F8" x="9.78575381" y="9.99827333" width="38.9292053" height="38.9292053"></rect>
                <g id="Group-27" transform="translate(17.904960, 18.117480)">
                    <rect id="Rectangle" fill="#F9F9F9" x="-7.99360578e-15" y="1.05693232e-13" width="20.1315275" height="20.1315275" rx="1.71599997"></rect>
                    <rect id="Rectangle" fill="#C4C5E8" x="1.19606612" y="1.19606612" width="17.7393953" height="17.7393953" rx="1.71599997"></rect>
                </g>
                <rect id="Rectangle" stroke="#7176C4" stroke-linecap="round" stroke-linejoin="round" x="7.37496067" y="7.58748019" width="41.3399985" height="41.3399985"></rect>
                <g id="Group-26" transform="translate(0.000000, 19.677480)" stroke="#7176C4" stroke-linecap="round" stroke-linejoin="round">
                    <line x1="-3.86357613e-14" y1="0.779999971" x2="7.38503973" y2="0.779999971" id="Stroke-9-Copy"></line>
                    <line x1="-3.86357613e-14" y1="8.57809539" x2="7.38503973" y2="8.57809539" id="Stroke-9-Copy-2"></line>
                    <line x1="-3.86357613e-14" y1="16.3761908" x2="7.38503973" y2="16.3761908" id="Stroke-9-Copy-3"></line>
                </g>
                <g id="Group-26" transform="translate(48.714959, 19.677480)" stroke="#7176C4" stroke-linecap="round" stroke-linejoin="round">
                    <line x1="-3.86357613e-14" y1="0.779999971" x2="7.38503973" y2="0.779999971" id="Stroke-9-Copy"></line>
                    <line x1="-3.86357613e-14" y1="8.57809539" x2="7.38503973" y2="8.57809539" id="Stroke-9-Copy-2"></line>
                    <line x1="-3.86357613e-14" y1="16.3761908" x2="5.40470647" y2="16.3761908" id="Stroke-9-Copy-3" stroke-width="1.55999994"></line>
                </g>
                <path d="M47.8819273,47.9327225 C47.8819273,37.7321079 47.8819273,29.462876 47.8819273,29.462876 C37.6813128,29.462876 29.4120808,37.7321079 29.4120808,47.9327225 C29.4120808,48.2715167 47.8819273,47.9327225 47.8819273,47.9327225 Z" id="Oval" fill-opacity="0.4" fill="#BCBCE2"></path>
                <g id="Group-26" transform="translate(27.837479, 4.000000) rotate(-270.000000) translate(-27.837479, -4.000000) translate(23.837479, -5.000000)" stroke="#7176C4" stroke-linecap="round" stroke-linejoin="round">
                    <line x1="-3.86357613e-14" y1="0.779999971" x2="7.38503973" y2="0.779999971" id="Stroke-9-Copy"></line>
                    <line x1="-3.86357613e-14" y1="8.57809539" x2="7.38503973" y2="8.57809539" id="Stroke-9-Copy-2"></line>
                    <line x1="-3.86357613e-14" y1="16.3761908" x2="7.38503973" y2="16.3761908" id="Stroke-9-Copy-3"></line>
                </g>
                <g id="Group-26" transform="translate(27.837479, 52.927479) rotate(-270.000000) translate(-27.837479, -52.927479) translate(23.837479, 43.927479)" stroke="#7176C4" stroke-linecap="round" stroke-linejoin="round">
                    <line x1="1.68855378e-12" y1="0.779999971" x2="5.57252133" y2="0.779999971" id="Stroke-9-Copy" stroke-width="1.55999994"></line>
                    <line x1="-3.86357613e-14" y1="8.57809539" x2="7.38503973" y2="8.57809539" id="Stroke-9-Copy-2"></line>
                    <line x1="-3.86357613e-14" y1="16.3761908" x2="7.38503973" y2="16.3761908" id="Stroke-9-Copy-3"></line>
                </g>
                <circle id="Oval" stroke="#7176C4" fill="#FFFFFF" stroke-linecap="round" stroke-linejoin="round" cx="48.5103452" cy="48.5483269" r="14.6153855"></circle>
                <circle id="Oval" fill="#D9DAF0" cx="49.1834046" cy="48.9274787" r="13.344181"></circle>
                <rect id="Rectangle" fill="#ADAEDD" x="29.2503565" y="21.2409951" width="6.62999976" height="2.05130852"></rect>
                <rect id="Rectangle-Copy-32" fill="#D9DAF0" x="32.0291064" y="24.5929383" width="3.85124986" height="2.05130852"></rect>
                <rect id="Rectangle-Copy-35" fill="#D9DAF0" x="11.3023824" y="43.1935478" width="3.85124986" height="3.86610337"></rect>
                <g id="Group-28" transform="translate(35.504002, 41.306293)" stroke="#7176C4" stroke-linecap="round" stroke-linejoin="round">
                    <line x1="0" y1="1.8784953" x2="10.467627" y2="1.88725506" id="Stroke-9-Copy-3"></line>
                    <circle id="Oval" fill="#FFFFFF" cx="12.3835349" cy="1.8784953" r="1.8784953"></circle>
                </g>
                <g id="Group-28" transform="translate(57.255062, 55.825231) rotate(-90.000000) translate(-57.255062, -55.825231) translate(51.255062, 53.325231)" stroke="#7176C4" stroke-linecap="round" stroke-linejoin="round">
                    <line x1="1.62098062" y1="2.44725501" x2="7.86098039" y2="2.43849524" id="Stroke-9-Copy-3"></line>
                    <circle id="Oval" fill="#FFFFFF" cx="9.82353497" cy="2.43849524" r="1.8784953"></circle>
                </g>
                <polyline id="Stroke-9-Copy-5" stroke="#7176C4" stroke-linecap="round" stroke-linejoin="round" points="42.4860043 49.5320969 49.871044 49.5320969 54.6727421 45.4996512 62.5275856 45.4996512"></polyline>
                <line x1="36.2349596" y1="55.8277953" x2="45.1762928" y2="55.8277953" id="Stroke-9-Copy-4" stroke="#7176C4" stroke-linecap="round" stroke-linejoin="round"></line>
                <circle id="Oval" stroke="#7176C4" fill="#FFFFFF" stroke-linecap="round" stroke-linejoin="round" cx="40.5603794" cy="49.4526843" r="1.8784953"></circle>
                <circle id="Oval-Copy-10" stroke="#7176C4" fill="#FFFFFF" stroke-linecap="round" stroke-linejoin="round" cx="47.0547881" cy="55.8277953" r="1.8784953"></circle>
            </g>
        </g>
    </g>
</svg>