<?xml version="1.0" encoding="utf-8"?>
<!-- Generator: Adobe Illustrator 27.0.1, SVG Export Plug-In . SVG Version: 6.00 Build 0)  -->
<svg version="1.1" id="Layer_1" xmlns="http://www.w3.org/2000/svg" xmlns:xlink="http://www.w3.org/1999/xlink" x="0px" y="0px"
	 viewBox="0 0 1660 250" style="enable-background:new 0 0 1660 250;" xml:space="preserve">
<style type="text/css">
	.st0{fill:#F8F9FD;}
	.st1{fill:#E1E8F9;}
	.st2{fill:#B5C8F7;}
	.st3{fill:#838389;}
</style>
<polygon class="st0" points="443.1,180.1 451,210.9 478,210.9 485.3,180.1 "/>
<path class="st0" d="M1336,203.9v-96.2c0-2.9-1.6-5.3-4.3-6.4c-0.9-0.4-1.8-0.5-2.7-0.5c-1.8,0-3.5,0.7-4.9,2l-96.2,96.2
	c-2,2-2.6,4.9-1.5,7.6s3.6,4.3,6.4,4.3h96.2C1332.9,210.9,1336,207.8,1336,203.9z"/>
<path class="st0" d="M695.2,101.9c-6.1-1.9-13.1-10.5-15.7-17.2l-5.4-14.2c0-0.1-3.8-10.9-5.9-14.7l-0.4-0.7
	c-1.7-3.1-4.2-7.7-6.1-7.6c-0.4,0-0.6,0.2-0.8,0.5c-0.5,1,0,2.8,0.2,3.2c0.7,0.9,1.8,3,1.8,3.1c0.1,0.3,0.2,0.6,0,0.9
	c-0.1,0.3-0.4,0.5-0.7,0.6c-0.2,0-1.2,0.2-3.7-0.5c-0.4-0.1-0.9-0.3-1.4-0.4c-2.2-0.7-5-1.5-7.6-1.6c-2.7-0.1-2.9,0.9-3,1.7
	c-0.1,0.7,0.1,1.3,0.1,1.3c0.1,0.2,0.1,0.5,0,0.8s-0.3,0.5-0.6,0.6c0,0-1.2,0.6-1.5,2.2c-0.2,0.9,0,1.3,0.1,1.4
	c0.3,0.1,0.5,0.4,0.6,0.7c0.1,0.4,0,0.7-0.3,1c0,0-0.9,0.9-0.9,2.9c0,2.1,5.5,4.3,7.5,5.2c4.5,1.8,6.2,4.2,7.5,7.2c0,0,0,0.1,0,0.1
	c0,0.2,4.9,20.2,7.2,28.3c2.4,8.2,11.4,21,20.7,23c3.9,0.9,6,1.2,7.1,1.4c0.7-3,2.2-9.7,2.1-14.6
	C696.4,111.2,695.6,104.5,695.2,101.9z M656.1,65.3c-0.2,0.3-0.5,0.4-0.8,0.4c-0.2,0-0.4-0.1-0.6-0.2c0,0-1.6-1.2-3.7-2
	c-2-0.8-3.6-0.7-3.6-0.8c-0.6,0-1-0.4-1-1c0-0.6,0.4-1,1-1c0.1,0,2,0,4.3,0.9c2.3,0.9,4.1,2.2,4.2,2.3
	C656.4,64.2,656.4,64.8,656.1,65.3z M657.1,60.6c-0.2,0.3-0.5,0.4-0.8,0.4c-0.2,0-0.4-0.1-0.6-0.2c0,0-1.6-1.2-3.7-2
	c-2-0.8-3.6-0.7-3.6-0.8c-0.5,0-1-0.4-1-1c0-0.6,0.4-1,1-1c0.1,0,2,0,4.3,0.9c2.3,0.9,4.1,2.2,4.2,2.3
	C657.3,59.5,657.4,60.1,657.1,60.6z"/>
<path class="st0" d="M777.2,169.4C777.2,169.4,777.2,169.4,777.2,169.4l1.9,0l-7-36.4c-0.1-0.3,0-0.6,0.2-0.8
	c-1.4-0.6-2.9-1.4-4.2-2.2c-0.5-0.3-0.6-0.9-0.3-1.4s0.9-0.6,1.4-0.3c5,3.2,11.2,4.4,13.8,4.8c-0.3-2.1-0.9-6.6-1.6-13.8
	c-0.9-8.3-0.6-14.1-0.5-16.1c-0.8-0.4-2.4-1.1-4.8-2.3c-4.1-2.2-8.9-4.9-15-8.5c-5.7-3.4-10.2-4.3-11.3-4.5
	c-1.6,0.8-3.9,1.6-7.3,1.8c-0.5,0-1.1,0.1-1.6,0.1c-3.3,0-6.3-0.8-8.7-2.2c-1.4,0.1-7.8,0.7-11.4,2.2c-2.5,1-5.2,2.7-8.1,4.4
	c-2.5,1.5-5.1,3.1-7.6,4.2c-3.7,1.7-6.5,2.6-7.9,3c0.3,2.5,1.2,9.6,1.3,15c0.1,5.4-1.5,12.6-2.2,15.5c1.5,0,4.2-0.3,7.6-1.1
	c5.3-1.3,12.1-5.3,12.2-5.4c0.5-0.3,1.1-0.1,1.4,0.3c0.3,0.5,0.1,1.1-0.3,1.4c-0.1,0.1-1.4,0.8-3.2,1.8c0.2,0.2,0.2,0.5,0.2,0.8
	l-7.1,39.8L777.2,169.4C777.2,169.4,777.2,169.4,777.2,169.4z"/>
<path class="st1" d="M776.3,171.4l-67,0.1c-1.3,1.5-6.5,7.6-13.4,17.3c-6.3,8.9-11.3,18.5-13.1,22.1h46.9c0.3-0.5,2-2.7,4.2-5.3
	c1.9-2.2,3.8-4.1,4.6-4.8c-0.8-2.1-1.6-4.2-2.3-6.4c-2.6-8-3.1-12.7-3.1-12.9c-0.1-0.5,0.3-1,0.9-1.1c0.5-0.1,1,0.3,1.1,0.9
	c0,0,0.5,4.7,3.1,12.5c2.5,7.7,6.1,15.8,6.9,17.1h40.9c-1.1-2.7-3.7-9.4-6.1-17.1C777,185.3,776.4,174.7,776.3,171.4z"/>
<path class="st1" d="M731.6,58.7c0.1,0,0.2,0.1,0.3,0.2c0,0,0,0,0.1,0c0.1,0.1,0.3,0.1,0.4,0.2c0,0,0.1,0,0.1,0.1
	c0.2,0.1,0.3,0.2,0.5,0.2c0,0,0.1,0,0.1,0c0.2,0.1,0.4,0.2,0.6,0.3c0.1,0,0.1,0.1,0.2,0.1c0.2,0.1,0.5,0.2,0.7,0.3
	c0.1,0,0.1,0,0.2,0.1c0.2,0.1,0.5,0.2,0.7,0.3c0.1,0,0.1,0,0.2,0.1c0.3,0.1,0.6,0.2,0.8,0.4c0.1,0,0.1,0.1,0.2,0.1
	c0.3,0.1,0.6,0.3,0.9,0.4l0.6,0.2c3.4,1.4,4.9,2,6.5,3c1.9,1.2,2.2,3.9,1.7,6c-0.1,0.4-0.2,0.8-0.3,1.2c-0.6,2.2-0.6,2.6,0.1,3
	c1.3,0.8,1.3,0.8,2.4-0.3c1.1-1.2,4.6-4.8,9.4-1.7c0.1,0.1,0.2,0.1,0.3,0.2c0.6-0.8,1.5-2.5,1.4-5.4c-0.1-3.7-3.1-3.9-3.4-3.9
	c-0.4,0-0.7-0.2-0.9-0.6c-0.2-0.3-0.1-0.7,0.1-1c0.1-0.1,1.6-2.3-0.9-7.3c-2.6-5.5-11.9-12.3-20.4-10.3c-1.7,0.4-2.9,1.3-3.5,2.6
	C728.7,50.8,731,57.2,731.6,58.7C731.6,58.7,731.6,58.7,731.6,58.7z"/>
<path class="st0" d="M784.9,132.7c1-0.2,2.8-0.5,6.1-1.2c9.3-2.1,18.3-14.8,20.7-23c2.4-8.1,7.2-28.1,7.2-28.3c0-0.1,0-0.1,0-0.1
	c1.3-3,3-5.4,7.5-7.2c2-0.8,7.5-3,7.5-5.2c0-2-0.8-2.8-0.9-2.9c-0.3-0.3-0.4-0.6-0.3-1c0.1-0.3,0.3-0.6,0.6-0.7
	c0.1-0.1,0.3-0.5,0.1-1.4c-0.3-1.6-1.5-2.2-1.5-2.2c-0.2-0.1-0.4-0.3-0.5-0.6c-0.1-0.3-0.1-0.5,0-0.8c0,0,0.3-0.6,0.1-1.3
	c-0.2-0.8-0.3-1.8-3-1.7c-2.6,0.1-5.4,0.9-7.6,1.6c-0.5,0.2-1,0.3-1.4,0.4c-2.4,0.7-3.5,0.5-3.7,0.5c-0.3-0.1-0.6-0.3-0.7-0.6
	c-0.1-0.3-0.1-0.6,0-0.9c0-0.1,1.1-2.1,1.8-3.1c0.3-0.3,0.7-2.2,0.2-3.2c-0.2-0.3-0.4-0.5-0.8-0.5c-1.9-0.1-4.4,4.5-6.1,7.6
	l-0.4,0.7c-2.1,3.8-5.8,14.6-5.8,14.7l-5.5,14.3c-2.6,6.9-9.8,15.6-16,17.3c-0.1,2.2-0.3,7.8,0.5,15.4
	C784.1,126.1,784.7,130.6,784.9,132.7z M831.9,63.6c0,0.6-0.5,1-1,1c0,0-1.6,0-3.6,0.8c-2.1,0.8-3.6,2-3.7,2
	c-0.2,0.1-0.4,0.2-0.6,0.2c-0.3,0-0.6-0.1-0.8-0.4c-0.3-0.4-0.2-1.1,0.2-1.4c0.1-0.1,1.8-1.4,4.2-2.3c2.4-0.9,4.3-0.9,4.3-0.9
	C831.5,62.5,831.9,63,831.9,63.6z M821.5,61c0.1-0.1,1.8-1.4,4.2-2.3c2.4-0.9,4.3-0.9,4.3-0.9c0.6,0,1,0.5,1,1s-0.5,1-1,1
	c0,0-1.6,0-3.6,0.8c-2.1,0.8-3.6,2-3.7,2c-0.2,0.1-0.4,0.2-0.6,0.2c-0.3,0-0.6-0.1-0.8-0.4C821,61.9,821,61.3,821.5,61z"/>
<path class="st0" d="M742.4,87.8c4.1-0.3,6.5-1.5,7.6-2.2c-1-0.6-2.1-1.7-3.2-3.7c-0.3-0.5-0.1-1.1,0.4-1.4c0.5-0.3,1.1-0.1,1.4,0.4
	c1.9,3.7,3.8,3.4,4.2,3.4c0.7-0.2,1.5-0.5,2.4-0.9c1.6-0.9,2.8-2.7,3.2-4.7c0.3-1.5,0-2.8-0.8-3.7c-0.1-0.1-0.1-0.1-0.2-0.2
	c-0.2-0.2-0.3-0.3-0.5-0.4c-3-1.9-5-0.4-6.8,1.4c-0.2,0.2-0.5,0.5-0.7,0.6c0,0,0,0-0.1,0c-0.2,0.2-0.4,0.3-0.6,0.4c0,0,0,0-0.1,0
	c-0.2,0.1-0.3,0.2-0.5,0.2c0,0-0.1,0-0.1,0c-0.2,0.1-0.3,0.1-0.5,0.1c0,0-0.1,0-0.1,0c0,0-0.1,0-0.1,0c-0.1,0-0.2,0-0.2,0
	c-0.1,0-0.1,0-0.2,0c-0.1,0-0.2-0.1-0.3-0.1c-0.1,0-0.1,0-0.2-0.1c-0.1-0.1-0.3-0.1-0.4-0.2c-0.1,0-0.1-0.1-0.2-0.1
	c-0.2-0.1-0.4-0.2-0.7-0.4c-2-1.2-1.5-3.2-1-5.2c0.1-0.3,0.2-0.7,0.3-1.1c0.3-1.4,0.2-3.1-0.8-3.8c-1.4-0.9-2.9-1.5-6.1-2.8
	l-0.6-0.2c-0.3-0.1-0.6-0.2-0.8-0.4c-0.1,0-0.2-0.1-0.2-0.1c-0.2-0.1-0.4-0.2-0.6-0.3c-0.1,0-0.1,0-0.2-0.1
	c-0.3-0.1-0.5-0.2-0.7-0.3c0,0-0.1,0-0.1-0.1c-0.2-0.1-0.4-0.2-0.6-0.3c-0.1,0-0.1,0-0.2-0.1c-0.2-0.1-0.4-0.2-0.6-0.3c0,0,0,0,0,0
	c-0.2-0.1-0.4-0.2-0.6-0.3c-0.1,0-0.1-0.1-0.2-0.1c-0.1-0.1-0.2-0.1-0.3-0.2c-0.1,0-0.1-0.1-0.2-0.1c-0.1,0-0.2-0.1-0.2-0.1
	c-0.1,0-0.1-0.1-0.2-0.1c-4.9,7-5.8,13.5-2.7,20C730.9,85.7,735.9,88.3,742.4,87.8z M750,77c0.1-0.1,2.2-2.8,4.8-2.2
	c2.4,0.6,3.1,2.1,3.1,2.3c0.2,0.5,0,1.1-0.5,1.3c-0.5,0.2-1.1,0-1.3-0.5c0,0-0.4-0.8-1.8-1.2c-1.1-0.3-2.4,1-2.7,1.5
	c-0.2,0.2-0.5,0.4-0.8,0.4c-0.2,0-0.4-0.1-0.6-0.2C749.7,78.1,749.7,77.5,750,77z"/>
<g>
	<g>
		<path class="st3" d="M846.7,140.6v-5.8h-6.9v5.8h-2.3v-13.3h2.3v5.5h6.9v-5.5h2.3v13.3H846.7z"/>
		<path class="st3" d="M858.3,140.6v-1.3c-0.7,0.8-1.9,1.5-3.4,1.5c-2.1,0-3.1-1.1-3.1-3.1V131h2.1v6.1c0,1.5,0.8,2,1.9,2
			c1.1,0,2-0.6,2.5-1.3V131h2.1v9.7H858.3z"/>
		<path class="st3" d="M863.2,140.6V131h2.1v1.4c0.7-0.9,1.9-1.6,3.1-1.6v2.1c-0.2,0-0.4-0.1-0.7-0.1c-0.9,0-2.1,0.6-2.5,1.3v6.6
			H863.2z"/>
		<path class="st3" d="M870.1,140.6V131h2.1v1.4c0.7-0.9,1.9-1.6,3.1-1.6v2.1c-0.2,0-0.4-0.1-0.7-0.1c-0.9,0-2.1,0.6-2.5,1.3v6.6
			H870.1z"/>
		<path class="st3" d="M882.9,140.6v-1c-0.7,0.8-1.8,1.3-3.1,1.3c-1.6,0-3.4-1.1-3.4-3.2c0-2.2,1.8-3.1,3.4-3.1
			c1.3,0,2.4,0.4,3.1,1.2v-1.4c0-1.1-0.9-1.8-2.3-1.8c-1.1,0-2,0.4-2.9,1.2l-0.9-1.5c1.1-1.1,2.5-1.6,4.1-1.6c2.1,0,4,0.9,4,3.5v6.4
			H882.9z M882.9,137c-0.5-0.7-1.4-1-2.3-1c-1.2,0-2.1,0.7-2.1,1.7c0,1,0.9,1.7,2.1,1.7c0.9,0,1.8-0.3,2.3-1V137z"/>
		<path class="st3" d="M887.7,142.5c0.2,0.1,0.6,0.2,0.8,0.2c0.7,0,1.1-0.2,1.4-0.8l0.5-1.1l-4-9.8h2.2l2.8,7.2l2.8-7.2h2.3
			l-4.7,11.4c-0.7,1.6-1.8,2.2-3.3,2.2c-0.3,0-0.9-0.1-1.2-0.1L887.7,142.5z"/>
		<path class="st3" d="M898.9,138c0.8,0,1.4,0.6,1.4,1.4c0,0.7-0.6,1.4-1.4,1.4s-1.4-0.6-1.4-1.4C897.5,138.7,898.1,138,898.9,138z
			 M898,136.5l-0.4-9.3h2.6l-0.4,9.3H898z"/>
		<path class="st3" d="M839.7,164.6v-9h-3.2V154h8.3v1.6h-3.2v9H839.7z"/>
		<path class="st3" d="M851.5,164.6v-4.9c0-1.2-0.6-1.6-1.6-1.6c-0.8,0-1.6,0.5-2,1v5.4h-1.7V154h1.7v4c0.5-0.6,1.5-1.2,2.7-1.2
			c1.7,0,2.5,0.9,2.5,2.4v5.5H851.5z"/>
		<path class="st3" d="M858.8,156.7c2.3,0,3.8,1.8,3.8,4.2v0.4h-6c0.1,1.2,1,2.1,2.5,2.1c0.8,0,1.6-0.3,2.2-0.8l0.8,1.1
			c-0.8,0.7-1.9,1.1-3.1,1.1c-2.3,0-4-1.6-4-4.1C854.9,158.5,856.6,156.7,858.8,156.7z M856.7,160.1h4.4c0-0.9-0.7-2-2.2-2
			C857.4,158.1,856.7,159.2,856.7,160.1z"/>
		<path class="st3" d="M864.3,164.6v-7.7h1.7v1.1c0.6-0.7,1.5-1.3,2.5-1.3v1.7c-0.1,0-0.3,0-0.5,0c-0.7,0-1.6,0.5-2,1v5.3H864.3z"/>
		<path class="st3" d="M873.3,156.7c2.3,0,3.8,1.8,3.8,4.2v0.4h-6c0.1,1.2,1,2.1,2.5,2.1c0.8,0,1.6-0.3,2.2-0.8l0.8,1.1
			c-0.8,0.7-1.9,1.1-3.1,1.1c-2.3,0-4-1.6-4-4.1C869.4,158.5,871,156.7,873.3,156.7z M871.1,160.1h4.4c0-0.9-0.7-2-2.2-2
			C871.9,158.1,871.2,159.2,871.1,160.1z"/>
		<path class="st3" d="M887.6,164.6v-0.8c-0.6,0.7-1.5,1-2.5,1c-1.3,0-2.7-0.8-2.7-2.6c0-1.8,1.4-2.5,2.7-2.5c1,0,1.9,0.3,2.5,1
			v-1.2c0-0.9-0.7-1.4-1.8-1.4c-0.9,0-1.6,0.3-2.3,1l-0.7-1.2c0.9-0.8,2-1.2,3.2-1.2c1.7,0,3.2,0.7,3.2,2.8v5.1H887.6z M887.6,161.7
			c-0.4-0.5-1.1-0.8-1.8-0.8c-0.9,0-1.6,0.5-1.6,1.4c0,0.8,0.7,1.4,1.6,1.4c0.7,0,1.5-0.3,1.8-0.8V161.7z"/>
		<path class="st3" d="M891.5,164.6v-7.7h1.7v1.1c0.6-0.7,1.5-1.3,2.5-1.3v1.7c-0.1,0-0.3,0-0.5,0c-0.7,0-1.6,0.5-2,1v5.3H891.5z"/>
		<path class="st3" d="M900.5,156.7c2.3,0,3.8,1.8,3.8,4.2v0.4h-6c0.1,1.2,1,2.1,2.5,2.1c0.8,0,1.6-0.3,2.2-0.8l0.8,1.1
			c-0.8,0.7-1.9,1.1-3.1,1.1c-2.3,0-4-1.6-4-4.1C896.5,158.5,898.2,156.7,900.5,156.7z M898.3,160.1h4.4c0-0.9-0.7-2-2.2-2
			C899,158.1,898.4,159.2,898.3,160.1z"/>
		<path class="st3" d="M915.3,164.6v-4.8c0-1.2-0.6-1.6-1.6-1.6c-0.9,0-1.6,0.5-2,1v5.4H910v-7.7h1.7v1.1c0.5-0.6,1.5-1.2,2.7-1.2
			c1.7,0,2.5,0.9,2.5,2.5v5.4H915.3z"/>
		<path class="st3" d="M918.6,160.8c0-2.2,1.5-4,4-4c2.5,0,4,1.8,4,4c0,2.2-1.5,4.1-4,4.1C920.2,164.8,918.6,163,918.6,160.8z
			 M924.8,160.8c0-1.4-0.8-2.6-2.2-2.6c-1.4,0-2.2,1.2-2.2,2.6c0,1.4,0.8,2.6,2.2,2.6C924,163.3,924.8,162.1,924.8,160.8z"/>
		<path class="st3" d="M937.1,164.6v-0.8c-0.6,0.7-1.5,1-2.5,1c-1.3,0-2.7-0.8-2.7-2.6c0-1.8,1.4-2.5,2.7-2.5c1,0,1.9,0.3,2.5,1
			v-1.2c0-0.9-0.7-1.4-1.8-1.4c-0.9,0-1.6,0.3-2.3,1l-0.7-1.2c0.9-0.8,2-1.2,3.2-1.2c1.7,0,3.2,0.7,3.2,2.8v5.1H937.1z M937.1,161.7
			c-0.4-0.5-1.1-0.8-1.8-0.8c-0.9,0-1.6,0.5-1.6,1.4c0,0.8,0.7,1.4,1.6,1.4c0.7,0,1.5-0.3,1.8-0.8V161.7z"/>
		<path class="st3" d="M944.5,156.7c1.5,0,2.4,0.6,3,1.4l-1.1,1c-0.4-0.6-1-0.9-1.8-0.9c-1.4,0-2.3,1.1-2.3,2.6
			c0,1.5,0.9,2.6,2.3,2.6c0.8,0,1.3-0.3,1.8-0.9l1.1,1c-0.5,0.7-1.5,1.4-3,1.4c-2.4,0-4-1.7-4-4.1
			C940.5,158.4,942.1,156.7,944.5,156.7z"/>
		<path class="st3" d="M949.3,162.8v-4.5H948v-1.5h1.3v-2.1h1.7v2.1h1.6v1.5h-1.6v4c0,0.5,0.3,0.9,0.7,0.9c0.3,0,0.6-0.1,0.8-0.3
			l0.4,1.3c-0.3,0.3-0.8,0.5-1.6,0.5C949.9,164.8,949.3,164.1,949.3,162.8z"/>
		<path class="st3" d="M953.8,154.6c0-0.6,0.5-1,1-1c0.6,0,1,0.5,1,1s-0.5,1-1,1C954.3,155.6,953.8,155.2,953.8,154.6z M954,164.6
			v-7.7h1.7v7.7H954z"/>
		<path class="st3" d="M959.9,164.6l-3.2-7.7h1.8l2.3,5.8l2.3-5.8h1.8l-3.2,7.7H959.9z"/>
		<path class="st3" d="M965.7,154.6c0-0.6,0.5-1,1-1c0.6,0,1,0.5,1,1s-0.5,1-1,1C966.2,155.6,965.7,155.2,965.7,154.6z M965.9,164.6
			v-7.7h1.7v7.7H965.9z"/>
		<path class="st3" d="M970.1,162.8v-4.5h-1.3v-1.5h1.3v-2.1h1.7v2.1h1.6v1.5h-1.6v4c0,0.5,0.3,0.9,0.7,0.9c0.3,0,0.6-0.1,0.8-0.3
			l0.4,1.3c-0.3,0.3-0.8,0.5-1.6,0.5C970.8,164.8,970.1,164.1,970.1,162.8z"/>
		<path class="st3" d="M974.7,154.6c0-0.6,0.5-1,1-1c0.6,0,1,0.5,1,1s-0.5,1-1,1C975.2,155.6,974.7,155.2,974.7,154.6z M974.9,164.6
			v-7.7h1.7v7.7H974.9z"/>
		<path class="st3" d="M982.2,156.7c2.3,0,3.8,1.8,3.8,4.2v0.4h-6c0.1,1.2,1,2.1,2.5,2.1c0.8,0,1.6-0.3,2.2-0.8l0.8,1.1
			c-0.8,0.7-1.9,1.1-3.1,1.1c-2.3,0-4-1.6-4-4.1C978.3,158.5,979.9,156.7,982.2,156.7z M980,160.1h4.4c0-0.9-0.7-2-2.2-2
			C980.7,158.1,980.1,159.2,980,160.1z"/>
		<path class="st3" d="M987.8,162.4c0.5,0.6,1.6,1.1,2.6,1.1s1.5-0.4,1.5-0.9c0-0.7-0.8-0.9-1.8-1.1c-1.3-0.3-2.9-0.6-2.9-2.4
			c0-1.3,1.1-2.4,3-2.4c1.3,0,2.3,0.5,3,1.1l-0.7,1.2c-0.5-0.5-1.3-0.9-2.3-0.9c-0.9,0-1.4,0.3-1.4,0.9c0,0.6,0.8,0.8,1.7,1
			c1.3,0.3,3,0.7,3,2.5c0,1.4-1.1,2.4-3.2,2.4c-1.3,0-2.5-0.4-3.3-1.2L987.8,162.4z"/>
		<path class="st3" d="M999.7,162.8v-4.5h-1.3v-1.5h1.3v-2.1h1.7v2.1h1.6v1.5h-1.6v4c0,0.5,0.3,0.9,0.7,0.9c0.3,0,0.6-0.1,0.8-0.3
			l0.4,1.3c-0.3,0.3-0.8,0.5-1.6,0.5C1000.3,164.8,999.7,164.1,999.7,162.8z"/>
		<path class="st3" d="M1003.9,160.8c0-2.2,1.5-4,4-4c2.5,0,4,1.8,4,4c0,2.2-1.5,4.1-4,4.1C1005.5,164.8,1003.9,163,1003.9,160.8z
			 M1010.2,160.8c0-1.4-0.8-2.6-2.2-2.6c-1.4,0-2.2,1.2-2.2,2.6c0,1.4,0.8,2.6,2.2,2.6C1009.4,163.3,1010.2,162.1,1010.2,160.8z"/>
		<path class="st3" d="M1017.7,164.6v-7.7h1.7v1.1c0.6-0.7,1.5-1.3,2.5-1.3v1.7c-0.1,0-0.3,0-0.5,0c-0.7,0-1.6,0.5-2,1v5.3H1017.7z"
			/>
		<path class="st3" d="M1026.7,156.7c2.3,0,3.8,1.8,3.8,4.2v0.4h-6c0.1,1.2,1,2.1,2.5,2.1c0.8,0,1.6-0.3,2.2-0.8l0.8,1.1
			c-0.8,0.7-1.9,1.1-3.1,1.1c-2.3,0-4-1.6-4-4.1C1022.8,158.5,1024.4,156.7,1026.7,156.7z M1024.5,160.1h4.4c0-0.9-0.7-2-2.2-2
			C1025.3,158.1,1024.6,159.2,1024.5,160.1z"/>
		<path class="st3" d="M1034.2,164.6l-3.2-7.7h1.8l2.3,5.8l2.3-5.8h1.8l-3.2,7.7H1034.2z"/>
		<path class="st3" d="M1040,154.6c0-0.6,0.5-1,1-1c0.6,0,1,0.5,1,1s-0.5,1-1,1C1040.5,155.6,1040,155.2,1040,154.6z M1040.2,164.6
			v-7.7h1.7v7.7H1040.2z"/>
		<path class="st3" d="M1047.5,156.7c2.3,0,3.8,1.8,3.8,4.2v0.4h-6c0.1,1.2,1,2.1,2.5,2.1c0.8,0,1.6-0.3,2.2-0.8l0.8,1.1
			c-0.8,0.7-1.9,1.1-3.1,1.1c-2.3,0-4-1.6-4-4.1C1043.6,158.5,1045.2,156.7,1047.5,156.7z M1045.3,160.1h4.4c0-0.9-0.7-2-2.2-2
			C1046.1,158.1,1045.4,159.2,1045.3,160.1z"/>
		<path class="st3" d="M1059.7,164.6l-1.8-5.7l-1.8,5.7h-1.8l-2.4-7.7h1.7l1.6,5.6l1.8-5.6h1.5l1.8,5.6l1.6-5.6h1.7l-2.4,7.7H1059.7
			z"/>
	</g>
</g>
<g>
	<g>
		<g>
			<path class="st2" d="M1638,210.9h-303.3c2-1.6,3.3-4.1,3.3-6.9v-96.2c0-3.7-2.1-6.8-5.5-8.3c-3.4-1.4-7.1-0.7-9.7,1.9l-96.2,96.2
				c-2.6,2.6-3.3,6.3-1.9,9.7c0.6,1.4,1.5,2.6,2.6,3.5H880.4h-62.8h-2.2H788c-0.8-2-3.6-9.3-6.4-17.7c-2.6-8.1-3.3-18.5-3.4-21.8
				l2.1,0c0.3,0,0.6-0.1,0.8-0.4c0.2-0.2,0.3-0.5,0.2-0.8l-7.1-37.2c5.1,1.9,9.6,2.3,9.9,2.3c0,0,0.1,0,0.1,0c0.3,0,0.5-0.1,0.7-0.3
				c0.1-0.1,0.1-0.2,0.2-0.3c1-0.2,2.9-0.5,6.4-1.3c5.9-1.3,10.9-6.1,14-9.9c3.7-4.5,6.8-10,8.1-14.5c2.3-7.9,6.9-27,7.2-28.4
				c1.1-2.6,2.5-4.5,6.3-6c4.2-1.7,8.7-3.8,8.8-7c0-1.6-0.4-2.8-0.8-3.5c0.4-0.5,0.6-1.4,0.4-2.8c-0.3-1.7-1.2-2.7-1.9-3.2
				c0.1-0.4,0.1-1,0-1.6c-0.3-1.5-1.1-3.5-5-3.3c-2.9,0.1-5.9,1-8.1,1.7c-0.5,0.1-0.9,0.3-1.4,0.4c-0.4,0.1-0.8,0.2-1.1,0.3
				c0.3-0.5,0.5-0.9,0.8-1.2c0.7-1,1.2-3.5,0.4-5.2c-0.5-1-1.3-1.6-2.4-1.7c-3.2-0.3-5.8,4.4-8,8.6l-0.4,0.7c-2.2,4-5.8,14.5-6,14.9
				l-5.4,14.2c-2.4,6.2-9.1,14.4-14.5,16.1c-0.1,0-0.1-0.1-0.2-0.1c0,0-1.8-0.7-5.2-2.5c-4.1-2.2-8.8-4.8-14.9-8.5
				c-4.1-2.4-7.6-3.7-9.9-4.3c0.3-0.1,0.6-0.2,1-0.3c0.1,0,0.1,0,0.2,0c0,0,0,0,0,0c0.8-0.2,1.7-0.6,2.6-1c2.2-1.3,3.8-3.6,4.2-6.1
				c0.3-1.7,0-3.3-0.7-4.6c0.8-1,2.2-3.2,2.1-6.9c-0.1-3.5-2.2-5-3.9-5.6c0.4-1.4,0.6-4.1-1.3-8.1c-3-6.3-13.1-13.6-22.7-11.4
				c-2.3,0.5-3.9,1.8-4.9,3.7c-2.2,4.4,0.1,11.2,0.9,13.1c-5.6,7.7-6.6,15-3.1,22.3c0.8,1.7,1.9,3.2,3.2,4.4c-2.7,0.3-7,0.9-9.8,2.1
				c-2.6,1.1-5.5,2.8-8.4,4.5c-2.5,1.5-5,3-7.4,4.1c-5,2.3-8.4,3.1-8.4,3.1c-0.1,0-0.3,0.1-0.4,0.2c-5.3-1.9-11.7-9.9-14.1-15.9
				L676,69.7c-0.2-0.4-3.8-11-6-15l-0.4-0.7c-2.3-4.2-4.8-8.9-8-8.6c-1.1,0.1-2,0.7-2.4,1.7c-0.8,1.7-0.2,4.2,0.4,5.2
				c0.2,0.3,0.5,0.8,0.8,1.2c-0.3-0.1-0.7-0.2-1.1-0.3c-0.4-0.1-0.9-0.3-1.4-0.4c-2.2-0.7-5.2-1.6-8.1-1.7c-3.9-0.1-4.8,1.9-5,3.3
				c-0.1,0.6-0.1,1.2,0,1.6c-0.7,0.5-1.6,1.5-1.9,3.2c-0.3,1.4,0,2.3,0.4,2.8c-0.4,0.7-0.9,1.9-0.8,3.5c0.1,3.2,4.6,5.3,8.8,7
				c3.8,1.5,5.2,3.4,6.3,6c0.3,1.4,4.9,20.4,7.2,28.4c1.3,4.4,4.4,10,8.1,14.5c3.2,3.8,8.1,8.6,14,9.9c3.8,0.8,5.9,1.2,7.1,1.4
				c0,0.2,0.1,0.3,0.2,0.5c0.2,0.2,0.5,0.4,0.8,0.4c0,0,0.3,0,0.7,0c1.3,0,4.5-0.1,8.7-1.1c2.6-0.6,5.4-1.8,7.7-2.9l-7.2,40.5
				c-0.1,0.3,0,0.6,0.2,0.8c0.2,0.2,0.5,0.4,0.8,0.4c0,0,0,0,0,0l0.8,0c-2.2,2.6-6.8,8.2-12.4,16.2c-7,9.9-12.5,20.7-13.7,23.2
				H534.1l-1,2h177.6h171h351.1h96.2h309c0.6,0,1-0.4,1-1S1638.5,210.9,1638,210.9z M782.9,103.8c6.2-1.8,13.3-10.4,16-17.3
				l5.5-14.3c0-0.1,3.8-10.9,5.8-14.7l0.4-0.7c1.7-3.1,4.2-7.7,6.1-7.6c0.4,0,0.6,0.2,0.8,0.5c0.5,1,0,2.9-0.2,3.2
				c-0.7,0.9-1.8,3-1.8,3.1c-0.1,0.3-0.2,0.6,0,0.9c0.1,0.3,0.4,0.5,0.7,0.6c0.2,0,1.2,0.2,3.7-0.5c0.4-0.1,0.9-0.3,1.4-0.4
				c2.2-0.7,5-1.5,7.6-1.6c2.7-0.1,2.9,0.9,3,1.7c0.1,0.7-0.1,1.3-0.1,1.3c-0.1,0.2-0.1,0.5,0,0.8c0.1,0.3,0.3,0.5,0.5,0.6
				c0.1,0,1.2,0.6,1.5,2.2c0.2,1,0,1.3-0.1,1.4c-0.3,0.1-0.5,0.4-0.6,0.7c-0.1,0.3,0,0.7,0.3,1c0,0,0.9,0.9,0.9,2.9
				c0,2.1-5.5,4.3-7.5,5.2c-4.5,1.8-6.2,4.2-7.5,7.2c0,0,0,0.1,0,0.1c0,0.2-4.9,20.2-7.2,28.3c-2.4,8.2-11.4,21-20.7,23
				c-3.3,0.7-5.1,1.1-6.1,1.2c-0.3-2.1-0.9-6.6-1.6-13.5C782.6,111.6,782.7,106,782.9,103.8z M730.6,47.1c0.7-1.4,1.8-2.2,3.5-2.6
				c8.5-2,17.8,4.8,20.4,10.3c2.4,5.1,0.9,7.3,0.9,7.3c-0.2,0.3-0.3,0.7-0.1,1c0.2,0.3,0.5,0.6,0.9,0.6c0.3,0,3.3,0.2,3.4,3.9
				c0.1,2.9-0.8,4.6-1.4,5.4c-0.1-0.1-0.2-0.1-0.3-0.2c-4.8-3.1-8.2,0.5-9.4,1.7c-1,1.1-1,1.1-2.4,0.3c-0.7-0.4-0.7-0.8-0.1-3
				c0.1-0.4,0.2-0.7,0.3-1.2c0.5-2.1,0.2-4.8-1.7-6c-1.5-1-3.1-1.6-6.5-3l-0.6-0.2c-0.3-0.1-0.6-0.3-0.9-0.4c-0.1,0-0.1-0.1-0.2-0.1
				c-0.3-0.1-0.6-0.2-0.8-0.4c-0.1,0-0.1,0-0.2-0.1c-0.2-0.1-0.5-0.2-0.7-0.3c-0.1,0-0.1,0-0.2-0.1c-0.2-0.1-0.5-0.2-0.7-0.3
				c-0.1,0-0.1-0.1-0.2-0.1c-0.2-0.1-0.4-0.2-0.6-0.3c0,0-0.1,0-0.1,0c-0.2-0.1-0.3-0.2-0.5-0.2c0,0-0.1,0-0.1-0.1
				c-0.2-0.1-0.3-0.1-0.4-0.2c0,0,0,0-0.1,0c-0.1-0.1-0.2-0.1-0.3-0.2c0,0,0,0,0,0C731,57.2,728.7,50.8,730.6,47.1z M728.5,80.6
				c-3.1-6.5-2.2-13,2.7-20c0,0,0.1,0.1,0.2,0.1c0.1,0,0.1,0.1,0.2,0.1c0.1,0,0.1,0.1,0.2,0.1c0.1,0.1,0.2,0.1,0.3,0.2
				c0.1,0,0.1,0,0.2,0.1c0.2,0.1,0.4,0.2,0.6,0.3c0,0,0,0,0,0c0.2,0.1,0.4,0.2,0.6,0.3c0.1,0,0.1,0,0.2,0.1c0.2,0.1,0.4,0.2,0.6,0.3
				c0,0,0.1,0,0.1,0.1c0.2,0.1,0.5,0.2,0.7,0.3c0.1,0,0.1,0,0.2,0.1c0.2,0.1,0.4,0.2,0.6,0.3c0.1,0,0.2,0.1,0.2,0.1
				c0.3,0.1,0.6,0.2,0.8,0.4l0.6,0.2c3.3,1.3,4.8,1.9,6.1,2.8c1.1,0.7,1.2,2.5,0.8,3.8c-0.1,0.4-0.2,0.8-0.3,1.1c-0.6,2-1.1,4,1,5.2
				c0.2,0.1,0.5,0.3,0.7,0.4c0.1,0,0.1,0.1,0.2,0.1c0.1,0.1,0.3,0.1,0.4,0.2c0.1,0,0.1,0,0.2,0.1c0.1,0,0.2,0.1,0.3,0.1
				c0.1,0,0.1,0,0.2,0c0.1,0,0.2,0,0.2,0c0,0,0.1,0,0.1,0c0,0,0.1,0,0.1,0c0.2,0,0.3,0,0.5-0.1c0,0,0.1,0,0.1,0
				c0.2-0.1,0.3-0.1,0.5-0.2c0,0,0,0,0.1,0c0.2-0.1,0.4-0.3,0.6-0.4c0,0,0,0,0.1,0c0.2-0.2,0.4-0.4,0.7-0.6c1.8-1.9,3.9-3.4,6.8-1.4
				c0.2,0.1,0.3,0.2,0.5,0.4c0.1,0.1,0.1,0.1,0.2,0.2c0.7,0.9,1,2.2,0.8,3.7c-0.3,2-1.6,3.8-3.2,4.7c-0.8,0.4-1.7,0.7-2.4,0.9
				c-0.3,0.1-2.2,0.3-4.2-3.4c-0.3-0.5-0.9-0.7-1.4-0.4c-0.5,0.3-0.7,0.9-0.4,1.4c1,2,2.2,3.1,3.2,3.7c-1.1,0.7-3.5,1.9-7.6,2.2
				C735.9,88.3,730.9,85.7,728.5,80.6z M694.4,131c-1-0.1-3.2-0.5-7.1-1.4c-9.3-2.1-18.3-14.8-20.7-23c-2.4-8.1-7.2-28.1-7.2-28.3
				c0-0.1,0-0.1,0-0.1c-1.3-3-3-5.4-7.5-7.2c-2-0.8-7.5-3-7.5-5.2c0-2,0.8-2.8,0.9-2.9c0.3-0.2,0.4-0.6,0.3-1
				c-0.1-0.3-0.3-0.6-0.6-0.7c-0.1-0.1-0.3-0.5-0.1-1.4c0.3-1.6,1.5-2.2,1.5-2.2c0.3-0.1,0.5-0.3,0.6-0.6s0.1-0.5,0-0.8
				c0,0-0.3-0.6-0.1-1.3c0.2-0.8,0.3-1.8,3-1.7c2.6,0.1,5.4,0.9,7.6,1.6c0.5,0.2,1,0.3,1.4,0.4c2.4,0.7,3.5,0.5,3.7,0.5
				c0.3-0.1,0.6-0.3,0.7-0.6c0.1-0.3,0.1-0.6,0-0.9c0-0.1-1.1-2.1-1.8-3.1c-0.3-0.3-0.7-2.2-0.2-3.2c0.2-0.3,0.4-0.5,0.8-0.5
				c1.9-0.2,4.4,4.5,6.1,7.6l0.4,0.7c2.1,3.8,5.8,14.6,5.9,14.7l5.4,14.2c2.6,6.8,9.6,15.3,15.7,17.2c0.3,2.6,1.2,9.3,1.2,14.5
				C696.6,121.3,695.1,128,694.4,131z M714.1,129.7c0.1-0.3,0-0.6-0.2-0.8c1.8-0.9,3.1-1.7,3.2-1.8c0.5-0.3,0.6-0.9,0.3-1.4
				c-0.3-0.5-0.9-0.6-1.4-0.3c-0.1,0-6.9,4.1-12.2,5.4c-3.5,0.8-6.2,1-7.6,1.1c0.7-2.9,2.3-10.1,2.2-15.5c-0.1-5.5-1-12.6-1.3-15
				c1.4-0.4,4.2-1.3,7.9-3c2.5-1.1,5.1-2.7,7.6-4.2c2.9-1.7,5.6-3.4,8.1-4.4c3.6-1.5,10-2,11.4-2.2c2.5,1.5,5.4,2.2,8.7,2.2
				c0.5,0,1,0,1.6-0.1c3.4-0.2,5.7-1,7.3-1.8c1.1,0.2,5.7,1.1,11.3,4.5c6.1,3.6,10.9,6.3,15,8.5c2.3,1.2,3.9,2,4.8,2.3
				c-0.1,2-0.4,7.8,0.5,16.1c0.7,7.1,1.3,11.7,1.6,13.8c-2.6-0.4-8.8-1.6-13.8-4.8c-0.5-0.3-1.1-0.2-1.4,0.3s-0.2,1.1,0.3,1.4
				c1.4,0.9,2.8,1.6,4.2,2.2c-0.2,0.2-0.2,0.5-0.2,0.8l7,36.4l-1.9,0c0,0,0,0,0,0c0,0,0,0,0,0l-70.2,0.1L714.1,129.7z M732.1,210.9
				c0.8-1,1.9-2.5,3.2-4c1.4-1.7,2.9-3.2,3.9-4.1c1.4,3.5,2.7,6.5,3.5,8.1H732.1z M774.6,210.9h-2.3h-10.6h-2.5H745
				c-0.9-1.4-4.4-9.4-6.9-17.1c-2.5-7.8-3.1-12.5-3.1-12.5c-0.1-0.5-0.6-1-1.1-0.9c-0.5,0.1-0.9,0.5-0.9,1.1c0,0.2,0.5,4.9,3.1,12.9
				c0.7,2.1,1.5,4.3,2.3,6.4c-0.8,0.7-2.7,2.6-4.6,4.8c-2.2,2.6-3.9,4.9-4.2,5.3h-17.4h-29.5c1.8-3.6,6.9-13.2,13.1-22.1
				c6.9-9.7,12.2-15.9,13.4-17.3l67-0.1c0.1,3.2,0.8,13.8,3.5,22.4c2.5,7.6,5,14.4,6.1,17.1H774.6z M1232.8,210.9
				c-2.9,0-5.3-1.6-6.4-4.3s-0.5-5.5,1.5-7.6l96.2-96.2c1.3-1.3,3.1-2,4.9-2c0.9,0,1.8,0.2,2.7,0.5c2.6,1.1,4.3,3.6,4.3,6.4v96.2
				c0,3.8-3.1,6.9-6.9,6.9H1232.8z"/>
		</g>
		<g>
			<path class="st2" d="M531.5,210.9h-27h-2.1h-22.4l7.7-32.8h-22.6v-12.7l0.2,0l0.2-0.1c0.5-0.2,11.7-5.4,14.5-12.7
				c1.5-3.9,0.2-6.6-1.2-9.4c-1.3-2.9-2.7-5.8-2-10.6c0.5-3.3,1.3-5.6,2-7.7c1.4-4.1,2.4-7.1-0.9-13.5c-3.1-6-6-10.3-10.1-11.6
				c-2.8-0.8-5.9-0.3-9.5,1.7c-9.4,5.2-8.9,21.6-6.3,31.2c1,3.5-0.4,6.7-1.9,10c-1.9,4.2-3.8,8.5-0.7,13.5c4,6.5,10.6,8.4,13.9,8.9
				v12.9h-22.6l8.4,32.8H306.9c0.1-0.2,0.2-0.3,0.2-0.5c0-51-41.5-92.5-92.5-92.5c-0.6,0-1,0.4-1,1s0.4,1,1,1
				c49.9,0,90.5,40.6,90.5,90.5c0,0.2,0.1,0.4,0.2,0.5H22c-0.6,0-1,0.4-1,1s0.4,1,1,1h481h30.1l0.5-2H531.5z M451,155.2
				c-2.5-4.1-0.9-7.6,0.9-11.7c1.6-3.5,3.2-7.1,2-11.3c-2.5-9.1-3.1-24.3,5.3-29c2.2-1.2,4.2-1.9,6-1.9c0.7,0,1.4,0.1,2,0.3
				c3.5,1.1,6.1,5,8.9,10.6c2.9,5.7,2.1,8.1,0.8,12c-0.7,2-1.5,4.5-2,8c-0.8,5.4,0.9,8.9,2.2,11.8c1.3,2.7,2.3,4.8,1.1,7.9
				c-2.2,5.8-10.9,10.4-13,11.4v-32c0-0.6-0.4-1-1-1s-1,0.4-1,1v31.9C460.2,162.6,454.4,160.8,451,155.2z M451.1,210.9l-7.9-30.8
				h42.2l-7.3,30.8H451.1z"/>
		</g>
		<g>
			<path class="st2" d="M750.8,78.7c0.3,0,0.6-0.1,0.8-0.4c0.4-0.5,1.7-1.7,2.7-1.5c1.4,0.4,1.8,1.1,1.8,1.2
				c0.2,0.5,0.8,0.7,1.3,0.5c0.5-0.2,0.7-0.8,0.5-1.3c-0.1-0.2-0.8-1.7-3.1-2.3c-2.5-0.6-4.7,2.1-4.8,2.2c-0.3,0.4-0.3,1.1,0.2,1.4
				C750.3,78.6,750.6,78.7,750.8,78.7z"/>
		</g>
		<g>
			<path class="st2" d="M652.7,56.9c-2.4-0.9-4.3-0.9-4.3-0.9c-0.6,0-1,0.5-1,1c0,0.6,0.5,1,1,1c0,0,1.6,0,3.6,0.8
				c2.1,0.8,3.6,2,3.7,2c0.2,0.1,0.4,0.2,0.6,0.2c0.3,0,0.6-0.1,0.8-0.4c0.3-0.4,0.2-1.1-0.2-1.4C656.8,59.1,655.1,57.8,652.7,56.9z
				"/>
		</g>
		<g>
			<path class="st2" d="M651.8,61.6c-2.4-0.9-4.3-0.9-4.3-0.9c-0.6,0-1,0.5-1,1c0,0.6,0.5,1,1,1c0,0,1.6,0,3.6,0.8
				c2.1,0.8,3.6,2,3.7,2c0.2,0.1,0.4,0.2,0.6,0.2c0.3,0,0.6-0.1,0.8-0.4c0.3-0.4,0.2-1.1-0.2-1.4C655.9,63.8,654.1,62.5,651.8,61.6z
				"/>
		</g>
		<g>
			<path class="st2" d="M822.1,62.8c0.2,0,0.4-0.1,0.6-0.2c0,0,1.6-1.2,3.7-2c2-0.8,3.6-0.8,3.6-0.8c0.5,0,1-0.4,1-1s-0.4-1-1-1
				c-0.1,0-2,0-4.3,0.9c-2.3,0.9-4.1,2.2-4.2,2.3c-0.4,0.3-0.5,1-0.2,1.4C821.5,62.6,821.8,62.8,822.1,62.8z"/>
		</g>
		<g>
			<path class="st2" d="M826.6,63.4c-2.3,0.9-4.1,2.2-4.2,2.3c-0.4,0.3-0.5,1-0.2,1.4c0.2,0.3,0.5,0.4,0.8,0.4
				c0.2,0,0.4-0.1,0.6-0.2c0,0,1.6-1.2,3.7-2c2-0.8,3.6-0.8,3.6-0.8c0.5,0,1-0.4,1-1c0-0.6-0.4-1-1-1
				C830.8,62.5,829,62.5,826.6,63.4z"/>
		</g>
		<g>
			<path class="st2" d="M202.3,213h-97.1c-5.3,0-9.9-3.1-12-8c-2-4.9-1-10.4,2.8-14.1l97.1-97.1c3.8-3.8,9.2-4.9,14.1-2.8
				c4.9,2,8,6.6,8,12V200C215.3,207.2,209.4,213,202.3,213z M202.2,92.1c-2.8,0-5.5,1.1-7.5,3.2l-97.1,97.1c-3.1,3.1-4,7.6-2.3,11.7
				s5.5,6.6,9.9,6.6h97.1c5.9,0,10.8-4.8,10.8-10.8v-97.1c0-4.4-2.5-8.2-6.6-9.9C205,92.4,203.6,92.1,202.2,92.1z"/>
		</g>
	</g>
	<g>
		<path class="st2" d="M1507.3,212.9H1447c-7,0-12.6-5.7-12.6-12.6v-60.3c0-7,5.7-12.6,12.6-12.6h60.3c7,0,12.6,5.7,12.6,12.6v60.3
			C1519.9,207.2,1514.2,212.9,1507.3,212.9z M1447,129.5c-5.8,0-10.4,4.7-10.4,10.4v60.3c0,5.8,4.7,10.4,10.4,10.4h60.3
			c5.8,0,10.4-4.7,10.4-10.4v-60.3c0-5.8-4.7-10.4-10.4-10.4H1447z"/>
	</g>
</g>
</svg>
