<svg viewBox="0 0 50 50" xmlns="http://www.w3.org/2000/svg">
  <path d="M30.37973 50v-1.89781c-2.2784-.19465-3.76058-.46229-4.44655-.80292-.68596-.34063-1.02895-1.14355-1.02895-2.40876 0-.21898.01838-.4562.05512-.71168.03675-.25547.07963-.50486.12862-.74817l.58798-2.59124 9.26058-33.54015c.56347-2.06813 1.25556-3.4185 2.07628-4.0511.8207-.6326 2.14977-1.07055 3.98719-1.31386V0H18.62027v1.9343c2.2539.19465 3.73608.45621 4.44655.78468.71046.32847 1.0657 1.1253 1.0657 2.3905 0 .48663-.06738 1.05232-.20212 1.69709-.13474.64477-.33686 1.4416-.60635 2.39051l-9.22383 33.54015c-.56347 2.0438-1.27394 3.39416-2.1314 4.0511-.85746.65693-2.1804 1.09488-3.96882 1.31386V50h22.37973z" fill="#6B7E91" fill-rule="nonzero"/>
</svg>
