<?xml version="1.0" encoding="UTF-8"?>
<svg width="88px" height="72px" viewBox="0 0 88 72" version="1.1" xmlns="http://www.w3.org/2000/svg" xmlns:xlink="http://www.w3.org/1999/xlink">
    <g id="Empty-state" stroke="none" stroke-width="1" fill="none" fill-rule="evenodd">
        <g id="Artboard" transform="translate(-76.000000, -202.000000)">
            <g id="Group-35" transform="translate(76.500000, 200.500000)">
                <path d="M76.1041,33.71 L76.1041,56.564 L52.2841,30.85 L52.9331,30.79 C55.9231,34.71 60.6441,37.24 65.9541,37.24 C69.7841,37.24 73.3031,35.92 76.1041,33.71" id="Fill-1" fill="#BCBCE2"></path>
                <line x1="0.5001" y1="65.833" x2="86.3741" y2="65.833" id="Stroke-3" stroke="#7176C4" stroke-linecap="round" stroke-linejoin="round"></line>
                <line x1="54.688" y1="72.4678" x2="65.548" y2="72.4678" id="Stroke-5" stroke="#7176C4" stroke-linecap="round" stroke-linejoin="round"></line>
                <line x1="21.3257" y1="72.4678" x2="45.5787" y2="72.4678" id="Stroke-7" stroke="#7176C4" stroke-linecap="round" stroke-linejoin="round"></line>
                <path d="M69.4761,65.833 L19.3511,65.833 L19.3511,54.634 C19.3511,54.082 19.7991,53.634 20.3511,53.634 L68.4761,53.634 C69.0281,53.634 69.4761,54.082 69.4761,54.634 L69.4761,65.833 Z" id="Fill-9" fill="#DBDBF3"></path>
                <line x1="27.5001" y1="60" x2="31.2461" y2="60" id="Stroke-27" stroke="#7176C4" stroke-linecap="round" stroke-linejoin="round"></line>
                <line x1="34.8878" y1="60" x2="41.7418" y2="60" id="Stroke-29" stroke="#BCBCE2" stroke-linecap="round" stroke-linejoin="round"></line>
                <line x1="44.8419" y1="60" x2="51.6959" y2="60" id="Stroke-31" stroke="#BCBCE2" stroke-linecap="round" stroke-linejoin="round"></line>
                <line x1="54.8419" y1="60" x2="61.6959" y2="60" id="Stroke-31" stroke="#BCBCE2" stroke-linecap="round" stroke-linejoin="round"></line>
                <path d="M76.1031,33.7119 L76.1031,65.8329 L10.7701,65.8329 L10.7701,14.8329 C10.7701,13.7289 11.6661,12.8329 12.7701,12.8329 L51.7921,12.8329" id="Stroke-11" stroke="#7176C4" stroke-linecap="round" stroke-linejoin="round"></path>
                <circle id="Oval" fill="#DBDBF3" cx="23.8252906" cy="7.85689063" r="1.49019063"></circle>
                <path d="M82.3238,21.8047 C82.3238,30.3307 75.4128,37.2427 66.8858,37.2427 C58.3598,37.2427 51.4478,30.3307 51.4478,21.8047 C51.4478,13.2787 58.3598,6.3667 66.8858,6.3667 C75.4128,6.3667 82.3238,13.2787 82.3238,21.8047" id="Fill-13" fill="#DBDBF3"></path>
                <path d="M81.8834,24.6602 C80.6544,29.8402 76.9634,34.0592 72.1234,36.0302 L61.4634,25.3702 L72.0334,14.8002 L81.8834,24.6602 Z" id="Fill-15" fill="#BCBCE2"></path>
                <polygon id="Fill-17" fill="#FFFFFF" points="71.3287 14.167 63.7067 21.789 60.5787 18.661 57.6837 21.556 63.7067 27.577 66.5997 24.684 74.2227 17.062"></polygon>
                <path d="M82.3238,20.8701 C82.3238,22.1801 82.1738,23.4401 81.8838,24.6601 C80.6538,29.8401 76.9638,34.0591 72.1238,36.0301 C70.2228,36.8091 68.1338,37.2401 65.9538,37.2401 C56.9138,37.2401 49.5838,29.9101 49.5838,20.8701 C49.5838,11.8301 56.9138,4.5001 65.9538,4.5001 C74.9938,4.5001 82.3238,11.8301 82.3238,20.8701 Z" id="Stroke-19" stroke="#7176C4"></path>
                <path d="M26.1036,25.4151 L18.5656,25.4151 C17.5696,25.4151 16.7616,24.6061 16.7616,23.6101 C16.7616,22.6131 17.5696,21.8051 18.5656,21.8051 L26.1036,21.8051 C27.1006,21.8051 27.9086,22.6131 27.9086,23.6101 C27.9086,24.6061 27.1006,25.4151 26.1036,25.4151" id="Fill-21" fill="#BCBCE2"></path>
                <path d="M45.0001,25.4151 L34.4921,25.4151 C33.4951,25.4151 32.6871,24.6061 32.6871,23.6101 C32.6871,22.6131 33.4951,21.8051 34.4921,21.8051 L45.0001,21.8051 C45.9971,21.8051 46.8051,22.6131 46.8051,23.6101 C46.8051,24.6061 45.9971,25.4151 45.0001,25.4151" id="Fill-23" fill="#DBDBF3"></path>
                <path d="M26.1036,35.8379 L18.5656,35.8379 C17.5696,35.8379 16.7616,35.0289 16.7616,34.0329 C16.7616,33.0359 17.5696,32.2279 18.5656,32.2279 L26.1036,32.2279 C27.1006,32.2279 27.9086,33.0359 27.9086,34.0329 C27.9086,35.0289 27.1006,35.8379 26.1036,35.8379" id="Fill-25" fill="#DBDBF3"></path>
                <path d="M48.7789,35.8379 L34.4919,35.8379 C33.4949,35.8379 32.6869,35.0289 32.6869,34.0329 C32.6869,33.0359 33.4949,32.2279 34.4919,32.2279 L48.7789,32.2279 C49.7759,32.2279 50.5839,33.0359 50.5839,34.0329 C50.5839,35.0289 49.7759,35.8379 48.7789,35.8379" id="Fill-27" fill="#BCBCE2"></path>
                <path d="M26.1036,45.8379 L18.5656,45.8379 C17.5696,45.8379 16.7616,45.0289 16.7616,44.0329 C16.7616,43.0359 17.5696,42.2279 18.5656,42.2279 L26.1036,42.2279 C27.1006,42.2279 27.9086,43.0359 27.9086,44.0329 C27.9086,45.0289 27.1006,45.8379 26.1036,45.8379" id="Fill-29" fill="#BCBCE2"></path>
                <path d="M49.7789,45.8379 L35.4919,45.8379 C34.4949,45.8379 33.6869,45.0289 33.6869,44.0329 C33.6869,43.0359 34.4949,42.2279 35.4919,42.2279 L49.7789,42.2279 C50.7759,42.2279 51.5839,43.0359 51.5839,44.0329 C51.5839,45.0289 50.7759,45.8379 49.7789,45.8379" id="Fill-31" fill="#DBDBF3"></path>
                <polygon id="Fill-33" fill="#BCBCE2" points="86.1109 40.5088 84.4919 38.8898 82.5479 40.8328 80.6049 38.8898 78.9859 40.5088 80.9289 42.4518 78.9859 44.3958 80.6049 46.0148 82.5479 44.0718 84.4919 46.0148 86.1109 44.3958 84.1679 42.4518"></polygon>
                <polygon id="Fill-33" fill="#DBDBF3" transform="translate(45.548400, 4.739800) rotate(-45.000000) translate(-45.548400, -4.739800) " points="48.3983998 3.18499992 47.1031999 1.8898 45.548 3.44419991 43.9936001 1.8898 42.6984002 3.18499992 44.2528001 4.73939983 42.6984002 6.29459974 43.9936001 7.58979966 45.548 6.03539975 47.1031999 7.58979966 48.3983998 6.29459974 46.8439999 4.73939983"></polygon>
            </g>
        </g>
    </g>
</svg>
