<svg width="512px" height="512px" viewBox="0 0 512 512" version="1.1" xmlns="http://www.w3.org/2000/svg" xmlns:xlink="http://www.w3.org/1999/xlink">
    <path d="M219.340233,11.3929876 C224.892804,11.3929876 229.394051,15.8942353 229.394051,21.4468057 C229.394051,26.6027639 225.512874,30.8522245 220.512721,31.4329844 L219.340233,31.5006238 L36.8640106,31.5006238 C29.9232975,31.5006238 24.2146033,36.7755235 23.5281287,43.535122 L23.4589197,44.9057147 L23.4582834,242.562988 L404.833283,242.562988 L404.833592,162.690359 C404.833592,157.137789 409.334839,152.636541 414.88741,152.636541 C420.043368,152.636541 424.292829,156.517719 424.873588,161.517872 L424.941228,162.690359 L424.941228,321.521773 C424.941228,339.392115 410.953998,353.995563 393.330208,354.981449 L391.428501,355.0345 L291.156283,355.033988 L291.15698,383.127804 C291.15698,398.91109 295.98609,413.968109 304.818126,426.655867 L366.722637,426.655556 C367.231615,426.655556 367.644223,427.068164 367.644223,427.577142 L367.644223,447.181781 C367.644223,447.690759 367.231615,448.103367 366.722637,448.103367 L61.5698738,448.103367 C61.0608961,448.103367 60.6482882,447.690759 60.6482882,447.181781 L60.6482882,427.577142 C60.6482882,427.068164 61.0608961,426.655556 61.5698738,426.655556 L121.92975,426.655806 C130.61743,414.174622 135.431665,399.403665 135.587174,383.903417 L135.591064,383.127804 L135.590283,355.033988 L36.8640106,355.0345 C18.9936689,355.0345 4.39021999,341.04727 3.4043345,323.42348 L3.35128345,321.521773 L3.35128345,44.9057147 C3.35128345,27.035373 17.3385137,12.4319241 34.9623035,11.4460386 L36.8640106,11.3929876 L219.340233,11.3929876 Z M270.206857,361.539505 L156.535871,361.539505 L156.536519,383.127804 C156.536519,397.423629 153.420824,411.268812 147.579105,423.884832 L147.202531,424.688433 L146.565834,425.946781 L280.166421,425.946781 L279.545788,424.689645 C274.098138,413.201732 270.922774,400.671551 270.317825,387.695263 L270.27899,386.767635 L270.211525,383.127804 L270.206857,361.539505 Z M404.833283,264.010988 L23.4582834,264.010988 L23.4589197,321.521773 C23.4589197,328.462486 28.7338194,334.17118 35.4934179,334.857655 L36.8640106,334.926864 L391.428501,334.926864 C398.369214,334.926864 404.077908,329.651964 404.764383,322.892366 L404.833592,321.521773 L404.833283,264.010988 Z M212.565006,285.791283 C220.394902,285.791283 226.742288,292.138668 226.742288,299.968565 C226.742288,307.798462 220.394902,314.145847 212.565006,314.145847 C204.735109,314.145847 198.387724,307.798462 198.387724,299.968565 C198.387724,292.138668 204.735109,285.791283 212.565006,285.791283 Z M465.826591,-1.15257784e-11 C483.417024,-1.15257784e-11 497.710392,14.1174641 497.994501,31.6411717 L497.998811,32.1732247 L497.998811,96.5176633 C497.998811,114.108096 483.881347,128.401464 466.358615,128.685572 L465.826591,128.689883 L353.010683,128.689883 L313.331277,178.288386 C311.29739,180.828985 308.220921,182.307902 304.9665,182.309913 C299.139323,182.309913 294.397277,177.661854 294.245824,171.871197 L294.242092,171.585505 L294.242092,128.688877 L283.517684,128.688877 C265.927251,128.688877 251.633883,114.571413 251.349775,97.0486811 L251.345465,96.5166579 L251.345465,32.1722193 C251.345465,14.5817869 265.462929,0.288418517 282.985661,0.00431019163 L283.517684,-1.15257784e-11 L465.826591,-1.15257784e-11 Z M465.826591,21.4468057 L283.517684,21.4468057 C277.690507,21.4468057 272.948461,26.0948649 272.797008,31.8855218 L272.793276,32.1712139 L272.793276,96.5156525 C272.793276,102.34283 277.441335,107.084875 283.231992,107.236329 L283.517684,107.240061 L304.965495,107.240061 C310.792672,107.240061 315.534718,111.88812 315.686171,117.678777 L315.689903,117.964469 L315.689903,141.010837 L339.486286,111.262594 C341.452952,108.807659 344.39341,107.343388 347.525809,107.246228 L347.862122,107.241066 L465.826591,107.241066 C471.653768,107.241066 476.395814,102.593007 476.547268,96.8023501 L476.551,96.5166579 L476.551,32.1712139 C476.551,26.2485094 471.749296,21.4468057 465.826591,21.4468057 Z M315.688898,53.6210358 L315.688898,75.0688468 L294.241087,75.0688468 L294.241087,53.6210358 L315.688898,53.6210358 Z M455.102183,53.6210358 L455.102183,75.0688468 L337.137714,75.0688468 L337.137714,53.6210358 L455.102183,53.6210358 Z" id="Combined-Shape"></path>
</svg>