<svg xmlns="http://www.w3.org/2000/svg" width="15" height="11" viewBox="0 0 15 11">
    <path fill="#615E88" fill-rule="evenodd" d="M1.406 10.083c-.259 0-.469-.205-.469-.458V1.921l6.255 5.3c.09.075.199.112.308.112.11 0 .219-.037.307-.112l6.255-5.3v7.704c0 .253-.21.458-.468.458H1.406zM13.594.917c.063 0 .124.013.179.035L7.5 6.268 1.226.952c.056-.022.116-.035.18-.035h12.188zM1.406 0C.63 0 0 .617 0 1.375v8.25C0 10.383.63 11 1.406 11h12.188C14.369 11 15 10.383 15 9.625v-8.25C15 .617 14.37 0 13.594 0H1.406z"/>
</svg>
