<svg id="Layer_1" data-name="Layer 1" xmlns="http://www.w3.org/2000/svg" viewBox="0 0 255 332.77"><defs><style>.cls-1{fill:#eb9481;}.cls-2{fill:#ebebeb;}.cls-11,.cls-3{fill:#515ed2;}.cls-4{fill:#f8f8f8;}.cls-12,.cls-5{fill:#262865;}.cls-11,.cls-12,.cls-5{stroke:#fff;stroke-miterlimit:10;}.cls-6{fill:#263238;}.cls-15,.cls-7{fill:#fff;}.cls-8{fill:#f7f8f8;}.cls-9{fill:#f3f3f4;}.cls-10{fill:#f7f7f8;}.cls-12{stroke-width:0.5px;}.cls-13{fill:none;}.cls-14{fill:#ff7f00;}.cls-15{opacity:0.2;}</style></defs><g id="Layer_2" data-name="Layer 2"><g id="Character_1" data-name="Character 1"><path class="cls-1" d="M98.18,328.69c2.06.67,60.91-.1,63.13-1.55.85-.54,1.24-9.12,1.41-19.5v-.32c0-2.14.07-4.35.07-6.58v-.92c.09-15-.15-30.53-.15-30.53l-39.36.4,1.18,30.24.05,1.2.23,6.25V308s-22.4,10.37-24.67,12.22S96.11,328,98.18,328.69Z" transform="translate(0 0.03)"/><path class="cls-2" d="M98.18,328.69c2.06.67,60.91-.1,63.13-1.55.85-.54,1.24-9.12,1.41-19.5v-.32c0-2.14.07-4.35.07-6.58v-.92l-38.33.11.05,1.2.23,6.25V308s-22.4,10.37-24.67,12.22S96.11,328,98.18,328.69Z" transform="translate(0 0.03)"/><path class="cls-3" d="M174.73,99.79s-8.84,99.43-10.28,107c-.33,1.73-.54,11.13-.67,23.21-.31,26.35-.13,73.89-.13,73.89H122.17s1.23-82.36,3.07-97.52,13.57-106.6,13.57-106.6Z" transform="translate(0 0.03)"/><path class="cls-4" d="M124,296.68c6.47-.13,4.61-.18,11.08-.25,3.17,0,24-.21,26.95.28.06,0,.06.12,0,.13-3,.49-23.78.31-27,.28-6.47-.06-4.61-.11-11.08-.25a.1.1,0,0,1,0-.13A.11.11,0,0,1,124,296.68Z" transform="translate(0 0.03)"/><path class="cls-4" d="M155.77,249.6q.07-9,.14-18c0-5.83,0-11.66.31-17.48.56-11.79,3-23.38,4.65-35S164,155.67,165.28,144c1.44-13.14,2.71-26.3,4.06-39.45,0-.09.15-.09.14,0-2,23.48-4.13,47-7.38,70.3q-1.22,8.72-2.66,17.38c-1,5.86-1.93,11.71-2.39,17.63s-.52,11.61-.58,17.42l-.18,18c-.13,13.35-.26,33.91-.39,47.27,0,.25-.4.24-.4,0C155.59,280.62,155.68,261.51,155.77,249.6Z" transform="translate(0 0.03)"/><path class="cls-5" d="M98.18,328.69c1.27.42,24.07.28,41.92-.22,11.14-.31,20.35-.77,21.2-1.33s1.24-8.87,1.41-19.06v-.77l-38,.07V308s-22.4,10.36-24.67,12.22S96.11,328,98.18,328.69Z" transform="translate(0 0.03)"/><path class="cls-6" d="M98.81,326.4c9.92-.37,49.95-.94,59.78-.55.08,0,.08.06,0,.06-9.82.59-49.85.83-59.77.65C98.61,326.56,98.6,326.41,98.81,326.4Z" transform="translate(0 0.03)"/><path class="cls-7" d="M122.24,306c1.58.6,3.18,1.13,4.74,1.79q-1.73-2.64-3.7-5.1a20.68,20.68,0,0,0-2.09-2.2c-1.18-1.05-5.8-3.24-5.06,1C116.54,303.86,120.36,305.26,122.24,306Zm-6.9-6.88c1.51-2.13,4.38-1.22,6,.13a20.75,20.75,0,0,1,6.13,8.86.1.1,0,0,1,0,.13h0c0,.3-.27.62-.6.5-3.24-1.15-6.85-2-9.64-4.09-1.6-1.26-3.22-3.54-1.8-5.56Z" transform="translate(0 0.03)"/><path class="cls-7" d="M137.4,306.94c-3.2,1.42-6.9,1.4-10.32,1.77a.5.5,0,0,1-.47-.62.11.11,0,0,1-.07-.14v0a20.88,20.88,0,0,1,8-7.21c1.91-.94,4.91-1.17,5.89,1.26S139.27,306.12,137.4,306.94Zm1.73-2.8c1.7-4-3.3-2.92-4.69-2.18a22.82,22.82,0,0,0-2.55,1.67,60.2,60.2,0,0,0-4.76,4.11c1.66-.29,3.34-.43,5-.66C134.15,306.81,138.18,306.34,139.13,304.14Z" transform="translate(0 0.03)"/><path class="cls-7" d="M120.53,307.55c3.89-.78,8.67-.24,11.69,2.5.12.1,0,.27-.16.23A55,55,0,0,0,120.55,308a.24.24,0,0,1-.13-.33A.25.25,0,0,1,120.53,307.55Z" transform="translate(0 0.03)"/><path class="cls-7" d="M117.73,309.28c3.9-.78,8.68-.24,11.7,2.5.11.11,0,.27-.17.24a55,55,0,0,0-11.51-2.25.25.25,0,0,1-.21-.29A.25.25,0,0,1,117.73,309.28Z" transform="translate(0 0.03)"/><path class="cls-7" d="M114.94,311c3.89-.78,8.67-.25,11.69,2.5.12.1,0,.27-.16.23A54.61,54.61,0,0,0,115,311.51a.26.26,0,0,1-.29-.22A.27.27,0,0,1,114.94,311Z" transform="translate(0 0.03)"/><path class="cls-6" d="M140.1,328.47c11.14-.31,20.35-.77,21.2-1.33s1.24-8.87,1.41-19.06C158.14,312.16,146.78,322.28,140.1,328.47Z" transform="translate(0 0.03)"/><path class="cls-6" d="M183.47,99.79s-17.58,99.43-19,107c-.33,1.73-.54,11.13-.67,23.21h0L144,99.79Z" transform="translate(0 0.03)"/><path class="cls-1" d="M146.34,332.2c2.11.52,60.75-4.41,62.86-6,.82-.6.6-9.18,0-19.55v-.32c-.11-2.14-.24-4.34-.39-6.57l-.06-.92c-1-14.95-2.31-30.44-2.31-30.44l-39.24,3.18,3.32,30.08.13,1.2.68,6.22.07.64s-21.6,11.93-23.74,13.94S144.24,331.69,146.34,332.2Z" transform="translate(0 0.03)"/><path class="cls-2" d="M146.34,332.2c2.11.52,60.75-4.41,62.86-6,.82-.6.6-9.18,0-19.55v-.32c-.11-2.14-.24-4.34-.39-6.57l-.06-.92-38.23,2.82.13,1.2.68,6.22.07.64s-21.6,11.93-23.74,13.94S144.24,331.69,146.34,332.2Z" transform="translate(0 0.03)"/><path class="cls-5" d="M146.34,332.2c2.11.52,60.75-4.41,62.86-6,.82-.6.6-9.18,0-19.55v-.32l-37.87,2.75.07.64s-21.6,11.93-23.74,13.94S144.24,331.69,146.34,332.2Z" transform="translate(0 0.03)"/><path class="cls-3" d="M169.65,306.15l41.44-1.75s-11.31-90.94-11.52-96.53c-.57-14.5-10.18-108.11-10.18-108.11H138.78s3.19,21.6,8.65,35.31A63.38,63.38,0,0,1,158,139.9s4.74,61.91,4.92,69.63C163.29,224.8,169.65,306.15,169.65,306.15Z" transform="translate(0 0.03)"/><path class="cls-4" d="M170.76,298.56c6.46-.41,4.6-.39,11.06-.72,3.17-.17,24-1.23,26.93-.87.07,0,.07.12,0,.14-2.94.61-23.74,1.31-26.91,1.42-6.47.21-4.61.08-11.09.22a.1.1,0,0,1-.06-.13A.11.11,0,0,1,170.76,298.56Z" transform="translate(0 0.03)"/><path class="cls-8" d="M185.68,105.3c1.88,23.58,3.81,47.16,6,70.71s4.69,47.25,7.78,70.78c1.72,13.15,3.63,31.67,5.67,44.77a.07.07,0,0,1-.14,0c-4.17-23.28-7.24-52.16-9.85-75.66s-4.75-47.06-6.65-70.62c-1.08-13.33-2-26.67-3.07-40C185.37,105.11,185.67,105.12,185.68,105.3Z" transform="translate(0 0.03)"/><path class="cls-6" d="M145.63,134.13A78.56,78.56,0,0,1,158,139.9a.13.13,0,0,1,.07.18.13.13,0,0,1-.18.08h0c-4.18-1.8-8.44-3.51-12.51-5.53a.28.28,0,0,1-.1-.38A.27.27,0,0,1,145.63,134.13Z" transform="translate(0 0.03)"/><path class="cls-9" d="M144.3,105.47c0-.14.26-.17.26,0,0,5,.29,9.32.7,14,.2,2.15,1.93,14,5.66,13.17.62-.15.94-.76,1-1.7a14.53,14.53,0,0,0-.5-3.65c-.41-2.49-.74-5-1-7.5a67.43,67.43,0,0,1,.16-14.06.12.12,0,0,1,.24,0A129.35,129.35,0,0,0,152,125.1c.47,3.09,2,7.74-1.21,8.22s-5.42-7.31-5.82-9.45A70.88,70.88,0,0,1,144.3,105.47Z" transform="translate(0 0.03)"/><path class="cls-10" d="M150.82,132.9a17.83,17.83,0,0,1,.84,2.46,5.69,5.69,0,0,1,.35,2,.15.15,0,0,1-.19.1.18.18,0,0,1-.07-.05,7.27,7.27,0,0,1-.87-2c-.28-.76-.58-1.52-.84-2.29a.41.41,0,0,1,.78-.22Z" transform="translate(0 0.03)"/><path class="cls-8" d="M167.7,109.36a6.65,6.65,0,0,1,.15-1.54.09.09,0,0,1,.1,0,.12.12,0,0,1,.05,0,6.09,6.09,0,0,1,.18,1.34c0,.51.12,1,.17,1.53a23.26,23.26,0,0,0,.55,3.11,11,11,0,0,0,2.85,5.11,14.62,14.62,0,0,0,4.81,3.18,60.46,60.46,0,0,0,6.18,1.77.09.09,0,0,1,0,.1.12.12,0,0,1,0,.05,17.71,17.71,0,0,1-6.74-1.32,14.13,14.13,0,0,1-5-3.2,11.15,11.15,0,0,1-2.92-5.27,15.5,15.5,0,0,1-.41-3.11A14.6,14.6,0,0,1,167.7,109.36Z" transform="translate(0 0.03)"/><path class="cls-11" d="M160,53.19c-1.88,7.77-19.7,46.07-31.63,49.35C115.89,106,81.45,91.22,78.2,90.07c-8.92-3.17,9.09-29.33,13.69-26.21C99.6,69.07,117.36,78.26,121,76.7c7.56-3.28,21.32-20.34,31.6-29.82C158.75,41.16,162.06,44.59,160,53.19Z" transform="translate(0 0.03)"/><path class="cls-6" d="M146.82,329.87c9.86-1.07,49.75-4.47,59.59-4.79.08,0,.08.06,0,.07-9.75,1.27-49.67,4.35-59.58,4.88C146.62,330,146.61,329.89,146.82,329.87Z" transform="translate(0 0.03)"/><path class="cls-7" d="M167.14,309.52c3.83-1,8.64-.85,11.84,1.67.13.1,0,.27-.14.24A55,55,0,0,0,167.2,310a.27.27,0,0,1-.19-.32A.26.26,0,0,1,167.14,309.52Z" transform="translate(0 0.03)"/><path class="cls-7" d="M164.48,311.45c3.83-1.05,8.63-.85,11.84,1.67.12.1,0,.27-.15.24a55.64,55.64,0,0,0-11.64-1.42.25.25,0,0,1-.23-.27A.26.26,0,0,1,164.48,311.45Z" transform="translate(0 0.03)"/><path class="cls-7" d="M161.81,313.38c3.83-1.05,8.64-.85,11.84,1.67.13.1,0,.27-.14.24a55,55,0,0,0-11.64-1.42.25.25,0,0,1-.06-.49Z" transform="translate(0 0.03)"/><path class="cls-7" d="M161.37,301.47c1.35-2.24,4.28-1.53,6-.3a21,21,0,0,1,6.74,8.4.1.1,0,0,1-.06.14h0c0,.3-.23.64-.57.54-3.31-.92-7-1.49-9.9-3.4C161.87,305.75,160.09,303.58,161.37,301.47Zm7.37,6.37c1.62.49,3.25.9,4.85,1.45-1.32-1.63-2.56-3.32-4-4.82a23.08,23.08,0,0,0-2.25-2.06c-1.25-1-6-2.81-5,1.4C162.9,306.13,166.81,307.25,168.74,307.84Z" transform="translate(0 0.03)"/><path class="cls-7" d="M183.93,307.73c-3.09,1.63-6.78,1.87-10.17,2.49-.35.07-.55-.29-.51-.58-.07,0-.11-.08-.07-.16a20.68,20.68,0,0,1,7.47-7.76c1.84-1.07,4.82-1.51,6,.84S185.73,306.77,183.93,307.73Zm1.52-2.92c1.42-4.1-3.5-2.68-4.82-1.84a22.8,22.8,0,0,0-2.43,1.84,62.27,62.27,0,0,0-4.46,4.44c1.64-.41,3.3-.67,5-1C180.67,307.83,184.67,307.07,185.45,304.81Z" transform="translate(0 0.03)"/><path class="cls-12" d="M80.31,90.8c-1.56-.64-13.85-4.63-19.17-9.76-2.81-2.71-9.72-11-8.28-13,1.31-1.76,3.76.06,3.76.06s-3-3.76-1.17-6.17,5.83.86,5.83.86-2.82-4.08-.8-6.36S66,58.12,66,58.12s-2.76-3.62-.31-4.79c3-1.42,7.28,5.83,10.88,8.23.82.55,17.36,9.9,17.36,9.9Z" transform="translate(0 0.03)"/><path class="cls-12" d="M66.12,58.12c3.19,5.32,5.51,7.1,11,9.85.11,0,.06.22-.06.18-5.59-2.21-8.82-4-11.17-9.88C65.74,58,66,57.87,66.12,58.12Z" transform="translate(0 0.03)"/><path class="cls-12" d="M61.45,62.77c3.8,5.24,6.3,7.18,11.8,10.48.08,0,0,.19-.08.15-5.66-2.79-8.84-4.66-12-10.39C61.08,62.75,61.28,62.53,61.45,62.77Z" transform="translate(0 0.03)"/><path class="cls-12" d="M56.89,68.29c4,4.81,6.69,7.06,12.45,9.58a.11.11,0,0,1,.06.15.11.11,0,0,1-.14.06c-6.12-2-9.44-4.78-12.5-9.65C56.55,68.1,56.64,68,56.89,68.29Z" transform="translate(0 0.03)"/><path class="cls-12" d="M96.88,67.94S92,61.86,89.31,59.66s-15.87-6.66-17-3.87C70.86,59.38,78,63.46,81.68,65c0,0-3.37,8.32,1.08,12.34S96.88,67.94,96.88,67.94Z" transform="translate(0 0.03)"/><path class="cls-11" d="M194.25,121.7c-.15.15-61.73-1.79-62.27-2.44-.76-.92,12.43-62.09,22.89-75,2.62-3.26,11.43-4.15,14.89-.55,10,10.41,11.85,17.86,14.24,24.79,1.77,5.13,3.8,13.83,5.56,22.74C192.51,105.93,194.78,121.14,194.25,121.7Z" transform="translate(0 0.03)"/><path class="cls-1" d="M157.86,52c2.55.5,8.61-3.5,11.3-7.24a63.53,63.53,0,0,0,.22-6.76c.07-2.17.19-4.59.46-6.8.06-.45-1.58.19-1.58.19l-2.93.34-9.71,1.11a35,35,0,0,1,.29,8.62,6.77,6.77,0,0,1-.21.89v.15C155.17,44.13,153.86,51.19,157.86,52Z" transform="translate(0 0.03)"/><path class="cls-6" d="M155.7,42.3v.15a9.45,9.45,0,0,0,1.41.25C166.39,43.65,169,32,169,32l-3.69-.29-9.71,1.11a35,35,0,0,1,.29,8.62A5.08,5.08,0,0,1,155.7,42.3Z" transform="translate(0 0.03)"/><path class="cls-6" d="M154.3,5.51s-4.69,1.89-5.6,6.62.13,9.71.54,9.95S154.3,5.51,154.3,5.51Z" transform="translate(0 0.03)"/><path class="cls-13" d="M165.5,38.56h0" transform="translate(0 0.03)"/><path class="cls-1" d="M172.41,12.53c1.49,4.94-1.15,19.18-4.67,22.35-5.09,4.59-13.42,5-17.32-1.12-3.77-5.93,0-24.43,3.92-27.31C160.12,2.22,170.2,5.24,172.41,12.53Z" transform="translate(0 0.03)"/><path class="cls-6" d="M171.19,24.14c-1.63.24-2.69-4.73-2.92-6.62-.2-1.66.08-6.78,0-7.13S160.78,13.79,157,12s-5.82-5.7-5.62-7.35,5.79-5.08,10-4.67,9.13,6.71,9.13,6.71A19.74,19.74,0,0,1,169.1,4,4.67,4.67,0,0,1,172,7.3a13.37,13.37,0,0,1,0-2.53c.16,0,2,2.4,1.28,3.91,0,0,2.13,2.51,2,4.88S173.11,23.87,171.19,24.14Z" transform="translate(0 0.03)"/><path class="cls-6" d="M154.41,10.76a13.15,13.15,0,0,0,3.51,1.91,8.86,8.86,0,0,0,4.34,0A13.6,13.6,0,0,0,166.32,11c1.11-.66,2.14-1.5,3.3-2.06.29-.13.53.29.33.51a14.25,14.25,0,0,1-8,4.13,8.22,8.22,0,0,1-7.61-2.83Z" transform="translate(0 0.03)"/><path class="cls-1" d="M169.33,24.14s3.33-4.54,5.39-3.34-.51,7.82-3,8.67a2.49,2.49,0,0,1-3.27-1.31l0-.1Z" transform="translate(0 0.03)"/><path class="cls-6" d="M173.94,22.74a6.3,6.3,0,0,0-3.35,3.88,1.37,1.37,0,0,1,1.88-.47,1.33,1.33,0,0,1,.19.14v.09a1.54,1.54,0,0,0-1.7.49,7.25,7.25,0,0,0-.84,1.35c-.08.16-.36.07-.3-.11h0c0-2.23,1.76-5.26,4.12-5.43Z" transform="translate(0 0.03)"/><path class="cls-14" d="M251.73,312.39l3.27-4L53,37.79,32.66,33.07l1.45-5.4L0,17.45v4s5.53,4,0,6.24l4.72,13L32,42.35l.42-3.83L49,42.61Z" transform="translate(0 0.03)"/><path class="cls-11" d="M177.76,62c.34,6.66.76,42.32-5.72,50.74-9.62,12.53-28.71,24.14-36,27.78-3.18,1.58-17.75-21.28-14.63-23.46,6.68-4.66,28.75-17.18,30.55-19.38s8-25.17,11.82-37C168.88,44.76,176.94,45.8,177.76,62Z" transform="translate(0 0.03)"/><path class="cls-5" d="M136,140.8c-10.13,5.89-30.39,5.21-33.16,4.39l-3.57-1.07c-4.26-1.16-5.43-3.51-5.43-3.51s-5.31.11-5.92-3.09c-.68-3.59,6.92-3,11.29-5.3,10-5.17,22.78-15.32,25.51-17.1Z" transform="translate(0 0.03)"/><path class="cls-5" d="M113.5,134.17a72.29,72.29,0,0,1-9,4,73.22,73.22,0,0,1-10.57,2.31.09.09,0,0,0,0,.18,38.41,38.41,0,0,0,19.7-6.27C113.77,134.33,113.65,134.09,113.5,134.17Z" transform="translate(0 0.03)"/><path class="cls-5" d="M117.5,139.75c-3,1.26-8.21,3.45-18.24,4.26v.06a34.57,34.57,0,0,0,18.36-4C117.8,140,117.7,139.67,117.5,139.75Z" transform="translate(0 0.03)"/><path class="cls-5" d="M110.87,125.23c1-1.19.42-1.75-2.34-1.22s-13.21,4.93-14.44,1.16,13.61-9.79,18.27-10.31,12.61.26,12.61.26C122.32,116.87,116,121.73,110.87,125.23Z" transform="translate(0 0.03)"/></g></g><polygon class="cls-15" points="0 332.77 253.93 332.77 253.93 0 0 332.77"/></svg>