<svg viewBox="0 0 14 14" xmlns="http://www.w3.org/2000/svg">
  <g fill="none" fill-rule="evenodd">
    <path d="M0 0h14v14H0z"/>
    <path d="M6.417 4.083h3.5V5.25h-3.5V4.083zm0 2.334h3.5v1.166h-3.5V6.417zm0 2.333h3.5v1.167h-3.5V8.75zM4.083 4.083H5.25V5.25H4.083V4.083zm0 2.334H5.25v1.166H4.083V6.417zm0 2.333H5.25v1.167H4.083V8.75zm7.642-7h-9.45a.523.523 0 0 0-.525.525v9.45c0 .233.233.525.525.525h9.45c.233 0 .525-.292.525-.525v-9.45c0-.292-.292-.525-.525-.525zm-.642 9.333H2.917V2.917h8.166v8.166z" fill="currentcolor" fill-rule="nonzero"/>
  </g>
</svg>
