<?xml version="1.0" encoding="UTF-8"?>
<svg width="14px" height="16px" viewBox="0 0 14 16" version="1.1" xmlns="http://www.w3.org/2000/svg" xmlns:xlink="http://www.w3.org/1999/xlink">
    <!-- Generator: Sketch 52.6 (67491) - http://www.bohemiancoding.com/sketch -->
    <title>employees</title>
    <desc>Created with Sketch.</desc>
    <g id="Page-1" stroke="none" stroke-width="1" fill="none" fill-rule="evenodd">
        <g id="Form_Builder_System_Fields1.0" transform="translate(-95.000000, -381.000000)" fill="#324056" fill-rule="nonzero">
            <g id="employees" transform="translate(95.000000, 381.000000)">
                <circle id="Oval" cx="7.00002966" cy="6.88527119" r="1"></circle>
                <circle id="Oval" cx="7.00002966" cy="7.95244492" r="1"></circle>
                <path d="M11.9701483,3.33122881 C12.1442585,3.0864661 12.2471229,2.78763136 12.2471229,2.46503814 L12.2471229,1.49802966 C12.2471229,0.672 11.5751229,0 10.7490932,0 L10.5430085,0 C9.71697881,0 9.04497881,0.672 9.04497881,1.49802966 L9.04497881,2.46500847 C9.04497881,2.78662288 9.14719068,3.08459746 9.32035169,3.32894492 L8.32569915,3.32894492 C8.49886017,3.08459746 8.60110169,2.78662288 8.60110169,2.46500847 L8.60110169,1.49802966 C8.60110169,0.672 7.92910169,0 7.10307203,0 L6.89698729,0 C6.07095763,0 5.39895763,0.672 5.39895763,1.49802966 L5.39895763,2.46500847 C5.39895763,2.78662288 5.50119915,3.08459746 5.67441949,3.32894492 L4.67976695,3.32894492 C4.85289831,3.08459746 4.95511017,2.78662288 4.95511017,2.46500847 L4.95511017,1.49802966 C4.95508051,0.672 4.28308051,0 3.45705085,0 L3.2509661,0 C2.42493644,0 1.75293644,0.672 1.75293644,1.49802966 L1.75293644,2.46500847 C1.75293644,2.78760169 1.85577119,3.08643644 2.02991102,3.33119915 C0.916525424,3.37782627 0.0250338983,4.2938178 0.0250338983,5.41352119 L0.0250338983,8.50470339 C0.0250338983,9.14716102 0.549707627,9.66984746 1.19468644,9.66984746 C1.2011822,9.66984746 1.20755932,9.6692839 1.2139661,9.66886864 L1.2139661,14.1296186 C1.2139661,14.712339 1.68803814,15.186411 2.27075847,15.186411 L2.61420339,15.186411 C2.90194492,15.186411 3.16319915,15.070822 3.35394915,14.8836314 C3.54472881,15.070822 3.80598305,15.186411 4.09369492,15.186411 L4.43713983,15.186411 C4.72494068,15.186411 4.98580932,15.0703178 5.17658898,14.8830381 C5.36739831,15.0704958 5.62871186,15.186411 5.91669068,15.186411 L6.26013559,15.186411 C6.54787712,15.186411 6.80913136,15.070822 6.99988136,14.8836314 C7.19066102,15.070822 7.45191525,15.186411 7.73965678,15.186411 L8.08313136,15.186411 C8.37111017,15.186411 8.63245339,15.0704958 8.82323305,14.8830381 C9.01395339,15.0703178 9.27482203,15.186411 9.56265254,15.186411 L9.90612712,15.186411 C10.193839,15.186411 10.4551229,15.070822 10.6458729,14.8836314 C10.8366525,15.070822 11.0979068,15.186411 11.3856483,15.186411 L11.7291229,15.186411 C12.3118432,15.186411 12.7859153,14.712339 12.7859153,14.1296186 L12.7859153,9.66886864 C12.792322,9.66925424 12.7986992,9.66984746 12.8051949,9.66984746 C13.4501144,9.66984746 13.9748475,9.14716102 13.9748475,8.50470339 L13.9748475,5.41355085 C13.9750254,4.2938178 13.0835339,3.37785593 11.9701483,3.33122881 Z M9.67907203,1.49802966 C9.67907203,1.02164407 10.0666525,0.63409322 10.5430085,0.63409322 L10.7490932,0.63409322 C11.2254492,0.63409322 11.6130297,1.02164407 11.6130297,1.49802966 L11.6130297,2.46500847 C11.6130297,2.94139407 11.2254492,3.32894492 10.7490932,3.32894492 L10.5430085,3.32894492 C10.0666525,3.32894492 9.67907203,2.94139407 9.67907203,2.46500847 L9.67907203,1.49802966 Z M6.03305085,1.49802966 C6.03305085,1.02164407 6.42060169,0.63409322 6.89698729,0.63409322 L7.10307203,0.63409322 C7.57942797,0.63409322 7.96700847,1.02164407 7.96700847,1.49802966 L7.96700847,2.46500847 C7.96700847,2.94139407 7.57942797,3.32894492 7.10307203,3.32894492 L6.89698729,3.32894492 C6.42060169,3.32894492 6.03305085,2.94139407 6.03305085,2.46500847 L6.03305085,1.49802966 Z M7.73327966,3.9630678 L7.00002966,5.16626695 L6.26677966,3.9630678 L7.73327966,3.9630678 Z M2.38702966,1.49802966 C2.38702966,1.02164407 2.77458051,0.63409322 3.2509661,0.63409322 L3.45705085,0.63409322 C3.93343644,0.63409322 4.32098729,1.02164407 4.32098729,1.49802966 L4.32098729,2.46500847 C4.32098729,2.94139407 3.93343644,3.32894492 3.45705085,3.32894492 L3.2509661,3.32894492 C2.77458051,3.32894492 2.38702966,2.94139407 2.38702966,2.46500847 L2.38702966,1.49802966 Z M1.53101271,6.16652542 C1.35589407,6.16652542 1.2139661,6.30845339 1.2139661,6.48357203 L1.2139661,6.48366102 L1.2139661,9.03673305 C1.20755932,9.03634746 1.2011822,9.03575424 1.19468644,9.03575424 C0.899381356,9.03575424 0.659127119,8.79751695 0.659127119,8.50470339 L0.659127119,5.41352119 C0.659127119,4.61371186 1.31401271,3.96303814 2.11895339,3.96303814 L4.26297034,3.96303814 C3.89692373,4.33851695 3.67108475,4.85016949 3.67108475,5.41352119 L3.67108475,8.50470339 C3.67108475,8.60733051 3.68461017,8.70684322 3.70973305,8.80172881 L3.35466102,8.9815339 L1.84802966,8.21530085 L1.84802966,6.48369068 L1.84802966,6.48357203 C1.84805932,6.30845339 1.70610169,6.16652542 1.53101271,6.16652542 Z M4.85998729,14.1296186 C4.85998729,14.3627542 4.67036441,14.5523771 4.43725847,14.5523771 L4.09381356,14.5523771 C3.86073729,14.5523771 3.67108475,14.3627542 3.67108475,14.1296483 L3.67108475,10.6447754 C3.67108475,10.4696568 3.52915678,10.3277288 3.35403814,10.3277288 C3.17894915,10.3277288 3.03699153,10.4696568 3.03699153,10.6447754 L3.03699153,14.1296483 C3.03699153,14.3627542 2.84736864,14.5523771 2.61426271,14.5523771 L2.27075847,14.5523771 C2.0376822,14.5523771 1.84802966,14.3627542 1.84802966,14.1296483 L1.84802966,8.92669068 L3.21059746,9.61969068 C3.25574153,9.64264831 3.30503814,9.65412712 3.35430508,9.65412712 C3.40339407,9.65412712 3.45248305,9.64273729 3.49753814,9.61992797 L4.03472881,9.34790678 C4.24469915,9.54713983 4.5284661,9.66987712 4.84064831,9.66987712 C4.84714407,9.66987712 4.85352119,9.66931356 4.85992797,9.66889831 L4.85992797,14.1296186 L4.85998729,14.1296186 Z M8.50597881,14.1296483 C8.50597881,14.3627542 8.31635593,14.5523771 8.08325,14.5523771 L7.73977542,14.5523771 C7.50666949,14.5523771 7.31704661,14.3627542 7.31704661,14.1296483 L7.31704661,10.6447754 C7.31704661,10.4696568 7.17508898,10.3277288 7,10.3277288 C6.82488136,10.3277288 6.68295339,10.4696568 6.68295339,10.6447754 L6.68295339,14.1296483 C6.68295339,14.3627542 6.49333051,14.5523771 6.26022458,14.5523771 L5.91677966,14.5523771 C5.68367373,14.5523771 5.49405085,14.3627542 5.49405085,14.1296483 L5.49405085,8.93007203 L6.8565,9.61992797 C6.90155508,9.64270763 6.95064407,9.65412712 6.99973305,9.65412712 C7.04902966,9.65412712 7.09829661,9.64264831 7.14344068,9.61969068 L8.50597881,8.92666102 L8.50594915,14.1296483 L8.50597881,14.1296483 Z M8.82302542,6.16652542 C8.6479661,6.16652542 8.50597881,6.30845339 8.50597881,6.48357203 L8.50597881,6.48366102 L8.50597881,8.21527119 L6.99937712,8.9815339 L5.49405085,8.21933475 L5.49405085,6.48366102 L5.49405085,6.48357203 C5.49405085,6.30845339 5.35212288,6.16652542 5.17700424,6.16652542 C5.00188559,6.16652542 4.85995763,6.30845339 4.85995763,6.48357203 L4.85995763,6.48366102 L4.85995763,9.03673305 C4.85355085,9.03634746 4.84717373,9.03575424 4.84067797,9.03575424 C4.54537288,9.03575424 4.30511864,8.79751695 4.30511864,8.50470339 L4.30511864,5.41352119 C4.30511864,4.69139407 4.83904661,4.09099576 5.53522034,3.98113136 L6.7292839,5.94047881 C6.78682627,6.03491949 6.88942373,6.09252119 7,6.09252119 C7.11057627,6.09252119 7.21317373,6.03491949 7.2707161,5.94047881 L8.46477966,3.98113136 C9.16095339,4.0909661 9.69488136,4.69136441 9.69488136,5.41352119 L9.69488136,8.50470339 C9.69488136,8.79751695 9.45465678,9.03575424 9.15932203,9.03575424 C9.15282627,9.03575424 9.14644915,9.0363178 9.14004237,9.03673305 L9.14004237,6.48366102 L9.14004237,6.48357203 C9.14007203,6.30845339 8.99811441,6.16652542 8.82302542,6.16652542 Z M12.152,14.1296483 C12.152,14.3627542 11.9623771,14.5523771 11.7292712,14.5523771 L11.3857966,14.5523771 C11.1526907,14.5523771 10.9630678,14.3627542 10.9630678,14.1296483 L10.9630678,10.6447754 C10.9630678,10.4696568 10.8211102,10.3277288 10.6460212,10.3277288 C10.4709619,10.3277288 10.3289746,10.4696568 10.3289746,10.6447754 L10.3289746,14.1296483 C10.3289746,14.3627542 10.1393517,14.5523771 9.90624576,14.5523771 L9.56277119,14.5523771 C9.32966525,14.5523771 9.14004237,14.3627542 9.14004237,14.1296483 L9.14004237,9.66886864 C9.14644915,9.66925424 9.15282627,9.66984746 9.15932203,9.66984746 C9.47150424,9.66984746 9.75527119,9.54713983 9.96524153,9.34787712 L10.5024322,9.61989831 C10.5474873,9.64267797 10.5965763,9.65409746 10.6456653,9.65409746 C10.6949619,9.65409746 10.7442288,9.64261864 10.7893729,9.61966102 L12.1519407,8.92663136 L12.1519407,14.1296483 L12.152,14.1296483 Z M12.8053729,9.0357839 C12.7988771,9.0357839 12.7925,9.03634746 12.7860932,9.03676271 L12.7860932,6.48369068 L12.7860932,6.48357203 C12.7860932,6.30845339 12.6441356,6.16652542 12.4690466,6.16652542 C12.2939873,6.16652542 12.152,6.30845339 12.152,6.48357203 L12.152,6.48366102 L12.152,8.21527119 L10.6453983,8.9815339 L10.2902966,8.80172881 C10.3154492,8.70687288 10.3289449,8.60733051 10.3289449,8.50470339 L10.3289449,5.41352119 C10.3289449,4.85016949 10.1030763,4.33851695 9.73702966,3.96303814 L11.8810466,3.96303814 C12.6860169,3.96303814 13.3408729,4.61371186 13.3408729,5.41352119 L13.3408729,8.50473305 L13.3409025,8.50473305 C13.3409322,8.79754661 13.1007076,9.0357839 12.8053729,9.0357839 Z" id="Shape"></path>
            </g>
        </g>
    </g>
</svg>