<svg viewBox="0 0 17 15" xmlns="http://www.w3.org/2000/svg">
  <g fill-rule="evenodd">
    <path d="M9.88 13.579c.295 0 .534.25.534.56 0 .31-.239.561-.534.561H1.424C.638 14.7 0 14.03 0 13.205V1.995C0 1.169.638.5 1.424.5h13.352c.786 0 1.424.67 1.424 1.495v6.072c0 .31-.24.56-.534.56a.548.548 0 0 1-.534-.56V1.995a.365.365 0 0 0-.356-.374H1.424a.365.365 0 0 0-.356.374v11.21c0 .207.16.374.356.374H9.88Z"/>
    <path d="M4.1 1.067C4.1.809 4.324.6 4.6.6s.5.209.5.467v13.066c0 .258-.224.467-.5.467s-.5-.209-.5-.467V1.067Z"/>
    <path d="M.544 5.6C.3 5.6.1 5.376.1 5.1s.199-.5.444-.5h15.112c.245 0 .444.224.444.5s-.199.5-.444.5H.544ZM12.6 9.1a.5.5 0 0 1 1 0v5a.5.5 0 0 1-1 0v-5Z"/>
    <path d="M10.6 12.1a.5.5 0 0 1 0-1h5a.5.5 0 0 1 0 1h-5Z"/>
  </g>
</svg>
