<?xml version="1.0" encoding="UTF-8"?>
<svg width="490px" height="490px" viewBox="0 0 490 490" version="1.1" xmlns="http://www.w3.org/2000/svg" xmlns:xlink="http://www.w3.org/1999/xlink">
    <title>noun-copy-link-3595804</title>
    <g id="Page-1" stroke="none" stroke-width="1" fill="none" fill-rule="evenodd">
        <g id="noun-copy-link-3595804" fill="#000000" fill-rule="nonzero">
            <path d="M437.5,490 L157.5,490 C143.582,489.984375 130.234,484.4492 120.395,474.605 C110.5512,464.7652 105.016,451.417 105,437.5 L105,157.5 C105.015625,143.582 110.5508,130.234 120.395,120.395 C130.2348,110.5512 143.583,105.016 157.5,105 L437.5,105 C451.418,105.015625 464.766,110.5508 474.605,120.395 C484.4488,130.2348 489.984,143.583 490,157.5 L490,437.5 C489.984375,451.418 484.4492,464.766 474.605,474.605 C464.7652,484.4488 451.417,489.984 437.5,490 Z M157.5,140 C152.8594,140.003906 148.4102,141.8477 145.129,145.1289 C141.8478,148.4101 140.004,152.8594 140.0001,157.4999 L140.0001,437.4999 C140.004006,442.1405 141.8478,446.5897 145.129,449.8709 C148.4102,453.1521 152.8595,454.9959 157.5,454.9998 L437.5,454.9998 C442.1406,454.995894 446.5898,453.1521 449.871,449.8709 C453.1522,446.5897 454.996,442.1404 454.9999,437.4999 L454.9999,157.4999 C454.995994,152.8593 453.1522,148.4101 449.871,145.1289 C446.5898,141.8477 442.1405,140.0039 437.5,140 L157.5,140 Z" id="Shape"></path>
            <path d="M52.5,385 C38.582,384.984375 25.234,379.4492 15.395,369.605 C5.5512,359.7652 0.016,346.417 0,332.5 L0,52.5 C0.015625,38.582 5.5508,25.234 15.395,15.395 C25.2348,5.5512 38.583,0.016 52.5,0 L332.5,0 C346.418,0.015625 359.766,5.5508 369.605,15.395 C379.4488,25.2348 384.984,38.583 385,52.5 C385,58.7539 381.6641,64.531 376.25,67.656 C370.8359,70.781 364.164,70.781 358.75,67.656 C353.336,64.531 350,58.7537 350,52.5 C349.996094,47.8594 348.1523,43.4102 344.8711,40.129 C341.5899,36.8478 337.1406,35.004 332.5001,35.0001 L52.5001,35.0001 C47.8595,35.004006 43.4103,36.8478 40.1291,40.129 C36.8479,43.4102 35.0041,47.8595 35.0002,52.5 L35.0002,332.5 C35.004106,337.1406 36.8479,341.5898 40.1291,344.871 C43.4103,348.1522 47.8596,349.996 52.5001,349.9999 C58.754,349.9999 64.5311,353.3358 67.6561,358.7499 C70.7811,364.164 70.7811,370.8359 67.6561,376.2499 C64.5311,381.6639 58.7538,385 52.5001,385 L52.5,385 Z" id="Path"></path>
            <path d="M371.74,339.75 C367.0955,339.75 362.6423,337.9023 359.361,334.6172 C356.0798,331.332 354.2399,326.8789 354.2438,322.2342 C354.247706,317.5897 356.0954,313.1404 359.3844,309.8592 L365.5875,303.6717 C378.8495,290.4057 384.0255,271.0697 379.1695,252.9487 C374.3101,234.8317 360.1535,220.6787 342.0325,215.8277 C323.9115,210.9761 304.5755,216.15973 291.3135,229.4297 L285.1416,235.6172 L285.145506,235.613294 C280.708006,239.929694 274.321506,241.582094 268.348506,239.957094 C262.375806,238.335994 257.707506,233.675894 256.067506,227.711094 C254.426906,221.742294 256.059694,215.352094 260.364406,210.902094 L266.551906,204.698994 C288.653906,182.589994 320.867906,173.952994 351.067906,182.038994 C381.262906,190.124894 404.852906,213.706994 412.950906,243.901994 C421.044706,274.096994 412.419656,306.315994 390.317906,328.424994 L384.095206,334.628094 C380.817906,337.905394 376.376406,339.75 371.740206,339.75 L371.74,339.75 Z" id="Path"></path>
            <path d="M266.57,415.900356 C243.363,415.911718 221.105,406.7047 204.691,390.298 C188.277,373.896 179.054,351.638 179.054,328.435 C179.054,305.228 188.2767,282.974 204.687,266.568 L210.9097,260.3649 C215.3589,256.0602 221.7497,254.4274 227.7147,256.068 C233.6835,257.7086 238.3397,262.3766 239.9647,268.349 C241.5897,274.3214 239.937356,280.708 235.6209,285.146 L229.4178,291.3335 C216.1558,304.5995 210.9798,323.9355 215.8358,342.0565 C220.6952,360.1735 234.8518,374.3265 252.9728,379.1775 C271.0938,384.0291 290.4298,378.84547 303.6918,365.5755 L309.8637,359.388 L309.859794,359.391906 C314.297294,355.075506 320.683794,353.423106 326.656794,355.048106 C332.629494,356.669206 337.297794,361.329306 338.937794,367.294106 C340.578394,373.262906 338.945606,379.653106 334.640894,384.103106 L328.453394,390.306206 C312.055394,406.732206 289.781394,415.943206 266.570394,415.900356 L266.57,415.900356 Z" id="Path"></path>
            <path d="M278.95,333.56 C274.3094,333.56 269.8602,331.7162 266.579,328.435 C263.2978,325.1538 261.454,320.7006 261.454,316.06 C261.454,311.4194 263.2938,306.9702 266.5751,303.689 L316.0671,254.197 C320.5085,249.8689 326.9071,248.2165 332.8871,249.8493 C338.8676,251.4782 343.5391,256.154 345.1641,262.1343 C346.793,268.1187 345.136757,274.5133 340.8047,278.9503 L291.3127,328.4423 C288.0354,331.7235 283.5861,333.5673 278.9497,333.56 L278.95,333.56 Z" id="Path"></path>
        </g>
    </g>
</svg>