<svg xmlns="http://www.w3.org/2000/svg" viewBox="0 0 32 40" x="0px" y="0px"><g transform="translate(-398 -216)"><rect width="32" height="32" transform="translate(398 216)" fill="none"/><path data-name="Path 16" d="M639,248H623a1.89,1.89,0,0,0-2,2v18h2V250h16Zm-12,4a1.89,1.89,0,0,0-2,2v20c0,1.466.534,2,2,2h16c1.466,0,2-.534,2-2V254c0-1.466-.534-2-2-2Zm0,22h16V254H627Z" transform="translate(-219 -30)" fill-rule="evenodd"/></g><text x="0" y="47" fill="#000000" font-size="5px" font-weight="bold" font-family="'Helvetica Neue', Helvetica, Arial-Unicode, Arial, Sans-serif">Created by Björn Andersson</text><text x="0" y="52" fill="#000000" font-size="5px" font-weight="bold" font-family="'Helvetica Neue', Helvetica, Arial-Unicode, Arial, Sans-serif">from the Noun Project</text></svg>