<?xml version="1.0" encoding="UTF-8"?>
<svg width="50px" height="50px" viewBox="0 0 50 50" version="1.1" xmlns="http://www.w3.org/2000/svg" xmlns:xlink="http://www.w3.org/1999/xlink">
    <!-- Generator: Sketch 63.1 (92452) - https://sketch.com -->
    <title>close_icon</title>
    <desc>Created with Sketch.</desc>
    <g id="close_icon" stroke="none" stroke-width="1" fill="none" fill-rule="evenodd">
        <g id="close" fill="#FFFFFF" fill-rule="nonzero">
            <path d="M0.699321745,0.699321745 C1.5893676,-0.190724112 3.00728053,-0.231180742 3.9453143,0.577951856 L4.07594583,0.699321745 L49.3006783,45.9240542 C50.2331072,46.8564832 50.2331072,48.3682493 49.3006783,49.3006783 C48.4106324,50.1907241 46.9927195,50.2311807 46.0546857,49.4220481 L45.9240542,49.3006783 L0.699321745,4.07594583 C-0.233107248,3.14351684 -0.233107248,1.63175074 0.699321745,0.699321745 Z" id="Path-3"></path>
            <path d="M0.699321745,0.699321745 C1.5893676,-0.190724112 3.00728053,-0.231180742 3.9453143,0.577951856 L4.07594583,0.699321745 L49.3006783,45.9240542 C50.2331072,46.8564832 50.2331072,48.3682493 49.3006783,49.3006783 C48.4106324,50.1907241 46.9927195,50.2311807 46.0546857,49.4220481 L45.9240542,49.3006783 L0.699321745,4.07594583 C-0.233107248,3.14351684 -0.233107248,1.63175074 0.699321745,0.699321745 Z" id="Path-3-Copy" transform="translate(25.000000, 25.000000) scale(-1, 1) translate(-25.000000, -25.000000) "></path>
        </g>
    </g>
</svg>