<?xml version="1.0" encoding="UTF-8"?>
<svg width="14px" height="14px" viewBox="0 0 14 14" version="1.1" xmlns="http://www.w3.org/2000/svg" xmlns:xlink="http://www.w3.org/1999/xlink">
    <!-- Generator: Sketch 52.6 (67491) - http://www.bohemiancoding.com/sketch -->
    <title>picture1</title>
    <desc>Created with Sketch.</desc>
    <g id="Page-1" stroke="none" stroke-width="1" fill="none" fill-rule="evenodd">
        <g id="Form_Builder_System_Fields1.0" transform="translate(-276.000000, -504.000000)" fill="#324056" fill-rule="nonzero">
            <g id="picture1" transform="translate(276.000000, 504.000000)">
                <path d="M0,12.5085714 C0,13.3228571 0.662857143,13.9828571 1.47428571,13.9828571 L12.5085714,13.9828571 C13.3228571,13.9828571 13.9828571,13.32 13.9828571,12.5085714 L13.9828571,1.47428571 C13.9828571,0.66 13.32,0 12.5085714,0 L1.47428571,0 C0.66,0 0,0.662857143 0,1.47428571 C0,1.47428571 0,12.5085714 0,12.5085714 Z M12.5085714,13.2828571 L1.47428571,13.2828571 C1.04857143,13.2828571 0.7,12.9342857 0.7,12.5085714 L0.7,10.6657143 L3.35142857,8.01428571 L5.61714286,10.28 C5.75428571,10.4171429 5.97428571,10.4171429 6.11142857,10.28 L10.2028571,6.18857143 L13.2828571,9.26857143 L13.2828571,12.5085714 C13.2828571,12.9342857 12.9342857,13.2828571 12.5085714,13.2828571 Z M1.47428571,0.7 L12.5085714,0.7 C12.9342857,0.7 13.2828571,1.04857143 13.2828571,1.47428571 L13.2828571,8.27714286 L10.4485714,5.44571429 C10.3114286,5.30857143 10.0914286,5.30857143 9.95428571,5.44571429 L5.86285714,9.53714286 L3.59714286,7.27142857 C3.46,7.13428571 3.24,7.13428571 3.10285714,7.27142857 L0.7,9.67428571 L0.7,1.47428571 C0.7,1.04857143 1.04857143,0.7 1.47428571,0.7 Z" id="Shape"></path>
                <path d="M4.33428571,5.60285714 C5.31714286,5.60285714 6.11428571,4.80285714 6.11428571,3.82285714 C6.11428571,2.84285714 5.31428571,2.04285714 4.33428571,2.04285714 C3.35428571,2.04285714 2.55428571,2.84285714 2.55428571,3.82285714 C2.55428571,4.80285714 3.35142857,5.60285714 4.33428571,5.60285714 Z M4.33428571,2.74285714 C4.93142857,2.74285714 5.41428571,3.22857143 5.41428571,3.82285714 C5.41428571,4.41714286 4.92857143,4.90285714 4.33428571,4.90285714 C3.74,4.90285714 3.25428571,4.41714286 3.25428571,3.82285714 C3.25428571,3.22857143 3.73714286,2.74285714 4.33428571,2.74285714 Z" id="Shape"></path>
            </g>
        </g>
    </g>
</svg>