<svg viewBox="0 0 512 512" xmlns="http://www.w3.org/2000/svg">
  <path d="M213.6 0c-11.228 0-22.707 3.917-30.834 12-8.128 8.083-12.066 19.5-12.066 30.667V64H42v42.667h21.45V448c0 35.083 29.075 64 64.35 64h257.4c35.275 0 64.35-28.917 64.35-64V106.667H471V64H342.3V42.667c0-11.167-3.938-22.584-12.066-30.667-8.127-8.083-19.606-12-30.834-12h-85.8zm0 42.667h85.8V64h-85.8V42.667zm-107.25 64h300.3V448c0 11.833-9.552 21.333-21.45 21.333H127.8c-11.898 0-21.45-9.5-21.45-21.333V106.667zm42.9 64v234.666h42.9V170.667h-42.9zm85.8 0v234.666h42.9V170.667h-42.9zm85.8 0v234.666h42.9V170.667h-42.9z" fill-rule="nonzero"/>
</svg>
