<svg id="Layer_1" data-name="Layer 1" xmlns="http://www.w3.org/2000/svg" viewBox="0 0 19 20"><defs><style>.cls-1{fill-rule:evenodd;}</style></defs><path class="cls-1" d="M8.15,6.94H7.22A.18.18,0,0,0,7,7.11L6.7,11.4a.62.62,0,0,1-.61.58H6a.64.64,0,0,1-.56-.68L5.82,7a1.44,1.44,0,0,1,1.4-1.34h.93a.63.63,0,0,1,.61.64A.62.62,0,0,1,8.15,6.94ZM6.49,14.09a.62.62,0,0,1-.61.59h0A.63.63,0,0,1,5.27,14l0-.54a.61.61,0,1,1,1.22.1l0,.55ZM14.24,5a.74.74,0,0,0-.73-.69H5.3A.75.75,0,0,0,4.57,5L3.74,15.32a.8.8,0,0,0,.78.88H14.3a.81.81,0,0,0,.78-.88L14.24,5Z"/><path d="M9,.61v2a.63.63,0,0,0,1.25,0h0v-2A.63.63,0,0,0,9,.61ZM2.63,10.07h-2a.62.62,0,0,0-.63.61.63.63,0,0,0,.63.62h2a.63.63,0,0,0,.63-.62A.62.62,0,0,0,2.63,10.07Zm15.69,0h-2a.62.62,0,0,0-.63.61.63.63,0,0,0,.63.62h2a.63.63,0,0,0,.63-.62A.62.62,0,0,0,18.32,10.07ZM4.17,3.63,3.2,3a.64.64,0,0,0-.87.17A.61.61,0,0,0,2.51,4l1,.63a.64.64,0,0,0,.87-.17.61.61,0,0,0-.18-.85Zm11-.44.9-.51a.62.62,0,0,1,.63,1.06l-.9.51A.64.64,0,0,1,14.9,4,.6.6,0,0,1,15.12,3.19Z"/><path class="cls-1" d="M9.4,17.61H2.68a.65.65,0,0,0-.7.81l.35,1.11a.65.65,0,0,0,.56.42c.28.05,12.75.05,13,0a.67.67,0,0,0,.56-.42l.35-1.11c.14-.41-.2-.81-.71-.81Z"/></svg>