<svg xmlns="http://www.w3.org/2000/svg" viewBox="0 0 192 192"><defs><style>.cls-1{fill:#334056;}.cls-2{fill:none;}</style></defs><g id="trim_area" data-name="trim area"><g id="Filter"><path class="cls-1" d="M110.19,186.17a9.44,9.44,0,0,1-2.87-.44l-33-10.45a9.51,9.51,0,0,1-6.66-9.1V104.86L3.34,24.51a6.72,6.72,0,0,1-.8-7.09,6.59,6.59,0,0,1,6-3.76H181.91A6.67,6.67,0,0,1,187,24.6l-67.28,80.34v71.69a9.53,9.53,0,0,1-9.55,9.54ZM80.17,164l27.05,8.56V104a10,10,0,0,1,2.34-6.45l59.8-71.41H20.72L78,97.71A10.1,10.1,0,0,1,80.17,104Z"/><rect class="cls-2" x="0.02" y="-0.03" width="192" height="192"/></g></g></svg>