<?xml version="1.0" encoding="UTF-8"?><svg id="trim_area" xmlns="http://www.w3.org/2000/svg" viewBox="0 0 192 192"><defs><style>.cls-1{fill:none;}.cls-2{fill:#324056;}</style></defs><g id="Filter"><g><rect class="cls-1" x=".02" y="-.03" width="192" height="192"/><g><path class="cls-2" d="M164.02,158.03H44.03c-7.73,0-14.01-6.29-14.01-14.01V36.03c0-3.31,2.69-6,6-6s6,2.69,6,6v107.99c0,1.11,.9,2.01,2.01,2.01h119.99c3.31,0,6,2.69,6,6s-2.69,6-6,6Z"/><path class="cls-2" d="M66.02,139.03c-3.31,0-6-2.69-6-6V67.39c0-3.31,2.69-6,6-6s6,2.69,6,6v65.64c0,3.31-2.69,6-6,6Z"/><path class="cls-2" d="M106.02,139.03c-3.31,0-6-2.69-6-6v-38.91c0-3.31,2.69-6,6-6s6,2.69,6,6v38.91c0,3.31-2.69,6-6,6Z"/><path class="cls-2" d="M146.02,139.03c-3.31,0-6-2.69-6-6V48.12c0-3.31,2.69-6,6-6s6,2.69,6,6v84.91c0,3.31-2.69,6-6,6Z"/></g></g></g></svg>