<?xml version="1.0" encoding="UTF-8"?><svg id="trim_area" xmlns="http://www.w3.org/2000/svg" viewBox="0 0 192 192"><defs><style>.cls-1{fill:none;}.cls-2{fill:#334056;}.cls-3{fill:#324056;}</style></defs><g id="Filter"><g><path class="cls-2" d="M29.4,16.41s-.09,.07-.14,.12t0-.02s.08-.08,.13-.1Z"/><rect class="cls-1" x="0" y="-.05" width="192" height="192"/><g><path class="cls-3" d="M46.92,63.29l25.96,69.17h-15.5l-5.52-15.99H27.64l-5.52,15.99H7.2L33.16,63.29h13.76Zm-7.27,16.47l-8.33,24.8h16.76l-8.43-24.8Z"/><path class="cls-3" d="M93.42,63.29v24.7c3.81-5.1,8.98-7.65,15.5-7.65,7.04,0,12.3,2.39,15.79,7.17,3.49,4.78,5.23,11.33,5.23,19.67,0,4-.5,7.65-1.5,10.95s-2.45,6.12-4.36,8.48-4.21,4.18-6.93,5.47c-2.71,1.29-5.78,1.94-9.2,1.94-2.71,0-5.33-.52-7.85-1.55s-4.88-2.91-7.07-5.62v5.62h-13.17V63.29h13.56Zm.73,52.17c.55,1.97,1.44,3.57,2.66,4.79,1.29,1.16,2.6,1.92,3.92,2.28,1.32,.35,2.66,.53,4.02,.53,1.49,0,2.91-.29,4.26-.87,1.36-.58,2.54-1.5,3.54-2.76,1-1.26,1.79-2.89,2.37-4.89,.58-2,.87-4.42,.87-7.27s-.27-5.46-.82-7.46c-.55-2-1.31-3.63-2.28-4.89-.97-1.26-2.11-2.16-3.44-2.71s-2.73-.82-4.21-.82c-1.68,0-3.13,.23-4.36,.68-1.23,.45-2.42,1.16-3.58,2.13-1.29,1.23-2.24,2.78-2.86,4.65-.61,1.87-.92,4.26-.92,7.17v1.55c0,3.29,.27,5.93,.82,7.9Z"/><path class="cls-3" d="M179.4,128.63c-3.65,3.58-9.12,5.38-16.42,5.38-4.26,0-7.94-.65-11.04-1.94-3.1-1.29-5.63-3.1-7.6-5.42s-3.44-5.13-4.41-8.43-1.45-6.94-1.45-10.95,.57-7.67,1.7-11,2.76-6.17,4.89-8.53c2.13-2.36,4.75-4.18,7.85-5.47,3.1-1.29,6.65-1.94,10.66-1.94,3.42,0,6.41,.44,8.96,1.31,2.55,.87,4.7,2.08,6.44,3.63,1.74,1.55,3.1,3.41,4.07,5.57,.97,2.16,1.62,4.54,1.94,7.12l-13.66,1.84c-.32-2.58-1.07-4.67-2.23-6.25-1.16-1.58-3.17-2.37-6.01-2.37-2.07,0-3.78,.44-5.13,1.31s-2.44,2.05-3.25,3.54c-.81,1.49-1.37,3.18-1.7,5.09-.32,1.91-.48,3.89-.48,5.96s.16,4.17,.48,6.1c.32,1.94,.87,3.65,1.65,5.13,.77,1.49,1.84,2.66,3.2,3.54,1.36,.87,3.07,1.31,5.13,1.31,2.71,0,4.81-.78,6.3-2.33,1.49-1.55,2.36-3.78,2.62-6.68h13.76c-.52,6.07-2.6,10.9-6.25,14.48Z"/></g></g></g></svg>
