<?xml version="1.0" encoding="UTF-8"?><svg id="trim_area" xmlns="http://www.w3.org/2000/svg" viewBox="0 0 192 192"><defs><style>.cls-1{fill:none;}.cls-2{fill:#334056;}.cls-3{fill:#324056;}</style></defs><g id="Filter"><path class="cls-2" d="M29.4,16.41s-.09,.07-.14,.12t0-.02s.08-.08,.13-.1Z"/><g><rect class="cls-1" x="0" y="-.05" width="192" height="192"/><path class="cls-3" d="M8.21,71.62l23.38-14.64h10.92v75.48h-12.67v-61.39l-16.17,9.72-5.46-9.18Z"/><path class="cls-3" d="M77.13,109.68c4.7-3.82,8.74-7.43,12.13-10.81s6.04-6.7,7.97-9.94c1.93-3.24,2.9-6.79,2.9-10.65s-1.07-6.9-3.22-9.12c-2.15-2.22-5.08-3.33-8.79-3.33-4.51,0-7.9,.97-10.16,2.9-2.26,1.93-3.93,5.19-5.02,9.78l-11.91-1.64c.66-2.91,1.58-5.7,2.79-8.36,1.2-2.66,2.88-4.99,5.03-6.99,2.15-2,4.81-3.6,7.97-4.81,3.17-1.2,7.01-1.8,11.52-1.8,8.08,0,14.24,2.06,18.46,6.17,4.22,4.12,6.33,9.6,6.33,16.44,0,4.3-.78,8.14-2.35,11.52-1.57,3.39-3.79,6.72-6.66,10-2.88,3.28-6.34,6.68-10.38,10.21s-8.57,7.59-13.6,12.18h33.97l-1.53,11.03H61.79v-9.72c5.53-4.88,10.65-9.23,15.35-13.05Z"/><path class="cls-3" d="M142.49,120.61c2.22,2.08,5.77,3.11,10.65,3.11,4.3,0,7.68-1.02,10.16-3.06,2.48-2.04,3.71-5.28,3.71-9.72s-1.15-7.39-3.44-9.29c-2.29-1.89-5.66-2.84-10.1-2.84h-8.19v-11.03h8.74c6.26,0,9.83-2.77,10.71-8.3,.51-1.53,.66-3.35,.44-5.46-.44-2.91-1.71-5.04-3.82-6.39s-4.84-2.02-8.19-2.02c-4.37,0-7.66,.93-9.89,2.79-2.22,1.86-3.88,4.86-4.97,9.01l-11.8-1.64c.58-2.84,1.48-5.52,2.68-8.03,1.2-2.51,2.86-4.73,4.97-6.66,2.11-1.93,4.72-3.44,7.81-4.53,3.09-1.09,6.86-1.64,11.31-1.64s7.9,.55,11.03,1.64c3.13,1.09,5.72,2.55,7.76,4.37,2.04,1.82,3.55,3.93,4.53,6.34,.98,2.4,1.47,4.95,1.47,7.65,0,8.01-3.5,13.84-10.49,17.48,4.37,1.82,7.5,4.32,9.39,7.48,1.89,3.17,2.84,6.72,2.84,10.65,0,7.43-2.2,13.27-6.61,17.53-4.41,4.26-11.01,6.39-19.83,6.39-5.24,0-9.61-.73-13.11-2.19-3.5-1.46-6.28-3.35-8.36-5.68-2.08-2.33-3.57-4.95-4.48-7.86-.91-2.91-1.44-5.79-1.58-8.63h12.56c.51,4.95,1.88,8.47,4.1,10.54Z"/></g></g></svg>
