<svg xmlns="http://www.w3.org/2000/svg" viewBox="0 0 192 192"><defs><style>.cls-1{fill:#334056;}.cls-2{fill:none;}</style></defs><g id="trim_area" data-name="trim area"><path class="cls-1" d="M151.09,163.83h0v0Z"/><rect class="cls-1" x="10" y="20.29" width="104" height="117.42"/><rect class="cls-1" x="10" y="160.28" width="104" height="12" rx="2.96"/><rect class="cls-2" width="192" height="192"/><path class="cls-1" d="M172.71,143.17l-17.08,17.08V34L172.71,51a3.88,3.88,0,0,0,5.49-5.49L155.64,23a6.47,6.47,0,0,0-9.14,0L123.94,45.55A3.88,3.88,0,1,0,129.43,51L146.51,34v126.3l-17.08-17.08a3.88,3.88,0,0,0-5.49,5.48l22.56,22.56a6.47,6.47,0,0,0,9.14,0l22.56-22.56a3.88,3.88,0,0,0-5.49-5.48Zm-21.64,21.48v0l0,0Z"/><path class="cls-1" d="M151.09,164.65h0v0Z"/></g></svg>