<?xml version="1.0" encoding="UTF-8"?><svg id="trim_area" xmlns="http://www.w3.org/2000/svg" viewBox="0 0 192 192"><defs><style>.cls-1{fill:none;}.cls-2{fill:#334056;}</style></defs><rect class="cls-1" x="0" y="0" width="192" height="192"/><g><path class="cls-2" d="M189.26,150.45c-7.88-17.2-25.06-27.92-43.75-27.3-17.37,.58-33.32,11.3-40.63,27.31l-.83,1.82,.75,1.86c6.89,17.05,23.14,28.28,41.39,28.63,.29,.01,.57,.01,.86,.01,18.36,0,35.36-11.51,42.29-28.64l.76-1.86-.84-1.83Zm-42.21,23.01c-.22,0-.45,0-.68,0-13.74-.26-26.25-8.45-32.12-20.94,6.18-11.77,18.47-19.61,31.57-20.04,14.17-.48,27.42,7.35,34.07,20.03-6.01,12.77-18.8,20.96-32.84,20.96Z"/><path class="cls-2" d="M147.07,139.26c-7.62,0-13.81,6.2-13.81,13.81s6.19,13.82,13.81,13.82,13.81-6.2,13.81-13.82-6.19-13.81-13.81-13.81Zm0,18.31c-2.48,0-4.49-2.02-4.49-4.5s2.01-4.49,4.49-4.49,4.49,2.02,4.49,4.49-2.01,4.5-4.49,4.5Z"/><path class="cls-2" d="M103.07,177.92c0-3.31-2.69-6-6-6H42.5c-3.95,0-7.17-3.59-7.17-8V28.08c0-4.41,3.22-8,7.17-8h107c3.95,0,7.17,3.59,7.17,8V108.01c0,3.31,2.69,6,6,6h0c3.31,0,6-2.69,6-6V28.08c0-11.05-8.58-20-19.17-20H42.5c-10.59,0-19.17,8.95-19.17,20V163.92c0,11.05,8.58,20,19.17,20h54.57c3.31,0,6-2.69,6-6h0Z"/><path class="cls-2" d="M115.27,52.74H52.73c-3.31,0-6-2.69-6-6s2.69-6,6-6h62.54c3.31,0,6,2.69,6,6s-2.69,6-6,6Z"/><path class="cls-2" d="M125.27,86.14H52.73c-3.31,0-6-2.69-6-6s2.69-6,6-6H125.27c3.31,0,6,2.69,6,6s-2.69,6-6,6Z"/><path class="cls-2" d="M115.27,119.13H52.73c-3.31,0-6-2.69-6-6s2.69-6,6-6h62.54c3.31,0,6,2.69,6,6s-2.69,6-6,6Z"/></g></svg>
