<svg xmlns="http://www.w3.org/2000/svg" viewBox="0 0 192 192"><defs><style>.cls-1{fill:none;}.cls-2{fill:#324056;}</style></defs><g id="trim_area" data-name="trim area"><g id="Filter"><rect class="cls-1" width="192" height="192"/><path class="cls-2" d="M142.61,19h-14.9V8.43a5.85,5.85,0,0,0-11.69,0V19H55.17V8.43a5.85,5.85,0,0,0-11.69,0V19H27.56A16.13,16.13,0,0,0,11.44,35.11V150.17a16.13,16.13,0,0,0,16.12,16.11h88.66a36.7,36.7,0,0,1-9-11.68H27.56a4.44,4.44,0,0,1-4.43-4.43V70.88H147v31.47a35.75,35.75,0,0,1,11.69,4.33V35.11A16.12,16.12,0,0,0,142.61,19ZM23.13,59.2V35.11a4.43,4.43,0,0,1,4.43-4.42H43.48v6.22a5.85,5.85,0,0,0,11.69,0V30.69H116v6.22a5.85,5.85,0,0,0,11.69,0V30.69h14.9A4.42,4.42,0,0,1,147,35.11V59.2Z"/><path class="cls-2" d="M158.73,93A49.17,49.17,0,0,0,147,89.87a51.21,51.21,0,0,0-6.71-.45,49.09,49.09,0,0,0-46.4,65.18,48.4,48.4,0,0,0,5.91,11.68A49.09,49.09,0,1,0,158.73,93Zm-18.4,82.31a36.8,36.8,0,1,1,0-73.59,35.34,35.34,0,0,1,6.71.63,35.75,35.75,0,0,1,11.69,4.33,36.78,36.78,0,0,1-18.4,68.63Z"/><path class="cls-2" d="M160.2,148.16H140.73a9,9,0,0,1-9-9V118.33a5.36,5.36,0,0,1,10.72,0v19.11H160.2a5.36,5.36,0,0,1,0,10.72Z"/></g></g></svg>