<svg xmlns="http://www.w3.org/2000/svg" viewBox="0 0 192 192"><defs><style>.cls-1{fill:none;}.cls-2{fill:#334056;}</style></defs><g id="trim_area" data-name="trim area"><g id="Filter"><rect class="cls-1" y="-0.05" width="192" height="192"/><path class="cls-2" d="M164.56,170.44a6.75,6.75,0,0,1-6.74,6.74H29.56a6.59,6.59,0,0,1-1.27-.12c-.14,0-.27-.06-.41-.09l-.13,0a.24.24,0,0,1-.09,0h0a4.22,4.22,0,0,1-.6-.2c-.19-.08-.39-.17-.58-.27A6.27,6.27,0,0,1,25,175.35a4.4,4.4,0,0,1-.37-.38,2.22,2.22,0,0,1-.28-.33,3.5,3.5,0,0,1-.33-.43,4.54,4.54,0,0,1-.36-.6,6.22,6.22,0,0,1-.5-1.23,2.75,2.75,0,0,1-.13-.47c0-.15-.06-.31-.08-.47,0,0,0,0,0,0a3.32,3.32,0,0,1-.06-.44c0-.18,0-.36,0-.54a6.39,6.39,0,0,1,.3-2c.07-.22.15-.43.22-.64a5.46,5.46,0,0,1,.32-.64c.09-.17.2-.34.31-.51a6.41,6.41,0,0,1,.39-.52,4.88,4.88,0,0,1,.38-.43L90.68,98.34,24.79,26.22,24.58,26l0-.06a2.6,2.6,0,0,1-.3-.36,4.9,4.9,0,0,1-.49-.73c-.07-.12-.14-.23-.2-.36a.89.89,0,0,1-.08-.17,3.65,3.65,0,0,1-.18-.41.58.58,0,0,1-.06-.17,2.16,2.16,0,0,1-.13-.41.7.7,0,0,1-.05-.18c0-.16-.09-.32-.11-.46s-.06-.36-.08-.54,0-.45,0-.69a6.79,6.79,0,0,1,.55-2.67,4.6,4.6,0,0,1,.31-.63,3.88,3.88,0,0,1,.3-.48,2.52,2.52,0,0,1,.24-.33l.21-.27a4.24,4.24,0,0,1,.42-.43c.06,0,.1-.1.15-.14a5.61,5.61,0,0,1,.41-.36,8.29,8.29,0,0,1,.75-.51c.12-.08.24-.13.36-.2l.17-.08c.14-.07.27-.12.42-.18l.17,0a1.8,1.8,0,0,1,.41-.14.37.37,0,0,1,.18,0,3.9,3.9,0,0,1,.46-.12,5,5,0,0,1,.54-.07,5.12,5.12,0,0,1,.69,0H157.82a6.74,6.74,0,1,1,0,13.48h-113L104.93,94c0,.05.1.11.14.17l.14.15c.08.11.16.21.22.31s.16.21.23.32l.11.19c.07.12.14.23.19.34a6.75,6.75,0,0,1,.7,2.42c0,.21,0,.42,0,.64a6.23,6.23,0,0,1-.12,1.28c0,.11,0,.21-.08.32a2.92,2.92,0,0,1-.1.4,4.6,4.6,0,0,1-.19.52,3.65,3.65,0,0,1-.18.41,2.19,2.19,0,0,1-.16.3.64.64,0,0,1-.1.18,2.74,2.74,0,0,1-.23.36,2.33,2.33,0,0,1-.17.26,2.49,2.49,0,0,1-.3.36,1,1,0,0,1-.14.15,4.32,4.32,0,0,1-.42.44L45.58,163.71H157.82A6.75,6.75,0,0,1,164.56,170.44Z"/><path class="cls-2" d="M29.4,16.41l-.14.12s0,0,0,0A.41.41,0,0,1,29.4,16.41Z"/></g></g></svg>