<?xml version="1.0" encoding="UTF-8"?><svg id="trim_area" xmlns="http://www.w3.org/2000/svg" viewBox="0 0 192 192"><defs><style>.cls-1{fill:none;}.cls-2{fill:#334056;}.cls-3{fill:#324056;}</style></defs><g id="Filter"><path class="cls-2" d="M29.4,16.41s-.09,.07-.14,.12t0-.02s.08-.08,.13-.1Z"/><g><rect class="cls-1" x="0" y="-.05" width="192" height="192"/><path class="cls-3" d="M137.32,47.69v-4.93H55.34l47.17,51.62c.04,.05,.08,.09,.12,.14,.03,.04,.07,.08,.1,.12,.06,.08,.13,.16,.18,.24,.06,.09,.12,.17,.17,.25,.04,.06,.07,.1,.09,.15,.06,.09,.11,.18,.15,.27,.3,.59,.49,1.23,.55,1.89,.02,.17,.03,.34,.03,.51,0,.33-.03,.67-.1,1-.02,.09-.04,.17-.06,.26-.02,.1-.05,.2-.08,.31-.05,.14-.09,.28-.15,.41-.04,.11-.09,.21-.14,.32-.04,.08-.07,.16-.13,.24-.01,.05-.04,.09-.08,.14-.05,.09-.1,.19-.17,.28-.05,.07-.09,.14-.14,.2-.07,.1-.14,.2-.23,.28-.04,.05-.07,.09-.12,.13-.09,.11-.2,.23-.32,.34l-46.26,47.28h81.4v-4.94c0-3.31,2.69-6,6-6s6,2.69,6,6v9.52c0,.13,0,.26-.02,.38-.19,3.14-2.79,5.62-5.98,5.62H43.34c-.35,0-.67-.03-1-.1-.1-.01-.21-.04-.32-.07-.03-.01-.07-.02-.1-.02s-.05-.01-.07-.02h-.01c-.16-.05-.31-.11-.47-.17-.15-.06-.31-.13-.46-.21-.44-.22-.83-.51-1.19-.85-.1-.09-.2-.19-.29-.3-.08-.08-.16-.16-.22-.25-.1-.11-.17-.22-.25-.35-.11-.15-.21-.3-.29-.46-.16-.31-.3-.64-.39-.97-.05-.13-.08-.24-.1-.37-.03-.12-.05-.24-.07-.37h0c-.02-.13-.04-.24-.04-.36-.01-.14-.02-.28-.02-.42,0-.54,.08-1.07,.24-1.55,.05-.17,.11-.34,.17-.5,.07-.18,.16-.35,.25-.51,.07-.13,.16-.26,.25-.39,.08-.15,.19-.28,.3-.41,.08-.11,.19-.23,.3-.34l51.76-52.91L39.6,41.21l-.17-.18s-.02-.03-.03-.04c-.09-.09-.17-.19-.24-.29-.15-.18-.27-.38-.39-.57-.05-.1-.1-.18-.16-.28-.02-.05-.04-.09-.06-.13-.05-.11-.1-.22-.14-.33-.02-.04-.04-.09-.04-.13-.05-.11-.08-.22-.11-.33-.02-.04-.03-.1-.04-.14-.03-.12-.07-.25-.08-.36-.03-.14-.05-.28-.07-.42-.01-.18-.02-.36-.02-.54,0-.73,.15-1.44,.43-2.1,.07-.17,.15-.34,.25-.49,.07-.14,.15-.26,.23-.38,.06-.09,.12-.17,.19-.26,.05-.07,.11-.14,.17-.21,.09-.12,.2-.23,.32-.34,.05-.03,.08-.08,.12-.11,.04-.04,.09-.08,.12-.11,.06-.07,.13-.12,.2-.17,.2-.15,.39-.28,.6-.4,.08-.06,.18-.11,.28-.16,.04-.02,.09-.04,.13-.06,.11-.05,.21-.1,.33-.14,.04-.02,.08-.04,.13-.04,.1-.05,.21-.08,.32-.11,.05-.03,.09-.04,.15-.04,.12-.03,.23-.07,.36-.08,.14-.03,.28-.06,.42-.07,.18-.01,.35-.02,.54-.02h99.98c3.19,0,5.79,2.48,5.98,5.62,.02,.12,.02,.25,.02,.38v9.51c0,3.32-2.68,6-6,6s-6-2.68-6-6Z"/></g></g></svg>