<?xml version="1.0" encoding="UTF-8"?>
<svg id="Layer_1" data-name="Layer 1" xmlns="http://www.w3.org/2000/svg" viewBox="0 0 2000 95">
  <defs>
    <style>
      .cls-1 {
        fill: none;
      }

      .cls-2 {
        fill: #e5eeeb;
      }

      .cls-3 {
        fill: #cedfd5;
      }

      .cls-4 {
        fill: #458462;
      }

      .cls-5 {
        fill: #709f84;
      }
    </style>
  </defs>
  <rect class="cls-2" width="2000" height="95"/>
  <g>
    <path class="cls-3" d="M1392.23,16.97L1372.67,.43c-.36-.3-.86-.34-1.26-.09l-21.42,13.26c-.39,.24-.59,.72-.48,1.17,.11,.45,.5,.78,.96,.82l3.22,.26-1.72,21.51-3.74-.3c-.59-.05-1.11,.39-1.16,.99s.39,1.11,.99,1.16l3.74,.3,34.02,2.72,3.74,.3c.59,.05,1.11-.39,1.16-.99,.05-.59-.39-1.11-.99-1.16l-3.74-.3,1.72-21.51,3.74,.3c.47,.04,.9-.23,1.08-.66s.06-.93-.3-1.23Zm-29.72,21.23l-8.4-.67,1.72-21.51,8.4,.67-1.72,21.51Zm11.21,.9l-9.06-.72,1.72-21.51,9.06,.72-1.72,21.51Zm10.13,.81l-7.98-.64,1.72-21.51,7.98,.64-1.72,21.51Zm4.03-23.48l-11.2-.9s0,0,0,0,0,0,0,0l-11.2-.9s0,0,0,0c0,0,0,0,0,0l-11.56-.92,17.97-11.13,16.41,13.87-.41-.03Z"/>
    <path class="cls-3" d="M952.59,73.5l-31.78,3.6c-.59,.07-1.01,.6-.95,1.19l1.87,16.53h2.16l-1.78-15.7,29.64-3.36,2.16,19.06h2.16l-2.31-20.37c-.07-.59-.6-1.01-1.19-.95Z"/>
    <rect class="cls-3" x="927.67" y="83.77" width="2.15" height="4.4" transform="translate(-3.78 105.05) rotate(-6.46)"/>
    <rect class="cls-3" x="936.75" y="82.74" width="2.15" height="4.4" transform="translate(-3.6 106.09) rotate(-6.46)"/>
    <rect class="cls-3" x="945.84" y="81.71" width="2.15" height="4.4" transform="translate(-3.43 107.11) rotate(-6.46)"/>
    <polygon class="cls-3" points="928.38 92.35 928.66 94.82 930.83 94.82 930.52 92.11 928.38 92.35"/>
    <polygon class="cls-3" points="937.47 91.32 937.87 94.82 940.03 94.82 939.61 91.08 937.47 91.32"/>
    <rect class="cls-3" x="946.8" y="90.16" width="2.15" height="4.4" transform="translate(-4.37 107.26) rotate(-6.46)"/>
    <path class="cls-3" d="M1155.44,36.91l-6.24-3.31,3.93-7.41c.28-.52,.08-1.18-.45-1.45l-21.05-11.16c-.52-.28-1.18-.08-1.45,.45l-3.93,7.41-6.24-3.31c-.52-.28-1.18-.08-1.45,.45l-13.68,25.8c-.28,.52-.08,1.18,.45,1.45l7.19,3.81,6.07,3.22,8.91,4.72,6.07,3.22,7.19,3.81c.52,.28,1.18,.08,1.45-.45l13.68-25.8c.28-.52,.08-1.18-.45-1.45Zm-48.15,7.52l12.67-23.9,5.29,2.8-12.67,23.9-5.29-2.8Zm13.26,7.03l3.63-6.85,7.01,3.72-3.63,6.85-7.01-3.72Zm8.91,4.72l4.14-7.8c.28-.52,.08-1.18-.45-1.45l-8.91-4.72c-.52-.28-1.18-.08-1.45,.45l-4.14,7.8-4.17-2.21,13.17-24.85,3.93-7.41,19.15,10.15-3.93,7.41-13.17,24.85-4.17-2.21Zm11.36,6.02l-5.29-2.8,12.67-23.9,5.29,2.8-12.67,23.9Z"/>
    <path class="cls-3" d="M1142.94,28.45l-8.91-4.72c-.52-.28-1.18-.08-1.45,.45s-.08,1.18,.45,1.45l8.91,4.72c.52,.28,1.18,.08,1.45-.45,.28-.52,.08-1.18-.45-1.45Z"/>
    <path class="cls-3" d="M1136.3,40.97l-8.91-4.72c-.52-.28-1.18-.08-1.45,.45s-.08,1.18,.45,1.45l8.91,4.72c.52,.28,1.18,.08,1.45-.45,.28-.52,.08-1.18-.45-1.45Z"/>
    <path class="cls-3" d="M1139.62,34.71l-8.91-4.72c-.52-.28-1.18-.08-1.45,.45-.28,.52-.08,1.18,.45,1.45l8.91,4.72c.52,.28,1.18,.08,1.45-.45s.08-1.18-.45-1.45Z"/>
    <path class="cls-3" d="M895.27,.43c-.36-.3-.86-.34-1.26-.09l-21.42,13.26c-.39,.24-.59,.72-.48,1.17,.11,.45,.5,.78,.96,.82l3.22,.26-1.72,21.51-3.74-.3c-.59-.05-1.11,.39-1.16,.99s.39,1.11,.99,1.16l3.74,.3,34.02,2.72,3.74,.3c.59,.05,1.11-.39,1.16-.99s-.39-1.11-.99-1.16l-3.74-.3,1.72-21.51,3.74,.3c.47,.04,.9-.23,1.08-.66s.06-.93-.3-1.23L895.27,.43Zm-10.16,37.77l-8.4-.67,1.72-21.51,8.4,.67-1.72,21.51Zm11.21,.9l-9.06-.72,1.72-21.51,9.06,.72-1.72,21.51Zm10.13,.81l-7.98-.64,1.72-21.51,7.98,.64-1.72,21.51Zm4.03-23.48l-11.2-.9s0,0,0,0,0,0,0,0l-11.2-.9s0,0,0,0c0,0,0,0,0,0l-11.56-.92,17.97-11.13,16.41,13.87-.41-.03Z"/>
    <path class="cls-3" d="M435.39,55.18l-31.78,3.6c-.59,.07-1.01,.6-.95,1.19l1.87,16.53h2.16l-1.78-15.7,29.64-3.36,2.16,19.06h2.16l-2.31-20.37c-.07-.59-.6-1.01-1.19-.95Z"/>
    <rect class="cls-3" x="410.47" y="65.45" width="2.15" height="4.4" transform="translate(-5 46.74) rotate(-6.46)"/>
    <rect class="cls-3" x="419.56" y="64.42" width="2.15" height="4.4" transform="translate(-4.83 47.76) rotate(-6.46)"/>
    <rect class="cls-3" x="428.65" y="63.39" width="2.15" height="4.4" transform="translate(-4.65 48.78) rotate(-6.46)"/>
    <polygon class="cls-3" points="411.19 74.03 411.47 76.5 413.63 76.5 413.32 73.79 411.19 74.03"/>
    <polygon class="cls-3" points="420.27 73 420.67 76.5 422.84 76.5 422.41 72.76 420.27 73"/>
    <rect class="cls-3" x="429.6" y="71.84" width="2.15" height="4.4" transform="translate(-5.6 48.94) rotate(-6.46)"/>
    <path class="cls-3" d="M642.08,36.91l-6.24-3.31,3.93-7.41c.28-.52,.08-1.18-.45-1.45l-21.05-11.16c-.52-.28-1.18-.08-1.45,.45l-3.93,7.41-6.24-3.31c-.52-.28-1.18-.08-1.45,.45l-13.68,25.8c-.28,.52-.08,1.18,.45,1.45l7.19,3.81,6.07,3.22,8.91,4.72,6.07,3.22,7.19,3.81c.52,.28,1.18,.08,1.45-.45l13.68-25.8c.28-.52,.08-1.18-.45-1.45Zm-48.15,7.52l12.67-23.9,5.29,2.8-12.67,23.9-5.29-2.8Zm13.26,7.03l3.63-6.85,7.01,3.72-3.63,6.85-7.01-3.72Zm8.91,4.72l4.14-7.8c.28-.52,.08-1.18-.45-1.45l-8.91-4.72c-.52-.28-1.18-.08-1.45,.45l-4.14,7.8-4.17-2.21,13.17-24.85,3.93-7.41,19.15,10.15-3.93,7.41-13.17,24.85-4.17-2.21Zm11.36,6.02l-5.29-2.8,12.67-23.9,5.29,2.8-12.67,23.9Z"/>
    <path class="cls-3" d="M629.58,28.45l-8.91-4.72c-.52-.28-1.18-.08-1.45,.45s-.08,1.18,.45,1.45l8.91,4.72c.52,.28,1.18,.08,1.45-.45,.28-.52,.08-1.18-.45-1.45Z"/>
    <path class="cls-3" d="M622.95,40.97l-8.91-4.72c-.52-.28-1.18-.08-1.45,.45s-.08,1.18,.45,1.45l8.91,4.72c.52,.28,1.18,.08,1.45-.45s.08-1.18-.45-1.45Z"/>
    <path class="cls-3" d="M626.26,34.71l-8.91-4.72c-.52-.28-1.18-.08-1.45,.45s-.08,1.18,.45,1.45l8.91,4.72c.52,.28,1.18,.08,1.45-.45s.08-1.18-.45-1.45Z"/>
    <path class="cls-3" d="M238.16,.43c-.36-.3-.86-.34-1.26-.09l-21.42,13.26c-.39,.24-.59,.72-.48,1.17,.11,.45,.5,.78,.96,.82l3.22,.26-1.72,21.51-3.74-.3c-.59-.05-1.11,.39-1.16,.99s.39,1.11,.99,1.16l3.74,.3,34.02,2.72,3.74,.3c.59,.05,1.11-.39,1.16-.99s-.39-1.11-.99-1.16l-3.74-.3,1.72-21.51,3.74,.3c.47,.04,.9-.23,1.08-.66s.06-.93-.3-1.23L238.16,.43Zm-10.16,37.77l-8.4-.67,1.72-21.51,8.4,.67-1.72,21.51Zm11.21,.9l-9.06-.72,1.72-21.51,9.06,.72-1.72,21.51Zm10.13,.81l-7.98-.64,1.72-21.51,7.98,.64-1.72,21.51Zm4.03-23.48l-11.2-.9s0,0,0,0,0,0,0,0l-11.2-.9s0,0,0,0c0,0,0,0,0,0l-11.56-.92,17.97-11.13,16.41,13.87-.41-.03Z"/>
  </g>
  <g>
    <path class="cls-1" d="M270.98,69.94c64.18,.91,107.86,3.1,156.78,4.86,83.1-4.9,159.72-12.07,233.27-14.05,51.12-1.37,109.73,2.51,183.54,4.46,148.05-17.08,258.91-49.3,347.91-62.39,6.65-.98,13.15-1.92,19.51-2.82H0V95H2.43s123.94-27.1,268.55-25.06Z"/>
    <path class="cls-1" d="M1562.7,94.94l-1560.27,.06H1562.27c.14-.02,.29-.04,.43-.06Z"/>
    <path class="cls-5" d="M661.03,60.75c-73.55,1.97-150.17,9.14-233.27,14.05,61.31,2.2,130.84,3.7,259.24,1.11,56.85-1.15,109.19-5.12,157.57-10.7-73.81-1.95-132.42-5.83-183.54-4.46Z"/>
    <path class="cls-5" d="M844.57,65.21c90.93,2.41,204.95,1.89,356.53-14.98C1350.53,33.6,1455.43,14.22,1520.03,0h-308.04c-6.37,.9-12.86,1.84-19.51,2.82-89,13.08-199.86,45.31-347.91,62.39Z"/>
    <path class="cls-5" d="M427.76,74.79c-48.92-1.75-92.6-3.95-156.78-4.86C126.37,67.9,2.43,95,2.43,95c0,0,157.77-14.39,294.03-15.47,45.72-.36,89.34-2.26,131.3-4.74Z"/>
    <path class="cls-4" d="M1600,0h-79.97c-64.6,14.22-169.5,33.6-318.93,50.23-151.58,16.87-265.6,17.38-356.53,14.98-48.38,5.58-100.71,9.55-157.57,10.7-128.4,2.6-197.93,1.09-259.24-1.11-41.97,2.48-85.58,4.38-131.3,4.74C160.2,80.61,2.43,95,2.43,95l1560.27-.06c9.88-1.39,19.82-2.79,29.77-4.18,2.51-.35,5.02-.7,7.53-1.05,63.13-8.83,125.89-17.46,174.67-23.86,101.52-13.31,181.91,5.18,225.33,19.54V0h-400Z"/>
    <path class="cls-5" d="M1562.7,94.94c-.14,.02-.29,.04-.43,.06h30.2v-.06h-29.77Z"/>
    <path class="cls-5" d="M1592.47,90.76c-9.95,1.39-19.89,2.79-29.77,4.18h29.77v-4.18Z"/>
    <path class="cls-5" d="M1774.67,65.85c-48.78,6.39-111.54,15.03-174.67,23.86v5.23h-7.53v.06h407.53v-9.61c-43.42-14.36-123.81-32.85-225.33-19.54Z"/>
    <path class="cls-5" d="M1600,94.94v-5.23c-2.51,.35-5.02,.7-7.53,1.05v4.18h7.53Z"/>
  </g>
</svg>