<?xml version="1.0" encoding="UTF-8"?>
<svg id="Layer_1" data-name="Layer 1" xmlns="http://www.w3.org/2000/svg" viewBox="0 0 2000 95">
  <defs>
    <style>
      .cls-1 {
        fill: none;
      }

      .cls-2 {
        fill: #f6e9f5;
      }

      .cls-3 {
        fill: #e8c8e6;
      }

      .cls-4 {
        fill: #bc5bb1;
      }

      .cls-5 {
        fill: #cc7ec3;
      }
    </style>
  </defs>
  <rect class="cls-2" width="2000" height="95"/>
  <g>
    <path class="cls-3" d="M1162.76,36.25c-1.42-1.67-2.89-3.39-3.46-5.43-1.09-3.91,.8-7.33,.83-7.39,.28-.49,.11-1.11-.38-1.38-.49-.28-1.11-.11-1.39,.38-.1,.17-2.35,4.18-1.02,8.95,.69,2.47,2.31,4.37,3.87,6.2,1.38,1.62,2.68,3.14,3.17,4.89,1,3.58-.35,6.66-.36,6.68-.23,.51,0,1.11,.5,1.35,.23,.1,.47,.12,.69,.05,.28-.08,.52-.27,.65-.56,.07-.15,1.67-3.75,.47-8.07-.61-2.17-2.12-3.94-3.58-5.66Z"/>
    <path class="cls-3" d="M1173.77,33.34c-1.81-2.12-3.67-4.31-4.41-6.94-1.41-5.05,1.04-9.46,1.07-9.51,.28-.49,.11-1.11-.38-1.38s-1.11-.11-1.39,.38c-.12,.21-2.91,5.17-1.26,11.06,.85,3.06,2.87,5.42,4.82,7.71,1.75,2.06,3.41,4,4.04,6.25,1.29,4.61-.45,8.56-.47,8.59-.23,.51,0,1.11,.5,1.35,.23,.1,.47,.12,.69,.05,.28-.08,.52-.27,.65-.56,.09-.19,2.07-4.64,.58-9.98-.75-2.68-2.63-4.89-4.45-7.02Z"/>
    <path class="cls-3" d="M1188.58,35.45c-.59-2.1-2.04-3.81-3.45-5.47-1.37-1.6-2.78-3.26-3.33-5.22-1.05-3.77,.78-7.06,.8-7.1,.28-.49,.11-1.11-.38-1.38-.49-.28-1.11-.11-1.39,.37-.09,.16-2.28,4.04-.99,8.65,.67,2.39,2.23,4.22,3.74,5.99,1.33,1.56,2.58,3.02,3.04,4.7,.96,3.44-.33,6.39-.35,6.42-.23,.51,0,1.11,.5,1.35,.23,.1,.47,.12,.69,.05,.28-.08,.52-.27,.65-.56,.07-.15,1.62-3.63,.45-7.8Z"/>
    <path class="cls-3" d="M832.82,19.32l-12.82-3.96,6.15-11.35c.22-.4,.14-.9-.19-1.22-.33-.32-.83-.37-1.23-.14l-24.71,14.87c-.34,.21-.53,.6-.48,.99,.05,.4,.33,.73,.71,.85l13.13,4.05-5.54,11.81c-.19,.41-.09,.9,.25,1.2,.12,.1,.25,.17,.39,.21,.28,.08,.58,.04,.83-.12l23.76-15.36c.33-.21,.51-.6,.45-.99-.05-.39-.33-.72-.71-.83Zm-21.64,13.56l4.53-9.66c.13-.27,.13-.57,0-.84-.12-.27-.35-.47-.63-.56l-12.07-3.72,19.57-11.78-4.97,9.17c-.14,.27-.16,.59-.05,.87,.11,.28,.35,.5,.64,.59l11.92,3.69-18.96,12.26Z"/>
    <path class="cls-3" d="M986.5,68.3c-.73-.48-1.59-.6-2.37-.42-.78,.18-1.49,.68-1.93,1.43-2.16,3.68-5.68,10.82-5.87,18.52h2.06c.11-4.23,1.3-10.25,5.56-17.49,.19-.33,.49-.44,.65-.48s.47-.07,.79,.14c10.64,6.92,13.75,14.47,14.64,17.83h2.1s0,0,0,0c-2.3-9.76-11.15-16.61-15.63-19.53Z"/>
    <path class="cls-3" d="M550.45,36.25c-1.42-1.67-2.89-3.39-3.46-5.43-1.09-3.91,.8-7.33,.83-7.39,.28-.49,.11-1.11-.38-1.38-.49-.28-1.11-.11-1.39,.38-.1,.17-2.35,4.18-1.02,8.95,.69,2.47,2.31,4.37,3.87,6.2,1.38,1.62,2.68,3.14,3.17,4.89,1,3.58-.35,6.66-.36,6.68-.23,.51,0,1.11,.5,1.35,.23,.1,.47,.12,.69,.05,.28-.08,.52-.27,.65-.56,.07-.15,1.67-3.75,.47-8.07-.61-2.17-2.12-3.94-3.58-5.66Z"/>
    <path class="cls-3" d="M561.47,33.34c-1.81-2.12-3.67-4.31-4.41-6.94-1.41-5.05,1.04-9.46,1.07-9.51,.28-.49,.11-1.11-.38-1.38s-1.11-.11-1.39,.38c-.12,.21-2.91,5.17-1.26,11.06,.85,3.06,2.87,5.42,4.82,7.71,1.75,2.06,3.41,4,4.04,6.25,1.29,4.61-.45,8.56-.47,8.59-.23,.51,0,1.11,.5,1.35,.23,.1,.47,.12,.69,.05,.28-.08,.52-.27,.65-.56,.09-.19,2.07-4.64,.58-9.98-.75-2.68-2.63-4.89-4.45-7.02Z"/>
    <path class="cls-3" d="M572.82,29.99c-1.37-1.6-2.78-3.26-3.33-5.22-1.05-3.77,.78-7.06,.8-7.1,.28-.49,.11-1.11-.38-1.38-.49-.28-1.11-.11-1.39,.37-.09,.16-2.28,4.04-.99,8.65,.67,2.39,2.23,4.22,3.74,5.99,1.33,1.56,2.58,3.02,3.04,4.7,.96,3.44-.33,6.39-.35,6.42-.23,.51,0,1.11,.5,1.35,.23,.1,.47,.12,.69,.05,.28-.08,.52-.27,.65-.56,.07-.15,1.62-3.63,.45-7.8-.59-2.1-2.04-3.81-3.45-5.47Z"/>
    <path class="cls-3" d="M220.52,19.32l-12.82-3.96,6.15-11.35c.22-.4,.14-.9-.19-1.22-.33-.32-.83-.37-1.23-.14l-24.71,14.87c-.34,.21-.53,.6-.48,.99,.05,.4,.33,.73,.71,.85l13.13,4.05-5.54,11.81c-.19,.41-.09,.9,.25,1.2,.12,.1,.25,.17,.39,.21,.28,.08,.58,.04,.83-.12l23.76-15.36c.33-.21,.51-.6,.45-.99-.05-.39-.33-.72-.71-.83Zm-21.64,13.56l4.53-9.66c.13-.27,.13-.57,0-.84-.12-.27-.35-.47-.63-.56l-12.07-3.72,19.57-11.78-4.97,9.17c-.14,.27-.16,.59-.05,.87,.11,.28,.35,.5,.64,.59l11.92,3.69-18.96,12.26Z"/>
    <path class="cls-3" d="M374.19,54.89c-.73-.48-1.59-.6-2.37-.42-.78,.18-1.49,.68-1.93,1.43-2.16,3.68-5.68,10.82-5.87,18.52h2.06c.11-4.23,1.3-10.25,5.56-17.49,.19-.33,.49-.44,.65-.48s.47-.07,.79,.14c10.64,6.92,13.75,14.47,14.64,17.83h2.1s0,0,0,0c-2.3-9.76-11.15-16.61-15.63-19.53Z"/>
  </g>
  <g>
    <path class="cls-1" d="M2.43,95H1562.27c.14-.02,.29-.04,.43-.06l-1560.27,.06Z"/>
    <path class="cls-1" d="M270.98,69.94c64.18,.91,107.86,3.1,156.78,4.85,83.1-4.9,159.72-12.07,233.27-14.05,51.12-1.37,109.73,2.51,183.54,4.46,148.05-17.08,258.91-49.3,347.91-62.39,6.65-.98,13.15-1.92,19.51-2.82H0V95H2.43s123.94-27.1,268.55-25.06Z"/>
    <path class="cls-5" d="M687.01,75.9c56.85-1.15,109.19-5.12,157.57-10.7-73.81-1.95-132.42-5.83-183.54-4.46-73.55,1.97-150.17,9.14-233.27,14.05,61.31,2.2,130.84,3.7,259.24,1.11Z"/>
    <path class="cls-5" d="M844.57,65.21c90.93,2.41,204.95,1.89,356.53-14.98C1350.53,33.6,1455.43,14.22,1520.03,0h-308.04c-6.37,.9-12.86,1.84-19.51,2.82-89,13.08-199.86,45.31-347.91,62.39Z"/>
    <path class="cls-5" d="M427.76,74.79c-48.92-1.75-92.6-3.95-156.78-4.85C126.37,67.9,2.43,95,2.43,95c0,0,157.77-14.39,294.03-15.47,45.72-.36,89.34-2.26,131.3-4.74Z"/>
    <path class="cls-4" d="M1600,0h-79.97c-64.6,14.22-169.5,33.6-318.93,50.23-151.58,16.87-265.6,17.38-356.53,14.98-48.38,5.58-100.71,9.55-157.57,10.7-128.4,2.59-197.93,1.09-259.24-1.11-41.97,2.48-85.58,4.38-131.3,4.74C160.2,80.61,2.43,95,2.43,95l1560.27-.06c9.88-1.39,19.82-2.79,29.77-4.18,2.51-.35,5.02-.7,7.53-1.05,63.13-8.83,125.89-17.46,174.67-23.86,101.52-13.31,181.91,5.18,225.33,19.54V0h-400Z"/>
    <path class="cls-5" d="M1562.7,94.94c-.14,.02-.29,.04-.43,.06h30.2v-.06h-29.77Z"/>
    <path class="cls-5" d="M1592.47,90.76c-9.95,1.39-19.89,2.79-29.77,4.18h29.77v-4.18Z"/>
    <path class="cls-5" d="M1774.67,65.85c-48.78,6.39-111.54,15.03-174.67,23.86v5.23h-7.53v.06h407.53v-9.61c-43.42-14.36-123.81-32.85-225.33-19.54Z"/>
    <path class="cls-5" d="M1600,94.94v-5.23c-2.51,.35-5.02,.7-7.53,1.05v4.18h7.53Z"/>
  </g>
</svg>