<?xml version="1.0" encoding="UTF-8"?>
<svg id="Layer_1" data-name="Layer 1" xmlns="http://www.w3.org/2000/svg" viewBox="0 0 2000 95">
  <defs>
    <style>
      .cls-1 {
        fill: none;
      }

      .cls-2 {
        fill: #ffecec;
      }

      .cls-3 {
        fill: #ffcfcd;
      }

      .cls-4 {
        fill: #ff6c6a;
      }

      .cls-5 {
        fill: #ff8e8b;
      }
    </style>
  </defs>
  <rect class="cls-2" width="2000" height="95"/>
  <g>
    <path class="cls-3" d="M842.3,23.34c0-4,2.7-6.75,2.74-6.79,.39-.39,.4-1.02,0-1.41-.39-.39-1.02-.4-1.41-.01-.14,.13-3.34,3.34-3.34,8.22,0,2.53,1.03,4.76,2.03,6.91,.88,1.9,1.71,3.69,1.71,5.47,0,3.66-2.09,6.22-2.11,6.25-.36,.42-.3,1.05,.12,1.41,.19,.16,.42,.23,.64,.23,.28,0,.57-.12,.77-.36,.11-.12,2.58-3.12,2.58-7.53,0-2.22-.96-4.3-1.89-6.31-.91-1.96-1.84-3.98-1.84-6.07Z"/>
    <path class="cls-3" d="M853.01,21.82c0-5.16,3.49-8.7,3.53-8.73,.39-.39,.4-1.02,0-1.41s-1.02-.4-1.41-.01c-.17,.17-4.13,4.13-4.13,10.16,0,3.13,1.29,5.9,2.53,8.59,1.12,2.42,2.18,4.7,2.18,7,0,4.71-2.69,8-2.72,8.03-.36,.42-.3,1.05,.12,1.41,.19,.16,.42,.23,.64,.23,.28,0,.57-.12,.77-.36,.13-.15,3.19-3.85,3.19-9.31,0-2.74-1.2-5.33-2.36-7.84-1.15-2.49-2.34-5.06-2.34-7.75Z"/>
    <path class="cls-3" d="M865.24,23.55c0-3.85,2.61-6.5,2.64-6.52,.39-.39,.4-1.02,0-1.41-.39-.39-1.02-.4-1.41-.01-.13,.13-3.23,3.23-3.23,7.94,0,2.45,1,4.6,1.96,6.67,.85,1.83,1.64,3.55,1.64,5.26,0,3.51-2.01,5.97-2.03,6-.36,.42-.3,1.05,.12,1.41,.19,.16,.42,.23,.64,.23,.28,0,.57-.12,.77-.36,.1-.12,2.5-3.02,2.5-7.28,0-2.15-.93-4.16-1.83-6.1-.87-1.88-1.77-3.83-1.77-5.83Z"/>
    <path class="cls-3" d="M1211.72,17.41c0-4,2.7-6.75,2.74-6.79,.39-.39,.4-1.02,0-1.41-.39-.39-1.02-.4-1.41-.01-.14,.13-3.34,3.34-3.34,8.22,0,2.53,1.03,4.76,2.03,6.91,.88,1.9,1.71,3.69,1.71,5.47,0,3.66-2.09,6.22-2.11,6.25-.36,.42-.3,1.05,.12,1.41,.19,.16,.42,.23,.64,.23,.28,0,.57-.12,.77-.36,.11-.12,2.58-3.12,2.58-7.53,0-2.22-.96-4.3-1.89-6.31-.91-1.96-1.84-3.98-1.84-6.07Z"/>
    <path class="cls-3" d="M1222.43,15.89c0-5.16,3.49-8.7,3.53-8.73,.39-.39,.4-1.02,0-1.41s-1.02-.4-1.41-.01c-.17,.17-4.13,4.13-4.13,10.16,0,3.13,1.29,5.9,2.53,8.59,1.12,2.42,2.18,4.7,2.18,7,0,4.71-2.69,8-2.72,8.03-.36,.42-.3,1.05,.12,1.41,.19,.16,.42,.23,.64,.23,.28,0,.57-.12,.77-.36,.13-.15,3.19-3.85,3.19-9.31,0-2.74-1.2-5.33-2.36-7.84-1.15-2.49-2.34-5.06-2.34-7.75Z"/>
    <path class="cls-3" d="M1236.44,23.46c-.87-1.88-1.77-3.83-1.77-5.83,0-3.85,2.61-6.5,2.64-6.52,.39-.39,.4-1.02,0-1.41-.39-.39-1.02-.4-1.41-.01-.13,.13-3.23,3.23-3.23,7.94,0,2.45,1,4.6,1.96,6.67,.85,1.83,1.64,3.55,1.64,5.26,0,3.51-2.01,5.97-2.03,6-.36,.42-.3,1.05,.12,1.41,.19,.16,.42,.23,.64,.23,.28,0,.57-.12,.77-.36,.1-.12,2.5-3.02,2.5-7.28,0-2.15-.93-4.16-1.83-6.1Z"/>
    <path class="cls-3" d="M405.56,59.04c0-4,2.7-6.75,2.74-6.79,.39-.39,.4-1.02,0-1.41-.39-.39-1.02-.4-1.41-.01-.14,.13-3.34,3.34-3.34,8.22,0,2.53,1.03,4.76,2.03,6.91,.88,1.9,1.71,3.69,1.71,5.47,0,3.66-2.09,6.22-2.11,6.25-.36,.42-.3,1.05,.12,1.41,.19,.16,.42,.23,.64,.23,.28,0,.57-.12,.77-.36,.11-.12,2.58-3.12,2.58-7.53,0-2.22-.96-4.3-1.89-6.31-.91-1.96-1.84-3.98-1.84-6.07Z"/>
    <path class="cls-3" d="M416.27,57.52c0-5.16,3.49-8.7,3.53-8.73,.39-.39,.4-1.02,0-1.41s-1.02-.4-1.41-.01c-.17,.17-4.13,4.13-4.13,10.16,0,3.13,1.29,5.9,2.53,8.59,1.12,2.42,2.18,4.7,2.18,7,0,4.71-2.69,8-2.72,8.03-.36,.42-.3,1.05,.12,1.41,.19,.16,.42,.23,.64,.23,.28,0,.57-.12,.77-.36,.13-.15,3.19-3.85,3.19-9.31,0-2.74-1.2-5.33-2.36-7.84-1.15-2.49-2.34-5.06-2.34-7.75Z"/>
    <path class="cls-3" d="M428.51,59.26c0-3.85,2.61-6.5,2.64-6.52,.39-.39,.4-1.02,0-1.41-.39-.39-1.02-.4-1.41-.01-.13,.13-3.23,3.23-3.23,7.94,0,2.45,1,4.6,1.96,6.67,.85,1.83,1.64,3.55,1.64,5.26,0,3.51-2.01,5.97-2.03,6-.36,.42-.3,1.05,.12,1.41,.19,.16,.42,.23,.64,.23,.28,0,.57-.12,.77-.36,.1-.12,2.5-3.02,2.5-7.28,0-2.15-.93-4.16-1.83-6.1-.87-1.88-1.77-3.83-1.77-5.83Z"/>
    <path class="cls-3" d="M597.36,19.28c0-4,2.7-6.75,2.74-6.79,.39-.39,.4-1.02,0-1.41-.39-.39-1.02-.4-1.41-.01-.14,.13-3.34,3.34-3.34,8.22,0,2.53,1.03,4.76,2.03,6.91,.88,1.9,1.71,3.69,1.71,5.47,0,3.66-2.09,6.22-2.11,6.25-.36,.42-.3,1.05,.12,1.41,.19,.16,.42,.23,.64,.23,.28,0,.57-.12,.77-.36,.11-.12,2.58-3.12,2.58-7.53,0-2.22-.96-4.3-1.89-6.31-.91-1.96-1.84-3.98-1.84-6.07Z"/>
    <path class="cls-3" d="M608.07,17.76c0-5.16,3.49-8.7,3.53-8.73,.39-.39,.4-1.02,0-1.41s-1.02-.4-1.41-.01c-.17,.17-4.13,4.13-4.13,10.16,0,3.13,1.29,5.9,2.53,8.59,1.12,2.42,2.18,4.7,2.18,7,0,4.71-2.69,8-2.72,8.03-.36,.42-.3,1.05,.12,1.41,.19,.16,.42,.23,.64,.23,.28,0,.57-.12,.77-.36,.13-.15,3.19-3.85,3.19-9.31,0-2.74-1.2-5.33-2.36-7.84-1.15-2.49-2.34-5.06-2.34-7.75Z"/>
    <path class="cls-3" d="M622.08,25.33c-.87-1.88-1.77-3.83-1.77-5.83,0-3.85,2.61-6.5,2.64-6.52,.39-.39,.4-1.02,0-1.41-.39-.39-1.02-.4-1.41-.01-.13,.13-3.23,3.23-3.23,7.94,0,2.45,1,4.6,1.96,6.67,.85,1.83,1.64,3.55,1.64,5.26,0,3.51-2.01,5.97-2.03,6-.36,.42-.3,1.05,.12,1.41,.19,.16,.42,.23,.64,.23,.28,0,.57-.12,.77-.36,.1-.12,2.5-3.02,2.5-7.28,0-2.15-.93-4.16-1.83-6.1Z"/>
    <path class="cls-3" d="M194.7,17.41c0-4,2.7-6.75,2.74-6.79,.39-.39,.4-1.02,0-1.41-.39-.39-1.02-.4-1.41-.01-.14,.13-3.34,3.34-3.34,8.22,0,2.53,1.03,4.76,2.03,6.91,.88,1.9,1.71,3.69,1.71,5.47,0,3.66-2.09,6.22-2.11,6.25-.36,.42-.3,1.05,.12,1.41,.19,.16,.42,.23,.64,.23,.28,0,.57-.12,.77-.36,.11-.12,2.58-3.12,2.58-7.53,0-2.22-.96-4.3-1.89-6.31-.91-1.96-1.84-3.98-1.84-6.07Z"/>
    <path class="cls-3" d="M205.42,15.89c0-5.16,3.49-8.7,3.53-8.73,.39-.39,.4-1.02,0-1.41s-1.02-.4-1.41-.01c-.17,.17-4.13,4.13-4.13,10.16,0,3.13,1.29,5.9,2.53,8.59,1.12,2.42,2.18,4.7,2.18,7,0,4.71-2.69,8-2.72,8.03-.36,.42-.3,1.05,.12,1.41,.19,.16,.42,.23,.64,.23,.28,0,.57-.12,.77-.36,.13-.15,3.19-3.85,3.19-9.31,0-2.74-1.2-5.33-2.36-7.84-1.15-2.49-2.34-5.06-2.34-7.75Z"/>
    <path class="cls-3" d="M219.42,23.46c-.87-1.88-1.77-3.83-1.77-5.83,0-3.85,2.61-6.5,2.64-6.52,.39-.39,.4-1.02,0-1.41-.39-.39-1.02-.4-1.41-.01-.13,.13-3.23,3.23-3.23,7.94,0,2.45,1,4.6,1.96,6.67,.85,1.83,1.64,3.55,1.64,5.26,0,3.51-2.01,5.97-2.03,6-.36,.42-.3,1.05,.12,1.41,.19,.16,.42,.23,.64,.23,.28,0,.57-.12,.77-.36,.1-.12,2.5-3.02,2.5-7.28,0-2.15-.93-4.16-1.83-6.1Z"/>
  </g>
  <g>
    <path class="cls-1" d="M270.98,69.94c64.18,.91,107.86,3.1,156.78,4.85,83.1-4.9,159.72-12.07,233.27-14.05,51.12-1.37,109.73,2.51,183.54,4.46,148.05-17.08,258.91-49.3,347.91-62.39,6.65-.98,13.15-1.92,19.51-2.82H0V95H2.43s123.94-27.1,268.55-25.06Z"/>
    <path class="cls-1" d="M2.43,95H1562.27c.14-.02,.29-.04,.43-.06l-1560.27,.06Z"/>
    <path class="cls-5" d="M687.01,75.9c56.85-1.15,109.19-5.12,157.57-10.7-73.81-1.95-132.42-5.83-183.54-4.46-73.55,1.97-150.17,9.14-233.27,14.05,61.31,2.2,130.84,3.7,259.24,1.11Z"/>
    <path class="cls-5" d="M844.57,65.21c90.93,2.41,204.95,1.89,356.53-14.98C1350.53,33.6,1455.43,14.22,1520.03,0h-308.04c-6.37,.9-12.86,1.84-19.51,2.82-89,13.08-199.86,45.31-347.91,62.39Z"/>
    <path class="cls-5" d="M427.76,74.79c-48.92-1.75-92.6-3.95-156.78-4.85C126.37,67.9,2.43,95,2.43,95c0,0,157.77-14.39,294.03-15.47,45.72-.36,89.34-2.26,131.3-4.74Z"/>
    <path class="cls-4" d="M1600,0h-79.97c-64.6,14.22-169.5,33.6-318.93,50.23-151.58,16.87-265.6,17.38-356.53,14.98-48.38,5.58-100.71,9.55-157.57,10.7-128.4,2.59-197.93,1.09-259.24-1.11-41.97,2.48-85.58,4.38-131.3,4.74C160.2,80.61,2.43,95,2.43,95l1560.27-.06c9.88-1.39,19.82-2.79,29.77-4.18,2.51-.35,5.02-.7,7.53-1.05,63.13-8.83,125.89-17.46,174.67-23.86,101.52-13.31,181.91,5.18,225.33,19.54V0h-400Z"/>
    <path class="cls-5" d="M1562.7,94.94c-.14,.02-.29,.04-.43,.06h30.2v-.06h-29.77Z"/>
    <path class="cls-5" d="M1592.47,90.76c-9.95,1.39-19.89,2.79-29.77,4.18h29.77v-4.18Z"/>
    <path class="cls-5" d="M1774.67,65.85c-48.78,6.39-111.54,15.03-174.67,23.86v5.23h-7.53v.06h407.53v-9.61c-43.42-14.36-123.81-32.85-225.33-19.54Z"/>
    <path class="cls-5" d="M1600,94.94v-5.23c-2.51,.35-5.02,.7-7.53,1.05v4.18h7.53Z"/>
  </g>
</svg>