<?xml version="1.0" encoding="UTF-8"?>
<svg width="512px" height="512px" viewBox="0 0 512 512" version="1.1" xmlns="http://www.w3.org/2000/svg" xmlns:xlink="http://www.w3.org/1999/xlink">
    <!-- Generator: Sketch 52.6 (67491) - http://www.bohemiancoding.com/sketch -->
    <title>assetspace-black</title>
    <desc>Created with Sketch.</desc>
    <g id="Page-1" stroke="none" stroke-width="1" fill="none" fill-rule="evenodd">
        <g id="assetspace-black" fill="#000000">
            <path d="M488.727,0 L411.151,0 C398.298,0 387.878,10.42 387.878,23.273 C387.878,36.126 398.298,46.546 411.151,46.546 L465.454,46.546 L465.454,232.728 L395.636,232.728 C382.783,232.728 372.363,243.148 372.363,256.001 C372.363,268.854 382.783,279.274 395.636,279.274 L465.454,279.274 L465.454,465.456 L237.41,465.456 L237.41,395.638 C237.41,382.785 226.99,372.365 214.137,372.365 C201.284,372.365 190.864,382.785 190.864,395.638 L190.864,465.456 L46.545,465.456 L46.545,279.273 L190.864,279.273 L190.864,302.546 C190.864,315.399 201.284,325.819 214.137,325.819 C226.99,325.819 237.41,315.399 237.41,302.546 L237.41,279.273 L287.031,279.273 C299.884,279.273 310.304,268.853 310.304,256 C310.304,243.147 299.884,232.727 287.031,232.727 L237.41,232.727 L237.41,209.454 C237.41,196.601 226.99,186.181 214.137,186.181 C201.284,186.181 190.864,196.601 190.864,209.454 L190.864,232.727 L46.545,232.727 L46.545,46.545 L190.864,46.545 L190.864,116.363 C190.864,129.216 201.284,139.636 214.137,139.636 C226.99,139.636 237.41,129.216 237.41,116.363 L237.41,46.545 L302.546,46.545 C315.399,46.545 325.819,36.125 325.819,23.272 C325.818,10.42 315.398,0 302.545,0 L23.273,0 C10.42,0 0,10.42 0,23.273 L0,488.728 C0,501.58 10.42,512 23.273,512 L488.728,512 C501.58,512 512,501.58 512,488.727 L512,23.273 C512,10.42 501.58,0 488.727,0 Z" id="Path"></path>
        </g>
    </g>
</svg>