<?xml version="1.0" encoding="UTF-8"?>
<svg width="10px" height="51px" viewBox="0 0 10 51" version="1.1" xmlns="http://www.w3.org/2000/svg" xmlns:xlink="http://www.w3.org/1999/xlink">
    <!-- Generator: Sketch 48.2 (47327) - http://www.bohemiancoding.com/sketch -->
    <title>(</title>
    <desc>Created with Sketch.</desc>
    <defs></defs>
    <g id="Artboard" stroke="none" stroke-width="1" fill="none" fill-rule="evenodd">
        <path d="M6.74556213,51 C4.49703018,47.5524303 2.81065651,43.6095793 1.68639053,39.1713287 C0.562124556,34.733078 0,30.1760141 0,25.5 C0,20.8239859 0.562124556,16.266922 1.68639053,11.8286713 C2.81065651,7.3904207 4.49703018,3.44756969 6.74556213,0 L10,0 C7.75146805,4.08160549 6.16371272,8.21268306 5.23668639,12.3933566 C4.30966006,16.5740302 3.84615385,20.9428677 3.84615385,25.5 C3.84615385,30.0571323 4.30966006,34.4259698 5.23668639,38.6066434 C6.16371272,42.7873169 7.75146805,46.9183945 10,51 L6.74556213,51 Z" id="(" fill="#39b2c2" transform="translate(5.000000, 25.500000) scale(-1, 1) translate(-5.000000, -25.500000) "></path>
    </g>
</svg>
