<?xml version="1.0" encoding="UTF-8"?>
<svg width="65px" height="36px" viewBox="0 0 65 36" version="1.1" xmlns="http://www.w3.org/2000/svg" xmlns:xlink="http://www.w3.org/1999/xlink">
    <!-- Generator: Sketch 48.2 (47327) - http://www.bohemiancoding.com/sketch -->
    <title>notification_icon</title>
    <desc>Created with Sketch.</desc>
    <defs></defs>
    <g id="notification_icon" stroke="none" stroke-width="1" fill="none" fill-rule="evenodd" transform="translate(-23.000000, -43.000000)">
        <g transform="translate(12.000000, 12.000000)">
            <g id="Group-7-Copy">
                <g id="Group-8" transform="translate(24.543478, 26.543478)">
                    <g id="Group-6" transform="translate(0.531304, 0.531304)">
                        <path d="M20.8434783,39.8286957 C32.0390105,39.8286957 41.1147826,39.243162 41.1147826,38.5208696 C41.1147826,37.7985772 32.0390105,37.2130435 20.8434783,37.2130435 C9.64794601,37.2130435 0.572173913,37.7985772 0.572173913,38.5208696 C0.572173913,39.243162 9.64794601,39.8286957 20.8434783,39.8286957 Z" id="Oval-6" fill="#F6F7FB" opacity="0.699999988"></path>
                        <g id="Group-5" transform="translate(0.000000, -0.000000)" fill="#DBD5F4" fill-rule="nonzero">
                            <g id="Group-4" transform="translate(26.156522, 4.000000)">
                                <circle id="Oval" cx="4.25043478" cy="4.48173913" r="1"></circle>
                                <path d="M15.1165217,13.0782609 C15.4775798,13.0782609 15.7704348,12.7855367 15.7704348,12.4243478 C15.7704348,12.063159 15.4775798,11.7704348 15.1165217,11.7704348 C14.755529,11.7704348 14.4626087,12.063159 14.4626087,12.4243478 C14.4626087,12.7855367 14.755529,13.0782609 15.1165217,13.0782609 Z" id="Shape"></path>
                                <circle id="Oval" cx="0.653913043" cy="0.653913043" r="1"></circle>
                            </g>
                        </g>
                    </g>
                    <path d="M32.1847826,5.13043478 C31.9030895,5.13043478 31.673913,5.3596182 31.673913,5.64130435 C31.673913,5.92299049 31.9030895,6.15217391 32.1847826,6.15217391 C32.4664688,6.15217391 32.6956522,5.92299049 32.6956522,5.64130435 C32.6956522,5.3596182 32.4664688,5.13043478 32.1847826,5.13043478 Z M32.1847826,6.02445478 C31.9735005,6.02445478 31.8016322,5.85258642 31.8016322,5.64130435 C31.8016322,5.43002228 31.9735005,5.25815392 32.1847826,5.25815392 C32.3960647,5.25815392 32.567933,5.43002228 32.567933,5.64130435 C32.567933,5.85258642 32.3960647,6.02445478 32.1847826,6.02445478 Z" id="Shape" fill="#CDD2EA" fill-rule="nonzero"></path>
                    <path d="M4.59782609,23.5217391 C4.31613296,23.5217391 4.08695652,23.7509226 4.08695652,24.0326087 C4.08695652,24.3142948 4.31613296,24.5434783 4.59782609,24.5434783 C4.87951223,24.5434783 5.10869565,24.3142948 5.10869565,24.0326087 C5.10869565,23.7509226 4.87951223,23.5217391 4.59782609,23.5217391 Z M4.59782609,24.4157591 C4.38654402,24.4157591 4.21467566,24.2438908 4.21467566,24.0326087 C4.21467566,23.8213266 4.38654402,23.6494583 4.59782609,23.6494583 C4.80910816,23.6494583 4.98097651,23.8213266 4.98097651,24.0326087 C4.98097651,24.2438908 4.80910816,24.4157591 4.59782609,24.4157591 Z" id="Shape-Copy" fill="#CDE7EA" fill-rule="nonzero"></path>
                </g>
            </g>
            <g id="bell-(1)" transform="translate(32.717391, 29.608696)" fill="#CDD2EA" fill-rule="nonzero">
                <path d="M24.5791818,27.2169471 C23.6552111,27.2169471 22.9035626,26.4652369 22.9035626,25.5413279 L22.9035626,19.4866493 C22.9035626,15.2745406 20.0588565,11.714552 16.1899104,10.6262238 C16.7021847,10.0427608 17.0137972,9.27901087 17.0137972,8.44339311 C17.0137972,6.6166292 15.5276028,5.13043478 13.7008389,5.13043478 C11.8740749,5.13043478 10.3878188,6.6166292 10.3878188,8.44345485 C10.3878188,9.27907262 10.6994312,10.0428226 11.2117056,10.6262855 C7.34269775,11.714552 4.49805336,15.2745406 4.49805336,19.486711 L4.49805336,25.5413896 C4.49805336,26.4653604 3.74640487,27.2170089 2.82243414,27.2170089 C1.51368656,27.2170089 0.448882066,28.2818133 0.448882066,29.5905609 L0.448882066,29.9234127 C0.448882066,31.2321602 1.51362481,32.2969647 2.82243414,32.2969647 L10.0197123,32.2969647 L10.0197123,33.0613321 C10.0197123,35.0911041 11.6710669,36.7424587 13.7008389,36.7424587 C15.7306108,36.7424587 17.3819654,35.0911041 17.3819654,33.0613321 L17.3819654,32.296903 L24.5792436,32.296903 C25.8880529,32.296903 26.9527957,31.2320985 26.9527957,29.9233509 L26.9527957,29.5904992 C26.9527957,28.2817516 25.8879912,27.2169471 24.5791818,27.2169471 Z M13.7008389,6.60279896 C14.715694,6.60279896 15.5413713,7.42847625 15.5413713,8.44333137 C15.5413713,9.45818649 14.715694,10.2838638 13.7008389,10.2838638 C12.6859837,10.2838638 11.8603065,9.45818649 11.8603065,8.44333137 C11.8603065,7.42847625 12.685922,6.60279896 13.7008389,6.60279896 Z M15.9094777,33.0612086 C15.9094777,34.2790718 14.9187021,35.2698475 13.7008389,35.2698475 C12.4829757,35.2698475 11.4922,34.2790718 11.4922,33.0612086 L11.4922,32.2968412 L15.9095395,32.2968412 L15.9095395,33.0612086 L15.9094777,33.0612086 Z M25.480308,29.9232892 C25.480308,30.4201897 25.0760824,30.8244153 24.5791818,30.8244153 L2.82243414,30.8244153 C2.32553361,30.8244153 1.92130799,30.420128 1.92130799,29.9232892 L1.92130799,29.5904374 C1.92130799,29.0935369 2.32559535,28.6893113 2.82243414,28.6893113 C4.55831366,28.6893113 5.97054102,27.2770839 5.97054102,25.5412044 L5.97054102,19.4865875 C5.97054102,15.2240972 9.43834857,11.7562897 13.7008389,11.7562897 C17.9633292,11.7562897 21.4311367,15.2240972 21.4311367,19.4865875 L21.4311367,25.5412662 C21.4311367,25.6879037 21.4420033,25.8320098 21.4615138,25.9733992 L17.6104112,25.9733992 C17.2037777,25.9733992 16.8741983,26.3029786 16.8741983,26.7096122 C16.8741983,27.1162457 17.2037777,27.4458251 17.6104112,27.4458251 L22.07486,27.4458251 C22.65042,28.2008077 23.5586464,28.6893113 24.5791818,28.6893113 C25.0760824,28.6893113 25.480308,29.0935987 25.480308,29.5904374 L25.480308,29.9232892 Z" id="Shape"></path>
                <g id="Group-9" transform="translate(9.228261, 3.510870) rotate(90.000000) translate(-9.228261, -3.510870) translate(6.228261, 1.010870)">
                    <path d="M4.89032728,2.41552485 C4.74902625,2.41552485 4.63447076,2.53008035 4.63447076,2.67138138 L4.63447076,4.48751924 C4.63447076,4.62882027 4.74902625,4.74337576 4.89032728,4.74337576 C5.03166243,4.74337576 5.14618381,4.62882027 5.14618381,4.48751924 L5.14618381,2.67138138 C5.14618381,2.53008035 5.03166243,2.41552485 4.89032728,2.41552485 Z" id="Shape"></path>
                    <path d="M3.31380759,0.863328589 C3.31380759,0.722027558 3.19928621,0.607472062 3.05795107,0.607472062 L1.2401075,0.607472062 C1.09877235,0.607472062 0.984250972,0.722027558 0.984250972,0.863328589 C0.984250972,1.00462962 1.09877235,1.11918512 1.2401075,1.11918512 L3.05795107,1.11918512 C3.19928621,1.11918512 3.31380759,1.00462962 3.31380759,0.863328589 Z" id="Shape"></path>
                    <path d="M3.40138728,1.97878203 L2.11671461,3.26382996 C2.0167941,3.36378458 2.01682822,3.52575882 2.11674872,3.62567932 C2.16672603,3.67562251 2.23219118,3.70059411 2.29765634,3.70059411 C2.36315561,3.70059411 2.42862077,3.67562251 2.47859808,3.6256452 L3.76327076,2.34059727 C3.86319126,2.24064265 3.86315714,2.07866841 3.76320253,1.97874791 C3.66324791,1.87882741 3.50123956,1.87882741 3.40138728,1.97878203 Z" id="Shape"></path>
                </g>
                <path d="M14.334281,25.9735366 L14.2606839,25.9735366 C13.8540477,25.9735366 13.5244661,26.3031182 13.5244661,26.7097544 C13.5244661,27.1163907 13.8540477,27.4459722 14.2606839,27.4459722 L14.334281,27.4459722 C14.7409172,27.4459722 15.0704988,27.1163907 15.0704988,26.7097544 C15.0704988,26.3031182 14.7409172,25.9735366 14.334281,25.9735366 Z" id="Shape"></path>
                <path d="M27.391991,16.3255414 C27.1504387,14.1556415 26.1814503,12.0879051 24.6634793,10.5033517 C24.4851823,10.3172261 24.1897299,10.3108066 24.0035651,10.4891819 C23.8174395,10.6674789 23.81102,10.9629313 23.9893953,11.1490961 C25.3662944,12.5864713 26.2452145,14.4615451 26.4642203,16.4288402 C26.4907594,16.6674959 26.6928163,16.8440314 26.9275185,16.8440314 C26.9447415,16.8440314 26.9621993,16.8430529 26.9797355,16.8410957 C27.2359665,16.8125212 27.4205264,16.5817724 27.391991,16.3255414 Z" id="Shape"></path>
                <path d="M24.6443849,16.8873643 C24.6682959,17.1023869 24.8503439,17.2614055 25.0618045,17.2614055 C25.0773219,17.2614055 25.093051,17.2605239 25.1088506,17.2587605 C25.3396727,17.2330509 25.5059564,17.025117 25.4802468,16.7942948 C25.3032772,15.2043199 24.5925425,13.6885466 23.479024,12.5261129 C23.3183831,12.3584185 23.0521882,12.3526348 22.8844586,12.5133462 C22.7167643,12.6739872 22.7109805,12.9401821 22.8716919,13.1079117 C23.8581436,14.1377417 24.4876939,15.4800016 24.6443849,16.8873643 Z" id="Shape"></path>
                <path d="M3.40056764,10.4891203 C3.21444249,10.3107846 2.91899082,10.3171258 2.74065512,10.5032901 C1.22268801,12.0879178 0.253741187,14.1556097 0.0121503406,16.3255042 C-0.0163849359,16.5816954 0.1681745,16.8125219 0.4243657,16.841018 C0.441901782,16.8429752 0.459320435,16.8439538 0.476582516,16.8439538 C0.711205901,16.8439538 0.913301419,16.6674186 0.939879544,16.4287635 C1.15888486,14.4614735 2.03780269,12.5864044 3.41469828,11.1490328 C3.59311226,10.9629076 3.58673194,10.667456 3.40056764,10.4891203 Z" id="Shape"></path>
                <path d="M2.28844927,17.2588876 C2.30424903,17.260651 2.31994299,17.2615326 2.33549589,17.2615326 C2.54688825,17.2615326 2.72897347,17.102477 2.75291999,16.8874521 C2.90961273,15.4800035 3.53913455,14.1377995 4.52563227,13.1079583 C4.68631022,12.9402621 4.68059691,12.6740643 4.5128655,12.5133511 C4.34516935,12.3526732 4.07897155,12.3583865 3.9182936,12.5261531 C2.80476296,13.6885996 2.09402049,15.2043894 1.9170843,16.7943816 C1.89133915,17.0252415 2.05765987,17.2331777 2.28844927,17.2588876 Z" id="Shape"></path>
            </g>
            <g id="Group-21" transform="translate(11.000000, 43.000000)" fill="#EDEFFA">
                <g id="Group-19-Copy">
                    <rect id="Rectangle" x="0" y="0" width="20.4848485" height="2.5" rx="1.25"></rect>
                    <rect id="Rectangle-Copy-3" x="7.87878788" y="5.5" width="18.1212121" height="2.5" rx="1.25"></rect>
                    <path d="M18.9090909,5.5 L11.030303,5.5 C12.0808081,5 12.6060606,4.5 12.6060606,4 C12.6060606,3.5 12.0808081,3 11.030303,2.5 L18.9090909,2.5 C17.8585859,3 17.3333333,3.5 17.3333333,4 C17.3333333,4.5 17.8585859,5 18.9090909,5.5 Z" id="Path-2-Copy"></path>
                </g>
                <g id="Group-19-Copy-3" transform="translate(44.000000, 10.000000)">
                    <rect id="Rectangle" x="0" y="0" width="16.5454545" height="2.5" rx="1.25"></rect>
                    <rect id="Rectangle-Copy-3" x="6.36363636" y="5.5" width="14.6363636" height="2.5" rx="1.25"></rect>
                    <path d="M15.2727273,5.5 L8.90909091,5.5 C9.75757576,5 10.1818182,4.5 10.1818182,4 C10.1818182,3.5 9.75757576,3 8.90909091,2.5 L15.2727273,2.5 C14.4242424,3 14,3.5 14,4 C14,4.5 14.4242424,5 15.2727273,5.5 Z" id="Path-2-Copy"></path>
                </g>
            </g>
        </g>
    </g>
</svg>