<?xml version="1.0" encoding="iso-8859-1"?>
<!-- Generator: Adobe Illustrator 19.0.0, SVG Export Plug-In . SVG Version: 6.00 Build 0)  -->
<svg version="1.1" id="Layer_1" xmlns="http://www.w3.org/2000/svg" xmlns:xlink="http://www.w3.org/1999/xlink" x="0px" y="0px"
	 viewBox="0 0 512 512" style="enable-background:new 0 0 512 512;" xml:space="preserve">
<g>
	<g>
		<path d="M488.727,0h-77.576c-12.853,0-23.273,10.42-23.273,23.273c0,12.853,10.42,23.273,23.273,23.273h54.303v186.182h-69.818
			c-12.853,0-23.273,10.42-23.273,23.273c0,12.853,10.42,23.273,23.273,23.273h69.818v186.182H237.41v-69.818
			c0-12.853-10.42-23.273-23.273-23.273c-12.853,0-23.273,10.42-23.273,23.273v69.818H46.545V279.273h144.319v23.273
			c0,12.853,10.42,23.273,23.273,23.273s23.273-10.42,23.273-23.273v-23.273h49.621c12.853,0,23.273-10.42,23.273-23.273
			c0-12.853-10.42-23.273-23.273-23.273H237.41v-23.273c0-12.853-10.42-23.273-23.273-23.273c-12.853,0-23.273,10.42-23.273,23.273
			v23.273H46.545V46.545h144.319v69.818c0,12.853,10.42,23.273,23.273,23.273s23.273-10.42,23.273-23.273V46.545h65.136
			c12.853,0,23.273-10.42,23.273-23.273C325.818,10.42,315.398,0,302.545,0H23.273C10.42,0,0,10.42,0,23.273v465.455
			C0,501.58,10.42,512,23.273,512h465.455C501.58,512,512,501.58,512,488.727V23.273C512,10.42,501.58,0,488.727,0z" fill="rgb(102, 189, 200)"/>
	</g>
</g>
<g>
</g>
<g>
</g>
<g>
</g>
<g>
</g>
<g>
</g>
<g>
</g>
<g>
</g>
<g>
</g>
<g>
</g>
<g>
</g>
<g>
</g>
<g>
</g>
<g>
</g>
<g>
</g>
<g>
</g>
</svg>
