<?xml version="1.0" encoding="UTF-8"?>
<svg width="60px" height="60px" viewBox="0 0 60 60" version="1.1" xmlns="http://www.w3.org/2000/svg" xmlns:xlink="http://www.w3.org/1999/xlink">
    <!-- Generator: Sketch 46.2 (44496) - http://www.bohemiancoding.com/sketch -->
    <title>Artboard</title>
    <desc>Created with Sketch.</desc>
    <defs></defs>
    <g id="Page-1" stroke="none" stroke-width="1" fill="none" fill-rule="evenodd">
        <g id="Artboard">
            <g id="Group" transform="translate(5.000000, 6.000000)">
                <g id="clipboard" transform="translate(15.000000, 11.000000)" fill-rule="nonzero" fill="#CDE7EA">
                    <path d="M19.4633793,4.26532034 L16.3256425,4.26532034 L16.3256425,3.55973458 C16.3256425,3.2684827 16.0853678,3.03239097 15.7890755,3.03239097 L12.9198369,3.03239097 C12.9276708,2.89180116 12.9249879,2.75010393 12.9117884,2.60787936 C12.7832269,1.2216512 11.6205934,0.103630007 10.2074905,0.00723159478 C9.38681118,-0.0488777657 8.60449643,0.222967867 8.00536567,0.772407178 C7.41449804,1.31420001 7.0756023,2.08027207 7.0756023,2.87418788 C7.0756023,2.92702771 7.07705103,2.97976208 7.08000215,3.03239097 L4.21065622,3.03239097 C3.91431024,3.03239097 3.67408918,3.2684827 3.67408918,3.55973458 L3.67408918,4.26532034 L0.536567044,4.26532034 C0.240221066,4.26532034 0,4.50141207 0,4.79266395 L0,26.4726564 C0,26.7639083 0.240221066,27 0.536567044,27 L19.463433,27 C19.7597253,27 20,26.7639083 20,26.4726564 L20,4.79266395 C19.9999463,4.50141207 19.7597253,4.26532034 19.4633793,4.26532034 Z M4.74733058,4.0870782 L4.74733058,4.0870782 L7.71610238,4.0870782 C7.88614047,4.0870782 8.04614477,4.00787118 8.14734131,3.87355677 C8.24853785,3.73924235 8.27896121,3.56569356 8.2292751,3.40585572 C8.17588668,3.2339417 8.1488437,3.05506674 8.1488437,2.87418788 C8.1488437,2.36424661 8.35789022,1.891694 8.73756506,1.54359448 C9.11681065,1.1958641 9.61233031,1.02395008 10.1333369,1.05944031 C11.0268284,1.12040123 11.7619789,1.82725261 11.8432151,2.70369769 C11.865429,2.94305896 11.8410688,3.1793089 11.7707249,3.40590845 C11.7210925,3.5657463 11.7515158,3.73924235 11.8526587,3.87355677 C11.9539089,4.00787118 12.1138595,4.0870782 12.2838976,4.0870782 L15.2526158,4.0870782 L15.2526158,5.44778292 C15.2526158,5.4790544 15.2510061,5.509904 15.2478403,5.54038446 C15.2005151,5.99711676 14.8068359,6.35465573 14.3298814,6.35465573 L5.67006492,6.35465573 C5.16129205,6.35465573 4.74733058,5.94786287 4.74733058,5.44778292 L4.74733058,4.0870782 Z M16.7805977,7.40929023 L16.7805977,23.8359383 L3.21940226,23.8359383 L3.21940226,7.40929023 L16.7805977,7.40929023 Z M18.9268659,25.9453128 L18.9268659,25.9453128 L1.07313409,25.9453128 L1.07313409,5.32000756 L3.67425015,5.32000756 L3.67425015,5.44778292 C3.67425015,5.77484143 3.75655953,6.08323198 3.90121801,6.35465573 L2.68283522,6.35465573 C2.38648924,6.35465573 2.14626818,6.59074747 2.14626818,6.88199935 L2.14626818,24.3632819 C2.14626818,24.6545338 2.38648924,24.8906255 2.68283522,24.8906255 L17.3171648,24.8906255 C17.6134571,24.8906255 17.8537318,24.6545338 17.8537318,24.3632819 L17.8537318,6.88194661 C17.8537318,6.59069473 17.6134571,6.354603 17.3171648,6.354603 L16.0987283,6.354603 C16.2433868,6.08317924 16.3256962,5.7747887 16.3256962,5.44773019 L16.3256962,5.31995483 L18.9268659,5.31995483 L18.9268659,25.9453128 L18.9268659,25.9453128 Z" id="Shape"></path>
                    <path d="M10.4999721,9 C8.01864939,9 6,11.0186619 6,13.5 C6,15.9813381 8.01864939,18 10.4999721,18 C12.9812949,18 15,15.9813381 15,13.5 C15,11.0186619 12.9812949,9 10.4999721,9 Z M10.4999721,16.8850618 C8.63339176,16.8850618 7.11487554,15.3664804 7.11487554,13.4999443 C7.11487554,11.6334081 8.6334475,10.1148267 10.4999721,10.1148267 C12.3664968,10.1148267 13.8851245,11.6334081 13.8851245,13.4999443 C13.8851245,15.3664804 12.3665525,16.8850618 10.4999721,16.8850618 Z" id="Shape"></path>
                    <path d="M11.8286982,12.1835066 C11.6002373,11.9388311 11.2299973,11.9388311 11.0014779,12.1835066 L9.6458613,13.6357072 L8.80635814,13.2680361 C8.50741711,13.1372083 8.16583706,13.2905926 8.04359351,13.610895 C7.92146695,13.9312601 8.06470831,14.2971141 8.36376632,14.4280672 L9.56315681,14.9533832 C9.63480674,14.9847117 9.70990756,15 9.78436499,15 C9.93661377,15 10.0862305,14.9362779 10.1980629,14.8164151 L11.8286982,13.0696014 C12.0571006,12.824926 12.0571006,12.4281821 11.8286982,12.1835066 Z" id="Shape"></path>
                    <path d="M13.9900495,19.4023506 C13.9835492,19.3703426 13.9740487,19.3388347 13.9615481,19.3088272 C13.9490475,19.2783196 13.9335467,19.2493123 13.9155458,19.2223056 C13.8975449,19.1947987 13.8765438,19.1692923 13.8535427,19.1462866 C13.8305415,19.1232808 13.8050403,19.1022756 13.7775389,19.0842711 C13.7505375,19.0662666 13.7215361,19.0507627 13.6910346,19.0382596 C13.6610331,19.0257564 13.6295815,19.0162541 13.5975299,19.0097524 C13.5330267,18.9967492 13.4665233,18.9967492 13.4020201,19.0097524 C13.3705185,19.0162541 13.339017,19.0257564 13.3085654,19.0382596 C13.2785139,19.0507627 13.2495125,19.0662666 13.2225111,19.0842711 C13.1950098,19.1022756 13.1695085,19.1232808 13.1465073,19.1462866 C13.1230062,19.1692923 13.1025051,19.1947987 13.0840042,19.2223056 C13.0660033,19.2493123 13.0505025,19.2783196 13.0380019,19.3088272 C13.0255013,19.3388347 13.0160008,19.3703426 13.0095005,19.4023506 C13.0030002,19.4343586 13,19.4673668 13,19.499875 C13,19.5323831 13.0030502,19.5653913 13.0095005,19.5978995 C13.0160008,19.6294074 13.0255013,19.6609152 13.0380019,19.6914229 C13.0505025,19.7214304 13.0660033,19.7504376 13.0840042,19.7774444 C13.1025051,19.8049512 13.1235062,19.8304576 13.1465073,19.8534634 C13.1695085,19.8764691 13.1950098,19.8974744 13.2225111,19.915979 C13.2495125,19.9339835 13.2785139,19.9494874 13.3085654,19.9619905 C13.339017,19.9744936 13.3705185,19.983996 13.4020201,19.9904976 C13.4345217,19.9969992 13.4675734,20 13.500025,20 C13.5325266,20 13.5655783,19.9969992 13.5975299,19.9904976 C13.6295815,19.983996 13.6610831,19.9744936 13.6910346,19.9619905 C13.7215361,19.9494874 13.7505375,19.9339835 13.7775389,19.915979 C13.8050403,19.8974744 13.8305415,19.8764691 13.8535427,19.8534634 C13.8765438,19.8304576 13.8975449,19.8049512 13.9155458,19.7774444 C13.9335467,19.7504376 13.9490475,19.7214304 13.9615481,19.6914229 C13.9740487,19.6609152 13.9835492,19.6294074 13.9900495,19.5978995 C13.9965498,19.5653913 14,19.5323831 14,19.499875 C14,19.4673668 13.9965498,19.4343586 13.9900495,19.4023506 Z" id="Shape"></path>
                    <path d="M12.4405555,19 L5.55944447,19 C5.25046329,19 5,19.22385 5,19.5 C5,19.77615 5.25046329,20 5.55944447,20 L12.4405555,20 C12.7494808,20 13,19.77615 13,19.5 C13,19.22385 12.7494808,19 12.4405555,19 Z" id="Shape"></path>
                    <path d="M12.4285714,21 L7.57142857,21 C7.25582857,21 7,21.22385 7,21.5 C7,21.77615 7.25582857,22 7.57142857,22 L12.4285714,22 C12.7441143,22 13,21.77615 13,21.5 C13,21.22385 12.7441714,21 12.4285714,21 Z" id="Shape"></path>
                </g>
                <path d="M36.1177264,2.92430094 C32.6605338,1.05880932 28.703916,0 24.5,0 C10.9690236,0 0,10.9690236 0,24.5 C0,38.0309764 10.9690236,49 24.5,49 L24.5,49 C38.0309764,49 49,38.0309764 49,24.5 C49,23.5819274 48.9495032,22.675649 48.8511356,21.7837907" id="Oval-4" stroke="#CDE7EA" stroke-width="1.5" stroke-linecap="round"></path>
                <g id="Group-15" transform="translate(35.000000, 0.000000)" fill-rule="nonzero" fill="#F3ECAE">
                    <path d="M1.1750502,8.11971657 C3.1507743,8.11971657 4.75830004,9.72714683 4.75830004,11.7028709 C4.75830004,12.1646467 5.13270506,12.5390517 5.5944808,12.5390517 C6.05625653,12.5390517 6.43066155,12.1646467 6.43066155,11.7028709 C6.43066155,9.72714683 8.03809181,8.11971657 10.0138159,8.11971657 C10.4755916,8.11971657 10.8499967,7.74531155 10.8499967,7.28353581 C10.8499967,6.82176008 10.4755916,6.44735506 10.0138159,6.44735506 C8.03809181,6.44735506 6.43066155,4.83982931 6.43066155,2.86410521 C6.43066155,2.40232948 6.05625653,2.02792446 5.5944808,2.02792446 C5.13270506,2.02792446 4.75830004,2.40232948 4.75830004,2.86410521 C4.75830004,4.83982931 3.1507743,6.44735506 1.1750502,6.44735506 C0.71327446,6.44735506 0.338869444,6.82176008 0.338869444,7.28353581 C0.338869444,7.74531155 0.71327446,8.11971657 1.1750502,8.11971657 Z M5.5944808,5.70570656 C6.00192436,6.33725841 6.54066272,6.87599677 7.17221456,7.28353581 C6.54066272,7.69097938 6.00201985,8.22971773 5.5944808,8.86126958 C5.18703724,8.22971773 4.64820339,7.69107486 4.01665155,7.28353581 C4.64820339,6.87609225 5.18703724,6.33725841 5.5944808,5.70570656 Z" id="Shape"></path>
                    <path d="M13.0106793,18.8726172 C14.4450869,18.8726172 15.6121306,17.705669 15.6121306,16.2713569 C15.6121306,14.8369493 14.4450869,13.6699057 13.0106793,13.6699057 C11.5762717,13.6699057 10.4093236,14.8369493 10.4093236,16.2713569 C10.4095146,17.705669 11.5763672,18.8726172 13.0106793,18.8726172 Z M13.0106793,15.3424582 C13.5228723,15.3424582 13.9396736,15.759164 13.9396736,16.2714524 C13.9396736,16.7835499 13.5229678,17.2002557 13.0106793,17.2002557 C12.4983909,17.2002557 12.0817806,16.7836454 12.0817806,16.2714524 C12.0818761,15.759164 12.4984864,15.3424582 13.0106793,15.3424582 Z" id="Shape"></path>
                    <circle id="Oval" cx="5.59438531" cy="17.3203785" r="1.04835314"></circle>
                    <circle id="Oval" cx="12.3174428" cy="1.11573596" r="1.04835314"></circle>
                </g>
            </g>
        </g>
    </g>
</svg>