<?xml version="1.0" encoding="UTF-8"?>
<svg width="71px" height="42px" viewBox="0 0 71 42" version="1.1" xmlns="http://www.w3.org/2000/svg" xmlns:xlink="http://www.w3.org/1999/xlink">
    <!-- Generator: Sketch 48.2 (47327) - http://www.bohemiancoding.com/sketch -->
    <title>task</title>
    <desc>Created with Sketch.</desc>
    <defs></defs>
    <g id="task_icon" stroke="none" stroke-width="1" fill="none" fill-rule="evenodd" transform="translate(-21.000000, -35.000000)">
        <g id="task" transform="translate(21.000000, 24.000000)">
            <g id="Group-8" transform="translate(6.543478, 1.627717)">
                <g id="Group-6" transform="translate(11.531304, 9.531304)">
                    <path d="M20.8434783,41.7661957 C32.0390105,41.7661957 41.1147826,41.180662 41.1147826,40.4583696 C41.1147826,39.7360772 32.0390105,39.1505435 20.8434783,39.1505435 C9.64794601,39.1505435 0.572173913,39.7360772 0.572173913,40.4583696 C0.572173913,41.180662 9.64794601,41.7661957 20.8434783,41.7661957 Z" id="Oval-6" fill="#F3F4F9" opacity="0.699999988"></path>
                    <g id="Group-5" fill-rule="nonzero">
                        <g id="clipboard-copy" transform="translate(7.846957, 7.168804)" fill="#CDD2EA">
                            <path d="M23.7674801,5.20854651 L19.9358692,5.20854651 L19.9358692,4.34692863 C19.9358692,3.99126978 19.6424605,3.70296909 19.2806466,3.70296909 L15.7769091,3.70296909 C15.7864754,3.53128948 15.7831992,3.35825755 15.7670808,3.18458166 C15.6100894,1.49180521 14.190353,0.126546582 12.4647587,0.00883077817 C11.4625957,-0.0596865172 10.5072811,0.272274627 9.77565953,0.943216075 C9.05412837,1.60482011 8.64028976,2.54030013 8.64028976,3.50978122 C8.64028976,3.57430597 8.64205886,3.63870194 8.64566259,3.70296909 L5.14179405,3.70296909 C4.77991459,3.70296909 4.48657143,3.99126978 4.48657143,4.34692863 L4.48657143,5.20854651 L0.655222628,5.20854651 C0.293343171,5.20854651 0,5.49684719 0,5.85250605 L0,32.3267776 C0,32.6824365 0.293343171,32.9707371 0.655222628,32.9707371 L23.7675457,32.9707371 C24.1293596,32.9707371 24.4227682,32.6824365 24.4227682,32.3267776 L24.4227682,5.85250605 C24.4227027,5.49684719 24.1293596,5.20854651 23.7674801,5.20854651 Z M5.79714773,4.99088818 L9.42242901,4.99088818 C9.63006905,4.99088818 9.82545645,4.89416545 9.94903143,4.73014896 C10.0726064,4.56613247 10.1097575,4.35420537 10.0490839,4.15902125 C9.98388928,3.94909043 9.95086606,3.73065935 9.95086606,3.50978122 C9.95086606,2.88707235 10.2061408,2.31002021 10.6697763,1.88494251 C11.1328877,1.46031559 11.7379858,1.25038478 12.3742069,1.29372326 C13.4652837,1.36816498 14.3630042,2.23132835 14.4622049,3.3015891 C14.4893311,3.59388235 14.459584,3.88237622 14.3736843,4.15908564 C14.3130763,4.35426978 14.3502273,4.56613247 14.4737368,4.73014896 C14.5973773,4.89416545 14.7926992,4.99088818 15.0003392,4.99088818 L18.625555,4.99088818 L18.625555,6.65249699 C18.625555,6.69068379 18.6235894,6.72835542 18.6197235,6.76557628 C18.5619329,7.32330964 18.0811961,7.75991421 17.4987686,7.75991421 L6.92393407,7.75991421 C6.30265198,7.75991421 5.79714773,7.26316382 5.79714773,6.65249699 L5.79714773,4.99088818 Z M20.4914324,9.04776891 L20.4914324,29.1069799 L3.93133576,29.1069799 L3.93133576,9.04776891 L20.4914324,9.04776891 Z M23.112323,31.6828181 L1.31044526,31.6828181 L1.31044526,6.4964012 L4.48676799,6.49646559 L4.48676799,6.65249699 C4.48676799,7.0518807 4.58727914,7.42846824 4.76392717,7.75991421 L3.27611314,7.75991421 C2.91423368,7.75991421 2.62089052,8.0482149 2.62089052,8.40387376 L2.62089052,29.7509394 C2.62089052,30.1065983 2.91423368,30.3948989 3.27611314,30.3948989 L21.1466551,30.3948989 C21.508469,30.3948989 21.8018777,30.1065983 21.8018777,29.7509394 L21.8018777,8.40380936 C21.8018777,8.0481505 21.508469,7.75984982 21.1466551,7.75984982 L19.6587755,7.75984982 C19.8354236,7.42840384 19.9359347,7.05181631 19.9359347,6.6524326 L19.9359347,6.4964012 L23.112323,6.4964012 L23.112323,31.6828181 Z" id="Shape"></path>
                            <path d="M12.8219193,10.9902457 C9.79188079,10.9902457 7.32683047,13.4553113 7.32683047,16.4853686 C7.32683047,19.5154258 9.79188079,21.9804914 12.8219193,21.9804914 C15.8519578,21.9804914 18.3170762,19.5154258 18.3170762,16.4853686 C18.3170762,13.4553113 15.8519578,10.9902457 12.8219193,10.9902457 Z M12.8219193,20.6189976 C10.5425663,20.6189976 8.68824782,18.7645995 8.68824782,16.4853006 C8.68824782,14.2060015 10.5426344,12.3516034 12.8219193,12.3516034 C15.1012043,12.3516034 16.9556589,14.2060015 16.9556589,16.4853006 C16.9556589,18.7645995 15.1012723,20.6189976 12.8219193,20.6189976 Z" id="Shape"></path>
                            <path d="M14.4444777,14.8777479 C14.1654954,14.5789653 13.7133811,14.5789653 13.4343273,14.8777479 L11.7789318,16.6510859 L10.7537822,16.2021086 C10.3887338,16.0423497 9.9716173,16.2296532 9.82234101,16.6207867 C9.67320758,17.0119969 9.8481251,17.4587552 10.2133163,17.6186671 L11.6779381,18.2601507 C11.7654326,18.2984071 11.8571411,18.3170762 11.9480639,18.3170762 C12.1339808,18.3170762 12.3166835,18.2392627 12.4532463,18.0928936 L14.4444777,15.9597923 C14.7233887,15.6610098 14.7233887,15.1765306 14.4444777,14.8777479 Z" id="Shape"></path>
                            <path d="M17.0837868,23.6929556 C17.0758491,23.6538694 17.0642476,23.6153939 17.0489827,23.5787506 C17.0337177,23.5414966 17.0147891,23.5060747 16.9928075,23.4730957 C16.9708259,23.439506 16.9451807,23.4083592 16.9170931,23.380266 C16.8890055,23.3521728 16.857865,23.3265225 16.824282,23.3045365 C16.7913095,23.2825505 16.7558948,23.2636181 16.7186483,23.2483501 C16.6820123,23.233082 16.6436055,23.2214783 16.6044661,23.2135389 C16.5256987,23.1976602 16.4444889,23.1976602 16.3657215,23.2135389 C16.3272537,23.2214783 16.288786,23.233082 16.2516004,23.2483501 C16.2149034,23.2636181 16.1794887,23.2825505 16.1465162,23.3045365 C16.1129333,23.3265225 16.0817927,23.3521728 16.0537051,23.380266 C16.025007,23.4083592 15.9999723,23.439506 15.9773801,23.4730957 C15.9553985,23.5060747 15.9364699,23.5414966 15.9212049,23.5787506 C15.90594,23.6153939 15.8943386,23.6538694 15.8864008,23.6929556 C15.878463,23.7320418 15.8747994,23.7723494 15.8747994,23.8120464 C15.8747994,23.8517433 15.8785241,23.8920509 15.8864008,23.9317479 C15.8943386,23.9702234 15.90594,24.0086988 15.9212049,24.0459529 C15.9364699,24.0825962 15.9553985,24.118018 15.9773801,24.1509971 C15.9999723,24.1845867 16.0256175,24.2157335 16.0537051,24.2438268 C16.0817927,24.2719199 16.1129333,24.2975703 16.1465162,24.320167 C16.1794887,24.342153 16.2149034,24.3610854 16.2516004,24.3763534 C16.288786,24.3916214 16.3272537,24.4032251 16.3657215,24.4111645 C16.4054105,24.4191039 16.4457712,24.4227682 16.4853991,24.4227682 C16.525088,24.4227682 16.5654487,24.4191039 16.6044661,24.4111645 C16.6436055,24.4032251 16.6820733,24.3916214 16.7186483,24.3763534 C16.7558948,24.3610854 16.7913095,24.342153 16.824282,24.320167 C16.857865,24.2975703 16.8890055,24.2719199 16.9170931,24.2438268 C16.9451807,24.2157335 16.9708259,24.1845867 16.9928075,24.1509971 C17.0147891,24.118018 17.0337177,24.0825962 17.0489827,24.0459529 C17.0642476,24.0086988 17.0758491,23.9702234 17.0837868,23.9317479 C17.0917246,23.8920509 17.0959378,23.8517433 17.0959378,23.8120464 C17.0959378,23.7723494 17.0917246,23.7320418 17.0837868,23.6929556 Z" id="Shape"></path>
                            <path d="M15.1916402,23.2016298 L6.78885119,23.2016298 C6.41154241,23.2016298 6.10569206,23.4749817 6.10569206,23.812199 C6.10569206,24.1494164 6.41154241,24.4227682 6.78885119,24.4227682 L15.1916402,24.4227682 C15.5688807,24.4227682 15.8747994,24.1494164 15.8747994,23.812199 C15.8747994,23.4749817 15.5688807,23.2016298 15.1916402,23.2016298 Z" id="Shape"></path>
                            <path d="M15.1770059,25.6439067 L9.24576226,25.6439067 C8.86037098,25.6439067 8.54796889,25.9172585 8.54796889,26.2544759 C8.54796889,26.5916932 8.86037098,26.8650451 9.24576226,26.8650451 L15.1770059,26.8650451 C15.5623275,26.8650451 15.8747994,26.5916932 15.8747994,26.2544759 C15.8747994,25.9172585 15.5623972,25.6439067 15.1770059,25.6439067 Z" id="Shape"></path>
                        </g>
                        <g id="Group-4" transform="translate(25.178261, 3.959239)" fill="#DBD5F4">
                            <circle id="Oval" cx="6.80468161" cy="7.40819281" r="1"></circle>
                            <path d="M14.5660904,11.4736926 C14.9742296,11.4736926 15.3052721,11.1427979 15.3052721,10.7345108 C15.3052721,10.3262238 14.9742296,9.99532906 14.5660904,9.99532906 C14.1580251,9.99532906 13.8269086,10.3262238 13.8269086,10.7345108 C13.8269086,11.1427979 14.1580251,11.4736926 14.5660904,11.4736926 Z" id="Shape"></path>
                            <circle id="Oval" cx="0.739181786" cy="0.739181786" r="1"></circle>
                        </g>
                        <g id="christmas-stars-(1)" transform="translate(29.919076, 0.286087)" fill="#DBD5F4">
                            <path d="M3.46000004,0.0111448355 C2.98226699,2.98079431 2.59498412,3.42396542 0,3.97066938 C2.59500533,4.51737334 2.98226699,4.96054444 3.46000004,7.93019392 C3.93773308,4.96054444 4.32499474,4.51737334 6.92000008,3.97066938 C4.32499474,3.42396542 3.93771187,2.98079431 3.46000004,0.0111448355 Z" id="Shape"></path>
                            <path d="M8.25698769,5.58203292 C7.90933681,7.47060907 7.62743803,7.75248357 5.73888616,8.10013445 C7.62743803,8.44780962 7.90933681,8.72968412 8.25698769,10.618236 C8.60463858,8.72968412 8.88653736,8.44778534 10.7750649,8.10013445 C8.8864888,7.75248357 8.60466286,7.47060907 8.25698769,5.58203292 Z" id="Shape"></path>
                        </g>
                        <g id="christmas-stars-(1)-copy" transform="translate(0.000000, 25.764457)" fill="#DBD5F4">
                            <path d="M1.92136147,0.0054080376 C1.65607307,1.44643209 1.44101227,1.66148111 0,1.92676951 C1.44102405,2.19205791 1.65607307,2.40710693 1.92136147,3.84813098 C2.18664987,2.40710693 2.4016989,2.19205791 3.84272295,1.92676951 C2.4016989,1.66148111 2.18663809,1.44643209 1.92136147,0.0054080376 Z" id="Shape"></path>
                            <path d="M4.00670784,2.70868456 C3.83801006,3.62511718 3.70121852,3.76189694 2.78479768,3.93059472 C3.70121852,4.09930429 3.83801006,4.23608404 4.00670784,5.15250488 C4.17540562,4.23608404 4.31219716,4.0992925 5.22860622,3.93059472 C4.3121736,3.76189694 4.17541741,3.62511718 4.00670784,2.70868456 Z" id="Shape"></path>
                        </g>
                    </g>
                </g>
                <path d="M43.1847826,16.0461957 C42.9030895,16.0461957 42.673913,16.2753791 42.673913,16.5570652 C42.673913,16.8387514 42.9030895,17.0679348 43.1847826,17.0679348 C43.4664688,17.0679348 43.6956522,16.8387514 43.6956522,16.5570652 C43.6956522,16.2753791 43.4664688,16.0461957 43.1847826,16.0461957 Z M43.1847826,16.9402156 C42.9735005,16.9402156 42.8016322,16.7683473 42.8016322,16.5570652 C42.8016322,16.3457831 42.9735005,16.1739148 43.1847826,16.1739148 C43.3960647,16.1739148 43.567933,16.3457831 43.567933,16.5570652 C43.567933,16.7683473 43.3960647,16.9402156 43.1847826,16.9402156 Z" id="Shape" fill="#DBD5F4" fill-rule="nonzero"></path>
                <path d="M15.5978261,34.4375 C15.316133,34.4375 15.0869565,34.6666834 15.0869565,34.9483696 C15.0869565,35.2300557 15.316133,35.4592391 15.5978261,35.4592391 C15.8795122,35.4592391 16.1086957,35.2300557 16.1086957,34.9483696 C16.1086957,34.6666834 15.8795122,34.4375 15.5978261,34.4375 Z M15.5978261,35.33152 C15.386544,35.33152 15.2146757,35.1596516 15.2146757,34.9483696 C15.2146757,34.7370875 15.386544,34.5652191 15.5978261,34.5652191 C15.8091082,34.5652191 15.9809765,34.7370875 15.9809765,34.9483696 C15.9809765,35.1596516 15.8091082,35.33152 15.5978261,35.33152 Z" id="Shape-Copy" fill="#CDE7EA" fill-rule="nonzero"></path>
            </g>
            <g id="Group-22" transform="translate(0.000000, 29.000000)" fill="#EDEFFA">
                <g id="Group-19">
                    <rect id="Rectangle" x="0" y="0" width="20.4848485" height="2.5" rx="1.25"></rect>
                    <rect id="Rectangle-Copy-3" x="7.87878788" y="5.5" width="18.1212121" height="2.5" rx="1.25"></rect>
                    <path d="M18.9090909,5.5 L11.030303,5.5 C12.0808081,5 12.6060606,4.5 12.6060606,4 C12.6060606,3.5 12.0808081,3 11.030303,2.5 L18.9090909,2.5 C17.8585859,3 17.3333333,3.5 17.3333333,4 C17.3333333,4.5 17.8585859,5 18.9090909,5.5 Z" id="Path-2-Copy"></path>
                </g>
                <g id="Group-19-Copy-2" transform="translate(50.000000, 10.000000)">
                    <rect id="Rectangle" x="0" y="0" width="16.5454545" height="2.5" rx="1.25"></rect>
                    <rect id="Rectangle-Copy-3" x="6.36363636" y="5.5" width="14.6363636" height="2.5" rx="1.25"></rect>
                    <path d="M15.2727273,5.5 L8.90909091,5.5 C9.75757576,5 10.1818182,4.5 10.1818182,4 C10.1818182,3.5 9.75757576,3 8.90909091,2.5 L15.2727273,2.5 C14.4242424,3 14,3.5 14,4 C14,4.5 14.4242424,5 15.2727273,5.5 Z" id="Path-2-Copy"></path>
                </g>
            </g>
        </g>
    </g>
</svg>