<?xml version="1.0" encoding="UTF-8"?>
<svg width="74px" height="40px" viewBox="0 0 74 40" version="1.1" xmlns="http://www.w3.org/2000/svg" xmlns:xlink="http://www.w3.org/1999/xlink">
    <!-- Generator: Sketch 48.2 (47327) - http://www.bohemiancoding.com/sketch -->
    <title>Group 23 Copy</title>
    <desc>Created with Sketch.</desc>
    <defs></defs>
    <g id="Tridder_SVG-icon" stroke="none" stroke-width="1" fill="none" fill-rule="evenodd" transform="translate(-21.000000, -36.000000)">
        <g id="Group-23-Copy" transform="translate(21.000000, 24.000000)">
            <g id="triggers_icon">
                <g id="Group-20" transform="translate(0.000000, 28.000000)" fill="#EDEFFA">
                    <g id="Group-19-Copy-5">
                        <rect id="Rectangle" x="0" y="0" width="20.4848485" height="2.5" rx="1.25"></rect>
                        <rect id="Rectangle-Copy-3" x="7.87878788" y="5.5" width="18.1212121" height="2.5" rx="1.25"></rect>
                        <path d="M18.9090909,5.5 L11.030303,5.5 C12.0808081,5 12.6060606,4.5 12.6060606,4 C12.6060606,3.5 12.0808081,3 11.030303,2.5 L18.9090909,2.5 C17.8585859,3 17.3333333,3.5 17.3333333,4 C17.3333333,4.5 17.8585859,5 18.9090909,5.5 Z" id="Path-2-Copy"></path>
                    </g>
                    <g id="Group-19-Copy-4" transform="translate(53.000000, 10.000000)">
                        <rect id="Rectangle" x="0" y="0" width="16.5454545" height="2.5" rx="1.25"></rect>
                        <rect id="Rectangle-Copy-3" x="6.36363636" y="5.5" width="14.6363636" height="2.5" rx="1.25"></rect>
                        <path d="M15.2727273,5.5 L8.90909091,5.5 C9.75757576,5 10.1818182,4.5 10.1818182,4 C10.1818182,3.5 9.75757576,3 8.90909091,2.5 L15.2727273,2.5 C14.4242424,3 14,3.5 14,4 C14,4.5 14.4242424,5 15.2727273,5.5 Z" id="Path-2-Copy"></path>
                    </g>
                </g>
                <g id="Group-16" transform="translate(5.074728, 0.990489)">
                    <g id="Group-6" transform="translate(14.000000, 10.000000)">
                        <path d="M21.0167166,40.6415147 C32.5924641,40.6415147 41.9764616,40.0360955 41.9764616,39.2892731 C41.9764616,38.5424507 32.5924641,37.9370315 21.0167166,37.9370315 C9.44096901,37.9370315 0.0569715142,38.5424507 0.0569715142,39.2892731 C0.0569715142,40.0360955 9.44096901,40.6415147 21.0167166,40.6415147 Z" id="Oval-6-Copy" fill="#F6F7FB" opacity="0.699999988"></path>
                        <g id="Group-14" transform="translate(1.000000, 5.000000)"></g>
                        <g id="Group-5" transform="translate(0.531250, 0.956522)" fill="#DBD5F4" fill-rule="nonzero">
                            <g id="Group-4" transform="translate(25.050543, 4.000000)">
                                <circle id="Oval" cx="3.25043478" cy="4.48173913" r="1"></circle>
                                <path d="M15.1165217,12.0782609 C15.4775798,12.0782609 15.7704348,11.7855367 15.7704348,11.4243478 C15.7704348,11.063159 15.4775798,10.7704348 15.1165217,10.7704348 C14.755529,10.7704348 14.4626087,11.063159 14.4626087,11.4243478 C14.4626087,11.7855367 14.755529,12.0782609 15.1165217,12.0782609 Z" id="Shape"></path>
                                <circle id="Oval" cx="0.653913043" cy="0.653913043" r="1"></circle>
                            </g>
                            <g id="christmas-stars-(1)" transform="translate(29.281848, 0.307826)">
                                <path d="M3.46000004,0.0081120564 C2.98226699,2.60311739 2.59498412,2.99037905 0,3.46811209 C2.59500533,3.94584514 2.98226699,4.3331068 3.46000004,6.92811213 C3.93773308,4.3331068 4.32499474,3.94584514 6.92000008,3.46811209 C4.32499474,2.99037905 3.93771187,2.60311739 3.46000004,0.0081120564 Z" id="Shape"></path>
                                <path d="M8.69720865,6.06302684 C8.34929399,7.95303594 8.06718132,8.23512431 6.17719652,8.58303897 C8.06718132,8.93097793 8.34929399,9.2130663 8.69720865,11.1030511 C9.04512331,9.2130663 9.32723598,8.93095363 11.2171965,8.58303897 C9.32718739,8.23512431 9.04514761,7.95303594 8.69720865,6.06302684 Z" id="Shape"></path>
                            </g>
                            <g id="christmas-stars-(1)-copy" transform="translate(0.000000, 27.254946)">
                                <path d="M1.92136147,0.0054080376 C1.65607307,1.44643209 1.44101227,1.66148111 0,1.92676951 C1.44102405,2.19205791 1.65607307,2.40710693 1.92136147,3.84813098 C2.18664987,2.40710693 2.4016989,2.19205791 3.84272295,1.92676951 C2.4016989,1.66148111 2.18663809,1.44643209 1.92136147,0.0054080376 Z" id="Shape"></path>
                                <path d="M4.00670784,2.70868456 C3.83801006,3.62511718 3.70121852,3.76189694 2.78479768,3.93059472 C3.70121852,4.09930429 3.83801006,4.23608404 4.00670784,5.15250488 C4.17540562,4.23608404 4.31219716,4.0992925 5.22860622,3.93059472 C4.3121736,3.76189694 4.17541741,3.62511718 4.00670784,2.70868456 Z" id="Shape"></path>
                            </g>
                        </g>
                    </g>
                    <g id="Group-18" transform="translate(20.925272, 18.009511)">
                        <path d="M20.3791764,4.53448977 C18.4661124,3.55351991 16.297697,3 14,3 C6.2680135,3 0,9.2680135 0,17 C0,24.7319865 6.2680135,31 14,31 C21.7319865,31 28,24.7319865 28,17 C28,15.1231771 27.6306872,13.3326119 26.960769,11.6970116" id="Oval-10" stroke="#CDD2EA" stroke-width="1.5" stroke-linecap="round"></path>
                        <path d="M21.8108858,4.95703681 L21.8618905,4.85547074 C21.9207,4.76556964 21.9155664,4.64635813 21.846701,4.56131647 L19.2238612,1.32237912 C19.1369702,1.21507765 18.9795461,1.19853171 18.8722447,1.28542272 C18.7649432,1.37231374 18.7483972,1.52973785 18.8352883,1.63703931 L21.323577,4.70981999 L17.9585571,6.20802339 C17.8324228,6.264182 17.7756963,6.41195961 17.8318549,6.53809391 C17.8880135,6.66422822 18.0357911,6.72095473 18.1619254,6.66479612 L21.6778301,5.09941447 C21.7408313,5.07136455 21.7875846,5.02057606 21.8108858,4.95703681 Z" id="Combined-Shape" stroke="#CDD2EA" transform="translate(19.856247, 3.958141) rotate(9.000000) translate(-19.856247, -3.958141) "></path>
                        <path d="M19.0122716,14.8702695 L14.0157737,21.508344 C13.8388139,21.7419724 13.5721677,21.8880658 13.2825871,21.9100511 C13.2577333,21.9100511 13.2333233,21.9100511 13.2084696,21.9100511 C12.9438274,21.9103369 12.6896439,21.8052278 12.5005806,21.6173273 L9.48705945,18.6355979 C9.22757481,18.3789744 9.12272398,18.0013752 9.21200327,17.6450384 C9.30128256,17.2887016 9.57112832,17.0077633 9.91989226,16.90805 C10.2686562,16.8083368 10.6433528,16.9049976 10.9028374,17.1616211 L13.0966275,19.3336315 L17.4016577,13.6192131 C17.6190282,13.3202218 17.9784109,13.1634208 18.3418028,13.2090219 C18.7051947,13.254623 19.0161053,13.4955371 19.155145,13.8392534 C19.2941846,14.1829696 19.239739,14.576056 19.0127154,14.8675674 L19.0122716,14.8702695 Z" id="Path-Copy-2" fill="#CDD2EA" opacity="0.900000036"></path>
                    </g>
                </g>
            </g>
        </g>
    </g>
</svg>