<?xml version="1.0" encoding="UTF-8"?>
<svg width="18px" height="6px" viewBox="0 0 18 6" version="1.1" xmlns="http://www.w3.org/2000/svg" xmlns:xlink="http://www.w3.org/1999/xlink">
    <!-- Generator: Sketch 49.1 (51147) - http://www.bohemiancoding.com/sketch -->
    <title>Combined Shape</title>
    <desc>Created with Sketch.</desc>
    <defs></defs>
    <g id="Page-1" stroke="none" stroke-width="1" fill="none" fill-rule="evenodd">
        <g id="---" transform="translate(-6.000000, -12.000000)" fill="#333333">
            <path d="M14,14 L10.8997773,14 L9.10022272,14 L6,14 L6,12 L9.10022272,12 L10.8997773,12 L14,12 L14,14 Z M14,18 L10.8997773,18 L9.10022272,18 L6,18 L6,16 L9.10022272,16 L10.8997773,16 L14,16 L14,18 Z M24,14 L20.8997773,14 L19.1002227,14 L16,14 L16,12 L19.1002227,12 L20.8997773,12 L24,12 L24,14 Z M24,18 L20.8997773,18 L19.1002227,18 L16,18 L16,16 L19.1002227,16 L20.8997773,16 L24,16 L24,18 Z" id="Combined-Shape"></path>
        </g>
    </g>
</svg>