<?xml version="1.0" encoding="UTF-8"?>
<svg width="13px" height="14px" viewBox="0 0 13 14" version="1.1" xmlns="http://www.w3.org/2000/svg" xmlns:xlink="http://www.w3.org/1999/xlink">
    <!-- Generator: Sketch 49.1 (51147) - http://www.bohemiancoding.com/sketch -->
    <title>Combined Shape</title>
    <desc>Created with Sketch.</desc>
    <defs></defs>
    <g id="Page-1" stroke="none" stroke-width="1" fill="none" fill-rule="evenodd">
        <g id="----copy-2" transform="translate(-9.000000, -8.000000)" fill="#ffffff">
            <path d="M13.2762794,16 L13.3466695,15.8780809 L14.43098,14 L14.0378619,14 L9,14 L9,12 L14.0378619,12 L15.5856805,12 L17.6339746,8.45225059 L19.3660254,9.45225059 L17.8950816,12 L22,12 L22,14 L16.9621381,14 L16.7403811,14 L16.6533305,14.1507759 L15.5856805,16 L16.9621381,16 L22,16 L22,18 L16.9621381,18 L14.43098,18 L12.3660254,21.5766062 L10.6339746,20.5766062 L12.1215789,18 L9,18 L9,16 L13.2762794,16 Z" id="Combined-Shape"></path>
        </g>
    </g>
</svg>
