<svg viewBox="0 0 50 50" xmlns="http://www.w3.org/2000/svg">
  <path d="M46.122 22.172c2.142 0 3.878 1.765 3.878 3.944v16.94C50 45.234 48.264 47 46.122 47H35.779c-2.142 0-3.878-1.766-3.878-3.944v-16.94c0-2.179 1.736-3.944 3.878-3.944h10.343zM20.46 2c6.432 0 9.857 3.589 9.855 10.372-.456 7.39-2.754 11.904-6.888 13.163l2.297 11.302-5.218 6.68-4.963-6.68 1.867-10.732h-.223c-7.938 0-14.397 6.442-14.597 14.466l-.004.383v2.09c0 .674.499 1.23 1.142 1.306l.15.009h23.498c.714 0 1.293.588 1.293 1.314 0 .675-.5 1.23-1.142 1.306l-.151.009H3.878c-2.065 0-3.753-1.642-3.871-3.712L0 43.044v-2.09c0-8.775 6.359-16.04 14.646-17.288-2.443-2.212-3.842-6.047-4.19-11.398C10.566 5.575 14.036 2 20.46 2zm25.662 22.8H35.779c-.663 0-1.21.508-1.284 1.162l-.009.154v16.94c0 .674.5 1.23 1.142 1.306l.151.009h10.343c.663 0 1.209-.508 1.284-1.162l.008-.153v-16.94c0-.675-.499-1.23-1.142-1.306l-.15-.01zm-1.41 11.605c.358 0 .647.29.647.647v5.033a.259.259 0 01-.434.19l-1.055-.978h-4.328a.646.646 0 01-.647-.646v-3.6c0-.356.29-.646.647-.646h5.17zM20.08 25.87l-1.794 10.297 2.272 3.058 2.389-3.06-2.086-10.267a10.962 10.962 0 01-.781-.028zM44.713 26.9c.357 0 .646.29.646.647v4.322c0 .357-.29.646-.646.646h-6.158l-1.597 1.565a.259.259 0 01-.44-.185v-6.348c0-.357.29-.647.647-.647zM13.33 13.666l-.138.223c.734 6.191 3.146 9.168 7.256 9.368 4.08.198 6.464-2.783 7.158-9.447-1.645-.229-3.956-.995-7.042-2.285-3.162-1.322-5.452-.66-7.234 2.141zm7.13-9.037c-4.15 0-6.465 1.661-7.181 5.184 2.242-1.804 5.05-2.065 8.269-.72l.826.34c2.36.954 4.16 1.53 5.322 1.74-.316-4.49-2.617-6.544-7.236-6.544z" fill-rule="nonzero"/>
</svg>
