<svg viewBox="0 0 50 50" xmlns="http://www.w3.org/2000/svg">
  <path d="M37.604 19.734c.906-1.694 3.457-1.035 3.457.866v7.609l7.1.016c1.343.003 2.196 1.377 1.693 2.546l-.07.145-7.855 15.114c-.91 1.69-3.455 1.028-3.455-.87v-7.62l-7.324-.003c-1.343 0-2.199-1.372-1.69-2.555l.07-.147zM20.458 3c6.432 0 9.856 3.503 9.853 10.125-.455 7.215-2.753 11.622-6.887 12.85l2.298 11.033-5.218 6.521-4.962-6.522 1.867-10.475h-.224c-7.937 0-14.395 6.288-14.595 14.12l-.005.375v2.04c0 .658.5 1.2 1.142 1.275l.151.009h23.495c.714 0 1.293.574 1.293 1.283 0 .658-.5 1.2-1.142 1.275l-.15.008H3.877c-2.065 0-3.753-1.602-3.871-3.623L0 43.067v-2.04C0 32.46 6.359 25.369 14.646 24.15c-2.444-2.158-3.843-5.903-4.191-11.127C10.565 6.49 14.035 3 20.458 3zm18.017 20.577L32.382 34.97l8.677.004v7.13l5.88-11.316-8.463-.017-.001-7.194zm-18.399 2.724l-1.793 10.051 2.271 2.985 2.39-2.985-2.086-10.024a11.227 11.227 0 01-.782-.027zm-6.884-11.698c.733 6.047 3.144 8.953 7.254 9.148 4.08.194 6.463-2.716 7.157-9.22-1.645-.226-3.956-.973-7.04-2.232-3.244-1.324-5.57-.61-7.37 2.304zm7.266-9.036c-4.15 0-6.464 1.621-7.18 5.06 2.166-1.701 4.86-1.997 7.943-.83l1.15.46c2.359.93 4.159 1.493 5.32 1.697-.314-4.382-2.615-6.387-7.233-6.387z" fill-rule="nonzero"/>
</svg>
