<svg viewBox="0 0 50 50" xmlns="http://www.w3.org/2000/svg">
  <g fill-rule="nonzero" stroke="#fff" stroke-width=".5" stroke-linejoin="round">
    <path d="M38.58 40.16c-.41 0-.74.21-.74.48s.33.5.74.5h2.44c.41 0 .74-.23.74-.5s-.33-.48-.74-.48h-2.44zM38.58 31.36h2.44c.41 0 .74-.22.74-.5 0-.26-.33-.48-.74-.48h-2.44c-.41 0-.74.22-.74.49s.33.49.74.49h0z"/>
    <path d="M47.82 3H28.57c-.98 0-1.78.8-1.78 1.77V8.2c0 .39.33.7.72.7.4 0 .72-.31.72-.7V4.77c0-.2.15-.34.34-.34h19.25c.19 0 .34.15.34.34v9.87H28.23v-3.1c0-.4-.32-.71-.72-.71-.4 0-.72.32-.72.71v5.73c0 .97.8 1.76 1.78 1.76h6.52l-.5 2.3h-8.72a5.26 5.26 0 00-5.27-4.92h-6.96a5.24 5.24 0 00-5.28 4.91H2.1c-.83 0-1.5.67-1.5 1.5v1.76c0 .83.67 1.5 1.5 1.5h.92v19.5c0 .78.65 1.42 1.44 1.42h1.51c.8 0 1.44-.64 1.44-1.43v-19.5h1.8l.95 4.17a3.52 3.52 0 003.46 2.75h.88l.13 1.12h-2.29a2.94 2.94 0 00-2.95 2.93c0 .95.78 1.73 1.74 1.73h5.3v4.78h-1.54c-1.63 0-3.1.96-3.74 2.46-.15.36.02.78.39.93.36.16.78-.01.94-.38a2.62 2.62 0 012.41-1.59h4.54c1.06 0 2 .63 2.42 1.6.15.36.57.53.94.37a.71.71 0 00.38-.93 4.05 4.05 0 00-3.74-2.46h-1.56v-4.78h5.23c.96 0 1.74-.78 1.74-1.73a2.94 2.94 0 00-2.95-2.93H19.6l.14-1.12h.87c1.67 0 3.1-1.13 3.46-2.75l.95-4.17h6.72v19.38c0 .86.7 1.55 1.56 1.55h12.21c.86 0 1.56-.7 1.56-1.55V42.7c0-.4-.32-.72-.72-.72-.4 0-.72.32-.72.72v2.75c0 .07-.05.12-.12.12H33.3a.12.12 0 01-.12-.12V36.5h12.45v2.87c0 .4.33.72.72.72.4 0 .72-.32.72-.72V26.07h1c.82 0 1.5-.66 1.5-1.49v-1.77a1.5 1.5 0 00-1.5-1.49H41.8l-.5-2.29h6.52c.98 0 1.78-.79 1.78-1.76V4.77c0-.98-.8-1.77-1.78-1.77zM5.97 45.57H4.46v-19.5h1.51v19.5zM2.1 24.65a.06.06 0 01-.06-.07v-1.77c0-.03.02-.06.06-.06h6.36l.43 1.9h-6.8zm21.3 12.39a.3.3 0 01-.3.3H11.13a.3.3 0 01-.3-.3c0-.83.68-1.5 1.51-1.5h9.55c.84 0 1.52.67 1.52 1.5zm-5.25-2.93h-2.07l-.14-1.12h2.35l-.14 1.12zm4.52-4.18a2.1 2.1 0 01-2.06 1.63h-6.99c-1 0-1.84-.67-2.06-1.63L9.88 22.5a3.81 3.81 0 013.76-4.68h6.96a3.82 3.82 0 013.76 4.68l-.62 2.7s0 0 0 0l-1.07 4.72zm22.96 5.13H33.18v-8.99h12.45v9zm2.5-12.25v1.77c0 .04-.03.07-.07.07H25.34c.26-1.14.4-1.71.43-1.9h22.3c.03 0 .06.03.06.06h0zm-7.8-1.49h-4.26l.5-2.29h3.26l.5 2.3zm7.5-3.71H28.56a.34.34 0 01-.34-.34v-1.2h19.93v1.2c0 .18-.15.34-.34.34h0z"/>
  </g>
</svg>
