<svg viewBox="0 0 90 30" xmlns="http://www.w3.org/2000/svg"><g fill="none" fill-rule="evenodd"><path d="M10.776 10.654v3.756H8.898v11.003H4.375V14.41H3v-3.756h1.375v-.556c0-1.869.499-3.235 1.495-4.1.996-.864 2.561-1.296 4.695-1.296v3.836c-.6 0-1.028.114-1.283.344-.256.229-.384.634-.384 1.216v.556h1.878zm12.405 7.38c0-1.164-.326-2.06-.979-2.685-.652-.626-1.401-.94-2.248-.94-.846 0-1.596.318-2.248.953-.652.635-.979 1.534-.979 2.698s.327 2.059.979 2.685c.652.626 1.402.939 2.248.939.847 0 1.596-.318 2.248-.953.653-.634.979-1.534.979-2.698zm-11.056.026c0-2.204.653-4.016 1.957-5.436 1.305-1.42 2.897-2.129 4.774-2.129 1.878 0 3.32.697 4.325 2.09v-1.931h4.523v14.76H23.18V23.27c-1.093 1.551-2.557 2.327-4.39 2.327-1.834 0-3.404-.705-4.709-2.116-1.304-1.41-1.957-3.218-1.957-5.422zm18.462-.027c0-2.292.683-4.121 2.05-5.488 1.366-1.367 3.134-2.05 5.303-2.05 1.798 0 3.324.445 4.576 1.336 1.252.89 2.08 2.164 2.486 3.822h-4.893c-.424-.882-1.116-1.323-2.077-1.323-.96 0-1.675.34-2.142 1.019-.467.679-.7 1.574-.7 2.684 0 1.111.233 2.006.7 2.685.467.68 1.15 1.019 2.05 1.019.564 0 1.005-.097 1.322-.291.318-.194.6-.538.847-1.032h4.893c-.406 1.587-1.243 2.848-2.513 3.782-1.27.935-2.786 1.402-4.55 1.402-2.168 0-3.936-.687-5.302-2.063-1.367-1.375-2.05-3.21-2.05-5.502zm16.954 7.38v-14.76h4.523v14.76H47.54zm8.49 0V5.84h4.523v19.573h-4.523zm8.49 0v-14.76h4.523v14.76h-4.522zm18.25-7.38c0-1.199-.308-2.111-.925-2.737-.617-.626-1.349-.94-2.195-.94-.847 0-1.574.314-2.182.94-.609.626-.913 1.538-.913 2.737 0 1.2.313 2.117.94 2.751.625.635 1.361.953 2.208.953.846 0 1.569-.318 2.168-.953.6-.634.9-1.551.9-2.75zm-10.817-.026c0-2.275.74-4.095 2.222-5.462 1.48-1.367 3.315-2.05 5.501-2.05 2.187 0 4.016.683 5.488 2.05 1.473 1.367 2.209 3.187 2.209 5.462s-.732 4.109-2.195 5.502c-1.464 1.393-3.289 2.09-5.475 2.09-2.187 0-4.025-.697-5.515-2.09-1.49-1.393-2.235-3.227-2.235-5.502z" fill="#2f2e49"/><path fill="#FF3184" d="M47.601 8.566V4h4.566v4.566z"/><path fill="#39B3C2" d="M64.634 8.566V4H69.2v4.566z"/></g></svg>