<svg width="16" height="16" viewBox="0 0 16 16" xmlns="http://www.w3.org/2000/svg" xmlns:xlink="http://www.w3.org/1999/xlink">
    <defs>
        <path d="M6 5.333c.733 0 1.333-.6 1.333-1.333S6.733 2.667 6 2.667 4.667 3.267 4.667 4 5.267 5.333 6 5.333zm0 1.334c-.733 0-1.333.6-1.333 1.333S5.267 9.333 6 9.333 7.333 8.733 7.333 8 6.733 6.667 6 6.667zm0 4c-.733 0-1.333.6-1.333 1.333s.6 1.333 1.333 1.333 1.333-.6 1.333-1.333-.6-1.333-1.333-1.333z" id="khp96tiila"/>
        <path d="M10.667 5.333C11.4 5.333 12 4.733 12 4s-.6-1.333-1.333-1.333c-.734 0-1.334.6-1.334 1.333s.6 1.333 1.334 1.333zm0 1.334c-.734 0-1.334.6-1.334 1.333s.6 1.333 1.334 1.333C11.4 9.333 12 8.733 12 8s-.6-1.333-1.333-1.333zm0 4c-.734 0-1.334.6-1.334 1.333s.6 1.333 1.334 1.333c.733 0 1.333-.6 1.333-1.333s-.6-1.333-1.333-1.333z" id="9fjd0brshc"/>
    </defs>
    <g fill="none" fill-rule="evenodd">
        <mask id="ojjq8xkdnb" fill="#fff">
            <use xlink:href="#khp96tiila"/>
        </mask>
        <g mask="url(#ojjq8xkdnb)" fill="#CBC9C9">
            <path d="M-10.667-8.667h33.333v33.333h-33.333z"/>
        </g>
        <mask id="7akrl88trd" fill="#fff">
            <use xlink:href="#9fjd0brshc"/>
        </mask>
        <g mask="url(#7akrl88trd)" fill="#CBC9C9">
            <path d="M-6-8.667h33.333v33.333H-6z"/>
        </g>
    </g>
</svg>
