<svg xmlns="http://www.w3.org/2000/svg" viewBox="0 0 512 512">
  <path d="M201.941 303.3a6.76 6.76 0 006.757 6.758h27.03a6.76 6.76 0 006.757-6.757v-40.544a6.76 6.76 0 00-6.757-6.757h-27.029a6.76 6.76 0 00-6.757 6.757V303.3zm13.515-33.785h13.515v27.029h-13.515v-27.03zM208.7 228.971h27.028a6.76 6.76 0 006.757-6.757V181.67a6.76 6.76 0 00-6.757-6.757h-27.029a6.76 6.76 0 00-6.757 6.757v40.544a6.759 6.759 0 006.757 6.757zm6.756-40.544h13.515v27.03h-13.515v-27.03z"/>
  <path d="M158.12 180.703L256 121.976l97.879 58.727a6.715 6.715 0 003.473.966 6.746 6.746 0 005.798-3.277 6.753 6.753 0 00-2.31-9.271l-98.083-58.849V66.796h33.787v13.515h-20.272a6.76 6.76 0 00-6.757 6.757 6.76 6.76 0 006.757 6.757H303.3a6.76 6.76 0 006.757-6.757v-27.03a6.76 6.76 0 00-6.757-6.757H256a6.76 6.76 0 00-6.757 6.757v50.234l-98.082 58.85a6.753 6.753 0 00-2.31 9.27c1.911 3.197 6.073 4.237 9.27 2.311zM127.612 310.059a6.76 6.76 0 006.757-6.758v-40.543a6.76 6.76 0 00-6.757-6.757h-27.03a6.76 6.76 0 00-6.757 6.757v13.514c0 3.73 3.027 6.757 6.757 6.757s6.757-3.028 6.757-6.757v-6.757h13.515V303.3a6.76 6.76 0 006.758 6.758zM174.912 397.903V201.941a6.76 6.76 0 00-6.757-6.757 6.76 6.76 0 00-6.757 6.757v195.962a6.76 6.76 0 006.757 6.757 6.76 6.76 0 006.757-6.757z"/>
  <path d="M141.126 431.69h229.747c3.73 0 6.757-3.028 6.757-6.757s-3.027-6.757-6.757-6.757h-60.815v-67.573h6.757c3.73 0 6.757-3.027 6.757-6.757s-3.028-6.757-6.757-6.757h-121.63c-3.73 0-6.758 3.027-6.758 6.757s3.028 6.757 6.757 6.757h6.757v67.572h-60.815c-3.73 0-6.757 3.027-6.757 6.757s3.027 6.758 6.757 6.758zm121.63-40.544c3.73 0 6.758-3.027 6.758-6.757s-3.027-6.757-6.757-6.757v-27.029h33.787v67.572h-33.787v-27.029zm-47.3-40.544h33.787v27.03c-3.73 0-6.757 3.026-6.757 6.756s3.027 6.757 6.757 6.757v27.03h-33.787v-67.573zM411.418 343.844h-27.029a6.76 6.76 0 00-6.757 6.757v40.544a6.76 6.76 0 006.757 6.757h27.029a6.76 6.76 0 006.757-6.757v-40.544a6.76 6.76 0 00-6.757-6.757zm-6.758 40.544h-13.515V357.36h13.515v27.03zM411.418 262.757h-27.029a6.76 6.76 0 00-6.757 6.757v40.544a6.76 6.76 0 006.757 6.757h27.029a6.76 6.76 0 006.757-6.757v-40.544a6.76 6.76 0 00-6.757-6.757zM404.66 303.3h-13.515v-27.03h13.515v27.03zM397.903 445.204H114.097c-3.73 0-6.757 3.027-6.757 6.757s3.027 6.758 6.757 6.758h283.806c3.73 0 6.757-3.028 6.757-6.757s-3.027-6.758-6.757-6.758z"/>
  <path d="M451.962 201.941a6.76 6.76 0 00-6.757 6.757v6.757h-74.33a6.76 6.76 0 00-6.758 6.757 6.76 6.76 0 006.757 6.757h74.33V451.96c0 3.73 3.028 6.757 6.758 6.757s6.757-3.027 6.757-6.757V208.698a6.76 6.76 0 00-6.757-6.757zM269.515 303.3a6.76 6.76 0 006.757 6.758H303.3a6.76 6.76 0 006.757-6.757v-40.544A6.76 6.76 0 00303.3 256h-27.03a6.76 6.76 0 00-6.756 6.757V303.3zm13.514-33.785h13.515v27.029h-13.515v-27.03zM120.854 384.388c0-.878-.385-87.844-33.787-87.844-33.401 0-33.786 86.966-33.786 87.844 0 16.319 11.63 29.962 27.03 33.104v34.47a6.76 6.76 0 006.756 6.757 6.76 6.76 0 006.757-6.757v-34.47c15.4-3.142 27.03-16.785 27.03-33.104zM87.068 404.66c-11.177 0-20.272-9.095-20.272-20.272 0-33.665 9.042-74.33 20.272-74.33 11.23 0 20.272 40.665 20.272 74.33 0 11.177-9.096 20.272-20.272 20.272zM350.602 397.903V195.184c0-3.73-3.027-6.757-6.757-6.757s-6.757 3.028-6.757 6.757v202.719c0 3.73 3.028 6.757 6.757 6.757s6.757-3.027 6.757-6.757zM276.272 228.971H303.3a6.76 6.76 0 006.757-6.757V181.67a6.76 6.76 0 00-6.757-6.757h-27.03a6.76 6.76 0 00-6.756 6.757v40.544a6.76 6.76 0 006.757 6.757zm6.757-40.544h13.515v27.03h-13.515v-27.03zM60.038 289.787a6.76 6.76 0 006.757-6.757V228.97h74.33a6.76 6.76 0 006.758-6.757 6.76 6.76 0 00-6.757-6.757h-74.33V208.7c0-3.73-3.027-6.757-6.757-6.757s-6.758 3.026-6.758 6.756v74.33a6.76 6.76 0 006.757 6.758z"/>
</svg>