<svg width="20" height="20" viewBox="0 0 20 20" xmlns="http://www.w3.org/2000/svg">
    <path d="M10 20a9.738 9.738 0 0 1-3.9-.788 10.099 10.099 0 0 1-3.175-2.137c-.9-.9-1.612-1.958-2.137-3.175A9.738 9.738 0 0 1 0 10c0-1.383.263-2.683.787-3.9a10.099 10.099 0 0 1 2.138-3.175c.9-.9 1.958-1.612 3.175-2.137A9.738 9.738 0 0 1 10 0c1.383 0 2.683.263 3.9.787a10.099 10.099 0 0 1 3.175 2.138c.9.9 1.613 1.958 2.137 3.175A9.738 9.738 0 0 1 20 10v1.325c0 .933-.33 1.72-.988 2.363-.658.641-1.462.962-2.412.962a3.49 3.49 0 0 1-1.7-.438 2.972 2.972 0 0 1-1.225-1.237 3.954 3.954 0 0 1-1.625 1.263 5.208 5.208 0 0 1-2.05.412c-1.3 0-2.404-.45-3.313-1.35-.908-.9-1.362-2-1.362-3.3 0-1.3.454-2.408 1.362-3.325C7.596 5.758 8.7 5.3 10 5.3c1.3 0 2.404.458 3.313 1.375.908.917 1.362 2.025 1.362 3.325v1.325c0 .517.188.95.563 1.3.375.35.829.525 1.362.525.517 0 .962-.175 1.337-.525.375-.35.563-.783.563-1.3V10c0-2.367-.825-4.375-2.475-6.025C14.375 2.325 12.367 1.5 10 1.5c-2.367 0-4.375.825-6.025 2.475C2.325 5.625 1.5 7.633 1.5 10c0 2.367.825 4.375 2.475 6.025C5.625 17.675 7.633 18.5 10 18.5h5.35V20H10zm0-6.85c.883 0 1.633-.304 2.25-.912.617-.609.925-1.355.925-2.238 0-.9-.308-1.658-.925-2.275S10.883 6.8 10 6.8s-1.633.308-2.25.925S6.825 9.1 6.825 10c0 .883.308 1.63.925 2.238.617.608 1.367.912 2.25.912z" fill="#9494A0" fill-rule="nonzero"/>
</svg>
