<svg width="20" height="20" viewBox="0 0 20 20" xmlns="http://www.w3.org/2000/svg">
    <path d="M11.47 7.11h-.96V4.17c0-.84-.69-1.53-1.53-1.53-.39 0-.76.15-1.05.42l-6.2 5.81c-.31.29-.48.7-.48 1.12 0 .42.18.83.48 1.12l6.2 5.82c.29.27.66.42 1.05.42.85 0 1.53-.69 1.53-1.53V13h.96c2.88 0 5.1 1.45 6.08 3.98.09.24.33.4.58.4.04 0 .08 0 .12-.01.3-.06.51-.31.51-.61v-2.34c0-4.03-3.26-7.29-7.29-7.29v-.02zm6.04 7.32c-1.41-1.72-3.54-2.69-6.04-2.69H9.51c-.14 0-.25.11-.25.25v3.82c0 .17-.14.28-.28.28a.25.25 0 0 1-.19-.08l-6.22-5.84c-.11-.1-.11-.27 0-.36l6.22-5.84c.06-.05.12-.08.19-.08.14 0 .28.11.28.28v3.94c0 .14.11.25.25.25h1.96c3.34 0 6.04 2.7 6.04 6.04v.03z" fill="#324056" fill-rule="nonzero"/>
</svg>
