<svg width="20" height="20" viewBox="0 0 20 20" xmlns="http://www.w3.org/2000/svg">
    <path d="M13.65 8.675c.383 0 .704-.13.963-.388.258-.258.387-.579.387-.962s-.13-.704-.387-.963a1.307 1.307 0 0 0-.963-.387c-.383 0-.704.13-.963.388-.258.258-.387.579-.387.962s.13.704.387.962c.259.259.58.388.963.388zm-7.3 0c.383 0 .704-.13.963-.388.258-.258.387-.579.387-.962s-.13-.704-.388-.963a1.307 1.307 0 0 0-.962-.387c-.383 0-.704.13-.962.388-.259.258-.388.579-.388.962s.13.704.388.962c.258.259.579.388.962.388zm3.65 6.8c1.1 0 2.113-.296 3.037-.887a5.09 5.09 0 0 0 2.013-2.413h-1.3a3.937 3.937 0 0 1-1.575 1.537 4.472 4.472 0 0 1-2.15.538 4.682 4.682 0 0 1-2.188-.525 3.643 3.643 0 0 1-1.562-1.55H4.95a5.26 5.26 0 0 0 2.025 2.412 5.465 5.465 0 0 0 3.025.888zM10 20a9.676 9.676 0 0 1-3.875-.788 10.143 10.143 0 0 1-3.188-2.15 10.143 10.143 0 0 1-2.15-3.187A9.738 9.738 0 0 1 0 9.975C0 8.608.263 7.317.787 6.1a9.994 9.994 0 0 1 2.15-3.175A10.25 10.25 0 0 1 6.126.788a9.738 9.738 0 0 1 3.9-.788c1.367 0 2.658.263 3.875.787a10.099 10.099 0 0 1 3.175 2.138c.9.9 1.613 1.958 2.137 3.175A9.738 9.738 0 0 1 20 10a9.676 9.676 0 0 1-.788 3.875 10.25 10.25 0 0 1-2.137 3.188 9.994 9.994 0 0 1-3.175 2.15A9.738 9.738 0 0 1 10 20zm0-1.5c2.367 0 4.375-.83 6.025-2.488C17.675 14.354 18.5 12.35 18.5 10c0-2.367-.825-4.375-2.475-6.025C14.375 2.325 12.367 1.5 10 1.5c-2.35 0-4.354.825-6.013 2.475C2.33 5.625 1.5 7.633 1.5 10c0 2.35.83 4.354 2.487 6.012C5.646 17.671 7.65 18.5 10 18.5z" fill="#9494A0" fill-rule="nonzero"/>
</svg>
