<svg width="26" height="14" viewBox="0 0 26 14" xmlns="http://www.w3.org/2000/svg">
    <path d="M7.085 14h13.91v-1.273H7.052c-1.603 0-2.962-.557-4.078-1.67C1.858 9.943 1.3 8.59 1.3 7c0-1.57.547-2.917 1.641-4.04 1.094-1.125 2.432-1.687 4.014-1.687h14.04c1.04 0 1.918.355 2.633 1.066.715.71 1.072 1.575 1.072 2.593s-.357 1.882-1.072 2.593c-.715.71-1.593 1.066-2.633 1.066H8.157c-.455 0-.845-.154-1.17-.461A1.495 1.495 0 0 1 6.5 7c0-.445.168-.822.504-1.13a1.699 1.699 0 0 1 1.186-.46h12.805V4.135H8.222c-.823 0-1.532.276-2.128.828A2.666 2.666 0 0 0 5.2 7c0 .806.287 1.485.861 2.036.574.552 1.273.828 2.097.828h12.837c1.387 0 2.567-.483 3.543-1.448C25.512 7.45 26 6.289 26 4.932c0-1.358-.488-2.52-1.462-3.484C23.562.483 22.382 0 20.995 0H7.02C5.048 0 3.385.684 2.031 2.052.677 3.42 0 5.07 0 7c0 1.93.688 3.58 2.064 4.948C3.44 13.316 5.114 14 7.085 14z" fill="#27BADC" fill-rule="nonzero"/>
</svg>
