<?xml version="1.0" encoding="UTF-8"?>
<svg width="512px" height="512px" viewBox="0 0 512 512" version="1.1" xmlns="http://www.w3.org/2000/svg" xmlns:xlink="http://www.w3.org/1999/xlink">
    <title>Artboard Copy 10</title>
    <g id="Artboard-Copy-10" stroke="none" stroke-width="1" fill="none" fill-rule="evenodd" transform="translate(-0.000000, 0.000000)">
        <g id="Icon-24px" transform="translate(0.000000, 0.000000)">
            <path d="M352,128 L352,373.333333 C352,420.48 313.813333,458.666667 266.666667,458.666667 C219.52,458.666667 181.333333,420.48 181.333333,373.333333 L181.333333,106.666667 C181.333333,77.2266667 205.226667,53.3333333 234.666667,53.3333333 C264.106667,53.3333333 288,77.2266667 288,106.666667 L288,330.666667 C288,342.4 278.4,352 266.666667,352 C254.933333,352 245.333333,342.4 245.333333,330.666667 L245.333333,128 L213.333333,128 L213.333333,330.666667 C213.333333,360.106667 237.226667,384 266.666667,384 C296.106667,384 320,360.106667 320,330.666667 L320,106.666667 C320,59.52 281.813333,21.3333333 234.666667,21.3333333 C187.52,21.3333333 149.333333,59.52 149.333333,106.666667 L149.333333,373.333333 C149.333333,438.186667 201.813333,490.666667 266.666667,490.666667 C331.52,490.666667 384,438.186667 384,373.333333 L384,128 L352,128 L352,128 Z" id="Shape" fill="#2E2E49"></path>
            <polygon id="Shape" points="0 0 512 0 512 512 0 512"></polygon>
        </g>
    </g>
</svg>