<?xml version="1.0" encoding="UTF-8"?><svg version="1.1" width="16px" height="16px" viewBox="0 0 16.0 16.0" xmlns="http://www.w3.org/2000/svg" xmlns:xlink="http://www.w3.org/1999/xlink"><defs><clipPath id="i0"><path d="M1440,0 L1440,1023 L0,1023 L0,0 L1440,0 Z"></path></clipPath><clipPath id="i1"><path d="M14.6797749,0 C15.4077364,0 16,0.656046029 16,1.46240378 L16,11.3352212 C16,12.1416272 15.4077364,12.7976732 14.6797749,12.7976732 L6.14,12.797 L4.1802107,15.2418136 C3.83474732,15.6727121 3.20538168,15.7419709 2.77448321,15.3965075 C2.53775589,15.2067166 2.4,14.9197114 2.4,14.6162968 L2.4,12.797 L1.32022515,12.7976732 C0.592263557,12.7976732 0,12.1416272 0,11.3352212 L0,1.46240378 C0,0.655997791 0.592263557,0 1.32022515,0 L14.6797749,0 Z"></path></clipPath></defs><g transform="translate(-217.0 -334.0)"><g clip-path="url(#i0)"><g transform="translate(215.0 332.0)"><g transform="translate(2.0 2.0000000000000027)"><g clip-path="url(#i1)"><polygon points="0,0 16,0 16,15.616333 0,15.616333 0,0" stroke="none" fill="#5B75FF"></polygon></g></g></g></g></g></svg>