<?xml version="1.0" encoding="UTF-8"?><svg version="1.1" width="24px" height="24px" viewBox="0 0 24.0 24.0" xmlns="http://www.w3.org/2000/svg" xmlns:xlink="http://www.w3.org/1999/xlink"><defs><clipPath id="i0"><path d="M18.3497186,0 C19.2596706,0 20,0.820206635 20,1.82833708 L20,14.1716026 C20,15.1797934 19.2596706,16 18.3497186,16 L7.674,16 L4.7802662,19.6108794 C4.43484104,20.0418086 3.80548155,20.1111232 3.37455243,19.7656981 C3.13778401,19.5759087 3,19.2888776 3,18.9854319 L3,16 L1.65028143,16 C0.740329447,16 0,15.1797934 0,14.1716026 L0,1.82833708 C0,0.820146325 0.740329447,0 1.65028143,0 L18.3497186,0 Z"></path></clipPath></defs><g transform="translate(2.0 2.0000000000000018)"><g clip-path="url(#i0)"><polygon points="0,0 20,0 20,19.9854681 0,19.9854681 0,0" stroke="none" fill="#FFFFFF"></polygon></g></g></svg>