<?xml version="1.0" encoding="utf-8"?>
<!-- Generator: Adobe Illustrator 26.5.0, SVG Export Plug-In . SVG Version: 6.00 Build 0)  -->
<svg version="1.1" id="Layer_1" xmlns="http://www.w3.org/2000/svg" xmlns:xlink="http://www.w3.org/1999/xlink" x="0px" y="0px"
	 viewBox="0 0 248 157" style="enable-background:new 0 0 248 157;" xml:space="preserve">
<style type="text/css">
	.st0{enable-background:new    ;}
	.st1{fill:#191A45;}
	.st2{fill-rule:evenodd;clip-rule:evenodd;fill:#DDDDF0;}
	.st3{fill-rule:evenodd;clip-rule:evenodd;fill:#FFFFFF;}
	.st4{fill:#7176C4;}
	.st5{fill-rule:evenodd;clip-rule:evenodd;fill:#DBDBF3;}
	.st6{fill-rule:evenodd;clip-rule:evenodd;fill:#BCBCE2;}
	.st7{fill-rule:evenodd;clip-rule:evenodd;fill:#E5E5F6;}
	.st8{opacity:0.5;}
	.st9{fill-rule:evenodd;clip-rule:evenodd;fill:#7176C4;}
</style>
<g id="Web_v3">
	<g id="_x31_440_x2F_SR_x2F_empty-state" transform="translate(-412.000000, -544.000000)">
		<g id="Group-33" transform="translate(412.000000, 545.000000)">
			<g class="st0">
				<path class="st1" d="M17.2,127.7l7.3,11.3v-11.3h1.8V142h-1.8l-7.3-11.3V142h-1.8v-14.3H17.2z"/>
				<path class="st1" d="M32.2,141.9c-0.6-0.3-1.1-0.6-1.6-1.1s-0.8-1-1-1.7c-0.2-0.7-0.3-1.4-0.3-2.3c0-0.8,0.1-1.6,0.4-2.3
					c0.2-0.7,0.6-1.3,1-1.7c0.4-0.5,1-0.8,1.6-1.1c0.6-0.3,1.3-0.4,2.1-0.4c0.8,0,1.5,0.1,2.1,0.4c0.6,0.3,1.1,0.6,1.6,1.1
					c0.4,0.5,0.8,1,1,1.7c0.2,0.7,0.3,1.4,0.3,2.3c0,0.9-0.1,1.6-0.4,2.3c-0.2,0.7-0.6,1.3-1,1.7c-0.4,0.5-1,0.9-1.6,1.1
					c-0.6,0.3-1.3,0.4-2.1,0.4C33.5,142.3,32.8,142.2,32.2,141.9z M35.8,140.6c0.4-0.2,0.7-0.5,1-0.8c0.3-0.4,0.5-0.8,0.6-1.3
					s0.2-1,0.2-1.7c0-0.6-0.1-1.1-0.2-1.6s-0.3-0.9-0.6-1.3c-0.3-0.4-0.6-0.6-1-0.8c-0.4-0.2-0.9-0.3-1.4-0.3s-1,0.1-1.4,0.3
					c-0.4,0.2-0.7,0.5-1,0.8c-0.3,0.4-0.5,0.8-0.6,1.3s-0.2,1-0.2,1.6c0,0.6,0.1,1.1,0.2,1.6c0.1,0.5,0.3,0.9,0.6,1.3
					c0.3,0.4,0.6,0.6,1,0.8c0.4,0.2,0.9,0.3,1.4,0.3S35.4,140.8,35.8,140.6z"/>
				<path class="st1" d="M58.6,139.3c-0.3,0.6-0.7,1.2-1.1,1.6s-1.1,0.8-1.8,1.1c-0.7,0.3-1.5,0.4-2.4,0.4c-1,0-1.9-0.2-2.7-0.5
					c-0.8-0.3-1.5-0.8-2-1.5c-0.5-0.6-1-1.4-1.3-2.4c-0.3-0.9-0.5-2-0.5-3.2c0-1.2,0.2-2.3,0.5-3.2c0.3-0.9,0.8-1.7,1.3-2.4
					c0.6-0.6,1.3-1.1,2-1.5c0.8-0.3,1.6-0.5,2.5-0.5c0.9,0,1.6,0.1,2.3,0.3s1.2,0.5,1.6,1s0.8,0.9,1.1,1.5s0.5,1.2,0.6,1.9l-1.8,0.3
					c-0.1-0.5-0.3-1-0.5-1.4s-0.4-0.8-0.7-1.1c-0.3-0.3-0.7-0.5-1.1-0.7c-0.4-0.2-0.9-0.2-1.5-0.2c-0.7,0-1.3,0.1-1.9,0.4
					c-0.6,0.3-1,0.7-1.4,1.2c-0.4,0.5-0.7,1.1-0.9,1.9c-0.2,0.7-0.3,1.5-0.3,2.4s0.1,1.7,0.3,2.4c0.2,0.7,0.5,1.4,0.9,1.9
					c0.4,0.5,0.8,0.9,1.4,1.2c0.6,0.3,1.2,0.4,1.9,0.4c0.7,0,1.2-0.1,1.7-0.2s0.8-0.4,1.1-0.7c0.3-0.3,0.5-0.7,0.7-1.1
					s0.3-0.9,0.4-1.4h1.9C59,138,58.8,138.7,58.6,139.3z"/>
				<path class="st1" d="M64.2,141.9c-0.6-0.3-1.1-0.6-1.6-1.1s-0.8-1-1-1.7c-0.2-0.7-0.3-1.4-0.3-2.3c0-0.8,0.1-1.6,0.4-2.3
					c0.2-0.7,0.6-1.3,1-1.7c0.4-0.5,1-0.8,1.6-1.1c0.6-0.3,1.3-0.4,2.1-0.4c0.8,0,1.5,0.1,2.1,0.4c0.6,0.3,1.1,0.6,1.6,1.1
					c0.4,0.5,0.8,1,1,1.7c0.2,0.7,0.3,1.4,0.3,2.3c0,0.9-0.1,1.6-0.4,2.3c-0.2,0.7-0.6,1.3-1,1.7c-0.4,0.5-1,0.9-1.6,1.1
					c-0.6,0.3-1.3,0.4-2.1,0.4C65.5,142.3,64.8,142.2,64.2,141.9z M67.8,140.6c0.4-0.2,0.7-0.5,1-0.8c0.3-0.4,0.5-0.8,0.6-1.3
					s0.2-1,0.2-1.7c0-0.6-0.1-1.1-0.2-1.6s-0.3-0.9-0.6-1.3c-0.3-0.4-0.6-0.6-1-0.8c-0.4-0.2-0.9-0.3-1.4-0.3s-1,0.1-1.4,0.3
					c-0.4,0.2-0.7,0.5-1,0.8c-0.3,0.4-0.5,0.8-0.6,1.3s-0.2,1-0.2,1.6c0,0.6,0.1,1.1,0.2,1.6c0.1,0.5,0.3,0.9,0.6,1.3
					c0.3,0.4,0.6,0.6,1,0.8c0.4,0.2,0.9,0.3,1.4,0.3S67.4,140.8,67.8,140.6z"/>
				<path class="st1" d="M75.9,131.7v1.6c0.5-0.7,1.1-1.2,1.7-1.5c0.6-0.3,1.3-0.4,1.9-0.4c1.2,0,2,0.3,2.6,1
					c0.6,0.6,0.9,1.6,0.9,2.8v6.9h-1.7v-6.5c0-1-0.2-1.6-0.5-2c-0.3-0.4-0.9-0.6-1.6-0.6c-0.4,0-0.8,0.1-1.1,0.2
					c-0.4,0.1-0.7,0.3-1,0.6c-0.3,0.3-0.6,0.6-0.8,0.9s-0.3,0.8-0.3,1.3v6.1h-1.7v-10.3H75.9z"/>
				<path class="st1" d="M86.8,131.7l3.1,8.4l3.1-8.4h1.9L90.7,142h-1.9l-4.1-10.3H86.8z"/>
				<path class="st1" d="M104.3,141.5c-0.7,0.6-1.7,0.9-3.1,0.9c-1.6,0-2.8-0.5-3.6-1.4c-0.8-1-1.3-2.3-1.3-4c0-0.9,0.1-1.7,0.4-2.4
					c0.2-0.7,0.6-1.3,1-1.7c0.4-0.5,1-0.8,1.6-1.1c0.6-0.2,1.3-0.4,2-0.4c0.8,0,1.5,0.1,2.1,0.4c0.6,0.3,1,0.6,1.4,1
					c0.4,0.4,0.6,1,0.8,1.6c0.2,0.6,0.3,1.3,0.3,2v0.9h-7.7c0,0.5,0.1,1,0.2,1.5c0.1,0.4,0.3,0.8,0.6,1.2c0.3,0.3,0.6,0.6,1,0.8
					s0.8,0.3,1.3,0.3c0.9,0,1.5-0.2,1.9-0.5c0.4-0.3,0.7-0.8,0.8-1.3h1.7C105.4,140.1,105,140.9,104.3,141.5z M103.9,134.6
					c-0.1-0.4-0.3-0.7-0.5-1c-0.2-0.3-0.5-0.5-0.9-0.7c-0.4-0.2-0.8-0.2-1.3-0.2c-0.9,0-1.6,0.3-2.2,0.8c-0.5,0.6-0.8,1.4-0.9,2.4
					h5.9C104,135.5,104,135,103.9,134.6z"/>
				<path class="st1" d="M110.3,131.7v1.6c0.4-0.6,0.8-1,1.4-1.3s1.1-0.5,1.7-0.5c0.4,0,0.7,0,0.9,0.1l-0.2,1.6
					c-0.1,0-0.3,0-0.4-0.1c-0.1,0-0.3,0-0.4,0c-0.3,0-0.6,0.1-1,0.2s-0.6,0.3-0.9,0.6c-0.3,0.3-0.5,0.5-0.7,0.9
					c-0.2,0.3-0.2,0.7-0.2,1.2v6.1h-1.7v-10.3H110.3z"/>
				<path class="st1" d="M118.2,140.5c0.5,0.3,1.2,0.4,2,0.4c0.9,0,1.5-0.2,1.9-0.5s0.6-0.7,0.6-1.2c0-0.2,0-0.4-0.1-0.6
					c0-0.2-0.1-0.3-0.3-0.5c-0.1-0.1-0.3-0.3-0.6-0.4c-0.2-0.1-0.6-0.2-0.9-0.3l-1.3-0.2c-0.6-0.1-1.1-0.2-1.5-0.4s-0.8-0.3-1.1-0.6
					s-0.5-0.5-0.7-0.9c-0.2-0.3-0.2-0.8-0.2-1.2c0-0.5,0.1-0.9,0.3-1.3c0.2-0.4,0.5-0.7,0.9-1c0.4-0.3,0.8-0.5,1.3-0.6
					s1-0.2,1.6-0.2c0.7,0,1.4,0.1,1.9,0.2c0.5,0.1,0.9,0.3,1.2,0.6c0.3,0.3,0.6,0.6,0.7,0.9c0.2,0.3,0.3,0.7,0.4,1.1l-1.6,0.3
					c-0.1-0.3-0.2-0.5-0.3-0.7c-0.1-0.2-0.3-0.4-0.5-0.5c-0.2-0.1-0.4-0.2-0.7-0.3c-0.3-0.1-0.6-0.1-1.1-0.1c-0.5,0-0.9,0-1.2,0.1
					c-0.3,0.1-0.6,0.2-0.8,0.4s-0.3,0.3-0.4,0.5c-0.1,0.2-0.1,0.4-0.1,0.6c0,0.2,0,0.4,0.1,0.6c0.1,0.2,0.2,0.3,0.3,0.4
					c0.1,0.1,0.3,0.2,0.6,0.3s0.6,0.2,1,0.2l1.5,0.2c1.2,0.2,2.1,0.5,2.6,1s0.8,1.2,0.8,2.2c0,0.4-0.1,0.8-0.3,1.2
					c-0.2,0.4-0.4,0.7-0.8,1s-0.8,0.5-1.3,0.6s-1.1,0.2-1.8,0.2c-0.6,0-1.2-0.1-1.8-0.2s-1-0.3-1.4-0.6c-0.4-0.3-0.7-0.6-1-1
					s-0.4-0.9-0.4-1.6h1.7C117.5,139.7,117.8,140.2,118.2,140.5z"/>
				<path class="st1" d="M132.2,141.8c-0.6,0.3-1.3,0.5-2.1,0.5c-0.5,0-1-0.1-1.4-0.2s-0.8-0.3-1.1-0.6s-0.6-0.6-0.7-1
					s-0.3-0.8-0.3-1.4c0-0.7,0.1-1.3,0.5-1.7c0.3-0.4,0.7-0.8,1.2-1c0.5-0.3,1.1-0.4,1.7-0.5c0.6-0.1,1.3-0.2,1.9-0.2l1.8-0.1v-0.4
					c0-0.9-0.2-1.5-0.6-1.9c-0.4-0.4-1-0.6-1.8-0.6c-0.8,0-1.4,0.1-1.8,0.4s-0.6,0.6-0.8,1.1l-1.6-0.2c0.2-0.9,0.6-1.6,1.3-2.1
					c0.7-0.4,1.7-0.7,2.9-0.7c0.7,0,1.4,0.1,1.9,0.3c0.5,0.2,0.9,0.4,1.3,0.8c0.3,0.3,0.5,0.7,0.7,1.2c0.1,0.5,0.2,1,0.2,1.7v6.7
					h-1.7v-1.4C133.2,141,132.7,141.4,132.2,141.8z M131.9,136.9c-0.7,0-1.3,0.1-1.8,0.2s-0.8,0.2-1.1,0.4c-0.3,0.2-0.5,0.4-0.6,0.7
					c-0.1,0.3-0.2,0.6-0.2,0.9c0,0.5,0.2,0.9,0.5,1.2s0.8,0.5,1.6,0.5c1,0,1.8-0.3,2.4-0.8s0.9-1.2,0.9-2.1v-1.2L131.9,136.9z"/>
				<path class="st1" d="M137.4,133v-1.4h1.6v-2.8h1.7v2.8h2.7v1.4h-2.7v6.1c0,0.5,0.1,0.9,0.3,1.2s0.6,0.5,1,0.5
					c0.3,0,0.6,0,0.8-0.1s0.4-0.1,0.6-0.2l0.3,1.3c-0.3,0.1-0.6,0.2-0.9,0.2c-0.3,0.1-0.7,0.1-1.1,0.1c-0.6,0-1.1-0.1-1.4-0.3
					c-0.4-0.2-0.6-0.4-0.9-0.7c-0.2-0.3-0.4-0.7-0.4-1.1c-0.1-0.4-0.1-0.9-0.1-1.4V133H137.4z"/>
				<path class="st1" d="M147.7,127.7v2h-1.9v-2H147.7z M147.6,131.7V142h-1.7v-10.3H147.6z"/>
				<path class="st1" d="M153.4,141.9c-0.6-0.3-1.1-0.6-1.6-1.1s-0.8-1-1-1.7c-0.2-0.7-0.3-1.4-0.3-2.3c0-0.8,0.1-1.6,0.4-2.3
					c0.2-0.7,0.6-1.3,1-1.7c0.4-0.5,1-0.8,1.6-1.1c0.6-0.3,1.3-0.4,2.1-0.4c0.8,0,1.5,0.1,2.1,0.4c0.6,0.3,1.1,0.6,1.6,1.1
					c0.4,0.5,0.8,1,1,1.7c0.2,0.7,0.3,1.4,0.3,2.3c0,0.9-0.1,1.6-0.4,2.3c-0.2,0.7-0.6,1.3-1,1.7c-0.4,0.5-1,0.9-1.6,1.1
					c-0.6,0.3-1.3,0.4-2.1,0.4C154.7,142.3,154,142.2,153.4,141.9z M157,140.6c0.4-0.2,0.7-0.5,1-0.8c0.3-0.4,0.5-0.8,0.6-1.3
					s0.2-1,0.2-1.7c0-0.6-0.1-1.1-0.2-1.6s-0.3-0.9-0.6-1.3s-0.6-0.6-1-0.8s-0.9-0.3-1.4-0.3s-1,0.1-1.4,0.3c-0.4,0.2-0.7,0.5-1,0.8
					c-0.3,0.4-0.5,0.8-0.6,1.3s-0.2,1-0.2,1.6c0,0.6,0.1,1.1,0.2,1.6c0.1,0.5,0.3,0.9,0.6,1.3c0.3,0.4,0.6,0.6,1,0.8
					c0.4,0.2,0.9,0.3,1.4,0.3S156.5,140.8,157,140.6z"/>
				<path class="st1" d="M165.1,131.7v1.6c0.5-0.7,1.1-1.2,1.7-1.5c0.6-0.3,1.3-0.4,1.9-0.4c1.2,0,2,0.3,2.6,1
					c0.6,0.6,0.9,1.6,0.9,2.8v6.9h-1.7v-6.5c0-1-0.2-1.6-0.5-2c-0.3-0.4-0.9-0.6-1.6-0.6c-0.4,0-0.8,0.1-1.2,0.2
					c-0.4,0.1-0.7,0.3-1,0.6c-0.3,0.3-0.6,0.6-0.8,0.9c-0.2,0.3-0.3,0.8-0.3,1.3v6.1h-1.7v-10.3H165.1z"/>
				<path class="st1" d="M179.2,133v-1.4h1.6v-0.9c0-0.6,0.1-1,0.2-1.4c0.2-0.4,0.4-0.7,0.7-1c0.3-0.3,0.6-0.5,1-0.6
					c0.4-0.1,0.8-0.2,1.2-0.2c0.3,0,0.6,0,0.9,0c0.3,0,0.6,0.1,0.9,0.2l-0.3,1.4c-0.2-0.1-0.4-0.1-0.6-0.1c-0.2,0-0.4,0-0.6,0
					c-0.5,0-0.9,0.1-1.2,0.4s-0.5,0.7-0.5,1.4v0.9h2.6v1.4h-2.6v9h-1.7v-9H179.2z"/>
				<path class="st1" d="M189.5,141.9c-0.6-0.3-1.1-0.6-1.6-1.1s-0.8-1-1-1.7c-0.2-0.7-0.3-1.4-0.3-2.3c0-0.8,0.1-1.6,0.4-2.3
					c0.2-0.7,0.6-1.3,1-1.7c0.4-0.5,1-0.8,1.6-1.1c0.6-0.3,1.3-0.4,2.1-0.4c0.8,0,1.5,0.1,2.1,0.4s1.1,0.6,1.6,1.1
					c0.4,0.5,0.8,1,1,1.7s0.3,1.4,0.3,2.3c0,0.9-0.1,1.6-0.3,2.3c-0.2,0.7-0.6,1.3-1,1.7c-0.4,0.5-1,0.9-1.6,1.1
					c-0.6,0.3-1.3,0.4-2.1,0.4C190.8,142.3,190.1,142.2,189.5,141.9z M193.1,140.6c0.4-0.2,0.7-0.5,1-0.8c0.3-0.4,0.5-0.8,0.6-1.3
					s0.2-1,0.2-1.7c0-0.6-0.1-1.1-0.2-1.6s-0.3-0.9-0.6-1.3c-0.3-0.4-0.6-0.6-1-0.8c-0.4-0.2-0.9-0.3-1.4-0.3c-0.6,0-1,0.1-1.4,0.3
					s-0.7,0.5-1,0.8s-0.5,0.8-0.6,1.3s-0.2,1-0.2,1.6c0,0.6,0.1,1.1,0.2,1.6c0.1,0.5,0.3,0.9,0.6,1.3c0.3,0.4,0.6,0.6,1,0.8
					c0.4,0.2,0.9,0.3,1.4,0.3C192.2,140.9,192.7,140.8,193.1,140.6z"/>
				<path class="st1" d="M201.2,131.7v6.5c0,1,0.2,1.6,0.5,2s0.8,0.6,1.5,0.6c0.8,0,1.5-0.3,2.1-0.8c0.3-0.3,0.6-0.6,0.8-0.9
					c0.2-0.3,0.3-0.8,0.3-1.3v-6.1h1.7V142h-1.7v-1.6c-0.5,0.7-1.1,1.2-1.6,1.5s-1.2,0.5-1.9,0.5c-1.2,0-2-0.3-2.6-1
					c-0.5-0.6-0.8-1.6-0.8-2.9v-6.9H201.2z"/>
				<path class="st1" d="M212.9,131.7v1.6c0.5-0.7,1.1-1.2,1.7-1.5c0.6-0.3,1.3-0.4,1.9-0.4c1.2,0,2,0.3,2.6,1
					c0.6,0.6,0.8,1.6,0.8,2.8v6.9h-1.7v-6.5c0-1-0.2-1.6-0.5-2c-0.3-0.4-0.9-0.6-1.6-0.6c-0.4,0-0.8,0.1-1.2,0.2s-0.7,0.3-1,0.6
					c-0.3,0.3-0.6,0.6-0.8,0.9c-0.2,0.3-0.3,0.8-0.3,1.3v6.1h-1.7v-10.3H212.9z"/>
				<path class="st1" d="M229.1,141.8c-0.6,0.3-1.2,0.5-2,0.5s-1.4-0.1-2-0.4c-0.6-0.3-1-0.7-1.4-1.2c-0.4-0.5-0.6-1.1-0.8-1.7
					c-0.2-0.7-0.3-1.4-0.3-2.1c0-0.9,0.1-1.6,0.3-2.3c0.2-0.7,0.5-1.3,0.9-1.8c0.4-0.5,0.9-0.8,1.4-1.1c0.6-0.3,1.2-0.4,1.9-0.4
					c0.5,0,1.1,0.1,1.7,0.3c0.6,0.2,1.1,0.6,1.6,1.2v-5.2h1.7V142h-1.7v-1.5C230.2,141.1,229.7,141.5,229.1,141.8z M230.4,134.6
					c-0.2-0.5-0.5-0.9-0.9-1.2c-0.3-0.2-0.6-0.4-0.9-0.5c-0.3-0.1-0.6-0.1-1-0.1c-0.4,0-0.8,0.1-1.2,0.2c-0.4,0.1-0.7,0.4-1,0.7
					c-0.3,0.3-0.5,0.7-0.6,1.3s-0.2,1.1-0.2,1.9c0,0.8,0.1,1.4,0.2,1.9c0.2,0.5,0.4,0.9,0.7,1.2c0.3,0.3,0.6,0.5,0.9,0.7
					c0.3,0.1,0.7,0.2,1,0.2c0.4,0,0.7,0,1-0.1c0.3-0.1,0.6-0.3,0.9-0.5c0.4-0.3,0.7-0.7,0.9-1.2c0.2-0.5,0.3-1.1,0.3-1.8v-0.7
					C230.6,135.7,230.6,135,230.4,134.6z"/>
			</g>
			<g id="Group-32" transform="translate(45.341512, 0.000000)">
				<g id="Group-30" transform="translate(66.133333, 53.801563)">
					<g id="Path-3-Copy-4">
						<path class="st2" d="M99.5,48h-95C2,48,0,46,0,43.5v-30C0,11,2,9,4.5,9h95c2.5,0,4.5,2,4.5,4.5v30C104,46,102,48,99.5,48z"/>
					</g>
					<g id="Path-3-Copy-3">
						<path class="st3" d="M103.7,43.5h-95c-2.5,0-4.5-2-4.5-4.5V4.5C4.2,2,6.2,0,8.7,0h95c2.5,0,4.5,2,4.5,4.5V39
							C108.2,41.5,106.2,43.5,103.7,43.5z"/>
						<path class="st4" d="M103.7,44.3h-95c-2.9,0-5.2-2.4-5.2-5.2V4.5c0-2.9,2.4-5.2,5.2-5.2h95c2.9,0,5.2,2.4,5.2,5.2V39
							C109,41.9,106.6,44.3,103.7,44.3z M8.7,0.8C6.6,0.8,5,2.4,5,4.5V39c0,2.1,1.7,3.8,3.8,3.8h95c2.1,0,3.8-1.7,3.8-3.8V4.5
							c0-2.1-1.7-3.8-3.8-3.8H8.7z"/>
					</g>
					<g id="Rectangle-Copy-14">
						<path class="st5" d="M51.6,10.4h27.1c2.5,0,4.5,2,4.5,4.5v0c0,2.5-2,4.5-4.5,4.5H51.6c-2.5,0-4.5-2-4.5-4.5v0
							C47.1,12.4,49.1,10.4,51.6,10.4z"/>
					</g>
					<g id="Rectangle-Copy-15">
						<path class="st5" d="M49.4,32.9h21.1c1.2,0,2.2,1,2.2,2.2l0,0c0,1.2-1,2.2-2.2,2.2H49.4c-1.2,0-2.2-1-2.2-2.2l0,0
							C47.1,33.9,48.1,32.9,49.4,32.9z"/>
					</g>
					<g id="Rectangle-Copy-16">
						<path class="st6" d="M77.9,32.9h19.5c1.2,0,2.2,1,2.2,2.2l0,0c0,1.2-1,2.2-2.2,2.2H77.9c-1.2,0-2.2-1-2.2-2.2l0,0
							C75.7,33.9,76.7,32.9,77.9,32.9z"/>
					</g>
					<g id="Rectangle-Copy-17">
						<path class="st6" d="M49.4,25.4h7.5c1.2,0,2.2,1,2.2,2.2l0,0c0,1.2-1,2.2-2.2,2.2h-7.5c-1.2,0-2.2-1-2.2-2.2l0,0
							C47.1,26.4,48.1,25.4,49.4,25.4z"/>
					</g>
					<g id="Fill-13-Copy">
						<path class="st3" d="M43.8,21.7c0,7.8-6.3,14.1-14.2,14.1c-7.8,0-14.2-6.3-14.2-14.1S21.8,7.6,29.7,7.6
							C37.5,7.6,43.8,13.9,43.8,21.7"/>
					</g>
					<g id="Stroke-19-Copy">
						<path class="st4" d="M28.8,36.6c-8.7,0-15.8-7.1-15.8-15.7S20.1,5.1,28.8,5.1s15.8,7.1,15.8,15.7c0,1.2-0.1,2.5-0.4,3.6
							c-1.2,4.9-4.7,9-9.4,10.9C32.9,36.2,30.9,36.6,28.8,36.6z M28.8,6.6c-7.9,0-14.3,6.4-14.3,14.2s6.4,14.2,14.3,14.2
							c1.9,0,3.7-0.4,5.4-1.1c4.3-1.7,7.5-5.4,8.5-9.9c0.3-1.1,0.4-2.2,0.4-3.3C43.1,13,36.7,6.6,28.8,6.6z"/>
					</g>
					<g id="Group-29-Copy" transform="translate(20.099225, 9.570900)">
						<g id="Fill-57">
							<path class="st5" d="M16,8.8c0,4-3.2,7.2-7.2,7.2s-7.2-3.2-7.2-7.2c0-4,3.2-7.2,7.2-7.2S16,4.9,16,8.8"/>
						</g>
						<g id="Stroke-63">
							<path class="st4" d="M8.9,16.8c-0.1,0-0.2,0-0.4,0l-0.1,0l-0.1,0c-0.1,0-0.2,0-0.3,0c-4.8,0-8.8-3.9-8.8-8.8S3.2-0.7,8-0.7
								s8.8,3.9,8.8,8.8c0,0.1,0,0.2,0,0.3l0,0.1l0,0c0,0.1,0,0.2,0,0.4C16.8,13.2,13.2,16.8,8.9,16.8z M8.4,15.2l0.2,0
								c0.1,0,0.2,0,0.3,0c3.5,0,6.4-2.9,6.4-6.4c0-0.1,0-0.2,0-0.3l0-0.1l0-0.2c0-0.1,0-0.2,0-0.2c0-4-3.3-7.3-7.3-7.3S0.8,4,0.8,8
								S4,15.3,8,15.3c0.1,0,0.1,0,0.2,0L8.4,15.2z"/>
						</g>
					</g>
					<g id="Stroke-61-Copy-3">
						<path class="st4" d="M28.4,36.6c-5.5,0-9.7-2.3-12.5-6.9c-0.1-0.1-0.1-0.2-0.1-0.4c0-1.1,0-4.4,3.2-4.4h18.2
							c1.2,0,2.2,0.3,2.8,1c1.2,1.2,1.2,3,1.2,4.4c0,0.1,0,0.3-0.1,0.4c-2.6,3.8-6.8,5.8-12.5,5.9C28.6,36.6,28.5,36.6,28.4,36.6z
							 M17.3,29.1c2.5,4.1,6.2,6.1,11.3,6c5.1-0.1,8.8-1.7,11.1-5.1c0-1.1,0-2.4-0.7-3.1c-0.4-0.4-1-0.5-1.8-0.5H19
							C18,26.4,17.3,26.8,17.3,29.1z M40.5,30.2L40.5,30.2L40.5,30.2z"/>
					</g>
					<g id="Stroke-61-Copy-4">
						<path class="st5" d="M39.1,30.5c-2.2,2.7-5.6,4.1-10.4,4.1c-4.7,0-8.3-1.6-10.6-4.8c0-1.5,0.4-2.7,2.2-2.7h16
							C39.1,27.1,39.1,29,39.1,30.5z"/>
					</g>
				</g>
				<g id="Group-31" transform="translate(0.000000, 17.801563)">
					<g id="Path-3-Copy">
						<path class="st7" d="M112.1,43.5H8.1c-2.5,0-4.5-2-4.5-4.5V9c0-2.5,2-4.5,4.5-4.5h104c2.5,0,4.5,2,4.5,4.5v30
							C116.6,41.5,114.6,43.5,112.1,43.5z"/>
					</g>
					<g id="Path-3">
						<path class="st3" d="M114.2,43.5H4.5C2,43.5,0,41.5,0,39V4.5C0,2,2,0,4.5,0h109.7c2.5,0,4.5,2,4.5,4.5V39
							C118.7,41.5,116.7,43.5,114.2,43.5z"/>
						<path class="st4" d="M114.2,44.3H4.5c-2.9,0-5.2-2.4-5.2-5.2V4.5c0-2.9,2.4-5.2,5.2-5.2h109.7c2.9,0,5.2,2.4,5.2,5.2V39
							C119.5,41.9,117.1,44.3,114.2,44.3z M4.5,0.8c-2.1,0-3.8,1.7-3.8,3.8V39c0,2.1,1.7,3.8,3.8,3.8h109.7c2.1,0,3.8-1.7,3.8-3.8
							V4.5c0-2.1-1.7-3.8-3.8-3.8H4.5z"/>
					</g>
					<g id="Rectangle">
						<path class="st5" d="M45.6,10.4h27.1c2.5,0,4.5,2,4.5,4.5v0c0,2.5-2,4.5-4.5,4.5H45.6c-2.5,0-4.5-2-4.5-4.5v0
							C41.1,12.4,43.1,10.4,45.6,10.4z"/>
					</g>
					<g id="Rectangle-Copy-13">
						<path class="st5" d="M43.4,32.9h21.1c1.2,0,2.2,1,2.2,2.2l0,0c0,1.2-1,2.2-2.2,2.2H43.4c-1.2,0-2.2-1-2.2-2.2l0,0
							C41.1,33.9,42.1,32.9,43.4,32.9z"/>
					</g>
					<g id="Rectangle-Copy-11">
						<path class="st6" d="M71.9,32.9H105c1.2,0,2.2,1,2.2,2.2l0,0c0,1.2-1,2.2-2.2,2.2H71.9c-1.2,0-2.2-1-2.2-2.2l0,0
							C69.7,33.9,70.7,32.9,71.9,32.9z"/>
					</g>
					<g id="Rectangle-Copy-12">
						<path class="st6" d="M43.4,25.4h22.6c1.2,0,2.2,1,2.2,2.2l0,0c0,1.2-1,2.2-2.2,2.2H43.4c-1.2,0-2.2-1-2.2-2.2l0,0
							C41.1,26.4,42.1,25.4,43.4,25.4z"/>
					</g>
					<g id="Fill-13">
						<path class="st3" d="M37.8,21.7c0,7.8-6.3,14.1-14.2,14.1c-7.8,0-14.2-6.3-14.2-14.1S15.8,7.6,23.7,7.6
							C31.5,7.6,37.8,13.9,37.8,21.7"/>
					</g>
					<g id="Stroke-19">
						<path class="st4" d="M22.8,36.6C14.1,36.6,7,29.6,7,20.9c0-8.7,7.1-15.7,15.8-15.7s15.8,7.1,15.8,15.7c0,1.2-0.1,2.5-0.4,3.6
							c-1.2,4.9-4.7,9-9.4,10.9C26.9,36.2,24.9,36.6,22.8,36.6z M22.8,6.6C14.9,6.6,8.5,13,8.5,20.9c0,7.9,6.4,14.2,14.3,14.2
							c1.9,0,3.7-0.4,5.4-1.1c4.3-1.7,7.5-5.4,8.5-9.9c0.3-1.1,0.4-2.2,0.4-3.3C37.1,13,30.7,6.6,22.8,6.6z"/>
					</g>
					<g id="Group-29" transform="translate(14.087104, 9.570900)">
						<g id="Fill-57_00000055702978736714709930000002626296171467781550_">
							<path class="st5" d="M16,8.8c0,4-3.2,7.2-7.2,7.2s-7.2-3.2-7.2-7.2c0-4,3.2-7.2,7.2-7.2S16,4.9,16,8.8"/>
						</g>
						<g id="Stroke-63_00000009559344026433970300000012561005180099600291_">
							<path class="st4" d="M8.9,16.8c-0.1,0-0.3,0-0.4,0l-0.1,0c-0.1,0-0.2,0-0.3,0c-4.8,0-8.8-3.9-8.8-8.8S3.2-0.7,8-0.7
								s8.8,3.9,8.8,8.8c0,0.1,0,0.2,0,0.3l0,0.1c0,0.1,0,0.3,0,0.4C16.8,13.2,13.2,16.8,8.9,16.8z M8.4,15.2c0,0,0.2,0,0.2,0
								c0.1,0,0.2,0,0.3,0c3.5,0,6.4-2.9,6.4-6.4c0-0.1,0-0.2,0-0.3c0,0,0-0.1,0-0.1l0-0.2c0-0.1,0-0.2,0-0.2c0-4-3.3-7.3-7.3-7.3
								S0.8,4,0.8,8S4,15.3,8,15.3c0.1,0,0.2,0,0.2,0L8.4,15.2C8.4,15.2,8.4,15.2,8.4,15.2z"/>
						</g>
					</g>
					<g id="Stroke-61-Copy">
						<path class="st4" d="M22.4,36.6c-5.5,0-9.7-2.3-12.5-6.9c-0.1-0.1-0.1-0.2-0.1-0.4c0-1.1,0-4.4,3.2-4.4h18.2
							c1.2,0,2.2,0.3,2.8,1c1.2,1.2,1.2,3,1.2,4.4c0,0.1,0,0.3-0.1,0.4c-2.6,3.8-6.8,5.8-12.5,5.9C22.5,36.6,22.5,36.6,22.4,36.6z
							 M11.3,29.1c2.5,4.1,6.2,6.1,11.3,6c5.1-0.1,8.8-1.7,11.1-5.1c0-1.1,0-2.4-0.7-3.1c-0.4-0.4-0.9-0.6-1.8-0.5H13
							C12,26.4,11.3,26.8,11.3,29.1z M34.5,30.2L34.5,30.2L34.5,30.2z"/>
					</g>
					<g id="Stroke-61-Copy-2">
						<path class="st5" d="M33.1,30.5c-2.2,2.7-5.6,4.1-10.4,4.1c-4.7,0-8.3-1.6-10.6-4.8c0-1.5,0.4-2.7,2.2-2.7h16
							C33.1,27.1,33.1,29,33.1,30.5z"/>
					</g>
				</g>
				<g id="Oval">
					<ellipse class="st5" cx="88.2" cy="10.7" rx="2.2" ry="2.2"/>
				</g>
				<g id="Fill-33">
					<polygon class="st5" points="122.2,1.4 119.5,1.4 119.5,4.7 116.2,4.7 116.2,7.4 119.5,7.4 119.5,10.7 122.2,10.7 122.2,7.4 
						125.5,7.4 125.5,4.7 122.2,4.7 					"/>
				</g>
				<g id="Fill-1" class="st8">
					<path class="st5" d="M61.9,84.7c0,2.3-1.9,4.2-4.2,4.2c-2.3,0-4.2-1.9-4.2-4.2s1.9-4.2,4.2-4.2C60,80.4,61.9,82.3,61.9,84.7"/>
				</g>
			</g>
			<polygon id="Fill-33_00000092420886104958135380000014619572573817231548_" class="st6" points="40.8,76.2 38.3,73.8 35.4,76.7 
				32.5,73.8 30.1,76.2 33,79.1 30.1,82 32.5,84.5 35.4,81.5 38.3,84.5 40.8,82 37.8,79.1 			"/>
			<path id="Rectangle_00000018917987231727633230000015284894694620140682_" class="st9" d="M41.6,103.5h177.4
				c0.4,0,0.8,0.3,0.8,0.8l0,0c0,0.4-0.3,0.8-0.8,0.8H41.6c-0.4,0-0.8-0.3-0.8-0.8l0,0C40.8,103.8,41.2,103.5,41.6,103.5z"/>
			<path id="Rectangle-Copy-18" class="st9" d="M82.2,109.5h27.1c0.4,0,0.8,0.3,0.8,0.8l0,0c0,0.4-0.3,0.8-0.8,0.8H82.2
				c-0.4,0-0.8-0.3-0.8-0.8l0,0C81.4,109.8,81.8,109.5,82.2,109.5z"/>
			<path id="Rectangle-Copy-19" class="st9" d="M115.2,109.5h57.1c0.4,0,0.8,0.3,0.8,0.8l0,0c0,0.4-0.3,0.8-0.8,0.8h-57.1
				c-0.4,0-0.8-0.3-0.8-0.8l0,0C114.5,109.8,114.8,109.5,115.2,109.5z"/>
		</g>
	</g>
</g>
</svg>
