<svg width="20" height="20" viewBox="0 0 20 20" xmlns="http://www.w3.org/2000/svg" xmlns:xlink="http://www.w3.org/1999/xlink">
    <defs>
        <path d="M10 6.667c.917 0 1.667-.75 1.667-1.667S10.917 3.333 10 3.333 8.333 4.083 8.333 5 9.083 6.667 10 6.667zm0 1.666c-.917 0-1.667.75-1.667 1.667s.75 1.667 1.667 1.667 1.667-.75 1.667-1.667-.75-1.667-1.667-1.667zm0 5c-.917 0-1.667.75-1.667 1.667s.75 1.667 1.667 1.667 1.667-.75 1.667-1.667-.75-1.667-1.667-1.667z" id="29vgbm68na"/>
    </defs>
    <g fill="none" fill-rule="evenodd">
        <mask id="2x2qez274b" fill="#fff">
            <use xlink:href="#29vgbm68na"/>
        </mask>
        <g mask="url(#2x2qez274b)" fill="#324056">
            <path d="M-10.833-10.833h41.667v41.667h-41.667z"/>
        </g>
    </g>
</svg>
