<?xml version="1.0" encoding="UTF-8"?>
<svg width="512px" height="512px" viewBox="0 0 512 512" version="1.1" xmlns="http://www.w3.org/2000/svg" xmlns:xlink="http://www.w3.org/1999/xlink">
    <title>Artboard Copy 22</title>
    <g id="Artboard-Copy-22" stroke="none" stroke-width="1" fill="none" fill-rule="evenodd">
        <g id="Icon-24px">
            <polygon id="Shape" points="0 0 512 0 512 512 0 512"></polygon>
            <path d="M384,170.666667 L362.666667,170.666667 L362.666667,128 C362.666667,69.12 314.88,21.3333333 256,21.3333333 C197.12,21.3333333 149.333333,69.12 149.333333,128 L149.333333,170.666667 L128,170.666667 C104.533333,170.666667 85.3333333,189.866667 85.3333333,213.333333 L85.3333333,426.666667 C85.3333333,450.133333 104.533333,469.333333 128,469.333333 L384,469.333333 C407.466667,469.333333 426.666667,450.133333 426.666667,426.666667 L426.666667,213.333333 C426.666667,189.866667 407.466667,170.666667 384,170.666667 L384,170.666667 Z M256,362.666667 C232.533333,362.666667 213.333333,343.466667 213.333333,320 C213.333333,296.533333 232.533333,277.333333 256,277.333333 C279.466667,277.333333 298.666667,296.533333 298.666667,320 C298.666667,343.466667 279.466667,362.666667 256,362.666667 L256,362.666667 Z M322.133333,170.666667 L189.866667,170.666667 L189.866667,128 C189.866667,91.52 219.52,61.8666667 256,61.8666667 C292.48,61.8666667 322.133333,91.52 322.133333,128 L322.133333,170.666667 L322.133333,170.666667 Z" id="Shape" fill="#4f4f4f"></path>
        </g>
    </g>
</svg>
