<?xml version="1.0" encoding="UTF-8"?>
<svg width="60px" height="56px" viewBox="0 0 60 56" version="1.1" xmlns="http://www.w3.org/2000/svg" xmlns:xlink="http://www.w3.org/1999/xlink">
    <!-- Generator: Sketch 52.6 (67491) - http://www.bohemiancoding.com/sketch -->
    <title>alarm2</title>
    <desc>Created with Sketch.</desc>
    <g id="Page-1" stroke="none" stroke-width="1" fill="none" fill-rule="evenodd">
        <g id="alarm2" fill="#FFFFFF">
            <path d="M47.024,29.5 L47.024,20.506 C47.067,13.649 42.456,9.101 38.494,7.29 C37.359,6.771 36.189,6.371 35,6.074 L35,5.5 C35,2.743 32.757,0.5 30,0.5 C27.243,0.5 25,2.743 25,5.5 L25,6.161 C23.929,6.45 22.876,6.827 21.854,7.299 C17.476,9.317 13.04,14.181 13,20.5 L13,29.5 C13,35.888 10.744,41.369 6.295,45.791 C6.03,46.055 5.934,46.444 6.046,46.801 C6.158,47.158 6.461,47.422 6.83,47.486 L16.321,49.125 C18.089,49.43 19.717,49.68 21.266,49.886 C23.011,53.306 26.438,55.501 30.182,55.501 C33.927,55.501 37.355,53.305 39.099,49.883 C40.642,49.678 42.262,49.429 44.02,49.125 L53.51,47.486 C53.879,47.423 54.181,47.158 54.294,46.801 C54.407,46.445 54.311,46.055 54.045,45.791 C49.387,41.16 47.024,35.679 47.024,29.5 Z M27,5.5 C27,3.846 28.346,2.5 30,2.5 C31.654,2.5 33,3.846 33,5.5 L33,5.682 C31.007,5.396 28.985,5.408 27,5.729 L27,5.5 Z M30.183,53.5 C27.651,53.5 25.285,52.242 23.766,50.185 C26.001,50.415 28.087,50.531 30.172,50.531 C32.265,50.531 34.358,50.415 36.602,50.182 C35.082,52.241 32.715,53.5 30.183,53.5 Z M43.681,47.153 C41.762,47.484 40.003,47.753 38.341,47.965 C38.339,47.965 38.337,47.965 38.334,47.965 C37.601,48.058 36.889,48.139 36.192,48.209 C36.186,48.209 36.181,48.21 36.175,48.21 C35.536,48.274 34.912,48.326 34.294,48.37 C34.178,48.378 34.062,48.386 33.947,48.393 C33.412,48.428 32.883,48.456 32.357,48.476 C32.25,48.48 32.142,48.486 32.035,48.489 C30.791,48.531 29.564,48.531 28.321,48.49 C28.21,48.486 28.098,48.48 27.987,48.476 C27.47,48.455 26.949,48.429 26.422,48.394 C26.297,48.386 26.172,48.378 26.046,48.369 C25.447,48.326 24.841,48.276 24.222,48.214 C24.199,48.212 24.177,48.21 24.154,48.208 C23.462,48.139 22.756,48.058 22.03,47.966 C22.027,47.966 22.024,47.966 22.021,47.966 C20.353,47.755 18.587,47.484 16.66,47.152 L9,45.83 C12.983,41.276 15,35.792 15,29.5 L15,20.506 C15.034,15.071 18.888,10.869 22.691,9.115 C23.822,8.594 24.995,8.205 26.188,7.932 C26.198,7.93 26.209,7.931 26.219,7.929 C28.684,7.375 31.306,7.35 33.799,7.861 C33.812,7.864 33.825,7.858 33.838,7.86 C35.142,8.132 36.426,8.544 37.663,9.109 C41.352,10.796 45.059,14.97 45.024,20.501 L45.024,29.501 C45.024,35.534 47.199,41.144 51.337,45.832 L43.681,47.153 Z" id="Shape" fill-rule="nonzero"></path>
            <path d="M36.417,11.838 C32.542,10.067 27.797,10.065 23.948,11.84 C21.753,12.852 18.03,15.813 18,20.494 C17.997,21.046 18.441,21.496 18.994,21.5 C18.996,21.5 18.998,21.5 19,21.5 C19.549,21.5 19.997,21.057 20,20.506 C20.023,16.829 23.019,14.471 24.785,13.656 C28.115,12.119 32.231,12.123 35.584,13.656 C36.087,13.886 36.68,13.665 36.91,13.163 C37.14,12.66 36.918,12.067 36.417,11.838 Z" id="Path"></path>
            <path d="M4.802,20.793 C4.411,20.402 3.779,20.402 3.388,20.793 C1.203,22.978 0,25.886 0,28.983 C0,32.08 1.203,34.989 3.388,37.173 C3.583,37.368 3.839,37.466 4.095,37.466 C4.351,37.466 4.607,37.368 4.802,37.173 C5.193,36.782 5.193,36.15 4.802,35.759 C2.995,33.952 2,31.546 2,28.983 C2,26.42 2.995,24.013 4.802,22.207 C5.192,21.816 5.192,21.184 4.802,20.793 Z" id="Path"></path>
            <path d="M8.305,35.19 C8.561,35.19 8.817,35.092 9.012,34.897 C9.403,34.506 9.403,33.874 9.012,33.483 C6.454,30.925 6.454,26.764 9.012,24.207 C9.403,23.816 9.403,23.184 9.012,22.793 C8.621,22.402 7.989,22.402 7.598,22.793 C4.261,26.13 4.261,31.561 7.598,34.897 C7.793,35.093 8.049,35.19 8.305,35.19 Z" id="Path"></path>
            <path d="M56.612,20.793 C56.221,20.402 55.589,20.402 55.198,20.793 C54.807,21.184 54.807,21.816 55.198,22.207 C57.005,24.014 58,26.42 58,28.983 C58,31.546 57.005,33.952 55.198,35.759 C54.807,36.15 54.807,36.782 55.198,37.173 C55.393,37.368 55.649,37.466 55.905,37.466 C56.161,37.466 56.417,37.368 56.612,37.173 C58.797,34.989 60,32.08 60,28.983 C60,25.886 58.797,22.978 56.612,20.793 Z" id="Path"></path>
            <path d="M50.988,22.793 C50.597,23.184 50.597,23.816 50.988,24.207 C53.546,26.765 53.546,30.926 50.988,33.483 C50.597,33.874 50.597,34.506 50.988,34.897 C51.183,35.092 51.439,35.19 51.695,35.19 C51.951,35.19 52.207,35.092 52.402,34.897 C55.739,31.56 55.739,26.129 52.402,22.793 C52.011,22.402 51.378,22.402 50.988,22.793 Z" id="Path"></path>
        </g>
    </g>
</svg>