<?xml version="1.0" encoding="UTF-8"?>
<svg width="30px" height="14px" viewBox="0 0 30 14" version="1.1" xmlns="http://www.w3.org/2000/svg" xmlns:xlink="http://www.w3.org/1999/xlink">
    <!-- Generator: Sketch 52.5 (67469) - http://www.bohemiancoding.com/sketch -->
    <title>arrow-pointing-to-right (7)</title>
    <desc>Created with Sketch.</desc>
    <g id="Page-1" stroke="none" stroke-width="1" fill="none" fill-rule="evenodd" opacity="0.75">
        <g id="Portal_dashboard_page-2.0" transform="translate(-745.000000, -262.000000)" fill="#FFFFFF">
            <g id="Group-11" transform="translate(120.000000, 105.000000)">
                <g id="Group-10" transform="translate(0.000000, 46.000000)">
                    <g id="Group-5-Copy-3" transform="translate(605.000000, 41.000000)">
                        <g id="arrow-pointing-to-right-(7)" transform="translate(20.000000, 70.000000)">
                            <path d="M29.715316,6.28825279 L23.7673606,0.340297398 C23.404461,-0.0226022305 22.8159108,-0.0226022305 22.4530112,0.340297398 C22.0900372,0.703271375 22.0900372,1.29167286 22.4530112,1.65464684 L26.8144238,6.01605948 L0.92936803,6.01605948 C0.416133829,6.01605948 0,6.43219331 0,6.94542751 C0,7.45858736 0.416133829,7.87479554 0.92936803,7.87479554 L26.8144238,7.87479554 L22.4531599,12.2362082 C22.0901859,12.5991822 22.0901859,13.1875836 22.4531599,13.5505576 C22.6345725,13.7318959 22.8724907,13.8227509 23.1103346,13.8227509 C23.3481784,13.8227509 23.5860223,13.7318959 23.7675093,13.5505576 L29.715316,7.60260223 C30.07829,7.23962825 30.07829,6.65122677 29.715316,6.28825279 Z" id="Path"></path>
                        </g>
                    </g>
                </g>
            </g>
        </g>
    </g>
</svg>
