<?xml version="1.0" encoding="UTF-8"?>
<svg width="512px" height="512px" viewBox="0 0 512 512" version="1.1" xmlns="http://www.w3.org/2000/svg" xmlns:xlink="http://www.w3.org/1999/xlink">
    <!-- Generator: Sketch 59 (86127) - https://sketch.com -->
    <title>attachment-icon</title>
    <desc>Created with Sketch.</desc>
    <g id="attachment-icon" stroke="none" stroke-width="1" fill="none" fill-rule="evenodd">
        <g transform="translate(36.500000, 0.000000)" fill="#000000" fill-rule="nonzero" id="Path">
            <path d="M438.634167,139.684525 C437.182955,101.363902 420.48283,65.2110281 392.2465,39.2632752 C364.164025,13.1318579 326.785042,-0.662923735 288.459583,0.960525194 C250.126205,2.42267473 213.968761,19.1512553 188.038333,47.4213585 L25.6083333,222.765275 C20.4072831,228.387705 20.7009577,237.148998 26.2668333,242.410525 L37.5345,253.019692 C40.2446204,255.575167 43.8628124,256.942933 47.5857039,256.819295 C51.3085954,256.695656 54.8280672,255.090846 57.3626667,252.361192 L219.939,76.9075252 C238.48675,56.7866919 265.668167,45.2629419 294.495833,45.2629419 C320.433417,45.2629419 344.72475,54.4819419 362.8335,71.2371085 C382.661667,89.5287752 394.222,114.442025 395.282917,141.477109 C396.454869,168.188643 386.891004,194.258738 368.723417,213.875525 L147.906417,449.618525 C136.384545,461.783695 120.32219,468.608871 103.567417,468.458942 C88.12925,468.458942 73.6788333,462.971442 62.88675,452.984192 C38.5071102,430.555395 36.8709453,392.629091 59.2284167,368.184025 L265.119417,148.574275 C283.118417,129.916775 311.324167,157.061609 293.325167,175.719109 C262.778083,207.400275 184.306833,292.127275 145.894333,333.759109 C140.693283,339.381538 140.986958,348.142831 146.552833,353.404359 L157.857083,364.013525 C160.571971,366.564384 164.192954,367.925715 167.915918,367.795205 C171.638882,367.664695 175.15565,366.053148 177.68525,363.318442 L325.591667,203.815109 C345.52746,182.065826 347.604437,149.360719 330.580134,125.26424 C313.555832,101.167762 282.036013,92.1989875 254.876083,103.723109 C246.844515,107.11561 239.643179,112.207716 233.7675,118.649109 L27.54725,338.588109 C-11.1379281,380.665476 -8.48741472,446.110251 33.47375,484.921442 C51.8751667,501.969275 76.7518333,511.261442 103.421083,511.261442 C133.090167,511.261442 160.856917,499.627942 179.624167,479.287609 L400.47775,243.544609 C426.538109,215.396015 440.286095,178.010447 438.67075,139.684525 L438.634167,139.684525 Z"></path>
        </g>
    </g>
</svg>