<?xml version="1.0"?>
<svg xmlns="http://www.w3.org/2000/svg" xmlns:xlink="http://www.w3.org/1999/xlink" version="1.1" id="Layer_1" x="0px" y="0px" viewBox="0 0 512 512" style="enable-background:new 0 0 512 512;" xml:space="preserve" width="512px" height="512px" class=""><g><g>
	<g>
		<path d="M430.545,0H81.454C61.673,0,46.545,15.127,46.545,34.909c0,15.127,9.309,27.927,23.273,32.582V153.6    c-13.964,4.655-23.273,17.455-23.273,32.582s9.309,27.927,23.273,32.582v74.473c-13.964,4.655-23.273,17.455-23.273,32.582    s9.309,27.927,23.273,32.582v48.873c0,6.982,4.655,11.636,11.636,11.636s11.636-4.655,11.636-11.636v-46.545h93.091    c6.982,0,11.636-4.655,11.636-11.636c0-6.982-4.655-11.636-11.636-11.636H81.454c-6.982,0-11.636-4.655-11.636-11.636    s4.655-11.636,11.636-11.636h69.818c6.982,0,11.636-4.655,11.636-11.636s-4.655-11.636-11.636-11.636H93.091v-69.818h46.545    c6.982,0,11.636-4.655,11.636-11.636c0-6.982-4.655-11.636-11.636-11.636H81.454c-6.982,0-11.636-4.655-11.636-11.636    s4.655-11.636,11.636-11.636h104.727c6.982,0,11.636-4.655,11.636-11.636c0-6.982-4.655-11.636-11.636-11.636H93.091V58.182    c0-6.982-4.655-11.636-11.636-11.636s-11.636-4.655-11.636-11.636c0-6.982,4.655-11.636,11.636-11.636h349.091    c6.982,0,11.636,4.655,11.636,11.636c0,6.982-4.655,11.636-11.636,11.636H128c-6.982,0-11.636,4.655-11.636,11.636    S121.018,69.818,128,69.818h302.545c19.782,0,34.909-15.127,34.909-34.909C465.455,15.127,450.327,0,430.545,0z" data-original="#000000" class="active-path" data-old_color="#ff3184" fill="#ff3184"/>
	</g>
</g><g>
	<g>
		<path d="M265.309,179.2c-4.655-5.818-13.964-5.818-18.618,0c-4.655,6.982-48.873,67.491-48.873,102.4    c0,31.418,25.6,55.854,58.182,55.854c32.582,0,58.182-25.6,58.182-55.854C314.182,246.691,269.964,186.182,265.309,179.2z     M256,314.182c-19.782,0-34.909-15.127-34.909-32.582c0-16.291,18.618-50.036,34.909-74.473    c16.291,23.273,34.909,57.018,34.909,74.473C290.909,300.218,275.782,314.182,256,314.182z" data-original="#000000" class="active-path" data-old_color="#ff3184" fill="#ff3184"/>
	</g>
</g><g>
	<g>
		<path d="M465.455,325.818c0-15.127-9.309-27.927-23.273-32.582v-74.473c13.964-4.655,23.273-17.455,23.273-32.582    s-9.309-27.927-23.273-32.582v-48.873c0-6.982-4.655-11.636-11.636-11.636s-11.636,4.655-11.636,11.636v46.545h-93.091    c-6.982,0-11.636,4.655-11.636,11.636c0,6.982,4.655,11.636,11.636,11.636h104.727c6.982,0,11.636,4.655,11.636,11.636    s-4.655,11.636-11.636,11.636H384c-6.982,0-11.636,4.655-11.636,11.636c0,6.982,4.655,11.636,11.636,11.636h34.909v69.818H384    c-6.982,0-11.636,4.655-11.636,11.636s4.655,11.636,11.636,11.636h46.545c6.982,0,11.636,4.655,11.636,11.636    s-4.655,11.636-11.636,11.636h-81.455c-6.982,0-11.636,4.655-11.636,11.636c0,6.982,4.655,11.636,11.636,11.636h69.818v93.091    c0,6.982,4.655,11.636,11.636,11.636s11.636,4.655,11.636,11.636s-4.655,11.636-11.636,11.636H81.454    c-6.982,0-11.636-4.655-11.636-11.636s4.655-11.636,11.636-11.636H384c6.982,0,11.636-4.655,11.636-11.636    s-4.655-11.636-11.636-11.636H81.454c-19.782,0-34.909,15.127-34.909,34.909c0,19.782,15.127,34.909,34.909,34.909h349.091    c19.782,0,34.909-15.127,34.909-34.909c0-15.127-9.309-27.927-23.273-32.582V358.4    C456.145,353.745,465.455,340.945,465.455,325.818z" data-original="#000000" class="active-path" data-old_color="#ff3184" fill="#ff3184"/>
	</g>
</g></g> </svg>
