<?xml version="1.0" encoding="UTF-8"?>
<svg width="512px" height="512px" viewBox="0 0 512 512" version="1.1" xmlns="http://www.w3.org/2000/svg" xmlns:xlink="http://www.w3.org/1999/xlink">
    <!-- Generator: Sketch 59 (86127) - https://sketch.com -->
    <title>category</title>
    <desc>Created with Sketch.</desc>
    <g id="category" stroke="none" stroke-width="1" fill="none" fill-rule="evenodd">
        <g transform="translate(34.000000, 0.000000)" fill="#000000" fill-rule="nonzero" id="Shape">
            <path d="M47.92,375.467 C57.346,375.467 64.987,383.107 64.987,392.533 C64.987,401.959 57.346,409.6 47.92,409.6 C21.457,409.6 0.133,387.881 0.133,361.244 L0.133,48.356 C0.133,21.719 21.457,0 47.92,0 L293.68,0 C320.143,0 341.467,21.719 341.467,48.356 C341.467,57.781 333.826,65.422 324.4,65.422 C314.974,65.422 307.333,57.782 307.333,48.356 C307.333,40.431 301.15,34.133 293.68,34.133 L47.92,34.133 C40.45,34.133 34.267,40.431 34.267,48.356 L34.267,361.244 C34.267,369.169 40.45,375.467 47.92,375.467 Z M153.733,102.4 L392.667,102.4 C420.944,102.4 443.867,125.323 443.867,153.6 L443.867,460.8 C443.867,489.077 420.944,512 392.667,512 L153.733,512 C125.456,512 102.533,489.077 102.533,460.8 L102.533,153.6 C102.533,125.323 125.456,102.4 153.733,102.4 Z M153.733,136.533 C144.308,136.533 136.667,144.174 136.667,153.6 L136.667,460.8 C136.667,470.226 144.307,477.867 153.733,477.867 L392.667,477.867 C402.092,477.867 409.733,470.226 409.733,460.8 L409.733,153.6 C409.733,144.174 402.093,136.533 392.667,136.533 L153.733,136.533 Z"></path>
        </g>
    </g>
</svg>