<?xml version="1.0" encoding="UTF-8"?>
<svg width="352px" height="319px" viewBox="0 0 352 319" version="1.1" xmlns="http://www.w3.org/2000/svg" xmlns:xlink="http://www.w3.org/1999/xlink">
    <!-- Generator: Sketch 51.2 (57519) - http://www.bohemiancoding.com/sketch -->
    <title>clip-black</title>
    <desc>Created with Sketch.</desc>
    <defs></defs>
    <g id="Page-1" stroke="none" stroke-width="1" fill="none" fill-rule="evenodd" opacity="0.600000024">
        <g id="clip-black" fill="#000000" fill-rule="nonzero">
            <path d="M324.572,26.699 C289.153,-8.72 231.717,-8.72 196.299,26.699 L19.931,203.066 C-6.644,229.641 -6.644,272.701 19.931,299.277 C41.835,321.181 74.873,324.718 100.7,310.501 C103.398,310.365 106.051,309.345 108.115,307.304 L284.482,130.937 C302.191,113.228 302.191,84.521 284.482,66.812 C266.773,49.103 238.066,49.103 220.357,66.812 L76.052,211.116 C71.63,215.538 71.63,222.726 76.052,227.147 C80.474,231.569 87.662,231.569 92.083,227.147 L236.388,82.843 C245.254,73.977 259.607,73.977 268.451,82.843 C277.317,91.709 277.317,106.062 268.451,114.906 L100.088,283.268 C82.379,300.977 53.672,300.977 35.963,283.268 C18.254,265.559 18.254,236.852 35.963,219.143 L212.33,42.73 C238.905,16.155 281.965,16.155 308.541,42.73 C335.116,69.305 335.116,112.365 308.541,138.941 L148.205,299.277 C143.783,303.699 143.783,310.887 148.205,315.308 C152.627,319.73 159.815,319.73 164.236,315.308 L324.572,154.972 C359.991,119.554 359.991,62.118 324.572,26.699 Z" id="Shape"></path>
        </g>
    </g>
</svg>