<?xml version="1.0" encoding="UTF-8"?>
<svg width="17px" height="15px" viewBox="0 0 17 15" version="1.1" xmlns="http://www.w3.org/2000/svg" xmlns:xlink="http://www.w3.org/1999/xlink">
    <!-- Generator: Sketch 52.6 (67491) - http://www.bohemiancoding.com/sketch -->
    <title>column-setting</title>
    <desc>Created with Sketch.</desc>
    <g id="Page-1" stroke="none" stroke-width="1" fill="none" fill-rule="evenodd">
        <g id="column-setting" fill="#969696">
            <path d="M9.8802198,13.5789474 C10.1751763,13.5789474 10.4142857,13.8299035 10.4142857,14.1394737 C10.4142857,14.4490438 10.1751763,14.7 9.8802198,14.7 L1.42417582,14.7 C0.63762524,14.7 -5.32907052e-15,14.0307835 -5.32907052e-15,13.2052632 L-5.32907052e-15,1.99473684 C-5.32907052e-15,1.16921648 0.63762524,0.5 1.42417582,0.5 L14.7758242,0.5 C15.5623748,0.5 16.2,1.16921648 16.2,1.99473684 L16.2,8.06710526 C16.2,8.3766754 15.9608905,8.62763158 15.6659341,8.62763158 C15.3709776,8.62763158 15.1318681,8.3766754 15.1318681,8.06710526 L15.1318681,1.99473684 C15.1318681,1.78835675 14.9724618,1.62105263 14.7758242,1.62105263 L1.42417582,1.62105263 C1.22753818,1.62105263 1.06813187,1.78835675 1.06813187,1.99473684 L1.06813187,13.2052632 C1.06813187,13.4116432 1.22753818,13.5789474 1.42417582,13.5789474 L9.8802198,13.5789474 Z" id="Path"></path>
            <path d="M4.1,1.06666667 C4.1,0.80893378 4.32385763,0.6 4.6,0.6 C4.87614237,0.6 5.1,0.80893378 5.1,1.06666667 L5.1,14.1333333 C5.1,14.3910662 4.87614237,14.6 4.6,14.6 C4.32385763,14.6 4.1,14.3910662 4.1,14.1333333 L4.1,1.06666667 Z" id="Path-4"></path>
            <path d="M7.6,-2.45555556 C7.6,-2.70101544 7.82385763,-2.9 8.1,-2.9 C8.37614237,-2.9 8.6,-2.70101544 8.6,-2.45555556 L8.6,12.6555556 C8.6,12.9010154 8.37614237,13.1 8.1,13.1 C7.82385763,13.1 7.6,12.9010154 7.6,12.6555556 L7.6,-2.45555556 Z" id="Path-4-Copy" transform="translate(8.100000, 5.100000) rotate(-90.000000) translate(-8.100000, -5.100000) "></path>
            <g id="Add-Dashboard-Icon" transform="translate(9.600000, 8.100000)">
                <path d="M3,1 C3,0.723857625 3.22385763,0.5 3.5,0.5 C3.77614237,0.5 4,0.723857625 4,1 L4,6 C4,6.27614237 3.77614237,6.5 3.5,6.5 C3.22385763,6.5 3,6.27614237 3,6 L3,1 Z" id="Path-3"></path>
                <path d="M3,1 C3,0.723857625 3.22385763,0.5 3.5,0.5 C3.77614237,0.5 4,0.723857625 4,1 L4,6 C4,6.27614237 3.77614237,6.5 3.5,6.5 C3.22385763,6.5 3,6.27614237 3,6 L3,1 Z" id="Path-3-Copy-2" transform="translate(3.500000, 3.500000) rotate(-90.000000) translate(-3.500000, -3.500000) "></path>
            </g>
        </g>
    </g>
</svg>