<svg width="42" height="20" xmlns="http://www.w3.org/2000/svg"><g fill="none" fill-rule="evenodd"><rect fill="#39B2C2" width="42" height="20" rx="10"/><g fill="#FFF" stroke="#FFF" stroke-width=".5"><path d="M18.858 9.986l-2.974-2.974a.465.465 0 0 0-.657.657l2.18 2.18H9.465a.465.465 0 0 0 0 .93h7.942l-2.18 2.18a.465.465 0 1 0 .657.658l2.974-2.974a.465.465 0 0 0 0-.657zM24.142 9.986l2.974-2.974a.465.465 0 0 1 .657.657l-2.18 2.18h7.942a.465.465 0 0 1 0 .93h-7.942l2.18 2.18a.465.465 0 1 1-.657.658l-2.974-2.974a.465.465 0 0 1 0-.657z"/></g></g></svg>