<?xml version="1.0" encoding="UTF-8"?>
<svg width="18px" height="17px" viewBox="0 0 18 17" version="1.1" xmlns="http://www.w3.org/2000/svg" xmlns:xlink="http://www.w3.org/1999/xlink">
    <!-- Generator: Sketch 52.5 (67469) - http://www.bohemiancoding.com/sketch -->
    <title>display (1)</title>
    <desc>Created with Sketch.</desc>
    <g id="Page-1" stroke="none" stroke-width="1" fill="none" fill-rule="evenodd" opacity="0.5">
        <g id="Configre_task1.0" transform="translate(-895.000000, -410.000000)" fill="#605E88" fill-rule="nonzero">
            <g id="display-(1)" transform="translate(895.000000, 410.000000)">
                <path d="M16.7695312,0 L1.23046875,0 C0.551925668,0 0,0.551925668 0,1.23046875 L0,13.1835938 C0,13.8621368 0.551925668,14.4140625 1.23046875,14.4140625 L5.9459381,14.4140625 L5.23924256,16.2263946 C5.17593382,16.3885803 5.19680784,16.57164 5.29513552,16.7155609 C5.3933258,16.8593445 5.55633545,16.9453125 5.73046875,16.9453125 L12.2695312,16.9453125 C12.4438019,16.9453125 12.6066742,16.8593445 12.7050018,16.7155609 C12.8031922,16.57164 12.8242035,16.3885803 12.7608948,16.2263946 L12.0540619,14.4140625 L16.7695312,14.4140625 C17.4480743,14.4140625 18,13.8621368 18,13.1835938 L18,1.23046875 C18,0.551925668 17.4480743,0 16.7695312,0 Z M1.0546875,1.23046875 C1.0546875,1.13351442 1.13351442,1.0546875 1.23046875,1.0546875 L16.7695312,1.0546875 C16.8664856,1.0546875 16.9453125,1.13351442 16.9453125,1.23046875 L16.9453125,11.25 L1.0546875,11.25 L1.0546875,1.23046875 Z M11.497879,15.890625 L6.50212098,15.890625 L7.07794189,14.4140625 L10.9219208,14.4140625 L11.497879,15.890625 Z M16.9453125,13.1835938 C16.9453125,13.2805481 16.8664856,13.359375 16.7695312,13.359375 L1.23046875,13.359375 C1.13351442,13.359375 1.0546875,13.2805481 1.0546875,13.1835938 L1.0546875,12.3046875 L16.9453125,12.3046875 L16.9453125,13.1835938 Z" id="Shape"></path>
                <path d="M12.9023437,5.625 L12.333252,5.625 C12.2012787,4.79663086 11.7636108,4.06892394 11.1399994,3.56135558 L11.4255066,3.06697082 C11.5710754,2.81469727 11.4846954,2.49224854 11.2324219,2.34654237 C10.9801483,2.20083616 10.6576996,2.28735352 10.5121307,2.53962707 L10.2274475,3.03263856 C9.85693359,2.89064025 9.4549713,2.8125 9.03515625,2.8125 C8.6153412,2.8125 8.21337891,2.89064025 7.84300233,3.03263856 L7.55831911,2.53962707 C7.41261291,2.28735352 7.09016418,2.20097352 6.83789062,2.34654237 C6.58575439,2.49224854 6.49923708,2.81469727 6.64494325,3.06697082 L6.9303131,3.56135558 C6.30670166,4.06892394 5.8690338,4.79663086 5.73719787,5.625 L5.16796875,5.625 C4.87669373,5.625 4.640625,5.86106873 4.640625,6.15234375 C4.640625,6.44361877 4.87669373,6.6796875 5.16796875,6.6796875 L5.73706055,6.6796875 C5.8690338,7.50805664 6.30670166,8.23576356 6.9303131,8.74333192 L6.64480589,9.23771668 C6.49923708,9.48999023 6.58561707,9.81243896 6.83789062,9.95814513 C6.9208374,10.006073 7.01161193,10.0288696 7.10101318,10.0288696 C7.28324891,10.0288696 7.46054079,9.93424989 7.55818175,9.76506043 L7.84286501,9.27204894 C8.21337891,9.41404725 8.6153412,9.4921875 9.03515625,9.4921875 C9.4549713,9.4921875 9.85693359,9.41404725 10.2273102,9.27204894 L10.5119934,9.76506043 C10.6096344,9.93424989 10.7869263,10.0288696 10.969162,10.0288696 C11.0587006,10.0288696 11.1493378,10.006073 11.2324219,9.95814513 C11.4845581,9.81243896 11.5710754,9.48999023 11.4253693,9.23771668 L11.1399994,8.74333192 C11.7636108,8.23576356 12.2012787,7.50805664 12.3331146,6.6796875 L12.9023437,6.6796875 C13.1936188,6.6796875 13.4296875,6.44361877 13.4296875,6.15234375 C13.4296875,5.86106873 13.1936188,5.625 12.9023437,5.625 Z M9.03515625,8.4375 C7.77516173,8.4375 6.75,7.41233827 6.75,6.15234375 C6.75,4.89234923 7.77516173,3.8671875 9.03515625,3.8671875 C10.2951508,3.8671875 11.3203125,4.89234923 11.3203125,6.15234375 C11.3203125,7.41233827 10.2951508,8.4375 9.03515625,8.4375 Z" id="Shape"></path>
            </g>
        </g>
    </g>
</svg>