<?xml version="1.0" encoding="UTF-8" standalone="no"?>
<svg
   xmlns:dc="http://purl.org/dc/elements/1.1/"
   xmlns:cc="http://creativecommons.org/ns#"
   xmlns:rdf="http://www.w3.org/1999/02/22-rdf-syntax-ns#"
   xmlns:svg="http://www.w3.org/2000/svg"
   xmlns="http://www.w3.org/2000/svg"
   xmlns:sodipodi="http://sodipodi.sourceforge.net/DTD/sodipodi-0.dtd"
   xmlns:inkscape="http://www.inkscape.org/namespaces/inkscape"
   width="391.11996"
   height="150.0723"
   id="Calque_1"
   data-name="Calque 1"
   viewBox="0 0 307.8314 161.15235"
   version="1.1"
   sodipodi:docname="logo_dalkia-EDFgroup_RGB.svg"
   inkscape:version="1.0.2 (e86c870879, 2021-01-15, custom)">
  <metadata
     id="metadata38">
    <rdf:RDF>
      <cc:Work
         rdf:about="">
        <dc:format>image/svg+xml</dc:format>
        <dc:type
           rdf:resource="http://purl.org/dc/dcmitype/StillImage" />
      </cc:Work>
    </rdf:RDF>
  </metadata>
  <sodipodi:namedview
     pagecolor="#ffffff"
     bordercolor="#666666"
     borderopacity="1"
     objecttolerance="10"
     gridtolerance="10"
     guidetolerance="10"
     inkscape:pageopacity="0"
     inkscape:pageshadow="2"
     inkscape:window-width="1920"
     inkscape:window-height="1001"
     id="namedview36"
     showgrid="false"
     inkscape:zoom="2.3007299"
     inkscape:cx="195.55677"
     inkscape:cy="75.037245"
     inkscape:window-x="-9"
     inkscape:window-y="-9"
     inkscape:window-maximized="1"
     inkscape:current-layer="Calque_1" />
  <defs
     id="defs4">
    <style
       id="style2">.cls-1{fill:white;}.cls-2{fill:#fe5716;fill-rule:evenodd;}</style>
  </defs>
  <path
     class="cls-1"
     d="m 152.71523,107.49235 h -0.19933 c -4.11623,5.15 -9.76733,7.22 -16.23568,7.22 -16.22571,0 -22.18576,-13.41 -22.18576,-27.939999 0,-14.53 5.97999,-27.61 22.18576,-27.61 6.88695,0 11.71082,2.37 15.82705,7.42 h 0.19933 v -30.41 h 13.76396 v 77.269999 h -13.35533 z m -12.62776,-3.51 c 9.13943,0 12.1095,-9.679999 12.1095,-17.209999 0,-7.53 -3.48833,-16.9 -12.30883,-16.9 -8.82048,0 -11.41181,9.79 -11.41181,16.9 0,7.32 2.5714,17.209999 11.61114,17.209999"
     id="path6"
     style="stroke-width:0.998332" />
  <path
     class="cls-1"
     d="m 175.78805,63.172351 a 47.341642,47.5 0 0 1 18.37853,-4 c 16.11609,0 22.80372,6.69 22.80372,22.36 v 6.79 c 0,5.37 0.0997,9.39 0.2093,13.299999 0.10963,3.91 0.30897,7.74 0.60797,11.86 h -12.1095 a 65.271666,65.49 0 0 1 -0.6279,-7.94 h -0.19933 c -3.18933,5.88 -10.06633,9.18 -16.33536,9.18 -9.33876,0 -18.48816,-5.67 -18.48816,-15.779999 0,-7.94 3.80727,-12.57 9.03977,-15.14 5.23249,-2.57 12.01979,-3.1 17.77055,-3.1 h 7.5946 c 0,-8.55 -3.78733,-11.44 -11.91016,-11.44 a 27.697352,27.79 0 0 0 -16.32539,5.77 z m 16.12606,41.429999 a 11.690894,11.73 0 0 0 9.64773,-4.739999 c 2.26243,-3 2.8704,-6.8 2.8704,-10.92 h -5.98 c -6.15939,0 -15.30879,1 -15.30879,9.17 0,4.529999 3.80727,6.489999 8.74076,6.489999"
     id="path8"
     style="stroke-width:0.998332" />
  <rect
     class="cls-1"
     x="223.97684"
     y="36.172356"
     width="13.753993"
     height="77.300003"
     id="rect10"
     style="stroke-width:0.998332" />
  <polygon
     class="cls-1"
     points="374.83,147.26 374.83,173.03 361.03,173.03 361.03,95.73 374.83,95.73 374.83,141.18 375.04,141.18 391.53,119.95 407.81,119.95 388.03,143.65 410.29,173.03 392.77,173.03 375.04,147.26 "
     id="polygon12"
     transform="matrix(0.99666615,0,0,1,-114.64046,-59.557649)" />
  <path
     class="cls-1"
     d="m 297.67036,37.512351 h 13.75399 v 13.2 h -13.75399 z m 0,22.88 h 13.75399 v 53.049999 h -13.75399 z"
     id="path14"
     style="stroke-width:0.998332" />
  <path
     class="cls-1"
     d="m 321.31128,63.172351 a 47.391476,47.55 0 0 1 18.38849,-4 c 16.11609,0 22.80372,6.69 22.80372,22.36 v 6.79 c 0,5.37 0.0997,9.39 0.18937,13.299999 0.0897,3.91 0.31893,7.74 0.6279,11.86 H 351.2013 a 63.009234,63.22 0 0 1 -0.61794,-7.94 h -0.2093 c -3.17936,5.88 -10.06632,9.18 -16.32539,9.18 -9.35869,0 -18.49812,-5.67 -18.49812,-15.779999 0,-7.94 3.80726,-12.57 9.04973,-15.14 5.24246,-2.57 12.00982,-3.1 17.76059,-3.1 h 7.60456 c 0,-8.55 -3.7973,-11.44 -11.95999,-11.44 a 27.707319,27.8 0 0 0 -16.33536,5.77 z m 16.12606,41.429999 a 11.660994,11.7 0 0 0 9.64773,-4.739999 c 2.26243,-3 2.88036,-6.8 2.88036,-10.92 h -5.98 c -6.16936,0 -15.30879,1 -15.30879,9.17 0,4.529999 3.7973,6.489999 8.7308,6.489999"
     id="path16"
     style="stroke-width:0.998332" />
  <path
     id="Fleur"
     class="cls-2"
     d="m 29.935987,21.722351 c 0.5083,-4.42 -0.139533,-10.89 3.338832,-13.9299999 0.996667,-4.73 8.42183,-3.63 7.265697,-6.63 -0.707633,-1.87999998 -4.185998,-0.99999998 -5.601264,-0.63999998 -1.066432,0.26 -11.212495,3.47999998 -15.129393,3.90999998 l -4.98333,-1.39 c -6.3686971,0.87 -10.0563617,6 -13.5945264,9.9999999 -2.9899983,3.38 -6.9766628,11.68 -3.7972978,16.64 -0.1793999,1.08 -0.3687665,2.17 -0.5481664,3.25 l 7.2557293,10.63 c 2.4916653,1.79 2.8205651,3.13 5.5215302,4.91 0.5481661,0.83 1.0963331,1.67 1.6544661,2.5 2.202632,1.45 8.690929,1.48 9.777295,0.52 10.445061,1 9.318828,-20.23 12.627761,-24.68 a 8.9699954,9 0 0 0 -3.817233,-5.1 m -44.979542,63.73 c 2.202632,-0.57 5.9799968,-0.86 7.973329,-1.85 3.1494649,-1.58 13.9533255,-9.18 10.5347607,-15.38 -1.0664327,-13 -16.7439907,-2 -23.4116877,-6.58 -6.767363,-0.88 -14.361959,-13.71 -16.385191,-19.19 a 8.9699954,9 0 0 0 -1.534866,-3.2 c 0,-0.18 -0.6877,0.59 -0.677733,0.42 -1.993332,2.3 -1.634532,4.32 -1.993332,9.94 l -2.631199,-0.16 c -0.1794,2 -0.378733,3.15 -1.335533,4.19 -0.189366,0.35 -0.398666,0.69 -0.597999,1 -1.674399,-0.57 -0.827233,0.24 -1.514933,-1.16 -6.219197,0.3 -5.76073,6.58 -8.621162,10.15 0.129567,11.74 23.232288,26.19 40.195546,21.82 m 76.743294,-35.57 c -10.096228,1.54 -16.255625,4.76 -20.06289,7.41 a 14.102826,14.15 0 0 0 -3.986665,3.89 6.41853,6.44 0 0 0 -0.687699,4.35 6.9766631,7 0 0 0 2.611265,4.81 c 12.368627,-0.92 33.886649,-1.7 38.042747,8.74 0.229233,1.45 0.548167,2.31 0.588033,2.67 4.086331,-1 1.096333,-0.66 7.126163,0.3 1.385366,0.21 4.793964,-0.56 7.056397,-1.1 a 2.9002985,2.91 0 0 0 1.604632,-1.19 6.9766631,7 0 0 1 -0.129567,-1.53 c 0,0 2.112933,0.15 2.989999,-0.52 5.730836,-0.93 2.7209,-3.64 5.421866,-6.67 -1.63453,-19.5 -21.567858,-24 -40.544381,-21.16 m -22.106056,42.44 c -2.870398,2.2 -4.076364,1.65 -5.76073,5.05 -0.169433,0 0.259133,0.52 0.07973,0.52 1.714266,3.419999 5.641131,4.809999 8.521496,7.219999 0.906966,0.76 3.328865,5 4.494964,5.3 1.295666,1.56 2.142833,5.87 2.989999,5.87 0.887033,1.19 -0.06977,4.05 0.797333,5.15 0.04983,5.1 -0.647833,5.46 -1.534866,6.44 0,0.35 0.4784,1.28 0.4784,1.63 0.239199,0.24 2.282365,1.71 3.169398,1.53 2.760765,0.08 14.112793,9 14.999826,10.66 8.142762,0.63 7.554729,-1.87 13.165959,-4.26 1.514933,-0.64 2.720899,0 3.717565,-1.07 0.996666,-1.07 1.126233,-3.18 2.132866,-4.26 0.139533,-20.08 -27.089386,-39.089999 -47.251943,-39.779999 m -32.0428173,4.58 c -1.1361993,1.21 -4.2457976,1.66 -5.1228637,3 -1.3155993,2.089999 -4.3753642,6.859999 -6.7673629,9.139999 -7.7141961,7.32 -24.1990541,11 -32.3318501,4 -0.528233,0.05 -0.229233,0.35 0.408634,2.35 0.597999,3.79 3.647798,12.72 2.521565,15 0.727566,2.54 1.494999,1.61 2.870398,3 0.996667,1 1.3455,3.44 2.431866,4.11 l 3.707598,-0.26 c 0.229233,0.69 0.4485,1.39 0.677733,2.09 l 4.774031,-0.34 c 0.896999,0.2 3.597965,1.59 4.395298,1.82 l 5.3022633,-0.38 c 4.0464644,1.08 7.5746625,-0.62 10.9633272,-2.92 1.9036323,-1.29 3.9866644,-1.09 5.6809968,-2.54 a 39.308513,39.44 0 0 0 7.3553957,-9.08 c 3.827198,-7 2.531532,-23.7 -0.946832,-27.839999 -1.355466,-1.48 -2.989999,-1.51 -5.9799973,-1.17"
     style="stroke-width:0.998332" />
  <path
     class="cls-1"
     d="m 285.222,159.67235 a 19.933323,20 0 0 1 -6.34877,1.33 c -8.09292,0 -11.50152,-6.18 -11.50152,-13.13 0,-8 4.65443,-13.06 11.32212,-13.06 a 13.953326,14 0 0 1 5.98,1.14 v 3.24 a 13.76396,13.81 0 0 0 -5.98,-1.58 c -4.18599,0 -7.97332,3.35 -7.97332,9.6 0,6.62 2.64116,11 8.21252,11 a 7.5447628,7.57 0 0 0 3.18934,-0.7 v -8.07 h -4.2757 v -2.79 h 7.37533 z"
     id="path19"
     style="stroke-width:0.998332" />
  <path
     class="cls-1"
     d="m 289.75683,135.07235 h 6.56803 c 2.71093,0 4.20593,0.66 5.382,1.77 a 6.50823,6.53 0 0 1 1.90363,4.89 5.830497,5.85 0 0 1 -5.0531,6.14 v 0.07 a 3.2790316,3.29 0 0 1 2.7807,2.5 l 3.6179,10.3 h -3.48833 l -2.9302,-8.68 c -0.72757,-2.13 -1.6445,-2.94 -4.0664,-2.94 h -1.47507 v 11.62 h -3.22919 z m 3.23916,11.37 h 2.49167 c 3.44846,0 4.76406,-2.28 4.76406,-4.52 0,-2.87 -1.86376,-4.23 -4.69429,-4.23 h -2.56144 z"
     id="path21"
     style="stroke-width:0.998332" />
  <path
     class="cls-1"
     d="m 316.21832,134.81235 c 5.69096,0 9.31882,4.89 9.31882,12.84 0,8.86 -3.55809,13.35 -9.60786,13.35 -5.68099,0 -9.30886,-4.89 -9.30886,-12.84 0,-8.86 3.5581,-13.35 9.5979,-13.35 z m -0.299,23.54 c 3.36873,0 6.22916,-2.79 6.22916,-10.7 0,-5.19 -1.6146,-10.19 -5.98,-10.19 -3.36873,0 -6.22916,2.8 -6.22916,10.7 0.0498,5.19 1.66443,10.19 5.98,10.19 z"
     id="path23"
     style="stroke-width:0.998332" />
  <path
     class="cls-1"
     d="m 345.06183,151.29235 a 11.371961,11.41 0 0 1 -0.99666,5.74 c -1.05647,2.13 -3.289,4 -6.97667,4 -3.68766,0 -5.97999,-1.84 -6.97666,-4 a 11.371961,11.41 0 0 1 -0.99666,-5.74 v -16.22 h 3.21923 v 16.7 c 0,4 1.7641,6.58 4.80393,6.58 3.03983,0 4.80393,-2.57 4.80393,-6.58 v -16.7 h 3.21923 z"
     id="path25"
     style="stroke-width:0.998332" />
  <path
     class="cls-1"
     d="m 349.60663,135.07235 h 6.17933 a 7.3753295,7.4 0 0 1 5.54147,2 7.1460963,7.17 0 0 1 1.99333,5.29 c 0,5 -2.9003,7.65 -8.32216,7.65 h -2.20264 v 10.73 h -3.18933 z m 3.18933,12.28 h 1.7641 c 3.9169,0 5.3521,-1.83 5.3521,-4.7 0,-3.53 -1.99333,-4.93 -5.28233,-4.93 h -1.83387 z"
     id="path27"
     style="stroke-width:0.998332" />
  <path
     class="cls-1"
     d="m 223.77753,135.08235 c 7.09626,0 11.95999,4.49 11.95999,12.55 0,10.13 -6.60789,13.11 -13.52476,13.11 h -9.24906 c 0,-0.56 0,-2.06 0,-3.92 v -17.82 c 0,-1.86 0,-3.05 0,-3.92 z m -2.07307,20.81 c 3.92687,0 7.09627,-1.32 7.09627,-8.26 0,-5.91 -3.1694,-7.87 -7.09627,-7.87 h -2.05313 v 16.13 z"
     id="path29"
     style="stroke-width:0.998332" />
  <path
     class="cls-1"
     d="m 245.76399,156.82235 c 0,1.86 0.0698,3.92 0.0698,3.92 h -6.87699 c 0,0 0,-2.06 0,-3.92 v -17.82 c 0,-1.86 0,-3.92 0,-3.92 h 16.25562 v 5 c 0,0 -3.62786,-0.08 -4.89363,-0.08 h -4.55476 v 5.15 l 4.55476,0.05 c 0.85713,0 3.81723,-0.05 3.81723,-0.05 v 4.74 c 0,0 -2.6013,-0.06 -3.81723,-0.06 h -4.55476 z"
     id="path31"
     style="stroke-width:0.998332" />
  <path
     class="cls-1"
     d="m 199.22964,155.56235 a 5.4318305,5.45 0 0 1 -5.73083,-5.58 v -0.31 c 0,0 6.02983,-0.13 8.03313,-0.13 3.48833,0 4.9335,0 7.63446,-0.08 v -1.94 c 0,-8.73 -3.69763,-13 -11.31216,-13 -3.53816,0 -11.71082,1.33 -11.71082,13.57 0,8.19 4.15609,13.06 11.33209,13.06 5.63116,0 9.1195,-1.43 11.62113,-3.3 -0.28904,-0.4 -2.38203,-4.18 -2.6312,-4.59 a 12.189227,12.23 0 0 1 -7.2358,2.3 z m -5.73083,-10.8 c 0.1196,-1.48 0.67773,-4.93 4.3953,-4.93 3.71756,0 4.04646,3.25 4.04646,5 v 0.36 c 0,0 -2.56143,0.07 -4.08633,0.07 -1.5249,0 -4.38533,-0.07 -4.38533,-0.07 z"
     id="path33"
     style="stroke-width:0.998332" />
</svg>
