<svg version="1.1" id="Capa_1" xmlns="http://www.w3.org/2000/svg" xmlns:xlink="http://www.w3.org/1999/xlink" x="0px" y="0px"
	 width="725.334px" height="725.334px" viewBox="0 0 725.334 725.334" style="enable-background:new 0 0 725.334 725.334;"
	 xml:space="preserve">
<g>
	<g id="In">
		<g>
			<path d="M215.333,374c0,9.385,3.808,17.885,9.951,24.027l113.333,113.332c6.166,6.166,14.666,9.975,24.049,9.975
				s17.884-3.809,24.026-9.975l113.334-113.332C506.192,391.885,510,383.385,510,374c0-18.768-15.209-34-34-34
				c-9.384,0-17.884,3.808-24.026,9.951l-55.307,55.307V34c0-18.768-15.209-34-34-34c-18.791,0-34,15.232-34,34v371.258
				l-55.307-55.285c-6.143-6.165-14.643-9.973-24.027-9.973C230.543,340,215.333,355.232,215.333,374z M623.334,158.667H498.667
				c-18.791,0-34,15.232-34,34s15.209,34,34,34h102v430.667h-476V226.667h102c18.791,0,34-15.232,34-34s-15.209-34-34-34H102
				c-25.001,0-45.333,20.354-45.333,45.333v476c0,24.979,20.332,45.334,45.333,45.334h521.333c25.001,0,45.333-20.355,45.333-45.334
				V204C668.667,179.021,648.335,158.667,623.334,158.667z"/>
		</g>
	</g>
</g>
</svg>
