<?xml version="1.0" encoding="UTF-8"?>
<svg width="345px" height="536px" viewBox="0 0 345 536" version="1.1" xmlns="http://www.w3.org/2000/svg" xmlns:xlink="http://www.w3.org/1999/xlink">
    <!-- Generator: Sketch 52.4 (67378) - http://www.bohemiancoding.com/sketch -->
    <title>braille-six-dots</title>
    <desc>Created with Sketch.</desc>
    <g id="Page-1" stroke="none" stroke-width="1" fill="none" fill-rule="evenodd" fill-opacity="0.15">
        <g id="braille-six-dots" fill="#010002" fill-rule="nonzero">
            <path d="M344.721,66.708 C344.721,75.684 342.99,84.15 339.522,92.106 C336.051,100.062 331.461,107.1 325.751,113.22 C320.039,119.34 313.205,124.134 305.249,127.602 C297.293,131.07 288.827,132.804 279.853,132.804 C270.874,132.804 262.411,131.07 254.455,127.602 C246.499,124.134 239.563,119.34 233.647,113.22 C227.731,107.1 223.039,100.062 219.571,92.106 C216.103,84.15 214.369,75.684 214.369,66.708 C214.369,57.732 216.103,49.164 219.571,41.004 C223.039,32.844 227.731,25.704 233.647,19.584 C239.563,13.464 246.499,8.67 254.455,5.202 C262.411,1.734 270.877,0 279.853,0 C288.829,0 297.292,1.734 305.249,5.202 C313.205,8.67 320.039,13.464 325.751,19.584 C331.463,25.704 336.053,32.844 339.522,41.004 C342.988,49.164 344.721,57.732 344.721,66.708 Z M344.721,268.057 C344.721,277.44 342.99,286.11 339.522,294.067 C336.051,302.022 331.461,308.958 325.751,314.874 C320.041,320.79 313.205,325.483 305.249,328.95 C297.293,332.419 288.827,334.153 279.853,334.153 C270.874,334.153 262.411,332.419 254.455,328.95 C246.499,325.483 239.563,320.79 233.647,314.874 C227.731,308.958 223.039,302.022 219.571,294.067 C216.103,286.11 214.369,277.44 214.369,268.057 C214.369,259.08 216.103,250.512 219.571,242.352 C223.039,234.192 227.731,227.154 233.647,221.238 C239.563,215.322 246.499,210.63 254.455,207.162 C262.411,203.694 270.877,201.96 279.853,201.96 C288.829,201.96 297.292,203.694 305.249,207.162 C313.205,210.63 320.039,215.322 325.751,221.238 C331.463,227.154 336.053,234.192 339.522,242.352 C342.988,250.512 344.721,259.08 344.721,268.057 Z M342.885,469.404 C342.885,478.383 341.253,486.744 337.989,494.496 C334.725,502.248 330.237,508.98 324.525,514.691 C318.813,520.404 312.081,524.892 304.329,528.156 C296.577,531.42 288.417,533.052 279.85,533.052 C271.282,533.052 263.121,531.417 255.37,528.156 C247.618,524.892 240.886,520.404 235.174,514.691 C229.462,508.98 224.976,502.248 221.71,494.496 C218.446,486.744 216.814,478.383 216.814,469.404 C216.814,460.836 218.446,452.675 221.71,444.925 C224.976,437.173 229.462,430.339 235.174,424.423 C240.886,418.507 247.618,413.913 255.37,410.652 C263.122,407.388 271.282,405.756 279.85,405.756 C288.415,405.756 296.578,407.389 304.329,410.652 C312.08,413.915 318.813,418.506 324.525,424.423 C330.237,430.339 334.725,437.173 337.989,444.925 C341.253,452.677 342.885,460.836 342.885,469.404 Z M131.134,66.708 C131.134,75.684 129.4,84.15 125.932,92.106 C122.464,100.062 117.874,107.1 112.162,113.22 C106.45,119.34 99.616,124.134 91.66,127.602 C83.704,131.07 75.238,132.804 66.262,132.804 C57.286,132.804 48.82,131.07 40.864,127.602 C32.908,124.134 25.972,119.34 20.056,113.22 C14.14,107.1 9.448,100.062 5.98,92.106 C2.512,84.15 0.778,75.684 0.778,66.708 C0.778,57.732 2.512,49.164 5.98,41.004 C9.448,32.844 14.14,25.704 20.056,19.584 C25.972,13.464 32.908,8.67 40.864,5.202 C48.82,1.734 57.286,0 66.262,0 C75.238,0 83.704,1.734 91.66,5.202 C99.616,8.67 106.45,13.464 112.162,19.584 C117.874,25.704 122.464,32.844 125.932,41.004 C129.4,49.164 131.134,57.732 131.134,66.708 Z M131.134,268.057 C131.134,277.44 129.4,286.11 125.932,294.067 C122.464,302.022 117.874,308.958 112.162,314.874 C106.45,320.79 99.616,325.483 91.66,328.95 C83.704,332.419 75.238,334.153 66.262,334.153 C57.286,334.153 48.82,332.419 40.864,328.95 C32.908,325.483 25.972,320.79 20.056,314.874 C14.14,308.958 9.448,302.022 5.98,294.067 C2.512,286.11 0.778,277.44 0.778,268.057 C0.778,259.08 2.512,250.512 5.98,242.352 C9.448,234.192 14.14,227.154 20.056,221.238 C25.972,215.322 32.908,210.63 40.864,207.162 C48.82,203.694 57.286,201.96 66.262,201.96 C75.238,201.96 83.704,203.694 91.66,207.162 C99.616,210.63 106.45,215.322 112.162,221.238 C117.874,227.154 122.464,234.192 125.932,242.352 C129.4,250.512 131.134,259.08 131.134,268.057 Z M131.134,469.404 C131.134,478.787 129.4,487.457 125.932,495.414 C122.464,503.369 117.874,510.309 112.162,516.225 C106.45,522.141 99.616,526.83 91.66,530.301 C83.704,533.768 75.238,535.5 66.262,535.5 C57.286,535.5 48.82,533.768 40.864,530.301 C32.908,526.83 25.972,522.141 20.056,516.225 C14.14,510.309 9.448,503.37 5.98,495.414 C2.512,487.457 0.778,478.787 0.778,469.404 C0.778,460.427 2.512,451.859 5.98,443.699 C9.448,435.539 14.14,428.502 20.056,422.586 C25.972,416.67 32.908,411.981 40.864,408.512 C48.82,405.041 57.286,403.311 66.262,403.311 C75.238,403.311 83.704,405.041 91.66,408.512 C99.616,411.981 106.45,416.67 112.162,422.586 C117.874,428.502 122.464,435.539 125.932,443.699 C129.4,451.859 131.134,460.428 131.134,469.404 Z" id="Shape"></path>
        </g>
    </g>
</svg>