<svg id="Layer_1" enable-background="new 0 0 512.285 512.285" height="512" viewBox="0 0 512.285 512.285" width="512" xmlns="http://www.w3.org/2000/svg"><path d="m323.217 351.505h-133.78l-.06-65.44 28.98 28.97h75.88c11.2-11.21 20.2-20.2 28.97-28.97z" fill="#ffdaaa"/><path d="m116.817 351.505v153.28h-88.13l.25-71.78c.124-44.63 36.392-81.5 81.78-81.5z" fill="#e2ecf6"/><path d="m483.597 504.785h-88.13v-153.28h6.1c44.754 0 81.633 36.211 81.78 81.5z" fill="#e2ecf6"/><path d="m395.467 351.505v153.28h-278.65v-153.28h72.62l.04 42.71 66.95 36.95 66.8-36.81-.01-42.85z" fill="#8ae897"/><path d="m358.264 158.053v92.952c-3.375 3.375-62.53 62.529-64.031 64.031h-75.878c-14.545-14.545-51.458-51.459-64.031-64.031v-92.952z" fill="#ffdaaa"/><g fill="#feee81"><path d="m357.553 117.28h-56.884v-97.502l4.063 2.523c32.344 20.085 52.821 55.729 52.821 94.979z"/><path d="m212.277 19.778v97.501h-56.884c0-38.072 19.477-74.272 52.821-94.978z"/><path d="m212.277 7.5h88.393v109.779h-88.393z"/><path d="m136.097 117.285h240.751v40.768h-240.751z"/></g><path d="m323.227 394.355-66.8 36.81-66.95-36.95-.04-42.71h133.78z" fill="#e2ecf6"/><path d="m323.21 306.057-.003-19.993c-8.77 8.77-17.77 17.76-28.97 28.97h20c3.156-3.158 6.123-6.126 8.973-8.977z" fill="#ffb680"/><path d="m189.377 286.065.06 65.44h20l-.041-45.429z" fill="#ffb680"/><path d="m116.817 352.719v-1.215h-6.1c-45.304 0-81.656 36.774-81.78 81.5l-.25 71.78h20l.25-71.78c.11-39.263 28.342-73.46 67.88-80.285z" fill="#bed5e9"/><path d="m395.467 351.505v153.28h20v-152.064c-8.019-1.385-12.853-1.216-20-1.216z" fill="#bed5e9"/><path d="m116.817 351.505h20v153.28h-20z" fill="#00ce8b"/><path d="m266.435 425.65 9.992 5.515 66.8-36.81-.01-42.85h-20l.01 42.85z" fill="#00ce8b"/><path d="m174.325 251.006v-92.952h-20v92.952c12.665 12.665 50.023 50.023 64.031 64.031h20c-13.991-13.992-51.378-51.379-64.031-64.031z" fill="#ffb680"/><path d="m300.669 19.778v97.501h20v-82.971c-8.036-7.256-14.19-10.922-20-14.53z" fill="#ffc277"/><path d="m212.277 34.308v-14.53l-4.063 2.523c-32.845 20.397-52.821 56.315-52.821 94.978h20c0-31.931 13.635-61.982 36.884-82.971z" fill="#ffc277"/><path d="m212.277 7.5h20v109.78h-20z" fill="#ffc277"/><path d="m136.097 117.285h20v40.769h-20z" fill="#ffc277"/><path d="m209.477 394.215-.04-42.71h-20l.04 42.71 66.95 36.95 10.008-5.515z" fill="#bed5e9"/><path d="m490.847 432.98c-.158-49.043-39.59-88.194-87.88-88.942 0-.1 3.416-.034-72.251-.034l-.008-54.836 35.06-35.058v-88.558h18.581v-55.769h-19.534c-2.399-37.864-22.591-73.037-56.646-94.177v-15.606h-103.393v15.607c-34.742 21.567-54.299 57.14-56.645 94.177h-19.534v55.769h18.23v31.562h15v-31.56h188.94v82.344s-52.967 52.96-59.639 59.636h-69.666s-47.034-47.035-59.636-59.637v-35.783h-15v41.997s25.012 25.012 35.053 35.061l.05 54.833c-76.063 0-72.613-.066-72.613.034-49.207.754-87.747 40.874-87.88 88.94l-.276 79.307h469.962zm-141.057-323.201h-41.621v-76.075c24.391 18.146 39.481 45.692 41.621 76.075zm-56.621 0h-73.393v-94.779h73.393zm-88.393-76.074v76.075h-41.621c2.141-30.385 17.231-57.93 41.621-76.075zm-61.179 91.08h225.751v25.769h-225.751zm112.833 297.815-59.457-32.814-.029-30.781h118.774l.008 30.92zm40.916-100.065s15.512-15.518 18.365-18.37l.006 39.839h-118.786l-.037-39.821 18.357 18.351h82.095zm-188.029 174.75h-73.103l.224-64.26c.111-40.069 32.227-73.261 72.88-74.008v138.268zm15-138.28h57.627l.037 39.639 66.946 36.948v61.693h-124.61zm278.65 138.28v-31.62h-15v31.62h-124.04v-61.69l66.801-36.811-.009-39.779h57.248v91.66h15v-91.646c39.92.739 72.748 33.168 72.88 74.013l.224 64.253z"/><path d="m286.138 288-10.607-10.605 38.302-38.299 10.605 10.607zm47.288-55.842h-15v-15h15zm0-30h-15v-15h15z" fill="#fff"/></svg>