<?xml version="1.0" encoding="UTF-8"?>
<svg width="512px" height="388px" viewBox="0 0 512 388" version="1.1" xmlns="http://www.w3.org/2000/svg" xmlns:xlink="http://www.w3.org/1999/xlink">
    <!-- Generator: Sketch 52.4 (67378) - http://www.bohemiancoding.com/sketch -->
    <title>envelope</title>
    <desc>Created with Sketch.</desc>
    <g id="Page-1" stroke="none" stroke-width="1" fill="none" fill-rule="evenodd">
        <g id="envelope" fill="#8CA1AD" fill-rule="nonzero">
            <path d="M497.382176,0.700714394 C505.410954,0.700714394 512,7.28976035 512,15.3185388 L512,372.929929 C512,380.958707 505.410954,387.547753 497.382176,387.547753 L493.880124,387.547753 L17.9123474,387.547753 L14.4102954,387.547753 C6.38151695,387.534782 0,380.945736 0,372.916958 L0,15.3185388 C0,7.28976035 6.38151695,0.700714394 14.4102954,0.700714394 L17.9123474,0.700714394 L22.0240158,0.700714394 L29.6377362,0.700714394 C183.014643,0.700714394 336.391549,0.700714394 489.963014,0.700714394 L493.880124,0.700714394 L497.382176,0.700714394 Z M255.896235,202.042762 L365.419669,107.344683 L454.968435,29.7288342 L454.553377,29.7288342 L447.354714,29.7288342 C322.188782,29.7288342 196.815321,29.7288342 71.4288899,29.7288342 L64.4247859,29.7288342 L57.420682,29.7288342 L56.8240361,29.7288342 L146.372802,107.344683 L255.896235,202.042762 Z M384.35669,129.161169 L265.572275,232.095557 C260.215433,236.829812 251.979126,237.037341 246.427725,232.303086 L127.435781,129.161169 L29.0281198,43.9316005 L29.0281198,344.303896 L127.435781,258.866798 L182.612555,211.303744 C188.579014,205.946902 197.852967,206.569489 202.989309,212.743477 C208.346152,218.709936 207.516036,227.983888 201.549577,233.120231 L146.372802,280.877844 L56.8240361,358.286163 L454.981405,358.286163 L365.432639,280.877844 L310.255865,233.120231 C304.289406,227.970918 303.666819,218.709936 308.816132,212.743477 C314.172975,206.569489 323.226428,205.946902 329.192886,211.303744 L384.369661,258.866798 L482.984851,344.303896 L482.984851,43.9316005 L384.35669,129.161169 Z" id="Shape"></path>
        </g>
    </g>
</svg>