<?xml version="1.0" encoding="UTF-8"?>
<svg width="90px" height="30px" viewBox="0 0 90 30" version="1.1" xmlns="http://www.w3.org/2000/svg" xmlns:xlink="http://www.w3.org/1999/xlink">
    <!-- Generator: Sketch 49.1 (51147) - http://www.bohemiancoding.com/sketch -->
    <title>Artboard</title>
    <desc>Created with Sketch.</desc>
    <defs></defs>
    <g id="Artboard" stroke="none" stroke-width="1" fill="none" fill-rule="evenodd">
        <g id="Group" transform="translate(3.000000, 4.000000)">
            <path d="M7.77616026,6.6537631 L7.77616026,10.409744 L5.898244,10.409744 L5.898244,21.4131811 L1.37537528,21.4131811 L1.37537528,10.409744 L0,10.409744 L0,6.6537631 L1.37537528,6.6537631 L1.37537528,6.09830113 C1.37537528,4.22911818 1.87350302,2.86251907 2.86977343,1.9984628 C3.86604384,1.13440653 5.4309584,0.70238488 7.56456406,0.70238488 L7.56456406,4.53771751 C6.9650385,4.53771751 6.53744213,4.6523355 6.28176211,4.88157492 C6.0260821,5.11081434 5.898244,5.51638568 5.898244,6.09830113 L5.898244,6.6537631 L7.77616026,6.6537631 Z M20.1809873,14.0334721 C20.1809873,12.8696412 19.8547798,11.9747392 19.2023549,11.3487392 C18.54993,10.7227393 17.8005343,10.409744 16.9541453,10.409744 C16.1077563,10.409744 15.3583606,10.7271477 14.7059357,11.3619645 C14.0535109,11.9967814 13.7273033,12.8960918 13.7273033,14.0599227 C13.7273033,15.2237536 14.0535109,16.1186555 14.7059357,16.7446555 C15.3583606,17.3706554 16.1077563,17.6836507 16.9541453,17.6836507 C17.8005343,17.6836507 18.54993,17.3662471 19.2023549,16.7314302 C19.8547798,16.0966134 20.1809873,15.197303 20.1809873,14.0334721 Z M9.12508602,14.0599227 C9.12508602,11.8556975 9.7775011,10.0438516 11.0823508,8.62433055 C12.3872006,7.20480954 13.9785644,6.49505968 15.85649,6.49505968 C17.7344157,6.49505968 19.1759004,7.19158439 20.1809873,8.5846547 L20.1809873,6.6537631 L24.7038561,6.6537631 L24.7038561,21.4131811 L20.1809873,21.4131811 L20.1809873,19.2706849 C19.0877348,20.8224594 17.6242091,21.5983351 15.7903662,21.5983351 C13.9565234,21.5983351 12.3872006,20.8929936 11.0823508,19.4822895 C9.7775011,18.0715854 9.12508602,16.2641478 9.12508602,14.0599227 Z M27.5868542,14.0334721 C27.5868542,11.7410779 28.2701268,9.91159845 29.6366924,8.54497884 C31.003258,7.17835923 32.7709502,6.49505968 34.9398221,6.49505968 C36.7383988,6.49505968 38.2636394,6.94030649 39.5155899,7.83081346 C40.7675403,8.72132043 41.5962838,9.99534347 42.0018452,11.6529208 L37.1086831,11.6529208 C36.6854886,10.7712307 35.9933996,10.3303923 35.0323954,10.3303923 C34.0713912,10.3303923 33.3572612,10.6698379 32.8899839,11.3487392 C32.4227067,12.0276406 32.1890715,12.9225426 32.1890715,14.0334721 C32.1890715,15.1444016 32.4227067,16.0393036 32.8899839,16.7182049 C33.3572612,17.3971063 34.0405338,17.7365519 34.9398221,17.7365519 C35.5040815,17.7365519 35.9449025,17.6395674 36.2622983,17.4455956 C36.5796942,17.2516238 36.8618197,16.9077698 37.1086831,16.4140234 L42.0018452,16.4140234 C41.5962838,18.0010655 40.7587239,19.2618634 39.4891404,20.1964549 C38.2195568,21.1310463 36.7031326,21.5983351 34.9398221,21.5983351 C32.7709502,21.5983351 31.003258,20.9106271 29.6366924,19.5351906 C28.2701268,18.1597541 27.5868542,16.3258663 27.5868542,14.0334721 Z M44.5409996,21.4131811 L44.5409996,6.6537631 L49.0638683,6.6537631 L49.0638683,21.4131811 L44.5409996,21.4131811 Z M53.031297,21.4131811 L53.031297,1.83975938 L57.5541657,1.83975938 L57.5541657,21.4131811 L53.031297,21.4131811 Z M61.5215944,21.4131811 L61.5215944,6.6537631 L66.0444631,6.6537631 L66.0444631,21.4131811 L61.5215944,21.4131811 Z M79.7717664,14.0334721 C79.7717664,12.8343736 79.4631917,11.9218381 78.8460331,11.2958381 C78.2288744,10.6698382 77.4971116,10.3568429 76.6507225,10.3568429 C75.8043335,10.3568429 75.0769789,10.6698382 74.4686367,11.2958381 C73.8602946,11.9218381 73.5561281,12.8343736 73.5561281,14.0334721 C73.5561281,15.2325706 73.8691111,16.1495145 74.4950863,16.7843314 C75.1210615,17.4191482 75.8572326,17.7365519 76.7036216,17.7365519 C77.5500106,17.7365519 78.272957,17.4191482 78.8724826,16.7843314 C79.4720082,16.1495145 79.7717664,15.2325706 79.7717664,14.0334721 Z M68.9539108,14.0070215 C68.9539108,11.7322611 69.6944901,9.91159845 71.1756709,8.54497884 C72.6568517,7.17835923 74.4906671,6.49505968 76.6771721,6.49505968 C78.863677,6.49505968 80.6930842,7.17835923 82.1654484,8.54497884 C83.6378127,9.91159845 84.3739837,11.7322611 84.3739837,14.0070215 C84.3739837,16.2817819 83.6422209,18.1156697 82.1786732,19.50874 C80.7151255,20.9018104 78.8901266,21.5983351 76.7036216,21.5983351 C74.5171166,21.5983351 72.678893,20.9018104 71.1888957,19.50874 C69.6988983,18.1156697 68.9539108,16.2817819 68.9539108,14.0070215 Z" id="facilio" fill="#FFFFFF"></path>
            <polygon id="Path" fill="#FF3184" points="44.6014399 4.56550172 44.6014399 0 49.1669416 0 49.1669416 4.56550172"></polygon>
            <polygon id="Path" fill="#39B3C2" points="61.6342732 4.56550172 61.6342732 0 66.199775 0 66.199775 4.56550172"></polygon>
        </g>
    </g>
</svg>
