<?xml version="1.0" encoding="iso-8859-1"?>
<!-- Generator: Adobe Illustrator 19.0.0, SVG Export Plug-In . SVG Version: 6.00 Build 0)  -->
<svg version="1.1" id="Capa_1" xmlns="http://www.w3.org/2000/svg" xmlns:xlink="http://www.w3.org/1999/xlink" x="0px" y="0px"
	 viewBox="0 0 402.286 402.286" style="enable-background:new 0 0 402.286 402.286;" xml:space="preserve">
<g>
	<g>
		<g>
			<path d="M292.571,36.571H73.143c-17.312,0-31.347,14.034-31.347,31.347v303.02c0,17.312,14.034,31.347,31.347,31.347h151.51
				c4.092-0.068,7.768-2.518,9.404-6.269l84.637-84.637c3.262-1.754,5.276-5.178,5.224-8.882V67.918
				C323.918,50.606,309.884,36.571,292.571,36.571z M235.102,365.714v-41.796c0-5.771,4.678-10.449,10.449-10.449h42.318
				L235.102,365.714z M303.02,292.571h-57.469c-17.312,0-31.347,14.034-31.347,31.347v57.469H73.143
				c-5.771,0-10.449-4.678-10.449-10.449V67.918c0-5.771,4.678-10.449,10.449-10.449h219.429c5.771,0,10.449,4.678,10.449,10.449
				V292.571z"/>
			<path d="M112.327,206.367H91.429c-5.771,0-10.449,4.678-10.449,10.449s4.678,10.449,10.449,10.449h20.898
				c5.771,0,10.449-4.678,10.449-10.449S118.097,206.367,112.327,206.367z"/>
			<path d="M263.837,206.367H143.673c-5.771,0-10.449,4.678-10.449,10.449s4.678,10.449,10.449,10.449h120.163
				c5.771,0,10.449-4.678,10.449-10.449S269.608,206.367,263.837,206.367z"/>
			<path d="M112.327,258.612H91.429c-5.771,0-10.449,4.678-10.449,10.449c0,5.771,4.678,10.449,10.449,10.449h20.898
				c5.771,0,10.449-4.678,10.449-10.449C122.775,263.29,118.097,258.612,112.327,258.612z"/>
			<path d="M263.837,258.612H143.673c-5.771,0-10.449,4.678-10.449,10.449c0,5.771,4.678,10.449,10.449,10.449h120.163
				c5.771,0,10.449-4.678,10.449-10.449C274.286,263.29,269.608,258.612,263.837,258.612z"/>
			<path d="M112.327,154.122H91.429c-5.771,0-10.449,4.678-10.449,10.449s4.678,10.449,10.449,10.449h20.898
				c5.771,0,10.449-4.678,10.449-10.449S118.097,154.122,112.327,154.122z"/>
			<path d="M263.837,154.122H143.673c-5.771,0-10.449,4.678-10.449,10.449s4.678,10.449,10.449,10.449h120.163
				c5.771,0,10.449-4.678,10.449-10.449S269.608,154.122,263.837,154.122z"/>
			<path d="M112.327,101.878H91.429c-5.771,0-10.449,4.678-10.449,10.449s4.678,10.449,10.449,10.449h20.898
				c5.771,0,10.449-4.678,10.449-10.449S118.097,101.878,112.327,101.878z"/>
			<path d="M263.837,101.878H143.673c-5.771,0-10.449,4.678-10.449,10.449s4.678,10.449,10.449,10.449h120.163
				c5.771,0,10.449-4.678,10.449-10.449S269.608,101.878,263.837,101.878z"/>
			<path d="M318.694,0H88.816c-5.771,0-10.449,4.678-10.449,10.449c0,5.771,4.678,10.449,10.449,10.449h229.878
				c11.542,0,20.898,9.356,20.898,20.898v245.029c0,5.771,4.678,10.449,10.449,10.449s10.449-4.678,10.449-10.449V41.796
				C360.49,18.713,341.777,0,318.694,0z"/>
		</g>
	</g>
</g>
<g>
</g>
<g>
</g>
<g>
</g>
<g>
</g>
<g>
</g>
<g>
</g>
<g>
</g>
<g>
</g>
<g>
</g>
<g>
</g>
<g>
</g>
<g>
</g>
<g>
</g>
<g>
</g>
<g>
</g>
</svg>
