<?xml version="1.0" encoding="UTF-8"?>
<svg width="30px" height="26px" viewBox="0 0 30 26" version="1.1" xmlns="http://www.w3.org/2000/svg" xmlns:xlink="http://www.w3.org/1999/xlink">
    <!-- Generator: Sketch 51.2 (57519) - http://www.bohemiancoding.com/sketch -->
    <title>fc-import-icon</title>
    <desc>Created with Sketch.</desc>
    <defs></defs>
    <g id="Page-1" stroke="none" stroke-width="1" fill="none" fill-rule="evenodd">
        <g id="fc-import-icon" transform="translate(2.000000, -2.000000)">
            <path d="M24.6153846,12.9749038 L24.6153846,25.3846154 C24.6153846,25.8094498 24.300508,26.1538462 23.9120879,26.1538462 L0.703296703,26.1538462 C0.314876659,26.1538462 2.31871177e-12,25.8094498 2.31871177e-12,25.3846154 L0,5.38461538 C0,4.95978096 0.314876659,4.61538462 0.703296703,4.61538462 L16.2599852,4.61538462" id="Rectangle-3" stroke="#39B2C2" stroke-width="2.2"></path>
            <g id="long-arrow-pointing-to-the-right" transform="translate(19.119826, 10.076074) scale(-1, 1) rotate(41.000000) translate(-19.119826, -10.076074) translate(8.119826, 6.576074)" fill="#39B2C2" fill-rule="nonzero">
                <path d="M21.4293989,3.18523824 L18.0151355,0.0731547804 C17.9202741,-0.00389286827 17.816568,-0.0187169106 17.703924,0.0287137963 C17.5914045,0.0762067892 17.5349112,0.162099035 17.5349112,0.286639676 L17.5349112,2.27835565 L1.012335,1.89893046 C0.929307903,1.89893046 0.861104851,1.92555767 0.80781927,1.97890554 C0.754564832,2.03222226 0.727813041,2.10042532 0.727813041,2.18339013 L0.727813041,3.89052186 C0.727813041,3.97345553 0.75444026,4.04165858 0.807788127,4.09491302 C0.86119828,4.14822974 0.929401332,4.17485696 1.01230385,4.17485696 L17.5349735,4.55428216 L17.5349735,6.54596699 C17.5349735,6.6646839 17.5915603,6.75057614 17.7040174,6.8037683 C17.8167549,6.85138586 17.9204609,6.83338524 18.0153223,6.75057614 L21.4295858,3.60274058 C21.4888508,3.5435067 21.5184055,3.47250078 21.5184055,3.38944254 C21.5184055,3.31258175 21.488664,3.24450327 21.4293989,3.18523824 Z" id="Shape"></path>
            </g>
        </g>
    </g>
</svg>