<?xml version="1.0" encoding="UTF-8"?>
<svg width="13px" height="12px" viewBox="0 0 13 12" version="1.1" xmlns="http://www.w3.org/2000/svg" xmlns:xlink="http://www.w3.org/1999/xlink">
    <!-- Generator: Sketch 51.2 (57519) - http://www.bohemiancoding.com/sketch -->
    <title>filter</title>
    <desc>Created with Sketch.</desc>
    <defs></defs>
    <g id="Page-1" stroke="none" stroke-width="1" fill="none" fill-rule="evenodd" opacity="0.699999988">
        <g id="Filder-Search-Option-1.1" transform="translate(-1629.000000, -73.000000)" fill="#000000" fill-rule="nonzero">
            <g id="filter" transform="translate(1629.000000, 73.000000)">
                <path d="M12.9341613,0.261258065 C12.8692661,0.123604839 12.7307218,0.0358024194 12.5785484,0.0358024194 L0.393145161,0.0358024194 C0.240971774,0.0358024194 0.102479839,0.123604839 0.0375322581,0.261258065 C-0.0273629032,0.39891129 -0.00702419355,0.561620968 0.0897943548,0.679040323 L4.77404032,6.36045968 L4.77404032,11.59925 C4.77404032,11.7352782 4.84433468,11.8616089 4.95986694,11.9333185 C5.02318952,11.9725806 5.09505645,11.9923952 5.16718548,11.9923952 C5.22678629,11.9923952 5.28659677,11.9788185 5.34174194,11.9515081 L7.9736129,10.6470524 C8.10733468,10.5807944 8.19193952,10.4445565 8.19214919,10.2953185 L8.19728629,6.36061694 L12.8817944,0.678987903 C12.9786653,0.561620968 12.9990565,0.398858871 12.9341613,0.261258065 Z M7.50105242,5.96914919 C7.44312903,6.03939113 7.4113629,6.1276129 7.41125806,6.21871774 L7.40622581,10.0507298 L5.56038306,10.9656048 L5.56038306,6.21924194 C5.56038306,6.12797984 5.52866935,6.03954839 5.47058871,5.96914919 L1.22682258,0.822040323 L11.7448185,0.822040323 L7.50105242,5.96914919 Z" id="Shape"></path>
            </g>
        </g>
    </g>
</svg>