<?xml version="1.0" encoding="UTF-8"?>
<svg width="12px" height="13px" viewBox="0 0 12 13" version="1.1" xmlns="http://www.w3.org/2000/svg" xmlns:xlink="http://www.w3.org/1999/xlink">
    <!-- Generator: Sketch 52.5 (67469) - http://www.bohemiancoding.com/sketch -->
    <title>download</title>
    <desc>Created with Sketch.</desc>
    <g id="Page-1" stroke="none" stroke-width="1" fill="none" fill-rule="evenodd">
        <g id="Artboard-Copy-7" transform="translate(-1335.000000, -69.000000)" fill="#808080" fill-rule="nonzero">
            <g id="download" transform="translate(1340.900000, 75.514379) rotate(90.000000) translate(-1340.900000, -75.514379) translate(1335.000000, 70.000000)">
                <path d="M2.36,4.76745065 L2.36,0.401045752 C2.36,0.183921895 2.18379052,0.0077124183 1.96666667,0.0077124183 C1.74954281,0.0077124183 1.57333333,0.183941176 1.57333333,0.401045752 L1.57333333,4.76743137 C0.67574281,4.94956013 0,5.7429366 0,6.69439837 C0,7.64586013 0.67574281,8.43921732 1.57333333,8.6213268 L1.57333333,10.6277317 C1.57333333,10.8448363 1.74954281,11.0210265 1.96666667,11.0210265 C2.18379052,11.0210265 2.36,10.844817 2.36,10.6277317 L2.36,8.62134608 C3.25759052,8.4392366 3.93333333,7.64587941 3.93333333,6.69441765 C3.93333333,5.74295588 3.25759052,4.94956013 2.36,4.76745065 Z M1.96666667,7.87437908 C1.31490948,7.87437908 0.786666667,7.34615556 0.786666667,6.69439837 C0.786666667,6.04264118 1.31490948,5.51437908 1.96666667,5.51437908 C2.61842386,5.51437908 3.14666667,6.04264118 3.14666667,6.69439837 C3.14666667,7.34615556 2.61842386,7.87437908 1.96666667,7.87437908 Z M6.29333333,0.83411732 L6.29333333,0.401045752 C6.29333333,0.183921895 6.11710458,0.0077124183 5.9,0.0077124183 C5.68289542,0.0077124183 5.50666667,0.183921895 5.50666667,0.401045752 L5.50666667,0.834098039 C4.60907614,1.01620752 3.93333333,1.80956471 3.93333333,2.76104575 C3.93333333,3.7125268 4.60907614,4.50586471 5.50666667,4.68797418 L5.50666667,10.6277124 C5.50666667,10.844817 5.68287614,11.0210072 5.9,11.0210072 C6.11712386,11.0210072 6.29333333,10.8447977 6.29333333,10.6277124 L6.29333333,4.68799346 C7.19092386,4.50588399 7.86666667,3.7125268 7.86666667,2.76106503 C7.86666667,1.80960327 7.19092386,1.0162268 6.29333333,0.83411732 Z M5.9,3.94104575 C5.24824281,3.94104575 4.72,3.41280294 4.72,2.76104575 C4.72,2.10928856 5.24824281,1.58104575 5.9,1.58104575 C6.55175719,1.58104575 7.08,2.10928856 7.08,2.76104575 C7.08,3.41280294 6.55175719,3.94104575 5.9,3.94104575 Z M10.2266667,6.34078399 L10.2266667,0.401045752 C10.2266667,0.183921895 10.0504379,0.0077124183 9.83333333,0.0077124183 C9.61622876,0.0077124183 9.44,0.183921895 9.44,0.401045752 L9.44,6.34078399 C8.54240948,6.52289346 7.86666667,7.31625065 7.86666667,8.26771242 C7.86666667,9.21917418 8.54240948,10.0125314 9.44,10.1946408 L9.44,10.6277124 C9.44,10.844817 9.61622876,11.0210072 9.83333333,11.0210072 C10.0504379,11.0210072 10.2266667,10.8447977 10.2266667,10.6277124 L10.2266667,10.1946601 C11.1242572,10.0125507 11.8,9.21919346 11.8,8.2677317 C11.8,7.31626993 11.1242572,6.52291275 10.2266667,6.34078399 Z M9.83333333,9.44771242 C9.18157614,9.44771242 8.65333333,8.91948889 8.65333333,8.2677317 C8.65333333,7.61597451 9.18157614,7.08771242 9.83333333,7.08771242 C10.4850905,7.08771242 11.0133333,7.61597451 11.0133333,8.2677317 C11.0133333,8.91948889 10.4850905,9.44771242 9.83333333,9.44771242 Z" id="Shape"></path>
            </g>
        </g>
    </g>
</svg>