<?xml version="1.0" encoding="UTF-8"?>
<svg width="25px" height="25px" viewBox="0 0 25 25" version="1.1" xmlns="http://www.w3.org/2000/svg" xmlns:xlink="http://www.w3.org/1999/xlink">
    <!-- Generator: Sketch 52.6 (67491) - http://www.bohemiancoding.com/sketch -->
    <title>noun_home plan_1359928</title>
    <desc>Created with Sketch.</desc>
    <g id="Page-1" stroke="none" stroke-width="1" fill="none" fill-rule="evenodd">
        <g id="noun_home-plan_1359928" fill="#676767" fill-rule="nonzero">
            <path d="M24.896875,0.103125 L0.103125,0.103125 L0.103125,24.896875 L24.896875,24.896875 L24.896875,0.103125 Z M10.4375,23.021875 L10.4375,12.8125 L5.021875,12.8125 L5.021875,14.6875 L8.5625,14.6875 L8.5625,23.021875 L1.978125,23.021875 L1.978125,7.1875 L7.9375,7.1875 L7.9375,5.3125 L1.978125,5.3125 L1.978125,1.978125 L23.021875,1.978125 L23.021875,9.375 L17.415625,9.375 L17.415625,4.375 L15.540625,4.375 L15.540625,9.375 L11.375,9.375 L11.375,11.25 L23.021875,11.25 L23.021875,16.459375 L15.021875,16.459375 L15.021875,20.978125 L16.896875,20.978125 L16.896875,18.334375 L23.021875,18.334375 L23.021875,23.021875 L10.4375,23.021875 Z" id="Shape"></path>
        </g>
    </g>
</svg>
