<?xml version="1.0" encoding="UTF-8"?>
<svg width="13px" height="11px" viewBox="0 0 13 11" version="1.1" xmlns="http://www.w3.org/2000/svg" xmlns:xlink="http://www.w3.org/1999/xlink">
    <!-- Generator: Sketch 52.5 (67469) - http://www.bohemiancoding.com/sketch -->
    <title>folder-symbol</title>
    <desc>Created with Sketch.</desc>
    <g id="Page-1" stroke="none" stroke-width="1" fill="none" fill-rule="evenodd" opacity="0.699999988">
        <g id="Dasnboard_Manager_Dashboard_Page" transform="translate(-152.000000, -265.000000)" fill-rule="nonzero" stroke="#333333" stroke-width="1.2">
            <g id="Group-3" transform="translate(83.000000, 244.000000)">
                <g id="folder-symbol" transform="translate(69.000000, 21.000000)">
                    <g id="folder-white-shape">
                        <path d="M11.9173583,2.9257718 L11.9173414,2.9257549 C11.6896804,2.69805766 11.4353578,2.59183305 11.1213767,2.59183305 L5.33140632,2.59183305 L5.33140632,1.74469676 C5.33140632,1.43083671 5.22514734,1.17648504 4.99742365,0.948779475 C4.76964294,0.720998769 4.51525283,0.614715646 4.20139816,0.614715646 L1.72998111,0.614715646 C1.41602551,0.614715646 1.16171653,0.720964177 0.933904956,0.948830138 C0.706225625,1.1764551 0.6,1.43076741 0.6,1.74469676 L0.6,9.159002 C0.6,9.47285646 0.706230233,9.72716712 0.934006277,9.95488879 C1.1617628,10.1826997 1.41612323,10.2889831 1.72998111,10.2889831 L11.1213497,10.2889831 C11.435291,10.2889831 11.689585,10.1827282 11.9174494,9.95473683 C12.1451301,9.72716482 12.2513308,9.47290479 12.2513308,9.159002 L12.2513308,3.72188811 C12.2513487,3.40788011 12.1451567,3.15358838 11.9173583,2.9257718 Z" id="Shape"></path>
                    </g>
                </g>
            </g>
        </g>
    </g>
</svg>