<?xml version="1.0" encoding="UTF-8"?>
<svg width="14px" height="12px" viewBox="0 0 14 12" version="1.1" xmlns="http://www.w3.org/2000/svg" xmlns:xlink="http://www.w3.org/1999/xlink">
    <!-- Generator: Sketch 52.6 (67491) - http://www.bohemiancoding.com/sketch -->
    <title>list (1)</title>
    <desc>Created with Sketch.</desc>
    <g id="Page-1" stroke="none" stroke-width="1" fill="none" fill-rule="evenodd">
        <g id="Form_Builder_System_Fields1.0" transform="translate(-276.000000, -261.000000)" fill="#324056" fill-rule="nonzero">
            <g id="list-(1)" transform="translate(276.000000, 261.000000)">
                <path d="M0,3.09785462 L3.09785462,3.09785462 L3.09785462,0 L0,0 L0,3.09785462 Z M0.820419305,0.820419305 L2.27754212,0.820419305 L2.27754212,2.27754212 L0.820419305,2.27754212 L0.820419305,0.820419305 Z" id="Shape"></path>
                <path d="M4.08233643,0 L4.08233643,3.09785462 L14,3.09785462 L14,0 L4.08233643,0 Z M13.1795807,2.27754212 L4.90275573,2.27754212 L4.90275573,0.820419305 L13.1795807,0.820419305 L13.1795807,2.27754212 Z" id="Shape"></path>
                <path d="M0,7.11759948 L3.09785462,7.11759948 L3.09785462,4.01974486 L0,4.01974486 L0,7.11759948 Z M0.820419305,4.84005736 L2.27754212,4.84005736 L2.27754212,6.29718018 L0.820419305,6.29718018 L0.820419305,4.84005736 Z" id="Shape"></path>
                <path d="M4.08233643,7.11759948 L14,7.11759948 L14,4.01974486 L4.08233643,4.01974486 L4.08233643,7.11759948 Z M4.90275573,4.84005736 L13.1795807,4.84005736 L13.1795807,6.29718018 L4.90275573,6.29718018 L4.90275573,4.84005736 Z" id="Shape"></path>
                <path d="M0,11.1373444 L3.09785462,11.1373444 L3.09785462,8.03938294 L0,8.03938294 L0,11.1373444 Z M0.820419305,8.85980225 L2.27754212,8.85980225 L2.27754212,10.3169251 L0.820419305,10.3169251 L0.820419305,8.85980225 Z" id="Shape"></path>
                <path d="M4.08233643,11.1373444 L14,11.1373444 L14,8.03938294 L4.08233643,8.03938294 L4.08233643,11.1373444 Z M4.90275573,8.85980225 L13.1795807,8.85980225 L13.1795807,10.3169251 L4.90275573,10.3169251 L4.90275573,8.85980225 Z" id="Shape"></path>
            </g>
        </g>
    </g>
</svg>