<?xml version="1.0" encoding="UTF-8"?>
<svg width="14px" height="17px" viewBox="0 0 14 17" version="1.1" xmlns="http://www.w3.org/2000/svg" xmlns:xlink="http://www.w3.org/1999/xlink">
    <!-- Generator: Sketch 52.6 (67491) - http://www.bohemiancoding.com/sketch -->
    <title>Shape</title>
    <desc>Created with Sketch.</desc>
    <g id="Page-1" stroke="none" stroke-width="1" fill="none" fill-rule="evenodd">
        <g id="Form_Builder_System_Fields1.0" transform="translate(-276.000000, -198.000000)" fill="#324056" fill-rule="nonzero">
            <path d="M287.133795,208.738953 C287.118719,208.737898 285.474875,208.792333 285.003638,207.167535 C285.310906,206.946282 285.595641,206.673155 285.849319,206.349361 C286.39391,205.654367 286.749123,204.788036 286.883793,203.851251 C286.922361,203.808116 286.954697,203.758904 286.979148,203.704168 C287.212476,203.180462 287.330792,202.621354 287.330792,202.042461 C287.330792,199.813461 285.540399,198 283.339711,198 C282.774716,198 282.226395,198.119866 281.707959,198.356485 C281.516769,198.372655 281.329308,198.405496 281.149144,198.454658 C279.305107,198.956871 278.261257,201.052598 278.822257,203.126379 C278.878564,203.334476 279.014886,203.733293 279.125636,203.877715 C279.335365,205.289496 280.036521,206.469076 280.998014,207.16181 C280.518839,208.813574 278.881921,208.737999 278.867005,208.739003 C277.277551,208.78716 276,210.020171 276,211.529974 L276,213.35413 C276,214.039181 276.591257,214.596531 277.317984,214.596531 L288.682016,214.596531 C289.408743,214.596531 290,214.039181 290,213.35413 L290,211.529974 C289.99984,210.020322 288.722822,208.787512 287.133795,208.738953 Z M281.485232,199.551382 C281.61644,199.515628 281.755477,199.494437 281.898457,199.48826 C281.987207,199.484444 282.074039,199.462298 282.152721,199.423381 C282.530308,199.236425 282.929629,199.141617 283.339657,199.141617 C284.791458,199.141617 285.986172,200.309045 286.108643,201.79143 C285.806648,201.612308 285.449731,201.50826 285.067297,201.50826 L282.327238,201.50826 C282.208443,201.50826 282.095721,201.473209 282.001431,201.406773 C281.920618,201.349878 281.858184,201.273599 281.821001,201.186223 C281.709131,200.92314 281.43276,200.75833 281.132151,200.776358 C280.830795,200.794385 280.577224,200.991585 280.500993,201.267222 C280.385927,201.684017 280.182751,202.075453 279.909416,202.418681 C279.728028,201.088603 280.380014,199.852378 281.485232,199.551382 Z M280.320191,203.687697 C280.747,203.311928 281.098483,202.865004 281.35264,202.37198 C281.641477,202.554064 281.976447,202.649827 282.327238,202.649827 L285.067297,202.649827 C285.357199,202.649827 285.608692,202.805799 285.733667,203.033128 C285.723492,204.530427 285.049238,205.816867 284.089929,206.381198 C284.059458,206.394957 283.621888,206.686864 283.002397,206.686864 C281.704923,206.686814 280.564279,205.389476 280.320191,203.687697 Z M284.79002,209.013786 C284.27494,209.366907 283.649909,209.562349 283.00245,209.562299 C282.353873,209.562299 281.727936,209.366254 281.212377,209.012129 C281.612391,208.655343 281.919766,208.206359 282.095135,207.70043 C282.386795,207.78404 282.690547,207.828331 283.002397,207.828331 C283.311211,207.828331 283.613418,207.784592 283.905558,207.702238 C284.081459,208.208267 284.389474,208.65715 284.79002,209.013786 Z M288.788825,213.35398 C288.788825,213.409619 288.740828,213.454814 288.681857,213.454814 L277.317824,213.454814 C277.258799,213.454814 277.210855,213.409619 277.210855,213.35398 L277.210855,211.529823 C277.210855,210.61905 277.996872,209.878109 278.963053,209.878109 C278.979354,209.878109 279.550954,209.86912 280.138802,209.65771 C280.917414,210.326992 281.938358,210.703866 283.002504,210.703866 C284.065904,210.703866 285.086421,210.327294 285.864927,209.658764 C286.464495,209.888906 287.02038,209.878159 287.036734,209.878159 C288.002861,209.878159 288.788878,210.6191 288.788878,211.529873 L288.788878,213.35398 L288.788825,213.35398 Z" id="Shape"></path>
        </g>
    </g>
</svg>