<?xml version="1.0" encoding="UTF-8"?>
<svg width="14px" height="13px" viewBox="0 0 14 13" version="1.1" xmlns="http://www.w3.org/2000/svg" xmlns:xlink="http://www.w3.org/1999/xlink">
    <!-- Generator: Sketch 52.6 (67491) - http://www.bohemiancoding.com/sketch -->
    <title>priority</title>
    <desc>Created with Sketch.</desc>
    <g id="Page-1" stroke="none" stroke-width="1" fill="none" fill-rule="evenodd">
        <g id="Form_Builder_System_Fields1.0" transform="translate(-95.000000, -564.000000)" fill="#324056" fill-rule="nonzero">
            <g id="priority" transform="translate(95.000000, 564.000000)">
                <path d="M6.125,0.00940625 L6.125,2.63440625 L14,2.63440625 L14,0.00940625 L6.125,0.00940625 Z M13.125,1.75940625 L7,1.75940625 L7,0.88440625 L13.125,0.88440625 L13.125,1.75940625 Z" id="Shape"></path>
                <path d="M6.125,12.2594062 L14,12.2594062 L14,9.63440625 L6.125,9.63440625 L6.125,12.2594062 Z M7,10.5094062 L13.125,10.5094062 L13.125,11.3844062 L7,11.3844062 L7,10.5094062 Z" id="Shape"></path>
                <path d="M6.125,7.44690625 L14,7.44690625 L14,4.82190625 L6.125,4.82190625 L6.125,7.44690625 Z M7,5.69690625 L13.125,5.69690625 L13.125,6.57190625 L7,6.57190625 L7,5.69690625 Z" id="Shape"></path>
                <rect id="Rectangle-path" x="4.375" y="0.88440625" width="1" height="1"></rect>
                <path d="M3.0625,1.75940625 L3.5,1.75940625 L3.5,0.88440625 L3.0625,0.88440625 C2.89269531,0.884953125 2.72324609,0.899609375 2.555875,0.92815625 L2.6985,1.79090625 C2.81878516,1.77061719 2.94051953,1.7600625 3.0625,1.75940625 Z" id="Shape"></path>
                <path d="M2.7531875,9.50621875 L3.756375,10.5094063 L3.0625,10.5094063 C1.85497266,10.507957 0.876449219,9.52943359 0.875,8.32190625 L0.875,3.94690625 C0.8745625,3.14701953 1.31077734,2.41067969 2.0125,2.02671875 L1.5925,1.25890625 C0.610175781,1.79640234 -0.0004921875,2.82715234 -1.58818678e-22,3.94690625 L-1.58818678e-22,8.32190625 C0.00194140625,10.0124883 1.37191797,11.3824648 3.0625,11.3844062 L3.756375,11.3844062 L2.7531875,12.3875938 L3.3718125,13.0062188 L5.431125,10.9469062 L3.3718125,8.88759375 L2.7531875,9.50621875 Z" id="Shape"></path>
            </g>
        </g>
    </g>
</svg>