<?xml version="1.0" encoding="UTF-8"?>
<svg width="14px" height="17px" viewBox="0 0 14 17" version="1.1" xmlns="http://www.w3.org/2000/svg" xmlns:xlink="http://www.w3.org/1999/xlink">
    <!-- Generator: Sketch 52.6 (67491) - http://www.bohemiancoding.com/sketch -->
    <title>list</title>
    <desc>Created with Sketch.</desc>
    <g id="Page-1" stroke="none" stroke-width="1" fill="none" fill-rule="evenodd">
        <g id="Form_Builder_System_Fields1.0" transform="translate(-95.000000, -442.000000)" fill="#324056" fill-rule="nonzero">
            <g id="list" transform="translate(95.000000, 442.000000)">
                <path d="M12.1301807,1.16236322 L11.4803133,1.16236322 L11.4803133,0.371352785 C11.4803133,0.166238377 11.3140749,0 11.1089606,0 C10.9039912,0 10.7376078,0.166238377 10.7376078,0.371352785 L10.7376078,1.16598974 L3.24005305,1.16598974 L3.24005305,0.371352785 C3.24005305,0.166238377 3.07381467,0 2.86870027,0 C2.66358586,0 2.49734748,0.166238377 2.49734748,0.371352785 L2.49734748,1.16598974 L1.86604775,1.16598974 C0.840765915,1.16642489 0.00971900796,1.9974718 0.00928381963,3.02275367 L0.00928381963,14.5013263 C0.00971900796,15.5266081 0.840765915,16.357655 1.86604775,16.3580902 L12.1265542,16.3580902 C13.151836,16.357655 13.9828829,15.5266081 13.9833181,14.5013263 L13.9833181,3.01912715 C13.9833181,1.99515084 13.154302,1.16439407 12.1301807,1.16236322 Z M13.2442391,14.4975547 C13.2424983,15.1121726 12.7447986,15.6098723 12.1301807,15.6116131 L1.86604775,15.6116131 C1.25157493,15.6098723 0.753730106,15.1121726 0.75198939,14.4975547 L0.75198939,3.01912715 C0.753730106,2.40450928 1.25157493,1.90680951 1.86604775,1.90506879 L2.49734748,1.90506879 L2.49734748,2.48066561 C2.49734748,2.68578002 2.66358586,2.85201839 2.86870027,2.85201839 C3.07381467,2.85201839 3.24005305,2.68578002 3.24005305,2.48066561 L3.24005305,1.90506879 L10.7376078,1.90506879 L10.7376078,2.48066561 C10.7376078,2.68578002 10.9039912,2.85201839 11.1089606,2.85201839 C11.3140749,2.85201839 11.4803133,2.68578002 11.4803133,2.48066561 L11.4803133,1.90506879 L12.1301807,1.90506879 C12.7447986,1.90680951 13.2424983,2.40450928 13.2442391,3.01912715 L13.2442391,14.4975547 Z" id="Shape"></path>
                <path d="M4.73286224,7.87267905 L3.36262847,9.17981185 L2.73132874,8.54851211 C2.58670424,8.40388762 2.3522878,8.40388762 2.20766331,8.54851211 C2.06303881,8.6931366 2.06303881,8.92755305 2.20766331,9.07217754 L3.09528347,9.95965269 C3.16491212,10.0298616 3.26007127,10.0687376 3.35885694,10.067432 C3.45474138,10.0683024 3.54699934,10.030877 3.61517737,9.96342423 L5.24535809,8.40374253 C5.34182277,8.3125 5.38200433,8.17657909 5.3503813,8.04762104 C5.31875827,7.91866295 5.22026277,7.81654094 5.09261025,7.78042109 C4.96481265,7.74415615 4.82744116,7.77940566 4.73286224,7.87267905 Z" id="Shape"></path>
                <path d="M11.5286182,8.54851211 L7.25806118,8.54851211 C7.05294677,8.54851211 6.8867084,8.71475049 6.8867084,8.9198649 C6.8867084,9.12497927 7.05294677,9.29121768 7.25806118,9.29121768 L11.5286182,9.29121768 C11.7337326,9.29121768 11.899971,9.12497927 11.899971,8.9198649 C11.899971,8.71475049 11.7337326,8.54851211 11.5286182,8.54851211 Z" id="Shape"></path>
                <path d="M4.73286224,4.15915119 L3.36262847,5.46628399 L2.73132874,4.83498426 C2.58670424,4.69035977 2.3522878,4.69035977 2.20766331,4.83498426 C2.06303881,4.97960875 2.06303881,5.2140252 2.20766331,5.35864969 L3.09528347,6.24612484 C3.16491212,6.31633373 3.26007127,6.35520972 3.35885694,6.35390416 C3.45474138,6.35477454 3.54699934,6.31734916 3.61517737,6.24989638 L5.24535809,4.69021468 C5.34182277,4.59897215 5.38200433,4.46305124 5.3503813,4.33409319 C5.31875827,4.2051351 5.22026277,4.10301309 5.09261025,4.06689324 C4.96481265,4.0306283 4.82744116,4.06587781 4.73286224,4.15915119 Z" id="Shape"></path>
                <path d="M11.5286182,4.83498426 L7.25806118,4.83498426 C7.05294677,4.83498426 6.8867084,5.00122264 6.8867084,5.20633705 C6.8867084,5.41145142 7.05294677,5.57768983 7.25806118,5.57768983 L11.5286182,5.57768983 C11.7337326,5.57768983 11.899971,5.41145142 11.899971,5.20633705 C11.899971,5.00122264 11.7337326,4.83498426 11.5286182,4.83498426 Z" id="Shape"></path>
                <path d="M4.73286224,11.5862069 L3.36262847,12.8933397 L2.73132874,12.26204 C2.58670424,12.1174155 2.3522878,12.1174155 2.20766331,12.26204 C2.06303881,12.4066645 2.06303881,12.6410809 2.20766331,12.7857054 L3.09528347,13.6731805 C3.16491212,13.7433894 3.26007127,13.7822654 3.35885694,13.7809599 C3.45474138,13.7818302 3.54699934,13.7444049 3.61517737,13.6769521 L5.24535809,12.1172704 C5.34182277,12.0260279 5.38200433,11.8901069 5.3503813,11.7611489 C5.31875827,11.6321908 5.22026277,11.5300688 5.09261025,11.4939489 C4.96481265,11.457684 4.82744116,11.4929335 4.73286224,11.5862069 Z" id="Shape"></path>
                <path d="M11.5286182,12.26204 L7.25806118,12.26204 C7.05294677,12.26204 6.8867084,12.4282783 6.8867084,12.6333927 C6.8867084,12.8385071 7.05294677,13.0047455 7.25806118,13.0047455 L11.5286182,13.0047455 C11.7337326,13.0047455 11.899971,12.8385071 11.899971,12.6333927 C11.899971,12.4282783 11.7337326,12.26204 11.5286182,12.26204 Z" id="Shape"></path>
            </g>
        </g>
    </g>
</svg>