<?xml version="1.0" encoding="UTF-8"?>
<svg width="17px" height="14px" viewBox="0 0 17 14" version="1.1" xmlns="http://www.w3.org/2000/svg" xmlns:xlink="http://www.w3.org/1999/xlink">
    <!-- Generator: Sketch 52.6 (67491) - http://www.bohemiancoding.com/sketch -->
    <title>radio-button</title>
    <desc>Created with Sketch.</desc>
    <g id="Page-1" stroke="none" stroke-width="1" fill="none" fill-rule="evenodd">
        <g id="Form_Builder_Form_Properties1.1" transform="translate(-95.000000, -244.000000)" fill="#324056" fill-rule="nonzero">
            <g id="Group-5" transform="translate(80.000000, 230.000000)">
                <g id="radio-button" transform="translate(15.000000, 14.000000)">
                    <path d="M3.18181818,6.36363636 C1.42734375,6.36363636 0,4.93629261 0,3.18181818 C0,1.42734375 1.42734375,0 3.18181818,0 C4.93629261,0 6.36363636,1.42734375 6.36363636,3.18181818 C6.36363636,4.93629261 4.93629261,6.36363636 3.18181818,6.36363636 Z M3.18181818,1.27272727 C2.12908379,1.27272727 1.27272727,2.12908379 1.27272727,3.18181818 C1.27272727,4.23455257 2.12908379,5.09090909 3.18181818,5.09090909 C4.23455257,5.09090909 5.09090909,4.23455257 5.09090909,3.18181818 C5.09090909,2.12908379 4.23455257,1.27272727 3.18181818,1.27272727 Z M16.2909091,2.54545455 L7.63636364,2.54545455 L7.63636364,3.81818182 L16.2909091,3.81818182 L16.2909091,2.54545455 Z M3.18181818,2.54545455 C2.83094815,2.54545455 2.54545455,2.83094815 2.54545455,3.18181818 C2.54545455,3.53268822 2.83094815,3.81818182 3.18181818,3.81818182 C3.53268822,3.81818182 3.81818182,3.53268822 3.81818182,3.18181818 C3.81818182,2.83094815 3.53268822,2.54545455 3.18181818,2.54545455 Z M3.18181818,14 C1.42734375,14 0,12.5726563 0,10.8181818 C0,9.06370739 1.42734375,7.63636364 3.18181818,7.63636364 C4.93629261,7.63636364 6.36363636,9.06370739 6.36363636,10.8181818 C6.36363636,12.5726563 4.93629261,14 3.18181818,14 Z M3.18181818,8.90909091 C2.12908379,8.90909091 1.27272727,9.76544743 1.27272727,10.8181818 C1.27272727,11.8709162 2.12908379,12.7272727 3.18181818,12.7272727 C4.23455257,12.7272727 5.09090909,11.8709162 5.09090909,10.8181818 C5.09090909,9.76544743 4.23455257,8.90909091 3.18181818,8.90909091 Z M16.2909091,10.1818182 L7.63636364,10.1818182 L7.63636364,11.4545455 L16.2909091,11.4545455 L16.2909091,10.1818182 Z" id="Shape"></path>
                </g>
            </g>
        </g>
    </g>
</svg>