<?xml version="1.0" encoding="UTF-8"?>
<svg width="14px" height="18px" viewBox="0 0 14 18" version="1.1" xmlns="http://www.w3.org/2000/svg" xmlns:xlink="http://www.w3.org/1999/xlink">
    <!-- Generator: Sketch 52.6 (67491) - http://www.bohemiancoding.com/sketch -->
    <title>place</title>
    <desc>Created with Sketch.</desc>
    <g id="Page-1" stroke="none" stroke-width="1" fill="none" fill-rule="evenodd">
        <g id="Form_Builder_System_Fields1.0" transform="translate(-276.000000, -380.000000)" fill="#324056" fill-rule="nonzero">
            <g id="Group-2" transform="translate(260.000000, 368.000000)">
                <g id="place" transform="translate(16.000000, 12.000000)">
                    <path d="M12.7195048,2.99589904 C11.4040769,1.09210096 9.31932212,0 7.00020192,0 C4.68108173,0 2.59632692,1.09210096 1.28089904,2.99589904 C-0.0280673077,4.89007212 -0.3303125,7.28814423 0.470783654,9.40682212 C0.685057692,9.98539904 1.02566827,10.5475192 1.48073558,11.0742692 L6.54153365,17.0186827 C6.65599038,17.1532308 6.8236875,17.2307692 7.00020192,17.2307692 C7.17671635,17.2307692 7.34441346,17.1532644 7.45887019,17.0186827 L12.5182548,11.0758846 C12.9753413,10.5461058 13.3155144,9.98459135 13.5280048,9.41065865 C14.3307163,7.28814423 14.0284712,4.89007212 12.7195048,2.99589904 Z M12.3997933,8.98870673 C12.2359327,9.43152404 11.9684183,9.86932692 11.605125,10.2904375 C11.6041154,10.2914471 11.6031058,10.2924567 11.6022981,10.2936683 L7.00020192,15.6990817 L2.39527885,10.2902692 C2.0321875,9.86952885 1.76467308,9.43175962 1.59919712,8.98470192 C0.9366875,7.23251442 1.18811538,5.24976442 2.27197115,3.681125 C3.35922596,2.10747115 5.08270673,1.20494231 7.00020192,1.20494231 C8.91766346,1.20494231 10.6409423,2.1074375 11.7282308,3.681125 C12.8122885,5.24976442 13.0639183,7.23251442 12.3997933,8.98870673 Z" id="Shape"></path>
                    <path d="M7.00020192,3.57467788 C5.13995192,3.57467788 3.62633654,5.08809135 3.62633654,6.94854327 C3.62633654,8.80899519 5.13975,10.3224087 7.00020192,10.3224087 C8.86065385,10.3224087 10.3740673,8.80899519 10.3740673,6.94854327 C10.3740673,5.08829327 8.86045192,3.57467788 7.00020192,3.57467788 Z M7.00020192,9.11743269 C5.80427885,9.11743269 4.83127885,8.14443269 4.83127885,6.94850962 C4.83127885,5.75258654 5.80427885,4.77958654 7.00020192,4.77958654 C8.196125,4.77958654 9.169125,5.75258654 9.169125,6.94850962 C9.169125,8.14443269 8.196125,9.11743269 7.00020192,9.11743269 Z" id="Shape"></path>
                </g>
            </g>
        </g>
    </g>
</svg>