<?xml version="1.0" encoding="UTF-8"?>
<svg width="13px" height="13px" viewBox="0 0 13 13" version="1.1" xmlns="http://www.w3.org/2000/svg" xmlns:xlink="http://www.w3.org/1999/xlink">
    <!-- Generator: Sketch 51.2 (57519) - http://www.bohemiancoding.com/sketch -->
    <title>information</title>
    <desc>Created with Sketch.</desc>
    <defs></defs>
    <g id="Page-1" stroke="none" stroke-width="1" fill="none" fill-rule="evenodd">
        <g id="Add-Derivation-Build-in-function" transform="translate(-1090.000000, -209.000000)" fill="#000000" fill-rule="nonzero">
            <g id="Group-5" transform="translate(1090.000000, 159.000000)">
                <g id="information" transform="translate(0.000000, 50.000000)">
                    <circle id="Oval" cx="6.5" cy="9.61035156" r="1"></circle>
                    <path d="M6.5,0 C2.90763281,0 0,2.90715039 0,6.5 C0,10.0923672 2.90715039,13 6.5,13 C10.0923672,13 13,10.0928496 13,6.5 C13,2.90763281 10.0928496,0 6.5,0 Z M6.5,11.984375 C3.46894336,11.984375 1.015625,9.53146289 1.015625,6.5 C1.015625,3.46894336 3.46853711,1.015625 6.5,1.015625 C9.53105664,1.015625 11.984375,3.46853711 11.984375,6.5 C11.984375,9.53105664 9.53146289,11.984375 6.5,11.984375 Z" id="Shape"></path>
                    <path d="M6.5,3.26269531 C5.37996875,3.26269531 4.46875,4.17391406 4.46875,5.29394531 C4.46875,5.57441016 4.69609766,5.80175781 4.9765625,5.80175781 C5.25702734,5.80175781 5.484375,5.57441016 5.484375,5.29394531 C5.484375,4.73392969 5.93998437,4.27832031 6.5,4.27832031 C7.06001562,4.27832031 7.515625,4.73392969 7.515625,5.29394531 C7.515625,5.85396094 7.06001562,6.30957031 6.5,6.30957031 C6.21953516,6.30957031 5.9921875,6.53691797 5.9921875,6.81738281 L5.9921875,8.08691406 C5.9921875,8.36737891 6.21953516,8.59472656 6.5,8.59472656 C6.78046484,8.59472656 7.0078125,8.36737891 7.0078125,8.08691406 L7.0078125,7.26093164 C7.88292578,7.03487891 8.53125,6.23870508 8.53125,5.29394531 C8.53125,4.17391406 7.62003125,3.26269531 6.5,3.26269531 Z" id="Shape"></path>
                </g>
            </g>
        </g>
    </g>
</svg>