<?xml version="1.0" encoding="UTF-8"?>
<svg width="18px" height="22px" viewBox="0 0 18 22" version="1.1" xmlns="http://www.w3.org/2000/svg" xmlns:xlink="http://www.w3.org/1999/xlink">
    <!-- Generator: Sketch 53.1 (72631) - https://sketchapp.com -->
    <title>Icon</title>
    <desc>Created with Sketch.</desc>
    <g id="Page-4" stroke="none" stroke-width="1" fill="none" fill-rule="evenodd">
        <g id="Workorder_summer_icons" transform="translate(-91.000000, -29.000000)">
            <g id="Labour-Icon" transform="translate(80.000000, 20.000000)">
                <g id="Icon" transform="translate(11.000000, 9.000000)">
                    <path d="M2.4,5.4 L2.4,7.6 L15.6,7.6 L15.6,5.4 L14.2121919,5.4 L14.178844,5.03654779 C13.9389998,2.4225355 11.6974825,0.4 9,0.4 C6.30251754,0.4 4.06100019,2.4225355 3.821156,5.03654779 L3.78780806,5.4 L2.4,5.4 Z" id="Shape" stroke="#FFFFFF" stroke-width="0.8"></path>
                    <g id="Group" transform="translate(0.000000, 0.772400)">
                        <path d="M7.3,3.31567432 L8.32591545,0.461402236 C8.39344401,0.146268937 8.70365274,-0.0544543595 9.01878604,0.0130742044 C9.24346085,0.0612188065 9.41896947,0.236727426 9.46711407,0.461402236 L10.5,3.36000523" id="Path" stroke="#FFFFFF" stroke-width="0.8" stroke-linecap="round" stroke-linejoin="bevel" transform="translate(8.900000, 1.680003) scale(1, -1) translate(-8.900000, -1.680003) "></path>
                        <path d="M4.5,6.72759989 C4.5,9.76516601 5.96243388,13.0609332 9,13.0609332 C12.0375661,13.0609332 13.5,9.76516601 13.5,6.72759989" id="Path" stroke="#FFFFFF" stroke-width="0.8"></path>
                        <circle id="Oval" fill="#FFFFFF" cx="9" cy="15.7275999" r="1"></circle>
                        <circle id="Oval-Copy-2" fill="#FFFFFF" cx="9" cy="17.7275999" r="1"></circle>
                        <circle id="Oval-Copy-3" fill="#FFFFFF" cx="10.5" cy="8.72759989" r="1"></circle>
                        <circle id="Oval-Copy-4" fill="#FFFFFF" cx="7.5" cy="8.72759989" r="1"></circle>
                        <path d="M5.32907052e-15,20.7275999 L18,20.7275999" id="Line-3" stroke="#FFFFFF" stroke-width="0.8"></path>
                        <path d="M0.5,20.7275999 C0.833333333,17.0609332 2.33333333,14.7275999 5,13.7275999" id="Path-3" stroke="#FFFFFF" stroke-width="0.8"></path>
                        <path d="M13,20.7275999 C13.3333333,17.0609332 14.8333333,14.7275999 17.5,13.7275999" id="Path-3-Copy" stroke="#FFFFFF" stroke-width="0.8" transform="translate(15.250000, 17.227600) scale(-1, 1) translate(-15.250000, -17.227600) "></path>
                    </g>
                </g>
            </g>
        </g>
    </g>
</svg>