<?xml version="1.0" encoding="UTF-8"?>
<svg width="19px" height="18px" viewBox="0 0 19 18" version="1.1" xmlns="http://www.w3.org/2000/svg" xmlns:xlink="http://www.w3.org/1999/xlink">
    <!-- Generator: Sketch 53.1 (72631) - https://sketchapp.com -->
    <title>tools (1)</title>
    <desc>Created with Sketch.</desc>
    <g id="Page-4" stroke="none" stroke-width="1" fill="none" fill-rule="evenodd">
        <g id="Workorder_summer_icons" transform="translate(-151.000000, -31.000000)" fill="#FFFFFF" fill-rule="nonzero">
            <g id="Tools-Icon" transform="translate(140.000000, 20.000000)">
                <g id="tools-(1)" transform="translate(11.000000, 11.000000)">
                    <path d="M18.5142695,13.7724983 C18.3584901,13.2613953 18.0783872,12.7969247 17.6989754,12.4207336 C17.094696,11.8131012 16.2723872,11.472513 15.415446,11.4748512 C14.9774901,11.4750718 14.5440783,11.5639247 14.1413283,11.7360277 L10.9648577,8.55955709 L15.1825048,4.37367474 L16.1813283,4.34543945 C16.3021666,4.34177768 16.4126813,4.27648356 16.4742695,4.17249827 L17.9036813,1.76896886 C17.9867548,1.63026298 17.9649166,1.4528218 17.8507401,1.33838062 L16.615446,0.103086505 C16.5010048,-0.0110899653 16.3235636,-0.0329282006 16.1848577,0.0501453288 L13.7813283,1.47955709 C13.677343,1.54114533 13.6120489,1.65166003 13.6083872,1.77249827 L13.5801519,2.76779239 L9.37309304,6.96779239 L6.48603421,4.08073356 C6.78916657,2.32313062 5.61007833,0.652571799 3.85247539,0.349439446 C3.03810774,0.208968858 2.20084304,0.386057094 1.51309304,0.844262976 C1.35162245,0.953454152 1.30922539,1.17285121 1.41841657,1.3343218 C1.44912245,1.37971886 1.48997539,1.41735121 1.53779892,1.44426298 L3.14015186,2.33720415 C3.49309304,2.53838062 3.56368127,3.13838062 3.27779892,3.64661592 C2.99191657,4.15485121 2.44485774,4.41602768 2.08838715,4.21838062 L0.602504801,3.41367474 C0.431725389,3.31970415 0.217093036,3.38199827 0.123166565,3.55277768 C0.0907842123,3.61158651 0.0758724476,3.67842474 0.080195977,3.74543945 C0.191857742,5.52549827 1.72543127,6.87796886 3.50549009,6.76630709 C3.8732548,6.74323356 4.23435774,6.65738062 4.57313715,6.51249827 L7.19901951,9.13838062 L6.06254892,10.2748512 L5.80490186,10.0207336 C5.51968127,9.74777768 5.07012245,9.74777768 4.78490186,10.0207336 L4.43196068,10.3736747 C4.16306362,10.6354689 4.14603421,11.0618659 4.39313715,11.344263 L0.217843036,15.5124983 C-0.063804023,15.782013 -0.0736422583,16.2288806 0.195872448,16.5105277 C0.203019506,16.5180277 0.210343036,16.5253512 0.217843036,16.5324983 L1.41078421,17.7254394 C1.68029892,18.0070865 2.12716657,18.0169247 2.40881362,17.74741 C2.41631362,17.740263 2.42363715,17.7329394 2.43078421,17.7254394 L6.60960774,13.5501453 C6.8920048,13.7972483 7.31840186,13.7802189 7.58019598,13.5113218 L7.93313715,13.1583806 C8.21478421,12.8888659 8.22462245,12.4419983 7.95510774,12.1603512 C7.94796068,12.1528512 7.94063715,12.1455277 7.93313715,12.1383806 L7.67549009,11.8807336 L8.80490186,10.7266159 L12.2284313,14.1501453 C11.9326666,15.9090277 13.1187254,17.5746012 14.8776077,17.8703659 C15.9194019,18.0455571 16.9810048,17.7001159 17.720196,16.9454394 C17.8498136,16.7998512 17.8369313,16.5767924 17.691343,16.4471306 C17.6537548,16.4136453 17.6094166,16.3885865 17.5613724,16.3736747 L15.5743136,15.8407336 C15.3795783,15.7781306 15.2254313,15.62791 15.157843,15.4348512 C15.0546077,15.1686894 15.0422107,14.8758806 15.1225489,14.60191 C15.2707842,14.0477924 15.740196,13.6524983 16.1354901,13.7583806 L18.1013724,14.2877924 C18.1329607,14.2923806 18.1650783,14.2923806 18.1966666,14.2877924 C18.3915783,14.2901747 18.5515048,14.1340865 18.553843,13.9391747 C18.5545048,13.8812042 18.5409607,13.8239394 18.5142695,13.7724983 Z M14.1695636,3.15955709 C14.233093,3.09558651 14.2697107,3.00968945 14.2719166,2.91955709 L14.3001519,1.97720415 L16.3013283,0.787792388 L17.1483872,1.63485121 L15.9836813,3.63249827 L15.0236813,3.66779239 C14.9335489,3.66999827 14.8476519,3.70661592 14.7836813,3.77014533 L10.4777989,8.07249827 L9.87074009,7.46543945 L14.1695636,3.15955709 Z M1.92956362,17.224263 L0.718975389,16.0207336 L4.91544598,11.8348512 L5.5225048,12.44191 L6.10132833,13.04191 L1.92956362,17.224263 Z M7.09309304,12.9889689 L6.62721068,12.5195571 L6.44721068,12.3395571 L4.96485774,10.8466159 L5.31779892,10.4936747 L7.43544598,12.6395571 L7.09309304,12.9889689 Z M7.16015186,11.3795571 L6.55309304,10.7724983 L7.68956362,9.63602768 L8.29662245,10.2430865 L7.16015186,11.3795571 Z M16.3083872,13.0772042 C16.2036519,13.0490571 16.0956519,13.0348071 15.9872107,13.0348512 C15.2177548,13.0969689 14.5826372,13.6614983 14.4307401,14.4183806 C14.3102989,14.84341 14.3338577,15.2963659 14.4977989,15.7066159 C14.6490783,16.1014247 14.9771813,16.4020865 15.3836813,16.5183806 L16.6966224,16.8713218 C15.4993577,17.5847483 13.9504313,17.1925424 13.2370048,15.9953218 C12.9019313,15.4330424 12.7984754,14.7625865 12.9483872,14.1254394 C12.9752548,14.0069394 12.9392548,13.8829247 12.853093,13.7972042 L4.89779892,5.83485121 C4.78485774,5.72874827 4.61593127,5.70871886 4.48132833,5.78543945 C4.11687245,5.97774827 3.71103421,6.07833651 3.29897539,6.07838062 C2.23710774,6.07930709 1.28862245,5.41449827 0.927210683,4.41602768 L1.73191657,4.86426298 C1.9195048,4.96930709 2.13104892,5.02401298 2.34603421,5.02308651 C2.9995048,4.98545415 3.58397539,4.60388062 3.88132833,4.02073356 C4.36132833,3.16308651 4.17426951,2.14308651 3.46838715,1.74779239 L2.44132833,1.16543945 C3.75382833,0.696601211 5.19784304,1.38055709 5.66668127,2.69301298 C5.82938715,3.1485718 5.8577548,3.64127768 5.74838715,4.11249827 C5.72151951,4.23099827 5.75751951,4.35501298 5.84368127,4.44073356 L13.8166224,12.4101453 C13.925593,12.5192483 14.0927989,12.545013 14.2295636,12.4736747 C14.5940636,12.2814983 14.9998577,12.1809542 15.4119166,12.1807336 C16.3056519,12.1800277 17.1329019,12.6527483 17.5860342,13.4230865 L16.3083872,13.0772042 Z" id="Shape"></path>
                </g>
            </g>
        </g>
    </g>
</svg>