<?xml version="1.0" encoding="UTF-8"?>
<svg width="612px" height="612px" viewBox="0 0 612 612" version="1.1" xmlns="http://www.w3.org/2000/svg" xmlns:xlink="http://www.w3.org/1999/xlink">
    <!-- Generator: Sketch 51.2 (57519) - http://www.bohemiancoding.com/sketch -->
    <title>Shape</title>
    <desc>Created with Sketch.</desc>
    <defs></defs>
    <g id="Page-1" stroke="none" stroke-width="1" fill="none" fill-rule="evenodd">
        <g id="info-blue" fill="#7191E4" fill-rule="nonzero">
            <path d="M306,153 C284.886,153 267.75,170.136 267.75,191.25 C267.75,212.364 284.886,229.5 306,229.5 C327.114,229.5 344.25,212.383 344.25,191.25 C344.25,170.117 327.133,153 306,153 Z M306,267.75 C284.886,267.75 267.75,284.867 267.75,306 L267.75,420.75 C267.75,441.864 284.886,459 306,459 C327.114,459 344.25,441.864 344.25,420.75 L344.25,306 C344.25,284.886 327.133,267.75 306,267.75 Z M306,0 C137.279,0 0,137.279 0,306 C0,474.721 137.279,612 306,612 C474.721,612 612,474.721 612,306 C612,137.279 474.721,0 306,0 Z M306,554.625 C168.893,554.625 57.375,443.088 57.375,306 C57.375,168.912 168.893,57.375 306,57.375 C443.088,57.375 554.625,168.912 554.625,306 C554.625,443.088 443.088,554.625 306,554.625 Z" id="Shape"></path>
        </g>
    </g>
</svg>