<?xml version="1.0" encoding="UTF-8"?>
<svg width="65px" height="65px" viewBox="0 0 65 65" version="1.1" xmlns="http://www.w3.org/2000/svg" xmlns:xlink="http://www.w3.org/1999/xlink">
    <!-- Generator: Sketch 52.5 (67469) - http://www.bohemiancoding.com/sketch -->
    <title>info-blue</title>
    <desc>Created with Sketch.</desc>
    <g id="Page-1" stroke="none" stroke-width="1" fill="none" fill-rule="evenodd">
        <g id="info-blue" fill="#2F7ECA">
            <path d="M32.5,0 C14.58,0 0,14.579 0,32.5 C0,50.421 14.58,65 32.5,65 C50.42,65 65,50.421 65,32.5 C65,14.579 50.42,0 32.5,0 Z M32.5,61 C16.785,61 4,48.215 4,32.5 C4,16.785 16.785,4 32.5,4 C48.215,4 61,16.785 61,32.5 C61,48.215 48.215,61 32.5,61 Z" id="Shape" fill-rule="nonzero"></path>
            <circle id="Oval" cx="33.018" cy="19.541" r="3.345"></circle>
            <path d="M32.137,28.342 C31.033,28.342 30.137,29.238 30.137,30.342 L30.137,47.342 C30.137,48.446 31.033,49.342 32.137,49.342 C33.241,49.342 34.137,48.446 34.137,47.342 L34.137,30.342 C34.137,29.237 33.241,28.342 32.137,28.342 Z" id="Path"></path>
        </g>
    </g>
</svg>