<svg id="Capa_1" enable-background="new 0 0 512 512" height="512" viewBox="0 0 512 512" width="512" xmlns="http://www.w3.org/2000/svg"><path d="m370.787 150h-68.787c-16.569 0-30 13.431-30 30s13.431 30 30 30h94.999c3.978 0 7.794-1.58 10.607-4.394l9.394-9.393-20-46.213z" fill="#fabe8c"/><path d="m455.25 90.004c-15.591-.179-30.278 5.81-41.284 16.815l-43.179 43.181 46.213 46.213 5-5v78.787h-35c-41.421 0-75 33.579-75 75v131.5c0 19.606 15.894 35.5 35.5 35.5s35.5-15.894 35.5-35.5v-126.5h74c30.376 0 55-24.624 55-55v-146.747c0-31.589-25.163-57.888-56.75-58.249z" fill="#008cfa"/><path d="m141.213 150h68.787c16.569 0 30 13.431 30 30s-13.431 30-30 30h-94.999c-3.978 0-7.794-1.58-10.607-4.394l-9.394-9.393 20-46.213z" fill="#ffd0af"/><path d="m286 482h-15v-257h-30v257h-15c-8.284 0-15 6.716-15 15s6.716 15 15 15h60c8.284 0 15-6.716 15-15s-6.716-15-15-15z" fill="#556e87"/><path d="m286 482h-15v-257h-15v287h30c8.284 0 15-6.716 15-15s-6.716-15-15-15z" fill="#435569"/><path d="m422 482h5v-87c0-8.284 6.716-15 15-15s15 6.716 15 15v87h5c8.284 0 15 6.716 15 15s-6.716 15-15 15h-40c-8.284 0-15-6.716-15-15s6.716-15 15-15z" fill="#435569"/><path d="m372 395v-30c0-8.284 6.716-15 15-15h110c8.284 0 15 6.716 15 15v30c0 8.284-6.716 15-15 15h-110c-8.284 0-15-6.716-15-15z" fill="#ffdc1e"/><path d="m377 240h-242c-8.284 0-15-6.716-15-15s6.716-15 15-15h242c8.284 0 15 6.716 15 15s-6.716 15-15 15z" fill="#e1f5ff"/><path d="m90 482h-5v-87c0-8.284-6.716-15-15-15s-15 6.716-15 15v87h-5c-8.284 0-15 6.716-15 15s6.716 15 15 15h40c8.284 0 15-6.716 15-15s-6.716-15-15-15z" fill="#556e87"/><path d="m392 60c0-33.084 26.916-60 60-60s60 26.916 60 60-26.916 60-60 60-60-26.916-60-60z" fill="#fabe8c"/><path d="m377 210h-121v30h121c8.284 0 15-6.716 15-15s-6.716-15-15-15z" fill="#c8e1f5"/><path d="m125 270h-35v-78.787l5 5 46.213-46.213-43.18-43.18c-11.006-11.006-25.692-16.995-41.283-16.816-31.587.361-56.75 26.66-56.75 58.249v146.747c0 30.376 24.624 55 55 55h74v126.5c0 19.606 15.894 35.5 35.5 35.5s35.5-15.894 35.5-35.5v-131.5c0-41.421-33.579-75-75-75z" fill="#ff823c"/><path d="m0 395v-30c0-8.284 6.716-15 15-15h110c8.284 0 15 6.716 15 15v30c0 8.284-6.716 15-15 15h-110c-8.284 0-15-6.716-15-15z" fill="#fff064"/><path d="m60 120c-33.084 0-60-26.916-60-60s26.916-60 60-60 60 26.916 60 60-26.916 60-60 60z" fill="#ffd0af"/></svg>