<?xml version="1.0" encoding="UTF-8"?>
<svg width="22px" height="16px" viewBox="0 0 22 16" version="1.1" xmlns="http://www.w3.org/2000/svg" xmlns:xlink="http://www.w3.org/1999/xlink">
    <!-- Generator: Sketch 59 (86127) - https://sketch.com -->
    <title>arrow-pointing-to-right</title>
    <desc>Created with Sketch.</desc>
    <g id="Page-1" stroke="none" stroke-width="1" fill="none" fill-rule="evenodd">
        <g id="Kiosk_Enter_Mobile_1.1" transform="translate(-11.000000, -50.000000)" fill="#FF3184" fill-rule="nonzero">
            <g id="arrow-pointing-to-right" transform="translate(22.000000, 57.700000) scale(-1, -1) translate(-22.000000, -57.700000) translate(11.000000, 50.000000)">
                <path d="M21.7003599,6.86128234 L15.1535324,0.300229669 C14.7540941,-0.100076556 14.1062855,-0.100076556 13.7068472,0.300229669 C13.3073271,0.700617909 13.3073271,1.34967004 13.7068472,1.75005828 L18.5073903,6.56103217 L1.02294179,6.56103217 C0.458032418,6.56103217 0,7.02005981 0,7.58619664 C0,8.15225146 0.458032418,8.61136112 1.02294179,8.61136112 L18.5073903,8.61136112 L13.7070109,13.422335 C13.3074907,13.8227232 13.3074907,14.4717754 13.7070109,14.8721636 C13.9066891,15.0721937 14.1685622,15.1724138 14.4303535,15.1724138 C14.6921447,15.1724138 14.953936,15.0721937 15.1536961,14.8721636 L21.7003599,8.31111095 C22.09988,7.91072271 22.09988,7.26167058 21.7003599,6.86128234 Z" id="Path"></path>
            </g>
        </g>
    </g>
</svg>