<?xml version="1.0" encoding="UTF-8"?>
<svg width="59px" height="49px" viewBox="0 0 59 49" version="1.1" xmlns="http://www.w3.org/2000/svg" xmlns:xlink="http://www.w3.org/1999/xlink">
    <!-- Generator: Sketch 59 (86127) - https://sketch.com -->
    <title>Group 2</title>
    <desc>Created with Sketch.</desc>
    <g id="Page-1" stroke="none" stroke-width="1" fill="none" fill-rule="evenodd">
        <g id="Kiosk_Selection_1.1" transform="translate(-582.000000, -323.000000)">
            <g id="Group-2" transform="translate(582.000000, 323.000000)">
                <path d="M5.86197757e-14,21.8286923 C5.86197757e-14,21.8286923 5.86197757e-14,25.6917692 5.86197757e-14,25.6917692 L58.6061538,25.6917692 C58.6061538,25.6917692 58.6061538,21.8286923 58.6061538,21.8286923 L5.86197757e-14,21.8286923 Z" id="Fill-1" fill="#FF3073"></path>
                <path d="M25.8521538,13.3375385 C21.8136923,13.3375385 25.8752308,13.3375385 21.8598462,13.3375385 L21.8598462,15.1467692 L21.8598462,17.6990769 L21.8598462,19.0121538 L52.1136923,19.0121538 L52.1136923,15.1467692 L35.8213846,15.1467692 L35.8213846,13.3375385 L30.5367692,13.3375385 L30.5367692,8.74753846 C34.5752308,8.74753846 30.4675385,8.74753846 34.5752308,8.74753846 L34.5752308,0.345230769 L30.4675385,0.345230769 C30.4190769,1.79907692 30.3521538,3.07061538 30.2829231,4.38369231 L26.106,4.38369231 C26.0136923,2.95292308 25.9444615,1.68369231 25.8752308,0.322153846 L21.8136923,0.322153846 L21.8136923,8.74753846 C26.106,8.74753846 21.8598462,8.74753846 25.8521538,8.74753846 L25.8521538,13.3375385 Z" id="Fill-4" fill="#733C9A"></path>
                <path d="M8.61392308,8.19230769 L12.7677692,8.19230769 L12.7677692,4.13076923 L8.61392308,4.13076923 L8.61392308,8.19230769 Z M17.1293077,1.12709841e-12 L6.74469231,1.12709841e-12 C5.40623077,1.12709841e-12 4.32161538,1.06153846 4.32161538,2.4 L4.32161538,12.7384615 L17.1293077,12.7384615 L17.1293077,1.12709841e-12 Z" id="Fill-6" fill="#733C9A"></path>
                <path d="M43.6654615,8.19230769 L47.8193077,8.19230769 L47.8193077,4.13076923 L43.6654615,4.13076923 L43.6654615,8.19230769 Z M52.1139231,2.4 C52.1139231,1.06153846 51.0293077,1.12709841e-12 49.6908462,1.12709841e-12 L39.3062308,1.12709841e-12 L39.3062308,12.7384615 L52.1139231,12.7384615 L52.1139231,2.4 Z" id="Fill-8" fill="#733C9A"></path>
                <path d="M8.75238462,43.7076923 L12.8831538,43.7076923 L12.8831538,39.6461538 L8.75238462,39.6461538 L8.75238462,43.7076923 Z M4.437,45.4384615 C4.437,46.7769231 5.51930769,47.8615385 6.85776923,47.8615385 L17.2423846,47.8615385 L17.2423846,35.1 L4.437,35.1 L4.437,45.4384615 Z" id="Fill-9" fill="#733C9A"></path>
                <path d="M46.5223846,34.8274615 L46.5223846,28.5113077 L39.1654615,28.5113077 L39.1654615,29.7228462 L39.1654615,34.7997692 L36.1654615,34.7997692 L36.1654615,28.5113077 L28.8085385,28.5113077 L28.8085385,34.8620769 C27.8023846,34.8597692 26.7916154,34.8620769 25.8039231,34.8459231 L25.8039231,32.3766923 L25.8039231,29.7228462 L25.8039231,28.5113077 L21.7216154,28.5113077 L21.7216154,29.7228462 L21.7216154,32.3766923 L21.7216154,34.9151538 L25.737,34.9151538 C25.8293077,36.2766923 25.9446923,37.6636154 26.037,39.1128462 C24.4677692,39.2305385 23.2216154,39.3228462 21.8577692,39.4151538 L21.8577692,43.5436154 C23.2677692,43.6151538 24.5139231,43.6843846 25.8523846,43.7536154 C25.9446923,45.2305385 26.037,46.5459231 26.1293077,47.8382308 L30.4446923,47.8382308 L30.4446923,39.4382308 L38.9139231,39.4382308 L38.9139231,43.4997692 C37.5062308,43.5920769 36.1885385,43.6843846 34.8985385,43.7766923 L34.8985385,47.8613077 L43.4600769,47.8613077 L43.4600769,39.4151538 L47.7754615,39.4151538 L47.7754615,48.0482308 C48.9523846,48.0482308 49.8523846,48.1382308 50.7039231,47.9997692 C51.2139231,47.9305385 52.0216154,47.4920769 52.0446923,47.1897692 C52.137,43.1513077 52.0908462,39.1128462 52.0908462,34.8897692 C49.4323846,34.8897692 47.0762308,34.8413077 46.5223846,34.8274615" id="Fill-10" fill="#733C9A"></path>
                <polygon id="Fill-11" fill="#733C9A" points="4.437 19.0107692 17.2446923 19.0107692 17.2446923 15.1453846 4.437 15.1453846"></polygon>
                <polygon id="Fill-12" fill="#733C9A" points="4.437 32.3746154 17.2446923 32.3746154 17.2446923 28.5092308 4.437 28.5092308"></polygon>
                <rect id="Rectangle" fill="#733C9A" x="4.32161538" y="4.54636329e-13" width="4.29230769" height="2.7297125"></rect>
                <rect id="Rectangle-Copy-15" fill="#733C9A" x="48.0092308" y="4.54636329e-13" width="4.09902344" height="2.7297125"></rect>
                <rect id="Rectangle-Copy-16" fill="#733C9A" x="48.0092308" y="45.3299694" width="4.09902344" height="2.7297125"></rect>
                <rect id="Rectangle-Copy-17" fill="#733C9A" x="4.43875629" y="45.3299694" width="12.7725534" height="2.7297125"></rect>
            </g>
        </g>
    </g>
</svg>