<svg id="Capa_1" enable-background="new 0 0 512 512" height="512" viewBox="0 0 512 512" width="512" xmlns="http://www.w3.org/2000/svg"><path d="m345.67 80.005v345.65h-153.65l-93.51 80.32v-80.32h-98.51v-345.65z" fill="#ff4e51"/><path d="m345.67 80.005v345.65h-153.65l-19.19 16.48v-362.13z" fill="#ff2b59"/><g fill="#233952"><path d="m113.667 168.564h118.333v30h-118.333z"/><path d="m113.667 237.827h118.333v30h-118.333z"/><path d="m113.667 307.09h118.333v30h-118.333z"/></g><path d="m172.83 168.565h59.17v30h-59.17z" fill="#09213d"/><path d="m172.83 237.825h59.17v30h-59.17z" fill="#09213d"/><path d="m172.83 307.095h59.17v30h-59.17z" fill="#09213d"/><path d="m512 6.025v279.99h-85.33v61.34l-75.75-61.34h-118.92v-279.99z" fill="#1e8aff"/><path d="m512 6.025v279.99h-85.33v61.34l-54.67-44.27v-297.06z" fill="#1a64b6"/><path d="m387.182 176.552h-33.439c0-16.955-.527-24.49 2.31-30.03 1.54-3.004 4.802-7.074 9.79-12.21 15.266-15.715 18.26-16.794 18.26-25.629 0-7.982-4.767-14.63-12.76-14.63-8.869 0-13.34 9.134-14.301 18.04h-34.979c1.611-14.665 6.964-26.18 16.06-34.54 9.092-8.36 20.494-12.54 34.21-12.54 13.711 0 24.859 3.74 33.439 11.22s12.869 17.82 12.869 31.02c0 25.665-23.511 34.814-29.92 47.189-1.92 3.701-1.539 8.497-1.539 22.11zm-35.64 28.16c0-10.797 8.342-19.36 19.359-19.36 10.77 0 19.36 8.321 19.36 19.36 0 11.018-8.566 19.359-19.36 19.359-10.795 0-19.359-8.342-19.359-19.359z" fill="#ffb739"/><path d="m372 185.385v38.66c10.27-.54 18.26-8.69 18.26-19.33 0-10.66-8.01-18.78-18.26-19.33zm33.77-109.15c-8.58-7.48-19.73-11.22-33.44-11.22h-.33v29.06c7.6.35 12.1 6.85 12.1 14.61 0 7.48-2.15 9.4-12.1 19.39v48.48h15.18c0-13.62-.38-18.41 1.54-22.11 6.41-12.38 29.92-21.53 29.92-47.19 0-13.2-4.29-23.54-12.87-31.02z" fill="#ff9441"/></svg>