<?xml version="1.0"?>
<svg xmlns="http://www.w3.org/2000/svg" xmlns:xlink="http://www.w3.org/1999/xlink" version="1.1" id="Capa_1" x="0px" y="0px" viewBox="0 0 296.979 296.979" style="enable-background:new 0 0 296.979 296.979;" xml:space="preserve" width="512px" height="512px"><g><g>
	<g>
		<path d="M289.443,79.226L153.667,18.679c-3.291-1.474-7.054-1.474-10.356,0L7.536,79.226    c-4.427,1.974-7.354,6.315-7.522,11.161s2.431,9.377,6.712,11.661l135.775,72.405c1.871,1.006,3.932,1.496,5.983,1.496    c2.061,0,4.112-0.495,5.994-1.496l135.775-72.405c4.281-2.284,6.886-6.81,6.712-11.661    C296.791,85.536,293.87,81.201,289.443,79.226z M148.484,148.836l-106.85-56.98l106.85-47.646L255.34,91.856L148.484,148.836z" data-original="#010002" class="active-path" data-old_color="#8c8c8c" fill="#8c8c8c"/>
		<path d="M278.276,133.405l-129.792,69.228L18.697,133.405c-6.217-3.318-13.908-0.968-17.198,5.232    c-3.302,6.201-0.968,13.897,5.227,17.198l135.775,72.421c1.871,1.001,3.932,1.496,5.983,1.496c2.061,0,4.112-0.495,5.994-1.496    l135.775-72.421c6.195-3.301,8.528-10.998,5.227-17.198C292.179,132.437,284.482,130.093,278.276,133.405z" data-original="#010002" class="active-path" data-old_color="#8c8c8c" fill="#8c8c8c"/>
		<path d="M278.276,183.064l-129.792,69.218L18.697,183.064c-6.217-3.318-13.908-0.957-17.198,5.232    c-3.302,6.201-0.968,13.897,5.227,17.198l135.775,72.416c1.871,1.001,3.932,1.496,5.983,1.496c2.061,0,4.112-0.495,5.994-1.496    l135.775-72.416c6.195-3.301,8.528-10.998,5.227-17.198C292.173,182.106,284.493,179.746,278.276,183.064z" data-original="#010002" class="active-path" data-old_color="#8c8c8c" fill="#8c8c8c"/>
	</g>
</g></g> </svg>
