<?xml version="1.0" encoding="UTF-8"?>
<svg width="512px" height="512px" viewBox="0 0 512 512" version="1.1" xmlns="http://www.w3.org/2000/svg" xmlns:xlink="http://www.w3.org/1999/xlink">
    <!-- Generator: Sketch 59 (86127) - https://sketch.com -->
    <title>location-icon</title>
    <desc>Created with Sketch.</desc>
    <g id="location-icon" stroke="none" stroke-width="1" fill="none" fill-rule="evenodd">
        <g transform="translate(48.500000, 0.000000)" fill="#000000" fill-rule="nonzero" id="Shape">
            <path d="M377.043462,89.81 C338.87004,33.8080205 275.304978,0.505195477 207.531923,1 C139.736325,0.483850874 76.1425888,33.7891547 37.9565385,89.81 C-0.83,145.930769 -9.80038462,217.055385 13.9503846,279.848077 C20.335,296.990769 30.3907692,313.686538 43.8942308,329.265 L193.932692,505.480385 C197.329073,509.449799 202.29182,511.734951 207.515962,511.734951 C212.740103,511.734951 217.70285,509.449799 221.099231,505.480385 L371.073846,329.328846 C384.641154,313.622692 394.696923,296.958846 401.017692,279.943846 C424.736598,216.474716 415.775276,145.404635 377.043462,89.81 Z M367.562308,267.461923 C362.061382,281.656329 354.060487,294.749686 343.939231,306.120769 L207.5,466.374615 L70.9969231,306.025 C60.8854639,294.640604 52.8955132,281.536653 47.4057692,267.334231 C27.8385585,214.830127 35.2960247,156.065293 67.3576923,110.113077 C98.9158882,63.8123294 151.468669,36.2789816 207.5,36.69 C264.323077,36.69 315.4,63.4734615 347.642308,110.113077 C379.731532,156.104131 387.178134,214.925129 367.562308,267.461923 Z"></path>
            <path d="M207.5,106.984615 C152.297571,107.037379 107.555386,151.765283 107.485,206.967692 C107.537795,262.182568 152.285124,306.929897 207.5,306.982692 C262.714876,306.929897 307.462205,262.182568 307.515,206.967692 C307.42707,151.772567 262.695151,107.054925 207.5,106.984615 Z M207.5,271.260769 C172.006502,271.225575 143.242117,242.46119 143.206923,206.967692 C143.206923,171.533077 172.065385,142.674615 207.5,142.674615 C242.934615,142.674615 271.793077,171.533077 271.793077,206.967692 C271.793077,242.402308 242.966538,271.260769 207.5,271.260769 Z"></path>
        </g>
    </g>
</svg>