<?xml version="1.0" encoding="UTF-8"?>
<svg width="512px" height="512px" viewBox="0 0 512 512" version="1.1" xmlns="http://www.w3.org/2000/svg" xmlns:xlink="http://www.w3.org/1999/xlink">
    <!-- Generator: Sketch 59 (86127) - https://sketch.com -->
    <title>maintenance</title>
    <desc>Created with Sketch.</desc>
    <g id="maintenance" stroke="none" stroke-width="1" fill="none" fill-rule="evenodd">
        <g transform="translate(4.000000, 0.000000)" fill="#000000" fill-rule="nonzero" id="Shape">
            <path d="M23.0781538,380.676923 L203.011692,201.116308 C198.537846,186.225231 196.137846,170.344615 196.137846,155.191385 C196.137846,115.129846 212.440615,75.3809231 240.870154,46.1366154 C283.056,3.12123077 346.774154,-10.5846154 403.298462,11.1532308 C410.209877,13.8214583 415.298168,19.8104631 416.814769,27.0621538 C418.334706,34.3161777 416.065961,41.8455901 410.791385,47.0523077 L360.108308,97.1249231 L371.952,132.210462 L404.018462,143.180308 L454.766769,91.2098462 C459.902893,85.9475422 467.343942,83.6258868 474.561231,85.0338462 C481.778331,86.4425704 487.801768,91.3890887 490.587077,98.1944615 C499.134769,119.101538 503.121231,137.207385 503.121231,155.191385 C503.121231,195.260308 486.818462,235.009231 458.388923,264.253538 C430.032,293.416615 390.393846,310.141538 349.625846,310.141538 C337.963077,310.141538 326.462769,308.824615 315.288615,306.235077 L131.513846,489.644308 C116.434462,504.222769 96.8221538,511.518769 77.2615385,511.518769 C57.4806154,511.518769 37.7587692,504.054154 22.8172308,489.112615 C-6.49230769,458.784 -6.38276923,410.146462 23.0781538,380.675692 L23.0781538,380.676923 Z M53.9372308,458.515692 C66.6756923,471.252923 87.8658462,471.115077 100.915692,458.523077 L293.436308,266.363077 C297.534312,262.259673 303.095497,259.95373 308.894769,259.953231 C311.192615,259.953231 313.522462,260.317538 315.784615,261.060923 C326.587077,264.660923 337.980308,266.486154 349.625846,266.486154 C378.667077,266.486154 406.907077,254.577231 427.094154,233.816615 C447.672615,212.654769 459.473231,183.992615 459.473231,155.185231 C459.473231,153.184 459.384615,151.160615 459.225846,149.110154 L425.617231,183.526154 C419.736296,189.560341 410.904452,191.665032 402.934154,188.931692 L347.648,170.017231 C341.233349,167.822525 336.203177,162.770976 334.035692,156.347077 L314.395077,98.1501538 C311.725191,90.2438388 313.798163,81.5071632 319.735385,75.6430769 L351.110154,44.6461538 C321.858462,44.1513846 293.202462,55.1286154 272.128,76.5895385 C251.570462,97.7587692 239.777231,126.398769 239.777231,155.192615 C239.777231,169.683692 242.817231,185.090462 248.339692,198.578462 C251.67302,206.716773 249.795213,216.060684 243.576615,222.279385 L53.9446154,411.543385 C41.2147692,424.273231 41.3304615,445.463385 53.9372308,458.515692 L53.9372308,458.515692 Z"></path>
        </g>
    </g>
</svg>