<svg width="24" height="16" viewBox="0 0 24 16" xmlns="http://www.w3.org/2000/svg">
    <g fill="#9494A0" fill-rule="nonzero">
        <path d="M21.592 16H2.408A2.402 2.402 0 0 1 0 13.609V2.391A2.402 2.402 0 0 1 2.408 0h19.184A2.402 2.402 0 0 1 24 2.391V13.61c0 1.318-1.08 2.39-2.408 2.39zM2.408 1.5a.9.9 0 0 0-.908.891V13.61a.9.9 0 0 0 .908.891h19.184a.9.9 0 0 0 .908-.891V2.391a.9.9 0 0 0-.908-.891H2.408z"/>
        <path d="M17.527 12a.75.75 0 0 1-.502-.192l-2.777-2.5a.751.751 0 0 1 1.004-1.116l2.271 2.044 2.221-2.039a.75.75 0 1 1 1.014 1.106l-2.723 2.5a.752.752 0 0 1-.508.197zm-6.277 0a.75.75 0 0 1-.75-.75V6.704L8.058 9.419a.774.774 0 0 1-1.115 0L4.5 6.704v4.546a.75.75 0 0 1-1.5 0v-6.5a.749.749 0 0 1 1.308-.502L7.5 7.796l3.192-3.548A.75.75 0 0 1 12 4.75v6.5a.75.75 0 0 1-.75.75z"/>
        <path d="M17.5 12a.75.75 0 0 1-.75-.75v-6.5a.75.75 0 0 1 1.5 0v6.5a.75.75 0 0 1-.75.75z"/>
    </g>
</svg>
