<?xml version="1.0" encoding="UTF-8"?>
<svg width="512px" height="330px" viewBox="0 0 512 330" version="1.1" xmlns="http://www.w3.org/2000/svg" xmlns:xlink="http://www.w3.org/1999/xlink">
    <!-- Generator: Sketch 52.4 (67378) - http://www.bohemiancoding.com/sketch -->
    <title>Shape</title>
    <desc>Created with Sketch.</desc>
    <g id="Page-1" stroke="none" stroke-width="1" fill="none" fill-rule="evenodd">
        <g id="message" fill="#999999" fill-rule="nonzero">
            <path d="M490.905953,0.220880069 L21.0940466,0.220880069 C9.44400345,0.220880069 0,9.66488352 0,21.3149267 L0,308.459016 C0,320.10906 9.44400345,329.553063 21.0940466,329.553063 L490.905953,329.553063 C502.555997,329.553063 512,320.10906 512,308.459016 L512,21.3149267 C512,9.66488352 502.555997,0.220880069 490.905953,0.220880069 Z M21.0940466,16.7868852 L490.905953,16.7868852 C492.888352,16.7965487 494.633305,18.0942192 495.213115,19.9896462 L256,169.415013 L16.7868852,19.9896462 C17.3666954,18.0942192 19.111648,16.7965487 21.0940466,16.7868852 Z M16.5660052,38.8748921 L188.631579,146.333046 L16.5660052,282.836928 L16.5660052,38.8748921 Z M495.433995,308.348576 C495.433995,310.850043 493.40604,312.876618 490.905953,312.876618 L21.0940466,312.876618 C18.5939603,312.876618 16.5660052,310.848663 16.5660052,308.348576 L16.5660052,303.930975 L203.540984,156.162209 L251.582399,186.201898 C254.281277,187.904055 257.718723,187.904055 260.417601,186.201898 L308.459016,156.162209 L495.433995,303.930975 L495.433995,308.348576 Z M495.433995,282.836928 L322.926661,146.774806 L495.433995,39.8688525 L495.433995,282.836928 Z" id="Shape"></path>
        </g>
    </g>
</svg>