<svg width="512" height="512" xmlns="http://www.w3.org/2000/svg">
  <path d="M392.533 238.933h34.134c9.425 0 17.066 7.641 17.066 17.067s-7.64 17.067-17.066 17.067h-34.134V307.2c0 9.426-7.64 17.067-17.066 17.067-9.426 0-17.067-7.641-17.067-17.067v-34.133h-34.133c-9.426 0-17.067-7.641-17.067-17.067s7.641-17.067 17.067-17.067H358.4V204.8c0-9.426 7.641-17.067 17.067-17.067 9.425 0 17.066 7.641 17.066 17.067v34.133zM51.2 102.4h409.6c28.277 0 51.2 22.923 51.2 51.2v204.8c0 28.277-22.923 51.2-51.2 51.2H51.2C22.923 409.6 0 386.677 0 358.4V153.6c0-28.277 22.923-51.2 51.2-51.2zm0 34.133c-9.426 0-17.067 7.641-17.067 17.067v204.8c0 9.426 7.641 17.067 17.067 17.067h409.6c9.426 0 17.067-7.641 17.067-17.067V153.6c0-9.426-7.641-17.067-17.067-17.067H51.2z" fill="#000" fill-rule="nonzero"/>
</svg>
