<?xml version="1.0" encoding="UTF-8"?>
<svg width="18px" height="15px" viewBox="0 0 18 15" version="1.1" xmlns="http://www.w3.org/2000/svg" xmlns:xlink="http://www.w3.org/1999/xlink">
    <!-- Generator: Sketch 53.1 (72631) - https://sketchapp.com -->
    <title>Notification</title>
    <desc>Created with Sketch.</desc>
    <g id="Notification" stroke="none" stroke-width="1" fill="none" fill-rule="evenodd">
        <g id="edit" transform="translate(2.000000, 0.000000)" fill="#605E88" fill-rule="nonzero">
            <path d="M13.8268949,9.30046682 C13.6208127,9.30046682 13.4537899,9.46806152 13.4537899,9.67484935 L13.4537899,12.9989567 C13.4530611,13.6190278 12.9524299,14.1215194 12.3344747,14.1221043 L1.86552534,14.1221043 C1.24757007,14.1215194 0.746938849,13.6190278 0.746210138,12.9989567 L0.746210138,3.24292827 C0.746938849,2.62300344 1.24757007,2.12051189 1.86552534,2.11978068 L5.17829026,2.11978068 C5.38437253,2.11978068 5.55139532,1.95218598 5.55139532,1.74539815 C5.55139532,1.53875656 5.38437253,1.37101563 5.17829026,1.37101563 L1.86552534,1.37101563 C0.835697076,1.37218557 0.00116595334,2.20957397 0,3.24292827 L0,12.999103 C0.00116595334,14.0324573 0.835697076,14.8698457 1.86552534,14.8710156 L12.3344747,14.8710156 C13.3643029,14.8698457 14.198834,14.0324573 14.2,12.999103 L14.2,9.67484935 C14.2,9.46806152 14.0329772,9.30046682 13.8268949,9.30046682 Z" id="Path"></path>
            <path d="M13.7615851,0.498863449 C13.1085439,-0.154119833 12.0498013,-0.154119833 11.39676,0.498863449 L4.76735327,7.1276818 C4.72192053,7.1731105 4.68911604,7.22942472 4.67198806,7.2912542 L3.80020194,10.4383174 C3.76434925,10.5673465 3.80078251,10.7055195 3.895422,10.8002956 C3.9902066,10.8949267 4.12839182,10.9313568 4.25743241,10.8956524 L7.4047749,10.0237985 C7.46660986,10.006672 7.52292905,9.97387046 7.56836182,9.92844172 L14.1976233,3.29947824 C14.8496485,2.64605953 14.8496485,1.58828172 14.1976233,0.934862974 L13.7615851,0.498863449 Z M5.57701414,7.36919418 L11.0026708,1.94387386 L12.7524847,3.69353242 L7.32668282,9.11885274 L5.57701414,7.36919418 Z M5.22748683,8.070509 L6.62545093,9.46849416 L4.69172881,10.0042046 L5.22748683,8.070509 Z M13.6721712,2.77407269 L13.278082,3.16812686 L11.5281231,1.41832318 L11.9223573,1.024269 C12.2850935,0.661564994 12.8732516,0.661564994 13.2359878,1.024269 L13.6721712,1.46026853 C14.0343268,1.82340796 14.0343268,2.41107842 13.6721712,2.77407269 L13.6721712,2.77407269 Z" id="Shape"></path>
        </g>
    </g>
</svg>