<?xml version="1.0" encoding="UTF-8"?>
<svg width="512px" height="512px" viewBox="0 0 512 512" version="1.1" xmlns="http://www.w3.org/2000/svg" xmlns:xlink="http://www.w3.org/1999/xlink">
    <!-- Generator: Sketch 59 (86127) - https://sketch.com -->
    <title>number</title>
    <desc>Created with Sketch.</desc>
    <g id="number" stroke="none" stroke-width="1" fill="none" fill-rule="evenodd">
        <g transform="translate(3.000000, 144.000000)" fill="#000000" fill-rule="nonzero" id="Shape" stroke="#000000" stroke-width="4">
            <path d="M58.518,39.2458375 L10.9712241,67.9536003 L-2.70916599,44.5537348 L62.7122381,3.903 L90.166,3.903 L90.166,220.18 L58.518,220.18 L58.518,39.2458375 Z M214.768142,191.602 L315.695257,191.602 L311.051218,220.179 L169.418,220.179 L169.418,195.165055 L170.08531,194.568712 C178.42605,187.115008 186.831798,179.734368 195.300534,172.428549 C204.463583,164.512619 213.569988,156.531357 222.631088,148.474761 C232.433555,139.898724 241.015286,132.083683 248.37007,125.036138 C255.667352,118.041754 261.739267,111.311654 266.586029,104.849961 C271.385812,98.4505767 274.97671,91.96699 277.36534,85.3997148 C279.741261,78.8637574 280.931,71.8238412 280.931,64.271 C280.931,51.8691037 277.631271,42.5037589 271.082259,36.0516095 C264.521419,29.5868778 255.300854,26.335 243.302,26.335 C235.913639,26.335 229.656228,27.1299075 224.53702,28.7046046 C219.468456,30.2637237 215.20802,32.5395649 211.737033,35.5285489 C208.255736,38.5262799 205.397403,42.2563307 203.158702,46.733731 C200.860755,51.3276758 198.804104,56.7454577 196.992737,62.9864674 L196.501973,64.677378 L167.102278,60.0722174 L167.633901,57.9491846 C169.518847,50.4216745 172.13501,43.0964171 175.444345,36.0794435 C178.827872,28.8890613 183.48154,22.4904297 189.396333,16.8923161 C195.325244,11.2818194 202.712153,6.74409482 211.543762,3.27347071 C220.398475,-0.204798729 231.188927,-1.933 243.917,-1.933 C254.995188,-1.933 264.852254,-0.360088295 273.481221,2.79677542 C282.130457,5.96143147 289.383971,10.3556283 295.224893,15.9829464 C301.067251,21.6136853 305.528558,28.358939 308.601061,36.2011173 C311.66525,44.0184104 313.194,52.662539 313.194,62.121 C313.194,71.5396005 311.883353,80.3473031 309.25856,88.5364512 C306.637719,96.7132709 302.608087,104.771767 297.176734,112.709193 C291.780417,120.597912 284.942994,128.678433 276.665214,136.956214 C268.436766,145.184661 258.671985,154.126844 247.372697,163.782977 C241.311549,169.006832 235.21103,174.18483 229.071506,179.316659 C224.248526,183.347197 219.480304,187.442686 214.768142,191.602 Z M474.77127,104.919071 C485.481518,109.837257 493.490234,116.406492 498.751932,124.633501 C504.599201,133.777127 507.515,144.69817 507.515,157.353 C507.515,167.199345 506.044791,176.282082 503.099123,184.594065 C500.13313,192.963399 495.569783,200.23268 489.418333,206.383095 C483.266095,212.536368 475.540924,217.298328 466.262469,220.672593 C457.017671,224.034245 446.241833,225.708 433.937,225.708 C419.150262,225.708 406.860246,223.668474 397.067467,219.562355 C387.295507,215.46394 379.430871,210.238203 373.492961,203.875713 C367.555122,197.514409 363.355656,190.391926 360.910101,182.522536 C358.507517,174.79142 357.095407,167.154687 356.676085,159.614045 L356.558694,157.503 L358.673,157.503 L385.4,157.503 L387.175458,157.503 L387.385901,159.265942 C388.972994,172.561474 393.093645,182.323559 399.683983,188.624274 C406.209724,194.862295 417.405149,198.054 433.322,198.054 C447.394936,198.054 457.967602,194.676368 465.136168,187.992139 C472.274375,181.33716 475.867,171.579518 475.867,158.582 C475.867,145.223602 472.254763,135.87976 465.123531,130.365126 C457.827899,124.723361 447.759231,121.875 434.859,121.875 L408.589,121.875 L408.589,93.605 L435.78,93.605 C446.969383,93.605 455.637898,90.6029415 461.894442,84.6359138 C468.118954,78.6975641 471.259,69.9055776 471.259,58.127 C471.259,47.6235356 468.057406,39.7386691 461.672168,34.3064238 C455.218774,28.817135 445.48141,26.028 432.401,26.028 C418.902859,26.028 408.952967,28.7728721 402.503436,34.1647179 C395.983728,39.6126929 391.010926,48.2778933 387.631278,60.2081182 L387.147379,61.9162932 L358.147683,57.3193983 L358.555807,55.2779256 C360.022988,47.9389512 362.434241,40.8618458 365.78768,34.0505886 C369.173662,27.1732323 373.775511,21.0371754 379.585177,15.6494118 C385.426083,10.2337132 392.778109,5.94935761 401.622355,2.79150627 C410.457623,-0.363799934 421.023672,-1.933 433.323,-1.933 C445.00023,-1.933 455.147539,-0.468753264 463.767435,2.47435073 C472.412983,5.42724241 479.613793,9.50424563 485.354838,14.713751 C491.100964,19.926827 495.42084,26.0068947 498.298974,32.93774 C501.16651,39.8405679 502.6,47.2184685 502.6,55.055 C502.6,67.4873544 500.053943,77.8831721 494.930324,86.209183 C490.411982,93.5516035 483.682371,99.7866003 474.77127,104.919071 Z"></path>
        </g>
    </g>
</svg>