<svg id="bold" fill="#fff" enable-background="new 0 0 24 24" height="512" viewBox="0 0 24 24" width="512" xmlns="http://www.w3.org/2000/svg"><g id="XMLID_1_"><path d="m18.53 8.74c.16.8-.05 1.63-.58 2.26-.52.64-1.29 1-2.12 1h-7.66c-.83 0-1.6-.36-2.12-1-.53-.63-.74-1.46-.59-2.26l1.24-6.5c.25-1.3 1.39-2.24 2.7-2.24h5.19c1.32 0 2.46.94 2.71 2.24z"/><path d="m16.25 13.5c1.52 0 2.75 1.23 2.75 2.75 0 .97-.78 1.75-1.75 1.75h-10.5c-.97 0-1.75-.78-1.75-1.75 0-1.52 1.23-2.75 2.75-2.75z"/><path d="m13 20v.5c0 .55-.45 1-1 1s-1-.45-1-1v-.5z"/><path d="m11 19h2v1h-2z"/><path d="m12 21.5c.55 0 1-.45 1-1v-.5h3.25c1.1 0 2 .9 2 2v1c0 .55-.45 1-1 1s-1-.45-1-1v-1h-8.5v1c0 .55-.45 1-1 1s-1-.45-1-1v-1c0-1.1.9-2 2-2h3.25v.5c0 .55.45 1 1 1z"/></g></svg>
