<?xml version="1.0" encoding="UTF-8"?>
<svg width="612px" height="428px" viewBox="0 0 612 428" version="1.1" xmlns="http://www.w3.org/2000/svg" xmlns:xlink="http://www.w3.org/1999/xlink">
    <!-- Generator: Sketch 51.2 (57519) - http://www.bohemiancoding.com/sketch -->
    <title>one-box-black</title>
    <desc>Created with Sketch.</desc>
    <defs></defs>
    <g id="Page-1" stroke="none" stroke-width="1" fill="none" fill-rule="evenodd">
        <g id="one-box-black" fill="#25243E" fill-rule="nonzero">
            <path d="M595.217,0.753 L16.783,0.753 C7.513,0.753 0,8.268 0,17.536 L0,105.752 C0,115.021 7.513,122.535 16.783,122.535 L38.801,122.535 L38.801,410.464 C38.801,419.733 46.314,427.247 55.584,427.247 L556.414,427.247 C565.684,427.247 573.197,419.732 573.197,410.464 L573.197,122.535 L595.215,122.535 C604.485,122.535 611.998,115.02 611.998,105.752 L611.998,17.536 C612,8.268 604.487,0.753 595.217,0.753 Z M578.434,88.969 L33.567,88.969 L33.567,34.32 L578.434,34.32 L578.434,88.969 Z M539.632,393.681 L72.368,393.681 L72.368,122.535 L539.632,122.535 L539.632,393.681 Z" id="Shape"></path>
            <path d="M186.865,292.502 L425.135,292.502 C446.738,292.502 464.314,274.927 464.314,253.324 L464.314,205.054 C464.314,183.451 446.739,165.875 425.135,165.875 L186.865,165.875 C165.262,165.875 147.686,183.45 147.686,205.054 L147.686,253.324 C147.687,274.928 165.262,292.502 186.865,292.502 Z M181.254,205.055 C181.254,201.961 183.773,199.442 186.867,199.442 L425.135,199.442 C428.229,199.442 430.748,201.96 430.748,205.055 L430.748,253.325 C430.748,256.419 428.229,258.936 425.135,258.936 L186.865,258.936 C183.771,258.936 181.252,256.418 181.252,253.325 L181.252,205.055 L181.254,205.055 Z" id="Shape"></path>
        </g>
    </g>
</svg>