<?xml version="1.0"?>
<svg xmlns="http://www.w3.org/2000/svg" xmlns:xlink="http://www.w3.org/1999/xlink" version="1.1" id="Capa_1" x="0px" y="0px" viewBox="0 0 612 612" style="enable-background:new 0 0 612 612;" xml:space="preserve" width="512px" height="512px"><g><g>
	<g>
		<g>
			<path d="M595.217,92.753H16.783C7.513,92.753,0,100.268,0,109.536v88.216c0,9.269,7.513,16.783,16.783,16.783h22.018v287.929     c0,9.269,7.513,16.783,16.783,16.783h500.83c9.27,0,16.783-7.515,16.783-16.783V214.535h22.018     c9.27,0,16.783-7.515,16.783-16.783v-88.216C612,100.268,604.487,92.753,595.217,92.753z M578.433,180.969H33.567v-54.649     h544.867V180.969z M539.632,485.681H72.368V214.535h467.264L539.632,485.681L539.632,485.681z" data-original="#000000" class="active-path" data-old_color="#726fc8" fill="#726fc8"/>
			<path d="M186.865,384.502h238.27c21.603,0,39.179-17.575,39.179-39.178v-48.27c0-21.603-17.575-39.179-39.179-39.179h-238.27     c-21.603,0-39.179,17.575-39.179,39.179v48.27C147.687,366.928,165.262,384.502,186.865,384.502z M181.254,297.055     c0-3.094,2.519-5.613,5.613-5.613h238.268c3.094,0,5.613,2.518,5.613,5.613v48.27c0,3.094-2.519,5.611-5.613,5.611h-238.27     c-3.094,0-5.613-2.518-5.613-5.611v-48.27H181.254z" data-original="#000000" class="active-path" data-old_color="#726fc8" fill="#726fc8"/>
		</g>
	</g>
</g></g> </svg>
