<svg width="188" height="28" viewBox="0 0 188 28" fill="none" xmlns="http://www.w3.org/2000/svg">
<path fill-rule="evenodd" clip-rule="evenodd" d="M7.77616 6.65376V10.4097H5.89824V21.4132H1.37538V10.4097H0V6.65376H1.37538V6.0983C1.37538 4.22912 1.8735 2.86252 2.86977 1.99846C3.86604 1.13441 5.43096 0.702385 7.56456 0.702385V4.53772C6.96504 4.53772 6.53744 4.65234 6.28176 4.88158C6.02608 5.11081 5.89824 5.51639 5.89824 6.0983V6.65376H7.77616ZM20.181 14.0335C20.181 12.8696 19.8548 11.9747 19.2024 11.3487C18.5499 10.7227 17.8005 10.4097 16.9541 10.4097C16.1078 10.4097 15.3584 10.7271 14.7059 11.362C14.0535 11.9968 13.7273 12.8961 13.7273 14.0599C13.7273 15.2238 14.0535 16.1187 14.7059 16.7447C15.3584 17.3707 16.1078 17.6837 16.9541 17.6837C17.8005 17.6837 18.5499 17.3662 19.2024 16.7314C19.8548 16.0966 20.181 15.1973 20.181 14.0335ZM9.12509 14.0599C9.12509 11.8557 9.7775 10.0439 11.0824 8.62433C12.3872 7.20481 13.9786 6.49506 15.8565 6.49506C17.7344 6.49506 19.1759 7.19158 20.181 8.58465V6.65376H24.7039V21.4132H20.181V19.2707C19.0877 20.8225 17.6242 21.5983 15.7904 21.5983C13.9565 21.5983 12.3872 20.893 11.0824 19.4823C9.7775 18.0716 9.12509 16.2641 9.12509 14.0599ZM27.5869 14.0335C27.5869 11.7411 28.2701 9.9116 29.6367 8.54498C31.0033 7.17836 32.771 6.49506 34.9398 6.49506C36.7384 6.49506 38.2636 6.94031 39.5156 7.83081C40.7675 8.72132 41.5963 9.99534 42.0018 11.6529H37.1087C36.6855 10.7712 35.9934 10.3304 35.0324 10.3304C34.0714 10.3304 33.3573 10.6698 32.89 11.3487C32.4227 12.0276 32.1891 12.9225 32.1891 14.0335C32.1891 15.1444 32.4227 16.0393 32.89 16.7182C33.3573 17.3971 34.0405 17.7366 34.9398 17.7366C35.5041 17.7366 35.9449 17.6396 36.2623 17.4456C36.5797 17.2516 36.8618 16.9078 37.1087 16.414H42.0018C41.5963 18.0011 40.7587 19.2619 39.4891 20.1965C38.2196 21.131 36.7031 21.5983 34.9398 21.5983C32.771 21.5983 31.0033 20.9106 29.6367 19.5352C28.2701 18.1598 27.5869 16.3259 27.5869 14.0335ZM44.541 21.4132V6.65376H49.0639V21.4132H44.541ZM53.0313 21.4132V1.83976H57.5542V21.4132H53.0313ZM61.5216 21.4132V6.65376H66.0445V21.4132H61.5216ZM79.7718 14.0335C79.7718 12.8344 79.4632 11.9218 78.846 11.2958C78.2289 10.6698 77.4971 10.3568 76.6507 10.3568C75.8043 10.3568 75.077 10.6698 74.4686 11.2958C73.8603 11.9218 73.5561 12.8344 73.5561 14.0335C73.5561 15.2326 73.8691 16.1495 74.4951 16.7843C75.1211 17.4191 75.8572 17.7366 76.7036 17.7366C77.55 17.7366 78.273 17.4191 78.8725 16.7843C79.472 16.1495 79.7718 15.2326 79.7718 14.0335ZM68.9539 14.007C68.9539 11.7323 69.6945 9.9116 71.1757 8.54498C72.6569 7.17836 74.4907 6.49506 76.6772 6.49506C78.8637 6.49506 80.6931 7.17836 82.1655 8.54498C83.6378 9.9116 84.374 11.7323 84.374 14.007C84.374 16.2818 83.6422 18.1157 82.1787 19.5087C80.7151 20.9018 78.8901 21.5983 76.7036 21.5983C74.5171 21.5983 72.6789 20.9018 71.1889 19.5087C69.6989 18.1157 68.9539 16.2818 68.9539 14.007Z" fill="white"/>
<path fill-rule="evenodd" clip-rule="evenodd" d="M44.6014 4.5655V0H49.1669V4.5655H44.6014Z" fill="#FF3184"/>
<path fill-rule="evenodd" clip-rule="evenodd" d="M61.6343 4.5655V0H66.1998V4.5655H61.6343Z" fill="#39B3C2"/>
<path d="M96.074 21.126C94.898 21.126 93.818 20.85 92.834 20.298C91.85 19.746 91.07 18.984 90.494 18.012C89.918 17.028 89.63 15.918 89.63 14.682C89.63 13.458 89.918 12.36 90.494 11.388C91.07 10.404 91.85 9.636 92.834 9.084C93.818 8.532 94.898 8.256 96.074 8.256C97.262 8.256 98.342 8.532 99.314 9.084C100.298 9.636 101.072 10.404 101.636 11.388C102.212 12.36 102.5 13.458 102.5 14.682C102.5 15.918 102.212 17.028 101.636 18.012C101.072 18.984 100.298 19.746 99.314 20.298C98.33 20.85 97.25 21.126 96.074 21.126ZM96.074 18.876C96.83 18.876 97.496 18.708 98.072 18.372C98.648 18.024 99.098 17.532 99.422 16.896C99.746 16.26 99.908 15.522 99.908 14.682C99.908 13.842 99.746 13.11 99.422 12.486C99.098 11.85 98.648 11.364 98.072 11.028C97.496 10.692 96.83 10.524 96.074 10.524C95.318 10.524 94.646 10.692 94.058 11.028C93.482 11.364 93.032 11.85 92.708 12.486C92.384 13.11 92.222 13.842 92.222 14.682C92.222 15.522 92.384 16.26 92.708 16.896C93.032 17.532 93.482 18.024 94.058 18.372C94.646 18.708 95.318 18.876 96.074 18.876ZM107.075 12.468C107.399 12.012 107.843 11.634 108.407 11.334C108.983 11.022 109.637 10.866 110.369 10.866C111.221 10.866 111.989 11.076 112.673 11.496C113.369 11.916 113.915 12.516 114.311 13.296C114.719 14.064 114.923 14.958 114.923 15.978C114.923 16.998 114.719 17.904 114.311 18.696C113.915 19.476 113.369 20.082 112.673 20.514C111.989 20.946 111.221 21.162 110.369 21.162C109.637 21.162 108.989 21.012 108.425 20.712C107.873 20.412 107.423 20.034 107.075 19.578V25.752H104.555V11.028H107.075V12.468ZM112.349 15.978C112.349 15.378 112.223 14.862 111.971 14.43C111.731 13.986 111.407 13.65 110.999 13.422C110.603 13.194 110.171 13.08 109.703 13.08C109.247 13.08 108.815 13.2 108.407 13.44C108.011 13.668 107.687 14.004 107.435 14.448C107.195 14.892 107.075 15.414 107.075 16.014C107.075 16.614 107.195 17.136 107.435 17.58C107.687 18.024 108.011 18.366 108.407 18.606C108.815 18.834 109.247 18.948 109.703 18.948C110.171 18.948 110.603 18.828 110.999 18.588C111.407 18.348 111.731 18.006 111.971 17.562C112.223 17.118 112.349 16.59 112.349 15.978ZM120.75 21.162C119.934 21.162 119.202 21.018 118.554 20.73C117.906 20.43 117.39 20.028 117.006 19.524C116.634 19.02 116.43 18.462 116.394 17.85H118.932C118.98 18.234 119.166 18.552 119.49 18.804C119.826 19.056 120.24 19.182 120.732 19.182C121.212 19.182 121.584 19.086 121.848 18.894C122.124 18.702 122.262 18.456 122.262 18.156C122.262 17.832 122.094 17.592 121.758 17.436C121.434 17.268 120.912 17.088 120.192 16.896C119.448 16.716 118.836 16.53 118.356 16.338C117.888 16.146 117.48 15.852 117.132 15.456C116.796 15.06 116.628 14.526 116.628 13.854C116.628 13.302 116.784 12.798 117.096 12.342C117.42 11.886 117.876 11.526 118.464 11.262C119.064 10.998 119.766 10.866 120.57 10.866C121.758 10.866 122.706 11.166 123.414 11.766C124.122 12.354 124.512 13.152 124.584 14.16H122.172C122.136 13.764 121.968 13.452 121.668 13.224C121.38 12.984 120.99 12.864 120.498 12.864C120.042 12.864 119.688 12.948 119.436 13.116C119.196 13.284 119.076 13.518 119.076 13.818C119.076 14.154 119.244 14.412 119.58 14.592C119.916 14.76 120.438 14.934 121.146 15.114C121.866 15.294 122.46 15.48 122.928 15.672C123.396 15.864 123.798 16.164 124.134 16.572C124.482 16.968 124.662 17.496 124.674 18.156C124.674 18.732 124.512 19.248 124.188 19.704C123.876 20.16 123.42 20.52 122.82 20.784C122.232 21.036 121.542 21.162 120.75 21.162ZM142.678 8.436L138.07 21H135.01L130.402 8.436H133.102L136.558 18.426L139.996 8.436H142.678ZM145.647 9.84C145.203 9.84 144.831 9.702 144.531 9.426C144.243 9.138 144.099 8.784 144.099 8.364C144.099 7.944 144.243 7.596 144.531 7.32C144.831 7.032 145.203 6.888 145.647 6.888C146.091 6.888 146.457 7.032 146.745 7.32C147.045 7.596 147.195 7.944 147.195 8.364C147.195 8.784 147.045 9.138 146.745 9.426C146.457 9.702 146.091 9.84 145.647 9.84ZM146.889 11.028V21H144.369V11.028H146.889ZM153.374 21.162C152.558 21.162 151.826 21.018 151.178 20.73C150.53 20.43 150.014 20.028 149.63 19.524C149.258 19.02 149.054 18.462 149.018 17.85H151.556C151.604 18.234 151.79 18.552 152.114 18.804C152.45 19.056 152.864 19.182 153.356 19.182C153.836 19.182 154.208 19.086 154.472 18.894C154.748 18.702 154.886 18.456 154.886 18.156C154.886 17.832 154.718 17.592 154.382 17.436C154.058 17.268 153.536 17.088 152.816 16.896C152.072 16.716 151.46 16.53 150.98 16.338C150.512 16.146 150.104 15.852 149.756 15.456C149.42 15.06 149.252 14.526 149.252 13.854C149.252 13.302 149.408 12.798 149.72 12.342C150.044 11.886 150.5 11.526 151.088 11.262C151.688 10.998 152.39 10.866 153.194 10.866C154.382 10.866 155.33 11.166 156.038 11.766C156.746 12.354 157.136 13.152 157.208 14.16H154.796C154.76 13.764 154.592 13.452 154.292 13.224C154.004 12.984 153.614 12.864 153.122 12.864C152.666 12.864 152.312 12.948 152.06 13.116C151.82 13.284 151.7 13.518 151.7 13.818C151.7 14.154 151.868 14.412 152.204 14.592C152.54 14.76 153.062 14.934 153.77 15.114C154.49 15.294 155.084 15.48 155.552 15.672C156.02 15.864 156.422 16.164 156.758 16.572C157.106 16.968 157.286 17.496 157.298 18.156C157.298 18.732 157.136 19.248 156.812 19.704C156.5 20.16 156.044 20.52 155.444 20.784C154.856 21.036 154.166 21.162 153.374 21.162ZM160.825 9.84C160.381 9.84 160.009 9.702 159.709 9.426C159.421 9.138 159.277 8.784 159.277 8.364C159.277 7.944 159.421 7.596 159.709 7.32C160.009 7.032 160.381 6.888 160.825 6.888C161.269 6.888 161.635 7.032 161.923 7.32C162.223 7.596 162.373 7.944 162.373 8.364C162.373 8.784 162.223 9.138 161.923 9.426C161.635 9.702 161.269 9.84 160.825 9.84ZM162.067 11.028V21H159.547V11.028H162.067ZM169.165 21.162C168.205 21.162 167.341 20.952 166.573 20.532C165.805 20.1 165.199 19.494 164.755 18.714C164.323 17.934 164.107 17.034 164.107 16.014C164.107 14.994 164.329 14.094 164.773 13.314C165.229 12.534 165.847 11.934 166.627 11.514C167.407 11.082 168.277 10.866 169.237 10.866C170.197 10.866 171.067 11.082 171.847 11.514C172.627 11.934 173.239 12.534 173.683 13.314C174.139 14.094 174.367 14.994 174.367 16.014C174.367 17.034 174.133 17.934 173.665 18.714C173.209 19.494 172.585 20.1 171.793 20.532C171.013 20.952 170.137 21.162 169.165 21.162ZM169.165 18.966C169.621 18.966 170.047 18.858 170.443 18.642C170.851 18.414 171.175 18.078 171.415 17.634C171.655 17.19 171.775 16.65 171.775 16.014C171.775 15.066 171.523 14.34 171.019 13.836C170.527 13.32 169.921 13.062 169.201 13.062C168.481 13.062 167.875 13.32 167.383 13.836C166.903 14.34 166.663 15.066 166.663 16.014C166.663 16.962 166.897 17.694 167.365 18.21C167.845 18.714 168.445 18.966 169.165 18.966ZM181.921 10.884C183.109 10.884 184.069 11.262 184.801 12.018C185.533 12.762 185.899 13.806 185.899 15.15V21H183.379V15.492C183.379 14.7 183.181 14.094 182.785 13.674C182.389 13.242 181.849 13.026 181.165 13.026C180.469 13.026 179.917 13.242 179.509 13.674C179.113 14.094 178.915 14.7 178.915 15.492V21H176.395V11.028H178.915V12.27C179.251 11.838 179.677 11.502 180.193 11.262C180.721 11.01 181.297 10.884 181.921 10.884Z" fill="#6DE0EE"/>
</svg>
