<?xml version="1.0" encoding="UTF-8"?>
<svg width="12px" height="12px" viewBox="0 0 12 12" version="1.1" xmlns="http://www.w3.org/2000/svg" xmlns:xlink="http://www.w3.org/1999/xlink">
    <!-- Generator: Sketch 52.3 (67297) - http://www.bohemiancoding.com/sketch -->
    <title>rejected-icon</title>
    <desc>Created with Sketch.</desc>
    <g id="Page-1" stroke="none" stroke-width="1" fill="none" fill-rule="evenodd" opacity="0.699999988">
        <g id="Artboard" transform="translate(-936.000000, -450.000000)" fill="#D9202F">
            <g id="rejected-icon" transform="translate(936.000000, 450.000000)">
                <g id="Page-1">
                    <g id="Approval-List">
                        <g id="Group-8-Copy-3">
                            <g id="Group-5">
                                <g id="add-user-(1)">
                                    <path d="M4.99999219,0 C3.34549219,0 1.99999219,1.3455 1.99999219,3 L1.99999219,4.00000781 C1.99999219,4.61901563 2.1885,5.1945 2.511,5.673 C1.01299219,6.537 0,8.14999219 0,10.0000078 L0,10.5 C0,11.3269922 0.673007812,12 1.5,12 L6,12 C6.27649219,12 6.49999219,11.7760078 6.49999219,11.5000078 C6.49999219,11.2240078 6.27649219,11.0000156 6,11.0000156 L1.5,11.0000156 C1.224,11.0000156 1.00000781,10.7755078 1.00000781,10.5000234 L1.00000781,10.0000313 C1.00000781,8.43053906 1.90900781,7.07003906 3.228,6.41552344 C3.72550781,6.78103125 4.33699219,7.00003125 4.99999219,7.00003125 C6.65449219,7.00003125 7.99999219,5.65453125 7.99999219,4.00003125 L7.99999219,3 C7.99999219,1.3455 6.65449219,0 4.99999219,0 Z M7.00000781,4.00000781 C7.00000781,5.103 6.10300781,6 5.00001562,6 C3.89702344,6 3,5.103 3,4.00000781 L3,3 C3,1.89700781 3.897,1.00000781 4.99999219,1.00000781 C6.10298437,1.00000781 6.99998437,1.89700781 6.99998437,3 L6.99998437,4.00000781 L7.00000781,4.00000781 Z" id="Shape" fill-rule="nonzero"></path>
                                    <g id="cancel-music-(4)" transform="translate(7.000000, 7.000000)">
                                        <path d="M2.78459155,2.27093662 L4.38887324,0.66665493 C4.5365493,0.518978873 4.5365493,0.279549296 4.38887324,0.131894366 C4.24119718,-0.0157816901 4.00178873,-0.0157816901 3.85411268,0.131894366 L2.24980986,1.73619718 L0.645507042,0.131873239 C0.497830986,-0.0158028169 0.258422535,-0.0158028169 0.110746479,0.131873239 C-0.0369084507,0.279549296 -0.0369084507,0.518978873 0.110746479,0.666633803 L1.7150493,2.27091549 L0.110746479,3.87521831 C-0.0369084507,4.02289437 -0.0369084507,4.26232394 0.110746479,4.40997887 C0.258422535,4.55765493 0.497830986,4.55765493 0.645507042,4.40997887 L2.24980986,2.80567606 L3.85411268,4.40997887 C4.00176761,4.55765493 4.24119718,4.55765493 4.38887324,4.40997887 C4.5365493,4.26230282 4.5365493,4.02289437 4.38887324,3.87521831 L2.78459155,2.27093662 Z" id="Shape"></path>
                                    </g>
                                </g>
                            </g>
                        </g>
                    </g>
                </g>
            </g>
        </g>
    </g>
</svg>