<?xml version="1.0" encoding="UTF-8"?>
<svg width="512px" height="512px" viewBox="0 0 512 512" version="1.1" xmlns="http://www.w3.org/2000/svg" xmlns:xlink="http://www.w3.org/1999/xlink">
    <!-- Generator: Sketch 52.6 (67491) - http://www.bohemiancoding.com/sketch -->
    <title>settings-grey2</title>
    <desc>Created with Sketch.</desc>
    <g id="Page-1" stroke="none" stroke-width="1" fill="none" fill-rule="evenodd">
        <g id="settings-grey2" fill="#6C6A91" fill-rule="nonzero">
            <path d="M485.792652,202.254241 L449.855547,196.157768 C446.112099,184.071777 441.299094,172.413609 435.416532,161.29022 L456.593754,131.663499 C465.578031,119.04273 464.187607,101.822867 453.171173,90.9133889 L421.298383,59.0405993 C415.308866,53.0510818 407.394146,49.735456 398.944648,49.735456 C392.313397,49.735456 386.003012,51.7676137 380.655229,55.6180179 L350.921553,76.7952405 C339.37034,70.6987673 327.28435,65.6718508 314.770536,61.9284024 L308.781019,26.41912 C306.214083,11.1244592 293.058535,0.0010695567 277.549963,0.0010695567 L232.521626,0.0010695567 C217.013054,0.0010695567 203.857507,11.1244592 201.290571,26.41912 L195.087142,62.7840477 C183.108107,66.5274962 171.449939,71.447457 160.326549,77.4369745 L130.91374,56.2597519 C125.565956,52.4093478 119.148616,50.37719 112.517365,50.37719 C104.067867,50.37719 96.0461915,53.6928158 90.1636296,59.6823333 L58.1838844,91.5551229 C47.2744061,102.464601 45.7770267,119.684464 54.7613029,132.305233 L76.1524369,162.359776 C70.2698751,173.590122 65.5638256,185.24829 61.9273328,197.33428 L26.4180504,203.323798 C11.1233897,205.890734 -2.84217094e-14,219.046281 -2.84217094e-14,234.554853 L-2.84217094e-14,279.58319 C-2.84217094e-14,295.091763 11.1233897,308.24731 26.4180504,310.814246 L62.7829782,317.017675 C66.5264266,328.99671 71.4463874,340.654878 77.4359049,351.778268 L56.365638,381.084121 C47.3813617,393.70489 48.7717854,410.924753 59.7882194,421.834231 L91.661009,453.707021 C97.6505265,459.696538 105.565246,463.012164 114.014744,463.012164 C120.645996,463.012164 126.95638,460.980006 132.304164,457.129602 L162.358707,435.738468 C173.161229,441.407119 184.49853,446.006213 196.156698,449.642705 L202.146216,485.57981 C204.713152,500.874471 217.868699,511.997861 233.377272,511.997861 L278.512564,511.997861 C294.021136,511.997861 307.176684,500.874471 309.74362,485.57981 L315.840093,449.642705 C327.926084,445.899257 339.584252,441.086252 350.707641,435.20369 L380.334362,456.380913 C385.682145,460.231317 392.099485,462.263474 398.730737,462.263474 C407.180235,462.263474 415.094954,458.947849 421.084472,452.958331 L452.957262,421.085542 C463.86674,410.176063 465.364119,392.9562 456.379843,380.335431 L435.20262,350.601755 C441.085182,339.37141 446.005143,327.713242 449.641636,315.734207 L485.578741,309.744689 C500.873402,307.177753 511.996791,294.022206 511.996791,278.513634 L511.996791,233.485297 C512.210703,217.976725 501.087313,204.821177 485.792652,202.254241 Z M483.332672,278.513634 C483.332672,279.904057 482.370071,281.08057 480.979647,281.294481 L436.058266,288.781378 C430.389615,289.743979 425.897477,293.91525 424.507053,299.369989 C420.442738,315.092473 414.239309,330.173222 405.896767,344.184415 C403.008964,349.104376 403.222875,355.200849 406.538501,359.906898 L432.956551,397.127472 C433.705241,398.197028 433.598285,399.801363 432.635684,400.763964 L400.762895,432.636754 C400.014205,433.385444 399.265515,433.492399 398.730737,433.492399 C398.089003,433.492399 397.554225,433.278488 397.126402,432.957621 L360.012785,406.53957 C355.413691,403.223945 349.210262,403.010033 344.290301,405.897836 C330.279108,414.240379 315.198359,420.443808 299.475875,424.508123 C293.914181,425.898547 289.742909,430.49764 288.887264,436.059335 L281.293412,480.980717 C281.0795,482.37114 279.902988,483.333741 278.512564,483.333741 L233.484227,483.333741 C232.093803,483.333741 230.917291,482.37114 230.70338,480.980717 L223.216483,436.059335 C222.253882,430.390685 218.082611,425.898547 212.627872,424.508123 C197.333211,420.550763 182.573328,414.45429 168.776047,406.53957 C166.529978,405.256102 163.963042,404.614368 161.503061,404.614368 C158.615258,404.614368 155.6205,405.470014 153.160519,407.28826 L115.726035,433.920222 C115.191256,434.241089 114.656478,434.455 114.1217,434.455 C113.693877,434.455 112.838232,434.348045 112.089542,433.599355 L80.2167523,401.726565 C79.2541513,400.763964 79.1471957,399.266585 79.8958853,398.090073 L106.20698,361.190366 C109.522606,356.484317 109.736517,350.280888 106.848714,345.360927 C98.5061719,331.45669 92.0888317,316.375941 88.0245162,300.653457 C86.5271369,295.198718 82.0349987,291.027447 76.4733039,290.064846 L31.2310556,282.364038 C29.8406319,282.150126 28.8780308,280.973614 28.8780308,279.58319 L28.8780308,234.554853 C28.8780308,233.16443 29.8406319,231.987917 31.2310556,231.774006 L75.8315699,224.287109 C81.5002204,223.324508 86.0993142,219.153237 87.4897379,213.591542 C91.4470977,197.869059 97.5435709,182.681354 105.779157,168.670161 C108.666961,163.7502 108.346094,157.653727 105.030468,153.054633 L78.398506,115.620149 C77.6498163,114.550592 77.7567719,112.946257 78.719373,111.983656 L110.592163,80.1108662 C111.340852,79.3621765 112.089542,79.2552209 112.62432,79.2552209 C113.266054,79.2552209 113.800833,79.4691322 114.228655,79.7899992 L151.128361,106.101094 C155.834411,109.41672 162.03784,109.630631 166.957801,106.742828 C180.862038,98.4002858 195.942787,91.9829456 211.665271,87.9186301 C217.12001,86.4212508 221.291281,81.9291126 222.253882,76.3674178 L229.95469,31.1251695 C230.168601,29.7347458 231.345114,28.7721447 232.735537,28.7721447 L277.763874,28.7721447 C279.154298,28.7721447 280.330811,29.7347458 280.544722,31.1251695 L288.031619,75.7256838 C288.99422,81.3943343 293.165491,85.9934281 298.727186,87.3838518 C314.877492,91.4481672 330.279108,97.7585518 344.611168,106.20805 C349.531129,109.095853 355.627602,108.881941 360.333652,105.566316 L397.233358,79.0413095 C397.768136,78.7204425 398.302914,78.5065312 398.837693,78.5065312 C399.265515,78.5065312 400.121161,78.6134869 400.86985,79.3621765 L432.74264,111.234966 C433.705241,112.197567 433.812197,113.694947 433.063507,114.871459 L406.645457,151.985076 C403.329831,156.58417 403.115919,162.787599 406.003723,167.70756 C414.346265,181.718753 420.549694,196.799502 424.614009,212.521985 C426.004433,218.08368 430.603527,222.254951 436.165221,223.110597 L481.086603,230.704449 C482.477026,230.918361 483.439627,232.094873 483.439627,233.485297 L483.439627,278.513634 L483.332672,278.513634 Z" id="Shape"></path>
            <path d="M256.051873,145.46078 C195.087142,145.46078 145.566667,194.981256 145.566667,255.945987 C145.566667,316.910719 195.087142,366.431194 256.051873,366.431194 C317.016605,366.431194 366.53708,316.910719 366.53708,255.945987 C366.53708,194.981256 317.016605,145.46078 256.051873,145.46078 Z M256.051873,337.553163 C211.023537,337.553163 174.444697,300.974324 174.444697,255.945987 C174.444697,210.91765 211.023537,174.338811 256.051873,174.338811 C301.08021,174.338811 337.65905,210.91765 337.65905,255.945987 C337.65905,300.974324 301.08021,337.553163 256.051873,337.553163 Z" id="Shape"></path>
        </g>
    </g>
</svg>