<?xml version="1.0" encoding="UTF-8"?>
<svg width="145px" height="217px" viewBox="0 0 145 217" version="1.1" xmlns="http://www.w3.org/2000/svg" xmlns:xlink="http://www.w3.org/1999/xlink">
    <!-- Generator: Sketch 50.2 (55047) - http://www.bohemiancoding.com/sketch -->
    <title>Shape</title>
    <desc>Created with Sketch.</desc>
    <defs></defs>
    <g id="Page-1" stroke="none" stroke-width="1" fill="none" fill-rule="evenodd">
        <g id="energy" transform="translate(0.000000, -1.000000)" fill="#6B7E91" fill-rule="nonzero">
            <path d="M143.508,92.769 C142.361,89.94 139.612,88.088 136.558,88.088 L104.235,88.088 L130.978,10.957 C132.122,7.659 130.838,4.008 127.883,2.15 C124.927,0.291 121.081,0.719 118.605,3.18 L3.089,117.98 C0.935,120.121 0.284,123.35 1.443,126.159 C2.6,128.968 5.339,130.8 8.377,130.8 L40.377,130.8 L11.26,207.781 C10.016,211.067 11.222,214.776 14.159,216.704 C15.417,217.53 16.847,217.934 18.272,217.934 C20.171,217.934 22.057,217.214 23.498,215.815 L141.782,100.969 C143.973,98.842 144.656,95.599 143.508,92.769 Z M37.196,181.61 L58.247,125.953 C59.118,123.648 58.804,121.063 57.403,119.036 C56.003,117.01 53.696,115.8 51.232,115.8 L26.563,115.8 L106.186,36.67 L86.611,93.132 C85.816,95.425 86.179,97.961 87.586,99.938 C88.993,101.916 91.27,103.089 93.696,103.089 L118.066,103.089 L37.196,181.61 Z" id="Shape"></path>
        </g>
    </g>
</svg>