<?xml version="1.0" encoding="iso-8859-1"?>
<!-- Generator: Adobe Illustrator 19.0.0, SVG Export Plug-In . SVG Version: 6.00 Build 0)  -->
<svg version="1.1" id="Capa_1" xmlns="http://www.w3.org/2000/svg" xmlns:xlink="http://www.w3.org/1999/xlink" x="0px" y="0px"
	 viewBox="0 0 503.85 503.85" style="enable-background:new 0 0 503.85 503.85;" xml:space="preserve">
<g transform="translate(-1)">
	<g>
		<g>
			<path d="M504.189,391.644c-5.83-50.903-48.946-89.318-100.182-89.26c-1.427,0-2.812,0.134-4.197,0.193l-75.541-130.778
				c38.847-39.012,39.171-101.987,0.729-141.398C286.556-9.01,223.593-10.252,183.626,27.611
				c-39.967,37.864-42.126,100.803-4.849,141.317l-77.035,133.456C50.519,302.377,7.448,340.816,1.653,391.71
				c-5.795,50.895,27.532,98.033,77.446,109.541c49.914,11.508,100.516-16.279,117.59-64.573h112.472
				c17.079,48.306,67.7,76.093,117.623,64.565C476.706,489.716,510.019,442.547,504.189,391.644z M400.599,337.544
				c2.231,3.858,2.836,8.445,1.681,12.749c-1.154,4.305-3.972,7.974-7.834,10.198c-8.045,4.388-18.119,1.675-22.872-6.161
				L281.051,197.6c10.855-3.148,21.098-8.115,30.292-14.688L400.599,337.544z M168.991,100.941
				c0-44.563,34.823-81.358,79.318-83.808c44.495-2.451,83.149,30.297,88.043,74.59c4.894,44.293-25.679,84.689-69.636,92.011
				c-6.416,1.038-12.932,1.319-19.414,0.839l9.627-16.669c0.541-0.938,1.026-1.908,1.452-2.904
				c6.971-15.713,1.004-34.154-13.849-42.807c-16.079-9.207-36.576-3.702-45.879,12.322l-11.012,19.078
				C175.516,138.731,168.924,120.122,168.991,100.941z M213.182,142.908c4.655-8.017,14.909-10.773,22.956-6.169
				c7.497,4.403,10.449,13.765,6.832,21.672c-0.195,0.441-0.416,0.87-0.663,1.284l-90.154,156.185
				c-9.907-5.742-20.727-9.74-31.987-11.818L213.182,142.908z M101.843,487.04c-46.356,0-83.934-37.579-83.934-83.934
				s37.579-83.934,83.934-83.934c1.486,0,2.82,0,4.272,0.067c31.778,1.616,59.895,21.104,72.561,50.294h-1.293
				c-18.542,0-33.574,15.031-33.574,33.574s15.031,33.574,33.574,33.574h1.309C165.308,467.202,135.172,486.95,101.843,487.04z
				 M304.729,419.892H177.384c-9.271,0-16.787-7.516-16.787-16.787s7.516-16.787,16.787-16.787h127.345
				C302.804,397.427,302.804,408.784,304.729,419.892z M309.111,369.531H196.689c-6.066-17.19-16.683-32.411-30.72-44.04
				l72.184-125.062c4.886,0.78,9.824,1.192,14.772,1.234c3.579-0.022,7.154-0.234,10.71-0.638l73.333,126.968
				C324.288,339.233,314.698,353.534,309.111,369.531z M487.934,405.918c-1.492,45.262-38.64,81.169-83.927,81.121
				c-37.539-0.077-70.485-25.014-80.753-61.121c-4.258-14.942-4.258-30.777,0-45.719c3.987-14.189,11.692-27.054,22.318-37.267
				l11.432,19.741c5.75,10.85,16.964,17.695,29.242,17.85c12.278,0.155,23.661-6.405,29.683-17.106s5.721-23.836-0.784-34.25
				l-5.615-9.72C454.721,322.382,489.426,360.656,487.934,405.918z" fill="#8c8c8c"/>
			<path d="M261.318,84.154c13.907,0,25.18-11.274,25.18-25.18c0-13.907-11.274-25.18-25.18-25.18
				c-13.907,0-25.18,11.274-25.18,25.18C236.138,72.881,247.412,84.154,261.318,84.154z M261.318,50.581
				c4.636,0,8.393,3.758,8.393,8.393c0,4.636-3.758,8.393-8.393,8.393s-8.393-3.758-8.393-8.393
				C252.925,54.338,256.683,50.581,261.318,50.581z" fill="#8c8c8c"/>
			<path d="M68.269,352.745c-13.907,0-25.18,11.274-25.18,25.18c0,13.907,11.274,25.18,25.18,25.18
				c13.907,0,25.18-11.274,25.18-25.18C93.45,364.018,82.176,352.745,68.269,352.745z M68.269,386.318
				c-4.636,0-8.393-3.758-8.393-8.393c0-4.636,3.758-8.393,8.393-8.393c4.636,0,8.393,3.758,8.393,8.393
				C76.663,382.56,72.905,386.318,68.269,386.318z" fill="#8c8c8c"/>
			<path d="M378.827,419.892c-13.907,0-25.18,11.274-25.18,25.18c0,13.907,11.274,25.18,25.18,25.18
				c13.907,0,25.18-11.274,25.18-25.18C404.007,431.166,392.733,419.892,378.827,419.892z M378.827,453.466
				c-4.636,0-8.393-3.758-8.393-8.393s3.758-8.393,8.393-8.393s8.393,3.758,8.393,8.393S383.462,453.466,378.827,453.466z"
        fill="#8c8c8c"/>
		</g>
	</g>
</g>
<g>
</g>
<g>
</g>
<g>
</g>
<g>
</g>
<g>
</g>
<g>
</g>
<g>
</g>
<g>
</g>
<g>
</g>
<g>
</g>
<g>
</g>
<g>
</g>
<g>
</g>
<g>
</g>
<g>
</g>
</svg>
