<?xml version="1.0" encoding="UTF-8"?>
<svg width="512px" height="512px" viewBox="0 0 512 512" version="1.1" xmlns="http://www.w3.org/2000/svg" xmlns:xlink="http://www.w3.org/1999/xlink">
    <!-- Generator: Sketch 59 (86127) - https://sketch.com -->
    <title>team-staff-icon</title>
    <desc>Created with Sketch.</desc>
    <g id="team-staff-icon" stroke="none" stroke-width="1" fill="none" fill-rule="evenodd">
        <g transform="translate(20.500000, 0.500000)" fill="#000000" fill-rule="nonzero">
            <circle id="Oval" cx="235.5" cy="231.623308" r="36.2307692"></circle>
            <circle id="Oval" cx="235.5" cy="267.528" r="36.2307692"></circle>
            <path d="M402.705,112.061769 C408.574385,103.837385 412.016308,93.8014615 412.016308,82.9322308 L412.016308,50.397 C412.016308,22.608 389.408308,0 361.655538,0 L354.699231,0 C326.910231,0 304.302231,22.608 304.302231,50.397 L304.302231,82.9322308 C304.302231,93.7652308 307.744154,103.764923 313.577308,111.989308 L280.063846,111.989308 C285.860769,103.764923 289.338923,93.7652308 289.338923,82.9322308 L289.338923,50.3607692 C289.375154,22.608 266.767154,0 238.978154,0 L232.021846,0 C204.232846,0 181.661077,22.608 181.661077,50.397 L181.661077,82.9322308 C181.661077,93.7652308 185.066769,103.764923 190.899923,111.989308 L157.422692,111.989308 C163.255846,103.764923 166.697769,93.7652308 166.697769,82.9322308 L166.697769,50.3607692 C166.697769,22.608 144.089769,0 116.337,0 L109.380692,0 C81.5916923,0 58.9836923,22.608 58.9836923,50.397 L58.9836923,82.9322308 C58.9836923,93.8014615 62.4256154,103.837385 68.295,112.061769 C30.6845198,113.612234 0.95642949,144.489853 0.833307692,182.132077 L0.833307692,286.114385 C0.833307692,307.744154 18.4776923,325.316077 40.1799231,325.316077 L40.8320769,325.316077 L40.8320769,475.347692 C40.8320769,494.948538 56.7736154,510.926308 76.4106923,510.926308 L87.9320769,510.926308 C97.6419231,510.926308 106.409769,507.013385 112.822615,500.745462 C119.271692,507.013385 128.039538,510.890077 137.713154,510.890077 L149.307,510.890077 C158.944385,510.890077 167.748462,507.013385 174.161308,500.709231 C180.574154,507.013385 189.378231,510.926308 199.051846,510.926308 L210.609462,510.926308 C220.283077,510.926308 229.087154,507.013385 235.5,500.745462 C241.912846,507.013385 250.716923,510.890077 260.390538,510.890077 L271.948154,510.890077 C281.621769,510.890077 290.425846,507.013385 296.838692,500.709231 C303.251538,507.013385 312.055615,510.926308 321.729231,510.926308 L333.286846,510.926308 C342.960462,510.926308 351.764538,507.013385 358.141154,500.745462 C364.590231,507.013385 373.358077,510.890077 383.031692,510.890077 L394.625538,510.890077 C414.190154,510.890077 430.131692,494.948538 430.131692,475.383923 L430.131692,325.243615 L430.820077,325.279846 C452.486077,325.279846 470.166692,307.707923 470.166692,286.078154 L470.166692,182.095846 C470.166692,144.415846 440.167615,113.619692 402.705,112.025538 L402.705,112.061769 Z M325.642154,50.397 C325.642154,34.383 338.685231,21.3399231 354.699231,21.3399231 L361.619308,21.3399231 C377.669538,21.3399231 390.712615,34.383 390.712615,50.397 L390.712615,82.9322308 C390.712615,98.9462308 377.669538,111.989308 361.619308,111.989308 L354.699231,111.989308 C338.659726,111.969346 325.662116,98.9717354 325.642154,82.9322308 L325.642154,50.3607692 L325.642154,50.397 Z M202.964769,50.397 C202.964769,34.383 216.007846,21.3399231 232.021846,21.3399231 L238.978154,21.3399231 C254.992154,21.3399231 268.035231,34.383 268.035231,50.397 L268.035231,82.9322308 C268.035231,98.9462308 254.992154,111.989308 238.978154,111.989308 L232.021846,111.989308 C215.982342,111.969346 202.984731,98.9717354 202.964769,82.9322308 L202.964769,50.3607692 L202.964769,50.397 Z M260.173154,133.329231 L235.5,173.799 L210.863077,133.329231 L260.136923,133.329231 L260.173154,133.329231 Z M80.3236154,50.397 C80.3236154,34.383 93.3666923,21.3399231 109.380692,21.3399231 L116.300769,21.3399231 C132.314769,21.3399231 145.357846,34.383 145.357846,50.397 L145.357846,82.9322308 C145.357846,98.9462308 132.314769,111.989308 116.300769,111.989308 L109.416923,111.989308 C93.3774185,111.969346 80.3798082,98.9717354 80.3598462,82.9322308 L80.3598462,50.3607692 L80.3236154,50.397 Z M51.5201538,207.457385 C48.6888364,207.447754 45.9701806,208.565746 43.964729,210.5644 C41.9592775,212.563053 40.8320605,215.277897 40.8320769,218.109231 L40.8320769,304.012422 L40.2161538,304.012422 C30.3054371,304.032446 22.2494039,296.025041 22.2094615,286.114385 L22.2094615,182.132077 C22.2094615,155.212615 44.2377692,133.329231 71.3383846,133.329231 L143.437615,133.329231 C131.119154,145.973769 123.510692,163.183385 123.510692,182.132077 L123.510692,286.114385 C123.510692,289.592538 123.981692,292.925769 124.851231,296.114077 L112.895077,302.164615 L62.2082308,276.368308 L62.2082308,218.145462 C62.2178612,215.314144 61.0998692,212.595488 59.1012158,210.590037 C57.1025624,208.584585 54.3877185,207.457368 51.5563846,207.457385 L51.5201538,207.457385 Z M163.473231,475.347692 C163.473256,483.197378 157.120429,489.566411 149.270769,489.586385 L137.713154,489.586385 C129.863494,489.566411 123.510667,483.197378 123.510692,475.347692 L123.510692,358.104923 C123.510692,352.212066 118.733588,347.434962 112.840731,347.434962 C106.947874,347.434962 102.170769,352.212066 102.170769,358.104923 L102.170769,475.347692 C102.170795,483.197378 95.8179676,489.566411 87.9683077,489.586385 L76.3744615,489.586385 C68.5248016,489.566411 62.172,483.197378 62.172,475.347692 L62.172,300.353077 L108.003923,323.649462 C111.042522,325.198097 114.638939,325.198097 117.677538,323.649462 L135.756692,314.483077 C142.821692,321.185769 152.350385,325.352308 162.857308,325.352308 L163.509462,325.279846 L163.509462,475.347692 L163.473231,475.347692 Z M286.150615,475.347692 C286.150615,483.197378 279.797814,489.566411 271.948154,489.586385 L260.354308,489.586385 C252.504648,489.566411 246.151821,483.197378 246.151846,475.347692 L246.151846,358.104923 C246.151846,352.222071 241.382852,347.453077 235.5,347.453077 C229.617148,347.453077 224.848154,352.222071 224.848154,358.104923 L224.848154,475.347692 C224.848154,483.211505 218.473274,489.586385 210.609462,489.586385 L199.051846,489.586385 C191.202186,489.566411 184.849385,483.197378 184.849385,475.347692 L184.849385,300.425538 L230.681308,323.613231 C233.711472,325.143749 237.288528,325.143749 240.318692,323.613231 L286.150615,300.316846 L286.150615,475.347692 L286.150615,475.347692 Z M296.838692,207.457385 C294.007375,207.447754 291.288719,208.565746 289.283267,210.5644 C287.277816,212.563053 286.150599,215.277897 286.150615,218.109231 L286.150615,276.368308 L235.5,302.164615 L184.885615,276.513231 L184.885615,218.145462 C184.885615,212.2426 180.1004,207.457385 174.197538,207.457385 C168.294677,207.457385 163.509462,212.2426 163.509462,218.145462 L163.509462,304.012422 L162.893538,304.012422 C152.982822,304.032446 144.926788,296.025041 144.886846,286.114385 L144.886846,182.132077 C144.886846,157.857462 162.821077,137.640692 186.262385,133.945154 L226.442308,199.885154 C228.376224,203.056027 231.82214,204.990615 235.536231,204.990615 C239.250322,204.990615 242.696238,203.056027 244.630154,199.885154 L284.846308,133.945154 C308.251385,137.640692 326.185615,157.857462 326.185615,182.132077 L326.185615,286.114385 C326.125777,296.010872 318.075571,303.996288 308.178923,303.976154 L307.526769,304.012422 L307.526769,218.145462 C307.5364,215.314144 306.418408,212.595488 304.419754,210.590037 C302.421101,208.584585 299.706257,207.457368 296.874923,207.457385 L296.838692,207.457385 Z M408.828,475.347692 C408.828,479.124028 407.327856,482.745695 404.657584,485.415968 C401.987311,488.086241 398.365644,489.586385 394.589308,489.586385 L383.067923,489.586385 C375.20411,489.586385 368.829231,483.211505 368.829231,475.347692 L368.829231,358.104923 C368.829231,352.212066 364.052126,347.434962 358.159269,347.434962 C352.266412,347.434962 347.489308,352.212066 347.489308,358.104923 L347.489308,475.347692 C347.489333,483.197378 341.136506,489.566411 333.286846,489.586385 L321.693,489.586385 C313.84334,489.566411 307.490538,483.197378 307.490538,475.347692 L307.490538,325.279846 L308.142692,325.316077 C318.649615,325.316077 328.178308,321.185769 335.243308,314.483077 L353.358692,323.649462 C356.388857,325.17998 359.965912,325.17998 362.996077,323.649462 L408.828,300.316846 L408.828,475.347692 L408.828,475.347692 Z M430.820077,303.976154 L430.167923,304.012385 L430.167923,218.145462 C430.167923,212.252604 425.390819,207.4755 419.497962,207.4755 C413.605104,207.4755 408.828,212.252604 408.828,218.145462 L408.828,276.368308 L358.141154,302.164615 L346.185,296.114077 C347.054538,292.925769 347.489308,289.592538 347.489308,286.114385 L347.489308,182.132077 C347.489308,163.183385 339.880846,145.973769 327.562385,133.329231 L399.697846,133.329231 C426.798462,133.329231 448.826769,155.212615 448.826769,182.132077 L448.826769,286.114385 C448.766931,296.010872 440.716725,303.996288 430.820077,303.976154 L430.820077,303.976154 Z" id="Shape"></path>
        </g>
    </g>
</svg>