<?xml version="1.0" encoding="UTF-8"?>
<svg width="252px" height="187px" viewBox="0 0 252 187" version="1.1" xmlns="http://www.w3.org/2000/svg" xmlns:xlink="http://www.w3.org/1999/xlink">
    <!-- Generator: Sketch 51.2 (57519) - http://www.bohemiancoding.com/sketch -->
    <title>menu</title>
    <desc>Created with Sketch.</desc>
    <defs></defs>
    <g id="Page-1" stroke="none" stroke-width="1" fill="none" fill-rule="evenodd">
        <g id="menu" fill="#50506C" fill-rule="nonzero">
            <path d="M239.4,161.777411 L12.6,161.777411 C5.64488235,161.777411 0,167.427261 0,174.3885 C0,181.35015 5.64488235,187 12.6,187 L239.4,187 C246.355118,187 252,181.35015 252,174.388088 C252,167.427261 246.355118,161.777411 239.4,161.777411 Z M12.6,25.2221764 L239.4,25.2221764 C246.355118,25.2221764 252,19.5727386 252,12.6110882 C252,5.64943782 246.355118,0 239.4,0 L12.6,0 C5.64488235,0.000412127066 0,5.64984995 0,12.6115003 C0,19.5727386 5.64488235,25.2221764 12.6,25.2221764 Z M239.4,80.8887057 L12.6,80.8887057 C5.64488235,80.8887057 0,86.5385557 0,93.5002061 C0,100.461856 5.64488235,106.111294 12.6,106.111294 L239.4,106.111294 C246.355118,106.111294 252,100.461444 252,93.5002061 C252,86.5389678 246.355118,80.8887057 239.4,80.8887057 Z" id="Shape"></path>
        </g>
    </g>
</svg>