<svg xmlns="http://www.w3.org/2000/svg" xmlns:xlink="http://www.w3.org/1999/xlink" version="1.1" style="" xml:space="preserve" width="64.828" height="64.828"><rect id="backgroundrect" width="100%" height="100%" x="0" y="0" fill="none" stroke="none"/> <g class="currentLayer" style=""><title>Layer 1</title><g id="svg_1" class="" transform="rotate(-45.7639274597168 31.301145553588878,32.35572052001954) "><g stroke-width="0" id="svg_2">
	<path d="M59.232269526375354,14.950136037558504 l-0.7898922028747267,0.7983487216335434 c-1.4792323572929806,1.4950688931298584 -2.5551392757772247,1.9275548342693867 -4.796332711373691,1.9275548342693867 c-4.531545650438316,0 -7.820714879947783,-3.3243827955999263 -7.820714879947783,-7.904442788450912 c0,-2.2651874619475048 0.42790482843142924,-3.352612948415824 1.9071371857244088,-4.847681841545681 l0.7898922028747267,-0.7983487216335434 L40.239104817930745,-4.246367877250855 L-4.913233918956343,41.38936795881418 l8.283254302847551,8.371934119082152 l0.7898922028747267,-0.7983487216335434 c1.4792323572929806,-1.4950688931298584 2.5551392757772247,-1.9275548342693867 4.796332711373691,-1.9275548342693867 c4.531545650438316,0 7.820714879947783,3.3243827955999263 7.820714879947783,7.904442788450912 c0,2.2651874619475048 -0.42790482843142924,3.352612948415824 -1.9071371857244088,4.847681841545681 L14.079930789488266,60.585871873623525 l8.283254302847551,8.371934119082152 l45.15233873688709,-45.635735836065024 L59.232269526375354,14.950136037558504 zM17.208216741467385,60.5531248963571 c1.3317560195568225,-1.6046018860555362 1.8032334023193881,-3.1504850542540073 1.8032334023193881,-5.613283585912783 c0,-5.793956563934519 -4.322620838645424,-10.162855013722602 -10.055204845647147,-10.162855013722602 c-2.436711307595159,0 -3.9662196891163752,0.47652497953232714 -5.554942054728625,1.8225386657942542 l-5.1549683508684385,-5.210157003701787 l26.351340165492626,-26.633455372629033 l3.6790877285240065,3.718475728909837 l1.5797844057494523,-1.596697443267085 l-3.6790877285240065,-3.718475728909837 L40.239104817930745,-1.0529729907166832 l5.1549683508684385,5.211286209814424 c-1.3317560195568225,1.6046018860555362 -1.8032334023193881,3.1504850542540073 -1.8032334023193881,5.613283585912783 c0,5.793956563934519 4.322620838645424,10.162855013722602 10.055204845647147,10.162855013722602 c2.436711307595159,0 3.9662196891163752,-0.47652497953232714 5.554942054728625,-1.8225386657942542 L64.35595501772401,23.322070156640653 L50.294309663577906,37.5342582902754 l-3.6790877285240065,-3.718475728909837 l-1.5797844057494523,1.596697443267085 L48.71452525782844,39.13095573354248 L22.363185092335815,65.76441110617152 L17.208216741467385,60.5531248963571 z" data-original="#000000" class="active-path" data-old_color="#E4A5C2" fill="#F968AC" stroke-width="0" id="svg_3"/>
	<path d="M34.9802326836573,25.250754197022687 l-4.468979931398732,-4.516824450543379 l1.5797844057494523,-1.596697443267085 l4.468979931398732,4.516824450543379 L34.9802326836573,25.250754197022687 z" data-original="#000000" class="active-path" data-old_color="#E4A5C2" fill="#F968AC" stroke-width="0" id="svg_4"/>
	<path d="M42.800947563605085,33.1551969854736 l-4.468979931398732,-4.516824450543379 l1.5797844057494523,-1.596697443267085 l4.468979931398732,4.516824450543379 L42.800947563605085,33.1551969854736 z" data-original="#000000" class="active-path" data-old_color="#E4A5C2" fill="#F968AC" stroke-width="0" id="svg_5"/>
</g></g></g></svg>