<svg width="196" height="27" viewBox="0 0 196 27" fill="none" xmlns="http://www.w3.org/2000/svg">
<g clip-path="url(#clip0)">
<path fill-rule="evenodd" clip-rule="evenodd" d="M139.224 0C138.425 0 138.022 0.386635 138.022 1.1599V25.5427C138.022 26.316 138.425 26.7026 139.224 26.7026H139.524C140.324 26.7026 140.726 26.316 140.726 25.5427V1.1599C140.726 0.386635 140.324 0 139.524 0H139.224ZM159.529 16.3725C159.529 14.3897 158.877 12.8977 157.558 11.8815C156.24 10.8654 154.509 10.3648 152.319 10.3598C150.817 10.3598 149.168 10.5729 147.365 10.9893C146.55 11.1826 146.133 11.6337 146.133 12.3425V12.5012C146.133 13.2596 146.617 13.5669 147.467 13.3884C149.152 12.9869 150.685 12.7936 152.054 12.7936C155.109 12.7936 156.861 13.9684 156.861 16.3675V17.2201H151.204C147.202 17.2201 145.166 18.5089 145.166 21.9688C145.166 23.6937 145.665 24.9131 146.683 25.622C147.701 26.3506 149.203 26.7026 151.204 26.7026H154.458C158.129 26.7026 159.529 25.2403 159.529 22.0679V16.3725ZM156.326 23.7879C155.975 24.1894 155.257 24.3976 154.208 24.3976H151.204C149.921 24.3976 149.035 24.2241 148.551 23.8524C148.052 23.4806 147.803 22.856 147.803 21.9688C147.803 21.0815 148.052 20.4569 148.551 20.0851C149.035 19.7183 149.921 19.5399 151.204 19.5399H156.861V21.9539C156.861 22.7767 156.678 23.3864 156.326 23.7879ZM177.095 12.3128C178.582 13.6165 179.315 15.7231 179.315 18.6675C179.315 21.6119 178.582 23.7384 177.095 25.042C175.609 26.3457 173.394 26.9901 170.471 26.9901C168.17 26.9901 166.551 26.6034 165.634 25.8451C164.697 25.0867 164.234 23.897 164.234 22.2712V1.1599C164.234 0.386635 164.636 0 165.436 0H165.685C166.484 0 166.887 0.386635 166.887 1.1599V10.6077C168.236 10.4491 169.422 10.3648 170.471 10.3648C173.394 10.3648 175.614 11.0092 177.095 12.3128ZM175.196 23.2427C176.164 22.3406 176.647 20.8138 176.647 18.6725C176.647 16.5014 176.164 14.9697 175.211 14.0874C174.259 13.2001 172.727 12.7689 170.639 12.7689C169.57 12.7689 168.323 12.8829 166.887 13.0911V21.944C166.887 22.8462 167.004 23.3418 167.503 23.8574C168.002 24.3729 169.02 24.6157 170.639 24.6157C172.711 24.6108 174.229 24.1597 175.196 23.2427ZM184.356 23.9515C183.541 23.7582 183.006 24.1101 183.006 24.933C183.022 25.622 183.358 26.0582 184.004 26.2416C189.529 27.917 196.015 26.9653 196 22.2017C196 19.9018 194.534 18.4544 191.331 17.6018L187.609 16.6352C186.224 16.2486 185.542 15.6042 185.542 14.702C185.542 12.526 189.916 12.3673 193.617 13.2844C194.467 13.4925 194.966 13.1406 194.966 12.3178C194.966 11.6238 194.63 11.1926 193.963 11.0141C191.214 10.2904 188.495 10.1962 186.392 10.7266C184.289 11.257 182.889 12.6895 182.889 14.7318C182.889 16.8434 184.305 18.2561 187.125 19.0145L190.613 19.9315C192.548 20.4619 193.347 21.1658 193.347 22.3108C193.347 23.5847 192.248 24.358 190.511 24.5166C188.775 24.6752 186.672 24.4819 184.356 23.9515ZM93.2521 12.8531C93.2521 13.8197 92.7022 14.36 91.7093 14.36H87.1473V20.7692C87.1473 22.4348 87.9008 23.1386 89.7491 23.1386C90.2377 23.1386 90.6319 23.0843 90.9854 23.0356C91.2728 22.9961 91.5333 22.9602 91.7959 22.9602C92.8396 22.9602 93.2419 23.3518 93.2419 24.1548V24.9727C93.2419 25.8054 92.8397 26.4102 91.9995 26.5737C86.6585 27.8129 82.3918 26.4895 82.3918 20.7692V8.40684V1.66552C82.3918 0.703889 82.9417 0.163592 83.9345 0.163592H85.5944C86.5872 0.163592 87.1422 0.698932 87.1422 1.66552V3.89115V7.61871V9.43291V10.6325H91.7093C92.6971 10.6325 93.2521 11.1678 93.2521 12.1344V12.8531ZM59.057 14.36C60.0499 14.36 60.5997 13.8197 60.5997 12.8581V12.1393C60.5997 11.1727 60.0448 10.6324 59.057 10.6324H54.4899V9.51713V8.41175V7.70292V3.97041V1.74974C54.4899 0.783148 53.9349 0.24285 52.942 0.24285H51.2822C50.2893 0.24285 49.7343 0.783148 49.7343 1.74974V8.4068V9.51218V20.7692C49.7343 26.4894 54.0011 27.8129 59.3421 26.5737C60.1822 26.4101 60.5845 25.8054 60.5845 24.9726V24.1547C60.5845 23.3517 60.1822 22.9601 59.1385 22.9601C58.8759 22.9601 58.6154 22.996 58.328 23.0356C57.9745 23.0843 57.5803 23.1386 57.0917 23.1386C55.2434 23.1386 54.4899 22.4347 54.4899 20.7692V14.36H59.057ZM107.396 20.1496L100.294 20.8684C100.899 22.6975 102.427 23.3518 104.657 23.3518C105.752 23.3518 107.06 23.1733 108.501 22.8263C109.591 22.5785 110.248 23.0395 110.248 24.1002V24.591C110.248 25.4733 109.83 26.0483 108.939 26.2763C107.126 26.7522 105.411 26.9951 103.832 26.9951C98.7458 26.9951 95.3344 24.2985 95.3344 18.6725C95.3344 13.3587 98.2213 10.335 103.868 10.335C108.603 10.335 111.408 12.4913 111.408 16.5807C111.408 18.8757 110.416 19.8373 107.396 20.1496ZM106.989 16.1594C106.989 14.6079 106.017 13.7702 103.868 13.7702C101.536 13.7702 100.294 14.8012 100.039 17.5621L105.833 16.9921C106.806 16.8979 106.989 16.7145 106.989 16.1594ZM130.94 18.2016V25.4932C130.94 26.4598 130.385 27.0001 129.397 27.0001H127.818C126.826 27.0001 126.271 26.4598 126.271 25.4932V18.1372C126.271 15.2622 125.196 14.4592 122.676 14.4592C120.156 14.4592 119.081 15.2622 119.081 18.1372V25.4932C119.081 26.4598 118.526 27.0001 117.539 27.0001H115.96C114.967 27.0001 114.417 26.4598 114.417 25.4932V18.2016C114.417 12.3327 117.457 10.6325 122.681 10.6325C127.9 10.6325 130.94 12.3327 130.94 18.2016ZM78.0178 10.6325H76.4394C75.4516 10.6325 74.8967 11.1728 74.9017 12.1394V19.4954C74.9017 22.3704 73.8274 23.1734 71.3071 23.1734C68.7868 23.1734 67.7125 22.3704 67.7125 19.4954V12.1394C67.7125 11.1728 67.1575 10.6325 66.1646 10.6325H64.5862C63.5934 10.6325 63.0384 11.1728 63.0384 12.1394V19.4309C63.0384 25.2999 66.0781 27.0001 71.302 27.0001C76.526 27.0001 79.5656 25.2999 79.5656 19.4309V12.1394C79.5656 11.1728 79.0106 10.6325 78.0178 10.6325ZM38.6959 17.3044C41.4505 17.3044 43.6857 19.4755 43.6958 22.1522C43.6806 24.8338 41.4505 27 38.6908 27.0149C37.2245 27.0149 35.9108 26.3953 34.9944 25.4138H34.9638C33.7673 24.2291 32.1074 23.4905 30.2643 23.4905C28.4211 23.4905 26.7613 24.2291 25.5648 25.4138H25.5597C24.6483 26.3953 23.3296 27.0149 21.8632 27.0149H21.853H21.8428H21.8377C21.7834 27.0149 21.7291 27.0105 21.6748 27.006C21.6476 27.0038 21.6205 27.0016 21.5933 27C21.5655 26.9983 21.537 26.9972 21.5081 26.996C21.4526 26.9939 21.3957 26.9916 21.3388 26.9851C21.3006 26.9802 21.2637 26.974 21.2268 26.9678C21.1899 26.9616 21.1529 26.9554 21.1147 26.9504C21.0231 26.9405 20.9314 26.9306 20.8449 26.9108C20.8051 26.9025 20.7669 26.8926 20.7293 26.8829C20.6997 26.8753 20.6704 26.8678 20.6412 26.8612C20.5496 26.8414 20.4579 26.8215 20.3663 26.7918C20.3301 26.781 20.2955 26.7672 20.2615 26.7537C20.2333 26.7424 20.2056 26.7314 20.1779 26.7224C20.1391 26.7077 20.1004 26.694 20.062 26.6803C20.0097 26.6617 19.958 26.6433 19.908 26.6233C19.8624 26.6047 19.8195 26.5834 19.7753 26.5615C19.7604 26.554 19.7453 26.5465 19.7298 26.539C19.7048 26.5275 19.6797 26.5165 19.6548 26.5054C19.5936 26.4784 19.5331 26.4517 19.4753 26.42C19.4142 26.3903 19.3581 26.3556 19.3021 26.3209C19.2708 26.3018 19.2395 26.2835 19.2085 26.2654C19.1588 26.2363 19.1098 26.2077 19.0628 26.1772C19.0348 26.1573 19.0068 26.1363 18.9788 26.1152C18.9508 26.0941 18.9228 26.0731 18.8948 26.0532C18.8592 26.026 18.8235 25.9999 18.7879 25.9739C18.7523 25.9479 18.7166 25.9219 18.681 25.8946L18.5129 25.7459C18.4926 25.7277 18.4722 25.7101 18.4518 25.6925C18.4111 25.6572 18.3704 25.622 18.3297 25.5823C18.293 25.5467 18.2586 25.5089 18.2235 25.4704C18.2049 25.45 18.1861 25.4294 18.1667 25.4088C18.1413 25.3791 18.1145 25.3506 18.0878 25.3221C18.0611 25.2936 18.0343 25.2651 18.0089 25.2353L18.0089 25.2353C17.958 25.1709 17.907 25.1065 17.8561 25.0371C17.8422 25.019 17.8284 25.0015 17.8146 24.9841C17.783 24.9441 17.7521 24.905 17.7238 24.8636C17.6866 24.8094 17.6522 24.7525 17.6185 24.6968C17.606 24.6762 17.5936 24.6557 17.5812 24.6356C17.5634 24.6058 17.5455 24.5773 17.5277 24.5488C17.5099 24.5203 17.4921 24.4918 17.4743 24.4621C17.4381 24.3995 17.4083 24.337 17.3774 24.272C17.3691 24.2546 17.3607 24.237 17.3521 24.2192C17.3393 24.1895 17.3241 24.1597 17.3088 24.13C17.2935 24.1002 17.2782 24.0705 17.2655 24.0407C17.2372 23.9738 17.2121 23.9037 17.1877 23.8355C17.1813 23.8178 17.1751 23.8003 17.1688 23.783C17.1632 23.7688 17.1576 23.7549 17.1521 23.7412C17.1324 23.6922 17.1134 23.6449 17.0975 23.5946C17.0669 23.5104 17.0466 23.4211 17.0262 23.3319C17.0186 23.2972 17.0097 23.2637 17.0007 23.2303C16.9918 23.1968 16.9829 23.1634 16.9753 23.1287C16.9677 23.0841 16.9613 23.0407 16.9549 22.9974C16.9486 22.954 16.9422 22.9106 16.9346 22.866C16.9295 22.8288 16.9231 22.7916 16.9167 22.7544C16.9104 22.7173 16.904 22.6801 16.8989 22.6429C16.8921 22.5897 16.8898 22.5342 16.8876 22.4781C16.8864 22.4505 16.8853 22.4228 16.8836 22.3951C16.8819 22.3686 16.8797 22.3422 16.8774 22.3158C16.8729 22.2629 16.8684 22.21 16.8684 22.1571V22.1522V22.1423V22.1324C16.8684 20.7048 17.5048 19.4259 18.5129 18.5337V18.5287C19.7298 17.3639 20.4885 15.7479 20.4885 13.9535C20.4885 12.1592 19.7298 10.5432 18.5129 9.37836V9.34862C18.4722 9.31227 18.4315 9.27151 18.3907 9.23075C18.3704 9.21037 18.35 9.19 18.3297 9.17017C18.2635 9.11069 18.1922 9.04625 18.1311 8.98181H18.1005C16.904 7.79712 15.2442 7.05855 13.401 7.05855C11.5579 7.05855 9.89801 7.79712 8.70149 8.98181H8.6964C7.78501 9.96327 6.46629 10.5829 4.99992 10.5829C2.24538 10.5829 0.0101831 8.41177 0 5.73507V5.73011C0.0101831 3.04845 2.24538 0.882307 4.99992 0.882307C6.46629 0.882307 7.77992 1.50191 8.6964 2.48337H8.70149C9.89801 3.66806 11.5579 4.40663 13.401 4.40663C15.2442 4.40663 16.904 3.66806 18.1005 2.48337H18.1311C19.0425 1.50191 20.3612 0.882307 21.8276 0.882307H21.8377H21.8479H21.853C21.9073 0.882307 21.9616 0.886713 22.0159 0.891119C22.0431 0.893322 22.0703 0.895525 22.0974 0.897177C22.1259 0.898808 22.1544 0.899903 22.1827 0.90099C22.2404 0.903207 22.2973 0.905396 22.352 0.912048C22.3955 0.91734 22.4361 0.924045 22.4761 0.930654C22.511 0.936426 22.5455 0.942124 22.5811 0.946746C22.6728 0.95666 22.7644 0.966573 22.851 0.986401C22.8908 0.994705 22.929 1.00456 22.9665 1.01422C22.9962 1.02187 23.0254 1.0294 23.0546 1.03597C23.1463 1.0558 23.2379 1.07562 23.3296 1.10537C23.3657 1.1162 23.4004 1.12999 23.4343 1.14351C23.4625 1.15473 23.4902 1.16577 23.518 1.17476C23.5567 1.18943 23.5955 1.20321 23.6338 1.21686C23.6862 1.23549 23.7379 1.25387 23.7878 1.2739C23.8489 1.29868 23.91 1.32842 23.9711 1.35817C24.0015 1.37295 24.0326 1.38705 24.0638 1.40122C24.1164 1.42507 24.1695 1.44915 24.2206 1.47713C24.2583 1.49548 24.2941 1.51761 24.3303 1.54001C24.3527 1.55392 24.3754 1.56794 24.3988 1.58122C24.4752 1.62584 24.5515 1.67045 24.6279 1.72002C24.6839 1.75967 24.745 1.80428 24.801 1.84889C24.8723 1.89846 24.9436 1.94803 25.0098 2.00256C25.0501 2.03526 25.0882 2.07013 25.1255 2.1043C25.1448 2.12192 25.1638 2.13936 25.1829 2.15622C25.2041 2.1751 25.2252 2.19338 25.2462 2.21148C25.2857 2.24566 25.3245 2.27919 25.3611 2.31484C25.4026 2.35526 25.4418 2.39797 25.4802 2.43985C25.4983 2.45961 25.5163 2.47918 25.5342 2.49824C25.5508 2.51601 25.5674 2.53325 25.5838 2.55031C25.6178 2.5856 25.651 2.62011 25.6819 2.65686C25.7357 2.71804 25.7817 2.77922 25.8302 2.84379C25.8367 2.85247 25.8433 2.8612 25.8499 2.87001C25.8658 2.89132 25.8825 2.91187 25.8991 2.93226C25.9249 2.96404 25.9504 2.99541 25.9721 3.02863C25.9976 3.06829 26.0217 3.10795 26.0459 3.14761C26.0701 3.18726 26.0943 3.22691 26.1198 3.26656L26.1198 3.26662C26.1554 3.32112 26.191 3.37563 26.2216 3.43013C26.2674 3.51437 26.3081 3.59861 26.3488 3.68285L26.3489 3.68293C26.3794 3.73746 26.41 3.79198 26.4354 3.85146C26.4762 3.94069 26.5067 4.02991 26.5373 4.11914C26.5474 4.14888 26.5589 4.17862 26.5704 4.20836C26.5818 4.2381 26.5933 4.26784 26.6035 4.29758C26.6162 4.34219 26.6276 4.38804 26.6391 4.43389C26.6505 4.47975 26.662 4.5256 26.6747 4.57021C26.6824 4.60244 26.6913 4.63466 26.7002 4.66689C26.7091 4.6991 26.718 4.73131 26.7257 4.76353C26.7338 4.80842 26.7405 4.85472 26.7473 4.90168C26.7532 4.94286 26.7592 4.98455 26.7664 5.02624C26.7817 5.10059 26.7918 5.16999 26.802 5.24434C26.8089 5.29756 26.8111 5.35301 26.8134 5.4092C26.8145 5.43674 26.8156 5.46446 26.8173 5.49218C26.819 5.51862 26.8213 5.54506 26.8235 5.57149C26.828 5.62437 26.8326 5.67724 26.8326 5.73011V5.73507V5.74498V5.7549C26.8326 7.18247 26.1961 8.46134 25.188 9.35358V9.38332C23.9711 10.5482 23.2125 12.1641 23.2125 13.9585C23.2125 15.7529 23.9711 17.3688 25.188 18.5337V18.5386C25.2542 18.5932 25.3153 18.6576 25.3764 18.722L25.3764 18.722C25.3966 18.7417 25.4173 18.7613 25.4382 18.7812C25.4807 18.8214 25.5239 18.8623 25.5648 18.9054H25.5699C26.7664 20.0901 28.4262 20.8287 30.2694 20.8287C32.1125 20.8287 33.7724 20.0901 34.9689 18.9054H34.9994C35.9108 17.924 37.2296 17.3044 38.6959 17.3044Z" fill="#F7F7F7"/>
</g>
<defs>
<clipPath id="clip0">
<rect width="196" height="27" fill="white"/>
</clipPath>
</defs>
</svg>
