<?xml version="1.0" encoding="UTF-8"?>
<svg width="18px" height="15px" viewBox="0 0 18 15" version="1.1" xmlns="http://www.w3.org/2000/svg" xmlns:xlink="http://www.w3.org/1999/xlink">
    <!-- Generator: Sketch 51.2 (57519) - http://www.bohemiancoding.com/sketch -->
    <title>cloud-computing</title>
    <desc>Created with Sketch.</desc>
    <defs></defs>
    <g id="Page-1" stroke="none" stroke-width="1" fill="none" fill-rule="evenodd" opacity="0.699999988">
        <g id="New-Workorder-Request" transform="translate(-395.000000, -826.000000)" fill="#000000" fill-rule="nonzero">
            <g id="Group" transform="translate(119.000000, 147.000000)">
                <g id="Group-7" transform="translate(81.000000, 647.000000)">
                    <g id="Group-2" transform="translate(195.000000, 32.000000)">
                        <g id="cloud-computing">
                            <path d="M14.2444561,4.98638596 C14.2069474,2.24740351 11.967193,0.0306315789 9.2194386,0.0306315789 C7.99715789,0.0306315789 6.81957895,0.475263158 5.9037193,1.28263158 C5.08631579,2.00315789 4.52715789,2.96603509 4.3057193,4.02319298 C4.28954386,4.02301754 4.27350877,4.02287719 4.25750877,4.02287719 C1.90996491,4.02287719 0,5.93280702 0,8.28038596 C0,10.6279649 1.90996491,12.5378947 4.25754386,12.5378947 L7.23098246,12.5378947 C7.44252632,12.5378947 7.61410526,12.366386 7.61410526,12.1547719 C7.61410526,11.9431579 7.44252632,11.7716491 7.23098246,11.7716491 L4.25754386,11.7716491 C2.33242105,11.7716491 0.766245614,10.2054737 0.766245614,8.28038596 C0.766245614,6.35529825 2.33242105,4.78912281 4.25754386,4.78912281 C4.36010526,4.78912281 4.46852632,4.79463158 4.58905263,4.80596491 C4.79333333,4.82508772 4.97673684,4.67978947 5.0045614,4.4762807 C5.14252632,3.46505263 5.64178947,2.53498246 6.41042105,1.85740351 C7.18624561,1.17347368 8.18382456,0.796842105 9.21940351,0.796842105 C11.568,0.796842105 13.4786667,2.70754386 13.4786667,5.05610526 C13.4786667,5.14066667 13.472386,5.22782456 13.4657544,5.32010526 L13.4629123,5.35933333 C13.4549474,5.47203509 13.4971228,5.58252632 13.5782456,5.66122807 C13.6592632,5.73992982 13.770807,5.77880702 13.8834035,5.76754386 C13.9852982,5.75726316 14.0881053,5.75210526 14.1889474,5.75210526 C15.8484912,5.75210526 17.1987018,7.1022807 17.1987018,8.76185965 C17.1987018,10.4214035 15.8485263,11.7715789 14.1889474,11.7715789 L11.0622456,11.7715789 C10.8507018,11.7715789 10.6791228,11.9430877 10.6791228,12.1547018 C10.6791228,12.3663158 10.8507018,12.5378246 11.0622456,12.5378246 L14.1889474,12.5378246 C16.2710175,12.5378246 17.9649474,10.8439649 17.9649474,8.76185965 C17.9649123,6.69845614 16.3010526,5.01617544 14.2444561,4.98638596 Z" id="Shape"></path>
                            <path d="M9.21947368,1.83129825 C7.6174386,1.83129825 6.24607018,3.02852632 6.02950877,4.61610526 C6.00091228,4.82575439 6.1477193,5.01891228 6.35733333,5.04750877 C6.37491228,5.04989474 6.39235088,5.05108772 6.40957895,5.05108772 C6.59817544,5.05108772 6.76252632,4.91178947 6.78866667,4.7197193 C6.95368421,3.50989474 7.99870175,2.59754386 9.2194386,2.59754386 C9.43105263,2.59754386 9.6025614,2.42603509 9.6025614,2.21442105 C9.60259649,2.00284211 9.43105263,1.83129825 9.21947368,1.83129825 Z" id="Shape"></path>
                            <path d="M10.9617544,9.37024561 L9.56814035,8.12533333 C9.32789474,7.91059649 8.9654386,7.91063158 8.72508772,8.12529825 L7.33147368,9.3702807 C7.17364912,9.51122807 7.16003509,9.7534386 7.30098246,9.91126316 C7.44192982,10.0690175 7.68410526,10.0827368 7.84196491,9.94175439 L8.76350877,9.11852632 L8.76350877,13.8318947 C8.76350877,14.0435088 8.93501754,14.2150175 9.14663158,14.2150175 C9.35821053,14.2150175 9.52975439,14.0435088 9.52975439,13.8318947 L9.52975439,9.11845614 L10.4513333,9.9417193 C10.524386,10.0070175 10.6155789,10.0391228 10.7064211,10.0391228 C10.8117544,10.0391228 10.9165965,9.996 10.9923158,9.91122807 C11.133193,9.75340351 11.1195439,9.51122807 10.9617544,9.37024561 Z" id="Shape"></path>
                        </g>
                    </g>
                </g>
            </g>
        </g>
    </g>
</svg>