<?xml version="1.0" encoding="UTF-8"?>
<svg width="500px" height="500px" viewBox="0 0 500 500" version="1.1" xmlns="http://www.w3.org/2000/svg" xmlns:xlink="http://www.w3.org/1999/xlink">
    <!-- Generator: Sketch 60.1 (88133) - https://sketch.com -->
    <title>vehicle delivery</title>
    <desc>Created with Sketch.</desc>
    <g id="vehicle-delivery" stroke="none" stroke-width="1" fill="none" fill-rule="evenodd">
        <g id="shipped" transform="translate(30.000000, 110.781250)" fill-rule="nonzero">
            <path d="M308.183906,6.94289062 L43.6321875,6.94289062 C39.5742188,6.94289062 36.2836719,10.2334375 36.2836719,14.2914062 L36.2836719,168.612812 L58.3292188,168.612812 C66.4460156,168.612812 73.02625,175.192187 73.02625,183.309844 C73.02625,191.426641 66.4451563,198.006875 58.3292188,198.006875 L36.2836719,198.006875 L36.2836719,220.052422 C36.2836719,224.110391 39.5742188,227.400937 43.6321875,227.400937 L315.532422,227.400937 L315.532422,14.2914062 C315.532422,10.2334375 312.241875,6.94289062 308.183906,6.94289062 Z" id="Path" fill="#E8EDFC"></path>
            <path d="M403.716328,124.521719 L315.532422,124.521719 L315.532422,227.402656 L433.110391,227.402656 L433.110391,153.915781 C433.110391,137.682187 419.949922,124.521719 403.716328,124.521719 Z" id="Path" fill="#E8EDFC"></path>
            <path d="M315.532422,146.567266 L395.143203,146.567266 C403.260859,146.567266 409.840234,153.146641 409.840234,161.264297 L409.840234,227.401797 L315.532422,227.401797 L315.532422,146.567266 L315.532422,146.567266 Z" id="Path" fill="#C8D9FC"></path>
            <path d="M374.321406,36.3378125 L315.532422,36.3378125 L315.532422,65.7327344 L396.367813,65.7327344 L396.367813,58.3842187 C396.367813,46.2077344 386.497031,36.3378125 374.321406,36.3378125 Z" id="Path" fill="#E8EDFC"></path>
            <polygon id="Path" fill="#C8D9FC" points="403.716328 124.521719 389.018437 65.7327344 315.532422 65.7327344 315.532422 124.521719"></polygon>
            <path d="M403.716328,153.915781 L433.11125,153.915781 L433.11125,183.310703 L418.414219,183.310703 C410.296562,183.310703 403.717187,176.731328 403.717187,168.613672 L403.717187,153.915781 L403.716328,153.915781 Z" id="Path" fill="#F1F4FB"></path>
            <path d="M366.972891,175.962187 C344.825078,175.962187 325.556172,188.221172 315.532422,206.312734 L315.532422,227.402656 L425.253984,227.402656 C421.63,198.409922 396.947031,175.962187 366.972891,175.962187 Z" id="Path" fill="#E8EDFC"></path>
            <path d="M409.839375,194.572812 L409.839375,227.402656 L425.253984,227.402656 C423.676172,214.779297 418.101406,203.402031 409.839375,194.572812 Z" id="Path" fill="#D1DBFD"></path>
            <circle id="Oval" fill="#E8EDFC" cx="366.972891" cy="234.751172" r="36.7434375"></circle>
            <path d="M344.927344,87.7782812 L394.530469,87.7782812 L389.019297,65.7327344 L315.533281,65.7327344 L315.533281,124.521719 L337.578828,124.521719 L337.578828,95.1267969 C337.577969,91.0688281 340.868516,87.7782812 344.927344,87.7782812 Z" id="Path" fill="#B9CFFD"></path>
            <path d="M124.467578,175.962187 C105.911094,175.962187 89.38875,184.58 78.615625,198.007734 L58.3300781,198.007734 L36.2836719,198.007734 L36.2836719,220.053281 C36.2836719,224.11125 39.5742188,227.401797 43.6321875,227.401797 L315.532422,227.401797 L315.532422,198.006875 L170.319531,198.006875 C159.546406,184.58 143.024063,175.962187 124.467578,175.962187 Z" id="Path" fill="#B9CFFD"></path>
            <circle id="Oval" fill="#E8EDFC" cx="124.467578" cy="234.751172" r="36.7434375"></circle>
            <path d="M409.198281,118.046328 L397.803828,72.469375 C400.919062,71.8076562 403.256563,69.0439062 403.256563,65.7327344 L403.256563,58.3842187 C403.256563,42.4290625 390.275703,29.4490625 374.321406,29.4490625 L322.422031,29.4490625 L322.422031,14.2914062 C322.422031,6.44015625 316.035156,0.05328125 308.183906,0.05328125 L43.6321875,0.05328125 C35.7809375,0.05328125 29.3940625,6.44015625 29.3940625,14.2914062 L29.3940625,139.21875 C29.3940625,143.023203 32.4783594,146.108359 36.2836719,146.108359 C40.0889844,146.108359 43.1732812,143.024062 43.1732812,139.21875 L43.1732812,14.2914062 C43.1732812,14.0378906 43.3786719,13.8325 43.6321875,13.8325 L308.183047,13.8325 C308.436562,13.8325 308.641953,14.0378906 308.641953,14.2914062 L308.641953,139.220469 C308.641953,143.024922 311.72625,146.110078 315.531562,146.110078 C319.336016,146.110078 322.421172,143.025781 322.421172,139.220469 L322.421172,131.410469 L403.691406,131.410469 C403.697422,131.410469 403.703438,131.412187 403.709453,131.412187 C403.715469,131.412187 403.722344,131.411328 403.728359,131.411328 C413.728906,131.417344 422.220391,137.982109 425.137109,147.027031 L403.714609,147.027031 C399.910156,147.027031 396.825,150.111328 396.825,153.916641 L396.825,168.613672 C396.825,180.516875 406.508438,190.200312 418.411641,190.200312 L426.219922,190.200312 L426.219922,220.513047 L408.205703,220.513047 C402.288047,203.426953 386.045,191.118125 366.971172,191.118125 C347.897344,191.118125 331.653438,203.426094 325.736641,220.513047 L322.419453,220.513047 L322.419453,168.613672 C322.419453,164.809219 319.335156,161.724062 315.529844,161.724062 C311.725391,161.724062 308.640234,164.808359 308.640234,168.613672 L308.640234,220.512187 L165.702109,220.512187 C159.784453,203.425234 143.541406,191.117266 124.467578,191.117266 C105.39375,191.117266 89.1498438,203.425234 83.2330469,220.512187 L43.6321875,220.512187 C43.3786719,220.512187 43.1732812,220.306797 43.1732812,220.053281 L43.1732812,204.896484 L73.0271094,204.896484 C76.8315625,204.896484 79.9167187,201.812187 79.9167187,198.006875 C79.9167187,194.202422 76.8324219,191.117266 73.0271094,191.117266 L6.88960937,191.117266 C3.08515625,191.117266 0,194.201562 0,198.006875 C0,201.811328 3.08429687,204.896484 6.88960937,204.896484 L29.3949219,204.896484 L29.3949219,220.053281 C29.3949219,227.904531 35.7817969,234.291406 43.6330469,234.291406 L80.8474219,234.291406 C80.8457031,234.444375 80.8353906,234.596484 80.8353906,234.750312 C80.8353906,258.809375 100.409375,278.3825 124.467578,278.3825 C148.525781,278.3825 168.099766,258.809375 168.099766,234.750312 C168.099766,234.595625 168.089453,234.444375 168.087734,234.291406 L323.351016,234.291406 C323.349297,234.444375 323.338984,234.596484 323.338984,234.750312 C323.338984,258.809375 342.912969,278.3825 366.971172,278.3825 C391.029375,278.3825 410.603359,258.809375 410.603359,234.750312 C410.603359,234.595625 410.593047,234.444375 410.591328,234.291406 L433.109531,234.291406 C436.913984,234.291406 439.999141,231.207109 439.999141,227.401797 L439.999141,153.914922 C439.999141,135.772656 426.613516,120.6975 409.198281,118.046328 Z M322.422031,72.6214844 L383.639609,72.6214844 L394.892266,117.632109 L322.422031,117.632109 L322.422031,72.6214844 Z M374.321406,43.2274219 C382.678828,43.2274219 389.478203,50.0267969 389.478203,58.3842187 L389.478203,58.843125 L322.422031,58.843125 L322.422031,43.2274219 L374.321406,43.2274219 Z M124.467578,264.605 C108.00625,264.605 94.61375,251.213359 94.61375,234.751172 C94.61375,218.288984 108.00625,204.897344 124.467578,204.897344 C140.928906,204.897344 154.321406,218.288984 154.321406,234.751172 C154.321406,251.213359 140.928906,264.605 124.467578,264.605 Z M366.972891,264.605 C350.511562,264.605 337.119062,251.213359 337.119062,234.751172 C337.119062,218.288984 350.511562,204.897344 366.972891,204.897344 C383.434219,204.897344 396.826719,218.288984 396.826719,234.751172 C396.826719,251.213359 383.434219,264.605 366.972891,264.605 Z M418.413359,176.421094 C414.107891,176.421094 410.605078,172.918281 410.605078,168.612812 L410.605078,160.804531 L426.220781,160.804531 L426.220781,176.420234 L418.413359,176.420234 L418.413359,176.421094 Z" id="Shape" fill="#428DFF"></path>
            <path d="M124.467578,220.513047 C116.616328,220.513047 110.229453,226.899922 110.229453,234.751172 C110.229453,242.602422 116.616328,248.989297 124.467578,248.989297 C132.318828,248.989297 138.705703,242.602422 138.705703,234.751172 C138.705703,226.899922 132.318828,220.513047 124.467578,220.513047 Z" id="Path" fill="#428DFF"></path>
            <path d="M366.972891,220.513047 C359.121641,220.513047 352.734766,226.899922 352.734766,234.751172 C352.734766,242.602422 359.121641,248.989297 366.972891,248.989297 C374.824141,248.989297 381.211016,242.602422 381.211016,234.751172 C381.211016,226.899922 374.824141,220.513047 366.972891,220.513047 Z" id="Path" fill="#428DFF"></path>
            <path d="M176.367813,198.007734 C176.367813,201.812187 179.452109,204.897344 183.257422,204.897344 L286.1375,204.897344 C289.941953,204.897344 293.027109,201.813047 293.027109,198.007734 C293.027109,194.203281 289.942812,191.118125 286.1375,191.118125 L183.256563,191.118125 C179.452109,191.118125 176.367813,194.203281 176.367813,198.007734 Z" id="Path" fill="#428DFF"></path>
            <path d="M21.5866406,175.502422 L109.770547,175.502422 C113.575,175.502422 116.660156,172.418125 116.660156,168.612812 C116.660156,164.808359 113.575859,161.723203 109.770547,161.723203 L21.5866406,161.723203 C17.7821875,161.723203 14.6970313,164.8075 14.6970313,168.612812 C14.6970313,172.418125 17.7821875,175.502422 21.5866406,175.502422 Z" id="Path" fill="#428DFF"></path>
            <path d="M229.826094,68.2094531 L168.559531,129.475156 L136.687891,97.6035156 C133.997188,94.9128125 129.635,94.9128125 126.945156,97.6035156 C124.254453,100.294219 124.254453,104.655547 126.945156,107.34625 L163.688594,144.089688 C165.033516,145.435469 166.796953,146.1075 168.559531,146.1075 C170.322109,146.1075 172.085547,145.435469 173.430469,144.089688 L239.567969,77.9521875 C242.258672,75.2614844 242.258672,70.9001563 239.567969,68.2094531 C236.878984,65.5196094 232.515938,65.5196094 229.826094,68.2094531 Z" id="Path" fill="#428DFF"></path>
        </g>
    </g>
</svg>