<?xml version="1.0" encoding="UTF-8"?>
<svg width="500px" height="500px" viewBox="0 0 500 500" version="1.1" xmlns="http://www.w3.org/2000/svg" xmlns:xlink="http://www.w3.org/1999/xlink">
    <!-- Generator: Sketch 60.1 (88133) - https://sketch.com -->
    <title>vendor</title>
    <desc>Created with Sketch.</desc>
    <g id="vendor" stroke="none" stroke-width="1" fill="none" fill-rule="evenodd">
        <g id="returning-visitor-copy" transform="translate(60.000000, 59.525000)" fill-rule="nonzero">
            <path d="M360.703125,6.30859375 L22.265625,6.30859375 L22.265625,303.183594 L95.9567257,303.183594 C99.7691343,319.9263 108.234711,335.251312 120.376434,347.393036 L120.556183,347.572785 C156.363831,383.38623 214.425506,383.38623 250.236053,347.572785 L294.625244,303.183594 L360.703125,303.183594 L360.703125,6.30859375 Z" id="Path" fill="#E8EDFC"></path>
            <polygon id="Path" fill="#E8EDFC" points="24.9375 6.30859375 373.1125 6.30859375 373.1125 53.8085937 24.9375 53.8085937"></polygon>
            <path d="M172.187498,225.996094 L133.683624,235.621338 C128.395539,236.943359 124.684601,241.695099 124.687498,247.145539 L124.687498,362.926789 C160.448761,382.754212 205.020599,376.494904 233.93692,347.584381 L255.312502,326.208802 L255.312502,247.145539 C255.315399,241.695099 251.604461,236.943359 246.316376,235.621338 L207.8125,225.996094 L172.187498,225.996094 Z" id="Path" fill="#CAD9FC"></path>
            <path d="M154.375,160.683594 C157.865601,146.726989 170.40451,136.933594 184.793091,136.933594 L201.875,136.933594 C208.432923,136.933594 213.75,142.250671 213.75,148.808594 L213.75,160.683594 L154.375,160.683594 Z" id="Path" fill="#CAD9FC"></path>
            <path d="M195.9375,285.371094 L184.0625,285.371094 L184.0625,273.496094 L195.9375,273.496094 L195.9375,285.371094 Z M195.9375,261.621094 L184.0625,261.621094 L184.0625,249.746094 L195.9375,249.746094 L195.9375,261.621094 Z" id="Shape" fill="#000000"></path>
            <polygon id="Path" fill="#000000" points="184.0625 297.246094 195.9375 297.246094 195.9375 368.496094 184.0625 368.496094"></polygon>
            <g id="Group" transform="translate(23.750000, 23.750000)">
                <path d="M98,0.37109375 L329.5,0.37109375 C331.156854,0.37109375 332.5,1.7142395 332.5,3.37109375 L332.5,9.24609375 C332.5,10.902948 331.156854,12.2460938 329.5,12.2460938 L98,12.2460938 C96.3431458,12.2460938 95,10.902948 95,9.24609375 L95,3.37109375 C95,1.7142395 96.3431458,0.37109375 98,0.37109375 Z" id="Path" fill="#428DFF"></path>
                <path d="M3,0.37109375 L8.875,0.37109375 C10.5318542,0.37109375 11.875,1.7142395 11.875,3.37109375 L11.875,9.24609375 C11.875,10.902948 10.5318542,12.2460938 8.875,12.2460938 L3,12.2460938 C1.34314575,12.2460938 6.46995335e-16,10.902948 0,9.24609375 L0,3.37109375 C2.41183085e-16,1.7142395 1.34314575,0.37109375 3,0.37109375 Z" id="Path" fill="#428DFF"></path>
                <path d="M26.75,0.37109375 L32.625,0.37109375 C34.2818542,0.37109375 35.625,1.7142395 35.625,3.37109375 L35.625,9.24609375 C35.625,10.902948 34.2818542,12.2460937 32.625,12.2460938 L26.75,12.2460938 C25.0931458,12.2460937 23.75,10.902948 23.75,9.24609375 L23.75,3.37109375 C23.75,1.7142395 25.0931458,0.37109375 26.75,0.37109375 Z" id="Path" fill="#428DFF"></path>
                <path d="M50.5,0.37109375 L56.375,0.37109375 C58.0318542,0.37109375 59.375,1.7142395 59.375,3.37109375 L59.375,9.24609375 C59.375,10.902948 58.0318542,12.2460938 56.375,12.2460938 L50.5,12.2460938 C48.8431458,12.2460938 47.5,10.902948 47.5,9.24609375 L47.5,3.37109375 C47.5,1.7142395 48.8431458,0.37109375 50.5,0.37109375 Z" id="Path" fill="#428DFF"></path>
                <path d="M172.1875,261.621094 L160.3125,261.621094 L160.3125,249.746094 L172.1875,249.746094 L172.1875,261.621094 Z M172.1875,237.871094 L160.3125,237.871094 L160.3125,225.996094 L172.1875,225.996094 L172.1875,237.871094 Z" id="Shape" fill="#FFFFFF"></path>
                <polygon id="Path" fill="#FFFFFF" points="160.3125 273.496094 172.1875 273.496094 172.1875 344.746094 160.3125 344.746094"></polygon>
            </g>
            <path d="M0,18.3710938 L0,291.121094 C-2.61330755e-14,301.062219 8.0588745,309.121094 18,309.121094 L75.050812,309.121094 L75.050812,309.121094 C84.4528195,342.481842 110.826569,368.359833 144.358368,377.132721 C177.890167,385.905609 213.558655,376.257171 238.09433,351.776581 L282.03125,309.121094 L362,309.121094 C371.941125,309.121094 380,301.062219 380,291.121094 L380,18.3710938 C380,8.42996825 371.941125,0.37109375 362,0.37109375 L18,0.37109375 C8.0588745,0.37109375 -1.21743675e-15,8.42996825 0,18.3710938 Z M142.5,364.138641 C138.423767,362.822418 134.454803,361.198883 130.625,359.282532 L130.625,291.308594 L142.5,291.308594 L142.5,364.138641 Z M249.375,323.709717 L237.5,335.584717 L237.5,291.308594 L249.375,291.308594 L249.375,323.709717 Z M249.375003,279.433594 L237.5,279.433594 L237.5,261.621094 L225.624997,261.621094 L225.624997,347.068329 C206.142578,364.205322 179.934082,371.572113 154.375,367.095794 L154.375,261.621094 L142.5,261.621094 L142.5,279.433594 L130.624997,279.433594 L130.624997,247.145539 C130.622101,244.420319 132.474671,242.042999 135.118714,241.379089 L168.114166,233.122253 C170.917663,238.465423 177.298737,243.808594 190,243.808594 C202.701263,243.808594 209.082337,238.465423 211.885834,233.122253 L244.875488,241.367493 C247.519531,242.028503 249.377899,244.405823 249.375003,247.133942 L249.375003,279.433594 Z M195.908509,202.246094 L184.091491,202.246094 L172.216491,193.180389 L172.216491,166.621094 L195.966491,166.621094 L195.966491,154.746094 L163.28125,154.746094 C167.92862,147.347412 176.060791,142.859497 184.79889,142.871071 L201.875,142.871071 C205.153961,142.871071 207.8125,145.529632 207.8125,148.808594 L207.8125,193.180389 L195.908509,202.246094 Z M201.875,212.630921 L201.875,225.865631 C201.790924,226.947021 200.837097,231.933594 190,231.933594 C179.07013,231.933594 178.191681,226.84555 178.125,225.996094 L178.125,212.630921 L180.07904,214.121094 L199.92096,214.121094 L201.875,212.630921 Z M353.125,297.246094 L292.630615,297.246094 L292.630615,297.246094 L332.5,257.376709 L332.5,283.371094 C332.5,284.475663 333.395431,285.371094 334.5,285.371094 L342.375,285.371094 C343.479569,285.371094 344.375,284.475663 344.375,283.371094 L344.375,238.871094 C344.375,238.318809 343.927285,237.871094 343.375,237.871094 L335.213623,237.871094 L335.213623,237.871094 L261.25,311.834717 L261.25,247.116546 C261.252899,238.940887 255.689392,231.814728 247.760163,229.831696 L213.75,221.36612 L213.75,203.582611 L219.6875,199.057007 L219.6875,148.808594 C219.6875,138.97171 211.711883,130.996094 201.875,130.996094 L184.793091,130.996094 C167.673493,130.975799 152.745667,142.633362 148.614349,159.245605 L146.770477,166.621094 L160.3125,166.621094 L160.3125,199.057007 L166.25,203.582611 L166.25,221.36612 L132.234039,229.860687 C124.307709,231.846618 118.747101,238.972778 118.75,247.145539 L118.75,352.02591 C115.018768,349.364471 111.504974,346.413117 108.240509,343.195038 C74.8072817,309.683532 74.8072817,255.431366 108.240509,221.916961 L99.8445131,213.526764 C77.9209898,235.487976 67.7767941,266.581574 72.5314327,297.246094 L26.875,297.246094 C18.5907288,297.246094 11.875,290.530365 11.875,282.246094 L11.875,70.7460938 C11.875,64.6709615 16.7998678,59.7460938 22.875,59.7460938 L357.125,59.7460938 C363.200132,59.7460938 368.125,64.6709615 368.125,70.7460938 L368.125,282.246094 C368.125,290.530365 361.409271,297.246094 353.125,297.246094 Z M355.125,47.8710938 L24.875,47.8710938 C17.6952983,47.8710938 11.875,42.0507955 11.875,34.8710938 L11.875,25.2460938 C11.875,18.066392 17.6952983,12.2460938 24.875,12.2460938 L355.125,12.2460938 C362.304702,12.2460937 368.125,18.066392 368.125,25.2460938 L368.125,34.8710938 C368.125,42.0507955 362.304702,47.8710938 355.125,47.8710938 Z" id="Shape" fill="#428DFF"></path>
            <path d="M150.295868,108.611603 C183.905944,75.4740904 237.958069,75.668335 271.333313,109.043579 C304.708557,142.418823 304.897003,196.470947 271.759491,230.081024 L280.155487,238.465423 C317.395325,200.132599 316.951752,139.000702 279.161071,101.210022 C241.370392,63.4193422 180.238495,62.9757687 141.90567,100.215607 L47.5,194.615479 L47.5,169.621094 C47.5,167.96424 46.1568542,166.621094 44.5,166.621094 L38.625,166.621094 C36.9681458,166.621094 35.625,167.96424 35.625,169.621094 L35.625,211.121094 C35.625,212.777948 36.9681458,214.121094 38.625,214.121094 L44.786377,214.121094 L44.786377,214.121094 L150.295868,108.611603 Z" id="Path" fill="#428DFF"></path>
        </g>
    </g>
</svg>