<svg width="18" height="18" viewBox="0 0 18 18" xmlns="http://www.w3.org/2000/svg">
  <path d="M13.003 3l.001 2.995L15 6l2.25 3v3.75h-1.5A2.247 2.247 0 0113.5 15a2.247 2.247 0 01-2.245-2.096l-.005-.154h-4.5A2.247 2.247 0 014.5 15a2.247 2.247 0 01-2.245-2.096l-.005-.154H.75V4.5c0-.776.598-1.42 1.356-1.493L2.25 3h10.753zM4.5 11.625c-.623 0-1.125.502-1.125 1.125s.502 1.125 1.125 1.125c.622 0 1.125-.502 1.125-1.125s-.503-1.125-1.125-1.125zm9 0c-.623 0-1.125.502-1.125 1.125s.502 1.125 1.125 1.125 1.125-.502 1.125-1.125-.502-1.125-1.125-1.125zM11 9H6v1h5V9zm3.682-2H13v2h3l-1.318-2zM11 7H5v1h6V7zm0-2H2v1h9V5z" fill-rule="evenodd"/>
</svg>
