<svg width="18" height="18" viewBox="0 0 18 18" xmlns="http://www.w3.org/2000/svg">
  <path d="M15.545 2c.8 0 1.455.7 1.455 1.556v10.888C17 15.3 16.345 16 15.545 16H2.455C1.655 16 1 15.3 1 14.444V3.556C1 2.7 1.655 2 2.455 2zm-.552 1H3.007C2.45 3 2 3.449 2 4.002v9.996C2 14.544 2.45 15 3.007 15h5.968l.129-.001 5.89.001C15.55 15 16 14.551 16 13.998V4.002A1.01 1.01 0 0014.993 3zM8 4l.002 3.003-1.995.001L6 8h3V4h4.998C14.55 4 15 4.456 15 4.995V8h-2V6h-1v5h1V8.996h2v4.009l-.007.116a1.005 1.005 0 01-.995.879l-4.002-.001L10 11H7l.02 1.008 1.981.012-.005 1.02-.011.96H4.002l-.116-.007A1.006 1.006 0 013 13.005V7.996h2V7H3V4.995l.007-.116c.059-.495.488-.879.995-.879H8z" fill-rule="evenodd"/>
</svg>
