<svg viewBox="0 0 50 50" xmlns="http://www.w3.org/2000/svg">
  <path d="M21.37 22.29c.381.149.686.443.85.814l.054.142 6.828 20.824 3.491-9.298 15.896-.121a1.5 1.5 0 01.167 2.991l-.144.008-13.837.106-4.22 11.242c-.146.39-.443.702-.82.869l-.144.056a1.545 1.545 0 01-1.9-.855l-.05-.132-6.857-20.913-3.816 9.741H1.5a1.5 1.5 0 01-.144-2.993l.144-.007h13.324l4.545-11.6a1.545 1.545 0 012.002-.875zM32.905 0a2.5 2.5 0 012.493 2.335l.006.165-.001 3.999h4.745a2.5 2.5 0 012.494 2.336l.005.164-.001 4.499h3.947a2.498 2.498 0 012.478 2.816l-.544 3.965c-.6 4.266-1.339 9.318-1.418 9.92a1.5 1.5 0 11-2.973-.392l1.6-11.215.285-2.093H4.079l.67 4.453 1.382 8.923a1.5 1.5 0 11-2.968.424l-1.544-9.981a465.66 465.66 0 01-.594-3.998 2.5 2.5 0 012.313-2.816l.165-.005 3.991-.001V8.999A2.5 2.5 0 019.83 6.505l.164-.006h3.498v-4A2.5 2.5 0 0115.826.006L15.99 0h16.915zm6.743 9.5H10.493l-.001 3.998h29.156V9.499zM32.404 3H16.49l-.001 3.499h15.916v-3.5z" fill="#324055" fill-rule="nonzero"/>
</svg>
