<svg viewBox="0 0 50 50" xmlns="http://www.w3.org/2000/svg">
  <path d="M41.06 27.613c1.015 0 1.85.773 1.928 1.76l.005.15v1.243c0 .29.302.485.577.388l.074-.033 1.097-.622a1.948 1.948 0 012.549.565l.085.132 2.363 4.02c.512.87.249 1.971-.574 2.53l-.135.085-1.097.622a.401.401 0 00-.07.659l.07.049 1.097.622c.882.5 1.214 1.583.784 2.475l-.075.14-2.363 4.02a1.946 1.946 0 01-2.494.769l-.14-.072-1.097-.622c-.267-.152-.591.007-.644.278l-.007.076v1.244a1.919 1.919 0 01-1.782 1.903l-.15.006h-4.728a1.924 1.924 0 01-1.927-1.76l-.006-.15v-1.243c0-.29-.302-.485-.576-.388l-.074.034-1.097.622a1.948 1.948 0 01-2.55-.566l-.084-.131-2.364-4.02a1.895 1.895 0 01.575-2.531l.135-.084 1.097-.622a.401.401 0 00.07-.66l-.07-.048-1.097-.622a1.897 1.897 0 01-.784-2.476l.074-.139 2.364-4.02a1.946 1.946 0 012.494-.77l.14.073 1.097.622c.267.151.59-.008.643-.278l.007-.077v-1.243a1.92 1.92 0 011.782-1.904l.151-.006h4.727zm-2.363-6.572c.742 0 1.344.596 1.344 1.332 0 .692-.533 1.26-1.215 1.325l-.13.006H2.939a.249.249 0 00-.243.19l-.006.057v4.402c0 .117.082.215.192.24l.057.007h20.165c.743 0 1.344.596 1.344 1.331 0 .692-.533 1.26-1.215 1.325l-.129.006H7.54v2.92c0 7.078 5.445 12.662 12.436 12.662.895 0 1.778-.09 2.64-.27.726-.15 1.439.31 1.591 1.03a1.332 1.332 0 01-1.04 1.577c-1.042.216-2.11.326-3.191.326-8.39 0-14.958-6.628-15.121-15.006l-.003-.32-.001-2.919H2.938c-1.565 0-2.844-1.21-2.933-2.738L0 28.354V23.95c0-1.55 1.223-2.816 2.765-2.905l.173-.005h35.759zm1.607 9.235h-3.216v.49c0 2.255-2.353 3.699-4.37 2.818l-.155-.073-.15-.08-.448-.254-1.6 2.72.432.245c1.968 1.115 2.08 3.819.333 5.113l-.164.114-.169.103-.432.244 1.6 2.72.449-.254c1.976-1.12 4.425.16 4.657 2.329l.013.168.005.168v.49h3.215v-.49c0-2.254 2.354-3.698 4.372-2.817l.154.072.15.08.448.254 1.6-2.72-.432-.244c-1.968-1.116-2.08-3.82-.333-5.114l.164-.114.17-.102.43-.246-1.6-2.72-.447.256c-1.977 1.12-4.426-.16-4.658-2.33l-.013-.168-.004-.168-.001-.49zm-1.607 4.198c2.413 0 4.375 1.942 4.375 4.333 0 2.39-1.962 4.333-4.375 4.333-2.414 0-4.376-1.943-4.376-4.333s1.962-4.333 4.376-4.333zm0 2.663c-.929 0-1.687.75-1.687 1.67 0 .92.758 1.67 1.687 1.67.928 0 1.686-.75 1.686-1.67 0-.92-.758-1.67-1.686-1.67zM20.174 0c2.058 0 3.81 1.386 4.093 3.25C31.5 5.17 36.728 11.56 37.039 19.068l.012.442.003 1.519h-2.69v-1.253c0-4.05-1.695-7.758-4.462-10.403v4.899c0 .735-.602 1.331-1.345 1.331A1.34 1.34 0 0127.22 14.4l-.006-.128V7.34a14.557 14.557 0 00-2.906-1.304v4.271l-.007.128a1.34 1.34 0 01-1.338 1.204 1.338 1.338 0 01-1.344-1.332V3.78l-.007-.108c-.07-.536-.658-1.01-1.437-1.01-.831 0-1.444.539-1.444 1.118v6.528l-.006.128a1.34 1.34 0 01-1.339 1.204 1.338 1.338 0 01-1.344-1.332l-.001-4.503a14.557 14.557 0 00-2.869 1.082v7.385c0 .735-.602 1.331-1.344 1.331a1.34 1.34 0 01-1.339-1.203l-.006-.128V8.636c-3.168 2.597-5.194 6.489-5.292 10.81l-.005.325.004 1.258H2.5v-1.254C2.496 11.646 8.257 4.725 16.117 3.05 16.491 1.287 18.19 0 20.174 0z" fill="#324055" fill-rule="nonzero"/>
</svg>
