<svg viewBox="0 0 50 50" xmlns="http://www.w3.org/2000/svg">
  <path d="M3.74 19.437l.126.065 2.482 1.437c3.595 2.083 3.663 7.24.2 9.436l-.2.121-2.352 1.362 5.201 9.04 2.37-1.373c3.59-2.08 8.068.441 8.22 4.564l.003.215v2.726h10.42v-2.726c0-4.175 4.415-6.806 8.037-4.882l.187.103 2.368 1.372 5.201-9.039-2.351-1.362c-3.595-2.082-3.663-7.239-.2-9.435l.2-.122 2.482-1.437a1.46 1.46 0 012.005.55c.38.67.187 1.513-.424 1.95l-.12.077-2.482 1.438c-1.64.95-1.691 3.27-.154 4.306l.154.096 2.483 1.438a2.832 2.832 0 011.11 3.702l-.084.157-5.348 9.293a2.79 2.79 0 01-3.664 1.115l-.155-.084-2.482-1.437c-1.656-.96-3.707.177-3.82 2.04l-.005.16v2.876a2.812 2.812 0 01-2.636 2.816l-.165.005H19.652a2.81 2.81 0 01-2.796-2.655l-.005-.166v-2.875c0-1.904-2.006-3.119-3.68-2.278l-.144.077-2.482 1.437a2.79 2.79 0 01-3.726-.88l-.093-.15-5.348-9.294c-.748-1.3-.35-2.949.876-3.766l.151-.093 2.482-1.438c1.64-.95 1.691-3.27.154-4.306l-.154-.096-2.482-1.438a1.494 1.494 0 01-.544-2.027 1.462 1.462 0 011.879-.615zm16.74 2.106c.599.553.64 1.493.092 2.098a6.156 6.156 0 00-1.613 4.148c0 3.462 2.91 6.302 6.51 6.302 3.6 0 6.51-2.84 6.51-6.302a6.153 6.153 0 00-1.577-4.108 1.496 1.496 0 01.11-2.097 1.458 1.458 0 012.075.11 9.14 9.14 0 012.331 6.095c0 5.126-4.248 9.273-9.448 9.273s-9.45-4.147-9.45-9.273c0-2.298.86-4.469 2.384-6.153a1.458 1.458 0 012.076-.093zM44.693 2.778l.93.717-.066 1.171c-.281 5.072-2.54 8.798-6.664 10.9-3.87 1.971-7.93 1.756-11.933-.582v13.048c0 .82-.659 1.485-1.47 1.485a1.476 1.476 0 01-1.463-1.342l-.007-.143V15.008c-3.99 2.315-8.036 2.522-11.892.557-4.124-2.1-6.383-5.827-6.665-10.899l-.065-1.17.93-.718c4.074-3.14 8.526-3.604 12.977-1.336 3.31 1.687 5.404 4.254 6.205 7.565.801-3.31 2.895-5.878 6.205-7.565C36.166-.826 40.62-.363 44.693 2.778zm-26.736 1.31c-3.24-1.65-6.302-1.444-9.305.638l-.22.157.029.315c.365 3.546 1.937 6.041 4.732 7.571l.283.15c2.97 1.513 6 1.35 9.183-.53l.275-.166-.003-.268c-.09-3.518-1.636-6.057-4.684-7.713zm15.107 0l-.29.154c-3.049 1.656-4.594 4.195-4.684 7.713l-.004.268.276.166c3.181 1.88 6.212 2.043 9.182.53l.284-.15c2.795-1.53 4.366-4.025 4.732-7.57l.028-.316-.22-.157c-3.002-2.082-6.065-2.287-9.304-.637z" fill="#324056" fill-rule="nonzero"/>
</svg>
