<svg viewBox="0 0 50 50" xmlns="http://www.w3.org/2000/svg">
  <path d="M24.407 0c7.662 0 11.735 4.208 11.733 12.172-.623 9.952-4.12 15.46-10.483 15.868a1.47 1.47 0 01-.52.149l-.144.007H12.27c-5.03 0-9.126 4.016-9.268 9.025l-.004.27v7.999c0 .781.595 1.423 1.356 1.496l.144.007h15.12c.829 0 1.5.673 1.5 1.504 0 .781-.594 1.423-1.355 1.496L19.62 50H4.499a4.504 4.504 0 01-4.494-4.298L0 45.49v-8c0-6.692 5.331-12.137 11.969-12.298l.302-.003h4.93c-2.732-2.623-4.302-7.006-4.702-13.011l-.003-.125C12.626 4.193 16.754 0 24.406 0zm10.939 25.908a1.798 1.798 0 013.227 0l3.055 6.205 6.831.996c.934.136 1.596.969 1.537 1.897l-.015.147a1.806 1.806 0 01-.525 1.033l-4.944 4.83 1.168 6.82a1.804 1.804 0 01-1.325 2.053l-.144.03c-.39.068-.792.004-1.142-.18l-6.11-3.221-6.11 3.22a1.797 1.797 0 01-2.352-.622l-.078-.135a1.808 1.808 0 01-.18-1.144l1.166-6.821-4.943-4.83a1.808 1.808 0 01-.141-2.429l.109-.122a1.798 1.798 0 011.03-.526l6.83-.997zm1.613 3.515l-2.677 5.439-5.986.87 4.332 4.234-1.023 5.976 5.354-2.82 5.354 2.82-1.022-5.976 4.331-4.233-5.986-.871-2.677-5.439zM15.754 13.822l-.08.132c.863 7.194 3.674 10.728 8.455 11.076l.262.015c4.913.236 7.78-3.31 8.607-11.213-1.964-.264-4.737-1.167-8.449-2.697-3.855-1.589-6.64-.755-8.795 2.687zm8.653-10.815c-4.944 0-7.724 1.942-8.605 6.121l-.026.13c2.68-2.171 6.045-2.498 9.914-.904 3.348 1.38 5.863 2.196 7.412 2.461-.361-5.351-3.13-7.808-8.695-7.808z" fill="#324055" fill-rule="nonzero"/>
</svg>
