<?xml version="1.0" encoding="UTF-8"?>
<svg width="54px" height="122px" viewBox="0 0 54 122" version="1.1" xmlns="http://www.w3.org/2000/svg" xmlns:xlink="http://www.w3.org/1999/xlink">
    <title>Icon/Meeting room Copy</title>
    <g id="Symbols" stroke="none" stroke-width="1" fill="none" fill-rule="evenodd">
        <g id="Action-cards/1" transform="translate(-269.000000, -31.000000)" fill="#F2F2F2" fill-rule="nonzero">
            <g id="Icon/Meeting-room-Copy" transform="translate(251.000000, 0.000000)">
                <g transform="translate(16.000000, 29.000000)">
                    <g id="Meeting-room" transform="translate(0.000000, 0.000000)">
                        <circle id="Oval" cx="38.128125" cy="67.003125" r="5.2696875"></circle>
                        <rect id="Rectangle" fill-opacity="0" x="0" y="0" width="126" height="126"></rect>
                        <path d="M110.25,110.25 L110.25,22.4240625 C110.25,16.051875 105.242812,10.8675 99.09375,10.8675 L90.3328125,10.8675 C87.9530647,5.88998325 82.9542022,2.69478157 77.4375,2.625 L30.1875,2.625 C22.2271875,2.625 15.75,9.3515625 15.75,17.61375 L15.75,110.25 L9.1875,110.25 C5.56313133,110.25 2.625,113.188131 2.625,116.8125 L2.625,116.8125 C2.625,120.436869 5.56313133,123.375 9.1875,123.375 L116.8125,123.375 C120.436869,123.375 123.375,120.436869 123.375,116.8125 L123.375,116.8125 C123.375,113.188131 120.436869,110.25 116.8125,110.25 L110.25,110.25 Z M91.875,109.784062 L91.875,24.36 L97.125,24.36 L97.125,109.784062 L91.875,109.784062 Z M78.75,109.784063 L28.8745268,109.784063 L28.8745268,17.56125 C28.8556143,16.8062973 29.4341213,16.1699396 30.1875,16.1175 L77.371875,16.1175 C77.7543729,16.1293432 78.1160081,16.2946333 78.3752653,16.5761126 C78.6345225,16.8575918 78.7695819,17.2315701 78.75,17.61375 L78.75,109.784063 Z" id="Shape"></path>
                    </g>
                    <rect id="Rectangle" opacity="0" x="7.10542736e-15" y="7.10542736e-15" width="126" height="126"></rect>
                </g>
            </g>
        </g>
    </g>
</svg>