<?xml version="1.0" encoding="UTF-8"?>
<svg width="66px" height="112px" viewBox="0 0 66 112" version="1.1" xmlns="http://www.w3.org/2000/svg" xmlns:xlink="http://www.w3.org/1999/xlink">
    <title>Icon/Town-hall </title>
    <g id="Symbols" stroke="none" stroke-width="1" fill="none" fill-rule="evenodd">
        <g id="Action-cards/-parking" transform="translate(-257.000000, -42.000000)">
            <g id="Deliveries-Copy" transform="translate(250.000000, 0.000000)">
                <g id="Icon/Town-hall-" transform="translate(2.000000, 37.000000)">
                    <path d="M97.4602083,116.897604 L24.2030208,116.897604 C13.6932292,116.897604 5.14052083,108.344896 5.14052083,97.8351042 L5.14052083,24.2983333 C5.14052083,13.7885417 13.6932292,5.23583333 24.2030208,5.23583333 L97.4665625,5.23583333 C107.976354,5.23583333 116.529063,13.7885417 116.529063,24.2983333 L116.529063,97.8351042 C116.529063,108.344896 107.976354,116.897604 97.4665625,116.897604 L97.4602083,116.897604 Z M24.2030208,17.9441667 C20.701875,17.9441667 17.8488542,20.7971875 17.8488542,24.2983333 L17.8488542,97.8351042 C17.8488542,101.33625 20.701875,104.189271 24.2030208,104.189271 L97.4665625,104.189271 C100.967708,104.189271 103.820729,101.33625 103.820729,97.8351042 L103.820729,24.2983333 C103.820729,20.7971875 100.967708,17.9441667 97.4665625,17.9441667 L24.2030208,17.9441667 Z" id="Shape" fill="#F2F2F2" fill-rule="nonzero"></path>
                    <path d="M35.5833333,90.699375 L35.5833333,33.6770833 C35.5833333,31.9233333 37.0066667,30.5 38.7604167,30.5 L65.1746875,30.5 C78.9251042,30.5 86.4166667,39.8088542 86.4166667,50.9286458 C86.4166667,62.0484375 78.8297917,71.3572917 65.1746875,71.3572917 L49.0541667,71.3572917 L49.0541667,90.699375 C49.0541667,92.453125 47.6308333,93.8764583 45.8770833,93.8764583 L38.7667708,93.8764583 C37.0130208,93.8764583 35.5896875,92.453125 35.5896875,90.699375 L35.5833333,90.699375 Z M72.66625,50.9286458 C72.66625,45.6102083 68.6821875,42.3759375 63.3701042,42.3759375 L49.0478125,42.3759375 L49.0478125,59.4813542 L63.3701042,59.4813542 C68.6821875,59.4813542 72.66625,56.158125 72.66625,50.9286458 L72.66625,50.9286458 Z" id="Shape" fill="#F2F2F2" fill-rule="nonzero"></path>
                    <rect id="Rectangle" x="0" y="0" width="122" height="122"></rect>
                </g>
            </g>
        </g>
    </g>
</svg>