<svg width="16" height="16" viewBox="0 0 16 16" xmlns="http://www.w3.org/2000/svg">
    <g fill="none" fill-rule="evenodd">
        <path d="M0 0h16v16H0z"/>
        <path d="M8 15.274A7.274 7.274 0 1 1 15.274 8 7.283 7.283 0 0 1 8 15.274zM8 2.393A5.608 5.608 0 1 0 13.607 8 5.614 5.614 0 0 0 8 2.393z" fill="#949494" fill-rule="nonzero"/>
        <path d="M10.215 10.75a.825.825 0 0 1-.535-.195l-1.833-1.54a1.333 1.333 0 0 1-.477-1.022V4.118a.833.833 0 0 1 1.667 0v3.715l1.713 1.441a.833.833 0 0 1-.535 1.476z" fill="#949494" fill-rule="nonzero"/>
    </g>
</svg>
