<?xml version="1.0" encoding="UTF-8"?>
<svg width="200px" height="135px" viewBox="0 0 200 135" version="1.1" xmlns="http://www.w3.org/2000/svg" xmlns:xlink="http://www.w3.org/1999/xlink">
    <title>Group 3</title>
    <g id="Page-1" stroke="none" stroke-width="1" fill="none" fill-rule="evenodd">
        <g id="Group-3" transform="translate(0.000027, 0.000000)">
            <g id="group-30-copy" transform="translate(0.000000, 6.000000)" fill-rule="nonzero">
                <path d="M94.6659727,4.528 C110.573973,7.186 120.984973,16.296 135.741973,20.973 C153.235973,26.517 177.152973,24.471 189.069973,34.448 C201.194973,44.6 201.560973,59.449 196.524973,71.862 C191.707973,83.738 178.127973,93.57 162.330973,100.356 C148.566973,106.268 129.968973,102.61 114.864973,106.937 C96.2059727,112.283 84.9189727,130.424 64.7819727,128.302 C45.4519727,126.264 42.4969727,108.379 31.0169727,98.101 C20.7639727,88.921 3.47697273,82.316 0.901972732,71.108 C-1.67402727,59.89 11.7339727,50.262 17.5739727,39.57 C24.1069727,27.607 21.2319727,11.811 37.2679727,4.522 C53.2529727,-2.744 75.7559727,1.369 94.6659727,4.528 Z" id="Path" fill="#FAFAFA"></path>
                <g id="Group">
                    <g transform="translate(11.998973, 17.000000)">
                        <polygon id="Path" fill="#E4E4EF" points="29.978 105.223 0 92.165 13.298 62.73 43.276 75.788"></polygon>
                        <path d="M158.833,86.945 L115.014,50.782 C115.014,50.782 98.052,77.276 115.014,92.166 C136.217,110.731 158.834,86.945 158.834,86.945 L158.833,86.945 Z" id="Path" fill="#F2F2F9"></path>
                        <ellipse id="Oval" fill="#E4E4EF" transform="translate(103.506000, 8.692000) rotate(180.000000) translate(-103.506000, -8.692000) " cx="103.506" cy="8.692" rx="8.772" ry="8.692"></ellipse>
                        <path d="M98.096,99.046 C98.418,99.046 98.74,99.186 99.061,99.465 L103.566,104.211 C104.048,104.631 103.887,105.328 103.405,105.747 C102.922,106.166 102.118,106.027 101.635,105.607 L97.131,100.861 C96.648,100.442 96.809,99.744 97.291,99.325 C97.614,99.185 97.775,99.046 98.096,99.046 Z M142.871,43.937 C143.158,43.937 143.445,44.076 143.731,44.355 L153.771,56.059 C154.201,56.477 154.058,57.174 153.628,57.592 C153.198,58.01 152.481,57.871 152.05,57.452 L142.01,45.748 C141.58,45.33 141.724,44.633 142.154,44.215 C142.441,44.075 142.584,43.937 142.871,43.937 L142.871,43.937 Z" id="Shape" fill="#E4E4EF"></path>
                    </g>
                    <g opacity="0.7" transform="translate(0.000000, 0.000000)" id="Path">
                        <path d="M8.44797273,17 L51.4899727,17 C56.1709727,17 59.9359729,13.406 59.9359729,8.937 L59.9359729,8.063 C59.9369727,3.594 56.1719727,0 51.4909727,0 L8.44797273,0 C3.76697273,0 0.00197273191,3.594 0.00197273191,8.063 L0.00197273191,8.937 C-0.100027268,13.406 3.76697273,17 8.44797273,17 Z" fill="#E4E4EF"></path>
                        <path d="M11.3519727,13.96 C14.5139727,13.96 17.0629727,11.684 17.0629727,8.86 C17.0629727,6.038 14.5129727,3.76 11.3529727,3.76 C8.19097273,3.76 5.64097273,4.854 5.64097273,8.86 C5.64097273,11.684 8.19097273,13.96 11.3519727,13.96 Z" fill="#B5B5C4"></path>
                        <path d="M20.9389727,9.59 L29.5049727,9.59 C29.9129727,9.59 30.3209727,9.225 30.3209727,8.86 C30.3209727,8.496 29.9129727,8.132 29.5049727,8.132 L20.9399727,8.132 C20.5319727,8.132 20.1239727,8.496 20.1239727,8.861 C20.1239727,9.225 20.4299727,9.589 20.9399727,9.589 L20.9389727,9.59 Z" fill="#CACAD4"></path>
                    </g>
                </g>
            </g>
            <g id="delivery-1" transform="translate(32.999973, 0.000000)">
                <path d="M107.368,22.424 L26.632,22.424 C15.089,22.424 5.695,31.818 5.695,43.362 L5.695,90.638 C5.695,102.182 15.089,111.576 26.633,111.576 L107.374,111.576 C118.918,111.576 128.312,102.182 128.312,90.638 L128.312,43.362 C128.312,31.818 118.918,22.424 107.374,22.424 L107.368,22.424 L107.368,22.424 Z M107.368,36.382 C107.738,36.382 108.1,36.417 108.456,36.473 L69.401,62.023 C68.389,62.687 65.897,62.687 64.885,62.023 L25.775,36.438 C26.0595602,36.4015404 26.3461148,36.3828375 26.633,36.382 L107.374,36.382 L107.368,36.382 L107.368,36.382 Z M107.368,97.618 L26.632,97.618 C22.787,97.618 19.653,94.484 19.653,90.638 L19.653,49.112 L57.243,73.7 C60.063,75.55 63.601,76.47 67.147,76.47 C70.692,76.47 74.223,75.55 77.05,73.7 L114.354,49.294 L114.354,90.63 C114.354,94.476 111.22,97.61 107.374,97.61 L107.368,97.617 L107.368,97.618 Z" id="Shape" fill="#8D8DFD" fill-rule="nonzero"></path>
                <polygon id="Path" points="0 0 134 0 134 134 0 134"></polygon>
                <path d="M16.03,36.382 L60.954,66.642 C64.6309183,69.1186326 69.4211114,69.1989589 73.179,66.847 L119.101,38.107 L119.101,38.107" id="Path" stroke="#FD7696" stroke-width="16.836" stroke-linecap="round" stroke-linejoin="round"></path>
            </g>
        </g>
    </g>
</svg>