<?xml version="1.0" encoding="UTF-8"?>
<svg width="61px" height="121px" viewBox="0 0 61 121" version="1.1" xmlns="http://www.w3.org/2000/svg" xmlns:xlink="http://www.w3.org/1999/xlink">
    <title>Shape</title>
    <g id="Symbols" stroke="none" stroke-width="1" fill="none" fill-rule="evenodd">
        <g id="Action-cards/Desk" transform="translate(-262.000000, -36.000000)" fill="#F2F2F2" fill-rule="nonzero">
            <g id="Hot-Desk" transform="translate(249.000000, 0.000000)">
                <g transform="translate(-3.000000, 23.000000)" id="Shape">
                    <path d="M161.36885,13.5454545 L24.6311502,13.5454545 C20.0818643,13.5454545 16.3939394,17.215762 16.3939394,21.7433156 C16.3939394,26.2708693 20.0818643,29.9411767 24.6311502,29.9411767 L32.868361,29.9411767 L32.868361,125.036365 C32.8683611,129.563919 36.556286,133.234226 41.1055718,133.234226 C45.6548577,133.234226 49.3427826,129.563919 49.3427827,125.036365 L49.3427827,29.9411767 L84.7627892,29.9411767 L84.7627892,81.2925785 C84.771864,87.8990623 90.1509221,93.2524243 96.789117,93.2614557 L136.657217,93.2614557 L136.657217,125.044563 C136.657217,129.572117 140.345142,133.242424 144.894428,133.242424 C149.443714,133.242424 153.131639,129.572117 153.131639,125.044563 L153.131639,29.9493746 L161.36885,29.9493746 C165.918136,29.9493746 169.606061,26.2790671 169.606061,21.7515135 C169.606061,17.2239598 165.918136,13.5536524 161.36885,13.5536524 L161.36885,13.5454545 Z M136.657217,76.8575357 L101.237211,76.8575357 L101.237211,61.6177119 L136.657217,61.6177119 L136.657217,76.8575357 Z M136.657217,45.2219898 L101.237211,45.2219898 L101.237211,29.9411767 L136.657217,29.9411767 L136.657217,45.2219898 Z"></path>
                </g>
            </g>
        </g>
    </g>
</svg>