<?xml version="1.0" encoding="UTF-8"?>
<svg width="223px" height="180px" viewBox="0 0 223 180" version="1.1" xmlns="http://www.w3.org/2000/svg" xmlns:xlink="http://www.w3.org/1999/xlink">
    <title>Group 2</title>
    <g id="Page-1" stroke="none" stroke-width="1" fill="none" fill-rule="evenodd">
        <g id="Group-2">
            <g id="group" fill-rule="nonzero">
                <path d="M113.910829,36.3999383 C130.218829,40.3189383 140.354829,50.5499383 155.321829,56.4849383 C173.063829,63.5209383 198.021829,63.1269383 209.656829,74.3699383 C221.494829,85.8089383 220.794829,101.281938 214.667829,113.828938 C208.807829,125.831938 194.006829,135.073938 177.127829,140.986938 C162.420829,146.137938 143.395829,140.984938 127.413829,144.389938 C107.670829,148.596938 94.6438289,166.648938 73.9108289,162.979938 C54.0078289,159.459938 52.2448289,140.640938 41.0848289,129.116938 C31.1168289,118.823938 13.6658289,110.699938 11.8118289,98.8549383 C9.95482894,86.9999383 24.5628289,77.9569383 31.3978289,67.2599383 C39.0448289,55.2899383 37.2118289,38.6499383 54.3748289,32.2319383 C71.4848289,25.8329383 94.5268289,31.7439383 113.910829,36.4019383 L113.910829,36.3999383 Z" id="Path" fill="#FAFAFA"></path>
                <g id="Group" transform="translate(111.488408, 89.871702) rotate(-20.000000) translate(-111.488408, -89.871702) translate(14.853150, 29.404592)">
                    <polygon id="Path" fill="#E4E4ED" points="0.0599119514 58.538 23.068912 48.151 33.538912 70.976 10.530912 81.363"></polygon>
                    <path d="M175.736912,39.788 L179.100912,64.955 C179.100912,64.955 192.847912,60.825 191.800912,50.779 C190.532912,38.229 175.736912,39.788 175.736912,39.788 Z" id="Path" fill="#F2F2F8"></path>
                    <ellipse id="Oval" fill="#E4E4ED" cx="53.619912" cy="6.104" rx="5.274" ry="6.104"></ellipse>
                    <path d="M0.565911951,24.555 C0.310260746,24.2773675 0.118142122,23.9473875 0.0029119514,23.588 C-0.0228034243,23.2131506 0.122830968,22.8468581 0.398911951,22.592 C0.676213533,22.3355756 1.05372081,22.2167103 1.42791195,22.268 L19.858912,22.268 C20.236912,22.242 20.605912,22.386 20.863912,22.66 C21.121912,22.934 21.241912,23.31 21.189912,23.681 C21.189912,24.537 20.646912,25.076 19.764912,25.001 L1.33491195,25.095 C1.07191195,24.76 0.827911951,24.779 0.564911951,24.555 L0.565911951,24.555 Z M105.500912,25.28 C105.212971,24.9963077 105.057019,24.6049784 105.070912,24.201 L105.350912,16.52 C105.435581,15.8233991 106.028189,15.3004084 106.729912,15.3029904 C107.433912,15.3029904 108.025912,15.826 108.107912,16.52 L107.807912,24.201 C107.774365,24.9469658 107.147236,25.5272942 106.400912,25.503 C106.025912,25.54 105.763912,25.54 105.500912,25.28 L105.500912,25.28 Z M190.307912,120.618 C190.038936,120.318543 189.903534,119.922447 189.932912,119.521 L190.532912,100.456 C190.572912,99.708 191.202912,99.125 191.957912,99.1358469 C192.708912,99.176 193.291912,99.803 193.269912,100.549 L192.669912,119.614 C192.635916,120.362093 192.01266,120.947226 191.263912,120.934 C190.922506,120.917198 190.592076,120.807976 190.307912,120.618 L190.307912,120.618 Z" id="Shape" fill="#E4E4ED"></path>
                </g>
            </g>
            <g id="visitor-1" transform="translate(42.021829, 15.964938)">
                <path d="M99.104,39.083 L78.167,39.083 L78.167,44.667 L55.833,44.667 L55.833,39.083 L34.896,39.083 C23.352,39.083 13.958,49.447 13.958,62.184 L13.958,105.309 C13.958,118.046 23.352,128.409 34.896,128.409 L99.104,128.409 C110.648,128.409 120.042,118.046 120.042,105.309 L120.042,62.184 C120.042,49.447 110.648,39.084 99.104,39.084 L99.104,39.083 Z M106.084,105.316 C106.084,109.566 102.957,113.014 99.104,113.014 L34.896,113.014 C31.043,113.014 27.916,109.566 27.916,105.316 L27.916,62.19 C27.916,57.94 31.043,54.492 34.896,54.492 L99.104,54.492 C102.957,54.492 106.084,57.94 106.084,62.19 L106.084,105.315 L106.084,105.316 Z" id="Shape" fill="#8D8DFD" fill-rule="nonzero"></path>
                <path d="M75.382,7.801 L75.382,39.748 C75.382,40.918 74.432,41.868 73.262,41.868 L60.752,41.868 C59.5811563,41.868 58.632,40.9188437 58.632,39.748 L58.632,7.801 C58.632,6.631 59.582,5.681 60.752,5.681 L73.262,5.681 C74.432,5.681 75.382,6.631 75.382,7.801 Z" id="Path" fill="#8D8DFD" fill-rule="nonzero"></path>
                <path d="M72.548,98.49 C71.655,91.888 65.66,84.895 57.501,82.968 C60.726,81.335 62.952,77.999 62.952,74.147 C62.952,68.696 58.513,64.257 53.062,64.257 C47.612,64.257 43.173,68.696 43.173,74.147 C43.173,77.964 45.351,81.272 48.519,82.919 C40.269,84.65 33.996,91.001 33.5,98.783 C33.4293922,99.9428428 33.837885,101.080838 34.63,101.931 C35.4223885,102.770865 36.5253367,103.247845 37.68,103.25 L68.396,103.25 C69.6040655,103.249116 70.7532522,102.728084 71.55,101.82 C72.3484569,100.906489 72.7124139,99.6920833 72.548,98.49 L72.548,98.49 Z M53.063,71.236 C54.6694632,71.2376536 55.9713464,72.5395368 55.973,74.146 C55.9718976,75.7528537 54.6698532,77.0553455 53.063,77.057 C51.4565368,77.0553464 50.1546536,75.7534632 50.153,74.147 C50.1546536,72.5405368 51.4565368,71.2386536 53.063,71.237 L53.063,71.236 Z M41.184,96.278 C42.936,92.272 47.604,89.431 53.063,89.431 C58.52,89.431 62.498,92.851 64.473,96.278 L41.185,96.278 L41.184,96.278 Z" id="Shape" fill="#FD7696" fill-rule="nonzero"></path>
                <rect id="Rectangle" fill="#8D8DFD" fill-rule="nonzero" x="75.375" y="72.409" width="25.125" height="6.121" rx="3.06"></rect>
                <rect id="Rectangle" fill="#8D8DFD" fill-rule="nonzero" x="75.375" y="83.387" width="25.125" height="6.121" rx="3.06"></rect>
                <polygon id="Path" points="0 0 134 0 134 134 0 134"></polygon>
                <polygon id="Path" points="0 0 134 0 134 134 0 134"></polygon>
                <polygon id="Path" points="0 0 134 0 134 134 0 134"></polygon>
            </g>
        </g>
    </g>
</svg>