<?xml version="1.0" encoding="UTF-8"?>
<svg id="Floor_map_20px" data-name="Floor map 20px" xmlns="http://www.w3.org/2000/svg" viewBox="0 0 16 16">
  <defs>
    <style>
      .cls-1 {
        fill: #fff;
        opacity: 0;
      }
    </style>
  </defs>
  <g>
    <path d="M10.96,9.01c.47-.73,.86-1.38,1.05-1.81,.25-.55,.39-1.16,.39-1.8,0-2.43-1.97-4.4-4.4-4.4S3.6,2.97,3.6,5.4c0,.64,.14,1.25,.39,1.8,.19,.42,.59,1.08,1.05,1.81L1,11.2l7.01,3.79,6.99-3.79-4.04-2.19Zm-6.06-2.22c-.2-.44-.3-.91-.3-1.39,0-1.87,1.53-3.4,3.4-3.4s3.4,1.53,3.4,3.4c0,.48-.1,.95-.3,1.39-.17,.38-.56,1.02-1.02,1.74-.17,.27-.36,.55-.55,.83-.51,.77-1.06,1.56-1.53,2.22-.47-.66-1.02-1.45-1.53-2.22-.19-.28-.37-.56-.55-.83-.47-.72-.85-1.36-1.02-1.74Zm-1.84,4.41l2.53-1.36c1.14,1.7,2.41,3.46,2.41,3.46,0,0,1.28-1.76,2.42-3.46l2.52,1.36-4.93,2.66-4.95-2.66Z"/>
    <path d="M8,7.2c1.08,0,1.95-.87,1.95-1.95s-.87-1.95-1.95-1.95-1.95,.87-1.95,1.95,.87,1.95,1.95,1.95Zm0-2.9c.52,0,.95,.43,.95,.95s-.43,.95-.95,.95-.95-.43-.95-.95,.43-.95,.95-.95Z"/>
  </g>
  <rect class="cls-1" x="0" y="0" width="16" height="16"/>
</svg>
