<svg width="12" height="12" viewBox="0 0 12 12" xmlns="http://www.w3.org/2000/svg" xmlns:xlink="http://www.w3.org/1999/xlink">
    <defs>
        <path d="M4.5 5.5h-1v1h1v-1zm2 0h-1v1h1v-1zm2 0h-1v1h1v-1zm1-3.5H9V1H8v1H4V1H3v1h-.5a.995.995 0 0 0-.995 1L1.5 10a1 1 0 0 0 1 1h7c.55 0 1-.45 1-1V3c0-.55-.45-1-1-1zm0 8h-7V4.5h7V10z" id="vjnobx0q9a"/>
    </defs>
    <g fill="none" fill-rule="evenodd">
        <mask id="kfwyclyxwb" fill="#fff">
            <use xlink:href="#vjnobx0q9a"/>
        </mask>
        <g mask="url(#kfwyclyxwb)" fill="#959A9E">
            <path d="M-6.5-6.5h25v25h-25z"/>
        </g>
    </g>
</svg>
