<svg width="12" height="12" viewBox="0 0 12 12" xmlns="http://www.w3.org/2000/svg">
    <g fill="none" fill-rule="evenodd" opacity=".3">
        <path d="M0 0h12v12H0z"/>
        <path d="M9.69 1.462h-.706v-.427a.625.625 0 1 0-1.25 0v.427H4.331v-.427a.625.625 0 1 0-1.25 0v.427h-.772A1.286 1.286 0 0 0 1.025 2.75v7.379c0 .708.575 1.283 1.284 1.284H9.69c.708-.001 1.283-.575 1.284-1.284V2.75a1.286 1.286 0 0 0-1.284-1.288zM2.276 2.75c0-.019.015-.034.034-.034h.772v.149a.625.625 0 0 0 1.25 0v-.153h3.403v.15a.625.625 0 1 0 1.25 0v-.15h.707c.019 0 .034.016.034.035v1.295h-7.45V2.75zm7.45 7.379a.034.034 0 0 1-.034.034H2.309a.034.034 0 0 1-.034-.034V5.292h7.45v4.837z" fill="#324056" fill-rule="nonzero"/>
    </g>
</svg>
