<svg width="24" height="24" viewBox="0 0 24 24" xmlns="http://www.w3.org/2000/svg" xmlns:xlink="http://www.w3.org/1999/xlink">
    <defs>
        <linearGradient x1="0%" y1="0%" x2="100%" y2="100%" id="gsebzgswwc">
            <stop stop-color="#7374FF" offset="0%"/>
            <stop stop-color="#7374FF" offset="100%"/>
        </linearGradient>
        <path d="M6 10c-1.1 0-2 .9-2 2s.9 2 2 2 2-.9 2-2-.9-2-2-2zm12 0c-1.1 0-2 .9-2 2s.9 2 2 2 2-.9 2-2-.9-2-2-2zm-6 0c-1.1 0-2 .9-2 2s.9 2 2 2 2-.9 2-2-.9-2-2-2z" id="vs3n36v10a"/>
    </defs>
    <g fill="none" fill-rule="evenodd">
        <mask id="1zz6oqw2ab" fill="#fff">
            <use xlink:href="#vs3n36v10a"/>
        </mask>
        <g mask="url(#1zz6oqw2ab)" fill="url(#gsebzgswwc)">
            <path d="M-13-13h50v50h-50z"/>
        </g>
    </g>
</svg>
