<?xml version="1.0" encoding="UTF-8"?>
<svg id="Time_20px" data-name="Time 20px" xmlns="http://www.w3.org/2000/svg" viewBox="0 0 16 16">
  <defs>
    <style>
      .cls-1 {
        fill: #fff;
        opacity: 0;
      }
    </style>
  </defs>
  <g>
    <path d="M8,1C4.13,1,1,4.13,1,8s3.13,7,7,7,7-3.13,7-7S11.87,1,8,1Zm0,13c-3.31,0-6-2.69-6-6S4.69,2,8,2s6,2.69,6,6-2.69,6-6,6Z"/>
    <polygon points="8.5 3.1 7.5 3.1 7.5 8 7.51 8 7.5 8.01 10.16 10.66 10.86 9.96 8.5 7.59 8.5 3.1"/>
  </g>
  <rect class="cls-1" x="0" y="0" width="16" height="16"/>
  <rect class="cls-1" y="0" width="16" height="16"/>
</svg>