<svg width="16" height="16" viewBox="0 0 16 16" xmlns="http://www.w3.org/2000/svg">
    <g fill="#fc436d" fill-rule="nonzero">
        <path fill="none" d="M0 0h16v16H0z"/>
        <path d="M13.26.533H2.74C1.522.533.532 1.571.532 2.845v2.291c0 1.246.948 2.185 2.206 2.185h6.619v5.834c0 1.272.989 2.312 2.206 2.312h1.697c1.215 0 2.206-1.037 2.206-2.312V2.845c0-1.274-.99-2.312-2.206-2.312zm.51 12.622c0 .339-.23.615-.51.615h-1.696c-.281 0-.51-.276-.51-.615V6.918c0-.713-.532-1.294-1.187-1.294H2.739c-.12 0-.509-.035-.509-.488v-2.29c0-.34.229-.616.51-.616h10.52c.28 0 .51.277.51.615v10.31z"/>
        <path d="M7.442 8h-.007c-.513.003-.995.25-1.3.667H3.998A1.627 1.627 0 0 0 2.69 8a1.661 1.661 0 0 0-1.624 1.684v3.032a1.663 1.663 0 0 0 1.63 1.684h4.745a1.662 1.662 0 0 0 1.625-1.684V9.69A1.664 1.664 0 0 0 7.442 8zm-1.635 2.351v.68H4.326v-.68h1.481zm1.926-.667v3.032a.319.319 0 0 1-.296.337h-4.74a.314.314 0 0 1-.218-.107.32.32 0 0 1-.079-.23V9.684a.319.319 0 0 1 .297-.337.32.32 0 0 1 .296.337v2.358a.32.32 0 0 0 .079.23.314.314 0 0 0 .217.107h3.555a.319.319 0 0 0 .297-.337V9.684a.303.303 0 0 1 .13-.29.296.296 0 0 1 .316-.01.302.302 0 0 1 .147.283v.017z"/>
    </g>
</svg>
