<svg width="20" height="20" viewBox="0 0 20 20" xmlns="http://www.w3.org/2000/svg">
    <g fill="none" fill-rule="evenodd">
        <g transform="translate(.836 3.706)" fill="#7374FF" fill-rule="nonzero">
            <rect x="16.664" y="4.627" width="1.667" height="3.333" rx=".833"/>
            <path d="M7.362 11.336a1.04 1.04 0 0 1-.837-1.66l2.026-2.751H5.216a1.043 1.043 0 0 1-.88-1.601l2.377-3.733A1.043 1.043 0 0 1 8.47 2.709L7.114 4.842h3.497A1.04 1.04 0 0 1 11.45 6.5l-3.248 4.411a1.04 1.04 0 0 1-.84.424z"/>
            <path d="M12.806 12.576h-1.56a1.042 1.042 0 0 1 0-2.083h1.56c.517 0 .938-.421.938-.938V3.021a.939.939 0 0 0-.938-.938h-1.56a1.042 1.042 0 0 1 0-2.083h1.56a3.024 3.024 0 0 1 3.021 3.02v6.535a3.024 3.024 0 0 1-3.02 3.021zM4.58 12.581H3.02A3.024 3.024 0 0 1 0 9.561V3.025A3.024 3.024 0 0 1 3.02.006h1.56a1.042 1.042 0 0 1 0 2.083H3.02a.939.939 0 0 0-.937.937V9.56c0 .517.421.938.938.938h1.56a1.042 1.042 0 0 1 0 2.083z"/>
        </g>
        <path d="M0 0h20v20H0z"/>
    </g>
</svg>
