<svg width="135" height="135" viewBox="0 0 135 135" xmlns="http://www.w3.org/2000/svg">
    <g fill="#2F98A5" fill-rule="nonzero" opacity=".25">
        <circle cx="40.852" cy="71.789" r="5.646"/>
        <path fill="none" d="M0 0h135v135H0z"/>
        <path d="M118.125 118.125v-94.1c0-6.827-5.365-12.381-11.953-12.381h-9.387A15.532 15.532 0 0 0 82.97 2.812H32.344c-8.53 0-15.469 7.208-15.469 16.06v99.253H9.844a7.031 7.031 0 0 0 0 14.063h115.312a7.031 7.031 0 0 0 0-14.063h-7.031zm-19.688-.5V26.1h5.626v91.526h-5.626zm-14.062 0H30.937v-98.81c-.02-.808.6-1.49 1.407-1.546h50.554a1.526 1.526 0 0 1 1.477 1.603v98.754z"/>
    </g>
</svg>
