<svg width="20" height="20" viewBox="0 0 20 20" xmlns="http://www.w3.org/2000/svg">
    <g fill="none" fill-rule="evenodd">
        <path d="M16.38 5.833h-.538V2.626c0-.976-.795-1.77-1.771-1.77H5.983c-.976 0-1.77.794-1.77 1.77v3.207h-.541A2.815 2.815 0 0 0 .859 8.646v5.208a2.815 2.815 0 0 0 2.813 2.813h.54v.718c0 .976.795 1.771 1.771 1.771h8.087c.976 0 1.77-.795 1.77-1.77v-.72h.54a2.815 2.815 0 0 0 2.812-2.812V8.646a2.815 2.815 0 0 0-2.813-2.813h.001zM6.296 2.94h7.461v2.894H6.296V2.94zm7.461 11.332v2.8H6.296V12.5h7.461v1.772zm3.351-.417c0 .403-.326.73-.729.73h-.538v-2.398c0-.976-.795-1.77-1.771-1.77H5.983c-.976 0-1.77.794-1.77 1.77v2.397h-.541a.729.729 0 0 1-.73-.729V8.646c0-.403.327-.73.73-.73H16.38c.403 0 .73.327.73.73v5.208h-.002z" fill="#7374FF" fill-rule="nonzero"/>
        <path d="M0 0h20v20H0z"/>
    </g>
</svg>
