<svg width="28" height="28" viewBox="0 0 28 28" xmlns="http://www.w3.org/2000/svg">
    <g fill="none" fill-rule="evenodd">
        <g transform="translate(1.167 1.167)" fill="#464646" fill-rule="nonzero">
            <path d="M12.833 13.742a6.25 6.25 0 0 0-5.96 4.397h11.92a6.25 6.25 0 0 0-5.96-4.397z"/>
            <path d="M12.833 0C5.746 0 0 5.746 0 12.833c0 7.088 5.746 12.834 12.833 12.834 7.088 0 12.834-5.746 12.834-12.834C25.667 5.746 19.92 0 12.833 0zm7.095 19.978H5.738a.921.921 0 0 1-.912-1.039 8.08 8.08 0 0 1 6.012-6.784 4.413 4.413 0 1 1 3.99 0 8.08 8.08 0 0 1 6.013 6.784.92.92 0 0 1-.913 1.039z"/>
            <circle cx="12.833" cy="8.218" r="2.574"/>
        </g>
        <path d="M0 0h28v28H0z"/>
    </g>
</svg>
