<svg xmlns="http://www.w3.org/2000/svg" version="1.0" width="512.000000pt" height="512.000000pt" viewBox="0 0 512.000000 512.000000" preserveAspectRatio="xMidYMid meet">

<g transform="translate(0.000000,512.000000) scale(0.100000,-0.100000)" fill="#fff" stroke="none">
<path d="M1080 4235 c-552 -104 -943 -597 -916 -1155 13 -273 117 -516 307 -714 140 -147 302 -246 486 -299 46 -13 85 -26 88 -29 9 -9 -49 -140 -111 -252 -81 -145 -169 -273 -298 -436 -98 -122 -117 -152 -128 -198 -23 -103 26 -204 121 -254 76 -40 131 -38 275 12 733 253 1231 784 1415 1511 61 242 75 358 76 624 0 185 -3 244 -17 302 -106 432 -408 757 -810 869 -78 22 -119 26 -253 30 -111 2 -183 -1 -235 -11z"/>
<path d="M3611 4229 c-367 -77 -675 -333 -811 -673 -64 -160 -74 -213 -74 -421 -1 -178 1 -196 27 -289 107 -384 412 -691 780 -786 59 -15 71 -21 69 -37 -2 -10 -32 -77 -68 -149 -80 -162 -213 -365 -340 -520 -110 -134 -133 -178 -134 -252 0 -65 17 -108 65 -160 81 -91 173 -93 390 -12 910 339 1438 1120 1439 2130 0 208 -8 264 -59 416 -131 390 -463 684 -858 759 -113 21 -308 19 -426 -6z"/>
</g>
</svg>
