<svg width="16" height="16" viewBox="0 0 16 16" xmlns="http://www.w3.org/2000/svg">
    <g fill="none" fill-rule="evenodd">
        <g transform="translate(2 2)" fill="#464646" fill-rule="nonzero">
            <path d="M6 10.69c-2.6 0-4.667-2.031-4.667-4.587C1.333 3.548 3.4 1.517 6 1.517c1.333 0 2.6.59 3.467 1.507l-1.2.197a.68.68 0 0 0-.534.786c.067.327.334.524.667.524h.133l2.8-.524a.68.68 0 0 0 .534-.786L11.333.534a.691.691 0 0 0-.8-.524.68.68 0 0 0-.533.786l.2 1.114C9.067.862 7.6.207 6 .207A6.07 6.07 0 0 0 .8 3.155c-.533.917-.8 1.9-.8 2.948 0 1.049.267 2.031.8 2.949A5.761 5.761 0 0 0 3 11.214 6.03 6.03 0 0 0 6 12c.267 0 .533-.197.6-.393.067-.066.067-.197.067-.262 0-.066 0-.197-.067-.262-.067-.197-.333-.393-.6-.393z"/>
            <circle cx="11.333" cy="6.103" r="1"/>
            <circle transform="rotate(-60 10.61 8.74)" cx="10.609" cy="8.74" r="1"/>
            <circle transform="rotate(-30 8.657 10.626)" cx="8.657" cy="10.626" r="1"/>
            <path d="M6.667 5.841V4.138c0-.393-.267-.655-.667-.655s-.667.262-.667.655v1.965a.59.59 0 0 0 .2.459l1.334 1.31a.727.727 0 0 0 .466.197.727.727 0 0 0 .467-.197.626.626 0 0 0 0-.917L6.667 5.841z"/>
        </g>
        <path d="M0 0h16v16H0z"/>
    </g>
</svg>
