<?xml version="1.0" encoding="UTF-8"?>
<svg width="68px" height="129px" viewBox="0 0 68 129" version="1.1" xmlns="http://www.w3.org/2000/svg" xmlns:xlink="http://www.w3.org/1999/xlink">
    <title>Icon/Town-hall </title>
    <g id="Symbols" stroke="none" stroke-width="1" fill="none" fill-rule="evenodd">
        <g id="Action-cards/-space" transform="translate(-255.000000, -31.000000)">
            <g id="Deliveries-Copy" transform="translate(250.000000, 0.000000)">
                <g id="Icon/Town-hall-" transform="translate(2.000000, 26.000000)">
                    <g id="Town-Hall">
                        <rect id="Rectangle" x="0" y="0" width="140" height="140"></rect>
                        <path d="M83.16875,12.1552083 C83.1647262,15.6438356 80.3355046,18.469794 76.846875,18.4697917 L70.0510417,18.4697917 C67.7425675,18.5482255 65.5750765,17.3614264 64.3976016,15.3742783 C63.2201268,13.3871301 63.2201268,10.9159949 64.3976016,8.92884674 C65.5750765,6.94169861 67.7425675,5.75489951 70.0510417,5.83333333 L76.846875,5.83333333 C80.3366844,5.83735154 83.1647318,8.66539893 83.16875,12.1552083 Z" id="Path" fill="#F2F2F2" fill-rule="nonzero"></path>
                        <path d="M129.733333,119.947917 L104.577083,119.947917 L104.577083,58.0708333 L112.182292,58.0708333 C115.577033,58.0666859 118.468571,55.6030146 119.011685,52.2519977 C119.5548,48.9009809 117.589441,45.6501302 114.369792,44.5739583 L52.0770833,24.0625 L52.0770833,17.215625 C52.1919698,17.1646102 52.3159776,17.1373285 52.4416667,17.1354167 C55.4619739,17.1354167 57.9104167,14.6869739 57.9104167,11.6666667 C57.9104167,8.64635944 55.4619739,6.19791667 52.4416667,6.19791667 C46.2145833,6.19791667 41.1395833,11.003125 41.1395833,16.909375 L41.1395833,20.453125 L29.8958333,16.7708333 C26.2534511,15.6062962 22.3564186,17.6135617 21.1895833,21.2552083 C20.9721642,21.9269043 20.8566449,22.6273934 20.846875,23.3333333 L20.846875,51.14375 C20.8548968,54.9661448 23.9515635,58.0628115 27.7739583,58.0708333 L35.30625,58.0708333 L35.30625,119.947917 L10.2666667,119.947917 C6.44094418,119.947917 3.33958333,123.049278 3.33958333,126.875 C3.33958333,130.700722 6.44094418,133.802083 10.2666667,133.802083 L129.733333,133.802083 C133.559056,133.802083 136.660417,130.700722 136.660417,126.875 C136.660417,123.049278 133.559056,119.947917 129.733333,119.947917 L129.733333,119.947917 Z M34.7010417,44.2166667 L34.7010417,32.9072917 L69.0229167,44.2166667 L34.7010417,44.2166667 Z M90.7229167,119.947917 L49.1604167,119.947917 L49.1604167,58.0708333 L90.7229167,58.0708333 L90.7229167,119.947917 Z" id="Shape" fill="#F2F2F2" fill-rule="nonzero"></path>
                    </g>
                    <rect id="Rectangle" fill="#334056" fill-rule="nonzero" opacity="0" x="0" y="0" width="140" height="140"></rect>
                </g>
            </g>
        </g>
    </g>
</svg>