<?xml version="1.0" encoding="UTF-8"?>
<svg id="Visitor_20px" data-name="Visitor 20px" xmlns="http://www.w3.org/2000/svg" viewBox="0 0 16 16">
  <defs>
    <style>
      .cls-1 {
        fill: #fff;
        opacity: 0;
      }
    </style>
  </defs>
  <rect x="7.5" y="11.2" width="1" height="3.6" transform="translate(-5 21) rotate(-90)"/>
  <path d="M11.5,2v-1s0,0,0,0H4.5v1s-2.5,0-2.5,0h0V15H14V2h0s-2.5,0-2.5,0Zm-6,0h5v.7H5.5v-.7Zm7.5,12H3V3h1.5v.7h6.99v-.7h1.5V14Z"/>
  <path d="M8,4.3c-2.1,0-3.8,1.7-3.8,3.8s1.7,3.8,3.8,3.8,3.8-1.7,3.8-3.8-1.7-3.8-3.8-3.8Zm0,1c1.54,0,2.8,1.26,2.8,2.8,0,.48-.13,.92-.34,1.31-.3-.34-.67-.62-1.09-.81,.21-.28,.33-.63,.33-1,0-.94-.76-1.7-1.7-1.7s-1.7,.76-1.7,1.7c0,.38,.13,.72,.33,1-.42,.19-.79,.47-1.09,.81-.21-.39-.34-.83-.34-1.31,0-1.54,1.26-2.8,2.8-2.8Zm-.7,2.3c0-.39,.31-.7,.7-.7s.7,.31,.7,.7-.31,.7-.7,.7-.7-.31-.7-.7Zm-1.11,2.61c.43-.57,1.09-.91,1.81-.91s1.38,.35,1.81,.91c-.49,.42-1.12,.69-1.81,.69s-1.32-.26-1.81-.69Z"/>
  <rect class="cls-1" x="0" y="0" width="16" height="16"/>
</svg>