<svg xmlns="http://www.w3.org/2000/svg" viewBox="0 0 192 192"><defs><style>.cls-1{fill:none;}.cls-2{fill:#324056;}</style></defs><g id="trim_area" data-name="trim area"><g id="Filter"><rect class="cls-1" y="-0.05" width="192" height="192"/><path class="cls-2" d="M171,45.7,104,7A13.42,13.42,0,0,0,90.63,7l-67,38.72A13.4,13.4,0,0,0,17,57.29v77.42a13.4,13.4,0,0,0,6.7,11.59l67,38.72h0a13.43,13.43,0,0,0,13.4,0l67-38.72h0a13.36,13.36,0,0,0,6.7-11.59V57.29A13.36,13.36,0,0,0,171,45.7ZM92.3,174.36,28.6,137.59a3.37,3.37,0,0,1-1.67-2.88V61L92.3,98.75Zm5-84.39L32.22,52.33l63.43-36.7a3.34,3.34,0,0,1,3.35,0l63.42,36.63Zm70.46,44.74a3.32,3.32,0,0,1-1.67,2.88l-63.77,36.78V98.61L167.72,60.9Z"/></g></g></svg>