<svg xmlns="http://www.w3.org/2000/svg" viewBox="0 0 192 192"><defs><style>.cls-1{fill:none;}.cls-2{fill:#334056;}</style></defs><g id="trim_area" data-name="trim area"><rect class="cls-1" width="192" height="192"/><path class="cls-2" d="M175.89,17.58H46.15a11.07,11.07,0,0,0-11,11.05v6.85h-19a11,11,0,0,0-11,11v42a11,11,0,0,0,11,11h89.09v16H101a9.85,9.85,0,0,0-9.84,9.85v46.06a9.85,9.85,0,0,0,9.84,9.85h20.29a9.87,9.87,0,0,0,9.87-9.85V125.28a9.87,9.87,0,0,0-9.87-9.85h-4.13v-17a11,11,0,0,0-11-11H17.05v-40H35.1v6.84a11.07,11.07,0,0,0,11,11.05H175.89A11.07,11.07,0,0,0,187,54.32V28.63A11.07,11.07,0,0,0,175.89,17.58ZM119.14,127.43v41.76h-16V127.43ZM175,53.37H47.1V29.58H175Z"/></g></svg>