<?xml version="1.0" encoding="UTF-8"?><svg id="trim_area" xmlns="http://www.w3.org/2000/svg" viewBox="0 0 192 192"><defs><style>.cls-1{fill:none;}.cls-2{fill:#324056;}</style></defs><g><path class="cls-2" d="M184.36,97.83c0-5-2.82-9.36-6.95-11.57V33.4c4.13-2.21,6.95-6.57,6.95-11.57,0-7.22-5.88-13.1-13.1-13.1-5.06,0-9.46,2.89-11.64,7.1h-52.72c-2.18-4.21-6.58-7.1-11.64-7.1s-9.46,2.89-11.64,7.1H33.31c-2.18-4.21-6.58-7.1-11.64-7.1-7.22,0-13.1,5.88-13.1,13.1,0,5.06,2.89,9.46,7.1,11.64v52.72c-4.21,2.18-7.1,6.58-7.1,11.64s2.89,9.46,7.1,11.64v50.46c-4.21,2.17-7.1,6.57-7.1,11.64,0,7.22,5.88,13.1,13.1,13.1,5.06,0,9.46-2.89,11.64-7.1h50.31c2.18,4.21,6.58,7.1,11.64,7.1s9.46-2.89,11.64-7.1h51.81c1.61,5.41,6.63,9.36,12.55,9.36,7.22,0,13.1-5.88,13.1-13.1,0-5-2.82-9.36-6.95-11.57v-52.86c4.13-2.21,6.95-6.57,6.95-11.57ZM95.26,16.73c2.81,0,5.1,2.29,5.1,5.1s-2.29,5.1-5.1,5.1-5.1-2.29-5.1-5.1,2.29-5.1,5.1-5.1ZM21.67,176.67c-2.81,0-5.1-2.29-5.1-5.1s2.29-5.1,5.1-5.1,5.1,2.28,5.1,5.1-2.29,5.1-5.1,5.1Zm0-73.74c-2.81,0-5.1-2.29-5.1-5.1s2.29-5.1,5.1-5.1,5.1,2.29,5.1,5.1-2.29,5.1-5.1,5.1Zm0-76c-2.81,0-5.1-2.29-5.1-5.1s2.29-5.1,5.1-5.1,5.1,2.29,5.1,5.1-2.29,5.1-5.1,5.1ZM95.26,176.67c-2.81,0-5.1-2.29-5.1-5.1s2.29-5.1,5.1-5.1,5.1,2.28,5.1,5.1-2.29,5.1-5.1,5.1Zm70.15-90.56c-4.3,2.16-7.25,6.6-7.25,11.72s2.95,9.56,7.25,11.72v52.56c-1.67,.84-3.14,2.03-4.31,3.46h-54.2c-2.18-4.22-6.58-7.1-11.64-7.1s-9.46,2.88-11.64,7.1H33.31c-1.25-2.42-3.23-4.4-5.64-5.64v-50.46c4.21-2.18,7.1-6.58,7.1-11.64s-2.89-9.46-7.1-11.64V33.47c2.41-1.25,4.39-3.22,5.64-5.64h50.31c2.18,4.21,6.58,7.1,11.64,7.1s9.46-2.89,11.64-7.1h52.72c1.27,2.46,3.31,4.47,5.79,5.72v52.56Zm9.3,91.46c-.9,.85-2.12,1.36-3.45,1.36s-2.55-.51-3.45-1.36c-1.02-.93-1.65-2.26-1.65-3.74,0-2.81,2.29-5.1,5.1-5.1s5.1,2.29,5.1,5.1c0,1.48-.63,2.81-1.65,3.74Zm-3.45-74.64c-2.81,0-5.1-2.29-5.1-5.1s2.29-5.1,5.1-5.1,5.1,2.29,5.1,5.1-2.29,5.1-5.1,5.1Zm0-76c-2.81,0-5.1-2.29-5.1-5.1s2.29-5.1,5.1-5.1,5.1,2.29,5.1,5.1-2.29,5.1-5.1,5.1Z"/><path class="cls-2" d="M36.31,40.06v33.29h118.4V40.06H36.31Zm106.4,21.29H48.31v-9.29h94.4v9.29Z"/><path class="cls-2" d="M36.31,81.22v33.28h118.4v-33.28H36.31Zm106.4,21.28H48.31v-9.28h94.4v9.28Z"/><path class="cls-2" d="M36.31,122.37v33.29h118.4v-33.29H36.31Zm106.4,21.29H48.31v-9.29h94.4v9.29Z"/></g><rect class="cls-1" x=".02" y="-.03" width="192" height="192"/></svg>