<?xml version="1.0" encoding="UTF-8"?><svg id="trim_area" xmlns="http://www.w3.org/2000/svg" viewBox="0 0 192 192"><defs><style>.cls-1{fill:none;}.cls-2{fill:#324056;}</style></defs><rect class="cls-1" x=".02" y="-.03" width="192" height="192"/><g><path class="cls-2" d="M172.02,53.24H20.02c-3.31,0-6-2.69-6-6s2.69-6,6-6H172.02c3.31,0,6,2.69,6,6s-2.69,6-6,6Z"/><path class="cls-2" d="M96.02,153.64H20.02c-3.31,0-6-2.69-6-6s2.69-6,6-6H96.02c3.31,0,6,2.69,6,6s-2.69,6-6,6Z"/><path class="cls-2" d="M173.03,122.45c0,17.11-13.91,31.02-31.01,31.02-3.32,0-6-2.69-6-6s2.68-6,6-6c10.48,0,19.01-8.53,19.01-19.02s-8.53-19.01-19.01-19.01H20.02c-3.32,0-6-2.69-6-6s2.68-6,6-6h122c17.1,0,31.01,13.91,31.01,31.01Z"/></g></svg>