<?xml version="1.0" encoding="utf-8"?>
<!-- Generator: Adobe Illustrator 26.3.1, SVG Export Plug-In . SVG Version: 6.00 Build 0)  -->
<svg version="1.1" id="Layer_1" xmlns="http://www.w3.org/2000/svg" xmlns:xlink="http://www.w3.org/1999/xlink" x="0px" y="0px"
	 viewBox="0 0 24 24" style="enable-background:new 0 0 24 24;" xml:space="preserve">
<style type="text/css">
	.st0{fill:none;}
</style>
<g id="Group-7" transform="translate(4.000000, 0.000000)">
	<rect id="Rectangle" x="2.6" y="3.9" class="st0" width="16.3" height="16.3"/>
	<path id="Path" class="st1" d="M16.7,9.8l-7.9,5.9c-0.3,0.2-0.6,0.3-1,0.3c-0.5,0-1-0.2-1.3-0.6l-2-2.5c-0.2-0.2-0.2-0.5-0.2-0.8
		c0-0.3,0.2-0.5,0.4-0.7c0.2-0.1,0.4-0.2,0.6-0.2c0,0,0.1,0,0.1,0c0.3,0,0.5,0.2,0.7,0.4l1.8,2.2l7.6-5.7C15.7,8,16,7.9,16.3,7.9
		c0.3,0,0.5,0.2,0.7,0.4C17.3,8.8,17.2,9.4,16.7,9.8L16.7,9.8z"/>
</g>
<g id="Group-7_00000055670553205121269980000005317671670173655980_">
	
		<rect id="Rectangle_00000065789226974934612080000008148822431998128810_" x="1.1" y="3.9" class="st0" width="16.3" height="16.3"/>
	<path id="Combined-Shape" class="st1" d="M3.9,11.2c0,0,0.1,0,0.1,0c0.3,0,0.5,0.2,0.7,0.4l1.8,2.2l0.8-0.6l1.3,1.6l-1.1,0.8
		c-0.3,0.2-0.6,0.3-1,0.3c-0.5,0-1-0.2-1.3-0.6l-2-2.5c-0.2-0.2-0.2-0.5-0.2-0.8c0-0.3,0.2-0.5,0.4-0.7C3.4,11.3,3.7,11.2,3.9,11.2z
		 M14.8,7.9c0.3,0,0.5,0.2,0.7,0.4c0.3,0.5,0.3,1.1-0.2,1.4l-3,2.2l-1.3-1.6l3-2.3C14.3,8,14.6,7.9,14.8,7.9z"/>
</g>
</svg>
