<svg xmlns="http://www.w3.org/2000/svg" viewBox="0 0 192 192"><defs><style>.cls-1{fill:#334056;}.cls-2{fill:none;}.cls-3{fill:#324056;}</style></defs><g id="trim_area" data-name="trim area"><g id="Filter"><path class="cls-1" d="M116.44,17.63a6,6,0,0,0,6,6h38.85L88.4,96.52A6,6,0,0,0,96.89,105l72.88-72.89V71a6,6,0,1,0,12,0V21.63a10,10,0,0,0-10-10H122.43A6,6,0,0,0,116.44,17.63Z"/><rect class="cls-2" width="192" height="192"/><path class="cls-3" d="M153.34,181.31H38.66A20.34,20.34,0,0,1,18.34,161V46.31A20.34,20.34,0,0,1,38.66,26H96a6,6,0,1,1,0,12H38.66a8.33,8.33,0,0,0-8.32,8.33V161a8.33,8.33,0,0,0,8.32,8.32H153.34a8.33,8.33,0,0,0,8.32-8.32V103.65a6,6,0,0,1,12,0V161A20.34,20.34,0,0,1,153.34,181.31Z"/></g></g></svg>