<svg xmlns="http://www.w3.org/2000/svg" viewBox="0 0 192 192"><defs><style>.cls-1{fill:none;}.cls-2{fill:#334056;}</style></defs><g id="trim_area" data-name="trim area"><g id="Filter"><rect class="cls-1" width="192" height="192"/><path class="cls-2" d="M49.07,182.54a12,12,0,0,1-11.8-13.9l7.63-47.06-34.44-33a12,12,0,0,1,6.45-20.47L64,60.85,84.74,17.9a12,12,0,0,1,21.46-.19l21.49,42.56,47.24,6.43a12,12,0,0,1,6.82,20.35l-33.84,33.59,8.49,46.92a12,12,0,0,1-17.25,12.77l-42.41-21.8-42,22.57A12,12,0,0,1,49.07,182.54ZM24,81.62,55.8,112.05a12,12,0,0,1,3.54,10.56l-7.05,43.44,38.76-20.83a12,12,0,0,1,11.14-.1l39.14,20.12-7.84-43.3a12,12,0,0,1,3.35-10.62l31.23-31-43.6-5.94a11.93,11.93,0,0,1-9.07-6.46L95.57,28.64,76.45,68.27a12,12,0,0,1-9,6.63Z"/></g></g></svg>