<svg xmlns="http://www.w3.org/2000/svg" xmlns:xlink="http://www.w3.org/1999/xlink" viewBox="0 0 192 192"><defs><style>.cls-1,.cls-3{fill:none;}.cls-1{clip-rule:evenodd;}.cls-2{clip-path:url(#clip-path);}.cls-4{fill:#324056;}</style><clipPath id="clip-path"><path class="cls-1" d="M-164.69-4234.57v-45.05c0-27.66-14.78-50.82-40.54-56.95v-6.12a13.5,13.5,0,0,0-13.52-13.52,13.5,13.5,0,0,0-13.52,13.52v6.12c-25.86,6.13-40.54,29.2-40.54,56.95v45.05l-18,18v9h144.16v-9Zm-54.06,54.06a18.07,18.07,0,0,0,18-18h-36A18,18,0,0,0-218.75-4180.51Z"/></clipPath></defs><g id="trim_area" data-name="trim area"><g id="Filter"><rect class="cls-3" y="-0.05" width="192" height="192"/><path class="cls-4" d="M169.93,77.74l4.47-11.59H143L160.7,18.9H146.32L130.57,66.15H85.89L103.61,18.9H89.24L73.49,66.15H39.79L35.33,77.74H68.54L53.69,119.3H22.07l-4.46,11.59h31L32.88,178.14h13L63.6,130.89h42.12L90,178.14h13l17.71-47.25h31.53l4.47-11.59H126.09L138,77.74Zm-88.71,0h44.4L110.77,119.3H66.38Z"/></g></g></svg>