<?xml version="1.0" encoding="UTF-8"?><svg id="trim_area" xmlns="http://www.w3.org/2000/svg" viewBox="0 0 192 192"><defs><style>.cls-1{fill:none;}.cls-2{fill:#334056;}</style></defs><g id="Filter"><g><g><path class="cls-2" d="M181.05,94.07c-10.92-37.71-45.86-64-85.05-64h-.29c-12.59,.04-24.75,2.81-35.81,7.81l10.28,10.28c8.05-2.98,16.68-4.61,25.57-4.64h.25c32.57,0,61.68,21.41,71.55,52.36-3.95,11.72-10.68,22.05-19.32,30.32l9.51,9.51c10.63-10.25,18.79-23.14,23.28-37.8l.59-1.92-.56-1.93Z"/><g><path class="cls-2" d="M96,63.29c-3.24,0-6.37,.48-9.32,1.38l12.31,12.31c7.94,1.28,14.21,7.56,15.49,15.49l12.31,12.31c.9-2.95,1.38-6.08,1.38-9.32,0-17.74-14.43-32.17-32.17-32.17Z"/><path class="cls-2" d="M31.46,21.62l-9.51,9.51,18.63,18.63c-13.89,11.15-24.47,26.46-29.64,44.32l-.56,1.93,.59,1.92c5.58,18.25,16.67,33.95,32.06,45.37,15.39,11.43,33.6,17.51,52.67,17.57h.28c15.72,0,30.78-4.25,43.92-11.77l21.3,21.3,9.51-9.51L31.46,21.62Zm47.38,66.39l24.62,24.62c-2.28,1.01-4.81,1.56-7.46,1.56-10.32,0-18.72-8.4-18.72-18.72,0-2.65,.55-5.18,1.56-7.45Zm17.15,59.39h-.24c-32.07-.1-61.1-21.19-71.3-51.51,4.72-14.8,13.86-27.43,25.69-36.57l18.79,18.79c-3.24,5-5.11,10.96-5.11,17.35,0,17.75,14.43,32.17,32.17,32.17,6.38,0,12.34-1.87,17.35-5.11l16.65,16.65c-10.35,5.28-21.97,8.23-34.01,8.23Z"/></g></g><rect class="cls-1" x="0" y="0" width="192" height="192"/></g></g></svg>