<svg xmlns="http://www.w3.org/2000/svg" viewBox="0 0 192 192"><defs><style>.cls-1{fill:none;}</style></defs><g id="trim_area" data-name="trim area"><g id="Filter"><rect class="cls-1" width="192" height="192"/><path class="cls-2" d="M155.05,27.4h-15.3V16.56a6,6,0,0,0-12,0V27.4H65.29V16.56a6,6,0,0,0-12,0V27.4H37A16.56,16.56,0,0,0,20.41,44V162.06A16.56,16.56,0,0,0,37,178.6h118.1a16.57,16.57,0,0,0,16.56-16.54V44A16.57,16.57,0,0,0,155.05,27.4ZM32.41,44A4.55,4.55,0,0,1,37,39.4H53.29v6.39a6,6,0,1,0,12,0V39.4h62.46v6.39a6,6,0,0,0,12,0V39.4h15.3A4.56,4.56,0,0,1,159.61,44V68.67H32.41Zm127.2,118.11a4.56,4.56,0,0,1-4.56,4.54H37a4.55,4.55,0,0,1-4.54-4.54V80.67h127.2Z"/></g></g></svg>
