<svg xmlns="http://www.w3.org/2000/svg" viewBox="0 0 192 192"><defs><style>.cls-2{fill:none;}</style></defs><g id="trim_area" data-name="trim area"><path class="cls-1" d="M189.26,150.45a46.23,46.23,0,0,0-84.38,0l-.83,1.82.75,1.86a45.59,45.59,0,0,0,41.39,28.63h.86a46.09,46.09,0,0,0,42.29-28.64l.76-1.86Zm-42.21,23h-.68a36.42,36.42,0,0,1-32.12-20.94,37.58,37.58,0,0,1,31.57-20,37.19,37.19,0,0,1,34.07,20A36.37,36.37,0,0,1,147.05,173.46Z"/><path class="cls-1" d="M147.07,139.26a13.82,13.82,0,1,0,13.81,13.81A13.83,13.83,0,0,0,147.07,139.26Zm0,18.31a4.5,4.5,0,1,1,4.49-4.5A4.5,4.5,0,0,1,147.07,157.57Z"/><path class="cls-1" d="M103.07,177.92a6,6,0,0,0-6-6H42.5c-4,0-7.17-3.59-7.17-8V28.08c0-4.41,3.22-8,7.17-8h107c3.95,0,7.17,3.59,7.17,8V108a6,6,0,0,0,6,6h0a6,6,0,0,0,6-6V28.08c0-11-8.58-20-19.17-20H42.5c-10.59,0-19.17,9-19.17,20V163.92c0,11,8.58,20,19.17,20H97.07a6,6,0,0,0,6-6Z"/><rect class="cls-2" width="192" height="192"/><path class="cls-1" d="M115.27,52.74H52.73a6,6,0,0,1,0-12h62.54a6,6,0,0,1,0,12Z"/><path class="cls-1" d="M125.27,86.14H52.73a6,6,0,0,1,0-12h72.54a6,6,0,1,1,0,12Z"/><path class="cls-1" d="M115.27,119.13H52.73a6,6,0,1,1,0-12h62.54a6,6,0,0,1,0,12Z"/></g></svg>
