<svg xmlns="http://www.w3.org/2000/svg" viewBox="0 0 192 192"><defs><style>.cls-1{fill:none;}.cls-2{fill:#324056;}</style></defs><g id="trim_area" data-name="trim area"><g id="Filter"><rect class="cls-1" width="192" height="192"/><path class="cls-2" d="M170.42,30.69H21.59A18.77,18.77,0,0,0,2.83,49.44v93.12a18.78,18.78,0,0,0,18.76,18.76H170.42a18.78,18.78,0,0,0,18.75-18.76V49.44A18.77,18.77,0,0,0,170.42,30.69Zm6.75,21v88L131.43,94Zm-7.92-9L101.7,105.1a7.06,7.06,0,0,1-9.57,0L25,42.69ZM14.83,49.6,61.15,92.67,14.83,139Zm6.76,99.72h-.11L70,100.84l14,13a19.12,19.12,0,0,0,25.88,0l12.78-11.8,47.2,47.2Z"/></g></g></svg>