<?xml version="1.0" encoding="UTF-8"?><svg id="trim_area" xmlns="http://www.w3.org/2000/svg" viewBox="0 0 192 192"><defs><style>.cls-1{fill:none;}.cls-2{fill:#334056;}</style></defs><g><g><path class="cls-2" d="M96.83,35.03c-.38-.39-.79-.74-1.21-1.05l58.71,58.55-57.5-57.5Z"/><path class="cls-2" d="M154.33,92.53l-58.71-58.55-18.69-18.65c-1.33-1.33-3.48-1.33-4.81,0l-3.67,3.67c-1.33,1.33-1.33,3.49,0,4.82l11.41,11.38L22.53,92.53c-2.24,2.24-3.48,5.22-3.48,8.4s1.24,6.16,3.48,8.4l57.5,57.5c2.31,2.32,5.36,3.47,8.4,3.47s6.09-1.16,8.4-3.47l.17-.17,57.33-57.33c2.24-2.24,3.48-5.23,3.48-8.4s-1.24-6.16-3.48-8.4Zm-123.23,8.4l57.26-57.26,.07-.07,57.33,57.33H31.1Z"/></g><polygon class="cls-2" points="142.16 97.33 88.36 43.67 88.43 43.6 142.16 97.33"/><path class="cls-2" d="M172.31,155.8c-1.59,6.03-6.97,14.5-14.5,14.5s-12.92-8.48-14.5-14.5c-2.66-10.1,3.06-22.04,14.5-29.93,11.44,7.89,17.16,19.83,14.5,29.93Z"/></g><rect class="cls-1" width="192" height="192"/></svg>