<svg xmlns="http://www.w3.org/2000/svg" xmlns:xlink="http://www.w3.org/1999/xlink" viewBox="0 0 192 192"><defs><style>.cls-1,.cls-4{fill:none;}.cls-1{clip-rule:evenodd;}.cls-2{clip-path:url(#clip-path);}.cls-3{fill:#334056;}</style><clipPath id="clip-path"><path class="cls-1" d="M-164.69-4465.46v-45.05c0-27.66-14.78-50.82-40.54-56.95v-6.12a13.5,13.5,0,0,0-13.52-13.52,13.5,13.5,0,0,0-13.52,13.52v6.12c-25.86,6.13-40.54,29.2-40.54,56.95v45.05l-18,18v9h144.16v-9Zm-54.06,54.06a18.07,18.07,0,0,0,18-18h-36A18,18,0,0,0-218.75-4411.4Z"/></clipPath></defs><g id="trim_area" data-name="trim area"><g id="Filter"><path class="cls-3" d="M174.22,122.91H18.76A10.14,10.14,0,0,1,8.62,112.78V73.05A10.15,10.15,0,0,1,18.76,62.91H174.22a10.15,10.15,0,0,1,10.14,10.14v39.73A10.14,10.14,0,0,1,174.22,122.91Zm-153.6-12H172.36v-36H20.62Z"/><rect class="cls-4" y="-0.05" width="192" height="192"/><rect class="cls-3" x="118.62" y="68.84" width="12" height="48.13"/><rect class="cls-3" x="62.62" y="68.85" width="12" height="48.13"/></g></g></svg>