<svg xmlns="http://www.w3.org/2000/svg" viewBox="0 0 192 192"><defs><style>.cls-1{fill:#334056;}.cls-2{fill:none;}</style></defs><g id="trim_area" data-name="trim area"><path class="cls-1" d="M123.43,34.21A19.31,19.31,0,0,0,109.5,44.79a15.07,15.07,0,0,0-1.94,8.39,35.09,35.09,0,0,0,.17,4l.18.91L90.09,68.31C80.3,73.89,72.14,78.47,72,78.47a1.42,1.42,0,0,1-.75-.51,21.73,21.73,0,0,0-5.43-3.35,18,18,0,0,0-8.32-1.36,16.05,16.05,0,0,0-7.84,2A19,19,0,0,0,41,83.55a19.61,19.61,0,0,0,12.09,28.07,26.29,26.29,0,0,0,10.19.12,24.11,24.11,0,0,0,7.08-3.59A9,9,0,0,1,72,107c.14,0,8.23,4.55,18,10.14,15.61,8.89,17.74,10.18,17.68,10.62,0,.27-.12,1.81-.19,3.42a14.06,14.06,0,0,0,.35,5.11,19.78,19.78,0,0,0,13.7,14.53,14.43,14.43,0,0,0,5.4.62,14.4,14.4,0,0,0,5.4-.62,19.71,19.71,0,0,0,12.07-10.05,17.13,17.13,0,0,0,2-7.93,19.48,19.48,0,0,0-19.58-20.39,18.75,18.75,0,0,0-13.11,5.15l-1.15,1.1-3.33-1.91c-1.84-1-9.84-5.61-17.77-10.12C80.23,100.22,77.1,98.33,77.19,98a21.22,21.22,0,0,0,0-10.62c-.09-.3,3.15-2.25,15.13-9.08,8.39-4.76,16.39-9.31,17.77-10.12l2.53-1.44,1.15,1.1a19.79,19.79,0,0,0,8.51,4.64A16.39,16.39,0,0,0,127,73a17.33,17.33,0,0,0,8.9-2.12,19.66,19.66,0,0,0,10.3-13.54,23.15,23.15,0,0,0-.32-9.17A19.75,19.75,0,0,0,123.43,34.21Z"/><rect class="cls-2" width="192" height="192"/></g></svg>