<?xml version="1.0" encoding="UTF-8"?><svg id="trim_area" xmlns="http://www.w3.org/2000/svg" viewBox="0 0 192 192"><defs><style>.cls-1{fill:none;}.cls-2{fill:#334056;}</style></defs><g id="Filter"><g><path class="cls-2" d="M49.82,78.34c2.35,2.34,6.15,2.35,8.49,0l27.47-27.47v103.08c0,3.32,2.69,6,6,6,3.31,0,6-2.68,6-6V50.87l27.47,27.47c1.17,1.17,2.71,1.76,4.24,1.76s3.07-.59,4.25-1.76c2.34-2.34,2.34-6.14,0-8.48l-34.89-34.89c-3.9-3.9-10.24-3.9-14.14,0l-34.89,34.89c-2.34,2.34-2.34,6.14,0,8.48Z"/><rect class="cls-1" x="0" y="0" width="192" height="192"/></g></g></svg>