<?xml version="1.0" encoding="UTF-8"?>
<svg width="128px" height="89px" viewBox="0 0 128 89" version="1.1" xmlns="http://www.w3.org/2000/svg" xmlns:xlink="http://www.w3.org/1999/xlink">
    <!-- Generator: Sketch 52.6 (67491) - http://www.bohemiancoding.com/sketch -->
    <title>asset-resource-black</title>
    <desc>Created with Sketch.</desc>
    <g id="Page-1" stroke="none" stroke-width="1" fill="none" fill-rule="evenodd">
        <g id="asset-resource-black" fill="#000000" fill-rule="nonzero">
            <path d="M124.490237,0 L3.5101814,0 C1.57135154,0 0,1.56821667 0,3.50224622 L0,21.9110023 C0,23.8452405 1.57135154,25.4132485 3.5101814,25.4132485 L8.11526835,25.4132485 L8.11526835,85.4977538 C8.11526835,87.431992 9.68661988,89 11.6254497,89 L116.37455,89 C118.31338,89 119.884732,87.4317833 119.884732,85.4977538 L119.884732,25.4132485 L124.489819,25.4132485 C126.428648,25.4132485 128,23.8450318 128,21.9110023 L128,3.50224622 C128.000418,1.56821667 126.429067,0 124.490237,0 Z M120.980055,18.408756 L7.02057196,18.408756 L7.02057196,7.00470112 L120.980055,7.00470112 L120.980055,18.408756 Z M112.864578,81.9955076 L15.1358403,81.9955076 L15.1358403,25.4132485 L112.864578,25.4132485 L112.864578,81.9955076 Z" id="Shape"></path>
            <path d="M39.1667256,61 L88.8332744,61 C93.3363442,61 97,57.3913699 97,52.9556809 L97,43.0445245 C97,38.6088354 93.3365527,35 88.8332744,35 L39.1667256,35 C34.6636558,35 31,38.6086301 31,43.0445245 L31,52.9556809 C31.0002084,57.3915753 34.6636558,61 39.1667256,61 Z M37.9971323,43.0447298 C37.9971323,42.4094466 38.522209,41.8922268 39.1671425,41.8922268 L88.8332744,41.8922268 C89.4782079,41.8922268 90.0032846,42.4092413 90.0032846,43.0447298 L90.0032846,52.9558862 C90.0032846,53.5911693 89.4782079,54.1079786 88.8332744,54.1079786 L39.1667256,54.1079786 C38.5217921,54.1079786 37.9967154,53.590964 37.9967154,52.9558862 L37.9967154,43.0447298 L37.9971323,43.0447298 Z" id="Shape"></path>
        </g>
    </g>
</svg>