<svg width="512" height="512" xmlns="http://www.w3.org/2000/svg">

 <g>
  <title>background</title>
  <rect fill="#ffffff" id="canvas_background" height="514" width="514" y="-1" x="-1"/>
 </g>
 <g>
  <title>Layer 1</title>
  <g id="svg_1" transform="matrix(0.79187,0,0,0.79187,53.2812,53.2812) ">
   <g id="svg_2">
    <g id="svg_3">
     <g id="svg_4">
      <path id="svg_5" fill="#000000" class="active-path" d="m187.733,315.733c0,4.71 3.823,8.533 8.533,8.533l34.134,0c4.71,0 8.533,-3.823 8.533,-8.533l0,-51.2c0,-4.71 -3.823,-8.533 -8.533,-8.533l-34.133,0c-4.71,0 -8.533,3.823 -8.533,8.533l0,51.2l-0.001,0zm17.067,-42.666l17.067,0l0,34.133l-17.067,0l0,-34.133z"/>
      <path id="svg_6" fill="#000000" class="active-path" d="m196.267,221.867l34.133,0c4.71,0 8.533,-3.823 8.533,-8.533l0,-51.2c0,-4.71 -3.823,-8.533 -8.533,-8.533l-34.133,0c-4.71,0 -8.533,3.823 -8.533,8.533l0,51.2c-0.001,4.71 3.822,8.533 8.533,8.533zm8.533,-51.2l17.067,0l0,34.133l-17.067,0l0,-34.133z"/>
      <path id="svg_7" fill="#000000" class="active-path" d="m132.395,160.913l123.605,-74.163l123.605,74.163c1.374,0.828 2.893,1.22 4.386,1.22c2.901,0 5.726,-1.476 7.322,-4.139c2.432,-4.045 1.118,-9.284 -2.918,-11.708l-123.862,-74.316l0,-54.903l42.667,0l0,17.067l-25.6,0c-4.71,0 -8.533,3.823 -8.533,8.533c0,4.71 3.823,8.533 8.533,8.533l34.133,0c4.71,0 8.533,-3.823 8.533,-8.533l0,-34.134c0,-4.71 -3.823,-8.533 -8.533,-8.533l-59.733,0c-4.71,0 -8.533,3.823 -8.533,8.533l0,63.437l-123.861,74.317c-4.036,2.423 -5.35,7.663 -2.918,11.708c2.414,4.036 7.67,5.35 11.707,2.918z"/>
      <path id="svg_8" fill="#000000" class="active-path" d="m93.867,324.267c4.71,0 8.533,-3.823 8.533,-8.533l0,-51.2c0,-4.71 -3.823,-8.533 -8.533,-8.533l-34.134,0c-4.71,0 -8.533,3.823 -8.533,8.533l0,17.066c0,4.71 3.823,8.533 8.533,8.533s8.533,-3.823 8.533,-8.533l0,-8.533l17.067,0l0,42.667c0,4.71 3.823,8.533 8.534,8.533z"/>
      <path id="svg_9" fill="#000000" class="active-path" d="m153.6,435.2l0,-247.467c0,-4.71 -3.823,-8.533 -8.533,-8.533c-4.71,0 -8.533,3.823 -8.533,8.533l0,247.467c0,4.71 3.823,8.533 8.533,8.533c4.71,0 8.533,-3.823 8.533,-8.533z"/>
      <path id="svg_10" fill="#000000" class="active-path" d="m110.933,477.867l290.133,0c4.71,0 8.533,-3.823 8.533,-8.533s-3.823,-8.533 -8.533,-8.533l-76.8,0l0,-85.333l8.533,0c4.71,0 8.533,-3.823 8.533,-8.533s-3.823,-8.533 -8.533,-8.533l-153.599,0c-4.71,0 -8.533,3.823 -8.533,8.533s3.823,8.533 8.533,8.533l8.533,0l0,85.332l-76.8,0c-4.71,0 -8.533,3.823 -8.533,8.533s3.823,8.534 8.533,8.534zm153.6,-51.2c4.71,0 8.533,-3.823 8.533,-8.533s-3.823,-8.533 -8.533,-8.533l0,-34.133l42.667,0l0,85.332l-42.667,0l0,-34.133zm-59.733,-51.2l42.667,0l0,34.133c-4.71,0 -8.533,3.823 -8.533,8.533s3.823,8.533 8.533,8.533l0,34.134l-42.667,0l0,-85.333z"/>
      <path id="svg_11" fill="#000000" class="active-path" d="m452.267,366.933l-34.133,0c-4.71,0 -8.533,3.823 -8.533,8.533l0,51.2c0,4.71 3.823,8.533 8.533,8.533l34.133,0c4.71,0 8.533,-3.823 8.533,-8.533l0,-51.2c0,-4.71 -3.823,-8.533 -8.533,-8.533zm-8.534,51.2l-17.067,0l0,-34.133l17.067,0l0,34.133z"/>
      <path id="svg_12" fill="#000000" class="active-path" d="m452.267,264.533l-34.133,0c-4.71,0 -8.533,3.823 -8.533,8.533l0,51.2c0,4.71 3.823,8.533 8.533,8.533l34.133,0c4.71,0 8.533,-3.823 8.533,-8.533l0,-51.2c0,-4.71 -3.823,-8.533 -8.533,-8.533zm-8.534,51.2l-17.067,0l0,-34.133l17.067,0l0,34.133z"/>
      <path id="svg_13" fill="#000000" class="active-path" d="m435.2,494.933l-358.4,0c-4.71,0 -8.533,3.823 -8.533,8.533s3.823,8.534 8.533,8.534l358.4,0c4.71,0 8.533,-3.823 8.533,-8.533s-3.823,-8.534 -8.533,-8.534z"/>
      <path id="svg_14" fill="#000000" class="active-path" d="m503.467,187.733c-4.71,0 -8.533,3.823 -8.533,8.533l0,8.533l-93.867,0c-4.71,0 -8.533,3.823 -8.533,8.533c0,4.71 3.823,8.533 8.533,8.533l93.867,0l0,281.6c0,4.71 3.823,8.533 8.533,8.533s8.533,-3.823 8.533,-8.533l0,-307.2c0,-4.709 -3.823,-8.532 -8.533,-8.532z"/>
      <path id="svg_15" fill="#000000" class="active-path" d="m273.067,315.733c0,4.71 3.823,8.533 8.533,8.533l34.133,0c4.71,0 8.533,-3.823 8.533,-8.533l0,-51.2c0,-4.71 -3.823,-8.533 -8.533,-8.533l-34.133,0c-4.71,0 -8.533,3.823 -8.533,8.533l0,51.2zm17.066,-42.666l17.067,0l0,34.133l-17.067,0l0,-34.133z"/>
      <path id="svg_16" fill="#000000" class="active-path" d="m85.333,418.133c0,-1.109 -0.486,-110.933 -42.667,-110.933c-42.18,0 -42.666,109.824 -42.666,110.933c0,20.608 14.686,37.837 34.133,41.805l0,43.529c0,4.71 3.823,8.533 8.533,8.533c4.71,0 8.533,-3.823 8.533,-8.533l0,-43.529c19.448,-3.968 34.134,-21.197 34.134,-41.805zm-42.666,25.6c-14.114,0 -25.6,-11.486 -25.6,-25.6c0,-42.513 11.418,-93.867 25.6,-93.867c14.182,0 25.6,51.354 25.6,93.867c0,14.114 -11.486,25.6 -25.6,25.6z"/>
      <path id="svg_17" fill="#000000" class="active-path" d="m375.467,435.2l0,-256c0,-4.71 -3.823,-8.533 -8.533,-8.533s-8.533,3.823 -8.533,8.533l0,256c0,4.71 3.823,8.533 8.533,8.533s8.533,-3.823 8.533,-8.533z"/>
      <path id="svg_18" fill="#000000" class="active-path" d="m281.6,221.867l34.133,0c4.71,0 8.533,-3.823 8.533,-8.533l0,-51.2c0,-4.71 -3.823,-8.533 -8.533,-8.533l-34.133,0c-4.71,0 -8.533,3.823 -8.533,8.533l0,51.2c0,4.71 3.823,8.533 8.533,8.533zm8.533,-51.2l17.067,0l0,34.133l-17.067,0l0,-34.133z"/>
      <path id="svg_19" fill="#000000" class="active-path" d="m8.533,298.667c4.71,0 8.533,-3.823 8.533,-8.533l0,-68.267l93.867,0c4.71,0 8.533,-3.823 8.533,-8.533c0,-4.71 -3.823,-8.533 -8.533,-8.533l-93.866,0l0,-8.533c0,-4.71 -3.823,-8.533 -8.533,-8.533s-8.534,3.821 -8.534,8.532l0,93.867c0,4.71 3.823,8.533 8.533,8.533z"/>
     </g>
    </g>
   </g>
  </g>
 </g>
</svg>