<?xml version="1.0"?>
<svg xmlns="http://www.w3.org/2000/svg" xmlns:xlink="http://www.w3.org/1999/xlink" version="1.1" id="Layer_1" x="0px" y="0px" viewBox="0 0 511.986 511.986" style="enable-background:new 0 0 511.986 511.986;" xml:space="preserve" width="512px" height="512px"><g transform="matrix(0.636186 0 0 0.636186 93.1339 93.1339)"><g>
	<g>
		<path d="M490.639,234.657c-5.875,0-10.656,4.781-10.656,10.671v117.317h-95.997c-5.891,0-10.656,4.78-10.656,10.687v32v95.996    c0,5.875,4.766,10.656,10.656,10.656s10.656-4.781,10.656-10.656v-85.341h85.341v85.341c0,5.875,4.781,10.656,10.656,10.656    c5.905,0,10.687-4.781,10.687-10.656v-95.996v-32V245.328C501.325,239.438,496.544,234.657,490.639,234.657z M479.982,394.644    h-85.341v-10.656h85.341V394.644z" data-original="#000000" class="active-path" data-old_color="#8c8c8c" fill="#8c8c8c"/>
	</g>
</g><g>
	<g>
		<path d="M127.993,362.645H31.996V245.328c0-5.891-4.773-10.671-10.664-10.671c-5.89,0-10.671,4.781-10.671,10.671v128.004v32    v95.996c0,5.875,4.781,10.656,10.671,10.656c5.891,0,10.664-4.781,10.664-10.656v-85.341h85.333v85.341    c0,5.875,4.773,10.656,10.664,10.656s10.664-4.781,10.664-10.656v-95.996v-32C138.657,367.426,133.884,362.645,127.993,362.645z     M117.329,394.644H31.996v-10.656h85.333V394.644z" data-original="#000000" class="active-path" data-old_color="#8c8c8c" fill="#8c8c8c"/>
	</g>
</g><g>
	<g>
		<path d="M494.294,107.302L266.653,24.531V10.664C266.653,4.773,261.88,0,255.989,0c-5.89,0-10.664,4.773-10.664,10.664v13.867    L17.684,107.302c-4.21,1.539-7.023,5.546-7.023,10.031v21.328c0,5.89,4.781,10.671,10.671,10.671h223.993v138.66H106.658    c-5.891,0-10.664,4.781-10.664,10.656v31.999c0,5.906,4.773,10.688,10.664,10.688H223.99v149.308h-31.999    c-5.89,0-10.664,4.78-10.664,10.687c0,5.875,4.773,10.656,10.664,10.656h42.663h42.679h42.654c5.891,0,10.656-4.781,10.656-10.656    c0-5.906-4.766-10.687-10.656-10.687h-31.999V341.334h117.341c5.875,0,10.655-4.781,10.655-10.688v-31.999    c0-5.875-4.78-10.656-10.655-10.656H266.653v-138.66h223.985c5.905,0,10.687-4.781,10.687-10.671v-21.328    C501.325,112.848,498.513,108.841,494.294,107.302z M266.653,490.641h-21.328V341.334h21.328V490.641z M394.641,309.334v10.656    H277.333h-42.679H117.329v-10.656H394.641z M479.982,127.996H31.996v-3.195L255.989,43.35l223.993,81.451V127.996z" data-original="#000000" class="active-path" data-old_color="#8c8c8c" fill="#8c8c8c"/>
	</g>
</g></g> </svg>
