<?xml version="1.0"?>
<svg xmlns="http://www.w3.org/2000/svg" xmlns:xlink="http://www.w3.org/1999/xlink" version="1.1" id="Capa_1" x="0px" y="0px" viewBox="0 0 512 512" style="enable-background:new 0 0 512 512;" xml:space="preserve" width="512px" height="512px" class=""><g transform="matrix(0.826169 0 0 0.826169 44.5008 44.5008)"><g>
  <g>
    <g>
      <path d="M437.333,234.667h-42.667c-4.594,0-8.667,2.938-10.115,7.292l-18.902,56.708h-2.983V97.729     c0-14.156,2.271-28.146,6.74-41.573c4.396-13.167,2.26-27.177-5.854-38.438C355.438,6.458,342.823,0,328.938,0H183.063     c-13.885,0-26.5,6.458-34.615,17.719c-8.115,11.26-10.25,25.271-5.854,38.438c4.469,13.427,6.74,27.417,6.74,41.573v200.938     h-2.983l-18.902-56.708c-1.448-4.354-5.521-7.292-10.115-7.292H74.667c-5.896,0-10.667,4.771-10.667,10.667     C64,251.229,68.771,256,74.667,256h34.979l15.297,45.882c-10.767,5.159-18.276,16.07-18.276,28.785c0,17.646,14.354,32,32,32h96     V416c0,1.656,0.385,3.292,1.125,4.771l5.352,10.704l-63.764,23.708c-2.865-4.393-7.014-7.184-12.046-7.184     c-9.271,0-16,8.969-16,21.333c0,12.365,6.729,21.333,16,21.333c7.228,0,12.792-5.534,14.945-13.796l65.055-24.189v21.971     c-3.266,3.819-5.333,9.336-5.333,16.013c0,12.365,6.729,21.333,16,21.333s16-8.969,16-21.333c0-6.677-2.068-12.194-5.333-16.013     v-21.971l65.055,24.189c2.154,8.262,7.717,13.796,14.945,13.796c9.271,0,16-8.969,16-21.333c0-12.365-6.729-21.333-16-21.333     c-5.031,0-9.181,2.79-12.046,7.184l-63.764-23.708l5.352-10.704c0.74-1.479,1.125-3.115,1.125-4.771v-53.333h96     c17.646,0,32-14.354,32-32c0-12.715-7.509-23.626-18.276-28.785L402.354,256h34.979c5.896,0,10.667-4.771,10.667-10.667     C448,239.438,443.229,234.667,437.333,234.667z M165.76,30.188c4.052-5.625,10.365-8.854,17.302-8.854h145.875     c6.938,0,13.25,3.229,17.302,8.854c4.063,5.635,5.125,12.635,2.938,19.219c-5.208,15.604-7.844,31.865-7.844,48.323v200.938     H170.667V97.729c0-16.458-2.635-32.719-7.844-48.323C160.635,42.823,161.698,35.823,165.76,30.188z M373.333,341.333H138.667     c-5.885,0-10.667-4.781-10.667-10.667c0-5.885,4.781-10.667,10.667-10.667h234.667c5.885,0,10.667,4.781,10.667,10.667     C384,336.552,379.219,341.333,373.333,341.333z" data-original="#000000" class="active-path" data-old_color="#8c8c8c" fill="#8c8c8c"/>
      <path d="M202.667,85.333h106.667c5.896,0,10.667-4.771,10.667-10.667C320,68.771,315.229,64,309.333,64H202.667     C196.771,64,192,68.771,192,74.667C192,80.563,196.771,85.333,202.667,85.333z" data-original="#000000" class="active-path" data-old_color="#8c8c8c" fill="#8c8c8c"/>
    </g>
  </g>
</g></g> </svg>
