<?xml version="1.0"?>
<svg xmlns="http://www.w3.org/2000/svg" xmlns:xlink="http://www.w3.org/1999/xlink" version="1.1" id="Capa_1" x="0px" y="0px" viewBox="0 0 460 460" style="enable-background:new 0 0 460 460;" xml:space="preserve" width="512px" height="512px" class=""><g transform="matrix(0.868746 0 0 0.868746 30.1884 30.1884)"><g id="XMLID_1429_">
  <path id="XMLID_1441_" d="M339.916,0H120.084C96.589,0,77.474,19.115,77.474,42.611v374.779c0,23.496,19.115,42.611,42.611,42.611   h219.832c23.496,0,42.611-19.115,42.611-42.611V42.611C382.526,19.115,363.411,0,339.916,0z M120.084,14.526h219.832   c15.486,0,28.084,12.598,28.084,28.084v102.653H92V42.611C92,27.125,104.598,14.526,120.084,14.526z M339.916,445.474H120.084   c-15.486,0-28.084-12.598-28.084-28.084v-257.6h276v257.6C368,432.875,355.402,445.474,339.916,445.474z" data-original="#000000" class="active-path" data-old_color="#8c8c8c" fill="#8c8c8c"/>
  <path id="XMLID_1457_" d="M336.526,261.474H123.474c-4.011,0-7.263,3.252-7.263,7.263v135.579c0,4.011,3.252,7.263,7.263,7.263   h213.053c4.011,0,7.263-3.252,7.263-7.263V268.737C343.789,264.726,340.538,261.474,336.526,261.474z M329.263,397.053H130.737V276   h198.526V397.053z" data-original="#000000" class="active-path" data-old_color="#8c8c8c" fill="#8c8c8c"/>
  <path id="XMLID_1460_" d="M230,372.842c20.025,0,36.316-16.291,36.316-36.316S250.025,300.211,230,300.211   s-36.316,16.291-36.316,36.316S209.975,372.842,230,372.842z M230,314.737c12.015,0,21.789,9.775,21.789,21.789   c0,12.015-9.775,21.789-21.789,21.789s-21.789-9.775-21.789-21.789C208.211,324.511,217.985,314.737,230,314.737z" data-original="#000000" class="active-path" data-old_color="#8c8c8c" fill="#8c8c8c"/>
  <path id="XMLID_1463_" d="M225.071,235.335c1.392,1.285,3.16,1.928,4.929,1.928s3.537-0.643,4.929-1.928l41.934-38.737   c2.196-2.029,2.925-5.197,1.835-7.981c-1.089-2.785-3.774-4.617-6.764-4.617h-83.868c-2.99,0-5.675,1.832-6.764,4.617   c-1.089,2.785-0.361,5.952,1.835,7.981L225.071,235.335z M253.367,198.526L230,220.112l-23.367-21.586H253.367z" data-original="#000000" class="active-path" data-old_color="#8c8c8c" fill="#8c8c8c"/>
  <path id="XMLID_1464_" d="M133.158,117.756c4.011,0,7.263-3.252,7.263-7.263V87.158h17.215c4.011,0,7.263-3.252,7.263-7.263   s-3.252-7.263-7.263-7.263h-17.215V56.56h23.335c4.011,0,7.263-3.252,7.263-7.263s-3.252-7.263-7.263-7.263h-30.598   c-4.011,0-7.263,3.252-7.263,7.263v61.196C125.895,114.504,129.147,117.756,133.158,117.756z" data-original="#000000" class="active-path" data-old_color="#8c8c8c" fill="#8c8c8c"/>
  <path id="XMLID_1465_" d="M296.244,117.756h30.598c4.011,0,7.263-3.252,7.263-7.263c0-4.011-3.252-7.263-7.263-7.263h-23.335   V87.158h17.215c4.011,0,7.263-3.252,7.263-7.263s-3.252-7.263-7.263-7.263h-17.215V56.56h23.335c4.011,0,7.263-3.252,7.263-7.263   s-3.252-7.263-7.263-7.263h-30.598c-4.011,0-7.263,3.252-7.263,7.263v61.196C288.981,114.504,292.233,117.756,296.244,117.756z" data-original="#000000" class="active-path" data-old_color="#8c8c8c" fill="#8c8c8c"/>
  <path id="XMLID_1466_" d="M191.263,117.756c4.011,0,7.263-3.252,7.263-7.263V49.297c0-4.011-3.252-7.263-7.263-7.263   c-4.011,0-7.263,3.252-7.263,7.263v61.196C184,114.504,187.252,117.756,191.263,117.756z" data-original="#000000" class="active-path" data-old_color="#8c8c8c" fill="#8c8c8c"/>
  <path id="XMLID_1469_" d="M228.001,117.756c4.011,0,7.263-3.252,7.263-7.263V90.422h10.831l5.458,21.833   c0.825,3.301,3.786,5.504,7.04,5.504c0.583,0,1.176-0.071,1.767-0.219c3.892-0.973,6.258-4.916,5.285-8.808L260.83,89.47   c6.483-2.277,11.152-8.443,11.152-15.695V58.68c0-9.179-7.467-16.647-16.647-16.647h-27.334c-4.011,0-7.263,3.252-7.263,7.263   v61.196C220.738,114.504,223.99,117.756,228.001,117.756z M257.456,58.68v15.095c0,1.169-0.951,2.12-2.12,2.12h-20.071V56.56   h20.071C256.504,56.56,257.456,57.511,257.456,58.68z" data-original="#000000" class="active-path" data-old_color="#8c8c8c" fill="#8c8c8c"/>
</g></g> </svg>
