<?xml version="1.0" encoding="UTF-8"?>
<svg width="20px" height="20px" viewBox="0 0 20 20" version="1.1" xmlns="http://www.w3.org/2000/svg" xmlns:xlink="http://www.w3.org/1999/xlink">
    <!-- Generator: Sketch 51.2 (57519) - http://www.bohemiancoding.com/sketch -->
    <title>key</title>
    <desc>Created with Sketch.</desc>
    <defs></defs>
    <g id="Page-1" stroke="none" stroke-width="1" fill="none" fill-rule="evenodd">
        <g id="key" fill-rule="nonzero">
            <polygon id="Shape" fill="#BEC8D6" points="11.5189063 10.3537622 0.0028515625 19.9553607 0.008046875 17.3642105 9.01085933 8.37898633"></polygon>
            <path d="M18.2984765,1.69536063 C16.0340235,-0.5651462 12.3620313,-0.5651462 10.0971093,1.69536063 C8.28527347,3.50366471 7.92320307,6.2111501 9.01085933,8.37894733 C9.28195313,8.9205458 9.6444922,9.42900587 10.0971093,9.88074073 L0.0028515625,19.9553607 L5.0369531,19.9610527 L5.0369531,17.5175049 L7.4857422,17.5175049 L7.4857422,15.0734893 L9.93406253,15.0734893 L9.93406253,12.6299415 L11.6018359,10.9649513 C13.7743359,12.0504873 16.4866407,11.6891228 18.2984765,9.88081873 C20.5633985,7.62027287 20.5633985,3.95586745 18.2984765,1.69536063 Z M16.7177343,5.7482651 C16.0329687,6.4316959 14.9226563,6.4316959 14.2378515,5.7482651 C13.5530859,5.0648343 13.5530859,3.95668616 14.2378515,3.27321637 C14.9226172,2.58978557 16.0329687,2.58978557 16.7177343,3.27321637 C17.4025391,3.95668616 17.4025391,5.0647953 16.7177343,5.7482651 Z" id="Shape" fill="#A2A9AF"></path>
        </g>
    </g>
</svg>