<?xml version="1.0"?>
<svg xmlns="http://www.w3.org/2000/svg" xmlns:xlink="http://www.w3.org/1999/xlink" version="1.1" id="Capa_1" x="0px" y="0px" viewBox="0 0 496.525 496.525" style="enable-background:new 0 0 496.525 496.525;" xml:space="preserve" width="512px" height="512px"><g transform="matrix(0.696413 0 0 0.696413 75.3692 75.3692)"><g>
	<path d="M453.721,273.728c20.814-6.737,35.91-26.295,35.91-49.322c0-28.583-23.255-51.837-51.839-51.837   c-28.581,0-51.834,23.253-51.834,51.836c0,23.027,15.098,42.586,35.909,49.323c-19.147,5.403-34.359,20.281-40.207,39.241   l-13.877-70.43c-0.393-1.992-2.14-3.428-4.17-3.428h-34.195c-3.466-18.386-13.147-35.173-27.446-47.44   c-10.428-8.946-22.871-15.083-36.137-17.99c19.029-7.181,32.603-25.573,32.603-47.084c0-27.742-22.569-50.312-50.311-50.312   c-27.741,0-50.311,22.57-50.311,50.312c0,21.511,13.573,39.903,32.603,47.084c-13.266,2.907-25.709,9.044-36.137,17.99   c-14.299,12.267-23.98,29.054-27.446,47.44h-34.195c-2.03,0-3.777,1.436-4.17,3.428l-13.774,69.907   c-5.964-18.71-21.068-33.365-40.039-38.718c20.813-6.737,35.91-26.295,35.91-49.322c0-28.583-23.255-51.837-51.839-51.837   c-28.581,0-51.834,23.253-51.834,51.836c0,23.027,15.097,42.586,35.909,49.323C18.137,280.69,0,303.383,0,330.247v37.841   c0,2.347,1.902,4.25,4.25,4.25h98.646l-8.438,42.83c-0.246,1.247,0.08,2.539,0.887,3.521c0.808,0.982,2.012,1.551,3.283,1.551h299   c0.006,0,0.013,0,0.02,0c2.348,0,4.25-1.903,4.25-4.25c0-0.427-0.063-0.84-0.18-1.229l-8.358-42.422h98.917   c2.348,0,4.25-1.903,4.25-4.25v-37.84C496.525,303.383,478.389,280.69,453.721,273.728z M394.458,224.405   c0-23.896,19.44-43.336,43.336-43.336c23.896,0,43.337,19.441,43.337,43.337c0,23.896-19.44,43.336-43.337,43.336   C413.898,267.742,394.458,248.301,394.458,224.405z M206.316,126.598c0-23.055,18.756-41.812,41.811-41.812   c23.055,0,41.811,18.756,41.811,41.812c0,23.054-18.756,41.811-41.811,41.811C225.072,168.408,206.316,149.652,206.316,126.598z    M179.027,227.239h92.1c2.348,0,4.25-1.903,4.25-4.25c0-2.347-1.902-4.25-4.25-4.25h-88.138   c12.68-23.238,37.225-38.485,65.138-38.485c35.433,0,65.462,24.554,72.646,58.857H175.48   C176.341,235.003,177.542,231.042,179.027,227.239z M15.394,224.405c0-23.896,19.44-43.336,43.336-43.336   c23.896,0,43.337,19.441,43.337,43.337c0,23.896-19.44,43.336-43.337,43.336C34.835,267.742,15.394,248.301,15.394,224.405z    M8.5,363.838v-33.591c0-27.698,22.533-50.232,50.23-50.232c27.697,0,50.231,22.534,50.231,50.233v11.304l-0.103,0.521H49.128   c-2.348,0-4.25,1.903-4.25,4.25c0,2.347,1.902,4.25,4.25,4.25h58.057l-2.613,13.265H8.5z M103.796,411.739l3.251-16.5h215.08   c2.348,0,4.25-1.903,4.25-4.25c0-2.347-1.902-4.25-4.25-4.25H108.722l3.504-17.785c0.002-0.007,0.003-0.015,0.005-0.022   l15.991-81.163c0.576,0.291,1.217,0.47,1.905,0.47h124c2.348,0,4.25-1.903,4.25-4.25c0-2.347-1.902-4.25-4.25-4.25h-124   c-0.112,0-0.219,0.024-0.329,0.033l6.337-32.161h223.984l23.904,121.321c0.002,0.007,0.003,0.015,0.005,0.022l8.43,42.785H103.796z    M488.025,363.838h-96.342l-2.22-11.266h52.33c2.348,0,4.25-1.903,4.25-4.25c0-2.347-1.902-4.25-4.25-4.25h-53.992   c-0.226,0,0.216,0.032,0,0.066l-0.238-1.21v-12.682c0-27.698,22.533-50.232,50.23-50.232c27.697,0,50.231,22.534,50.231,50.233   V363.838z" data-original="#000000" class="active-path" data-old_color="#8c8c8c" fill="#8c8c8c"/>
	<path d="M437.794,287.507c-2.348,0-4.25,1.903-4.25,4.25c0,2.347,1.902,4.25,4.25,4.25c18.88,0,34.24,15.36,34.24,34.241   c0,2.347,1.902,4.25,4.25,4.25c2.348,0,4.25-1.903,4.25-4.25C480.534,306.681,461.361,287.507,437.794,287.507z" data-original="#000000" class="active-path" data-old_color="#8c8c8c" fill="#8c8c8c"/>
	<path d="M62.98,294.816c0-2.347-1.902-4.25-4.25-4.25c-21.88,0-39.68,17.801-39.68,39.681c0,2.347,1.902,4.25,4.25,4.25   c2.348,0,4.25-1.903,4.25-4.25c0-17.193,13.987-31.181,31.18-31.181C61.078,299.066,62.98,297.164,62.98,294.816z" data-original="#000000" class="active-path" data-old_color="#8c8c8c" fill="#8c8c8c"/>
	<path d="M325.127,279.739h-50c-2.348,0-4.25,1.903-4.25,4.25c0,2.347,1.902,4.25,4.25,4.25h50c2.348,0,4.25-1.903,4.25-4.25   C329.377,281.642,327.475,279.739,325.127,279.739z" data-original="#000000" class="active-path" data-old_color="#8c8c8c" fill="#8c8c8c"/>
</g></g> </svg>
