<svg viewBox="0 0 40 40" xmlns="http://www.w3.org/2000/svg">
  <g fill="none" fill-rule="evenodd">
    <circle fill="#56ACD2" cx="20" cy="20" r="20"/>
    <path d="M16.1 25.6c-.935 0-1.692.765-1.692 1.7 0 .935.757 1.7 1.692 1.7.935 0 1.7-.765 1.7-1.7 0-.935-.765-1.7-1.7-1.7Zm8.5 0c-.935 0-1.692.765-1.692 1.7 0 .935.757 1.7 1.692 1.7.935 0 1.7-.765 1.7-1.7 0-.935-.765-1.7-1.7-1.7Zm-7.565-4.25h6.332c.638 0 1.199-.349 1.488-.876L28 14.516l-1.488-.816-3.145 5.95h-5.966L13.78 12H11v1.7h1.7l3.06 6.451-1.147 2.075c-.621 1.139.195 2.524 1.487 2.524h10.2v-1.7H16.1l.935-1.7Z" fill="#FFF" fill-rule="nonzero"/>
  </g>
</svg>
