<svg viewBox="0 0 40 40" xmlns="http://www.w3.org/2000/svg">
  <g fill="none" fill-rule="evenodd">
    <circle fill="#E59B42" cx="20" cy="20" r="20"/>
    <path d="M24.583 20H20v4.583h4.583V20Zm-.916-10.083v1.833h-7.334V9.917H14.5v1.833h-.917a1.825 1.825 0 0 0-1.824 1.833l-.009 12.834c0 1.008.816 1.833 1.833 1.833h12.834a1.839 1.839 0 0 0 1.833-1.833V13.583a1.839 1.839 0 0 0-1.833-1.833H25.5V9.917h-1.833Zm2.75 16.5H13.583V16.333h12.834v10.084Z" fill="#FFF"/>
    <path d="M9 9h22v22H9z"/>
  </g>
</svg>
