<?xml version="1.0" encoding="UTF-8"?>
<svg width="40px" height="40px" viewBox="0 0 40 40" version="1.1" xmlns="http://www.w3.org/2000/svg" xmlns:xlink="http://www.w3.org/1999/xlink">
    <title>CALENDER Copy</title>
    <g id="Page-1" stroke="none" stroke-width="1" fill="none" fill-rule="evenodd">
        <g id="Item_Summary_No-description_Revamp" transform="translate(-392.000000, -345.000000)">
            <g id="Mid" transform="translate(372.000000, 315.000000)">
                <g id="CALENDER-Copy" transform="translate(20.000000, 30.000000)">
                    <circle id="Oval" fill="#D67272" cx="20" cy="20" r="20"></circle>
                    <g id="meeting_room_black_24dp" transform="translate(9.000000, 9.000000)">
                        <polygon id="Path" points="0 0 22 0 22 22 0 22"></polygon>
                        <path d="M17.4166667,17.4166667 L17.4166667,3.66666667 L13.75,3.66666667 L13.75,2.75 L4.58333333,2.75 L4.58333333,17.4166667 L2.75,17.4166667 L2.75,19.25 L13.75,19.25 L13.75,5.5 L15.5833333,5.5 L15.5833333,19.25 L19.25,19.25 L19.25,17.4166667 L17.4166667,17.4166667 Z M11.9166667,17.4166667 L6.41666667,17.4166667 L6.41666667,4.58333333 L11.9166667,4.58333333 L11.9166667,17.4166667 Z M9.16666667,10.0833333 L11,10.0833333 L11,11.9166667 L9.16666667,11.9166667 L9.16666667,10.0833333 Z" id="Shape" fill="#FFFFFF" fill-rule="nonzero"></path>
                    </g>
                </g>
            </g>
        </g>
    </g>
</svg>
