<?xml version="1.0"?>
<svg xmlns="http://www.w3.org/2000/svg" xmlns:xlink="http://www.w3.org/1999/xlink" version="1.1" id="Capa_1" x="0px" y="0px" viewBox="0 0 460.278 460.278" style="enable-background:new 0 0 460.278 460.278;" xml:space="preserve" width="512px" height="512px" class=""><g transform="matrix(0.970299 0 0 0.970299 6.83535 6.83535)"><g>
	<path style="fill:#ED6E6E" d="M313.731,276.898h-83.592c-8.882,0-15.673-6.792-15.673-15.673V151.51   c0-8.882,6.792-15.673,15.673-15.673s15.673,6.792,15.673,15.673v94.041h67.918c8.882,0,15.673,6.792,15.673,15.673   C329.404,270.106,322.612,276.898,313.731,276.898z" data-original="#4DCFE0" class="active-path" data-old_color="#ed6e6e"/>
</g><g>
	<path style="fill:#ED6E6E" d="M417.698,125.388c-4.18,0-7.837-1.567-10.971-4.702l-40.229-40.751   c-6.269-6.269-6.269-16.196,0-21.943c6.269-6.269,16.196-6.269,21.943,0l40.229,40.751c6.269,6.269,6.269,16.196,0,21.943   C425.535,123.82,421.878,125.388,417.698,125.388z" data-original="#1185E0" class="" data-old_color="#ed6e6e"/>
	<path style="fill:#ED6E6E" d="M42.58,125.388c-4.18,0-7.837-1.567-10.971-4.702c-6.269-6.269-6.269-16.196,0-21.943l40.229-40.751   c6.269-6.269,16.196-6.269,21.943,0c6.269,6.269,6.269,16.196,0,21.943l-40.229,40.751C50.416,123.82,46.759,125.388,42.58,125.388   z" data-original="#1185E0" class="" data-old_color="#ed6e6e"/>
	<path style="fill:#ED6E6E" d="M346.645,402.286c45.453-35.004,75.233-90.384,75.233-152.033   c0-105.535-86.204-191.739-191.739-191.739S38.4,144.718,38.4,250.253c0,61.649,29.257,117.029,75.233,152.033l-31.347,31.347   c-6.269,6.269-6.269,16.196,0,21.943c3.135,3.135,7.314,4.702,10.971,4.702s7.837-1.567,10.971-4.702l36.049-36.049   c26.645,14.106,57.469,22.465,89.861,22.465s62.694-8.359,89.861-22.465l36.049,36.049c3.135,3.135,7.314,4.702,10.971,4.702   s7.837-1.567,10.971-4.702c6.269-6.269,6.269-16.196,0-21.943L346.645,402.286z M69.747,250.253   c0-88.294,72.098-160.392,160.392-160.392s160.392,72.098,160.392,160.392s-72.098,160.392-160.392,160.392   C141.845,410.645,69.747,338.547,69.747,250.253z" data-original="#1185E0" class="" data-old_color="#ed6e6e"/>
</g></g> </svg>
