<?xml version="1.0" encoding="UTF-8"?>
<svg width="20px" height="16px" viewBox="0 0 20 16" version="1.1" xmlns="http://www.w3.org/2000/svg" xmlns:xlink="http://www.w3.org/1999/xlink">
    <!-- Generator: Sketch 48.2 (47327) - http://www.bohemiancoding.com/sketch -->
    <title>doughnut</title>
    <desc>Created with Sketch.</desc>
    <defs></defs>
    <g id="Artboard" stroke="none" stroke-width="1" fill="none" fill-rule="evenodd" transform="translate(-598.000000, -98.000000)">
        <g id="doughnut" transform="translate(598.000000, 98.000000)">
            <rect id="Rectangle-8" stroke="#EF508F" x="0.5" y="0.5" width="19" height="15" rx="1.20000005"></rect>
            <path d="M11.2940952,12.8296291 C8.62676471,13.5443382 5.88507993,11.9614257 5.17037087,9.29409523 C4.45566181,6.62676471 6.03857426,3.88507993 8.70590477,3.17037087 C11.3732353,2.45566181 14.1149201,4.03857426 14.8296291,6.70590477 C15.5443382,9.37323529 13.9614257,12.1149201 11.2940952,12.8296291 Z M10.738554,10.7563209 C12.260828,10.3484288 13.164213,8.78372004 12.7563209,7.26144604 C12.3484288,5.73917203 10.78372,4.83578699 9.26144604,5.24367908 C7.73917203,5.65157117 6.83578699,7.21627996 7.24367908,8.73855396 C7.65157117,10.260828 9.21627996,11.164213 10.738554,10.7563209 Z" id="Combined-Shape" fill="#EF508F"></path>
            <path d="M10.7409922,10.7556665 C12.0126357,10.4137503 12.8517708,9.26432674 12.8542561,8.00738917 C14.2855803,8.00987324 15.0012419,8.00818365 15.0012409,8.00232041 C15.0016039,10.2102813 13.5282481,12.2309897 11.2940952,12.8296291 C11.2964526,12.8289975 11.1120849,12.1376766 10.7409922,10.7556665 Z" id="Combined-Shape" fill="#FFC4DB"></path>
            <path d="M12.8542599,8.00488378 C12.8545281,7.75941567 12.8228848,7.50986581 12.7563209,7.26144604 C12.5011944,6.30930079 11.7934983,5.59927711 10.9266876,5.30080128 C11.3923481,3.94756658 11.6274705,3.27174302 11.6320549,3.27333061 C13.1470929,3.79799193 14.3834118,5.04059891 14.8296291,6.70590477 C14.9460259,7.14030327 15.0014827,7.57667386 15.0012402,8.00593983 C15.0012394,8.00738401 14.2855793,8.00703199 12.8542599,8.00488378 Z" id="Combined-Shape" fill="#FA90BA"></path>
        </g>
    </g>
</svg>