<?xml version="1.0" encoding="UTF-8"?>
<svg width="20px" height="16px" viewBox="0 0 20 16" version="1.1" xmlns="http://www.w3.org/2000/svg" xmlns:xlink="http://www.w3.org/1999/xlink">
    <!-- Generator: Sketch 48.2 (47327) - http://www.bohemiancoding.com/sketch -->
    <title>heatmap</title>
    <desc>Created with Sketch.</desc>
    <defs></defs>
    <g id="Artboard" stroke="none" stroke-width="1" fill="#fff" fill-rule="evenodd" transform="translate(-528.000000, -98.000000)">
        <g id="heatmap" transform="translate(528.000000, 98.000000)">
            <rect id="Rectangle-8" stroke="#EF508F" x="0.5" y="0.5" width="19" height="15" rx="1.20000005"></rect>
            <rect id="Rectangle-3" fill="#FA90BA" x="12" y="12" width="5" height="1"></rect>
            <rect id="Rectangle-3" fill="#EF508F" x="7" y="12" width="2" height="1"></rect>
            <rect id="Rectangle-3" fill="#FFC4DB" x="9" y="12" width="3" height="1"></rect>
            <rect id="Rectangle-3" fill="#FFC4DB" x="3" y="12" width="4" height="1"></rect>
            <rect id="Rectangle-3" fill="#FA90BA" x="12" y="7" width="5" height="1"></rect>
            <rect id="Rectangle-3" fill="#EF508F" x="7" y="7" width="2" height="1"></rect>
            <rect id="Rectangle-3" fill="#FFC4DB" x="9" y="7" width="3" height="1"></rect>
            <rect id="Rectangle-3" fill="#FFC4DB" x="3" y="7" width="4" height="1"></rect>
            <rect id="Rectangle-3" fill="#FA90BA" x="12" y="9" width="3" height="1"></rect>
            <rect id="Rectangle-3" fill="#EF508F" x="7" y="9" width="2" height="1"></rect>
            <rect id="Rectangle-3" fill="#FFC4DB" x="9" y="9" width="3" height="1"></rect>
            <rect id="Rectangle-3" fill="#FFC4DB" x="15" y="9" width="2" height="1"></rect>
            <rect id="Rectangle-3" fill="#FFC4DB" x="3" y="9" width="4" height="1"></rect>
            <rect id="Rectangle-3" fill="#FA90BA" x="12" y="11" width="5" height="1"></rect>
            <rect id="Rectangle-3" fill="#EF508F" transform="translate(7.000000, 11.500000) scale(-1, 1) translate(-7.000000, -11.500000) " x="6" y="11" width="2" height="1"></rect>
            <rect id="Rectangle-3" fill="#EF508F" transform="translate(13.000000, 11.500000) scale(-1, 1) translate(-13.000000, -11.500000) " x="12" y="11" width="2" height="1"></rect>
            <rect id="Rectangle-3" fill="#FFC4DB" x="8" y="11" width="4" height="1"></rect>
            <rect id="Rectangle-3" fill="#FFC4DB" x="3" y="11" width="3" height="1"></rect>
            <rect id="Rectangle-3" fill="#FA90BA" x="12" y="8" width="5" height="1"></rect>
            <rect id="Rectangle-3" fill="#EF508F" transform="translate(7.000000, 8.500000) scale(-1, 1) translate(-7.000000, -8.500000) " x="6" y="8" width="2" height="1"></rect>
            <rect id="Rectangle-3" fill="#EF508F" transform="translate(13.000000, 8.500000) scale(-1, 1) translate(-13.000000, -8.500000) " x="12" y="8" width="2" height="1"></rect>
            <rect id="Rectangle-3" fill="#FFC4DB" x="8" y="8" width="4" height="1"></rect>
            <rect id="Rectangle-3" fill="#FFC4DB" x="3" y="8" width="3" height="1"></rect>
            <rect id="Rectangle-3" fill="#EF508F" transform="translate(3.500000, 8.500000) scale(-1, 1) translate(-3.500000, -8.500000) " x="3" y="8" width="1" height="1"></rect>
            <rect id="Rectangle-3" fill="#EF508F" transform="translate(4.500000, 11.500000) scale(-1, 1) translate(-4.500000, -11.500000) " x="4" y="11" width="1" height="1"></rect>
            <rect id="Rectangle-3" fill="#FA90BA" x="14" y="10" width="3" height="1"></rect>
            <rect id="Rectangle-3" fill="#EF508F" transform="translate(7.000000, 10.500000) scale(-1, 1) translate(-7.000000, -10.500000) " x="6" y="10" width="2" height="1"></rect>
            <rect id="Rectangle-3" fill="#FFC4DB" x="8" y="10" width="7" height="1"></rect>
            <rect id="Rectangle-3" fill="#FFC4DB" x="3" y="10" width="3" height="1"></rect>
            <rect id="Rectangle-3" fill="#EF508F" transform="translate(10.500000, 10.500000) scale(-1, 1) translate(-10.500000, -10.500000) " x="10" y="10" width="1" height="1"></rect>
            <rect id="Rectangle-3" fill="#FFC4DB" x="16" y="11" width="1" height="1"></rect>
            <rect id="Rectangle-3" fill="#FA90BA" x="12" y="3" width="5" height="1"></rect>
            <rect id="Rectangle-3" fill="#EF508F" transform="translate(7.000000, 3.500000) scale(-1, 1) translate(-7.000000, -3.500000) " x="6" y="3" width="2" height="1"></rect>
            <rect id="Rectangle-3" fill="#EF508F" transform="translate(13.000000, 3.500000) scale(-1, 1) translate(-13.000000, -3.500000) " x="12" y="3" width="2" height="1"></rect>
            <rect id="Rectangle-3" fill="#FFC4DB" x="8" y="3" width="4" height="1"></rect>
            <rect id="Rectangle-3" fill="#FFC4DB" x="3" y="3" width="3" height="1"></rect>
            <rect id="Rectangle-3" fill="#EF508F" transform="translate(4.500000, 3.500000) scale(-1, 1) translate(-4.500000, -3.500000) " x="4" y="3" width="1" height="1"></rect>
            <rect id="Rectangle-3" fill="#FFC4DB" x="16" y="3" width="1" height="1"></rect>
            <rect id="Rectangle-3" fill="#FA90BA" x="12" y="6" width="5" height="1"></rect>
            <rect id="Rectangle-3" fill="#EF508F" x="7" y="6" width="2" height="1"></rect>
            <rect id="Rectangle-3" fill="#FFC4DB" x="9" y="6" width="3" height="1"></rect>
            <rect id="Rectangle-3" fill="#FFC4DB" x="3" y="6" width="4" height="1"></rect>
            <rect id="Rectangle-3" fill="#FA90BA" x="12" y="5" width="5" height="1"></rect>
            <rect id="Rectangle-3" fill="#EF508F" transform="translate(7.000000, 5.500000) scale(-1, 1) translate(-7.000000, -5.500000) " x="6" y="5" width="2" height="1"></rect>
            <rect id="Rectangle-3" fill="#EF508F" transform="translate(13.000000, 5.500000) scale(-1, 1) translate(-13.000000, -5.500000) " x="12" y="5" width="2" height="1"></rect>
            <rect id="Rectangle-3" fill="#FFC4DB" x="8" y="5" width="4" height="1"></rect>
            <rect id="Rectangle-3" fill="#FFC4DB" x="3" y="5" width="3" height="1"></rect>
            <rect id="Rectangle-3" fill="#EF508F" transform="translate(4.500000, 6.500000) scale(-1, 1) translate(-4.500000, -6.500000) " x="4" y="6" width="1" height="1"></rect>
            <rect id="Rectangle-3" fill="#EF508F" transform="translate(14.500000, 6.500000) scale(-1, 1) translate(-14.500000, -6.500000) " x="14" y="6" width="1" height="1"></rect>
            <rect id="Rectangle-3" fill="#EF508F" transform="translate(15.500000, 7.500000) scale(-1, 1) translate(-15.500000, -7.500000) " x="15" y="7" width="1" height="1"></rect>
            <rect id="Rectangle-3" fill="#FA90BA" x="14" y="4" width="3" height="1"></rect>
            <rect id="Rectangle-3" fill="#EF508F" transform="translate(7.000000, 4.500000) scale(-1, 1) translate(-7.000000, -4.500000) " x="6" y="4" width="2" height="1"></rect>
            <rect id="Rectangle-3" fill="#FFC4DB" x="8" y="4" width="7" height="1"></rect>
            <rect id="Rectangle-3" fill="#FFC4DB" x="3" y="4" width="3" height="1"></rect>
            <rect id="Rectangle-3" fill="#EF508F" transform="translate(10.500000, 4.500000) scale(-1, 1) translate(-10.500000, -4.500000) " x="10" y="4" width="1" height="1"></rect>
            <rect id="Rectangle-3" fill="#FFC4DB" x="16" y="5" width="1" height="1"></rect>
        </g>
    </g>
</svg>
