<?xml version="1.0" encoding="UTF-8"?>
<svg width="20px" height="16px" viewBox="0 0 20 16" version="1.1" xmlns="http://www.w3.org/2000/svg" xmlns:xlink="http://www.w3.org/1999/xlink">
    <!-- Generator: Sketch 48.2 (47327) - http://www.bohemiancoding.com/sketch -->
    <title>stacked bar chart</title>
    <desc>Created with Sketch.</desc>
    <defs></defs>
    <g id="Artboard" stroke="none" stroke-width="1" fill="#fff" fill-rule="evenodd" transform="translate(-773.000000, -98.000000)">
        <g id="stacked-bar-chart" transform="translate(773.000000, 98.000000)">
            <rect id="Rectangle-8" stroke="#EF508F" x="0.5" y="0.5" width="19" height="15" rx="1.20000005"></rect>
            <path d="M3.30000001,5 L4.69999999,5 C4.86568542,5 5,5.13431458 5,5.30000001 L5,9 L3,9 L3,5.30000001 C3,5.13431458 3.13431458,5 3.30000001,5 Z" id="Rectangle" fill="#F7A1C3"></path>
            <path d="M3,9 L5,9 L5,12.7 C5,12.8656854 4.86568542,13 4.69999999,13 L3.30000001,13 C3.13431458,13 3,12.8656854 3,12.7 L3,9 Z" id="Rectangle" fill="#EF508F"></path>
            <path d="M7.30000001,7 L8.69999999,7 C8.86568542,7 9,7.13431458 9,7.30000001 L9,10 L7,10 L7,7.30000001 C7,7.13431458 7.13431458,7 7.30000001,7 Z" id="Rectangle" fill="#F7A1C3"></path>
            <path d="M7,10 L9,10 L9,12.7 C9,12.8656854 8.86568542,13 8.69999999,13 L7.30000001,13 C7.13431458,13 7,12.8656854 7,12.7 L7,10 Z" id="Rectangle" fill="#EF508F"></path>
            <path d="M11.3,9 L12.7,9 C12.8656854,9 13,9.13431458 13,9.30000001 L13,11 L11,11 L11,9.30000001 C11,9.13431458 11.1343146,9 11.3,9 Z" id="Rectangle" fill="#F7A1C3"></path>
            <path d="M11,11 L13,11 L13,12.7 C13,12.8656854 12.8656854,13 12.7,13 L11.3,13 C11.1343146,13 11,12.8656854 11,12.7 L11,11 Z" id="Rectangle" fill="#EF508F"></path>
            <path d="M15.3,11 L16.7,11 C16.8656854,11 17,11.1343146 17,11.3 L17,12 L15,12 L15,11.3 C15,11.1343146 15.1343146,11 15.3,11 Z" id="Rectangle" fill="#F7A1C3"></path>
            <path d="M15,12 L17,12 L17,12.7 C17,12.8656854 16.8656854,13 16.7,13 L15.3,13 C15.1343146,13 15,12.8656854 15,12.7 L15,12 Z" id="Rectangle" fill="#EF508F"></path>
        </g>
    </g>
</svg>
