<?xml version="1.0"?>
<svg xmlns="http://www.w3.org/2000/svg" xmlns:xlink="http://www.w3.org/1999/xlink" version="1.1" id="Capa_1" x="0px" y="0px" viewBox="0 0 497.694 497.694" style="enable-background:new 0 0 497.694 497.694;" xml:space="preserve" width="512px" height="512px" class=""><g><g>
	<g>
		<g>
			<path d="M472.094,0.377H24.847C11.294,0.377,0,11.671,0,25.224v344.094c0,13.553,11.294,24.847,24.847,24.847h161.129     l-23.341,43.671h-24.847c-4.518,0-7.529,3.012-7.529,7.529v44.424c0,4.518,3.012,7.529,7.529,7.529h222.118     c4.518,0,7.529-3.012,7.529-7.529v-44.424c0-4.518-3.012-7.529-7.529-7.529h-24.847l-23.341-43.671h161.129     c13.553,0,24.847-11.294,24.847-24.847V25.224C496.941,11.671,485.647,0.377,472.094,0.377z M352.376,452.894v29.365H145.318     v-29.365C234.165,452.894,259.765,452.894,352.376,452.894z M316.988,437.835H179.953l23.341-43.671h90.353L316.988,437.835z      M481.882,300.047h-22.588c-4.518,0-7.529,3.012-7.529,7.529s3.012,7.529,7.529,7.529h22.588v54.212     c0,6.024-4.518,9.788-9.788,9.788c-154.353,0-286.871,0-447.247,0c-5.271,0-9.788-3.765-9.788-9.788v-54.965h286.118     c4.518,0,7.529-3.012,7.529-7.529s-3.012-7.529-7.529-7.529H15.059V25.224c0-5.271,4.518-9.788,9.788-9.788h447.247     c5.271,0,9.788,4.518,9.788,9.788V300.047z" data-original="#000000" class="active-path" fill="#000000"/>
			<path d="M248.471,321.129c-13.553,0-24.847,11.294-24.847,24.847s11.294,24.847,24.847,24.847s24.847-11.294,24.847-24.847     S262.023,321.129,248.471,321.129z M248.471,355.765c-5.271,0-9.788-4.518-9.788-9.788c0-5.271,4.518-9.788,9.788-9.788     s9.788,4.518,9.788,9.788C258.259,351.247,253.741,355.765,248.471,355.765z" data-original="#000000" class="active-path" fill="#000000"/>
			<path d="M77.553,184.847H44.424c-4.518,0-7.529,3.012-7.529,7.529v67.765c0,4.518,3.012,7.529,7.529,7.529h33.129     c4.518,0,7.529-3.012,7.529-7.529v-67.765C85.082,187.859,82.071,184.847,77.553,184.847z M70.024,251.859H51.953v-52.706h18.071     V251.859z" data-original="#000000" class="active-path" fill="#000000"/>
			<path d="M143.812,103.529h-33.129c-4.518,0-7.529,3.012-7.529,7.529v148.329c0,4.518,3.012,7.529,7.529,7.529h33.129     c4.518,0,7.529-3.012,7.529-7.529V111.059C151.341,107.294,147.576,103.529,143.812,103.529z M136.282,251.859h-18.071V118.588     h18.071V251.859z" data-original="#000000" class="active-path" fill="#000000"/>
			<path d="M210.071,150.212h-33.129c-4.518,0-7.529,3.012-7.529,7.529v102.4c0,4.518,3.012,7.529,7.529,7.529h33.129     c4.518,0,7.529-3.012,7.529-7.529v-102.4C217.6,153.224,213.835,150.212,210.071,150.212z M202.541,251.859h-18.071v-86.588     h18.071V251.859z" data-original="#000000" class="active-path" fill="#000000"/>
			<path d="M275.576,149.459h-33.129c-4.518,0-7.529,3.012-7.529,7.529v102.4c0,4.518,3.012,7.529,7.529,7.529h33.129     c4.518,0,7.529-3.012,7.529-7.529v-102.4C283.106,153.224,280.094,149.459,275.576,149.459z M268.047,251.859h-18.071v-87.341     h18.071V251.859z" data-original="#000000" class="active-path" fill="#000000"/>
			<path d="M350.871,160v-59.482c0-4.518-3.012-7.529-7.529-7.529h-33.129c-4.518,0-7.529,3.012-7.529,7.529v103.153     c-27.859,57.224,13.553,124.235,77.553,124.235c15.059,0,28.612-3.765,40.659-10.541c27.859-14.306,45.929-42.918,45.929-76.047     C466.824,181.835,407.341,139.671,350.871,160z M317.741,108.8h18.071v58.729c-6.776,3.765-12.8,9.035-18.071,14.306V108.8z      M396.8,172.047l-21.082,60.235h-65.506C315.482,191.624,354.635,162.259,396.8,172.047z M309.459,247.341h66.259l31.624,60.235     C362.918,326.4,313.224,295.529,309.459,247.341z M420.894,300.047l-32.376-60.988l21.835-62.494     C460.8,200.659,466.071,269.176,420.894,300.047z" data-original="#000000" class="active-path" fill="#000000"/>
		</g>
	</g>
</g></g> </svg>
