<svg width="22" height="18" xmlns="http://www.w3.org/2000/svg"><g fill-rule="evenodd"><path d="M13.898 6.785c-.007.2.008.402-.025.597a1.926 1.926 0 0 1-.866 1.347c-.25.163-.53.231-.83.248.077.717-.23 1.206-.891 1.507.107.191.196.384.316.555.618.883 1.417 1.423 2.56 1.3.566-.06 1.014-.303 1.322-.787.292-.46.454-.965.536-1.498a5.542 5.542 0 0 0-.06-2.026 3.6 3.6 0 0 0-.454-1.172c-.178-.285-.395-.54-.708-.693-.161-.079-.337-.127-.497-.026-.233.148-.392.357-.403.648m-7.357-.456c-.186.315-.324.65-.315 1.025.008.361.24.582.605.577.288-.005.535-.125.771-.273.059-.037.114-.083.178-.105.51-.178 1.018-.175 1.515.05.295.133.52.35.694.616.646-.458 1.262-.358 1.75.006a3.15 3.15 0 0 0 .55-1.044c.288-.929.16-1.771-.502-2.523-.423-.481-.951-.618-1.56-.563-.718.065-1.375.314-1.994.666-.687.39-1.285.88-1.692 1.568m3.884 4.144c-.655-.287-.942-.784-.875-1.5-.724-.088-1.398.02-2.02.368-.708.397-1.096 1.02-1.208 1.805-.067.464.138.862.41 1.224.39.51.876.938 1.43 1.262.694.418 1.427.721 2.253.742.376.01.744-.029 1.08-.206.398-.21.484-.592.19-.928a1.738 1.738 0 0 0-.514-.409c-.359-.178-.587-.461-.755-.8-.256-.514-.266-1.035.009-1.558m.43-.45a.806.806 0 0 0 .821-.794.81.81 0 0 0-.797-.805.8.8 0 1 0-.024 1.599"/><path d="M10.866 15.596c-3.585-.004-6.482-2.927-6.438-6.453.044-3.449 2.902-6.334 6.5-6.299 3.588.035 6.419 2.948 6.383 6.48-.034 3.434-2.946 6.282-6.445 6.272m8.712-11.81h.837c.002-.522.005-1.054.006-1.601.004-.863-.677-1.836-1.838-1.838-2.197-.002-15.423 0-15.423 0-.893 0-1.619.718-1.619 1.603v1.836h.902c.64 0 1.159.513 1.159 1.147s-.52 1.148-1.16 1.148h-.9v6.277h.9c.64 0 1.16.513 1.16 1.147s-.52 1.147-1.16 1.147h-.9v1.293c0 1.085.889 1.964 1.984 1.962 3.37-.008 10.294-.022 14.912-.026a1.968 1.968 0 0 0 1.98-1.957v-1.272h-.84c-.64 0-1.16-.513-1.16-1.147s.52-1.147 1.16-1.147h.842l.001-.84c-.001-1.936-.006-3.67-.008-5.437h-.835c-.64 0-1.16-.514-1.16-1.148 0-.634.52-1.147 1.16-1.147z"/><path d="M2.275 5.623h-1.07A.701.701 0 0 1 .5 4.925a.7.7 0 0 1 .705-.697h1.07a.7.7 0 0 1 .704.697.701.701 0 0 1-.704.698m18.503 0h-1.07a.701.701 0 0 1-.705-.698.7.7 0 0 1 .705-.697h1.07a.7.7 0 0 1 .704.697.701.701 0 0 1-.704.698M2.275 14.2h-1.07a.701.701 0 0 1-.705-.7.7.7 0 0 1 .705-.697h1.07a.7.7 0 0 1 .704.697.701.701 0 0 1-.704.698m18.503.002h-1.07a.701.701 0 0 1-.705-.699.7.7 0 0 1 .705-.697h1.07a.7.7 0 0 1 .704.697.701.701 0 0 1-.704.698"/></g></svg>