<?xml version="1.0" encoding="iso-8859-1"?>
<!-- Generator: Adobe Illustrator 19.0.0, SVG Export Plug-In . SVG Version: 6.00 Build 0)  -->
<svg version="1.1" id="Capa_1" xmlns="http://www.w3.org/2000/svg" xmlns:xlink="http://www.w3.org/1999/xlink" x="0px" y="0px"
	 viewBox="0 0 512 512" style="enable-background:new 0 0 512 512; fill: #6d6c7e;" xml:space="preserve">
<g>
	<g>
		<path d="M371,222V107c0-35.841-29.159-65-65-65H206c-35.841,0-65,29.159-65,65v115H0v248h80V302h61v25c0,19.299,15.701,35,35,35
			h65v23h-35c-19.299,0-35,15.701-35,35v16.802c-3.103,3.524-5,8.134-5,13.198c0,11.046,8.954,20,20,20s20-8.954,20-20
			c0-5.064-1.897-9.675-5-13.198V420c0-2.757,2.243-5,5-5h35v21.802c-3.103,3.524-5,8.134-5,13.198c0,11.046,8.954,20,20,20
			s20-8.954,20-20c0-5.064-1.897-9.675-5-13.198V415h35c2.757,0,5,2.243,5,5v16.802c-3.103,3.524-5,8.134-5,13.198
			c0,11.046,8.954,20,20,20c11.046,0,20-8.954,20-20c0-5.064-1.897-9.675-5-13.198V420c0-19.299-15.701-35-35-35h-35v-23h65
			c19.299,0,35-15.701,35-35v-25h61v168h80V222H371z M171,107c0-19.299,15.701-35,35-35h100c19.299,0,35,15.701,35,35v115H171V107z
			 M50,440H30V302h20V440z M341,327c0,2.757-2.243,5-5,5H176c-2.757,0-5-2.243-5-5v-25h170V327z M482,440h-20V302h20V440z M482,272
			H30v-20h452V272z"/>
	</g>
</g>
<g>
	<g>
		<rect x="210" y="132" width="92" height="30"/>
	</g>
</g>
<g>
</g>
<g>
</g>
<g>
</g>
<g>
</g>
<g>
</g>
<g>
</g>
<g>
</g>
<g>
</g>
<g>
</g>
<g>
</g>
<g>
</g>
<g>
</g>
<g>
</g>
<g>
</g>
<g>
</g>
</svg>
