<?xml version="1.0" encoding="UTF-8"?>
<svg width="20px" height="20px" viewBox="0 0 20 20" version="1.1" xmlns="http://www.w3.org/2000/svg" xmlns:xlink="http://www.w3.org/1999/xlink">
    <!-- Generator: Sketch 52.5 (67469) - http://www.bohemiancoding.com/sketch -->
    <title>big-electric-fan</title>
    <desc>Created with Sketch.</desc>
    <g id="Page-1" stroke="none" stroke-width="1" fill="none" fill-rule="evenodd">
        <g id="Card_Template-1.1" transform="translate(-106.000000, -230.000000)" fill="#324056" fill-rule="nonzero">
            <g id="Group-4" transform="translate(90.000000, 136.000000)">
                <g id="Group-6">
                    <g id="big-electric-fan" transform="translate(16.000000, 94.000000)">
                        <path d="M10.005605,1.13420972 C14.8912101,1.13420972 18.8657323,5.11056761 18.8657323,9.99898094 C18.8657323,14.8863752 14.8891718,18.8627331 10.0015286,18.8637522 C5.1128662,18.8627331 1.13528661,14.8863752 1.13528661,9.99898094 C1.13528661,5.11056761 5.11184709,1.13420972 10.0025477,1.13420972 L10.005605,1.13420972 Z M10.0045859,0 L10.0025477,0 C10.0025477,0 10.0015286,0 10.0005095,0 C4.47898085,0 0,4.47773362 0,10 C0,15.5202283 4.47999996,19.9989809 10.0005095,20 C15.5199999,19.9989809 19.9999998,15.5202283 19.9999998,10 C20.0010189,4.47569551 15.5220381,0 10.0045859,0 Z" id="Shape"></path>
                        <path d="M16.3803376,10.8166967 L12.1255733,9.45451448 C12.1154418,9.32781367 12.0907356,9.20521642 12.0527565,9.08842075 C12.232379,9.02777303 12.417605,8.96220105 12.6047837,8.8915916 C14.297571,8.25316329 15.2730569,7.53925787 15.5040729,6.7696573 C15.6577439,6.2576751 15.4940545,5.74985306 15.0176742,5.26022816 C14.6418735,4.87395626 13.8112856,4.29603417 13.7760799,4.27166754 C13.6430681,4.1793517 13.460757,4.21076512 13.3663187,4.34205059 L10.7363359,7.99500722 C10.6686131,7.9862341 10.5996451,7.98119663 10.529545,7.98119663 C10.4812929,7.98119663 10.4335784,7.98371536 10.3864017,7.98793212 C10.3748552,6.6431829 10.2081942,4.92950991 9.50371282,4.15212673 C9.23007643,3.85016166 8.89669794,3.697 8.51277497,3.697 C8.51277497,3.697 8.51277497,3.697 8.51271837,3.697 C8.24907201,3.697 7.96233255,3.77233562 7.66065048,3.92088432 C7.28694395,4.10495 6.72062502,4.51190948 6.4669121,4.6992014 C6.3924538,4.75418905 6.34468275,4.79041353 6.33692845,4.79627171 C6.25641386,4.85745714 6.21585942,4.95195211 6.22013277,5.04602258 C6.22265151,5.10251014 6.24132976,5.1588279 6.27721464,5.20778756 L9.04496364,8.98269052 C9.01456903,9.05757333 8.9898062,9.13525788 8.97090154,9.21523476 C8.06636475,8.92040138 6.93211377,8.62695473 5.99871059,8.62695473 C5.26360818,8.62695473 4.7300894,8.81254863 4.41312512,9.17852916 C4.13380036,9.50101201 4.0328812,9.94694112 4.11331088,10.5040624 C4.19042942,11.0373548 4.5227325,11.9929455 4.53688269,12.0333867 C4.57944647,12.1555029 4.69403471,12.2323101 4.81680176,12.2323101 C4.84764918,12.2323101 4.8789211,12.227499 4.90971192,12.2173109 L9.41533073,10.7318239 C9.4652243,10.7802458 9.51808941,10.8257246 9.57398267,10.867411 C9.41765136,11.0815034 9.25537697,11.3129439 9.09579112,11.5555065 C8.10151383,13.0669167 7.73196745,14.2178649 7.99742502,14.9762302 C8.1741043,15.480826 8.60506251,15.7955262 9.27835688,15.9116144 C9.62605537,15.9716112 10.1751111,15.9842049 10.5745709,15.9842049 C10.7479108,15.9842049 10.8634895,15.9816861 10.8634895,15.9816861 C11.0252545,15.9782335 11.1544175,15.8457311 11.15371,15.6839095 L11.1338714,11.0656552 C11.2226214,11.0293458 11.3072395,10.9852821 11.3872447,10.9343414 C11.5185019,11.1132564 11.6580793,11.2977466 11.8064299,11.4837367 C12.927125,12.8881431 13.9009695,13.6002939 14.7009364,13.6002939 C15.0779823,13.6002939 15.6123784,13.4390667 16.0170456,12.6708811 C16.2680983,12.1942461 16.56146,11.225807 16.5737707,11.1848564 C16.6206078,11.0299118 16.5344898,10.8660526 16.3803376,10.8166967 Z M10.5294884,10.4045866 C10.075805,10.4045866 9.70784347,10.0366816 9.70784347,9.58282841 C9.70784347,9.1289752 10.075805,8.76112684 10.5294884,8.76112684 C10.9833417,8.76112684 11.3512466,9.1289752 11.3512466,9.58282841 C11.3512466,10.0367099 10.9833417,10.4045866 10.5294884,10.4045866 Z" id="Shape"></path>
                    </g>
                </g>
            </g>
        </g>
    </g>
</svg>