<?xml version="1.0" encoding="UTF-8"?>
<svg width="11px" height="18px" viewBox="0 0 11 18" version="1.1" xmlns="http://www.w3.org/2000/svg" xmlns:xlink="http://www.w3.org/1999/xlink">
    <!-- Generator: Sketch 51.2 (57519) - http://www.bohemiancoding.com/sketch -->
    <title>idea</title>
    <desc>Created with Sketch.</desc>
    <defs></defs>
    <g id="Page-1" stroke="none" stroke-width="1" fill="none" fill-rule="evenodd">
        <g id="FAHU-Card-Design-Copy" transform="translate(-63.000000, -165.000000)">
            <g id="idea" transform="translate(63.000000, 165.000000)">
                <path d="M5.50110987,0.660647422 C2.47959361,0.660647422 0.0213340807,3.11890695 0.0213340807,6.14042321 C0.0213340807,7.37699832 0.426804933,8.54540919 1.19335202,9.51876121 C1.34466368,9.71141536 1.50365191,9.895838 1.6719815,10.0910818 L1.68123038,10.1018105 C2.19620796,10.6992881 2.72866592,11.3172982 2.92751682,12.045 C2.97246637,12.2117573 2.97884809,12.531491 2.97625841,12.7777887 L2.97625841,13.1963929 C2.97625841,13.5794815 3.28683576,13.8900589 3.66992433,13.8900589 L7.30214406,13.8900589 C7.68523262,13.8900589 7.99580998,13.5794815 7.99580998,13.1963929 L7.99580998,12.7728868 C7.99349776,12.4512108 8.01014574,12.2164742 8.04371917,12.0946665 C8.24367993,11.3717741 8.83375841,10.6776457 9.35909473,10.0598206 L9.38175448,10.0331839 C9.53334361,9.85505045 9.67660874,9.68681334 9.80701794,9.52098094 C10.5746749,8.54707399 10.9804232,7.37810818 10.9804232,6.14042321 C10.9803307,3.11890695 8.52234865,0.660647422 5.50110987,0.660647422 Z M8.71685258,8.66286996 C8.60262892,8.80816984 8.46796525,8.96641816 8.32534753,9.13391536 L8.29741592,9.16674888 C7.6837528,9.88853139 6.98823711,10.7065947 6.70633128,11.7256362 C6.66646861,11.8702887 6.62216648,12.0867124 6.61088285,12.502727 L4.3622954,12.502727 C4.35267657,12.0609081 4.30763453,11.8343105 4.26647702,11.681704 C3.98438621,10.6491592 3.29007287,9.84348935 2.732088,9.19597534 L2.72274664,9.18506166 C2.56505325,9.00221132 2.4161463,8.82944226 2.28379484,8.66111267 C1.71128924,7.93415078 1.40866592,7.06244395 1.40866592,6.14042321 C1.40866592,3.88388173 3.24456839,2.04797926 5.50110987,2.04797926 C7.75737388,2.04797926 9.59299888,3.88388173 9.59299888,6.14042321 C9.59299888,7.06346132 9.29019058,7.93544563 8.71685258,8.66286996 Z" id="Shape" fill="#000000" fill-rule="nonzero"></path>
                <path d="M5.5,5 L5.5,7.5" id="Line-3" stroke="#000000" stroke-width="2" stroke-linecap="round"></path>
                <path d="M7.30205157,14.0869675 L3.66992433,14.0869675 C3.28683576,14.0869675 2.97625841,14.3975448 2.97625841,14.7806334 C2.97625841,15.163722 3.28683576,15.4742993 3.66992433,15.4742993 L7.30214406,15.4742993 C7.68523262,15.4742993 7.99580998,15.163722 7.99580998,14.7806334 C7.99580998,14.3975448 7.68514013,14.0869675 7.30205157,14.0869675 Z" id="Shape" fill="#000000" fill-rule="nonzero"></path>
                <path d="M6.39399664,15.6692657 L4.57797926,15.6692657 C4.1948907,15.6692657 3.88431334,15.979843 3.88431334,16.3629316 C3.88431334,16.7460202 4.1948907,17.0565975 4.57797926,17.0565975 L6.39399664,17.0565975 C6.7770852,17.0565975 7.08766256,16.7460202 7.08766256,16.3629316 C7.08766256,15.979843 6.7770852,15.6692657 6.39399664,15.6692657 Z" id="Shape" fill="#000000" fill-rule="nonzero"></path>
            </g>
        </g>
    </g>
</svg>