<?xml version="1.0" encoding="UTF-8"?>
<svg width="12px" height="19px" viewBox="0 0 12 19" version="1.1" xmlns="http://www.w3.org/2000/svg" xmlns:xlink="http://www.w3.org/1999/xlink">
    <!-- Generator: Sketch 51.2 (57519) - http://www.bohemiancoding.com/sketch -->
    <title>idea</title>
    <desc>Created with Sketch.</desc>
    <defs></defs>
    <g id="Page-1" stroke="none" stroke-width="1" fill="none" fill-rule="evenodd">
        <g id="FAHU-Card-Design-Copy" transform="translate(-315.000000, -122.000000)">
            <g id="Group-6-Copy" transform="translate(273.000000, 70.000000)">
                <g id="idea" transform="translate(42.000000, 52.000000)">
                    <path d="M6.00121076,1.22070628 C2.98115359,1.22070628 0.523273543,3.67858632 0.523273543,6.6986435 C0.523273543,7.93519324 0.927716818,9.10090803 1.69505668,10.0752674 C1.82687849,10.2431065 1.93759304,10.3745058 2.2026848,10.6819831 L2.21280248,10.6937196 C3.11437441,11.7397244 3.46880338,12.2500638 3.67642379,13.0098692 C3.73472223,13.2261493 3.75107206,13.5383323 3.74682735,13.9394058 L3.74682735,14.396065 C3.74682735,14.5378374 3.86178139,14.6527915 4.00355381,14.6527915 L7.96597534,14.6527915 C8.10774776,14.6527915 8.22270179,14.5378374 8.22270179,14.396065 L8.22271471,13.9376522 C8.21988047,13.5433527 8.24051627,13.2515246 8.29306283,13.0608813 C8.50044866,12.311146 8.88394157,11.7619109 9.82908241,10.6503721 L9.85385703,10.6212492 C10.0959157,10.3368045 10.1922367,10.2215233 10.3058851,10.0770049 C11.0738454,9.10271314 11.4786435,7.93649434 11.4786435,6.6986588 C11.4785511,3.67855543 9.020931,1.22070628 6.00121076,1.22070628 Z" id="Shape" stroke="#000000" fill="#FFFB36" fill-rule="nonzero"></path>
                    <path d="M6,5.45454545 L6,8.18181818" id="Line-3" stroke="#000000" stroke-width="2" stroke-linecap="round"></path>
                    <path d="M7.96587444,15.3676009 L4.00355381,15.3676009 C3.58563901,15.3676009 3.24682735,15.7064126 3.24682735,16.1243274 C3.24682735,16.5422422 3.58563901,16.8810538 4.00355381,16.8810538 L7.96597534,16.8810538 C8.38389013,16.8810538 8.72270179,16.5422422 8.72270179,16.1243274 C8.72270179,15.7064126 8.38378924,15.3676009 7.96587444,15.3676009 Z" id="Shape" fill="#000000" fill-rule="nonzero"></path>
                    <path d="M6.97526906,17.0937444 L4.99415919,17.0937444 C4.57624439,17.0937444 4.23743274,17.4325561 4.23743274,17.8504709 C4.23743274,18.2683857 4.57624439,18.6071973 4.99415919,18.6071973 L6.97526906,18.6071973 C7.39318386,18.6071973 7.73199552,18.2683857 7.73199552,17.8504709 C7.73199552,17.4325561 7.39318386,17.0937444 6.97526906,17.0937444 Z" id="Shape" fill="#000000" fill-rule="nonzero"></path>
                </g>
            </g>
        </g>
    </g>
</svg>
