<?xml version="1.0" encoding="UTF-8" standalone="no"?>
<svg width="21px" height="22px" viewBox="0 0 21 22" version="1.1" xmlns="http://www.w3.org/2000/svg" xmlns:xlink="http://www.w3.org/1999/xlink">
    <!-- Generator: Sketch 50.1 (55044) - http://www.bohemiancoding.com/sketch -->
    <title>iconfinder_b-99_4230281</title>
    <desc>Created with Sketch.</desc>
    <defs></defs>
    <g id="Page-1" stroke="none" stroke-width="1" fill="none" fill-rule="evenodd">
        <g id="Artboard" fill="#000000" fill-rule="nonzero">
            <g id="iconfinder_b-99_4230281" transform="translate(0.909836, 0.018916)">
                <path d="M5.35552891,7.16470758 C5.35552891,7.18270936 5.35552891,7.19171025 5.35552891,7.20071114 C5.35552891,7.26371736 5.37353069,7.32672359 5.40053336,7.38072892 L5.59855291,8.40683026 C5.59855291,8.40683026 5.59855291,8.40683026 5.59855291,8.40683026 C6.00359291,10.4680338 7.81277159,11.9531805 9.90997871,11.9531805 C12.0071858,11.9531805 13.8163645,10.4590329 14.2214045,8.39782937 L14.8334649,5.26552002 C15.0134827,3.95139024 14.6174436,2.61925868 13.7353565,1.62016001 C12.8442685,0.630062225 11.584144,0.0540053336 10.2610134,0.0540053336 L9.54094226,0.0540053336 C8.21781159,0.0540053336 6.94868625,0.630062225 6.07560002,1.6291609 C5.2025138,2.62825957 4.80647469,3.96039113 4.98649246,5.30152358 L5.35552891,7.16470758 Z M9.90097782,11.0890952 C8.21781159,11.0890952 6.76866847,9.89197693 6.45363736,8.24481426 L6.23761603,7.11970314 C6.30062225,6.5796498 6.59765158,5.32852624 7.33572447,4.8784818 C7.77676803,4.60845513 8.37982759,4.6354578 9.12690137,4.95048891 C10.9720836,5.74256713 12.4032249,5.75156802 13.3303165,5.59855291 C13.8073636,6.10260269 13.6363467,6.80467203 13.5913423,6.94868625 C13.5823414,6.98468981 13.5733405,7.05669692 13.5733405,7.10170136 C13.5733405,7.11070225 13.5733405,7.11070225 13.5733405,7.11970314 L13.3573192,8.25381514 C13.0332872,9.89197693 11.584144,11.0890952 9.90097782,11.0890952 Z M6.73266492,2.20521779 C7.44373514,1.39513778 8.46083559,0.927091559 9.54094226,0.927091559 L10.2610134,0.927091559 C11.3321192,0.927091559 12.3582205,1.39513778 13.0692907,2.20521779 C13.7533583,2.97929423 14.0683894,4.00539557 13.9693796,5.01349513 C13.8973725,4.93248713 13.8163645,4.86048002 13.7263556,4.78847291 C13.6273458,4.70746491 13.4923325,4.68046224 13.3663201,4.70746491 C12.5742418,4.8784818 11.2511112,4.91448535 9.46893515,4.14940979 C8.44283381,3.71736713 7.56974759,3.70836624 6.87667914,4.13140802 C6.4176338,4.41043557 6.10260269,4.84247824 5.87758047,5.29252269 L5.8505778,5.15750935 C5.70656358,4.09540446 6.03059558,3.01529779 6.73266492,2.20521779 Z" id="Shape"></path>
                <path d="M19.7479503,21.3771112 L18.4518223,15.2745085 C18.3438116,14.7704587 17.9747752,14.3474169 17.4887272,14.1764001 L13.6903521,12.8262667 C13.5283361,12.7722614 13.3573192,12.8082649 13.2403076,12.9252765 L9.90097782,16.2646063 L6.56164803,12.9252765 C6.44463647,12.8082649 6.26461869,12.7632605 6.11160358,12.8262667 L2.31322845,14.1764001 C1.82718045,14.3474169 1.45814401,14.7704587 1.35013334,15.2745085 L0.0540053336,21.3861121 C0.0270026668,21.5121245 0.0630062225,21.6471379 0.144014223,21.7551485 C0.225022223,21.8541583 0.351034668,21.9171645 0.486048002,21.9171645 L19.3339094,21.9171645 C19.4689227,21.9171645 19.5859343,21.8541583 19.6759432,21.7551485 C19.7479503,21.6471379 19.774953,21.5121245 19.7479503,21.3771112 Z M2.20521779,15.4545263 C2.25022223,15.238505 2.40323734,15.0674881 2.6012569,14.995481 L6.13860625,13.7353565 L9.58594671,17.182697 C9.7569636,17.3537138 10.0359912,17.3537138 10.207008,17.182697 L13.6543485,13.7353565 L17.1916978,14.995481 C17.3987183,15.0674881 17.5427325,15.238505 17.5967378,15.4545263 C17.5967378,15.4545263 17.992777,17.31471 18.7848552,21.0350774 L1.01710045,21.0350774 L2.20521779,15.4545263 Z" id="Shape"></path>
            </g>
        </g>
    </g>
</svg>