<?xml version="1.0" encoding="UTF-8"?>
<svg width="12px" height="21px" viewBox="0 0 12 21" version="1.1" xmlns="http://www.w3.org/2000/svg" xmlns:xlink="http://www.w3.org/1999/xlink">
    <!-- Generator: Sketch 51.2 (57519) - http://www.bohemiancoding.com/sketch -->
    <title>thermometer</title>
    <desc>Created with Sketch.</desc>
    <defs></defs>
    <g id="Page-1" stroke="none" stroke-width="1" fill="none" fill-rule="evenodd">
        <g id="FAHU-Card-Design-Copy" transform="translate(-70.000000, -207.000000)" fill="#000000" fill-rule="nonzero">
            <g id="Group-6" transform="translate(28.000000, 70.000000)">
                <g id="Group-5">
                    <g id="thermometer" transform="translate(42.000000, 137.000000)">
                        <path d="M11.9927861,2.66184971 L11.9927861,3.55345665 L8.53789595,3.55345665 L8.53789595,2.66184971 L11.9927861,2.66184971 Z M10.5439769,4.60501734 L8.53789595,4.60501734 L8.53789595,5.49662428 L10.5439769,5.49662428 L10.5439769,4.60501734 Z M8.53789595,7.43979191 L11.9927861,7.43979191 L11.9927861,6.54825434 L8.53789595,6.54825434 L8.53789595,7.43979191 Z M10.5439769,8.49190751 L8.53789595,8.49190751 L8.53789595,9.38351445 L10.5439769,9.38351445 L10.5439769,8.49190751 Z M8.53789595,11.3266821 L11.9927861,11.3266821 L11.9927861,10.4350751 L8.53789595,10.4350751 L8.53789595,11.3266821 Z M9.07643931,16.4069133 C9.07643931,18.8957688 7.05163006,20.920578 4.56277457,20.920578 C2.07391908,20.920578 0.0491098266,18.8957688 0.0491098266,16.4069133 C0.0491098266,14.7940578 0.896115607,13.3282543 2.2780578,12.5173873 L2.2780578,2.28471676 C2.27812717,1.02485549 3.30298266,0 4.56277457,0 C5.82256647,0 6.84749133,1.02485549 6.84749133,2.28471676 L6.84749133,12.5174566 C8.22943353,13.327422 9.07643931,14.7936416 9.07643931,16.4069133 Z M8.18483237,16.4069133 C8.18483237,15.0383584 7.4243237,13.8012486 6.19969942,13.1793988 L5.95588439,13.0554451 L5.95588439,2.28513295 C5.95588439,1.51657803 5.33091329,0.892023121 4.56277457,0.892023121 C3.7947052,0.892023121 3.16966474,1.51657803 3.16966474,2.28513295 L3.16966474,13.0554451 L2.92584971,13.1793988 C1.70122543,13.8017341 0.940716763,15.0387746 0.940716763,16.4069133 C0.940716763,18.4040462 2.56564162,20.0289711 4.56277457,20.0289711 C6.55990751,20.0289711 8.18483237,18.4040462 8.18483237,16.4069133 Z M7.44215029,16.4069133 C7.44215029,17.9943815 6.15065896,19.2858728 4.56277457,19.2858728 C2.97530636,19.2858728 1.68381503,17.9943815 1.68381503,16.4069133 C1.68381503,15.1056416 2.56293642,13.9630751 3.82182659,13.6283237 L3.98719075,13.5842081 L3.98719075,8.08536416 L5.1387052,8.08536416 L5.1387052,13.5837919 L5.30406936,13.6283931 C6.56351445,13.9630751 7.44215029,15.1061272 7.44215029,16.4069133 Z M4.70545665,14.487815 C4.63678613,14.1828902 4.33012717,13.982289 4.01757225,14.0535954 C2.9262659,14.3005318 2.16395376,15.2549827 2.16395376,16.3748671 C2.16395376,16.6917919 2.4220578,16.9499653 2.73905202,16.9499653 C3.05604624,16.9499653 3.31415029,16.6918613 3.31415029,16.3748671 C3.31415029,15.8055954 3.71625434,15.3009711 4.27123699,15.1756994 C4.57969942,15.1047399 4.77495954,14.7962775 4.70545665,14.487815 Z" id="Shape"></path>
                    </g>
                </g>
            </g>
        </g>
    </g>
</svg>