<?xml version="1.0" encoding="UTF-8"?>
<svg width="22px" height="22px" viewBox="0 0 22 22" version="1.1" xmlns="http://www.w3.org/2000/svg" xmlns:xlink="http://www.w3.org/1999/xlink">
    <!-- Generator: Sketch 52.5 (67469) - http://www.bohemiancoding.com/sketch -->
    <title>Group 10 Copy 2</title>
    <desc>Created with Sketch.</desc>
    <g id="Page-1" stroke="none" stroke-width="1" fill="none" fill-rule="evenodd">
        <g id="Group-10-Copy-2" transform="translate(1.000000, 1.000000)">
            <circle id="Oval" stroke="#000000" stroke-width="1.3" cx="10" cy="10" r="10"></circle>
            <g id="music-sound-wave-line" transform="translate(0.000000, 4.500000)" fill="#000000">
                <path d="M19.3270883,4.59517436 L14.5075016,4.59517436 L13.4867161,2.85948238 C13.3622871,2.64852849 13.0959874,2.53025244 12.8222555,2.56618245 C12.550082,2.60221527 12.3359274,2.78453823 12.2915741,3.01759499 L11.8353344,5.42716745 L11.4033691,7.70823486 L11.0672429,5.4565694 L10.3236057,0.476741768 C10.2854259,0.222404576 10.0461577,0.0254834397 9.74869085,0.00307215926 C9.45056467,-0.0168718243 9.17545426,0.139081903 9.08638801,0.383549907 L7.18746688,5.60506984 L6.61698738,7.17375667 L6.32647319,5.63806993 L5.89726498,3.36861938 C5.85207256,3.13067943 5.63018612,2.94635179 5.3514795,2.91535637 C5.07307256,2.88621143 4.80323659,3.01373984 4.68917666,3.2342545 L3.63051104,5.2732184 L0.635630915,5.2732184 C0.284760252,5.2732184 0,5.51742939 0,5.81833682 C0,6.11924424 0.284760252,6.36335243 0.635630915,6.36335243 L4.0434164,6.36335243 C4.29449211,6.36335243 4.52201262,6.23664645 4.6239653,6.03993092 L4.8022776,5.69687384 L4.9838265,5.34739151 L5.04789905,5.68731307 L5.7935142,9.63025917 C5.84050473,9.87991878 6.08181073,10.0686156 6.37604101,10.0867605 C6.67027129,10.1021811 6.93980757,9.9467414 7.02785489,9.70561453 L8.53772555,5.55341081 L9.43282334,3.09284754 L9.79286435,5.50550413 L10.6983312,11.570634 C10.7383691,11.8389525 11.0023312,12.0417335 11.317959,12.0465139 C11.3214353,12.0465139 11.3250915,12.0465139 11.3288675,12.0465139 C11.6398202,12.0465139 11.9061199,11.8530367 11.9564069,11.5884705 L13.1323691,5.37735889 L13.2326435,4.84863772 L13.534306,5.3621953 L13.5479716,5.38563462 C13.6559779,5.56955104 13.8757066,5.6854626 14.1159338,5.6854626 L19.3272082,5.6854626 C19.6781987,5.6854626 19.9627792,5.4412516 19.9627792,5.14034418 C19.9627192,4.83938536 19.6781388,4.59517436 19.3270883,4.59517436 Z" id="Path"></path>
            </g>
        </g>
    </g>
</svg>