<svg width="512" height="512" xmlns="http://www.w3.org/2000/svg">

 <g>
  <title>background</title>
  <rect fill="#ffffff" id="canvas_background" height="514" width="514" y="-1" x="-1"/>
 </g>
 <g>
  <title>Layer 1</title>
  <g stroke="null" transform="rotate(-0.4443036913871765 253.03475952148278,254.8374938964828) " id="svg_1">
   <g stroke="null" id="svg_2">
    <g stroke="null" id="svg_3">
     <g stroke="null" id="svg_4">
      <path stroke="null" id="svg_5" fill="#8c8c8c" class="active-path" d="m324.381685,410.461702l-153.670564,0c-3.029252,0 -5.488028,2.681568 -5.488028,5.985304l0,11.971309c0,3.303736 2.458775,5.985304 5.488028,5.985304s5.488028,-2.681568 5.488028,-5.985304l0,-5.985304l148.182536,0c3.029252,0 5.488028,-2.681568 5.488028,-5.985304s-2.458132,-5.986005 -5.488028,-5.986005z"/>
      <path stroke="null" id="svg_6" fill="#8c8c8c" class="active-path" d="m209.128601,224.909565c0,3.303736 2.458775,5.985304 5.488028,5.985304l21.953397,0c3.029252,0 5.488028,-2.681568 5.488028,-5.985304l0,-35.913226c0,-3.303736 -2.458775,-5.985304 -5.488028,-5.985304l-21.952754,0c-3.029252,0 -5.488028,2.681568 -5.488028,5.985304l0,35.913226l-0.000643,0zm10.976699,-29.927221l10.976699,0l0,23.941917l-10.976699,0l0,-23.941917z"/>
      <path stroke="null" id="svg_7" fill="#8c8c8c" class="active-path" d="m159.734422,147.097808l-65.858905,0c-3.029252,0 -5.488028,2.681568 -5.488028,5.985304l0,119.710989c0,3.303736 2.458775,5.985304 5.488028,5.985304s5.488028,-2.681568 5.488028,-5.985304l0,-113.724983l60.370877,0c3.029252,0 5.488028,-2.681568 5.488028,-5.985304s-2.458132,-5.986005 -5.488028,-5.986005z"/>
      <path stroke="null" id="svg_8" fill="#8c8c8c" class="active-path" d="m351.82311,368.562471c0,3.303736 2.458775,5.985304 5.488028,5.985304l21.952754,0c3.029252,0 5.488028,-2.681568 5.488028,-5.985304l0,-35.913226c0,-3.303736 -2.458775,-5.985304 -5.488028,-5.985304l-21.952754,0c-3.029252,0 -5.488028,2.681568 -5.488028,5.985304l0,35.913226zm10.976699,-29.927221l10.976699,0l0,23.941917l-10.976699,0l0,-23.941917z"/>
      <path stroke="null" id="svg_9" fill="#8c8c8c" class="active-path" d="m115.828914,290.750714c-27.128852,0 -27.441425,77.033871 -27.441425,77.811757c0,14.455074 9.44535,26.540015 21.952754,29.32329l0,30.532555c0,3.303736 2.458775,5.985304 5.488028,5.985304c3.029252,0 5.488028,-2.681568 5.488028,-5.985304l0,-30.532555c12.507404,-2.783275 21.952754,-14.868216 21.952754,-29.32329c0.000643,-0.777886 -0.311929,-77.811757 -27.440139,-77.811757zm0,95.76837c-9.077467,0 -16.464726,-8.056627 -16.464726,-17.956613c0,-29.819902 7.343525,-65.841149 16.464726,-65.841149c9.121201,0 16.464726,36.021247 16.464726,65.841149c0,9.899986 -7.38726,17.956613 -16.464726,17.956613z"/>
      <path stroke="null" id="svg_10" fill="#8c8c8c" class="active-path" d="m148.758367,254.837487l-21.953397,0c-3.029252,0 -5.488028,2.681568 -5.488028,5.985304l0,11.971309c0,3.303736 2.458775,5.985304 5.488028,5.985304s5.488028,-2.681568 5.488028,-5.985304l0,-5.985304l10.976699,0l0,29.927923c0,3.303736 2.458775,5.985304 5.488028,5.985304c3.029252,0 5.488028,-2.681568 5.488028,-5.985304l0,-35.913226c0.000643,-3.304438 -2.458132,-5.986005 -5.487385,-5.986005z"/>
      <path stroke="null" id="svg_11" fill="#8c8c8c" class="active-path" d="m357.311138,230.89557l21.952754,0c3.029252,0 5.488028,-2.681568 5.488028,-5.985304l0,-35.913226c0,-3.303736 -2.458775,-5.985304 -5.488028,-5.985304l-21.952754,0c-3.029252,0 -5.488028,2.681568 -5.488028,5.985304l0,35.913226c0,3.303736 2.458775,5.985304 5.488028,5.985304zm5.488671,-35.913226l10.976699,0l0,23.941917l-10.976699,0l0,-23.941917z"/>
      <path stroke="null" id="svg_12" fill="#8c8c8c" class="active-path" d="m148.758367,183.011034l-21.953397,0c-3.029252,0 -5.488028,2.681568 -5.488028,5.985304l0,35.913226c0,3.303736 2.458775,5.985304 5.488028,5.985304l21.952754,0c3.029252,0 5.488028,-2.681568 5.488028,-5.985304l0,-35.913226c0.000643,-3.303736 -2.458132,-5.985304 -5.487385,-5.985304zm-5.488671,35.913226l-10.976055,0l0,-23.941917l10.976699,0l0,23.941917l-0.000643,0z"/>
      <path stroke="null" id="svg_13" fill="#8c8c8c" class="active-path" d="m264.011451,224.909565c0,3.303736 2.458775,5.985304 5.488028,5.985304l21.952754,0c3.029252,0 5.488028,-2.681568 5.488028,-5.985304l0,-35.913226c0,-3.303736 -2.458775,-5.985304 -5.488028,-5.985304l-21.952754,0c-3.029252,0 -5.488028,2.681568 -5.488028,5.985304l0,35.913226zm10.976055,-29.927221l10.976699,0l0,23.941917l-10.976699,0l0,-23.941917z"/>
      <path stroke="null" id="svg_14" fill="#8c8c8c" class="active-path" d="m412.193987,147.097808l-65.858905,0c-3.029252,0 -5.488028,2.681568 -5.488028,5.985304s2.458775,5.985304 5.488028,5.985304l60.370877,0l0,240.523223c-1.723008,-0.670567 -3.55085,-1.101245 -5.488028,-1.101245c-0.949294,0 -1.893444,0.089783 -2.820871,0.269349c-3.786887,-7.44007 -10.992777,-12.240659 -19.131883,-12.240659c-8.139106,0 -15.344996,4.800588 -19.131883,12.240659c-0.927427,-0.179566 -1.871576,-0.269349 -2.820871,-0.269349c-9.077467,0 -16.464726,8.056627 -16.464726,17.956613s7.38726,17.956613 16.464726,17.956613l43.904865,0c9.077467,0 16.464726,-8.056627 16.464726,-17.956613l0,-263.363895c0,-3.303736 -2.458775,-5.985304 -5.488028,-5.985304zm-10.976699,275.334503l-43.906151,0c-3.024107,0 -5.488028,-2.687179 -5.488028,-5.985304s2.463921,-5.985304 5.488028,-5.985304c1.053485,0 2.052302,0.328971 2.974584,0.975689c1.503693,1.053548 3.381057,1.245039 5.038463,0.51485c1.657406,-0.730189 2.881327,-2.298587 3.282012,-4.195955c1.158319,-5.452918 5.543339,-9.265893 10.658338,-9.265893c5.114999,0 9.500018,3.812975 10.658338,9.265893c0.400685,1.897369 1.624605,3.465767 3.282012,4.195955c1.652261,0.730189 3.534128,0.538698 5.038463,-0.51485c3.572717,-2.513926 8.462612,0.562547 8.462612,5.009615c-0.000643,3.298125 -2.464564,5.985304 -5.488671,5.985304z"/>
      <path stroke="null" id="svg_15" fill="#8c8c8c" class="active-path" d="m269.499479,159.069117l21.952754,0c3.029252,0 5.488028,-2.681568 5.488028,-5.985304l0,-35.913226c0,-3.303736 -2.458775,-5.985304 -5.488028,-5.985304l-21.952754,0c-3.029252,0 -5.488028,2.681568 -5.488028,5.985304l0,35.913226c0,3.303736 2.458775,5.985304 5.488028,5.985304zm5.488028,-35.913226l10.976699,0l0,23.941917l-10.976699,0l0,-23.941917z"/>
      <path stroke="null" id="svg_16" fill="#8c8c8c" class="active-path" d="m264.011451,296.736018c0,3.303736 2.458775,5.985304 5.488028,5.985304l21.952754,0c3.029252,0 5.488028,-2.681568 5.488028,-5.985304l0,-35.913226c0,-3.303736 -2.458775,-5.985304 -5.488028,-5.985304l-21.952754,0c-3.029252,0 -5.488028,2.681568 -5.488028,5.985304l0,35.913226zm10.976055,-29.927221l10.976699,0l0,23.941917l-10.976699,0l0,-23.941917z"/>
      <path stroke="null" id="svg_17" fill="#8c8c8c" class="active-path" d="m214.617272,159.069117l21.952754,0c3.029252,0 5.488028,-2.681568 5.488028,-5.985304l0,-35.913226c0,-3.303736 -2.458775,-5.985304 -5.488028,-5.985304l-21.952754,0c-3.029252,0 -5.488028,2.681568 -5.488028,5.985304l0,35.913226c-0.000643,3.303736 2.458132,5.985304 5.488028,5.985304zm5.488028,-35.913226l10.976699,0l0,23.941917l-10.976699,0l0,-23.941917z"/>
      <path stroke="null" id="svg_18" fill="#8c8c8c" class="active-path" d="m249.137886,364.313206c-0.987884,1.137018 -1.591805,2.693492 -1.591805,4.249966c0,1.556474 0.603921,3.112246 1.591805,4.249966c1.042552,1.077397 2.469709,1.73604 3.896866,1.73604c1.427157,0 2.853672,-0.658643 3.896866,-1.73604c0.987884,-1.137018 1.591805,-2.693492 1.591805,-4.249966c0,-1.556474 -0.603921,-3.112246 -1.591805,-4.249966c-2.085746,-2.215117 -5.707986,-2.215117 -7.793733,0z"/>
      <path stroke="null" id="svg_19" fill="#8c8c8c" class="active-path" d="m209.128601,296.736018c0,3.303736 2.458775,5.985304 5.488028,5.985304l21.953397,0c3.029252,0 5.488028,-2.681568 5.488028,-5.985304l0,-35.913226c0,-3.303736 -2.458775,-5.985304 -5.488028,-5.985304l-21.952754,0c-3.029252,0 -5.488028,2.681568 -5.488028,5.985304l0,35.913226l-0.000643,0zm10.976699,-29.927221l10.976699,0l0,23.941917l-10.976699,0l0,-23.941917z"/>
      <path stroke="null" id="svg_20" fill="#8c8c8c" class="active-path" d="m198.152546,332.649244c0,3.303736 2.458775,5.985304 5.488028,5.985304l16.464726,0l0,53.86984c0,3.303736 2.458775,5.985304 5.488028,5.985304c3.029252,0 5.488028,-2.681568 5.488028,-5.985304l0,-53.86984l43.906151,0l0,53.86984c0,3.303736 2.458775,5.985304 5.488028,5.985304s5.488028,-2.681568 5.488028,-5.985304l0,-53.86984l16.464726,0c3.029252,0 5.488028,-2.681568 5.488028,-5.985304s-2.458775,-5.985304 -5.488028,-5.985304l-98.787714,0c-3.029252,0 -5.488028,2.681568 -5.488028,5.985304z"/>
      <path stroke="null" id="svg_21" fill="#8c8c8c" class="active-path" d="m351.82311,296.736018c0,3.303736 2.458775,5.985304 5.488028,5.985304l21.952754,0c3.029252,0 5.488028,-2.681568 5.488028,-5.985304l0,-35.913226c0,-3.303736 -2.458775,-5.985304 -5.488028,-5.985304l-21.952754,0c-3.029252,0 -5.488028,2.681568 -5.488028,5.985304l0,35.913226zm10.976699,-29.927221l10.976699,0l0,23.941917l-10.976699,0l0,-23.941917z"/>
      <path stroke="null" id="svg_22" fill="#8c8c8c" class="active-path" d="m324.381685,75.271355l-142.693866,0c-3.029252,0 -5.488028,2.681568 -5.488028,5.985304l0,311.247729c0,3.303736 2.458775,5.985304 5.488028,5.985304c3.029252,0 5.488028,-2.681568 5.488028,-5.985304l0,-305.262425l131.71781,0l0,305.262425c0,3.303736 2.458775,5.985304 5.488028,5.985304s5.488028,-2.681568 5.488028,-5.985304l0,-311.247729c0.000643,-3.303736 -2.458132,-5.985304 -5.488028,-5.985304z"/>
     </g>
    </g>
   </g>
  </g>
 </g>
</svg>