<?xml version="1.0" encoding="UTF-8"?>
<svg width="400px" height="300px" viewBox="0 0 400 300" version="1.1" xmlns="http://www.w3.org/2000/svg" xmlns:xlink="http://www.w3.org/1999/xlink">
    <title>Group 4</title>
    <g id="Page-1" stroke="none" stroke-width="1" fill="none" fill-rule="evenodd">
        <g id="Group-4">
            <g id="Group-3" transform="translate(66.000000, 72.000000)" fill="#6B7E91" fill-rule="nonzero">
                <path d="M86.3104,3.2754 C81.9432,-1.0918 74.8414,-1.0918 70.4744,3.2754 L3.2754,70.4744 C-1.0918,74.8416 -1.0918,81.9434 3.2754,86.3104 L70.4744,153.5094 C72.6463,155.7086 75.5135,156.8063 78.3806,156.8063 C81.2477,156.8063 84.115,155.7086 86.3103,153.5368 C90.6775,149.1696 90.6775,142.0678 86.3103,137.7008 L27.0173,78.4038 L86.2873,19.1338 C90.6779,14.7432 90.6779,7.6648 86.310738,3.2748 L86.3104,3.2754 Z" id="Path"></path>
                <path d="M198.3104,3.2754 C193.9432,-1.0918 186.8414,-1.0918 182.4744,3.2754 C178.1072,7.6426 178.1072,14.7444 182.4744,19.1114 L241.7444,78.4044 L182.4744,137.6744 C178.1072,142.0416 178.1072,149.1434 182.4744,153.5104 C184.6463,155.7096 187.5135,156.8073 190.3806,156.8073 C193.2477,156.8073 196.115,155.7096 198.3103,153.5378 L265.5093,86.3388 C269.8765,81.9716 269.8765,74.8698 265.5093,70.5028 L198.3104,3.2754 Z" id="Path"></path>
            </g>
            <rect id="Rectangle" stroke="#6B7E91" stroke-width="21" x="10.5" y="10.5" width="379" height="279" rx="55"></rect>
        </g>
    </g>
</svg>