<?xml version="1.0" encoding="UTF-8"?>
<svg width="505px" height="504px" viewBox="0 0 505 504" version="1.1" xmlns="http://www.w3.org/2000/svg" xmlns:xlink="http://www.w3.org/1999/xlink">
    <title>Shape</title>
    <g id="Page-1" stroke="none" stroke-width="1" fill="none" fill-rule="evenodd">
        <path d="M490.46855,0 L14.46855,0 C6.73415,0 0.46855,6.2656 0.46855,14 L0.46855,490 C0.46855,497.7344 6.73415,504 14.46855,504 L490.46855,504 C498.20295,504 504.46855,497.7344 504.46855,490 L504.46855,14 C504.46855,6.2656 498.20295,0 490.46855,0 Z M159.12855,476 L28.46855,476 L28.46855,345.34 L159.12855,345.34 L159.12855,476 Z M159.12855,317.34 L28.46855,317.34 L28.46855,186.67 L159.12855,186.67 L159.12855,317.34 Z M159.12855,158.67 L28.46855,158.67 L28.46855,28.01 L159.12855,28.01 L159.12855,158.67 Z M317.79855,476.01 L187.12855,476.01 L187.12855,345.35 L317.78855,345.35 L317.78855,476.01 L317.79855,476.01 Z M317.79855,317.35 L187.12855,317.35 L187.12855,186.68 L317.78855,186.68 L317.78855,317.35 L317.79855,317.35 Z M317.79855,158.68 L187.12855,158.68 L187.12855,28.02 L317.78855,28.02 L317.78855,158.68 L317.79855,158.68 Z M476.45855,476.02 L345.79855,476.02 L345.79855,345.36 L476.45855,345.36 L476.45855,476.02 Z M476.45855,317.36 L345.79855,317.36 L345.79855,186.69 L476.45855,186.69 L476.45855,317.36 Z M476.45855,158.69 L345.79855,158.69 L345.79855,28.03 L476.45855,28.03 L476.45855,158.69 Z" id="Shape" fill="#6B7E91" fill-rule="nonzero"></path>
    </g>
</svg>