<?xml version="1.0" encoding="UTF-8"?>
<svg width="271px" height="265px" viewBox="0 0 271 265" version="1.1" xmlns="http://www.w3.org/2000/svg" xmlns:xlink="http://www.w3.org/1999/xlink">
    <!-- Generator: Sketch 52.6 (67491) - http://www.bohemiancoding.com/sketch -->
    <title>Group 17 Copy</title>
    <desc>Created with Sketch.</desc>
    <g id="Empty-state" stroke="none" stroke-width="1" fill="none" fill-rule="evenodd">
        <g id="Purchase-orders" transform="translate(-1072.000000, -133.000000)">
            <g id="Group-17-Copy" transform="translate(1072.000000, 134.000000)">
                <path d="M249.014121,126.511213 C232.027716,93.9030607 172.927618,15.2948068 118.864748,38.0801764 C9.07604708,84.3517886 -24.2859738,150.54205 17.2326134,193.189728 C38.592525,215.130518 183.931849,280.141072 244.142386,259.646809 C300.966811,240.3051 249.665429,127.761503 249.014121,126.511213 Z" id="Oval-Copy-7" fill="#F6F5FF"></path>
                <path d="M29.4438776,155.943878 L34.1377551,155.943878 C34.828111,155.943878 35.3877551,156.503522 35.3877551,157.193878 C35.3877551,157.884233 34.828111,158.443878 34.1377551,158.443878 L29.4438776,158.443878 L29.4438776,163.133562 C29.4438776,163.823918 28.8842335,164.383562 28.1938776,164.383562 C27.5035216,164.383562 26.9438776,163.823918 26.9438776,163.133562 L26.9438776,158.443878 L22.25,158.443878 C21.5596441,158.443878 21,157.884233 21,157.193878 C21,156.503522 21.5596441,155.943878 22.25,155.943878 L26.9438776,155.943878 L26.9438776,151.25 C26.9438776,150.559644 27.5035216,150 28.1938776,150 C28.8842335,150 29.4438776,150.559644 29.4438776,151.25 L29.4438776,155.943878 Z" id="Combined-Shape" fill="#FF3184"></path>
                <polygon id="Path-2-Copy" stroke="#39B3C2" stroke-width="3" opacity="0.5" stroke-linejoin="round" points="167 56.338769 183.41261 56.338769 175.206305 42"></polygon>
                <path d="M260.5,157 C264.089851,157 267,154.089851 267,150.5 C267,146.910149 264.089851,144 260.5,144 C256.910149,144 254,146.910149 254,150.5 C254,154.089851 256.910149,157 260.5,157 Z" id="Oval-Copy-3" stroke="#736795" stroke-width="3.4" stroke-linecap="round" stroke-linejoin="round" stroke-dasharray="14"></path>
                <path d="M128.355345,181.661406 C204.461215,112.711452 204.461215,75.8244463 128.355345,71.0003896 C14.1965403,63.7643047 44.355345,147.274225 94.355345,132.612994 C127.688678,122.83884 133.101167,90.6613406 110.592811,36.0804948 C78.8313066,-12.2542685 51.9155014,-10.710251 29.8453951,40.7125473" id="Path-4" stroke="#B3AFC9" stroke-width="3" stroke-linecap="round" stroke-dasharray="12" transform="translate(107.640071, 91.306497) scale(-1, -1) translate(-107.640071, -91.306497) "></path>
                <g id="Group-16" transform="translate(84.000000, 68.000000)">
                    <rect id="Rectangle" stroke="#B3AFC9" stroke-width="5" fill="#FFFFFF" x="2.5" y="9.5" width="123" height="141" rx="8"></rect>
                    <g id="noun_E-Commerce_1864318" transform="translate(47.000000, 35.000000)" fill="#B3AFC9">
                        <g id="Group">
                            <circle id="Oval" cx="13.7142857" cy="26.7142857" r="3.07142857"></circle>
                            <circle id="Oval" cx="25.7857143" cy="26.7142857" r="3.07142857"></circle>
                            <path d="M33.75,5.5 C33.4285714,5.07142857 32.9285714,4.85714286 32.3928571,4.85714286 L9.21428571,4.85714286 L8.39285714,1.53571429 C8.21428571,0.75 7.5,0.214285714 6.71428571,0.214285714 L1.89285714,0.214285714 C0.928571429,0.214285714 0.178571429,1 0.178571429,1.92857143 C0.178571429,2.85714286 0.964285714,3.64285714 1.89285714,3.64285714 L5.35714286,3.64285714 L9.64285714,20.75 C9.82142857,21.5357143 10.5357143,22.0714286 11.3214286,22.0714286 L29.0357143,22.0714286 C29.8214286,22.0714286 30.5357143,21.5357143 30.7142857,20.75 L34.0357143,6.96428571 C34.1785714,6.46428571 34.0714286,5.92857143 33.75,5.5 Z" id="Shape" fill-rule="nonzero"></path>
                        </g>
                    </g>
                    <path d="M27.5,15.5 L100.5,15.5 L100.5,8 C100.5,4.96243388 98.0375661,2.5 95,2.5 L33,2.5 C29.9624339,2.5 27.5,4.96243388 27.5,8 L27.5,15.5 Z" id="Rectangle" stroke="#B3AFC9" stroke-width="5" fill="#FFFFFF"></path>
                    <path d="M24,102.5 L104,102.5" id="Path-8-Copy-2" stroke="#B3AFC9" stroke-width="5" stroke-linecap="round"></path>
                    <path d="M24,82.5 L104,82.5" id="Path-8-Copy-4" stroke="#B3AFC9" stroke-width="5" stroke-linecap="round"></path>
                    <path d="M24,122.5 L104,122.5" id="Path-8-Copy-3" stroke="#B3AFC9" stroke-width="5" stroke-linecap="round"></path>
                    <g id="Group-13" transform="translate(76.000000, 98.000000)" stroke="#B3AFC9">
                        <circle id="Oval" stroke-width="6" fill="#FFFFFF" cx="30" cy="30" r="27"></circle>
                        <path d="M44.4145878,41.2622461 C46.4202277,38.3592895 47.5949148,34.8382357 47.5949148,31.0428191 C47.5949148,25.9100511 45.4465574,21.279059 42,18" id="Oval" stroke-width="4" stroke-linecap="round"></path>
                        <path d="M51.8010299,47.0729755 L77,68" id="Path-9" stroke-width="6" stroke-linecap="round"></path>
                    </g>
                </g>
            </g>
        </g>
    </g>
</svg>