<?xml version="1.0" encoding="UTF-8"?>
<svg width="131px" height="98px" viewBox="0 0 131 98" version="1.1" xmlns="http://www.w3.org/2000/svg" xmlns:xlink="http://www.w3.org/1999/xlink">
    <!-- Generator: Sketch 52.6 (67491) - http://www.bohemiancoding.com/sketch -->
    <title>Group 7</title>
    <desc>Created with Sketch.</desc>
    <defs>
        <rect id="path-1" x="24.1326531" y="26.3265306" width="87.755102" height="52.6530612" rx="3.51020408"></rect>
        <filter x="-31.3%" y="-50.3%" width="162.7%" height="204.5%" filterUnits="objectBoundingBox" id="filter-2">
            <feOffset dx="0" dy="1" in="SourceAlpha" result="shadowOffsetOuter1"></feOffset>
            <feGaussianBlur stdDeviation="9" in="shadowOffsetOuter1" result="shadowBlurOuter1"></feGaussianBlur>
            <feComposite in="shadowBlurOuter1" in2="SourceAlpha" operator="out" result="shadowBlurOuter1"></feComposite>
            <feColorMatrix values="0 0 0 0 0.529411765   0 0 0 0 0.490196078   0 0 0 0 0.643137255  0 0 0 0.2 0" type="matrix" in="shadowBlurOuter1"></feColorMatrix>
        </filter>
    </defs>
    <g id="Page-1" stroke="none" stroke-width="1" fill="none" fill-rule="evenodd">
        <g id="Asset_Performance2.0" transform="translate(-571.000000, -1130.000000)">
            <g id="Group-7" transform="translate(571.500000, 1130.954082)">
                <path d="M109.755844,39.3364435 C86.7621037,8.37371597 72.0989074,-6.81405367 48.971382,2.92700454 C3.73926311,21.9782733 -10.0056385,49.2305864 7.09970706,66.7897838 C15.8998299,75.8233981 75.7785378,102.589994 100.584826,94.1519538 C123.996062,86.1884512 112.743525,43.3595707 109.755844,39.3364435 Z" id="Oval" fill="#F6F5FF"></path>
                <path d="M26.3265306,31.5918367 C29.2344789,31.5918367 31.5918367,29.2344789 31.5918367,26.3265306 C31.5918367,23.4185823 29.2344789,21.0612245 26.3265306,21.0612245 C23.4185823,21.0612245 21.0612245,23.4185823 21.0612245,26.3265306 C21.0612245,29.2344789 23.4185823,31.5918367 26.3265306,31.5918367 Z" id="Oval-Copy-2" stroke="#B0ACC6" stroke-width="1.49183673" opacity="0.5" stroke-linecap="round" stroke-linejoin="round" stroke-dasharray="25.01020408163265" transform="translate(26.326531, 26.326531) scale(-1, -1) translate(-26.326531, -26.326531) "></path>
                <g id="Rectangle">
                    <use fill="black" fill-opacity="1" filter="url(#filter-2)" xlink:href="#path-1"></use>
                    <rect stroke="#B3AFC9" stroke-width="1.31632653" stroke-linejoin="square" fill="#FFFFFF" fill-rule="evenodd" x="24.7908163" y="26.9846939" width="86.4387755" height="51.3367347" rx="3.51020408"></rect>
                </g>
                <g id="Group-8" transform="translate(37.295918, 39.489796)">
                    <g id="Group-2" transform="translate(36.418367, 0.000000)">
                        <g id="noun_chart_683131" transform="translate(0.877551, 11.846939)" fill-rule="nonzero">
                            <path d="M3.82904762,6.22768707 L1.06183673,6.22768707 C0.496402348,6.22768707 0.0380272109,6.68606221 0.0380272109,7.2514966 L0.0380272109,12.0136735 C0.0380272109,12.5791079 0.496402348,13.037483 1.06183673,13.037483 L3.82904762,13.037483 C4.39448201,13.037483 4.85285714,12.5791079 4.85285714,12.0136735 L4.85285714,7.2514966 C4.85285714,6.68606221 4.39448201,6.22768707 3.82904762,6.22768707 Z" id="Path" fill="#FCE4BD"></path>
                            <path d="M11.1156463,3.97238095 L8.36013605,3.97238095 C7.79470167,3.97238095 7.33632653,4.4095938 7.33632653,4.94892319 L7.33632653,12.0609408 C7.33632653,12.6002701 7.79470167,13.037483 8.36013605,13.037483 L11.1156463,13.037483 C11.6810806,13.037483 12.1394558,12.6002701 12.1394558,12.0609408 L12.1394558,4.94892319 C12.1394558,4.4095938 11.6810806,3.97238095 11.1156463,3.97238095 Z" id="Path" fill="#DFF2F5"></path>
                            <path d="M18.4227211,0.187210884 L15.6496599,0.187210884 C15.3752862,0.189246941 15.1131157,0.287278841 14.9210277,0.45966404 C14.7289398,0.632049239 14.6227314,0.864611036 14.6258503,1.10600666 L14.6258503,12.1186877 C14.6227314,12.3600834 14.7289398,12.5926452 14.9210277,12.7650304 C15.1131157,12.9374156 15.3752862,13.0354475 15.6496599,13.0374835 L18.4168707,13.0374835 C18.6932755,13.0381881 18.9584624,12.941363 19.1530844,12.7686772 C19.3477065,12.5959914 19.4555142,12.3618628 19.452381,12.1186877 L19.452381,1.10600666 C19.4555026,0.86372396 19.3484942,0.630382182 19.155141,0.457847466 C18.9617878,0.285312749 18.6981116,0.187881715 18.4227211,0.187210884 Z" id="Path" fill="#FFC1DA"></path>
                        </g>
                        <g id="noun_curved-arrow_547360" transform="translate(10.102448, 9.281698) rotate(10.000000) translate(-10.102448, -9.281698) translate(1.326937, 1.822515)" fill="#B3AFC9">
                            <path d="M14.4271826,0.458709016 L10.1261405,2.40259422 C10.0495194,2.43758657 9.98275235,2.48424303 9.92704614,2.54055255 C9.73378381,2.73341267 9.67003338,3.03265757 9.78868559,3.29630681 C9.94233015,3.6359739 10.3423289,3.78680298 10.6817949,3.63335953 L13.4347273,2.38891905 C12.5096422,6.05627789 11.0077868,8.48623495 9.37762607,10.1178034 C7.52685269,11.9677724 5.48985566,12.8053765 3.87115796,13.1842592 C2.2542702,13.5621363 1.06292156,13.4716389 0.966793162,13.4625891 C0.962368842,13.4625891 0.962368842,13.4625891 0.962368842,13.4625891 L0.961966631,13.4621869 C0.75241476,13.4412719 0.555130321,13.5186975 0.416568672,13.6570581 C0.310787209,13.7630406 0.238791461,13.9050211 0.222703026,14.0661066 C0.185096308,14.436945 0.455382022,14.7677634 0.826220458,14.8057724 C0.876094607,14.8099956 2.17362692,14.9383009 4.00509418,14.5385032 C5.83374597,14.1387056 8.20518134,13.2005487 10.3326758,11.072652 C12.1438314,9.26290417 13.7609203,6.60147475 14.7360806,2.75131106 L16.0249654,5.54124686 L16.0247643,5.54124686 C16.1812243,5.87990842 16.5820274,6.0271176 16.920689,5.87126089 C17.2593506,5.71500196 17.4067608,5.31399771 17.250703,4.97533614 L15.3180797,0.790532996 C15.1628263,0.454284697 14.7652409,0.306271091 14.4271826,0.458709016 Z" id="Path"></path>
                        </g>
                    </g>
                    <g id="Group-3" transform="translate(0.000000, 3.071429)">
                        <g id="Group-6">
                            <ellipse id="Oval" fill="#FFC1DA" cx="2.202549" cy="2.19387755" rx="2.202549" ry="2.19387755"></ellipse>
                            <ellipse id="Oval" fill="#DFF2F5" cx="2.202549" cy="10.9693878" rx="2.202549" ry="2.19387755"></ellipse>
                            <ellipse id="Oval" fill="#FCE4BD" cx="2.20146882" cy="19.744898" rx="2.20146882" ry="2.19387755"></ellipse>
                        </g>
                        <rect id="Rectangle" fill="#D9D7E4" x="6.58163265" y="0.87755102" width="19.744898" height="2.63265306" rx="1.31632653"></rect>
                        <rect id="Rectangle-Copy-2" fill="#D9D7E4" x="6.58163265" y="9.65306122" width="19.744898" height="2.63265306" rx="1.31632653"></rect>
                        <rect id="Rectangle-Copy-3" fill="#D9D7E4" x="6.58163265" y="18.4285714" width="19.744898" height="2.63265306" rx="1.31632653"></rect>
                    </g>
                </g>
                <g id="Group-4" transform="translate(88.632653, 26.984694) rotate(90.000000) translate(-88.632653, -26.984694) translate(87.974490, 19.306122)">
                    <g id="Group-Copy" transform="translate(-0.000000, 0.000000)">
                        <rect id="Rectangle" fill="#EFECF9" x="-2.84217094e-13" y="0.87755102" width="1.31632653" height="14.0408163"></rect>
                        <rect id="Rectangle-Copy" fill="#B3AFC9" x="-7.38903213e-13" y="3.29081633" width="1.31632653" height="8.7755102" rx="0.658163265"></rect>
                        <circle id="Oval" fill="#B3AFC9" cx="0.658163265" cy="0.658163265" r="1"></circle>
                        <circle id="Oval-Copy" fill="#B3AFC9" cx="0.658163265" cy="14.6989796" r="1"></circle>
                    </g>
                </g>
                <polygon id="Path-2-Copy" stroke="#39B3C2" stroke-width="1.31632653" opacity="0.5" stroke-linejoin="round" points="85.122449 14.6282354 92.3239005 14.6282354 88.7231747 8.33673469"></polygon>
                <path d="M126.147959,58.7959184 C127.723098,58.7959184 129,57.5190162 129,55.9438776 C129,54.3687389 127.723098,53.0918367 126.147959,53.0918367 C124.572821,53.0918367 123.295918,54.3687389 123.295918,55.9438776 C123.295918,57.5190162 124.572821,58.7959184 126.147959,58.7959184 Z" id="Oval-Copy-3" stroke="#736795" stroke-width="1.49183673" stroke-linecap="round" stroke-linejoin="round" stroke-dasharray="6.142857142857142"></path>
                <g id="Group-5" transform="translate(67.352041, 86.438776) scale(-1, 1) translate(-67.352041, -86.438776) translate(26.326531, 85.561224)" fill="#B3AFC9">
                    <g id="Group-4" transform="translate(27.204082, 0.877551) rotate(90.000000) translate(-27.204082, -0.877551) translate(26.326531, -26.326531)">
                        <g id="Group" transform="translate(0.000000, 0.000000)">
                            <rect id="Rectangle-Copy" x="2.09610107e-13" y="0.0417881438" width="1.75510204" height="54.324587" rx="0.87755102"></rect>
                        </g>
                    </g>
                    <g id="Group-4-Copy" transform="translate(75.030612, 0.877551) rotate(90.000000) translate(-75.030612, -0.877551) translate(74.153061, -6.142857)">
                        <g id="Group" transform="translate(0.000000, 0.000000)">
                            <rect id="Rectangle-Copy" x="7.10542736e-15" y="0.313411079" width="1.75510204" height="13.4139944" rx="0.87755102"></rect>
                        </g>
                    </g>
                    <g id="Group-4-Copy-2" transform="translate(61.209184, 0.877551) rotate(90.000000) translate(-61.209184, -0.877551) translate(60.331633, -4.607143)">
                        <g id="Group" transform="translate(0.000000, 0.000000)">
                            <rect id="Rectangle-Copy" x="7.10542736e-15" y="0.208940719" width="1.75510204" height="10.5515063" rx="0.87755102"></rect>
                        </g>
                    </g>
                </g>
            </g>
        </g>
    </g>
</svg>