<?xml version="1.0" encoding="UTF-8"?>
<svg width="128px" height="118px" viewBox="0 0 128 118" version="1.1" xmlns="http://www.w3.org/2000/svg" xmlns:xlink="http://www.w3.org/1999/xlink">
    <!-- Generator: Sketch 52.6 (67491) - http://www.bohemiancoding.com/sketch -->
    <title>Group 17 Copy 2</title>
    <desc>Created with Sketch.</desc>
    <g id="Page-1" stroke="none" stroke-width="1" fill="none" fill-rule="evenodd">
        <g id="Asset_Readings2.0" transform="translate(-835.000000, -686.000000)">
            <g id="Group-17-Copy-2" transform="translate(834.000000, 683.489011)">
                <path d="M118.611068,55.0547488 C110.584525,39.6465012 82.6581053,2.50194166 57.1119141,13.2686548 C5.23373653,35.1332628 -10.5307349,66.4099796 9.08793819,86.562179 C19.1810832,96.9298053 87.8579065,127.649078 116.30904,117.964976 C143.160141,108.825487 118.918829,55.6455452 118.611068,55.0547488 Z" id="Oval-Copy-7" fill="#F6F5FF"></path>
                <path d="M-3.81167874,30.1946352 C3.7936575,44.7608872 14.3414001,50.2337995 27.8315492,46.6133719 C48.0667727,41.1827306 41.489252,21.3538194 29.80632,20.9582731 C18.123388,20.5627267 13.200104,38.5610416 31.4703291,49.7968513 C41.6719795,56.0706549 54.3715009,47.2789544 56.1355445,35.9577641 C57.530742,27.0037355 55.171644,20.0304123 51.4222466,17.1894763" id="Path-15" stroke="#B3AFC9" stroke-width="1.41758242" stroke-linecap="round" stroke-dasharray="4.725274725274725" transform="translate(26.364707, 34.538443) scale(1, -1) rotate(109.000000) translate(-26.364707, -34.538443) "></path>
                <path d="M14.858096,68.9624916 L17.0760821,68.9624916 C17.4022942,68.9624916 17.6667414,69.2269388 17.6667414,69.5531509 C17.6667414,69.8793631 17.4022942,70.1438103 17.0760821,70.1438103 L14.858096,70.1438103 L14.858096,72.3598148 C14.858096,72.686027 14.5936488,72.9504742 14.2674366,72.9504742 C13.9412245,72.9504742 13.6767773,72.686027 13.6767773,72.3598148 L13.6767773,70.1438103 L11.4587912,70.1438103 C11.1325791,70.1438103 10.8681319,69.8793631 10.8681319,69.5531509 C10.8681319,69.2269388 11.1325791,68.9624916 11.4587912,68.9624916 L13.6767773,68.9624916 L13.6767773,66.7445055 C13.6767773,66.4182933 13.9412245,66.1538462 14.2674366,66.1538462 C14.5936488,66.1538462 14.858096,66.4182933 14.858096,66.7445055 L14.858096,68.9624916 Z" id="Combined-Shape" fill="#FF3184"></path>
                <polygon id="Path-2-Copy" stroke="#39B3C2" stroke-width="1.41758242" opacity="0.5" stroke-linejoin="round" points="79.8571429 21.8963414 87.6125522 21.8963414 83.7348475 15.1208791"></polygon>
                <path d="M124.038462,69.4615385 C125.734765,69.4615385 127.10989,68.0864131 127.10989,66.3901099 C127.10989,64.6938067 125.734765,63.3186813 124.038462,63.3186813 C122.342158,63.3186813 120.967033,64.6938067 120.967033,66.3901099 C120.967033,68.0864131 122.342158,69.4615385 124.038462,69.4615385 Z" id="Oval-Copy-3" stroke="#736795" stroke-width="1.60659341" stroke-linecap="round" stroke-linejoin="round" stroke-dasharray="6.615384615384615"></path>
                <g id="Group-16" transform="translate(43.000000, 27.406593)">
                    <path d="M55.789888,57.6483516 L55.789888,70.5216848 C55.789888,71.5655636 54.9436569,72.4117947 53.8997781,72.4117947 C53.8798916,72.4117947 53.8600063,72.4114808 53.8401298,72.4108532 L43.9450549,72.0984277 L55.789888,57.6483516 Z" id="Path-14" fill="#FFFFFF"></path>
                    <path d="M43.1022705,72.2967033 L3.78021978,72.2967033 C1.69246204,72.2967033 2.55676583e-16,70.6042413 0,68.5164835 L0,7.08791209 C-2.55676583e-16,5.00015435 1.69246204,3.30769231 3.78021978,3.30769231 L51.978022,3.30769231 C54.0657797,3.30769231 55.7582418,5.00015435 55.7582418,7.08791209 L55.7582418,62.2606263" id="Rectangle" stroke="#B3AFC9" stroke-width="2.36263736" fill="#FFFFFF" stroke-linecap="round"></path>
                    <circle id="Oval" fill="#FFFFFF" cx="33.5494505" cy="52.4505495" r="11.3406593"></circle>
                    <g id="Group-12" transform="translate(8.978022, 19.846154)">
                        <g id="Group-9">
                            <circle id="Oval" fill="#FF3184" opacity="0.300000012" cx="2.83516484" cy="2.83516484" r="2.83516484"></circle>
                            <path d="M9.68681319,2.5989011 L37.8021978,2.5989011" id="Path-8-Copy-6" stroke="#D9D7E4" stroke-width="2.36263736" stroke-linecap="round"></path>
                        </g>
                        <g id="Group-10" transform="translate(0.000000, 11.813187)">
                            <circle id="Oval" fill="#97D6E0" opacity="0.300000012" cx="2.83516484" cy="2.83516484" r="2.83516484"></circle>
                            <path d="M9.68681319,2.5989011 L37.8021978,2.5989011" id="Path-8-Copy-5" stroke="#D9D7E4" stroke-width="2.36263736" stroke-linecap="round"></path>
                        </g>
                        <g id="Group-11" transform="translate(0.000000, 21.263736)">
                            <path d="M9.68681319,5.43406593 L21.9698765,5.43406593" id="Path-8-Copy-4" stroke="#D9D7E4" stroke-width="2.36263736" stroke-linecap="round"></path>
                            <g id="Group-13" transform="translate(13.703297, 0.000000)" stroke="#B3AFC9">
                                <path d="M23.1538462,22.2087912 L35.0610518,32.0973852" id="Path-9" stroke-width="3.78021978" stroke-linecap="round"></path>
                                <circle id="Oval" stroke-width="2.36263736" fill="#FFFFFF" cx="14.1758242" cy="14.1758242" r="12.9945055"></circle>
                                <path d="M20.9871129,19.4975449 C21.9348329,18.1258181 22.4899048,16.4620235 22.4899048,14.6685848 C22.4899048,12.243211 21.4747469,10.05494 19.8461538,8.50549451" id="Oval" stroke-width="1.89010989" stroke-linecap="round"></path>
                            </g>
                            <circle id="Oval" fill="#F5A623" opacity="0.300000012" cx="2.83516484" cy="5.1978022" r="2.83516484"></circle>
                        </g>
                    </g>
                    <path d="M10.6318681,7.32417582 L45.1263736,7.32417582 L45.1263736,3.78021978 C45.1263736,2.34488634 43.962806,1.18131868 42.5274725,1.18131868 L13.2307692,1.18131868 C11.7954358,1.18131868 10.6318681,2.34488634 10.6318681,3.78021978 L10.6318681,7.32417582 Z" id="Rectangle" stroke="#B3AFC9" stroke-width="2.36263736" fill="#FFFFFF"></path>
                </g>
            </g>
        </g>
    </g>
</svg>