<?xml version="1.0" encoding="UTF-8"?>
<svg width="271px" height="265px" viewBox="0 0 271 265" version="1.1" xmlns="http://www.w3.org/2000/svg" xmlns:xlink="http://www.w3.org/1999/xlink">
    <!-- Generator: Sketch 52.6 (67491) - http://www.bohemiancoding.com/sketch -->
    <title>Group 17</title>
    <desc>Created with Sketch.</desc>
    <g id="Empty-state" stroke="none" stroke-width="1" fill="none" fill-rule="evenodd">
        <g id="Events" transform="translate(-1072.000000, -176.000000)">
            <g id="Group-17" transform="translate(1072.000000, 177.000000)">
                <path d="M249.014121,126.511213 C232.027716,93.9030607 172.927618,15.2948068 118.864748,38.0801764 C9.07604708,84.3517886 -24.2859738,150.54205 17.2326134,193.189728 C38.592525,215.130518 183.931849,280.141072 244.142386,259.646809 C300.966811,240.3051 249.665429,127.761503 249.014121,126.511213 Z" id="Oval-Copy-7" fill="#F6F5FF"></path>
                <path d="M29.4438776,155.943878 L34.1377551,155.943878 C34.828111,155.943878 35.3877551,156.503522 35.3877551,157.193878 C35.3877551,157.884233 34.828111,158.443878 34.1377551,158.443878 L29.4438776,158.443878 L29.4438776,163.133562 C29.4438776,163.823918 28.8842335,164.383562 28.1938776,164.383562 C27.5035216,164.383562 26.9438776,163.823918 26.9438776,163.133562 L26.9438776,158.443878 L22.25,158.443878 C21.5596441,158.443878 21,157.884233 21,157.193878 C21,156.503522 21.5596441,155.943878 22.25,155.943878 L26.9438776,155.943878 L26.9438776,151.25 C26.9438776,150.559644 27.5035216,150 28.1938776,150 C28.8842335,150 29.4438776,150.559644 29.4438776,151.25 L29.4438776,155.943878 Z" id="Combined-Shape" fill="#FF3184"></path>
                <polygon id="Path-2-Copy" stroke="#39B3C2" stroke-width="3" opacity="0.5" stroke-linejoin="round" points="167 56.338769 183.41261 56.338769 175.206305 42"></polygon>
                <path d="M260.5,157 C264.089851,157 267,154.089851 267,150.5 C267,146.910149 264.089851,144 260.5,144 C256.910149,144 254,146.910149 254,150.5 C254,154.089851 256.910149,157 260.5,157 Z" id="Oval-Copy-3" stroke="#736795" stroke-width="3.4" stroke-linecap="round" stroke-linejoin="round" stroke-dasharray="14"></path>
                <path d="M128.355345,181.661406 C204.461215,112.711452 204.461215,75.8244463 128.355345,71.0003896 C14.1965403,63.7643047 44.355345,147.274225 94.355345,132.612994 C127.688678,122.83884 133.101167,90.6613406 110.592811,36.0804948 C78.8313066,-12.2542685 51.9155014,-10.710251 29.8453951,40.7125473" id="Path-4" stroke="#B3AFC9" stroke-width="3" stroke-linecap="round" stroke-dasharray="12" transform="translate(107.640071, 91.306497) scale(-1, -1) translate(-107.640071, -91.306497) "></path>
                <g id="Group-16" transform="translate(84.000000, 68.000000)">
                    <rect id="Rectangle" stroke="#B3AFC9" stroke-width="5" fill="#FFFFFF" x="2.5" y="9.5" width="123" height="141" rx="8"></rect>
                    <g id="Group-8" transform="translate(44.000000, 24.000000)">
                        <rect id="Rectangle" stroke="#B3AFC9" stroke-width="2.5928569" fill="#FFFFFF" x="1.29642845" y="4.90618455" width="37.4071431" height="30.0668411" rx="3.42857156"></rect>
                        <path d="M3.85714301,3.43786295 L36.142857,3.43786295 C38.2730983,3.43786295 40,5.1647647 40,7.29500596 L40,13.6655049 L0,13.6655049 L4.4408921e-16,7.29500596 C1.83209895e-16,5.1647647 1.72690175,3.43786295 3.85714301,3.43786295 Z" id="Rectangle" fill="#B3AFC9"></path>
                        <rect id="Rectangle" fill="#B3AFC9" x="6.13636364" y="16.7166086" width="4.35606061" height="3.43786295" rx="0.857142891"></rect>
                        <rect id="Rectangle-Copy-5" fill="#B3AFC9" x="13.5795455" y="16.7166086" width="4.35606061" height="3.43786295" rx="0.857142891"></rect>
                        <rect id="Rectangle-Copy-6" fill="#B3AFC9" x="21.0227273" y="16.7166086" width="4.35606061" height="3.43786295" rx="0.857142891"></rect>
                        <rect id="Rectangle-Copy-7" fill="#B3AFC9" x="28.4659091" y="16.7166086" width="4.35606061" height="3.43786295" rx="0.857142891"></rect>
                        <rect id="Rectangle-Copy-8" fill="#B3AFC9" x="6.13636364" y="22.3031359" width="4.35606061" height="3.43786295" rx="0.857142891"></rect>
                        <rect id="Rectangle-Copy-9" fill="#B3AFC9" x="13.5795455" y="22.3031359" width="4.35606061" height="3.43786295" rx="0.857142891"></rect>
                        <rect id="Rectangle-Copy-15" fill="#B3AFC9" x="6.13636364" y="27.8896632" width="4.35606061" height="3.43786295" rx="0.857142891"></rect>
                        <rect id="Rectangle-Copy-14" fill="#B3AFC9" x="13.5795455" y="27.8896632" width="4.35606061" height="3.43786295" rx="0.857142891"></rect>
                        <rect id="Rectangle-Copy-10" fill="#B3AFC9" x="21.0227273" y="22.3031359" width="4.35606061" height="3.43786295" rx="0.857142891"></rect>
                        <rect id="Rectangle-Copy-11" fill="#B3AFC9" x="28.4659091" y="22.3031359" width="4.35606061" height="3.43786295" rx="0.857142891"></rect>
                        <rect id="Rectangle" fill="#B3AFC9" x="8.71212121" y="0" width="3.48484848" height="6.01626016" rx="1.28571434"></rect>
                        <rect id="Rectangle-Copy-16" fill="#B3AFC9" x="29.6212121" y="0" width="3.48484848" height="6.01626016" rx="1.28571434"></rect>
                    </g>
                    <path d="M27.5,15.5 L100.5,15.5 L100.5,8 C100.5,4.96243388 98.0375661,2.5 95,2.5 L33,2.5 C29.9624339,2.5 27.5,4.96243388 27.5,8 L27.5,15.5 Z" id="Rectangle" stroke="#B3AFC9" stroke-width="5" fill="#FFFFFF"></path>
                    <path d="M21,97.5 L106.172944,97.5" id="Path-8-Copy-2" stroke="#D9D7E4" stroke-width="8" stroke-linecap="round"></path>
                    <path d="M21,72.5 L106.172944,72.5" id="Path-8-Copy-4" stroke="#D9D7E4" stroke-width="8" stroke-linecap="round"></path>
                    <path d="M21,122.5 L106.172944,122.5" id="Path-8-Copy-3" stroke="#D9D7E4" stroke-width="8" stroke-linecap="round"></path>
                    <g id="Group-13" transform="translate(76.000000, 97.000000)" stroke="#B3AFC9">
                        <circle id="Oval" stroke-width="6" fill="#FFFFFF" cx="30" cy="30.5" r="27"></circle>
                        <path d="M44.819673,40.2194271 C46.8253129,37.3164704 48,33.7954167 48,30 C48,24.8672321 45.8516426,20.2362399 42.4050852,16.9571809" id="Oval" stroke-width="4" stroke-linecap="round"></path>
                        <path d="M51.8010299,48.0729755 L77,69" id="Path-9" stroke-width="6" stroke-linecap="round"></path>
                    </g>
                </g>
            </g>
        </g>
    </g>
</svg>