<svg width="89" height="62" viewBox="0 0 89 62" xmlns="http://www.w3.org/2000/svg"><g fill="none" fill-rule="evenodd"><path d="M80.266 31.745a2.062 2.062 0 11-4.123.001 2.062 2.062 0 014.123-.001M6.958 38.875a3.423 3.423 0 11-6.847 0 3.423 3.423 0 016.847 0M71.618 12.64L68.39 9.41l3.228-3.227 3.23 3.227zM12.16 16.764l-2.062-2.063 2.063-2.062 2.063 2.062z" fill="#DBDBF3"/><path stroke="#7176C4" stroke-linecap="round" stroke-linejoin="round" d="M5.5 54.103h82.874M59.687 60.737h10.86M26.326 60.737h24.253"/><path fill-opacity=".6" fill="#F1F1FA" d="M70.42 45.757l-10.29-3.864 10.29-3.864 10.29 3.864z"/><path stroke="#7176C4" stroke-linecap="round" stroke-linejoin="round" d="M68.855 46.344L57 41.893l11.855-4.451 11.855 4.45z"/><path fill="#F1F1FA" d="M67.754 47.469v6.499H57.002V43.426z"/><path stroke="#7176C4" stroke-linecap="round" stroke-linejoin="round" d="M68.853 46.34v7.628h-11.85V41.897z"/><path fill="#DBDBF3" d="M80.713 43.226v10.742h-10.76v-6.7z"/><path stroke="#7176C4" stroke-linecap="round" stroke-linejoin="round" d="M80.713 41.896v12.071h-11.86V46.34l1.557-.583zM56.828 38.35l-21.117 7.928-21.116-7.928 21.116-7.928 2.422.909m7.179 2.695l4.446 1.67"/><path fill="#F1F1FA" d="M33.751 48.282v5.686H14.599V41.08z"/><path fill="#DBDBF3" d="M35.708 45.757V32.053l-18.473 6.852z"/><path stroke="#7176C4" stroke-linecap="round" stroke-linejoin="round" d="M35.708 46.273v7.83h-21.11V38.357z"/><path fill="#DBDBF3" d="M56.834 40.724v13.38H37.666v-6.178z"/><path stroke="#7176C4" stroke-linecap="round" stroke-linejoin="round" d="M56.834 38.357v15.746H35.71v-7.83l2.773-1.039z"/><path stroke="#7176C4" stroke-linecap="round" stroke-linejoin="round" d="M63.962 30.714l-7.125 7.636-21.126 7.928 7.125-7.648z"/><path fill="#DBDBF3" d="M61.169 32.996l-4.634 4.905-17.447 6.56 4.634-4.914z"/><path stroke="#7176C4" stroke-linecap="round" stroke-linejoin="round" d="M29.783 21.599l5.937 8.823-21.125 7.928-5.938-8.836z"/><path fill="#F1F1FA" d="M29.618 23.148l4.632 6.882-18.45 6.954-4.632-6.892z"/><path d="M42.075 16.11c-.118 0-.236-.006-.354-.013 0 0-.007.007-.013 0-.08.014-.158.014-.244.014-2.114 0-3.895-1.722-3.895-3.896 0-2.114 1.78-3.894 3.895-3.894 2.168 0 3.896 1.78 3.896 3.894 0 .138-.007.27-.02.4v.02c0 2.043-1.216 3.476-3.265 3.476m9.741-4.894l-1.55-.617a.76.76 0 01-.309-.316c-.124-.433-.315-.801-.499-1.235-.06-.125-.06-.25 0-.433l.007-.02.677-1.472c.059-.183 0-.433-.125-.623l-.105-.1-1.504-1.45c-.19-.184-.375-.244-.625-.125l-1.49.624a.561.561 0 01-.435 0 7.367 7.367 0 00-1.234-.5.746.746 0 01-.315-.308l-.395-.985-.223-.565a.36.36 0 00-.086-.138.536.536 0 00-.413-.171H40.96c-.243 0-.434.125-.493.309l-.624 1.55a.697.697 0 01-.31.309c-.432.124-.807.315-1.24.5-.125.057-.243.057-.434 0l-1.484-.625c-.191-.119-.44-.06-.624.125L34.2 6.5c-.184.19-.25.44-.126.623l.625 1.492c.059.183.059.308 0 .433-.19.434-.375.802-.5 1.235a.754.754 0 01-.308.316l-1.55.617c-.191.065-.31.25-.31.5v2.233c0 .17.06.308.159.4a.31.31 0 00.15.092l.559.224.992.4c.125.059.25.184.309.308.124.434.308.868.5 1.242a.554.554 0 010 .434l-.626 1.484c-.124.25-.058.44.126.625l1.451 1.504.099.105c.184.124.433.19.624.124l1.464-.676.02-.006c.19-.06.309-.06.434 0 .433.19.808.373 1.24.498a.7.7 0 01.31.31l.624 1.55c.06.19.25.308.493.308h2.233c.25 0 .433-.119.5-.308l.617-1.55a.75.75 0 01.315-.31 6.99 6.99 0 001.234-.498.56.56 0 01.402-.014l1.261.579h.006l.256.117c.25.066.434 0 .625-.124l1.609-1.61a.736.736 0 00.125-.624l-.119-.256v-.007l-.565-1.221a.548.548 0 010-.434c.184-.374.375-.808.5-1.242a.706.706 0 01.308-.308l1.55-.624c.184-.06.309-.25.309-.492v-2.234c0-.249-.125-.434-.309-.5" fill="#DBDBF3"/><path d="M41.69 8.286c2.21 0 3.966 1.813 3.966 3.966a3.942 3.942 0 01-3.967 3.966c-2.152 0-3.965-1.757-3.965-3.966 0-2.153 1.813-3.966 3.965-3.966zm2.747-4.545c.469.134.939.335 1.34.537a.574.574 0 00.47 0l1.608-.67c.267-.134.468-.068.67.133l1.742 1.676c.133.201.201.468.133.67l-.736 1.608c-.067.201-.067.335 0 .469.2.47.401.871.536 1.34.067.134.2.269.335.335l1.674.67c.202.068.335.269.335.537v2.412c0 .268-.133.47-.335.536l-1.674.67A.805.805 0 0050.2 15a8.026 8.026 0 01-.536 1.34.573.573 0 000 .47l.736 1.607c.068.269 0 .47-.133.67l-1.742 1.743c-.202.134-.403.2-.67.134l-1.609-.738a.574.574 0 00-.47 0c-.4.202-.87.403-1.34.537a.817.817 0 00-.334.335l-.67 1.675c-.067.201-.268.335-.536.335h-2.413c-.268 0-.469-.134-.535-.335l-.67-1.675a.817.817 0 00-.335-.335c-.47-.134-.872-.335-1.341-.537-.134-.066-.268-.066-.469 0l-1.608.738c-.201.067-.47 0-.67-.134l-1.676-1.742c-.2-.201-.268-.402-.134-.67l.67-1.609a.568.568 0 000-.469A8.083 8.083 0 0133.18 15a.798.798 0 00-.335-.335l-1.675-.67c-.201-.067-.335-.268-.335-.536v-2.412c0-.268.134-.47.335-.537l1.675-.67a.794.794 0 00.335-.335c.135-.469.335-.87.536-1.34.068-.134.068-.268 0-.469l-.67-1.608c-.134-.202-.066-.469.134-.67l1.676-1.676c.2-.2.469-.267.67-.133l1.608.67c.2.067.335.067.469 0 .47-.202.87-.403 1.34-.537a.817.817 0 00.336-.335l.67-1.675c.066-.201.267-.335.535-.335h2.413c.268 0 .469.134.535.335l.67 1.675a.817.817 0 00.336.335zM58.276 19.159a2.314 2.314 0 012.308 2.307 2.293 2.293 0 01-2.308 2.307 2.314 2.314 0 01-2.306-2.307c0-1.252 1.054-2.307 2.306-2.307zm1.598-2.643c.274.077.547.195.78.312a.334.334 0 00.273 0l.936-.39c.155-.078.272-.04.39.078l1.013.974c.078.117.117.273.078.39l-.429.935c-.039.118-.039.195 0 .273.117.273.234.507.312.78a.466.466 0 00.195.195l.974.39c.117.039.195.156.195.311v1.404c0 .156-.078.273-.195.312l-.974.39a.468.468 0 00-.195.194 4.669 4.669 0 01-.312.78.333.333 0 000 .272l.429.936c.039.156 0 .273-.078.39l-1.014 1.014a.454.454 0 01-.39.077l-.935-.429a.334.334 0 00-.273 0 4.596 4.596 0 01-.78.312.475.475 0 00-.194.195l-.39.975c-.04.117-.156.195-.312.195h-1.403c-.156 0-.273-.078-.312-.195l-.39-.975a.475.475 0 00-.194-.195c-.274-.078-.507-.195-.78-.312-.078-.039-.156-.039-.273 0l-.935.43c-.118.038-.274 0-.39-.078l-.975-1.014c-.116-.117-.156-.234-.078-.39l.39-.936a.33.33 0 000-.272 4.702 4.702 0 01-.312-.78.464.464 0 00-.195-.195l-.974-.39c-.117-.038-.195-.155-.195-.311v-1.404c0-.155.078-.272.195-.312l.974-.39a.462.462 0 00.195-.194c.079-.273.195-.507.312-.78.04-.078.04-.155 0-.273l-.39-.935c-.078-.117-.038-.273.078-.39l.975-.974c.116-.117.272-.156.39-.078l.935.39c.117.039.195.039.273 0 .273-.117.506-.235.78-.312a.475.475 0 00.195-.195l.39-.975c.038-.117.155-.195.31-.195h1.404c.156 0 .273.078.312.195l.39.975c.039.078.117.155.194.195z" stroke="#7176C4"/><path stroke="#7176C4" stroke-linecap="round" stroke-linejoin="round" d="M74.25 39.596l-10.75 4.54"/><path stroke="#BCBCE2" stroke-linecap="round" stroke-linejoin="round" d="M39.377 26.598v12.283M42.38 26.598v4.4M42.409 34.678v1.642"/></g></svg>
