<svg viewBox="0 0 237 175" xmlns="http://www.w3.org/2000/svg">
  <g fill="none" fill-rule="evenodd">
    <path d="M200.4 72.1c-41.8-56.4-68.6-84-110.7-66.3C7.3 40.5-17.7 90.2 13.4 122.1c16 16.5 125.1 65.2 170.3 49.9 42.7-14.5 22.2-92.5 16.7-99.9z" fill="#F6F5FF"/>
    <path d="M116.3 63.7a29.3 29.3 0 01-45.4 24.5v-8.9a22.4 22.4 0 0038.4-15.7h7z" fill="#DBDBF3"/>
    <path d="M52.4 141H189V38H52.4z"/>
    <path fill="#DBDBF3" d="M142 129.7h4V68.8h-4zM119.9 129.7h4.1v-45H120zM164 129.7h4V53.3h-4zM86.4 129.7h22.4v-5.6H86.4z"/>
    <path fill="#BCBCE2" d="M170.5 129.7h11.7V56.3h-11.7z"/>
    <path d="M116.3 129.7H78.5v-27.2a3 3 0 013-3h31.8a3 3 0 013 3v27.2z" stroke="#DBDBF3" stroke-width=".7" stroke-linecap="round" stroke-linejoin="round"/>
    <path stroke="#7176C4" stroke-width=".7" stroke-linecap="round" stroke-linejoin="round" d="M53.2 129.7h135M85.1 63.7h61.5"/>
    <path fill="#BCBCE2" d="M126 33.8l13.6-2.4-4.8 13.8z"/>
    <path fill="#DBDBF3" d="M58.2 106.3l6.2 3.3-3.3 6.3-6.2-3.4z"/>
    <path d="M171.2 37.8l3.5 1.9c.8.4 1 1.3.7 2l-2 3.6c-.3.8-1.2 1-2 .6l-3.5-1.8c-.8-.4-1-1.4-.7-2.1l2-3.5c.3-.8 1.3-1 2-.7z" fill-opacity=".5" fill="#DBDBF3"/>
    <path stroke="#7176C4" stroke-width=".7" stroke-linecap="round" stroke-linejoin="round" d="M71 129.7V79.4"/>
    <path d="M87.5 42.7A21.3 21.3 0 10108.8 64H87.5V42.7z" fill="#BCBCE2"/>
    <path d="M87 41.2a22.4 22.4 0 1022.4 22.5H86.9V41.2zM95.4 79.6c4.3-2.2 7.5-6 8.9-10.8M87 81.7a18 18 0 004.2-.5M168 129.7h14.2V53.9H168z" stroke="#7176C4" stroke-width=".7" stroke-linecap="round" stroke-linejoin="round"/>
    <path fill="#DBDBF3" d="M148.4 129.7h11.8V72h-11.8z"/>
    <path stroke="#7176C4" stroke-width=".7" stroke-linecap="round" stroke-linejoin="round" d="M146 129.7h14.2V69.6H146zM153.1 63.7h6.3"/>
    <path fill="#DBDBF3" d="M126.4 129.7h11.8v-42h-11.8z"/>
    <path stroke="#7176C4" stroke-width=".7" stroke-linecap="round" stroke-linejoin="round" d="M124 129.7h14.2V85.3H124z"/>
    <path d="M91.2 38.8v20.6h20.6c0-11.4-9.2-20.6-20.6-20.6" fill="#FFF"/>
    <path d="M91.2 38.8v20.6h20.6c0-11.4-9.2-20.6-20.6-20.6zM86.3 106.4h6" stroke="#7176C4" stroke-width=".7" stroke-linecap="round" stroke-linejoin="round"/>
    <path stroke="#DBDBF3" stroke-width=".7" stroke-linecap="round" stroke-linejoin="round" d="M98 106.4h10.7"/>
    <path stroke="#7176C4" stroke-width=".7" stroke-linecap="round" stroke-linejoin="round" d="M86.3 112.6h6"/>
    <path stroke="#DBDBF3" stroke-width=".7" stroke-linecap="round" stroke-linejoin="round" d="M98 112.6h10.7"/>
    <path stroke="#7176C4" stroke-width=".7" stroke-linecap="round" stroke-linejoin="round" d="M86.3 118.9h6"/>
    <path stroke="#DBDBF3" stroke-width=".7" stroke-linecap="round" stroke-linejoin="round" d="M98 118.9h10.7M94.6 49.1v-5.9V50M94.6 53.3V55"/>
    <path d="M14.2 90.8c.6 0 1 .4 1 1v3.7H19a1 1 0 010 2h-3.8v3.8a1 1 0 01-2 0v-3.8H9.5a1 1 0 010-2h3.7v-3.7c0-.6.5-1 1-1z" fill="#FF3184"/>
    <path d="M48.5 38.9a9.6 9.6 0 100 19.1 9.6 9.6 0 000-19.1z" stroke="#B0ACC6" stroke-width="2.7" opacity=".5" stroke-linecap="round" stroke-linejoin="round" stroke-dasharray="45.6"/>
    <path stroke="#39B3C2" stroke-width="2.4" opacity=".5" stroke-linejoin="round" d="M155.6 27.1h13l-6.5-11.4z"/>
    <path d="M230.3 107.6a5.2 5.2 0 100-10.4 5.2 5.2 0 000 10.4z" stroke="#736795" stroke-width="2.7" stroke-linecap="round" stroke-linejoin="round" stroke-dasharray="11.2"/>
    <g fill="#B3AFC9">
      <rect y=".1" width="2.4" height="98.9" rx="1.2" transform="matrix(0 1 1 0 100.4 138.3)"/>
      <rect y=".6" width="2.4" height="24.4" rx="1.2" transform="matrix(0 1 1 0 50 138.3)"/>
      <rect y=".4" width="2.4" height="19.2" rx="1.2" transform="matrix(0 1 1 0 78 138.3)"/>
    </g>
  </g>
</svg>
