<?xml version="1.0" encoding="UTF-8"?>
<svg width="49px" height="50px" viewBox="0 0 49 50" version="1.1" xmlns="http://www.w3.org/2000/svg" xmlns:xlink="http://www.w3.org/1999/xlink">
    <!-- Generator: Sketch 63.1 (92452) - https://sketch.com -->
    <title>Group 6</title>
    <desc>Created with Sketch.</desc>
    <g id="Empty-state" stroke="none" stroke-width="1" fill="none" fill-rule="evenodd">
        <g id="Artboard" transform="translate(-96.000000, -1190.000000)">
            <g id="Group-6" transform="translate(96.500000, 1190.500000)">
                <rect id="Rectangle" fill="#E9E9F8" x="10.6960449" y="11.2189941" width="28.342041" height="28.342041"></rect>
                <g id="Group-29-Copy-2" transform="translate(7.538086, 16.061035)" stroke="#7176C4" stroke-linecap="round" stroke-linejoin="round">
                    <g id="Group-28" transform="translate(0.504002, 0.306293)">
                        <line x1="0.995997865" y1="2.09575116" x2="13.467627" y2="2.09575116" id="Stroke-9-Copy-3"></line>
                        <circle id="Oval" fill="#FFFFFF" cx="15.3835349" cy="2.08699139" r="1.8784953"></circle>
                    </g>
                    <g id="Group-28" transform="translate(25.255062, 16.825231) rotate(-90.000000) translate(-25.255062, -16.825231) translate(18.255062, 14.325231)">
                        <line x1="0.825230882" y1="2.43849524" x2="9.86098039" y2="2.43849524" id="Stroke-9-Copy-3"></line>
                        <circle id="Oval" fill="#FFFFFF" cx="11.823535" cy="2.43849524" r="1.8784953"></circle>
                    </g>
                    <polyline id="Stroke-9-Copy-5" points="10.4860043 8.74059296 17.871044 8.74059296 22.6727421 4.70814728 31.5 4.70814728"></polyline>
                    <line x1="1.5" y1="15.033727" x2="13.1762928" y2="15.0362914" id="Stroke-9-Copy-4"></line>
                    <circle id="Oval" fill="#FFFFFF" cx="8.56037937" cy="8.66118036" r="1.8784953"></circle>
                    <circle id="Oval-Copy-10" fill="#FFFFFF" cx="15.0547881" cy="15.0362914" r="1.8784953"></circle>
                </g>
                <rect id="Rectangle" stroke="#7176C4" stroke-linecap="round" stroke-linejoin="round" x="9.03808594" y="9.56103516" width="30" height="30"></rect>
                <g id="Group-4" transform="translate(0.000000, 16.561035)" stroke="#7176C4" stroke-linecap="round" stroke-linejoin="round">
                    <line x1="0.488797379" y1="1.0073944" x2="5.48879738" y2="1.0073944" id="Stroke-9-Copy-6"></line>
                    <rect id="Rectangle" fill="#FFFFFF" x="4.9909668" y="0" width="4.04711914" height="2.01478879"></rect>
                    <line x1="0.488797379" y1="8.02521666" x2="5.48879738" y2="8.02521666" id="Stroke-9-Copy-7"></line>
                    <rect id="Rectangle-Copy-2" fill="#FFFFFF" x="4.9909668" y="7.01782227" width="4.04711914" height="2.01478879"></rect>
                    <line x1="0.488797379" y1="15.0430389" x2="5.48879738" y2="15.0430389" id="Stroke-9-Copy-7"></line>
                    <rect id="Rectangle-Copy-2" fill="#FFFFFF" x="4.9909668" y="14.0356445" width="4.04711914" height="2.01478879"></rect>
                </g>
                <g id="Group-4" transform="translate(43.122070, 25.061035) scale(-1, 1) translate(-43.122070, -25.061035) translate(38.122070, 16.561035)" stroke="#7176C4" stroke-linecap="round" stroke-linejoin="round">
                    <line x1="0.488797379" y1="1.0073944" x2="5.48879738" y2="1.0073944" id="Stroke-9-Copy-6"></line>
                    <rect id="Rectangle" fill="#FFFFFF" x="4.9909668" y="0" width="4.04711914" height="2.01478879"></rect>
                    <line x1="0.488797379" y1="8.02521666" x2="5.48879738" y2="8.02521666" id="Stroke-9-Copy-7"></line>
                    <rect id="Rectangle-Copy-2" fill="#FFFFFF" x="4.9909668" y="7.01782227" width="4.04711914" height="2.01478879"></rect>
                    <line x1="0.488797379" y1="15.0430389" x2="5.48879738" y2="15.0430389" id="Stroke-9-Copy-7"></line>
                    <rect id="Rectangle-Copy-2" fill="#FFFFFF" x="4.9909668" y="14.0356445" width="4.04711914" height="2.01478879"></rect>
                </g>
                <g id="Group-4" transform="translate(24.038086, 5.500000) rotate(-270.000000) translate(-24.038086, -5.500000) translate(19.038086, -3.000000)" stroke="#7176C4" stroke-linecap="round" stroke-linejoin="round">
                    <line x1="0.488797379" y1="1.0073944" x2="5.48879738" y2="1.0073944" id="Stroke-9-Copy-6"></line>
                    <rect id="Rectangle" fill="#FFFFFF" x="4.9909668" y="0" width="4.04711914" height="2.01478879"></rect>
                    <line x1="0.488797379" y1="8.02521666" x2="5.48879738" y2="8.02521666" id="Stroke-9-Copy-7"></line>
                    <rect id="Rectangle-Copy-2" fill="#FFFFFF" x="4.9909668" y="7.01782227" width="4.04711914" height="2.01478879"></rect>
                    <line x1="0.488797379" y1="15.0430389" x2="5.48879738" y2="15.0430389" id="Stroke-9-Copy-7"></line>
                    <rect id="Rectangle-Copy-2" fill="#FFFFFF" x="4.9909668" y="14.0356445" width="4.04711914" height="2.01478879"></rect>
                </g>
                <g id="Group-4" transform="translate(24.038086, 43.622070) scale(-1, 1) rotate(-90.000000) translate(-24.038086, -43.622070) translate(19.038086, 35.122070)" stroke="#7176C4" stroke-linecap="round" stroke-linejoin="round">
                    <line x1="0.488797379" y1="1.0073944" x2="5.48879738" y2="1.0073944" id="Stroke-9-Copy-6"></line>
                    <rect id="Rectangle" fill="#FFFFFF" x="4.9909668" y="0" width="4.04711914" height="2.01478879"></rect>
                    <line x1="0.488797379" y1="8.02521666" x2="5.48879738" y2="8.02521666" id="Stroke-9-Copy-7"></line>
                    <rect id="Rectangle-Copy-2" fill="#FFFFFF" x="4.9909668" y="7.01782227" width="4.04711914" height="2.01478879"></rect>
                    <line x1="0.488797379" y1="15.0430389" x2="5.48879738" y2="15.0430389" id="Stroke-9-Copy-7"></line>
                    <rect id="Rectangle-Copy-2" fill="#FFFFFF" x="4.9909668" y="14.0356445" width="4.04711914" height="2.01478879"></rect>
                </g>
            </g>
        </g>
    </g>
</svg>