<svg width="87" height="66" viewBox="0 0 87 66" xmlns="http://www.w3.org/2000/svg"><g transform="translate(0 .87)" fill="none" fill-rule="evenodd"><path stroke="#7176C4" fill="#FFF" stroke-linecap="round" stroke-linejoin="round" d="M76.196 57.682l-2.284-3.27 5.511-3.86 5.002 7.144"/><path fill="#DBDBF3" d="M75.243 54.064l3.99-2.793 4.646 6.636-5.915.044z"/><path fill="#FFF" d="M77.846 52.252l.926-.649 3.96 5.657-.925.648zM76.773 52.998l.819-.573 3.461 4.943-.819.574z"/><path stroke="#7176C4" stroke-linecap="round" stroke-linejoin="round" d="M.5 57.682h85.874M54.688 64.317h10.86M21.326 64.317h24.253"/><path stroke="#FFF" stroke-linecap="round" stroke-linejoin="round" d="M57.377 33.73h0M68.252 33.73h0"/><path stroke="#7176C4" stroke-linecap="round" stroke-linejoin="round" d="M25.525 57.111V.5h35.062l7.666 7.725v48.887"/><path stroke="#7176C4" stroke-linecap="round" stroke-linejoin="round" d="M60.682.5l7.571 7.57h-7.57z"/><path fill="#DBDBF3" d="M67.806 15.954l-7.57-7.57h7.57zM21.507 6.16h3.509v50.952h-3.509z"/><path stroke="#7176C4" stroke-linecap="round" stroke-linejoin="round" d="M7.482 57.16v-51h18.043"/><g stroke="#BCBCE2" stroke-linecap="round" stroke-linejoin="round"><path d="M72.705 22.132a18.131 18.131 0 018.923 9.319M73.27 19.113c.4.2.795.413 1.182.638m1.443.912a21.96 21.96 0 013.622 3.122"/></g><path fill="#AAAAE2" opacity=".5" d="M33.001 35.954h28.027V34.13H33.001zM33.001 30.954h28.027V29.13H33.001z"/><path fill-opacity=".5" fill="#DBDBF3" d="M33.001 40.954h28.027V39.13H33.001zM33 45.977h14.014v-1.823H33z"/><path fill="#AAAAE2" opacity=".5" d="M33.001 9.954h25.34V8.13h-25.34z"/><path fill-opacity=".5" fill="#DBDBF3" d="M33.001 14.954h25.34V13.13h-25.34zM33 19.977h14.014v-1.823H33z"/><path fill="#AAAAE2" opacity=".5" d="M12 14.954h9.551V13.13h-9.55z"/><path fill-opacity=".5" fill="#DBDBF3" d="M12 19.954h9.551V18.13h-9.55z"/><path stroke="#7176C4" fill="#FFF" stroke-linecap="round" stroke-linejoin="round" d="M69.658 45.844l3.277-2.294 5.725 8.176-3.276 2.295z"/><path fill-opacity=".3" fill="#7176C4" d="M70.218 47.319l3.898-2.73 1.98 2.83-3.897 2.728z"/><path d="M64.459 52.077c1.146 0 2.257-.148 3.316-.425.088-25.227.088-24.887.088-25.227a13.067 13.067 0 00-3.404-.448c-7.208 0-13.05 5.842-13.05 13.05 0 7.207 5.842 13.05 13.05 13.05z" fill-opacity=".3" fill="#BCBCE2"/><circle stroke="#7176C4" fill="#FFF" stroke-linecap="round" stroke-linejoin="round" cx="65.99" cy="37.431" r="11.302"/><path fill-opacity=".5" fill="#DBDBF3" d="M12 24.977h7.112v-1.823H12z"/><circle fill="#DBDBF3" cx="66.262" cy="37.704" r="10.489"/><circle fill="#FFF" cx="65.99" cy="37.431" r="8.127"/><path d="M74.117 37.431c0-.687-.086-1.355-.246-1.992m-.685-1.788a8.127 8.127 0 10-7.196 11.907h0M73.157 46.63l1.29 1.815m1.013 1.424l.253.357" stroke="#7176C4" fill="#FFF" stroke-linecap="round" stroke-linejoin="round"/><circle fill="#EDEDF9" cx="66.829" cy="33.959" r="2.829"/><circle fill="#EDEDF9" cx="70.75" cy="37.959" r="1.171"/></g></svg>
