<?xml version="1.0" encoding="UTF-8"?>
<svg width="90px" height="83px" viewBox="0 0 90 83" version="1.1" xmlns="http://www.w3.org/2000/svg" xmlns:xlink="http://www.w3.org/1999/xlink">
    <!-- Generator: Sketch 52.6 (67491) - http://www.bohemiancoding.com/sketch -->
    <title>Group 17 Copy 2</title>
    <desc>Created with Sketch.</desc>
    <g id="Page-1" stroke="none" stroke-width="1" fill="none" fill-rule="evenodd">
        <g id="Asset_Maintenance2.0" transform="translate(-502.000000, -307.000000)">
            <g id="Group-17-Copy-2" transform="translate(501.500000, 306.000000)">
                <path d="M82.751908,38.4102898 C77.1519942,27.6603497 57.6684455,1.7455407 39.8455214,9.25720102 C3.65144409,24.5115787 -7.34702432,46.3325439 6.340422,60.3922179 C13.3821511,67.6254456 61.2962139,89.0574964 81.1458416,82.3011458 C99.8791684,75.9247581 82.9666248,38.8224734 82.751908,38.4102898 Z" id="Oval-Copy-7" fill="#F6F5FF"></path>
                <path d="M-2.65931075,21.0660245 C2.64673779,31.228526 10.005628,35.0468369 19.4173599,32.5209572 C33.5349577,28.7321376 28.9459897,14.8980136 20.7951069,14.622051 C12.6442242,14.3460884 9.2093749,26.9030523 21.9560435,34.7419893 C29.073474,39.1190615 37.9336053,32.985317 39.1643333,25.0868122 C40.137727,18.8398155 38.4918447,13.9747063 35.875986,11.9926579" id="Path-15" stroke="#B3AFC9" stroke-width="0.989010989" stroke-linecap="round" stroke-dasharray="3.296703314781189" transform="translate(18.393981, 24.096588) scale(1, -1) rotate(109.000000) translate(-18.393981, -24.096588) "></path>
                <path d="M10.3661135,48.1133662 L11.9135456,48.1133662 C12.1411355,48.1133662 12.3256336,48.2978643 12.3256336,48.5254541 C12.3256336,48.753044 12.1411355,48.937542 11.9135456,48.937542 L10.3661135,48.937542 L10.3661135,50.4835918 C10.3661135,50.7111816 10.1816154,50.8956797 9.95402557,50.8956797 C9.7264357,50.8956797 9.54193765,50.7111816 9.54193765,50.4835918 L9.54193765,48.937542 L7.99450549,48.937542 C7.76691563,48.937542 7.58241758,48.753044 7.58241758,48.5254541 C7.58241758,48.2978643 7.76691563,48.1133662 7.99450549,48.1133662 L9.54193765,48.1133662 L9.54193765,46.5659341 C9.54193765,46.3383442 9.7264357,46.1538462 9.95402557,46.1538462 C10.1816154,46.1538462 10.3661135,46.3383442 10.3661135,46.5659341 L10.3661135,48.1133662 Z" id="Combined-Shape" fill="#FF3184"></path>
                <polygon id="Path-2-Copy" stroke="#39B3C2" stroke-width="0.989010989" opacity="0.5" stroke-linejoin="round" points="55.7142857 15.2765173 61.1250364 15.2765173 58.4196611 10.5494505"></polygon>
                <path d="M86.5384615,48.4615385 C87.7219289,48.4615385 88.6813187,47.5021486 88.6813187,46.3186813 C88.6813187,45.135214 87.7219289,44.1758242 86.5384615,44.1758242 C85.3549942,44.1758242 84.3956044,45.135214 84.3956044,46.3186813 C84.3956044,47.5021486 85.3549942,48.4615385 86.5384615,48.4615385 Z" id="Oval-Copy-3" stroke="#736795" stroke-width="1.12087912" stroke-linecap="round" stroke-linejoin="round" stroke-dasharray="4.615384769439697"></path>
                <g id="Group-16" transform="translate(30.000000, 19.120879)">
                    <path d="M38.9231776,40.2197802 L38.9231776,49.2011754 C38.9231776,49.929463 38.3327839,50.5198567 37.6044963,50.5198567 C37.590622,50.5198567 37.5767486,50.5196378 37.5628812,50.5191999 L30.6593407,50.3012286 L38.9231776,40.2197802 Z" id="Path-14" fill="#FFFFFF"></path>
                    <path d="M30.0713515,50.4395604 L2.63736264,50.4395604 C1.18078747,50.4395604 1.78379011e-16,49.258773 0,47.8021978 L0,4.94505495 C-1.78379011e-16,3.48847978 1.18078747,2.30769231 2.63736264,2.30769231 L36.2637363,2.30769231 C37.7203114,2.30769231 38.9010989,3.48847978 38.9010989,4.94505495 L38.9010989,43.4376463" id="Rectangle" stroke="#B3AFC9" stroke-width="1.64835165" fill="#FFFFFF" stroke-linecap="round"></path>
                    <g id="noun_Repair_1647592" transform="translate(6.923077, 10.549451)" fill="#B3AFC9">
                        <path d="M9.23747132,6.61007125 C8.71438232,6.08698225 7.95762589,5.94308658 7.30379181,6.17425432 L3.60706436,2.47774423 C3.8382321,1.82391016 3.69433643,1.06715373 3.17135612,0.544173409 C2.79683613,0.169762106 2.30265668,-0.0113029827 1.81217244,0.000652095158 C1.59176428,0.00597753894 1.5437266,0.179217486 1.69957735,0.334959546 L2.17484603,0.810445598 C2.62696534,1.26256491 2.62696534,1.72294409 2.17484603,2.1750634 C1.72261804,2.62718271 1.26234754,2.62718271 0.810228233,2.17517208 L0.334850863,1.69957735 C0.179000121,1.5437266 0.00586885642,1.59198164 0.000543412631,1.81228113 C-0.0115203478,2.30276537 0.169653423,2.7970535 0.543956044,3.17124743 C1.06704504,3.69433643 1.82369279,3.8382321 2.47752687,3.60706436 L6.17458036,7.30379181 C5.94319527,7.95762589 6.08709093,8.71438232 6.61017993,9.23736264 C6.98459123,9.61177394 7.47877068,9.79283903 7.9693636,9.78088395 C8.18966308,9.77523246 8.23780944,9.60220988 8.08206738,9.44646782 L7.60658133,8.97098177 C7.15435334,8.51886246 7.15435334,8.05848327 7.60658133,7.60625528 C8.05870064,7.15424466 8.51897114,7.15424466 8.97130781,7.60625528 L9.44668518,8.08174134 C9.60264461,8.23770076 9.77555851,8.18933704 9.78099263,7.96914624 C9.79283903,7.47855331 9.61177394,6.98437387 9.23747132,6.61007125 Z" id="Path"></path>
                        <path d="M8.02327014,2.47839633 C8.06174375,2.43992271 8.10119551,2.41242604 8.15042869,2.38938534 L8.8133921,2.08029224 C8.92392223,2.02877672 8.97424224,1.98280401 9.03597392,1.87770801 L9.57819104,0.951732883 C9.60677454,0.902934428 9.60231856,0.867938655 9.56221471,0.827943485 L9.13857022,0.404081633 C9.09846637,0.364195146 9.06368796,0.359739162 9.01478082,0.388213984 L8.08869702,0.930431107 C7.98338365,0.9920541 7.93741094,1.04259147 7.88611279,1.15301292 L7.57701968,1.81597633 C7.55397899,1.86520952 7.52637363,1.90466127 7.48811738,1.94313489 L5.66442459,3.76661031 L6.19968603,4.30198044 L8.02327014,2.47839633 Z" id="Path"></path>
                        <path d="M2.72597512,5.56726241 C2.67174254,5.57258785 2.63011714,5.58921628 2.59164352,5.62790726 L0.621446685,7.59766936 C0.0118463954,8.20716097 0.0672744838,8.71612124 0.621446685,9.27029344 L0.695785533,9.34484966 C1.2501751,9.89913054 1.75880932,9.95434126 2.36862698,9.34484966 L4.33860645,7.37465282 C4.37718875,7.33617921 4.39381717,7.29466248 4.39935998,7.24032122 C4.41631445,7.06664654 4.46848207,6.80113513 4.67258785,6.57040213 L3.39589422,5.29370849 C3.16494385,5.49781427 2.8996498,5.54976452 2.72597512,5.56726241 Z" id="Shape" fill-rule="nonzero"></path>
                    </g>
                    <circle id="Oval" fill="#FFFFFF" cx="23.4065934" cy="36.5934066" r="7.91208791"></circle>
                    <g id="Group-12" transform="translate(6.923077, 15.164835)">
                        <g id="Group-9" stroke="#D9D7E4" stroke-linecap="round" stroke-width="1.64835165">
                            <path d="M13.3516484,0.494505495 L25.7142857,0.494505495" id="Path-8-Copy-6"></path>
                            <path d="M0.164835165,9.06593407 L25.7142857,9.06593407" id="Path-8-Copy-7"></path>
                        </g>
                        <g id="Group-10" transform="translate(0.000000, 17.142857)" stroke="#D9D7E4" stroke-linecap="round" stroke-width="1.64835165">
                            <path d="M0.214285714,0.164835165 L25.7142857,0.164835165" id="Path-8-Copy-5"></path>
                        </g>
                        <g id="Group-11" transform="translate(0.000000, 13.516484)">
                            <path d="M0.213675214,12.3626374 L11.3223888,12.3626374" id="Path-8-Copy-4" stroke="#D9D7E4" stroke-width="1.64835165" stroke-linecap="round"></path>
                            <g id="Group-13" transform="translate(8.901099, 0.000000)" stroke="#B3AFC9">
                                <path d="M16.1538462,15.4945055 L24.4611989,22.3935246" id="Path-9" stroke-width="2.63736264" stroke-linecap="round"></path>
                                <circle id="Oval" stroke-width="1.64835165" fill="#FFFFFF" cx="9.89010989" cy="9.89010989" r="9.06593407"></circle>
                                <path d="M14.6421718,13.6029383 C15.3033718,12.6459196 15.6906313,11.4851327 15.6906313,10.2338964 C15.6906313,8.5417751 14.9823816,7.01507439 13.8461538,5.93406593" id="Oval" stroke-width="1.31868132" stroke-linecap="round"></path>
                            </g>
                        </g>
                    </g>
                    <path d="M7.41758242,5.10989011 L31.4835165,5.10989011 L31.4835165,2.63736264 C31.4835165,1.63596721 30.6717251,0.824175824 29.6703297,0.824175824 L9.23076923,0.824175824 C8.22937381,0.824175824 7.41758242,1.63596721 7.41758242,2.63736264 L7.41758242,5.10989011 Z" id="Rectangle" stroke="#B3AFC9" stroke-width="1.64835165" fill="#FFFFFF"></path>
                </g>
            </g>
        </g>
    </g>
</svg>