<svg xmlns="http://www.w3.org/2000/svg" width="402" height="512" viewBox="0 0 402 512">
  <g fill="#7176C4">
    <path d="M384.095758,217.30775 C380.061758,216.38175 376.035758,218.90875 375.112758,222.94675 C358.278758,296.55675 316.030758,403.24975 210.364758,493.51175 C207.731758,495.76075 204.382758,496.99975 200.933758,496.99975 C197.484758,496.99975 194.135758,495.76175 191.502758,493.51275 C120.517758,432.87475 69.7107581,358.21975 40.4947581,271.62075 C17.3387581,202.98375 14.9527581,147.16575 15.0007581,126.35375 C15.0047581,124.45075 16.2167581,122.73475 18.0137581,122.08275 L119.509758,85.30375 C123.404758,83.89275 125.416758,79.59175 124.005758,75.69775 C122.594758,71.80375 118.293758,69.79075 114.399758,71.20175 L12.9037581,107.98075 C5.20575814,110.77075 0.0207581415,118.13975 0,126.31775 C-0.0502418585,147.87575 2.40975814,205.65775 26.2817581,276.41575 C56.3757581,365.61675 108.686758,442.49675 181.760758,504.91775 C187.106758,509.48475 193.915758,511.99975 200.933758,511.99975 C207.951758,511.99975 214.760758,509.48475 220.106758,504.91775 C328.891758,411.99175 372.395758,302.10775 389.735758,226.29075 C390.658758,222.25275 388.133758,218.23075 384.095758,217.30775 Z"/>
    <path d="M401.867451,126.31675 C401.845758,118.13775 396.660758,110.76975 388.964758,107.98075 L335.676758,88.67075 C330.055758,74.83175 316.473758,65.04475 300.641758,65.04475 C294.201758,65.04475 288.135758,66.66675 282.822758,69.51875 L207.600758,42.25975 C203.301758,40.70075 198.565758,40.70075 194.266758,42.25975 L149.067758,58.63875 C145.172758,60.04975 143.160758,64.35075 144.571758,68.24475 C145.982758,72.13875 150.283758,74.15175 154.177758,72.74075 L199.377758,56.36175 C200.380758,55.99675 201.487758,55.99775 202.489758,56.36175 L269.954758,80.80875 C265.900758,86.43775 263.353758,93.21775 262.912758,100.55975 L203.489758,79.02675 C201.837758,78.42775 200.030758,78.42775 198.378758,79.02675 L39.5207581,136.59175 C36.4087581,137.71975 34.4037581,140.75475 34.5877581,144.05975 C36.0207581,169.82575 41.8677581,222.03675 64.9257581,282.21875 C66.0697581,285.20475 68.9137581,287.03775 71.9307581,287.03775 C72.8227581,287.03775 73.7297581,286.87775 74.6127581,286.53875 C78.4807581,285.05675 80.4147581,280.71975 78.9327581,276.85175 C58.1567581,222.62275 51.8157581,175.16475 49.9187581,148.77775 L200.933758,94.05475 L265.821758,117.56875 C271.573758,131.12175 285.014758,140.65175 300.640758,140.65175 C306.867758,140.65175 312.742758,139.12875 317.927758,136.45075 L351.972758,148.78775 C350.508758,168.48975 346.352758,202.85375 334.581758,242.64675 C322.555758,283.29975 305.094758,321.95475 282.685758,357.53775 C260.379758,392.95975 232.895758,425.64175 200.932758,454.76575 C155.323758,413.20275 119.090758,364.56375 93.1827581,310.10275 C91.4037581,306.36275 86.9287581,304.77175 83.1887581,306.55175 C79.4477581,308.33175 77.8577581,312.80575 79.6377581,316.54675 C107.350758,374.80175 146.485758,426.58675 195.956758,470.46275 C197.376758,471.72175 199.154758,472.35175 200.933758,472.35175 C202.711758,472.35175 204.490758,471.72275 205.910758,470.46275 C241.065758,439.28375 271.167758,403.97975 295.380758,365.53175 C318.522758,328.78575 336.551758,288.87375 348.967758,246.90275 C362.366758,201.60375 366.216758,163.04575 367.318758,144.09375 C367.510758,140.78175 365.505758,137.73775 362.385758,136.60775 L331.065758,125.25875 C335.189758,119.67375 337.808758,112.91875 338.336758,105.59075 L383.855758,122.08575 C385.652758,122.73675 386.863758,124.45375 386.868758,126.35575 C386.892758,136.75475 386.282758,158.48575 381.920758,187.19075 C381.298758,191.28575 384.113758,195.10975 388.208758,195.73275 C388.590758,195.79075 388.970758,195.81875 389.345758,195.81875 C392.989758,195.81875 396.186758,193.15775 396.750758,189.44475 C401.259758,159.74675 401.891758,137.14675 401.867451,126.31675 L401.867451,126.31675 Z M277.836758,102.84775 C277.836758,90.27375 288.065758,80.04375 300.640758,80.04375 C313.215758,80.04375 323.444758,90.27275 323.444758,102.84775 C323.444758,115.42275 313.215758,125.65175 300.640758,125.65175 C288.065758,125.65175 277.836758,115.42175 277.836758,102.84775 Z"/>
    <path d="M182.479758 290.81875C186.920758 287.07375 193.206758 284.94075 199.728758 284.95675 206.248758 284.97675 212.522758 287.15075 216.941758 290.92175 218.354758 292.12775 220.085758 292.71675 221.806758 292.71675 223.925758 292.71675 226.032758 291.82375 227.515758 290.08575 230.203758 286.93475 229.829758 282.20075 226.679758 279.51175 219.494758 273.37975 209.939758 269.98575 199.773758 269.95575 189.599758 269.96475 180.030758 273.26175 172.809758 279.35175 169.642758 282.02175 169.240758 286.75375 171.911758 289.91975 174.580758 293.08775 179.313758 293.48975 182.479758 290.81875zM150.991758 250.98275L151.026758 250.98275C155.152758 250.98275 158.506758 247.64775 158.526839 243.51675 158.545758 239.37475 155.202758 236.00175 151.060758 235.98275L150.953758 235.98275C150.941758 235.98275 150.930758 235.98275 150.918758 235.98275 146.792758 235.98275 143.438758 239.31775 143.419678 243.44875 143.400758 247.59075 146.743758 250.96375 150.885758 250.98275L150.991758 250.98275zM250.902758 250.98275L250.937758 250.98275 250.947758 250.98275 250.949758 250.98275C255.075758 250.98275 258.429758 247.64675 258.448839 243.51675 258.467758 239.37475 255.124758 236.00175 250.982758 235.98275L250.874758 235.98275C250.862758 235.98275 250.851758 235.98275 250.839758 235.98275 250.836758 235.98275 250.833758 235.98275 250.829758 235.98275L250.828758 235.98275C246.702758 235.98275 243.348758 239.31775 243.329678 243.44875 243.310758 247.59075 246.653758 250.96375 250.795758 250.98275L250.902758 250.98275zM354.525758 81.08975C355.990758 82.55375 357.910758 83.28675 359.829758 83.28675 361.748758 83.28675 363.668758 82.55475 365.133758 81.08975L369.188758 77.03475 373.243758 81.08975C374.708758 82.55375 376.628758 83.28675 378.547758 83.28675 380.466758 83.28675 382.386758 82.55475 383.851758 81.08975 386.780758 78.16075 386.780758 73.41175 383.851758 70.48375L379.795758 66.42775 383.851758 62.37175C386.780758 59.44275 386.780758 54.69375 383.851758 51.76575 380.921758 48.83675 376.173758 48.83675 373.244758 51.76575L369.189758 55.82075 365.134758 51.76575C362.204758 48.83675 357.456758 48.83675 354.527758 51.76575 351.598758 54.69475 351.598758 59.44375 354.527758 62.37175L358.583758 66.42775 354.527758 70.48375C351.596758 73.41175 351.596758 78.16075 354.525758 81.08975L354.525758 81.08975zM41.6977581 75.87775C59.5037581 75.87775 73.9897581 61.39175 73.9897581 43.58575 73.9897581 25.77975 59.5037581 11.29475 41.6977581 11.29475 23.8917581 11.29475 9.40675814 25.78075 9.40675814 43.58675 9.40675814 61.39275 23.8917581 75.87775 41.6977581 75.87775L41.6977581 75.87775zM41.6977581 26.29475C51.2327581 26.29475 58.9897581 34.05175 58.9897581 43.58675 58.9897581 53.12175 51.2327581 60.87875 41.6977581 60.87875 32.1627581 60.87875 24.4057581 53.12175 24.4057581 43.58675 24.4057581 34.05175 32.1627581 26.29475 41.6977581 26.29475zM360.425758 397.34375C342.558758 397.34375 328.023758 411.87975 328.023758 429.74675 328.023758 447.61375 342.558758 462.14875 360.425758 462.14875 378.292758 462.14875 392.827758 447.61275 392.827758 429.74675 392.827758 411.87875 378.292758 397.34375 360.425758 397.34375zM360.425758 447.14875C350.829758 447.14875 343.023758 439.34175 343.023758 429.74675 343.023758 420.15075 350.830758 412.34375 360.425758 412.34375 370.020758 412.34375 377.827758 420.15075 377.827758 429.74675 377.827758 439.34175 370.021758 447.14875 360.425758 447.14875zM87.0077581 31.52075C88.4717581 32.98475 90.3917581 33.71775 92.3107581 33.71775 94.2297581 33.71775 96.1497581 32.98575 97.6137581 31.52075L101.669758 27.46475 105.725758 31.52075C107.189758 32.98475 109.109758 33.71775 111.028758 33.71775 112.947758 33.71775 114.867758 32.98575 116.331758 31.52075 119.260758 28.59175 119.260758 23.84275 116.331758 20.91475L112.275758 16.85875 116.331758 12.80275C119.260758 9.87375 119.260758 5.12475 116.331758 2.19675 113.402758-.73225 108.653758-.73225 105.725758 2.19675L101.669758 6.25275 97.6137581 2.19675C94.6847581-.73225 89.9357581-.73225 87.0077581 2.19675 84.0787581 5.12575 84.0787581 9.87475 87.0077581 12.80275L91.0637581 16.85875 87.0077581 20.91475C84.0777581 23.84275 84.0777581 28.59175 87.0077581 31.52075L87.0077581 31.52075zM52.0497581 378.25875C49.1207581 375.32975 44.3717581 375.32975 41.4437581 378.25875L37.3877581 382.31475 33.3317581 378.25875C30.4027581 375.32975 25.6537581 375.32975 22.7257581 378.25875 19.7967581 381.18775 19.7967581 385.93675 22.7257581 388.86475L26.7817581 392.92075 22.7257581 396.97675C19.7967581 399.90575 19.7967581 404.65475 22.7257581 407.58275 24.1897581 409.04675 26.1097581 409.77975 28.0287581 409.77975 29.9477581 409.77975 31.8677581 409.04775 33.3317581 407.58275L37.3877581 403.52675 41.4437581 407.58275C42.9077581 409.04675 44.8277581 409.77975 46.7467581 409.77975 48.6657581 409.77975 50.5857581 409.04775 52.0497581 407.58275 54.9787581 404.65375 54.9787581 399.90475 52.0497581 396.97675L47.9937581 392.92075 52.0497581 388.86475C54.9787581 385.93675 54.9787581 381.18775 52.0497581 378.25875z"/>
  </g>
</svg>
