<?xml version="1.0" encoding="UTF-8"?>
<svg width="84px" height="67px" viewBox="0 0 84 67" version="1.1" xmlns="http://www.w3.org/2000/svg" xmlns:xlink="http://www.w3.org/1999/xlink">
    <!-- Generator: Sketch 63.1 (92452) - https://sketch.com -->
    <title>Group 71</title>
    <desc>Created with Sketch.</desc>
    <g id="Empty-state" stroke="none" stroke-width="1" fill="none" fill-rule="evenodd">
        <g id="Artboard" transform="translate(-281.000000, -877.000000)">
            <g id="Group-71" transform="translate(281.000000, 877.500000)">
                <line x1="0.4997" y1="58.6169" x2="83.3737" y2="58.6169" id="Stroke-1" stroke="#7176C4" stroke-linecap="round" stroke-linejoin="round"></line>
                <line x1="54.6872" y1="65.2517" x2="65.5482" y2="65.2517" id="Stroke-3" stroke="#7176C4" stroke-linecap="round" stroke-linejoin="round"></line>
                <line x1="21.3259" y1="65.2517" x2="45.5789" y2="65.2517" id="Stroke-5" stroke="#7176C4" stroke-linecap="round" stroke-linejoin="round"></line>
                <path d="M64.9734,11.7868 L64.9734,24.9278 C64.5334,24.8318 64.0644,24.7838 63.5954,24.7838 C62.1884,24.7838 60.8774,25.2048 59.7864,25.9228 C58.3124,23.9798 55.9864,22.7258 53.3644,22.7258 C51.6504,22.7258 50.0714,23.2528 48.7604,24.1618 L48.7604,15.5378 L64.9734,11.7868 Z" id="Fill-7" fill="#DBDBF3" opacity="0.6"></path>
                <polygon id="Fill-9" fill="#DBDBF3" opacity="0.6" points="39.9675 58.6218 10.9765 58.6218 10.9765 14.3848 39.9675 7.6828"></polygon>
                <polygon id="Stroke-11" stroke="#7176C4" stroke-linecap="round" stroke-linejoin="round" points="39.9675 58.6218 9.0965 58.6218 9.0965 12.5368 39.9675 5.3998"></polygon>
                <path d="M48.7673,12.2575 L48.7673,23.6485 C46.4173,25.1575 44.8673,27.7975 44.8673,30.7975 C44.8673,32.5685 45.4073,34.2185 46.3373,35.5775 L41.6473,35.5775 L41.6473,7.8375 L48.7673,12.2575 Z" id="Fill-13" fill-opacity="0.3" fill="#DBDBF3"></path>
                <polyline id="Stroke-15" stroke="#7176C4" stroke-linecap="round" stroke-linejoin="round" points="48.7644 23.5622 48.7644 10.1582 39.9674 5.4002 39.9674 58.6222 48.7644 58.6222"></polyline>
                <line x1="49.3523" y1="12.8532" x2="66.8873" y2="8.7992" id="Stroke-17" stroke="#7176C4" stroke-linecap="round" stroke-linejoin="round"></line>
                <polyline id="Stroke-19" stroke="#7176C4" stroke-linecap="round" stroke-linejoin="round" points="75.1218 58.3044 75.1218 13.2534 66.8878 8.7994 66.8878 24.3134"></polyline>
                <polygon id="Fill-21" fill-opacity="0.3" fill="#7176C4" points="14.5739 17.3571 34.7049 13.6551 34.7049 17.6921 14.5739 18.8411"></polygon>
                <line x1="14.5739" y1="17.5827" x2="34.8219" y2="13.7657" id="Stroke-23" stroke="#7176C4" stroke-linecap="round" stroke-linejoin="round"></line>
                <polygon id="Fill-25" fill-opacity="0.3" fill="#7176C4" points="14.5739 25.2341 34.8219 22.0391 34.8219 26.0761 14.5739 26.7171"></polygon>
                <line x1="14.5739" y1="25.1921" x2="34.8219" y2="22.0391" id="Stroke-27" stroke="#7176C4" stroke-linecap="round" stroke-linejoin="round"></line>
                <polygon id="Fill-29" fill-opacity="0.3" fill="#7176C4" points="14.5739 32.5749 34.8219 29.9629 34.8219 33.9999 14.5739 34.0589"></polygon>
                <line x1="14.5739" y1="32.571" x2="34.8219" y2="29.915" id="Stroke-31" stroke="#7176C4" stroke-linecap="round" stroke-linejoin="round"></line>
                <polygon id="Fill-33" fill-opacity="0.3" fill="#7176C4" points="14.5739 40.7009 34.8219 38.0879 34.8219 42.1249 14.5739 42.1849"></polygon>
                <line x1="14.5739" y1="40.697" x2="34.8219" y2="38.041" id="Stroke-35" stroke="#7176C4" stroke-linecap="round" stroke-linejoin="round"></line>
                <polygon id="Fill-37" fill-opacity="0.3" fill="#7176C4" points="14.5739 48.8269 34.8219 46.2139 34.8219 50.2509 14.5739 50.3099"></polygon>
                <line x1="14.5739" y1="48.822" x2="34.8219" y2="46.167" id="Stroke-39" stroke="#7176C4" stroke-linecap="round" stroke-linejoin="round"></line>
                <path d="M71.7263,42.112 L70.9293,51.026 C70.8703,51.77 70.2533,52.341 69.5163,52.38 L68.8703,52.402 C68.3443,52.425 67.9303,52.831 67.8933,53.356 L67.4953,58.618 L60.7523,58.618 L60.4133,54.289 L60.3763,53.807 C60.3543,53.327 59.9703,52.951 59.4903,52.935 L59.1893,52.921 C59.0233,52.62 58.7073,52.417 58.3473,52.41 L58.2273,52.402 C58.3923,52.274 58.5953,52.191 58.8213,52.184 L59.4903,52.162 C60.2563,52.124 60.8873,51.53 60.9553,50.763 L61.7753,41.533 L61.8573,40.616 C61.8573,40.586 61.8573,40.563 61.8503,40.533 L69.6443,40.533 C70.6443,40.533 71.4783,41.195 71.7263,42.112" id="Fill-41" fill="#DBDBF3"></path>
                <path d="M64.112,40.6159 L64.112,40.7209 L63.203,50.9669 C63.06,52.5599 61.918,53.8759 60.414,54.2889 C60.279,54.3259 60.129,54.3559 59.986,54.3789 L59.692,58.1749 L59.324,53.3639 C59.317,53.1989 59.264,53.0489 59.189,52.9209 C59.023,52.6199 58.708,52.4169 58.347,52.4099 L58.227,52.4019 C58.392,52.2739 58.595,52.1909 58.821,52.1839 L59.49,52.1619 C60.257,52.1239 60.887,51.5299 60.956,50.7629 L61.775,41.5329 L61.857,40.6159 C61.857,39.9319 61.579,39.3079 61.121,38.8649 L63.774,38.8649 C63.984,39.3839 64.105,39.9389 64.105,40.5329 C64.112,40.5629 64.112,40.5859 64.112,40.6159" id="Fill-43" fill="#BCBCE2"></path>
                <path d="M68.7497,32.2819 C68.7497,34.8289 66.6857,36.8919 64.1397,36.8919 C61.5927,36.8919 59.5277,34.8289 59.5277,32.2819 C59.5277,29.7359 61.5927,27.6719 64.1397,27.6719 C66.6857,27.6719 68.7497,29.7359 68.7497,32.2819" id="Fill-45" fill="#DBDBF3"></path>
                <path d="M59.7829,35.2038 C58.9479,34.2868 58.4369,33.0768 58.4369,31.7388 C58.4369,30.1308 59.1739,28.7018 60.3239,27.7558 C60.5119,28.1988 60.6699,28.6568 60.7669,29.1388 C60.8949,29.6718 60.9559,30.2208 60.9559,30.7918 C60.9559,30.8898 60.9479,30.9798 60.9399,31.0778 C60.9479,31.1828 60.9559,31.2658 60.9559,31.3548 C60.9559,32.5208 60.6619,33.6178 60.1509,34.5878 C60.0459,34.7988 59.9259,35.0088 59.7829,35.2038" id="Fill-47" fill="#BCBCE2"></path>
                <path d="M68.7497,31.739 C68.7497,31.822 68.7497,31.897 68.7347,31.979 L68.7347,31.987 C68.6147,34.64 66.4947,36.76 63.8417,36.881 L63.8347,36.881 C63.7517,36.895 63.6767,36.895 63.5937,36.895 C62.9547,36.895 62.3457,36.783 61.7817,36.564 C61.5197,36.467 61.2707,36.354 61.0377,36.212 C60.5637,35.948 60.1437,35.602 59.7827,35.204 C59.1447,34.498 58.6927,33.618 58.5207,32.641 C58.4977,32.536 58.4817,32.43 58.4757,32.325 C58.4447,32.13 58.4367,31.934 58.4367,31.739 C58.4367,31.288 58.4977,30.852 58.6097,30.438 C58.6247,30.364 58.6407,30.296 58.6707,30.228 C58.9637,29.244 59.5497,28.394 60.3237,27.756 C61.2107,27.026 62.3537,26.583 63.5937,26.583 C66.4417,26.583 68.7497,28.89 68.7497,31.739 Z" id="Stroke-49" stroke="#7176C4" stroke-linecap="round" stroke-linejoin="round"></path>
                <path d="M71.8015,41.2253 L71.7265,42.1123 L70.9295,51.0263 C70.8695,51.7703 70.2535,52.3413 69.5165,52.3793 L68.8695,52.4023 C68.3445,52.4243 67.9305,52.8303 67.8935,53.3563 L67.4945,58.6183 L59.7305,58.6183 L59.6925,58.1743 L59.3235,53.3643 C59.3175,53.1993 59.2645,53.0483 59.1895,52.9203 C59.0235,52.6203 58.7075,52.4163 58.3475,52.4103 L58.2275,52.4023 C58.3925,52.2743 58.5955,52.1913 58.8215,52.1843 L59.4895,52.1623 C60.2565,52.1233 60.8875,51.5303 60.9555,50.7633 L61.7755,41.5333 L61.8575,40.6163 C61.8575,40.5853 61.8575,40.5633 61.8505,40.5333 C61.8345,39.8793 61.5565,39.2933 61.1205,38.8653 L69.4415,38.8653 C70.7495,38.8653 71.8015,39.9163 71.8015,41.2253 Z" id="Stroke-51" stroke="#7176C4" stroke-linecap="round" stroke-linejoin="round"></path>
                <path d="M61.782,36.5642 C61.519,36.4662 61.271,36.3542 61.038,36.2112 C61.302,36.3012 61.55,36.4212 61.782,36.5642" id="Fill-53" fill="#7176C4"></path>
                <path d="M61.7751,41.5329 L60.9561,50.7629 C60.8871,51.5299 60.2561,52.1239 59.4901,52.1619 L58.8211,52.1839 C58.2791,52.2069 57.8511,52.6279 57.8131,53.1689 L57.4001,58.6179 L50.4171,58.6179 L50.0261,53.6349 C50.0041,53.1379 49.6051,52.7479 49.1091,52.7329 L48.8011,52.7179 C48.6291,52.4099 48.3051,52.1989 47.9291,52.1909 L47.4331,52.1689 C47.2601,51.9589 47.1471,51.6949 47.1251,51.4019 L46.2911,42.1349 C46.2911,40.8939 47.2971,39.8939 48.5381,39.8939 L59.6251,39.8939 C60.6551,39.8939 61.5191,40.5859 61.7751,41.5329" id="Fill-55" fill="#DBDBF3"></path>
                <path d="M58.697,31.3562 C58.697,33.9932 56.56,36.1292 53.924,36.1292 C51.288,36.1292 49.151,33.9932 49.151,31.3562 C49.151,28.7202 51.288,26.5842 53.924,26.5842 C56.56,26.5842 58.697,28.7202 58.697,31.3562" id="Fill-57" fill="#DBDBF3"></path>
                <path d="M58.697,30.7937 C58.697,33.7397 56.307,36.1297 53.361,36.1297 C50.414,36.1297 48.025,33.7397 48.025,30.7937 C48.025,27.8467 50.414,25.4577 53.361,25.4577 C56.307,25.4577 58.697,27.8467 58.697,30.7937 Z" id="Stroke-59" stroke="#7176C4" stroke-linecap="round" stroke-linejoin="round"></path>
                <path d="M61.8571,40.6159 L61.7751,41.5329 L60.9561,50.7629 C60.8871,51.5299 60.2561,52.1239 59.4901,52.1619 L58.8211,52.1839 C58.2791,52.2069 57.8511,52.6279 57.8131,53.1689 L57.4001,58.6179 L49.3571,58.6179 L48.9361,53.1769 C48.9281,53.0109 48.8771,52.8529 48.8011,52.7179 C48.6281,52.4099 48.3051,52.1989 47.9291,52.1909 L47.4331,52.1689 L47.2601,52.1619 C46.4711,52.1319 45.8321,51.5219 45.7641,50.7409 L44.8551,40.6159 C44.8551,39.2629 45.9521,38.1739 47.3051,38.1739 L59.4151,38.1739 C60.7671,38.1739 61.8571,39.2629 61.8571,40.6159 Z" id="Stroke-61" stroke="#7176C4" stroke-linecap="round" stroke-linejoin="round"></path>
                <path d="M53.3611,36.1296 C53.4561,36.1296 53.5481,36.1196 53.6421,36.1146 C53.7361,36.1206 53.8291,36.1296 53.9231,36.1296 C56.5601,36.1296 58.6971,33.9926 58.6971,31.3566 C58.6971,31.2616 58.6881,31.1686 58.6821,31.0746 C58.6871,30.9816 58.6971,30.8886 58.6971,30.7936 C58.6971,27.8466 56.3081,25.4576 53.3611,25.4576 C50.4141,25.4576 48.0251,27.8466 48.0251,30.7936 C48.0251,33.7396 50.4141,36.1296 53.3611,36.1296 Z" id="Stroke-63" stroke="#7176C4" stroke-linecap="round" stroke-linejoin="round"></path>
                <path d="M9.0866,4.614 C8.9676,5.924 7.8086,6.889 6.4976,6.769 C5.1886,6.65 4.2236,5.491 4.3426,4.18 C4.4626,2.871 5.6216,1.906 6.9316,2.025 C8.2416,2.145 9.2066,3.303 9.0866,4.614" id="Fill-65" fill="#EDEDF9"></path>
                <path d="M80.3503,54.2673 C80.2673,55.1833 79.4563,55.8573 78.5403,55.7743 C77.6253,55.6903 76.9513,54.8803 77.0343,53.9643 C77.1183,53.0483 77.9283,52.3733 78.8433,52.4573 C79.7593,52.5413 80.4343,53.3513 80.3503,54.2673" id="Fill-67" fill="#EDEDF9"></path>
                <polygon id="Fill-69" fill="#DBDBF3" points="52.7155 6.4567 49.4865 3.2277 52.7155 -0.0003 55.9435 3.2277"></polygon>
            </g>
        </g>
    </g>
</svg>