<?xml version="1.0" encoding="UTF-8"?>
<svg width="84px" height="65px" viewBox="0 0 84 65" version="1.1" xmlns="http://www.w3.org/2000/svg" xmlns:xlink="http://www.w3.org/1999/xlink">
    <!-- Generator: Sketch 63.1 (92452) - https://sketch.com -->
    <title>Group 46</title>
    <desc>Created with Sketch.</desc>
    <g id="Empty-state" stroke="none" stroke-width="1" fill="none" fill-rule="evenodd">
        <g id="Artboard" transform="translate(-281.000000, -738.000000)">
            <g id="Group-46" transform="translate(281.000000, 737.000000)">
                <g id="Group-7" transform="translate(0.000000, 57.317300)" stroke="#7176C4" stroke-linecap="round" stroke-linejoin="round">
                    <line x1="0.4997" y1="0.8658" x2="83.3737" y2="0.8658" id="Stroke-1"></line>
                    <line x1="54.6872" y1="7.4995" x2="65.5482" y2="7.4995" id="Stroke-3"></line>
                    <line x1="21.3259" y1="7.4995" x2="45.5789" y2="7.4995" id="Stroke-5"></line>
                </g>
                <polygon id="Fill-8" fill="#DBDBF3" points="26.5818 14.0991 26.5818 57.3091 28.2288 57.3091 28.2288 44.8211 40.3218 40.2191 40.3218 19.2591"></polygon>
                <polygon id="Fill-9" fill="#EDEDF9" points="43.8874 17.3286 30.7504 12.3966 43.8874 7.4646 57.0234 12.3966"></polygon>
                <polygon id="Stroke-10" stroke="#7176C4" stroke-linecap="round" stroke-linejoin="round" points="41.8894 18.0786 26.7554 12.3966 41.8894 6.7146 57.0234 12.3966"></polygon>
                <polyline id="Stroke-11" stroke="#7176C4" stroke-linecap="round" stroke-linejoin="round" points="26.7575 43.2993 26.7575 12.3993 41.8875 18.0783 41.8875 39.6283 41.8775 39.6283"></polyline>
                <polygon id="Fill-12" fill="#BCBCE2" points="57.0271 14.0991 57.0271 57.3091 55.3811 57.3091 55.3811 44.8211 43.2871 40.2191 43.2871 19.2591"></polygon>
                <polyline id="Stroke-13" stroke="#7176C4" stroke-linecap="round" stroke-linejoin="round" points="41.8874 39.6284 41.8874 18.0784 43.8874 17.3284 57.0274 12.3994 57.0274 43.3094"></polyline>
                <polygon id="Fill-14" fill-opacity="0.6" fill="#F1F1FA" points="70.4441 49.8803 60.1531 46.0163 70.4441 42.1523 80.7341 46.0163"></polygon>
                <polygon id="Stroke-16" stroke="#7176C4" stroke-linecap="round" stroke-linejoin="round" points="68.8786 50.4672 57.0236 46.0162 68.8786 41.5652 80.7336 46.0162"></polygon>
                <polygon id="Fill-17" fill="#F1F1FA" points="67.778 51.5922 67.778 58.0912 57.026 58.0912 57.026 47.5492"></polygon>
                <polygon id="Stroke-19" stroke="#7176C4" stroke-linecap="round" stroke-linejoin="round" points="68.8767 50.4643 68.8767 58.0913 57.0257 58.0913 57.0257 46.0203"></polygon>
                <polygon id="Fill-20" fill="#DBDBF3" points="80.737 47.3491 80.737 58.0911 69.976 58.0911 69.976 51.3921"></polygon>
                <polygon id="Stroke-21" stroke="#7176C4" stroke-linecap="round" stroke-linejoin="round" points="80.737 46.02 80.737 58.091 68.877 58.091 68.877 50.464 70.434 49.881"></polygon>
                <polygon id="Fill-22" fill-opacity="0.6" fill="#F1F1FA" points="43.4441 49.8803 33.1531 46.0163 43.4441 42.1523 53.7341 46.0163"></polygon>
                <polygon id="Stroke-24" stroke="#7176C4" stroke-linecap="round" stroke-linejoin="round" points="41.8786 50.4672 30.0236 46.0162 41.8786 41.5652 53.7336 46.0162"></polygon>
                <polygon id="Fill-25" fill="#F1F1FA" points="40.778 51.5922 40.778 58.0912 30.026 58.0912 30.026 47.5492"></polygon>
                <polygon id="Stroke-27" stroke="#7176C4" stroke-linecap="round" stroke-linejoin="round" points="41.8767 50.4643 41.8767 58.0913 30.0257 58.0913 30.0257 46.0203"></polygon>
                <polygon id="Fill-28" fill="#DBDBF3" points="53.737 47.3491 53.737 58.0911 42.976 58.0911 42.976 51.3921"></polygon>
                <polygon id="Stroke-29" stroke="#7176C4" stroke-linecap="round" stroke-linejoin="round" points="53.737 46.02 53.737 58.091 41.877 58.091 41.877 50.464 43.434 49.881"></polygon>
                <polygon id="Fill-30" fill-opacity="0.6" fill="#F1F1FA" points="16.4441 49.8803 6.1531 46.0163 16.4441 42.1523 26.7341 46.0163"></polygon>
                <polygon id="Stroke-32" stroke="#7176C4" stroke-linecap="round" stroke-linejoin="round" points="14.8786 50.4672 3.0236 46.0162 14.8786 41.5652 26.7336 46.0162"></polygon>
                <polygon id="Fill-33" fill="#F1F1FA" points="13.778 51.5922 13.778 58.0912 3.026 58.0912 3.026 47.5492"></polygon>
                <polygon id="Stroke-35" stroke="#7176C4" stroke-linecap="round" stroke-linejoin="round" points="14.8767 50.4643 14.8767 58.0913 3.0257 58.0913 3.0257 46.0203"></polygon>
                <polygon id="Fill-36" fill="#DBDBF3" points="26.737 47.3491 26.737 58.0911 15.976 58.0911 15.976 51.3921"></polygon>
                <polygon id="Stroke-37" stroke="#7176C4" stroke-linecap="round" stroke-linejoin="round" points="26.737 46.02 26.737 58.091 14.877 58.091 14.877 50.464 16.434 49.881"></polygon>
                <g id="Group-44" transform="translate(7.000000, 0.317300)" fill="#DBDBF3">
                    <path d="M64.2741,3.8433 C64.2741,5.5823 62.8641,6.9923 61.1251,6.9923 C59.3851,6.9923 57.9761,5.5823 57.9761,3.8433 C57.9761,2.1043 59.3851,0.6943 61.1251,0.6943 C62.8641,0.6943 64.2741,2.1043 64.2741,3.8433" id="Fill-38"></path>
                    <path d="M4.3562,23.7329 C4.3562,24.8529 3.4492,25.7599 2.3302,25.7599 C1.2102,25.7599 0.3022,24.8529 0.3022,23.7329 C0.3022,22.6139 1.2102,21.7069 2.3302,21.7069 C3.4492,21.7069 4.3562,22.6139 4.3562,23.7329" id="Fill-40"></path>
                </g>
                <polygon id="Fill-45" fill="#DBDBF3" points="11.5875 5.49935952 16.0888405 10.0007 20.5888405 5.49935952 16.0888405 1.0007"></polygon>
            </g>
        </g>
    </g>
</svg>