<?xml version="1.0" encoding="UTF-8"?>
<svg width="14px" height="15px" viewBox="0 0 14 15" version="1.1" xmlns="http://www.w3.org/2000/svg" xmlns:xlink="http://www.w3.org/1999/xlink">
    <!-- Generator: Sketch 63.1 (92452) - https://sketch.com -->
    <title>Combined Shape</title>
    <desc>Created with Sketch.</desc>
    <g id="Page-1" stroke="none" stroke-width="1" fill="none" fill-rule="evenodd">
        <g id="10-full-screen-view" transform="translate(-1216.000000, -70.000000)" fill="#ee518f" fill-rule="nonzero">
            <g id="topbar" transform="translate(59.341810, 49.000000)">
                <g id="Group-5-Copy" transform="translate(1147.658190, 12.000000)">
                    <path d="M21.9140996,9 C22.4639297,9 22.9096551,9.4457254 22.9096551,9.99555556 C22.9096551,10.2095837 22.8406806,10.4179138 22.7129589,10.5896554 L22.7129589,10.5896554 L18.2724531,16.5591111 L18.2728812,21.6028785 C18.2728812,21.9504067 18.0920682,22.2693385 17.801731,22.4491536 L17.801731,22.4491536 L17.6878599,22.5098474 L15.3439363,23.5708108 C14.8430312,23.7975426 14.253165,23.5752812 14.0264332,23.0743761 C13.9680473,22.9453877 13.9378465,22.8054291 13.9378465,22.6638419 L13.9378465,22.6638419 L13.9375197,16.5793778 L9.21493317,10.6133719 C8.8999696,10.2153891 8.93786502,9.65127615 9.28466832,9.29847314 L9.28466832,9.29847314 L9.3777793,9.21489311 C9.55363576,9.07572029 9.77133111,9 9.99559562,9 L9.99559562,9 Z M21.9140996,9.99555556 L9.99559562,9.99555556 L11.292,11.634 L11.3266552,11.6311111 L17.8727571,11.6311111 C18.1673089,11.6311111 18.4060904,11.8698926 18.4060904,12.1644444 C18.4060904,12.4262683 18.2174236,12.6440267 17.9686244,12.6891851 L17.8727571,12.6977778 L12.134,12.697 L14.9334021,16.2348859 L14.9334021,22.6638419 L17.2773257,21.6028785 L17.2773257,16.2304166 L21.9140996,9.99555556 Z" id="Combined-Shape"></path>
                </g>
            </g>
        </g>
    </g>
</svg>