<?xml version="1.0" encoding="UTF-8"?>
<svg width="59px" height="41px" viewBox="0 0 59 41" version="1.1" xmlns="http://www.w3.org/2000/svg" xmlns:xlink="http://www.w3.org/1999/xlink">
    <!-- Generator: Sketch 63.1 (92452) - https://sketch.com -->
    <title>no data</title>
    <desc>Created with Sketch.</desc>
    <g id="Empty-state" stroke="none" stroke-width="1" fill="none" fill-rule="evenodd">
        <g id="Artboard" transform="translate(-394.000000, -1483.000000)">
            <g id="no-data" transform="translate(394.000000, 1482.000000)">
                <circle id="Oval-Copy-14" fill="#EDEDF9" transform="translate(40.144449, 18.144449) rotate(-4.000000) translate(-40.144449, -18.144449) " cx="40.1444489" cy="18.1444489" r="17"></circle>
                <circle id="Oval-Copy-16" fill="#FFFFFF" transform="translate(45.000000, 11.000000) rotate(-4.000000) translate(-45.000000, -11.000000) " cx="45" cy="11" r="7"></circle>
                <polygon id="Fill-27-Copy-2" fill="#BABAE6" points="0 16.6180471 32 16.6180471 32 14.6180471 0 14.6180471"></polygon>
                <polygon id="Fill-27-Copy-5" fill="#D4D4F0" points="0 16.6180471 24 16.6180471 24 14.6180471 0 14.6180471"></polygon>
                <polygon id="Fill-37" fill="#DBDBF3" points="3.99938052 10 0 6 3.99938052 2 8 6"></polygon>
                <path d="M26,39 C26,40.6573352 24.6565102,42 23.0005314,42 C21.3434898,42 20,40.6573352 20,39 C20,37.3426648 21.3434898,36 23.0005314,36 C24.6565102,36 26,37.3426648 26,39" id="Fill-1" fill-opacity="0.5" fill="#DBDBF3"></path>
                <polygon id="Fill-27-Copy-3" fill="#D4D4F0" points="0 26.6180471 20 26.6180471 20 24.6180471 0 24.6180471"></polygon>
                <polygon id="Fill-27-Copy-4" fill="#D4D4F0" points="0 36 13 36 13 34 0 34"></polygon>
                <path d="M57.1030378,16.9585889 C57.4832503,22.3958818 55.2627809,27.414449 51.5005791,30.7961082 C51.5071918,30.8002124 51.5131787,30.8066378 51.5190295,30.813255 L52.0166879,31.3510892 L52.7840593,32.1573117 C53.9975708,33.4208534 55.7248841,35.1782072 58.0559816,37.5093047 C58.2512438,37.7045669 58.2512438,38.0211494 58.0559816,38.2164115 C57.8607195,38.4116737 57.544137,38.4116737 57.3488749,38.2164115 L54.7129936,35.565257 C53.6458522,34.4844575 52.7682993,33.5845622 52.0628178,32.8499954 L51.2875143,32.0354181 L50.7698683,31.4756428 L50.7424549,31.4386394 C48.1406931,33.5165241 44.9031611,34.8531996 41.330309,35.1030378 C31.964339,35.7579702 23.8407925,28.696279 23.1858601,19.330309 C22.5309276,9.96433896 29.5926189,1.84079248 38.9585889,1.18586005 C48.3245589,0.530927631 56.4481053,7.59261885 57.1030378,16.9585889 Z M39.0283453,2.1834241 C30.2133147,2.79983109 23.5670171,10.4455219 24.1834241,19.2605525 C24.7998311,28.0755831 32.4455219,34.7218807 41.2605525,34.1054737 C50.0755831,33.4890667 56.7218807,25.8433759 56.1054737,17.0283453 C55.4890667,8.21331474 47.8433759,1.56701712 39.0283453,2.1834241 Z" id="Combined-Shape" fill="#7176C4" fill-rule="nonzero"></path>
                <path d="M40.4,11.44 C41.68,11.44 42.68,11.8 43.42,12.52 C44.14,13.2 44.5,14.12 44.5,15.28 C44.5,16.12 44.24,16.88 43.76,17.54 C43.52,17.82 43,18.32 42.18,19.08 C41.7,19.48 41.36,19.86 41.16,20.22 C40.88,20.68 40.74,21.2 40.74,21.76 L40.74,21.76 L40.74,22.2509283 C40.74,22.587822 40.4668937,22.8609283 40.13,22.8609283 C39.7931063,22.8609283 39.52,22.587822 39.52,22.2509283 L39.52,22.2509283 L39.52,21.76 C39.52,21.18 39.64,20.64 39.88,20.16 C40.16,19.56 40.76,18.82 41.72,17.98 C42.18,17.54 42.5,17.22 42.66,17.02 C43.06,16.48 43.28,15.92 43.28,15.32 C43.28,14.46 43.02,13.78 42.54,13.28 C42.02,12.76 41.28,12.52 40.34,12.52 C39.28,12.52 38.48,12.86 37.94,13.58 C37.46,14.2 37.22,15.04 37.2,16.08 L37.2,16.08 L37.19,16.079 L37.1896699,16.0941461 C37.1446876,16.369927 36.9053511,16.5804136 36.6168529,16.5804136 L36.5804136,16.5804136 C36.286854,16.5804136 36.0441963,16.3624767 36.0054094,16.0795718 C36.0002787,16.0610453 36.0006274,16.042145 36.001046,16.0232989 C36.0001658,16.0161577 36,16.0080982 36,16 C36.0352667,14.6770887 36.4143355,13.6232753 37.12,12.8 C37.9,11.88 39,11.44 40.4,11.44 Z M40.14,26 C40.42,26 40.66,25.9 40.86,25.72 C41.06,25.52 41.16,25.28 41.16,25 C41.16,24.7 41.06,24.46 40.86,24.28 C40.66,24.08 40.42,24 40.14,24 C39.86,24 39.62,24.08 39.44,24.28 C39.22,24.46 39.12,24.7 39.12,25 C39.12,25.28 39.22,25.5 39.44,25.7 C39.62,25.9 39.86,26 40.14,26 Z" id="?" fill="#7176C4" fill-rule="nonzero"></path>
            </g>
        </g>
    </g>
</svg>